<svg width="44" height="45" viewBox="0 0 44 45" fill="none" xmlns="http://www.w3.org/2000/svg">
<path d="M43.8356 33.12V41.6266C43.8356 42.8896 42.8592 43.9375 41.5996 44.0265C40.5473 44.1008 39.689 44.1379 39.0243 44.1379C17.7667 44.1379 0.53418 26.9053 0.53418 5.6477C0.53418 4.98304 0.571347 4.12462 0.645681 3.07246C0.734738 1.81283 1.78256 0.836426 3.04533 0.836426H11.5522C12.1697 0.836426 12.6869 1.30413 12.7489 1.91848C12.8045 2.47002 12.8563 2.91283 12.9041 3.24692C13.3907 6.64536 14.3847 9.88007 15.8068 12.8719C16.0351 13.3521 15.8862 13.9269 15.4536 14.236L10.2615 17.9448C13.4224 25.3284 19.3436 31.2497 26.7272 34.4107L30.4293 29.2275C30.7422 28.7897 31.3239 28.6391 31.8098 28.8698C34.8015 30.2908 38.0359 31.2836 41.4338 31.769C41.7658 31.8167 42.2058 31.8679 42.7536 31.9232C43.368 31.9853 43.8356 32.5025 43.8356 33.12Z" fill="#27625F"/>
</svg>
