<svg width="23" height="23" viewBox="0 0 23 23" fill="none" xmlns="http://www.w3.org/2000/svg">
<path d="M11.5 20.7C16.5811 20.7 20.7 16.581 20.7 11.5C20.7 6.41898 16.5811 2.3 11.5 2.3C6.41897 2.3 2.3 6.41898 2.3 11.5C2.3 16.581 6.41897 20.7 11.5 20.7ZM11.5 23C5.14872 23 0 17.8512 0 11.5C0 5.14872 5.14872 0 11.5 0C17.8512 0 23 5.14872 23 11.5C23 17.8512 17.8512 23 11.5 23ZM7.92367 12.8464L5.05091 11.9498C4.43001 11.7593 4.42632 11.3321 5.18993 11.0252L16.3829 6.70167C17.0321 6.43591 17.4012 6.77168 17.1908 7.60887L15.2843 16.6034C15.1516 17.2432 14.7657 17.3956 14.2311 17.1003L11.2976 14.9296L9.93038 16.2492C9.78985 16.3847 9.67554 16.5012 9.46026 16.5304C9.24486 16.5595 9.06735 16.4958 8.93824 16.1388L7.93821 12.8372L7.92367 12.8464Z" fill="#27625F"/>
</svg>
