<svg width="21" height="12" viewBox="0 0 21 12" fill="none" xmlns="http://www.w3.org/2000/svg">
<path d="M20.2065 0.0236278C20.1898 0.197174 20.1387 0.36863 20.0915 0.540085C19.7367 1.82182 19.0643 2.9537 18.1459 3.9678C17.4446 4.74283 16.6389 5.41123 15.6969 5.93605C15.6802 5.94511 15.6649 5.95766 15.6291 5.98275C16.9625 6.58772 18.0804 7.42061 19.014 8.46119C19.9499 9.50456 20.6078 10.6797 21 11.9802C20.936 12.0095 20.8797 11.9976 20.8249 11.9976C19.7024 11.9983 18.58 11.9983 17.4575 11.9976C17.2466 11.9976 17.29 12.0213 17.2245 11.8478C16.8529 10.8713 16.2856 10.0071 15.4761 9.28152C14.5722 8.47094 13.4992 7.95797 12.2504 7.75794C12.1445 7.74121 12.0371 7.73215 11.9305 7.71961C11.8734 7.71264 11.8422 7.73006 11.8452 7.78721C11.8468 7.82485 11.8452 7.86249 11.8452 7.89943C11.8452 9.20834 11.8452 10.5166 11.8452 11.8255C11.8452 12.0234 11.8628 11.9955 11.6556 11.9976C10.9528 12.0046 10.2522 11.9711 9.55542 11.8854C7.80092 11.6687 6.17436 11.1452 4.73056 10.189C3.63552 9.46413 2.75751 8.55737 2.05998 7.50076C1.35483 6.4323 0.876605 5.2795 0.551445 4.07095C0.28492 3.08125 0.124243 2.07552 0.053424 1.05863C0.032102 0.749874 0.016872 0.440418 0.00164196 0.130962C-0.00445004 0.00550646 0.000118971 0.00341553 0.128812 0.00341553C1.2406 0.00341553 2.35315 0.00341553 3.46494 0.00341553C3.59288 0.00341553 3.59211 0.00550646 3.59592 0.130962C3.62334 1.00915 3.71243 1.88036 3.90128 2.74252C4.14572 3.85837 4.53561 4.92405 5.18974 5.89911C5.69766 6.65603 6.33199 7.30491 7.15669 7.78652C7.51232 7.99421 7.89078 8.158 8.29666 8.26743C8.3454 8.28067 8.39261 8.29879 8.44591 8.29322C8.46952 8.23815 8.4581 8.181 8.4581 8.12594C8.4581 5.48023 8.4581 2.83522 8.45886 0.189507C8.45886 -0.0195846 8.42535 0.00271856 8.66294 0.00202158C9.66203 0.00132461 10.6619 0.00132461 11.661 0.00202158C11.8658 0.00202158 11.8437 -0.0188876 11.8437 0.164416C11.8437 1.63224 11.8437 3.10076 11.8437 4.56859C11.8437 4.74771 11.8437 4.74632 12.0333 4.71705C12.6997 4.61389 13.2875 4.34695 13.8312 3.9915C14.6955 3.42765 15.374 2.70628 15.9254 1.88106C16.2962 1.32697 16.5886 0.740116 16.7927 0.117022C16.83 0.00202158 16.8315 0.00132461 16.958 0.00132461C17.9982 0.00132461 19.0384 0.00132461 20.0793 0.00132461C20.1189 0.00132461 20.1616 -0.00773604 20.2058 0.0215368L20.2065 0.0236278Z" fill="#27625F"/>
</svg>
