<svg width="46" height="46" viewBox="0 0 46 46" fill="none" xmlns="http://www.w3.org/2000/svg">
<path d="M27.6262 40.2537C30.5129 38.6878 32.9273 36.3347 34.5675 33.4917C34.8868 32.9406 34.0339 32.4463 33.719 32.9931C32.1575 35.7005 29.8743 37.9137 27.1276 39.4051C26.5721 39.7069 27.0663 40.5555 27.6262 40.2537Z" fill="#27625F"/>
<path d="M17.1993 16.8313H36.4268L35.937 16.3414V19.2763C35.937 19.9105 36.9211 19.9105 36.9211 19.2763V16.3414C36.9211 16.0746 36.6936 15.8516 36.4312 15.8516H17.2037C16.5695 15.8516 16.5695 16.8357 17.2037 16.8357L17.1993 16.8313Z" fill="#27625F"/>
<path d="M10.0524 39.4048C5.90158 37.1435 2.82676 33.2202 1.71142 28.6145C1.0116 25.7321 1.24779 22.6442 1.24779 19.7005V16.3414L0.757919 16.8313H7.80422C8.43843 16.8313 8.43843 15.8472 7.80422 15.8472H0.753545C0.486739 15.8472 0.263672 16.0746 0.263672 16.337V23.8164C0.263672 25.3603 0.333654 26.8868 0.65732 28.4045C1.16031 30.762 2.16193 33.0233 3.57031 34.9785C5.14491 37.1654 7.19187 38.9674 9.55814 40.2577C10.1136 40.5595 10.6122 39.711 10.0568 39.4092L10.0524 39.4048Z" fill="#27625F"/>
<path d="M13.1577 2.18751C12.5059 3.00105 12.0205 3.96767 12.1167 5.04365C12.1998 5.99715 12.7378 6.73633 13.2976 7.47989C13.8181 8.16658 14.2905 8.88827 14.2686 9.78054C14.2467 10.7953 13.6607 11.7225 13.0439 12.488C12.6503 12.9778 13.3414 13.6777 13.7394 13.1834C14.9247 11.7094 15.747 9.89864 14.8547 8.07036C14.4567 7.25682 13.77 6.63573 13.3589 5.83531C12.834 4.82495 13.1752 3.73586 13.8575 2.88733C14.2511 2.39746 13.5557 1.69764 13.162 2.19188L13.1577 2.18751Z" fill="#27625F"/>
<path d="M18.0742 0.289562C17.4225 1.1031 16.937 2.06972 17.0332 3.1457C17.1163 4.0992 17.6543 4.83838 18.2141 5.58194C18.7346 6.26864 19.207 6.99032 19.1851 7.88259C19.1633 8.89733 18.5772 9.82459 17.9604 10.59C17.5668 11.0799 18.2579 11.7797 18.6559 11.2855C19.8412 9.81147 20.6635 8.00069 19.7712 6.17241C19.3732 5.35887 18.6865 4.73778 18.2754 3.93737C17.7505 2.927 18.0917 1.83791 18.774 0.98938C19.1676 0.499507 18.4722 -0.200311 18.0785 0.293936L18.0742 0.289562Z" fill="#27625F"/>
<path d="M23.0034 2.27931C22.3517 3.09285 21.8662 4.05947 21.9624 5.13544C22.0455 6.08894 22.5835 6.82813 23.1433 7.57169C23.6638 8.25838 24.1362 8.98007 24.1143 9.87234C24.0925 10.8871 23.5064 11.8143 22.8896 12.5798C22.496 13.0696 23.1871 13.7695 23.5851 13.2752C24.7704 11.8012 25.5927 9.99043 24.7004 8.16216C24.3024 7.34862 23.6157 6.72753 23.2046 5.92711C22.6797 4.91675 23.0209 3.82766 23.7032 2.97913C24.0968 2.48925 23.4014 1.78943 23.0077 2.28368L23.0034 2.27931Z" fill="#27625F"/>
<path d="M33.6844 44.3035H6.82884C6.40895 44.3035 5.98906 44.3166 5.56917 44.3035C3.18979 44.2291 1.24779 42.2128 1.24779 39.8334L0.757919 40.3233H37.096C37.5596 40.3233 38.1326 40.4151 38.5875 40.3233C38.6094 40.3233 38.6312 40.3233 38.6531 40.3233L38.1632 39.8334C38.1632 42.3002 36.1294 44.2685 33.6931 44.3035C33.0589 44.3122 33.0589 45.2963 33.6931 45.2876C36.663 45.2439 39.1473 42.8382 39.1473 39.8334C39.1473 39.5666 38.9199 39.3435 38.6575 39.3435H5.42046C3.90273 39.3435 2.33688 39.2298 0.819153 39.3435C0.797283 39.3435 0.775414 39.3435 0.753545 39.3435C0.486739 39.3435 0.263672 39.571 0.263672 39.8334C0.263672 41.8935 1.47523 43.8573 3.34287 44.7452C4.21765 45.1608 5.13178 45.292 6.08529 45.292H33.6844C34.3186 45.292 34.3186 44.3078 33.6844 44.3078V44.3035Z" fill="#27625F"/>
<path d="M44.2518 19.2721C44.2518 21.3409 44.2518 23.4054 44.2518 25.4742C44.243 29.1614 41.4919 32.433 37.7347 32.7261C36.5494 32.8179 35.3378 32.7479 34.1481 32.7479L34.5724 33.4871C36.1995 30.631 36.9212 27.4906 36.9212 24.2145V19.2677L36.4313 19.7576H44.746C45.3802 19.7576 45.3802 18.7734 44.746 18.7734H36.4313C36.1645 18.7734 35.9414 19.0009 35.9414 19.2633V24.0746C35.9414 27.2281 35.2985 30.2242 33.7239 32.9841C33.5402 33.3078 33.772 33.7233 34.1481 33.7233C35.2154 33.7233 36.287 33.7496 37.3586 33.7233C39.4187 33.6621 41.4088 32.8092 42.8653 31.3527C44.3218 29.8962 45.1528 27.9542 45.2359 25.9247C45.2753 24.91 45.2403 23.8909 45.2403 22.8761V19.2677C45.2403 18.6335 44.2561 18.6335 44.2561 19.2677L44.2518 19.2721Z" fill="#27625F"/>
<path d="M40.5859 22.7799C40.5859 23.8121 40.5859 24.8444 40.5859 25.8766C40.5815 27.6611 39.2038 29.1964 37.3842 29.2445C36.8156 29.2576 36.2427 29.2445 35.674 29.2445L36.1464 29.8656C36.6582 28.186 36.9162 26.4364 36.9206 24.6825C36.9206 24.0483 36.9206 23.4141 36.9206 22.7799L36.4307 23.2698H41.0801C41.7144 23.2698 41.7144 22.2856 41.0801 22.2856H36.4307C36.1639 22.2856 35.9409 22.5131 35.9409 22.7755C35.9409 23.4054 35.9409 24.0396 35.9409 24.6694C35.9409 26.3446 35.6915 27.9979 35.2017 29.5987C35.1098 29.9049 35.3635 30.2198 35.674 30.2198C36.212 30.2198 36.7456 30.2242 37.2836 30.2198C38.3596 30.2067 39.3875 29.8174 40.1835 29.0914C40.9795 28.3653 41.4738 27.3156 41.5569 26.2265C41.5963 25.6973 41.57 25.1593 41.57 24.6257V22.7711C41.57 22.1369 40.5859 22.1369 40.5859 22.7711V22.7799Z" fill="#27625F"/>
<path d="M31.8429 24.044C31.8998 27.6087 30.4958 31.0684 27.9633 33.579C27.5128 34.0252 28.2082 34.7206 28.6587 34.2745C31.3705 31.5846 32.8839 27.8624 32.827 24.044C32.8183 23.4098 31.8342 23.4098 31.8429 24.044Z" fill="#27625F"/>
<path d="M10.8397 16.8883C11.144 16.8883 11.3908 16.6416 11.3908 16.3372C11.3908 16.0329 11.144 15.7861 10.8397 15.7861C10.5353 15.7861 10.2886 16.0329 10.2886 16.3372C10.2886 16.6416 10.5353 16.8883 10.8397 16.8883Z" fill="#27625F"/>
<path d="M26.266 36.1813C26.5703 36.1813 26.8171 35.9346 26.8171 35.6302C26.8171 35.3258 26.5703 35.0791 26.266 35.0791C25.9616 35.0791 25.7148 35.3258 25.7148 35.6302C25.7148 35.9346 25.9616 36.1813 26.266 36.1813Z" fill="#27625F"/>
</svg>
