<svg width="56" height="50" viewBox="0 0 56 50" fill="none" xmlns="http://www.w3.org/2000/svg">
<path d="M6.18747 16.4449L6.84384 17.7772C7.05936 18.218 7.26019 18.8744 7.69123 19.1585C8.12228 19.4426 8.76885 19.4132 9.24398 19.4818L10.1844 19.6189C10.2285 19.6238 10.6449 19.6385 10.6743 19.6826C10.6841 19.7022 9.83666 20.4908 9.7485 20.5741C9.40072 20.917 8.9109 21.2647 8.65619 21.6909C8.36719 22.1709 8.58761 22.8273 8.67578 23.3416C8.76885 23.8804 8.93049 24.4486 8.95988 24.9972C8.95988 25.0658 8.96967 24.9629 8.98437 24.9727C8.92559 24.9531 8.87171 24.9139 8.81293 24.8845L8.02431 24.4682C7.58837 24.238 7.15732 23.9882 6.70668 23.7775C6.06501 23.4787 5.56049 23.8265 5.00699 24.1155C4.49268 24.3849 3.89999 24.6151 3.42486 24.9482C3.34649 25.0021 3.38567 25.0658 3.41506 24.909C3.47384 24.6249 3.51303 24.3359 3.56201 24.0518C3.65018 23.5326 3.75794 23.0183 3.82652 22.4991C3.92448 21.8133 3.50813 21.4656 3.07219 21.0394C2.63624 20.6133 2.16111 20.2312 1.77415 19.7757C1.65659 19.6385 1.66149 19.7169 1.80354 19.6826C2.06805 19.614 2.36194 19.5993 2.63134 19.5601C3.19464 19.4769 3.80692 19.4524 4.35063 19.3005C5.00699 19.1193 5.23721 18.3356 5.50661 17.787L5.98664 16.8171C6.02583 16.7388 6.16298 16.4449 6.17278 16.4547C6.54994 17.0522 7.5051 16.4987 7.12304 15.8963C6.59892 15.0685 5.56539 15.2203 5.14414 16.0383C4.83555 16.6359 4.54656 17.2482 4.24777 17.8556C4.17919 17.9976 4.13021 18.1837 3.99306 18.2572C3.83631 18.3405 3.53752 18.3258 3.36118 18.3503C2.73911 18.4433 2.09254 18.4923 1.47536 18.6246C0.574081 18.8156 0.319372 19.8442 0.926755 20.4908C1.3578 20.9513 1.83783 21.3774 2.28847 21.8182C2.42072 21.9456 2.64114 22.0925 2.73421 22.2542C2.7685 22.3081 2.73421 22.1415 2.7489 22.2738C2.7587 22.3962 2.69992 22.553 2.68033 22.6754C2.56767 23.3318 2.45011 23.9882 2.34235 24.6445C2.1905 25.5899 2.95953 26.3834 3.90979 25.9377C4.4437 25.6879 4.95311 25.3891 5.47722 25.1148C5.68295 25.007 5.91317 24.8405 6.13849 24.767C6.23155 24.7376 6.15808 24.7425 6.15808 24.7425C6.24135 24.7523 6.36381 24.8503 6.43728 24.8894L8.24473 25.8397C8.50434 25.9769 8.75905 26.0895 9.06274 26.065C9.59175 26.016 10.0277 25.5605 10.0424 25.0266C10.062 24.4339 9.84646 23.7726 9.7485 23.1946C9.69951 22.9154 9.65053 22.6362 9.60645 22.357C9.58685 22.2395 9.62114 22.215 9.59175 22.264C9.62114 22.2101 9.69951 22.1611 9.7436 22.117L11.2082 20.6916C11.4384 20.4663 11.6686 20.2557 11.7421 19.9275C11.8596 19.3936 11.5462 18.8205 11.0171 18.6589C10.4098 18.4678 9.69461 18.4531 9.06764 18.365C8.87171 18.3356 8.52393 18.3552 8.3476 18.2621C8.18106 18.1739 8.10758 17.885 8.02921 17.7233C7.73042 17.1159 7.43162 16.5085 7.13283 15.9061C6.81934 15.2693 5.86908 15.8277 6.18257 16.4645L6.18747 16.4449Z" fill="#27625F"/>
<path d="M15.9101 6.45219L16.5665 7.78451C16.782 8.22535 16.9828 8.88172 17.4139 9.16582C17.8449 9.44992 18.4915 9.42053 18.9666 9.4891L19.9071 9.62625C19.9512 9.63115 20.3675 9.64585 20.3969 9.68993C20.4067 9.70952 19.5593 10.4981 19.4712 10.5814C19.1234 10.9243 18.6336 11.2721 18.3788 11.6982C18.0898 12.1782 18.3103 12.8346 18.3984 13.3489C18.4915 13.8877 18.6531 14.4559 18.6825 15.0045C18.6825 15.0731 18.6923 14.9702 18.707 14.98C18.6482 14.9604 18.5944 14.9213 18.5356 14.8919L17.747 14.4755C17.311 14.2453 16.88 13.9955 16.4293 13.7849C15.7877 13.4861 15.2832 13.8338 14.7296 14.1228C14.2153 14.3922 13.6226 14.6225 13.1475 14.9555C13.0691 15.0094 13.1083 15.0731 13.1377 14.9164C13.1965 14.6323 13.2357 14.3433 13.2847 14.0592C13.3728 13.54 13.4806 13.0256 13.5492 12.5064C13.6471 11.8207 13.2308 11.4729 12.7948 11.0467C12.3589 10.6206 11.8838 10.2385 11.4968 9.783C11.3792 9.64585 11.3841 9.72422 11.5262 9.68993C11.7907 9.62135 12.0846 9.60666 12.354 9.56747C12.9173 9.4842 13.5296 9.45971 14.0733 9.30787C14.7296 9.12663 14.9599 8.34291 15.2293 7.79431L15.7093 6.82446C15.7485 6.74608 15.8856 6.45219 15.8954 6.46199C16.2726 7.05957 17.2278 6.50607 16.8457 5.90359C16.3216 5.07578 15.288 5.22763 14.8668 6.04564C14.5582 6.64322 14.2692 7.2555 13.9704 7.86288C13.9018 8.00493 13.8529 8.19107 13.7157 8.26454C13.559 8.34781 13.2602 8.33312 13.0838 8.35761C12.4618 8.45067 11.8152 8.49966 11.198 8.63191C10.2967 8.82294 10.042 9.85157 10.6494 10.4981C11.0805 10.9586 11.5605 11.3847 12.0111 11.8256C12.1434 11.9529 12.3638 12.0999 12.4569 12.2615C12.4912 12.3154 12.4569 12.1488 12.4716 12.2811C12.4814 12.4036 12.4226 12.5603 12.403 12.6828C12.2903 13.3391 12.1728 13.9955 12.065 14.6519C11.9132 15.5972 12.6822 16.3907 13.6324 15.945C14.1664 15.6952 14.6758 15.3964 15.1999 15.1221C15.4056 15.0143 15.6358 14.8478 15.8611 14.7743C15.9542 14.7449 15.8807 14.7498 15.8807 14.7498C15.964 14.7596 16.0865 14.8576 16.1599 14.8968L17.9674 15.847C18.227 15.9842 18.4817 16.0968 18.7854 16.0723C19.3144 16.0234 19.7504 15.5678 19.765 15.0339C19.7846 14.4412 19.5691 13.78 19.4712 13.202C19.4222 12.9228 19.3732 12.6436 19.3291 12.3644C19.3095 12.2468 19.3438 12.2223 19.3144 12.2713C19.3438 12.2174 19.4222 12.1684 19.4663 12.1244L20.9308 10.699C21.161 10.4736 21.3913 10.263 21.4647 9.93484C21.5823 9.40093 21.2688 8.82784 20.7398 8.6662C20.1324 8.47516 19.4173 8.46047 18.7903 8.3723C18.5944 8.34291 18.2466 8.36251 18.0703 8.26944C17.9037 8.18127 17.8302 7.89227 17.7519 7.73063C17.4531 7.12325 17.1543 6.51587 16.8555 5.91338C16.542 5.27661 15.5917 5.83501 15.9052 6.47178L15.9101 6.45219Z" fill="#27625F"/>
<path d="M27.9443 1.83305L28.6007 3.16537C28.8162 3.60621 29.017 4.26258 29.4481 4.54668C29.8791 4.83078 30.5257 4.80139 31.0008 4.86996L31.9413 5.00711C31.9854 5.01201 32.4017 5.0267 32.4311 5.07079C32.4409 5.09038 31.5935 5.879 31.5053 5.96227C31.1576 6.30515 30.6677 6.65292 30.413 7.07907C30.124 7.5591 30.3444 8.21546 30.4326 8.72978C30.5257 9.26859 30.6873 9.83678 30.7167 10.3854C30.7167 10.454 30.7265 10.3511 30.7412 10.3609C30.6824 10.3413 30.6285 10.3021 30.5698 10.2727L29.7811 9.85638C29.3452 9.62616 28.9142 9.37635 28.4635 9.16572C27.8218 8.86693 27.3173 9.21471 26.7638 9.5037C26.2495 9.77311 25.6568 10.0033 25.1817 10.3364C25.1033 10.3903 25.1425 10.454 25.1719 10.2972C25.2307 10.0131 25.2699 9.72412 25.3188 9.44003C25.407 8.92081 25.5148 8.40649 25.5834 7.88728C25.6813 7.20153 25.265 6.85375 24.829 6.4276C24.3931 6.00146 23.9179 5.61939 23.531 5.16386C23.4134 5.02671 23.4183 5.10508 23.5604 5.07079C23.8249 5.00221 24.1188 4.98752 24.3882 4.94833C24.9515 4.86506 25.5638 4.84057 26.1075 4.68873C26.7638 4.50749 26.994 3.72377 27.2634 3.17517L27.7435 2.20532C27.7827 2.12694 27.9198 1.83305 27.9296 1.84285C28.3068 2.44043 29.2619 1.88693 28.8799 1.28445C28.3558 0.456642 27.3222 0.608488 26.901 1.42649C26.5924 2.02408 26.3034 2.63636 26.0046 3.24374C25.936 3.38579 25.887 3.57193 25.7499 3.6454C25.5931 3.72867 25.2944 3.71398 25.118 3.73847C24.4959 3.83153 23.8494 3.88052 23.2322 4.01277C22.3309 4.2038 22.0762 5.23243 22.6836 5.879C23.1146 6.33944 23.5947 6.76558 24.0453 7.20642C24.1776 7.33378 24.398 7.48073 24.491 7.64237C24.5253 7.69625 24.491 7.52971 24.5057 7.66196C24.5155 7.78442 24.4568 7.94116 24.4372 8.06362C24.3245 8.71998 24.2069 9.37635 24.0992 10.0327C23.9473 10.9781 24.7164 11.7716 25.6666 11.3258C26.2005 11.076 26.7099 10.7772 27.2341 10.5029C27.4398 10.3952 27.67 10.2286 27.8953 10.1552C27.9884 10.1258 27.9149 10.1307 27.9149 10.1307C27.9982 10.1405 28.1206 10.2384 28.1941 10.2776L30.0016 11.2279C30.2612 11.365 30.5159 11.4777 30.8196 11.4532C31.3486 11.4042 31.7845 10.9487 31.7992 10.4148C31.8188 9.82209 31.6033 9.16082 31.5053 8.58283C31.4563 8.30363 31.4074 8.02443 31.3633 7.74523C31.3437 7.62767 31.378 7.60318 31.3486 7.65216C31.378 7.59828 31.4563 7.5493 31.5004 7.50522L32.965 6.07983C33.1952 5.85451 33.4254 5.64388 33.4989 5.3157C33.6165 4.78179 33.303 4.2087 32.774 4.04706C32.1666 3.85602 31.4514 3.84133 30.8245 3.75316C30.6285 3.72377 30.2808 3.74336 30.1044 3.6503C29.9379 3.56213 29.8644 3.27313 29.786 3.11149C29.4873 2.50411 29.1885 1.89673 28.8897 1.29424C28.5762 0.65747 27.6259 1.21587 27.9394 1.85264L27.9443 1.83305Z" fill="#27625F"/>
<path d="M39.9614 6.65776L40.6178 7.99008C40.8333 8.43092 41.0341 9.08729 41.4652 9.37138C41.8962 9.65548 42.5428 9.62609 43.0179 9.69467L43.9584 9.83182C44.0024 9.83672 44.4188 9.85141 44.4482 9.8955C44.458 9.91509 43.6106 10.7037 43.5224 10.787C43.1746 11.1299 42.6848 11.4776 42.4301 11.9038C42.1411 12.3838 42.3615 13.0402 42.4497 13.5545C42.5428 14.0933 42.7044 14.6615 42.7338 15.2101C42.7338 15.2787 42.7436 15.1758 42.7583 15.1856C42.6995 15.166 42.6456 15.1268 42.5869 15.0974L41.7982 14.6811C41.3623 14.4509 40.9313 14.2011 40.4806 13.9904C39.8389 13.6916 39.3344 14.0394 38.7809 14.3284C38.2666 14.5978 37.6739 14.828 37.1988 15.1611C37.1204 15.215 37.1596 15.2787 37.189 15.1219C37.2478 14.8378 37.287 14.5488 37.3359 14.2647C37.4241 13.7455 37.5319 13.2312 37.6004 12.712C37.6984 12.0262 37.2821 11.6785 36.8461 11.2523C36.4102 10.8262 35.935 10.4441 35.5481 9.98856C35.4305 9.85141 35.4354 9.92978 35.5775 9.8955C35.842 9.82692 36.1359 9.81223 36.4053 9.77304C36.9686 9.68977 37.5809 9.66528 38.1246 9.51343C38.7809 9.3322 39.0111 8.54848 39.2805 7.99988L39.7606 7.03002C39.7998 6.95165 39.9369 6.65776 39.9467 6.66755C40.3239 7.26514 41.279 6.71164 40.897 6.10915C40.3728 5.28135 39.3393 5.43319 38.9181 6.2512C38.6095 6.84879 38.3205 7.46107 38.0217 8.06845C37.9531 8.2105 37.9041 8.39663 37.767 8.47011C37.6102 8.55338 37.3114 8.53868 37.1351 8.56317C36.513 8.65624 35.8665 8.70522 35.2493 8.83748C34.348 9.02851 34.0933 10.0571 34.7007 10.7037C35.1317 11.1641 35.6118 11.5903 36.0624 12.0311C36.1946 12.1585 36.4151 12.3054 36.5081 12.4671C36.5424 12.521 36.5081 12.3544 36.5228 12.4867C36.5326 12.6091 36.4738 12.7659 36.4543 12.8883C36.3416 13.5447 36.224 14.2011 36.1163 14.8574C35.9644 15.8028 36.7335 16.5963 37.6837 16.1506C38.2176 15.9007 38.727 15.602 39.2512 15.3277C39.4569 15.2199 39.6871 15.0533 39.9124 14.9799C40.0055 14.9505 39.932 14.9554 39.932 14.9554C40.0153 14.9652 40.1377 15.0631 40.2112 15.1023L42.0187 16.0526C42.2783 16.1897 42.533 16.3024 42.8367 16.2779C43.3657 16.2289 43.8016 15.7734 43.8163 15.2395C43.8359 14.6468 43.6204 13.9855 43.5224 13.4075C43.4734 13.1283 43.4245 12.8491 43.3804 12.5699C43.3608 12.4524 43.3951 12.4279 43.3657 12.4769C43.3951 12.423 43.4734 12.374 43.5175 12.3299L44.9821 10.9045C45.2123 10.6792 45.4425 10.4686 45.516 10.1404C45.6336 9.6065 45.3201 9.0334 44.7911 8.87176C44.1837 8.68073 43.4685 8.66604 42.8416 8.57787C42.6456 8.54848 42.2979 8.56807 42.1215 8.47501C41.955 8.38684 41.8815 8.09784 41.8031 7.9362C41.5043 7.32882 41.2056 6.72143 40.9068 6.11895C40.5933 5.48218 39.643 6.04058 39.9565 6.67735L39.9614 6.65776Z" fill="#27625F"/>
<path d="M49.7231 16.2095C49.9435 16.6553 50.164 17.0961 50.3795 17.5418C50.595 17.9876 50.7958 18.639 51.2269 18.9231C51.6579 19.2072 52.3045 19.1779 52.7796 19.2464L53.7201 19.3836C53.7642 19.3885 54.1805 19.4032 54.2099 19.4473C54.2197 19.4668 53.3723 20.2555 53.2841 20.3387C52.9364 20.6816 52.4465 21.0294 52.1918 21.4555C51.9028 21.9356 52.1233 22.5919 52.2114 23.1062C52.3045 23.6451 52.4661 24.2132 52.4955 24.7619C52.4955 24.8304 52.5053 24.7276 52.52 24.7374C52.4612 24.7178 52.4074 24.6786 52.3486 24.6492L51.56 24.2328C51.124 24.0026 50.693 23.7528 50.2423 23.5422C49.6007 23.2434 49.0961 23.5912 48.5426 23.8802C48.0283 24.1496 47.4356 24.3798 46.9605 24.7129C46.8821 24.7667 46.9213 24.8304 46.9507 24.6737C47.0095 24.3896 47.0487 24.1006 47.0977 23.8165C47.1858 23.2973 47.2936 22.783 47.3622 22.2637C47.4601 21.578 47.0438 21.2302 46.6078 20.8041C46.1719 20.3779 45.6968 19.9959 45.3098 19.5403C45.1922 19.4032 45.1971 19.4815 45.3392 19.4473C45.6037 19.3787 45.8976 19.364 46.167 19.3248C46.7303 19.2415 47.3426 19.217 47.8863 19.0652C48.5426 18.884 48.7729 18.1002 49.0423 17.5516L49.5223 16.5818C49.5615 16.5034 49.6986 16.2095 49.7084 16.2193C50.0856 16.8169 51.0407 16.2634 50.6587 15.6609C50.1346 14.8331 49.101 14.985 48.6798 15.803C48.3712 16.4005 48.0822 17.0128 47.7834 17.6202C47.7148 17.7623 47.6659 17.9484 47.5287 18.0219C47.372 18.1051 47.0732 18.0904 46.8968 18.1149C46.2748 18.208 45.6282 18.257 45.011 18.3892C44.1097 18.5803 43.855 19.6089 44.4624 20.2555C44.8934 20.7159 45.3735 21.142 45.8241 21.5829C45.9564 21.7102 46.1768 21.8572 46.2699 22.0188C46.3041 22.0727 46.2699 21.9062 46.2845 22.0384C46.2943 22.1609 46.2356 22.3176 46.216 22.4401C46.1033 23.0964 45.9858 23.7528 45.878 24.4092C45.7261 25.3545 46.4952 26.1481 47.4454 25.7023C47.9793 25.4525 48.4888 25.1537 49.0129 24.8794C49.2186 24.7716 49.4488 24.6051 49.6741 24.5316C49.7672 24.5022 49.6937 24.5071 49.6937 24.5071C49.777 24.5169 49.8995 24.6149 49.9729 24.6541L51.7804 25.6043C52.04 25.7415 52.2947 25.8542 52.5984 25.8297C53.1274 25.7807 53.5633 25.3251 53.578 24.7912C53.5976 24.1986 53.3821 23.5373 53.2841 22.9593C53.2352 22.6801 53.1862 22.4009 53.1421 22.1217C53.1225 22.0041 53.1568 21.9796 53.1274 22.0286C53.1568 21.9747 53.2352 21.9258 53.2792 21.8817L54.7438 20.4563C54.974 20.231 55.2043 20.0203 55.2777 19.6922C55.3953 19.1583 55.0818 18.5852 54.5528 18.4235C53.9454 18.2325 53.2303 18.2178 52.6033 18.1296C52.4074 18.1002 52.0596 18.1198 51.8832 18.0268C51.7167 17.9386 51.6432 17.6496 51.5649 17.488C51.2661 16.8806 50.9673 16.2732 50.6685 15.6707C50.355 15.0339 49.4047 15.5923 49.7182 16.2291L49.7231 16.2095Z" fill="#27625F"/>
<path d="M11.5661 36.2627V31.4183C11.5661 30.6885 11.4387 29.8313 11.5661 29.1112C11.6395 28.69 12.3008 28.8712 12.6633 28.8712H17.0766C17.2382 28.8712 17.4733 28.8075 17.5713 28.9692C17.6595 29.1112 17.5713 29.5913 17.5713 29.7529V46.4608C17.5713 46.8527 17.6497 47.3376 17.5713 47.7246C17.5027 48.0821 17.0619 47.945 16.7435 47.945H12.3155C12.1832 47.945 11.7865 48.0185 11.6689 47.945C11.3995 47.7882 11.571 46.7694 11.571 46.5098V40.1862C11.571 39.4759 10.4689 39.4759 10.4689 40.1862V45.5693C10.4689 46.309 10.4346 47.0584 10.4689 47.798C10.5178 48.8022 11.2869 49.0471 12.1343 49.0471C13.9074 49.0471 15.7149 49.15 17.4831 49.0471C19.0506 48.954 18.6832 46.9066 18.6832 45.8387V32.6331C18.6832 31.4281 18.742 30.2084 18.6832 29.0035C18.6391 28.0728 17.9289 27.7691 17.1207 27.7691H13.976C13.2168 27.7691 12.4379 27.725 11.6787 27.7691C10.6207 27.8328 10.4737 28.6998 10.4737 29.5423V36.2627C10.4737 36.9729 11.5759 36.9729 11.5759 36.2627H11.5661Z" fill="#27625F"/>
<path d="M18.5117 31.992C20.5543 30.0229 23.1259 28.72 25.0411 26.6137C26.1971 25.3451 27.0445 23.8266 27.3678 22.1318C27.5196 21.3334 27.5686 20.5252 27.5294 19.717C27.4951 18.9627 27.7743 18.2475 28.5923 18.0663C29.4103 17.8851 30.0569 18.4043 30.2724 19.1684C30.581 20.2754 30.8602 21.3922 31.1541 22.5041C31.3353 23.1899 32.3982 22.9009 32.217 22.2102C31.9329 21.1375 31.6586 20.0648 31.3647 18.9921C31.1639 18.2475 30.7867 17.5961 30.0863 17.2189C28.7393 16.4988 27.0053 17.1993 26.535 18.6492C26.2803 19.4427 26.4812 20.3391 26.4028 21.162C26.2999 22.22 25.9815 23.2584 25.4623 24.1891C24.6786 25.5851 23.4687 26.7411 22.2099 27.7207C21.6074 28.191 20.9462 28.5828 20.329 29.0237C19.4081 29.6849 18.546 30.4246 17.7329 31.2083C17.2235 31.703 18.0023 32.4818 18.5117 31.9871V31.992Z" fill="#27625F"/>
<path d="M31.2039 25.7313C31.0765 27.0832 30.7385 28.3567 30.474 29.6841C30.3565 30.2621 30.283 30.8548 30.2879 31.4475C30.2879 31.8639 30.3124 32.2704 30.234 32.6819C29.8128 34.8371 28.0249 36.2282 25.8403 36.1596C25.1301 36.1351 25.1301 37.2372 25.8403 37.2617C28.3923 37.345 30.6014 35.7433 31.2333 33.255C31.4929 32.2459 31.3214 31.2075 31.4978 30.1838C31.6006 29.596 31.777 29.0278 31.9043 28.4449C32.0954 27.5485 32.2227 26.6423 32.306 25.7362C32.3697 25.0308 31.2676 25.0357 31.2039 25.7362V25.7313Z" fill="#27625F"/>
<path d="M41.5225 33.9756H38.1574C37.7313 33.9756 37.3051 33.9854 36.879 33.9756C35.9973 33.956 35.2185 33.329 35.1009 32.4277C34.9834 31.5265 35.6103 30.635 36.5165 30.4537C36.9133 30.3754 37.359 30.4194 37.7607 30.4194C38.9852 30.4194 40.2147 30.4097 41.4392 30.4194C42.3111 30.4243 43.09 30.9583 43.2663 31.8448C43.4916 32.9518 42.6246 33.9462 41.5225 33.9756C40.8123 33.9952 40.8123 35.0973 41.5225 35.0777C42.7667 35.0434 43.8688 34.2793 44.2655 33.0792C44.6623 31.8791 44.2263 30.6546 43.2908 29.9296C42.6491 29.43 41.9144 29.3173 41.1258 29.3173H38.7354C38.1231 29.3173 37.5108 29.3075 36.9035 29.3173C35.8405 29.3369 34.8266 29.8855 34.3319 30.8505C33.7735 31.9281 33.9449 33.2457 34.758 34.147C35.3703 34.823 36.2177 35.0777 37.1043 35.0777H41.5323C42.2426 35.0777 42.2426 33.9756 41.5323 33.9756H41.5225Z" fill="#27625F"/>
<path d="M42.6011 38.6333H39.236C38.8099 38.6333 38.3837 38.6431 37.9576 38.6333C37.0759 38.6137 36.2971 37.9867 36.1795 37.0854C36.062 36.1842 36.6889 35.2927 37.5951 35.1114C37.9919 35.0331 38.4376 35.0772 38.8393 35.0772C40.0638 35.0772 41.2933 35.0674 42.5179 35.0772C43.3897 35.0821 44.1686 35.616 44.3449 36.5026C44.5702 37.6096 43.7032 38.6039 42.6011 38.6333C41.8909 38.6529 41.8909 39.755 42.6011 39.7354C43.8453 39.7011 44.9474 38.937 45.3441 37.7369C45.7409 36.5368 45.305 35.3123 44.3694 34.5873C43.7277 34.0877 42.993 33.9751 42.2044 33.9751H39.814C39.2017 33.9751 38.5895 33.9653 37.9821 33.9751C36.9192 33.9947 35.9052 34.5433 35.4105 35.5082C34.8521 36.5858 35.0235 37.9035 35.8366 38.8047C36.4489 39.4807 37.2963 39.7354 38.1829 39.7354H42.6109C43.3212 39.7354 43.3212 38.6333 42.6109 38.6333H42.6011Z" fill="#27625F"/>
<path d="M41.3217 43.2871H38.1329C37.7166 43.2871 37.2953 43.2969 36.879 43.2871C35.9973 43.2675 35.2185 42.6356 35.1009 41.7393C34.9834 40.8429 35.6103 39.9465 36.5165 39.7653C36.9084 39.6869 37.3443 39.731 37.7411 39.731C38.9167 39.731 40.0873 39.7212 41.2629 39.731C42.1642 39.7408 42.9675 40.353 43.0851 41.2788C43.2222 42.3466 42.3748 43.2577 41.3168 43.2871C40.6066 43.3067 40.6066 44.4088 41.3168 44.3892C42.5659 44.3549 43.6582 43.5859 44.0598 42.3907C44.4321 41.2788 44.0353 40.0102 43.1292 39.2754C42.4875 38.7562 41.7478 38.6289 40.9543 38.6289H38.6864C38.0889 38.6289 37.4913 38.6191 36.8937 38.6289C35.8308 38.6485 34.8168 39.1971 34.3221 40.162C33.7735 41.22 33.9253 42.5132 34.7091 43.4145C35.3164 44.11 36.1687 44.3892 37.0651 44.3892H41.3168C42.027 44.3892 42.027 43.2871 41.3168 43.2871H41.3217Z" fill="#27625F"/>
<path d="M40.0441 47.9457C39.3485 47.9457 38.6481 47.9604 37.9476 47.9457C36.7035 47.9212 35.812 46.6526 36.3018 45.4819C36.5419 44.9039 37.1003 44.4827 37.7223 44.4043C38.0603 44.3602 38.4228 44.3945 38.7608 44.3945C39.6767 44.3945 40.7152 44.2377 41.3862 45.0117C42.3806 46.1579 41.5136 47.9212 40.0392 47.9506C39.329 47.9653 39.329 49.0674 40.0392 49.0527C41.8907 49.0184 43.3014 47.26 42.8214 45.4378C42.601 44.6002 41.9936 43.89 41.2001 43.5471C40.6368 43.3022 40.0686 43.2973 39.471 43.2973C38.1926 43.2973 36.8504 43.1552 35.8708 44.1741C34.5924 45.5015 34.896 47.7498 36.4978 48.6707C37.1198 49.0282 37.7811 49.0576 38.4718 49.0576H40.0343C40.7445 49.0576 40.7445 47.9555 40.0343 47.9555L40.0441 47.9457Z" fill="#27625F"/>
<path d="M17.9771 47.0633C19.6033 47.318 21.1855 47.8127 22.6157 48.6307C22.8313 48.7532 23.0468 48.9393 23.277 49.0324C23.5072 49.1254 23.7276 49.1058 23.9726 49.1058H28.9835C29.6937 49.1058 29.6937 48.0037 28.9835 48.0037H25.6429C25.0894 48.0037 24.5261 48.038 23.9726 48.0037C23.5268 47.9743 23.179 47.6707 22.7872 47.4649C21.3814 46.7253 19.8433 46.2453 18.271 45.9955C17.5754 45.8877 17.2767 46.9506 17.9771 47.0584V47.0633Z" fill="#27625F"/>
<path d="M13.4023 32.8729V34.9351C13.4023 35.2241 13.6571 35.4984 13.9509 35.4837C14.2448 35.469 14.4996 35.2436 14.4996 34.9351V32.8729C14.4996 32.5839 14.2448 32.3096 13.9509 32.3243C13.6571 32.339 13.4023 32.5643 13.4023 32.8729Z" fill="#27625F"/>
<path d="M32.2514 49.0469H38.1538C38.8641 49.0469 38.8641 47.9448 38.1538 47.9448H32.2514C31.5412 47.9448 31.5412 49.0469 32.2514 49.0469Z" fill="#27625F"/>
<path d="M30.998 30.419H38.8744C39.5846 30.419 39.5846 29.3169 38.8744 29.3169H30.998C30.2878 29.3169 30.2878 30.419 30.998 30.419Z" fill="#27625F"/>
</svg>
