<svg width="58" height="42" viewBox="0 0 58 42" fill="none" xmlns="http://www.w3.org/2000/svg">
<path d="M41.3147 11.8984C41.3147 12.4825 41.1613 13.1111 41.0573 13.6853C40.9138 14.4922 40.7306 15.2941 40.5128 16.0861C39.9485 18.1453 39.1466 20.1352 38.1071 22.0013C36.2608 25.3277 33.7115 28.2532 30.6574 30.5203H31.2217C25.3609 26.1693 21.4504 19.4422 20.589 12.1904C20.4108 10.6807 20.8464 8.99271 21.4701 7.62651C22.1236 6.19101 23.0987 4.92381 24.3115 3.90905C27.0092 1.6469 30.791 0.953898 34.1372 2.0231C38.4041 3.39425 41.2751 7.45326 41.3197 11.8984C41.3246 12.6161 42.4384 12.6161 42.4334 11.8984C42.3938 7.69581 40.0871 3.74075 36.3499 1.7558C32.8948 -0.0806538 28.6279 -0.0212537 25.2322 1.91915C22.1533 3.68135 20.0247 6.84441 19.5545 10.354C19.3466 11.9182 19.6089 13.4329 19.9406 14.9674C20.3811 16.9919 21.0543 18.9571 21.9255 20.8331C23.8858 25.0555 26.93 28.7037 30.6623 31.4757C30.8059 31.5796 31.0831 31.5796 31.2266 31.4757C36.4142 27.6246 40.1812 22.0558 41.7503 15.7792C42.0572 14.5565 42.4334 13.1606 42.4334 11.8934C42.4334 11.1757 41.3197 11.1757 41.3197 11.8934L41.3147 11.8984Z" fill="#27625F"/>
<path d="M35.8497 11.8981C35.82 13.9424 34.5577 15.8234 32.6124 16.5214C30.667 17.2193 28.4395 16.6105 27.1228 15.0067C25.8061 13.4029 25.6675 11.1259 26.7169 9.37853C27.7663 7.63118 29.8404 6.68078 31.8352 7.06688C34.1617 7.51238 35.82 9.55178 35.8497 11.903C35.8596 12.6208 36.9733 12.6208 36.9634 11.903C36.9288 9.39833 35.3943 7.15103 33.043 6.25508C30.6918 5.35912 27.8901 6.10657 26.2912 8.06183C24.6923 10.0171 24.4547 12.8138 25.7516 14.9869C27.0486 17.1599 29.583 18.2688 32.058 17.8232C34.8993 17.3134 36.9238 14.7443 36.9634 11.903C36.9733 11.1853 35.8596 11.1853 35.8497 11.903V11.8981Z" fill="#27625F"/>
<path d="M40.4198 19.467C42.7513 18.3483 45.0827 17.2345 47.4142 16.1158L46.9835 16.1703L49.6466 16.8732C49.8347 16.9227 50.0525 16.8732 50.1862 16.7296L51.5375 15.2842L52.3889 14.3784C52.4681 14.2942 52.5968 14.1952 52.6562 14.0913C52.78 13.8834 52.582 14.2051 52.5077 14.1556C52.6166 14.2249 53.1364 14.0665 53.2552 14.0467L54.6313 13.8487C55.2698 13.7596 55.9034 13.6656 56.542 13.5765L55.9133 13.3191L56.5469 14.6011V14.0368L56.0173 14.814C55.8391 15.0763 55.5173 15.403 55.5619 15.7446C55.5965 16.0366 55.8193 16.3584 55.9381 16.6158L56.3539 17.5018L56.2994 17.0712C55.7648 18.7888 55.2302 20.5015 54.6956 22.2192C54.6065 22.5013 54.4976 22.734 54.5818 23.031C54.6956 23.422 54.9382 23.8131 55.1065 24.1843L55.4233 24.8773C55.453 24.9417 55.4777 25.0357 55.5223 25.0951C55.6312 25.2387 55.453 24.9169 55.4777 24.8971C55.3688 24.9813 55.4431 25.8228 55.4381 25.9564L55.3292 29.0403L56.2796 28.6443C55.4728 27.7236 54.7204 26.6643 53.8195 25.8327C53.6066 25.6347 53.9333 25.9564 53.8789 25.9812C53.8789 25.9812 53.8244 25.7931 53.8244 25.7881C53.7502 25.4515 53.6314 25.1149 53.5324 24.7833C53.3591 24.1843 53.1859 23.5854 53.0126 22.9864C52.8493 22.4221 52.1315 22.4964 51.9385 22.9864C51.686 23.6349 51.4385 24.2784 51.1861 24.9268L51.4435 24.5952C50.795 24.9268 50.1466 25.2585 49.4981 25.5901C48.9932 25.8475 47.9636 26.1346 47.726 26.6989C47.4488 27.3672 47.3152 28.1344 47.1172 28.8274C46.9192 29.5205 46.7311 30.1739 46.538 30.8471C46.439 31.1936 46.7162 31.55 47.0726 31.55H48.7903L48.3101 31.2728C48.6418 31.9014 48.9734 32.5301 49.3051 33.1587L49.9436 34.3715C49.9882 34.4556 50.0327 34.5992 50.102 34.6685C50.1961 34.7625 50.102 34.3566 50.0525 34.5002C49.9931 34.6734 50.0525 34.9853 50.0525 35.1684V41.4351L50.8891 40.955C49.81 40.4649 48.7259 39.9699 47.6468 39.4799L47.924 39.96L48.1171 36.495C48.1369 36.1238 47.7458 35.8713 47.4142 35.9604C46.8548 36.104 46.3004 36.2525 45.7411 36.396L46.1717 36.4505C45.2362 35.7624 44.3006 35.0744 43.3651 34.3863C43.073 34.1735 42.7562 33.8319 42.38 33.8121C41.8504 33.7824 41.2613 33.926 40.7317 33.9755C40.4644 34.0002 40.2911 34.1339 40.197 34.3863L39.306 36.7376L39.6971 36.3465C38.9793 36.5693 38.2665 36.792 37.5488 37.0148C37.1676 37.1336 36.7469 37.2227 36.3756 37.3811C36.044 37.5246 36.4697 37.3118 36.4944 37.4306C36.4944 37.4108 36.3212 37.3712 36.3014 37.3662C35.5242 37.0346 34.6778 36.8118 33.8759 36.5396C33.074 36.2673 32.2523 35.9604 31.4306 35.703C30.7673 35.4951 30.0347 36.1188 29.4654 36.4257H30.0297C29.3763 36.1386 28.4952 35.5199 27.7725 35.6882C26.8766 35.8961 25.9905 36.1436 25.0995 36.3713L25.5302 36.4257L24.3075 35.6387L23.4809 35.109C23.4165 35.0645 23.3126 34.9704 23.2383 34.9556C23.1096 34.9259 23.367 35.0942 23.367 35.0892C23.3967 35.015 23.1443 34.6388 23.1096 34.5645L22.6542 33.6389L22.0305 32.3667C21.9513 32.1984 21.7335 32.0796 21.5504 32.0895L20.1446 32.1588L20.6792 32.5697L20.3178 31.055C20.2733 30.8768 20.1099 30.7085 19.9268 30.6639L16.244 29.8521C15.7737 29.7481 15.5014 29.7234 15.0955 30.0254L13.561 31.1688L14.2342 31.2579C13.2046 30.4065 12.18 29.5452 11.1454 28.7037C10.7049 28.3473 10.2198 28.4809 9.68024 28.5106L7.64083 28.6245C7.21513 28.6492 6.95278 29.0799 7.16068 29.4611C7.45768 30.0204 7.75963 30.5748 8.05663 31.1342L8.25463 30.3719C7.59628 30.6491 6.87853 30.857 6.32413 31.3173L4.22038 33.0696L5.09653 33.1835C4.24018 31.941 3.38877 30.6986 2.53242 29.4561L1.85922 28.4809C1.79982 28.3968 1.58202 27.9562 1.47807 27.9265C1.58697 27.9562 1.48797 28.3374 1.54737 28.0354C1.58202 27.8424 1.56717 27.6295 1.57707 27.4315L1.63647 26.3178L0.799919 26.7979C1.21572 27.0504 1.63152 27.3177 2.05722 27.5553C2.38392 27.7384 2.61657 27.7038 2.96307 27.6048C3.86893 27.3474 4.77973 27.085 5.68558 26.8276C5.98258 26.7435 6.14098 26.4366 6.07663 26.1445C5.95288 25.6 5.82913 25.0555 5.70538 24.511L5.42323 23.2785C5.40838 23.2141 5.34403 22.6795 5.27968 22.6498C5.32918 22.6696 5.22523 23.0755 5.29453 22.8231C5.32918 22.7043 5.33413 22.5706 5.35393 22.4469L5.53708 21.2985C5.63113 20.7144 5.72023 20.1303 5.81428 19.5412L5.55688 19.8729C6.16573 19.5759 6.77458 19.2789 7.38343 18.9819C8.04178 18.6601 8.80409 18.3928 9.41789 17.9919C10.0317 17.5909 10.4574 16.9128 10.9425 16.4128C11.3286 16.0119 11.7592 15.6505 12.1701 15.2743C12.8037 14.6952 13.4373 14.116 14.0709 13.5418H13.2838C13.858 14.017 14.4273 14.4972 15.0015 14.9724L14.8579 14.4328C14.6005 15.2892 14.3431 16.1406 14.0857 16.9969C14.0164 17.2345 14.1352 17.5018 14.3431 17.6256C14.8827 17.9473 15.4222 18.274 15.9668 18.5958C16.5113 18.9175 17.1597 18.972 17.7834 19.0957C19.1001 19.3531 20.4168 19.6105 21.7335 19.8679C22.4315 20.0065 22.7334 18.9324 22.0305 18.7938C20.793 18.5512 19.5506 18.3136 18.3131 18.0711C17.6795 17.9473 17.0112 17.883 16.437 17.581C15.9172 17.3038 15.4173 16.9722 14.9074 16.6702L15.1648 17.2989C15.4222 16.4425 15.6797 15.5911 15.9371 14.7348C15.9915 14.5566 15.9371 14.314 15.7935 14.1952C15.2193 13.72 14.65 13.2399 14.0758 12.7647C13.8382 12.5667 13.5264 12.5469 13.2888 12.7647C12.3433 13.626 11.3929 14.4873 10.4475 15.3585C10.0911 15.6852 9.77429 16.0515 9.44264 16.4029C9.22979 16.6257 9.02189 16.8534 8.80904 17.0761C8.68529 17.2048 8.94764 17.0019 8.83874 17.0563C8.75459 17.1009 8.66549 17.1405 8.57639 17.185L6.44788 18.2196C5.98753 18.4423 5.42818 18.6304 5.00248 18.9225C4.57678 19.2145 4.60648 20.1204 4.53223 20.5906C4.42828 21.2539 4.27978 21.9271 4.21543 22.5954C4.16098 23.1646 4.39858 23.7883 4.52728 24.3378C4.68568 25.0407 4.84903 25.7436 5.00743 26.4514L5.39848 25.7683C4.37878 26.0604 3.36402 26.3475 2.34432 26.6395L2.77497 26.694L1.37412 25.8475C0.99792 25.6198 0.557369 25.9168 0.537569 26.3277L0.478169 27.4414C0.458369 27.7681 0.369268 28.1691 0.517769 28.476C0.750419 28.971 1.18107 29.4363 1.48797 29.8868C2.37402 31.1738 3.26007 32.4608 4.14613 33.7478C4.36393 34.0596 4.73023 34.0992 5.02228 33.8616L7.06663 32.1588C7.15573 32.0846 7.24483 31.9905 7.33888 31.9311C7.07158 32.0945 7.55668 31.8767 7.61608 31.8519L8.83379 31.3371C9.11594 31.2183 9.16049 30.8124 9.03179 30.5748C8.73479 30.0154 8.43284 29.4611 8.13583 28.9017L7.65568 29.7383L10.6603 29.57L10.2643 29.4066C11.3286 30.2877 12.3928 31.1639 13.4571 32.045C13.6303 32.1885 13.9224 32.2875 14.1303 32.1341C14.7342 31.6836 15.3431 31.2282 15.947 30.7778L15.5163 30.8322C16.8875 31.1342 18.2636 31.4361 19.6347 31.7381L19.2437 31.347L19.605 32.8617C19.6595 33.0894 19.907 33.2825 20.1396 33.2726L21.5454 33.2033L21.0653 32.9261C21.4415 33.6884 21.8127 34.4507 22.1889 35.213C22.3226 35.4852 22.4018 35.7129 22.6443 35.901C22.9809 36.1634 23.3819 36.3762 23.7432 36.6039C24.1046 36.8316 24.4956 37.1435 24.8966 37.3464C25.2035 37.4999 25.4114 37.4454 25.7183 37.3662L28.2527 36.7227L27.822 36.6683C28.3814 36.9158 28.9506 37.2573 29.5347 37.4256C30.1188 37.5939 30.9009 36.9306 31.386 36.6683L30.9554 36.7227C32.6136 37.287 34.2719 37.8513 35.9301 38.4206C36.539 38.6285 37.0835 38.3364 37.6775 38.1483L39.2862 37.6434C39.5634 37.5593 40.0238 37.4949 40.2366 37.2821C40.5139 37.0049 40.6277 36.3812 40.7613 36.0297L41.2712 34.6833L40.7366 35.0942L41.7514 34.9902C41.8949 34.9754 42.187 35.0001 42.3157 34.9358C42.4543 34.8665 42.1226 34.7922 42.182 34.8912C42.3058 35.0892 42.7018 35.2724 42.8849 35.411L44.063 36.2772C44.5531 36.6386 45.0629 37.1435 45.6074 37.4108C45.9292 37.5692 46.3153 37.3959 46.637 37.3118L47.7112 37.0346L47.0083 36.5L46.8152 39.965C46.8053 40.1432 46.9241 40.3709 47.0924 40.4451C48.1715 40.9352 49.2556 41.4302 50.3347 41.9202C50.7059 42.0885 51.1712 41.8955 51.1712 41.4401V36.7326C51.1712 36.005 51.2009 35.2724 51.1712 34.5447C51.1514 34.0299 50.7505 33.5151 50.5228 33.0746C50.107 32.2875 49.6961 31.5005 49.2803 30.7184C49.1912 30.5451 48.9883 30.4412 48.8002 30.4412H47.0825L47.6171 31.1441C48.0131 29.7581 48.4091 28.377 48.8051 26.991L48.5477 27.3226C49.5823 26.793 50.6168 26.2633 51.6563 25.7337C52.0573 25.5307 52.2206 25.3426 52.384 24.9169C52.5968 24.3724 52.8047 23.8279 53.0176 23.2785H51.9434C52.1216 23.8972 52.2998 24.516 52.483 25.1347C52.6216 25.605 52.6958 26.1841 53.0027 26.5752C53.7749 27.5701 54.6709 28.4859 55.5025 29.4363C55.8341 29.8174 56.438 29.4957 56.4529 29.0403L56.5865 25.3327C56.6212 24.3378 55.9876 23.427 55.5817 22.536L55.6361 22.9666C56.0668 21.5856 56.4974 20.2045 56.9281 18.8235C57.0716 18.3582 57.2993 17.8582 57.3785 17.3731C57.433 17.0316 57.2003 16.69 57.0617 16.3881L56.5964 15.3931V15.9574C56.9033 15.507 57.2102 15.0516 57.5171 14.6011C57.631 14.4328 57.6013 14.2101 57.5171 14.0368L56.8835 12.7548C56.7647 12.5122 56.4875 12.4677 56.2549 12.4974C55.5965 12.5914 54.9431 12.6855 54.2848 12.7795C53.6264 12.8736 52.8245 12.8637 52.1959 13.0765C51.6712 13.2547 51.196 14.017 50.8396 14.3982L49.4041 15.9327L49.9436 15.7891L47.6963 15.1951C47.3845 15.111 47.1568 15.0219 46.8449 15.1456C46.6964 15.2001 46.5529 15.2842 46.4093 15.3535L41.4593 17.7246C40.9247 17.982 40.3901 18.2394 39.8555 18.4918C39.2071 18.8037 39.7714 19.764 40.4198 19.4521V19.467Z" fill="#27625F"/>
</svg>
