<svg width="92" height="92" viewBox="0 0 92 92" fill="none" xmlns="http://www.w3.org/2000/svg">
<circle cx="46" cy="46" r="46" fill="url(#paint0_linear_1206_1102)"/>
<path d="M26.7233 65.7142C25.3981 65.7142 24.264 65.2321 23.3211 64.2677C22.3782 63.3033 21.9059 62.1426 21.9043 60.7856V31.2142C21.9043 29.8589 22.3766 28.699 23.3211 27.7346C24.2656 26.7703 25.3997 26.2873 26.7233 26.2856H65.2757C66.601 26.2856 67.7358 26.7686 68.6804 27.7346C69.6249 28.7006 70.0964 29.8605 70.0948 31.2142V60.7856C70.0948 62.141 69.6233 63.3017 68.6804 64.2677C67.7375 65.2337 66.6026 65.7159 65.2757 65.7142H26.7233ZM45.9995 48.0329C46.2003 48.0329 46.4116 48.0018 46.6332 47.9393C46.8549 47.8769 47.0653 47.7849 47.2645 47.6633L64.3119 36.7588C64.6332 36.5535 64.8741 36.2972 65.0348 35.99C65.1954 35.6828 65.2757 35.3435 65.2757 34.9722C65.2757 34.1508 64.9343 33.5348 64.2517 33.124C63.569 32.7133 62.8662 32.7339 62.1433 33.1856L45.9995 43.5356L29.8557 33.1856C29.1329 32.7339 28.4301 32.724 27.7474 33.1561C27.0647 33.5881 26.7233 34.1935 26.7233 34.9722C26.7233 35.3829 26.8037 35.7427 26.9643 36.0515C27.1249 36.3604 27.3659 36.5962 27.6872 36.7588L44.7345 47.6633C44.9353 47.7865 45.1466 47.8794 45.3682 47.9417C45.5899 48.0042 45.8003 48.0346 45.9995 48.0329Z" fill="white"/>
<defs>
<linearGradient id="paint0_linear_1206_1102" x1="87.619" y1="76.6667" x2="14.2381" y2="9.85714" gradientUnits="userSpaceOnUse">
<stop stop-color="#33B3CF"/>
<stop offset="1" stop-color="#6AD3E1"/>
</linearGradient>
</defs>
</svg>
