<svg width="62" height="49" viewBox="0 0 62 49" fill="none" xmlns="http://www.w3.org/2000/svg">
<path d="M6.2 49C4.495 49 3.03593 48.4008 1.8228 47.2023C0.609667 46.0038 0.00206667 44.5614 0 42.875V6.125C0 4.44062 0.6076 2.99921 1.8228 1.80075C3.038 0.602291 4.49707 0.00204167 6.2 0H55.8C57.505 0 58.9651 0.600249 60.1803 1.80075C61.3955 3.00125 62.0021 4.44267 62 6.125V42.875C62 44.5594 61.3934 46.0018 60.1803 47.2023C58.9672 48.4028 57.5071 49.0021 55.8 49H6.2ZM31 27.0265C31.2583 27.0265 31.5301 26.9878 31.8153 26.9101C32.1005 26.8326 32.3712 26.7183 32.6275 26.5671L54.56 13.0156C54.9733 12.7604 55.2833 12.4419 55.49 12.0601C55.6967 11.6783 55.8 11.2567 55.8 10.7953C55.8 9.77446 55.3608 9.00886 54.4825 8.49844C53.6042 7.98802 52.7 8.01354 51.77 8.575L31 21.4375L10.23 8.575C9.3 8.01354 8.39583 8.00129 7.5175 8.53825C6.63917 9.0752 6.2 9.82751 6.2 10.7953C6.2 11.3057 6.30333 11.7528 6.51 12.1366C6.71667 12.5205 7.02667 12.8135 7.44 13.0156L29.3725 26.5671C29.6308 26.7203 29.9026 26.8357 30.1878 26.9132C30.473 26.9908 30.7437 27.0286 31 27.0265Z" fill="#27625F"/>
</svg>
