<svg width="34" height="34" viewBox="0 0 34 34" fill="none" xmlns="http://www.w3.org/2000/svg">
<path d="M16.8125 0.499999C18.9793 0.499999 21.1249 0.926784 23.1268 1.75599C25.1286 2.58519 26.9476 3.80057 28.4798 5.33274C30.0119 6.8649 31.2273 8.68385 32.0565 10.6857C32.8857 12.6876 33.3125 14.8332 33.3125 17C33.3125 19.1668 32.8857 21.3124 32.0565 23.3143C31.2273 25.3161 30.0119 27.1351 28.4798 28.6673C26.9476 30.1994 25.1286 31.4148 23.1268 32.244C21.1249 33.0732 18.9793 33.5 16.8125 33.5L16.8125 17L16.8125 0.499999Z" fill="#27625F"/>
<circle cx="16.8125" cy="17" r="15.5" transform="rotate(-90 16.8125 17)" stroke="#27625F" stroke-width="2"/>
</svg>
