<svg width="63" height="36" viewBox="0 0 63 36" fill="none" xmlns="http://www.w3.org/2000/svg">
<path d="M61.5308 28.5358C61.4055 28.5025 60.9159 28.3749 60.9159 28.3749C60.7906 28.3416 60.7052 28.2306 60.7052 28.1085V27.3482C60.7052 26.5768 60.7052 25.811 60.7109 25.0396C60.7109 23.3858 60.7223 21.6766 60.6881 19.9895C60.5742 14.2013 56.6229 9.30106 50.8609 7.79713C49.3293 7.39756 47.7237 7.36427 46.3402 7.36427H44.8826L43.5617 7.36982C43.4023 7.36982 43.277 7.24218 43.277 7.09234V1.10991C43.277 0.369971 42.905 0 42.1611 0H9.52517C9.36575 0 9.20633 0 9.04691 0.00554956C8.60281 0.0110991 8.43769 0.172036 8.44338 0.604902V4.87806C8.44338 5.03345 8.31243 5.15554 8.1587 5.15554H0.631725C0.0623618 5.15554 0.0111191 5.35533 -0.00026812 5.57176C-0.00596175 5.7216 0.0225064 5.83259 0.0908299 5.90473C0.181928 5.99907 0.364124 6.05457 0.637418 6.06012C0.705742 6.06012 0.774065 6.06567 0.842389 6.06567H14.416C14.4729 6.06012 14.5413 6.06567 14.6039 6.06567C14.6608 6.06567 14.7178 6.06567 14.769 6.06567C14.8886 6.06567 14.9227 6.04902 14.9227 6.04902C15.2017 5.85479 15.3611 5.64945 15.3611 5.57731C15.3554 5.48851 15.1334 5.24433 14.9455 5.17774C14.8487 5.14444 14.7348 5.12779 14.5811 5.12779C14.4843 5.12779 14.3818 5.13334 14.2794 5.13889C14.1655 5.14444 14.0573 5.14999 13.9434 5.14999H9.71306C9.55364 5.14999 9.42838 5.0279 9.42838 4.87251V1.21535C9.42838 1.05997 9.55364 0.937876 9.71306 0.937876H42.0187C42.1781 0.937876 42.3034 1.05997 42.3034 1.21535V28.1696C42.3034 28.3194 42.1781 28.447 42.0187 28.447H34.5544C31.7986 28.4415 29.0486 28.447 26.2815 28.4581C25.6894 28.4581 25.3421 28.2528 25.046 27.7256C24.0155 25.8998 22.1252 24.8121 20.0014 24.8121C18.0201 24.8121 16.2209 25.7944 15.1846 27.4426C14.7235 28.1696 14.2281 28.4692 13.4709 28.4692C13.4025 28.4692 13.3285 28.4637 13.2488 28.4581C12.9072 28.4359 12.5314 28.4248 12.0759 28.4248C11.7912 28.4248 11.5066 28.4304 11.2219 28.4359C10.9372 28.4359 10.6468 28.4359 10.3621 28.4359H10.2198C10.0888 28.4359 9.95789 28.4193 9.82693 28.4026L9.6789 28.3805C9.53656 28.3694 9.42838 28.2473 9.42838 28.1085V21.6655C9.42838 21.5101 9.55364 21.388 9.71306 21.388H12.4005C13.0723 21.388 13.7442 21.388 14.416 21.3825C14.8259 21.3769 14.8886 21.1494 14.8943 20.9496C14.9 20.7498 14.8487 20.5389 14.4217 20.4779C14.3591 20.4723 14.2964 20.4723 14.2338 20.4723H3.25649C3.19955 20.4723 3.13692 20.4723 3.07429 20.4834C2.88071 20.5112 2.72129 20.5889 2.65866 20.6888C2.63019 20.7276 2.60172 20.7887 2.63588 20.9052C2.68143 21.0717 2.94334 21.3103 3.13692 21.3603C3.27357 21.3991 3.4273 21.4158 3.62657 21.4158C3.75753 21.4158 3.88848 21.4047 4.01943 21.3991C4.16177 21.3936 4.29842 21.388 4.44076 21.388H8.11885C8.27827 21.388 8.40353 21.5101 8.40353 21.6655V28.0808C8.40353 28.1918 8.3409 28.2861 8.24411 28.3305L8.19286 28.3583C8.14162 28.386 8.08469 28.4137 8.00497 28.4359C6.61573 28.8133 5.98943 29.5736 6.14316 30.7002C6.2855 31.7546 7.15662 32.3595 8.53448 32.3595H11.1991C12.0873 32.365 12.9755 32.365 13.8865 32.3595C14.3021 32.3595 14.6324 32.4538 14.8829 32.9089C15.9988 34.9456 17.7126 35.9833 19.9901 35.9944H20.0185C22.2732 35.9944 24.0098 34.9622 25.1827 32.9144C25.3535 32.6259 25.7748 32.3817 26.105 32.3817C29.3276 32.3706 32.5502 32.365 35.7728 32.365C38.9954 32.365 42.218 32.3706 45.4406 32.3817C45.7708 32.3817 46.1921 32.6259 46.3573 32.9144C47.5415 34.9622 49.2781 35.9944 51.5555 35.9944C53.7931 35.9944 55.5183 34.9511 56.6912 32.92C56.8563 32.6425 57.2719 32.3928 57.6022 32.3817C58.0406 32.365 58.479 32.3595 58.9231 32.3595H59.8739C60.2953 32.365 60.7109 32.3595 61.1322 32.3428C62.1058 32.3095 62.8688 31.6103 62.9827 30.6447C63.1022 29.6679 62.5044 28.8022 61.5308 28.5303V28.5358ZM14.268 31.1885C14.268 31.3439 14.137 31.466 13.9833 31.466H8.32382C7.87971 31.466 7.56087 31.3606 7.34451 31.1441C7.16232 30.961 7.07122 30.7057 7.08261 30.3838C7.09969 29.7345 7.54948 29.3627 8.30674 29.3627H13.9833C14.137 29.3627 14.268 29.4848 14.268 29.6402V31.1885ZM20.0014 35.1232C18.7204 35.1121 17.5076 34.6182 16.5967 33.7191C15.6914 32.8256 15.1903 31.6436 15.2017 30.3949C15.2188 27.8144 17.3767 25.7111 20.0185 25.7111H20.0413C22.6945 25.7222 24.8524 27.8421 24.841 30.4338C24.8353 33.0199 22.6718 35.1232 20.0014 35.1232ZM45.7537 31.1608C45.7537 31.3162 45.6285 31.4383 45.4691 31.4383H26.105C25.9456 31.4383 25.8203 31.3162 25.8203 31.1608V29.679C25.8203 29.5237 25.9456 29.4016 26.105 29.4016H45.4691C45.6285 29.4016 45.7537 29.5237 45.7537 29.679V31.1608ZM51.5043 35.1232C48.8568 35.1065 46.7046 32.9921 46.7103 30.4005C46.716 27.8144 48.8795 25.7111 51.5271 25.7111H51.5385C54.186 25.7167 56.3382 27.8366 56.3325 30.4282C56.3268 33.0199 54.1746 35.1232 51.5043 35.1232ZM56.6058 27.7755C55.5639 25.9442 53.6166 24.8065 51.5271 24.8065C50.1264 24.8065 48.8226 25.2949 47.7465 26.2161C47.4049 26.5103 47.1316 26.8876 46.8412 27.2872C46.6875 27.4981 46.5338 27.709 46.3686 27.9087L46.3174 27.9753C46.1637 28.1696 45.9758 28.4026 45.7082 28.4193C45.3836 28.4415 45.0648 28.447 44.7403 28.447C44.5524 28.447 43.7951 28.4415 43.6015 28.4415C43.4421 28.4415 43.3169 28.3194 43.3169 28.164V8.67951C43.3169 8.60182 43.3567 8.51857 43.4137 8.46863C43.4535 8.42423 43.5446 8.31879 43.6983 8.31879C44.1083 8.31324 44.5125 8.30769 44.9225 8.30214C45.4349 8.29104 45.9416 8.27994 46.454 8.27994C48.1963 8.27994 50.0695 8.37984 51.937 9.09573C56.5602 10.8716 59.6974 15.2724 59.7544 20.045C59.7771 21.8819 59.7714 23.68 59.7658 25.5835C59.7601 26.4381 59.7601 27.2983 59.7601 28.164C59.7601 28.3194 59.6348 28.4415 59.4754 28.4415C59.2647 28.4415 59.0597 28.447 58.8662 28.4526C58.6726 28.4526 58.4847 28.4581 58.3025 28.4581C57.9552 28.4581 57.6819 28.447 57.4257 28.4193C57.0442 28.3749 56.7254 27.9753 56.6058 27.7755ZM61.8439 31.0997C61.6503 31.3217 61.3429 31.4549 60.9956 31.4605C60.5173 31.4716 60.0334 31.4771 59.5494 31.4771H57.5623C57.4029 31.4716 57.2776 31.3439 57.2776 31.1941V29.6568C57.2776 29.507 57.4029 29.3794 57.5623 29.3794C57.8698 29.3794 58.1772 29.3794 58.4904 29.3794C58.7978 29.3794 59.1053 29.3738 59.4184 29.3738C60.1074 29.3738 60.6369 29.3905 61.1379 29.4182C61.5536 29.446 61.9806 30.0231 62.0375 30.3838C62.0831 30.6502 62.009 30.9055 61.8439 31.1053V31.0997Z" fill="#27625F"/>
<path d="M61.5308 28.5358C61.4055 28.5025 60.9159 28.3749 60.9159 28.3749C60.7906 28.3416 60.7052 28.2306 60.7052 28.1085V27.3482C60.7052 26.5768 60.7052 25.811 60.7109 25.0396C60.7109 23.3858 60.7223 21.6766 60.6881 19.9895C60.5742 14.2013 56.6229 9.30106 50.8609 7.79713C49.3293 7.39756 47.7237 7.36427 46.3402 7.36427H44.8826L43.5617 7.36982C43.4023 7.36982 43.277 7.24218 43.277 7.09234V1.10991C43.277 0.369971 42.905 0 42.1611 0H9.52517C9.36575 0 9.20633 0 9.04691 0.00554956C8.60281 0.0110991 8.43769 0.172036 8.44338 0.604902V4.87806C8.44338 5.03345 8.31243 5.15554 8.1587 5.15554H0.631725C0.0623618 5.15554 0.0111191 5.35533 -0.00026812 5.57176C-0.00596175 5.7216 0.0225064 5.83259 0.0908299 5.90473C0.181928 5.99907 0.364124 6.05457 0.637418 6.06012C0.705742 6.06012 0.774065 6.06567 0.842389 6.06567H14.416C14.4729 6.06012 14.5413 6.06567 14.6039 6.06567C14.6608 6.06567 14.7178 6.06567 14.769 6.06567C14.8886 6.06567 14.9227 6.04902 14.9227 6.04902C15.2017 5.85479 15.3611 5.64945 15.3611 5.57731C15.3554 5.48851 15.1334 5.24433 14.9455 5.17774C14.8487 5.14444 14.7348 5.12779 14.5811 5.12779C14.4843 5.12779 14.3818 5.13334 14.2794 5.13889C14.1655 5.14444 14.0573 5.14999 13.9434 5.14999H9.71306C9.55364 5.14999 9.42838 5.0279 9.42838 4.87251V1.21535C9.42838 1.05997 9.55364 0.937876 9.71306 0.937876H42.0187C42.1781 0.937876 42.3034 1.05997 42.3034 1.21535V28.1696C42.3034 28.3194 42.1781 28.447 42.0187 28.447H34.5544C31.7986 28.4415 29.0486 28.447 26.2815 28.4581C25.6894 28.4581 25.3421 28.2528 25.046 27.7256C24.0155 25.8998 22.1252 24.8121 20.0014 24.8121C18.0201 24.8121 16.2209 25.7944 15.1846 27.4426C14.7235 28.1696 14.2281 28.4692 13.4709 28.4692C13.4025 28.4692 13.3285 28.4637 13.2488 28.4581C12.9072 28.4359 12.5314 28.4248 12.0759 28.4248C11.7912 28.4248 11.5066 28.4304 11.2219 28.4359C10.9372 28.4359 10.6468 28.4359 10.3621 28.4359H10.2198C10.0888 28.4359 9.95789 28.4193 9.82693 28.4026L9.6789 28.3805C9.53656 28.3694 9.42838 28.2473 9.42838 28.1085V21.6655C9.42838 21.5101 9.55364 21.388 9.71306 21.388H12.4005C13.0723 21.388 13.7442 21.388 14.416 21.3825C14.8259 21.3769 14.8886 21.1494 14.8943 20.9496C14.9 20.7498 14.8487 20.5389 14.4217 20.4779C14.3591 20.4723 14.2964 20.4723 14.2338 20.4723H3.25649C3.19955 20.4723 3.13692 20.4723 3.07429 20.4834C2.88071 20.5112 2.72129 20.5889 2.65866 20.6888C2.63019 20.7276 2.60172 20.7887 2.63588 20.9052C2.68143 21.0717 2.94334 21.3103 3.13692 21.3603C3.27357 21.3991 3.4273 21.4158 3.62657 21.4158C3.75753 21.4158 3.88848 21.4047 4.01943 21.3991C4.16177 21.3936 4.29842 21.388 4.44076 21.388H8.11885C8.27827 21.388 8.40353 21.5101 8.40353 21.6655V28.0808C8.40353 28.1918 8.3409 28.2861 8.24411 28.3305L8.19286 28.3583C8.14162 28.386 8.08469 28.4137 8.00497 28.4359C6.61573 28.8133 5.98943 29.5736 6.14316 30.7002C6.2855 31.7546 7.15662 32.3595 8.53448 32.3595H11.1991C12.0873 32.365 12.9755 32.365 13.8865 32.3595C14.3021 32.3595 14.6324 32.4538 14.8829 32.9089C15.9988 34.9456 17.7126 35.9833 19.9901 35.9944H20.0185C22.2732 35.9944 24.0098 34.9622 25.1827 32.9144C25.3535 32.6259 25.7748 32.3817 26.105 32.3817C29.3276 32.3706 32.5502 32.365 35.7728 32.365C38.9954 32.365 42.218 32.3706 45.4406 32.3817C45.7708 32.3817 46.1921 32.6259 46.3573 32.9144C47.5415 34.9622 49.2781 35.9944 51.5555 35.9944C53.7931 35.9944 55.5183 34.9511 56.6912 32.92C56.8563 32.6425 57.2719 32.3928 57.6022 32.3817C58.0406 32.365 58.479 32.3595 58.9231 32.3595H59.8739C60.2953 32.365 60.7109 32.3595 61.1322 32.3428C62.1058 32.3095 62.8688 31.6103 62.9827 30.6447C63.1022 29.6679 62.5044 28.8022 61.5308 28.5303V28.5358ZM14.268 31.1885C14.268 31.3439 14.137 31.466 13.9833 31.466H8.32382C7.87971 31.466 7.56087 31.3606 7.34451 31.1441C7.16232 30.961 7.07122 30.7057 7.08261 30.3838C7.09969 29.7345 7.54948 29.3627 8.30674 29.3627H13.9833C14.137 29.3627 14.268 29.4848 14.268 29.6402V31.1885ZM20.0014 35.1232C18.7204 35.1121 17.5076 34.6182 16.5967 33.7191C15.6914 32.8256 15.1903 31.6436 15.2017 30.3949C15.2188 27.8144 17.3767 25.7111 20.0185 25.7111H20.0413C22.6945 25.7222 24.8524 27.8421 24.841 30.4338C24.8353 33.0199 22.6718 35.1232 20.0014 35.1232ZM45.7537 31.1608C45.7537 31.3162 45.6285 31.4383 45.4691 31.4383H26.105C25.9456 31.4383 25.8203 31.3162 25.8203 31.1608V29.679C25.8203 29.5237 25.9456 29.4016 26.105 29.4016H45.4691C45.6285 29.4016 45.7537 29.5237 45.7537 29.679V31.1608ZM51.5043 35.1232C48.8568 35.1065 46.7046 32.9921 46.7103 30.4005C46.716 27.8144 48.8795 25.7111 51.5271 25.7111H51.5385C54.186 25.7167 56.3382 27.8366 56.3325 30.4282C56.3268 33.0199 54.1746 35.1232 51.5043 35.1232ZM56.6058 27.7755C55.5639 25.9442 53.6166 24.8065 51.5271 24.8065C50.1264 24.8065 48.8226 25.2949 47.7465 26.2161C47.4049 26.5103 47.1316 26.8876 46.8412 27.2872C46.6875 27.4981 46.5338 27.709 46.3686 27.9087L46.3174 27.9753C46.1637 28.1696 45.9758 28.4026 45.7082 28.4193C45.3836 28.4415 45.0648 28.447 44.7403 28.447C44.5524 28.447 43.7951 28.4415 43.6015 28.4415C43.4421 28.4415 43.3169 28.3194 43.3169 28.164V8.67951C43.3169 8.60182 43.3567 8.51857 43.4137 8.46863C43.4535 8.42423 43.5446 8.31879 43.6983 8.31879C44.1083 8.31324 44.5125 8.30769 44.9225 8.30214C45.4349 8.29104 45.9416 8.27994 46.454 8.27994C48.1963 8.27994 50.0695 8.37984 51.937 9.09573C56.5602 10.8716 59.6974 15.2724 59.7544 20.045C59.7771 21.8819 59.7714 23.68 59.7658 25.5835C59.7601 26.4381 59.7601 27.2983 59.7601 28.164C59.7601 28.3194 59.6348 28.4415 59.4754 28.4415C59.2647 28.4415 59.0597 28.447 58.8662 28.4526C58.6726 28.4526 58.4847 28.4581 58.3025 28.4581C57.9552 28.4581 57.6819 28.447 57.4257 28.4193C57.0442 28.3749 56.7254 27.9753 56.6058 27.7755ZM61.8439 31.0997C61.6503 31.3217 61.3429 31.4549 60.9956 31.4605C60.5173 31.4716 60.0334 31.4771 59.5494 31.4771H57.5623C57.4029 31.4716 57.2776 31.3439 57.2776 31.1941V29.6568C57.2776 29.507 57.4029 29.3794 57.5623 29.3794C57.8698 29.3794 58.1772 29.3794 58.4904 29.3794C58.7978 29.3794 59.1053 29.3738 59.4184 29.3738C60.1074 29.3738 60.6369 29.3905 61.1379 29.4182C61.5536 29.446 61.9806 30.0231 62.0375 30.3838C62.0831 30.6502 62.009 30.9055 61.8439 31.1053V31.0997Z" fill="#27625F"/>
<path d="M23.0085 15.9046C23.0085 15.9046 22.9174 16.0378 22.5075 16.2875C22.5018 16.2875 22.4847 16.2986 22.4221 16.2986C22.3709 16.2986 22.3139 16.2986 22.257 16.2875C22.183 16.2819 22.1146 16.2764 22.0463 16.2764H8.07415C8.01152 16.2764 7.9432 16.2764 7.87488 16.2819C7.82363 16.2875 7.7667 16.293 7.71546 16.293C7.64713 16.293 7.62436 16.2819 7.62436 16.2819C7.29982 16.0655 7.19164 15.8935 7.19164 15.8491C7.18595 15.7991 7.28274 15.616 7.5845 15.3774C7.5845 15.3774 7.62436 15.3607 7.75531 15.3607H8.00014H22.2513C22.2911 15.3607 22.4733 15.3496 22.5075 15.3496H22.5474L22.5929 15.3885C22.7409 15.5327 22.9972 15.7714 23.0085 15.899V15.9046Z" fill="#27625F"/>
<path d="M23.0085 15.9046C23.0085 15.9046 22.9174 16.0378 22.5075 16.2875C22.5018 16.2875 22.4847 16.2986 22.4221 16.2986C22.3709 16.2986 22.3139 16.2986 22.257 16.2875C22.183 16.2819 22.1146 16.2764 22.0463 16.2764H8.07415C8.01152 16.2764 7.9432 16.2764 7.87488 16.2819C7.82363 16.2875 7.7667 16.293 7.71546 16.293C7.64713 16.293 7.62436 16.2819 7.62436 16.2819C7.29982 16.0655 7.19164 15.8935 7.19164 15.8491C7.18595 15.7991 7.28274 15.616 7.5845 15.3774C7.5845 15.3774 7.62436 15.3607 7.75531 15.3607H8.00014H22.2513C22.2911 15.3607 22.4733 15.3496 22.5075 15.3496H22.5474L22.5929 15.3885C22.7409 15.5327 22.9972 15.7714 23.0085 15.899V15.9046Z" fill="#27625F"/>
<path d="M26.026 10.7337C26.026 10.8836 26.0146 11.1555 25.3997 11.1555H25.394C24.3577 11.15 23.3215 11.15 22.2852 11.15C22.2852 11.15 13.1584 11.1555 12.088 11.1555C11.5527 11.1555 11.4503 11.0556 11.399 10.8225C11.3762 10.7171 11.3649 10.5673 11.4389 10.4618C11.4901 10.3786 11.5869 10.3231 11.7349 10.2953C11.8602 10.2731 11.9912 10.2676 12.162 10.2676H25.394C25.5875 10.2676 25.8153 10.2898 25.9292 10.4119C26.0032 10.484 26.0316 10.5895 26.026 10.7337Z" fill="#27625F"/>
<path d="M26.026 10.7337C26.026 10.8836 26.0146 11.1555 25.3997 11.1555H25.394C24.3577 11.15 23.3215 11.15 22.2852 11.15C22.2852 11.15 13.1584 11.1555 12.088 11.1555C11.5527 11.1555 11.4503 11.0556 11.399 10.8225C11.3762 10.7171 11.3649 10.5673 11.4389 10.4618C11.4901 10.3786 11.5869 10.3231 11.7349 10.2953C11.8602 10.2731 11.9912 10.2676 12.162 10.2676H25.394C25.5875 10.2676 25.8153 10.2898 25.9292 10.4119C26.0032 10.484 26.0316 10.5895 26.026 10.7337Z" fill="#27625F"/>
<path d="M25.6729 20.928C25.6729 21.0834 25.6444 21.1889 25.5761 21.2555C25.4793 21.3498 25.2914 21.3942 24.9896 21.3942H18.0776C17.4797 21.3942 17.3715 21.2555 17.3658 20.9558C17.3602 20.8004 17.3943 20.6949 17.4626 20.6284C17.5594 20.5285 17.7644 20.4785 18.0719 20.4785H24.9953C25.6159 20.4785 25.6672 20.7005 25.6729 20.928Z" fill="#27625F"/>
<path d="M25.6729 20.928C25.6729 21.0834 25.6444 21.1889 25.5761 21.2555C25.4793 21.3498 25.2914 21.3942 24.9896 21.3942H18.0776C17.4797 21.3942 17.3715 21.2555 17.3658 20.9558C17.3602 20.8004 17.3943 20.6949 17.4626 20.6284C17.5594 20.5285 17.7644 20.4785 18.0719 20.4785H24.9953C25.6159 20.4785 25.6672 20.7005 25.6729 20.928Z" fill="#27625F"/>
<path d="M8.91061 10.7282C8.90492 10.9335 8.85937 11.15 8.36972 11.15H3.53013C3.37071 11.1555 3.16574 11.1278 3.05756 11.0223C2.98924 10.9557 2.95508 10.8447 2.95508 10.6949C2.95508 10.5617 2.95508 10.2731 3.50167 10.2676H5.81897C6.6844 10.2676 7.54414 10.2676 8.40388 10.2731C8.53483 10.2731 8.71134 10.2953 8.81382 10.3952C8.88214 10.4674 8.91631 10.5784 8.91061 10.7282Z" fill="#27625F"/>
<path d="M8.91061 10.7282C8.90492 10.9335 8.85937 11.15 8.36972 11.15H3.53013C3.37071 11.1555 3.16574 11.1278 3.05756 11.0223C2.98924 10.9557 2.95508 10.8447 2.95508 10.6949C2.95508 10.5617 2.95508 10.2731 3.50167 10.2676H5.81897C6.6844 10.2676 7.54414 10.2676 8.40388 10.2731C8.53483 10.2731 8.71134 10.2953 8.81382 10.3952C8.88214 10.4674 8.91631 10.5784 8.91061 10.7282Z" fill="#27625F"/>
<path d="M23.0543 5.60021C23.0543 5.7556 23.0144 5.86659 22.929 5.93874C22.8436 6.01088 22.707 6.04973 22.5362 6.04973C21.8472 6.06083 21.1583 6.06083 20.4694 6.06083C19.7805 6.06083 19.0915 6.06083 18.4026 6.04973C17.8674 6.04973 17.8674 5.72785 17.8731 5.60576C17.8731 5.38933 17.9186 5.15625 18.4424 5.15625H22.5248C22.9575 5.1618 23.0486 5.33939 23.0543 5.60021Z" fill="#27625F"/>
<path d="M23.0543 5.60021C23.0543 5.7556 23.0144 5.86659 22.929 5.93874C22.8436 6.01088 22.707 6.04973 22.5362 6.04973C21.8472 6.06083 21.1583 6.06083 20.4694 6.06083C19.7805 6.06083 19.0915 6.06083 18.4026 6.04973C17.8674 6.04973 17.8674 5.72785 17.8731 5.60576C17.8731 5.38933 17.9186 5.15625 18.4424 5.15625H22.5248C22.9575 5.1618 23.0486 5.33939 23.0543 5.60021Z" fill="#27625F"/>
<path d="M4.71452 15.8441C4.70313 16.0439 4.63481 16.2715 4.16224 16.2715H0.495539C0.0742104 16.2659 0.0115805 16.0606 0.000193238 15.8552C-0.011194 15.7054 0.0229678 15.5889 0.0969849 15.5112C0.19947 15.4057 0.364585 15.3835 0.489845 15.378C1.09906 15.3669 1.71398 15.3613 2.32319 15.3613C2.93241 15.3613 3.58149 15.3613 4.20778 15.378C4.38998 15.3835 4.53232 15.4279 4.61773 15.5167C4.68605 15.5944 4.72021 15.6999 4.71452 15.8441Z" fill="#27625F"/>
<path d="M4.71452 15.8441C4.70313 16.0439 4.63481 16.2715 4.16224 16.2715H0.495539C0.0742104 16.2659 0.0115805 16.0606 0.000193238 15.8552C-0.011194 15.7054 0.0229678 15.5889 0.0969849 15.5112C0.19947 15.4057 0.364585 15.3835 0.489845 15.378C1.09906 15.3669 1.71398 15.3613 2.32319 15.3613C2.93241 15.3613 3.58149 15.3613 4.20778 15.378C4.38998 15.3835 4.53232 15.4279 4.61773 15.5167C4.68605 15.5944 4.72021 15.6999 4.71452 15.8441Z" fill="#27625F"/>
<path d="M55.5245 14.7567C53.5147 12.0485 50.7077 10.6777 47.1891 10.6777C46.9784 10.6777 46.7563 10.6777 46.54 10.6888C45.7998 10.7221 45.7543 10.7665 45.7543 11.4491C45.7486 14.2794 45.7486 17.1152 45.7543 19.9455C45.7543 20.7113 45.8112 20.7668 46.6026 20.7668H51.3397C51.3853 20.728 51.4479 20.7058 51.5162 20.7058H56.4298C56.8455 20.7058 57.0732 20.6558 57.1643 20.5615C57.2611 20.4672 57.2953 20.2396 57.2839 19.8179C57.2212 17.9421 56.6291 16.2384 55.5245 14.7567ZM56.2021 19.7013C56.1508 19.7513 56.0768 19.7846 55.9971 19.7846H47.0069C46.8474 19.7846 46.7222 19.6625 46.7222 19.5071V11.9541C46.7222 11.8154 46.8247 11.6989 46.967 11.6822C47.2574 11.6434 47.5535 11.6267 47.8438 11.6267C52.1425 11.6267 56.0882 15.3061 56.2818 19.496C56.2875 19.5681 56.259 19.6458 56.2021 19.7013Z" fill="#27625F"/>
<path d="M55.5245 14.7567C53.5147 12.0485 50.7077 10.6777 47.1891 10.6777C46.9784 10.6777 46.7563 10.6777 46.54 10.6888C45.7998 10.7221 45.7543 10.7665 45.7543 11.4491C45.7486 14.2794 45.7486 17.1152 45.7543 19.9455C45.7543 20.7113 45.8112 20.7668 46.6026 20.7668H51.3397C51.3853 20.728 51.4479 20.7058 51.5162 20.7058H56.4298C56.8455 20.7058 57.0732 20.6558 57.1643 20.5615C57.2611 20.4672 57.2953 20.2396 57.2839 19.8179C57.2212 17.9421 56.6291 16.2384 55.5245 14.7567ZM56.2021 19.7013C56.1508 19.7513 56.0768 19.7846 55.9971 19.7846H47.0069C46.8474 19.7846 46.7222 19.6625 46.7222 19.5071V11.9541C46.7222 11.8154 46.8247 11.6989 46.967 11.6822C47.2574 11.6434 47.5535 11.6267 47.8438 11.6267C52.1425 11.6267 56.0882 15.3061 56.2818 19.496C56.2875 19.5681 56.259 19.6458 56.2021 19.7013Z" fill="#27625F"/>
<path d="M21.5791 28.9084C21.1692 28.5032 20.6112 28.2812 20.0134 28.2812C18.8234 28.2812 17.8327 29.2302 17.81 30.3956C17.7986 30.945 18.0377 31.5 18.4533 31.9162C18.8747 32.3324 19.444 32.5711 20.0191 32.5711H20.0248C21.2147 32.5711 22.1997 31.6165 22.2111 30.4511C22.2168 29.8629 21.9891 29.3135 21.5791 28.9084ZM20.0191 31.6498C19.3643 31.6498 18.7836 31.1115 18.7551 30.4733C18.7209 29.8185 19.2675 29.2358 19.9451 29.2025H20.0191C20.7251 29.2025 21.266 29.7186 21.266 30.4123C21.2717 31.0893 20.7365 31.6332 20.0191 31.6498Z" fill="#27625F"/>
<path d="M21.5791 28.9084C21.1692 28.5032 20.6112 28.2812 20.0134 28.2812C18.8234 28.2812 17.8327 29.2302 17.81 30.3956C17.7986 30.945 18.0377 31.5 18.4533 31.9162C18.8747 32.3324 19.444 32.5711 20.0191 32.5711H20.0248C21.2147 32.5711 22.1997 31.6165 22.2111 30.4511C22.2168 29.8629 21.9891 29.3135 21.5791 28.9084ZM20.0191 31.6498C19.3643 31.6498 18.7836 31.1115 18.7551 30.4733C18.7209 29.8185 19.2675 29.2358 19.9451 29.2025H20.0191C20.7251 29.2025 21.266 29.7186 21.266 30.4123C21.2717 31.0893 20.7365 31.6332 20.0191 31.6498Z" fill="#27625F"/>
<path d="M51.5337 28.2812C50.3039 28.2812 49.3359 29.2247 49.3359 30.4234C49.3359 31.6221 50.3039 32.5544 51.4938 32.5711H51.528C52.103 32.5766 52.6496 32.3491 53.0653 31.944C53.4866 31.5333 53.72 30.9894 53.72 30.4178C53.7143 29.2302 52.7635 28.2923 51.5337 28.2812ZM51.5849 31.6498H51.5223C51.1921 31.6498 50.8789 31.5222 50.6398 31.2891C50.4006 31.056 50.2697 30.7397 50.2697 30.4123C50.2697 29.7352 50.8163 29.2025 51.5109 29.1969H51.5223C52.2055 29.1969 52.7749 29.7297 52.792 30.3845C52.8091 31.0338 52.2568 31.6165 51.5849 31.6498Z" fill="#27625F"/>
<path d="M51.5337 28.2812C50.3039 28.2812 49.3359 29.2247 49.3359 30.4234C49.3359 31.6221 50.3039 32.5544 51.4938 32.5711H51.528C52.103 32.5766 52.6496 32.3491 53.0653 31.944C53.4866 31.5333 53.72 30.9894 53.72 30.4178C53.7143 29.2302 52.7635 28.2923 51.5337 28.2812ZM51.5849 31.6498H51.5223C51.1921 31.6498 50.8789 31.5222 50.6398 31.2891C50.4006 31.056 50.2697 30.7397 50.2697 30.4123C50.2697 29.7352 50.8163 29.2025 51.5109 29.1969H51.5223C52.2055 29.1969 52.7749 29.7297 52.792 30.3845C52.8091 31.0338 52.2568 31.6165 51.5849 31.6498Z" fill="#27625F"/>
</svg>
