<svg width="51" height="41" viewBox="0 0 51 41" fill="none" xmlns="http://www.w3.org/2000/svg">
<path d="M49.8344 24.4704C49.3844 22.6704 48.9461 20.8704 48.5019 19.0705L47.3448 14.3602C46.5208 11.0116 45.6968 7.66876 44.8669 4.32013C44.2942 2.01757 42.4533 0.527344 40.18 0.527344C39.73 0.527344 39.2625 0.585784 38.795 0.702665L27.1829 3.613C20.0356 5.40712 12.8883 7.20124 5.72938 8.98951C3.04112 9.65573 0.849609 12.42 0.849609 15.1433C0.849609 22.0568 0.849609 28.9703 0.849609 35.8779C0.849609 36.3747 0.890518 36.7955 0.978178 37.1753C1.50414 39.4779 3.36839 40.9155 5.85211 40.9155C8.13713 40.9155 10.4221 40.9155 12.713 40.9155H38.269C41.3663 40.9155 43.3708 38.911 43.3767 35.8253V34.9195C43.3884 34.0254 43.3884 33.102 43.365 32.202C43.3475 31.641 43.5637 31.3605 44.113 31.2378C44.6799 31.1034 45.2526 30.9397 45.8078 30.7761L46.2929 30.6358C49.174 29.8118 50.5649 27.3866 49.8344 24.4645V24.4704ZM2.74308 12.5544C3.41514 11.7128 4.40279 11.2044 5.45471 11.1518C5.54822 11.1518 5.63588 11.1518 5.73523 11.1518H38.4151C39.5722 11.1518 40.6066 11.5784 41.3196 12.3498C42.0209 13.1037 42.3598 14.1381 42.278 15.2543C42.2663 15.377 42.167 15.4706 42.0442 15.4706H2.25218C2.1353 15.4706 2.03595 15.3887 2.01842 15.2777C1.86063 14.3368 2.12361 13.3492 2.74892 12.5602L2.74308 12.5544ZM42.2663 16.8497V22.086C42.2663 22.2204 42.1611 22.3198 42.0326 22.3198H2.21127C2.07686 22.3198 1.97751 22.2146 1.97751 22.086V16.8497C1.97751 16.7153 2.0827 16.616 2.21127 16.616H42.0326C42.167 16.616 42.2663 16.7212 42.2663 16.8497ZM42.3014 35.8604C42.3014 38.2857 40.7293 39.846 38.2982 39.846H22.1161H5.93392C3.47358 39.846 1.94829 38.3208 1.94244 35.8604C1.94244 33.1429 1.94244 30.4138 1.94244 27.6963V23.699C1.94244 23.5704 2.04764 23.4652 2.17621 23.4652H42.0618C42.1903 23.4652 42.2955 23.5762 42.2955 23.699V35.8604H42.3014ZM45.9714 29.6073C45.4572 29.7534 44.9429 29.8936 44.4052 30.0397L43.6689 30.2384C43.6689 30.2384 43.628 30.2501 43.6104 30.2501C43.5579 30.2501 43.5053 30.2326 43.4643 30.1975C43.4059 30.1566 43.3767 30.0865 43.3767 30.0164V25.1249C43.3767 21.7354 43.3767 18.3458 43.3767 14.9563C43.365 12.4959 41.7579 10.5616 39.3794 10.1408C39.0404 10.0823 38.6839 10.0765 38.3158 10.0765H38.1229C31.5834 10.0765 8.17804 10.0765 8.17804 10.0765C8.067 10.0765 7.96765 9.99469 7.94427 9.88365L7.93259 9.81937C7.90921 9.70833 7.97349 9.58561 8.08453 9.55054L8.20141 9.50963C8.29492 9.47457 8.39426 9.4395 8.49361 9.41613C18.6798 6.85059 28.8835 4.29091 39.0813 1.73122C39.4495 1.64356 39.8177 1.5968 40.1742 1.5968C41.9683 1.5968 43.3592 2.74808 43.8208 4.60648C45.4805 11.3213 47.1403 18.0361 48.7941 24.7509C49.3844 27.1294 48.3266 28.9411 45.9773 29.6131L45.9714 29.6073Z" fill="#27625F"/>
<path d="M49.8344 24.4704C49.3844 22.6704 48.9461 20.8704 48.5019 19.0705L47.3448 14.3602C46.5208 11.0116 45.6968 7.66876 44.8669 4.32013C44.2942 2.01757 42.4533 0.527344 40.18 0.527344C39.73 0.527344 39.2625 0.585784 38.795 0.702665L27.1829 3.613C20.0356 5.40712 12.8883 7.20124 5.72938 8.98951C3.04112 9.65573 0.849609 12.42 0.849609 15.1433C0.849609 22.0568 0.849609 28.9703 0.849609 35.8779C0.849609 36.3747 0.890518 36.7955 0.978178 37.1753C1.50414 39.4779 3.36839 40.9155 5.85211 40.9155C8.13713 40.9155 10.4221 40.9155 12.713 40.9155H38.269C41.3663 40.9155 43.3708 38.911 43.3767 35.8253V34.9195C43.3884 34.0254 43.3884 33.102 43.365 32.202C43.3475 31.641 43.5637 31.3605 44.113 31.2378C44.6799 31.1034 45.2526 30.9397 45.8078 30.7761L46.2929 30.6358C49.174 29.8118 50.5649 27.3866 49.8344 24.4645V24.4704ZM2.74308 12.5544C3.41514 11.7128 4.40279 11.2044 5.45471 11.1518C5.54822 11.1518 5.63588 11.1518 5.73523 11.1518H38.4151C39.5722 11.1518 40.6066 11.5784 41.3196 12.3498C42.0209 13.1037 42.3598 14.1381 42.278 15.2543C42.2663 15.377 42.167 15.4706 42.0442 15.4706H2.25218C2.1353 15.4706 2.03595 15.3887 2.01842 15.2777C1.86063 14.3368 2.12361 13.3492 2.74892 12.5602L2.74308 12.5544ZM42.2663 16.8497V22.086C42.2663 22.2204 42.1611 22.3198 42.0326 22.3198H2.21127C2.07686 22.3198 1.97751 22.2146 1.97751 22.086V16.8497C1.97751 16.7153 2.0827 16.616 2.21127 16.616H42.0326C42.167 16.616 42.2663 16.7212 42.2663 16.8497ZM42.3014 35.8604C42.3014 38.2857 40.7293 39.846 38.2982 39.846H22.1161H5.93392C3.47358 39.846 1.94829 38.3208 1.94244 35.8604C1.94244 33.1429 1.94244 30.4138 1.94244 27.6963V23.699C1.94244 23.5704 2.04764 23.4652 2.17621 23.4652H42.0618C42.1903 23.4652 42.2955 23.5762 42.2955 23.699V35.8604H42.3014ZM45.9714 29.6073C45.4572 29.7534 44.9429 29.8936 44.4052 30.0397L43.6689 30.2384C43.6689 30.2384 43.628 30.2501 43.6104 30.2501C43.5579 30.2501 43.5053 30.2326 43.4643 30.1975C43.4059 30.1566 43.3767 30.0865 43.3767 30.0164V25.1249C43.3767 21.7354 43.3767 18.3458 43.3767 14.9563C43.365 12.4959 41.7579 10.5616 39.3794 10.1408C39.0404 10.0823 38.6839 10.0765 38.3158 10.0765H38.1229C31.5834 10.0765 8.17804 10.0765 8.17804 10.0765C8.067 10.0765 7.96765 9.99469 7.94427 9.88365L7.93259 9.81937C7.90921 9.70833 7.97349 9.58561 8.08453 9.55054L8.20141 9.50963C8.29492 9.47457 8.39426 9.4395 8.49361 9.41613C18.6798 6.85059 28.8835 4.29091 39.0813 1.73122C39.4495 1.64356 39.8177 1.5968 40.1742 1.5968C41.9683 1.5968 43.3592 2.74808 43.8208 4.60648C45.4805 11.3213 47.1403 18.0361 48.7941 24.7509C49.3844 27.1294 48.3266 28.9411 45.9773 29.6131L45.9714 29.6073Z" fill="#27625F"/>
<path d="M39.1281 34.7212C39.1281 35.0485 38.8944 35.2472 38.5087 35.2472C37.6437 35.2472 36.7847 35.2472 35.9197 35.2472H30.0465C29.0881 35.2472 28.1355 35.2472 27.1771 35.2297C26.9725 35.2297 26.692 35.0777 26.5517 34.9083C26.505 34.8381 26.5167 34.5576 26.5693 34.4816C26.7154 34.3238 27.0076 34.2011 27.2238 34.1953C29.1991 34.1836 31.1744 34.1836 33.1555 34.1836H38.0002C38.1639 34.1836 38.3333 34.1836 38.497 34.1836C38.7307 34.1953 39.1281 34.2713 39.1281 34.7154V34.7212Z" fill="#27625F"/>
<path d="M39.1281 34.7212C39.1281 35.0485 38.8944 35.2472 38.5087 35.2472C37.6437 35.2472 36.7847 35.2472 35.9197 35.2472H30.0465C29.0881 35.2472 28.1355 35.2472 27.1771 35.2297C26.9725 35.2297 26.692 35.0777 26.5517 34.9083C26.505 34.8381 26.5167 34.5576 26.5693 34.4816C26.7154 34.3238 27.0076 34.2011 27.2238 34.1953C29.1991 34.1836 31.1744 34.1836 33.1555 34.1836H38.0002C38.1639 34.1836 38.3333 34.1836 38.497 34.1836C38.7307 34.1953 39.1281 34.2713 39.1281 34.7154V34.7212Z" fill="#27625F"/>
<path d="M39.1276 29.4146C39.1276 29.5724 39.0925 29.6951 39.0107 29.777C38.8938 29.888 38.6893 29.9581 38.4146 29.9581H30.7648C30.5602 29.9581 30.0693 29.8997 30.0693 29.4322C30.0693 29.2861 30.1044 29.1692 30.1979 29.0815C30.3206 28.9529 30.531 28.8887 30.794 28.8828H38.3854C38.8705 28.8828 39.1276 29.064 39.1276 29.4146Z" fill="#27625F"/>
<path d="M39.1276 29.4146C39.1276 29.5724 39.0925 29.6951 39.0107 29.777C38.8938 29.888 38.6893 29.9581 38.4146 29.9581H30.7648C30.5602 29.9581 30.0693 29.8997 30.0693 29.4322C30.0693 29.2861 30.1044 29.1692 30.1979 29.0815C30.3206 28.9529 30.531 28.8887 30.794 28.8828H38.3854C38.8705 28.8828 39.1276 29.064 39.1276 29.4146Z" fill="#27625F"/>
<path d="M10.5629 34.7154C10.5629 34.8498 10.5278 34.9725 10.446 35.066C10.3466 35.1771 10.1888 35.2413 10.0018 35.2472C9.87327 35.2472 9.7447 35.2589 9.62197 35.2589H8.97913H8.34213C8.21356 35.2589 8.08499 35.2589 7.95642 35.2472C7.60578 35.2297 7.4363 35.066 7.41877 34.7212C7.40708 34.5693 7.45383 34.4407 7.53565 34.3531C7.62915 34.2479 7.7811 34.1953 7.96811 34.1894C8.29538 34.1777 8.63433 34.1777 8.9616 34.1777C9.31224 34.1777 9.66288 34.1777 10.0194 34.1894C10.3642 34.2011 10.5336 34.3647 10.557 34.7154H10.5629Z" fill="#27625F"/>
<path d="M10.5629 34.7154C10.5629 34.8498 10.5278 34.9725 10.446 35.066C10.3466 35.1771 10.1888 35.2413 10.0018 35.2472C9.87327 35.2472 9.7447 35.2589 9.62197 35.2589H8.97913H8.34213C8.21356 35.2589 8.08499 35.2589 7.95642 35.2472C7.60578 35.2297 7.4363 35.066 7.41877 34.7212C7.40708 34.5693 7.45383 34.4407 7.53565 34.3531C7.62915 34.2479 7.7811 34.1953 7.96811 34.1894C8.29538 34.1777 8.63433 34.1777 8.9616 34.1777C9.31224 34.1777 9.66288 34.1777 10.0194 34.1894C10.3642 34.2011 10.5336 34.3647 10.557 34.7154H10.5629Z" fill="#27625F"/>
</svg>
