<svg width="44" height="46" viewBox="0 0 44 46" fill="none" xmlns="http://www.w3.org/2000/svg">
<path d="M42.8826 23.0915H40.5034C40.3586 23.0915 40.2448 22.9777 40.2448 22.8329V20.8778C40.25 19.7709 40.2552 18.6641 40.2397 17.5573C40.2241 16.3211 39.7225 15.2712 38.7449 14.4333C38.4398 14.1747 38.1449 13.9161 37.8605 13.6316C36.5467 12.323 35.2382 11.0145 33.9245 9.70076C33.9245 9.70076 27.242 3.01833 25.4732 1.24946C25.2301 1.00637 25.0387 0.892578 24.8732 0.892578C24.7077 0.892578 24.5111 1.00637 24.2732 1.24946C23.8543 1.65806 22.044 3.46831 22.044 3.46831C21.982 3.53555 21.9095 3.59244 21.8371 3.65451L21.7389 3.73726C21.6923 3.78381 21.6303 3.8045 21.5682 3.8045C21.5009 3.8045 21.4389 3.77864 21.3872 3.72692L19.0235 1.35807C18.6976 1.03223 18.4856 0.892578 18.3149 0.892578C18.1442 0.892578 17.927 1.03223 17.6011 1.35807L15.584 3.37521C12.3359 6.62333 9.08778 9.87144 5.82932 13.1144C5.64829 13.2902 5.33279 13.4713 5.02763 13.4816C2.47259 13.5282 0.755434 15.2815 0.74509 17.8314V24.519C0.739918 24.8034 0.739918 25.0879 0.74509 25.3724C0.760607 25.7293 1.01404 25.9775 1.3554 25.9775C1.69677 25.9775 1.94503 25.7293 1.96572 25.362C1.97089 25.2741 1.97089 25.1862 1.97089 25.0983V17.7797C1.97089 15.9487 3.19669 14.7229 5.01212 14.7229H35.983C37.7829 14.7229 38.9983 15.9435 39.0035 17.7538C39.0087 19.1503 39.0035 20.5468 39.0035 21.9432V22.4294C39.0035 22.5225 38.9983 22.6105 38.988 22.7139L38.9777 22.8484C38.9673 22.988 38.8535 23.0915 38.7191 23.0915H30.6557C28.8971 23.0863 27.1334 23.0915 25.3749 23.1018C22.044 23.1225 19.2976 25.8586 19.2614 29.1946C19.2407 30.8859 19.8769 32.4686 21.0458 33.653C22.2199 34.8426 23.8026 35.4995 25.5042 35.4995C27.1696 35.5046 28.8402 35.5046 30.5108 35.5046H38.7449C38.8897 35.5046 39.0035 35.6184 39.0035 35.7632V40.7906C39.0035 42.6681 37.7829 43.8784 35.9054 43.8784H5.07936C3.19669 43.8784 1.98124 42.6629 1.98124 40.7906V33.3634C1.97606 32.9134 1.74849 32.6237 1.36575 32.6186C1.0037 32.6186 0.755434 32.9134 0.750262 33.3375V35.1167C0.74509 37.0821 0.739918 39.1096 0.760607 41.1061C0.776123 42.4405 1.34506 43.5266 2.39501 44.2456C2.78292 44.5094 3.22772 44.6852 3.70356 44.8662C3.90528 44.9438 4.10699 45.0214 4.30353 45.1093H36.6657C36.6967 45.0835 36.7433 45.0576 36.8054 45.0473C38.9518 44.5869 40.2397 42.9991 40.2448 40.8009V35.7632C40.2448 35.6184 40.3586 35.5046 40.5034 35.5046H42.9033C43.5447 35.4995 43.736 35.3081 43.736 34.6823C43.7412 31.1031 43.7412 27.524 43.7412 23.9397C43.736 23.2828 43.5447 23.0966 42.8826 23.0915ZM11.4773 13.4971H11.4721C10.9446 13.4971 10.417 13.4868 9.88946 13.4868H7.99645C7.89301 13.4919 7.79991 13.4299 7.75853 13.3316C7.71715 13.2333 7.74302 13.1247 7.81543 13.0523L18.1701 2.69766C18.2166 2.65111 18.2839 2.62525 18.3511 2.62525C18.4235 2.62525 18.4856 2.65111 18.5373 2.69766L20.482 4.64756C20.5803 4.74583 20.5855 4.90617 20.4872 5.00444L20.4303 5.07168C20.3682 5.13892 20.301 5.2165 20.2286 5.28891L18.258 7.2595C16.3081 9.20423 14.3634 11.1541 12.4238 13.104C12.1497 13.3782 11.8652 13.4971 11.4773 13.4971ZM35.4399 13.3006C35.3985 13.3988 35.3054 13.4609 35.1968 13.4609H14.5444C14.441 13.4609 14.3479 13.3988 14.3065 13.3006C14.2651 13.2023 14.291 13.0937 14.3634 13.0213L24.6922 2.69249C24.7387 2.64077 24.806 2.61491 24.8732 2.61491C24.9404 2.61491 25.0077 2.64077 25.0542 2.69249L35.383 13.0213C35.4554 13.0937 35.4761 13.2023 35.4399 13.3006ZM42.4896 34.0151C42.4896 34.1547 42.3706 34.2737 42.2309 34.2737H32.2952C30.0298 34.2737 27.7593 34.2737 25.4939 34.2685C24.1077 34.2633 22.8302 33.7254 21.894 32.7531C20.9475 31.7703 20.4562 30.467 20.5079 29.0808C20.601 26.4637 22.7474 24.3793 25.3904 24.3328C26.2283 24.3173 27.061 24.3121 27.8989 24.3121C28.4937 24.3121 30.8574 24.3224 31.447 24.3224H42.2309C42.3706 24.3224 42.4896 24.4362 42.4896 24.581V34.0151Z" fill="#27625F"/>
<path d="M42.8826 23.0915H40.5034C40.3586 23.0915 40.2448 22.9777 40.2448 22.8329V20.8778C40.25 19.7709 40.2552 18.6641 40.2397 17.5573C40.2241 16.3211 39.7225 15.2712 38.7449 14.4333C38.4398 14.1747 38.1449 13.9161 37.8605 13.6316C36.5467 12.323 35.2382 11.0145 33.9245 9.70076C33.9245 9.70076 27.242 3.01833 25.4732 1.24946C25.2301 1.00637 25.0387 0.892578 24.8732 0.892578C24.7077 0.892578 24.5111 1.00637 24.2732 1.24946C23.8543 1.65806 22.044 3.46831 22.044 3.46831C21.982 3.53555 21.9095 3.59244 21.8371 3.65451L21.7389 3.73726C21.6923 3.78381 21.6303 3.8045 21.5682 3.8045C21.5009 3.8045 21.4389 3.77864 21.3872 3.72692L19.0235 1.35807C18.6976 1.03223 18.4856 0.892578 18.3149 0.892578C18.1442 0.892578 17.927 1.03223 17.6011 1.35807L15.584 3.37521C12.3359 6.62333 9.08778 9.87144 5.82932 13.1144C5.64829 13.2902 5.33279 13.4713 5.02763 13.4816C2.47259 13.5282 0.755434 15.2815 0.74509 17.8314V24.519C0.739918 24.8034 0.739918 25.0879 0.74509 25.3724C0.760607 25.7293 1.01404 25.9775 1.3554 25.9775C1.69677 25.9775 1.94503 25.7293 1.96572 25.362C1.97089 25.2741 1.97089 25.1862 1.97089 25.0983V17.7797C1.97089 15.9487 3.19669 14.7229 5.01212 14.7229H35.983C37.7829 14.7229 38.9983 15.9435 39.0035 17.7538C39.0087 19.1503 39.0035 20.5468 39.0035 21.9432V22.4294C39.0035 22.5225 38.9983 22.6105 38.988 22.7139L38.9777 22.8484C38.9673 22.988 38.8535 23.0915 38.7191 23.0915H30.6557C28.8971 23.0863 27.1334 23.0915 25.3749 23.1018C22.044 23.1225 19.2976 25.8586 19.2614 29.1946C19.2407 30.8859 19.8769 32.4686 21.0458 33.653C22.2199 34.8426 23.8026 35.4995 25.5042 35.4995C27.1696 35.5046 28.8402 35.5046 30.5108 35.5046H38.7449C38.8897 35.5046 39.0035 35.6184 39.0035 35.7632V40.7906C39.0035 42.6681 37.7829 43.8784 35.9054 43.8784H5.07936C3.19669 43.8784 1.98124 42.6629 1.98124 40.7906V33.3634C1.97606 32.9134 1.74849 32.6237 1.36575 32.6186C1.0037 32.6186 0.755434 32.9134 0.750262 33.3375V35.1167C0.74509 37.0821 0.739918 39.1096 0.760607 41.1061C0.776123 42.4405 1.34506 43.5266 2.39501 44.2456C2.78292 44.5094 3.22772 44.6852 3.70356 44.8662C3.90528 44.9438 4.10699 45.0214 4.30353 45.1093H36.6657C36.6967 45.0835 36.7433 45.0576 36.8054 45.0473C38.9518 44.5869 40.2397 42.9991 40.2448 40.8009V35.7632C40.2448 35.6184 40.3586 35.5046 40.5034 35.5046H42.9033C43.5447 35.4995 43.736 35.3081 43.736 34.6823C43.7412 31.1031 43.7412 27.524 43.7412 23.9397C43.736 23.2828 43.5447 23.0966 42.8826 23.0915ZM11.4773 13.4971H11.4721C10.9446 13.4971 10.417 13.4868 9.88946 13.4868H7.99645C7.89301 13.4919 7.79991 13.4299 7.75853 13.3316C7.71715 13.2333 7.74302 13.1247 7.81543 13.0523L18.1701 2.69766C18.2166 2.65111 18.2839 2.62525 18.3511 2.62525C18.4235 2.62525 18.4856 2.65111 18.5373 2.69766L20.482 4.64756C20.5803 4.74583 20.5855 4.90617 20.4872 5.00444L20.4303 5.07168C20.3682 5.13892 20.301 5.2165 20.2286 5.28891L18.258 7.2595C16.3081 9.20423 14.3634 11.1541 12.4238 13.104C12.1497 13.3782 11.8652 13.4971 11.4773 13.4971ZM35.4399 13.3006C35.3985 13.3988 35.3054 13.4609 35.1968 13.4609H14.5444C14.441 13.4609 14.3479 13.3988 14.3065 13.3006C14.2651 13.2023 14.291 13.0937 14.3634 13.0213L24.6922 2.69249C24.7387 2.64077 24.806 2.61491 24.8732 2.61491C24.9404 2.61491 25.0077 2.64077 25.0542 2.69249L35.383 13.0213C35.4554 13.0937 35.4761 13.2023 35.4399 13.3006ZM42.4896 34.0151C42.4896 34.1547 42.3706 34.2737 42.2309 34.2737H32.2952C30.0298 34.2737 27.7593 34.2737 25.4939 34.2685C24.1077 34.2633 22.8302 33.7254 21.894 32.7531C20.9475 31.7703 20.4562 30.467 20.5079 29.0808C20.601 26.4637 22.7474 24.3793 25.3904 24.3328C26.2283 24.3173 27.061 24.3121 27.8989 24.3121C28.4937 24.3121 30.8574 24.3224 31.447 24.3224H42.2309C42.3706 24.3224 42.4896 24.4362 42.4896 24.581V34.0151Z" fill="#27625F"/>
<path d="M1.97551 29.2926C1.98068 29.453 1.91345 29.6081 1.79966 29.7271C1.6807 29.8461 1.53071 29.9081 1.3652 29.9081H1.36002C1.02901 29.9081 0.760055 29.634 0.754883 29.3082C0.754883 29.153 0.816949 28.9927 0.935908 28.8737C1.0497 28.7547 1.21003 28.6875 1.3652 28.6875C1.69622 28.6927 1.97034 28.9668 1.97551 29.2926Z" fill="#27625F"/>
<path d="M1.97551 29.2926C1.98068 29.453 1.91345 29.6081 1.79966 29.7271C1.6807 29.8461 1.53071 29.9081 1.3652 29.9081H1.36002C1.02901 29.9081 0.760055 29.634 0.754883 29.3082C0.754883 29.153 0.816949 28.9927 0.935908 28.8737C1.0497 28.7547 1.21003 28.6875 1.3652 28.6875C1.69622 28.6927 1.97034 28.9668 1.97551 29.2926Z" fill="#27625F"/>
<path d="M25.478 26.9414C24.1901 26.9414 23.1299 27.9862 23.1143 29.2689C23.1092 29.9102 23.3523 30.5102 23.7971 30.9602C24.247 31.4101 24.8418 31.6584 25.4728 31.6584C26.7711 31.6584 27.8313 30.6085 27.8365 29.3154C27.8417 28.0172 26.7917 26.9518 25.478 26.9414ZM25.478 30.4274C25.1729 30.4274 24.8884 30.3085 24.6763 30.0912C24.4643 29.8792 24.3453 29.5947 24.3453 29.2947C24.3505 28.6896 24.847 28.1827 25.4573 28.1724H25.478C25.7728 28.1724 26.0573 28.2913 26.2745 28.5086C26.4918 28.7258 26.6055 29.0103 26.6055 29.3103C26.6004 29.9154 26.1038 30.4171 25.478 30.4274Z" fill="#27625F"/>
<path d="M25.478 26.9414C24.1901 26.9414 23.1299 27.9862 23.1143 29.2689C23.1092 29.9102 23.3523 30.5102 23.7971 30.9602C24.247 31.4101 24.8418 31.6584 25.4728 31.6584C26.7711 31.6584 27.8313 30.6085 27.8365 29.3154C27.8417 28.0172 26.7917 26.9518 25.478 26.9414ZM25.478 30.4274C25.1729 30.4274 24.8884 30.3085 24.6763 30.0912C24.4643 29.8792 24.3453 29.5947 24.3453 29.2947C24.3505 28.6896 24.847 28.1827 25.4573 28.1724H25.478C25.7728 28.1724 26.0573 28.2913 26.2745 28.5086C26.4918 28.7258 26.6055 29.0103 26.6055 29.3103C26.6004 29.9154 26.1038 30.4171 25.478 30.4274Z" fill="#27625F"/>
</svg>
