<svg width="34" height="48" viewBox="0 0 34 48" fill="none" xmlns="http://www.w3.org/2000/svg">
<path d="M2.2 48V41.6667L17.8 25.4C19.7556 23.3556 21.2 21.4667 22.1333 19.7333C23.0667 18 23.5333 16.2222 23.5333 14.4C23.5333 12.1333 22.8222 10.4222 21.4 9.26667C19.9778 8.11111 17.9111 7.53333 15.2 7.53333C13.0222 7.53333 10.9333 7.93333 8.93333 8.73333C6.93333 9.48889 4.97778 10.6889 3.06667 12.3333L0.266667 5.93333C2.17778 4.24444 4.53333 2.88889 7.33333 1.86667C10.1778 0.844444 13.1556 0.333333 16.2667 0.333333C21.3333 0.333333 25.2222 1.46667 27.9333 3.73333C30.6444 6 32 9.24444 32 13.4667C32 16.4 31.3111 19.2 29.9333 21.8667C28.5556 24.4889 26.4222 27.2444 23.5333 30.1333L10.5333 43.1333V40.8667H33.8667V48H2.2Z" fill="#27625F"/>
</svg>
