<svg width="35" height="49" viewBox="0 0 35 49" fill="none" xmlns="http://www.w3.org/2000/svg">
<path d="M17.2667 48.6667C14.0222 48.6667 10.9111 48.2 7.93333 47.2667C4.95556 46.2889 2.51111 44.9556 0.6 43.2667L3.4 36.8C5.48889 38.4 7.64444 39.5778 9.86667 40.3333C12.1333 41.0889 14.5111 41.4667 17 41.4667C20.0222 41.4667 22.3111 40.8667 23.8667 39.6667C25.4222 38.4667 26.2 36.7111 26.2 34.4C26.2 32.1778 25.4222 30.5111 23.8667 29.4C22.3556 28.2444 20.1333 27.6667 17.2 27.6667H9.6V20.8H16.4667C19 20.8 21.0222 20.1778 22.5333 18.9333C24.0444 17.6889 24.8 15.9778 24.8 13.8C24.8 11.7556 24.0889 10.2 22.6667 9.13333C21.2889 8.06667 19.2889 7.53333 16.6667 7.53333C11.9556 7.53333 7.8 9.13333 4.2 12.3333L1.4 5.93333C3.31111 4.15556 5.66667 2.77778 8.46667 1.8C11.3111 0.822222 14.2889 0.333333 17.4 0.333333C22.2889 0.333333 26.1111 1.44444 28.8667 3.66667C31.6667 5.84444 33.0667 8.88889 33.0667 12.8C33.0667 15.6 32.2667 18.0222 30.6667 20.0667C29.1111 22.0667 26.9556 23.4 24.2 24.0667V23.2667C27.4444 23.8 29.9556 25.1333 31.7333 27.2667C33.5556 29.3556 34.4667 31.9778 34.4667 35.1333C34.4667 39.3111 32.9333 42.6222 29.8667 45.0667C26.8 47.4667 22.6 48.6667 17.2667 48.6667Z" fill="#27625F"/>
</svg>
