<svg width="31" height="31" viewBox="0 0 31 31" fill="none" xmlns="http://www.w3.org/2000/svg">
<path d="M30.3338 19.4437C28.0181 16.9673 21.6951 17.9763 20.1812 18.1597C17.9549 15.9583 16.441 13.2986 15.9066 12.3815C16.7081 9.90512 17.2422 7.42874 17.3315 4.76918C17.3315 2.47618 16.441 0 13.9472 0C13.0567 0 12.255 0.550129 11.8097 1.28383C10.7412 3.21009 11.1863 7.06219 12.8784 11.006C11.8989 13.8491 11.0082 16.6006 8.51465 21.4616C5.93202 22.5619 0.499491 25.1302 0.0541504 27.8818C-0.123908 28.707 0.143179 29.5328 0.766578 30.1746C1.38998 30.7249 2.19143 31 2.99309 31C6.28814 31 9.49416 26.3227 11.7207 22.3785C13.5909 21.7367 16.5298 20.8194 19.4687 20.2691C22.9419 23.3875 25.9698 23.8459 27.5729 23.8459C29.7102 23.8459 30.5119 22.9288 30.779 22.1032C31.2241 21.1864 30.957 20.1774 30.3338 19.4437ZM28.1071 21.003C28.0181 21.645 27.2168 22.2868 25.7918 21.9201C24.0996 21.4616 22.5857 20.636 21.2499 19.5354C22.4077 19.3518 24.9901 19.0767 26.8605 19.4437C27.5729 19.6271 28.2854 20.0857 28.1071 21.003ZM13.2348 2.10923C13.4128 1.83416 13.6801 1.65079 13.9472 1.65079C14.7486 1.65079 14.9267 2.65956 14.9267 3.48515C14.8377 5.4114 14.4814 7.33725 13.8582 9.17162C12.5221 5.50289 12.7894 2.93462 13.2348 2.10923ZM13.0567 19.9023C13.7691 18.4349 14.7488 15.8667 15.1049 14.766C15.9064 16.1415 17.2422 17.7927 17.9549 18.5264C17.9549 18.6183 15.194 19.1684 13.0567 19.9023ZM7.80222 23.5711C5.75396 27.0562 3.61649 29.2573 2.45872 29.2573C2.28066 29.2573 2.10241 29.1656 1.92435 29.0739C1.65706 28.8904 1.56804 28.6153 1.65706 28.2486C1.92435 26.9645 4.23988 25.2218 7.80222 23.5711Z" fill="#27625F"/>
</svg>
