<svg width="35" height="29" viewBox="0 0 35 29" fill="none" xmlns="http://www.w3.org/2000/svg">
<path d="M0.377517 29.0052H6.73625C6.90599 29.0052 7.05494 28.892 7.10047 28.7283L8.95493 22.043H16.1541L18.166 28.7362C18.2141 28.8959 18.3611 29.0052 18.528 29.0052H25.1279C25.1291 29.0052 25.1303 29.0052 25.1309 29.0052C25.3396 29.0052 25.5087 28.836 25.5087 28.6273C25.5087 28.5716 25.497 28.5186 25.475 28.4711L17.0779 1.39099C17.0289 1.23294 16.8825 1.125 16.7169 1.125H8.66795C8.5017 1.125 8.35514 1.23349 8.3066 1.39235L0.0163734 28.5169C-0.0183532 28.6314 0.00276987 28.7558 0.0739321 28.852C0.145231 28.9483 0.257682 29.0052 0.377517 29.0052ZM15.0449 16.6993H10.0513L11.527 11.4248C11.7949 10.4744 12.0482 9.34968 12.2931 8.26208C12.3492 8.01229 12.4043 7.76715 12.459 7.52748C12.7832 8.83048 13.1397 10.2382 13.4971 11.4288L15.0449 16.6993Z" fill="#27625F"/>
<path d="M28.3036 8.57031C28.0949 8.57031 27.9258 8.73943 27.9258 8.94814V28.6275C27.9258 28.8362 28.0949 29.0053 28.3036 29.0053H34.4207C34.6294 29.0053 34.7985 28.8362 34.7985 28.6275V8.94814C34.7985 8.73943 34.6294 8.57031 34.4207 8.57031H28.3036Z" fill="#27625F"/>
<path d="M31.3217 6.90915C33.4529 6.90915 34.9995 5.46397 34.9995 3.46425C34.9531 1.42228 33.4573 -0.00390625 31.362 -0.00390625C30.2923 -0.00390625 29.3425 0.365167 28.6875 1.0355C28.0729 1.6642 27.7454 2.5295 27.7645 3.47272C27.745 4.38594 28.0733 5.23571 28.6892 5.86653C29.3456 6.53885 30.2806 6.90915 31.3217 6.90915Z" fill="#27625F"/>
</svg>
