<svg width="30" height="41" viewBox="0 0 30 41" fill="none" xmlns="http://www.w3.org/2000/svg">
<path d="M17.2616 40.4895H12.5673L11.9805 36.9688H17.8484L17.2616 40.4895Z" fill="#27625F"/>
<path d="M23.605 1.80859C28.0898 4.80241 29.2599 9.18105 28.7552 13.1337C27.7066 23.5997 16.8698 35.5174 17.7335 34.7353C20.147 32.6862 28.2729 23.0311 29.7997 13.9869C31.3272 4.94148 23.605 1.80859 23.605 1.80859Z" fill="#27625F"/>
<path d="M1.24494 13.1376C0.740889 9.18672 1.91506 4.80573 6.39522 1.8125C6.39522 1.8125 -1.32697 4.94538 0.199866 13.9902C1.72729 23.0344 9.85729 32.6895 12.2661 34.7386C13.1345 35.5202 2.29648 23.6036 1.24494 13.1376Z" fill="#27625F"/>
<path d="M10.123 14.7687C10.4434 20.2805 11.8705 27.5772 14.3127 35.2055H15.5197C17.9578 27.5772 19.3849 20.2846 19.7053 14.7734C20.1706 6.81475 18.5176 1.70379 15.8741 0.29021C15.6289 0.158181 15.3548 0.046104 14.9159 0.0390625C14.4793 0.0466908 14.2012 0.164636 13.9571 0.296077C11.3118 1.70673 9.66177 6.8124 10.123 14.7687Z" fill="#27625F"/>
<path d="M13.6707 35.1148C13.6707 35.1148 6.51949 23.2933 6.00253 12.9869C5.4838 2.67812 12.6726 0 12.6726 0C12.0031 0.0275792 10.512 0.454764 9.10372 1.11608C7.69542 1.77798 2.72119 4.7894 2.62378 12.2299C2.74994 19.2826 9.2692 31.2678 13.6707 35.1148Z" fill="#27625F"/>
<path d="M23.9651 12.9857C23.4458 23.2921 16.2969 35.1136 16.2969 35.1136C20.6984 31.2666 27.2177 19.2826 27.3438 12.2299C27.247 4.78881 22.2728 1.77739 20.8639 1.11608C19.4567 0.454764 17.9657 0.0275793 17.2938 9.63996e-08C17.2938 9.63996e-08 24.4797 2.67753 23.9651 12.9857Z" fill="#27625F"/>
</svg>
