<svg xmlns="http://www.w3.org/2000/svg" id="_Слой_2" data-name="Слой 2" viewBox="0 0 938.92 780.74"><defs><style>.cls-1{font-family:Mulish-Bold,Mulish;font-weight:700}.cls-1,.cls-2{fill:#27625f;font-size:16px}.cls-3{fill:#fff}.cls-3,.cls-4{stroke:#a0b6b5;stroke-miterlimit:10}.cls-2{font-family:Mulish-SemiBold,Mulish;font-weight:600}.cls-7{letter-spacing:-.06em}.cls-12,.cls-8{letter-spacing:-.02em}.cls-13,.cls-15{letter-spacing:0}.cls-16{letter-spacing:-.02em}.cls-17{letter-spacing:0}.cls-18{letter-spacing:-.02em}.cls-19{letter-spacing:0}.cls-20{letter-spacing:-.01em}.cls-4{fill:none}</style></defs><g id="_Слой_1-2" data-name="Слой 1"><rect width="937.92" height="226.38" x=".5" y="488.09" class="cls-3" rx="10" ry="10"/><path d="M938.42 535.3H.5m713.81 45.18H.5m883.89 0H769.87M586.94 714.47V488.09m182.85 226.38V488.09m168.63 136.38H.5m937.92 45.18H.5" class="cls-4"/><text class="cls-2" transform="translate(17.62 737.97)"><tspan x="0" y="0" style="letter-spacing:-.01em">Р</tspan><tspan x="10.34" y="0" class="cls-13">азрем х разрем х сумма на м</tspan></text><text class="cls-2" transform="matrix(.58 0 0 .58 256.64 732.65)"><tspan x="0" y="0">2 </tspan></text><text class="cls-2" transform="translate(264.73 737.97)"><tspan x="0" y="0" class="cls-17">+ 20% резка (резка в край)</tspan><tspan x="-247.11" y="19.2" class="cls-8">Р</tspan><tspan x="-236.85" y="19.2" class="cls-13">езка + размер х 2 х (люверсы и проклейку)</tspan><tspan x="-247.11" y="38.4" class="cls-8">С</tspan><tspan x="-236.42" y="38.4" style="letter-spacing:0">умма печати + сумма проклейки и люверсов = и</tspan><tspan x="142.2" y="38.4" class="cls-19">т</tspan><tspan x="149.64" y="38.4">оговая цена</tspan></text><text class="cls-1" transform="translate(17.62 517.9)"><tspan x="0" y="0">Прочие работы</tspan></text><text class="cls-1" transform="translate(17.62 564.36)"><tspan x="0" y="0">Люверсовка</tspan></text><text class="cls-1" transform="translate(17.62 608.46)"><tspan x="0" y="0">Проклейка края</tspan></text><text class="cls-1" transform="translate(17.62 652.37)"><tspan x="0" y="0">Люверс</tspan></text><text class="cls-1" transform="translate(17.62 696.89)"><tspan x="0" y="0">Проклейка края «карман»</tspan></text><text class="cls-2" transform="translate(649.35 563.35)"><tspan x="0" y="0">43 </tspan><tspan x="23.47" y="0" class="cls-12">р</tspan><tspan x="33.15" y="0">. п.м</tspan></text><text class="cls-2" transform="translate(649.35 610.03)"><tspan x="0" y="0">60 </tspan><tspan x="23.47" y="0" class="cls-12">р</tspan><tspan x="33.15" y="0">. п.м</tspan></text><text class="cls-2" transform="translate(719.4 585.43)"><tspan x="0" y="0">103 </tspan><tspan x="33.07" y="0" class="cls-18">р</tspan><tspan x="42.75" y="0" class="cls-15">.</tspan></text><text class="cls-2" transform="translate(887.4 585.43)"><tspan x="0" y="0">124 </tspan><tspan x="33.07" y="0" class="cls-18">р</tspan><tspan x="42.75" y="0" class="cls-15">.</tspan></text><text class="cls-2" transform="translate(649.35 654.14)"><tspan x="0" y="0">26 </tspan><tspan x="23.47" y="0" class="cls-12">р</tspan><tspan x="33.15" y="0">. п.м</tspan></text><text class="cls-2" transform="translate(644.55 700.05)"><tspan x="0" y="0">110 </tspan><tspan x="33.07" y="0" class="cls-16">р</tspan><tspan x="42.75" y="0">. п.м</tspan></text><text class="cls-1" transform="translate(653.86 518.06)"><tspan x="0" y="0">до 1,5м</tspan></text><text class="cls-2" transform="translate(825.43 563.35)"><tspan x="0" y="0">60 </tspan><tspan x="23.47" y="0" class="cls-12">р</tspan><tspan x="33.15" y="0">. п.м</tspan></text><text class="cls-2" transform="translate(825.43 610.03)"><tspan x="0" y="0">64 </tspan><tspan x="23.47" y="0" class="cls-12">р</tspan><tspan x="33.15" y="0">. п.м</tspan></text><text class="cls-2" transform="translate(825.43 654.14)"><tspan x="0" y="0">26 </tspan><tspan x="23.47" y="0" class="cls-12">р</tspan><tspan x="33.15" y="0">. п.м</tspan></text><text class="cls-2" transform="translate(820.63 700.05)"><tspan x="0" y="0">110 </tspan><tspan x="33.07" y="0" class="cls-16">р</tspan><tspan x="42.75" y="0">. п.м</tspan></text><text class="cls-1" transform="translate(837.12 518.06)"><tspan x="0" y="0">до 3м</tspan></text><rect width="937.92" height="401.67" x=".5" y=".5" class="cls-3" rx="10" ry="10"/><path d="M938.42 88.95H442.93m495.49 45.18H.5m937.92-89.21H.5m937.92 134.4H.5m937.92 45.18H.5m442.43 0V44.92m0 357.25V269.08m121.05-44.58V88.95M682.15 224.5V88.95M805.02 224.5V88.95M682.15 402.17V268.6m256.27.32H.5m937.92 44.42H.5m937.92 44.42H.5" class="cls-4"/><text class="cls-1" transform="translate(17.27 28.51)"><tspan x="0" y="0">Эк</tspan><tspan x="20.27" y="0" style="letter-spacing:.02em">о-</tspan><tspan x="37.46" y="0">с</tspan><tspan x="45.74" y="0" class="cls-20">о</tspan><tspan x="55.28" y="0">львентная печать до 1,5м</tspan></text><text class="cls-1" transform="translate(17.27 251.13)"><tspan x="0" y="0" class="cls-20">Со</tspan><tspan x="20.34" y="0">львентная печать до 3 м</tspan></text><text class="cls-2" transform="translate(17.27 341.32)"><tspan x="0" y="0">Банне</tspan><tspan x="49.2" y="0" class="cls-16">р</tspan><tspan x="58.88" y="0" class="cls-17">, Китай 440 г</tspan><tspan x="159.07" y="0" class="cls-7">/</tspan><tspan x="162.91" y="0" class="cls-15">м2</tspan></text><text class="cls-2" transform="translate(17.27 386.35)"><tspan x="0" y="0">Банне</tspan><tspan x="49.2" y="0" class="cls-16">р</tspan><tspan x="58.88" y="0" class="cls-17">, ли</tspan><tspan x="86.16" y="0" class="cls-19">т</tspan><tspan x="93.6" y="0">ой 510 г</tspan><tspan x="157.36" y="0" class="cls-7">/</tspan><tspan x="161.2" y="0">м2</tspan></text><text class="cls-2" transform="translate(537.52 341.32)"><tspan x="0" y="0">556</tspan><tspan x="28.8" y="0" class="cls-16">р</tspan><tspan x="38.48" y="0">.</tspan></text><text class="cls-2" transform="translate(537.52 386.8)"><tspan x="0" y="0">763</tspan><tspan x="28.8" y="0" class="cls-16">р</tspan><tspan x="38.48" y="0">.</tspan></text><text class="cls-2" transform="translate(790.22 341.32)"><tspan x="0" y="0">948</tspan><tspan x="28.8" y="0" class="cls-16">р</tspan><tspan x="38.48" y="0">.</tspan></text><text class="cls-2" transform="translate(785.42 386.8)"><tspan x="0" y="0">1143</tspan><tspan x="38.4" y="0" class="cls-16">р</tspan><tspan x="48.08" y="0">.</tspan></text><text class="cls-1" transform="translate(183.31 97.19)"><tspan x="0" y="0">Ма</tspan><tspan x="24.06" y="0" style="letter-spacing:0">т</tspan><tspan x="31.73" y="0">ериал</tspan></text><text class="cls-2" transform="translate(17.96 162.18)"><tspan x="0" y="0">Банне</tspan><tspan x="49.2" y="0" class="cls-16">р</tspan><tspan x="58.88" y="0" class="cls-17">, </tspan><tspan x="66.94" y="0" style="letter-spacing:0">К</tspan><tspan x="77.58" y="0">орея 440 г</tspan><tspan x="159.49" y="0" class="cls-7">/</tspan><tspan x="163.33" y="0" class="cls-15">м2</tspan></text><text class="cls-2" transform="translate(475.45 118.49)"><tspan x="0" y="0">360 dpi</tspan></text><text class="cls-2" transform="translate(530.39 297.71)"><tspan x="0" y="0">360 dpi</tspan></text><text class="cls-2" transform="translate(482.58 162.54)"><tspan x="0" y="0">331</tspan><tspan x="28.8" y="0" class="cls-16">р</tspan><tspan x="38.48" y="0">.</tspan></text><text class="cls-2" transform="translate(482.58 207.66)"><tspan x="0" y="0">397</tspan><tspan x="28.8" y="0" class="cls-16">р</tspan><tspan x="38.48" y="0">.</tspan></text><text class="cls-2" transform="translate(601.93 162.54)"><tspan x="0" y="0">375</tspan><tspan x="28.8" y="0" class="cls-16">р</tspan><tspan x="38.48" y="0">.</tspan></text><text class="cls-2" transform="translate(601.93 207.66)"><tspan x="0" y="0">462</tspan><tspan x="28.8" y="0" class="cls-16">р</tspan><tspan x="38.48" y="0">.</tspan></text><text class="cls-2" transform="translate(722.45 162.54)"><tspan x="0" y="0">638</tspan><tspan x="28.8" y="0" class="cls-16">р</tspan><tspan x="38.48" y="0">.</tspan></text><text class="cls-2" transform="translate(722.45 207.66)"><tspan x="0" y="0">660</tspan><tspan x="28.8" y="0" class="cls-16">р</tspan><tspan x="38.48" y="0">.</tspan></text><text class="cls-2" transform="translate(850.59 162.54)"><tspan x="0" y="0">770</tspan><tspan x="28.8" y="0" class="cls-16">р</tspan><tspan x="38.48" y="0">.</tspan></text><text class="cls-2" transform="translate(850.59 207.66)"><tspan x="0" y="0">845</tspan><tspan x="28.8" y="0" class="cls-16">р</tspan><tspan x="38.48" y="0">.</tspan></text><text class="cls-2" transform="translate(595.97 118.49)"><tspan x="0" y="0">540 dpi</tspan></text><text class="cls-2" transform="translate(715.75 118.49)"><tspan x="0" y="0">720 dpi</tspan></text><text class="cls-2" transform="translate(783.08 297.71)"><tspan x="0" y="0">720 dpi</tspan></text><text class="cls-2" transform="translate(842.65 118.49)"><tspan x="0" y="0">1440 dpi</tspan></text><text class="cls-2" transform="translate(17.96 206.78)"><tspan x="0" y="0">Банне</tspan><tspan x="49.2" y="0" class="cls-16">р</tspan><tspan x="58.88" y="0" class="cls-17">, ли</tspan><tspan x="86.16" y="0" class="cls-19">т</tspan><tspan x="93.6" y="0">ой 510 г</tspan><tspan x="157.36" y="0" class="cls-7">/</tspan><tspan x="161.2" y="0">м2</tspan></text><text class="cls-1" transform="translate(611.62 73.15)"><tspan x="0" y="0">Цена за кв.м (</tspan><tspan x="113.15" y="0" style="letter-spacing:0">р</tspan><tspan x="123.17" y="0">у</tspan><tspan x="132.08" y="0" style="letter-spacing:-.02em">б</tspan><tspan x="141.55" y="0">.)</tspan></text><text class="cls-2" transform="translate(17.27 430.8)"><tspan x="0" y="0">При размере макета менее 1 кв.м. оптала, как за 1 кв.м.</tspan></text></g></svg>