<svg xmlns="http://www.w3.org/2000/svg" id="_Слой_2" data-name="Слой 2" viewBox="0 0 938.93 368.51"><defs><style>.cls-1{font-family:Mulish-Bold,Mulish;font-weight:700}.cls-1,.cls-2,.cls-3{fill:#27625f}.cls-1,.cls-3{font-size:16px}.cls-2{stroke-width:0}.cls-3{font-family:Mulish-SemiBold,Mulish;font-weight:600}.cls-6{letter-spacing:-.07em}.cls-7{letter-spacing:-.01em}.cls-9{letter-spacing:0}</style></defs><g id="_Слой_1-2" data-name="Слой 1"><rect width="937.93" height="367.51" x=".5" y=".5" rx="10.69" ry="10.69" style="fill:#fff;stroke:#a0b6b5;stroke-miterlimit:10"/><path d="M.5 46.44h937.93m-583.58 0v321.57M555.26 46.44v321.57M755.67 46.44v321.57M.5 92.38h937.93M.5 138.32h937.93M.5 184.26h937.93M.5 230.2h937.93M.5 276.13h937.93M.5 322.07h937.93" style="stroke:#a0b6b5;stroke-miterlimit:10;fill:none"/><text class="cls-1" transform="translate(24.2 29.88)"><tspan x="0" y="0">Буклеты</tspan></text><text class="cls-1" transform="translate(137.18 76.05)"><tspan x="0" y="0">Формат</tspan></text><text class="cls-1" transform="translate(418.42 76.05)"><tspan x="0" y="0">1000 ш</tspan><tspan x="56.35" y="0" class="cls-6">т</tspan><tspan x="62.98" y="0" class="cls-9">.</tspan></text><path d="M428.78 112.74a6.5 6.5 0 0 1-2.8-.62c-.42-.2-.78-.43-1.09-.71l.58-1.26c.51.39 1.04.69 1.58.89s1.11.3 1.7.3c.76 0 1.35-.2 1.78-.59s.65-.92.65-1.58-.21-1.23-.62-1.66c-.41-.42-.98-.63-1.7-.63-.5 0-.96.1-1.37.3q-.615.3-1.08.93h-1.15v-6.78h6.83v1.39h-5.25v4.06h-.42c.29-.4.67-.72 1.16-.94s1.03-.34 1.64-.34c.73 0 1.35.15 1.89.45.53.3.95.71 1.24 1.25.29.53.44 1.16.44 1.89s-.16 1.36-.49 1.91a3.4 3.4 0 0 1-1.39 1.29c-.6.31-1.31.46-2.14.46Zm9.6 0a6.5 6.5 0 0 1-2.8-.62c-.42-.2-.78-.43-1.09-.71l.58-1.26c.51.39 1.04.69 1.58.89s1.11.3 1.7.3c.76 0 1.35-.2 1.78-.59s.65-.92.65-1.58-.21-1.23-.62-1.66c-.41-.42-.98-.63-1.7-.63-.5 0-.96.1-1.37.3q-.615.3-1.08.93h-1.15v-6.78h6.83v1.39h-5.25v4.06h-.42c.29-.4.67-.72 1.16-.94s1.03-.34 1.64-.34c.73 0 1.35.15 1.89.45.53.3.95.71 1.24 1.25.29.53.44 1.16.44 1.89s-.16 1.36-.49 1.91a3.4 3.4 0 0 1-1.39 1.29c-.6.31-1.31.46-2.14.46Zm8.64 0c-.6 0-1.19-.12-1.79-.36s-1.1-.56-1.5-.95l.59-1.26c.39.38.83.67 1.3.87s.94.3 1.42.3c1.02 0 1.81-.36 2.36-1.08s.82-1.79.82-3.22v-1.36h.16a3.2 3.2 0 0 1-.54 1.49c-.3.43-.67.75-1.13.98-.45.22-.96.34-1.53.34-.66 0-1.26-.16-1.78-.46-.53-.31-.94-.74-1.23-1.28s-.44-1.16-.44-1.84c0-.73.16-1.37.48-1.93s.76-1 1.31-1.31 1.19-.47 1.92-.47c1.41 0 2.49.48 3.24 1.45s1.13 2.33 1.13 4.09c0 1.29-.19 2.38-.57 3.28s-.93 1.58-1.64 2.05-1.57.7-2.58.7Zm.53-5.63c.45 0 .84-.1 1.18-.29s.61-.46.8-.81.29-.74.29-1.19-.1-.86-.29-1.21-.46-.62-.8-.82-.74-.3-1.18-.3-.84.1-1.18.3-.6.47-.79.82-.29.75-.29 1.21.1.85.29 1.19c.19.35.46.62.79.81s.73.29 1.18.29m9.87 5.63q-1.95 0-3-1.5c-.7-1-1.05-2.43-1.05-4.3s.35-3.34 1.05-4.31c.7-.98 1.7-1.46 3-1.46s2.31.49 3.01 1.46c.69.98 1.04 2.41 1.04 4.29s-.35 3.32-1.05 4.31q-1.05 1.5-3 1.5Zm0-1.39c.82 0 1.43-.36 1.83-1.07s.6-1.83.6-3.34-.2-2.64-.6-3.34q-.6-1.05-1.83-1.05c-1.23 0-1.42.35-1.82 1.05-.41.7-.61 1.81-.61 3.32s.21 2.65.62 3.36 1.02 1.07 1.82 1.07Zm10.35 4.71v-9.58c0-.31-.01-.63-.04-.95l-.09-.98h1.57l.16 1.82h-.18c.17-.61.51-1.09 1.03-1.44s1.13-.53 1.85-.53 1.34.17 1.87.5.95.81 1.24 1.43.44 1.37.44 2.24-.15 1.61-.44 2.24-.71 1.11-1.24 1.44-1.16.5-1.87.5-1.31-.17-1.83-.52-.86-.82-1.03-1.42h.18v5.25zm3.9-4.58c.7 0 1.27-.25 1.69-.74s.63-1.22.63-2.18-.21-1.68-.63-2.17-.98-.73-1.69-.73-1.27.24-1.69.73-.63 1.21-.63 2.17.21 1.69.63 2.18.98.74 1.69.74m5.45 1.12v-1.9h1.9v1.9zm-66.28 17.88c-.47-.79-.85-1.57-1.15-2.33s-.52-1.54-.66-2.32-.21-1.6-.21-2.44.07-1.67.21-2.45.36-1.55.66-2.3c.3-.76.68-1.53 1.15-2.32h1.31c-.55 1.21-.97 2.39-1.24 3.56s-.41 2.34-.41 3.51.14 2.34.41 3.51.69 2.36 1.24 3.58zm6.67-2.74a6.5 6.5 0 0 1-2.8-.62c-.42-.2-.78-.43-1.09-.71l.58-1.26c.51.39 1.04.69 1.58.89s1.11.3 1.7.3c.76 0 1.35-.2 1.78-.59s.65-.92.65-1.58-.21-1.23-.62-1.66c-.41-.42-.98-.63-1.7-.63-.5 0-.96.1-1.37.3q-.615.3-1.08.93h-1.15v-6.78h6.83v1.39h-5.25v4.06h-.42c.29-.4.67-.72 1.16-.94s1.03-.34 1.64-.34c.73 0 1.35.15 1.89.45.53.3.95.71 1.24 1.25.29.53.44 1.16.44 1.89s-.16 1.36-.49 1.91a3.4 3.4 0 0 1-1.39 1.29c-.6.31-1.31.46-2.14.46Zm6.4 1.83-.7-.54c.31-.33.52-.63.63-.91s.17-.57.17-.86l.35.35h-1.26v-1.9h1.9v1.3c0 .48-.08.93-.24 1.34s-.44.82-.85 1.24Zm6.99-1.83a6.5 6.5 0 0 1-2.8-.62c-.42-.2-.78-.43-1.09-.71l.58-1.26c.51.39 1.04.69 1.58.89s1.11.3 1.7.3c.76 0 1.35-.2 1.78-.59s.65-.92.65-1.58-.21-1.23-.62-1.66c-.41-.42-.98-.63-1.7-.63-.5 0-.96.1-1.37.3q-.615.3-1.08.93h-1.15v-6.78h6.83v1.39h-5.25v4.06h-.42c.29-.4.67-.72 1.16-.94s1.03-.34 1.64-.34c.73 0 1.35.15 1.89.45.53.3.95.71 1.24 1.25.29.53.44 1.16.44 1.89s-.16 1.36-.49 1.91a3.4 3.4 0 0 1-1.39 1.29c-.6.31-1.31.46-2.14.46Zm8.64 0c-.6 0-1.19-.12-1.79-.36s-1.1-.56-1.5-.95l.59-1.26c.39.38.83.67 1.3.87s.94.3 1.42.3c1.02 0 1.81-.36 2.36-1.08s.82-1.79.82-3.22v-1.36h.16a3.2 3.2 0 0 1-.54 1.49c-.3.43-.67.75-1.13.98-.45.22-.96.34-1.53.34-.66 0-1.26-.16-1.78-.46-.53-.31-.94-.74-1.23-1.28s-.44-1.16-.44-1.84c0-.73.16-1.37.48-1.93s.76-1 1.31-1.31 1.19-.47 1.92-.47c1.41 0 2.49.48 3.24 1.45s1.13 2.33 1.13 4.09c0 1.29-.19 2.38-.57 3.28s-.93 1.58-1.64 2.05-1.57.7-2.58.7Zm.53-5.63c.45 0 .84-.1 1.18-.29s.61-.46.8-.81.29-.74.29-1.19-.1-.86-.29-1.21-.46-.62-.8-.82-.74-.3-1.18-.3-.84.1-1.18.3-.6.47-.79.82-.29.75-.29 1.21.1.85.29 1.19c.19.35.46.62.79.81s.73.29 1.18.29m10.62 8.95v-9.58c0-.31-.01-.63-.04-.95l-.09-.98h1.57l.16 1.82h-.18c.17-.61.51-1.09 1.03-1.44s1.13-.53 1.85-.53 1.34.17 1.87.5c.53.34.95.81 1.24 1.43s.44 1.37.44 2.24-.15 1.61-.44 2.24-.71 1.11-1.24 1.44-1.16.5-1.87.5-1.31-.17-1.83-.52-.86-.82-1.03-1.42h.18v5.25zm3.9-4.58c.7 0 1.27-.25 1.69-.74s.63-1.22.63-2.18-.21-1.68-.63-2.17-.98-.73-1.69-.73-1.27.24-1.69.73-.63 1.21-.63 2.17.21 1.69.63 2.18.98.74 1.69.74m5.45 1.12v-1.9h1.9v1.9z" class="cls-2"/><path d="M464.92 128.51h-1.36l4.19-12.91h1.36zm4.08-.91v-8.06h1.52v6.8h3.15v-6.8h1.52v6.8h3.14v-6.8h1.54v8.06h-10.86Zm15.02 0v-6.77h-2.85v-1.3h7.31v1.3h-2.86v6.77zm4.37 0v-1.9h1.9v1.9zm4.56 2.88h-1.31c.55-1.21.97-2.39 1.25-3.57.28-1.17.42-2.35.42-3.52s-.14-2.33-.42-3.5-.69-2.36-1.25-3.57h1.31c.48.79.87 1.56 1.17 2.32s.51 1.53.65 2.31c.13.78.2 1.6.2 2.44s-.07 1.67-.2 2.46-.35 1.55-.65 2.31-.69 1.53-1.17 2.32m-67.8 27.86v-1.23l3.87-4.05c.5-.52.87-1.01 1.12-1.47s.37-.93.37-1.42q0-.915-.57-1.38c-.38-.31-.93-.46-1.64-.46q-.855 0-1.59.3c-.5.2-.97.51-1.43.93l-.58-1.26c.45-.42 1.01-.75 1.67-1s1.37-.38 2.12-.38c1.17 0 2.08.27 2.71.8s.95 1.3.95 2.29c0 .7-.17 1.38-.51 2.02-.34.65-.85 1.31-1.54 1.99l-3.34 3.38v-.45h5.86v1.39zm12.27.15c-.6 0-1.19-.12-1.79-.36s-1.1-.56-1.5-.95l.59-1.26c.39.38.83.67 1.3.87s.94.3 1.42.3c1.02 0 1.81-.36 2.36-1.08s.82-1.79.82-3.22v-1.36h.16a3.2 3.2 0 0 1-.54 1.49c-.3.43-.67.75-1.13.98-.45.22-.96.34-1.53.34-.66 0-1.26-.16-1.78-.46-.53-.31-.94-.74-1.23-1.28s-.44-1.16-.44-1.84c0-.73.16-1.37.48-1.93s.76-1 1.31-1.31 1.19-.47 1.92-.47c1.41 0 2.49.48 3.24 1.45s1.13 2.33 1.13 4.09c0 1.29-.19 2.38-.57 3.28s-.93 1.58-1.64 2.05-1.57.71-2.58.71Zm.53-5.63c.45 0 .84-.1 1.18-.29s.61-.46.8-.81.29-.74.29-1.19-.1-.86-.29-1.21-.46-.62-.8-.82-.74-.3-1.18-.3-.84.1-1.18.3-.6.47-.79.82-.29.75-.29 1.21.1.84.29 1.19.46.62.79.81c.34.19.73.29 1.18.29m9.07 5.63c-.6 0-1.19-.12-1.79-.36s-1.1-.56-1.5-.95l.59-1.26c.39.38.83.67 1.3.87s.94.3 1.42.3c1.02 0 1.81-.36 2.36-1.08s.82-1.79.82-3.22v-1.36h.16a3.2 3.2 0 0 1-.54 1.49c-.3.43-.67.75-1.13.98-.45.22-.96.34-1.53.34-.66 0-1.26-.16-1.78-.46-.53-.31-.94-.74-1.23-1.28s-.44-1.16-.44-1.84c0-.73.16-1.37.48-1.93s.76-1 1.31-1.31 1.19-.47 1.92-.47c1.41 0 2.49.48 3.24 1.45s1.13 2.33 1.13 4.09c0 1.29-.19 2.38-.57 3.28s-.93 1.58-1.64 2.05-1.57.71-2.58.71Zm.53-5.63c.45 0 .84-.1 1.18-.29s.61-.46.8-.81.29-.74.29-1.19-.1-.86-.29-1.21-.46-.62-.8-.82-.74-.3-1.18-.3-.84.1-1.18.3-.6.47-.79.82-.29.75-.29 1.21.1.84.29 1.19.46.62.79.81c.34.19.73.29 1.18.29m9.87 5.63q-1.95 0-3-1.5c-.7-1-1.05-2.43-1.05-4.3s.35-3.34 1.05-4.31 1.7-1.46 3-1.46 2.31.49 3.01 1.46c.69.98 1.04 2.41 1.04 4.3s-.35 3.31-1.05 4.31q-1.05 1.5-3 1.5m0-1.39c.82 0 1.43-.36 1.83-1.07s.6-1.83.6-3.34-.2-2.64-.6-3.34q-.6-1.05-1.83-1.05c-1.23 0-1.42.35-1.82 1.05-.41.7-.61 1.81-.61 3.32s.21 2.64.62 3.36 1.02 1.07 1.82 1.07Zm10.35 4.7v-9.58c0-.31-.01-.63-.04-.95l-.09-.98h1.57l.16 1.82h-.18c.17-.61.51-1.09 1.03-1.44s1.13-.53 1.85-.53 1.34.17 1.87.5.95.81 1.24 1.43.44 1.37.44 2.24-.15 1.61-.44 2.24-.71 1.11-1.24 1.44-1.16.5-1.87.5-1.31-.17-1.83-.52-.86-.82-1.03-1.42h.18v5.25zm3.9-4.58c.7 0 1.27-.25 1.69-.74s.63-1.22.63-2.18-.21-1.68-.63-2.17-.98-.73-1.69-.73-1.27.24-1.69.73-.63 1.21-.63 2.17.21 1.69.63 2.18.98.74 1.69.74m5.45 1.12v-1.9h1.9v1.9zm-66.28 17.88c-.47-.79-.85-1.57-1.15-2.33s-.52-1.54-.66-2.32-.21-1.6-.21-2.44.07-1.67.21-2.45.36-1.55.66-2.3c.3-.76.68-1.53 1.15-2.32h1.31c-.55 1.21-.97 2.39-1.24 3.56s-.41 2.34-.41 3.51.14 2.34.41 3.51.69 2.36 1.24 3.58zm3.04-2.88v-1.23l3.87-4.05c.5-.52.87-1.01 1.12-1.47s.37-.93.37-1.42q0-.915-.57-1.38c-.38-.31-.93-.46-1.64-.46q-.855 0-1.59.3c-.5.2-.97.51-1.43.93l-.58-1.26c.45-.42 1.01-.75 1.67-1s1.37-.38 2.12-.38c1.17 0 2.08.27 2.71.8s.95 1.3.95 2.29c0 .7-.17 1.38-.51 2.02-.34.65-.85 1.31-1.54 1.99l-3.34 3.38v-.45h5.86v1.39zm10.03 1.97-.7-.54c.31-.33.52-.63.63-.91s.17-.56.17-.86l.35.35h-1.26v-1.9h1.9v1.3c0 .48-.08.92-.24 1.34-.16.41-.44.82-.85 1.24Zm6.03-1.82c-.6 0-1.19-.12-1.79-.36s-1.1-.56-1.5-.95l.59-1.26c.39.38.83.67 1.3.87s.94.3 1.42.3c1.02 0 1.81-.36 2.36-1.08s.82-1.79.82-3.22v-1.36h.16a3.2 3.2 0 0 1-.54 1.49c-.3.43-.67.75-1.13.98-.45.22-.96.34-1.53.34-.66 0-1.26-.16-1.78-.46-.53-.31-.94-.74-1.23-1.28s-.44-1.16-.44-1.84c0-.73.16-1.37.48-1.93s.76-1 1.31-1.31 1.19-.47 1.92-.47c1.41 0 2.49.48 3.24 1.45s1.13 2.33 1.13 4.09c0 1.29-.19 2.38-.57 3.28s-.93 1.58-1.64 2.05-1.57.71-2.58.71Zm.53-5.63c.45 0 .84-.1 1.18-.29s.61-.46.8-.81.29-.74.29-1.19-.1-.86-.29-1.21-.46-.62-.8-.82-.74-.3-1.18-.3-.84.1-1.18.3-.6.47-.79.82-.29.75-.29 1.21.1.84.29 1.19.46.62.79.81c.34.19.73.29 1.18.29m9.07 5.63c-.6 0-1.19-.12-1.79-.36s-1.1-.56-1.5-.95l.59-1.26c.39.38.83.67 1.3.87s.94.3 1.42.3c1.02 0 1.81-.36 2.36-1.08s.82-1.79.82-3.22v-1.36h.16a3.2 3.2 0 0 1-.54 1.49c-.3.43-.67.75-1.13.98-.45.22-.96.34-1.53.34-.66 0-1.26-.16-1.78-.46-.53-.31-.94-.74-1.23-1.28s-.44-1.16-.44-1.84c0-.73.16-1.37.48-1.93s.76-1 1.31-1.31 1.19-.47 1.92-.47c1.41 0 2.49.48 3.24 1.45s1.13 2.33 1.13 4.09c0 1.29-.19 2.38-.57 3.28s-.93 1.58-1.64 2.05-1.57.71-2.58.71Zm.53-5.63c.45 0 .84-.1 1.18-.29s.61-.46.8-.81.29-.74.29-1.19-.1-.86-.29-1.21-.46-.62-.8-.82-.74-.3-1.18-.3-.84.1-1.18.3-.6.47-.79.82-.29.75-.29 1.21.1.84.29 1.19.46.62.79.81c.34.19.73.29 1.18.29m10.62 8.94v-9.58c0-.31-.01-.63-.04-.95l-.09-.98h1.57l.16 1.82h-.18c.17-.61.51-1.09 1.03-1.44s1.13-.53 1.85-.53 1.34.17 1.87.5c.53.34.95.81 1.24 1.43s.44 1.37.44 2.24-.15 1.61-.44 2.24-.71 1.11-1.24 1.44-1.16.5-1.87.5-1.31-.17-1.83-.52-.86-.82-1.03-1.42h.18v5.25zm3.9-4.58c.7 0 1.27-.25 1.69-.74s.63-1.22.63-2.18-.21-1.68-.63-2.17-.98-.73-1.69-.73-1.27.24-1.69.73-.63 1.21-.63 2.17.21 1.69.63 2.18.98.74 1.69.74m5.45 1.12v-1.9h1.9v1.9z" class="cls-2"/><path d="M464.92 174.25h-1.36l4.19-12.91h1.36zm4.08-.91v-8.06h1.52v6.8h3.15v-6.8h1.52v6.8h3.14v-6.8h1.54v8.06h-10.86Zm15.02 0v-6.77h-2.85v-1.3h7.31v1.3h-2.86v6.77zm4.37 0v-1.9h1.9v1.9zm4.56 2.88h-1.31c.55-1.21.97-2.39 1.25-3.57.28-1.17.42-2.35.42-3.52s-.14-2.33-.42-3.5-.69-2.36-1.25-3.57h1.31c.48.79.87 1.56 1.17 2.32s.51 1.53.65 2.31c.13.79.2 1.6.2 2.44s-.07 1.67-.2 2.46c-.13.78-.35 1.55-.65 2.31s-.69 1.53-1.17 2.32m-63.18 27.95v-2.34h-5.22v-1.18l5.49-7.76h1.34v7.65h1.68v1.3h-1.68v2.34h-1.62Zm0-3.63v-5.68h.37l-4.29 6.08v-.4zm8.61 3.77a6.5 6.5 0 0 1-2.8-.62c-.41-.2-.78-.43-1.09-.71l.58-1.26c.51.4 1.04.69 1.58.89s1.11.3 1.7.3c.76 0 1.35-.2 1.78-.59s.65-.92.65-1.58-.21-1.23-.62-1.66c-.41-.42-.98-.63-1.7-.63-.5 0-.96.1-1.37.3q-.615.3-1.08.93h-1.15v-6.78h6.83v1.39h-5.25v4.06h-.42c.29-.41.67-.72 1.16-.94s1.03-.34 1.64-.34c.73 0 1.35.15 1.89.45s.95.71 1.24 1.25c.29.53.44 1.16.44 1.89s-.16 1.36-.49 1.91a3.4 3.4 0 0 1-1.39 1.29c-.6.31-1.31.46-2.14.46Zm9.44 0q-1.95 0-3-1.5c-1.05-1.5-1.05-2.43-1.05-4.3s.35-3.34 1.05-4.31c.7-.98 1.7-1.46 3-1.46s2.31.49 3.01 1.46c.69.98 1.04 2.41 1.04 4.3s-.35 3.31-1.05 4.31-1.7 1.5-3 1.5m0-1.39c.82 0 1.43-.36 1.83-1.07s.6-1.83.6-3.34-.2-2.64-.6-3.34q-.6-1.05-1.83-1.05c-1.23 0-1.42.35-1.82 1.05-.41.7-.61 1.8-.61 3.32s.21 2.65.62 3.36 1.02 1.07 1.82 1.07Zm9.6 1.39q-1.95 0-3-1.5c-1.05-1.5-1.05-2.43-1.05-4.3s.35-3.34 1.05-4.31c.7-.98 1.7-1.46 3-1.46s2.31.49 3.01 1.46c.69.98 1.04 2.41 1.04 4.3s-.35 3.31-1.05 4.31-1.7 1.5-3 1.5m0-1.39c.82 0 1.43-.36 1.83-1.07s.6-1.83.6-3.34-.2-2.64-.6-3.34q-.6-1.05-1.83-1.05c-1.23 0-1.42.35-1.82 1.05-.41.7-.61 1.8-.61 3.32s.21 2.65.62 3.36 1.02 1.07 1.82 1.07Zm10.35 4.7v-9.58c0-.31-.01-.63-.04-.95l-.09-.98h1.57l.16 1.82h-.18c.17-.61.51-1.09 1.03-1.44s1.13-.53 1.85-.53 1.34.17 1.87.5.95.81 1.24 1.43.44 1.37.44 2.24-.15 1.61-.44 2.24-.71 1.11-1.24 1.44-1.16.5-1.87.5-1.31-.17-1.83-.52-.86-.82-1.03-1.42h.18v5.25zm3.9-4.58c.7 0 1.27-.24 1.69-.74.42-.49.63-1.22.63-2.18s-.21-1.68-.63-2.17c-.42-.48-.98-.73-1.69-.73s-1.27.24-1.69.73-.63 1.21-.63 2.17.21 1.69.63 2.18.98.74 1.69.74m5.45 1.13v-1.9h1.9v1.9zm-61.48 17.88c-.47-.79-.85-1.56-1.15-2.33-.3-.76-.52-1.54-.66-2.32s-.21-1.6-.21-2.44.07-1.67.21-2.45.36-1.55.66-2.3c.3-.76.68-1.53 1.15-2.32h1.31c-.55 1.21-.97 2.39-1.24 3.56s-.41 2.34-.41 3.51.14 2.34.41 3.51.69 2.36 1.24 3.58zm7.66-2.88v-2.34h-5.22v-1.18l5.49-7.76h1.34v7.65h1.68v1.3h-1.68v2.34h-1.62Zm0-3.63v-5.68h.37l-4.29 6.08v-.4zm5.41 5.59-.7-.54c.31-.33.52-.63.63-.91s.17-.57.17-.86l.35.35h-1.26v-1.9h1.9v1.3c0 .48-.08.92-.24 1.34-.16.41-.44.82-.85 1.24Zm6.99-1.82a6.5 6.5 0 0 1-2.8-.62c-.41-.2-.78-.43-1.09-.71l.58-1.26c.51.4 1.04.69 1.58.89s1.11.3 1.7.3c.76 0 1.35-.2 1.78-.59s.65-.92.65-1.58-.21-1.23-.62-1.66c-.41-.42-.98-.63-1.7-.63-.5 0-.96.1-1.37.3q-.615.3-1.08.93h-1.15v-6.78h6.83v1.39h-5.25v4.06h-.42c.29-.41.67-.72 1.16-.94s1.03-.34 1.64-.34c.73 0 1.35.15 1.89.45s.95.71 1.24 1.25c.29.53.44 1.16.44 1.89s-.16 1.36-.49 1.91a3.4 3.4 0 0 1-1.39 1.29c-.6.31-1.31.46-2.14.46Zm10.19 3.31v-9.58c0-.31-.01-.63-.04-.95l-.09-.98h1.57l.16 1.82h-.18c.17-.61.51-1.09 1.03-1.44s1.13-.53 1.85-.53 1.34.17 1.87.5c.53.34.95.81 1.24 1.43s.44 1.37.44 2.24-.15 1.61-.44 2.24-.71 1.11-1.24 1.44-1.16.5-1.87.5-1.31-.17-1.83-.52-.86-.82-1.03-1.42h.18v5.25zm3.9-4.58c.7 0 1.27-.24 1.69-.74s.63-1.22.63-2.18-.21-1.68-.63-2.17c-.42-.48-.98-.73-1.69-.73s-1.27.24-1.69.73-.63 1.21-.63 2.17.21 1.69.63 2.18.98.74 1.69.74m5.45 1.13v-1.9h1.9v1.9zm4.88.91h-1.36l4.19-12.91h1.36zm4.08-.91v-8.06h1.52v6.8h3.15v-6.8h1.52v6.8h3.14v-6.8h1.54v8.06h-10.86Zm15.02 0v-6.77h-2.85v-1.3h7.31v1.3h-2.86v6.77zm4.37 0v-1.9h1.9v1.9zm4.56 2.88h-1.31c.55-1.21.97-2.39 1.25-3.57.28-1.17.42-2.35.42-3.52s-.14-2.33-.42-3.5-.69-2.36-1.25-3.57h1.31c.48.79.87 1.56 1.17 2.32s.51 1.53.65 2.31c.13.78.2 1.6.2 2.44s-.07 1.67-.2 2.46c-.13.78-.35 1.55-.65 2.31s-.69 1.53-1.17 2.32m-67.21 28.07v-1.39h2.62v-8.48h.83l-3.2 1.95v-1.6l2.83-1.76h1.2v9.89h2.46v1.39h-6.75Zm9.6 0v-1.39h2.62v-8.48h.83l-3.2 1.95v-1.6l2.83-1.76h1.2v9.89h2.46v1.39h-6.75Zm12.48.15q-1.95 0-3-1.5c-.7-1-1.05-2.43-1.05-4.3s.35-3.34 1.05-4.31c.7-.98 1.7-1.46 3-1.46s2.31.49 3.01 1.46c.69.98 1.04 2.41 1.04 4.29s-.35 3.32-1.05 4.31q-1.05 1.5-3 1.5Zm0-1.39c.82 0 1.43-.36 1.83-1.07s.6-1.83.6-3.34-.2-2.64-.6-3.34q-.6-1.05-1.83-1.05c-1.23 0-1.42.35-1.82 1.05-.41.7-.61 1.81-.61 3.32s.21 2.65.62 3.36 1.02 1.07 1.82 1.07Zm9.76 1.39a6.5 6.5 0 0 1-2.8-.62c-.42-.2-.78-.43-1.09-.71l.58-1.26c.51.39 1.04.69 1.58.89s1.11.3 1.7.3c.76 0 1.35-.2 1.78-.59s.65-.92.65-1.58-.21-1.23-.62-1.66c-.41-.42-.98-.63-1.7-.63-.5 0-.96.1-1.37.3q-.615.3-1.08.93h-1.15v-6.78h6.83v1.39h-5.25v4.06h-.42c.29-.4.67-.72 1.16-.94s1.03-.34 1.64-.34c.73 0 1.35.15 1.89.45.53.3.95.71 1.24 1.25.29.53.44 1.16.44 1.89s-.16 1.36-.49 1.91a3.4 3.4 0 0 1-1.39 1.29c-.6.31-1.31.46-2.14.46Zm9.44 0q-1.95 0-3-1.5c-.7-1-1.05-2.43-1.05-4.3s.35-3.34 1.05-4.31c.7-.98 1.7-1.46 3-1.46s2.31.49 3.01 1.46c.69.98 1.04 2.41 1.04 4.29s-.35 3.32-1.05 4.31q-1.05 1.5-3 1.5Zm0-1.39c.82 0 1.43-.36 1.83-1.07s.6-1.83.6-3.34-.2-2.64-.6-3.34q-.6-1.05-1.83-1.05c-1.23 0-1.42.35-1.82 1.05-.41.7-.61 1.81-.61 3.32s.21 2.65.62 3.36 1.02 1.07 1.82 1.07Zm10.35 4.7V244c0-.31-.01-.63-.04-.95l-.09-.98h1.57l.16 1.82h-.18c.17-.61.51-1.09 1.03-1.44s1.13-.53 1.85-.53 1.34.17 1.87.5.95.81 1.24 1.43.44 1.37.44 2.24-.15 1.61-.44 2.24-.71 1.11-1.24 1.44-1.16.5-1.87.5-1.31-.17-1.83-.52-.86-.82-1.03-1.42h.18v5.25zm3.9-4.58c.7 0 1.27-.25 1.69-.74s.63-1.22.63-2.18-.21-1.68-.63-2.17-.98-.73-1.69-.73-1.27.24-1.69.73-.63 1.21-.63 2.17.21 1.69.63 2.18.98.74 1.69.74m5.45 1.12v-1.9h1.9v1.9zM406.04 268c-.47-.79-.85-1.57-1.15-2.33s-.52-1.54-.66-2.32-.21-1.6-.21-2.44.07-1.67.21-2.45.36-1.55.66-2.3c.3-.76.68-1.53 1.15-2.32h1.31c-.55 1.21-.97 2.39-1.24 3.56s-.41 2.34-.41 3.51.14 2.34.41 3.51.69 2.36 1.24 3.58zm3.63-2.88v-1.39h2.62v-8.48h.83l-3.2 1.95v-1.6l2.83-1.76h1.2v9.89h2.46v1.39h-6.75Zm9.6 0v-1.39h2.62v-8.48h.83l-3.2 1.95v-1.6l2.83-1.76h1.2v9.89h2.46v1.39h-6.75Zm9.44 1.97-.7-.54c.31-.33.52-.63.63-.91s.17-.57.17-.86l.35.35h-1.26v-1.9h1.9v1.3c0 .48-.08.93-.24 1.34s-.44.82-.85 1.24Zm6.83-1.82q-1.95 0-3-1.5c-.7-1-1.05-2.43-1.05-4.3s.35-3.34 1.05-4.31c.7-.98 1.7-1.46 3-1.46s2.31.49 3.01 1.46c.69.98 1.04 2.41 1.04 4.29s-.35 3.32-1.05 4.31q-1.05 1.5-3 1.5Zm0-1.39c.82 0 1.43-.36 1.83-1.07s.6-1.83.6-3.34-.2-2.64-.6-3.34q-.6-1.05-1.83-1.05c-1.23 0-1.42.35-1.82 1.05-.41.7-.61 1.81-.61 3.32s.21 2.65.62 3.36 1.02 1.07 1.82 1.07Zm9.76 1.39a6.5 6.5 0 0 1-2.8-.62c-.42-.2-.78-.43-1.09-.71l.58-1.26c.51.39 1.04.69 1.58.89s1.11.3 1.7.3c.76 0 1.35-.2 1.78-.59s.65-.92.65-1.58-.21-1.23-.62-1.66c-.41-.42-.98-.63-1.7-.63-.5 0-.96.1-1.37.3q-.615.3-1.08.93h-1.15v-6.78h6.83v1.39h-5.25v4.06h-.42c.29-.4.67-.72 1.16-.94s1.03-.34 1.64-.34c.73 0 1.35.15 1.89.45.53.3.95.71 1.24 1.25.29.53.44 1.16.44 1.89s-.16 1.36-.49 1.91a3.4 3.4 0 0 1-1.39 1.29c-.6.31-1.31.46-2.14.46Zm10.19 3.31V259c0-.31-.01-.63-.04-.95l-.09-.98h1.57l.16 1.82h-.18c.17-.61.51-1.09 1.03-1.44s1.13-.53 1.85-.53 1.34.17 1.87.5c.53.34.95.81 1.24 1.43s.44 1.37.44 2.24-.15 1.61-.44 2.24-.71 1.11-1.24 1.44-1.16.5-1.87.5-1.31-.17-1.83-.52-.86-.82-1.03-1.42h.18v5.25zm3.9-4.58c.7 0 1.27-.25 1.69-.74s.63-1.22.63-2.18-.21-1.68-.63-2.17-.98-.73-1.69-.73-1.27.24-1.69.73-.63 1.21-.63 2.17.21 1.69.63 2.18.98.74 1.69.74m5.45 1.12v-1.9h1.9v1.9z" class="cls-2"/><path d="M469.72 266.03h-1.36l4.19-12.91h1.36zm4.08-.91v-8.06h1.52v6.8h3.15v-6.8h1.52v6.8h3.14v-6.8h1.54v8.06h-10.86Zm15.02 0v-6.77h-2.85v-1.3h7.31v1.3h-2.86v6.77zm4.37 0v-1.9h1.9v1.9zm4.56 2.88h-1.31c.55-1.21.97-2.39 1.25-3.57.28-1.17.42-2.35.42-3.52s-.14-2.33-.42-3.5-.69-2.36-1.25-3.57h1.31c.48.79.87 1.56 1.17 2.32s.51 1.53.65 2.31c.13.78.2 1.6.2 2.44s-.07 1.67-.2 2.46-.35 1.55-.65 2.31-.69 1.53-1.17 2.32" class="cls-2"/><text class="cls-3" transform="translate(448.43 306.08)"><tspan x="0" y="0">-</tspan></text><text class="cls-3" transform="translate(448.43 351.25)"><tspan x="0" y="0">-</tspan></text><text class="cls-1" transform="translate(621.47 76.05)"><tspan x="0" y="0">3000 ш</tspan><tspan x="56.35" y="0" class="cls-6">т</tspan><tspan x="62.98" y="0" class="cls-9">.</tspan></text><path d="M623.99 112.6v-1.39h2.62v-8.48h.83l-3.2 1.95v-1.6l2.83-1.76h1.2v9.89h2.46v1.39h-6.75Zm12.86.14c-1.4 0-2.47-.49-3.22-1.46s-1.13-2.33-1.13-4.08c0-1.3.19-2.4.58-3.29.38-.89.93-1.57 1.64-2.04s1.57-.7 2.57-.7c.6 0 1.19.12 1.79.34.6.23 1.1.55 1.5.97l-.59 1.25c-.39-.38-.83-.67-1.3-.86s-.94-.29-1.42-.29q-1.545 0-2.37 1.08c-.54.72-.82 1.79-.82 3.22v1.36h-.16c.07-.58.26-1.07.54-1.5.29-.42.66-.74 1.12-.97s.97-.34 1.54-.34c.67 0 1.27.16 1.78.46.52.31.92.73 1.22 1.27s.45 1.16.45 1.85-.16 1.35-.48 1.92-.76 1-1.32 1.32-1.2.47-1.93.47Zm-.1-1.34c.45 0 .84-.1 1.18-.29s.6-.46.79-.81.29-.75.29-1.21-.1-.86-.29-1.2-.46-.61-.79-.81-.73-.3-1.18-.3-.84.1-1.18.3-.61.47-.8.81-.29.74-.29 1.2.1.86.29 1.21.46.62.8.81.74.29 1.18.29m9.7 1.34c-1.4 0-2.47-.49-3.22-1.46s-1.13-2.33-1.13-4.08c0-1.3.19-2.4.58-3.29.38-.89.93-1.57 1.64-2.04s1.57-.7 2.57-.7c.6 0 1.19.12 1.79.34.6.23 1.1.55 1.5.97l-.59 1.25c-.39-.38-.83-.67-1.3-.86s-.94-.29-1.42-.29q-1.545 0-2.37 1.08c-.54.72-.82 1.79-.82 3.22v1.36h-.16c.07-.58.26-1.07.54-1.5.29-.42.66-.74 1.12-.97s.97-.34 1.54-.34c.67 0 1.27.16 1.78.46.52.31.92.73 1.22 1.27s.45 1.16.45 1.85-.16 1.35-.48 1.92-.76 1-1.32 1.32-1.2.47-1.93.47Zm-.1-1.34c.45 0 .84-.1 1.18-.29s.6-.46.79-.81.29-.75.29-1.21-.1-.86-.29-1.2-.46-.61-.79-.81-.73-.3-1.18-.3-.84.1-1.18.3-.61.47-.8.81-.29.74-.29 1.2.1.86.29 1.21.46.62.8.81.74.29 1.18.29m6.12 1.2 5.54-10.51v.64h-6.18v-1.41h7.68v1.23l-5.22 10.05zm12.8.14q-1.95 0-3-1.5c-.7-1-1.05-2.43-1.05-4.3s.35-3.34 1.05-4.31c.7-.98 1.7-1.46 3-1.46s2.31.49 3.01 1.46c.69.98 1.04 2.41 1.04 4.29s-.35 3.32-1.05 4.31q-1.05 1.5-3 1.5Zm0-1.39c.82 0 1.43-.36 1.83-1.07s.6-1.83.6-3.34-.2-2.64-.6-3.34q-.6-1.05-1.83-1.05c-1.23 0-1.42.35-1.82 1.05-.41.7-.61 1.81-.61 3.32s.21 2.65.62 3.36 1.02 1.07 1.82 1.07Zm10.35 4.71v-9.58c0-.31-.01-.63-.04-.95l-.09-.98h1.57l.16 1.82h-.18c.17-.61.51-1.09 1.03-1.44s1.13-.53 1.85-.53 1.34.17 1.87.5.95.81 1.24 1.43.44 1.37.44 2.24-.15 1.61-.44 2.24-.71 1.11-1.24 1.44-1.16.5-1.87.5-1.31-.17-1.83-.52-.86-.82-1.03-1.42h.18v5.25zm3.9-4.58c.7 0 1.27-.25 1.69-.74s.63-1.22.63-2.18-.21-1.68-.63-2.17-.98-.73-1.69-.73-1.27.24-1.69.73-.63 1.21-.63 2.17.21 1.69.63 2.18.98.74 1.69.74m5.44 1.12v-1.9h1.9v1.9zm-71.08 17.88c-.47-.79-.85-1.57-1.15-2.33s-.52-1.54-.66-2.32-.21-1.6-.21-2.44.07-1.67.21-2.45.36-1.55.66-2.3c.3-.76.68-1.53 1.15-2.32h1.31c-.55 1.21-.97 2.39-1.24 3.56s-.41 2.34-.41 3.51.14 2.34.41 3.51.69 2.36 1.24 3.58zm6.67-2.74a6.5 6.5 0 0 1-2.8-.62c-.42-.2-.78-.43-1.09-.71l.58-1.26c.51.39 1.04.69 1.58.89s1.11.3 1.7.3c.76 0 1.35-.2 1.78-.59s.65-.92.65-1.58-.21-1.23-.62-1.66c-.41-.42-.98-.63-1.7-.63-.5 0-.96.1-1.37.3q-.615.3-1.08.93h-1.15v-6.78h6.83v1.39h-5.25v4.06h-.42c.29-.4.67-.72 1.16-.94s1.03-.34 1.64-.34c.73 0 1.35.15 1.89.45.53.3.95.71 1.24 1.25.29.53.44 1.16.44 1.89s-.16 1.36-.49 1.91a3.4 3.4 0 0 1-1.39 1.29c-.6.31-1.31.46-2.14.46Zm6.4 1.83-.7-.54c.31-.33.52-.63.63-.91s.17-.57.17-.86l.35.35h-1.26v-1.9h1.9v1.3c0 .48-.08.93-.24 1.34s-.44.82-.85 1.24Zm7-1.83a6.5 6.5 0 0 1-2.8-.62c-.42-.2-.78-.43-1.09-.71l.58-1.26c.51.39 1.04.69 1.58.89s1.11.3 1.7.3c.76 0 1.35-.2 1.78-.59s.65-.92.65-1.58-.21-1.23-.62-1.66c-.41-.42-.98-.63-1.7-.63-.5 0-.96.1-1.37.3q-.615.3-1.08.93h-1.15v-6.78h6.83v1.39h-5.25v4.06h-.42c.29-.4.67-.72 1.16-.94s1.03-.34 1.64-.34c.73 0 1.35.15 1.89.45.53.3.95.71 1.24 1.25.29.53.44 1.16.44 1.89s-.16 1.36-.49 1.91a3.4 3.4 0 0 1-1.39 1.29c-.6.31-1.31.46-2.14.46Zm8.64 0c-.6 0-1.19-.12-1.79-.36s-1.1-.56-1.5-.95l.59-1.26c.39.38.83.67 1.3.87s.94.3 1.42.3c1.02 0 1.81-.36 2.36-1.08s.82-1.79.82-3.22v-1.36h.16a3.2 3.2 0 0 1-.54 1.49c-.3.43-.67.75-1.13.98-.45.22-.96.34-1.53.34-.66 0-1.26-.16-1.78-.46-.53-.31-.94-.74-1.23-1.28s-.44-1.16-.44-1.84c0-.73.16-1.37.48-1.93s.76-1 1.31-1.31 1.19-.47 1.92-.47c1.41 0 2.49.48 3.24 1.45s1.13 2.33 1.13 4.09c0 1.29-.19 2.38-.57 3.28s-.93 1.58-1.64 2.05-1.57.7-2.58.7Zm.53-5.63c.45 0 .84-.1 1.18-.29s.61-.46.8-.81.29-.74.29-1.19-.1-.86-.29-1.21-.46-.62-.8-.82-.74-.3-1.18-.3-.84.1-1.18.3-.6.47-.79.82-.29.75-.29 1.21.1.85.29 1.19c.19.35.46.62.79.81s.73.29 1.18.29m10.62 8.95v-9.58c0-.31-.01-.63-.04-.95l-.09-.98h1.57l.16 1.82h-.18c.17-.61.51-1.09 1.03-1.44s1.13-.53 1.85-.53 1.34.17 1.87.5c.53.34.95.81 1.24 1.43s.44 1.37.44 2.24-.15 1.61-.44 2.24-.71 1.11-1.24 1.44-1.16.5-1.87.5-1.31-.17-1.83-.52-.86-.82-1.03-1.42h.18v5.25zm3.9-4.58c.7 0 1.27-.25 1.69-.74s.63-1.22.63-2.18-.21-1.68-.63-2.17-.98-.73-1.69-.73-1.27.24-1.69.73-.63 1.21-.63 2.17.21 1.69.63 2.18.98.74 1.69.74m5.44 1.12v-1.9h1.9v1.9zm4.88.91h-1.36l4.19-12.91h1.36zm4.08-.91v-8.06h1.52v6.8h3.15v-6.8h1.52v6.8h3.14v-6.8h1.54v8.06h-10.86Zm15.03 0v-6.77h-2.85v-1.3h7.31v1.3h-2.86v6.77zm4.36 0v-1.9h1.9v1.9zm4.56 2.88h-1.31c.55-1.21.97-2.39 1.25-3.57.28-1.17.42-2.35.42-3.52s-.14-2.33-.42-3.5-.69-2.36-1.25-3.57h1.31c.48.79.87 1.56 1.17 2.32s.51 1.53.65 2.31c.13.78.2 1.6.2 2.44s-.07 1.67-.2 2.46-.35 1.55-.65 2.31-.69 1.53-1.17 2.32m-64.32 28.01c-1.3 0-2.31-.28-3.04-.83s-1.09-1.33-1.09-2.32c0-.79.24-1.44.72-1.96s1.11-.83 1.89-.94v.29c-.7-.15-1.27-.47-1.69-.98s-.63-1.11-.63-1.82c0-.94.34-1.67 1.02-2.21.68-.53 1.62-.8 2.82-.8s2.15.27 2.83.8 1.02 1.27 1.02 2.21c0 .71-.2 1.33-.6 1.83-.4.51-.95.82-1.64.95v-.27c.77.11 1.38.42 1.84.94s.69 1.17.69 1.96c0 .99-.36 1.77-1.09 2.32s-1.74.83-3.06.83Zm0-1.31c.86 0 1.51-.16 1.94-.49s.64-.81.64-1.46-.21-1.14-.64-1.46-1.07-.48-1.94-.48-1.51.16-1.94.48-.64.81-.64 1.46.22 1.14.65 1.46c.43.33 1.07.49 1.93.49m0-5.2c.75 0 1.31-.17 1.7-.5.39-.34.58-.8.58-1.38s-.19-1.03-.58-1.36-.96-.5-1.7-.5-1.3.17-1.7.5c-.39.33-.59.78-.59 1.36s.2 1.05.59 1.38.96.5 1.7.5m8.8 6.51c-.6 0-1.19-.12-1.79-.36s-1.1-.56-1.5-.95l.59-1.26c.39.38.83.67 1.3.87s.94.3 1.42.3c1.02 0 1.81-.36 2.36-1.08s.82-1.79.82-3.22v-1.36h.16a3.2 3.2 0 0 1-.54 1.49c-.3.43-.67.75-1.13.98-.45.22-.96.34-1.53.34-.66 0-1.26-.16-1.78-.46-.53-.31-.94-.74-1.23-1.28s-.44-1.16-.44-1.84c0-.73.16-1.37.48-1.93s.76-1 1.31-1.31 1.19-.47 1.92-.47c1.41 0 2.49.48 3.24 1.45s1.13 2.33 1.13 4.09c0 1.29-.19 2.38-.57 3.28s-.93 1.58-1.64 2.05-1.57.71-2.58.71Zm.53-5.63c.45 0 .84-.1 1.18-.29s.61-.46.8-.81.29-.74.29-1.19-.1-.86-.29-1.21-.46-.62-.8-.82-.74-.3-1.18-.3-.84.1-1.18.3-.6.47-.79.82-.29.75-.29 1.21.1.84.29 1.19.46.62.79.81c.34.19.73.29 1.18.29m6.67 5.48 5.54-10.51v.64h-6.18v-1.41h7.68v1.23l-5.22 10.05zm12.8.15q-1.95 0-3-1.5c-.7-1-1.05-2.43-1.05-4.3s.35-3.34 1.05-4.31 1.7-1.46 3-1.46 2.31.49 3.01 1.46c.69.98 1.04 2.41 1.04 4.3s-.35 3.31-1.05 4.31q-1.05 1.5-3 1.5m0-1.39c.82 0 1.43-.36 1.83-1.07s.6-1.83.6-3.34-.2-2.64-.6-3.34q-.6-1.05-1.83-1.05c-1.23 0-1.42.35-1.82 1.05-.41.7-.61 1.81-.61 3.32s.21 2.64.62 3.36 1.02 1.07 1.82 1.07Zm10.35 4.7v-9.58c0-.31-.01-.63-.04-.95l-.09-.98h1.57l.16 1.82h-.18c.17-.61.51-1.09 1.03-1.44s1.13-.53 1.85-.53 1.34.17 1.87.5.95.81 1.24 1.43.44 1.37.44 2.24-.15 1.61-.44 2.24-.71 1.11-1.24 1.44-1.16.5-1.87.5-1.31-.17-1.83-.52-.86-.82-1.03-1.42h.18v5.25zm3.9-4.58c.7 0 1.27-.25 1.69-.74s.63-1.22.63-2.18-.21-1.68-.63-2.17-.98-.73-1.69-.73-1.27.24-1.69.73-.63 1.21-.63 2.17.21 1.69.63 2.18.98.74 1.69.74m5.44 1.12v-1.9h1.9v1.9zm-66.28 17.88c-.47-.79-.85-1.57-1.15-2.33s-.52-1.54-.66-2.32-.21-1.6-.21-2.44.07-1.67.21-2.45.36-1.55.66-2.3c.3-.76.68-1.53 1.15-2.32h1.31c-.55 1.21-.97 2.39-1.24 3.56s-.41 2.34-.41 3.51.14 2.34.41 3.51.69 2.36 1.24 3.58zm3.04-2.88v-1.23l3.87-4.05c.5-.52.87-1.01 1.12-1.47s.37-.93.37-1.42q0-.915-.57-1.38c-.38-.31-.93-.46-1.64-.46q-.855 0-1.59.3c-.5.2-.97.51-1.43.93l-.58-1.26c.45-.42 1.01-.75 1.67-1s1.37-.38 2.12-.38c1.17 0 2.08.27 2.71.8s.95 1.3.95 2.29c0 .7-.17 1.38-.51 2.02-.34.65-.85 1.31-1.54 1.99l-3.34 3.38v-.45h5.86v1.39zm10.03 1.97-.7-.54c.31-.33.52-.63.63-.91s.17-.56.17-.86l.35.35h-1.26v-1.9h1.9v1.3c0 .48-.08.92-.24 1.34-.16.41-.44.82-.85 1.24Zm6.04-1.82c-.6 0-1.19-.12-1.79-.36s-1.1-.56-1.5-.95l.59-1.26c.39.38.83.67 1.3.87s.94.3 1.42.3c1.02 0 1.81-.36 2.36-1.08s.82-1.79.82-3.22v-1.36h.16a3.2 3.2 0 0 1-.54 1.49c-.3.43-.67.75-1.13.98-.45.22-.96.34-1.53.34-.66 0-1.26-.16-1.78-.46-.53-.31-.94-.74-1.23-1.28s-.44-1.16-.44-1.84c0-.73.16-1.37.48-1.93s.76-1 1.31-1.31 1.19-.47 1.92-.47c1.41 0 2.49.48 3.24 1.45s1.13 2.33 1.13 4.09c0 1.29-.19 2.38-.57 3.28s-.93 1.58-1.64 2.05-1.57.71-2.58.71Zm.53-5.63c.45 0 .84-.1 1.18-.29s.61-.46.8-.81.29-.74.29-1.19-.1-.86-.29-1.21-.46-.62-.8-.82-.74-.3-1.18-.3-.84.1-1.18.3-.6.47-.79.82-.29.75-.29 1.21.1.84.29 1.19.46.62.79.81c.34.19.73.29 1.18.29m9.07 5.63c-.6 0-1.19-.12-1.79-.36s-1.1-.56-1.5-.95l.59-1.26c.39.38.83.67 1.3.87s.94.3 1.42.3c1.02 0 1.81-.36 2.36-1.08s.82-1.79.82-3.22v-1.36h.16a3.2 3.2 0 0 1-.54 1.49c-.3.43-.67.75-1.13.98-.45.22-.96.34-1.53.34-.66 0-1.26-.16-1.78-.46-.53-.31-.94-.74-1.23-1.28s-.44-1.16-.44-1.84c0-.73.16-1.37.48-1.93s.76-1 1.31-1.31 1.19-.47 1.92-.47c1.41 0 2.49.48 3.24 1.45s1.13 2.33 1.13 4.09c0 1.29-.19 2.38-.57 3.28s-.93 1.58-1.64 2.05-1.57.71-2.58.71Zm.53-5.63c.45 0 .84-.1 1.18-.29s.61-.46.8-.81.29-.74.29-1.19-.1-.86-.29-1.21-.46-.62-.8-.82-.74-.3-1.18-.3-.84.1-1.18.3-.6.47-.79.82-.29.75-.29 1.21.1.84.29 1.19.46.62.79.81c.34.19.73.29 1.18.29m10.62 8.94v-9.58c0-.31-.01-.63-.04-.95l-.09-.98h1.57l.16 1.82h-.18c.17-.61.51-1.09 1.03-1.44s1.13-.53 1.85-.53 1.34.17 1.87.5c.53.34.95.81 1.24 1.43s.44 1.37.44 2.24-.15 1.61-.44 2.24-.71 1.11-1.24 1.44-1.16.5-1.87.5-1.31-.17-1.83-.52-.86-.82-1.03-1.42h.18v5.25zm3.9-4.58c.7 0 1.27-.25 1.69-.74s.63-1.22.63-2.18-.21-1.68-.63-2.17-.98-.73-1.69-.73-1.27.24-1.69.73-.63 1.21-.63 2.17.21 1.69.63 2.18.98.74 1.69.74m5.44 1.12v-1.9h1.9v1.9z" class="cls-2"/><path d="M667.96 174.25h-1.36l4.19-12.91h1.36zm4.08-.91v-8.06h1.52v6.8h3.15v-6.8h1.52v6.8h3.14v-6.8h1.54v8.06h-10.86Zm15.03 0v-6.77h-2.85v-1.3h7.31v1.3h-2.86v6.77zm4.36 0v-1.9h1.9v1.9zm4.56 2.88h-1.31c.55-1.21.97-2.39 1.25-3.57.28-1.17.42-2.35.42-3.52s-.14-2.33-.42-3.5-.69-2.36-1.25-3.57h1.31c.48.79.87 1.56 1.17 2.32s.51 1.53.65 2.31c.13.79.2 1.6.2 2.44s-.07 1.67-.2 2.46c-.13.78-.35 1.55-.65 2.31s-.69 1.53-1.17 2.32" class="cls-2"/><text class="cls-3" transform="translate(651.47 204.17)"><tspan x="0" y="0">-</tspan></text><text class="cls-3" transform="translate(651.47 250.12)"><tspan x="0" y="0">-</tspan></text><text class="cls-3" transform="translate(651.47 306.08)"><tspan x="0" y="0">-</tspan></text><text class="cls-3" transform="translate(651.47 351.25)"><tspan x="0" y="0">-</tspan></text><text class="cls-1" transform="translate(812.33 76.05)"><tspan x="0" y="0">5000 ш</tspan><tspan x="56.35" y="0" class="cls-6">т</tspan><tspan x="62.98" y="0" class="cls-9">.</tspan></text><path d="M814.26 112.6v-1.23l3.87-4.05c.5-.52.87-1.01 1.12-1.47s.37-.93.37-1.42q0-.915-.57-1.38c-.38-.31-.93-.46-1.64-.46q-.855 0-1.59.3c-.5.2-.97.51-1.43.93l-.58-1.26c.45-.42 1.01-.75 1.67-1a6 6 0 0 1 2.12-.38c1.17 0 2.08.27 2.71.8s.95 1.29.95 2.29c0 .71-.17 1.38-.51 2.02-.34.65-.85 1.31-1.54 1.99l-3.34 3.38v-.45h5.86v1.39zm9.87 0 5.54-10.51v.64h-6.18v-1.41h7.68v1.23l-5.22 10.05zm12 .14c-.6 0-1.19-.12-1.79-.36s-1.1-.56-1.5-.95l.59-1.26c.39.38.83.67 1.3.87s.94.3 1.42.3c1.02 0 1.81-.36 2.36-1.08s.82-1.79.82-3.22v-1.36h.16a3.2 3.2 0 0 1-.54 1.49c-.3.43-.67.75-1.13.98-.45.22-.96.34-1.53.34-.66 0-1.26-.16-1.78-.46-.53-.31-.94-.74-1.23-1.28s-.44-1.16-.44-1.84c0-.73.16-1.37.48-1.93s.76-1 1.31-1.31 1.19-.47 1.92-.47c1.41 0 2.49.48 3.24 1.45s1.13 2.33 1.13 4.09c0 1.29-.19 2.38-.57 3.28s-.93 1.58-1.64 2.05-1.57.7-2.58.7Zm.53-5.63c.45 0 .84-.1 1.18-.29s.61-.46.8-.81.29-.74.29-1.19-.1-.86-.29-1.21-.46-.62-.8-.82-.74-.3-1.18-.3-.84.1-1.18.3-.6.47-.79.82-.29.75-.29 1.21.1.85.29 1.19c.19.35.46.62.79.81s.73.29 1.18.29m10.03 5.63a6.5 6.5 0 0 1-2.8-.62c-.42-.2-.78-.43-1.09-.71l.58-1.26c.51.39 1.04.69 1.58.89s1.11.3 1.7.3c.76 0 1.35-.2 1.78-.59s.65-.92.65-1.58-.21-1.23-.62-1.66c-.41-.42-.98-.63-1.7-.63-.5 0-.96.1-1.37.3q-.615.3-1.08.93h-1.15v-6.78H850v1.39h-5.25v4.06h-.42c.29-.4.67-.72 1.16-.94s1.03-.34 1.64-.34c.73 0 1.35.15 1.89.45.53.3.95.71 1.24 1.25.29.53.44 1.16.44 1.89s-.16 1.36-.49 1.91a3.4 3.4 0 0 1-1.39 1.29c-.6.31-1.31.46-2.14.46Zm9.44 0q-1.95 0-3-1.5c-.7-1-1.05-2.43-1.05-4.3s.35-3.34 1.05-4.31c.7-.98 1.7-1.46 3-1.46s2.31.49 3.01 1.46c.69.98 1.04 2.41 1.04 4.29s-.35 3.32-1.05 4.31q-1.05 1.5-3 1.5Zm0-1.39c.82 0 1.43-.36 1.83-1.07s.6-1.83.6-3.34-.2-2.64-.6-3.34q-.6-1.05-1.83-1.05c-1.23 0-1.42.35-1.82 1.05-.41.7-.61 1.81-.61 3.32s.21 2.65.62 3.36 1.02 1.07 1.82 1.07Zm10.36 4.71v-9.58c0-.31-.01-.63-.04-.95l-.09-.98h1.57l.16 1.82h-.18c.17-.61.51-1.09 1.03-1.44s1.13-.53 1.85-.53 1.34.17 1.87.5.95.81 1.24 1.43.44 1.37.44 2.24-.15 1.61-.44 2.24-.71 1.11-1.24 1.44-1.16.5-1.87.5-1.31-.17-1.83-.52-.86-.82-1.03-1.42h.18v5.25zm3.9-4.58c.7 0 1.27-.25 1.69-.74s.63-1.22.63-2.18-.21-1.68-.63-2.17-.98-.73-1.69-.73-1.27.24-1.69.73-.63 1.21-.63 2.17.21 1.69.63 2.18.98.74 1.69.74m5.44 1.12v-1.9h1.9v1.9zm-71.08 17.88c-.47-.79-.85-1.57-1.15-2.33s-.52-1.54-.66-2.32-.21-1.6-.21-2.44.07-1.67.21-2.45.36-1.55.66-2.3c.3-.76.68-1.53 1.15-2.32h1.31c-.55 1.21-.97 2.39-1.24 3.56s-.41 2.34-.41 3.51.14 2.34.41 3.51.69 2.36 1.24 3.58zm6.67-2.74a6.5 6.5 0 0 1-2.8-.62c-.42-.2-.78-.43-1.09-.71l.58-1.26c.51.39 1.04.69 1.58.89s1.11.3 1.7.3c.76 0 1.35-.2 1.78-.59s.65-.92.65-1.58-.21-1.23-.62-1.66c-.41-.42-.98-.63-1.7-.63-.5 0-.96.1-1.37.3q-.615.3-1.08.93h-1.15v-6.78h6.83v1.39h-5.25v4.06h-.42c.29-.4.67-.72 1.16-.94s1.03-.34 1.64-.34c.73 0 1.35.15 1.89.45.53.3.95.71 1.24 1.25.29.53.44 1.16.44 1.89s-.16 1.36-.49 1.91a3.4 3.4 0 0 1-1.39 1.29c-.6.31-1.31.46-2.14.46Zm6.4 1.83-.7-.54c.31-.33.52-.63.63-.91s.17-.57.17-.86l.35.35h-1.26v-1.9h1.9v1.3c0 .48-.08.93-.24 1.34s-.44.82-.85 1.24Zm6.99-1.83a6.5 6.5 0 0 1-2.8-.62c-.42-.2-.78-.43-1.09-.71l.58-1.26c.51.39 1.04.69 1.58.89s1.11.3 1.7.3c.76 0 1.35-.2 1.78-.59s.65-.92.65-1.58-.21-1.23-.62-1.66c-.41-.42-.98-.63-1.7-.63-.5 0-.96.1-1.37.3q-.615.3-1.08.93h-1.15v-6.78h6.83v1.39h-5.25v4.06h-.42c.29-.4.67-.72 1.16-.94s1.03-.34 1.64-.34c.73 0 1.35.15 1.89.45.53.3.95.71 1.24 1.25.29.53.44 1.16.44 1.89s-.16 1.36-.49 1.91a3.4 3.4 0 0 1-1.39 1.29c-.6.31-1.31.46-2.14.46Zm8.64 0c-.6 0-1.19-.12-1.79-.36s-1.1-.56-1.5-.95l.59-1.26c.39.38.83.67 1.3.87s.94.3 1.42.3c1.02 0 1.81-.36 2.36-1.08s.82-1.79.82-3.22v-1.36h.16a3.2 3.2 0 0 1-.54 1.49c-.3.43-.67.75-1.13.98-.45.22-.96.34-1.53.34-.66 0-1.26-.16-1.78-.46-.53-.31-.94-.74-1.23-1.28s-.44-1.16-.44-1.84c0-.73.16-1.37.48-1.93s.76-1 1.31-1.31 1.19-.47 1.92-.47c1.41 0 2.49.48 3.24 1.45s1.13 2.33 1.13 4.09c0 1.29-.19 2.38-.57 3.28s-.93 1.58-1.64 2.05-1.57.7-2.58.7Zm.53-5.63c.45 0 .84-.1 1.18-.29s.61-.46.8-.81.29-.74.29-1.19-.1-.86-.29-1.21-.46-.62-.8-.82-.74-.3-1.18-.3-.84.1-1.18.3-.6.47-.79.82-.29.75-.29 1.21.1.85.29 1.19c.19.35.46.62.79.81s.73.29 1.18.29m10.63 8.95v-9.58c0-.31-.01-.63-.04-.95l-.09-.98h1.57l.16 1.82h-.18c.17-.61.51-1.09 1.03-1.44s1.13-.53 1.85-.53 1.34.17 1.87.5c.53.34.95.81 1.24 1.43s.44 1.37.44 2.24-.15 1.61-.44 2.24-.71 1.11-1.24 1.44-1.16.5-1.87.5-1.31-.17-1.83-.52-.86-.82-1.03-1.42h.18v5.25zm3.9-4.58c.7 0 1.27-.25 1.69-.74s.63-1.22.63-2.18-.21-1.68-.63-2.17-.98-.73-1.69-.73-1.27.24-1.69.73-.63 1.21-.63 2.17.21 1.69.63 2.18.98.74 1.69.74m5.44 1.12v-1.9h1.9v1.9zm4.88.91h-1.36l4.19-12.91h1.36zm4.08-.91v-8.06h1.52v6.8h3.15v-6.8h1.52v6.8h3.14v-6.8h1.54v8.06h-10.86Zm15.02 0v-6.77h-2.85v-1.3h7.31v1.3h-2.86v6.77zm4.37 0v-1.9h1.9v1.9zm4.56 2.88h-1.31c.55-1.21.97-2.39 1.25-3.57.28-1.17.42-2.35.42-3.52s-.14-2.33-.42-3.5-.69-2.36-1.25-3.57h1.31c.48.79.87 1.56 1.17 2.32s.51 1.53.65 2.31c.13.78.2 1.6.2 2.44s-.07 1.67-.2 2.46-.35 1.55-.65 2.31-.69 1.53-1.17 2.32m-72.01 27.86v-1.39h2.62v-8.48h.83l-3.2 1.95v-1.6l2.83-1.76h1.2v9.89h2.46v1.39h-6.75Zm13.64 0V156h-5.22v-1.18l5.49-7.76h1.34v7.65h1.68v1.3h-1.68v2.34h-1.62Zm0-3.63v-5.68h.37l-4.29 6.08v-.4zm7.64 3.78c-.6 0-1.19-.12-1.79-.36s-1.1-.56-1.5-.95l.59-1.26c.39.38.83.67 1.3.87s.94.3 1.42.3c1.02 0 1.81-.36 2.36-1.08s.82-1.79.82-3.22v-1.36h.16a3.2 3.2 0 0 1-.54 1.49c-.3.43-.67.75-1.13.98-.45.22-.96.34-1.53.34-.66 0-1.26-.16-1.78-.46-.53-.31-.94-.74-1.23-1.28s-.44-1.16-.44-1.84c0-.73.16-1.37.48-1.93s.76-1 1.31-1.31 1.19-.47 1.92-.47c1.41 0 2.49.48 3.24 1.45s1.13 2.33 1.13 4.09c0 1.29-.19 2.38-.57 3.28s-.93 1.58-1.64 2.05-1.57.71-2.58.71Zm.53-5.63c.45 0 .84-.1 1.18-.29s.61-.46.8-.81.29-.74.29-1.19-.1-.86-.29-1.21-.46-.62-.8-.82-.74-.3-1.18-.3-.84.1-1.18.3-.6.47-.79.82-.29.75-.29 1.21.1.84.29 1.19.46.62.79.81c.34.19.73.29 1.18.29m10.03 5.63a6.5 6.5 0 0 1-2.8-.62c-.42-.2-.78-.43-1.09-.71l.58-1.26c.51.4 1.04.69 1.58.89s1.11.3 1.7.3c.76 0 1.35-.2 1.78-.59s.65-.92.65-1.58-.21-1.23-.62-1.66c-.41-.42-.98-.63-1.7-.63-.5 0-.96.1-1.37.3s-.77.51-1.08.93h-1.15v-6.78H850v1.39h-5.25v4.06h-.42c.29-.41.67-.72 1.16-.94a3.9 3.9 0 0 1 1.64-.34c.73 0 1.35.15 1.89.45s.95.71 1.24 1.25c.29.53.44 1.16.44 1.89s-.16 1.36-.49 1.91a3.4 3.4 0 0 1-1.39 1.29c-.6.31-1.31.46-2.14.46Zm9.44 0q-1.95 0-3-1.5c-.7-1-1.05-2.43-1.05-4.3s.35-3.34 1.05-4.31 1.7-1.46 3-1.46 2.31.49 3.01 1.46c.69.98 1.04 2.41 1.04 4.3s-.35 3.31-1.05 4.31q-1.05 1.5-3 1.5m0-1.39c.82 0 1.43-.36 1.83-1.07s.6-1.83.6-3.34-.2-2.64-.6-3.34q-.6-1.05-1.83-1.05c-1.23 0-1.42.35-1.82 1.05-.41.7-.61 1.81-.61 3.32s.21 2.64.62 3.36 1.02 1.07 1.82 1.07Zm10.36 4.7v-9.58c0-.31-.01-.63-.04-.95l-.09-.98h1.57l.16 1.82h-.18c.17-.61.51-1.09 1.03-1.44s1.13-.53 1.85-.53 1.34.17 1.87.5.95.81 1.24 1.43.44 1.37.44 2.24-.15 1.61-.44 2.24-.71 1.11-1.24 1.44-1.16.5-1.87.5-1.31-.17-1.83-.52-.86-.82-1.03-1.42h.18v5.25zm3.9-4.58c.7 0 1.27-.25 1.69-.74s.63-1.22.63-2.18-.21-1.68-.63-2.17-.98-.73-1.69-.73-1.27.24-1.69.73-.63 1.21-.63 2.17.21 1.69.63 2.18.98.74 1.69.74m5.44 1.12v-1.9h1.9v1.9zm-71.08 17.88c-.47-.79-.85-1.57-1.15-2.33s-.52-1.54-.66-2.32-.21-1.6-.21-2.44.07-1.67.21-2.45.36-1.55.66-2.3c.3-.76.68-1.53 1.15-2.32h1.31c-.55 1.21-.97 2.39-1.24 3.56s-.41 2.34-.41 3.51.14 2.34.41 3.51.69 2.36 1.24 3.58zm3.04-2.88v-1.23l3.87-4.05c.5-.52.87-1.01 1.12-1.47s.37-.93.37-1.42q0-.915-.57-1.38c-.38-.31-.93-.46-1.64-.46q-.855 0-1.59.3c-.5.2-.97.51-1.43.93l-.58-1.26c.45-.42 1.01-.75 1.67-1s1.37-.38 2.12-.38c1.17 0 2.08.27 2.71.8s.95 1.3.95 2.29c0 .7-.17 1.38-.51 2.02-.34.65-.85 1.31-1.54 1.99l-3.34 3.38v-.45h5.86v1.39zm10.03 1.97-.7-.54c.31-.33.52-.63.63-.91s.17-.56.17-.86l.35.35h-1.26v-1.9h1.9v1.3c0 .48-.08.92-.24 1.34-.16.41-.44.82-.85 1.24Zm6.03-1.82c-.6 0-1.19-.12-1.79-.36s-1.1-.56-1.5-.95l.59-1.26c.39.38.83.67 1.3.87s.94.3 1.42.3c1.02 0 1.81-.36 2.36-1.08s.82-1.79.82-3.22v-1.36h.16a3.2 3.2 0 0 1-.54 1.49c-.3.43-.67.75-1.13.98-.45.22-.96.34-1.53.34-.66 0-1.26-.16-1.78-.46-.53-.31-.94-.74-1.23-1.28s-.44-1.16-.44-1.84c0-.73.16-1.37.48-1.93s.76-1 1.31-1.31 1.19-.47 1.92-.47c1.41 0 2.49.48 3.24 1.45s1.13 2.33 1.13 4.09c0 1.29-.19 2.38-.57 3.28s-.93 1.58-1.64 2.05-1.57.71-2.58.71Zm.53-5.63c.45 0 .84-.1 1.18-.29s.61-.46.8-.81.29-.74.29-1.19-.1-.86-.29-1.21-.46-.62-.8-.82-.74-.3-1.18-.3-.84.1-1.18.3-.6.47-.79.82-.29.75-.29 1.21.1.84.29 1.19.46.62.79.81c.34.19.73.29 1.18.29m9.07 5.63c-.6 0-1.19-.12-1.79-.36s-1.1-.56-1.5-.95l.59-1.26c.39.38.83.67 1.3.87s.94.3 1.42.3c1.02 0 1.81-.36 2.36-1.08s.82-1.79.82-3.22v-1.36h.16a3.2 3.2 0 0 1-.54 1.49c-.3.43-.67.75-1.13.98-.45.22-.96.34-1.53.34-.66 0-1.26-.16-1.78-.46-.53-.31-.94-.74-1.23-1.28s-.44-1.16-.44-1.84c0-.73.16-1.37.48-1.93s.76-1 1.31-1.31 1.19-.47 1.92-.47c1.41 0 2.49.48 3.24 1.45s1.13 2.33 1.13 4.09c0 1.29-.19 2.38-.57 3.28s-.93 1.58-1.64 2.05-1.57.71-2.58.71Zm.53-5.63c.45 0 .84-.1 1.18-.29s.61-.46.8-.81.29-.74.29-1.19-.1-.86-.29-1.21-.46-.62-.8-.82-.74-.3-1.18-.3-.84.1-1.18.3-.6.47-.79.82-.29.75-.29 1.21.1.84.29 1.19.46.62.79.81c.34.19.73.29 1.18.29m10.63 8.94v-9.58c0-.31-.01-.63-.04-.95l-.09-.98h1.57l.16 1.82h-.18c.17-.61.51-1.09 1.03-1.44s1.13-.53 1.85-.53 1.34.17 1.87.5c.53.34.95.81 1.24 1.43s.44 1.37.44 2.24-.15 1.61-.44 2.24-.71 1.11-1.24 1.44-1.16.5-1.87.5-1.31-.17-1.83-.52-.86-.82-1.03-1.42h.18v5.25zm3.9-4.58c.7 0 1.27-.25 1.69-.74s.63-1.22.63-2.18-.21-1.68-.63-2.17-.98-.73-1.69-.73-1.27.24-1.69.73-.63 1.21-.63 2.17.21 1.69.63 2.18.98.74 1.69.74m5.44 1.12v-1.9h1.9v1.9zm4.88.91h-1.36l4.19-12.91h1.36zm4.08-.91v-8.06h1.52v6.8h3.15v-6.8h1.52v6.8h3.14v-6.8h1.54v8.06h-10.86Zm15.02 0v-6.77h-2.85v-1.3h7.31v1.3h-2.86v6.77zm4.37 0v-1.9h1.9v1.9zm4.56 2.88h-1.31c.55-1.21.97-2.39 1.25-3.57.28-1.17.42-2.35.42-3.52s-.14-2.33-.42-3.5-.69-2.36-1.25-3.57h1.31c.48.79.87 1.56 1.17 2.32s.51 1.53.65 2.31c.13.79.2 1.6.2 2.44s-.07 1.67-.2 2.46c-.13.78-.35 1.55-.65 2.31s-.69 1.53-1.17 2.32" class="cls-2"/><text class="cls-3" transform="translate(842.34 204.17)"><tspan x="0" y="0">-</tspan></text><text class="cls-3" transform="translate(842.34 250.12)"><tspan x="0" y="0">-</tspan></text><text class="cls-3" transform="translate(842.34 306.08)"><tspan x="0" y="0">-</tspan></text><text class="cls-3" transform="translate(842.34 351.25)"><tspan x="0" y="0">-</tspan></text><path d="M77.41 111.6v-11.28h8.05v1.6h-6.08v3.12h3.28c1.24 0 2.2.27 2.9.82s1.04 1.36 1.04 2.44-.35 1.88-1.04 2.45-1.66.85-2.9.85zm1.97-1.58h3.04c.76 0 1.31-.14 1.66-.42s.53-.71.53-1.29-.18-.99-.53-1.26-.91-.42-1.66-.42h-3.04zm8.84 5.21-.46-1.58c.5-.11.92-.23 1.26-.37s.62-.32.85-.54c.22-.22.41-.51.56-.86l.4-.94-.05.78-3.52-8.19h2.13l2.53 6.3h-.46l2.54-6.3h2.02l-3.68 8.53c-.25.58-.51 1.05-.8 1.43s-.6.68-.93.91-.69.41-1.09.54c-.39.13-.83.23-1.3.3Zm9.01-3.63v-8.08h1.98v3.17h1.22l2.37-3.17h2.14l-2.98 4.03-.43-.62c.3.03.56.11.79.24s.45.31.66.54.41.52.62.87l1.7 3.02h-2.13l-1.38-2.43c-.14-.25-.28-.44-.42-.58s-.29-.23-.46-.29c-.17-.05-.38-.08-.62-.08h-1.07v3.38h-1.98Zm8.91.22-.62-1.57c.35-.13.65-.3.89-.5.24-.21.43-.47.58-.8s.25-.73.31-1.22.1-1.06.1-1.74v-2.48h6.43v8.08h-1.98v-6.54h-2.62v1.01c0 1.16-.11 2.14-.32 2.92s-.54 1.41-.99 1.86c-.45.46-1.03.79-1.76.98Zm13.92-.06c-1.35 0-2.42-.37-3.18-1.12-.77-.75-1.15-1.77-1.15-3.07 0-.84.17-1.58.5-2.21q.495-.945 1.38-1.47c.59-.35 1.28-.53 2.07-.53s1.43.17 1.95.5.92.79 1.19 1.39.41 1.3.41 2.1v.53h-5.89v-1.06h4.46l-.27.22c0-.75-.16-1.32-.47-1.71s-.77-.59-1.37-.59c-.66 0-1.17.23-1.53.7s-.54 1.13-.54 1.97v.21c0 .87.22 1.53.65 1.96s1.04.65 1.83.65q.69 0 1.29-.18t1.14-.6l.59 1.34q-.57.465-1.38.72c-.53.17-1.1.26-1.7.26Zm6.77-.16v-6.51h-2.77v-1.57h7.54v1.57h-2.78v6.51h-1.98Zm9.25 0 5.1-11.28h1.73l5.17 11.28h-2.1l-1.38-3.17.83.56h-6.77l.86-.56-1.38 3.17h-2.08Zm5.95-9.07-2.26 5.34-.42-.5h5.38l-.34.5-2.3-5.34zm11.74 9.07v-2.21h-5.04v-1.44l5.36-7.63h1.66v7.5h1.62v1.57h-1.62v2.21zm0-3.78v-5.07h.38l-3.89 5.55v-.48h3.5Zm5.75 5.91-.82-.64c.34-.35.58-.68.71-.98s.2-.63.2-.97l.43.46h-1.5v-2.22h2.24v1.47c0 .54-.09 1.04-.28 1.5-.19.45-.52.92-.98 1.38m8.28-2.13v-1.71h2.59v-7.84h.99l-3.33 1.98v-1.95l2.93-1.76h1.47v9.57h2.43v1.71h-7.09Zm9.08.94h-1.65l4.21-12.98h1.65zm5.05-.94v-1.52l3.74-3.9c.47-.49.82-.94 1.04-1.36s.34-.84.34-1.28q0-.81-.51-1.23c-.34-.28-.84-.42-1.49-.42-.52 0-1.02.09-1.5.28q-.72.285-1.41.87l-.67-1.54c.46-.41 1.03-.73 1.7-.98.68-.25 1.39-.37 2.14-.37 1.22 0 2.15.27 2.8.82.65.54.98 1.32.98 2.34 0 .7-.17 1.37-.5 2.01-.33.63-.84 1.3-1.54 1.99l-3.12 3.12v-.54h5.6v1.71zm18.63 3.46v-5.02h.18c-.17.55-.46.98-.86 1.28s-.88.45-1.45.45-1.11-.17-1.56-.52-.81-.83-1.06-1.46c-.26-.63-.38-1.37-.38-2.22s.12-1.61.38-2.23.6-1.11 1.06-1.45c.45-.34.98-.51 1.58-.51.57 0 1.05.15 1.45.45s.69.72.86 1.26h-.18v-5.25h1.98v5.25h-.18c.17-.54.46-.96.86-1.26s.88-.45 1.45-.45c.6 0 1.12.17 1.58.51.45.34.8.82 1.06 1.45s.38 1.37.38 2.23-.12 1.59-.38 2.22c-.25.63-.6 1.12-1.06 1.46-.45.35-.98.52-1.58.52-.55 0-1.03-.15-1.43-.45s-.69-.73-.87-1.28h.18v5.02h-1.98Zm-1.55-4.8c.49 0 .88-.22 1.16-.67s.42-1.12.42-2.03-.14-1.57-.43-2.02-.67-.68-1.15-.68-.88.23-1.17.68-.43 1.13-.43 2.02.14 1.58.43 2.03.68.67 1.17.67m5.09 0c.49 0 .88-.22 1.17-.67s.43-1.12.43-2.03-.15-1.57-.44-2.02-.68-.68-1.16-.68-.88.23-1.16.68-.42 1.13-.42 2.02.14 1.58.42 2.03.67.67 1.16.67m8.65 1.5c-.7 0-1.32-.17-1.86-.5s-.95-.82-1.25-1.45-.45-1.38-.45-2.26.15-1.62.45-2.25c.3-.62.71-1.1 1.25-1.44s1.15-.5 1.86-.5 1.28.17 1.8.5.86.79 1.03 1.35h-.18l.18-1.7h1.92l-.09 1.01c-.03.34-.04.68-.04 1.01v6.06h-1.98l-.02-1.66h.19c-.17.55-.52 1-1.04 1.33s-1.11.5-1.78.5Zm.56-1.54c.63 0 1.14-.22 1.52-.66s.58-1.11.58-2.01-.19-1.56-.58-2c-.38-.44-.89-.66-1.52-.66s-1.14.22-1.52.66-.58 1.1-.58 2 .19 1.56.57 2.01q.57.66 1.53.66m6.19 1.6-.62-1.57c.35-.13.65-.3.89-.5.24-.21.43-.47.58-.8.14-.33.25-.73.31-1.22s.1-1.06.1-1.74v-2.48h6.43v8.08h-1.98v-6.54h-2.62v1.01c0 1.16-.11 2.14-.32 2.92s-.54 1.41-.99 1.86c-.45.46-1.04.79-1.76.98Zm9.95-.22v-8.08h1.98v2.71h2.13c1.08 0 1.89.23 2.43.68s.82 1.11.82 1.96c0 .55-.13 1.04-.38 1.45-.26.41-.63.73-1.11.95-.49.22-1.07.34-1.75.34h-4.11Zm1.98-1.31h1.86c.54 0 .96-.11 1.25-.34s.43-.58.43-1.05-.14-.81-.42-1.03q-.42-.33-1.26-.33h-1.86zm14.05 3.39v-2.08h-7.01v-8.08h1.98v6.54h3.42v-6.54h1.97v6.54h1.31v3.62h-1.68Zm6.34-1.92c-.7 0-1.32-.17-1.86-.5s-.95-.82-1.25-1.45-.45-1.38-.45-2.26.15-1.62.45-2.25c.3-.62.71-1.1 1.25-1.44s1.15-.5 1.86-.5 1.28.17 1.8.5.86.79 1.03 1.35h-.18l.18-1.7h1.92l-.09 1.01c-.03.34-.04.68-.04 1.01v6.06h-1.98l-.02-1.66h.19c-.17.55-.52 1-1.04 1.33s-1.11.5-1.78.5Zm.56-1.54c.63 0 1.14-.22 1.52-.66s.58-1.11.58-2.01-.19-1.56-.58-2c-.38-.44-.89-.66-1.52-.66s-1.14.22-1.52.66-.58 1.1-.58 2 .19 1.56.57 2.01q.57.66 1.53.66m7.1 3.51-.82-.64c.34-.35.58-.68.71-.98s.2-.63.2-.97l.43.46h-1.5v-2.22h2.24v1.47c0 .54-.09 1.04-.28 1.5s-.51.92-.98 1.38M128.74 127.6v-2.21h-5.04v-1.44l5.36-7.63h1.66v7.5h1.62v1.57h-1.62v2.21zm0-3.78v-5.07h.38l-3.89 5.55v-.48h3.5Zm7.99 3.16v-3.26h-3.22v-1.41h3.22v-3.18h1.46v3.18h3.2v1.41h-3.2v3.26zm11.21.62v-2.21h-5.04v-1.44l5.36-7.63h1.66v7.5h1.62v1.57h-1.62v2.21zm0-3.78v-5.07h.38l-3.89 5.55v-.48h3.5Zm5.75 5.91-.82-.64c.34-.35.58-.68.71-.98s.2-.63.2-.97l.43.46h-1.5v-2.22h2.24v1.47c0 .54-.09 1.04-.28 1.5-.19.45-.52.92-.98 1.38m8.28-2.13v-1.71h2.59v-7.84h.99l-3.33 1.98v-1.95l2.93-1.76h1.47v9.57h2.43v1.71h-7.09Zm12.63.16c-1.32 0-2.34-.5-3.06-1.51-.71-1.01-1.07-2.45-1.07-4.31s.36-3.32 1.07-4.3q1.065-1.47 3.06-1.47c1.995 0 2.35.49 3.06 1.47s1.06 2.41 1.06 4.29-.35 3.32-1.06 4.33-1.73 1.51-3.06 1.51Zm0-1.7c.73 0 1.26-.33 1.62-1 .35-.67.53-1.71.53-3.14s-.18-2.47-.53-3.11c-.35-.65-.89-.97-1.62-.97s-1.25.32-1.61.97c-.36.64-.54 1.68-.54 3.11s.18 2.48.54 3.14c.36.67.89 1 1.61 1m9.68 1.7c-.49 0-.98-.05-1.46-.16a7 7 0 0 1-1.36-.45q-.63-.285-1.08-.69l.67-1.55c.5.37 1.02.65 1.54.84.53.19 1.08.28 1.66.28.69 0 1.23-.17 1.62-.52s.58-.81.58-1.4-.19-1.08-.56-1.45-.89-.55-1.54-.55c-.46 0-.88.09-1.26.26q-.57.27-1.02.81h-1.36v-6.86h7.01v1.7h-5.06v3.58h-.5c.28-.37.65-.66 1.11-.86q.69-.3 1.56-.3c.73 0 1.35.15 1.89.45.53.3.95.72 1.25 1.26s.45 1.17.45 1.9-.17 1.38-.5 1.94c-.34.56-.82 1-1.44 1.31s-1.36.47-2.22.47Zm10.24-.16v-8.08h6.06v1.57h-4.06v6.51zm7.53 3.46v-9.52c0-.33-.01-.67-.03-1.01s-.05-.68-.1-1.01h1.94l.18 1.7h-.18q.24-.855 1.02-1.35c.52-.34 1.12-.5 1.8-.5s1.34.17 1.87.5c.53.34.95.82 1.25 1.44q.45.93.45 2.25c0 1.32-.15 1.63-.45 2.26s-.71 1.11-1.25 1.45c-.53.34-1.16.5-1.87.5-.67 0-1.26-.17-1.78-.5-.51-.33-.85-.77-1.02-1.33h.18v5.12h-2Zm4.06-4.83c.64 0 1.15-.22 1.54-.66.38-.44.58-1.11.58-2.01s-.19-1.56-.58-2-.9-.66-1.54-.66-1.14.22-1.52.66-.58 1.1-.58 2 .19 1.56.58 2.01c.38.44.89.66 1.52.66m5.51 1.37v-2.22h2.24v2.22zM89.81 158.34v-11.28h8.05v1.6h-6.08v3.12h3.28c1.24 0 2.2.28 2.9.82s1.04 1.36 1.04 2.44-.35 1.88-1.04 2.45-1.66.85-2.9.85zm1.97-1.58h3.04c.76 0 1.31-.14 1.66-.42s.53-.71.53-1.29-.18-.99-.53-1.26-.91-.42-1.66-.42h-3.04zm8.84 5.21-.46-1.58c.5-.11.92-.23 1.26-.37s.62-.32.85-.54.41-.51.56-.86l.4-.94-.05.78-3.52-8.19h2.13l2.53 6.3h-.46l2.54-6.3h2.02l-3.68 8.53c-.25.58-.51 1.05-.8 1.43s-.6.68-.93.91-.69.41-1.09.54c-.39.13-.83.23-1.3.3Zm9.01-3.63v-8.08h1.98v3.17h1.22l2.37-3.17h2.14l-2.98 4.03-.43-.62c.3.03.56.11.79.24s.45.31.66.54.41.52.62.87l1.7 3.02h-2.13l-1.38-2.43c-.14-.25-.28-.44-.42-.58s-.29-.24-.46-.29-.38-.08-.62-.08h-1.07v3.38h-1.98Zm8.91.22-.62-1.57c.35-.13.65-.3.89-.5.24-.21.43-.47.58-.8.14-.33.25-.73.31-1.22s.1-1.06.1-1.74v-2.48h6.43v8.08h-1.98v-6.54h-2.62v1.01c0 1.16-.11 2.14-.32 2.92-.21.79-.54 1.41-.99 1.87s-1.03.78-1.76.98Zm13.92-.06c-1.35 0-2.42-.37-3.18-1.12-.77-.75-1.15-1.77-1.15-3.07 0-.84.17-1.58.5-2.21q.495-.945 1.38-1.47c.59-.35 1.28-.53 2.07-.53s1.43.17 1.95.5.92.79 1.19 1.39.41 1.3.41 2.1v.53h-5.89v-1.06h4.46l-.27.22c0-.75-.16-1.32-.47-1.71s-.77-.59-1.37-.59c-.66 0-1.17.23-1.53.7s-.54 1.12-.54 1.97v.21c0 .88.22 1.53.65 1.96s1.04.65 1.83.65q.69 0 1.29-.18c.6-.18.78-.32 1.14-.6l.59 1.34q-.57.465-1.38.72c-.81.255-1.1.26-1.7.26Zm6.77-.16v-6.51h-2.77v-1.57H144v1.57h-2.78v6.51h-1.98Zm9.25 0 5.1-11.28h1.73l5.17 11.28h-2.1l-1.38-3.17.83.56h-6.77l.86-.56-1.38 3.17h-2.08Zm5.95-9.07-2.26 5.34-.42-.5h5.38l-.34.5-2.3-5.34zm10.93 9.23c-.49 0-.98-.05-1.46-.16a7 7 0 0 1-1.36-.45q-.63-.285-1.08-.69l.67-1.55c.5.37 1.02.65 1.54.84.53.19 1.08.28 1.66.28.69 0 1.23-.17 1.62-.52s.58-.81.58-1.4-.19-1.08-.56-1.45-.89-.55-1.54-.55c-.46 0-.88.09-1.26.26q-.57.27-1.02.81h-1.36v-6.86h7.01v1.7h-5.06v3.58h-.5c.28-.37.65-.66 1.11-.86s.98-.3 1.56-.3c.73 0 1.35.15 1.89.45.53.3.95.72 1.25 1.26s.45 1.17.45 1.9-.17 1.38-.5 1.94c-.34.56-.82 1-1.44 1.31s-1.36.47-2.22.47Zm6.56 1.97-.82-.64c.34-.35.58-.68.71-.98s.2-.63.2-.97l.43.46h-1.5v-2.22h2.24v1.47c0 .54-.09 1.04-.28 1.5-.19.45-.52.91-.98 1.38m8.28-2.13v-1.71h2.59v-7.84h.99l-3.33 1.98v-1.95l2.93-1.76h1.47v9.57h2.43v1.71h-7.09Zm18.1 3.46v-5.02h.18c-.17.55-.46.98-.86 1.28s-.88.45-1.45.45-1.11-.17-1.56-.52-.81-.83-1.06-1.46-.38-1.37-.38-2.22.12-1.61.38-2.23.6-1.11 1.06-1.45c.45-.34.98-.51 1.58-.51.57 0 1.05.15 1.45.45s.69.72.86 1.26h-.18v-5.25h1.98v5.25h-.18c.17-.54.46-.97.86-1.26.4-.3.88-.45 1.45-.45.6 0 1.12.17 1.58.51.45.34.8.82 1.06 1.45s.38 1.37.38 2.23-.12 1.6-.38 2.22-.6 1.12-1.06 1.46c-.45.35-.98.52-1.58.52-.55 0-1.03-.15-1.43-.45s-.69-.72-.87-1.28h.18v5.02h-1.98Zm-1.55-4.8c.49 0 .88-.22 1.16-.67s.42-1.12.42-2.03-.14-1.57-.43-2.02-.67-.68-1.15-.68-.88.23-1.17.68-.43 1.13-.43 2.02.14 1.58.43 2.03.68.67 1.17.67m5.09 0c.49 0 .88-.22 1.17-.67s.43-1.12.43-2.03-.15-1.57-.44-2.02-.68-.68-1.16-.68-.88.23-1.16.68-.42 1.13-.42 2.02.14 1.58.42 2.03.67.67 1.16.67m8.65 1.5c-.7 0-1.32-.17-1.86-.5-.53-.34-.95-.82-1.25-1.45s-.45-1.38-.45-2.26.15-1.62.45-2.25c.3-.62.71-1.1 1.25-1.44s1.15-.5 1.86-.5 1.28.17 1.8.5.86.79 1.03 1.35h-.18l.18-1.7h1.92l-.09 1.01c-.03.34-.04.68-.04 1.01v6.06h-1.98l-.02-1.66h.19c-.17.55-.52 1-1.04 1.33s-1.11.5-1.78.5Zm.56-1.54c.63 0 1.14-.22 1.52-.66s.58-1.11.58-2.01-.19-1.56-.58-2c-.38-.44-.89-.66-1.52-.66s-1.14.22-1.52.66-.58 1.1-.58 2 .19 1.57.57 2.01q.57.66 1.53.66m6.19 1.6-.62-1.57c.35-.13.65-.3.89-.5.24-.21.43-.47.58-.8.14-.33.25-.73.31-1.22s.1-1.06.1-1.74v-2.48h6.43v8.08h-1.98v-6.54h-2.62v1.01c0 1.16-.11 2.14-.32 2.92-.21.79-.54 1.41-.99 1.87s-1.04.78-1.76.98Zm9.96-.22v-8.08h1.98v2.7h2.13c1.08 0 1.89.23 2.43.68s.82 1.11.82 1.96c0 .55-.13 1.04-.38 1.45-.26.41-.63.73-1.11.95-.49.22-1.07.34-1.75.34h-4.11Zm1.98-1.31h1.86c.54 0 .96-.11 1.25-.34s.43-.58.43-1.05-.14-.81-.42-1.03q-.42-.33-1.26-.33h-1.86zm14.05 3.39v-2.08h-7.01v-8.08h1.98v6.54h3.42v-6.54h1.97v6.54h1.31v3.62h-1.68Zm3.85.05-.82-.64c.34-.35.58-.68.71-.98s.2-.63.2-.97l.43.46h-1.5v-2.22h2.24v1.47c0 .54-.09 1.04-.28 1.5-.19.45-.51.91-.98 1.38m-118.34 13.87v-2.21h-5.04v-1.44l5.36-7.63h1.66v7.5h1.62v1.57h-1.62v2.21zm0-3.78v-5.07h.38l-3.89 5.55v-.48h3.5Zm7.99 3.16v-3.26h-3.22v-1.41h3.22v-3.18h1.46v3.18h3.2v1.41h-3.2v3.26zm11.21.62v-2.21h-5.04v-1.44l5.36-7.63h1.66v7.5h1.62v1.57h-1.62v2.21zm0-3.78v-5.07h.38l-3.89 5.55v-.48h3.5Zm5.75 5.91-.82-.64c.34-.35.58-.68.71-.98s.2-.63.2-.97l.43.46h-1.5v-2.22h2.24v1.47c0 .54-.09 1.04-.28 1.5-.19.45-.52.91-.98 1.38m8.28-2.13v-1.71h2.59v-7.84h.99l-3.33 1.98v-1.95l2.93-1.76h1.47v9.57h2.43v1.71h-7.09Zm12.63.16c-1.32 0-2.34-.5-3.06-1.51-.71-1.01-1.07-2.45-1.07-4.31s.36-3.32 1.07-4.3q1.065-1.47 3.06-1.47c1.995 0 2.35.49 3.06 1.47s1.06 2.41 1.06 4.29-.35 3.32-1.06 4.33-1.73 1.51-3.06 1.51Zm0-1.7c.73 0 1.26-.33 1.62-1 .35-.67.53-1.71.53-3.14s-.18-2.47-.53-3.11-.89-.97-1.62-.97-1.25.32-1.61.97-.54 1.68-.54 3.11.18 2.48.54 3.14c.36.67.89 1 1.61 1m9.68 1.7c-.49 0-.98-.05-1.46-.16a7 7 0 0 1-1.36-.45q-.63-.285-1.08-.69l.67-1.55c.5.37 1.02.65 1.54.84.53.19 1.08.28 1.66.28.69 0 1.23-.17 1.62-.52s.58-.81.58-1.4-.19-1.08-.56-1.45-.89-.55-1.54-.55c-.46 0-.88.09-1.26.26q-.57.27-1.02.81h-1.36v-6.86h7.01v1.7h-5.06v3.58h-.5c.28-.37.65-.66 1.11-.86q.69-.3 1.56-.3c.73 0 1.35.15 1.89.45s.95.72 1.25 1.26.45 1.17.45 1.9-.17 1.38-.5 1.94c-.34.56-.82 1-1.44 1.31s-1.36.47-2.22.47Zm10.24-.16v-8.08h6.06v1.57h-4.06v6.51zm7.53 3.46v-9.52c0-.33-.01-.67-.03-1.01s-.05-.68-.1-1.01h1.94l.18 1.7h-.18c.16-.56.5-1.02 1.02-1.35.52-.34 1.12-.5 1.8-.5s1.34.17 1.87.5c.53.34.95.82 1.25 1.44q.45.93.45 2.25c0 1.32-.15 1.63-.45 2.26s-.71 1.11-1.25 1.45c-.53.34-1.16.5-1.87.5-.67 0-1.26-.17-1.78-.5-.51-.33-.85-.77-1.02-1.33h.18v5.12h-2Zm4.06-4.83c.64 0 1.15-.22 1.54-.66.38-.44.58-1.11.58-2.01s-.19-1.56-.58-2-.9-.66-1.54-.66-1.14.22-1.52.66-.58 1.1-.58 2 .19 1.57.58 2.01c.38.44.89.66 1.52.66m5.51 1.37v-2.22h2.24v2.22zM89.81 204.17v-11.28h8.05v1.6h-6.08v3.12h3.28c1.24 0 2.2.28 2.9.82s1.04 1.36 1.04 2.44-.35 1.88-1.04 2.45-1.66.85-2.9.85zm1.97-1.58h3.04c.76 0 1.31-.14 1.66-.42s.53-.71.53-1.29-.18-.99-.53-1.26-.91-.42-1.66-.42h-3.04zm8.84 5.21-.46-1.58c.5-.11.92-.23 1.26-.37s.62-.32.85-.54.41-.51.56-.86l.4-.94-.05.78-3.52-8.19h2.13l2.53 6.3h-.46l2.54-6.3h2.02l-3.68 8.53c-.25.58-.51 1.05-.8 1.43s-.6.68-.93.91-.69.41-1.09.54c-.39.13-.83.23-1.3.3Zm9.01-3.63v-8.08h1.98v3.17h1.22l2.37-3.17h2.14l-2.98 4.03-.43-.62c.3.03.56.11.79.24s.45.31.66.54.41.52.62.87l1.7 3.02h-2.13l-1.38-2.43c-.14-.25-.28-.44-.42-.58s-.29-.24-.46-.29-.38-.08-.62-.08h-1.07v3.38h-1.98Zm8.91.22-.62-1.57c.35-.13.65-.3.89-.5.24-.21.43-.47.58-.8.14-.33.25-.73.31-1.22s.1-1.06.1-1.74v-2.48h6.43v8.08h-1.98v-6.54h-2.62v1.01c0 1.16-.11 2.14-.32 2.92-.21.79-.54 1.41-.99 1.87s-1.03.78-1.76.98Zm13.92-.06c-1.35 0-2.42-.37-3.18-1.12-.77-.75-1.15-1.77-1.15-3.07 0-.84.17-1.58.5-2.21q.495-.945 1.38-1.47c.59-.35 1.28-.53 2.07-.53s1.43.17 1.95.5.92.79 1.19 1.39.41 1.3.41 2.1v.53h-5.89v-1.06h4.46l-.27.22c0-.75-.16-1.32-.47-1.71s-.77-.59-1.37-.59c-.66 0-1.17.23-1.53.7s-.54 1.12-.54 1.97v.21c0 .88.22 1.53.65 1.96s1.04.65 1.83.65q.69 0 1.29-.18c.6-.18.78-.32 1.14-.6l.59 1.34q-.57.465-1.38.72c-.81.255-1.1.26-1.7.26Zm6.77-.16v-6.51h-2.77v-1.57H144v1.57h-2.78v6.51h-1.98Zm9.25 0 5.1-11.28h1.73l5.17 11.28h-2.1L157 201l.83.56h-6.77l.86-.56-1.38 3.17h-2.08Zm5.95-9.07-2.26 5.34-.42-.5h5.38l-.34.5-2.3-5.34zm11.25 9.23c-1.42 0-2.52-.49-3.29-1.47s-1.16-2.36-1.16-4.13c0-1.28.2-2.37.59-3.26s.96-1.57 1.69-2.04 1.61-.7 2.63-.7c.61 0 1.21.11 1.81.33s1.11.53 1.54.94l-.69 1.54a4.1 4.1 0 0 0-1.28-.81c-.46-.18-.92-.26-1.39-.26-.96 0-1.69.33-2.19.98q-.75.975-.75 2.91v1.2H163c.08-.54.27-1.01.54-1.4.28-.39.63-.69 1.07-.9s.92-.31 1.46-.31c.66 0 1.25.15 1.76.46s.91.74 1.21 1.28c.29.54.44 1.17.44 1.87s-.16 1.37-.49 1.95a3.5 3.5 0 0 1-1.34 1.34c-.57.33-1.22.49-1.97.49Zm-.11-1.63c.39 0 .74-.08 1.04-.26.3-.17.53-.41.7-.73.17-.31.25-.67.25-1.08s-.08-.78-.25-1.09-.4-.55-.7-.73-.65-.26-1.04-.26-.74.09-1.04.26c-.3.18-.53.42-.7.73s-.26.67-.26 1.09.09.77.26 1.08c.17.32.4.56.7.73s.65.26 1.04.26m6.35 3.59-.82-.64c.34-.35.58-.68.71-.98s.2-.63.2-.97l.43.46h-1.5v-2.22h2.24v1.47c0 .54-.09 1.04-.28 1.5-.19.45-.52.91-.98 1.38m8.28-2.12v-1.71h2.59v-7.84h.99l-3.33 1.98v-1.95l2.93-1.76h1.47v9.57h2.43v1.71h-7.09Zm18.1 3.45v-5.02h.18c-.17.55-.46.98-.86 1.28s-.88.45-1.45.45-1.11-.17-1.56-.52-.81-.83-1.06-1.46-.38-1.37-.38-2.22.12-1.61.38-2.23.6-1.11 1.06-1.45c.45-.34.98-.51 1.58-.51.57 0 1.05.15 1.45.45s.69.72.86 1.26h-.18v-5.25h1.98v5.25h-.18c.17-.54.46-.97.86-1.26.4-.3.88-.45 1.45-.45.6 0 1.12.17 1.58.51.45.34.8.82 1.06 1.45s.38 1.37.38 2.23-.12 1.6-.38 2.22-.6 1.12-1.06 1.46c-.45.35-.98.52-1.58.52-.55 0-1.03-.15-1.43-.45s-.69-.72-.87-1.28h.18v5.02h-1.98Zm-1.55-4.8c.49 0 .88-.22 1.16-.67s.42-1.12.42-2.03-.14-1.57-.43-2.02-.67-.68-1.15-.68-.88.23-1.17.68-.43 1.13-.43 2.02.14 1.58.43 2.03.68.67 1.17.67m5.09 0c.49 0 .88-.22 1.17-.67s.43-1.12.43-2.03-.15-1.57-.44-2.02-.68-.68-1.16-.68-.88.23-1.16.68-.42 1.13-.42 2.02.14 1.58.42 2.03.67.67 1.16.67m8.65 1.51c-.7 0-1.32-.17-1.86-.5-.53-.34-.95-.82-1.25-1.45s-.45-1.38-.45-2.26.15-1.62.45-2.25c.3-.62.71-1.1 1.25-1.44s1.15-.5 1.86-.5 1.28.17 1.8.5.86.79 1.03 1.35h-.18l.18-1.7h1.92l-.09 1.01c-.03.34-.04.68-.04 1.01v6.06h-1.98l-.02-1.66h.19c-.17.55-.52 1-1.04 1.33s-1.11.5-1.78.5Zm.56-1.54c.63 0 1.14-.22 1.52-.66s.58-1.11.58-2.01-.19-1.56-.58-2c-.38-.44-.89-.66-1.52-.66s-1.14.22-1.52.66-.58 1.1-.58 2 .19 1.57.57 2.01q.57.66 1.53.66m6.19 1.6-.62-1.57c.35-.13.65-.3.89-.5.24-.21.43-.47.58-.8.14-.33.25-.73.31-1.22s.1-1.06.1-1.74v-2.48h6.43v8.08h-1.98v-6.54h-2.62v1.01c0 1.16-.11 2.14-.32 2.92-.21.79-.54 1.41-.99 1.87s-1.04.78-1.76.98Zm9.96-.22v-8.08h1.98v2.7h2.13c1.08 0 1.89.23 2.43.68s.82 1.11.82 1.96c0 .55-.13 1.04-.38 1.45-.26.41-.63.73-1.11.95-.49.22-1.07.34-1.75.34h-4.11Zm1.98-1.31h1.86c.54 0 .96-.11 1.25-.34s.43-.58.43-1.05-.14-.81-.42-1.03q-.42-.33-1.26-.33h-1.86zm14.05 3.39v-2.08h-7.01v-8.08h1.98v6.54h3.42v-6.54h1.97v6.54h1.31v3.62h-1.68Zm3.85.04-.82-.64c.34-.35.58-.68.71-.98s.2-.63.2-.97l.43.46h-1.5v-2.22h2.24v1.47c0 .54-.09 1.04-.28 1.5-.19.45-.51.91-.98 1.38m-118.34 13.88v-2.21h-5.04v-1.44l5.36-7.63h1.66v7.5h1.62v1.57h-1.62v2.21zm0-3.78v-5.07h.38l-3.89 5.55v-.48h3.5Zm7.99 3.15v-3.26h-3.22v-1.41h3.22v-3.18h1.46v3.18h3.2v1.41h-3.2v3.26zm11.21.63v-2.21h-5.04v-1.44l5.36-7.63h1.66v7.5h1.62v1.57h-1.62v2.21zm0-3.78v-5.07h.38l-3.89 5.55v-.48h3.5Zm5.75 5.9-.82-.64c.34-.35.58-.68.71-.98s.2-.63.2-.97l.43.46h-1.5v-2.22h2.24v1.47c0 .54-.09 1.04-.28 1.5-.19.45-.52.91-.98 1.38m8.28-2.12v-1.71h2.59v-7.84h.99l-3.33 1.98v-1.95l2.93-1.76h1.47v9.57h2.43v1.71h-7.09Zm12.63.16c-1.32 0-2.34-.5-3.06-1.51-.71-1.01-1.07-2.45-1.07-4.31s.36-3.32 1.07-4.3q1.065-1.47 3.06-1.47c1.995 0 2.35.49 3.06 1.47s1.06 2.41 1.06 4.29-.35 3.32-1.06 4.33-1.73 1.51-3.06 1.51Zm0-1.7c.73 0 1.26-.33 1.62-1 .35-.67.53-1.71.53-3.14s-.18-2.47-.53-3.11-.89-.97-1.62-.97-1.25.32-1.61.97-.54 1.68-.54 3.11.18 2.48.54 3.14c.36.67.89 1 1.61 1m9.68 1.7c-.49 0-.98-.05-1.46-.16a7 7 0 0 1-1.36-.45q-.63-.285-1.08-.69l.67-1.55c.5.37 1.02.65 1.54.84.53.19 1.08.28 1.66.28.69 0 1.23-.17 1.62-.52s.58-.81.58-1.4-.19-1.08-.56-1.45-.89-.55-1.54-.55c-.46 0-.88.09-1.26.26q-.57.27-1.02.81h-1.36v-6.86h7.01v1.7h-5.06v3.58h-.5c.28-.37.65-.66 1.11-.86q.69-.3 1.56-.3c.73 0 1.35.15 1.89.45s.95.72 1.25 1.26.45 1.17.45 1.9-.17 1.38-.5 1.94c-.34.56-.82 1-1.44 1.31s-1.36.47-2.22.47Zm10.24-.16v-8.08h6.06v1.57h-4.06v6.51zm7.53 3.45v-9.52c0-.33-.01-.67-.03-1.01s-.05-.68-.1-1.01h1.94l.18 1.7h-.18c.16-.56.5-1.02 1.02-1.35.52-.34 1.12-.5 1.8-.5s1.34.17 1.87.5c.53.34.95.82 1.25 1.44q.45.93.45 2.25c0 1.32-.15 1.63-.45 2.26s-.71 1.11-1.25 1.45c-.53.34-1.16.5-1.87.5-.67 0-1.26-.17-1.78-.5-.51-.33-.85-.77-1.02-1.33h.18v5.12h-2Zm4.06-4.83c.64 0 1.15-.22 1.54-.66.38-.44.58-1.11.58-2.01s-.19-1.56-.58-2-.9-.66-1.54-.66-1.14.22-1.52.66-.58 1.1-.58 2 .19 1.57.58 2.01c.38.44.89.66 1.52.66m5.51 1.38v-2.22h2.24v2.22zM84.73 250.12v-11.28h8.05v1.6H86.7v3.12h3.28c1.24 0 2.2.27 2.9.82.69.55 1.04 1.36 1.04 2.44s-.35 1.88-1.04 2.45-1.66.85-2.9.85zm1.97-1.58h3.04c.76 0 1.31-.14 1.66-.42s.53-.71.53-1.29-.18-.99-.53-1.26-.91-.42-1.66-.42H86.7zm8.85 5.21-.46-1.58c.5-.11.92-.23 1.26-.37s.62-.32.85-.54c.22-.22.41-.51.56-.86l.4-.94-.05.78-3.52-8.19h2.13l2.53 6.3h-.46l2.54-6.3h2.02l-3.68 8.53c-.25.58-.51 1.05-.8 1.43s-.6.68-.93.91-.69.41-1.09.54-.83.23-1.3.3Zm9.01-3.63v-8.08h1.98v3.17h1.22l2.37-3.17h2.14l-2.98 4.03-.43-.62c.3.03.56.11.79.24q.345.195.66.54c.21.23.41.52.62.87l1.7 3.02h-2.13l-1.38-2.43c-.14-.24-.28-.44-.42-.58s-.29-.24-.46-.29-.38-.08-.62-.08h-1.07v3.38h-1.98Zm8.91.23-.62-1.57c.35-.13.65-.29.89-.5s.43-.47.58-.8c.14-.33.25-.73.31-1.22.06-.48.1-1.06.1-1.74v-2.48h6.43v8.08h-1.98v-6.54h-2.62v1.01c0 1.16-.11 2.14-.32 2.92s-.54 1.41-.99 1.86c-.45.46-1.03.78-1.76.98Zm13.92-.07c-1.35 0-2.42-.37-3.18-1.12s-1.15-1.77-1.15-3.07c0-.84.17-1.58.5-2.21q.495-.945 1.38-1.47c.59-.35 1.28-.53 2.07-.53s1.43.17 1.95.5.92.79 1.19 1.39.41 1.3.41 2.1v.53h-5.89v-1.06h4.46l-.27.22c0-.75-.16-1.32-.47-1.71s-.77-.59-1.37-.59c-.66 0-1.17.23-1.53.7s-.54 1.13-.54 1.97v.21c0 .87.22 1.53.65 1.96s1.04.65 1.83.65q.69 0 1.29-.18c.6-.18.78-.32 1.14-.6l.59 1.34q-.57.465-1.38.72c-.53.17-1.1.26-1.7.26Zm6.77-.16v-6.51h-2.77v-1.57h7.54v1.57h-2.78v6.51h-1.98Zm9.25 0 5.1-11.28h1.73l5.17 11.28h-2.1l-1.38-3.17.83.56h-6.77l.86-.56-1.38 3.17h-2.08Zm5.95-9.07-2.26 5.34-.42-.5h5.38l-.34.5-2.3-5.34zm10.67 9.23c-.78 0-1.53-.11-2.24-.34s-1.3-.55-1.76-.95l.67-1.55c.5.38 1.02.67 1.56.85s1.11.27 1.7.27c.73 0 1.27-.14 1.65-.43.37-.29.56-.71.56-1.26s-.18-.94-.55-1.21-.9-.41-1.61-.41h-1.82v-1.65h1.65c.61 0 1.09-.15 1.46-.45q.54-.45.54-1.23c0-.49-.17-.86-.5-1.12-.34-.26-.82-.38-1.45-.38-1.13 0-2.13.38-2.99 1.15l-.67-1.54c.46-.43 1.03-.76 1.7-.99.68-.23 1.39-.35 2.14-.35 1.17 0 2.09.26 2.76.79s1 1.26 1 2.2q0 1.005-.57 1.74c-.38.49-.9.81-1.56.97v-.19c.78.13 1.38.45 1.82.95.43.51.65 1.14.65 1.9 0 1-.37 1.79-1.1 2.38s-1.74.87-3.02.87Zm6.82 1.97-.82-.64c.34-.35.58-.68.71-.98s.2-.63.2-.97l.43.46h-1.5v-2.22h2.24v1.47c0 .54-.09 1.04-.28 1.5-.19.45-.52.92-.98 1.38m7.75-2.13v-1.52l3.74-3.9c.47-.49.82-.94 1.04-1.36s.34-.84.34-1.28c0-.54-.17-.96-.51-1.23s-.84-.42-1.49-.42c-.52 0-1.02.09-1.5.28q-.72.285-1.41.87l-.67-1.54c.46-.4 1.03-.73 1.7-.97.68-.25 1.39-.37 2.14-.37 1.22 0 2.15.27 2.8.82.65.54.98 1.32.98 2.34 0 .7-.17 1.37-.5 2.01s-.84 1.3-1.54 1.99l-3.12 3.12v-.54h5.6v1.71h-7.6Zm18.63 3.46v-5.02h.18c-.17.55-.46.98-.86 1.28s-.88.45-1.45.45-1.11-.17-1.56-.52-.81-.83-1.06-1.46c-.26-.63-.38-1.37-.38-2.22s.12-1.61.38-2.23c.25-.62.6-1.11 1.06-1.45.45-.34.98-.51 1.58-.51.57 0 1.05.15 1.45.45s.69.72.86 1.26h-.18v-5.25h1.98v5.25h-.18c.17-.54.46-.96.86-1.26s.88-.45 1.45-.45c.6 0 1.12.17 1.58.51.45.34.8.82 1.06 1.45.25.62.38 1.37.38 2.23s-.12 1.59-.38 2.22c-.25.63-.6 1.12-1.06 1.46-.45.35-.98.52-1.58.52-.55 0-1.03-.15-1.43-.45s-.69-.72-.87-1.28h.18v5.02h-1.98Zm-1.55-4.8c.49 0 .88-.22 1.16-.67s.42-1.12.42-2.03-.14-1.57-.43-2.02-.67-.68-1.15-.68-.88.23-1.17.68-.43 1.13-.43 2.02.14 1.58.43 2.03.68.67 1.17.67m5.09 0c.49 0 .88-.22 1.17-.67s.43-1.12.43-2.03-.15-1.57-.44-2.02-.68-.68-1.16-.68-.88.23-1.16.68-.42 1.13-.42 2.02.14 1.58.42 2.03.67.67 1.16.67m8.65 1.5c-.7 0-1.32-.17-1.86-.5-.53-.34-.95-.82-1.25-1.45s-.45-1.38-.45-2.26.15-1.62.45-2.25.71-1.1 1.25-1.44 1.15-.5 1.86-.5 1.28.17 1.8.5.86.79 1.03 1.35h-.18l.18-1.7h1.92l-.09 1.01c-.03.34-.04.68-.04 1.01v6.06h-1.98l-.02-1.66h.19c-.17.55-.52 1-1.04 1.33s-1.11.5-1.78.5Zm.56-1.54c.63 0 1.14-.22 1.52-.66s.58-1.11.58-2.01-.19-1.56-.58-2c-.38-.44-.89-.66-1.52-.66s-1.14.22-1.52.66-.58 1.1-.58 2 .19 1.57.57 2.01q.57.66 1.53.66m6.19 1.61-.62-1.57c.35-.13.65-.29.89-.5s.43-.47.58-.8c.14-.33.25-.73.31-1.22.06-.48.1-1.06.1-1.74v-2.48h6.43v8.08h-1.98v-6.54h-2.62v1.01c0 1.16-.11 2.14-.32 2.92s-.54 1.41-.99 1.86c-.45.46-1.04.78-1.76.98Zm9.95-.23v-8.08h1.98v2.7h2.13c1.08 0 1.89.23 2.43.68s.82 1.11.82 1.96c0 .55-.13 1.04-.38 1.45s-.63.73-1.11.95-1.07.34-1.75.34h-4.11Zm1.98-1.31h1.86c.54 0 .96-.12 1.25-.34.29-.23.43-.58.43-1.05s-.14-.81-.42-1.03q-.42-.33-1.26-.33h-1.86zm14.06 3.39v-2.08h-7.01v-8.08h1.98v6.54h3.42v-6.54h1.97v6.54h1.31v3.62h-1.68Zm6.33-1.92c-.7 0-1.32-.17-1.86-.5-.53-.34-.95-.82-1.25-1.45s-.45-1.38-.45-2.26.15-1.62.45-2.25.71-1.1 1.25-1.44 1.15-.5 1.86-.5 1.28.17 1.8.5.86.79 1.03 1.35h-.18l.18-1.7h1.92l-.09 1.01c-.03.34-.04.68-.04 1.01v6.06h-1.98l-.02-1.66h.19c-.17.55-.52 1-1.04 1.33s-1.11.5-1.78.5Zm.56-1.54c.63 0 1.14-.22 1.52-.66s.58-1.11.58-2.01-.19-1.56-.58-2c-.38-.44-.89-.66-1.52-.66s-1.14.22-1.52.66-.58 1.1-.58 2 .19 1.57.57 2.01q.57.66 1.53.66m7.11 3.51-.82-.64c.34-.35.58-.68.71-.98s.2-.63.2-.97l.43.46h-1.5v-2.22h2.24v1.47c0 .54-.09 1.04-.28 1.5-.19.45-.51.92-.98 1.38m-123.42 13.87v-2.21h-5.04v-1.44l5.36-7.63h1.66v7.5h1.62v1.57h-1.62v2.21zm0-3.78v-5.07h.38l-3.89 5.55v-.48h3.5Zm7.99 3.16v-3.26h-3.22v-1.41h3.22v-3.18h1.46v3.18h3.2v1.41h-3.2v3.26zm11.21.62v-2.21h-5.04v-1.44l5.36-7.63h1.66v7.5h1.62v1.57h-1.62v2.21zm0-3.78v-5.07h.38l-3.89 5.55v-.48h3.5Zm5.75 5.91-.82-.64c.34-.35.58-.68.71-.98s.2-.63.2-.97l.43.46h-1.5v-2.22h2.24v1.47c0 .54-.09 1.04-.28 1.5-.19.45-.52.92-.98 1.38m8.28-2.13v-1.71h2.59v-7.84h.99l-3.33 1.98v-1.95l2.93-1.76h1.47v9.57h2.43v1.71h-7.09Zm12.63.16c-1.32 0-2.34-.5-3.06-1.51-.71-1.01-1.07-2.45-1.07-4.31s.36-3.32 1.07-4.3q1.065-1.47 3.06-1.47c1.995 0 2.35.49 3.06 1.47s1.06 2.41 1.06 4.29-.35 3.32-1.06 4.33-1.73 1.51-3.06 1.51Zm0-1.7c.73 0 1.26-.33 1.62-1 .35-.67.53-1.71.53-3.14s-.18-2.47-.53-3.11-.89-.97-1.62-.97-1.25.32-1.61.97-.54 1.68-.54 3.11.18 2.48.54 3.14c.36.67.89 1 1.61 1m9.68 1.7c-.49 0-.98-.05-1.46-.16s-.94-.26-1.36-.45q-.63-.285-1.08-.69l.67-1.55c.5.37 1.02.65 1.54.84.53.19 1.08.28 1.66.28.69 0 1.23-.17 1.62-.52s.58-.81.58-1.4-.19-1.08-.56-1.45-.89-.55-1.54-.55c-.46 0-.88.09-1.26.26q-.57.27-1.02.81h-1.36v-6.86h7.01v1.7h-5.06v3.58h-.5c.28-.37.65-.66 1.11-.86q.69-.3 1.56-.3c.73 0 1.35.15 1.89.45s.95.72 1.25 1.26.45 1.17.45 1.9-.17 1.38-.5 1.94-.82 1-1.44 1.31-1.36.47-2.22.47Zm10.24-.16v-8.08h6.06v1.57h-4.06v6.51zm7.53 3.46v-9.52c0-.33-.01-.67-.03-1.01s-.05-.68-.1-1.01h1.94l.18 1.7h-.18q.24-.855 1.02-1.35c.52-.34 1.12-.5 1.8-.5s1.34.17 1.87.5c.53.34.95.82 1.25 1.44q.45.93.45 2.25c0 1.32-.15 1.63-.45 2.26s-.71 1.11-1.25 1.45c-.53.34-1.16.5-1.87.5-.67 0-1.26-.17-1.78-.5s-.85-.77-1.02-1.33h.18v5.12h-2Zm4.06-4.83c.64 0 1.15-.22 1.54-.66.38-.44.58-1.11.58-2.01s-.19-1.56-.58-2-.9-.66-1.54-.66-1.14.22-1.52.66-.58 1.1-.58 2 .19 1.57.58 2.01c.38.44.89.66 1.52.66m5.51 1.37v-2.22h2.24v2.22zM68.1 296.08V284.8h8.05v1.6h-6.08v3.12h3.28c1.24 0 2.2.27 2.9.82s1.04 1.36 1.04 2.44-.35 1.88-1.04 2.45-1.66.85-2.9.85zm1.97-1.58h3.04c.76 0 1.31-.14 1.66-.42s.53-.71.53-1.29-.18-.99-.53-1.26-.91-.42-1.66-.42h-3.04zm8.85 5.21-.46-1.58c.5-.11.92-.23 1.26-.37s.62-.32.85-.54c.22-.22.41-.51.56-.86l.4-.94-.05.78-3.52-8.19h2.13l2.53 6.3h-.46l2.54-6.3h2.02l-3.68 8.53c-.25.58-.51 1.05-.8 1.43s-.6.68-.93.91-.69.41-1.09.54c-.39.13-.83.23-1.3.3Zm9.01-3.63V288h1.98v3.17h1.22L93.5 288h2.14l-2.98 4.03-.43-.62c.3.03.56.11.79.24s.45.31.66.54.41.52.62.87l1.7 3.02h-2.13l-1.38-2.43c-.14-.25-.28-.44-.42-.58s-.29-.23-.46-.29c-.17-.05-.38-.08-.62-.08h-1.07v3.38h-1.98Zm8.91.22-.62-1.57c.35-.13.65-.3.89-.5.24-.21.43-.47.58-.8s.25-.73.31-1.22.1-1.06.1-1.74v-2.48h6.43v8.08h-1.98v-6.54h-2.62v1.01c0 1.16-.11 2.14-.32 2.92s-.54 1.41-.99 1.86c-.45.46-1.03.79-1.76.98Zm13.92-.06c-1.35 0-2.42-.37-3.18-1.12-.77-.75-1.15-1.77-1.15-3.07 0-.84.17-1.58.5-2.21q.495-.945 1.38-1.47c.59-.35 1.28-.53 2.07-.53s1.43.17 1.95.5.92.79 1.19 1.39.41 1.3.41 2.1v.53h-5.89v-1.06h4.46l-.27.22c0-.75-.16-1.32-.47-1.71s-.77-.59-1.37-.59c-.66 0-1.17.23-1.53.7s-.54 1.13-.54 1.97v.21c0 .87.22 1.53.65 1.96s1.04.65 1.83.65q.69 0 1.29-.18t1.14-.6l.59 1.34q-.57.465-1.38.72c-.53.17-1.1.26-1.7.26Zm6.77-.16v-6.51h-2.77V288h7.54v1.57h-2.78v6.51h-1.98Zm13.87.16c-.78 0-1.53-.11-2.24-.34s-1.3-.55-1.76-.95l.67-1.55c.5.38 1.02.67 1.56.85s1.11.27 1.7.27c.73 0 1.27-.14 1.65-.43.37-.29.56-.71.56-1.26s-.18-.94-.55-1.21-.9-.41-1.61-.41h-1.82v-1.65h1.65c.61 0 1.09-.15 1.46-.45q.54-.45.54-1.23c0-.49-.17-.86-.5-1.12-.34-.26-.82-.38-1.45-.38-1.13 0-2.13.38-2.99 1.15l-.67-1.54c.46-.43 1.03-.76 1.7-.99.68-.23 1.39-.35 2.14-.35 1.17 0 2.09.26 2.76.79s1 1.26 1 2.2q0 1.005-.57 1.74c-.38.48-.9.81-1.56.97v-.19c.78.13 1.38.45 1.82.95s.65 1.14.65 1.9c0 1-.37 1.79-1.1 2.38-.74.58-1.74.87-3.02.87Zm4.93-.16 3.76-4.62v.91l-3.55-4.37h2.37l2.32 2.99h-.72l2.32-2.99h2.35l-3.52 4.37v-.91l3.74 4.62h-2.38l-2.51-3.21h.72l-2.53 3.21z" class="cls-2"/><path d="m145.38 296.08 5.1-11.28h1.73l5.17 11.28h-2.1l-1.38-3.17.83.56h-6.77l.86-.56-1.38 3.17h-2.08Zm5.95-9.07-2.26 5.34-.42-.5h5.38l-.34.5-2.3-5.34zm10.93 9.23c-.49 0-.98-.05-1.46-.16a7 7 0 0 1-1.36-.45q-.63-.285-1.08-.69l.67-1.55c.5.37 1.02.65 1.54.84.53.19 1.08.28 1.66.28.69 0 1.23-.17 1.62-.52s.58-.81.58-1.4-.19-1.08-.56-1.45-.89-.55-1.54-.55c-.46 0-.88.09-1.26.26q-.57.27-1.02.81h-1.36v-6.86h7.01v1.7h-5.06v3.58h-.5c.28-.37.65-.66 1.11-.86s.98-.3 1.56-.3c.73 0 1.35.15 1.89.45.53.3.95.72 1.25 1.26s.45 1.17.45 1.9-.17 1.38-.5 1.94c-.34.56-.82 1-1.44 1.31s-1.36.47-2.22.47Zm6.56 1.97-.82-.64c.34-.35.58-.68.71-.98s.2-.63.2-.97l.43.46h-1.5v-2.22h2.24v1.47c0 .54-.09 1.04-.28 1.5-.19.45-.52.92-.98 1.38m8.29-2.13v-1.71h2.59v-7.84h.99l-3.33 1.98v-1.95l2.93-1.76h1.47v9.57h2.43v1.71h-7.09Zm9.07.94h-1.65l4.21-12.98h1.65zm5.06-.94v-1.52l3.74-3.9c.47-.49.82-.94 1.04-1.36s.34-.84.34-1.28q0-.81-.51-1.23c-.34-.28-.84-.42-1.49-.42-.52 0-1.02.09-1.5.28q-.72.285-1.41.87l-.67-1.54c.46-.41 1.03-.73 1.7-.98.68-.25 1.39-.37 2.14-.37 1.22 0 2.15.27 2.8.82.65.54.98 1.32.98 2.34 0 .7-.17 1.37-.5 2.01-.33.63-.84 1.3-1.54 1.99l-3.12 3.12v-.54h5.6v1.71zm18.62 3.46v-5.02h.18c-.17.55-.46.98-.86 1.28s-.88.45-1.45.45-1.11-.17-1.56-.52-.81-.83-1.06-1.46c-.26-.63-.38-1.37-.38-2.22s.12-1.61.38-2.23.6-1.11 1.06-1.45c.45-.34.98-.51 1.58-.51.57 0 1.05.15 1.45.45s.69.72.86 1.26h-.18v-5.25h1.98v5.25h-.18c.17-.54.46-.96.86-1.26s.88-.45 1.45-.45c.6 0 1.12.17 1.58.51.45.34.8.82 1.06 1.45s.38 1.37.38 2.23-.12 1.59-.38 2.22c-.25.63-.6 1.12-1.06 1.46-.45.35-.98.52-1.58.52-.55 0-1.03-.15-1.43-.45s-.69-.73-.87-1.28h.18v5.02h-1.98Zm-1.55-4.8c.49 0 .88-.22 1.16-.67s.42-1.12.42-2.03-.14-1.57-.43-2.02-.67-.68-1.15-.68-.88.23-1.17.68-.43 1.13-.43 2.02.14 1.58.43 2.03.68.67 1.17.67m5.09 0c.49 0 .88-.22 1.17-.67s.43-1.12.43-2.03-.15-1.57-.44-2.02-.68-.68-1.16-.68-.88.23-1.16.68-.42 1.13-.42 2.02.14 1.58.42 2.03.67.67 1.16.67m8.65 1.5c-.7 0-1.32-.17-1.86-.5s-.95-.82-1.25-1.45-.45-1.38-.45-2.26.15-1.62.45-2.25c.3-.62.71-1.1 1.25-1.44s1.15-.5 1.86-.5 1.28.17 1.8.5.86.79 1.03 1.35h-.18l.18-1.7h1.92l-.09 1.01c-.03.34-.04.68-.04 1.01v6.06h-1.98l-.02-1.66h.19c-.17.55-.52 1-1.04 1.33s-1.11.5-1.78.5Zm.56-1.54c.63 0 1.14-.22 1.52-.66s.58-1.11.58-2.01-.19-1.56-.58-2c-.38-.44-.89-.66-1.52-.66s-1.14.22-1.52.66-.58 1.1-.58 2 .19 1.56.57 2.01q.57.66 1.53.66m6.19 1.6-.62-1.57c.35-.13.65-.3.89-.5.24-.21.43-.47.58-.8.14-.33.25-.73.31-1.22s.1-1.06.1-1.74v-2.48h6.43v8.08h-1.98v-6.54h-2.62v1.01c0 1.16-.11 2.14-.32 2.92s-.54 1.41-.99 1.86c-.45.46-1.04.79-1.76.98Zm9.95-.22V288h1.98v2.71h2.13c1.08 0 1.89.23 2.43.68s.82 1.11.82 1.96c0 .55-.13 1.04-.38 1.45-.26.41-.63.73-1.11.95-.49.22-1.07.34-1.75.34h-4.11Zm1.98-1.31h1.86c.54 0 .96-.11 1.25-.34s.43-.58.43-1.05-.14-.81-.42-1.03q-.42-.33-1.26-.33h-1.86zm14.06 3.39v-2.08h-7.01V288h1.98v6.54h3.42V288h1.97v6.54h1.31v3.62h-1.68Zm6.33-1.92c-.7 0-1.32-.17-1.86-.5s-.95-.82-1.25-1.45-.45-1.38-.45-2.26.15-1.62.45-2.25c.3-.62.71-1.1 1.25-1.44s1.15-.5 1.86-.5 1.28.17 1.8.5.86.79 1.03 1.35h-.18l.18-1.7h1.92l-.09 1.01c-.03.34-.04.68-.04 1.01v6.06h-1.98l-.02-1.66h.19c-.17.55-.52 1-1.04 1.33s-1.11.5-1.78.5Zm.56-1.54c.63 0 1.14-.22 1.52-.66s.58-1.11.58-2.01-.19-1.56-.58-2c-.38-.44-.89-.66-1.52-.66s-1.14.22-1.52.66-.58 1.1-.58 2 .19 1.56.57 2.01q.57.66 1.53.66m7.11 3.51-.82-.64c.34-.35.58-.68.71-.98s.2-.63.2-.97l.43.46h-1.5v-2.22h2.24v1.47c0 .54-.09 1.04-.28 1.5s-.51.92-.98 1.38m-140.05 13.87v-2.21h-5.04v-1.44l5.36-7.63h1.66v7.5h1.62v1.57h-1.62v2.21zm0-3.78v-5.07h.38l-3.89 5.55v-.48h3.5Zm7.99 3.16v-3.26h-3.22v-1.41h3.22v-3.18h1.46v3.18h3.2v1.41h-3.2v3.26zm11.21.62v-2.21h-5.04v-1.44l5.36-7.63h1.66v7.5h1.62v1.57h-1.62v2.21zm0-3.78v-5.07h.38l-3.89 5.55v-.48h3.5Zm5.75 5.91-.82-.64c.34-.35.58-.68.71-.98s.2-.63.2-.97l.43.46h-1.5v-2.22h2.24v1.47c0 .54-.09 1.04-.28 1.5-.19.45-.52.92-.98 1.38m8.28-2.13v-1.71h2.59v-7.84h.99l-3.33 1.98v-1.95l2.93-1.76h1.47v9.57h2.43v1.71h-7.09Zm12.63.16c-1.32 0-2.34-.5-3.06-1.51-.71-1.01-1.07-2.45-1.07-4.31s.36-3.32 1.07-4.3q1.065-1.47 3.06-1.47c1.995 0 2.35.49 3.06 1.47s1.06 2.41 1.06 4.29-.35 3.32-1.06 4.33-1.73 1.51-3.06 1.51Zm0-1.7c.73 0 1.26-.33 1.62-1 .35-.67.53-1.71.53-3.14s-.18-2.47-.53-3.11c-.35-.65-.89-.97-1.62-.97s-1.25.32-1.61.97c-.36.64-.54 1.68-.54 3.11s.18 2.48.54 3.14c.36.67.89 1 1.61 1m9.68 1.7c-.49 0-.98-.05-1.46-.16a7 7 0 0 1-1.36-.45q-.63-.285-1.08-.69l.67-1.55c.5.37 1.02.65 1.54.84.53.19 1.08.28 1.66.28.69 0 1.23-.17 1.62-.52s.58-.81.58-1.4-.19-1.08-.56-1.45-.89-.55-1.54-.55c-.46 0-.88.09-1.26.26q-.57.27-1.02.81h-1.36v-6.86h7.01v1.7h-5.06v3.58h-.5c.28-.37.65-.66 1.11-.86q.69-.3 1.56-.3c.73 0 1.35.15 1.89.45.53.3.95.72 1.25 1.26s.45 1.17.45 1.9-.17 1.38-.5 1.94c-.34.56-.82 1-1.44 1.31s-1.36.47-2.22.47Zm10.24-.16V304h6.06v1.57h-4.06v6.51zm7.53 3.46v-9.52c0-.33-.01-.67-.03-1.01s-.05-.68-.1-1.01h1.94l.18 1.7h-.18q.24-.855 1.02-1.35c.52-.34 1.12-.5 1.8-.5s1.34.17 1.87.5c.53.34.95.82 1.25 1.44q.45.93.45 2.25c0 1.32-.15 1.63-.45 2.26s-.71 1.11-1.25 1.45c-.53.34-1.16.5-1.87.5-.67 0-1.26-.17-1.78-.5-.51-.33-.85-.77-1.02-1.33h.18v5.12h-2Zm4.06-4.83c.64 0 1.15-.22 1.54-.66.38-.44.58-1.11.58-2.01s-.19-1.56-.58-2-.9-.66-1.54-.66-1.14.22-1.52.66-.58 1.1-.58 2 .19 1.56.58 2.01c.38.44.89.66 1.52.66m5.51 1.37v-2.22h2.24v2.22z" class="cls-2"/><text class="cls-1" transform="translate(20.85 341.25)"><tspan x="0" y="0">Буклет 2хЕвр</tspan><tspan x="107.45" y="0" style="letter-spacing:-.01em">о</tspan><tspan x="116.91" y="0">, 1 фальц, 4+4, 105 г</tspan><tspan x="278.23" y="0" class="cls-7">р</tspan><tspan x="288.14" y="0">.,</tspan><tspan x="-10.2" y="16">4+0/4+4, 270 г</tspan><tspan x="101.46" y="16" style="letter-spacing:-.02em">р</tspan><tspan x="111.37" y="16">., 4+0/4+4, 270 г</tspan><tspan x="235.35" y="16" class="cls-7">р</tspan><tspan x="245.25" y="16" class="cls-9">. (1 бит)</tspan></text></g></svg>