<svg xmlns="http://www.w3.org/2000/svg" id="_Слой_2" data-name="Слой 2" viewBox="0 0 938.93 774.35"><defs><style>.cls-1{font-family:Mulish-Bold,Mulish;font-weight:700}.cls-1,.cls-3{fill:#27625f;font-size:16px}.cls-4{fill:#fff}.cls-4,.cls-5{stroke:#a0b6b5;stroke-miterlimit:10}.cls-6,.cls-7{letter-spacing:0}.cls-3{font-family:Mulish-SemiBold,Mulish;font-weight:600}.cls-8{letter-spacing:-.06em}.cls-10{letter-spacing:0}.cls-12{letter-spacing:-.02em}.cls-13{letter-spacing:0}.cls-16{letter-spacing:-.07em}.cls-17{letter-spacing:-.02em}.cls-19,.cls-20{letter-spacing:0}.cls-5{fill:none}</style></defs><g id="_Слой_1-2" data-name="Слой 1"><rect width="937.92" height="275.63" x=".5" y="449.48" class="cls-4" rx="9" ry="9"/><path d="M.5 495.42h937.92M.5 541.36h937.92M.5 587.3h937.92M373.8 541.36v183.75M.5 633.24h937.92M.5 679.18h937.92" class="cls-5"/><text class="cls-3" transform="translate(18.99 750.79)"><tspan x="0" y="0">С</tspan><tspan x="10.96" y="0" class="cls-13">т</tspan><tspan x="18.4" y="0">оимость указана с учё</tspan><tspan x="195.76" y="0" class="cls-20">т</tspan><tspan x="203.2" y="0">ом </tspan><tspan x="227.88" y="0" class="cls-7">б</tspan><tspan x="237.26" y="0">умаги.</tspan><tspan x="0" y="19.2">Ск</tspan><tspan x="19.79" y="19.2" class="cls-7">р</tspan><tspan x="29.62" y="19.2" class="cls-19">у</tspan><tspan x="38.38" y="19.2" style="letter-spacing:-.02em">г</tspan><tspan x="45.34" y="19.2">ление у</tspan><tspan x="105.17" y="19.2" style="letter-spacing:-.02em">г</tspan><tspan x="112.13" y="19.2">лов штампов у визи</tspan><tspan x="268.41" y="19.2" class="cls-13">т</tspan><tspan x="275.85" y="19.2">ок и календарей - 2 </tspan><tspan x="437.03" y="19.2" class="cls-7">р</tspan><tspan x="446.86" y="19.2" class="cls-19">у</tspan><tspan x="455.63" y="19.2" style="letter-spacing:-.02em">б</tspan><tspan x="464.86" y="19.2">.</tspan></text><text class="cls-1" transform="translate(18.99 477.66)"><tspan x="0" y="0">Офсетная печать визитных кар</tspan><tspan x="254.86" y="0" class="cls-10">т</tspan><tspan x="262.52" y="0">очек</tspan></text><text class="cls-3" transform="translate(264.41 524.09)"><tspan x="0" y="0">(4+0/4+4), 50*90/50*85, мелованый кар</tspan><tspan x="307.93" y="0" class="cls-20">т</tspan><tspan x="315.37" y="0">он 270 г</tspan><tspan x="379.18" y="0" class="cls-8">/</tspan><tspan x="383.02" y="0" style="letter-spacing:0">м</tspan></text><text class="cls-1" transform="translate(135.16 570.71)"><tspan x="0" y="0" style="letter-spacing:0">К</tspan><tspan x="10.91" y="0" style="letter-spacing:-.01em">о</tspan><tspan x="20.45" y="0">личество</tspan></text><text class="cls-3" transform="translate(148.78 616.9)"><tspan x="0" y="0">1000 ш</tspan><tspan x="55.97" y="0" class="cls-16">т</tspan><tspan x="62.33" y="0">.</tspan></text><text class="cls-3" transform="translate(148.78 663.08)"><tspan x="0" y="0">2000 ш</tspan><tspan x="55.97" y="0" class="cls-16">т</tspan><tspan x="62.33" y="0">.</tspan></text><text class="cls-3" transform="translate(148.78 708.26)"><tspan x="0" y="0">3000 ш</tspan><tspan x="55.97" y="0" class="cls-16">т</tspan><tspan x="62.33" y="0">.</tspan></text><text class="cls-1" transform="translate(644.71 570.71)"><tspan x="0" y="0">Цена</tspan></text><text class="cls-3" transform="translate(597.34 616.9)"><tspan x="0" y="0">1200 </tspan><tspan x="42.67" y="0" class="cls-7">р</tspan><tspan x="52.5" y="0" class="cls-6">у</tspan><tspan x="61.26" y="0" class="cls-17">б</tspan><tspan x="70.5" y="0">. (1,2</tspan><tspan x="106.91" y="0" class="cls-8">/</tspan><tspan x="110.75" y="0" class="cls-19">шт)</tspan></text><text class="cls-3" transform="translate(597.34 663.08)"><tspan x="0" y="0">2400 </tspan><tspan x="42.67" y="0" class="cls-7">р</tspan><tspan x="52.5" y="0" class="cls-6">у</tspan><tspan x="61.26" y="0" class="cls-17">б</tspan><tspan x="70.5" y="0">. (1,2</tspan><tspan x="106.91" y="0" class="cls-8">/</tspan><tspan x="110.75" y="0" class="cls-19">шт)</tspan></text><text class="cls-3" transform="translate(597.34 708.26)"><tspan x="0" y="0">3600 </tspan><tspan x="42.67" y="0" class="cls-7">р</tspan><tspan x="52.5" y="0" class="cls-6">у</tspan><tspan x="61.26" y="0" class="cls-17">б</tspan><tspan x="70.5" y="0">. (1,2</tspan><tspan x="106.91" y="0" class="cls-8">/</tspan><tspan x="110.75" y="0" class="cls-19">шт)</tspan></text><rect width="937.93" height="367.51" x=".5" y=".5" class="cls-4" rx="10" ry="10"/><path d="M.5 46.44h937.93m-749.32 0v321.57M376.15 92.38v275.63M563.77 92.38v275.63M751.1 92.38v275.63M189.11 92.38h749.32M.5 138.32h937.93M.5 184.26h937.93M.5 230.2h937.93M.5 276.13h937.93M.5 322.07h937.93" class="cls-5"/><text class="cls-1" transform="translate(20.02 28.37)"><tspan x="0" y="0">Цифровая печать. Бумага 300 г</tspan><tspan x="256.83" y="0" style="letter-spacing:-.02em">р</tspan><tspan x="266.73" y="0">. (ма</tspan><tspan x="302.09" y="0" class="cls-10">т</tspan><tspan x="309.75" y="0">овая) , 50х90 мм</tspan></text><text class="cls-1" transform="translate(75.92 95.58)"><tspan x="0" y="0">Цвет</tspan></text><text class="cls-1" transform="translate(537.58 72.89)"><tspan x="0" y="0" style="letter-spacing:-.08em">Т</tspan><tspan x="8.66" y="0">ираж</tspan></text><text class="cls-1" transform="translate(242.2 119.84)"><tspan x="0" y="0">48-192 шт</tspan></text><text class="cls-3" transform="translate(268.88 166.41)"><tspan x="0" y="0">9 </tspan><tspan x="13.87" y="0" class="cls-12">р</tspan><tspan x="23.55" y="0">.</tspan></text><text class="cls-3" transform="translate(264.08 213.15)"><tspan x="0" y="0">11 </tspan><tspan x="23.47" y="0" class="cls-12">р</tspan><tspan x="33.15" y="0">.</tspan></text><text class="cls-3" transform="translate(264.08 257.89)"><tspan x="0" y="0">10 </tspan><tspan x="23.47" y="0" class="cls-12">р</tspan><tspan x="33.15" y="0">.</tspan></text><text class="cls-3" transform="translate(268.88 304.45)"><tspan x="0" y="0">7 </tspan><tspan x="13.87" y="0" class="cls-12">р</tspan><tspan x="23.55" y="0">.</tspan></text><text class="cls-3" transform="translate(268.88 350.32)"><tspan x="0" y="0">6 </tspan><tspan x="13.87" y="0" class="cls-12">р</tspan><tspan x="23.55" y="0">.</tspan></text><path d="M21.35 388.44v-11.28h9.63v11.28h-1.65v-9.9h-6.34v9.9h-1.65Zm12.24 3.45v-9.58c0-.31-.01-.63-.04-.95l-.09-.98h1.57l.16 1.82h-.18c.17-.61.51-1.09 1.03-1.44s1.13-.53 1.85-.53 1.34.17 1.87.5.95.81 1.24 1.43.44 1.37.44 2.24-.15 1.61-.44 2.24-.71 1.11-1.24 1.44-1.16.5-1.87.5-1.31-.17-1.83-.52-.86-.82-1.03-1.42h.18v5.25zm3.9-4.58c.7 0 1.27-.25 1.69-.74s.63-1.22.63-2.18-.21-1.68-.63-2.17-.98-.73-1.69-.73-1.27.24-1.69.73-.63 1.21-.63 2.17.21 1.69.63 2.18.98.74 1.69.74m5.97 1.13v-8.06h1.47v6.51h-.45l4.86-6.51h1.34v8.06h-1.46v-6.53h.46l-4.9 6.53h-1.34Zm13.94 0v-8.06h7.23v8.06h-1.6v-6.8H59v6.8zm13.45.14c-1.3 0-2.33-.37-3.07-1.1-.75-.74-1.12-1.75-1.12-3.06 0-.84.16-1.58.49-2.21s.78-1.12 1.36-1.46c.58-.35 1.26-.52 2.02-.52s1.39.16 1.9.48q.765.48 1.17 1.35c.405.87.4 1.27.4 2.06v.51h-6.08v-.93h4.98l-.27.21q0-1.2-.54-1.86c-.36-.44-.87-.66-1.54-.66-.75 0-1.32.26-1.73.78s-.61 1.23-.61 2.14v.16c0 .95.23 1.66.7 2.14q.69.72 1.98.72c.47 0 .91-.07 1.32-.2s.8-.35 1.18-.66l.53 1.1c-.37.33-.83.58-1.36.76s-1.1.26-1.7.26Zm10.29-.14v-3.12c-.3.16-.62.29-.96.38s-.7.14-1.09.14c-1.16 0-2.02-.27-2.58-.82s-.84-1.37-.84-2.47v-2.16h1.6v2.03c0 .74.17 1.27.5 1.6s.85.5 1.57.5q.54 0 .96-.12c.42-.12.55-.21.82-.38v-3.63h1.62v8.06h-1.58Zm7.15.14c-.71 0-1.34-.17-1.87-.5s-.95-.81-1.24-1.44-.44-1.38-.44-2.24.15-1.62.44-2.24.71-1.1 1.24-1.43 1.16-.5 1.87-.5 1.32.18 1.84.53.87.83 1.04 1.44h-.18l.16-1.82h1.57l-.09.98c-.03.32-.04.64-.04.95v6.13h-1.62v-1.79h.18c-.17.6-.52 1.07-1.05 1.42s-1.13.52-1.82.52Zm.4-1.26c.69 0 1.25-.25 1.67-.74s.63-1.22.63-2.18-.21-1.68-.63-2.17-.98-.73-1.67-.73-1.27.24-1.69.73-.63 1.21-.63 2.17.21 1.69.62 2.18c.42.49.98.74 1.7.74m8.11 1.12v-6.77h-2.85v-1.3h7.31v1.3H98.4v6.77zm5.76 0v-8.06h1.47v6.51h-.45l4.86-6.51h1.34v8.06h-1.46v-6.53h.46l-4.9 6.53h-1.34Zm13.94 0v-8.06h1.6v3.28h4.08v-3.28h1.6v8.06h-1.6v-3.52h-4.08v3.52zm12.86.14c-.71 0-1.34-.17-1.87-.5s-.95-.81-1.24-1.44-.44-1.38-.44-2.24.15-1.62.44-2.24.71-1.1 1.24-1.43 1.16-.5 1.87-.5 1.32.18 1.84.53.87.83 1.04 1.44h-.18l.16-1.82h1.57l-.09.98c-.03.32-.04.64-.04.95v6.13h-1.62v-1.79h.18c-.17.6-.52 1.07-1.05 1.42s-1.13.52-1.82.52Zm.4-1.26c.69 0 1.25-.25 1.67-.74s.63-1.22.63-2.18-.21-1.68-.63-2.17-.98-.73-1.67-.73-1.27.24-1.69.73-.63 1.21-.63 2.17.21 1.69.62 2.18c.42.49.98.74 1.7.74m9.86 3.2v-3.33h.9c.35-.53.61-1.16.77-1.87s.24-1.58.24-2.59v-2.35h5.9v6.82h1.3v3.33h-1.39v-2.08h-6.32v2.08h-1.39Zm2.38-3.31h3.9v-5.58h-2.99v1.42c0 .78-.08 1.54-.23 2.28-.16.74-.38 1.37-.68 1.88m8.32 1.23v-8.06h1.47v6.51h-.45l4.86-6.51h1.34v8.06h-1.46v-6.53h.46l-4.9 6.53h-1.34Zm12.47.14c-.7 0-1.37-.09-1.98-.26-.62-.18-1.13-.43-1.52-.76l.5-1.09c.39.31.85.54 1.36.7s1.06.23 1.65.23c.74 0 1.27-.11 1.61-.33s.5-.53.5-.94-.14-.69-.42-.9c-.28-.2-.68-.3-1.22-.3h-1.98v-1.15h1.82c.48 0 .85-.1 1.12-.3s.4-.49.4-.85c0-.38-.16-.68-.46-.9-.31-.21-.79-.32-1.44-.32-.55 0-1.06.07-1.52.21s-.9.35-1.31.62l-.48-1.04c.44-.33.96-.58 1.55-.74.6-.16 1.24-.24 1.94-.24 1.04 0 1.84.19 2.38.58s.82.95.82 1.67c0 .5-.17.93-.5 1.28-.34.35-.79.57-1.35.64v-.21c.65.03 1.17.23 1.56.58.39.36.58.83.58 1.42 0 .73-.31 1.3-.92 1.74-.61.43-1.51.65-2.68.65Zm8.64 0c-.71 0-1.34-.17-1.87-.5s-.95-.81-1.24-1.44-.44-1.38-.44-2.24.15-1.62.44-2.24.71-1.1 1.24-1.43 1.16-.5 1.87-.5 1.32.18 1.84.53.87.83 1.04 1.44h-.18l.16-1.82h1.57l-.09.98c-.03.32-.04.64-.04.95v6.13h-1.62v-1.79h.18c-.17.6-.52 1.07-1.05 1.42s-1.13.52-1.82.52Zm.4-1.26c.69 0 1.25-.25 1.67-.74s.63-1.22.63-2.18-.21-1.68-.63-2.17-.98-.73-1.67-.73-1.27.24-1.69.73-.63 1.21-.63 2.17.21 1.69.62 2.18c.42.49.98.74 1.7.74m6.38 1.12v-8.06h1.47v6.51h-.45l4.86-6.51h1.34v8.06h-1.46v-6.53h.46l-4.9 6.53h-1.34Zm3.62-8.8c-.49 0-.93-.08-1.31-.24s-.71-.4-.98-.71-.48-.7-.62-1.14l.9-.32c.18.5.44.87.77 1.11s.75.36 1.25.36.93-.11 1.26-.34c.33-.22.61-.6.84-1.12l.83.3q-.39 1.095-1.14 1.59c-.51.34-1.1.5-1.78.5Zm6.04 8.8v-8.06h1.6v3.28h4.08v-3.28h1.6v8.06h-1.6v-3.52h-4.08v3.52zm13.51.14c-1.3 0-2.33-.37-3.07-1.1-.75-.74-1.12-1.75-1.12-3.06 0-.84.16-1.58.49-2.21s.78-1.12 1.36-1.46c.58-.35 1.26-.52 2.02-.52s1.39.16 1.9.48q.765.48 1.17 1.35c.405.87.4 1.27.4 2.06v.51h-6.08v-.93h4.98l-.27.21q0-1.2-.54-1.86c-.36-.44-.87-.66-1.54-.66-.75 0-1.32.26-1.73.78s-.61 1.23-.61 2.14v.16c0 .95.23 1.66.7 2.14q.69.72 1.98.72c.47 0 .91-.07 1.32-.2s.8-.35 1.18-.66l.53 1.1c-.37.33-.83.58-1.36.76s-1.1.26-1.7.26Zm5.2 3.31v-9.58c0-.31-.01-.63-.04-.95l-.09-.98h1.57l.16 1.82H208c.17-.61.51-1.09 1.03-1.44s1.13-.53 1.85-.53 1.34.17 1.87.5.95.81 1.24 1.43.44 1.37.44 2.24-.15 1.61-.44 2.24-.71 1.11-1.24 1.44-1.16.5-1.87.5-1.31-.17-1.83-.52-.86-.82-1.03-1.42h.18v5.25zm3.9-4.58c.7 0 1.27-.25 1.69-.74s.63-1.22.63-2.18-.21-1.68-.63-2.17-.98-.73-1.69-.73-1.27.24-1.69.73-.63 1.21-.63 2.17.21 1.69.63 2.18.98.74 1.69.74m9.57 1.27c-.81 0-1.52-.17-2.12-.5-.6-.34-1.07-.82-1.39-1.46s-.49-1.39-.49-2.26.17-1.61.5-2.22a3.4 3.4 0 0 1 1.39-1.42c.6-.33 1.3-.49 2.11-.49.52 0 1.03.09 1.52.26s.9.42 1.22.74l-.53 1.14a3.1 3.1 0 0 0-2.1-.87c-.77 0-1.37.25-1.81.74q-.66.735-.66 2.13c0 1.395.22 1.66.66 2.16s1.04.75 1.81.75c.34 0 .7-.07 1.07-.2s.71-.35 1.02-.65l.53 1.14c-.33.32-.74.57-1.24.74-.5.18-.99.26-1.5.26Zm4.58-.14v-8.06h1.6v3.3h1.39l2.51-3.3h1.76l-3.01 3.97-.4-.51c.31.03.58.11.8.23q.33.18.66.54.315.345.66.93l1.68 2.91h-1.73l-1.44-2.46c-.16-.28-.32-.49-.46-.65-.15-.15-.32-.26-.51-.32s-.43-.09-.7-.09h-1.2v3.52h-1.6Zm12.35.14c-.8 0-1.49-.17-2.08-.5-.59-.34-1.04-.82-1.36-1.44s-.48-1.37-.48-2.23.16-1.61.48-2.23.77-1.1 1.36-1.44 1.28-.5 2.08-.5 1.5.17 2.09.5 1.05.82 1.38 1.44.49 1.37.49 2.23-.16 1.61-.49 2.23-.78 1.1-1.38 1.44-1.29.5-2.09.5m0-1.26c.7 0 1.26-.25 1.68-.74s.62-1.22.62-2.18-.21-1.68-.62-2.17-.98-.73-1.68-.73-1.25.24-1.66.73-.62 1.21-.62 2.17.21 1.69.62 2.18.97.74 1.67.74Zm5.95 1.12v-8.06h1.47v6.51h-.45l4.86-6.51h1.34v8.06h-1.46v-6.53h.46l-4.9 6.53h-1.34Zm3.62-8.8c-.49 0-.93-.08-1.31-.24s-.71-.4-.98-.71-.48-.7-.62-1.14l.9-.32c.18.5.44.87.77 1.11s.75.36 1.25.36.93-.11 1.26-.34c.33-.22.61-.6.84-1.12l.83.3q-.39 1.095-1.14 1.59c-.51.34-1.1.5-1.78.5Zm13.9 8.94c-1.22 0-2.18-.38-2.9-1.14s-1.08-1.87-1.08-3.34v-1.39c0-1.5.32-2.71.97-3.63q.975-1.38 3-1.86l2.94-.7.46 1.3-3.3.77c-.58.13-1.05.37-1.42.72s-.65.77-.84 1.25-.28.99-.28 1.54v.74h-.24c.13-.49.33-.91.62-1.26.28-.35.63-.62 1.06-.82.42-.2.89-.3 1.42-.3.69 0 1.3.16 1.82.48s.93.78 1.22 1.38.44 1.31.44 2.14-.16 1.59-.48 2.21-.77 1.09-1.35 1.42-1.27.5-2.06.5Zm-.05-1.25c.73 0 1.29-.24 1.7-.71s.62-1.18.62-2.1-.21-1.62-.62-2.1c-.42-.48-.98-.72-1.7-.72s-1.28.24-1.7.71-.62 1.15-.62 2.02c0 .96.21 1.68.62 2.17s.98.73 1.7.73m5.66 4.74-.38-1.31c.5-.11.92-.23 1.26-.38s.62-.34.84-.58.42-.55.58-.92l.4-.94-.03.66-3.5-8.21h1.73l2.72 6.72h-.43l2.72-6.72h1.66l-3.7 8.64c-.24.53-.49.98-.75 1.34-.27.36-.55.66-.86.88s-.65.4-1.02.53-.78.23-1.22.3Zm8.95-3.63v-8.06h1.34l2.91 5.15 2.91-5.15h1.34v8.06h-1.42v-6.26h.35l-2.8 4.96h-.77l-2.8-4.96h.35v6.26H275Zm14.09.14c-.71 0-1.34-.17-1.87-.5s-.95-.81-1.24-1.44-.44-1.38-.44-2.24.15-1.62.44-2.24.71-1.1 1.24-1.43 1.16-.5 1.87-.5 1.32.18 1.84.53.87.83 1.04 1.44h-.18l.16-1.82h1.57l-.09.98c-.03.32-.04.64-.04.95v6.13h-1.62v-1.79h.18c-.17.6-.52 1.07-1.05 1.42s-1.13.52-1.82.52Zm.4-1.26c.69 0 1.25-.25 1.67-.74s.63-1.22.63-2.18-.21-1.68-.63-2.17-.98-.73-1.67-.73-1.27.24-1.69.73-.63 1.21-.63 2.17.21 1.69.62 2.18c.42.49.98.74 1.7.74m6.39 1.12v-8.06h5.81v1.3h-4.19v6.77h-1.62Zm11.07.14c-1.3 0-2.33-.37-3.07-1.1-.75-.74-1.12-1.75-1.12-3.06 0-.84.16-1.58.49-2.21s.78-1.12 1.36-1.46c.58-.35 1.26-.52 2.02-.52s1.39.16 1.9.48q.765.48 1.17 1.35c.405.87.4 1.27.4 2.06v.51h-6.08v-.93h4.98l-.27.21q0-1.2-.54-1.86c-.36-.44-.87-.66-1.54-.66-.75 0-1.32.26-1.73.78s-.61 1.23-.61 2.14v.16c0 .95.23 1.66.7 2.14q.69.72 1.98.72c.47 0 .91-.07 1.32-.2s.8-.35 1.18-.66l.53 1.1c-.37.33-.83.58-1.36.76s-1.1.26-1.7.26Zm9.41-.14v-8.06h1.6v3.28h4.08v-3.28h1.6v8.06h-1.6v-3.52h-4.08v3.52zm12.86.14c-.71 0-1.34-.17-1.87-.5s-.95-.81-1.24-1.44-.44-1.38-.44-2.24.15-1.62.44-2.24.71-1.1 1.24-1.43 1.16-.5 1.87-.5 1.32.18 1.84.53.87.83 1.04 1.44h-.18l.16-1.82h1.57l-.09.98c-.03.32-.04.64-.04.95v6.13h-1.62v-1.79h.18c-.17.6-.52 1.07-1.05 1.42s-1.13.52-1.82.52Zm.4-1.26c.69 0 1.25-.25 1.67-.74s.63-1.22.63-2.18-.21-1.68-.63-2.17-.98-.73-1.67-.73-1.27.24-1.69.73-.63 1.21-.63 2.17.21 1.69.62 2.18c.42.49.98.74 1.7.74m13.36 3.2v-2.08h-6.98v-8.06h1.6v6.8h3.86v-6.8h1.58v6.8h1.3v3.34zm6.77-1.94c-1.3 0-2.33-.37-3.07-1.1-.75-.74-1.12-1.75-1.12-3.06 0-.84.16-1.58.49-2.21s.78-1.12 1.36-1.46c.58-.35 1.26-.52 2.02-.52s1.39.16 1.9.48q.765.48 1.17 1.35c.405.87.4 1.27.4 2.06v.51h-6.08v-.93h4.98l-.27.21q0-1.2-.54-1.86c-.36-.44-.87-.66-1.54-.66-.75 0-1.32.26-1.73.78s-.61 1.23-.61 2.14v.16c0 .95.23 1.66.7 2.14q.69.72 1.98.72c.47 0 .91-.07 1.32-.2s.8-.35 1.18-.66l.53 1.1c-.37.33-.83.58-1.36.76s-1.1.26-1.7.26Zm5.14-.14v-8.06h1.6v3.28h4.08v-3.28h1.6v8.06h-1.6v-3.52h-4.08v3.52zm9.71 0v-8.06h1.6v3.3h1.39l2.51-3.3h1.76l-3.01 3.97-.4-.51c.31.03.58.11.8.23q.33.18.66.54.315.345.66.93l1.68 2.91h-1.73l-1.44-2.46c-.16-.28-.32-.49-.46-.65-.15-.15-.32-.26-.51-.32s-.43-.09-.7-.09h-1.2v3.52h-1.6Zm11.98.14c-.71 0-1.34-.17-1.87-.5s-.95-.81-1.24-1.44-.44-1.38-.44-2.24.15-1.62.44-2.24.71-1.1 1.24-1.43 1.16-.5 1.87-.5 1.32.18 1.84.53.87.83 1.04 1.44h-.18l.16-1.82h1.57l-.09.98c-.03.32-.04.64-.04.95v6.13h-1.62v-1.79h.18c-.17.6-.52 1.07-1.05 1.42s-1.13.52-1.82.52Zm.4-1.26c.69 0 1.25-.25 1.67-.74s.63-1.22.63-2.18-.21-1.68-.63-2.17-.98-.73-1.67-.73-1.27.24-1.69.73-.63 1.21-.63 2.17.21 1.69.62 2.18c.42.49.98.74 1.7.74m13.44 1.26c-.6 0-1.19-.12-1.79-.36s-1.1-.56-1.5-.95l.59-1.26c.39.38.83.67 1.3.87s.94.3 1.42.3c1.02 0 1.81-.36 2.36-1.08s.82-1.79.82-3.22v-1.36h.16a3.2 3.2 0 0 1-.54 1.49c-.3.43-.67.75-1.13.98-.45.22-.96.34-1.53.34-.66 0-1.26-.16-1.78-.46-.53-.31-.94-.74-1.23-1.28s-.44-1.16-.44-1.84c0-.73.16-1.37.48-1.93s.76-1 1.31-1.31 1.19-.47 1.92-.47c1.41 0 2.49.48 3.24 1.45s1.13 2.33 1.13 4.09c0 1.29-.19 2.38-.57 3.28s-.93 1.58-1.64 2.05-1.57.7-2.58.7Zm.53-5.63c.45 0 .84-.1 1.18-.29s.61-.46.8-.81.29-.74.29-1.19-.1-.86-.29-1.21-.46-.62-.8-.82-.74-.3-1.18-.3-.84.1-1.18.3-.6.47-.79.82-.29.75-.29 1.21.1.85.29 1.19c.19.35.46.62.79.81.34.19.73.29 1.18.29m6.83 7.46-.7-.54c.31-.33.52-.63.63-.91s.17-.57.17-.86l.35.35h-1.26v-1.9h1.9v1.3c0 .48-.08.93-.24 1.34s-.44.82-.85 1.24Zm7.99-1.97v-2.34h-5.22v-1.18l5.49-7.76h1.34v7.65h1.68v1.3h-1.68v2.34h-1.62Zm0-3.63v-5.68h.37l-4.29 6.08v-.4zm9.19 7.08v-9.58c0-.31-.01-.63-.04-.95l-.09-.98h1.57l.16 1.82h-.18c.17-.61.51-1.09 1.03-1.44s1.13-.53 1.85-.53 1.34.17 1.87.5.95.81 1.24 1.43.44 1.37.44 2.24-.15 1.61-.44 2.24-.71 1.11-1.24 1.44-1.16.5-1.87.5-1.31-.17-1.83-.52-.86-.82-1.03-1.42h.18v5.25zm3.9-4.58c.7 0 1.27-.25 1.69-.74s.63-1.22.63-2.18-.21-1.68-.63-2.17-.98-.73-1.69-.73-1.27.24-1.69.73-.63 1.21-.63 2.17.21 1.69.63 2.18.98.74 1.69.74m5.45 1.13v-1.9h1.9v1.9zm-402.97 19.2v-11.28h7.81v1.31h-6.21v3.55h3.44c1.23 0 2.18.27 2.86.8s1.02 1.33 1.02 2.38-.34 1.86-1.02 2.41-1.63.82-2.86.82h-5.04Zm1.6-1.31h3.26c.83 0 1.45-.16 1.84-.47s.59-.79.59-1.43-.2-1.12-.59-1.42c-.4-.31-1.01-.46-1.84-.46h-3.26v3.79Zm9.02 4.94-.38-1.31c.5-.11.92-.23 1.26-.38s.62-.34.84-.58.42-.55.58-.92l.4-.94-.03.66-3.5-8.21h1.73l2.72 6.72h-.43l2.72-6.72h1.66l-3.7 8.64c-.24.53-.49.98-.75 1.34-.27.36-.55.66-.86.88s-.65.4-1.02.53-.78.23-1.22.3Zm8.95-3.63v-8.06h1.34l2.91 5.15 2.91-5.15h1.34v8.06H48v-6.26h.35l-2.8 4.96h-.77l-2.8-4.96h.35v6.26h-1.42Zm14.09.14c-.71 0-1.34-.17-1.87-.5s-.95-.81-1.24-1.44-.44-1.38-.44-2.24.15-1.62.44-2.24.71-1.1 1.24-1.43 1.16-.5 1.87-.5 1.32.18 1.84.53.87.83 1.04 1.44h-.18l.16-1.82h1.57l-.09.98c-.03.32-.04.64-.04.95v6.13h-1.62v-1.79h.18c-.17.6-.52 1.07-1.05 1.42s-1.13.52-1.82.52Zm.4-1.26c.69 0 1.25-.25 1.67-.74s.63-1.22.63-2.18-.21-1.68-.63-2.17-.98-.73-1.67-.73-1.27.24-1.69.73-.63 1.21-.63 2.17.21 1.69.62 2.18c.42.49.98.74 1.7.74m6.39 1.12v-8.06h5.81v1.3h-4.19v6.77H61.8Zm10.43.14c-.71 0-1.34-.17-1.87-.5s-.95-.81-1.24-1.44-.44-1.38-.44-2.24.15-1.62.44-2.24.71-1.1 1.24-1.43 1.16-.5 1.87-.5 1.32.18 1.84.53.87.83 1.04 1.44h-.18l.16-1.82h1.57l-.09.98c-.03.32-.04.64-.04.95v6.13h-1.62v-1.79h.18c-.17.6-.52 1.07-1.05 1.42s-1.13.52-1.82.52Zm.4-1.26c.69 0 1.25-.25 1.67-.74s.63-1.22.63-2.18-.21-1.68-.63-2.17-.98-.73-1.67-.73-1.27.24-1.69.73-.63 1.21-.63 2.17.21 1.69.62 2.18c.42.49.98.74 1.7.74m13.76 1.26c-.88 0-1.54-.24-1.98-.71s-.67-1.19-.67-2.14v-4.11h-1.57v-1.25h1.57v-2.13l1.62-.43v2.56h2.24v1.25h-2.24v3.97c0 .6.11 1.02.32 1.28s.52.38.93.38q.3 0 .54-.06c.15-.04.3-.08.42-.14v1.31c-.16.06-.35.11-.56.15s-.42.06-.61.06Zm6.05 0c-.8 0-1.49-.17-2.08-.5-.59-.34-1.04-.82-1.36-1.44s-.48-1.37-.48-2.23.16-1.61.48-2.23.77-1.1 1.36-1.44 1.28-.5 2.08-.5 1.5.17 2.09.5q.885.51 1.38 1.44c.33.62.49 1.37.49 2.23s-.16 1.61-.49 2.23-.78 1.1-1.38 1.44c-.59.34-1.29.5-2.09.5m0-1.26c.7 0 1.26-.25 1.68-.74s.62-1.22.62-2.18-.21-1.68-.62-2.17-.98-.73-1.68-.73-1.25.24-1.66.73-.62 1.21-.62 2.17.21 1.69.62 2.18.97.74 1.67.74Zm8.7 1.26c-.97 0-1.7-.26-2.18-.79-.49-.53-.73-1.34-.73-2.44v-4.98h1.62v4.94c0 .67.14 1.17.42 1.49q.42.48 1.26.48c.64 0 1.16-.21 1.55-.64s.59-.99.59-1.7v-4.58h1.62v8.06h-1.57v-1.73h.21c-.22.6-.58 1.06-1.07 1.38-.49.33-1.06.49-1.71.49Zm10.05 0c-.81 0-1.52-.17-2.12-.5s-1.07-.82-1.39-1.46-.49-1.39-.49-2.26.17-1.61.5-2.22a3.4 3.4 0 0 1 1.39-1.42c.6-.33 1.3-.49 2.11-.49.52 0 1.03.09 1.52.26.49.18.9.42 1.22.74l-.53 1.14a3.1 3.1 0 0 0-2.1-.87c-.77 0-1.37.25-1.81.74q-.66.735-.66 2.13c0 1.395.22 1.66.66 2.16s1.04.75 1.81.75c.34 0 .7-.07 1.07-.2s.71-.35 1.02-.65l.53 1.14c-.33.32-.74.57-1.24.74s-.99.26-1.5.26Zm4.44-.14v-11.78h1.62v5.42h-.22q.345-.915 1.14-1.38c.795-.465 1.12-.47 1.81-.47.96 0 1.67.26 2.14.79s.7 1.33.7 2.39v5.02h-1.62v-4.93c0-.69-.14-1.2-.41-1.51s-.7-.47-1.29-.47c-.68 0-1.23.21-1.64.63s-.62.98-.62 1.67v4.61h-1.62Zm13.22.14c-1.3 0-2.33-.37-3.07-1.1-.75-.74-1.12-1.75-1.12-3.06 0-.84.16-1.58.49-2.21s.78-1.12 1.36-1.46c.58-.35 1.26-.52 2.02-.52s1.39.16 1.9.48q.765.48 1.17 1.35c.405.87.4 1.27.4 2.06v.51h-6.08v-.93h4.98l-.27.21q0-1.2-.54-1.86c-.36-.44-.87-.66-1.54-.66-.75 0-1.32.26-1.73.78s-.61 1.23-.61 2.14v.16c0 .95.23 1.66.7 2.14q.69.72 1.98.72c.47 0 .91-.07 1.32-.2s.8-.35 1.18-.66l.53 1.1c-.37.33-.83.58-1.36.76s-1.1.26-1.7.26Zm12.82 0c-.81 0-1.52-.17-2.12-.5s-1.07-.82-1.39-1.46-.49-1.39-.49-2.26.17-1.61.5-2.22a3.4 3.4 0 0 1 1.39-1.42c.6-.33 1.3-.49 2.11-.49.52 0 1.03.09 1.52.26.49.18.9.42 1.22.74l-.53 1.14a3.1 3.1 0 0 0-2.1-.87c-.77 0-1.37.25-1.81.74q-.66.735-.66 2.13c0 1.395.22 1.66.66 2.16s1.04.75 1.81.75c.34 0 .7-.07 1.07-.2s.71-.35 1.02-.65l.53 1.14c-.33.32-.74.57-1.24.74s-.99.26-1.5.26Zm7.74 0c-.8 0-1.49-.17-2.08-.5-.59-.34-1.04-.82-1.36-1.44s-.48-1.37-.48-2.23.16-1.61.48-2.23.77-1.1 1.36-1.44 1.28-.5 2.08-.5 1.5.17 2.09.5q.885.51 1.38 1.44c.33.62.49 1.37.49 2.23s-.16 1.61-.49 2.23-.78 1.1-1.38 1.44c-.59.34-1.29.5-2.09.5m0-1.26c.7 0 1.26-.25 1.68-.74s.62-1.22.62-2.18-.21-1.68-.62-2.17-.98-.73-1.68-.73-1.25.24-1.66.73-.62 1.21-.62 2.17.21 1.69.62 2.18.97.74 1.67.74Zm8.06 1.12-3.46-8.06h1.73l2.72 6.74H158l2.77-6.74h1.65l-3.47 8.06h-1.47Zm9.81.14c-1.3 0-2.33-.37-3.07-1.1-.75-.74-1.12-1.75-1.12-3.06 0-.84.16-1.58.49-2.21s.78-1.12 1.36-1.46c.58-.35 1.26-.52 2.02-.52s1.39.16 1.9.48q.765.48 1.17 1.35c.405.87.4 1.27.4 2.06v.51h-6.08v-.93h4.98l-.27.21q0-1.2-.54-1.86c-.36-.44-.87-.66-1.54-.66-.75 0-1.32.26-1.73.78s-.61 1.23-.61 2.14v.16c0 .95.23 1.66.7 2.14q.69.72 1.98.72c.47 0 .91-.07 1.32-.2s.8-.35 1.18-.66l.53 1.1c-.37.33-.83.58-1.36.76s-1.1.26-1.7.26Zm4.98-.14v-6.06c0-.33 0-.66-.02-1s-.04-.67-.07-1h1.57l.18 2.08h-.26c.11-.5.29-.92.54-1.25.26-.33.57-.58.94-.74s.75-.24 1.16-.24c.17 0 .31 0 .43.02s.23.04.35.07l-.02 1.44c-.18-.08-.34-.12-.47-.14s-.3-.02-.49-.02c-.47 0-.87.1-1.2.31q-.495.315-.75.84c-.17.35-.26.73-.26 1.14v4.54h-1.63Zm11.07 0v-1.39h2.62v-8.48h.83l-3.2 1.95v-1.6l2.83-1.76h1.2v9.89h2.46v1.39h-6.75Zm9.01 0v-1.23l3.87-4.05c.5-.52.87-1.01 1.12-1.47s.37-.93.37-1.42q0-.915-.57-1.38c-.38-.31-.93-.46-1.64-.46q-.855 0-1.59.3c-.5.2-.97.51-1.43.93l-.58-1.26c.45-.42 1-.75 1.67-1a6 6 0 0 1 2.12-.38c1.17 0 2.08.27 2.71.8s.95 1.3.95 2.29c0 .7-.17 1.38-.51 2.02-.34.65-.85 1.31-1.54 1.99l-3.34 3.38v-.45h5.86v1.39zm10.03 1.97-.7-.54c.31-.33.52-.63.63-.91s.17-.57.17-.86l.35.35h-1.26v-1.9h1.9v1.3c0 .48-.08.93-.24 1.34s-.44.82-.85 1.24Zm6.99-1.83a6.5 6.5 0 0 1-2.8-.62c-.42-.2-.78-.43-1.09-.71l.58-1.26c.51.39 1.04.69 1.58.89s1.11.3 1.7.3c.76 0 1.35-.2 1.78-.59s.65-.92.65-1.58-.21-1.23-.62-1.66c-.41-.42-.98-.63-1.7-.63-.5 0-.96.1-1.37.3q-.615.3-1.08.93h-1.15v-6.78h6.83v1.39h-5.25v4.06H207c.29-.41.67-.72 1.16-.94a3.9 3.9 0 0 1 1.64-.34q1.08 0 1.89.45c.81.45.95.71 1.24 1.25.29.53.44 1.16.44 1.89s-.16 1.36-.49 1.91-.79.98-1.39 1.29-1.31.46-2.14.46Zm10.19 3.32v-9.58c0-.31-.01-.63-.04-.95l-.09-.98h1.57l.16 1.82h-.18c.17-.61.51-1.09 1.03-1.44s1.13-.53 1.85-.53 1.34.17 1.87.5.95.81 1.24 1.43.44 1.37.44 2.24-.15 1.61-.44 2.24-.71 1.11-1.24 1.44-1.16.5-1.87.5-1.31-.17-1.83-.52-.86-.82-1.03-1.42h.18v5.25zm3.9-4.58c.7 0 1.27-.25 1.69-.74s.63-1.22.63-2.18-.21-1.68-.63-2.17-.98-.73-1.69-.73-1.27.24-1.69.73-.63 1.21-.63 2.17.21 1.69.63 2.18.98.74 1.69.74m5.45 1.12v-1.9h1.9v1.9zm4.88.91h-1.36l4.19-12.91h1.36zm9.42-.91v-11.28h7.81v1.31h-6.21v3.55h3.44c1.23 0 2.18.27 2.86.8s1.02 1.33 1.02 2.38-.34 1.86-1.02 2.41-1.63.82-2.86.82h-5.04Zm1.6-1.31h3.26c.83 0 1.45-.16 1.84-.47s.59-.79.59-1.43-.2-1.12-.59-1.42c-.39-.31-1.01-.46-1.84-.46h-3.26v3.79Zm9.03 4.94-.38-1.31c.5-.11.92-.23 1.26-.38s.62-.34.84-.58.42-.55.58-.92l.4-.94-.03.66-3.5-8.21h1.73l2.72 6.72h-.43l2.72-6.72h1.66l-3.7 8.64c-.24.53-.49.98-.75 1.34-.27.36-.55.66-.86.88s-.65.4-1.02.53-.78.23-1.22.3Zm8.94-3.63v-8.06h1.34l2.91 5.15 2.91-5.15h1.34v8.06h-1.42v-6.26h.35l-2.8 4.96h-.77l-2.8-4.96h.35v6.26h-1.42Zm10.94 0v-8.06h5.81v1.3h-4.19v6.77h-1.62Zm10.44.14c-.71 0-1.34-.17-1.87-.5s-.95-.81-1.24-1.44-.44-1.38-.44-2.24.15-1.62.44-2.24.71-1.1 1.24-1.43 1.16-.5 1.87-.5 1.32.18 1.84.53.87.83 1.04 1.44h-.18l.16-1.82h1.57l-.09.98c-.03.32-.04.64-.04.95v6.13h-1.62v-1.79h.18c-.17.6-.52 1.07-1.05 1.42s-1.13.52-1.82.52Zm.4-1.26c.69 0 1.25-.25 1.67-.74s.63-1.22.63-2.18-.21-1.68-.63-2.17-.98-.73-1.67-.73-1.27.24-1.69.73-.63 1.21-.63 2.17.21 1.69.62 2.18c.42.49.98.74 1.7.74m9.53 1.26c-.71 0-1.34-.17-1.87-.5s-.95-.81-1.24-1.44-.44-1.38-.44-2.24.15-1.62.44-2.24.71-1.1 1.24-1.43 1.16-.5 1.87-.5 1.32.18 1.84.53.87.83 1.04 1.44h-.18l.16-1.82h1.57l-.09.98c-.03.32-.04.64-.04.95v6.13h-1.62v-1.79h.18c-.17.6-.52 1.07-1.05 1.42s-1.13.52-1.82.52Zm.4-1.26c.69 0 1.25-.25 1.67-.74s.63-1.22.63-2.18-.21-1.68-.63-2.17-.98-.73-1.67-.73-1.27.24-1.69.73-.63 1.21-.63 2.17.21 1.69.62 2.18c.42.49.98.74 1.7.74m10.32 1.33-.54-1.28c.36-.15.67-.34.92-.57s.45-.52.59-.89c.14-.36.25-.81.31-1.34s.1-1.18.1-1.94v-2.26h6.08v8.06h-1.6v-6.8h-2.99v1.04c0 1.22-.1 2.22-.29 3.02s-.5 1.43-.92 1.9c-.42.46-.97.81-1.66 1.05Zm13.68-.07c-1.3 0-2.33-.37-3.07-1.1-.75-.74-1.12-1.75-1.12-3.06 0-.84.16-1.58.49-2.21s.78-1.12 1.36-1.46c.58-.35 1.26-.52 2.02-.52s1.39.16 1.9.48q.765.48 1.17 1.35c.405.87.4 1.27.4 2.06v.51h-6.08v-.93h4.98l-.27.21q0-1.2-.54-1.86c-.36-.44-.87-.66-1.54-.66-.75 0-1.32.26-1.73.78s-.61 1.23-.61 2.14v.16c0 .95.23 1.66.7 2.14q.69.72 1.98.72c.47 0 .91-.07 1.32-.2s.8-.35 1.18-.66l.53 1.1c-.37.33-.83.58-1.36.76s-1.1.26-1.7.26Zm-2.56-9.81v-1.58h1.58v1.58zm2.9 0v-1.58h1.58v1.58zm4.8 9.67v-8.06h1.6v3.28h4.08v-3.28h1.6v8.06h-1.6v-3.52h-4.08v3.52zm18.72 0v-2.34h-5.22v-1.18l5.49-7.76h1.34v7.65h1.68v1.3h-1.68v2.34h-1.62Zm0-3.63v-5.68h.37l-4.29 6.08v-.4zm9.2 7.09v-9.58c0-.31-.01-.63-.04-.95l-.09-.98h1.57l.16 1.82h-.18c.17-.61.51-1.09 1.03-1.44s1.13-.53 1.85-.53 1.34.17 1.87.5.95.81 1.24 1.43.44 1.37.44 2.24-.15 1.61-.44 2.24-.71 1.11-1.24 1.44-1.16.5-1.87.5-1.31-.17-1.83-.52-.86-.82-1.03-1.42h.18v5.25zm3.9-4.58c.7 0 1.27-.25 1.69-.74s.63-1.22.63-2.18-.21-1.68-.63-2.17-.98-.73-1.69-.73-1.27.24-1.69.73-.63 1.21-.63 2.17.21 1.69.63 2.18.98.74 1.69.74m5.44 1.12v-1.9h1.9v1.9z" style="fill:#27625f;stroke-width:0"/><text class="cls-1" transform="translate(424.4 119.84)"><tspan x="0" y="0">192-384 шт</tspan></text><text class="cls-3" transform="translate(444.38 166.41)"><tspan x="0" y="0">8,50 </tspan><tspan x="36.86" y="0" class="cls-12">р</tspan><tspan x="46.54" y="0" class="cls-19">.</tspan></text><text class="cls-3" transform="translate(451.08 213.15)"><tspan x="0" y="0">10 </tspan><tspan x="23.47" y="0" class="cls-12">р</tspan><tspan x="33.15" y="0">.</tspan></text><text class="cls-3" transform="translate(455.88 257.89)"><tspan x="0" y="0">9 </tspan><tspan x="13.87" y="0" class="cls-12">р</tspan><tspan x="23.55" y="0">.</tspan></text><text class="cls-3" transform="translate(444.38 304.45)"><tspan x="0" y="0">6,50 </tspan><tspan x="36.86" y="0" class="cls-12">р</tspan><tspan x="46.54" y="0" class="cls-19">.</tspan></text><text class="cls-3" transform="translate(444.38 350.32)"><tspan x="0" y="0">5,50 </tspan><tspan x="36.86" y="0" class="cls-12">р</tspan><tspan x="46.54" y="0" class="cls-19">.</tspan></text><text class="cls-1" transform="translate(612.44 119.84)"><tspan x="0" y="0">408-480 шт</tspan></text><text class="cls-3" transform="translate(643.92 166.41)"><tspan x="0" y="0">8 </tspan><tspan x="13.87" y="0" class="cls-12">р</tspan><tspan x="23.55" y="0">.</tspan></text><text class="cls-3" transform="translate(643.92 213.15)"><tspan x="0" y="0">9 </tspan><tspan x="13.87" y="0" class="cls-12">р</tspan><tspan x="23.55" y="0">.</tspan></text><text class="cls-3" transform="translate(643.92 257.89)"><tspan x="0" y="0">8 </tspan><tspan x="13.87" y="0" class="cls-12">р</tspan><tspan x="23.55" y="0">.</tspan></text><text class="cls-3" transform="translate(632.42 304.45)"><tspan x="0" y="0">5,50 </tspan><tspan x="36.86" y="0" class="cls-12">р</tspan><tspan x="46.54" y="0" class="cls-19">.</tspan></text><text class="cls-3" transform="translate(632.42 350.32)"><tspan x="0" y="0">4,80 </tspan><tspan x="36.86" y="0" class="cls-12">р</tspan><tspan x="46.54" y="0" class="cls-19">.</tspan></text><text class="cls-1" transform="translate(812.94 119.84)"><tspan x="0" y="0">&lt;504 шт</tspan></text><text class="cls-3" transform="translate(831.31 166.41)"><tspan x="0" y="0">7 </tspan><tspan x="13.87" y="0" class="cls-12">р</tspan><tspan x="23.55" y="0">.</tspan></text><text class="cls-3" transform="translate(831.31 213.15)"><tspan x="0" y="0">8 </tspan><tspan x="13.87" y="0" class="cls-12">р</tspan><tspan x="23.55" y="0">.</tspan></text><text class="cls-3" transform="translate(831.31 257.89)"><tspan x="0" y="0">7 </tspan><tspan x="13.87" y="0" class="cls-12">р</tspan><tspan x="23.55" y="0">.</tspan></text><text class="cls-3" transform="translate(819.82 304.45)"><tspan x="0" y="0">5,50 </tspan><tspan x="36.86" y="0" class="cls-12">р</tspan><tspan x="46.54" y="0" class="cls-19">.</tspan></text><text class="cls-3" transform="translate(819.82 350.32)"><tspan x="0" y="0">4,50 </tspan><tspan x="36.86" y="0" class="cls-12">р</tspan><tspan x="46.54" y="0" class="cls-19">.</tspan></text><text class="cls-1" transform="translate(81.09 166.41)"><tspan x="0" y="0">4+0</tspan></text><text class="cls-1" transform="translate(81.09 257.89)"><tspan x="0" y="0">4+1</tspan></text><text class="cls-1" transform="translate(81.09 213.15)"><tspan x="0" y="0">4+4</tspan></text><text class="cls-1" transform="translate(81.09 304.45)"><tspan x="0" y="0">1+1</tspan></text><text class="cls-1" transform="translate(81.09 350.32)"><tspan x="0" y="0">1+0</tspan></text></g></svg>