<svg xmlns="http://www.w3.org/2000/svg" data-name="Слой 2" viewBox="0 0 938.93 255.46"><g data-name="Слой 1"><rect width="937.93" height="229.7" x=".5" y=".5" rx="10" ry="10" style="fill:#fff;stroke:#a0b6b5;stroke-miterlimit:10"/><path d="M.5 46.44h937.93M.5 92.38h937.93M211.02 46.44V230.2M.5 46.44l210.52 45.94m103.91-45.94V230.2m103.9-183.76V230.2m103.9-183.76V230.2M626.64 46.44V230.2m103.9-183.76V230.2M.5 138.32h937.93m-727.41 45.94h727.41" style="stroke:#a0b6b5;stroke-miterlimit:10;fill:none"/><path d="M19.38 29.18 24.02 23v.88l-4.48-5.98h2.42l3.25 4.5h-.66l3.23-4.5h2.43l-4.5 5.98V23l4.66 6.18h-2.43l-3.42-4.7h.7l-3.42 4.7zm15.59.16q-1.245 0-2.16-.51c-.61-.34-1.08-.83-1.42-1.46s-.5-1.38-.5-2.24.17-1.61.5-2.23c.34-.62.81-1.11 1.42-1.45q.915-.51 2.16-.51c1.245 0 1.55.17 2.17.51.61.34 1.09.82 1.43 1.45.34.62.5 1.37.5 2.23s-.17 1.61-.5 2.24a3.53 3.53 0 0 1-1.43 1.46c-.61.34-1.34.51-2.17.51m0-1.54q.945 0 1.5-.66c.38-.44.56-1.11.56-2.01s-.19-1.56-.56-2q-.555-.66-1.5-.66c-.945 0-1.13.22-1.5.66s-.56 1.1-.56 2 .19 1.57.56 2.01.88.66 1.5.66m5.61 1.6-.62-1.57c.35-.13.65-.3.89-.5.24-.21.43-.47.58-.8.14-.32.25-.73.31-1.21.06-.49.1-1.06.1-1.74V21.1h6.43v8.08h-1.98v-6.54h-2.62v1.01c0 1.16-.11 2.14-.32 2.92s-.54 1.41-.99 1.86c-.45.46-1.04.78-1.76.98Zm13.73-.06c-.83 0-1.56-.17-2.18-.51s-1.11-.83-1.45-1.46-.51-1.39-.51-2.26.17-1.62.52-2.24.83-1.09 1.45-1.42 1.34-.5 2.18-.5c.53 0 1.05.08 1.56.25s.92.4 1.24.71l-.61 1.39a2.8 2.8 0 0 0-.97-.6c-.36-.13-.71-.2-1.05-.2-.71 0-1.27.22-1.67.67q-.6.675-.6 1.95c0 1.275.2 1.51.6 1.97s.96.69 1.67.69c.33 0 .67-.06 1.03-.19s.69-.33.98-.59l.61 1.38q-.495.465-1.26.72c-.51.17-1.02.26-1.54.26Zm6.26-.16v-6.51H57.8V21.1h7.54v1.57h-2.78v6.51h-1.98Zm6 0V21.1h1.98v2.7h2.13c1.08 0 1.89.23 2.43.68s.82 1.11.82 1.96c0 .55-.13 1.04-.38 1.45s-.63.73-1.11.95-1.07.34-1.75.34h-4.11Zm1.98-1.31h1.86c.54 0 .96-.11 1.25-.34s.43-.58.43-1.05-.14-.81-.42-1.03q-.42-.33-1.26-.33h-1.86zm6.38 1.31V21.1h1.98v8.08zm-56 52.77c-1.17 0-2.18-.24-3.02-.71s-1.48-1.15-1.93-2.02-.67-1.9-.67-3.08.22-2.21.67-3.07 1.09-1.53 1.93-2.01 1.84-.71 3.02-.71c.79 0 1.5.11 2.14.34.63.22 1.18.55 1.64.99l-.67 1.63c-.5-.41-.98-.7-1.45-.87-.46-.18-.99-.26-1.59-.26-1.14 0-2.01.34-2.62 1.03s-.9 1.67-.9 2.94.3 2.25.9 2.94 1.47 1.04 2.62 1.04c.6 0 1.13-.09 1.59-.26.46-.18.95-.47 1.45-.89l.67 1.63c-.46.43-1.01.76-1.64.99s-1.35.35-2.14.35m7.34-.16v-6.51H23.5v-1.57h7.54v1.57h-2.78v6.51h-1.98Zm9.63.16q-1.245 0-2.16-.51c-.61-.34-1.08-.83-1.42-1.46s-.5-1.38-.5-2.24.17-1.61.5-2.23c.34-.62.81-1.11 1.42-1.45q.915-.51 2.16-.51c1.245 0 1.55.17 2.17.51.61.34 1.09.82 1.42 1.45.34.62.5 1.37.5 2.23s-.17 1.61-.5 2.24-.81 1.11-1.42 1.46c-.61.34-1.34.51-2.17.51m0-1.54q.945 0 1.5-.66c.37-.44.56-1.11.56-2.01s-.19-1.56-.56-2-.88-.66-1.5-.66-1.13.22-1.5.66-.56 1.1-.56 2 .19 1.57.56 2.01q.555.66 1.5.66m5.99 1.38v-8.08h1.81v6.11h-.48l4.59-6.11h1.65v8.08h-1.81v-6.13h.5l-4.61 6.13zm9.84 0v-8.08h1.66l2.78 4.83 2.78-4.83h1.66v8.08h-1.76v-5.84h.37l-2.59 4.53h-.93l-2.59-4.53h.37v5.84h-1.76Zm14.88.16q-1.245 0-2.16-.51c-.61-.34-1.08-.83-1.42-1.46s-.5-1.38-.5-2.24.17-1.61.5-2.23c.34-.62.81-1.11 1.42-1.45q.915-.51 2.16-.51c1.245 0 1.55.17 2.17.51.61.34 1.09.82 1.42 1.45.34.62.5 1.37.5 2.23s-.17 1.61-.5 2.24a3.63 3.63 0 0 1-1.42 1.46c-.61.34-1.33.51-2.17.51m0-1.54q.945 0 1.5-.66c.37-.44.56-1.11.56-2.01s-.19-1.56-.56-2q-.555-.66-1.5-.66c-.945 0-1.13.22-1.5.66s-.56 1.1-.56 2 .19 1.57.56 2.01q.555.66 1.5.66m9.76 1.54c-.83 0-1.56-.17-2.18-.51s-1.11-.83-1.45-1.46-.51-1.39-.51-2.26.17-1.62.52-2.24.83-1.09 1.45-1.42 1.34-.5 2.18-.5c.53 0 1.05.08 1.56.25s.92.4 1.24.71l-.61 1.39a2.8 2.8 0 0 0-.97-.6c-.36-.13-.71-.2-1.05-.2-.71 0-1.27.22-1.67.67q-.6.675-.6 1.95c0 1.275.2 1.51.6 1.97s.96.69 1.67.69c.33 0 .67-.06 1.03-.19s.69-.32.98-.59l.61 1.38q-.495.465-1.26.72c-.51.17-1.02.26-1.54.26Zm6.25-.16v-6.51h-2.77v-1.57h7.54v1.57h-2.78v6.51h-1.98Zm6 0v-8.08h1.98v2.7h2.13c1.08 0 1.89.23 2.43.68s.82 1.11.82 1.96c0 .55-.13 1.04-.38 1.45s-.63.73-1.11.95-1.07.34-1.75.34h-4.11Zm1.98-1.31h1.86c.54 0 .96-.12 1.25-.34.29-.23.43-.58.43-1.05s-.14-.81-.42-1.03q-.42-.33-1.26-.33H90.6zm-56.71 40.44 4.64-6.18v.88l-4.48-5.98h2.42l3.25 4.5h-.66l3.23-4.5h2.43l-4.5 5.98v-.88l4.66 6.18h-2.43l-3.42-4.7h.7l-3.42 4.7zm15.58.16q-1.245 0-2.16-.51c-.61-.34-1.08-.83-1.42-1.46s-.5-1.38-.5-2.24.17-1.61.5-2.23c.34-.62.81-1.11 1.42-1.45q.915-.51 2.16-.51c1.245 0 1.55.17 2.17.51.61.34 1.09.82 1.42 1.45.34.62.5 1.37.5 2.23s-.17 1.61-.5 2.24c-.34.63-.81 1.12-1.42 1.46s-1.34.51-2.17.51m0-1.54q.945 0 1.5-.66c.37-.44.56-1.11.56-2.01s-.19-1.56-.56-2-.88-.66-1.5-.66-1.13.22-1.5.66-.56 1.1-.56 2 .19 1.57.56 2.01q.555.66 1.5.66m5.62 1.6-.62-1.57c.35-.13.65-.3.89-.5.24-.21.43-.47.58-.8.14-.32.25-.73.31-1.21.06-.49.1-1.06.1-1.74v-2.48h6.43v8.08H60.8v-6.54h-2.62v1.01c0 1.16-.11 2.14-.32 2.92s-.54 1.41-.99 1.86c-.45.46-1.03.78-1.76.98Zm13.73-.06c-.83 0-1.56-.17-2.18-.51s-1.11-.83-1.45-1.46-.51-1.39-.51-2.26.17-1.62.52-2.24.83-1.09 1.45-1.42 1.34-.5 2.18-.5c.53 0 1.05.08 1.56.25s.92.4 1.24.71l-.61 1.39a2.8 2.8 0 0 0-.97-.6c-.36-.13-.71-.2-1.05-.2-.71 0-1.27.22-1.67.67q-.6.675-.6 1.95c0 1.275.2 1.51.6 1.97s.96.69 1.67.69c.33 0 .67-.06 1.03-.19s.69-.33.98-.59l.61 1.38q-.495.465-1.26.72c-.51.17-1.02.26-1.54.26Zm6.25-.16v-6.51H72.3v-1.57h7.54v1.57h-2.78v6.51h-1.98Zm8.95-.63v-3.26H80.8v-1.41h3.22v-3.18h1.46v3.18h3.2v1.41h-3.2v3.26zm6.65.63v-8.08h7.57v8.08h-1.98v-6.54h-3.6v6.54h-1.98Zm13.56.16q-1.245 0-2.16-.51c-.61-.34-1.08-.83-1.42-1.46s-.5-1.38-.5-2.24.17-1.61.5-2.23c.34-.62.81-1.11 1.42-1.45q.915-.51 2.16-.51c1.245 0 1.55.17 2.17.51.61.34 1.09.82 1.42 1.45.34.62.5 1.37.5 2.23s-.17 1.61-.5 2.24c-.34.63-.81 1.12-1.42 1.46s-1.34.51-2.17.51m0-1.54q.945 0 1.5-.66c.37-.44.56-1.11.56-2.01s-.19-1.56-.56-2-.88-.66-1.5-.66-1.13.22-1.5.66-.56 1.1-.56 2 .19 1.57.56 2.01q.555.66 1.5.66m5.26 3.46v-3.6h.93c.32-.5.55-1.09.7-1.77.14-.68.22-1.51.22-2.49v-2.3h6.22v6.56h1.31v3.6h-1.7v-2.08h-5.98V123zm2.72-3.58h3.47v-5.07h-2.66v1.25q0 1.065-.21 2.1c-.14.68-.34 1.26-.61 1.73Zm8.19 4.95v-9.52c0-.33-.01-.67-.03-1.01s-.05-.68-.1-1.01h1.94l.18 1.7h-.18q.24-.855 1.02-1.35c.52-.34 1.12-.5 1.8-.5s1.34.17 1.87.5c.53.34.95.82 1.25 1.44q.45.93.45 2.25c0 1.32-.15 1.63-.45 2.26s-.71 1.11-1.25 1.45c-.53.34-1.16.5-1.87.5-.67 0-1.26-.17-1.78-.5s-.85-.77-1.02-1.33h.18v5.12h-2Zm4.06-4.83c.64 0 1.15-.22 1.54-.66s.58-1.11.58-2.01-.19-1.56-.58-2-.9-.66-1.54-.66-1.14.22-1.52.66-.58 1.1-.58 2 .19 1.57.58 2.01.89.66 1.52.66m9.2 1.54c-.7 0-1.32-.17-1.86-.5s-.95-.82-1.25-1.45-.45-1.38-.45-2.26.15-1.62.45-2.25.71-1.1 1.25-1.44 1.15-.5 1.86-.5 1.28.17 1.8.5.86.79 1.03 1.35h-.18l.18-1.7h1.92l-.09 1.01c-.03.34-.04.68-.04 1.01v6.06h-1.98l-.02-1.66h.19c-.17.55-.52 1-1.04 1.33s-1.11.5-1.78.5Zm.56-1.54c.63 0 1.14-.22 1.52-.66s.58-1.11.58-2.01-.19-1.56-.58-2c-.38-.44-.89-.66-1.52-.66s-1.14.22-1.52.66-.58 1.1-.58 2 .19 1.57.57 2.01q.57.66 1.53.66m6.4 1.38v-8.08h1.66l2.78 4.83 2.78-4.83h1.66v8.08h-1.76v-5.84h.37l-2.59 4.53h-.93l-2.59-4.53h.37v5.84h-1.76Zm11.17 0v-8.08h1.98v3.17h3.65v-3.17h1.98v8.08h-1.98v-3.38h-3.65v3.38zm9.89 0v-8.08h1.81v6.11h-.48l4.59-6.11h1.65v8.08h-1.81v-6.13h.5l-4.61 6.13zm9.84 0v-8.08h1.98v3.17h1.22l2.37-3.17h2.14l-2.98 4.03-.43-.62c.3.03.56.11.79.24q.345.195.66.54c.21.23.41.52.62.87l1.7 3.02h-2.13l-1.38-2.43c-.14-.25-.28-.44-.42-.58s-.29-.23-.46-.29c-.17-.05-.38-.08-.62-.08h-1.07v3.38h-1.98Zm-28.84-52.51V57.13h5.01c1.24 0 2.18.3 2.83.9s.98 1.42.98 2.46-.33 1.86-.98 2.46c-.65.61-1.59.91-2.83.91h-2.94v4.54h-2.06Zm2.06-6.18h2.7c.68 0 1.19-.15 1.54-.46q.51-.45.51-1.29c0-.84-.17-.98-.51-1.29-.34-.3-.85-.46-1.54-.46h-2.7v3.49Zm11.46 6.34c-.7 0-1.32-.17-1.86-.5s-.95-.82-1.25-1.45-.45-1.38-.45-2.26.15-1.62.45-2.25c.3-.62.71-1.1 1.25-1.44s1.15-.5 1.86-.5 1.28.17 1.8.5.86.79 1.03 1.35h-.18l.18-1.7h1.92l-.09 1.01c-.03.34-.04.68-.04 1.01v6.06h-1.98l-.02-1.66h.19c-.17.55-.52 1-1.04 1.33s-1.12.5-1.78.5Zm.56-1.54c.63 0 1.14-.22 1.52-.66s.58-1.11.58-2.01-.19-1.56-.58-2-.89-.66-1.52-.66-1.14.22-1.52.66-.58 1.1-.58 2 .19 1.56.57 2.01q.57.66 1.53.66m9.38 1.54c-.73 0-1.41-.08-2.04-.26-.63-.17-1.17-.42-1.59-.74l.56-1.31c.39.29.86.51 1.38.66.53.15 1.09.22 1.67.22.68 0 1.18-.09 1.5-.28a.89.89 0 0 0 .47-.82c0-.34-.12-.6-.37-.78s-.61-.26-1.09-.26h-2.1v-1.38h1.9c.44 0 .77-.09 1.01-.26s.35-.41.35-.72q0-.495-.42-.78c-.28-.19-.74-.29-1.38-.29-.55 0-1.06.07-1.52.2s-.89.33-1.3.58l-.54-1.25c.44-.31.97-.54 1.59-.71s1.3-.24 2.04-.24c1.08 0 1.9.2 2.48.59s.86.95.86 1.68c0 .49-.17.91-.5 1.26q-.51.525-1.35.66v-.22c.66.04 1.18.24 1.57.59.38.35.58.83.58 1.42 0 .74-.33 1.32-.98 1.76s-1.58.66-2.78.66Zm5.5-.16v-8.08h1.66l2.78 4.83 2.78-4.83h1.66v8.08h-1.76v-5.84h.37l-2.59 4.53h-.93l-2.59-4.53h.37v5.84h-1.76Zm15.14.16c-1.36 0-2.42-.37-3.18-1.12-.77-.75-1.15-1.77-1.15-3.07 0-.84.17-1.58.5-2.21q.495-.945 1.38-1.47c.59-.35 1.28-.53 2.07-.53s1.43.17 1.95.5.92.79 1.19 1.39.41 1.3.41 2.1v.53h-5.89v-1.06h4.46l-.27.22c0-.75-.16-1.32-.47-1.71s-.77-.59-1.37-.59c-.66 0-1.17.23-1.53.7s-.54 1.13-.54 1.97v.21c0 .87.22 1.53.65 1.96s1.04.65 1.83.65q.69 0 1.29-.18t1.14-.6l.59 1.34q-.57.465-1.38.72c-.53.17-1.1.26-1.7.26Zm5.09 3.3v-9.52c0-.33-.01-.67-.03-1.01s-.05-.68-.1-1.01h1.94l.18 1.7h-.18q.24-.855 1.02-1.35c.52-.34 1.12-.5 1.8-.5s1.34.17 1.87.5c.53.34.95.82 1.25 1.44q.45.93.45 2.25c0 1.32-.15 1.63-.45 2.26s-.71 1.11-1.25 1.45c-.53.34-1.16.5-1.87.5-.67 0-1.26-.17-1.78-.5-.51-.33-.85-.77-1.02-1.33h.18v5.12h-2Zm4.06-4.83c.64 0 1.15-.22 1.54-.66.38-.44.58-1.11.58-2.01s-.19-1.56-.58-2-.9-.66-1.54-.66-1.14.22-1.52.66-.58 1.1-.58 2 .19 1.56.58 2.01c.38.44.89.66 1.52.66m43.98 7.59v-1.52l3.74-3.9c.47-.49.82-.95 1.04-1.36.22-.42.34-.84.34-1.28 0-.54-.17-.96-.51-1.23s-.84-.42-1.49-.42c-.52 0-1.02.09-1.5.28q-.72.285-1.41.87l-.67-1.54c.46-.41 1.03-.73 1.7-.98.68-.25 1.39-.37 2.14-.37 1.21 0 2.15.27 2.8.82.65.54.98 1.32.98 2.34 0 .71-.17 1.37-.5 2.01s-.84 1.3-1.54 1.99l-3.12 3.12v-.54h5.6v1.71zm13.16.16c-1.32 0-2.34-.5-3.06-1.51-.71-1.01-1.07-2.45-1.07-4.31s.36-3.32 1.07-4.3q1.065-1.47 3.06-1.47c1.995 0 2.35.49 3.06 1.47s1.06 2.41 1.06 4.29-.36 3.32-1.06 4.33c-.71 1.01-1.73 1.51-3.06 1.51Zm0-1.7c.73 0 1.26-.33 1.62-1 .35-.67.53-1.71.53-3.14s-.18-2.47-.53-3.11-.89-.97-1.62-.97-1.25.32-1.61.97-.54 1.68-.54 3.11.18 2.48.54 3.14c.36.67.89 1 1.61 1m4.75 1.54 3.76-4.62v.91l-3.55-4.37h2.37l2.32 2.99H262l2.32-2.99h2.35l-3.52 4.37v-.91l3.74 4.62h-2.38L262 71.41h.72l-2.53 3.22zm13.68.16c-.78 0-1.53-.12-2.24-.34s-1.3-.55-1.76-.95l.67-1.55c.5.38 1.02.67 1.56.85s1.11.27 1.7.27c.73 0 1.28-.14 1.65-.43s.56-.71.56-1.26-.18-.94-.55-1.21-.9-.41-1.61-.41h-1.82v-1.65h1.65c.61 0 1.09-.15 1.46-.45q.54-.45.54-1.23c0-.49-.17-.86-.5-1.12-.34-.26-.82-.38-1.45-.38-1.13 0-2.13.38-2.99 1.15l-.67-1.54q.69-.645 1.71-.99c.68-.23 1.39-.35 2.13-.35 1.17 0 2.09.26 2.76.79s1 1.26 1 2.2q0 1.005-.57 1.74c-.38.49-.9.81-1.56.97v-.19c.78.13 1.38.45 1.82.95.43.51.65 1.14.65 1.9 0 1-.37 1.79-1.1 2.38-.74.58-1.74.87-3.02.87Zm9.77 0c-1.32 0-2.34-.5-3.06-1.51s-1.07-2.45-1.07-4.31.36-3.32 1.07-4.3q1.065-1.47 3.06-1.47c1.995 0 2.35.49 3.06 1.47s1.06 2.41 1.06 4.29-.35 3.32-1.06 4.33-1.73 1.51-3.06 1.51Zm0-1.7c.73 0 1.26-.33 1.62-1 .35-.67.53-1.71.53-3.14s-.18-2.47-.53-3.11-.89-.97-1.62-.97-1.25.32-1.61.97-.54 1.68-.54 3.11.18 2.48.54 3.14c.36.67.89 1 1.61 1m-38.17 47.97c-.6 0-1.19-.12-1.79-.36s-1.1-.56-1.5-.95l.59-1.26c.39.38.83.67 1.3.87s.94.3 1.42.3c1.02 0 1.81-.36 2.36-1.08s.82-1.79.82-3.22V114h.16a3.2 3.2 0 0 1-.54 1.49c-.3.43-.67.75-1.13.98-.45.22-.96.34-1.53.34-.66 0-1.26-.16-1.78-.46-.53-.31-.94-.74-1.23-1.28s-.44-1.16-.44-1.84c0-.73.16-1.37.48-1.93s.76-1 1.31-1.31 1.19-.47 1.92-.47c1.41 0 2.49.48 3.24 1.45s1.13 2.33 1.13 4.09c0 1.29-.19 2.38-.57 3.28s-.93 1.58-1.64 2.05-1.57.71-2.58.71Zm.53-5.63c.45 0 .84-.1 1.18-.29s.61-.46.8-.81.29-.74.29-1.19-.1-.86-.29-1.21-.46-.62-.8-.82-.74-.3-1.18-.3-.84.1-1.18.3-.6.47-.79.82-.29.75-.29 1.21.1.84.29 1.19.46.62.79.81c.34.19.73.29 1.18.29m6.99 5.49v-1.39h2.62v-8.48h.83l-3.2 1.95v-1.6l2.83-1.76h1.2v9.89h2.46v1.39h-6.75Zm12.48.14q-1.95 0-3-1.5c-.7-1-1.05-2.43-1.05-4.3s.35-3.34 1.05-4.31c.7-.98 1.7-1.46 3-1.46s2.31.49 3.01 1.46c.69.98 1.04 2.41 1.04 4.3s-.35 3.31-1.05 4.31q-1.05 1.5-3 1.5m0-1.39c.82 0 1.43-.36 1.83-1.07s.6-1.83.6-3.34-.2-2.64-.6-3.34q-.6-1.05-1.83-1.05c-1.23 0-1.42.35-1.82 1.05s-.61 1.81-.61 3.32.21 2.64.62 3.36 1.02 1.07 1.82 1.07Zm10.35 4.7v-9.58c0-.31-.01-.63-.04-.95l-.09-.98h1.57l.16 1.82h-.18c.17-.61.51-1.09 1.03-1.44s1.13-.53 1.85-.53 1.34.17 1.87.5.95.81 1.24 1.43.44 1.37.44 2.24-.15 1.61-.44 2.24-.71 1.11-1.24 1.44-1.16.5-1.87.5-1.31-.17-1.83-.52-.86-.82-1.03-1.42h.18v5.25zm3.9-4.58c.7 0 1.27-.25 1.69-.74s.63-1.22.63-2.18-.21-1.68-.63-2.17-.98-.73-1.69-.73-1.27.24-1.69.73-.63 1.21-.63 2.17.21 1.69.63 2.18.98.74 1.69.74m5.44 1.13v-1.9h1.9v1.9zm-47.16 91.82v-1.23l3.87-4.05c.5-.52.88-1.01 1.12-1.47.25-.46.37-.93.37-1.42q0-.915-.57-1.38c-.38-.31-.93-.46-1.64-.46q-.855 0-1.59.3c-.5.2-.97.51-1.43.93l-.58-1.26c.45-.42 1.01-.75 1.67-1a6 6 0 0 1 2.12-.38c1.17 0 2.08.27 2.71.8s.95 1.3.95 2.29c0 .7-.17 1.38-.51 2.02-.34.65-.85 1.31-1.54 1.99l-3.34 3.38v-.45h5.86v1.39zm9.87 0 5.54-10.51v.64h-6.18v-1.41h7.68v1.23l-5.22 10.05zm12 .15c-.6 0-1.2-.12-1.79-.36-.6-.24-1.1-.56-1.5-.95l.59-1.26c.39.38.83.67 1.3.87s.94.3 1.42.3c1.02 0 1.81-.36 2.36-1.08s.82-1.79.82-3.22v-1.36h.16a3.2 3.2 0 0 1-.54 1.49c-.3.43-.68.75-1.13.98-.45.22-.96.34-1.53.34-.66 0-1.26-.15-1.78-.46-.53-.31-.94-.74-1.23-1.28s-.44-1.16-.44-1.84c0-.72.16-1.37.48-1.93s.76-1 1.31-1.31 1.19-.47 1.92-.47c1.41 0 2.49.48 3.24 1.45s1.13 2.33 1.13 4.09c0 1.29-.19 2.38-.57 3.28s-.92 1.58-1.64 2.05c-.71.47-1.57.7-2.58.7Zm.53-5.63c.45 0 .84-.1 1.18-.29s.61-.46.8-.81.29-.74.29-1.19-.1-.86-.29-1.21-.46-.62-.8-.82-.74-.3-1.18-.3-.84.1-1.18.3-.6.47-.79.82-.29.75-.29 1.21.1.84.29 1.19.46.62.79.81.73.29 1.18.29m10.03 5.63a6.5 6.5 0 0 1-2.8-.62c-.41-.2-.78-.43-1.09-.71l.58-1.26c.51.4 1.04.69 1.58.89s1.11.3 1.7.3c.76 0 1.35-.2 1.78-.59s.65-.92.65-1.58-.21-1.23-.62-1.66c-.41-.42-.98-.63-1.7-.63-.5 0-.96.1-1.37.3q-.615.3-1.08.93h-1.15v-6.78h6.83v1.39h-5.25v4.06h-.42c.29-.41.68-.72 1.16-.94a3.9 3.9 0 0 1 1.64-.34q1.08 0 1.89.45c.81.45.95.71 1.24 1.25.29.53.44 1.16.44 1.89s-.16 1.36-.49 1.91a3.4 3.4 0 0 1-1.39 1.29c-.6.31-1.31.46-2.14.46Zm10.19 3.31v-9.58c0-.31-.01-.63-.04-.95l-.09-.98h1.57l.16 1.82h-.18c.17-.61.51-1.09 1.03-1.44s1.13-.53 1.85-.53 1.34.17 1.87.5.95.81 1.24 1.43.44 1.37.44 2.24-.15 1.61-.44 2.24-.71 1.11-1.24 1.44-1.16.5-1.87.5-1.31-.17-1.83-.52-.86-.82-1.03-1.42h.18v5.25zm3.9-4.58c.7 0 1.27-.24 1.69-.74.42-.49.63-1.22.63-2.18s-.21-1.68-.63-2.17c-.42-.48-.98-.73-1.69-.73s-1.27.24-1.69.73-.63 1.21-.63 2.17.21 1.69.63 2.18.98.74 1.69.74m5.44 1.12v-1.9h1.9v1.9zm-44.12-44.32c-1.32 0-2.36-.28-3.1-.85-.74-.56-1.11-1.35-1.11-2.35 0-.79.24-1.45.72-1.97s1.1-.83 1.87-.93v.34c-.69-.15-1.25-.47-1.67-.98-.42-.5-.63-1.11-.63-1.82 0-.95.35-1.69 1.05-2.23s1.66-.81 2.87-.81 2.19.27 2.89.81 1.05 1.28 1.05 2.23c0 .71-.2 1.33-.6 1.84s-.94.83-1.62.94v-.32c.76.11 1.37.42 1.82.94.46.52.69 1.17.69 1.96 0 1-.37 1.79-1.11 2.35-.74.57-1.78.85-3.11.85Zm0-1.6c.78 0 1.36-.15 1.74-.44s.58-.73.58-1.3-.19-1.01-.58-1.29c-.38-.29-.97-.43-1.74-.43s-1.35.14-1.74.43-.58.72-.58 1.29.19 1.01.58 1.3.97.44 1.74.44m0-5.07c.66 0 1.17-.15 1.51-.45s.52-.71.52-1.23-.17-.91-.52-1.21c-.35-.29-.85-.44-1.51-.44s-1.15.15-1.5.44-.52.7-.52 1.21.17.93.52 1.23q.525.45 1.5.45m9.6 6.67c-1.32 0-2.34-.5-3.06-1.51-.71-1.01-1.07-2.45-1.07-4.31s.36-3.32 1.07-4.3q1.065-1.47 3.06-1.47c1.995 0 2.35.49 3.06 1.47s1.06 2.41 1.06 4.29-.36 3.32-1.06 4.33c-.71 1.01-1.73 1.51-3.06 1.51Zm0-1.7c.73 0 1.26-.33 1.62-1 .35-.67.53-1.71.53-3.14s-.18-2.47-.53-3.11-.89-.97-1.62-.97-1.25.32-1.61.97-.54 1.68-.54 3.11.18 2.48.54 3.14c.36.67.89 1 1.61 1m4.75 1.54 3.76-4.62v.91l-3.55-4.37h2.37l2.32 2.99H262l2.32-2.99h2.35l-3.52 4.37v-.91l3.74 4.62h-2.38l-2.51-3.22h.72l-2.53 3.22zm13.85.16c-1.32 0-2.35-.28-3.1-.85-.74-.56-1.11-1.35-1.11-2.35 0-.79.24-1.45.72-1.97s1.1-.83 1.87-.93v.34c-.69-.15-1.25-.47-1.67-.98-.42-.5-.63-1.11-.63-1.82 0-.95.35-1.69 1.05-2.23s1.66-.81 2.87-.81 2.19.27 2.89.81 1.05 1.28 1.05 2.23c0 .71-.2 1.33-.6 1.84s-.94.83-1.62.94v-.32c.76.11 1.37.42 1.82.94.46.52.69 1.17.69 1.96 0 1-.37 1.79-1.11 2.35-.74.57-1.78.85-3.11.85Zm0-1.6c.78 0 1.36-.15 1.74-.44s.58-.73.58-1.3-.19-1.01-.58-1.29c-.38-.29-.96-.43-1.74-.43s-1.35.14-1.74.43-.58.72-.58 1.29.2 1.01.58 1.3c.39.29.97.44 1.74.44m0-5.07c.66 0 1.17-.15 1.51-.45.35-.3.52-.71.52-1.23s-.17-.91-.52-1.21c-.35-.29-.85-.44-1.51-.44s-1.15.15-1.5.44-.52.7-.52 1.21.17.93.52 1.23.85.45 1.5.45m9.6 6.67c-1.32 0-2.34-.5-3.06-1.51s-1.07-2.45-1.07-4.31.36-3.32 1.07-4.3 1.73-1.47 3.06-1.47 2.35.49 3.06 1.47 1.06 2.41 1.06 4.29-.35 3.32-1.06 4.33-1.73 1.51-3.06 1.51Zm0-1.7c.73 0 1.26-.33 1.62-1 .35-.67.53-1.71.53-3.14s-.18-2.47-.53-3.11-.89-.97-1.62-.97-1.25.32-1.61.97-.54 1.68-.54 3.11.18 2.48.54 3.14c.36.67.89 1 1.61 1m65.85-91.93c-.78 0-1.53-.12-2.24-.34s-1.3-.55-1.76-.95l.67-1.55c.5.38 1.02.67 1.56.85s1.11.27 1.7.27c.72 0 1.27-.14 1.65-.43.37-.29.56-.71.56-1.26s-.18-.94-.55-1.21-.9-.41-1.61-.41h-1.82v-1.65h1.65c.61 0 1.09-.15 1.46-.45q.54-.45.54-1.23c0-.49-.17-.86-.5-1.12-.34-.26-.82-.38-1.45-.38-1.13 0-2.13.38-2.99 1.15l-.67-1.54c.46-.43 1.03-.76 1.7-.99.68-.23 1.39-.35 2.14-.35 1.17 0 2.09.26 2.76.79s1 1.26 1 2.2q0 1.005-.57 1.74c-.38.49-.9.81-1.56.97v-.19c.78.13 1.38.45 1.82.95s.65 1.14.65 1.9c0 1-.37 1.79-1.1 2.38-.74.58-1.74.87-3.02.87Zm9.77 0c-1.32 0-2.34-.5-3.06-1.51-.71-1.01-1.07-2.45-1.07-4.31s.36-3.32 1.07-4.3q1.065-1.47 3.06-1.47c1.995 0 2.35.49 3.06 1.47s1.06 2.41 1.06 4.29-.36 3.32-1.06 4.33c-.71 1.01-1.73 1.51-3.06 1.51Zm0-1.7c.73 0 1.26-.33 1.62-1 .35-.67.53-1.71.53-3.14s-.18-2.47-.53-3.11-.89-.97-1.62-.97-1.25.32-1.61.97-.54 1.68-.54 3.11.18 2.48.54 3.14c.36.67.89 1 1.61 1m4.75 1.54 3.76-4.62v.91l-3.55-4.37h2.37l2.32 2.99h-.72l2.32-2.99h2.35l-3.52 4.37v-.91l3.74 4.62h-2.38l-2.51-3.22h.72l-2.53 3.22zm14.76 0v-2.21h-5.04v-1.44l5.36-7.63h1.66v7.5H380v1.57h-1.62v2.21zm0-3.78v-5.07h.38l-3.89 5.55v-.48h3.5Zm8.7 3.94c-1.32 0-2.34-.5-3.06-1.51s-1.07-2.45-1.07-4.31.36-3.32 1.07-4.3q1.065-1.47 3.06-1.47c1.995 0 2.35.49 3.06 1.47s1.06 2.41 1.06 4.29-.35 3.32-1.06 4.33-1.73 1.51-3.06 1.51Zm0-1.7c.73 0 1.26-.33 1.62-1 .35-.67.53-1.71.53-3.14s-.18-2.47-.53-3.11-.89-.97-1.62-.97-1.25.32-1.61.97-.54 1.68-.54 3.11.18 2.48.54 3.14c.36.67.89 1 1.61 1m-45.06 47.83v-1.39h2.62v-8.48h.83l-3.2 1.95v-1.6l2.83-1.76h1.2v9.89h2.46v1.39h-6.75Zm9.6 0v-1.39h2.62v-8.48h.83l-3.2 1.95v-1.6l2.83-1.76h1.2v9.89h2.46v1.39h-6.75Zm12.48.14q-1.95 0-3-1.5c-.7-1-1.05-2.43-1.05-4.3s.35-3.34 1.05-4.31 1.7-1.46 3-1.46 2.31.49 3.01 1.46c.69.98 1.04 2.41 1.04 4.3s-.35 3.31-1.05 4.31q-1.05 1.5-3 1.5m0-1.39c.82 0 1.43-.36 1.83-1.07s.6-1.83.6-3.34-.2-2.64-.6-3.34q-.6-1.05-1.83-1.05c-1.23 0-1.42.35-1.82 1.05-.41.7-.61 1.81-.61 3.32s.21 2.64.62 3.36c.41.71 1.02 1.07 1.82 1.07Zm9.6 1.39q-1.95 0-3-1.5c-.7-1-1.05-2.43-1.05-4.3s.35-3.34 1.05-4.31 1.7-1.46 3-1.46 2.31.49 3.01 1.46c.69.98 1.04 2.41 1.04 4.3s-.35 3.31-1.05 4.31q-1.05 1.5-3 1.5m0-1.39c.82 0 1.43-.36 1.83-1.07s.6-1.83.6-3.34-.2-2.64-.6-3.34q-.6-1.05-1.83-1.05c-1.23 0-1.42.35-1.82 1.05-.41.7-.61 1.81-.61 3.32s.21 2.64.62 3.36c.41.71 1.02 1.07 1.82 1.07Zm10.36 4.7v-9.58c0-.31-.01-.63-.04-.95l-.09-.98h1.57l.16 1.82h-.18c.17-.61.51-1.09 1.03-1.44s1.13-.53 1.85-.53 1.34.17 1.87.5.95.81 1.24 1.43.44 1.37.44 2.24-.15 1.61-.44 2.24-.71 1.11-1.24 1.44-1.16.5-1.87.5-1.31-.17-1.83-.52-.86-.82-1.03-1.42h.18v5.25zm3.9-4.58c.7 0 1.27-.25 1.69-.74s.63-1.22.63-2.18-.21-1.68-.63-2.17-.98-.73-1.69-.73-1.27.24-1.69.73-.63 1.21-.63 2.17.21 1.69.63 2.18.98.74 1.69.74m5.44 1.13v-1.9h1.9v1.9zm-51.97 91.82v-1.23l3.87-4.05c.5-.52.88-1.01 1.12-1.47.25-.46.37-.93.37-1.42q0-.915-.57-1.38c-.38-.31-.93-.46-1.64-.46q-.855 0-1.59.3c-.5.2-.97.51-1.43.93l-.58-1.26c.45-.42 1.01-.75 1.67-1a6 6 0 0 1 2.12-.38c1.17 0 2.08.27 2.71.8s.95 1.3.95 2.29c0 .7-.17 1.38-.51 2.02-.34.65-.85 1.31-1.54 1.99l-3.34 3.38v-.45h5.86v1.39zm13.23.15a6.5 6.5 0 0 1-2.8-.62c-.41-.2-.78-.43-1.09-.71l.58-1.26c.51.4 1.04.69 1.58.89s1.11.3 1.7.3c.76 0 1.35-.2 1.78-.59s.65-.92.65-1.58-.21-1.23-.62-1.66c-.41-.42-.98-.63-1.7-.63-.5 0-.96.1-1.37.3q-.615.3-1.08.93h-1.15v-6.78h6.83v1.39h-5.25v4.06h-.42c.29-.41.68-.72 1.16-.94a3.9 3.9 0 0 1 1.64-.34q1.08 0 1.89.45c.81.45.95.71 1.24 1.25.29.53.44 1.16.44 1.89s-.16 1.36-.49 1.91a3.4 3.4 0 0 1-1.39 1.29c-.6.31-1.31.46-2.14.46Zm9.33 0c-.77 0-1.5-.11-2.21-.34s-1.29-.56-1.76-.98l.58-1.26c.52.41 1.06.71 1.6.9s1.12.29 1.74.29c.79 0 1.39-.17 1.8-.5s.62-.81.62-1.42-.21-1.07-.62-1.38-1.02-.47-1.82-.47h-1.74v-1.34h1.62c.68 0 1.23-.17 1.63-.52s.61-.82.61-1.42c0-.54-.19-.96-.56-1.26s-.91-.44-1.6-.44q-1.755 0-3.09 1.23l-.56-1.26c.44-.44.99-.78 1.66-1.02s1.38-.36 2.11-.36q1.695 0 2.67.78c.65.52.98 1.23.98 2.15 0 .69-.19 1.29-.58 1.78s-.92.82-1.59.98v-.18c.8.13 1.42.45 1.85.95.43.51.65 1.14.65 1.9 0 1-.35 1.79-1.06 2.36s-1.68.86-2.92.86Zm9.87 0a6.5 6.5 0 0 1-2.8-.62c-.41-.2-.78-.43-1.09-.71l.58-1.26c.51.4 1.04.69 1.58.89s1.11.3 1.7.3c.76 0 1.35-.2 1.78-.59s.65-.92.65-1.58-.21-1.23-.62-1.66c-.41-.42-.98-.63-1.7-.63-.5 0-.96.1-1.37.3q-.615.3-1.08.93h-1.15v-6.78h6.83v1.39h-5.25v4.06h-.42c.29-.41.68-.72 1.16-.94a3.9 3.9 0 0 1 1.64-.34q1.08 0 1.89.45c.81.45.95.71 1.24 1.25.29.53.44 1.16.44 1.89s-.16 1.36-.49 1.91a3.4 3.4 0 0 1-1.39 1.29c-.6.31-1.31.46-2.14.46Zm10.2 3.31v-9.58c0-.31-.01-.63-.04-.95l-.09-.98h1.57l.16 1.82h-.18c.17-.61.51-1.09 1.03-1.44s1.13-.53 1.85-.53 1.34.17 1.87.5.95.81 1.24 1.43.44 1.37.44 2.24-.15 1.61-.44 2.24-.71 1.11-1.24 1.44-1.16.5-1.87.5-1.31-.17-1.83-.52-.86-.82-1.03-1.42h.18v5.25zm3.9-4.58c.7 0 1.27-.24 1.69-.74.42-.49.63-1.22.63-2.18s-.21-1.68-.63-2.17c-.42-.48-.98-.73-1.69-.73s-1.27.24-1.69.73-.63 1.21-.63 2.17.21 1.69.63 2.18.98.74 1.69.74m5.44 1.12v-1.9h1.9v1.9zm-44.13-44.32c-1.32 0-2.36-.28-3.1-.85-.74-.56-1.11-1.35-1.11-2.35 0-.79.24-1.45.72-1.97s1.1-.83 1.87-.93v.34c-.69-.15-1.25-.47-1.67-.98-.42-.5-.63-1.11-.63-1.82 0-.95.35-1.69 1.05-2.23s1.66-.81 2.87-.81 2.19.27 2.89.81 1.05 1.28 1.05 2.23c0 .71-.2 1.33-.6 1.84s-.94.83-1.62.94v-.32c.76.11 1.37.42 1.82.94.46.52.69 1.17.69 1.96 0 1-.37 1.79-1.11 2.35-.74.57-1.78.85-3.11.85Zm0-1.6c.78 0 1.36-.15 1.74-.44s.58-.73.58-1.3-.19-1.01-.58-1.29c-.38-.29-.97-.43-1.74-.43s-1.35.14-1.74.43-.58.72-.58 1.29.19 1.01.58 1.3.97.44 1.74.44m0-5.07c.66 0 1.17-.15 1.51-.45s.52-.71.52-1.23-.17-.91-.52-1.21c-.35-.29-.85-.44-1.51-.44s-1.15.15-1.5.44-.52.7-.52 1.21.17.93.52 1.23q.525.45 1.5.45m9.6 6.67c-1.32 0-2.34-.5-3.06-1.51-.71-1.01-1.07-2.45-1.07-4.31s.36-3.32 1.07-4.3q1.065-1.47 3.06-1.47c1.995 0 2.35.49 3.06 1.47s1.06 2.41 1.06 4.29-.36 3.32-1.06 4.33c-.71 1.01-1.73 1.51-3.06 1.51Zm0-1.7c.73 0 1.26-.33 1.62-1 .35-.67.53-1.71.53-3.14s-.18-2.47-.53-3.11-.89-.97-1.62-.97-1.25.32-1.61.97-.54 1.68-.54 3.11.18 2.48.54 3.14c.36.67.89 1 1.61 1m4.75 1.54 3.76-4.62v.91l-3.55-4.37h2.37l2.32 2.99h-.72l2.32-2.99h2.35l-3.52 4.37v-.91l3.74 4.62h-2.38l-2.51-3.22h.72l-2.53 3.22zm14.26.16c-1.42 0-2.52-.49-3.29-1.47s-1.16-2.36-1.16-4.13c0-1.28.2-2.37.59-3.26s.96-1.57 1.69-2.04 1.61-.71 2.63-.71c.61 0 1.21.11 1.81.33s1.11.53 1.54.94l-.69 1.54c-.39-.36-.82-.63-1.28-.81s-.92-.26-1.39-.26c-.96 0-1.69.33-2.19.98q-.75.975-.75 2.91v1.2h-.19c.08-.54.27-1.01.54-1.4.28-.39.63-.69 1.07-.9s.92-.31 1.46-.31c.66 0 1.25.15 1.76.46s.91.74 1.21 1.28c.29.54.44 1.17.44 1.87s-.16 1.37-.49 1.94-.77 1.02-1.34 1.34-1.22.49-1.97.49Zm-.11-1.63c.39 0 .74-.09 1.04-.26s.53-.41.7-.73.25-.67.25-1.08-.08-.78-.25-1.09-.4-.55-.7-.73-.65-.26-1.04-.26-.74.09-1.04.26c-.3.18-.53.42-.7.73s-.26.67-.26 1.09.08.77.26 1.08c.17.31.4.56.7.73s.65.26 1.04.26m9.31 1.63c-1.32 0-2.34-.5-3.06-1.51s-1.07-2.45-1.07-4.31.36-3.32 1.07-4.3 1.73-1.47 3.06-1.47 2.35.49 3.06 1.47 1.06 2.41 1.06 4.29-.35 3.32-1.06 4.33-1.73 1.51-3.06 1.51Zm0-1.7c.73 0 1.26-.33 1.62-1 .35-.67.53-1.71.53-3.14s-.18-2.47-.53-3.11-.89-.97-1.62-.97-1.25.32-1.61.97-.54 1.68-.54 3.11.18 2.48.54 3.14c.36.67.89 1 1.61 1m67.35-92.09v-2.21h-5.04v-1.44l5.36-7.63h1.66v7.5h1.62v1.57h-1.62v2.21zm0-3.78v-5.07h.38l-3.89 5.55v-.48h3.5Zm8.71 3.94c-1.32 0-2.34-.5-3.06-1.51s-1.07-2.45-1.07-4.31.36-3.32 1.07-4.3q1.065-1.47 3.06-1.47c1.995 0 2.35.49 3.06 1.47s1.06 2.41 1.06 4.29-.36 3.32-1.06 4.33c-.71 1.01-1.73 1.51-3.06 1.51Zm0-1.7c.73 0 1.26-.33 1.62-1 .35-.67.53-1.71.53-3.14s-.18-2.47-.53-3.11-.89-.97-1.62-.97-1.25.32-1.61.97-.54 1.68-.54 3.11.18 2.48.54 3.14c.36.67.89 1 1.61 1m4.75 1.54 3.76-4.62v.91l-3.55-4.37h2.37l2.32 2.99h-.72l2.32-2.99h2.35l-3.52 4.37v-.91l3.74 4.62h-2.38l-2.51-3.22h.72l-2.53 3.22zm13.94.16c-.49 0-.98-.05-1.46-.16a7 7 0 0 1-1.36-.45q-.63-.285-1.08-.69l.67-1.55c.5.37 1.02.65 1.54.84s1.08.28 1.66.28c.69 0 1.23-.17 1.62-.52s.58-.81.58-1.4-.19-1.08-.56-1.45-.89-.55-1.54-.55c-.46 0-.88.09-1.26.26s-.72.45-1.02.81h-1.36v-6.86h7.01v1.7h-5.06v3.58h-.5c.28-.37.65-.66 1.11-.86s.98-.3 1.56-.3c.73 0 1.35.15 1.89.45.53.3.95.72 1.25 1.26s.45 1.17.45 1.9-.17 1.38-.5 1.94c-.34.56-.82 1-1.44 1.31s-1.36.47-2.22.47Zm9.52 0c-1.32 0-2.34-.5-3.06-1.51s-1.07-2.45-1.07-4.31.36-3.32 1.07-4.3q1.065-1.47 3.06-1.47c1.995 0 2.35.49 3.06 1.47s1.06 2.41 1.06 4.29-.35 3.32-1.06 4.33-1.73 1.51-3.06 1.51Zm0-1.7c.73 0 1.26-.33 1.62-1 .35-.67.53-1.71.53-3.14s-.18-2.47-.53-3.11-.89-.97-1.62-.97-1.25.32-1.61.97-.54 1.68-.54 3.11.18 2.48.54 3.14c.36.67.89 1 1.61 1m-45.06 47.83v-1.39h2.62v-8.48h.83l-3.2 1.95v-1.6l2.83-1.76h1.2v9.89h2.46v1.39h-6.75Zm13.63 0v-2.34h-5.22v-1.18l5.49-7.76h1.34v7.65h1.68v1.3h-1.68v2.34h-1.62Zm0-3.63v-5.68h.37l-4.29 6.08v-.4zm8.34 3.77c-.77 0-1.5-.12-2.21-.34s-1.29-.56-1.76-.98l.58-1.26c.52.41 1.06.7 1.6.9s1.12.29 1.74.29c.79 0 1.39-.17 1.8-.5s.62-.81.62-1.42-.21-1.07-.62-1.38-1.02-.47-1.82-.47h-1.74v-1.34h1.62c.68 0 1.23-.17 1.63-.52.41-.35.61-.82.61-1.42 0-.54-.19-.96-.56-1.26-.37-.29-.91-.44-1.6-.44q-1.755 0-3.09 1.23l-.56-1.26c.44-.44.99-.78 1.66-1.02s1.38-.36 2.11-.36q1.695 0 2.67.78c.65.52.98 1.24.98 2.15 0 .69-.2 1.29-.58 1.78-.39.49-.92.82-1.59.98v-.18c.8.13 1.42.45 1.85.95.43.51.65 1.14.65 1.9 0 1-.35 1.79-1.06 2.36s-1.68.86-2.92.86Zm9.71 0q-1.95 0-3-1.5c-.7-1-1.05-2.43-1.05-4.3s.35-3.34 1.05-4.31c.7-.98 1.7-1.46 3-1.46s2.31.49 3.01 1.46c.69.98 1.04 2.41 1.04 4.3s-.35 3.31-1.05 4.31q-1.05 1.5-3 1.5m0-1.39c.82 0 1.43-.36 1.83-1.07s.6-1.83.6-3.34-.2-2.64-.6-3.34q-.6-1.05-1.83-1.05c-1.23 0-1.42.35-1.82 1.05-.41.7-.61 1.81-.61 3.32s.21 2.64.62 3.36c.41.71 1.02 1.07 1.82 1.07Zm10.35 4.7v-9.58c0-.31-.01-.63-.04-.95l-.09-.98h1.57l.16 1.82h-.18c.17-.61.51-1.09 1.03-1.44s1.13-.53 1.85-.53 1.34.17 1.87.5.95.81 1.24 1.43.44 1.37.44 2.24-.15 1.61-.44 2.24-.71 1.11-1.24 1.44-1.16.5-1.87.5-1.31-.17-1.83-.52-.86-.82-1.03-1.42h.18v5.25zm3.9-4.58c.7 0 1.27-.25 1.69-.74s.63-1.22.63-2.18-.21-1.68-.63-2.17-.98-.73-1.69-.73-1.27.24-1.69.73-.63 1.21-.63 2.17.21 1.69.63 2.18.98.74 1.69.74m5.45 1.13v-1.9h1.9v1.9zm-51.38 91.82v-1.39h2.62v-8.48h.83l-3.2 1.95v-1.6l2.83-1.76h1.2v9.89h2.46v1.39h-6.75Zm9.6 0v-1.39h2.62v-8.48h.83l-3.2 1.95v-1.6l2.83-1.76h1.2v9.89h2.46v1.39h-6.75Zm12.48.15q-1.95 0-3-1.5c-.7-1-1.05-2.43-1.05-4.3s.35-3.34 1.05-4.31c.7-.98 1.7-1.46 3-1.46s2.31.49 3.01 1.46c.69.98 1.04 2.41 1.04 4.3s-.35 3.31-1.05 4.31q-1.05 1.5-3 1.5m0-1.39c.82 0 1.43-.36 1.83-1.07s.6-1.83.6-3.34-.2-2.64-.6-3.34q-.6-1.05-1.83-1.05c-1.23 0-1.42.35-1.82 1.05-.41.7-.61 1.8-.61 3.32s.21 2.65.62 3.36 1.02 1.07 1.82 1.07Zm9.6 1.39q-1.95 0-3-1.5c-.7-1-1.05-2.43-1.05-4.3s.35-3.34 1.05-4.31c.7-.98 1.7-1.46 3-1.46s2.31.49 3.01 1.46c.69.98 1.04 2.41 1.04 4.3s-.35 3.31-1.05 4.31q-1.05 1.5-3 1.5m0-1.39c.82 0 1.43-.36 1.83-1.07s.6-1.83.6-3.34-.2-2.64-.6-3.34q-.6-1.05-1.83-1.05c-1.23 0-1.42.35-1.82 1.05-.41.7-.61 1.8-.61 3.32s.21 2.65.62 3.36 1.02 1.07 1.82 1.07Zm10.35 4.7v-9.58c0-.31-.01-.63-.04-.95l-.09-.98h1.57l.16 1.82h-.18c.17-.61.51-1.09 1.03-1.44s1.13-.53 1.85-.53 1.34.17 1.87.5.95.81 1.24 1.43.44 1.37.44 2.24-.15 1.61-.44 2.24-.71 1.11-1.24 1.44-1.16.5-1.87.5-1.31-.17-1.83-.52-.86-.82-1.03-1.42h.18v5.25zm3.9-4.58c.7 0 1.27-.24 1.69-.74.42-.49.63-1.22.63-2.18s-.21-1.68-.63-2.17c-.42-.48-.98-.73-1.69-.73s-1.27.24-1.69.73-.63 1.21-.63 2.17.21 1.69.63 2.18.98.74 1.69.74m5.45 1.12v-1.9h1.9v1.9zm-44.31-44.32c-.78 0-1.53-.11-2.24-.34s-1.3-.55-1.76-.95l.67-1.55c.5.38 1.02.67 1.56.85s1.11.27 1.7.27c.73 0 1.27-.14 1.65-.43.37-.29.56-.71.56-1.26s-.18-.94-.55-1.21-.9-.41-1.61-.41h-1.82v-1.65h1.65c.61 0 1.09-.15 1.46-.45s.54-.71.54-1.23c0-.49-.17-.86-.5-1.12-.34-.26-.82-.38-1.45-.38-1.13 0-2.13.38-2.99 1.15l-.67-1.54c.46-.43 1.03-.76 1.7-.99.68-.23 1.39-.35 2.14-.35 1.17 0 2.09.26 2.76.79s1 1.26 1 2.2q0 1.005-.57 1.74c-.57.735-.9.81-1.56.97v-.19c.78.13 1.38.45 1.82.95.43.51.65 1.14.65 1.9 0 1-.37 1.79-1.1 2.38-.74.58-1.74.87-3.02.87Zm9.78 0c-1.32 0-2.34-.5-3.06-1.51s-1.07-2.45-1.07-4.31.36-3.32 1.07-4.3 1.73-1.47 3.06-1.47 2.35.49 3.06 1.47 1.06 2.41 1.06 4.29-.36 3.32-1.06 4.33c-.71 1.01-1.73 1.51-3.06 1.51Zm0-1.7c.73 0 1.26-.33 1.62-1 .35-.67.53-1.71.53-3.14s-.18-2.47-.53-3.11-.89-.97-1.62-.97-1.25.32-1.61.97-.54 1.68-.54 3.11.18 2.48.54 3.14c.36.67.89 1 1.61 1m4.75 1.54 3.76-4.62v.91l-3.55-4.37h2.37l2.32 2.99h-.72l2.32-2.99h2.35l-3.52 4.37v-.91l3.74 4.62h-2.38l-2.51-3.22h.72l-2.53 3.22zm13.68.16c-.78 0-1.53-.11-2.24-.34s-1.3-.55-1.76-.95l.67-1.55c.5.38 1.02.67 1.56.85s1.11.27 1.7.27c.72 0 1.27-.14 1.65-.43s.56-.71.56-1.26-.18-.94-.55-1.21-.9-.41-1.61-.41h-1.82v-1.65h1.65c.61 0 1.09-.15 1.46-.45q.54-.45.54-1.23c0-.49-.17-.86-.5-1.12-.34-.26-.82-.38-1.45-.38-1.13 0-2.13.38-2.99 1.15l-.67-1.54c.46-.43 1.03-.76 1.7-.99.68-.23 1.39-.35 2.14-.35 1.17 0 2.09.26 2.76.79s1 1.26 1 2.2q0 1.005-.57 1.74c-.38.49-.9.81-1.56.97v-.19c.78.13 1.38.45 1.82.95.43.51.65 1.14.65 1.9 0 1-.37 1.79-1.1 2.38-.74.58-1.74.87-3.02.87Zm9.78 0c-1.32 0-2.34-.5-3.06-1.51s-1.07-2.45-1.07-4.31.36-3.32 1.07-4.3 1.73-1.47 3.06-1.47 2.35.49 3.06 1.47 1.06 2.41 1.06 4.29-.35 3.32-1.06 4.33-1.73 1.51-3.06 1.51Zm0-1.7c.73 0 1.26-.33 1.62-1 .35-.67.53-1.71.53-3.14s-.18-2.47-.53-3.11-.89-.97-1.62-.97-1.25.32-1.61.97-.54 1.68-.54 3.11.18 2.48.54 3.14c.36.67.89 1 1.61 1m66.01-91.93c-.49 0-.98-.05-1.46-.16a7 7 0 0 1-1.36-.45q-.63-.285-1.08-.69l.67-1.55c.5.37 1.02.65 1.54.84.53.19 1.08.28 1.66.28.69 0 1.23-.17 1.62-.52s.58-.81.58-1.4-.19-1.08-.56-1.45-.89-.55-1.54-.55c-.46 0-.88.09-1.26.26q-.57.27-1.02.81h-1.36v-6.86h7.01v1.7h-5.06v3.58h-.5c.28-.37.65-.66 1.11-.86s.98-.3 1.56-.3q1.08 0 1.89.45c.81.45.95.72 1.25 1.26s.45 1.17.45 1.9-.17 1.38-.5 1.94c-.34.56-.82 1-1.44 1.31s-1.36.47-2.22.47Zm9.52 0c-1.32 0-2.34-.5-3.06-1.51s-1.07-2.45-1.07-4.31.36-3.32 1.07-4.3q1.065-1.47 3.06-1.47c1.995 0 2.35.49 3.06 1.47s1.06 2.41 1.06 4.29-.36 3.32-1.06 4.33c-.71 1.01-1.73 1.51-3.06 1.51Zm0-1.7c.73 0 1.26-.33 1.62-1 .35-.67.53-1.71.53-3.14s-.18-2.47-.53-3.11-.89-.97-1.62-.97-1.25.32-1.61.97-.54 1.68-.54 3.11.18 2.48.54 3.14c.36.67.89 1 1.61 1m4.75 1.54 3.76-4.62v.91l-3.55-4.37h2.37l2.32 2.99h-.72l2.32-2.99h2.35l-3.52 4.37v-.91l3.74 4.62h-2.38l-2.51-3.22h.72l-2.53 3.22zm10.43 0 5.47-10.27v.72h-5.98v-1.73h7.89v1.54l-5.12 9.74zm13.02.16c-1.32 0-2.34-.5-3.06-1.51s-1.07-2.45-1.07-4.31.36-3.32 1.07-4.3q1.065-1.47 3.06-1.47c1.995 0 2.35.49 3.06 1.47s1.06 2.41 1.06 4.29-.35 3.32-1.06 4.33-1.73 1.51-3.06 1.51Zm0-1.7c.73 0 1.26-.33 1.62-1 .35-.67.53-1.71.53-3.14s-.18-2.47-.53-3.11-.89-.97-1.62-.97-1.25.32-1.61.97-.54 1.68-.54 3.11.18 2.48.54 3.14c.36.67.89 1 1.61 1m-45.05 47.83v-1.39h2.62v-8.48h.83l-3.2 1.95v-1.6l2.83-1.76h1.2v9.89h2.46v1.39h-6.75Zm11.68.14c-.6 0-1.19-.12-1.79-.36s-1.1-.56-1.5-.95l.59-1.26c.39.38.83.67 1.3.87s.94.3 1.42.3c1.02 0 1.81-.36 2.36-1.08s.82-1.79.82-3.22V114h.16a3.2 3.2 0 0 1-.54 1.49c-.3.43-.67.75-1.13.98-.45.22-.96.34-1.53.34-.66 0-1.26-.16-1.78-.46-.53-.31-.94-.74-1.23-1.28s-.44-1.16-.44-1.84c0-.73.16-1.37.48-1.93s.76-1 1.31-1.31 1.19-.47 1.92-.47c1.41 0 2.49.48 3.24 1.45s1.13 2.33 1.13 4.09c0 1.29-.19 2.38-.57 3.28s-.92 1.58-1.64 2.05c-.71.47-1.57.71-2.58.71Zm.53-5.63c.45 0 .84-.1 1.18-.29s.61-.46.8-.81.29-.74.29-1.19-.1-.86-.29-1.21-.46-.62-.8-.82-.74-.3-1.18-.3-.84.1-1.18.3-.6.47-.79.82-.29.75-.29 1.21.1.84.29 1.19.46.62.79.81c.34.19.73.29 1.18.29m10.03 5.63a6.5 6.5 0 0 1-2.8-.62c-.42-.2-.78-.43-1.09-.71l.58-1.26c.51.4 1.04.69 1.58.89s1.11.3 1.7.3c.76 0 1.35-.2 1.78-.59s.65-.92.65-1.58-.21-1.23-.62-1.66c-.41-.42-.98-.63-1.7-.63-.5 0-.96.1-1.37.3q-.615.3-1.08.93h-1.15v-6.78h6.83v1.39h-5.25v4.06h-.42c.29-.41.67-.72 1.16-.94a3.9 3.9 0 0 1 1.64-.34c.73 0 1.35.15 1.89.45s.95.71 1.24 1.25.44 1.16.44 1.89-.16 1.36-.49 1.91a3.4 3.4 0 0 1-1.39 1.29c-.6.31-1.32.46-2.14.46Zm9.44 0q-1.95 0-3-1.5c-.7-1-1.05-2.43-1.05-4.3s.35-3.34 1.05-4.31c.7-.98 1.7-1.46 3-1.46s2.31.49 3.01 1.46c.69.98 1.04 2.41 1.04 4.3s-.35 3.31-1.05 4.31q-1.05 1.5-3 1.5m0-1.39c.82 0 1.43-.36 1.83-1.07s.6-1.83.6-3.34-.2-2.64-.6-3.34q-.6-1.05-1.83-1.05c-1.23 0-1.42.35-1.82 1.05-.41.7-.61 1.81-.61 3.32s.21 2.64.62 3.36c.41.71 1.02 1.07 1.82 1.07Zm10.35 4.7v-9.58c0-.31-.01-.63-.04-.95l-.09-.98h1.57l.16 1.82h-.18c.17-.61.51-1.09 1.03-1.44s1.13-.53 1.85-.53 1.34.17 1.87.5.95.81 1.24 1.43.44 1.37.44 2.24-.15 1.61-.44 2.24-.71 1.11-1.24 1.44-1.16.5-1.87.5-1.31-.17-1.83-.52-.86-.82-1.03-1.42h.18v5.25zm3.9-4.58c.7 0 1.27-.25 1.69-.74s.63-1.22.63-2.18-.21-1.68-.63-2.17-.98-.73-1.69-.73-1.27.24-1.69.73-.63 1.21-.63 2.17.21 1.69.63 2.18.98.74 1.69.74m5.45 1.13v-1.9h1.9v1.9zm-51.38 91.82v-1.39h2.62v-8.48h.83l-3.2 1.95v-1.6l2.83-1.76h1.2v9.89h2.46v1.39h-6.75Zm12.86.15c-1.4 0-2.47-.49-3.22-1.46s-1.13-2.33-1.13-4.08c0-1.3.19-2.4.58-3.29.38-.89.93-1.57 1.64-2.04s1.57-.7 2.57-.7c.6 0 1.19.11 1.79.34s1.1.55 1.5.97l-.59 1.25c-.39-.38-.83-.67-1.3-.86s-.94-.29-1.42-.29c-1.04 0-1.82.36-2.37 1.08s-.82 1.79-.82 3.22v1.36h-.16c.08-.58.26-1.07.54-1.5.29-.42.66-.74 1.12-.97.46-.22.97-.34 1.54-.34.67 0 1.27.15 1.78.46s.92.73 1.22 1.27.45 1.15.45 1.85-.16 1.35-.48 1.92q-.48.855-1.32 1.32c-.56.31-1.2.47-1.93.47Zm-.1-1.34c.45 0 .84-.1 1.18-.29s.6-.46.79-.81.29-.75.29-1.21-.1-.86-.29-1.2-.46-.61-.79-.81c-.34-.2-.73-.3-1.18-.3s-.84.1-1.18.3-.61.47-.8.81-.29.74-.29 1.2.1.86.29 1.21.46.62.8.81.74.29 1.18.29m5.85 1.19v-1.23l3.87-4.05c.5-.52.88-1.01 1.12-1.47.25-.46.37-.93.37-1.42q0-.915-.57-1.38c-.38-.31-.93-.46-1.64-.46q-.855 0-1.59.3c-.5.2-.97.51-1.43.93l-.58-1.26c.45-.42 1.01-.75 1.67-1a6 6 0 0 1 2.12-.38c1.17 0 2.08.27 2.71.8s.95 1.3.95 2.29c0 .7-.17 1.38-.51 2.02-.34.65-.85 1.31-1.54 1.99l-3.34 3.38v-.45h5.86v1.39zm13.23.15a6.5 6.5 0 0 1-2.8-.62c-.41-.2-.78-.43-1.09-.71l.58-1.26c.51.4 1.04.69 1.58.89s1.11.3 1.7.3c.76 0 1.35-.2 1.78-.59s.65-.92.65-1.58-.21-1.23-.62-1.66c-.41-.42-.98-.63-1.7-.63-.5 0-.96.1-1.37.3q-.615.3-1.08.93h-1.15v-6.78h6.83v1.39h-5.25v4.06h-.42c.29-.41.67-.72 1.16-.94s1.03-.34 1.64-.34c.73 0 1.35.15 1.89.45s.95.71 1.24 1.25.44 1.16.44 1.89-.16 1.36-.49 1.91-.79.98-1.39 1.29-1.32.46-2.14.46Zm10.19 3.31v-9.58c0-.31-.01-.63-.04-.95l-.09-.98h1.57l.16 1.82h-.18c.17-.61.51-1.09 1.03-1.44s1.13-.53 1.85-.53 1.34.17 1.87.5.95.81 1.24 1.43.44 1.37.44 2.24-.15 1.61-.44 2.24-.71 1.11-1.24 1.44-1.16.5-1.87.5-1.31-.17-1.83-.52-.86-.82-1.03-1.42h.18v5.25zm3.9-4.58c.7 0 1.27-.24 1.69-.74.42-.49.63-1.22.63-2.18s-.21-1.68-.63-2.17c-.42-.48-.98-.73-1.69-.73s-1.27.24-1.69.73-.63 1.21-.63 2.17.21 1.69.63 2.18.98.74 1.69.74m5.45 1.12v-1.9h1.9v1.9zM20.84 252v-11.28h4.78c1.21 0 2.13.29 2.78.87s.97 1.38.97 2.41-.32 1.83-.97 2.42-1.57.88-2.78.88H22.5v4.7zm1.66-6.03h2.94q1.14 0 1.71-.51c.38-.34.58-.83.58-1.46s-.19-1.1-.58-1.44q-.57-.51-1.71-.51H22.5zm11.72 6.18c-.71 0-1.34-.17-1.87-.5s-.95-.81-1.24-1.44-.44-1.38-.44-2.24.15-1.62.44-2.24.71-1.1 1.24-1.43c.53-.34 1.16-.5 1.87-.5s1.32.18 1.84.53.87.83 1.04 1.44h-.18l.16-1.82h1.57l-.09.98c-.03.33-.04.64-.04.95v6.13H36.9v-1.79h.18c-.17.6-.52 1.07-1.05 1.42s-1.13.52-1.82.52Zm.4-1.26c.69 0 1.25-.25 1.67-.74s.63-1.22.63-2.18-.21-1.68-.63-2.17c-.42-.48-.98-.73-1.67-.73s-1.27.24-1.69.73-.63 1.21-.63 2.17.21 1.69.62 2.18c.42.49.98.74 1.7.74m9.18 1.26c-.7 0-1.37-.09-1.98-.26-.62-.18-1.13-.43-1.52-.76l.5-1.09c.39.31.85.54 1.36.7s1.06.23 1.65.23c.74 0 1.27-.11 1.61-.33s.5-.53.5-.94-.14-.69-.42-.9c-.28-.2-.68-.3-1.22-.3H42.3v-1.15h1.82c.48 0 .85-.1 1.12-.3s.4-.49.4-.85c0-.38-.16-.68-.46-.9-.31-.21-.79-.32-1.44-.32-.55 0-1.06.07-1.52.21s-.9.35-1.31.62l-.48-1.04c.44-.33.96-.58 1.55-.74.6-.16 1.24-.24 1.94-.24 1.04 0 1.84.2 2.38.58.54.39.82.95.82 1.67 0 .5-.17.93-.5 1.28-.34.35-.79.57-1.35.64v-.21c.65.03 1.17.23 1.56.58.39.36.58.83.58 1.42 0 .73-.31 1.3-.92 1.74-.61.43-1.51.65-2.68.65Zm5.49-.15v-8.06h1.34l2.91 5.15 2.91-5.15h1.34V252h-1.42v-6.26h.35l-2.8 4.96h-.77l-2.8-4.96h.35V252h-1.42Zm14.73.15c-1.3 0-2.33-.37-3.07-1.1-.75-.74-1.12-1.75-1.12-3.06 0-.84.16-1.58.49-2.21s.78-1.12 1.36-1.46c.58-.35 1.26-.52 2.02-.52s1.39.16 1.9.48q.765.48 1.17 1.35c.27.58.4 1.27.4 2.06v.51h-6.08v-.93h4.98l-.27.21q0-1.2-.54-1.86c-.54-.66-.87-.66-1.54-.66-.75 0-1.32.26-1.73.78s-.61 1.23-.61 2.14v.16c0 .95.23 1.66.7 2.14q.69.72 1.98.72c.47 0 .91-.07 1.32-.2s.8-.35 1.18-.66l.53 1.1c-.37.33-.83.58-1.36.76s-1.1.26-1.7.26Zm5.2 3.31v-9.58c0-.31-.01-.63-.04-.95l-.09-.98h1.57l.16 1.82h-.18c.17-.61.51-1.09 1.03-1.44s1.13-.53 1.85-.53 1.34.17 1.87.5.95.81 1.24 1.43.44 1.37.44 2.24-.15 1.61-.44 2.24-.71 1.11-1.24 1.44-1.16.5-1.87.5-1.31-.17-1.83-.52-.86-.82-1.03-1.42h.18v5.25zm3.9-4.58c.7 0 1.27-.25 1.69-.74s.63-1.22.63-2.18-.21-1.68-.63-2.17c-.42-.48-.98-.73-1.69-.73s-1.27.24-1.69.73-.63 1.21-.63 2.17.21 1.69.63 2.18.98.74 1.69.74m9.16 1.12 3.66-4.54v.77l-3.47-4.29h1.94l2.45 3.15h-.58l2.45-3.15h1.92l-3.44 4.27v-.74l3.65 4.53h-1.94l-2.64-3.38h.58L84.2 252zm14.27 3.46v-9.58c0-.31-.01-.63-.04-.95l-.09-.98h1.57l.16 1.82h-.18c.17-.61.51-1.09 1.03-1.44s1.13-.53 1.85-.53 1.34.17 1.87.5.95.81 1.24 1.43.44 1.37.44 2.24-.15 1.61-.44 2.24-.71 1.11-1.24 1.44-1.16.5-1.87.5-1.31-.17-1.83-.52-.86-.82-1.03-1.42h.18v5.25zm3.9-4.58c.7 0 1.27-.25 1.69-.74s.63-1.22.63-2.18-.21-1.68-.63-2.17c-.42-.48-.98-.73-1.69-.73s-1.27.24-1.69.73-.63 1.21-.63 2.17.21 1.69.63 2.18.98.74 1.69.74m9.12 1.27c-.71 0-1.34-.17-1.87-.5s-.95-.81-1.24-1.44-.44-1.38-.44-2.24.15-1.62.44-2.24.71-1.1 1.24-1.43 1.16-.5 1.87-.5 1.32.18 1.84.53.87.83 1.04 1.44h-.18l.16-1.82H114l-.09.98c-.03.33-.04.64-.04.95v6.13h-1.62v-1.79h.18c-.17.6-.52 1.07-1.05 1.42s-1.13.52-1.82.52Zm.4-1.26c.69 0 1.25-.25 1.67-.74s.63-1.22.63-2.18-.21-1.68-.63-2.17c-.42-.48-.98-.73-1.67-.73s-1.27.24-1.69.73-.63 1.21-.63 2.17.21 1.69.62 2.18c.42.49.98.74 1.7.74m9.19 1.26c-.7 0-1.37-.09-1.98-.26-.62-.18-1.13-.43-1.52-.76l.5-1.09c.39.31.85.54 1.36.7s1.06.23 1.65.23c.74 0 1.27-.11 1.61-.33s.5-.53.5-.94-.14-.69-.42-.9c-.28-.2-.68-.3-1.22-.3h-1.98v-1.15h1.82c.48 0 .85-.1 1.12-.3s.4-.49.4-.85c0-.38-.16-.68-.46-.9-.31-.21-.79-.32-1.44-.32-.55 0-1.06.07-1.52.21s-.9.35-1.31.62l-.48-1.04c.44-.33.96-.58 1.55-.74.6-.16 1.24-.24 1.94-.24 1.04 0 1.84.2 2.38.58.54.39.82.95.82 1.67 0 .5-.17.93-.5 1.28-.34.35-.79.57-1.35.64v-.21c.65.03 1.17.23 1.56.58.39.36.58.83.58 1.42 0 .73-.31 1.3-.92 1.74-.61.43-1.51.65-2.68.65Zm5.48-.15v-8.06h1.34l2.91 5.15 2.91-5.15h1.34V252h-1.42v-6.26h.35l-2.8 4.96h-.77l-2.8-4.96h.35V252h-1.42Zm14.74.15c-1.3 0-2.33-.37-3.07-1.1-.75-.74-1.12-1.75-1.12-3.06 0-.84.16-1.58.49-2.21s.78-1.12 1.36-1.46c.58-.35 1.26-.52 2.02-.52s1.39.16 1.9.48q.765.48 1.17 1.35c.27.58.4 1.27.4 2.06v.51h-6.08v-.93h4.98l-.27.21q0-1.2-.54-1.86c-.54-.66-.87-.66-1.54-.66-.75 0-1.32.26-1.73.78s-.61 1.23-.61 2.14v.16c0 .95.23 1.66.7 2.14q.69.72 1.98.72c.47 0 .91-.07 1.32-.2s.8-.35 1.18-.66l.53 1.1c-.37.33-.83.58-1.36.76s-1.1.26-1.7.26Zm5.2 3.31v-9.58c0-.31-.01-.63-.04-.95l-.09-.98h1.57l.16 1.82H146c.17-.61.51-1.09 1.03-1.44s1.13-.53 1.85-.53 1.34.17 1.87.5.95.81 1.24 1.43.44 1.37.44 2.24-.15 1.61-.44 2.24-.71 1.11-1.24 1.44-1.16.5-1.87.5-1.31-.17-1.83-.52-.86-.82-1.03-1.42h.18v5.25zm3.9-4.58c.7 0 1.27-.25 1.69-.74s.63-1.22.63-2.18-.21-1.68-.63-2.17c-.42-.48-.98-.73-1.69-.73s-1.27.24-1.69.73-.63 1.21-.63 2.17.21 1.69.63 2.18.98.74 1.69.74m9.16 1.12 3.66-4.54v.77l-3.47-4.29h1.94l2.45 3.15h-.58l2.45-3.15h1.92l-3.44 4.27v-.74l3.65 4.53h-1.94l-2.64-3.38h.58l-2.66 3.38zm14.91 0v-1.39h2.62v-8.48h.83l-3.2 1.95v-1.6l2.83-1.76h1.2v9.89h2.46V252h-6.75Zm12.48.15c-1.3 0-2.31-.28-3.04-.83s-1.09-1.33-1.09-2.32c0-.79.24-1.44.72-1.96s1.11-.83 1.89-.94v.29c-.7-.15-1.27-.47-1.69-.98-.42-.5-.63-1.11-.63-1.82 0-.94.34-1.67 1.02-2.21.68-.53 1.62-.8 2.82-.8s2.15.27 2.83.8 1.02 1.27 1.02 2.21c0 .71-.2 1.33-.6 1.83-.4.51-.95.82-1.64.95v-.27c.77.11 1.38.42 1.84.94s.69 1.17.69 1.96c0 .99-.36 1.77-1.09 2.32s-1.74.83-3.06.83Zm0-1.31c.86 0 1.51-.16 1.94-.49s.64-.81.64-1.46-.21-1.14-.64-1.46-1.07-.48-1.94-.48-1.51.16-1.94.48-.64.81-.64 1.46.22 1.14.65 1.46c.43.33 1.07.49 1.93.49m0-5.2c.75 0 1.31-.17 1.7-.5s.58-.8.58-1.38-.19-1.03-.58-1.36-.96-.5-1.7-.5-1.3.17-1.7.5c-.39.33-.59.78-.59 1.36s.2 1.05.59 1.38.96.5 1.7.5m9.6 6.51q-1.95 0-3-1.5c-1.05-1.5-1.05-2.43-1.05-4.3s.35-3.34 1.05-4.31c.7-.98 1.7-1.46 3-1.46s2.31.49 3.01 1.46c.69.98 1.04 2.41 1.04 4.3s-.35 3.32-1.05 4.31-1.7 1.5-3 1.5m0-1.39c.82 0 1.43-.36 1.83-1.07s.6-1.83.6-3.34-.2-2.64-.6-3.34q-.6-1.05-1.83-1.05c-1.23 0-1.42.35-1.82 1.05-.41.7-.61 1.81-.61 3.32s.21 2.65.62 3.36 1.02 1.07 1.82 1.07Zm9.6 1.39q-1.95 0-3-1.5c-1.05-1.5-1.05-2.43-1.05-4.3s.35-3.34 1.05-4.31c.7-.98 1.7-1.46 3-1.46s2.31.49 3.01 1.46c.69.98 1.04 2.41 1.04 4.3s-.35 3.32-1.05 4.31-1.7 1.5-3 1.5m0-1.39c.82 0 1.43-.36 1.83-1.07s.6-1.83.6-3.34-.2-2.64-.6-3.34q-.6-1.05-1.83-1.05c-1.23 0-1.42.35-1.82 1.05-.41.7-.61 1.81-.61 3.32s.21 2.65.62 3.36 1.02 1.07 1.82 1.07Zm6.08 4.7v-9.58c0-.31-.01-.63-.04-.95l-.09-.98h1.57l.16 1.82h-.18c.17-.61.51-1.09 1.03-1.44s1.13-.53 1.85-.53 1.34.17 1.87.5.95.81 1.24 1.43.44 1.37.44 2.24-.15 1.61-.44 2.24-.71 1.11-1.24 1.44-1.16.5-1.87.5-1.31-.17-1.83-.52-.86-.82-1.03-1.42h.18v5.25zm3.9-4.58c.7 0 1.27-.25 1.69-.74s.63-1.22.63-2.18-.21-1.68-.63-2.17c-.42-.48-.98-.73-1.69-.73s-1.27.24-1.69.73-.63 1.21-.63 2.17.21 1.69.63 2.18.98.74 1.69.74m5.44 1.12v-1.9h1.9v1.9zm10.77 2.88c-.47-.79-.85-1.57-1.15-2.33s-.52-1.54-.66-2.32-.21-1.6-.21-2.44.07-1.67.21-2.45.36-1.55.66-2.3c.3-.76.68-1.53 1.15-2.32h1.31c-.55 1.21-.97 2.39-1.24 3.56s-.41 2.34-.41 3.51.14 2.34.41 3.51.69 2.36 1.24 3.58zm2.93-2.88v-8.06h7.23V252h-1.6v-6.8h-4.03v6.8zm13.45.15c-1.3 0-2.33-.37-3.07-1.1-.75-.74-1.12-1.75-1.12-3.06 0-.84.16-1.58.49-2.21s.78-1.12 1.36-1.46c.58-.35 1.26-.52 2.02-.52s1.39.16 1.9.48q.765.48 1.17 1.35c.27.58.4 1.27.4 2.06v.51h-6.08v-.93h4.98l-.27.21q0-1.2-.54-1.86c-.54-.66-.87-.66-1.54-.66-.75 0-1.32.26-1.73.78s-.61 1.23-.61 2.14v.16c0 .95.23 1.66.7 2.14q.69.72 1.98.72c.47 0 .91-.07 1.32-.2s.8-.35 1.18-.66l.53 1.1c-.37.33-.83.58-1.36.76s-1.1.26-1.7.26Zm10.29-.15v-3.12c-.3.16-.62.29-.96.38s-.7.14-1.09.14c-1.16 0-2.02-.27-2.58-.82s-.84-1.37-.84-2.47v-2.16h1.6v2.03c0 .74.17 1.27.5 1.6s.85.5 1.57.5q.54 0 .96-.12c.42-.12.55-.21.82-.38v-3.63h1.62v8.06h-1.58Zm7.15.15c-.71 0-1.34-.17-1.87-.5s-.95-.81-1.24-1.44-.44-1.38-.44-2.24.15-1.62.44-2.24.71-1.1 1.24-1.43 1.16-.5 1.87-.5 1.32.18 1.84.53.87.83 1.04 1.44h-.18l.16-1.82h1.57l-.09.98c-.03.33-.04.64-.04.95v6.13h-1.62v-1.79h.18c-.17.6-.52 1.07-1.05 1.42s-1.13.52-1.82.52Zm.4-1.26c.69 0 1.25-.25 1.67-.74s.63-1.22.63-2.18-.21-1.68-.63-2.17c-.42-.48-.98-.73-1.67-.73s-1.27.24-1.69.73-.63 1.21-.63 2.17.21 1.69.62 2.18c.42.49.98.74 1.7.74m8.12 1.11v-6.77h-2.85v-1.3h7.31v1.3h-2.86V252zm5.76 0v-8.06h1.6v2.82h2.29c1.06 0 1.85.22 2.38.66s.8 1.09.8 1.93c0 .54-.12 1.02-.37 1.42s-.61.71-1.08.92-1.05.32-1.74.32h-3.89Zm1.6-1.1h2.11c.6 0 1.06-.13 1.38-.38s.48-.64.48-1.16-.16-.9-.47-1.14-.78-.36-1.38-.36h-2.11v3.04Zm15.15 1.25c-1.22 0-2.18-.38-2.9-1.14s-1.08-1.87-1.08-3.34v-1.39c0-1.5.32-2.71.97-3.63q.975-1.38 3-1.86l2.94-.7.46 1.3-3.3.77c-.58.13-1.05.37-1.42.72s-.65.77-.84 1.25-.28.99-.28 1.54v.74h-.24c.13-.49.33-.91.62-1.26.28-.35.63-.62 1.06-.82.42-.2.89-.3 1.42-.3.69 0 1.3.16 1.82.48s.93.78 1.22 1.38.44 1.32.44 2.14-.16 1.59-.48 2.21-.77 1.09-1.35 1.42-1.27.5-2.06.5Zm-.05-1.25c.73 0 1.29-.24 1.7-.71s.62-1.18.62-2.1-.21-1.62-.62-2.1c-.42-.48-.98-.72-1.7-.72s-1.28.24-1.7.71-.62 1.15-.62 2.02c0 .96.21 1.68.62 2.17s.98.73 1.7.73m9.74 1.25c-1.3 0-2.33-.37-3.07-1.1-.75-.74-1.12-1.75-1.12-3.06 0-.84.16-1.58.49-2.21s.78-1.12 1.36-1.46c.58-.35 1.26-.52 2.02-.52s1.39.16 1.9.48q.765.48 1.17 1.35c.27.58.4 1.27.4 2.06v.51h-6.08v-.93h4.98l-.27.21q0-1.2-.54-1.86c-.54-.66-.87-.66-1.54-.66-.75 0-1.32.26-1.73.78s-.61 1.23-.61 2.14v.16c0 .95.23 1.66.7 2.14q.69.72 1.98.72c.47 0 .91-.07 1.32-.2s.8-.35 1.18-.66l.53 1.1c-.37.33-.83.58-1.36.76s-1.1.26-1.7.26Zm7.94 0c-.7 0-1.37-.09-1.98-.26-.62-.18-1.13-.43-1.52-.76l.5-1.09c.39.31.85.54 1.36.7s1.06.23 1.65.23c.74 0 1.27-.11 1.61-.33s.5-.53.5-.94-.14-.69-.42-.9c-.28-.2-.68-.3-1.22-.3h-1.98v-1.15h1.82c.48 0 .85-.1 1.12-.3s.4-.49.4-.85c0-.38-.16-.68-.46-.9-.31-.21-.79-.32-1.44-.32-.55 0-1.06.07-1.52.21s-.9.35-1.31.62l-.48-1.04c.44-.33.96-.58 1.55-.74.6-.16 1.24-.24 1.94-.24 1.04 0 1.84.2 2.38.58.54.39.82.95.82 1.67 0 .5-.17.93-.5 1.28-.34.35-.79.57-1.35.64v-.21c.65.03 1.17.23 1.56.58.39.36.58.83.58 1.42 0 .73-.31 1.3-.92 1.74-.61.43-1.51.65-2.68.65Zm9.82 3.31v-9.58c0-.31-.01-.63-.04-.95l-.09-.98h1.57l.16 1.82h-.18c.17-.61.51-1.09 1.03-1.44s1.13-.53 1.85-.53 1.34.17 1.87.5.95.81 1.24 1.43.44 1.37.44 2.24-.15 1.61-.44 2.24-.71 1.11-1.24 1.44-1.16.5-1.87.5-1.31-.17-1.83-.52-.86-.82-1.03-1.42h.18v5.25zm3.9-4.58c.7 0 1.27-.25 1.69-.74s.63-1.22.63-2.18-.21-1.68-.63-2.17c-.42-.48-.98-.73-1.69-.73s-1.27.24-1.69.73-.63 1.21-.63 2.17.21 1.69.63 2.18.98.74 1.69.74m5.48 1.33-.54-1.28c.36-.15.67-.34.92-.57s.45-.53.59-.89.25-.81.31-1.34.1-1.18.1-1.94v-2.26h6.08v8.06h-1.6v-6.8h-2.99v1.04c0 1.22-.1 2.22-.29 3.02s-.5 1.43-.92 1.9c-.42.46-.97.81-1.66 1.05Zm9.09 1.87v-3.33h.9c.35-.53.61-1.16.77-1.87s.24-1.58.24-2.59v-2.35h5.9v6.82h1.3v3.33h-1.39v-2.08h-6.32v2.08h-1.39Zm2.38-3.31h3.9v-5.58h-2.99v1.42c0 .78-.08 1.54-.23 2.28-.16.74-.38 1.37-.68 1.88m8.38 4.69v-9.58c0-.31-.01-.63-.04-.95l-.09-.98h1.57l.16 1.82h-.18c.17-.61.51-1.09 1.03-1.44s1.13-.53 1.85-.53 1.34.17 1.87.5.95.81 1.24 1.43.44 1.37.44 2.24-.15 1.61-.44 2.24-.71 1.11-1.24 1.44-1.16.5-1.87.5-1.31-.17-1.83-.52-.86-.82-1.03-1.42h.18v5.25zm3.9-4.58c.7 0 1.27-.25 1.69-.74s.63-1.22.63-2.18-.21-1.68-.63-2.17c-.42-.48-.98-.73-1.69-.73s-1.27.24-1.69.73-.63 1.21-.63 2.17.21 1.69.63 2.18.98.74 1.69.74m9.13 1.27c-.71 0-1.34-.17-1.87-.5s-.95-.81-1.24-1.44-.44-1.38-.44-2.24.15-1.62.44-2.24.71-1.1 1.24-1.43 1.16-.5 1.87-.5 1.32.18 1.84.53.87.83 1.04 1.44h-.18l.16-1.82h1.57l-.09.98c-.03.33-.04.64-.04.95v6.13h-1.62v-1.79h.18c-.17.6-.52 1.07-1.05 1.42s-1.13.52-1.82.52Zm.4-1.26c.69 0 1.25-.25 1.67-.74s.63-1.22.63-2.18-.21-1.68-.63-2.17c-.42-.48-.98-.73-1.67-.73s-1.27.24-1.69.73-.63 1.21-.63 2.17.21 1.69.62 2.18c.42.49.98.74 1.7.74m6.38 1.11v-8.06h1.34l2.91 5.15 2.91-5.15h1.34V252h-1.42v-6.26h.35l-2.8 4.96h-.77l-2.8-4.96h.35V252h-1.42Zm10.95 0v-8.06h1.6v3.28h4.08v-3.28h1.6V252h-1.6v-3.52h-4.08V252zm9.71 0v-8.06h1.47v6.51h-.45l4.86-6.51h1.34V252h-1.46v-6.53h.46l-4.9 6.53h-1.34Zm9.66 0v-8.06h1.6v3.3h1.39l2.51-3.3h1.76l-3.01 3.97-.4-.51c.31.03.58.11.8.23q.33.18.66.54.315.345.66.93l1.68 2.91H408l-1.44-2.46c-.16-.28-.32-.49-.46-.65a1.16 1.16 0 0 0-.51-.32c-.19-.06-.43-.09-.7-.09h-1.2v3.52h-1.6Zm11.99.15c-.71 0-1.34-.17-1.87-.5s-.95-.81-1.24-1.44-.44-1.38-.44-2.24.15-1.62.44-2.24.71-1.1 1.24-1.43 1.16-.5 1.87-.5 1.32.18 1.84.53.87.83 1.04 1.44h-.18l.16-1.82h1.57l-.09.98c-.03.33-.04.64-.04.95v6.13h-1.62v-1.79h.18c-.17.6-.52 1.07-1.05 1.42s-1.13.52-1.82.52Zm.4-1.26c.69 0 1.25-.25 1.67-.74s.63-1.22.63-2.18-.21-1.68-.63-2.17c-.42-.48-.98-.73-1.67-.73s-1.27.24-1.69.73-.63 1.21-.63 2.17.21 1.69.62 2.18c.42.49.98.74 1.7.74m6.88 3.99h-1.31c.55-1.21.97-2.39 1.25-3.57.28-1.17.42-2.35.42-3.52s-.14-2.33-.42-3.5-.69-2.36-1.25-3.57h1.31c.48.79.87 1.56 1.17 2.32s.51 1.53.65 2.31c.13.78.2 1.6.2 2.44s-.07 1.67-.2 2.46c-.13.78-.35 1.55-.65 2.31s-.69 1.53-1.17 2.32m134.84-86.62v-2.21h-5.04v-1.44l5.36-7.63h1.66v7.5h1.62v1.57h-1.62v2.21zm0-3.78v-5.07h.38l-3.89 5.55v-.48h3.5Zm8.71 3.94c-1.32 0-2.34-.5-3.06-1.51s-1.07-2.45-1.07-4.31.36-3.32 1.07-4.3 1.73-1.47 3.06-1.47 2.35.49 3.06 1.47 1.06 2.41 1.06 4.29-.36 3.32-1.06 4.33c-.71 1.01-1.73 1.51-3.06 1.51Zm0-1.7c.73 0 1.26-.33 1.62-1 .35-.67.53-1.71.53-3.14s-.18-2.47-.53-3.11-.89-.97-1.62-.97-1.25.32-1.61.97-.54 1.68-.54 3.11.18 2.48.54 3.14c.36.67.89 1 1.61 1m4.75 1.54 3.76-4.62v.91l-3.55-4.37h2.37l2.32 2.99h-.72l2.32-2.99h2.35l-3.52 4.37v-.91l3.74 4.62h-2.38l-2.51-3.22h.72l-2.53 3.22zm14.26.16c-1.42 0-2.51-.49-3.29-1.47-.77-.98-1.16-2.36-1.16-4.13 0-1.28.2-2.37.59-3.26s.96-1.57 1.69-2.04 1.61-.71 2.63-.71c.61 0 1.21.11 1.81.33s1.11.53 1.54.94l-.69 1.54c-.39-.36-.82-.63-1.28-.81s-.92-.26-1.39-.26c-.96 0-1.69.33-2.19.98q-.75.975-.75 2.91v1.2h-.19c.08-.54.27-1.01.54-1.4.28-.39.63-.69 1.07-.9s.92-.31 1.46-.31c.66 0 1.25.15 1.76.46s.91.74 1.21 1.28c.29.54.44 1.17.44 1.87s-.16 1.37-.49 1.94-.77 1.02-1.34 1.34-1.22.49-1.97.49Zm-.11-1.63c.39 0 .74-.09 1.04-.26s.53-.41.7-.73.25-.67.25-1.08-.08-.78-.25-1.09-.4-.55-.7-.73-.65-.26-1.04-.26-.74.09-1.04.26c-.3.18-.53.42-.7.73s-.26.67-.26 1.09.09.77.26 1.08.4.56.7.73.65.26 1.04.26m9.3 1.63c-1.32 0-2.34-.5-3.06-1.51s-1.07-2.45-1.07-4.31.36-3.32 1.07-4.3 1.73-1.47 3.06-1.47 2.35.49 3.06 1.47 1.06 2.41 1.06 4.29-.35 3.32-1.06 4.33-1.73 1.51-3.06 1.51Zm0-1.7c.73 0 1.26-.33 1.62-1 .35-.67.53-1.71.53-3.14s-.18-2.47-.53-3.11-.89-.97-1.62-.97-1.25.32-1.61.97-.54 1.68-.54 3.11.18 2.48.54 3.14c.36.67.89 1 1.61 1m60.66-91.93c-1.32 0-2.35-.28-3.1-.85s-1.11-1.35-1.11-2.35c0-.79.24-1.45.72-1.97s1.1-.83 1.87-.93v.34c-.69-.15-1.25-.47-1.67-.98-.42-.5-.63-1.11-.63-1.82 0-.95.35-1.69 1.05-2.23s1.66-.81 2.87-.81 2.19.27 2.89.81 1.05 1.28 1.05 2.23c0 .71-.2 1.33-.6 1.84s-.94.83-1.62.94v-.32c.76.11 1.37.42 1.82.94.46.52.69 1.17.69 1.96 0 1-.37 1.79-1.11 2.35s-1.78.85-3.11.85Zm0-1.6c.78 0 1.36-.15 1.74-.44s.58-.73.58-1.3-.19-1.01-.58-1.3c-.38-.29-.96-.43-1.74-.43s-1.35.14-1.74.43-.58.72-.58 1.3.19 1.01.58 1.3.97.44 1.74.44m0-5.07c.66 0 1.17-.15 1.51-.45.35-.3.52-.71.52-1.23s-.17-.92-.52-1.21-.85-.44-1.51-.44-1.15.15-1.5.44-.52.7-.52 1.21.17.93.52 1.23.84.45 1.5.45m9.6 6.67c-1.32 0-2.34-.5-3.06-1.51-.71-1.01-1.07-2.45-1.07-4.31s.36-3.32 1.07-4.3q1.065-1.47 3.06-1.47c1.995 0 2.35.49 3.06 1.47s1.06 2.41 1.06 4.29-.35 3.32-1.06 4.33-1.73 1.51-3.06 1.51Zm0-1.7c.73 0 1.26-.33 1.62-1 .35-.67.53-1.71.53-3.14s-.18-2.47-.53-3.11-.89-.97-1.62-.97-1.25.32-1.61.97-.54 1.68-.54 3.11.18 2.48.54 3.14c.36.67.89 1 1.61 1m4.75 1.54 3.76-4.62v.91l-3.55-4.37h2.37l2.32 2.99h-.72l2.32-2.99h2.35l-3.52 4.37v-.91l3.74 4.62h-2.38l-2.51-3.22h.72l-2.53 3.22zm10.83 0v-1.71h2.59v-7.84h.99l-3.33 1.98v-1.95l2.93-1.76h1.47v9.57h2.43v1.71h-7.09Zm12.63.16c-1.32 0-2.34-.5-3.06-1.51-.71-1.01-1.07-2.45-1.07-4.31s.36-3.32 1.07-4.3q1.065-1.47 3.06-1.47c1.995 0 2.35.49 3.06 1.47s1.06 2.41 1.06 4.29-.35 3.32-1.06 4.33-1.73 1.51-3.06 1.51Zm0-1.7c.73 0 1.26-.33 1.62-1 .35-.67.53-1.71.53-3.14s-.18-2.47-.53-3.11-.89-.97-1.62-.97-1.25.32-1.61.97-.54 1.68-.54 3.11.18 2.48.54 3.14c.36.67.89 1 1.61 1m9.6 1.7c-1.32 0-2.34-.5-3.06-1.51s-1.07-2.45-1.07-4.31.36-3.32 1.07-4.3q1.065-1.47 3.06-1.47c1.995 0 2.35.49 3.06 1.47s1.06 2.41 1.06 4.29-.35 3.32-1.06 4.33-1.73 1.51-3.06 1.51Zm0-1.7c.73 0 1.26-.33 1.62-1 .35-.67.53-1.71.53-3.14s-.18-2.47-.53-3.11-.89-.97-1.62-.97-1.25.32-1.61.97-.54 1.68-.54 3.11.18 2.48.54 3.14c.36.67.89 1 1.61 1m-47.09 47.97c-.77 0-1.5-.12-2.21-.34s-1.29-.56-1.76-.98l.58-1.26c.52.41 1.06.7 1.6.9s1.12.29 1.74.29c.79 0 1.39-.17 1.8-.5s.62-.81.62-1.42-.21-1.07-.62-1.38-1.02-.47-1.82-.47h-1.74v-1.34h1.62c.68 0 1.23-.17 1.63-.52.41-.35.61-.82.61-1.42 0-.54-.19-.96-.56-1.26-.37-.29-.91-.44-1.6-.44q-1.755 0-3.09 1.23l-.56-1.26c.44-.44.99-.78 1.66-1.02s1.38-.36 2.11-.36q1.695 0 2.67.78c.65.52.98 1.24.98 2.15 0 .69-.2 1.29-.58 1.78-.39.49-.92.82-1.59.98v-.18c.8.13 1.42.45 1.85.95.43.51.65 1.14.65 1.9 0 1-.35 1.79-1.06 2.36s-1.68.86-2.92.86Zm6.83-.14v-1.39h2.62v-8.48h.83l-3.2 1.95v-1.6l2.83-1.76h1.2v9.89h2.46v1.39h-6.75Zm9.01 0v-1.23l3.87-4.05c.5-.52.87-1.01 1.12-1.47s.37-.93.37-1.42q0-.915-.57-1.38c-.38-.31-.93-.46-1.64-.46q-.855 0-1.59.3c-.735.3-.97.51-1.43.93l-.58-1.26c.45-.42 1-.75 1.67-1a6 6 0 0 1 2.12-.38c1.17 0 2.08.27 2.71.8s.95 1.3.95 2.29c0 .7-.17 1.38-.51 2.02-.34.65-.85 1.31-1.54 1.99l-3.34 3.38v-.45h5.86v1.39zm13.07.14q-1.95 0-3-1.5c-.7-1-1.05-2.43-1.05-4.3s.35-3.34 1.05-4.31c.7-.98 1.7-1.46 3-1.46s2.31.49 3.01 1.46 1.04 2.41 1.04 4.3-.35 3.31-1.05 4.31q-1.05 1.5-3 1.5m0-1.39c.82 0 1.43-.36 1.83-1.07s.6-1.83.6-3.34-.2-2.64-.6-3.34-1.01-1.05-1.83-1.05-1.42.35-1.82 1.05-.61 1.81-.61 3.32.21 2.64.62 3.36c.41.71 1.02 1.07 1.82 1.07Zm10.35 4.7v-9.58c0-.31-.01-.63-.04-.95l-.09-.98h1.57l.16 1.82h-.18c.17-.61.51-1.09 1.03-1.44s1.13-.53 1.85-.53 1.34.17 1.87.5.95.81 1.24 1.43.44 1.37.44 2.24-.15 1.61-.44 2.24-.71 1.11-1.24 1.44-1.16.5-1.87.5-1.31-.17-1.83-.52-.86-.82-1.03-1.42h.18v5.25zm3.9-4.58c.7 0 1.27-.25 1.69-.74s.63-1.22.63-2.18-.21-1.68-.63-2.17-.98-.73-1.69-.73-1.27.24-1.69.73-.63 1.21-.63 2.17.21 1.69.63 2.18.98.74 1.69.74m5.45 1.13v-1.9h1.9v1.9zm-51.97 91.82v-1.23l3.87-4.05c.5-.52.88-1.01 1.12-1.47.25-.46.37-.93.37-1.42q0-.915-.57-1.38c-.38-.31-.93-.46-1.64-.46q-.855 0-1.59.3c-.5.2-.97.51-1.43.93l-.58-1.26c.45-.42 1.01-.75 1.67-1a6 6 0 0 1 2.12-.38c1.17 0 2.08.27 2.71.8s.95 1.3.95 2.29c0 .7-.17 1.38-.51 2.02-.34.65-.85 1.31-1.54 1.99l-3.34 3.38v-.45h5.86v1.39zm9.87 0 5.54-10.51v.64h-6.18v-1.41h7.68v1.23l-5.22 10.05zm12.69.15c-.77 0-1.5-.11-2.21-.34-.7-.23-1.29-.56-1.76-.98l.58-1.26c.52.41 1.06.71 1.6.9s1.13.29 1.74.29c.79 0 1.39-.17 1.8-.5s.62-.81.62-1.42-.21-1.07-.62-1.38-1.02-.47-1.82-.47h-1.74v-1.34h1.62c.68 0 1.23-.17 1.63-.52s.61-.82.61-1.42c0-.54-.19-.96-.56-1.26s-.91-.44-1.6-.44q-1.755 0-3.09 1.23l-.56-1.26c.44-.44.99-.78 1.66-1.02s1.38-.36 2.11-.36q1.695 0 2.67.78c.65.52.98 1.23.98 2.15 0 .69-.19 1.29-.58 1.78s-.92.82-1.59.98v-.18c.8.13 1.42.45 1.85.95.43.51.65 1.14.65 1.9 0 1-.35 1.79-1.06 2.36s-1.68.86-2.92.86Zm9.71 0q-1.95 0-3-1.5c-.7-1-1.05-2.43-1.05-4.3s.35-3.34 1.05-4.31c.7-.98 1.7-1.46 3-1.46s2.31.49 3.01 1.46c.69.98 1.04 2.41 1.04 4.3s-.35 3.31-1.05 4.31q-1.05 1.5-3 1.5m0-1.39c.82 0 1.43-.36 1.83-1.07s.6-1.83.6-3.34-.2-2.64-.6-3.34q-.6-1.05-1.83-1.05c-1.23 0-1.42.35-1.82 1.05-.41.7-.61 1.8-.61 3.32s.21 2.65.62 3.36 1.02 1.07 1.82 1.07Zm10.35 4.7v-9.58c0-.31-.01-.63-.04-.95l-.09-.98h1.57l.16 1.82h-.18c.17-.61.51-1.09 1.03-1.44s1.13-.53 1.85-.53 1.34.17 1.87.5.95.81 1.24 1.43.44 1.37.44 2.24-.15 1.61-.44 2.24-.71 1.11-1.24 1.44-1.16.5-1.87.5-1.31-.17-1.83-.52-.86-.82-1.03-1.42h.18v5.25zm3.9-4.58c.7 0 1.27-.24 1.69-.74.42-.49.63-1.22.63-2.18s-.21-1.68-.63-2.17c-.42-.48-.98-.73-1.69-.73s-1.27.24-1.69.73-.63 1.21-.63 2.17.21 1.69.63 2.18.98.74 1.69.74m5.45 1.12v-1.9h1.9v1.9zm-43.73-44.32c-1.42 0-2.51-.49-3.29-1.47-.77-.98-1.16-2.36-1.16-4.13 0-1.28.2-2.37.59-3.26s.96-1.57 1.69-2.04 1.61-.71 2.63-.71c.61 0 1.21.11 1.81.33s1.11.53 1.54.94l-.69 1.54c-.39-.36-.82-.63-1.28-.81s-.92-.26-1.39-.26c-.96 0-1.69.33-2.19.98q-.75.975-.75 2.91v1.2h-.19c.08-.54.27-1.01.54-1.4.28-.39.63-.69 1.07-.9s.92-.31 1.46-.31c.66 0 1.25.15 1.76.46s.91.74 1.21 1.28c.29.54.44 1.17.44 1.87s-.16 1.37-.49 1.94-.77 1.02-1.34 1.34-1.22.49-1.97.49Zm-.11-1.63c.39 0 .74-.09 1.04-.26s.53-.41.7-.73.25-.67.25-1.08-.08-.78-.25-1.09-.4-.55-.7-.73-.65-.26-1.04-.26-.74.09-1.04.26c-.3.18-.53.42-.7.73s-.26.67-.26 1.09.09.77.26 1.08.4.56.7.73.65.26 1.04.26m9.31 1.63c-1.32 0-2.34-.5-3.06-1.51-.71-1.01-1.07-2.45-1.07-4.31s.36-3.32 1.07-4.3q1.065-1.47 3.06-1.47c1.995 0 2.35.49 3.06 1.47s1.06 2.41 1.06 4.29-.35 3.32-1.06 4.33-1.73 1.51-3.06 1.51Zm0-1.7c.73 0 1.26-.33 1.62-1 .35-.67.53-1.71.53-3.14s-.18-2.47-.53-3.11-.89-.97-1.62-.97-1.25.32-1.61.97-.54 1.68-.54 3.11.18 2.48.54 3.14c.36.67.89 1 1.61 1m4.75 1.54 3.76-4.62v.91l-3.55-4.37h2.37l2.32 2.99h-.72l2.32-2.99h2.35l-3.52 4.37v-.91l3.74 4.62h-2.38l-2.51-3.22h.72l-2.53 3.22zm13.01.16c-.61 0-1.21-.11-1.81-.34s-1.11-.54-1.54-.94l.69-1.54c.39.36.82.63 1.28.82.46.18.92.27 1.39.27.95 0 1.68-.33 2.18-.98s.76-1.62.76-2.91v-1.2h.19c-.07.53-.26 1-.54 1.39q-.435.6-1.08.9c-.43.21-.91.31-1.45.31-.65 0-1.24-.15-1.75-.46-.52-.31-.92-.74-1.22-1.29-.29-.55-.44-1.17-.44-1.86 0-.74.16-1.39.49-1.95s.77-1.01 1.34-1.34c.56-.33 1.22-.49 1.95-.49 1.43 0 2.53.49 3.3 1.46.77.98 1.16 2.35 1.16 4.14 0 1.27-.19 2.35-.58 3.25s-.95 1.58-1.69 2.05-1.62.7-2.64.7Zm.58-5.84c.39 0 .74-.08 1.04-.26.3-.17.53-.41.7-.73.17-.31.26-.67.26-1.08s-.08-.78-.26-1.09-.41-.55-.7-.73-.65-.26-1.04-.26-.74.09-1.04.26c-.3.18-.53.42-.7.73s-.25.67-.25 1.09.08.77.25 1.08c.17.32.4.56.7.73s.65.26 1.04.26m9.87 5.84c-1.32 0-2.34-.5-3.06-1.51s-1.07-2.45-1.07-4.31.36-3.32 1.07-4.3 1.73-1.47 3.06-1.47 2.35.49 3.06 1.47 1.06 2.41 1.06 4.29-.35 3.32-1.06 4.33-1.73 1.51-3.06 1.51Zm0-1.7c.73 0 1.26-.33 1.62-1 .35-.67.53-1.71.53-3.14s-.18-2.47-.53-3.11-.89-.97-1.62-.97-1.25.32-1.61.97-.54 1.68-.54 3.11.18 2.48.54 3.14c.36.67.89 1 1.61 1m69.59-92.09V63.35h9.87v11.28h-2.05v-9.6h-5.79v9.6zm16.2.16c-1.35 0-2.42-.37-3.18-1.12-.77-.75-1.15-1.77-1.15-3.07 0-.84.17-1.58.5-2.21s.79-1.12 1.38-1.47 1.28-.53 2.07-.53 1.43.17 1.95.5.92.79 1.19 1.39.41 1.3.41 2.1v.53h-5.89v-1.06h4.46l-.27.22c0-.75-.16-1.32-.47-1.71s-.77-.59-1.37-.59c-.66 0-1.17.23-1.53.7s-.54 1.12-.54 1.97v.21c0 .88.22 1.53.65 1.96s1.04.65 1.83.65q.69 0 1.29-.18t1.14-.6l.59 1.34q-.57.465-1.38.72c-.81.255-1.1.26-1.7.26Zm10.16-.16v-2.94c-.3.14-.61.25-.93.32-.32.08-.66.11-1.01.11-1.18 0-2.07-.28-2.65-.85s-.87-1.41-.87-2.53v-2.19h1.98v2.02c0 .68.15 1.18.45 1.48s.78.46 1.44.46c.31 0 .59-.03.83-.1s.48-.17.7-.3v-3.55h1.98v8.08h-1.94Zm7.4.16c-.7 0-1.32-.17-1.86-.5-.53-.34-.95-.82-1.25-1.45s-.45-1.38-.45-2.26.15-1.62.45-2.25c.3-.62.71-1.1 1.25-1.44s1.15-.5 1.86-.5 1.28.17 1.8.5c.52.34.86.79 1.03 1.35h-.18l.18-1.7h1.92l-.09 1.01c-.03.34-.04.68-.04 1.01v6.06h-1.98l-.02-1.66h.19c-.17.55-.52 1-1.04 1.33s-1.11.5-1.78.5Zm.56-1.54c.63 0 1.14-.22 1.52-.66s.58-1.11.58-2.01-.19-1.56-.58-2c-.38-.44-.89-.66-1.52-.66s-1.14.22-1.52.66-.58 1.1-.58 2 .19 1.57.57 2.01q.57.66 1.53.66m8.14 1.38v-6.51h-2.77v-1.57h7.54v1.57h-2.78v6.51h-1.98Zm6 0v-8.08h1.98v2.7h2.13c1.08 0 1.89.23 2.43.68s.82 1.11.82 1.96c0 .55-.13 1.04-.38 1.45-.26.41-.63.73-1.11.95-.49.22-1.07.34-1.75.34h-4.11Zm1.98-1.31h1.86c.54 0 .96-.11 1.25-.34s.43-.58.43-1.05-.14-.81-.42-1.03q-.42-.33-1.26-.33h-1.86zm11.43 1.31v-8.08h1.98v3.17h3.65v-3.17h1.98v8.08h-1.98v-3.38h-3.65v3.38zm13.07.16c-.7 0-1.32-.17-1.86-.5-.53-.34-.95-.82-1.25-1.45s-.45-1.38-.45-2.26.15-1.62.45-2.25c.3-.62.71-1.1 1.25-1.44s1.15-.5 1.86-.5 1.28.17 1.8.5c.52.34.86.79 1.03 1.35h-.18l.18-1.7h1.92l-.09 1.01c-.03.34-.04.68-.04 1.01v6.06h-1.98l-.02-1.66h.19c-.17.55-.52 1-1.04 1.33s-1.11.5-1.78.5Zm.56-1.54c.63 0 1.14-.22 1.52-.66s.58-1.11.58-2.01-.19-1.56-.58-2c-.38-.44-.89-.66-1.52-.66s-1.14.22-1.52.66-.58 1.1-.58 2 .19 1.57.57 2.01q.57.66 1.53.66m9.6 1.38 3.76-4.62v.91l-3.55-4.37h2.37l2.32 2.99h-.72l2.32-2.99h2.35l-3.52 4.37v-.91l3.74 4.62h-2.38l-2.51-3.22h.72l-2.53 3.22zm13.74.16q-1.245 0-2.16-.51c-.61-.34-1.08-.83-1.42-1.46s-.5-1.38-.5-2.24.17-1.61.5-2.23c.34-.62.81-1.11 1.42-1.45q.915-.51 2.16-.51c1.245 0 1.55.17 2.17.51s1.09.82 1.42 1.45c.34.62.5 1.37.5 2.23s-.17 1.61-.5 2.24c-.34.63-.81 1.12-1.42 1.46s-1.34.51-2.17.51m0-1.54q.945 0 1.5-.66c.37-.44.56-1.11.56-2.01s-.19-1.56-.56-2q-.555-.66-1.5-.66c-.945 0-1.13.22-1.5.66s-.56 1.1-.56 2 .19 1.57.56 2.01.88.66 1.5.66m5.62 1.6-.62-1.57c.35-.13.65-.3.89-.5.24-.21.43-.47.58-.8.14-.33.25-.73.31-1.22s.1-1.06.1-1.74v-2.48h6.43v8.08h-1.98v-6.54h-2.62v1.01c0 1.16-.11 2.14-.32 2.92-.21.79-.54 1.41-.99 1.87s-1.04.78-1.76.98Zm13.73-.06c-.83 0-1.56-.17-2.18-.51s-1.11-.83-1.45-1.46-.51-1.39-.51-2.26.17-1.62.52-2.24.83-1.09 1.45-1.42 1.34-.5 2.18-.5c.53 0 1.05.08 1.56.25s.92.4 1.24.71l-.61 1.39c-.29-.27-.61-.47-.97-.6s-.71-.2-1.05-.2c-.71 0-1.27.22-1.67.67s-.6 1.1-.6 1.95.2 1.51.6 1.97.96.69 1.67.69c.33 0 .67-.06 1.03-.19s.69-.33.98-.59l.61 1.38q-.495.465-1.26.72c-.765.255-1.02.26-1.54.26Zm6.25-.16v-6.51h-2.77v-1.57h7.54v1.57h-2.78v6.51h-1.98Zm9.89.16c-1.35 0-2.42-.37-3.18-1.12-.77-.75-1.15-1.77-1.15-3.07 0-.84.17-1.58.5-2.21q.495-.945 1.38-1.47c.59-.35 1.28-.53 2.07-.53s1.43.17 1.95.5.92.79 1.19 1.39.41 1.3.41 2.1v.53h-5.89v-1.06h4.46l-.27.22c0-.75-.16-1.32-.47-1.71s-.77-.59-1.37-.59c-.66 0-1.17.23-1.53.7s-.54 1.12-.54 1.97v.21c0 .88.22 1.53.65 1.96s1.04.65 1.83.65q.69 0 1.29-.18t1.14-.6l.59 1.34q-.57.465-1.38.72c-.81.255-1.1.26-1.7.26Zm-92 137.95v-1.39h2.62v-8.48h.83l-3.2 1.95v-1.6l2.83-1.76h1.2v9.89h2.46v1.39h-6.75Zm12.48.15c-1.3 0-2.31-.28-3.04-.83s-1.09-1.33-1.09-2.32c0-.79.24-1.44.72-1.96s1.11-.83 1.89-.94v.29c-.7-.15-1.27-.47-1.69-.97s-.63-1.11-.63-1.82c0-.94.34-1.67 1.02-2.21.68-.53 1.62-.8 2.82-.8s2.15.27 2.83.8 1.02 1.27 1.02 2.21c0 .71-.2 1.33-.6 1.83-.4.51-.95.82-1.64.95v-.27c.77.11 1.38.42 1.84.94s.69 1.17.69 1.96c0 .99-.36 1.76-1.09 2.32s-1.74.83-3.06.83Zm0-1.31c.86 0 1.51-.16 1.94-.49s.64-.81.64-1.46-.21-1.13-.64-1.46-1.07-.48-1.94-.48-1.51.16-1.94.48-.64.8-.64 1.46.22 1.14.65 1.46c.43.33 1.07.49 1.93.49m0-5.2c.75 0 1.31-.17 1.7-.5.39-.34.58-.8.58-1.38s-.2-1.03-.58-1.36c-.39-.33-.96-.5-1.7-.5s-1.3.17-1.7.5c-.39.33-.59.79-.59 1.36s.2 1.05.59 1.38.96.5 1.7.5m9.6 6.51c-1.3 0-2.31-.28-3.04-.83s-1.09-1.33-1.09-2.32c0-.79.24-1.44.72-1.96s1.11-.83 1.89-.94v.29c-.7-.15-1.27-.47-1.69-.97s-.63-1.11-.63-1.82c0-.94.34-1.67 1.02-2.21.68-.53 1.62-.8 2.82-.8s2.15.27 2.83.8 1.02 1.27 1.02 2.21c0 .71-.2 1.33-.6 1.83-.4.51-.95.82-1.64.95v-.27c.77.11 1.38.42 1.84.94s.69 1.17.69 1.96c0 .99-.36 1.76-1.09 2.32s-1.74.83-3.06.83Zm0-1.31c.86 0 1.51-.16 1.94-.49s.64-.81.64-1.46-.21-1.13-.64-1.46-1.07-.48-1.94-.48-1.51.16-1.94.48-.64.8-.64 1.46.22 1.14.65 1.46c.43.33 1.07.49 1.93.49m0-5.2c.75 0 1.31-.17 1.7-.5.39-.34.58-.8.58-1.38s-.2-1.03-.58-1.36c-.39-.33-.96-.5-1.7-.5s-1.3.17-1.7.5c-.39.33-.59.79-.59 1.36s.2 1.05.59 1.38.96.5 1.7.5m9.76 6.51a6.5 6.5 0 0 1-2.8-.62c-.41-.2-.78-.43-1.09-.71l.58-1.26c.51.4 1.04.69 1.58.89s1.11.3 1.7.3c.76 0 1.35-.2 1.78-.59s.65-.92.65-1.58-.21-1.23-.62-1.66c-.41-.42-.98-.63-1.7-.63-.5 0-.96.1-1.37.3q-.615.3-1.08.93h-1.15v-6.78h6.83v1.39h-5.25v4.06h-.42c.29-.41.67-.72 1.16-.94s1.03-.34 1.64-.34q1.08 0 1.89.45c.81.45.95.71 1.24 1.25.29.53.44 1.16.44 1.89s-.16 1.36-.49 1.91a3.4 3.4 0 0 1-1.39 1.29c-.6.31-1.31.46-2.14.46Zm10.19 3.31v-9.58c0-.31-.01-.63-.04-.95l-.09-.98h1.57l.16 1.82h-.18c.17-.61.51-1.09 1.03-1.44s1.13-.53 1.85-.53 1.34.17 1.87.5.95.81 1.24 1.43.44 1.37.44 2.24-.15 1.61-.44 2.24-.71 1.11-1.24 1.44-1.16.5-1.87.5-1.31-.17-1.83-.52-.86-.82-1.03-1.42h.18v5.25zm3.9-4.58c.7 0 1.27-.24 1.69-.74.42-.49.63-1.22.63-2.18s-.21-1.68-.63-2.17c-.42-.48-.98-.73-1.69-.73s-1.27.24-1.69.73-.63 1.21-.63 2.17.21 1.69.63 2.18.98.74 1.69.74m5.45 1.12v-1.9h1.9v1.9zm-43.73-44.32c-1.42 0-2.51-.49-3.29-1.47-.77-.98-1.16-2.36-1.16-4.13 0-1.28.2-2.37.59-3.26s.96-1.57 1.69-2.04 1.61-.71 2.63-.71c.61 0 1.21.11 1.81.33s1.11.53 1.54.94l-.69 1.54c-.39-.36-.82-.63-1.28-.81s-.92-.26-1.39-.26c-.96 0-1.69.33-2.19.98q-.75.975-.75 2.91v1.2h-.19c.08-.54.27-1.01.54-1.4.28-.39.63-.69 1.07-.9s.92-.31 1.46-.31c.66 0 1.25.15 1.76.46s.91.74 1.21 1.28c.29.54.44 1.17.44 1.87s-.16 1.37-.49 1.94-.77 1.02-1.34 1.34-1.22.49-1.97.49Zm-.11-1.63c.39 0 .74-.09 1.04-.26s.53-.41.7-.73.25-.67.25-1.08-.08-.78-.25-1.09-.4-.55-.7-.73-.65-.26-1.04-.26-.74.09-1.04.26c-.3.18-.53.42-.7.73s-.26.67-.26 1.09.09.77.26 1.08.4.56.7.73.65.26 1.04.26m9.31 1.63c-1.32 0-2.34-.5-3.06-1.51-.71-1.01-1.07-2.45-1.07-4.31s.36-3.32 1.07-4.3q1.065-1.47 3.06-1.47c1.995 0 2.35.49 3.06 1.47s1.06 2.41 1.06 4.29-.35 3.32-1.06 4.33-1.73 1.51-3.06 1.51Zm0-1.7c.73 0 1.26-.33 1.62-1 .35-.67.53-1.71.53-3.14s-.18-2.47-.53-3.11-.89-.97-1.62-.97-1.25.32-1.61.97-.54 1.68-.54 3.11.18 2.48.54 3.14c.36.67.89 1 1.61 1m4.75 1.54 3.76-4.62v.91l-3.55-4.37h2.37l2.32 2.99h-.72l2.32-2.99h2.35l-3.52 4.37v-.91l3.74 4.62h-2.38l-2.51-3.22h.72l-2.53 3.22zm14.26.16c-1.42 0-2.52-.49-3.29-1.47s-1.16-2.36-1.16-4.13c0-1.28.2-2.37.59-3.26s.96-1.57 1.69-2.04 1.61-.71 2.63-.71c.61 0 1.21.11 1.81.33s1.11.53 1.54.94l-.69 1.54a4.1 4.1 0 0 0-1.28-.81c-.46-.18-.92-.26-1.39-.26-.96 0-1.69.33-2.19.98q-.75.975-.75 2.91v1.2h-.19c.08-.54.27-1.01.54-1.4.28-.39.63-.69 1.07-.9s.92-.31 1.46-.31c.66 0 1.25.15 1.76.46s.91.74 1.21 1.28c.29.54.44 1.17.44 1.87s-.16 1.37-.49 1.94-.77 1.02-1.34 1.34-1.22.49-1.97.49Zm-.11-1.63c.39 0 .74-.09 1.04-.26s.53-.41.7-.73c.17-.31.25-.67.25-1.08s-.08-.78-.25-1.09-.4-.55-.7-.73-.65-.26-1.04-.26-.74.09-1.04.26c-.3.18-.53.42-.7.73s-.26.67-.26 1.09.08.77.26 1.08.41.56.7.73c.3.17.65.26 1.04.26m9.31 1.63c-1.32 0-2.34-.5-3.06-1.51s-1.07-2.45-1.07-4.31.36-3.32 1.07-4.3 1.73-1.47 3.06-1.47 2.35.49 3.06 1.47 1.06 2.41 1.06 4.29-.35 3.32-1.06 4.33-1.73 1.51-3.06 1.51Zm0-1.7c.73 0 1.26-.33 1.62-1 .35-.67.53-1.71.53-3.14s-.18-2.47-.53-3.11-.89-.97-1.62-.97-1.25.32-1.61.97-.54 1.68-.54 3.11.18 2.48.54 3.14c.36.67.89 1 1.61 1m-55.78-45.8v-1.39h2.62v-8.48h.83l-3.2 1.95v-1.6l2.83-1.76h1.2v9.89h2.46v1.39h-6.75Zm12.48.14c-1.3 0-2.31-.28-3.04-.83s-1.09-1.33-1.09-2.32c0-.79.24-1.44.72-1.96s1.11-.83 1.89-.94v.29c-.7-.15-1.27-.47-1.69-.98-.42-.5-.63-1.11-.63-1.82 0-.94.34-1.67 1.02-2.21.68-.53 1.62-.8 2.82-.8s2.15.27 2.83.8 1.02 1.27 1.02 2.21c0 .71-.2 1.33-.6 1.83-.4.51-.95.82-1.64.95v-.27c.77.11 1.38.42 1.84.94s.69 1.17.69 1.96c0 .99-.36 1.77-1.09 2.32s-1.74.83-3.06.83Zm0-1.31c.86 0 1.51-.16 1.94-.49s.64-.81.64-1.46-.21-1.14-.64-1.46-1.07-.48-1.94-.48-1.51.16-1.94.48-.64.81-.64 1.46.22 1.14.65 1.46c.43.33 1.07.49 1.93.49m0-5.2c.75 0 1.31-.17 1.7-.5.39-.34.58-.8.58-1.38s-.2-1.03-.58-1.36c-.39-.33-.96-.5-1.7-.5s-1.3.17-1.7.5c-.39.33-.59.78-.59 1.36s.2 1.05.59 1.38.96.5 1.7.5m9.6 6.51q-1.95 0-3-1.5c-.7-1-1.05-2.43-1.05-4.3s.35-3.34 1.05-4.31c.7-.98 1.7-1.46 3-1.46s2.31.49 3.01 1.46c.69.98 1.04 2.41 1.04 4.3s-.35 3.31-1.05 4.31q-1.05 1.5-3 1.5m0-1.39c.82 0 1.43-.36 1.83-1.07s.6-1.83.6-3.34-.2-2.64-.6-3.34q-.6-1.05-1.83-1.05c-1.23 0-1.42.35-1.82 1.05-.41.7-.61 1.81-.61 3.32s.21 2.64.62 3.36c.41.71 1.02 1.07 1.82 1.07Zm9.6 1.39q-1.95 0-3-1.5c-.7-1-1.05-2.43-1.05-4.3s.35-3.34 1.05-4.31c.7-.98 1.7-1.46 3-1.46s2.31.49 3.01 1.46 1.04 2.41 1.04 4.3-.35 3.31-1.05 4.31q-1.05 1.5-3 1.5m0-1.39c.82 0 1.43-.36 1.83-1.07s.6-1.83.6-3.34-.2-2.64-.6-3.34-1.01-1.05-1.83-1.05-1.42.35-1.82 1.05-.61 1.81-.61 3.32.21 2.64.62 3.36c.41.71 1.02 1.07 1.82 1.07Zm10.36 4.7v-9.58c0-.31-.01-.63-.04-.95l-.09-.98h1.57l.16 1.82h-.18c.17-.61.51-1.09 1.03-1.44s1.13-.53 1.85-.53 1.34.17 1.87.5.95.81 1.24 1.43.44 1.37.44 2.24-.15 1.61-.44 2.24-.71 1.11-1.24 1.44-1.16.5-1.87.5-1.31-.17-1.83-.52-.86-.82-1.03-1.42h.18v5.25zm3.9-4.58c.7 0 1.27-.25 1.69-.74s.63-1.22.63-2.18-.21-1.68-.63-2.17-.98-.73-1.69-.73-1.27.24-1.69.73-.63 1.21-.63 2.17.21 1.69.63 2.18.98.74 1.69.74m5.44 1.13v-1.9h1.9v1.9zm4.88.91h-1.36l4.19-12.91h1.36zm4.08-.91v-8.06h1.34l2.91 5.15 2.91-5.15h1.34v8.06h-1.42v-6.26h.35l-2.8 4.96h-.77l-2.8-4.96h.35v6.26h-1.42Zm10.5-5.33v-.72l2.26-2.36c.29-.3.51-.59.65-.86s.21-.54.21-.83c0-.35-.11-.62-.33-.8q-.33-.27-.96-.27-.495 0-.93.18c-.435.18-.57.3-.83.54l-.34-.74c.26-.24.59-.44.98-.58.39-.15.8-.22 1.24-.22.68 0 1.21.16 1.58.47s.56.76.56 1.33c0 .41-.1.8-.3 1.18s-.5.76-.9 1.16l-1.95 1.97v-.26h3.41v.81h-4.36Z" style="fill:#27625f;stroke-width:0"/></g></svg>