<svg xmlns="http://www.w3.org/2000/svg" id="_Слой_2" data-name="Слой 2" viewBox="0 0 938.93 256.37"><defs><style>.cls-1,.cls-2{font-family:Mulish-Bold,Mulish;font-weight:700;fill:#27625f;font-size:16px}.cls-2{font-family:Mulish-SemiBold,Mulish;font-weight:600}.cls-11,.cls-13,.cls-7,.cls-9{letter-spacing:0}.cls-14{letter-spacing:-.02em}.cls-17{letter-spacing:-.01em}</style></defs><g id="_Слой_1-2" data-name="Слой 1"><rect width="937.93" height="229.7" x=".5" y=".5" rx="10" ry="10" style="fill:#fff;stroke:#a0b6b5;stroke-miterlimit:10"/><path d="M.5 46.44h937.93M.5 92.38h937.93M211.02 46.44V230.2M.5 46.44l210.52 45.94m103.91-45.94V230.2m103.9-183.76V230.2m103.9-183.76V230.2M626.64 46.44V230.2m103.9-183.76V230.2M.5 138.32h937.93m-727.41 45.94h727.41" style="stroke:#a0b6b5;stroke-miterlimit:10;fill:none"/><text class="cls-1" transform="translate(19.51 29.18)"><tspan x="0" y="0" class="cls-9">Х</tspan><tspan x="10.61" y="0" class="cls-17">о</tspan><tspan x="20.14" y="0">лсты</tspan></text><text class="cls-1" transform="translate(12.43 81.79)"><tspan x="0" y="0">С</tspan><tspan x="10.96" y="0" style="letter-spacing:0">т</tspan><tspan x="18.62" y="0">оимость</tspan></text><text class="cls-1" transform="translate(34.02 120.92)"><tspan x="0" y="0" class="cls-9">Х</tspan><tspan x="10.61" y="0" class="cls-17">о</tspan><tspan x="20.14" y="0">лст+подрамник</tspan></text><text class="cls-1" transform="translate(141.44 68.41)"><tspan x="0" y="0" style="letter-spacing:-.01em">Р</tspan><tspan x="10.45" y="0" class="cls-11">азмер</tspan></text><text class="cls-1" transform="translate(238.67 74.63)"><tspan x="0" y="0">20х30</tspan></text><text class="cls-2" transform="translate(239.1 120.92)"><tspan x="0" y="0">910 </tspan><tspan x="33.07" y="0" style="letter-spacing:-.02em">р</tspan><tspan x="42.75" y="0" class="cls-13">.</tspan></text><text class="cls-2" transform="translate(234.3 212.74)"><tspan x="0" y="0">2795 </tspan><tspan x="42.67" y="0" class="cls-14">р</tspan><tspan x="52.35" y="0">.</tspan></text><text class="cls-1" transform="translate(238.67 168.26)"><tspan x="0" y="0">80х80</tspan></text><text class="cls-1" transform="translate(342.49 74.63)"><tspan x="0" y="0">30х40</tspan></text><text class="cls-2" transform="translate(338.12 120.92)"><tspan x="0" y="0">1100 </tspan><tspan x="42.67" y="0" class="cls-14">р</tspan><tspan x="52.35" y="0">.</tspan></text><text class="cls-2" transform="translate(338.12 212.74)"><tspan x="0" y="0">2535 </tspan><tspan x="42.67" y="0" class="cls-14">р</tspan><tspan x="52.35" y="0">.</tspan></text><text class="cls-1" transform="translate(342.49 168.26)"><tspan x="0" y="0">80х60</tspan></text><text class="cls-1" transform="translate(446.76 74.63)"><tspan x="0" y="0">40х50</tspan></text><text class="cls-2" transform="translate(442.39 120.92)"><tspan x="0" y="0">1430 </tspan><tspan x="42.67" y="0" class="cls-14">р</tspan><tspan x="52.35" y="0">.</tspan></text><text class="cls-2" transform="translate(442.39 212.74)"><tspan x="0" y="0">1100 </tspan><tspan x="42.67" y="0" class="cls-14">р</tspan><tspan x="52.35" y="0">.</tspan></text><text class="cls-1" transform="translate(446.76 168.26)"><tspan x="0" y="0">30х30</tspan></text><text class="cls-1" transform="translate(550.5 74.63)"><tspan x="0" y="0">50х70</tspan></text><text class="cls-2" transform="translate(546.13 120.92)"><tspan x="0" y="0">1950 </tspan><tspan x="42.67" y="0" class="cls-14">р</tspan><tspan x="52.35" y="0">.</tspan></text><text class="cls-2" transform="translate(546.13 212.74)"><tspan x="0" y="0">1625 </tspan><tspan x="42.67" y="0" class="cls-14">р</tspan><tspan x="52.35" y="0">.</tspan></text><text class="cls-2" transform="translate(19.51 252)"><tspan x="0" y="0" style="letter-spacing:-.01em">Р</tspan><tspan x="10.34" y="0" class="cls-11">азмер х размер х 1800</tspan><tspan x="189.52" y="0" class="cls-14">р</tspan><tspan x="199.2" y="0">. (печать без </tspan><tspan x="301.93" y="0" class="cls-7">р</tspan><tspan x="311.71" y="0">лдрамника)</tspan></text><text class="cls-1" transform="translate(550.5 168.26)"><tspan x="0" y="0">40х60</tspan></text><text class="cls-1" transform="translate(648.96 74.63)"><tspan x="0" y="0">80х100</tspan></text><text class="cls-2" transform="translate(649.39 120.92)"><tspan x="0" y="0">3120 </tspan><tspan x="42.67" y="0" class="cls-14">р</tspan><tspan x="52.35" y="0">.</tspan></text><text class="cls-2" transform="translate(649.39 212.74)"><tspan x="0" y="0">2730 </tspan><tspan x="42.67" y="0" class="cls-14">р</tspan><tspan x="52.35" y="0">.</tspan></text><text class="cls-1" transform="translate(653.76 168.26)"><tspan x="0" y="0">60х90</tspan></text><text class="cls-1" transform="translate(764.71 74.63)"><tspan x="0" y="0">Печать на </tspan><tspan x="86.4" y="0" class="cls-7">хо</tspan><tspan x="104.78" y="0">лс</tspan><tspan x="122.81" y="0" style="letter-spacing:0">т</tspan><tspan x="130.48" y="0" class="cls-13">е</tspan></text><text class="cls-2" transform="translate(806.37 212.74)"><tspan x="0" y="0">1885 </tspan><tspan x="42.67" y="0" class="cls-14">р</tspan><tspan x="52.35" y="0">.</tspan></text><text class="cls-1" transform="translate(810.74 168.26)"><tspan x="0" y="0">60х60</tspan></text><text class="cls-2" transform="translate(795.65 120.92)"><tspan x="0" y="0">1800 </tspan><tspan x="42.67" y="0" class="cls-14">р</tspan><tspan x="52.35" y="0" style="letter-spacing:.07em">.</tspan><tspan x="57.2" y="0" style="letter-spacing:-.06em">/</tspan><tspan x="61.04" y="0" style="letter-spacing:0">м</tspan></text><text class="cls-2" transform="matrix(.58 0 0 .58 867.64 115.59)"><tspan x="0" y="0">2</tspan></text></g></svg>