<svg xmlns="http://www.w3.org/2000/svg" width="63" height="36" fill="none" viewBox="0 0 63 36"><path fill="#27625F" d="M61.53 28.536c-.124-.034-.614-.161-.614-.161a.28.28 0 0 1-.21-.267v-.76c0-.771 0-1.537.005-2.308 0-1.654.011-3.363-.023-5.05-.114-5.79-4.065-10.69-9.827-12.193-1.532-.4-3.137-.433-4.52-.433h-1.458l-1.321.006a.28.28 0 0 1-.285-.278V1.11q0-1.11-1.116-1.11H9.525q-.24-.001-.478.006c-.444.005-.61.166-.604.599v4.273c0 .155-.13.278-.284.278H.632c-.57 0-.62.2-.632.416q-.01.224.09.333c.092.094.274.15.547.155.069 0 .137.006.205.006h13.574c.057-.006.125 0 .188 0h.165c.12 0 .154-.017.154-.017.279-.194.438-.4.438-.472-.006-.088-.228-.333-.416-.4a1.1 1.1 0 0 0-.364-.05q-.147.001-.302.012c-.114.005-.222.011-.336.011h-4.23a.28.28 0 0 1-.285-.277V1.215c0-.155.126-.277.285-.277H42.02c.16 0 .284.122.284.277V28.17c0 .15-.125.277-.284.277h-7.465c-2.755-.005-5.505 0-8.272.011-.593 0-.94-.205-1.236-.732-1.03-1.826-2.92-2.914-5.045-2.914-1.98 0-3.78.982-4.816 2.63-.462.728-.957 1.027-1.714 1.027q-.104-.001-.222-.01a18 18 0 0 0-1.173-.034q-.428.001-.854.01H10.22c-.131 0-.262-.016-.393-.032l-.148-.022a.274.274 0 0 1-.25-.273v-6.442c0-.156.125-.278.284-.278h2.688q1.007.001 2.015-.006c.41-.005.473-.233.478-.432.006-.2-.045-.411-.472-.472q-.095-.008-.188-.006H3.256c-.056 0-.12 0-.182.011-.193.028-.353.106-.415.206-.029.039-.057.1-.023.216.045.167.307.405.5.455.138.04.291.056.49.056.132 0 .262-.011.393-.017.143-.005.28-.011.422-.011h3.678c.16 0 .285.122.285.277v6.416a.27.27 0 0 1-.16.25l-.051.027a1 1 0 0 1-.188.078c-1.39.377-2.016 1.138-1.862 2.264.143 1.055 1.014 1.66 2.391 1.66H11.2c.888.005 1.777.005 2.688 0 .415 0 .745.094.996.549 1.116 2.037 2.83 3.074 5.107 3.085h.029c2.254 0 3.99-1.032 5.164-3.08.17-.288.592-.532.922-.532a2807 2807 0 0 1 19.336 0c.33 0 .751.244.916.532 1.185 2.048 2.921 3.08 5.199 3.08 2.237 0 3.962-1.043 5.135-3.074.165-.278.58-.527.911-.538q.657-.024 1.321-.023h.95c.422.006.838 0 1.26-.016a1.896 1.896 0 0 0 1.85-1.698c.12-.977-.479-1.843-1.452-2.115zm-47.262 2.653a.28.28 0 0 1-.285.277h-5.66c-.443 0-.762-.105-.978-.322-.183-.183-.274-.438-.262-.76.017-.65.466-1.021 1.224-1.021h5.676c.154 0 .285.122.285.277zm5.733 3.934a4.88 4.88 0 0 1-3.404-1.404c-.906-.893-1.407-2.075-1.395-3.324.017-2.58 2.175-4.684 4.817-4.684h.022c2.654.011 4.811 2.131 4.8 4.723-.006 2.586-2.17 4.69-4.84 4.69m25.753-3.962a.28.28 0 0 1-.285.277H26.105a.28.28 0 0 1-.285-.277V29.68c0-.155.126-.277.285-.277h19.364c.16 0 .285.122.285.277zm5.75 3.962c-2.647-.017-4.8-2.13-4.794-4.722.006-2.587 2.17-4.69 4.817-4.69h.011c2.648.006 4.8 2.126 4.795 4.717-.006 2.592-2.158 4.695-4.829 4.695m5.102-7.347a5.86 5.86 0 0 0-5.079-2.97 5.74 5.74 0 0 0-3.78 1.41c-.342.294-.615.672-.906 1.071-.154.211-.307.422-.472.622l-.052.066c-.153.195-.341.428-.609.444a14 14 0 0 1-.968.028l-1.139-.005a.28.28 0 0 1-.284-.278V8.68c0-.078.04-.161.097-.211.04-.045.13-.15.284-.15l1.224-.017c.513-.011 1.02-.022 1.532-.022 1.742 0 3.615.1 5.483.816 4.623 1.776 7.76 6.176 7.817 10.949.023 1.837.017 3.635.012 5.538q-.007 1.282-.006 2.581a.28.28 0 0 1-.285.277q-.317.001-.609.012c-.193 0-.381.005-.563.005a8 8 0 0 1-.877-.039c-.382-.044-.7-.444-.82-.643m5.238 3.324c-.194.222-.501.355-.848.36q-.72.018-1.447.017h-1.987a.29.29 0 0 1-.284-.283v-1.537c0-.15.125-.278.284-.278h.928c.308 0 .615-.005.928-.005.69 0 1.219.017 1.72.044.416.028.843.605.9.966a.88.88 0 0 1-.194.721z"/><path fill="#27625F" d="M61.53 28.536c-.124-.034-.614-.161-.614-.161a.28.28 0 0 1-.21-.267v-.76c0-.771 0-1.537.005-2.308 0-1.654.011-3.363-.023-5.05-.114-5.79-4.065-10.69-9.827-12.193-1.532-.4-3.137-.433-4.52-.433h-1.458l-1.321.006a.28.28 0 0 1-.285-.278V1.11q0-1.11-1.116-1.11H9.525q-.24-.001-.478.006c-.444.005-.61.166-.604.599v4.273c0 .155-.13.278-.284.278H.632c-.57 0-.62.2-.632.416q-.01.224.09.333c.092.094.274.15.547.155.069 0 .137.006.205.006h13.574c.057-.006.125 0 .188 0h.165c.12 0 .154-.017.154-.017.279-.194.438-.4.438-.472-.006-.088-.228-.333-.416-.4a1.1 1.1 0 0 0-.364-.05q-.147.001-.302.012c-.114.005-.222.011-.336.011h-4.23a.28.28 0 0 1-.285-.277V1.215c0-.155.126-.277.285-.277H42.02c.16 0 .284.122.284.277V28.17c0 .15-.125.277-.284.277h-7.465c-2.755-.005-5.505 0-8.272.011-.593 0-.94-.205-1.236-.732-1.03-1.826-2.92-2.914-5.045-2.914-1.98 0-3.78.982-4.816 2.63-.462.728-.957 1.027-1.714 1.027q-.104-.001-.222-.01a18 18 0 0 0-1.173-.034q-.428.001-.854.01H10.22c-.131 0-.262-.016-.393-.032l-.148-.022a.274.274 0 0 1-.25-.273v-6.442c0-.156.125-.278.284-.278h2.688q1.007.001 2.015-.006c.41-.005.473-.233.478-.432.006-.2-.045-.411-.472-.472q-.095-.008-.188-.006H3.256c-.056 0-.12 0-.182.011-.193.028-.353.106-.415.206-.029.039-.057.1-.023.216.045.167.307.405.5.455.138.04.291.056.49.056.132 0 .262-.011.393-.017.143-.005.28-.011.422-.011h3.678c.16 0 .285.122.285.277v6.416a.27.27 0 0 1-.16.25l-.051.027a1 1 0 0 1-.188.078c-1.39.377-2.016 1.138-1.862 2.264.143 1.055 1.014 1.66 2.391 1.66H11.2c.888.005 1.777.005 2.688 0 .415 0 .745.094.996.549 1.116 2.037 2.83 3.074 5.107 3.085h.029c2.254 0 3.99-1.032 5.164-3.08.17-.288.592-.532.922-.532a2807 2807 0 0 1 19.336 0c.33 0 .751.244.916.532 1.185 2.048 2.921 3.08 5.199 3.08 2.237 0 3.962-1.043 5.135-3.074.165-.278.58-.527.911-.538q.657-.024 1.321-.023h.95c.422.006.838 0 1.26-.016a1.896 1.896 0 0 0 1.85-1.698c.12-.977-.479-1.843-1.452-2.115zm-47.262 2.653a.28.28 0 0 1-.285.277h-5.66c-.443 0-.762-.105-.978-.322-.183-.183-.274-.438-.262-.76.017-.65.466-1.021 1.224-1.021h5.676c.154 0 .285.122.285.277zm5.733 3.934a4.88 4.88 0 0 1-3.404-1.404c-.906-.893-1.407-2.075-1.395-3.324.017-2.58 2.175-4.684 4.817-4.684h.022c2.654.011 4.811 2.131 4.8 4.723-.006 2.586-2.17 4.69-4.84 4.69m25.753-3.962a.28.28 0 0 1-.285.277H26.105a.28.28 0 0 1-.285-.277V29.68c0-.155.126-.277.285-.277h19.364c.16 0 .285.122.285.277zm5.75 3.962c-2.647-.017-4.8-2.13-4.794-4.722.006-2.587 2.17-4.69 4.817-4.69h.011c2.648.006 4.8 2.126 4.795 4.717-.006 2.592-2.158 4.695-4.829 4.695m5.102-7.347a5.86 5.86 0 0 0-5.079-2.97 5.74 5.74 0 0 0-3.78 1.41c-.342.294-.615.672-.906 1.071-.154.211-.307.422-.472.622l-.052.066c-.153.195-.341.428-.609.444a14 14 0 0 1-.968.028l-1.139-.005a.28.28 0 0 1-.284-.278V8.68c0-.078.04-.161.097-.211.04-.045.13-.15.284-.15l1.224-.017c.513-.011 1.02-.022 1.532-.022 1.742 0 3.615.1 5.483.816 4.623 1.776 7.76 6.176 7.817 10.949.023 1.837.017 3.635.012 5.538q-.007 1.282-.006 2.581a.28.28 0 0 1-.285.277q-.317.001-.609.012c-.193 0-.381.005-.563.005a8 8 0 0 1-.877-.039c-.382-.044-.7-.444-.82-.643m5.238 3.324c-.194.222-.501.355-.848.36q-.72.018-1.447.017h-1.987a.29.29 0 0 1-.284-.283v-1.537c0-.15.125-.278.284-.278h.928c.308 0 .615-.005.928-.005.69 0 1.219.017 1.72.044.416.028.843.605.9.966a.88.88 0 0 1-.194.721z"/><path fill="#27625F" d="M23.009 15.905s-.092.133-.502.383c-.005 0-.022.01-.085.01-.051 0-.108 0-.165-.01q-.11-.01-.21-.012H8.073q-.094-.001-.2.006a2 2 0 0 1-.159.011.2.2 0 0 1-.09-.011c-.325-.216-.433-.389-.433-.433-.006-.05.09-.233.393-.472 0 0 .04-.016.17-.016H22.25c.04 0 .222-.011.256-.011h.04l.046.039c.148.144.404.382.416.51z"/><path fill="#27625F" d="M23.009 15.905s-.092.133-.502.383c-.005 0-.022.01-.085.01-.051 0-.108 0-.165-.01q-.11-.01-.21-.012H8.073q-.094-.001-.2.006a2 2 0 0 1-.159.011.2.2 0 0 1-.09-.011c-.325-.216-.433-.389-.433-.433-.006-.05.09-.233.393-.472 0 0 .04-.016.17-.016H22.25c.04 0 .222-.011.256-.011h.04l.046.039c.148.144.404.382.416.51zm3.017-5.171c0 .15-.011.422-.626.422h-.006q-1.554-.008-3.109-.006l-10.197.005c-.535 0-.638-.1-.689-.332-.023-.106-.034-.256.04-.361q.075-.125.296-.167c.125-.022.256-.027.427-.027h13.232c.194 0 .421.022.535.144.074.072.103.177.097.322"/><path fill="#27625F" d="M26.026 10.734c0 .15-.011.422-.626.422h-.006q-1.554-.008-3.109-.006l-10.197.005c-.535 0-.638-.1-.689-.332-.023-.106-.034-.256.04-.361q.075-.125.296-.167c.125-.022.256-.027.427-.027h13.232c.194 0 .421.022.535.144.074.072.103.177.097.322m-.353 10.194c0 .155-.029.26-.097.328-.097.094-.285.138-.586.138h-6.912c-.598 0-.706-.138-.712-.438-.006-.156.028-.261.097-.328q.146-.15.609-.15h6.923c.62 0 .672.223.678.45"/><path fill="#27625F" d="M25.673 20.928c0 .155-.029.26-.097.328-.097.094-.285.138-.586.138h-6.912c-.598 0-.706-.138-.712-.438-.006-.156.028-.261.097-.328q.146-.15.609-.15h6.923c.62 0 .672.223.678.45M8.91 10.728c-.005.206-.05.422-.54.422H3.53c-.16.005-.364-.022-.472-.128q-.103-.1-.103-.327c0-.133 0-.422.547-.427h2.317q1.296-.001 2.585.005c.13 0 .307.022.41.122q.103.108.097.333"/><path fill="#27625F" d="M8.91 10.728c-.005.206-.05.422-.54.422H3.53c-.16.005-.364-.022-.472-.128q-.103-.1-.103-.327c0-.133 0-.422.547-.427h2.317q1.296-.001 2.585.005c.13 0 .307.022.41.122q.103.108.097.333M23.054 5.6q.001.232-.125.339c-.085.072-.222.11-.393.11-.689.012-1.378.012-2.067.012s-1.378 0-2.066-.011c-.536 0-.536-.322-.53-.444 0-.217.046-.45.57-.45h4.082c.433.006.524.183.53.444"/><path fill="#27625F" d="M23.054 5.6q.001.232-.125.339c-.085.072-.222.11-.393.11-.689.012-1.378.012-2.067.012s-1.378 0-2.066-.011c-.536 0-.536-.322-.53-.444 0-.217.046-.45.57-.45h4.082c.433.006.524.183.53.444M4.715 15.844c-.012.2-.08.428-.553.428H.496c-.422-.006-.484-.211-.496-.417q-.015-.226.097-.344c.102-.105.268-.127.393-.133a102 102 0 0 1 3.718 0c.182.005.324.05.41.139.068.077.102.183.097.327"/><path fill="#27625F" d="M4.715 15.844c-.012.2-.08.428-.553.428H.496c-.422-.006-.484-.211-.496-.417q-.015-.226.097-.344c.102-.105.268-.127.393-.133a102 102 0 0 1 3.718 0c.182.005.324.05.41.139.068.077.102.183.097.327m50.81-1.087c-2.01-2.708-4.817-4.08-8.336-4.08-.21 0-.433 0-.649.012-.74.033-.786.078-.786.76-.005 2.83-.005 5.666 0 8.497 0 .765.057.82.849.82h4.737a.27.27 0 0 1 .176-.06h4.914c.416 0 .643-.05.734-.145.097-.094.131-.321.12-.743-.063-1.876-.655-3.58-1.76-5.061m.677 4.944a.3.3 0 0 1-.205.084h-8.99a.28.28 0 0 1-.285-.278v-7.553c0-.139.103-.255.245-.272a7 7 0 0 1 .877-.055c4.298 0 8.244 3.68 8.438 7.869a.26.26 0 0 1-.08.205"/><path fill="#27625F" d="M55.525 14.757c-2.01-2.708-4.817-4.08-8.336-4.08-.21 0-.433 0-.649.012-.74.033-.786.078-.786.76-.005 2.83-.005 5.666 0 8.497 0 .765.057.82.849.82h4.737a.27.27 0 0 1 .176-.06h4.914c.416 0 .643-.05.734-.145.097-.094.131-.321.12-.743-.063-1.876-.655-3.58-1.76-5.061m.677 4.944a.3.3 0 0 1-.205.084h-8.99a.28.28 0 0 1-.285-.278v-7.553c0-.139.103-.255.245-.272a7 7 0 0 1 .877-.055c4.298 0 8.244 3.68 8.438 7.869a.26.26 0 0 1-.08.205M21.58 28.908a2.2 2.2 0 0 0-1.567-.627c-1.19 0-2.18.95-2.203 2.115-.011.549.228 1.104.643 1.52.422.416.991.655 1.566.655h.006c1.19 0 2.175-.954 2.186-2.12a2.13 2.13 0 0 0-.632-1.543m-1.56 2.742c-.656 0-1.236-.538-1.265-1.177-.034-.654.512-1.237 1.19-1.27h.074c.706 0 1.247.516 1.247 1.21.006.676-.53 1.22-1.247 1.237"/><path fill="#27625F" d="M21.58 28.908a2.2 2.2 0 0 0-1.567-.627c-1.19 0-2.18.95-2.203 2.115-.011.549.228 1.104.643 1.52.422.416.991.655 1.566.655h.006c1.19 0 2.175-.954 2.186-2.12a2.13 2.13 0 0 0-.632-1.543m-1.56 2.742c-.656 0-1.236-.538-1.265-1.177-.034-.654.512-1.237 1.19-1.27h.074c.706 0 1.247.516 1.247 1.21.006.676-.53 1.22-1.247 1.237m31.516-3.369c-1.23 0-2.198.944-2.198 2.142 0 1.2.968 2.131 2.158 2.148h.034a2.17 2.17 0 0 0 1.537-.627c.422-.41.655-.955.655-1.526-.006-1.188-.956-2.126-2.186-2.137m.05 3.369h-.062a1.26 1.26 0 0 1-.882-.36c-.24-.234-.37-.55-.37-.878 0-.677.546-1.21 1.24-1.215h.012c.684 0 1.253.533 1.27 1.188.017.649-.535 1.231-1.207 1.265"/><path fill="#27625F" d="M51.534 28.281c-1.23 0-2.198.944-2.198 2.142 0 1.2.968 2.131 2.158 2.148h.034a2.17 2.17 0 0 0 1.537-.627c.422-.41.655-.955.655-1.526-.006-1.188-.956-2.126-2.186-2.137m.05 3.369h-.062a1.26 1.26 0 0 1-.882-.36c-.24-.234-.37-.55-.37-.878 0-.677.546-1.21 1.24-1.215h.012c.684 0 1.253.533 1.27 1.188.017.649-.535 1.231-1.207 1.265"/></svg>