<svg xmlns="http://www.w3.org/2000/svg" width="51" height="41" fill="none" viewBox="0 0 51 41"><path fill="#27625F" d="M49.834 24.47c-.45-1.8-.888-3.6-1.332-5.4l-1.157-4.71a6382 6382 0 0 0-2.478-10.04C44.294 2.018 42.453.527 40.18.527c-.45 0-.917.059-1.385.176l-11.612 2.91C20.036 5.407 12.888 7.201 5.729 8.99 3.041 9.656.85 12.42.85 15.143v20.735c0 .497.042.917.13 1.297.525 2.303 2.39 3.74 4.873 3.74H38.27c3.097 0 5.102-2.004 5.108-5.09v-.906a70 70 0 0 0-.012-2.717c-.018-.561.199-.841.748-.964a33 33 0 0 0 1.695-.462l.485-.14c2.881-.824 4.272-3.25 3.541-6.171zM2.744 12.554a3.7 3.7 0 0 1 2.71-1.402h32.961c1.157 0 2.192.426 2.905 1.198.7.754 1.04 1.788.958 2.904a.235.235 0 0 1-.234.217H2.252a.234.234 0 0 1-.234-.193c-.157-.941.106-1.929.73-2.718zm39.522 4.296v5.236a.23.23 0 0 1-.233.234H2.21a.23.23 0 0 1-.233-.234V16.85a.23.23 0 0 1 .233-.234h39.822a.23.23 0 0 1 .233.234m.035 19.01c0 2.426-1.572 3.986-4.003 3.986H5.934c-2.46 0-3.986-1.525-3.992-3.986V23.7c0-.129.106-.234.234-.234h39.886c.128 0 .233.111.233.234v12.16zm3.67-6.253c-.514.146-1.028.287-1.566.433l-.736.198s-.041.012-.059.012a.23.23 0 0 1-.146-.052.22.22 0 0 1-.087-.182v-15.06c-.012-2.46-1.62-4.394-3.998-4.815-.339-.059-.695-.065-1.063-.065H8.178a.24.24 0 0 1-.234-.192l-.011-.065a.235.235 0 0 1 .152-.268L8.2 9.51c.094-.035.193-.07.293-.094C18.68 6.851 28.884 4.291 39.08 1.731a4.7 4.7 0 0 1 1.093-.134c1.794 0 3.185 1.151 3.647 3.01q2.492 10.072 4.973 20.144c.59 2.378-.467 4.19-2.817 4.862z"/><path fill="#27625F" d="M49.834 24.47c-.45-1.8-.888-3.6-1.332-5.4l-1.157-4.71a6382 6382 0 0 0-2.478-10.04C44.294 2.018 42.453.527 40.18.527c-.45 0-.917.059-1.385.176l-11.612 2.91C20.036 5.407 12.888 7.201 5.729 8.99 3.041 9.656.85 12.42.85 15.143v20.735c0 .497.042.917.13 1.297.525 2.303 2.39 3.74 4.873 3.74H38.27c3.097 0 5.102-2.004 5.108-5.09v-.906a70 70 0 0 0-.012-2.717c-.018-.561.199-.841.748-.964a33 33 0 0 0 1.695-.462l.485-.14c2.881-.824 4.272-3.25 3.541-6.171zM2.744 12.554a3.7 3.7 0 0 1 2.71-1.402h32.961c1.157 0 2.192.426 2.905 1.198.7.754 1.04 1.788.958 2.904a.235.235 0 0 1-.234.217H2.252a.234.234 0 0 1-.234-.193c-.157-.941.106-1.929.73-2.718zm39.522 4.296v5.236a.23.23 0 0 1-.233.234H2.21a.23.23 0 0 1-.233-.234V16.85a.23.23 0 0 1 .233-.234h39.822a.23.23 0 0 1 .233.234m.035 19.01c0 2.426-1.572 3.986-4.003 3.986H5.934c-2.46 0-3.986-1.525-3.992-3.986V23.7c0-.129.106-.234.234-.234h39.886c.128 0 .233.111.233.234v12.16zm3.67-6.253c-.514.146-1.028.287-1.566.433l-.736.198s-.041.012-.059.012a.23.23 0 0 1-.146-.052.22.22 0 0 1-.087-.182v-15.06c-.012-2.46-1.62-4.394-3.998-4.815-.339-.059-.695-.065-1.063-.065H8.178a.24.24 0 0 1-.234-.192l-.011-.065a.235.235 0 0 1 .152-.268L8.2 9.51c.094-.035.193-.07.293-.094C18.68 6.851 28.884 4.291 39.08 1.731a4.7 4.7 0 0 1 1.093-.134c1.794 0 3.185 1.151 3.647 3.01q2.492 10.072 4.973 20.144c.59 2.378-.467 4.19-2.817 4.862z"/><path fill="#27625F" d="M39.128 34.721c0 .328-.234.526-.62.526h-8.461c-.959 0-1.912 0-2.87-.017-.204 0-.485-.152-.625-.322-.047-.07-.035-.35.017-.426.146-.158.439-.28.655-.287 1.975-.011 3.95-.011 5.932-.011h5.341c.234.011.631.087.631.531z"/><path fill="#27625F" d="M39.128 34.721c0 .328-.234.526-.62.526h-8.461c-.959 0-1.912 0-2.87-.017-.204 0-.485-.152-.625-.322-.047-.07-.035-.35.017-.426.146-.158.439-.28.655-.287 1.975-.011 3.95-.011 5.932-.011h5.341c.234.011.631.087.631.531zm0-5.306c0 .157-.035.28-.117.362-.117.111-.322.181-.596.181h-7.65c-.205 0-.696-.058-.696-.526 0-.146.035-.263.129-.35.123-.13.333-.193.596-.2h7.591c.486 0 .743.182.743.533"/><path fill="#27625F" d="M39.128 29.415c0 .157-.035.28-.117.362-.117.111-.322.181-.596.181h-7.65c-.205 0-.696-.058-.696-.526 0-.146.035-.263.129-.35.123-.13.333-.193.596-.2h7.591c.486 0 .743.182.743.533m-28.565 5.3a.52.52 0 0 1-.117.351.6.6 0 0 1-.444.181c-.129 0-.257.012-.38.012h-1.28c-.128 0-.257 0-.386-.012-.35-.017-.52-.181-.537-.526a.48.48 0 0 1 .117-.368c.093-.105.245-.158.432-.164.327-.011.666-.011.994-.011.35 0 .7 0 1.057.011.345.012.515.176.538.526z"/><path fill="#27625F" d="M10.563 34.715a.52.52 0 0 1-.117.351.6.6 0 0 1-.444.181c-.129 0-.257.012-.38.012h-1.28c-.128 0-.257 0-.386-.012-.35-.017-.52-.181-.537-.526a.48.48 0 0 1 .117-.368c.093-.105.245-.158.432-.164.327-.011.666-.011.994-.011.35 0 .7 0 1.057.011.345.012.515.176.538.526z"/></svg>