<svg xmlns="http://www.w3.org/2000/svg" width="46" height="46" fill="none" viewBox="0 0 46 46"><path fill="#27625F" d="M27.626 40.254a17.9 17.9 0 0 0 6.942-6.762c.319-.551-.534-1.046-.849-.499a16.9 16.9 0 0 1-6.591 6.412c-.556.302-.062 1.15.498.849M17.2 16.831h19.227l-.49-.49v2.935c0 .634.984.634.984 0v-2.935a.5.5 0 0 0-.49-.49H17.204c-.634 0-.634.985 0 .985zm-7.148 22.574c-4.15-2.261-7.225-6.185-8.34-10.79-.7-2.883-.464-5.97-.464-8.914v-3.36l-.49.49h7.046c.634 0 .634-.984 0-.984H.754a.5.5 0 0 0-.49.49v7.48c0 1.543.07 3.07.393 4.587a17.6 17.6 0 0 0 2.913 6.574 18 18 0 0 0 5.988 5.28c.556.301 1.054-.547.499-.849zm3.106-37.217c-.652.813-1.137 1.78-1.041 2.856.083.953.62 1.692 1.18 2.436.521.687.993 1.408.972 2.3-.022 1.015-.608 1.943-1.225 2.708-.394.49.297 1.19.695.695 1.186-1.474 2.008-3.284 1.116-5.113-.398-.813-1.085-1.434-1.496-2.235-.525-1.01-.184-2.1.498-2.948.394-.49-.301-1.19-.695-.695zM18.074.29c-.652.813-1.137 1.78-1.04 2.856.082.953.62 1.692 1.18 2.436.52.687.993 1.408.971 2.3-.022 1.015-.608 1.943-1.225 2.708-.393.49.298 1.19.696.696C19.84 9.81 20.664 8 19.77 6.172c-.398-.813-1.085-1.434-1.496-2.235-.524-1.01-.183-2.1.499-2.948.394-.49-.302-1.19-.696-.695zm4.929 1.99c-.651.813-1.137 1.78-1.04 2.855.082.954.62 1.693 1.18 2.437.52.686.993 1.408.971 2.3-.021 1.015-.608 1.942-1.224 2.708-.394.49.297 1.19.695.695 1.185-1.474 2.008-3.285 1.115-5.113-.398-.813-1.084-1.434-1.495-2.235-.525-1.01-.184-2.1.498-2.948.394-.49-.302-1.19-.695-.695z"/><path fill="#27625F" d="M33.684 44.304H6.83c-.42 0-.84.013-1.26 0-2.38-.075-4.321-2.091-4.321-4.47l-.49.49h36.338c.464 0 1.037.091 1.492 0h.065l-.49-.49c0 2.466-2.034 4.435-4.47 4.47-.634.008-.634.992 0 .984 2.97-.044 5.454-2.45 5.454-5.455a.5.5 0 0 0-.49-.49H5.42c-1.517 0-3.083-.113-4.6 0H.753a.5.5 0 0 0-.49.49c0 2.06 1.211 4.024 3.079 4.912.875.416 1.789.547 2.742.547h27.6c.634 0 .634-.984 0-.984zm10.568-25.032v6.202c-.009 3.687-2.76 6.959-6.517 7.252-1.186.092-2.397.022-3.587.022l.424.74c1.627-2.857 2.35-5.997 2.35-9.273v-4.947l-.49.49h8.314c.634 0 .634-.985 0-.985h-8.315a.5.5 0 0 0-.49.49v4.812c0 3.153-.643 6.15-2.217 8.91a.496.496 0 0 0 .424.738c1.067 0 2.139.027 3.21 0a8.17 8.17 0 0 0 5.507-2.37 8.14 8.14 0 0 0 2.37-5.428c.04-1.015.005-2.034.005-3.049v-3.608c0-.634-.984-.634-.984 0z"/><path fill="#27625F" d="M40.586 22.78v3.097c-.005 1.784-1.382 3.32-3.202 3.367-.568.014-1.141 0-1.71 0l.472.622c.512-1.68.77-3.43.775-5.183V22.78l-.49.49h4.65c.633 0 .633-.984 0-.984h-4.65a.5.5 0 0 0-.49.49v1.893c0 1.676-.25 3.329-.74 4.93-.091.306.163.62.473.62.538 0 1.072.005 1.61 0a4.36 4.36 0 0 0 2.9-1.128c.796-.726 1.29-1.775 1.373-2.864.04-.53.013-1.068.013-1.601V22.77c0-.634-.984-.634-.984 0zm-8.743 1.264a13.16 13.16 0 0 1-3.88 9.535c-.45.446.245 1.142.696.696a14.17 14.17 0 0 0 4.168-10.231c-.009-.634-.993-.634-.984 0M10.84 16.888a.551.551 0 1 0 0-1.102.551.551 0 0 0 0 1.102m15.426 19.293a.551.551 0 1 0 0-1.102.551.551 0 0 0 0 1.102"/></svg>