<svg xmlns="http://www.w3.org/2000/svg" width="56" height="50" fill="none" viewBox="0 0 56 50"><path fill="#27625F" d="m6.187 16.445.657 1.332c.215.441.416 1.097.847 1.381s1.078.255 1.553.324l.94.137c.045.005.46.02.49.064.01.02-.837.808-.925.891-.348.343-.838.69-1.093 1.117-.289.48-.068 1.136.02 1.65.093.54.254 1.108.284 1.656 0 .069.01-.034.024-.024-.058-.02-.112-.06-.171-.088l-.789-.417c-.436-.23-.867-.48-1.317-.69-.642-.3-1.147.049-1.7.338-.514.269-1.107.5-1.582.832-.079.054-.04.118-.01-.039.059-.284.098-.573.147-.857.088-.52.196-1.034.265-1.553.097-.686-.319-1.033-.755-1.46-.436-.426-.91-.808-1.298-1.263-.117-.137-.113-.06.03-.093.264-.069.558-.084.827-.123.564-.083 1.176-.108 1.72-.26.656-.18.886-.964 1.156-1.513l.48-.97c.039-.078.176-.372.186-.362.377.597 1.332.044.95-.559-.524-.828-1.558-.676-1.979.142-.308.598-.597 1.21-.896 1.818-.069.142-.118.328-.255.401-.157.083-.455.069-.632.093-.622.093-1.268.142-1.886.275-.9.19-1.156 1.22-.548 1.866.43.46.91.886 1.361 1.327.133.128.353.274.446.436.034.054 0-.113.015.02.01.122-.05.279-.069.401-.112.657-.23 1.313-.338 1.97-.151.945.618 1.738 1.568 1.293.534-.25 1.043-.549 1.567-.823.206-.108.436-.274.661-.348.094-.03.02-.024.02-.024.083.01.206.107.28.146l1.807.95c.26.138.514.25.818.226.529-.049.965-.505.98-1.038.019-.593-.197-1.254-.294-1.832a50 50 0 0 1-.143-.838c-.02-.117.015-.142-.014-.093.03-.054.108-.103.152-.147l1.464-1.425c.23-.226.46-.436.534-.765.118-.533-.196-1.107-.725-1.268-.607-.191-1.322-.206-1.95-.294-.195-.03-.543-.01-.72-.103-.166-.088-.24-.377-.318-.539q-.448-.911-.896-1.817c-.314-.637-1.264-.078-.95.559zm9.723-9.993.657 1.333c.215.44.416 1.097.847 1.38.43.285 1.077.256 1.553.324l.94.137c.044.005.46.02.49.064.01.02-.838.808-.926.891-.348.343-.837.691-1.092 1.117-.29.48-.069 1.137.02 1.65.092.54.254 1.108.284 1.656 0 .07.01-.034.024-.024-.059-.02-.113-.059-.171-.088l-.789-.416c-.436-.23-.867-.48-1.318-.691-.641-.299-1.146.049-1.7.338-.514.27-1.106.5-1.581.833-.079.053-.04.117-.01-.04.059-.284.098-.573.147-.857.088-.519.196-1.033.264-1.553.098-.685-.318-1.033-.754-1.46-.436-.425-.911-.807-1.298-1.263-.118-.137-.113-.059.03-.093.264-.069.558-.083.827-.123.563-.083 1.176-.107 1.72-.26.656-.18.886-.964 1.155-1.513l.48-.97c.04-.078.177-.372.186-.362.378.598 1.333.044.95-.558-.523-.828-1.557-.676-1.978.142-.309.597-.598 1.21-.897 1.817-.068.142-.117.328-.254.402-.157.083-.456.068-.632.093-.622.093-1.269.142-1.886.274-.901.19-1.156 1.22-.549 1.866.432.46.912.887 1.362 1.328.132.127.353.274.446.435.034.054 0-.112.015.02.01.123-.05.28-.069.402-.113.656-.23 1.313-.338 1.969-.152.945.617 1.739 1.567 1.293.534-.25 1.044-.549 1.568-.823.206-.108.436-.274.661-.348.093-.03.02-.024.02-.024.083.01.206.108.279.147l1.807.95c.26.137.515.25.818.225.53-.049.965-.504.98-1.038.02-.593-.196-1.254-.294-1.832q-.075-.419-.142-.838c-.02-.117.015-.142-.015-.093.03-.054.108-.103.152-.147l1.465-1.425c.23-.225.46-.436.534-.764.117-.534-.196-1.107-.725-1.269-.608-.19-1.323-.206-1.95-.294-.196-.03-.543-.01-.72-.103-.166-.088-.24-.377-.318-.538l-.896-1.818c-.314-.636-1.264-.078-.95.559zm12.034-4.619.657 1.332c.215.441.416 1.098.847 1.382s1.078.254 1.553.323l.94.137c.044.005.46.02.49.064.01.02-.837.808-.926.891-.347.343-.837.69-1.092 1.117-.289.48-.069 1.136.02 1.65.093.54.254 1.108.284 1.656 0 .069.01-.034.024-.024-.059-.02-.113-.059-.171-.088l-.789-.417c-.436-.23-.867-.48-1.317-.69-.642-.3-1.147.049-1.7.338-.514.27-1.107.5-1.582.832-.079.054-.04.118-.01-.039.059-.284.098-.573.147-.857.088-.52.196-1.034.264-1.553.098-.685-.318-1.033-.754-1.46-.436-.426-.911-.808-1.298-1.263-.118-.137-.113-.059.03-.093.264-.069.558-.083.827-.123.563-.083 1.176-.107 1.72-.26.656-.18.886-.964 1.155-1.513l.48-.97c.04-.078.177-.372.187-.362.377.597 1.332.044.95-.559-.524-.827-1.558-.676-1.979.142-.309.598-.598 1.21-.896 1.818-.069.142-.118.328-.255.401-.157.084-.456.069-.632.093-.622.094-1.269.143-1.886.275-.901.19-1.156 1.22-.548 1.866.43.46.91.887 1.361 1.327.133.128.353.275.446.436.034.054 0-.112.015.02.01.122-.05.28-.069.402-.113.656-.23 1.312-.338 1.969-.152.945.617 1.739 1.568 1.293.534-.25 1.043-.549 1.567-.823.206-.108.436-.274.661-.348.093-.03.02-.024.02-.024.083.01.206.107.28.147l1.807.95c.26.137.514.25.818.225.529-.049.965-.504.98-1.038.019-.593-.197-1.254-.295-1.832a50 50 0 0 1-.142-.838c-.02-.117.015-.142-.014-.093.029-.054.107-.103.151-.147l1.465-1.425c.23-.225.46-.436.534-.764.117-.534-.196-1.107-.725-1.269-.607-.191-1.323-.206-1.95-.294-.196-.03-.543-.01-.72-.103-.166-.088-.24-.377-.318-.539l-.896-1.817c-.314-.637-1.264-.078-.95.559zm12.017 4.825.657 1.332c.215.44.416 1.097.847 1.381s1.078.255 1.553.324l.94.137c.044.005.46.02.49.063.01.02-.837.809-.926.892-.347.343-.837.69-1.092 1.117-.289.48-.069 1.136.02 1.65.093.54.254 1.108.284 1.656 0 .069.01-.034.024-.024-.059-.02-.112-.06-.171-.089l-.789-.416c-.436-.23-.867-.48-1.317-.69-.642-.3-1.147.048-1.7.337-.514.27-1.107.5-1.582.833-.079.054-.04.118-.01-.04.059-.283.098-.572.147-.856.088-.52.196-1.034.264-1.553.098-.686-.318-1.033-.754-1.46-.436-.426-.911-.808-1.298-1.263-.117-.138-.113-.06.03-.094.264-.068.558-.083.827-.122.564-.083 1.176-.108 1.72-.26.656-.18.886-.965 1.156-1.513l.48-.97c.039-.078.176-.372.186-.362.377.597 1.332.044.95-.559-.524-.828-1.558-.676-1.979.142-.309.598-.597 1.21-.896 1.817-.069.143-.118.329-.255.402-.157.083-.456.069-.632.093-.622.093-1.268.142-1.886.274-.901.192-1.156 1.22-.548 1.867.43.46.91.886 1.361 1.327.133.127.353.274.446.436.034.054 0-.113.015.02.01.122-.05.279-.069.401-.112.657-.23 1.313-.338 1.97-.152.945.617 1.738 1.568 1.293.534-.25 1.043-.549 1.567-.823.206-.108.436-.275.661-.348.093-.03.02-.025.02-.025.083.01.206.108.28.147l1.807.95c.26.138.514.25.818.226.529-.05.965-.505.98-1.038.019-.593-.197-1.255-.295-1.832a50 50 0 0 1-.142-.838c-.02-.118.015-.142-.014-.093.03-.054.107-.103.151-.147l1.465-1.425c.23-.226.46-.436.534-.765.118-.534-.196-1.107-.725-1.268-.607-.191-1.322-.206-1.95-.294-.195-.03-.543-.01-.72-.103-.166-.088-.24-.377-.318-.539q-.448-.912-.896-1.817c-.314-.637-1.264-.078-.95.558zm9.762 9.552c.22.445.441.886.657 1.332.215.446.416 1.097.847 1.381.43.284 1.078.255 1.553.323l.94.138c.044.005.46.02.49.063.01.02-.838.809-.926.892-.348.343-.837.69-1.092 1.117-.29.48-.069 1.136.02 1.65.092.54.254 1.107.283 1.656 0 .068.01-.034.025-.025-.059-.02-.113-.058-.171-.088l-.789-.416c-.436-.23-.867-.48-1.318-.69-.641-.3-1.146.048-1.7.337-.514.27-1.106.5-1.581.833-.079.054-.04.117-.01-.04.059-.283.098-.572.147-.856.088-.52.196-1.034.264-1.553.098-.686-.318-1.034-.754-1.46s-.911-.808-1.298-1.264c-.118-.137-.113-.058.03-.093.264-.068.558-.083.827-.122.563-.084 1.176-.108 1.72-.26.656-.181.886-.965 1.155-1.513l.48-.97c.04-.079.177-.373.186-.363.378.598 1.333.044.95-.558-.523-.828-1.557-.676-1.978.142-.309.598-.598 1.21-.897 1.817-.068.142-.117.328-.254.402-.157.083-.456.068-.632.093-.622.093-1.269.142-1.886.274-.901.191-1.156 1.22-.549 1.867.431.46.911.886 1.362 1.327.132.127.353.274.446.436.034.054 0-.113.014.02.01.122-.048.279-.068.401-.113.656-.23 1.313-.338 1.97-.152.945.617 1.738 1.567 1.292.534-.25 1.044-.548 1.568-.823.206-.107.436-.274.661-.347.093-.03.02-.025.02-.025.083.01.206.108.279.147l1.807.95c.26.137.515.25.818.226.53-.05.965-.505.98-1.039.02-.592-.196-1.254-.294-1.832q-.075-.418-.142-.837c-.02-.118.015-.142-.015-.093.03-.054.108-.103.152-.147l1.465-1.426c.23-.225.46-.436.534-.764.117-.534-.196-1.107-.725-1.268-.608-.191-1.323-.206-1.95-.294-.196-.03-.543-.01-.72-.103-.166-.088-.24-.377-.318-.539l-.896-1.817c-.314-.637-1.264-.079-.95.558zM11.566 36.263v-4.845c0-.73-.127-1.587 0-2.307.073-.421.735-.24 1.097-.24h4.414c.161 0 .396-.063.494.098.088.142 0 .622 0 .784V46.46c0 .392.079.877 0 1.264-.068.357-.51.22-.828.22h-4.427c-.133 0-.53.074-.647 0-.27-.157-.098-1.176-.098-1.435v-6.324c0-.71-1.102-.71-1.102 0v5.383c0 .74-.034 1.49 0 2.229.049 1.004.818 1.25 1.665 1.25 1.773 0 3.58.102 5.35 0 1.567-.094 1.2-2.141 1.2-3.21V32.634c0-1.205.058-2.425 0-3.63-.045-.93-.755-1.234-1.563-1.234h-3.145c-.76 0-1.538-.044-2.297 0-1.058.064-1.205.93-1.205 1.773v6.72c0 .71 1.102.71 1.102 0z"/><path fill="#27625F" d="M18.512 31.992c2.042-1.97 4.614-3.272 6.53-5.378 1.155-1.269 2.002-2.787 2.326-4.482.152-.799.2-1.607.161-2.415-.034-.754.245-1.47 1.063-1.65.818-.182 1.465.337 1.68 1.101.309 1.107.588 2.224.882 3.336.181.686 1.244.397 1.063-.294-.284-1.073-.558-2.145-.852-3.218-.201-.745-.578-1.396-1.279-1.773-1.347-.72-3.08-.02-3.551 1.43-.255.794-.054 1.69-.132 2.513a7.8 7.8 0 0 1-.94 3.027c-.784 1.396-1.994 2.552-3.253 3.532-.603.47-1.264.862-1.881 1.303-.92.66-1.783 1.4-2.596 2.184-.51.495.27 1.274.779.78zm12.692-6.261c-.128 1.352-.466 2.626-.73 3.953a8.5 8.5 0 0 0-.186 1.764c0 .416.024.822-.054 1.234-.421 2.155-2.21 3.546-4.394 3.478-.71-.025-.71 1.077 0 1.102 2.552.083 4.761-1.519 5.393-4.007.26-1.01.088-2.048.265-3.071.103-.588.279-1.156.406-1.74.191-.895.319-1.802.402-2.708.064-.705-1.038-.7-1.102 0zm10.319 8.245h-3.366c-.426 0-.852.01-1.278 0-.882-.02-1.66-.647-1.778-1.548a1.806 1.806 0 0 1 1.416-1.974c.396-.079.842-.035 1.244-.035 1.224 0 2.454-.01 3.678 0 .872.005 1.651.54 1.827 1.426.226 1.107-.641 2.101-1.743 2.13-.71.02-.71 1.122 0 1.103 1.244-.035 2.346-.799 2.742-1.999.397-1.2-.039-2.424-.974-3.15-.642-.499-1.377-.612-2.165-.612h-2.39c-.613 0-1.225-.01-1.832 0-1.064.02-2.077.569-2.572 1.534a2.92 2.92 0 0 0 .426 3.296c.612.676 1.46.93 2.346.93h4.428c.71 0 .71-1.101 0-1.101z"/><path fill="#27625F" d="M42.601 38.633h-3.365c-.426 0-.852.01-1.278 0-.882-.02-1.66-.646-1.779-1.548a1.806 1.806 0 0 1 1.416-1.974c.397-.078.843-.034 1.244-.034 1.225 0 2.454-.01 3.679 0 .872.005 1.65.539 1.827 1.426.225 1.107-.642 2.1-1.744 2.13-.71.02-.71 1.122 0 1.102 1.244-.034 2.346-.798 2.743-1.998s-.039-2.425-.975-3.15c-.641-.5-1.376-.612-2.165-.612h-2.39c-.612 0-1.224-.01-1.832 0-1.063.02-2.077.568-2.572 1.533a2.92 2.92 0 0 0 .427 3.297c.612.676 1.46.93 2.346.93h4.428c.71 0 .71-1.102 0-1.102z"/><path fill="#27625F" d="M41.322 43.287h-3.19c-.415 0-.837.01-1.253 0-.882-.02-1.66-.651-1.778-1.548-.118-.896.51-1.792 1.416-1.974.391-.078.827-.034 1.224-.034 1.176 0 2.346-.01 3.522 0 .901.01 1.705.622 1.822 1.548.137 1.068-.71 1.979-1.768 2.008-.71.02-.71 1.122 0 1.102 1.249-.034 2.341-.803 2.743-1.998.372-1.112-.025-2.38-.93-3.116-.643-.519-1.382-.646-2.176-.646h-2.268c-.597 0-1.195-.01-1.792 0-1.063.02-2.077.568-2.572 1.533a2.92 2.92 0 0 0 .387 3.252c.607.696 1.46.975 2.356.975h4.252c.71 0 .71-1.102 0-1.102z"/><path fill="#27625F" d="M40.044 47.946c-.695 0-1.396.014-2.096 0-1.245-.025-2.136-1.293-1.646-2.464.24-.578.798-1 1.42-1.078.338-.044.7-.01 1.039-.01.916 0 1.954-.156 2.625.618.995 1.146.128 2.91-1.347 2.939-.71.014-.71 1.116 0 1.102 1.852-.035 3.262-1.793 2.782-3.615a2.87 2.87 0 0 0-1.62-1.89c-.564-.246-1.132-.25-1.73-.25-1.278 0-2.62-.143-3.6.876-1.279 1.328-.975 3.576.627 4.497.622.357 1.283.387 1.974.387h1.562c.71 0 .71-1.102 0-1.102zm-22.067-.883c1.626.255 3.209.75 4.639 1.568.215.122.43.308.661.401.23.093.45.074.696.074h5.01c.71 0 .71-1.102 0-1.102h-3.34c-.554 0-1.117.034-1.67 0-.446-.03-.794-.333-1.186-.54-1.406-.739-2.944-1.219-4.516-1.468-.696-.108-.994.955-.294 1.062zm-4.575-14.19v2.062c0 .29.255.563.549.549.294-.015.549-.24.549-.549v-2.062c0-.29-.255-.563-.55-.549-.293.015-.548.24-.548.549"/><path fill="#27625F" d="M32.251 49.047h5.903c.71 0 .71-1.102 0-1.102H32.25c-.71 0-.71 1.102 0 1.102m-1.252-18.628h7.876c.71 0 .71-1.102 0-1.102h-7.876c-.71 0-.71 1.102 0 1.102"/></svg>