<svg xmlns="http://www.w3.org/2000/svg" id="_Слой_2" data-name="Слой 2" viewBox="0 0 938.93 230.7"><defs><style>.cls-1,.cls-2{font-family:Mulish-Bold,Mulish;font-weight:700;fill:#27625f;font-size:16px}.cls-2{font-family:Mulish-SemiBold,Mulish;font-weight:600}.cls-6{letter-spacing:-.06em}.cls-7{letter-spacing:-.01em}.cls-8{letter-spacing:-.07em}.cls-9{letter-spacing:0}.cls-12{letter-spacing:-.02em}.cls-14{letter-spacing:.07em}</style></defs><g id="_Слой_1-2" data-name="Слой 1"><rect width="937.93" height="229.7" x=".5" y=".5" rx="10" ry="10" style="fill:#fff;stroke:#a0b6b5;stroke-miterlimit:10"/><path d="M.5 46.44h937.93m-624.5 0V230.2M.5 46.44l313.43 45.94m311.61-45.94V230.2M.5 92.38h937.93M.5 138.32h937.93M.5 184.26h937.93" style="stroke:#a0b6b5;stroke-miterlimit:10;fill:none"/><text class="cls-1" transform="translate(181.59 68.13)"><tspan x="0" y="0">Вид календаря</tspan></text><text class="cls-1" transform="translate(12.86 77.13)"><tspan x="0" y="0" style="letter-spacing:-.08em">Т</tspan><tspan x="8.66" y="0">ираж</tspan></text><text class="cls-1" transform="translate(113.19 120.44)"><tspan x="0" y="0">1-10 ш</tspan><tspan x="53.76" y="0" style="letter-spacing:-.07em">т</tspan><tspan x="60.38" y="0" style="letter-spacing:.06em">.</tspan><tspan x="65.39" y="0" style="letter-spacing:-.06em">/</tspan><tspan x="69.49" y="0" style="letter-spacing:-.02em">р</tspan><tspan x="79.39" y="0">.</tspan></text><text class="cls-1" transform="translate(444.78 74.48)"><tspan x="0" y="0">ПК А4</tspan></text><text class="cls-2" transform="translate(446.19 119.44)"><tspan x="0" y="0">523 </tspan><tspan x="33.07" y="0" class="cls-12">р</tspan><tspan x="42.75" y="0" class="cls-9">.</tspan></text><text class="cls-2" transform="translate(446.19 165.39)"><tspan x="0" y="0">423 </tspan><tspan x="33.07" y="0" class="cls-12">р</tspan><tspan x="42.75" y="0" class="cls-9">.</tspan></text><text class="cls-2" transform="translate(446.19 210.26)"><tspan x="0" y="0">349 </tspan><tspan x="33.07" y="0" class="cls-12">р</tspan><tspan x="42.75" y="0" class="cls-9">.</tspan></text><text class="cls-1" transform="translate(757.82 74.48)"><tspan x="0" y="0">ПК А3</tspan></text><text class="cls-2" transform="translate(754.43 119.44)"><tspan x="0" y="0">1031 </tspan><tspan x="42.67" y="0" style="letter-spacing:-.02em">р</tspan><tspan x="52.35" y="0">.</tspan></text><text class="cls-2" transform="translate(759.23 165.39)"><tspan x="0" y="0">832 </tspan><tspan x="33.07" y="0" class="cls-12">р</tspan><tspan x="42.75" y="0" class="cls-9">.</tspan></text><text class="cls-2" transform="translate(759.23 210.26)"><tspan x="0" y="0">687 </tspan><tspan x="33.07" y="0" class="cls-12">р</tspan><tspan x="42.75" y="0" class="cls-9">.</tspan></text><text class="cls-1" transform="translate(108.39 166.39)"><tspan x="0" y="0">11-50 ш</tspan><tspan x="63.36" y="0" class="cls-8">т</tspan><tspan x="69.98" y="0" class="cls-14">.</tspan><tspan x="74.99" y="0" class="cls-6">/</tspan><tspan x="79.09" y="0" class="cls-7">р</tspan><tspan x="88.99" y="0" class="cls-9">.</tspan></text><text class="cls-1" transform="translate(103.59 211.26)"><tspan x="0" y="0">51-150 ш</tspan><tspan x="72.96" y="0" class="cls-8">т</tspan><tspan x="79.58" y="0" class="cls-14">.</tspan><tspan x="84.59" y="0" class="cls-6">/</tspan><tspan x="88.69" y="0" class="cls-7">р</tspan><tspan x="98.59" y="0">.</tspan></text><text class="cls-1" transform="translate(18.9 26.94)"><tspan x="0" y="0">Календари домики</tspan></text></g></svg>