<svg xmlns="http://www.w3.org/2000/svg" data-name="Слой 2" viewBox="0 0 938.93 230.7"><g data-name="Слой 1"><rect width="937.93" height="229.7" x=".5" y=".5" rx="10" ry="10" style="fill:#fff;stroke:#a0b6b5;stroke-miterlimit:10"/><path d="M.5 92.38h937.93M.5 138.32h937.93M.5 46.44h937.93m-782.97 0V230.2M.5 46.44l154.96 45.94m156.52-45.94V230.2M470.26 46.44V230.2M625.2 46.44V230.2M781.81 92.38V230.2M.5 184.26h937.93" style="stroke:#a0b6b5;stroke-miterlimit:10;fill:none"/><path d="M16.46 27.97V16.69h2.03v4.8h1.92l-.42.27 3.33-5.07h2.27l-3.71 5.46-.78-.58c.73.11 1.33.35 1.82.74s.91.94 1.27 1.64l2 4.02h-2.22l-1.55-3.25c-.27-.57-.58-.96-.95-1.2-.37-.23-.83-.35-1.4-.35H18.5v4.8h-2.03Zm14.11.16c-.7 0-1.32-.17-1.86-.5s-.95-.82-1.25-1.45-.45-1.38-.45-2.26.15-1.62.45-2.25c.3-.62.71-1.1 1.25-1.44s1.15-.5 1.86-.5 1.28.17 1.8.5.86.79 1.03 1.35h-.18l.18-1.7h1.92l-.09 1.01c-.03.34-.04.68-.04 1.01v6.06h-1.98l-.02-1.66h.19c-.17.55-.52 1-1.04 1.33s-1.11.5-1.78.5Zm.56-1.54c.63 0 1.14-.22 1.52-.66s.58-1.11.58-2.01-.19-1.56-.58-2c-.38-.44-.89-.66-1.52-.66s-1.14.22-1.52.66-.58 1.1-.58 2 .19 1.57.57 2.01q.57.66 1.53.66m6.19 1.61-.62-1.57c.35-.13.65-.3.89-.5.24-.21.43-.47.58-.8.14-.33.25-.73.31-1.22s.1-1.06.1-1.74v-2.48h6.43v8.08h-1.98v-6.54h-2.62v1.01c0 1.16-.11 2.14-.32 2.92s-.54 1.41-.99 1.86c-.45.46-1.04.78-1.76.98Zm13.92-.07c-1.35 0-2.42-.37-3.18-1.12-.77-.75-1.15-1.77-1.15-3.07 0-.84.17-1.58.5-2.21q.495-.945 1.38-1.47c.59-.35 1.28-.53 2.07-.53s1.43.17 1.95.5.92.79 1.19 1.39.41 1.3.41 2.1v.53h-5.89v-1.06h4.46l-.27.22c0-.75-.16-1.32-.47-1.71s-.77-.59-1.37-.59c-.66 0-1.17.23-1.53.7s-.54 1.13-.54 1.97v.21c0 .87.22 1.53.65 1.96s1.04.65 1.83.65q.69 0 1.29-.18t1.14-.6l.59 1.34q-.57.465-1.38.72c-.81.255-1.1.26-1.7.26Zm5.02-.16v-8.08h1.98v3.17h3.65v-3.17h1.98v8.08h-1.98v-3.38h-3.65v3.38zm9.17 2.08v-3.6h.93c.32-.5.55-1.09.7-1.77.14-.68.22-1.51.22-2.49v-2.3h6.22v6.56h1.31v3.6h-1.7v-2.08h-5.98v2.08zm2.72-3.58h3.47V21.4h-2.66v1.25q0 1.065-.21 2.1c-.21 1.035-.34 1.26-.61 1.73Zm11.31 1.66c-.7 0-1.32-.17-1.86-.5s-.95-.82-1.25-1.45-.45-1.38-.45-2.26.15-1.62.45-2.25.71-1.1 1.25-1.44 1.15-.5 1.86-.5 1.28.17 1.8.5.86.79 1.03 1.35h-.18l.18-1.7h1.92l-.09 1.01c-.03.34-.04.68-.04 1.01v6.06H82.1l-.02-1.66h.19c-.17.55-.52 1-1.04 1.33s-1.11.5-1.78.5Zm.56-1.54c.63 0 1.14-.22 1.52-.66s.58-1.11.58-2.01-.19-1.56-.58-2c-.38-.44-.89-.66-1.52-.66s-1.14.22-1.52.66-.58 1.1-.58 2 .19 1.57.57 2.01q.57.66 1.53.66m6.47 4.84v-9.52c0-.33-.01-.67-.03-1.01s-.05-.68-.1-1.01h1.94l.18 1.7h-.18q.24-.855 1.02-1.35c.52-.34 1.12-.5 1.8-.5s1.34.17 1.87.5c.53.34.95.82 1.25 1.44q.45.93.45 2.25c0 1.32-.15 1.63-.45 2.26s-.71 1.11-1.25 1.45c-.53.34-1.16.5-1.87.5-.67 0-1.26-.17-1.78-.5-.51-.33-.85-.77-1.02-1.33h.18v5.12h-2Zm4.06-4.83c.64 0 1.15-.22 1.54-.66.38-.44.58-1.11.58-2.01s-.19-1.56-.58-2-.9-.66-1.54-.66-1.14.22-1.52.66-.58 1.1-.58 2 .19 1.57.58 2.01c.38.44.89.66 1.52.66m6.02 1.37v-8.08h1.98v2.7h2.13c1.08 0 1.89.23 2.43.68s.82 1.11.82 1.96c0 .55-.13 1.04-.38 1.45-.26.41-.63.73-1.11.95-.49.22-1.07.34-1.75.34h-4.11Zm1.98-1.31h1.86c.54 0 .96-.11 1.25-.34s.43-.58.43-1.05-.14-.81-.42-1.03q-.42-.33-1.26-.33h-1.86zm6.98-2.3v-1.58h4.86v1.58zm5.95 5.69v-3.6h.93c.32-.5.55-1.09.7-1.77.14-.68.22-1.51.22-2.49v-2.3h6.22v6.56h1.31v3.6h-1.7v-2.08h-5.98v2.08zm2.72-3.58h3.47V21.4h-2.66v1.25q0 1.065-.21 2.1c-.21 1.035-.34 1.26-.61 1.73Zm11.84 1.66q-1.245 0-2.16-.51c-.61-.34-1.08-.83-1.42-1.46s-.5-1.38-.5-2.24.17-1.61.5-2.23c.34-.62.81-1.11 1.42-1.45q.915-.51 2.16-.51c1.245 0 1.55.17 2.17.51.61.34 1.09.82 1.42 1.45.34.62.5 1.37.5 2.23s-.17 1.61-.5 2.24a3.63 3.63 0 0 1-1.42 1.46c-.61.34-1.34.51-2.17.51m0-1.54q.945 0 1.5-.66c.37-.44.56-1.11.56-2.01s-.19-1.56-.56-2q-.555-.66-1.5-.66c-.945 0-1.13.22-1.5.66s-.56 1.1-.56 2 .19 1.57.56 2.01.88.66 1.5.66m5.98 1.38v-8.08h1.66l2.78 4.83 2.78-4.83h1.66v8.08h-1.76v-5.84h.37l-2.59 4.53h-.93l-2.59-4.53h.37v5.84h-1.76Zm11.17 0v-8.08H145V26h-.48l4.59-6.11h1.65v8.08h-1.81v-6.13h.5l-4.61 6.13zm9.84 0v-8.08h1.98v3.17h1.22l2.37-3.17h2.14l-2.98 4.03-.43-.62c.3.03.56.11.79.24q.345.195.66.54c.315.345.41.52.62.87l1.7 3.02h-2.13l-1.38-2.43c-.14-.25-.28-.44-.42-.58s-.29-.23-.46-.29c-.17-.05-.38-.08-.62-.08h-1.07v3.38h-1.98Zm-48.41 30.48v-8.46h3.71c.92 0 1.63.19 2.12.58.5.39.74.93.74 1.61 0 .51-.15.94-.46 1.3-.3.35-.72.59-1.26.71v-.18c.62.09 1.09.31 1.43.67q.51.54.51 1.41c0 .75-.26 1.33-.78 1.75-.52.41-1.24.62-2.17.62h-3.85Zm1.49-4.87h1.96c.55 0 .96-.1 1.23-.31s.4-.51.4-.91-.13-.7-.4-.91c-.27-.2-.68-.31-1.23-.31h-1.96v2.42Zm0 3.7h2.18c.52 0 .92-.1 1.21-.29.29-.2.43-.52.43-.97s-.14-.78-.43-.98-.69-.29-1.21-.29h-2.18zm6.71 1.17v-6.06h1.36v4.58h-.36l3.44-4.58h1.24v6.06h-1.36v-4.6h.37l-3.46 4.6h-1.24Zm6.84 1.56v-2.7h.7c.24-.38.41-.82.52-1.33s.16-1.13.16-1.87v-1.73h4.67v4.92h.98V60h-1.27v-1.56h-4.49V60h-1.27Zm2.04-2.69h2.6v-3.8h-1.99v.94c0 .54-.05 1.06-.16 1.57s-.26.94-.46 1.3ZM83.38 67.45v-6.06h1.49v2.38h.91l1.78-2.38h1.61l-2.23 3.02-.32-.47c.22.02.42.08.59.18s.34.23.49.4c.16.17.31.39.46.65l1.27 2.27h-1.6l-1.03-1.82c-.1-.18-.21-.33-.31-.43s-.22-.18-.35-.22-.28-.06-.47-.06h-.8v2.53h-1.49Zm9.23.12c-.53 0-.99-.13-1.39-.38s-.71-.61-.94-1.09c-.22-.47-.34-1.04-.34-1.69s.11-1.22.34-1.69c.22-.47.54-.83.94-1.08s.86-.38 1.39-.38.96.13 1.35.38.65.59.77 1.01h-.13l.13-1.27h1.44c-.02.25-.05.5-.07.76s-.03.51-.03.76v4.55h-1.49V66.2h.13c-.13.42-.39.75-.78 1s-.84.37-1.33.37Zm.42-1.15c.47 0 .85-.17 1.14-.5s.43-.83.43-1.51-.14-1.17-.43-1.5-.67-.49-1.14-.49-.85.16-1.14.49-.43.83-.43 1.5.14 1.17.43 1.51c.28.33.67.5 1.15.5Zm4.64 1.2-.47-1.18c.26-.1.49-.22.67-.38s.32-.36.43-.6.19-.55.23-.91.07-.8.07-1.3v-1.86h4.82v6.06h-1.49v-4.91h-1.97v.76q0 1.305-.24 2.19c-.16.59-.41 1.05-.74 1.4s-.78.59-1.32.73Zm10.44-.05c-1.02 0-1.81-.28-2.39-.84s-.86-1.33-.86-2.3c0-.63.12-1.18.37-1.66.25-.47.59-.84 1.04-1.1.44-.26.96-.4 1.55-.4s1.07.12 1.46.37.69.6.89 1.04.31.97.31 1.57v.4h-4.42v-.79h3.35l-.2.17c0-.56-.12-.99-.35-1.28-.24-.3-.58-.44-1.03-.44-.5 0-.88.18-1.15.53s-.4.84-.4 1.48v.16c0 .66.16 1.15.49 1.47.32.32.78.49 1.37.49.34 0 .67-.05.97-.14s.59-.24.86-.45l.44 1.01c-.29.23-.63.41-1.03.54s-.82.19-1.27.19Zm3.77-.12v-6.06h1.49v2.38h2.74v-2.38h1.49v6.06h-1.49v-2.53h-2.74v2.53zm6.88 1.56v-2.7h.7c.24-.38.41-.82.52-1.33s.16-1.13.16-1.87v-1.73h4.67v4.92h.98V69h-1.27v-1.56h-4.49V69h-1.27Zm2.04-2.69h2.6v-3.8h-1.99v.94c0 .54-.05 1.06-.16 1.57s-.26.94-.46 1.3Zm8.48 1.25c-.53 0-.99-.13-1.39-.38s-.71-.61-.94-1.09c-.22-.47-.34-1.04-.34-1.69s.11-1.22.34-1.69c.22-.47.54-.83.94-1.08s.86-.38 1.39-.38.96.13 1.35.38.65.59.77 1.01h-.13l.13-1.27h1.44l-.06.76c-.02.26-.03.51-.03.76v4.55h-1.49V66.2h.13c-.13.42-.39.75-.78 1s-.84.37-1.33.37m.42-1.15c.47 0 .85-.17 1.14-.5s.43-.83.43-1.51-.14-1.17-.43-1.5-.67-.49-1.14-.49-.85.16-1.14.49-.43.83-.43 1.5.14 1.17.43 1.51c.28.33.67.5 1.15.5Zm4.85 3.62V62.9c0-.25 0-.5-.02-.76s-.04-.51-.07-.76h1.45l.13 1.27h-.13c.12-.42.37-.76.76-1.01s.84-.38 1.35-.38 1 .13 1.4.38.71.61.94 1.08.34 1.03.34 1.69-.11 1.22-.34 1.69-.54.83-.94 1.09c-.4.25-.87.38-1.4.38-.5 0-.95-.12-1.33-.37s-.64-.58-.77-1h.13v3.84zm3.05-3.62c.48 0 .86-.17 1.15-.5s.43-.83.43-1.51-.14-1.17-.43-1.5-.67-.49-1.15-.49-.85.16-1.14.49-.43.83-.43 1.5.14 1.17.43 1.51.67.5 1.14.5m4 1.03.92-1.6c.16-.27.36-.49.59-.65.24-.16.48-.25.74-.25h.26v.13c-.72 0-1.27-.16-1.66-.47-.38-.31-.58-.77-.58-1.37s.2-1.05.59-1.37c.4-.32.98-.49 1.75-.49h3.01v6.06h-1.37V65.3h-.68c-.25 0-.47.07-.65.2-.19.14-.35.31-.47.53l-.79 1.4h-1.67Zm2.92-3.11h1.36v-1.98h-1.36c-.41 0-.71.09-.92.26-.2.18-.31.42-.31.72 0 .32.1.57.31.74.2.17.51.26.92.26M12.26 81.58V72H8.53v-1.7h9.52V72h-3.73v9.58zm5.89 0V73.5h1.81v6.11h-.48l4.59-6.11h1.65v8.08h-1.81v-6.13h.5l-4.61 6.13zm9.91 3.46v-9.52c0-.33-.01-.67-.03-1.01s-.05-.68-.1-1.01h1.94l.18 1.7h-.18q.24-.855 1.02-1.35c.52-.34 1.12-.5 1.8-.5s1.34.17 1.87.5c.53.34.95.82 1.25 1.44s.45 1.37.45 2.25-.15 1.63-.45 2.26-.71 1.11-1.25 1.45c-.53.34-1.16.5-1.87.5-.67 0-1.26-.17-1.78-.5-.51-.33-.85-.77-1.02-1.33h.18v5.12h-2Zm4.06-4.83c.64 0 1.15-.22 1.54-.66.38-.44.58-1.11.58-2.01s-.19-1.56-.58-2c-.38-.44-.9-.66-1.54-.66s-1.14.22-1.52.66-.58 1.1-.58 2 .19 1.57.58 2.01c.38.44.89.66 1.52.66m9.2 1.53c-.7 0-1.32-.17-1.86-.5-.53-.34-.95-.82-1.25-1.45s-.45-1.38-.45-2.26.15-1.62.45-2.25c.3-.62.71-1.1 1.25-1.44s1.15-.5 1.86-.5 1.28.17 1.8.5c.52.34.86.79 1.03 1.35h-.18l.18-1.7h1.92l-.09 1.01c-.03.34-.04.68-.04 1.01v6.06h-1.98l-.02-1.66h.19c-.17.55-.52 1-1.04 1.33s-1.11.5-1.78.5Zm.56-1.54c.63 0 1.14-.22 1.52-.66s.58-1.11.58-2.01-.19-1.56-.58-2c-.38-.44-.89-.66-1.52-.66s-1.14.22-1.52.66-.58 1.1-.58 2 .19 1.57.57 2.01q.57.66 1.53.66m5.18 1.38 1.7-3.02c.21-.35.42-.64.62-.87s.41-.41.65-.54.5-.21.8-.24l-.42.62-2.99-4.03h2.14l2.38 3.17h1.01V73.5h1.98v3.17h.99l2.37-3.17h2.16l-3.01 4.03-.42-.62c.3.03.57.11.8.24s.46.31.66.54.41.52.62.87l1.7 3.02h-2.13l-1.38-2.43c-.14-.25-.28-.44-.42-.58s-.29-.24-.46-.29-.38-.08-.62-.08h-.86v3.38h-1.98V78.2h-.88c-.25 0-.45.03-.62.08s-.32.15-.46.29c-.13.14-.27.33-.42.58l-1.38 2.43zm-14.78 83.74v-1.71h2.59v-7.84h.99l-3.33 1.98v-1.95l2.93-1.76h1.47v9.57h2.43v1.71h-7.09Zm9.6 0v-1.71h2.59v-7.84h.99l-3.33 1.98v-1.95l2.93-1.76h1.47v9.57h2.43v1.71h-7.09Zm8.89-3.61v-1.58h4.86v1.58zm10.82 3.77c-.49 0-.98-.05-1.46-.16s-.94-.26-1.36-.45q-.63-.285-1.08-.69l.67-1.55c.5.37 1.02.65 1.54.84.53.19 1.08.28 1.66.28.69 0 1.23-.17 1.62-.52s.58-.81.58-1.4-.19-1.08-.56-1.45-.89-.55-1.54-.55c-.46 0-.88.09-1.26.26q-.57.27-1.02.81h-1.36v-6.86h7.01v1.7h-5.06v3.58h-.5c.28-.37.65-.66 1.11-.86q.69-.3 1.56-.3c.73 0 1.35.15 1.89.45.53.3.95.72 1.25 1.26s.45 1.17.45 1.9-.17 1.38-.5 1.94c-.34.56-.82 1-1.44 1.31s-1.36.47-2.22.47Zm9.52 0c-1.32 0-2.34-.5-3.06-1.51-.71-1.01-1.07-2.45-1.07-4.31s.36-3.32 1.07-4.3q1.065-1.47 3.06-1.47c1.995 0 2.35.49 3.06 1.47s1.06 2.41 1.06 4.29-.35 3.32-1.06 4.33-1.73 1.51-3.06 1.51Zm0-1.7c.73 0 1.26-.33 1.62-1s.53-1.71.53-3.14-.18-2.47-.53-3.11-.89-.97-1.62-.97-1.25.32-1.61.97-.54 1.68-.54 3.11.18 2.48.54 3.14.89 1 1.61 1m10.32 1.54v-8.08h1.87v6.54h2.85v-6.54h1.86v6.54h2.85v-6.54h1.87v8.08zm15.31 0v-6.51h-2.77v-1.57h7.54v1.57h-2.78v6.51h-1.98Zm4.61 0v-2.22h2.24v2.22zm5.39.95h-1.65l4.21-12.98h1.65zm4.05 2.51v-9.52c0-.33-.01-.67-.03-1.01s-.05-.68-.1-1.01h1.94l.18 1.7h-.18q.24-.855 1.02-1.35c.52-.34 1.12-.5 1.8-.5s1.34.17 1.87.5c.53.34.95.82 1.25 1.44q.45.93.45 2.25c0 1.32-.15 1.63-.45 2.26s-.71 1.11-1.25 1.45c-.53.34-1.16.5-1.87.5-.67 0-1.26-.17-1.78-.5-.51-.33-.85-.77-1.02-1.33h.18v5.12h-2Zm4.06-4.83c.64 0 1.15-.22 1.54-.66s.58-1.11.58-2.01-.19-1.56-.58-2-.9-.66-1.54-.66-1.14.22-1.52.66-.58 1.1-.58 2 .19 1.57.58 2.01.89.66 1.52.66m5.5 1.37v-2.22h2.24v2.22zm-83.27-45v-1.71h2.59v-7.84h.99l-3.33 1.98v-1.95l2.93-1.76h1.47v9.57h2.43v1.71h-7.09Zm8.89-3.61v-1.58h4.86v1.58zm7.71 3.61v-1.71h2.59v-7.84h.99l-3.33 1.98v-1.95l2.93-1.76h1.47v9.57h2.43v1.71h-7.09Zm12.63.16c-1.32 0-2.34-.5-3.06-1.51-.71-1.01-1.07-2.45-1.07-4.31s.36-3.32 1.07-4.3q1.065-1.47 3.06-1.47c1.995 0 2.35.49 3.06 1.47s1.06 2.41 1.06 4.29-.35 3.32-1.06 4.33-1.73 1.51-3.06 1.51Zm0-1.7c.73 0 1.26-.33 1.62-1s.53-1.71.53-3.14-.18-2.47-.53-3.11-.89-.97-1.62-.97-1.25.32-1.61.97-.54 1.68-.54 3.11.18 2.48.54 3.14.89 1 1.61 1m10.32 1.54v-8.08h1.87v6.54h2.85v-6.54h1.86v6.54h2.85v-6.54h1.87v8.08zm15.31 0v-6.51h-2.77v-1.57h7.54v1.57h-2.78v6.51h-1.98Zm4.61 0v-2.22h2.24v2.22zm5.39.95h-1.65l4.21-12.98h1.65zm4.05 2.51v-9.52c0-.33-.01-.67-.03-1.01s-.05-.68-.1-1.01h1.94l.18 1.7h-.18q.24-.855 1.02-1.35c.52-.34 1.12-.5 1.8-.5s1.34.17 1.87.5c.53.34.95.82 1.25 1.44q.45.93.45 2.25c0 1.32-.15 1.63-.45 2.26s-.71 1.11-1.25 1.45c-.53.34-1.16.5-1.87.5-.67 0-1.26-.17-1.78-.5-.51-.33-.85-.77-1.02-1.33h.18v5.12h-2Zm4.06-4.83c.64 0 1.15-.22 1.54-.66s.58-1.11.58-2.01-.19-1.56-.58-2-.9-.66-1.54-.66-1.14.22-1.52.66-.58 1.1-.58 2 .19 1.57.58 2.01.89.66 1.52.66m5.5 1.37v-2.22h2.24v2.22zm72.19-51.91V57.13h2.03v4.8h1.92l-.42.27 3.33-5.07h2.27l-3.71 5.46-.78-.58c.73.11 1.33.35 1.82.74s.91.94 1.27 1.64l2 4.02h-2.22l-1.55-3.25c-.27-.57-.58-.96-.95-1.2-.37-.23-.83-.35-1.4-.35h-1.57v4.8h-2.03Zm11.04 0V57.13h2.06v4.7h5.78v-4.7h2.06v11.28h-2.06v-4.86h-5.78v4.86zm18-1.38-2.1-2.91 2.1-2.91h1.66l-1.97 2.91 1.97 2.91zm3.33 0-2.1-2.91 2.1-2.91h1.66l-1.97 2.91 1.97 2.91zm2.38 4.02v-4.26h1.17c.53-.64.93-1.51 1.18-2.62.26-1.11.38-2.47.38-4.1v-2.94h8.18v9.66h1.65v4.26h-1.79v-2.64h-8.96v2.64zm3.23-4.26h5.63v-8.06h-4.24v1.54c0 1.55-.11 2.85-.34 3.9-.23 1.06-.58 1.93-1.05 2.62m14.54 1.78q-1.245 0-2.16-.51c-.61-.34-1.08-.83-1.42-1.46s-.5-1.38-.5-2.24.17-1.61.5-2.23.81-1.11 1.42-1.45q.915-.51 2.16-.51c1.245 0 1.55.17 2.17.51.61.34 1.09.82 1.42 1.45s.5 1.37.5 2.23-.17 1.61-.5 2.24-.81 1.11-1.42 1.46c-.61.34-1.34.51-2.17.51m0-1.54q.945 0 1.5-.66c.37-.44.56-1.11.56-2.01s-.19-1.56-.56-2-.88-.66-1.5-.66-1.13.22-1.5.66-.56 1.1-.56 2 .19 1.57.56 2.01q.555.66 1.5.66m5.99 1.38v-8.08h1.66l2.78 4.83 2.78-4.83h1.66v8.08h-1.76v-5.84h.37l-2.59 4.53h-.93l-2.59-4.53h.37v5.84h-1.76Zm11.17 0v-8.08h1.81v6.11h-.48l4.59-6.11h1.65v8.08h-1.81v-6.13h.5l-4.61 6.13zm9.83 0v-8.08h1.98v3.17h1.22l2.37-3.17h2.14l-2.98 4.03-.43-.62c.3.03.56.11.79.24q.345.195.66.54c.315.345.41.52.62.87l1.7 3.02h-2.13l-1.38-2.43c-.14-.25-.28-.44-.42-.58s-.29-.23-.46-.29c-.17-.05-.38-.08-.62-.08h-1.07v3.38h-1.98Zm10.15-1.38h-1.66l1.97-2.91-1.97-2.91h1.68l2.08 2.91zm3.33 0h-1.66l1.97-2.91-1.97-2.91h1.68l2.08 2.91zm-70.98 14.54c-.78 0-1.53-.11-2.24-.34s-1.3-.55-1.76-.95l.67-1.55c.5.38 1.02.67 1.56.85s1.11.27 1.7.27c.73 0 1.27-.14 1.65-.43.37-.29.56-.71.56-1.26s-.18-.94-.55-1.21-.9-.41-1.61-.41h-1.82v-1.65h1.65c.61 0 1.09-.15 1.46-.45q.54-.45.54-1.23c0-.49-.17-.86-.5-1.12-.34-.26-.82-.38-1.45-.38-1.13 0-2.13.38-2.99 1.15l-.67-1.54c.46-.43 1.03-.76 1.7-.99.68-.23 1.39-.35 2.14-.35 1.17 0 2.09.26 2.76.79s1 1.26 1 2.2q0 1.005-.57 1.74c-.38.49-.9.81-1.56.97v-.19c.78.13 1.38.45 1.82.95s.65 1.14.65 1.9c0 1-.37 1.79-1.1 2.38-.74.58-1.74.87-3.02.87Zm14.27 0c-.83 0-1.56-.17-2.18-.51s-1.11-.83-1.45-1.46-.51-1.39-.51-2.26.17-1.62.52-2.24.83-1.09 1.45-1.42 1.34-.5 2.18-.5c.53 0 1.05.08 1.56.25s.92.4 1.24.71l-.61 1.39a2.8 2.8 0 0 0-.97-.6c-.36-.13-.71-.2-1.05-.2-.71 0-1.27.22-1.67.67s-.6 1.1-.6 1.95.2 1.51.6 1.97.96.69 1.67.69c.33 0 .67-.06 1.03-.19s.69-.33.98-.59l.61 1.38q-.495.465-1.26.72c-.51.17-1.02.26-1.54.26Zm4.52-.16v-8.08h6.06v1.57h-4.06v6.51zm7.47 0v-8.08h1.81v6.11h-.48l4.59-6.11h1.65v8.08h-1.81v-6.13h.5l-4.61 6.13zm13.63.16c-1.27 0-2.28-.38-3.03-1.15s-1.13-1.89-1.13-3.38v-1.38c0-1.52.35-2.75 1.04-3.68s1.74-1.54 3.14-1.84l2.96-.67.54 1.57-3.33.74q-.825.18-1.38.66c-.36.33-.63.71-.82 1.16q-.27.675-.27 1.44v.85h-.27c.12-.48.31-.9.59-1.26s.63-.64 1.06-.84.91-.3 1.46-.3c.68 0 1.28.16 1.8.47.52.32.92.77 1.22 1.36s.45 1.3.45 2.12-.17 1.57-.5 2.19c-.34.62-.81 1.1-1.41 1.43s-1.31.5-2.12.5Zm-.06-1.52c.66 0 1.18-.21 1.54-.63.37-.42.55-1.05.55-1.9s-.19-1.45-.56-1.88-.89-.65-1.54-.65-1.16.21-1.54.64c-.37.43-.56 1.03-.56 1.82 0 .86.19 1.51.56 1.94s.88.65 1.54.65Zm9.16 1.52c-.7 0-1.32-.17-1.86-.5s-.95-.82-1.25-1.45-.45-1.38-.45-2.26.15-1.62.45-2.25.71-1.1 1.25-1.44 1.15-.5 1.86-.5 1.28.17 1.8.5.86.79 1.03 1.35h-.18l.18-1.7h1.92l-.09 1.01c-.03.34-.04.68-.04 1.01v6.06h-1.98l-.02-1.66h.19c-.17.55-.52 1-1.04 1.33s-1.11.5-1.78.5Zm.56-1.54c.63 0 1.14-.22 1.52-.66s.58-1.11.58-2.01-.19-1.56-.58-2c-.38-.44-.89-.66-1.52-.66s-1.14.22-1.52.66-.58 1.1-.58 2 .19 1.57.57 2.01q.57.66 1.53.66m-38.24 39.04c-.77 0-1.5-.11-2.21-.34s-1.29-.56-1.76-.98l.58-1.26c.52.41 1.06.7 1.6.9.54.19 1.13.29 1.74.29.79 0 1.39-.17 1.8-.5s.62-.81.62-1.42-.21-1.07-.62-1.38-1.02-.47-1.82-.47h-1.74v-1.34h1.62c.68 0 1.23-.17 1.63-.52s.61-.82.61-1.42c0-.54-.19-.96-.56-1.26-.37-.29-.91-.44-1.6-.44q-1.755 0-3.09 1.23l-.56-1.26c.44-.44.99-.78 1.66-1.02s1.38-.36 2.11-.36q1.695 0 2.67.78c.65.52.98 1.24.98 2.15 0 .69-.19 1.29-.58 1.78s-.92.82-1.59.98v-.18c.8.13 1.42.45 1.85.95.43.51.65 1.14.65 1.9 0 1-.35 1.79-1.06 2.36s-1.68.86-2.92.86Zm9.72 0c-1.3 0-2.31-.28-3.04-.83s-1.09-1.33-1.09-2.32c0-.79.24-1.44.72-1.96s1.11-.83 1.89-.94v.29c-.7-.15-1.27-.47-1.69-.98-.42-.5-.63-1.11-.63-1.82 0-.94.34-1.67 1.02-2.21s1.62-.8 2.82-.8 2.15.27 2.83.8 1.02 1.27 1.02 2.21c0 .71-.2 1.33-.6 1.83-.4.51-.95.82-1.64.95v-.27c.77.11 1.38.42 1.84.94s.69 1.17.69 1.96c0 .99-.36 1.76-1.09 2.32-.73.55-1.74.83-3.06.83Zm0-1.31c.86 0 1.51-.16 1.94-.49s.64-.81.64-1.46-.21-1.14-.64-1.46-1.07-.48-1.94-.48-1.51.16-1.94.48-.64.81-.64 1.46.22 1.14.65 1.46 1.07.49 1.93.49m0-5.2c.75 0 1.31-.17 1.7-.5.39-.34.58-.8.58-1.38s-.19-1.03-.58-1.36-.96-.5-1.7-.5-1.3.17-1.7.5c-.39.33-.59.78-.59 1.36s.2 1.05.59 1.38.96.5 1.7.5m10.35 9.83v-9.58c0-.31-.01-.63-.04-.95l-.09-.98h1.57l.16 1.82h-.18c.17-.61.51-1.09 1.03-1.44s1.13-.53 1.85-.53 1.34.17 1.87.5c.53.34.95.81 1.24 1.43s.44 1.37.44 2.24-.15 1.61-.44 2.24-.71 1.11-1.24 1.44-1.16.5-1.87.5-1.31-.17-1.83-.52-.86-.82-1.03-1.42h.18v5.25zm3.9-4.58c.7 0 1.27-.25 1.69-.74s.63-1.22.63-2.18-.21-1.68-.63-2.17-.98-.73-1.69-.73-1.27.24-1.69.73-.63 1.21-.63 2.17.21 1.69.63 2.18.98.74 1.69.74m5.44 1.12v-1.9h1.9v1.9zm-36.1 47.54c-.77 0-1.5-.11-2.21-.34s-1.29-.56-1.76-.98l.58-1.26c.52.41 1.06.7 1.6.9.54.19 1.13.29 1.74.29.79 0 1.39-.17 1.8-.5s.62-.81.62-1.42-.21-1.07-.62-1.38-1.02-.47-1.82-.47h-1.74v-1.34h1.62c.68 0 1.23-.17 1.63-.52s.61-.82.61-1.42c0-.54-.19-.96-.56-1.26-.37-.29-.91-.44-1.6-.44q-1.755 0-3.09 1.23l-.56-1.26c.44-.44.99-.78 1.66-1.02s1.38-.36 2.11-.36q1.695 0 2.67.78c.65.52.98 1.24.98 2.15 0 .69-.19 1.29-.58 1.78s-.92.82-1.59.98v-.18c.8.13 1.42.45 1.85.95.43.51.65 1.14.65 1.9 0 1-.35 1.79-1.06 2.36s-1.68.86-2.92.86Zm10.09 0c-1.4 0-2.47-.49-3.22-1.46s-1.13-2.33-1.13-4.08c0-1.3.19-2.4.58-3.29.38-.89.93-1.57 1.64-2.04s1.57-.7 2.57-.7c.6 0 1.19.11 1.79.34s1.1.55 1.5.97l-.59 1.25c-.39-.38-.83-.67-1.3-.86s-.94-.29-1.42-.29q-1.545 0-2.37 1.08c-.54.72-.82 1.79-.82 3.22v1.36h-.16c.07-.58.26-1.07.54-1.5.29-.42.66-.74 1.12-.97.46-.22.97-.34 1.54-.34.67 0 1.27.16 1.78.46.52.31.92.73 1.22 1.27s.45 1.15.45 1.85-.16 1.35-.48 1.92q-.48.855-1.32 1.32c-.84.465-1.2.47-1.93.47Zm-.1-1.34c.45 0 .84-.1 1.18-.29s.6-.46.79-.81.29-.75.29-1.21-.1-.86-.29-1.2-.46-.61-.79-.81c-.34-.2-.73-.3-1.18-.3s-.84.1-1.18.3-.61.47-.8.81-.29.74-.29 1.2.1.86.29 1.21.46.62.8.81.74.29 1.18.29m6.28 3.16-.7-.54c.31-.33.52-.63.63-.91s.17-.57.17-.86l.35.35h-1.26v-1.9h1.9v1.3c0 .48-.08.93-.24 1.34s-.44.82-.85 1.24Zm6.99-1.82a6.5 6.5 0 0 1-2.8-.62c-.42-.2-.78-.43-1.09-.71l.58-1.26c.51.39 1.04.69 1.58.89s1.11.3 1.7.3c.76 0 1.35-.2 1.78-.59s.65-.92.65-1.58-.21-1.23-.62-1.66c-.41-.42-.98-.63-1.7-.63-.5 0-.96.1-1.37.3q-.615.3-1.08.93h-1.15v-6.78h6.83v1.39h-5.25v4.06h-.42c.29-.41.67-.72 1.16-.94a3.9 3.9 0 0 1 1.64-.34c.73 0 1.35.15 1.89.45s.95.71 1.24 1.25c.29.53.44 1.16.44 1.89s-.16 1.36-.49 1.91a3.4 3.4 0 0 1-1.39 1.29c-.6.31-1.31.46-2.14.46Zm10.19 3.31v-9.58c0-.31-.01-.63-.04-.95l-.09-.98h1.57l.16 1.82h-.18c.17-.61.51-1.09 1.03-1.44s1.13-.53 1.85-.53 1.34.17 1.87.5.95.81 1.24 1.43.44 1.37.44 2.24-.15 1.61-.44 2.24-.71 1.11-1.24 1.44-1.16.5-1.87.5-1.31-.17-1.83-.52-.86-.82-1.03-1.42h.18v5.25zm3.9-4.58c.7 0 1.27-.25 1.69-.74s.63-1.22.63-2.18-.21-1.68-.63-2.17-.98-.73-1.69-.73-1.27.24-1.69.73-.63 1.21-.63 2.17.21 1.69.63 2.18.98.74 1.69.74m5.45 1.12v-1.9h1.9v1.9zm-36.11 45.15c-.77 0-1.5-.11-2.21-.34s-1.29-.56-1.76-.98l.58-1.26c.52.41 1.06.7 1.6.9.54.19 1.13.29 1.74.29.79 0 1.39-.17 1.8-.5s.62-.81.62-1.42-.21-1.07-.62-1.38-1.02-.47-1.82-.47h-1.74v-1.34h1.62c.68 0 1.23-.17 1.63-.52s.61-.82.61-1.42c0-.54-.19-.96-.56-1.26-.37-.29-.91-.44-1.6-.44q-1.755 0-3.09 1.23l-.56-1.26c.44-.44.99-.78 1.66-1.02s1.38-.36 2.11-.36q1.695 0 2.67.78c.65.52.98 1.24.98 2.15 0 .69-.19 1.29-.58 1.78s-.92.82-1.59.98v-.18c.8.13 1.42.45 1.85.95.43.51.65 1.14.65 1.9 0 1-.35 1.79-1.06 2.36s-1.68.86-2.92.86Zm6.84-.15v-1.39h2.62v-8.48h.83l-3.2 1.95v-1.6l2.83-1.76h1.2v9.89h2.46v1.39h-6.75Zm13.23 3.46v-9.58c0-.31-.01-.63-.04-.95l-.09-.98h1.57l.16 1.82h-.18c.17-.61.51-1.09 1.03-1.44s1.13-.53 1.85-.53 1.34.17 1.87.5c.53.34.95.81 1.24 1.43s.44 1.37.44 2.24-.15 1.61-.44 2.24-.71 1.11-1.24 1.44-1.16.5-1.87.5-1.31-.17-1.83-.52-.86-.82-1.03-1.42h.18v5.25zm3.9-4.58c.7 0 1.27-.25 1.69-.74s.63-1.22.63-2.18-.21-1.68-.63-2.17-.98-.73-1.69-.73-1.27.24-1.69.73-.63 1.21-.63 2.17.21 1.69.63 2.18.98.74 1.69.74m5.44 1.12v-1.9h1.9v1.9zm67.39-143.91v-8.46h1.52v3.6h1.44l-.31.2 2.5-3.8h1.7l-2.78 4.09-.59-.43c.54.08 1 .27 1.36.56s.68.7.95 1.23l1.5 3.01h-1.67l-1.16-2.44c-.2-.42-.44-.72-.71-.9s-.63-.26-1.05-.26h-1.18v3.6zm8.28 0v-8.46h1.55v3.53h4.33v-3.53h1.55v8.46h-1.55v-3.65h-4.33v3.65zm13.5-1.03-1.57-2.18 1.57-2.18h1.25l-1.48 2.18 1.48 2.18zm2.5 0-1.57-2.18 1.57-2.18h1.25l-1.48 2.18 1.48 2.18zm1.79 3.01V66.2h.88c.4-.48.7-1.14.89-1.97s.29-1.86.29-3.07v-2.21h6.13v7.25h1.24v3.19h-1.34v-1.98h-6.72v1.98h-1.36Zm2.42-3.19h4.22v-6.05h-3.18v1.15c0 1.16-.09 2.14-.26 2.93s-.43 1.45-.79 1.97Zm10.91 1.33c-.62 0-1.16-.13-1.62-.38s-.81-.62-1.06-1.09-.38-1.03-.38-1.68.13-1.21.38-1.67.61-.83 1.06-1.09 1-.38 1.62-.38 1.17.13 1.63.38c.46.26.82.62 1.07 1.09s.38 1.03.38 1.67-.13 1.21-.38 1.68-.61.84-1.07 1.09c-.46.26-1 .38-1.63.38m0-1.15c.47 0 .85-.17 1.13-.5s.42-.83.42-1.51-.14-1.17-.42-1.5-.66-.49-1.13-.49-.85.16-1.13.49q-.42.495-.42 1.5c0 1.005.14 1.17.42 1.51.28.33.66.5 1.13.5m4.49 1.03v-6.06H363l2.09 3.62 2.09-3.62h1.25v6.06h-1.32v-4.38h.28l-1.94 3.4h-.7l-1.94-3.4h.28v4.38h-1.32Zm8.37 0v-6.06h1.36v4.58h-.36l3.44-4.58h1.24v6.06h-1.36v-4.6h.37l-3.46 4.6h-1.24Zm7.38 0v-6.06h1.49v2.38h.91l1.78-2.38h1.61l-2.23 3.02-.32-.47c.22.02.42.08.59.18s.34.23.49.4c.16.17.31.39.46.65l1.27 2.27h-1.6l-1.03-1.82c-.1-.18-.21-.33-.31-.43s-.22-.18-.35-.22-.28-.06-.47-.06h-.8v2.53h-1.49Zm7.61-1.03h-1.25l1.48-2.18-1.48-2.18h1.26l1.56 2.18zm2.5 0h-1.25l1.48-2.18-1.48-2.18h1.26l1.56 2.18zm6 1.03v-6.06h5.68v6.06h-1.49V62.5h-2.7v4.91zm10.35.12c-1.02 0-1.81-.28-2.39-.84s-.86-1.33-.86-2.3c0-.63.12-1.18.37-1.66.25-.47.59-.84 1.04-1.1.44-.26.96-.4 1.55-.4s1.07.12 1.46.37.69.6.89 1.04.31.97.31 1.57v.4h-4.42v-.79h3.35l-.21.17c0-.56-.12-.99-.35-1.28-.24-.3-.58-.44-1.03-.44-.5 0-.88.18-1.15.53s-.4.84-.4 1.48v.16c0 .66.16 1.15.49 1.47.32.32.78.49 1.37.49.34 0 .67-.05.97-.14s.59-.24.86-.45l.44 1.01c-.29.23-.63.41-1.03.54s-.82.19-1.27.19Zm3.82 2.47v-7.14c0-.25 0-.5-.02-.76s-.04-.51-.07-.76h1.45l.13 1.27h-.13c.12-.42.37-.76.76-1.01s.84-.38 1.35-.38 1 .13 1.4.38.71.61.94 1.08.34 1.03.34 1.69-.11 1.22-.34 1.69-.54.83-.94 1.09c-.4.25-.87.38-1.4.38-.5 0-.95-.12-1.33-.37s-.64-.58-.77-1h.13V70zm3.05-3.62c.48 0 .86-.17 1.15-.5s.43-.83.43-1.51-.14-1.17-.43-1.5-.67-.49-1.15-.49-.85.16-1.14.49-.43.83-.43 1.5.14 1.17.43 1.51.67.5 1.14.5m7.48 1.15c-1.02 0-1.81-.28-2.39-.84s-.86-1.33-.86-2.3c0-.63.12-1.18.37-1.66s.59-.84 1.04-1.1c.44-.26.96-.4 1.55-.4s1.07.12 1.46.37.69.6.89 1.04c.2.45.31.97.31 1.57v.4h-4.42v-.79h3.35l-.2.17c0-.56-.12-.99-.35-1.28-.24-.3-.58-.44-1.03-.44-.5 0-.88.18-1.15.53s-.4.84-.4 1.48v.16c0 .66.16 1.15.49 1.47s.78.49 1.37.49c.34 0 .67-.05.97-.14s.59-.24.86-.45l.44 1.01c-.29.23-.63.41-1.03.54s-.82.19-1.27.19Zm3.77-.12v-6.06h1.49v2.38h.91l1.78-2.38h1.61l-2.23 3.02-.32-.47c.22.02.42.08.59.18s.34.23.49.4.31.39.46.65l1.27 2.27h-1.6l-1.03-1.82c-.1-.18-.21-.33-.31-.43s-.22-.18-.35-.22-.28-.06-.47-.06h-.8v2.53h-1.49Zm6.84 0v-6.06h1.36v4.58h-.36l3.44-4.58h1.24v6.06h-1.36v-4.6h.37l-3.46 4.6h-1.24Zm6.84 1.56v-2.7h.7c.24-.38.41-.82.52-1.33s.16-1.13.16-1.87v-1.73h4.67v4.92h.98v2.7h-1.27V67.4h-4.49v1.56h-1.27Zm2.04-2.69h2.6v-3.8h-1.99v.94c0 .54-.05 1.06-.16 1.57-.1.51-.26.94-.46 1.3Zm6.1 1.13v-6.06h1.49v2.38h2.74v-2.38h1.49v6.06h-1.49v-2.53h-2.74v2.53zm10.2.12c-.62 0-1.16-.13-1.62-.38s-.81-.62-1.06-1.09-.38-1.03-.38-1.68.13-1.21.38-1.67.61-.83 1.06-1.09 1-.38 1.62-.38 1.17.13 1.63.38.82.62 1.07 1.09.38 1.03.38 1.67-.13 1.21-.38 1.68-.61.84-1.07 1.09-1 .38-1.63.38m0-1.15c.47 0 .85-.17 1.13-.5s.42-.83.42-1.51-.14-1.17-.42-1.5-.66-.49-1.13-.49-.85.16-1.13.49q-.42.495-.42 1.5c0 1.005.14 1.17.42 1.51s.66.5 1.13.5m4.49 1.03v-6.06h1.36v4.58h-.36l3.44-4.58h1.24v6.06h-1.36v-4.6h.37l-3.46 4.6h-1.24Zm2.83-6.61c-.4 0-.75-.07-1.06-.2s-.56-.32-.76-.56-.34-.53-.43-.87l.77-.26c.14.37.32.64.56.81s.55.26.92.26.68-.08.92-.25.44-.44.59-.8l.73.25c-.17.54-.45.94-.83 1.22-.39.28-.86.41-1.42.41ZM337 80.53c-.62 0-1.17-.13-1.64-.38-.47-.26-.83-.62-1.09-1.1s-.38-1.04-.38-1.7.13-1.22.39-1.68.62-.82 1.09-1.07c.46-.25 1.01-.37 1.63-.37.4 0 .79.06 1.17.19s.69.3.93.53l-.46 1.04c-.22-.2-.46-.35-.73-.45s-.53-.15-.79-.15c-.54 0-.95.17-1.25.5s-.45.82-.45 1.46.15 1.13.45 1.48c.3.34.72.52 1.25.52.25 0 .51-.05.77-.14.27-.1.51-.24.74-.44l.46 1.03c-.25.23-.56.41-.94.54s-.77.19-1.16.19Zm6.36 0c-1.02 0-1.81-.28-2.39-.84s-.86-1.33-.86-2.3c0-.63.12-1.18.37-1.66.25-.47.59-.84 1.04-1.1.44-.26.96-.4 1.55-.4s1.07.12 1.46.37.69.6.89 1.04.31.97.31 1.57v.4h-4.42v-.79h3.35l-.2.17c0-.56-.12-.99-.35-1.28-.24-.3-.58-.44-1.03-.44-.5 0-.88.18-1.15.53s-.4.84-.4 1.48v.16c0 .66.16 1.15.49 1.47.32.32.78.49 1.37.49.34 0 .67-.05.97-.14s.59-.24.86-.45l.44 1.01c-.29.23-.63.41-1.03.54s-.82.19-1.27.19Zm5.07-.12v-4.88h-2.08v-1.18H352v1.18h-2.09v4.88h-1.49Zm4.5 0v-6.06h1.49v2.38h.91l1.78-2.38h1.61l-2.23 3.02-.32-.47c.22.02.42.08.59.18s.34.23.49.4c.16.17.31.39.46.65l1.27 2.27h-1.6l-1.03-1.82c-.1-.18-.21-.33-.31-.43s-.22-.18-.35-.22-.28-.06-.47-.06h-.8v2.53h-1.49Zm9.23.12c-.53 0-.99-.13-1.39-.38s-.71-.61-.94-1.09c-.22-.47-.34-1.04-.34-1.69s.11-1.22.34-1.69c.22-.47.54-.83.94-1.08s.86-.38 1.39-.38.96.13 1.35.38.65.59.77 1.01h-.13l.13-1.27h1.44c-.02.25-.05.5-.07.76s-.03.51-.03.76v4.55h-1.49v-1.25h.13c-.13.42-.39.75-.78 1s-.84.37-1.33.37Zm.42-1.15c.47 0 .85-.17 1.14-.5s.43-.83.43-1.51-.14-1.17-.43-1.5-.67-.49-1.14-.49-.85.16-1.14.49-.43.83-.43 1.5.14 1.17.43 1.51c.28.33.67.5 1.15.5Zm4.6-3.38v-1.66h1.68V76zm0 4.4v-1.67h1.68v1.67zm6.23.13c-1.06 0-1.89-.37-2.47-1.1-.58-.74-.87-1.77-.87-3.1 0-.96.15-1.77.44-2.44s.72-1.18 1.27-1.53 1.21-.53 1.97-.53c.46 0 .91.08 1.36.25.45.16.83.4 1.15.7l-.52 1.15c-.3-.27-.62-.47-.96-.61-.34-.13-.69-.2-1.04-.2-.72 0-1.27.24-1.64.73s-.56 1.22-.56 2.18v.9h-.14c.06-.41.2-.76.41-1.05s.48-.52.8-.67c.33-.16.69-.23 1.09-.23.5 0 .94.12 1.32.35s.69.55.91.96.33.88.33 1.4-.12 1.03-.37 1.46-.58.76-1 1.01c-.42.24-.92.37-1.48.37m-.08-1.22c.3 0 .56-.06.78-.19s.4-.31.52-.55.19-.51.19-.81-.06-.58-.19-.82c-.12-.23-.3-.41-.52-.55-.22-.13-.48-.2-.78-.2s-.56.07-.78.2-.4.31-.53.55c-.13.23-.19.5-.19.82s.06.57.19.81.3.42.53.55c.22.13.48.19.78.19m7.36 1.27-.47-1.18c.26-.1.49-.22.67-.38s.32-.36.43-.6.19-.55.23-.91.07-.8.07-1.3v-1.86h4.82v6.06h-1.49V75.5h-1.97v.76q0 1.305-.24 2.19c-.16.59-.41 1.05-.74 1.4s-.78.59-1.32.73Zm7.46-.17v-6.06h1.36v4.58h-.36l3.44-4.58h1.24v6.06h-1.36v-4.6h.37l-3.46 4.6h-1.24Zm10.21.12c-.62 0-1.17-.13-1.64-.38-.47-.26-.83-.62-1.09-1.1s-.38-1.04-.38-1.7.13-1.22.39-1.68.62-.82 1.09-1.07c.46-.25 1.01-.37 1.63-.37.4 0 .79.06 1.17.19s.69.3.93.53l-.46 1.04c-.22-.2-.46-.35-.73-.45s-.53-.15-.79-.15c-.54 0-.95.17-1.25.5s-.45.82-.45 1.46.15 1.13.45 1.48c.3.34.72.52 1.25.52.25 0 .51-.05.77-.14.27-.1.51-.24.74-.44l.46 1.03c-.25.23-.56.41-.94.54s-.77.19-1.16.19Zm4.7-.12v-4.88h-2.08v-1.18h5.65v1.18h-2.09v4.88h-1.49Zm7.22.12c-.62 0-1.16-.13-1.62-.38s-.81-.62-1.06-1.09-.38-1.03-.38-1.68.13-1.21.38-1.67.61-.83 1.06-1.09 1-.38 1.62-.38 1.17.13 1.63.38.82.62 1.07 1.09.38 1.03.38 1.67-.13 1.21-.38 1.68-.61.84-1.07 1.09-1 .38-1.63.38m0-1.15c.47 0 .85-.17 1.13-.5s.42-.83.42-1.51-.14-1.17-.42-1.5-.66-.49-1.13-.49-.85.16-1.13.49q-.42.495-.42 1.5c0 1.005.14 1.17.42 1.51s.66.5 1.13.5m4.49 1.03v-6.06H418c.76 0 1.32.14 1.67.41.35.28.53.67.53 1.17 0 .38-.13.7-.38.96s-.6.42-1.02.48v-.17c.52.03.92.18 1.2.46.28.27.42.62.42 1.06 0 .52-.2.93-.6 1.24-.4.3-.97.46-1.7.46h-3.34Zm1.39-3.55h1.66c.32 0 .57-.07.74-.21.18-.14.26-.34.26-.59s-.09-.45-.26-.59c-.18-.14-.42-.2-.74-.2h-1.66v1.6Zm0 2.63h1.79c.35 0 .62-.07.81-.22.19-.14.28-.36.28-.64s-.09-.49-.28-.64c-.19-.14-.46-.22-.81-.22h-1.79v1.7Zm6.08 2.51-.61-.48c.26-.26.43-.51.53-.74s.15-.47.15-.73l.32.35h-1.13v-1.67h1.68v1.1c0 .41-.07.78-.21 1.12s-.39.69-.74 1.04Zm9.16-1.59v-1.66h-3.78v-1.08l4.02-5.72h1.25v5.63h1.21v1.18h-1.21v1.66h-1.49Zm0-2.83v-3.8h.29l-2.92 4.16v-.36zm5.99 2.36v-2.45h-2.41v-1.06h2.41v-2.39h1.09v2.39h2.4v1.06h-2.4v2.45zm8.41.47v-1.66h-3.78v-1.08l4.02-5.72h1.25v5.63h1.21v1.18h-1.21v1.66h-1.49Zm0-2.83v-3.8h.29l-2.92 4.16v-.36zm27.98-10.17v-8.46h1.52v3.6h1.44l-.31.2 2.5-3.8h1.7l-2.78 4.09-.59-.43c.54.08 1 .27 1.36.56s.68.7.95 1.23l1.5 3.01h-1.67l-1.16-2.44c-.2-.42-.44-.72-.71-.9s-.63-.26-1.05-.26h-1.18v3.6zm8.28 0v-8.46h1.55v3.53h4.33v-3.53h1.55v8.46h-1.55v-3.65h-4.33v3.65zm13.5-1.03-1.57-2.18 1.57-2.18h1.25l-1.48 2.18 1.48 2.18zm2.5 0-1.57-2.18 1.57-2.18h1.25l-1.48 2.18 1.48 2.18zm1.78 3.01V66.2h.88c.4-.48.7-1.14.89-1.97s.29-1.86.29-3.07v-2.21h6.13v7.25h1.24v3.19h-1.34v-1.98h-6.72v1.98h-1.36Zm2.42-3.19h4.22v-6.05h-3.18v1.15c0 1.16-.09 2.14-.26 2.93s-.43 1.45-.79 1.97Zm10.91 1.33c-.62 0-1.16-.13-1.62-.38s-.81-.62-1.06-1.09-.38-1.03-.38-1.68.13-1.21.38-1.67.61-.83 1.06-1.09 1-.38 1.62-.38 1.17.13 1.63.38c.46.26.82.62 1.07 1.09s.38 1.03.38 1.67-.13 1.21-.38 1.68-.61.84-1.07 1.09c-.46.26-1 .38-1.63.38m0-1.15c.47 0 .85-.17 1.13-.5s.42-.83.42-1.51-.14-1.17-.42-1.5-.66-.49-1.13-.49-.85.16-1.13.49q-.42.495-.42 1.5c0 1.005.14 1.17.42 1.51.28.33.66.5 1.13.5m4.49 1.03v-6.06h1.25l2.09 3.62 2.09-3.62h1.25v6.06h-1.32v-4.38h.28l-1.94 3.4h-.7l-1.94-3.4h.28v4.38h-1.32Zm8.38 0v-6.06h1.36v4.58h-.36l3.44-4.58h1.24v6.06h-1.36v-4.6h.37l-3.46 4.6h-1.24Zm7.38 0v-6.06h1.49v2.38h.91l1.78-2.38h1.61l-2.23 3.02-.32-.47c.22.02.42.08.59.18s.34.23.49.4c.16.17.31.39.46.65l1.27 2.27h-1.6l-1.03-1.82c-.1-.18-.21-.33-.31-.43s-.22-.18-.35-.22-.28-.06-.47-.06h-.8v2.53h-1.49Zm7.6-1.03h-1.25l1.48-2.18-1.48-2.18h1.26l1.56 2.18zm2.5 0h-1.25l1.48-2.18-1.48-2.18h1.26l1.56 2.18zm6 1.03v-6.06h5.68v6.06h-1.49V62.5h-2.7v4.91zm10.36.12c-1.02 0-1.81-.28-2.39-.84s-.86-1.33-.86-2.3c0-.63.12-1.18.37-1.66.25-.47.59-.84 1.04-1.1.44-.26.96-.4 1.55-.4s1.07.12 1.46.37.69.6.89 1.04.31.97.31 1.57v.4h-4.42v-.79h3.35l-.21.17c0-.56-.12-.99-.35-1.28-.24-.3-.58-.44-1.03-.44-.5 0-.88.18-1.15.53s-.4.84-.4 1.48v.16c0 .66.16 1.15.49 1.47.32.32.78.49 1.37.49.34 0 .67-.05.97-.14s.59-.24.86-.45l.44 1.01c-.29.23-.63.41-1.03.54s-.82.19-1.27.19Zm3.81 2.47v-7.14c0-.25 0-.5-.02-.76s-.04-.51-.07-.76h1.45l.13 1.27h-.13c.12-.42.37-.76.76-1.01s.84-.38 1.35-.38 1 .13 1.4.38.71.61.94 1.08.34 1.03.34 1.69-.11 1.22-.34 1.69-.54.83-.94 1.09c-.4.25-.87.38-1.4.38-.5 0-.95-.12-1.33-.37s-.64-.58-.77-1h.13V70zm3.05-3.62c.48 0 .86-.17 1.15-.5s.43-.83.43-1.51-.14-1.17-.43-1.5-.67-.49-1.15-.49-.85.16-1.14.49-.43.83-.43 1.5.14 1.17.43 1.51.67.5 1.14.5m7.49 1.15c-1.02 0-1.81-.28-2.39-.84s-.86-1.33-.86-2.3c0-.63.12-1.18.37-1.66s.59-.84 1.04-1.1c.44-.26.96-.4 1.55-.4s1.07.12 1.46.37.69.6.89 1.04c.2.45.31.97.31 1.57v.4h-4.42v-.79h3.35l-.2.17c0-.56-.12-.99-.35-1.28-.24-.3-.58-.44-1.03-.44-.5 0-.88.18-1.15.53s-.4.84-.4 1.48v.16c0 .66.16 1.15.49 1.47s.78.49 1.37.49c.34 0 .67-.05.97-.14s.59-.24.86-.45l.44 1.01c-.29.23-.63.41-1.03.54s-.82.19-1.27.19Zm3.76-.12v-6.06h1.49v2.38h.91l1.78-2.38h1.61l-2.23 3.02-.32-.47c.22.02.42.08.59.18s.34.23.49.4.31.39.46.65l1.27 2.27h-1.6l-1.03-1.82c-.1-.18-.21-.33-.31-.43s-.22-.18-.35-.22-.28-.06-.47-.06h-.8v2.53h-1.49Zm6.84 0v-6.06h1.36v4.58h-.36l3.44-4.58h1.24v6.06h-1.36v-4.6h.37l-3.46 4.6h-1.24Zm6.85 1.56v-2.7h.7c.24-.38.41-.82.52-1.33s.16-1.13.16-1.87v-1.73h4.67v4.92h.98v2.7h-1.27V67.4h-4.49v1.56h-1.27Zm2.04-2.69h2.6v-3.8h-1.99v.94c0 .54-.05 1.06-.16 1.57-.1.51-.26.94-.46 1.3Zm6.09 1.13v-6.06h1.49v2.38h2.74v-2.38h1.49v6.06h-1.49v-2.53h-2.74v2.53zm10.2.12c-.62 0-1.16-.13-1.62-.38s-.81-.62-1.06-1.09-.38-1.03-.38-1.68.13-1.21.38-1.67.61-.83 1.06-1.09 1-.38 1.62-.38 1.17.13 1.63.38.82.62 1.07 1.09.38 1.03.38 1.67-.13 1.21-.38 1.68-.61.84-1.07 1.09-1 .38-1.63.38m0-1.15c.47 0 .85-.17 1.13-.5s.42-.83.42-1.51-.14-1.17-.42-1.5-.66-.49-1.13-.49-.85.16-1.13.49q-.42.495-.42 1.5c0 1.005.14 1.17.42 1.51s.66.5 1.13.5m4.49 1.03v-6.06h1.36v4.58h-.36l3.44-4.58h1.24v6.06h-1.36v-4.6h.37l-3.46 4.6h-1.24Zm2.83-6.61c-.4 0-.75-.07-1.06-.2s-.56-.32-.76-.56-.34-.53-.43-.87l.77-.26c.14.37.32.64.56.81s.55.26.92.26.68-.08.92-.25.44-.44.59-.8l.73.25c-.17.54-.45.94-.83 1.22-.39.28-.86.41-1.42.41ZM489.31 80.53c-.62 0-1.17-.13-1.64-.38-.47-.26-.83-.62-1.09-1.1s-.38-1.04-.38-1.7.13-1.22.39-1.68.62-.82 1.09-1.07c.46-.25 1.01-.37 1.63-.37.4 0 .79.06 1.17.19s.69.3.93.53l-.46 1.04c-.22-.2-.46-.35-.73-.45s-.53-.15-.79-.15c-.54 0-.95.17-1.25.5s-.45.82-.45 1.46.15 1.13.45 1.48c.3.34.72.52 1.25.52.25 0 .51-.05.77-.14.27-.1.51-.24.74-.44l.46 1.03c-.25.23-.56.41-.94.54s-.77.19-1.16.19Zm6.36 0c-1.02 0-1.81-.28-2.39-.84s-.86-1.33-.86-2.3c0-.63.12-1.18.37-1.66.25-.47.59-.84 1.04-1.1.44-.26.96-.4 1.55-.4s1.07.12 1.46.37.69.6.89 1.04.31.97.31 1.57v.4h-4.42v-.79h3.35l-.2.17c0-.56-.12-.99-.35-1.28-.24-.3-.58-.44-1.03-.44-.5 0-.88.18-1.15.53s-.4.84-.4 1.48v.16c0 .66.16 1.15.49 1.47.32.32.78.49 1.37.49.34 0 .67-.05.97-.14s.59-.24.86-.45l.44 1.01c-.29.23-.63.41-1.03.54s-.82.19-1.27.19Zm5.08-.12v-4.88h-2.08v-1.18h5.65v1.18h-2.09v4.88h-1.49Zm4.5 0v-6.06h1.49v2.38h.91l1.78-2.38h1.61l-2.23 3.02-.32-.47c.22.02.42.08.59.18s.34.23.49.4c.16.17.31.39.46.65l1.27 2.27h-1.6l-1.03-1.82c-.1-.18-.21-.33-.31-.43s-.22-.18-.35-.22-.28-.06-.47-.06h-.8v2.53h-1.49Zm9.23.12c-.53 0-.99-.13-1.39-.38s-.71-.61-.94-1.09c-.22-.47-.34-1.04-.34-1.69s.11-1.22.34-1.69c.22-.47.54-.83.94-1.08s.86-.38 1.39-.38.96.13 1.35.38.65.59.77 1.01h-.13l.13-1.27h1.44c-.02.25-.05.5-.07.76s-.03.51-.03.76v4.55h-1.49v-1.25h.13c-.13.42-.39.75-.78 1s-.84.37-1.33.37Zm.42-1.15c.47 0 .85-.17 1.14-.5s.43-.83.43-1.51-.14-1.17-.43-1.5-.67-.49-1.14-.49-.85.16-1.14.49-.43.83-.43 1.5.14 1.17.43 1.51c.28.33.67.5 1.15.5Zm4.59-3.38v-1.66h1.68V76zm0 4.4v-1.67h1.68v1.67zm3.66.01v-1.28h1.94v-5.88h.74l-2.5 1.49v-1.46l2.2-1.32h1.1v7.18h1.82v1.28h-5.32Zm6.8 0v-1.14l2.81-2.93q.525-.555.78-1.02c.17-.31.25-.63.25-.96 0-.41-.13-.72-.38-.92-.26-.21-.63-.31-1.12-.31-.39 0-.77.07-1.13.21s-.71.36-1.06.65l-.5-1.15c.34-.3.77-.55 1.28-.73s1.04-.28 1.6-.28c.91 0 1.61.2 2.1.61s.73.99.73 1.75c0 .53-.12 1.03-.37 1.51s-.63.97-1.15 1.49l-2.34 2.34v-.41h4.2v1.28h-5.7Zm10.25.17-.47-1.18c.26-.1.49-.22.67-.38s.32-.36.43-.6.19-.55.23-.91.07-.8.07-1.3v-1.86h4.82v6.06h-1.49V75.5h-1.97v.76q0 1.305-.24 2.19c-.16.59-.41 1.05-.74 1.4s-.78.59-1.32.73Zm7.47-.17v-6.06h1.36v4.58h-.36l3.44-4.58h1.24v6.06h-1.36v-4.6h.37l-3.46 4.6h-1.24Zm10.21.12c-.62 0-1.17-.13-1.64-.38-.47-.26-.83-.62-1.09-1.1s-.38-1.04-.38-1.7.13-1.22.39-1.68.62-.82 1.09-1.07c.46-.25 1.01-.37 1.63-.37.4 0 .79.06 1.17.19s.69.3.93.53l-.46 1.04c-.22-.2-.46-.35-.73-.45s-.53-.15-.79-.15c-.54 0-.95.17-1.25.5s-.45.82-.45 1.46.15 1.13.45 1.48c.3.34.72.52 1.25.52.25 0 .51-.05.77-.14.27-.1.51-.24.74-.44l.46 1.03c-.25.23-.56.41-.94.54s-.77.19-1.16.19Zm4.69-.12v-4.88h-2.08v-1.18h5.65v1.18h-2.09v4.88h-1.49Zm7.22.12c-.62 0-1.16-.13-1.62-.38s-.81-.62-1.06-1.09-.38-1.03-.38-1.68.13-1.21.38-1.67.61-.83 1.06-1.09 1-.38 1.62-.38 1.17.13 1.63.38.82.62 1.07 1.09.38 1.03.38 1.67-.13 1.21-.38 1.68-.61.84-1.07 1.09-1 .38-1.63.38m0-1.15c.47 0 .85-.17 1.13-.5s.42-.83.42-1.51-.14-1.17-.42-1.5-.66-.49-1.13-.49-.85.16-1.13.49q-.42.495-.42 1.5c0 1.005.14 1.17.42 1.51s.66.5 1.13.5m4.49 1.03v-6.06h3.23c.76 0 1.32.14 1.67.41.35.28.53.67.53 1.17 0 .38-.13.7-.38.96s-.6.42-1.02.48v-.17c.52.03.92.18 1.2.46.28.27.42.62.42 1.06 0 .52-.2.93-.6 1.24-.4.3-.97.46-1.7.46h-3.34Zm1.39-3.55h1.66c.32 0 .57-.07.74-.21.18-.14.26-.34.26-.59s-.09-.45-.26-.59c-.18-.14-.42-.2-.74-.2h-1.66v1.6Zm0 2.63h1.79c.35 0 .62-.07.81-.22.19-.14.28-.36.28-.64s-.09-.49-.28-.64c-.19-.14-.46-.22-.81-.22h-1.79v1.7Zm6.09 2.51-.61-.48c.26-.26.43-.51.53-.74s.15-.47.15-.73l.32.35h-1.13v-1.67h1.68v1.1c0 .41-.07.78-.21 1.12s-.39.69-.74 1.04Zm9.15-1.59v-1.66h-3.78v-1.08l4.02-5.72h1.25v5.63h1.21v1.18h-1.21v1.66h-1.49Zm0-2.83v-3.8h.29l-2.92 4.16v-.36zm5.99 2.36v-2.45h-2.41v-1.06h2.41v-2.39h1.09v2.39h2.4v1.06h-2.4v2.45zm7.74.59c-.99 0-1.76-.38-2.29-1.13s-.8-1.83-.8-3.23.27-2.49.8-3.23 1.3-1.1 2.29-1.1 1.77.37 2.3 1.1c.53.74.8 1.81.8 3.22s-.27 2.49-.8 3.25-1.3 1.13-2.3 1.13Zm0-1.27c.54 0 .95-.25 1.21-.75s.4-1.29.4-2.36-.13-1.85-.4-2.33c-.26-.48-.67-.73-1.21-.73s-.94.24-1.21.73c-.27.48-.4 1.26-.4 2.33s.13 1.86.4 2.36.67.75 1.21.75m-234.97 39.67v-1.39h2.62v-8.48h.83l-3.2 1.95v-1.6l2.83-1.76h1.2v9.89h2.46v1.39h-6.75Zm9.28 0 5.54-10.51v.64h-6.18v-1.41h7.68v1.23l-5.22 10.05zm9.6 0 5.54-10.51v.64h-6.18v-1.41h7.68v1.23l-5.22 10.05zm13.55 3.46v-9.58c0-.31-.01-.63-.04-.95l-.09-.98h1.57l.16 1.82h-.18c.17-.61.51-1.09 1.03-1.44s1.13-.53 1.85-.53 1.34.17 1.87.5.95.81 1.24 1.43.44 1.37.44 2.24-.15 1.61-.44 2.24-.71 1.11-1.24 1.44-1.16.5-1.87.5-1.31-.17-1.83-.52-.86-.82-1.03-1.42h.18v5.25zm3.9-4.58c.7 0 1.27-.25 1.69-.74s.63-1.22.63-2.18-.21-1.68-.63-2.17-.98-.73-1.69-.73-1.27.24-1.69.73-.63 1.21-.63 2.17.21 1.69.63 2.18.98.74 1.69.74m5.45 1.12v-1.9h1.9v1.9zm-41.78 47.39v-1.39h2.62v-8.48h.83l-3.2 1.95v-1.6l2.83-1.76h1.2v9.89h2.46v1.39h-6.75Zm12.64.15a6.5 6.5 0 0 1-2.8-.62c-.42-.2-.78-.43-1.09-.71l.58-1.26c.51.39 1.04.69 1.58.89s1.11.3 1.7.3c.76 0 1.35-.2 1.78-.59s.65-.92.65-1.58-.21-1.23-.62-1.66c-.41-.42-.98-.63-1.7-.63-.5 0-.96.1-1.37.3q-.615.3-1.08.93h-1.15v-6.78h6.83v1.39h-5.25v4.06h-.42c.29-.41.67-.72 1.16-.94a3.9 3.9 0 0 1 1.64-.34c.73 0 1.35.15 1.89.45s.95.71 1.24 1.25c.29.53.44 1.16.44 1.89s-.16 1.36-.49 1.91a3.4 3.4 0 0 1-1.39 1.29c-.6.31-1.31.46-2.14.46Zm5.97-.15v-1.23l3.87-4.05c.5-.52.87-1.01 1.12-1.47s.37-.93.37-1.42q0-.915-.57-1.38c-.38-.31-.93-.46-1.64-.46q-.855 0-1.59.3c-.5.2-.97.51-1.43.93l-.58-1.26c.45-.42 1.01-.75 1.67-1a6 6 0 0 1 2.12-.38c1.17 0 2.08.27 2.71.8s.95 1.3.95 2.29c0 .7-.17 1.38-.51 2.02-.34.65-.85 1.31-1.54 1.99l-3.34 3.38v-.45h5.86v1.39zm13.82 3.46v-9.58c0-.31-.01-.63-.04-.95l-.09-.98h1.57l.16 1.82h-.18c.17-.61.51-1.09 1.03-1.44s1.13-.53 1.85-.53 1.34.17 1.87.5.95.81 1.24 1.43.44 1.37.44 2.24-.15 1.61-.44 2.24-.71 1.11-1.24 1.44-1.16.5-1.87.5-1.31-.17-1.83-.52-.86-.82-1.03-1.42h.18v5.25zm3.9-4.58c.7 0 1.27-.25 1.69-.74s.63-1.22.63-2.18-.21-1.68-.63-2.17-.98-.73-1.69-.73-1.27.24-1.69.73-.63 1.21-.63 2.17.21 1.69.63 2.18.98.74 1.69.74m5.45 1.12v-1.9h1.9v1.9zm-41.78 45v-1.39h2.62v-8.48h.83l-3.2 1.95v-1.6l2.83-1.76h1.2v9.89h2.46v1.39h-6.75Zm13.63 0v-2.34h-5.22v-1.18l5.49-7.76h1.34v7.65h1.68v1.3h-1.68v2.34h-1.62Zm0-3.63v-5.68h.37l-4.29 6.08v-.4zm8.34 3.78c-.77 0-1.5-.11-2.21-.34s-1.29-.56-1.76-.98l.58-1.26c.52.41 1.06.7 1.6.9.54.19 1.13.29 1.74.29.79 0 1.39-.17 1.8-.5s.62-.81.62-1.42-.21-1.07-.62-1.38-1.02-.47-1.82-.47h-1.74v-1.34h1.62c.68 0 1.23-.17 1.63-.52s.61-.82.61-1.42c0-.54-.19-.96-.56-1.26-.37-.29-.91-.44-1.6-.44q-1.755 0-3.09 1.23l-.56-1.26c.44-.44.99-.78 1.66-1.02s1.38-.36 2.11-.36q1.695 0 2.67.78c.65.52.98 1.24.98 2.15 0 .69-.19 1.29-.58 1.78s-.92.82-1.59.98v-.18c.8.13 1.42.45 1.85.95.43.51.65 1.14.65 1.9 0 1-.35 1.79-1.06 2.36s-1.68.86-2.92.86Zm10.46 3.31v-9.58c0-.31-.01-.63-.04-.95l-.09-.98h1.57l.16 1.82h-.18c.17-.61.51-1.09 1.03-1.44s1.13-.53 1.85-.53 1.34.17 1.87.5.95.81 1.24 1.43.44 1.37.44 2.24-.15 1.61-.44 2.24-.71 1.11-1.24 1.44-1.16.5-1.87.5-1.31-.17-1.83-.52-.86-.82-1.03-1.42h.18v5.25zm3.9-4.58c.7 0 1.27-.25 1.69-.74s.63-1.22.63-2.18-.21-1.68-.63-2.17-.98-.73-1.69-.73-1.27.24-1.69.73-.63 1.21-.63 2.17.21 1.69.63 2.18.98.74 1.69.74m5.45 1.12v-1.9h1.9v1.9zm113.54-92.39v-1.23l3.87-4.05c.5-.52.87-1.01 1.12-1.47s.37-.93.37-1.42q0-.915-.57-1.38c-.38-.31-.93-.46-1.64-.46q-.855 0-1.59.3c-.5.2-.97.51-1.43.93l-.58-1.26c.45-.42 1.01-.75 1.67-1a6 6 0 0 1 2.12-.38c1.17 0 2.08.27 2.71.8s.95 1.3.95 2.29c0 .7-.17 1.38-.51 2.02-.34.65-.85 1.31-1.54 1.99l-3.34 3.38v-.45h5.86v1.39zm12.27.14c-.6 0-1.19-.12-1.79-.36s-1.1-.56-1.5-.95l.59-1.26c.39.38.83.67 1.3.87s.94.3 1.42.3c1.02 0 1.81-.36 2.36-1.08s.82-1.79.82-3.22v-1.36h.16a3.2 3.2 0 0 1-.54 1.49c-.3.43-.67.75-1.13.98-.45.22-.96.34-1.53.34-.66 0-1.26-.16-1.78-.46-.53-.31-.94-.74-1.23-1.28s-.44-1.16-.44-1.84c0-.73.16-1.37.48-1.93s.76-1 1.31-1.31 1.19-.47 1.92-.47c1.41 0 2.49.48 3.24 1.45s1.13 2.33 1.13 4.09c0 1.29-.19 2.38-.57 3.28s-.93 1.58-1.64 2.05-1.57.7-2.58.7Zm.53-5.63c.45 0 .84-.1 1.18-.29s.61-.46.8-.81.29-.74.29-1.19-.1-.86-.29-1.21-.46-.62-.8-.82-.74-.3-1.18-.3-.84.1-1.18.3-.6.47-.79.82-.29.75-.29 1.21.1.85.29 1.19.46.62.79.81c.34.19.73.29 1.18.29m9.87 5.63c-1.3 0-2.31-.28-3.04-.83s-1.09-1.33-1.09-2.32c0-.79.24-1.44.72-1.96s1.11-.83 1.89-.94v.29c-.7-.15-1.27-.47-1.69-.98-.42-.5-.63-1.11-.63-1.82 0-.94.34-1.67 1.02-2.21s1.62-.8 2.82-.8 2.15.27 2.83.8 1.02 1.27 1.02 2.21c0 .71-.2 1.33-.6 1.83-.4.51-.95.82-1.64.95v-.27c.77.11 1.38.42 1.84.94s.69 1.17.69 1.96c0 .99-.36 1.76-1.09 2.32-.73.55-1.74.83-3.06.83Zm0-1.31c.86 0 1.51-.16 1.94-.49s.64-.81.64-1.46-.21-1.14-.64-1.46-1.07-.48-1.94-.48-1.51.16-1.94.48-.64.81-.64 1.46.22 1.14.65 1.46 1.07.49 1.93.49m0-5.2c.75 0 1.31-.17 1.7-.5.39-.34.58-.8.58-1.38s-.19-1.03-.58-1.36-.96-.5-1.7-.5-1.3.17-1.7.5c-.39.33-.59.78-.59 1.36s.2 1.05.59 1.38.96.5 1.7.5m10.35 9.83v-9.58c0-.31-.01-.63-.04-.95l-.09-.98h1.57l.16 1.82h-.18c.17-.61.51-1.09 1.03-1.44s1.13-.53 1.85-.53 1.34.17 1.87.5.95.81 1.24 1.43.44 1.37.44 2.24-.15 1.61-.44 2.24-.71 1.11-1.24 1.44-1.16.5-1.87.5-1.31-.17-1.83-.52-.86-.82-1.03-1.42h.18v5.25zm3.9-4.58c.7 0 1.27-.25 1.69-.74s.63-1.22.63-2.18-.21-1.68-.63-2.17-.98-.73-1.69-.73-1.27.24-1.69.73-.63 1.21-.63 2.17.21 1.69.63 2.18.98.74 1.69.74m5.45 1.12v-1.9h1.9v1.9zm-49.07 47.39v-1.23l3.87-4.05c.5-.52.87-1.01 1.12-1.47s.37-.93.37-1.42q0-.915-.57-1.38c-.38-.31-.93-.46-1.64-.46q-.855 0-1.59.3c-.5.2-.97.51-1.43.93l-.58-1.26c.45-.42 1.01-.75 1.67-1a6 6 0 0 1 2.12-.38c1.17 0 2.08.27 2.71.8s.95 1.3.95 2.29c0 .7-.17 1.38-.51 2.02-.34.65-.85 1.31-1.54 1.99l-3.34 3.38v-.45h5.86v1.39zm9.88 0 5.54-10.51v.64h-6.18v-1.41h7.68v1.23l-5.22 10.05zm12.8.15q-1.95 0-3-1.5c-.7-1-1.05-2.43-1.05-4.3s.35-3.34 1.05-4.31c.7-.98 1.7-1.46 3-1.46s2.31.49 3.01 1.46c.69.98 1.04 2.41 1.04 4.3s-.35 3.31-1.05 4.31q-1.05 1.5-3 1.5m0-1.39c.82 0 1.43-.36 1.83-1.07s.6-1.83.6-3.34-.2-2.64-.6-3.34q-.6-1.05-1.83-1.05c-1.23 0-1.42.35-1.82 1.05-.41.7-.61 1.81-.61 3.32s.21 2.65.62 3.36 1.02 1.07 1.82 1.07Zm6.56 3.21-.7-.54c.31-.33.52-.63.63-.91s.17-.57.17-.86l.35.35h-1.26v-1.9h1.9v1.3c0 .48-.08.93-.24 1.34s-.44.82-.85 1.24Zm6.99-1.82a6.5 6.5 0 0 1-2.8-.62c-.42-.2-.78-.43-1.09-.71l.58-1.26c.51.39 1.04.69 1.58.89s1.11.3 1.7.3c.76 0 1.35-.2 1.78-.59s.65-.92.65-1.58-.21-1.23-.62-1.66c-.41-.42-.98-.63-1.7-.63-.5 0-.96.1-1.37.3q-.615.3-1.08.93H551v-6.78h6.83v1.39h-5.25v4.06h-.42c.29-.41.67-.72 1.16-.94a3.9 3.9 0 0 1 1.64-.34c.73 0 1.35.15 1.89.45s.95.71 1.24 1.25c.29.53.44 1.16.44 1.89s-.16 1.36-.49 1.91a3.4 3.4 0 0 1-1.39 1.29c-.6.31-1.31.46-2.14.46Zm10.19 3.31v-9.58c0-.31-.01-.63-.04-.95l-.09-.98h1.57l.16 1.82h-.18c.17-.61.51-1.09 1.03-1.44s1.13-.53 1.85-.53 1.34.17 1.87.5.95.81 1.24 1.43.44 1.37.44 2.24-.15 1.61-.44 2.24-.71 1.11-1.24 1.44-1.16.5-1.87.5-1.31-.17-1.83-.52-.86-.82-1.03-1.42h.18v5.25zm3.9-4.58c.7 0 1.27-.25 1.69-.74s.63-1.22.63-2.18-.21-1.68-.63-2.17-.98-.73-1.69-.73-1.27.24-1.69.73-.63 1.21-.63 2.17.21 1.69.63 2.18.98.74 1.69.74m5.44 1.12v-1.9h1.9v1.9zm-49.06 45v-1.23l3.87-4.05c.5-.52.87-1.01 1.12-1.47s.37-.93.37-1.42q0-.915-.57-1.38c-.38-.31-.93-.46-1.64-.46q-.855 0-1.59.3c-.5.2-.97.51-1.43.93l-.58-1.26c.45-.42 1.01-.75 1.67-1a6 6 0 0 1 2.12-.38c1.17 0 2.08.27 2.71.8s.95 1.3.95 2.29c0 .7-.17 1.38-.51 2.02-.34.65-.85 1.31-1.54 1.99l-3.34 3.38v-.45h5.86v1.39zm12.96.15c-.77 0-1.5-.11-2.21-.34s-1.29-.56-1.76-.98l.58-1.26c.52.41 1.06.7 1.6.9.54.19 1.13.29 1.74.29.79 0 1.39-.17 1.8-.5s.62-.81.62-1.42-.21-1.07-.62-1.38-1.02-.47-1.82-.47h-1.74v-1.34h1.62c.68 0 1.23-.17 1.63-.52s.61-.82.61-1.42c0-.54-.19-.96-.56-1.26-.37-.29-.91-.44-1.6-.44q-1.755 0-3.09 1.23l-.56-1.26c.44-.44.99-.78 1.66-1.02s1.38-.36 2.11-.36q1.695 0 2.67.78c.65.52.98 1.24.98 2.15 0 .69-.19 1.29-.58 1.78s-.92.82-1.59.98v-.18c.8.13 1.42.45 1.85.95.43.51.65 1.14.65 1.9 0 1-.35 1.79-1.06 2.36s-1.68.86-2.92.86Zm6.51-.15 5.54-10.51v.64h-6.18v-1.41h7.68v1.23l-5.22 10.05zm13.55 3.46v-9.58c0-.31-.01-.63-.04-.95l-.09-.98h1.57l.16 1.82h-.18c.17-.61.51-1.09 1.03-1.44s1.13-.53 1.85-.53 1.34.17 1.87.5.95.81 1.24 1.43.44 1.37.44 2.24-.15 1.61-.44 2.24-.71 1.11-1.24 1.44-1.16.5-1.87.5-1.31-.17-1.83-.52-.86-.82-1.03-1.42h.18v5.25zm3.9-4.58c.7 0 1.27-.25 1.69-.74s.63-1.22.63-2.18-.21-1.68-.63-2.17-.98-.73-1.69-.73-1.27.24-1.69.73-.63 1.21-.63 2.17.21 1.69.63 2.18.98.74 1.69.74m5.45 1.12v-1.9h1.9v1.9zm83.58-143.86c0-1.18.22-2.21.65-3.07q.645-1.29 1.86-2.01c.81-.47 1.78-.71 2.9-.71s2.07.24 2.88.71 1.44 1.14 1.88 2.01q.66 1.29.66 3.06c0 1.77-.22 2.21-.66 3.08s-1.07 1.54-1.88 2.02q-1.215.72-2.88.72c-1.665 0-2.08-.24-2.89-.72a4.7 4.7 0 0 1-1.86-2.02q-.66-1.305-.66-3.06Zm2.16 0c0 1.27.27 2.26.82 2.98s1.35 1.07 2.43 1.07 1.85-.36 2.42-1.07c.56-.71.85-1.71.85-2.98s-.28-2.27-.84-2.98-1.37-1.06-2.42-1.06-1.89.35-2.43 1.06-.82 1.7-.82 2.98Zm15.44 9.1v-5.02h.18c-.17.55-.46.98-.86 1.28s-.88.45-1.45.45-1.11-.17-1.56-.52-.81-.83-1.06-1.46c-.26-.63-.38-1.37-.38-2.22s.13-1.61.38-2.23.6-1.11 1.06-1.45c.45-.34.98-.51 1.58-.51.57 0 1.05.15 1.45.45s.69.72.86 1.26h-.18v-5.25h1.98v5.25h-.18c.17-.54.46-.96.86-1.26s.88-.45 1.45-.45c.6 0 1.12.17 1.58.51.45.34.81.82 1.06 1.45s.38 1.37.38 2.23-.13 1.59-.38 2.22-.6 1.12-1.06 1.46c-.45.35-.98.52-1.58.52-.55 0-1.03-.15-1.43-.45s-.69-.73-.87-1.28h.18v5.02h-1.98Zm-1.55-4.8c.49 0 .88-.22 1.16-.67s.42-1.12.42-2.03-.14-1.57-.43-2.02-.67-.68-1.15-.68-.88.23-1.17.68-.43 1.13-.43 2.02.14 1.58.43 2.03.68.67 1.17.67m5.09 0c.49 0 .88-.22 1.17-.67s.43-1.12.43-2.03-.15-1.57-.44-2.02-.68-.68-1.16-.68-.88.23-1.16.68-.42 1.13-.42 2.02.14 1.58.42 2.03.67.67 1.16.67m9.25 1.5c-.83 0-1.56-.17-2.18-.51s-1.11-.83-1.45-1.46-.51-1.39-.51-2.26.17-1.62.52-2.24.83-1.09 1.45-1.42 1.34-.5 2.18-.5c.53 0 1.05.08 1.56.25s.92.4 1.24.71l-.61 1.39a2.8 2.8 0 0 0-.97-.6c-.36-.13-.71-.2-1.05-.2-.71 0-1.27.22-1.67.67q-.6.675-.6 1.95c0 1.275.2 1.51.6 1.97s.96.69 1.67.69c.33 0 .67-.06 1.03-.19s.69-.33.98-.59l.61 1.38q-.495.465-1.26.72c-.51.17-1.02.26-1.54.26Zm8.48 0c-1.35 0-2.42-.37-3.18-1.12-.77-.75-1.15-1.77-1.15-3.07 0-.84.17-1.58.5-2.21q.495-.945 1.38-1.47c.59-.35 1.28-.53 2.07-.53s1.43.17 1.95.5.92.79 1.19 1.39.41 1.3.41 2.1v.53h-5.89v-1.06h4.46l-.27.22c0-.75-.16-1.32-.47-1.71s-.77-.59-1.37-.59c-.66 0-1.17.23-1.53.7s-.54 1.12-.54 1.97v.21c0 .88.22 1.53.65 1.96s1.04.65 1.83.65q.69 0 1.29-.18t1.14-.6l.59 1.34q-.57.465-1.38.72c-.53.17-1.1.26-1.7.26Zm6.77-.16v-6.51h-2.77v-1.57h7.54v1.57h-2.78v6.51h-1.98Zm5.58 2.13-.82-.64c.34-.35.58-.68.71-.98s.2-.63.2-.97l.43.46h-1.5v-2.22h2.24v1.47c0 .54-.09 1.04-.28 1.5-.19.45-.52.91-.98 1.38m8.99-3.5-2.1-2.91 2.1-2.91h1.66l-1.97 2.91 1.97 2.91zm3.33 0-2.1-2.91 2.1-2.91h1.66l-1.97 2.91 1.97 2.91zm2.38 4.01v-4.26h1.17c.53-.64.93-1.51 1.18-2.62.26-1.11.38-2.47.38-4.1v-2.94h8.18v9.66h1.65v4.26h-1.79V73.1h-8.96v2.64zm3.23-4.26h5.63v-8.06h-4.24v1.54c0 1.55-.11 2.85-.34 3.9s-.58 1.93-1.05 2.62m14.55 1.78q-1.245 0-2.16-.51c-.61-.34-1.08-.83-1.42-1.46s-.5-1.38-.5-2.24.17-1.61.5-2.23.81-1.11 1.42-1.45q.915-.51 2.16-.51c1.245 0 1.55.17 2.17.51.61.34 1.09.82 1.42 1.45s.5 1.37.5 2.23-.17 1.61-.5 2.24c-.34.63-.81 1.12-1.42 1.46s-1.34.51-2.17.51m0-1.54q.945 0 1.5-.66c.37-.44.56-1.11.56-2.01s-.19-1.56-.56-2-.88-.66-1.5-.66-1.13.22-1.5.66-.56 1.1-.56 2 .19 1.57.56 2.01q.555.66 1.5.66m5.98 1.38v-8.08h1.66l2.78 4.83 2.78-4.83h1.66v8.08h-1.76v-5.84h.37l-2.59 4.53h-.93L742 67.26h.37v5.84h-1.76Zm11.17 0v-8.08h1.81v6.11h-.48l4.59-6.11h1.65v8.08h-1.81v-6.13h.5l-4.61 6.13zm9.84 0v-8.08h1.98v3.17h1.22l2.37-3.17h2.14l-2.98 4.03-.43-.62c.3.03.56.11.79.24s.45.31.66.54.41.52.62.87l1.7 3.02h-2.13l-1.38-2.43c-.14-.25-.28-.44-.42-.58s-.29-.24-.46-.29-.38-.08-.62-.08h-1.07v3.38h-1.98Zm10.14-1.37h-1.66l1.97-2.91-1.97-2.91h1.68l2.08 2.91zm3.33 0h-1.66l1.97-2.91-1.97-2.91h1.68l2.08 2.91zm11.78 1.53c-.83 0-1.56-.17-2.18-.51s-1.11-.83-1.45-1.46-.51-1.39-.51-2.26.17-1.62.52-2.24.83-1.09 1.45-1.42 1.34-.5 2.18-.5c.53 0 1.05.08 1.56.25s.92.4 1.24.71l-.61 1.39a2.8 2.8 0 0 0-.97-.6c-.36-.13-.71-.2-1.05-.2-.71 0-1.27.22-1.67.67q-.6.675-.6 1.95c0 1.275.2 1.51.6 1.97s.96.69 1.67.69c.33 0 .67-.06 1.03-.19s.69-.33.98-.59l.61 1.38q-.495.465-1.26.72c-.51.17-1.02.26-1.54.26Zm11.87 0c-.72 0-1.41-.09-2.04-.26s-1.17-.42-1.59-.74l.56-1.31c.39.29.86.51 1.38.66s1.08.22 1.67.22c.68 0 1.18-.09 1.5-.28s.47-.46.47-.82c0-.34-.12-.6-.37-.78s-.61-.26-1.09-.26h-2.1v-1.38h1.9c.44 0 .77-.08 1.01-.26s.35-.41.35-.72q0-.495-.42-.78c-.28-.19-.74-.29-1.38-.29-.55 0-1.06.07-1.52.2a5 5 0 0 0-1.29.58l-.54-1.25c.44-.31.97-.54 1.59-.7q.93-.24 2.04-.24c1.08 0 1.9.2 2.48.59s.87.96.87 1.68c0 .49-.17.91-.5 1.26q-.51.525-1.35.66v-.22c.66.04 1.19.24 1.57.59s.58.83.58 1.42c0 .74-.32 1.32-.97 1.76q-.975.66-2.79.66Zm8.69 0c-.7 0-1.32-.17-1.86-.5-.53-.34-.95-.82-1.25-1.45s-.45-1.38-.45-2.26.15-1.62.45-2.25.71-1.1 1.25-1.44 1.15-.5 1.86-.5 1.28.17 1.8.5.86.79 1.03 1.35h-.18l.18-1.7h1.92l-.09 1.01c-.03.34-.04.68-.04 1.01v6.06h-1.98l-.02-1.66h.19c-.17.55-.52 1-1.04 1.33s-1.11.5-1.78.5Zm.56-1.54c.63 0 1.14-.22 1.52-.66s.58-1.11.58-2.01-.19-1.56-.58-2c-.38-.44-.89-.66-1.52-.66s-1.14.22-1.52.66-.58 1.1-.58 2 .19 1.57.57 2.01q.57.66 1.53.66m6.4 1.38v-8.08h1.66l2.78 4.83 2.78-4.83h1.66v8.08h-1.76v-5.84h.37l-2.59 4.53h-.93l-2.59-4.53h.37v5.84h-1.76Zm11.16 0v-8.08h1.98v3.17h1.22l2.37-3.17h2.14l-2.98 4.03-.43-.62c.3.03.56.11.79.24q.345.195.66.54c.315.345.41.52.62.87l1.7 3.02h-2.13l-1.38-2.43c-.14-.25-.28-.44-.42-.58s-.29-.24-.46-.29-.38-.08-.62-.08h-1.07v3.38h-1.98Zm12.84.16q-1.245 0-2.16-.51c-.61-.34-1.08-.83-1.42-1.46s-.5-1.38-.5-2.24.17-1.61.5-2.23c.34-.62.81-1.11 1.42-1.45q.915-.51 2.16-.51c1.245 0 1.55.17 2.17.51.61.34 1.09.82 1.42 1.45.34.62.5 1.37.5 2.23s-.17 1.61-.5 2.24c-.34.63-.81 1.12-1.42 1.46s-1.34.51-2.17.51m0-1.54q.945 0 1.5-.66c.37-.44.56-1.11.56-2.01s-.19-1.56-.56-2q-.555-.66-1.5-.66c-.945 0-1.13.22-1.5.66s-.56 1.1-.56 2 .19 1.57.56 2.01.88.66 1.5.66m5.98 1.38v-8.08h1.66l2.78 4.83 2.78-4.83h1.66v8.08h-1.76v-5.84h.37l-2.59 4.53h-.93l-2.59-4.53h.37v5.84h-1.76Zm11.87 2.13-.82-.64c.34-.35.58-.68.71-.98s.2-.63.2-.97l.43.46h-1.5v-2.22h2.24v1.47c0 .54-.09 1.04-.28 1.5-.19.45-.51.91-.98 1.38m7.76-2.13v-1.52l3.74-3.9c.47-.49.82-.94 1.04-1.36s.34-.84.34-1.28q0-.81-.51-1.23c-.34-.28-.84-.42-1.49-.42-.52 0-1.02.09-1.5.28q-.72.285-1.41.87l-.67-1.54c.46-.41 1.03-.73 1.7-.98.68-.25 1.39-.37 2.14-.37 1.22 0 2.15.27 2.8.82s.98 1.32.98 2.34c0 .7-.17 1.37-.5 2.01-.33.63-.84 1.3-1.54 1.99l-3.12 3.12v-.54h5.6v1.71zm9.73 0 5.47-10.27v.72h-5.98v-1.73h7.89v1.54L876 73.1zm13.02.16c-1.32 0-2.34-.5-3.06-1.51s-1.07-2.45-1.07-4.31.36-3.32 1.07-4.3 1.73-1.47 3.06-1.47 2.35.49 3.06 1.47 1.06 2.41 1.06 4.29-.35 3.32-1.06 4.33-1.73 1.51-3.06 1.51Zm0-1.7c.73 0 1.26-.33 1.62-1s.53-1.71.53-3.14-.18-2.47-.53-3.11-.89-.97-1.62-.97-1.25.32-1.61.97-.54 1.68-.54 3.11.18 2.48.54 3.14c.36.67.89 1 1.61 1m10.32 1.54v-8.08h6.06v1.57h-4.06v6.51zm7.54 3.46v-9.52c0-.33-.01-.67-.03-1.01s-.05-.68-.1-1.01h1.94l.18 1.7h-.18q.24-.855 1.02-1.35c.52-.34 1.12-.5 1.8-.5s1.34.17 1.87.5c.53.34.95.82 1.25 1.44q.45.93.45 2.25c0 1.32-.15 1.63-.45 2.26s-.71 1.11-1.25 1.45c-.53.34-1.16.5-1.87.5-.67 0-1.26-.17-1.78-.5-.51-.33-.85-.77-1.02-1.33h.18v5.12h-2Zm4.06-4.83c.64 0 1.15-.22 1.54-.66s.58-1.11.58-2.01-.19-1.56-.58-2-.9-.66-1.54-.66-1.14.22-1.52.66-.58 1.1-.58 2 .19 1.57.58 2.01.89.66 1.52.66m-250.13 47.2v-11.28h2.03v4.8h1.92l-.42.27 3.33-5.07h2.27l-3.71 5.46-.78-.58c.73.11 1.33.35 1.82.74s.91.94 1.27 1.64l2 4.02h-2.22l-1.55-3.25c-.27-.57-.58-.97-.95-1.2s-.83-.35-1.4-.35h-1.57v4.8h-2.03Zm14.51.16q-1.245 0-2.16-.51c-.61-.34-1.08-.83-1.42-1.46s-.5-1.38-.5-2.24.17-1.61.5-2.23.81-1.11 1.42-1.45q.915-.51 2.16-.51c1.245 0 1.55.17 2.17.51.61.34 1.09.82 1.42 1.45s.5 1.37.5 2.23-.17 1.61-.5 2.24c-.34.63-.81 1.12-1.42 1.46s-1.34.51-2.17.51m0-1.54q.945 0 1.5-.66c.37-.44.56-1.11.56-2.01s-.19-1.56-.56-2-.88-.66-1.5-.66-1.13.22-1.5.66-.56 1.1-.56 2 .19 1.57.56 2.01q.555.66 1.5.66m5.61 1.6-.62-1.57c.35-.13.65-.3.89-.5.24-.21.43-.47.58-.8.14-.33.25-.73.31-1.22s.1-1.06.1-1.74v-2.48h6.43v8.08h-1.98v-6.54h-2.62v1.01c0 1.16-.11 2.14-.32 2.92s-.54 1.41-.99 1.86c-.45.46-1.03.78-1.76.98Zm9.96-.22v-8.08h1.81v6.11h-.48l4.59-6.11h1.65v8.08h-1.81v-6.13h.5l-4.61 6.13zm14.97 0v-2.94a4.45 4.45 0 0 1-1.94.43c-1.18 0-2.07-.28-2.65-.85s-.87-1.41-.87-2.53v-2.19h1.98v2.02c0 .68.15 1.18.45 1.48s.78.46 1.44.46c.31 0 .59-.03.83-.1.25-.06.48-.17.7-.3v-3.55h1.98v8.08h-1.94Zm8.18.16c-1.35 0-2.42-.37-3.18-1.12-.77-.75-1.15-1.77-1.15-3.07 0-.84.17-1.58.5-2.21q.495-.945 1.38-1.47c.59-.35 1.28-.53 2.07-.53s1.43.17 1.95.5.92.79 1.19 1.39.41 1.3.41 2.1v.53h-5.89v-1.06h4.46l-.27.22c0-.75-.16-1.32-.47-1.71s-.77-.59-1.37-.59c-.66 0-1.17.23-1.53.7s-.54 1.12-.54 1.97v.21c0 .88.22 1.53.65 1.96s1.04.65 1.83.65q.69 0 1.29-.18t1.14-.6l.59 1.34q-.57.465-1.38.72c-.53.17-1.1.26-1.7.26Zm8.8 0c-.83 0-1.56-.17-2.18-.51s-1.11-.83-1.45-1.46-.51-1.39-.51-2.26.17-1.62.52-2.24.83-1.09 1.45-1.42 1.34-.5 2.18-.5c.53 0 1.05.08 1.56.25s.92.4 1.24.71l-.61 1.39a2.8 2.8 0 0 0-.97-.6c-.36-.13-.71-.2-1.05-.2-.71 0-1.27.22-1.67.67q-.6.675-.6 1.95c0 1.275.2 1.51.6 1.97s.96.69 1.67.69c.33 0 .67-.06 1.03-.19s.69-.33.98-.59l.61 1.38q-.495.465-1.26.72c-.51.17-1.02.26-1.54.26Zm6.25-.16v-6.51h-2.77v-1.57h7.54v1.57h-2.78v6.51h-1.98Zm6 0v-8.08h4.3c1.01 0 1.75.18 2.22.55s.7.89.7 1.56c0 .51-.17.94-.51 1.28s-.79.55-1.36.64v-.22c.69.04 1.23.25 1.6.61s.56.83.56 1.41c0 .69-.27 1.24-.8 1.65s-1.29.61-2.27.61h-4.45Zm1.86-4.74h2.21c.43 0 .76-.09.99-.28s.35-.45.35-.79-.12-.6-.35-.78q-.36-.27-.99-.27h-2.21v2.13Zm0 3.5h2.38c.47 0 .83-.1 1.08-.29s.38-.47.38-.85-.13-.66-.38-.85-.61-.29-1.08-.29h-2.38v2.27Zm11.12 1.4q-1.245 0-2.16-.51c-.61-.34-1.08-.83-1.42-1.46s-.5-1.38-.5-2.24.17-1.61.5-2.23c.34-.62.81-1.11 1.42-1.45q.915-.51 2.16-.51c1.245 0 1.55.17 2.17.51.61.34 1.09.82 1.42 1.45.34.62.5 1.37.5 2.23s-.17 1.61-.5 2.24c-.34.63-.81 1.12-1.42 1.46s-1.34.51-2.17.51m0-1.54q.945 0 1.5-.66c.37-.44.56-1.11.56-2.01s-.19-1.56-.56-2q-.555-.66-1.5-.66c-.945 0-1.13.22-1.5.66s-.56 1.1-.56 2 .19 1.57.56 2.01.88.66 1.5.66m-51.95 51.41v-2.64h-9.71v-11.28h2.03v9.58h5.79v-9.58h2.05v9.58h1.65v4.34zm7.28-2.48c-1.35 0-2.42-.37-3.18-1.12-.77-.75-1.15-1.77-1.15-3.07 0-.84.17-1.58.5-2.21q.495-.945 1.38-1.47c.59-.35 1.28-.53 2.07-.53s1.43.17 1.95.5.92.79 1.19 1.39.41 1.3.41 2.1v.53h-5.89v-1.06h4.46l-.27.22c0-.75-.16-1.32-.47-1.71s-.77-.59-1.37-.59c-.66 0-1.17.23-1.53.7s-.54 1.12-.54 1.97v.21c0 .88.22 1.53.65 1.96s1.04.65 1.83.65q.69 0 1.29-.18t1.14-.6l.59 1.34q-.57.465-1.38.72c-.53.17-1.1.26-1.7.26Zm5.02-.16v-8.08h1.98v3.17h3.65v-3.17h1.98v8.08h-1.98v-3.38h-3.65v3.38zm13.07.16c-.7 0-1.32-.17-1.86-.5-.53-.34-.95-.82-1.25-1.45s-.45-1.38-.45-2.26.15-1.62.45-2.25c.3-.62.71-1.1 1.25-1.44s1.15-.5 1.86-.5 1.28.17 1.8.5.86.79 1.03 1.35h-.18l.18-1.7h1.92l-.09 1.01c-.03.34-.04.68-.04 1.01v6.06h-1.98l-.02-1.66h.19c-.17.55-.52 1-1.04 1.33s-1.11.5-1.78.5Zm.56-1.54c.63 0 1.14-.22 1.52-.66s.58-1.11.58-2.01-.19-1.56-.58-2c-.38-.44-.89-.66-1.52-.66s-1.14.22-1.52.66-.58 1.1-.58 2 .19 1.57.57 2.01.89.66 1.53.66m-18.16 42.64v-1.3h4.69v1.3zm127.17-88.65v-1.71h2.59v-7.84h.99l-3.33 1.98v-1.95l2.93-1.76h1.47v9.57h2.43v1.71h-7.09Zm12.63.16c-1.32 0-2.34-.5-3.06-1.51-.71-1.01-1.07-2.45-1.07-4.31s.36-3.32 1.07-4.3q1.065-1.47 3.06-1.47c1.995 0 2.35.49 3.06 1.47s1.06 2.41 1.06 4.29-.35 3.32-1.06 4.33-1.73 1.51-3.06 1.51Zm0-1.7c.73 0 1.26-.33 1.62-1s.53-1.71.53-3.14-.18-2.47-.53-3.11-.89-.97-1.62-.97-1.25.32-1.61.97-.54 1.68-.54 3.11.18 2.48.54 3.14.89 1 1.61 1m9.6 1.7c-1.32 0-2.34-.5-3.06-1.51-.71-1.01-1.07-2.45-1.07-4.31s.36-3.32 1.07-4.3q1.065-1.47 3.06-1.47c1.995 0 2.35.49 3.06 1.47s1.06 2.41 1.06 4.29-.35 3.32-1.06 4.33-1.73 1.51-3.06 1.51Zm0-1.7c.73 0 1.26-.33 1.62-1s.53-1.71.53-3.14-.18-2.47-.53-3.11-.89-.97-1.62-.97-1.25.32-1.61.97-.54 1.68-.54 3.11.18 2.48.54 3.14.89 1 1.61 1m9.6 1.7c-1.32 0-2.34-.5-3.06-1.51-.71-1.01-1.07-2.45-1.07-4.31s.36-3.32 1.07-4.3q1.065-1.47 3.06-1.47c1.995 0 2.35.49 3.06 1.47s1.06 2.41 1.06 4.29-.35 3.32-1.06 4.33-1.73 1.51-3.06 1.51Zm0-1.7c.73 0 1.26-.33 1.62-1s.53-1.71.53-3.14-.18-2.47-.53-3.11-.89-.97-1.62-.97-1.25.32-1.61.97-.54 1.68-.54 3.11.18 2.48.54 3.14.89 1 1.61 1m10.32 1.54v-8.08h1.87v6.54h2.85v-6.54h1.86v6.54h2.85v-6.54h1.87v8.08zm15.31 0v-6.51h-2.77v-1.57h7.54v1.57h-2.78v6.51h-1.98Zm4.61 0v-2.22h2.24v2.22zm-32.71 88.65v-1.3h4.69v1.3zm-827.58 4.69c-.49 0-.98-.05-1.46-.16s-.94-.26-1.36-.45q-.63-.285-1.08-.69l.67-1.55c.5.37 1.02.65 1.54.84.53.19 1.08.28 1.66.28.69 0 1.23-.17 1.62-.52s.58-.81.58-1.4-.19-1.08-.56-1.45-.89-.55-1.54-.55c-.46 0-.88.09-1.26.26q-.57.27-1.02.81h-1.36v-6.86h7.01v1.7h-5.06v3.58h-.5c.28-.37.65-.66 1.11-.86q.69-.3 1.56-.3c.73 0 1.35.15 1.89.45.53.3.95.72 1.25 1.26s.45 1.17.45 1.9-.17 1.38-.5 1.94c-.34.56-.82 1-1.44 1.31s-1.36.47-2.22.47Zm6.5-.16v-1.71h2.59v-7.84h.99l-3.33 1.98v-1.95l2.93-1.76h1.47v9.57h2.43v1.71h-7.09Zm8.89-3.62v-1.58h4.86v1.58zm7.71 3.62v-1.71h2.59v-7.84h.99l-3.33 1.98v-1.95l2.93-1.76h1.47v9.57h2.43v1.71h-7.09Zm12.71.16c-.49 0-.98-.05-1.46-.16s-.94-.26-1.36-.45q-.63-.285-1.08-.69l.67-1.55c.5.37 1.02.65 1.54.84.53.19 1.08.28 1.66.28.69 0 1.23-.17 1.62-.52s.58-.81.58-1.4-.19-1.08-.56-1.45-.89-.55-1.54-.55c-.46 0-.88.09-1.26.26q-.57.27-1.02.81h-1.36v-6.86h7.01v1.7h-5.06v3.58h-.5c.28-.37.65-.66 1.11-.86q.69-.3 1.56-.3c.73 0 1.35.15 1.89.45.53.3.95.72 1.25 1.26s.45 1.17.45 1.9-.17 1.38-.5 1.94c-.34.56-.82 1-1.44 1.31s-1.36.47-2.22.47Zm9.52 0c-1.32 0-2.34-.5-3.06-1.51-.71-1.01-1.07-2.45-1.07-4.31s.36-3.32 1.07-4.3q1.065-1.47 3.06-1.47c1.995 0 2.35.49 3.06 1.47s1.06 2.41 1.06 4.29-.35 3.32-1.06 4.33-1.73 1.51-3.06 1.51Zm0-1.7c.73 0 1.26-.33 1.62-1 .35-.67.53-1.71.53-3.14s-.18-2.47-.53-3.11-.89-.97-1.62-.97-1.25.32-1.61.97-.54 1.68-.54 3.11.18 2.48.54 3.14c.36.67.89 1 1.61 1m10.32 1.54v-8.08h1.87v6.54h2.85v-6.54h1.86v6.54h2.85v-6.54h1.87v8.08zm15.31 0v-6.51h-2.77v-1.57h7.54v1.57h-2.78v6.51h-1.98Zm4.61 0v-2.22h2.24v2.22zm5.39.94h-1.65l4.21-12.98h1.65zm4.05 2.51v-9.52c0-.33-.01-.67-.03-1.01s-.05-.68-.1-1.01h1.94l.18 1.7h-.18q.24-.855 1.02-1.35c.52-.34 1.12-.5 1.8-.5s1.34.17 1.87.5c.53.34.95.82 1.25 1.44q.45.93.45 2.25c0 1.32-.15 1.63-.45 2.26s-.71 1.11-1.25 1.45c-.53.34-1.16.5-1.87.5-.67 0-1.26-.17-1.78-.5-.51-.33-.85-.77-1.02-1.33h.18v5.12h-2Zm4.06-4.83c.64 0 1.15-.22 1.54-.66.38-.44.58-1.11.58-2.01s-.19-1.56-.58-2-.9-.66-1.54-.66-1.14.22-1.52.66-.58 1.1-.58 2 .19 1.57.58 2.01c.38.44.89.66 1.52.66m5.5 1.38v-2.22h2.24v2.22z" style="fill:#27625f;stroke-width:0"/></g></svg>