<svg xmlns="http://www.w3.org/2000/svg" data-name="Слой 2" viewBox="0 0 939.04 212.9"><g data-name="Слой 1"><rect width="938.04" height="183.76" x=".5" y=".5" rx="10" ry="10" style="fill:#fff;stroke:#a0b6b5;stroke-miterlimit:10"/><path d="M.5 46.44h938.04M286.41 92.38h652.13M286.41 46.44v137.82m131.48-91.88v91.88m130.13-91.88v91.88m130.14-91.88v91.88m130.13-91.88v91.88M.5 138.32h938.04" style="stroke:#a0b6b5;stroke-miterlimit:10;fill:none"/><path d="M82.28 96.53v-9.69h-3.73v-1.72h9.52v1.72h-3.73v9.69zm9.6.16c-.83 0-1.55-.17-2.16-.52-.61-.34-1.08-.84-1.42-1.47-.34-.64-.5-1.39-.5-2.26s.17-1.63.5-2.26c.34-.63.81-1.12 1.42-1.46s1.33-.52 2.16-.52 1.55.17 2.17.52c.61.35 1.09.83 1.42 1.46.34.63.5 1.38.5 2.26s-.17 1.63-.5 2.26c-.34.64-.81 1.13-1.42 1.47-.61.35-1.34.52-2.17.52m0-1.55c.63 0 1.13-.22 1.5-.67s.56-1.12.56-2.03-.19-1.58-.56-2.02q-.555-.66-1.5-.66c-.945 0-1.13.22-1.5.66s-.56 1.12-.56 2.02.19 1.58.56 2.03.88.67 1.5.67m5.61 1.61-.62-1.58c.35-.13.65-.3.89-.51s.43-.48.58-.81c.14-.33.25-.74.31-1.23s.1-1.08.1-1.76v-2.51h6.43v8.17h-1.98V89.9h-2.62v1.02c0 1.18-.11 2.16-.32 2.95s-.54 1.42-.99 1.88-1.03.79-1.76.99Zm20.88 1.88v-2.1h-10.93v-8.17h1.87v6.62h2.85v-6.62h1.86v6.62h2.85v-6.62h1.87v6.62h1.31v3.66h-1.68Zm3.16-2.1v-8.17h1.81v6.18h-.48l4.59-6.18h1.65v8.17h-1.81v-6.2h.5l-4.61 6.2zm9.84 0v-8.17h1.98v3.2H137v-3.2h1.98v8.17H137v-3.41h-3.65v3.41zm13.07.16q-1.05 0-1.86-.51c-.53-.34-.95-.83-1.25-1.46q-.45-.96-.45-2.28c0-1.32.15-1.64.45-2.27s.71-1.12 1.25-1.46 1.15-.51 1.86-.51 1.28.17 1.8.51.86.8 1.03 1.37h-.18l.18-1.71h1.92l-.09 1.02c-.03.35-.04.69-.04 1.02v6.13h-1.98l-.02-1.68h.19c-.17.56-.52 1.01-1.04 1.34s-1.11.5-1.78.5Zm.56-1.55c.63 0 1.14-.22 1.52-.67s.58-1.12.58-2.03-.19-1.58-.58-2.02c-.38-.44-.89-.66-1.52-.66s-1.14.22-1.52.66-.58 1.12-.58 2.02.19 1.58.57 2.03.89.67 1.53.67m10.78 1.39v-8.17h7.57v8.17h-1.98v-6.62h-3.6v6.62h-1.98Zm9.63.22-.62-1.58c.35-.13.65-.3.89-.51s.43-.48.58-.81c.14-.33.25-.74.31-1.23s.1-1.08.1-1.76v-2.51h6.43v8.17h-1.98V89.9h-2.62v1.02c0 1.18-.11 2.16-.32 2.95s-.54 1.42-.99 1.88-1.03.79-1.76.99Zm13.92-.06c-1.35 0-2.42-.38-3.18-1.13S175 93.77 175 92.45c0-.85.17-1.6.5-2.23.33-.64.79-1.13 1.38-1.49s1.28-.53 2.07-.53 1.43.17 1.95.5.92.8 1.19 1.41c.27.6.41 1.31.41 2.12v.53h-5.89v-1.07h4.46l-.27.23c0-.75-.16-1.33-.47-1.73s-.77-.6-1.37-.6c-.66 0-1.17.24-1.53.71s-.54 1.14-.54 1.99v.21c0 .88.22 1.54.65 1.98q.645.66 1.83.66c.46 0 .89-.06 1.29-.19.4-.12.78-.33 1.14-.61l.59 1.36c-.38.31-.84.56-1.38.73-.53.17-1.1.26-1.7.26Zm-2.82-9.82v-1.86h1.84v1.86zm3.02 0v-1.86h1.84v1.86zm4.83 9.66v-8.17h1.98v3.2h3.65v-3.2h1.98v8.17h-1.98v-3.41h-3.65v3.41zm9.89 0v-8.17h1.98v3.2h1.22l2.37-3.2h2.14l-2.98 4.08-.43-.63c.3.03.56.11.79.24q.345.195.66.54c.21.23.41.53.62.88l1.7 3.06h-2.13l-1.38-2.46c-.14-.25-.28-.44-.42-.58s-.29-.24-.46-.29-.38-.08-.62-.08h-1.07v3.41h-1.98Zm9.11 0v-8.17h1.81v6.18h-.48l4.59-6.18h1.65v8.17h-1.81v-6.2h.5l-4.61 6.2zM20.4 29.28l-1.01-1.54c.45-.25.84-.54 1.18-.87s.62-.75.85-1.25c.22-.5.39-1.12.5-1.86s.17-1.63.17-2.68V17.6h8.19v11.41h-2.05V19.3h-4.24v2.3q0 1.635-.24 2.88c-.24 1.245-.39 1.56-.7 2.18s-.69 1.14-1.13 1.57-.95.78-1.53 1.06Zm15.44-.11q-1.05 0-1.86-.51c-.53-.34-.95-.83-1.25-1.46q-.45-.96-.45-2.28c0-1.32.15-1.64.45-2.27s.71-1.12 1.25-1.46 1.15-.51 1.86-.51 1.28.17 1.8.51.86.8 1.03 1.37h-.18l.18-1.71h1.92l-.09 1.02c-.03.35-.04.69-.04 1.02v6.13h-1.98l-.02-1.68h.19c-.17.56-.52 1.01-1.04 1.34s-1.11.5-1.78.5Zm.56-1.55c.63 0 1.14-.22 1.52-.67s.58-1.12.58-2.03-.19-1.58-.58-2.02c-.38-.44-.89-.66-1.52-.66s-1.14.22-1.52.66-.58 1.12-.58 2.02.19 1.58.57 2.03.89.67 1.53.67m6.4 1.39v-8.17h1.66l2.78 4.89 2.78-4.89h1.66v8.17h-1.76V23.1h.37l-2.59 4.58h-.93l-2.59-4.58h.37v5.91h-1.76Zm11.17 0v-8.17h1.81v6.18h-.48l4.59-6.18h1.65v8.17h-1.81v-6.2h.5l-4.61 6.2zm9.84 0v-8.17h1.98v3.2h3.65v-3.2h1.98v8.17h-1.98V25.6h-3.65v3.41zm9.89 0v-8.17h1.81v6.18h-.48l4.59-6.18h1.65v8.17h-1.81v-6.2h.5l-4.61 6.2zm9.9 3.49v-9.63q0-.495-.03-1.02c-.03-.525-.05-.69-.1-1.02h1.94l.18 1.71h-.18c.16-.57.5-1.03 1.02-1.37q.78-.51 1.8-.51c1.02 0 1.34.17 1.87.51s.95.83 1.25 1.46.45 1.39.45 2.27-.15 1.64-.45 2.28-.71 1.12-1.25 1.46c-.53.34-1.16.51-1.87.51-.67 0-1.26-.17-1.78-.5-.51-.33-.85-.78-1.02-1.34h.18v5.18h-2Zm4.06-4.89c.64 0 1.15-.22 1.54-.67.38-.45.58-1.12.58-2.03s-.19-1.58-.58-2.02c-.38-.44-.9-.66-1.54-.66s-1.14.22-1.52.66-.58 1.12-.58 2.02.19 1.58.58 2.03c.38.45.89.67 1.52.67m9.73 1.56c-.83 0-1.55-.17-2.16-.52-.61-.34-1.08-.84-1.42-1.47-.34-.64-.5-1.39-.5-2.26s.17-1.63.5-2.26c.34-.63.81-1.12 1.42-1.46s1.33-.52 2.16-.52 1.55.17 2.17.52c.61.35 1.09.83 1.42 1.46.34.63.5 1.38.5 2.26s-.17 1.63-.5 2.26c-.34.64-.81 1.13-1.42 1.47-.61.35-1.34.52-2.17.52m0-1.55c.63 0 1.13-.22 1.5-.67s.56-1.12.56-2.03-.19-1.58-.56-2.02q-.555-.66-1.5-.66c-.945 0-1.13.22-1.5.66s-.56 1.12-.56 2.02.19 1.58.56 2.03.88.67 1.5.67m5.99 1.39v-8.17h4.3c1.01 0 1.75.19 2.22.56s.7.9.7 1.58q0 .78-.51 1.29c-.34.35-.79.56-1.36.65v-.23c.69.04 1.23.25 1.6.61s.56.84.56 1.42c0 .7-.27 1.26-.8 1.67s-1.29.61-2.27.61h-4.45Zm1.86-4.79h2.21c.43 0 .76-.09.99-.28s.35-.46.35-.8-.12-.61-.35-.79q-.36-.27-.99-.27h-2.21v2.15Zm0 3.54h2.38c.47 0 .83-.1 1.08-.29s.38-.48.38-.86-.13-.66-.38-.86c-.25-.19-.61-.29-1.08-.29h-2.38zm10.59 1.41q-1.05 0-1.86-.51c-.53-.34-.95-.83-1.25-1.46q-.45-.96-.45-2.28c0-1.32.15-1.64.45-2.27s.71-1.12 1.25-1.46 1.15-.51 1.86-.51 1.28.17 1.8.51.86.8 1.03 1.37h-.18l.18-1.71h1.92l-.09 1.02c-.03.35-.04.69-.04 1.02v6.13h-1.98l-.02-1.68h.19c-.17.56-.52 1.01-1.04 1.34s-1.11.5-1.78.5Zm.56-1.55c.63 0 1.14-.22 1.52-.67s.58-1.12.58-2.03-.19-1.58-.58-2.02c-.38-.44-.89-.66-1.52-.66s-1.14.22-1.52.66-.58 1.12-.58 2.02.19 1.58.57 2.03.89.67 1.53.67m6.4 1.39v-8.17h1.98v3.2h3.65v-3.2h1.98v8.17h-1.98V25.6h-3.65v3.41zm9.88 0v-8.17h1.81v6.18H134l4.59-6.18h1.65v8.17h-1.81v-6.2h.5l-4.61 6.2zm13.81.16c-1.35 0-2.42-.38-3.18-1.13s-1.15-1.79-1.15-3.11c0-.85.17-1.6.5-2.23.33-.64.79-1.13 1.38-1.49s1.28-.53 2.07-.53 1.43.17 1.95.5.92.8 1.19 1.41c.27.6.41 1.31.41 2.12v.53h-5.89v-1.07h4.46l-.27.23c0-.75-.16-1.33-.47-1.73s-.77-.6-1.37-.6c-.66 0-1.17.24-1.53.71s-.54 1.14-.54 1.99v.21c0 .88.22 1.54.65 1.98q.645.66 1.83.66c.46 0 .89-.06 1.29-.19.4-.12.78-.33 1.14-.61l.59 1.36c-.38.31-.84.56-1.38.73-.53.17-1.1.26-1.7.26Zm416.91 44.28v-1.68l.51.39h-.45c-1.12 0-2.09-.19-2.9-.58s-1.43-.95-1.86-1.67c-.43-.73-.65-1.61-.65-2.65 0-1.57.47-2.79 1.42-3.63s2.27-1.27 3.99-1.27h.45l-.51.39v-1.59h2.05v1.59l-.51-.39h.45c1.72 0 3.05.42 4 1.27s1.42 2.06 1.42 3.63c0 1.04-.22 1.92-.66 2.65s-1.06 1.29-1.86 1.67c-.81.39-1.77.58-2.9.58h-.45l.51-.39v1.68zm.02-2.51v-7.38l.43.36h-.59c-.94 0-1.69.28-2.26.83-.57.56-.86 1.39-.86 2.5 0 .72.13 1.33.4 1.83s.63.87 1.1 1.12 1.01.38 1.62.38h.59zm2.03 0-.45-.36h.61c.61 0 1.15-.13 1.62-.38s.83-.63 1.1-1.12q.39-.75.39-1.83c0-1.11-.28-1.94-.85-2.5s-1.32-.83-2.26-.83h-.61l.45-.36zm11.08 2.27c-.83 0-1.55-.17-2.16-.52s-1.08-.84-1.42-1.47c-.34-.64-.5-1.39-.5-2.27s.17-1.63.5-2.26c.34-.63.81-1.12 1.42-1.46.61-.35 1.33-.52 2.16-.52s1.55.17 2.17.52 1.09.83 1.42 1.46c.34.63.5 1.38.5 2.26s-.17 1.63-.5 2.27c-.34.64-.81 1.13-1.42 1.47s-1.34.52-2.17.52m0-1.55c.63 0 1.13-.22 1.5-.67s.56-1.12.56-2.03-.19-1.58-.56-2.02q-.555-.66-1.5-.66c-.945 0-1.13.22-1.5.66s-.56 1.12-.56 2.02.19 1.58.56 2.03.88.67 1.5.67m6.05 4.88v-9.63q0-.495-.03-1.02c-.03-.525-.05-.68-.1-1.02h1.94l.18 1.72h-.18c.16-.57.5-1.03 1.02-1.37q.78-.51 1.8-.51c1.02 0 1.34.17 1.87.51s.95.82 1.25 1.46c.3.63.45 1.39.45 2.27s-.15 1.65-.45 2.28c-.3.64-.71 1.12-1.25 1.46-.53.34-1.16.51-1.87.51-.67 0-1.26-.17-1.78-.5s-.85-.78-1.02-1.34h.18v5.18h-2Zm4.06-4.89c.64 0 1.15-.22 1.54-.67s.58-1.12.58-2.03-.19-1.58-.58-2.02c-.38-.44-.9-.66-1.54-.66s-1.14.22-1.52.66-.58 1.12-.58 2.02.19 1.58.58 2.03.89.67 1.52.67m6.02 1.4v-8.17h1.66l2.78 4.89 2.78-4.89h1.66v8.17h-1.76v-5.91h.37l-2.59 4.58h-.93l-2.59-4.58h.37v5.91h-1.76Zm14.35.16q-1.05 0-1.86-.51c-.81-.51-.95-.83-1.25-1.46q-.45-.96-.45-2.28c0-1.32.15-1.64.45-2.27s.71-1.12 1.25-1.46 1.15-.51 1.86-.51 1.28.17 1.8.51.86.79 1.03 1.37h-.18l.18-1.72h1.92l-.09 1.02c-.03.34-.04.68-.04 1.02v6.13h-1.98l-.02-1.68h.19c-.17.56-.52 1.01-1.04 1.34s-1.11.5-1.78.5Zm.56-1.55c.63 0 1.14-.22 1.52-.67s.58-1.12.58-2.03-.19-1.58-.58-2.02c-.38-.44-.89-.66-1.52-.66s-1.14.22-1.52.66-.58 1.12-.58 2.02.19 1.58.57 2.03.89.67 1.53.67m8.15 1.39v-6.58h-2.77v-1.59h7.54v1.59h-2.78v6.58h-1.98Zm6.11.95h-1.65l4.21-13.12h1.65zm14.77 1.72v-2.67h-9.71V61.64h2.03v9.69h5.79v-9.69h2.05v9.69h1.65v4.38h-1.81Zm7.28-2.51c-1.35 0-2.42-.38-3.18-1.13s-1.15-1.79-1.15-3.11c0-.85.17-1.6.5-2.23.33-.64.79-1.13 1.38-1.49s1.28-.53 2.07-.53 1.43.17 1.95.5.92.8 1.19 1.41c.27.6.41 1.31.41 2.12v.53h-5.89v-1.07h4.46l-.27.23c0-.75-.16-1.33-.47-1.73s-.77-.6-1.37-.6c-.66 0-1.17.24-1.53.71s-.54 1.14-.54 1.99v.21c0 .88.22 1.55.65 1.98q.645.66 1.83.66c.46 0 .89-.06 1.29-.19.4-.12.78-.33 1.14-.61l.59 1.36c-.38.31-.84.56-1.38.73-.53.17-1.1.26-1.7.26Zm5.02-.16v-8.17h1.98v3.2h3.65v-3.2h1.98v8.17h-1.98v-3.41h-3.65v3.41zm13.07.16q-1.05 0-1.86-.51c-.81-.51-.95-.83-1.25-1.46q-.45-.96-.45-2.28c0-1.32.15-1.64.45-2.27s.71-1.12 1.25-1.46 1.15-.51 1.86-.51 1.28.17 1.8.51.86.79 1.03 1.37h-.18l.18-1.72h1.92l-.09 1.02c-.03.34-.04.68-.04 1.02v6.13h-1.98l-.02-1.68h.19c-.17.56-.52 1.01-1.04 1.34s-1.11.5-1.78.5Zm.56-1.55c.63 0 1.14-.22 1.52-.67s.58-1.12.58-2.03-.19-1.58-.58-2.02c-.38-.44-.89-.66-1.52-.66s-1.14.22-1.52.66-.58 1.12-.58 2.02.19 1.58.57 2.03.89.67 1.53.67m-321.45 50.95 5.1-11.41h1.73l5.17 11.41h-2.1l-1.38-3.2.83.57h-6.77l.86-.57-1.38 3.2h-2.08Zm5.95-9.17-2.26 5.4-.42-.5h5.38l-.34.5-2.3-5.4zm11.74 9.17v-2.23h-5.04v-1.46l5.36-7.72h1.66v7.59h1.62v1.59h-1.62v2.23zm0-3.82v-5.13h.38l-3.89 5.61v-.49h3.5Zm-20.68 48.84c-.77 0-1.5-.12-2.21-.35-.7-.23-1.29-.56-1.76-1l.58-1.28c.52.41 1.06.71 1.6.91.54.19 1.13.29 1.74.29.79 0 1.39-.17 1.8-.5s.62-.81.62-1.44-.21-1.08-.62-1.4-1.02-.48-1.82-.48h-1.74v-1.36h1.62c.68 0 1.23-.17 1.63-.53s.61-.83.61-1.43c0-.55-.19-.97-.56-1.27s-.91-.44-1.6-.44c-1.17 0-2.2.42-3.09 1.25l-.56-1.28c.44-.44.99-.78 1.66-1.03.67-.24 1.38-.36 2.11-.36q1.695 0 2.67.78c.65.52.98 1.25.98 2.18 0 .7-.19 1.3-.58 1.79q-.585.75-1.59.99v-.18c.8.13 1.42.45 1.85.96s.65 1.15.65 1.92c0 1.01-.35 1.81-1.06 2.39s-1.68.87-2.92.87Zm9.71 0c-1.3 0-2.3-.5-3-1.51s-1.05-2.46-1.05-4.34.35-3.37 1.05-4.36 1.7-1.48 3-1.48 2.31.49 3.01 1.48c.69.99 1.04 2.43 1.04 4.34s-.35 3.35-1.05 4.36-1.7 1.51-3 1.51m0-1.41q1.23 0 1.83-1.08c.4-.72.6-1.85.6-3.38s-.2-2.67-.6-3.37c-.4-.71-1.01-1.06-1.83-1.06s-1.42.35-1.82 1.06c-.41.71-.61 1.83-.61 3.36s.21 2.67.62 3.4c.41.72 1.02 1.08 1.82 1.08Zm10.36 4.76v-9.69c0-.31-.01-.63-.04-.96l-.09-1h1.57l.16 1.85h-.18c.17-.62.51-1.1 1.03-1.46s1.13-.53 1.85-.53 1.34.17 1.87.51.95.82 1.24 1.45.44 1.38.44 2.27-.15 1.63-.44 2.27-.71 1.12-1.24 1.46c-.53.33-1.16.5-1.87.5s-1.31-.18-1.83-.53-.86-.83-1.03-1.43h.18V171h-1.62Zm3.9-4.63c.7 0 1.27-.25 1.69-.74.42-.5.63-1.23.63-2.2s-.21-1.7-.63-2.19-.98-.74-1.69-.74-1.27.25-1.69.74q-.63.735-.63 2.19c0 1.455.21 1.7.63 2.2s.98.74 1.69.74m5.44 1.13v-1.92h1.9v1.92zm104.79-44.87 5.1-11.41h1.73l5.17 11.41h-2.1l-1.38-3.2.83.57h-6.77l.86-.57-1.38 3.2h-2.08Zm5.95-9.17-2.26 5.4-.42-.5h5.38l-.34.5-2.3-5.4zm10.68 9.34c-.78 0-1.53-.12-2.24-.35s-1.3-.55-1.76-.96l.67-1.57c.5.39 1.02.67 1.56.86.54.18 1.11.28 1.7.28.73 0 1.27-.15 1.65-.44.37-.29.56-.72.56-1.28s-.18-.95-.55-1.22-.9-.41-1.61-.41h-1.82v-1.67h1.65c.61 0 1.09-.15 1.46-.45.36-.3.54-.72.54-1.25 0-.5-.17-.87-.5-1.13s-.82-.39-1.45-.39c-1.13 0-2.13.39-2.99 1.17l-.67-1.55c.46-.43 1.03-.77 1.7-1 .68-.24 1.39-.36 2.14-.36 1.17 0 2.09.27 2.76.8s1 1.28 1 2.22c0 .68-.19 1.27-.57 1.76s-.9.82-1.56.98v-.19c.78.13 1.38.45 1.82.96.43.51.65 1.15.65 1.92 0 1.01-.37 1.82-1.1 2.4-.74.59-1.74.88-3.02.88Zm-18.35 44.7v-2.36h-5.22v-1.2l5.49-7.85h1.34v7.73h1.68v1.31h-1.68v2.36h-1.62Zm0-3.67v-5.74h.37l-4.29 6.15v-.4h3.92Zm8.45 3.82c-1.3 0-2.3-.5-3-1.51s-1.05-2.46-1.05-4.34.35-3.37 1.05-4.36 1.7-1.48 3-1.48 2.31.49 3.01 1.48c.69.99 1.04 2.43 1.04 4.34s-.35 3.35-1.05 4.36-1.7 1.51-3 1.51m0-1.41q1.23 0 1.83-1.08c.4-.72.6-1.85.6-3.38s-.2-2.67-.6-3.37c-.4-.71-1.01-1.06-1.83-1.06s-1.42.35-1.82 1.06c-.41.71-.61 1.83-.61 3.36s.21 2.67.62 3.4c.41.72 1.02 1.08 1.82 1.08Zm10.35 4.76v-9.69c0-.31-.01-.63-.04-.96l-.09-1h1.57l.16 1.85h-.18c.17-.62.51-1.1 1.03-1.46s1.13-.53 1.85-.53 1.34.17 1.87.51.95.82 1.24 1.45.44 1.38.44 2.27-.15 1.63-.44 2.27-.71 1.12-1.24 1.46c-.53.33-1.16.5-1.87.5s-1.31-.18-1.83-.53-.86-.83-1.03-1.43h.18V171h-1.62Zm3.9-4.63c.7 0 1.27-.25 1.69-.74.42-.5.63-1.23.63-2.2s-.21-1.7-.63-2.19-.98-.74-1.69-.74-1.27.25-1.69.74q-.63.735-.63 2.19c0 1.455.21 1.7.63 2.2s.98.74 1.69.74m5.45 1.13v-1.92h1.9v1.92zm102.96-44.87 5.1-11.41h1.73l5.17 11.41h-2.1l-1.38-3.2.83.57h-6.77l.86-.57-1.38 3.2h-2.08Zm5.95-9.17-2.26 5.4-.42-.5h5.38l-.34.5-2.3-5.4zm7.3 9.17v-1.54l3.74-3.95c.47-.5.82-.96 1.04-1.38s.34-.85.34-1.29c0-.55-.17-.96-.51-1.25-.34-.28-.84-.42-1.49-.42-.52 0-1.02.09-1.5.28s-.95.48-1.41.88l-.67-1.55c.46-.41 1.03-.74 1.7-.99.68-.25 1.39-.37 2.14-.37 1.22 0 2.15.28 2.8.83s.98 1.34.98 2.36c0 .71-.17 1.39-.5 2.03s-.84 1.31-1.54 2.01l-3.12 3.15v-.55h5.6v1.73h-7.6Zm-16.12 45.02c-1.3 0-2.31-.28-3.04-.84s-1.09-1.34-1.09-2.35q0-1.2.72-1.98c.48-.52 1.11-.84 1.89-.95v.29c-.7-.15-1.27-.48-1.69-.99s-.63-1.12-.63-1.84c0-.95.34-1.69 1.02-2.23q1.02-.81 2.82-.81c1.8 0 2.15.27 2.83.81s1.02 1.28 1.02 2.23c0 .72-.2 1.34-.6 1.85s-.95.83-1.64.96v-.27c.77.11 1.38.42 1.84.95q.69.78.69 1.98c0 1-.36 1.79-1.09 2.35s-1.74.84-3.06.84Zm0-1.33c.86 0 1.51-.16 1.94-.49s.64-.82.64-1.48-.21-1.15-.64-1.47-1.07-.48-1.94-.48-1.51.16-1.94.48-.64.81-.64 1.47.22 1.15.65 1.48 1.07.49 1.93.49m0-5.26c.75 0 1.31-.17 1.7-.51s.58-.81.58-1.4-.19-1.04-.58-1.38-.96-.5-1.7-.5-1.3.17-1.7.5-.59.79-.59 1.38.2 1.06.59 1.4.96.51 1.7.51m6.13 6.44v-1.25l3.87-4.09c.5-.53.87-1.03 1.12-1.49s.37-.94.37-1.44c0-.62-.19-1.08-.57-1.39s-.93-.47-1.64-.47c-.57 0-1.1.1-1.59.31s-.97.52-1.43.94l-.58-1.28c.45-.42 1-.76 1.67-1.01s1.37-.38 2.12-.38c1.17 0 2.08.27 2.71.81s.95 1.31.95 2.31c0 .71-.17 1.39-.51 2.05-.34.65-.85 1.32-1.54 2.01l-3.34 3.41v-.45h5.86v1.41zm13.82 3.5v-9.69c0-.31-.01-.63-.04-.96l-.09-1h1.57l.16 1.85h-.18c.17-.62.51-1.1 1.03-1.46s1.13-.53 1.85-.53 1.34.17 1.87.51.95.82 1.24 1.45.44 1.38.44 2.27-.15 1.63-.44 2.27-.71 1.12-1.24 1.46c-.53.33-1.16.5-1.87.5s-1.31-.18-1.83-.53-.86-.83-1.03-1.43h.18V171h-1.62Zm3.9-4.63c.7 0 1.27-.25 1.69-.74.42-.5.63-1.23.63-2.2s-.21-1.7-.63-2.19-.98-.74-1.69-.74-1.27.25-1.69.74q-.63.735-.63 2.19c0 1.455.21 1.7.63 2.2s.98.74 1.69.74m5.45 1.13v-1.92h1.9v1.92zm104.27-44.87 5.1-11.41h1.73l5.17 11.41h-2.1l-1.38-3.2.83.57h-6.77l.86-.57-1.38 3.2h-2.08Zm5.95-9.17-2.26 5.4-.42-.5h5.38l-.34.5-2.3-5.4zm7.83 9.17v-1.73h2.59v-7.93h.99l-3.33 2.01v-1.97l2.93-1.78h1.47v9.67h2.43v1.73h-7.09Zm-24.92 44.87v-1.25l3.87-4.09c.5-.53.87-1.03 1.12-1.49s.37-.94.37-1.44c0-.62-.19-1.08-.57-1.39s-.93-.47-1.64-.47c-.57 0-1.1.1-1.59.31s-.97.52-1.43.94l-.58-1.28c.45-.42 1-.76 1.67-1.01s1.37-.38 2.12-.38c1.17 0 2.08.27 2.71.81s.95 1.31.95 2.31c0 .71-.17 1.39-.51 2.05-.34.65-.85 1.32-1.54 2.01l-3.34 3.41v-.45h5.86v1.41zm13.07.15c-1.3 0-2.3-.5-3-1.51s-1.05-2.46-1.05-4.34.35-3.37 1.05-4.36 1.7-1.48 3-1.48 2.31.49 3.01 1.48c.69.99 1.04 2.43 1.04 4.34s-.35 3.35-1.05 4.36-1.7 1.51-3 1.51m0-1.41q1.23 0 1.83-1.08c.4-.72.6-1.85.6-3.38s-.2-2.67-.6-3.37c-.4-.71-1.01-1.06-1.83-1.06s-1.42.35-1.82 1.06c-.41.71-.61 1.83-.61 3.36s.21 2.67.62 3.4c.41.72 1.02 1.08 1.82 1.08Zm9.6 1.41c-1.3 0-2.3-.5-3-1.51s-1.05-2.46-1.05-4.34.35-3.37 1.05-4.36 1.7-1.48 3-1.48 2.31.49 3.01 1.48c.69.99 1.04 2.43 1.04 4.34s-.35 3.35-1.05 4.36-1.7 1.51-3 1.51m0-1.41q1.23 0 1.83-1.08c.4-.72.6-1.85.6-3.38s-.2-2.67-.6-3.37c-.4-.71-1.01-1.06-1.83-1.06s-1.42.35-1.82 1.06c-.41.71-.61 1.83-.61 3.36s.21 2.67.62 3.4c.41.72 1.02 1.08 1.82 1.08Zm10.35 4.76v-9.69c0-.31-.01-.63-.04-.96l-.09-1h1.57l.16 1.85h-.18c.17-.62.51-1.1 1.03-1.46s1.13-.53 1.85-.53 1.34.17 1.87.51.95.82 1.24 1.45.44 1.38.44 2.27-.15 1.63-.44 2.27-.71 1.12-1.24 1.46c-.53.33-1.16.5-1.87.5s-1.31-.18-1.83-.53-.86-.83-1.03-1.43h.18V171h-1.62Zm3.9-4.63c.7 0 1.27-.25 1.69-.74.42-.5.63-1.23.63-2.2s-.21-1.7-.63-2.19-.98-.74-1.69-.74-1.27.25-1.69.74q-.63.735-.63 2.19c0 1.455.21 1.7.63 2.2s.98.74 1.69.74m5.44 1.13v-1.92h1.9v1.92zM17.47 203.51c0-1.2.21-2.23.62-3.11.42-.87 1.02-1.55 1.82-2.02s1.74-.71 2.84-.71 2.03.24 2.82.71 1.4 1.15 1.83 2.02.65 1.9.65 3.09-.22 2.24-.65 3.11-1.05 1.56-1.84 2.04-1.73.72-2.81.72-2.04-.24-2.83-.72-1.39-1.16-1.82-2.04c-.42-.88-.63-1.91-.63-3.1Zm1.74 0q0 2.07.9 3.24c.9 1.17 1.48 1.17 2.64 1.17s2.01-.39 2.62-1.16q.93-1.155.93-3.24c0-2.085-.31-2.47-.92-3.24s-1.49-1.15-2.63-1.15-2.04.38-2.64 1.15-.9 1.84-.9 3.24Zm10.99 5.71v-8.15h7.23v8.15h-1.6v-6.88H31.8v6.88zm13.46.15c-1.3 0-2.33-.37-3.07-1.12-.75-.74-1.12-1.77-1.12-3.09 0-.85.16-1.6.49-2.23.33-.64.78-1.13 1.36-1.48s1.26-.53 2.02-.53 1.39.16 1.9.49c.51.32.9.78 1.17 1.37s.4 1.28.4 2.08v.52h-6.08v-.94h4.98l-.27.21q0-1.215-.54-1.89c-.36-.45-.87-.67-1.54-.67-.75 0-1.32.26-1.73.78s-.61 1.24-.61 2.16v.16c0 .96.23 1.68.7 2.17.46.49 1.12.73 1.98.73.47 0 .91-.07 1.32-.2s.8-.36 1.18-.67l.53 1.12c-.37.33-.83.59-1.36.77s-1.1.27-1.7.27Zm5.2 3.35v-9.69c0-.31-.01-.63-.04-.96l-.09-.99h1.57l.16 1.84h-.18c.17-.61.51-1.1 1.03-1.46s1.13-.54 1.85-.54 1.34.17 1.87.51.95.82 1.24 1.45c.29.62.44 1.38.44 2.26s-.15 1.63-.44 2.26c-.29.64-.71 1.12-1.24 1.46s-1.16.5-1.87.5-1.31-.17-1.83-.53c-.52-.35-.86-.83-1.03-1.43h.18v5.31h-1.62Zm3.9-4.63c.7 0 1.27-.25 1.69-.74.42-.5.63-1.23.63-2.2s-.21-1.7-.63-2.19-.98-.74-1.69-.74-1.27.25-1.69.74q-.63.735-.63 2.19c0 1.455.21 1.7.63 2.2s.98.74 1.69.74m9.12 1.28c-.71 0-1.34-.17-1.87-.5s-.95-.82-1.24-1.46-.44-1.39-.44-2.26.15-1.64.44-2.26c.29-.63.71-1.11 1.24-1.45s1.16-.51 1.87-.51 1.32.18 1.84.54.87.84 1.04 1.46h-.18l.16-1.84h1.57l-.09.99c-.03.33-.04.65-.04.96v6.2h-1.62v-1.81h.18c-.17.6-.52 1.08-1.05 1.43s-1.13.53-1.82.53Zm.4-1.28c.69 0 1.25-.25 1.67-.74.42-.5.63-1.23.63-2.2s-.21-1.7-.63-2.19-.98-.74-1.67-.74-1.27.25-1.69.74q-.63.735-.63 2.19c0 1.455.21 1.7.62 2.2s.98.74 1.7.74m8.12 1.13v-6.84h-2.85v-1.31h7.31v1.31H72v6.84zm9.23.15c-.8 0-1.49-.17-2.08-.51s-1.04-.83-1.36-1.46-.48-1.38-.48-2.26.16-1.63.48-2.26.77-1.12 1.36-1.46 1.28-.51 2.08-.51 1.5.17 2.09.51 1.05.83 1.38 1.46.49 1.38.49 2.26-.16 1.63-.49 2.26-.78 1.12-1.38 1.46c-.59.34-1.29.51-2.09.51m0-1.28c.7 0 1.26-.25 1.68-.74s.62-1.23.62-2.2-.21-1.7-.62-2.19-.98-.74-1.68-.74-1.25.25-1.66.74-.62 1.22-.62 2.19.21 1.7.62 2.2.97.74 1.67.74Zm6.01 4.63v-9.69c0-.31-.01-.63-.04-.96l-.09-.99h1.57l.16 1.84h-.18c.17-.61.51-1.1 1.03-1.46s1.13-.54 1.85-.54 1.34.17 1.87.51.95.82 1.24 1.45c.29.62.44 1.38.44 2.26s-.15 1.63-.44 2.26c-.29.64-.71 1.12-1.24 1.46s-1.16.5-1.87.5-1.31-.17-1.83-.53c-.52-.35-.86-.83-1.03-1.43h.18v5.31h-1.62Zm3.9-4.63c.7 0 1.27-.25 1.69-.74.42-.5.63-1.23.63-2.2s-.21-1.7-.63-2.19-.98-.74-1.69-.74-1.27.25-1.69.74q-.63.735-.63 2.19c0 1.455.21 1.7.63 2.2s.98.74 1.69.74m5.69 4.81-.38-1.33q.75-.165 1.26-.39c.34-.15.62-.35.84-.59s.42-.55.58-.93l.4-.96-.03.66-3.5-8.3h1.73l2.72 6.79h-.43l2.72-6.79h1.66l-3.7 8.74c-.23.54-.49.99-.75 1.36s-.55.66-.86.89-.65.4-1.02.53-.78.23-1.22.31Zm13.12-7.46v-1.31h4.69v1.31zm11.4 3.78v-1.25l3.87-4.09c.5-.53.87-1.02 1.12-1.49.25-.46.37-.94.37-1.44 0-.62-.19-1.08-.57-1.39s-.93-.47-1.64-.47c-.57 0-1.1.1-1.59.31-.5.21-.97.52-1.43.94l-.58-1.28c.45-.42 1-.76 1.67-1.01s1.37-.38 2.12-.38c1.17 0 2.08.27 2.71.81s.95 1.31.95 2.31c0 .71-.17 1.39-.51 2.05-.34.65-.85 1.32-1.54 2.01l-3.34 3.41v-.45h5.86v1.41zm13.08.15c-1.3 0-2.3-.5-3-1.51s-1.05-2.46-1.05-4.34.35-3.37 1.05-4.36 1.7-1.48 3-1.48 2.31.49 3.01 1.48c.69.99 1.04 2.44 1.04 4.34s-.35 3.35-1.05 4.36-1.7 1.51-3 1.51m0-1.41q1.23 0 1.83-1.08c.4-.72.6-1.85.6-3.38s-.2-2.67-.6-3.37c-.4-.71-1.01-1.06-1.83-1.06s-1.42.35-1.82 1.06c-.41.71-.61 1.83-.61 3.36s.21 2.68.62 3.4 1.02 1.08 1.82 1.08Zm9.6 1.41c-1.3 0-2.3-.5-3-1.51s-1.05-2.46-1.05-4.34.35-3.37 1.05-4.36 1.7-1.48 3-1.48 2.31.49 3.01 1.48c.69.99 1.04 2.44 1.04 4.34s-.35 3.35-1.05 4.36-1.7 1.51-3 1.51m0-1.41q1.23 0 1.83-1.08c.4-.72.6-1.85.6-3.38s-.2-2.67-.6-3.37c-.4-.71-1.01-1.06-1.83-1.06s-1.42.35-1.82 1.06c-.41.71-.61 1.83-.61 3.36s.21 2.68.62 3.4 1.02 1.08 1.82 1.08Zm10.28 1.26v-8.15h1.34l2.91 5.21 2.91-5.21h1.34v8.15h-1.42v-6.33h.35l-2.8 5.02h-.77l-2.8-5.02h.35v6.33h-1.42Zm10.95 0v-8.15h1.6v3.33h1.39l2.51-3.33h1.76l-3.01 4.01-.4-.52c.31.03.58.11.8.23s.44.31.66.54c.21.24.43.55.66.94l1.68 2.95h-1.73l-1.44-2.49c-.16-.28-.32-.5-.46-.65a1.16 1.16 0 0 0-.51-.32c-.19-.06-.43-.09-.7-.09h-1.2v3.56h-1.6Zm8.89 3.5v-9.69c0-.31-.01-.63-.04-.96l-.09-.99h1.57l.16 1.84h-.18c.17-.61.51-1.1 1.03-1.46s1.13-.54 1.85-.54 1.34.17 1.87.51.95.82 1.24 1.45c.29.62.44 1.38.44 2.26s-.15 1.63-.44 2.26c-.29.64-.71 1.12-1.24 1.46s-1.16.5-1.87.5-1.31-.17-1.83-.53c-.52-.35-.86-.83-1.03-1.43h.18v5.31h-1.62Zm3.9-4.63c.7 0 1.27-.25 1.69-.74.42-.5.63-1.23.63-2.2s-.21-1.7-.63-2.19-.98-.74-1.69-.74-1.27.25-1.69.74q-.63.735-.63 2.19c0 1.455.21 1.7.63 2.2s.98.74 1.69.74m6.26 3.12-.7-.55c.31-.33.52-.64.63-.92s.17-.57.17-.87l.35.36h-1.26v-1.93h1.9v1.31q0 .735-.24 1.35c-.16.42-.44.83-.85 1.25m7.52-1.99v-8.15h7.23v8.15h-1.6v-6.88h-4.03v6.88zm9.73 3.5v-9.69c0-.31-.01-.63-.04-.96l-.09-.99h1.57l.16 1.84h-.18c.17-.61.51-1.1 1.03-1.46s1.13-.54 1.85-.54 1.34.17 1.87.51.95.82 1.24 1.45c.29.62.44 1.38.44 2.26s-.15 1.63-.44 2.26c-.29.64-.71 1.12-1.24 1.46s-1.16.5-1.87.5-1.31-.17-1.83-.53c-.52-.35-.86-.83-1.03-1.43h.18v5.31h-1.62Zm3.9-4.63c.7 0 1.27-.25 1.69-.74.42-.5.63-1.23.63-2.2s-.21-1.7-.63-2.19-.98-.74-1.69-.74-1.27.25-1.69.74q-.63.735-.63 2.19c0 1.455.21 1.7.63 2.2s.98.74 1.69.74m9.49 1.28c-.8 0-1.49-.17-2.08-.51s-1.04-.83-1.36-1.46-.48-1.38-.48-2.26.16-1.63.48-2.26.77-1.12 1.36-1.46 1.28-.51 2.08-.51 1.5.17 2.09.51 1.05.83 1.38 1.46.49 1.38.49 2.26-.16 1.63-.49 2.26-.78 1.12-1.38 1.46c-.59.34-1.29.51-2.09.51m0-1.28c.7 0 1.26-.25 1.68-.74s.62-1.23.62-2.2-.21-1.7-.62-2.19-.98-.74-1.68-.74-1.25.25-1.66.74-.62 1.22-.62 2.19.21 1.7.62 2.2.97.74 1.67.74Zm5.95 1.13v-8.15h1.47v6.58h-.45l4.86-6.58h1.34v8.15h-1.46v-6.6h.46l-4.9 6.6h-1.34Zm12.47.15c-.7 0-1.37-.09-1.98-.27-.62-.18-1.13-.43-1.52-.77l.5-1.1c.39.31.85.55 1.36.7s1.06.23 1.65.23c.74 0 1.27-.11 1.61-.33s.5-.54.5-.95-.14-.7-.42-.91-.68-.31-1.22-.31h-1.98v-1.17h1.82c.48 0 .85-.1 1.12-.31s.4-.49.4-.86c0-.39-.16-.69-.46-.91s-.79-.32-1.44-.32c-.55 0-1.06.07-1.52.21s-.9.35-1.31.63l-.48-1.05c.44-.33.96-.58 1.55-.75.6-.16 1.24-.24 1.94-.24 1.04 0 1.84.2 2.38.59s.82.96.82 1.69c0 .51-.17.94-.5 1.29s-.79.57-1.35.65v-.21c.65.03 1.17.23 1.56.59s.58.84.58 1.43c0 .73-.31 1.32-.92 1.76s-1.51.66-2.68.66Zm5.49-.15v-8.15h4.06c.97 0 1.69.19 2.15.56s.7.9.7 1.58c0 .53-.17.97-.52 1.31-.35.35-.8.56-1.37.63v-.21c.67.03 1.2.23 1.58.6s.58.84.58 1.42c0 .7-.26 1.25-.78 1.66s-1.25.61-2.2.61h-4.21Zm1.52-4.68h2.38c.48 0 .85-.11 1.12-.32s.4-.51.4-.89-.13-.69-.4-.9-.64-.32-1.12-.32h-2.38zm0 3.62h2.56q.78 0 1.2-.33t.42-.96c0-.63-.14-.74-.42-.96-.28-.21-.68-.32-1.2-.32h-2.56zm11.08 1.21c-.8 0-1.49-.17-2.08-.51s-1.04-.83-1.36-1.46-.48-1.38-.48-2.26.16-1.63.48-2.26.77-1.12 1.36-1.46 1.28-.51 2.08-.51 1.5.17 2.09.51 1.05.83 1.38 1.46.49 1.38.49 2.26-.16 1.63-.49 2.26-.78 1.12-1.38 1.46c-.59.34-1.29.51-2.09.51m0-1.28c.7 0 1.26-.25 1.68-.74s.62-1.23.62-2.2-.21-1.7-.62-2.19-.98-.74-1.68-.74-1.25.25-1.66.74-.62 1.22-.62 2.19.21 1.7.62 2.2.97.74 1.67.74Zm5.16 3.24v-3.37h.9c.35-.54.61-1.17.77-1.89s.24-1.6.24-2.62v-2.38h5.9v6.89h1.3v3.37h-1.39v-2.1h-6.32v2.1h-1.39Zm2.38-3.35h3.9v-5.65h-2.99v1.44c0 .79-.08 1.56-.23 2.31-.16.75-.38 1.38-.68 1.9m11.92 1.39c-.81 0-1.52-.17-2.12-.51s-1.07-.83-1.39-1.47c-.33-.64-.49-1.41-.49-2.29s.17-1.62.5-2.25c.33-.62.79-1.1 1.39-1.43s1.3-.49 2.11-.49c.52 0 1.03.09 1.52.27s.9.43 1.22.75l-.53 1.15c-.3-.29-.63-.51-1.01-.65-.37-.15-.74-.22-1.09-.22-.77 0-1.37.25-1.81.74s-.66 1.21-.66 2.15.22 1.68.66 2.18c.44.51 1.04.76 1.81.76.34 0 .7-.07 1.07-.2s.71-.35 1.02-.66l.53 1.15c-.33.32-.74.57-1.24.75s-.99.27-1.5.27Zm6.3-.15v-6.84h-2.85v-1.31h7.31v1.31h-2.86v6.84zm5.76 0v-8.15h4.06c.97 0 1.69.19 2.15.56s.7.9.7 1.58c0 .53-.17.97-.52 1.31-.35.35-.8.56-1.37.63v-.21c.67.03 1.2.23 1.58.6s.58.84.58 1.42c0 .7-.26 1.25-.78 1.66s-1.25.61-2.2.61h-4.21Zm1.52-4.68h2.38c.48 0 .85-.11 1.12-.32s.4-.51.4-.89-.13-.69-.4-.9-.64-.32-1.12-.32h-2.38zm0 3.62h2.56q.78 0 1.2-.33t.42-.96c0-.63-.14-.74-.42-.96-.28-.21-.68-.32-1.2-.32h-2.56zm11.09 1.21c-.8 0-1.49-.17-2.08-.51s-1.04-.83-1.36-1.46-.48-1.38-.48-2.26.16-1.63.48-2.26.77-1.12 1.36-1.46 1.28-.51 2.08-.51 1.5.17 2.09.51 1.05.83 1.38 1.46.49 1.38.49 2.26-.16 1.63-.49 2.26-.78 1.12-1.38 1.46c-.59.34-1.29.51-2.09.51m0-1.28c.7 0 1.26-.25 1.68-.74s.62-1.23.62-2.2-.21-1.7-.62-2.19-.98-.74-1.68-.74-1.25.25-1.66.74-.62 1.22-.62 2.19.21 1.7.62 2.2.97.74 1.67.74Zm10.13-2.65v-1.31h4.69v1.31zm11.68 3.78 5.54-10.63v.65h-6.18v-1.42h7.68v1.25l-5.22 10.16h-1.82Zm12.96.15a6.5 6.5 0 0 1-2.8-.62c-.42-.2-.78-.44-1.09-.72l.58-1.28c.51.4 1.04.7 1.58.9s1.11.3 1.7.3c.76 0 1.35-.2 1.78-.6s.65-.93.65-1.6-.21-1.25-.62-1.67c-.41-.43-.98-.64-1.7-.64-.5 0-.96.1-1.37.31s-.77.52-1.08.94h-1.15v-6.86h6.83v1.41h-5.25v4.11h-.42c.29-.41.67-.73 1.16-.96s1.03-.34 1.64-.34q1.08 0 1.89.45c.53.3.95.72 1.24 1.26s.44 1.18.44 1.91-.16 1.38-.49 1.93c-.33.56-.79.99-1.39 1.3s-1.31.47-2.14.47Zm10.13-.15v-8.15h1.34l2.91 5.21 2.91-5.21h1.34v8.15h-1.42v-6.33h.35l-2.8 5.02h-.77l-2.8-5.02h.35v6.33h-1.42Zm10.94 0v-8.15h1.6v3.33h1.39l2.51-3.33h1.76l-3.01 4.01-.4-.52c.31.03.58.11.8.23s.44.31.66.54c.21.24.43.55.66.94l1.68 2.95h-1.73l-1.44-2.49c-.16-.28-.32-.5-.46-.65a1.16 1.16 0 0 0-.51-.32c-.19-.06-.43-.09-.7-.09h-1.2v3.56h-1.6Zm8.9 3.5v-9.69c0-.31-.01-.63-.04-.96l-.09-.99h1.57l.16 1.84h-.18c.17-.61.51-1.1 1.03-1.46s1.13-.54 1.85-.54 1.34.17 1.87.51.95.82 1.24 1.45c.29.62.44 1.38.44 2.26s-.15 1.63-.44 2.26c-.29.64-.71 1.12-1.24 1.46s-1.16.5-1.87.5-1.31-.17-1.83-.53c-.52-.35-.86-.83-1.03-1.43h.18v5.31h-1.62Zm3.9-4.63c.7 0 1.27-.25 1.69-.74.42-.5.63-1.23.63-2.2s-.21-1.7-.63-2.19-.98-.74-1.69-.74-1.27.25-1.69.74q-.63.735-.63 2.19c0 1.455.21 1.7.63 2.2s.98.74 1.69.74m501.22-85.48 5.1-11.41h1.73l5.17 11.41h-2.1l-1.38-3.2.83.57h-6.77l.86-.57-1.38 3.2h-2.08Zm5.95-9.17-2.26 5.4-.42-.5h5.38l-.34.5-2.3-5.4zm10.85 9.34q-1.98 0-3.06-1.53c-.71-1.02-1.07-2.47-1.07-4.36s.36-3.36 1.07-4.35 1.73-1.49 3.06-1.49 2.35.5 3.06 1.49 1.06 2.44 1.06 4.34-.35 3.36-1.06 4.38q-1.065 1.53-3.06 1.53Zm0-1.71c.73 0 1.26-.34 1.62-1.01s.53-1.73.53-3.18-.18-2.49-.53-3.15-.89-.98-1.62-.98-1.25.33-1.61.98q-.54.975-.54 3.15c0 2.175.18 2.51.54 3.18s.89 1.01 1.61 1.01m-23.32 46.41v-2.36h-5.22v-1.2l5.49-7.85h1.34v7.73h1.68v1.31h-1.68v2.36h-1.62Zm0-3.67v-5.74h.37l-4.29 6.15v-.4h3.92Zm8.45 3.82c-1.3 0-2.3-.5-3-1.51s-1.05-2.46-1.05-4.34.35-3.37 1.05-4.36 1.7-1.48 3-1.48 2.31.49 3.01 1.48c.69.99 1.04 2.43 1.04 4.34s-.35 3.35-1.05 4.36-1.7 1.51-3 1.51m0-1.41q1.23 0 1.83-1.08c.4-.72.6-1.85.6-3.38s-.2-2.67-.6-3.37c-.4-.71-1.01-1.06-1.83-1.06s-1.42.35-1.82 1.06c-.41.71-.61 1.83-.61 3.36s.21 2.67.62 3.4c.41.72 1.02 1.08 1.82 1.08Zm9.6 1.41c-1.3 0-2.3-.5-3-1.51s-1.05-2.46-1.05-4.34.35-3.37 1.05-4.36 1.7-1.48 3-1.48 2.31.49 3.01 1.48c.69.99 1.04 2.43 1.04 4.34s-.35 3.35-1.05 4.36-1.7 1.51-3 1.51m0-1.41q1.23 0 1.83-1.08c.4-.72.6-1.85.6-3.38s-.2-2.67-.6-3.37c-.4-.71-1.01-1.06-1.83-1.06s-1.42.35-1.82 1.06c-.41.71-.61 1.83-.61 3.36s.21 2.67.62 3.4c.41.72 1.02 1.08 1.82 1.08Zm10.35 4.76v-9.69c0-.31-.01-.63-.04-.96l-.09-1h1.57l.16 1.85h-.18c.17-.62.51-1.1 1.03-1.46s1.13-.53 1.85-.53 1.34.17 1.87.51.95.82 1.24 1.45.44 1.38.44 2.27-.15 1.63-.44 2.27-.71 1.12-1.24 1.46c-.53.33-1.16.5-1.87.5s-1.31-.18-1.83-.53-.86-.83-1.03-1.43h.18V171h-1.62Zm3.9-4.63c.7 0 1.27-.25 1.69-.74.42-.5.63-1.23.63-2.2s-.21-1.7-.63-2.19-.98-.74-1.69-.74-1.27.25-1.69.74q-.63.735-.63 2.19c0 1.455.21 1.7.63 2.2s.98.74 1.69.74m5.44 1.13v-1.92h1.9v1.92z" style="fill:#27625f;stroke-width:0"/></g></svg>