<svg xmlns="http://www.w3.org/2000/svg" id="_Слой_2" data-name="Слой 2" viewBox="0 0 939.04 213.64"><defs><style>.cls-6,.cls-7{font-family:Mulish-SemiBold,Mulish;font-weight:600;fill:#27625f;font-size:16.18px}.cls-7{font-family:Mulish-Bold,Mulish;font-weight:700}.cls-9{letter-spacing:-.02em}</style></defs><g id="_Слой_1-2" data-name="Слой 1"><rect width="938.04" height="183.76" x=".5" y=".5" rx="10" ry="10" style="fill:#fff;stroke:#a0b6b5;stroke-miterlimit:10"/><path d="M.5 46.44h938.04M286.41 92.38h652.13M286.41 46.44v137.82m131.48-91.88v91.88m130.13-91.88v91.88m130.14-91.88v91.88m130.13-91.88v91.88M.5 138.32h938.04" style="stroke:#a0b6b5;stroke-miterlimit:10;fill:none"/><text class="cls-7" transform="matrix(.99 0 0 1 78.38 96.53)"><tspan x="0" y="0" style="letter-spacing:-.08em">Т</tspan><tspan x="8.75" y="0" style="letter-spacing:-.01em">о</tspan><tspan x="18.4" y="0">лщина плёнки</tspan></text><text class="cls-7" transform="matrix(.99 0 0 1 19.17 29.01)"><tspan x="0" y="0">Ламинирование</tspan></text><text class="cls-7" transform="matrix(.99 0 0 1 557.16 73.05)"><tspan x="0" y="0">Формат/Цена</tspan></text><text class="cls-7" transform="matrix(.99 0 0 1 341.07 122.61)"><tspan x="0" y="0">А4</tspan></text><text class="cls-6" transform="matrix(.99 0 0 1 333.39 167.48)"><tspan x="0" y="0">30 </tspan><tspan x="23.74" y="0" class="cls-9">р</tspan><tspan x="33.52" y="0">.</tspan></text><text class="cls-7" transform="matrix(.99 0 0 1 472.28 122.61)"><tspan x="0" y="0">А3</tspan></text><text class="cls-6" transform="matrix(.99 0 0 1 464.61 167.48)"><tspan x="0" y="0">40 </tspan><tspan x="23.74" y="0" class="cls-9">р</tspan><tspan x="33.52" y="0">.</tspan></text><text class="cls-7" transform="matrix(.99 0 0 1 601.67 122.61)"><tspan x="0" y="0">А2</tspan></text><text class="cls-6" transform="matrix(.99 0 0 1 594 167.48)"><tspan x="0" y="0">82 </tspan><tspan x="23.74" y="0" class="cls-9">р</tspan><tspan x="33.52" y="0">.</tspan></text><text class="cls-7" transform="matrix(.99 0 0 1 732.37 122.61)"><tspan x="0" y="0">А1</tspan></text><text class="cls-6" transform="matrix(.99 0 0 1 719.9 167.48)"><tspan x="0" y="0">200 </tspan><tspan x="33.44" y="0" class="cls-9">р</tspan><tspan x="43.23" y="0">.</tspan></text><text class="cls-6" transform="matrix(.99 0 0 1 16.52 209.22)"><tspan x="0" y="0">Опера</tspan><tspan x="51.5" y="0" style="letter-spacing:0">т</tspan><tspan x="59.02" y="0">о</tspan><tspan x="68.6" y="0" style="letter-spacing:0">р</tspan><tspan x="78.54" y="0">у - 200 мк</tspan><tspan x="156.49" y="0" class="cls-9">р</tspan><tspan x="166.28" y="0">, производство - 75 мкр</tspan></text><text class="cls-7" transform="matrix(.99 0 0 1 863.85 122.61)"><tspan x="0" y="0">А0</tspan></text><text class="cls-6" transform="matrix(.99 0 0 1 851.38 167.48)"><tspan x="0" y="0">400 </tspan><tspan x="33.44" y="0" class="cls-9">р</tspan><tspan x="43.23" y="0">.</tspan></text></g></svg>