<svg xmlns="http://www.w3.org/2000/svg" id="_Слой_2" data-name="Слой 2" viewBox="0 0 938.93 909.46"><defs><style>.cls-1{font-family:Mulish-Bold,Mulish;font-weight:700}.cls-1,.cls-2{fill:#27625f;font-size:16px}.cls-3{fill:#fff}.cls-3,.cls-4{stroke:#a0b6b5;stroke-miterlimit:10}.cls-5{letter-spacing:0}.cls-2{font-family:Mulish-SemiBold,Mulish;font-weight:600}.cls-6{letter-spacing:-.06em}.cls-9{letter-spacing:0}.cls-10{letter-spacing:-.07em}.cls-11,.cls-12{letter-spacing:0}.cls-13{letter-spacing:-.02em}.cls-14,.cls-16{letter-spacing:0}.cls-18{letter-spacing:-.06em}.cls-19{letter-spacing:-.02em}.cls-20{letter-spacing:-.01em}.cls-4{fill:none}</style></defs><g id="_Слой_1-2" data-name="Слой 1"><rect width="937.92" height="278.31" x=".5" y=".5" class="cls-3" rx="12.18" ry="12.18"/><path d="M938.42 139.12H.5m937.92-45.6H312.5m625.92-47.43H.5M938.42 230.3H.5m937.92-45.59H.5m312-138.48v232.58M625.46 93.52v185.29" class="cls-4"/><text class="cls-1" transform="translate(89.52 96.47)"><tspan x="0" y="0" class="cls-9">К</tspan><tspan x="10.91" y="0" class="cls-12">о</tspan><tspan x="20.45" y="0" class="cls-5">личесвокопий</tspan></text><text class="cls-1" transform="translate(14.2 27.62)"><tspan x="0" y="0">П</tspan><tspan x="12.35" y="0" style="letter-spacing:0">о</tspan><tspan x="21.89" y="0">лноцветная лазерная печать</tspan></text><text class="cls-1" transform="translate(124.32 164.55)"><tspan x="0" y="0">1-10 ш</tspan><tspan x="53.76" y="0" class="cls-10">т</tspan><tspan x="60.38" y="0">.</tspan></text><text class="cls-1" transform="translate(462.79 120.97)"><tspan x="0" y="0">А4</tspan></text><text class="cls-2" transform="translate(457.25 164.59)"><tspan x="0" y="0">30</tspan><tspan x="19.2" y="0" class="cls-19">р</tspan><tspan x="28.88" y="0">.</tspan></text><text class="cls-2" transform="translate(457.25 213.06)"><tspan x="0" y="0">25</tspan><tspan x="19.2" y="0" class="cls-19">р</tspan><tspan x="28.88" y="0">.</tspan></text><text class="cls-2" transform="translate(453.46 257.23)"><tspan x="0" y="0">23</tspan><tspan x="19.2" y="0" class="cls-19">р</tspan><tspan x="28.88" y="0">.</tspan></text><text class="cls-2" transform="translate(760.8 164.59)"><tspan x="0" y="0">60</tspan><tspan x="19.2" y="0" class="cls-19">р</tspan><tspan x="28.88" y="0">.</tspan></text><text class="cls-2" transform="translate(760.8 213.06)"><tspan x="0" y="0">50</tspan><tspan x="19.2" y="0" class="cls-19">р</tspan><tspan x="28.88" y="0">.</tspan></text><text class="cls-2" transform="translate(757.01 257.23)"><tspan x="0" y="0">46</tspan><tspan x="19.2" y="0" class="cls-19">р</tspan><tspan x="28.88" y="0">.</tspan></text><text class="cls-1" transform="translate(593.45 75.28)"><tspan x="0" y="0">Формат</tspan></text><text class="cls-1" transform="translate(766.34 124.15)"><tspan x="0" y="0">А3</tspan></text><text class="cls-1" transform="translate(114.72 213.02)"><tspan x="0" y="0">11-100 ш</tspan><tspan x="72.96" y="0" class="cls-10">т</tspan><tspan x="79.58" y="0">.</tspan></text><text class="cls-1" transform="translate(123.03 257.19)"><tspan x="0" y="0">&lt;100 ш</tspan><tspan x="56.35" y="0" style="letter-spacing:-.07em">т</tspan><tspan x="62.98" y="0" class="cls-16">.</tspan></text><rect width="937.92" height="587.38" x=".5" y="321.57" class="cls-3" rx="10" ry="10"/><path d="M938.42 411.94H427.81m510.61 45.18H.5m937.92-90.36H.5M938.42 502.3H.5m937.92 45.19H.5m937.92 45.18H.5m937.92 45.18H.5m937.92 45.19H.5m937.92 45.18H.5m937.92 45.18H.5m937.92 45.19H.5m937.92 45.18H.5m427.31-497.01v542.2m255.61-497.02v495.15" class="cls-4"/><text class="cls-1" transform="translate(199.68 411.94)"><tspan x="0" y="0">Вид</tspan></text><text class="cls-1" transform="translate(13.5 349.47)"><tspan x="0" y="0">С</tspan><tspan x="10.96" y="0" class="cls-11">т</tspan><tspan x="18.62" y="0">оимость </tspan><tspan x="88.46" y="0" class="cls-9">б</tspan><tspan x="98.05" y="0">умаги для п</tspan><tspan x="193.18" y="0" class="cls-20">о</tspan><tspan x="202.72" y="0">лноцветной лазерной печати</tspan></text><text class="cls-1" transform="translate(644.55 393.39)"><tspan x="0" y="0">Форимат</tspan></text><text class="cls-1" transform="translate(552.65 437.42)"><tspan x="0" y="0">А4</tspan></text><text class="cls-1" transform="translate(187.23 483.69)"><tspan x="0" y="0">120 г</tspan><tspan x="40.66" y="0" class="cls-18">/</tspan><tspan x="44.75" y="0">м</tspan></text><text class="cls-1" transform="translate(182.43 528.71)"><tspan x="0" y="0">160 г</tspan><tspan x="40.66" y="0" class="cls-6">/</tspan><tspan x="44.75" y="0">м3</tspan></text><text class="cls-1" transform="translate(187.23 620.09)"><tspan x="0" y="0">200 г</tspan><tspan x="40.66" y="0" class="cls-18">/</tspan><tspan x="44.75" y="0">м</tspan></text><text class="cls-1" transform="translate(187.23 665.42)"><tspan x="0" y="0">300 г</tspan><tspan x="40.66" y="0" class="cls-18">/</tspan><tspan x="44.75" y="0">м</tspan></text><text class="cls-1" transform="translate(115.14 711.25)"><tspan x="0" y="0" class="cls-20">С</tspan><tspan x="10.8" y="0" class="cls-5">амоклейка прозрачная</tspan></text><text class="cls-1" transform="translate(139.76 760.08)"><tspan x="0" y="0" class="cls-12">С</tspan><tspan x="10.8" y="0" class="cls-14">амоклейка белая</tspan></text><text class="cls-1" transform="translate(159.98 802.02)"><tspan x="0" y="0">Бумага «Лён»</tspan></text><text class="cls-1" transform="translate(77.83 846.6)"><tspan x="0" y="0">Дизайнерский кар</tspan><tspan x="151.36" y="0" class="cls-11">т</tspan><tspan x="159.02" y="0">он 250-300 г</tspan><tspan x="259.45" y="0" class="cls-6">/</tspan><tspan x="263.55" y="0">м</tspan></text><text class="cls-1" transform="translate(137.03 892.36)"><tspan x="0" y="0">Бумага </tspan><tspan x="63.25" y="0" style="letter-spacing:-.08em">T</tspan><tspan x="71.9" y="0" class="cls-14">ouch </tspan><tspan x="113.01" y="0" style="letter-spacing:-.03em">C</tspan><tspan x="123.41" y="0" class="cls-20">ov</tspan><tspan x="141.26" y="0">er</tspan></text><text class="cls-2" transform="translate(544.98 483.69)"><tspan x="0" y="0">16 </tspan><tspan x="23.47" y="0" class="cls-13">р</tspan><tspan x="33.15" y="0">.</tspan></text><text class="cls-2" transform="translate(544.98 528.71)"><tspan x="0" y="0">19 </tspan><tspan x="23.47" y="0" class="cls-13">р</tspan><tspan x="33.15" y="0">.</tspan></text><text class="cls-2" transform="translate(544.98 620.09)"><tspan x="0" y="0">21 </tspan><tspan x="23.47" y="0" class="cls-13">р</tspan><tspan x="33.15" y="0">.</tspan></text><text class="cls-2" transform="translate(544.98 665.46)"><tspan x="0" y="0">25 </tspan><tspan x="23.47" y="0" class="cls-13">р</tspan><tspan x="33.15" y="0">.</tspan></text><text class="cls-2" transform="translate(544.98 760.12)"><tspan x="0" y="0">30 </tspan><tspan x="23.47" y="0" class="cls-13">р</tspan><tspan x="33.15" y="0">.</tspan></text><text class="cls-2" transform="translate(544.98 802.06)"><tspan x="0" y="0">50 </tspan><tspan x="23.47" y="0" class="cls-13">р</tspan><tspan x="33.15" y="0">.</tspan></text><text class="cls-2" transform="translate(540.18 846.64)"><tspan x="0" y="0">100 </tspan><tspan x="33.07" y="0" class="cls-19">р</tspan><tspan x="42.75" y="0" class="cls-16">.</tspan></text><text class="cls-2" transform="translate(540.18 892.4)"><tspan x="0" y="0">150 </tspan><tspan x="33.07" y="0" class="cls-19">р</tspan><tspan x="42.75" y="0" class="cls-16">.</tspan></text><text class="cls-1" transform="translate(801.82 437.42)"><tspan x="0" y="0">А3</tspan></text><text class="cls-2" transform="translate(794.15 483.69)"><tspan x="0" y="0">27 </tspan><tspan x="23.47" y="0" class="cls-13">р</tspan><tspan x="33.15" y="0">.</tspan></text><text class="cls-2" transform="translate(794.15 528.71)"><tspan x="0" y="0">33 </tspan><tspan x="23.47" y="0" class="cls-13">р</tspan><tspan x="33.15" y="0">.</tspan></text><text class="cls-2" transform="translate(794.15 620.09)"><tspan x="0" y="0">37 </tspan><tspan x="23.47" y="0" class="cls-13">р</tspan><tspan x="33.15" y="0">.</tspan></text><text class="cls-2" transform="translate(794.15 665.46)"><tspan x="0" y="0">50 </tspan><tspan x="23.47" y="0" class="cls-13">р</tspan><tspan x="33.15" y="0">.</tspan></text><text class="cls-2" transform="translate(794.15 760.12)"><tspan x="0" y="0">60 </tspan><tspan x="23.47" y="0" class="cls-13">р</tspan><tspan x="33.15" y="0">.</tspan></text><text class="cls-2" transform="translate(789.35 802.06)"><tspan x="0" y="0">100 </tspan><tspan x="33.07" y="0" class="cls-19">р</tspan><tspan x="42.75" y="0" class="cls-16">.</tspan></text><text class="cls-2" transform="translate(789.35 846.64)"><tspan x="0" y="0">200 </tspan><tspan x="33.07" y="0" class="cls-19">р</tspan><tspan x="42.75" y="0" class="cls-16">.</tspan></text><text class="cls-2" transform="translate(789.35 892.4)"><tspan x="0" y="0">300 </tspan><tspan x="33.07" y="0" class="cls-19">р</tspan><tspan x="42.75" y="0" class="cls-16">.</tspan></text></g></svg>