<svg xmlns="http://www.w3.org/2000/svg" width="58" height="42" fill="none" viewBox="0 0 58 42"><path fill="#27625F" d="M41.315 11.898c0 .585-.154 1.213-.258 1.787a27 27 0 0 1-.544 2.401 26.6 26.6 0 0 1-2.406 5.915 26.9 26.9 0 0 1-7.45 8.52h.565c-5.861-4.352-9.772-11.079-10.633-18.33-.178-1.51.257-3.198.881-4.564a10.56 10.56 0 0 1 2.842-3.718c2.697-2.262 6.479-2.955 9.825-1.886 4.267 1.371 7.138 5.43 7.183 9.875.005.718 1.118.718 1.113 0-.04-4.202-2.346-8.157-6.083-10.142-3.455-1.837-7.722-1.777-11.118.163a11.56 11.56 0 0 0-5.677 8.435c-.208 1.564.054 3.079.386 4.613a28 28 0 0 0 1.985 5.866c1.96 4.223 5.004 7.87 8.736 10.643a.55.55 0 0 0 .565 0c5.187-3.851 8.954-9.42 10.523-15.697.307-1.223.683-2.618.683-3.886 0-.717-1.113-.717-1.113 0z"/><path fill="#27625F" d="M35.85 11.898c-.03 2.044-1.292 3.925-3.238 4.623a4.98 4.98 0 0 1-5.49-1.514c-1.316-1.604-1.454-3.881-.405-5.628 1.05-1.748 3.123-2.698 5.118-2.312 2.327.445 3.985 2.485 4.015 4.836.01.718 1.123.718 1.113 0-.034-2.505-1.569-4.752-3.92-5.648s-5.153-.148-6.752 1.807-1.836 4.752-.54 6.925c1.298 2.173 3.832 3.282 6.307 2.836 2.841-.51 4.866-3.079 4.905-5.92.01-.718-1.103-.718-1.113 0z"/><path fill="#27625F" d="M40.42 19.467c2.331-1.119 4.663-2.232 6.994-3.351l-.43.054 2.663.703c.188.05.406 0 .54-.143l1.35-1.446.852-.906c.08-.084.208-.183.267-.287.124-.208-.074.114-.148.065.109.069.628-.09.747-.11l1.376-.197c.639-.09 1.272-.183 1.911-.273l-.629-.257.634 1.282v-.564l-.53.777c-.178.262-.5.589-.455.93.035.293.257.614.376.872l.416.886-.055-.43-1.603 5.147c-.09.282-.198.515-.114.812.114.391.356.782.524 1.153l.317.693c.03.065.055.159.1.218.108.144-.07-.178-.045-.198-.11.084-.035.926-.04 1.06l-.109 3.083.95-.396c-.806-.92-1.559-1.98-2.46-2.811-.212-.198.114.123.06.148 0 0-.055-.188-.055-.193-.074-.337-.193-.673-.292-1.005l-.52-1.797c-.163-.564-.88-.49-1.074 0l-.752 1.94.258-.33-1.946.994c-.505.258-1.534.545-1.772 1.109-.277.668-.41 1.435-.609 2.128l-.579 2.02a.562.562 0 0 0 .535.703h1.717l-.48-.277.995 1.886.639 1.212c.044.085.089.228.158.297.094.095 0-.311-.05-.168-.059.173 0 .485 0 .668v6.267l.837-.48-3.242-1.475.277.48.193-3.465c.02-.371-.371-.624-.703-.535-.56.144-1.114.292-1.673.436l.43.054-2.806-2.064c-.292-.213-.609-.554-.985-.574-.53-.03-1.119.114-1.648.163a.58.58 0 0 0-.535.411l-.891 2.352.391-.392-2.148.669c-.381.119-.802.208-1.173.366-.332.144.094-.07.118.05 0-.02-.173-.06-.193-.065-.777-.331-1.623-.554-2.425-.826-.802-.273-1.624-.58-2.445-.837-.664-.208-1.396.416-1.966.723h.565c-.654-.287-1.535-.906-2.258-.738-.895.208-1.781.456-2.672.683l.43.055-1.223-.787-.826-.53c-.065-.044-.168-.139-.243-.153-.128-.03.129.138.129.133.03-.074-.223-.45-.257-.524l-.456-.926-.623-1.272a.54.54 0 0 0-.48-.277l-1.406.069.534.41-.361-1.514a.57.57 0 0 0-.391-.391l-3.683-.812c-.47-.104-.743-.129-1.149.173l-1.534 1.144.673.089c-1.03-.851-2.054-1.713-3.089-2.554-.44-.357-.925-.223-1.465-.193l-2.04.114c-.425.024-.687.455-.48.836.298.56.6 1.114.897 1.673l.198-.762c-.659.277-1.376.485-1.93.945L4.22 33.07l.877.114c-.857-1.243-1.708-2.485-2.565-3.728l-.673-.975c-.06-.084-.277-.525-.38-.555.108.03.009.411.068.11.035-.194.02-.407.03-.605l.06-1.113-.837.48c.416.252.832.52 1.257.757.327.183.56.149.906.05.906-.258 1.817-.52 2.723-.777a.573.573 0 0 0 .39-.683l-.37-1.634-.283-1.232c-.015-.065-.079-.6-.143-.63.05.02-.055.427.015.174.034-.119.04-.252.059-.376l.183-1.148c.094-.585.183-1.169.277-1.758l-.257.332 1.826-.891c.659-.322 1.421-.59 2.035-.99.614-.401 1.04-1.08 1.525-1.58.386-.4.816-.761 1.227-1.138q.95-.87 1.9-1.732h-.786c.574.475 1.143.955 1.717 1.43l-.143-.54-.772 2.565a.57.57 0 0 0 .257.629c.54.321 1.08.648 1.624.97s1.193.376 1.816.5l3.95.772c.698.139 1-.936.297-1.074-1.237-.243-2.48-.48-3.717-.723-.633-.124-1.302-.188-1.876-.49-.52-.277-1.02-.609-1.53-.91l.258.628.772-2.564c.055-.178 0-.421-.143-.54-.575-.475-1.144-.955-1.718-1.43-.238-.198-.55-.218-.787 0-.946.861-1.896 1.722-2.841 2.593-.357.327-.674.694-1.005 1.045-.213.223-.421.45-.634.673-.124.129.139-.074.03-.02-.084.045-.174.084-.263.129L6.448 18.22c-.46.222-1.02.41-1.446.703-.425.292-.396 1.197-.47 1.668-.104.663-.252 1.336-.317 2.004-.054.57.184 1.193.312 1.743.159.703.322 1.406.48 2.113l.391-.683-3.054.872.431.054-1.4-.846c-.377-.228-.818.069-.837.48l-.06 1.113c-.02.327-.109.728.04 1.035.232.495.663.96.97 1.41l2.658 3.862c.218.312.584.351.876.114l2.045-1.703c.089-.074.178-.168.272-.228-.267.163.218-.054.277-.08l1.218-.514c.282-.119.326-.525.198-.762-.297-.56-.6-1.114-.896-1.673l-.48.836 3.004-.168-.396-.163q1.597 1.318 3.193 2.638c.173.143.465.242.673.09l1.817-1.357-.43.054 4.118.906-.391-.391.361 1.515c.055.227.302.42.535.41l1.405-.069-.48-.277c.377.762.748 1.525 1.124 2.287.134.272.213.5.455.688.337.262.738.475 1.1.703.36.228.752.54 1.153.742.306.154.514.1.821.02l2.535-.643-.431-.055c.56.248 1.129.59 1.713.758s1.366-.495 1.851-.758l-.43.055q2.487.845 4.974 1.698c.609.208 1.154-.085 1.748-.273l1.608-.505c.277-.084.738-.148.95-.36.278-.278.392-.902.525-1.253l.51-1.347-.534.411 1.014-.104c.144-.015.436.01.565-.054.138-.07-.193-.144-.134-.045.124.198.52.381.703.52l1.178.866c.49.362 1 .867 1.544 1.134.322.158.708-.015 1.03-.1l1.074-.276-.703-.535-.193 3.465c-.01.178.11.406.277.48 1.08.49 2.164.985 3.243 1.475.37.169.836-.025.836-.48v-4.707c0-.728.03-1.46 0-2.188-.02-.515-.42-1.03-.648-1.47-.416-.788-.827-1.575-1.243-2.357a.55.55 0 0 0-.48-.277h-1.717l.534.703 1.188-4.153-.257.332q1.55-.795 3.108-1.59c.401-.202.565-.39.728-.816.213-.545.42-1.09.634-1.639h-1.075q.267.93.54 1.857c.139.47.213 1.05.52 1.44.772.995 1.668 1.91 2.5 2.861.331.381.935.06.95-.396l.133-3.707c.035-.995-.598-1.906-1.004-2.797l.054.43 1.292-4.143c.144-.465.371-.965.45-1.45.055-.341-.178-.683-.316-.985l-.466-.995v.564c.307-.45.614-.905.921-1.356.114-.168.084-.39 0-.564l-.634-1.282c-.118-.243-.396-.287-.628-.258l-1.97.283c-.659.094-1.46.084-2.09.297-.524.178-.999.94-1.355 1.321l-1.436 1.535.54-.144-2.248-.594c-.311-.084-.54-.173-.851-.05-.149.055-.292.14-.436.209l-4.95 2.37q-.801.388-1.604.768c-.648.312-.084 1.272.565.96z"/></svg>