<svg xmlns="http://www.w3.org/2000/svg" id="_Слой_2" data-name="Слой 2" viewBox="0 0 938.57 368.51"><defs><style>.cls-1,.cls-2{font-family:Mulish-Bold,Mulish;font-weight:700;fill:#27625f;font-size:16px}.cls-2{font-family:Mulish-SemiBold,Mulish;font-weight:600}.cls-6{letter-spacing:-.07em}.cls-7{letter-spacing:-.02em}.cls-9{letter-spacing:0}.cls-11{letter-spacing:-.02em}.cls-12{letter-spacing:0}.cls-13{letter-spacing:-.02em}</style></defs><g id="_Слой_1-2" data-name="Слой 1"><rect width="937.57" height="367.51" x=".5" y=".5" rx="10" ry="10" style="fill:#fff;stroke:#a0b6b5;stroke-miterlimit:10"/><path d="M.5 46.44h937.57m-806.87 0v321.57M246.46 46.44v321.57M361.72 46.44v321.57M476.98 46.44v321.57M592.24 46.44v321.57M707.5 46.44v321.57M822.76 46.44v321.57M.5 92.38h937.57M.5 138.32h937.57M.5 184.26h937.57M.5 230.2h937.57M.5 276.13h937.57M.5 322.07h937.57" style="stroke:#a0b6b5;stroke-miterlimit:10;fill:none"/><text class="cls-1" transform="translate(36.84 74.63)"><tspan x="0" y="0" style="letter-spacing:-.01em">Р</tspan><tspan x="10.45" y="0" style="letter-spacing:0">азмер</tspan></text><text class="cls-1" transform="translate(29.47 119.67)"><tspan x="0" y="0">55х55 мм</tspan></text><text class="cls-1" transform="translate(29.47 164.48)"><tspan x="0" y="0">50х80 мм</tspan></text><text class="cls-1" transform="translate(24.67 211)"><tspan x="0" y="0">70х100 мм</tspan></text><text class="cls-1" transform="translate(19.87 257.74)"><tspan x="0" y="0">100х150 мм</tspan></text><text class="cls-1" transform="translate(19.87 304.18)"><tspan x="0" y="0">150х200 мм</tspan></text><text class="cls-1" transform="translate(19.87 349.61)"><tspan x="0" y="0">200х300 мм</tspan></text><text class="cls-1" transform="translate(156.44 74.63)"><tspan x="0" y="0">1-49 ш</tspan><tspan x="53.76" y="0" class="cls-6">т</tspan><tspan x="60.38" y="0">.</tspan></text><text class="cls-2" transform="translate(170.14 119.67)"><tspan x="0" y="0">34 </tspan><tspan x="23.47" y="0" class="cls-7">р</tspan><tspan x="33.15" y="0">.</tspan></text><text class="cls-2" transform="translate(170.14 164.48)"><tspan x="0" y="0">43 </tspan><tspan x="23.47" y="0" class="cls-7">р</tspan><tspan x="33.15" y="0">.</tspan></text><text class="cls-2" transform="translate(170.14 211)"><tspan x="0" y="0">51 </tspan><tspan x="23.47" y="0" class="cls-7">р</tspan><tspan x="33.15" y="0">.</tspan></text><text class="cls-2" transform="translate(170.14 257.74)"><tspan x="0" y="0">85 </tspan><tspan x="23.47" y="0" class="cls-7">р</tspan><tspan x="33.15" y="0">.</tspan></text><text class="cls-2" transform="translate(165.34 304.18)"><tspan x="0" y="0">169 </tspan><tspan x="33.07" y="0" class="cls-13">р</tspan><tspan x="42.75" y="0" class="cls-9">.</tspan></text><text class="cls-2" transform="translate(165.34 349.61)"><tspan x="0" y="0">338 </tspan><tspan x="33.07" y="0" class="cls-13">р</tspan><tspan x="42.75" y="0" class="cls-9">.</tspan></text><text class="cls-1" transform="translate(267.99 74.63)"><tspan x="0" y="0">50-90 ш</tspan><tspan x="63.36" y="0" style="letter-spacing:-.07em">т</tspan><tspan x="69.98" y="0" class="cls-9">.</tspan></text><text class="cls-2" transform="translate(286.49 119.67)"><tspan x="0" y="0">20 </tspan><tspan x="23.47" y="0" class="cls-7">р</tspan><tspan x="33.15" y="0">.</tspan></text><text class="cls-2" transform="translate(286.49 164.48)"><tspan x="0" y="0">27 </tspan><tspan x="23.47" y="0" class="cls-7">р</tspan><tspan x="33.15" y="0">.</tspan></text><text class="cls-2" transform="translate(286.49 211)"><tspan x="0" y="0">38 </tspan><tspan x="23.47" y="0" class="cls-7">р</tspan><tspan x="33.15" y="0">.</tspan></text><text class="cls-2" transform="translate(286.49 257.74)"><tspan x="0" y="0">66 </tspan><tspan x="23.47" y="0" class="cls-7">р</tspan><tspan x="33.15" y="0">.</tspan></text><text class="cls-2" transform="translate(275 304.18)"><tspan x="0" y="0">127,5 </tspan><tspan x="46.46" y="0" class="cls-11">р</tspan><tspan x="56.14" y="0">.</tspan></text><text class="cls-2" transform="translate(275 349.61)"><tspan x="0" y="0">253,5 </tspan><tspan x="46.46" y="0" class="cls-11">р</tspan><tspan x="56.14" y="0">.</tspan></text><text class="cls-1" transform="translate(372.08 74.63)"><tspan x="0" y="0">100-199 ш</tspan><tspan x="82.56" y="0" class="cls-6">т</tspan><tspan x="89.18" y="0">.</tspan></text><text class="cls-2" transform="translate(393.49 119.67)"><tspan x="0" y="0">15,6 </tspan><tspan x="36.86" y="0" class="cls-7">р</tspan><tspan x="46.54" y="0" class="cls-12">.</tspan></text><text class="cls-2" transform="translate(393.49 164.48)"><tspan x="0" y="0">21,5 </tspan><tspan x="36.86" y="0" class="cls-7">р</tspan><tspan x="46.54" y="0" class="cls-12">.</tspan></text><text class="cls-2" transform="translate(400.19 211)"><tspan x="0" y="0">30 </tspan><tspan x="23.47" y="0" class="cls-7">р</tspan><tspan x="33.15" y="0">.</tspan></text><text class="cls-2" transform="translate(400.19 257.74)"><tspan x="0" y="0">60 </tspan><tspan x="23.47" y="0" class="cls-7">р</tspan><tspan x="33.15" y="0">.</tspan></text><text class="cls-2" transform="translate(388.69 304.18)"><tspan x="0" y="0">110,5 </tspan><tspan x="46.46" y="0" class="cls-11">р</tspan><tspan x="56.14" y="0">.</tspan></text><text class="cls-2" transform="translate(395.39 349.61)"><tspan x="0" y="0">212 </tspan><tspan x="33.07" y="0" class="cls-13">р</tspan><tspan x="42.75" y="0" class="cls-9">.</tspan></text><text class="cls-1" transform="translate(488.43 74.63)"><tspan x="0" y="0">200-499 ш</tspan><tspan x="82.56" y="0" class="cls-6">т</tspan><tspan x="89.18" y="0">.</tspan></text><text class="cls-2" transform="translate(509.84 119.67)"><tspan x="0" y="0">14,5 </tspan><tspan x="36.86" y="0" class="cls-7">р</tspan><tspan x="46.54" y="0" class="cls-12">.</tspan></text><text class="cls-2" transform="translate(509.84 164.48)"><tspan x="0" y="0">18,5 </tspan><tspan x="36.86" y="0" class="cls-7">р</tspan><tspan x="46.54" y="0" class="cls-12">.</tspan></text><text class="cls-2" transform="translate(509.84 211)"><tspan x="0" y="0">27,5 </tspan><tspan x="36.86" y="0" class="cls-7">р</tspan><tspan x="46.54" y="0" class="cls-12">.</tspan></text><text class="cls-2" transform="translate(516.54 257.74)"><tspan x="0" y="0">49 </tspan><tspan x="23.47" y="0" class="cls-7">р</tspan><tspan x="33.15" y="0">.</tspan></text><text class="cls-2" transform="translate(505.04 304.18)"><tspan x="0" y="0">101,5 </tspan><tspan x="46.46" y="0" class="cls-11">р</tspan><tspan x="56.14" y="0">.</tspan></text><text class="cls-2" transform="translate(511.74 349.61)"><tspan x="0" y="0">169 </tspan><tspan x="33.07" y="0" class="cls-13">р</tspan><tspan x="42.75" y="0" class="cls-9">.</tspan></text><text class="cls-1" transform="translate(603.78 74.63)"><tspan x="0" y="0">500-999 ш</tspan><tspan x="82.56" y="0" class="cls-6">т</tspan><tspan x="89.18" y="0">.</tspan></text><text class="cls-2" transform="translate(631.88 119.67)"><tspan x="0" y="0">11 </tspan><tspan x="23.47" y="0" class="cls-7">р</tspan><tspan x="33.15" y="0">.</tspan></text><text class="cls-2" transform="translate(625.19 164.48)"><tspan x="0" y="0">15,5 </tspan><tspan x="36.86" y="0" class="cls-7">р</tspan><tspan x="46.54" y="0" class="cls-12">.</tspan></text><text class="cls-2" transform="translate(631.88 211)"><tspan x="0" y="0">22 </tspan><tspan x="23.47" y="0" class="cls-7">р</tspan><tspan x="33.15" y="0">.</tspan></text><text class="cls-2" transform="translate(631.88 257.74)"><tspan x="0" y="0">36 </tspan><tspan x="23.47" y="0" class="cls-7">р</tspan><tspan x="33.15" y="0">.</tspan></text><text class="cls-2" transform="translate(631.88 304.18)"><tspan x="0" y="0">93 </tspan><tspan x="23.47" y="0" class="cls-7">р</tspan><tspan x="33.15" y="0">.</tspan></text><text class="cls-2" transform="translate(627.08 349.61)"><tspan x="0" y="0">161 </tspan><tspan x="33.07" y="0" class="cls-13">р</tspan><tspan x="42.75" y="0" class="cls-9">.</tspan></text><text class="cls-1" transform="translate(709.48 74.63)"><tspan x="0" y="0">1000-2499 ш</tspan><tspan x="101.76" y="0" style="letter-spacing:-.07em">т</tspan><tspan x="108.38" y="0" class="cls-12">.</tspan></text><text class="cls-2" transform="translate(745.29 119.67)"><tspan x="0" y="0">7,8 </tspan><tspan x="27.26" y="0" class="cls-11">р</tspan><tspan x="36.94" y="0">.</tspan></text><text class="cls-2" transform="translate(740.49 164.48)"><tspan x="0" y="0">12,5 </tspan><tspan x="36.86" y="0" class="cls-7">р</tspan><tspan x="46.54" y="0" class="cls-12">.</tspan></text><text class="cls-2" transform="translate(740.49 211)"><tspan x="0" y="0">16,5 </tspan><tspan x="36.86" y="0" class="cls-7">р</tspan><tspan x="46.54" y="0" class="cls-12">.</tspan></text><text class="cls-2" transform="translate(747.19 257.74)"><tspan x="0" y="0">30 </tspan><tspan x="23.47" y="0" class="cls-7">р</tspan><tspan x="33.15" y="0">.</tspan></text><text class="cls-2" transform="translate(747.19 304.18)"><tspan x="0" y="0">85 </tspan><tspan x="23.47" y="0" class="cls-7">р</tspan><tspan x="33.15" y="0">.</tspan></text><text class="cls-2" transform="translate(742.39 349.61)"><tspan x="0" y="0">152 </tspan><tspan x="33.07" y="0" class="cls-13">р</tspan><tspan x="42.75" y="0" class="cls-9">.</tspan></text><text class="cls-1" transform="translate(842.69 74.63)"><tspan x="0" y="0">&lt;2500 ш</tspan><tspan x="65.95" y="0" class="cls-6">т</tspan><tspan x="72.58" y="0">.</tspan></text><text class="cls-2" transform="translate(860.6 119.67)"><tspan x="0" y="0">6,8 </tspan><tspan x="27.26" y="0" class="cls-11">р</tspan><tspan x="36.94" y="0">.</tspan></text><text class="cls-2" transform="translate(862.49 164.48)"><tspan x="0" y="0">10 </tspan><tspan x="23.47" y="0" class="cls-7">р</tspan><tspan x="33.15" y="0">.</tspan></text><text class="cls-2" transform="translate(855.8 211)"><tspan x="0" y="0">13,7 </tspan><tspan x="36.86" y="0" class="cls-7">р</tspan><tspan x="46.54" y="0" class="cls-12">.</tspan></text><text class="cls-2" transform="translate(855.8 257.74)"><tspan x="0" y="0">27,5 </tspan><tspan x="36.86" y="0" class="cls-7">р</tspan><tspan x="46.54" y="0" class="cls-12">.</tspan></text><text class="cls-2" transform="translate(862.49 304.18)"><tspan x="0" y="0">76 </tspan><tspan x="23.47" y="0" class="cls-7">р</tspan><tspan x="33.15" y="0">.</tspan></text><text class="cls-2" transform="translate(851 349.61)"><tspan x="0" y="0">143,5 </tspan><tspan x="46.46" y="0" class="cls-11">р</tspan><tspan x="56.14" y="0">.</tspan></text><text class="cls-1" transform="translate(17.56 29.19)"><tspan x="0" y="0">Магнитный винил</tspan></text></g></svg>