<svg xmlns="http://www.w3.org/2000/svg" data-name="Слой 2" viewBox="0 0 938.93 230.7"><g data-name="Слой 1"><rect width="937.93" height="229.7" x=".5" y=".5" rx="10" ry="10" style="fill:#fff;stroke:#a0b6b5;stroke-miterlimit:10"/><path d="M938.43 92.38H.5M199.89 230.2V46.44M381.63 230.2V46.44m175.7 183.76V46.44m-87.87 91.88V92.38M652.6 230.2V92.38m95.28 137.82V92.38m95.27 137.82V92.38m95.28 45.94H.5m937.93-91.88H.5m937.93 137.82H.5m937.93 0H.5" style="stroke:#a0b6b5;stroke-miterlimit:10;fill:none"/><path d="M38.97 73.17V61.89h4.94c1.23 0 2.17.26 2.83.78s.99 1.23.99 2.15c0 .68-.2 1.26-.61 1.73s-.97.79-1.68.94v-.24c.82.12 1.46.41 1.91.89s.68 1.1.68 1.88c0 1-.35 1.78-1.04 2.33s-1.66.82-2.9.82h-5.14Zm1.98-6.5h2.61c.74 0 1.28-.14 1.64-.41s.54-.67.54-1.21-.18-.94-.54-1.21-.9-.41-1.64-.41h-2.61v3.23Zm0 4.93h2.91q1.035 0 1.62-.39c.38-.26.58-.69.58-1.29s-.19-1.04-.58-1.3q-.57-.39-1.62-.39h-2.91v3.38Zm8.95 1.57v-8.08h1.81v6.11h-.48l4.59-6.11h1.65v8.08h-1.81v-6.13h.5l-4.61 6.13zm9.12 2.08v-3.6h.93c.32-.5.55-1.09.7-1.77.14-.68.22-1.51.22-2.49v-2.3h6.22v6.56h1.31v3.6h-1.7v-2.08h-5.98v2.08zm2.72-3.58h3.47V66.6h-2.66v1.25q0 1.065-.21 2.1c-.14.68-.34 1.26-.61 1.73Zm12.51 1.5v-8.08h1.66l2.78 4.83 2.78-4.83h1.66v8.08h-1.76v-5.84h.37l-2.59 4.53h-.93l-2.59-4.53H76v5.84h-1.76Zm14.35.16c-.7 0-1.32-.17-1.86-.5-.53-.34-.95-.82-1.25-1.45s-.45-1.38-.45-2.26.15-1.62.45-2.25c.3-.62.71-1.1 1.25-1.44s1.15-.5 1.86-.5 1.28.17 1.8.5c.52.34.86.79 1.03 1.35h-.18l.18-1.7h1.92l-.09 1.01c-.03.34-.04.68-.04 1.01v6.06h-1.98l-.02-1.66h.19c-.17.55-.52 1-1.04 1.33s-1.11.5-1.78.5Zm.56-1.54c.63 0 1.14-.22 1.52-.66s.58-1.11.58-2.01-.19-1.56-.58-2c-.38-.44-.89-.66-1.52-.66s-1.14.22-1.52.66-.58 1.1-.58 2 .19 1.57.57 2.01q.57.66 1.53.66m8.15 1.38v-6.51h-2.77v-1.57h7.54v1.57H99.3v6.51h-1.98Zm9.89.16c-1.36 0-2.42-.37-3.18-1.12-.77-.75-1.15-1.77-1.15-3.07 0-.84.17-1.58.5-2.21q.495-.945 1.38-1.47c.59-.35 1.28-.53 2.07-.53s1.43.17 1.95.5.92.79 1.19 1.39.41 1.3.41 2.1v.53h-5.89v-1.06h4.46l-.27.22c0-.75-.16-1.32-.47-1.71-.32-.39-.77-.59-1.37-.59-.66 0-1.17.23-1.53.7s-.54 1.12-.54 1.97v.21c0 .88.22 1.53.65 1.96s1.04.65 1.83.65q.69 0 1.29-.18t1.14-.6l.59 1.34q-.57.465-1.38.72c-.81.255-1.1.26-1.7.26Zm5.08 3.29V67.1c0-.33-.01-.67-.03-1.01s-.05-.68-.1-1.01h1.94l.18 1.7h-.18c.16-.56.5-1.02 1.02-1.35.52-.34 1.12-.5 1.8-.5s1.34.17 1.87.5c.53.34.95.82 1.25 1.44q.45.93.45 2.25c0 1.32-.15 1.63-.45 2.26s-.71 1.11-1.25 1.45c-.53.34-1.16.5-1.87.5-.67 0-1.26-.17-1.78-.5-.51-.33-.85-.77-1.02-1.33h.18v5.12h-2Zm4.06-4.83c.64 0 1.15-.22 1.54-.66.38-.44.58-1.11.58-2.01s-.19-1.56-.58-2-.9-.66-1.54-.66-1.14.22-1.52.66-.58 1.1-.58 2 .19 1.57.58 2.01c.38.44.89.66 1.52.66m6.02 1.38v-8.08h1.81v6.11h-.48l4.59-6.11h1.65v8.08h-1.81v-6.13h.5l-4.61 6.13zm13.03.16c-.7 0-1.32-.17-1.86-.5-.53-.34-.95-.82-1.25-1.45s-.45-1.38-.45-2.26.15-1.62.45-2.25c.3-.62.71-1.1 1.25-1.44s1.15-.5 1.86-.5 1.28.17 1.8.5.86.79 1.03 1.35h-.18l.18-1.7h1.92l-.09 1.01c-.03.34-.04.68-.04 1.01v6.06h-1.98l-.02-1.66h.19c-.17.55-.52 1-1.04 1.33s-1.11.5-1.78.5Zm.56-1.54c.63 0 1.14-.22 1.52-.66s.58-1.11.58-2.01-.19-1.56-.58-2c-.38-.44-.89-.66-1.52-.66s-1.14.22-1.52.66-.58 1.1-.58 2 .19 1.57.57 2.01q.57.66 1.53.66m6.19 1.6-.62-1.57c.35-.13.65-.3.89-.5.24-.21.43-.47.58-.8.14-.33.25-.73.31-1.22s.1-1.06.1-1.74v-2.48h6.43v8.08h-1.98v-6.54h-2.62v1.01c0 1.16-.11 2.14-.32 2.92-.21.79-.54 1.41-.99 1.87s-1.04.78-1.76.98Zm13.14-.06c-.7 0-1.32-.17-1.86-.5-.53-.34-.95-.82-1.25-1.45s-.45-1.38-.45-2.26.15-1.62.45-2.25c.3-.62.71-1.1 1.25-1.44s1.15-.5 1.86-.5 1.28.17 1.8.5.86.79 1.03 1.35h-.18l.18-1.7h1.92l-.09 1.01c-.03.34-.04.68-.04 1.01v6.06h-1.98l-.02-1.66h.19c-.17.55-.52 1-1.04 1.33s-1.11.5-1.78.5Zm.56-1.54c.63 0 1.14-.22 1.52-.66s.58-1.11.58-2.01-.19-1.56-.58-2c-.38-.44-.89-.66-1.52-.66s-1.14.22-1.52.66-.58 1.1-.58 2 .19 1.57.57 2.01q.57.66 1.53.66M18.58 28.61V17.33h9.87v11.28H26.4v-9.6h-5.79v9.6zm12.04.22L30 27.26c.35-.13.65-.29.89-.5s.43-.47.58-.8c.14-.33.25-.73.31-1.22.06-.48.1-1.06.1-1.74v-2.48h6.43v8.08h-1.98v-6.54h-2.62v1.01c0 1.16-.11 2.14-.32 2.92s-.54 1.41-.99 1.86c-.45.46-1.03.78-1.76.98Zm13.13-.06c-.7 0-1.32-.17-1.86-.5-.53-.34-.95-.82-1.25-1.45s-.45-1.38-.45-2.26.15-1.62.45-2.25c.3-.62.71-1.1 1.25-1.44s1.15-.5 1.86-.5 1.28.17 1.8.5c.52.34.86.79 1.03 1.35h-.18l.18-1.7h1.92l-.09 1.01c-.03.34-.04.68-.04 1.01v6.06h-1.98l-.02-1.66h.19c-.17.55-.52 1-1.04 1.33s-1.11.5-1.78.5Zm.56-1.54c.63 0 1.14-.22 1.52-.66s.58-1.11.58-2.01-.19-1.56-.58-2c-.38-.44-.89-.66-1.52-.66s-1.14.22-1.52.66-.58 1.1-.58 2 .19 1.57.57 2.01q.57.66 1.53.66m6.4 1.38v-8.08h1.98v3.17h3.65v-3.17h1.98v8.08h-1.98v-3.38h-3.65v3.38zm9.89 0v-8.08h1.87v6.54h2.85v-6.54h1.86v6.54h2.85v-6.54h1.87v8.08zm17.54.16c-1.35 0-2.42-.37-3.18-1.12s-1.15-1.77-1.15-3.07c0-.84.17-1.58.5-2.21q.495-.945 1.38-1.47c.59-.35 1.28-.53 2.07-.53s1.43.17 1.95.5.92.79 1.19 1.39.41 1.3.41 2.1v.53h-5.89v-1.06h4.46l-.27.22c0-.75-.16-1.32-.47-1.71s-.77-.59-1.37-.59c-.66 0-1.17.23-1.53.7s-.54 1.13-.54 1.97v.21c0 .87.22 1.53.65 1.96s1.04.65 1.83.65q.69 0 1.29-.18c.6-.18.78-.32 1.14-.6l.59 1.34q-.57.465-1.38.72c-.53.17-1.1.26-1.7.26Zm6.76-.16V22.1h-2.77v-1.57h7.54v1.57h-2.78v6.51h-1.98Zm6 0v-8.08h1.98v2.7h2.13c1.08 0 1.89.23 2.43.68s.82 1.11.82 1.96c0 .55-.13 1.04-.38 1.45s-.63.73-1.11.95-1.07.34-1.75.34h-4.11Zm1.98-1.31h1.86c.54 0 .96-.12 1.25-.34.29-.23.43-.58.43-1.05s-.14-.81-.42-1.03q-.42-.33-1.26-.33h-1.86zm6.38 1.31v-8.08h1.98v8.08zm4.97 2.13-.82-.64c.34-.35.58-.68.71-.98s.2-.63.2-.97l.43.46h-1.5v-2.22h2.24v1.47c0 .54-.09 1.04-.28 1.5-.19.45-.51.92-.98 1.38m9.39-2.13V22.1h-2.77v-1.57h7.54v1.57h-2.78v6.51h-1.98Zm9.19.16c-.7 0-1.32-.17-1.86-.5-.53-.34-.95-.82-1.25-1.45s-.45-1.38-.45-2.26.15-1.62.45-2.25.71-1.1 1.25-1.44 1.15-.5 1.86-.5 1.28.17 1.8.5c.52.34.86.79 1.03 1.35h-.18l.18-1.7h1.92l-.09 1.01c-.03.34-.04.68-.04 1.01v6.06h-1.98l-.02-1.66h.19c-.17.55-.52 1-1.04 1.33s-1.11.5-1.78.5Zm.56-1.54c.63 0 1.14-.22 1.52-.66s.58-1.11.58-2.01-.19-1.56-.58-2c-.38-.44-.89-.66-1.52-.66s-1.14.22-1.52.66-.58 1.1-.58 2 .19 1.57.57 2.01q.57.66 1.53.66m10.19 1.54c-1.27 0-2.28-.38-3.03-1.15s-1.13-1.89-1.13-3.38v-1.38c0-1.52.35-2.75 1.04-3.68s1.74-1.54 3.14-1.84l2.96-.67.54 1.57-3.33.74q-.825.18-1.38.66c-.36.33-.63.71-.82 1.16q-.27.675-.27 1.44v.85h-.27c.12-.48.32-.9.59-1.26s.63-.64 1.06-.84.91-.3 1.46-.3c.68 0 1.28.16 1.8.47s.93.77 1.22 1.36c.3.59.45 1.3.45 2.12s-.17 1.57-.5 2.19c-.34.62-.81 1.1-1.41 1.43-.6.34-1.31.5-2.12.5Zm-.06-1.52c.66 0 1.18-.21 1.54-.63.37-.42.55-1.05.55-1.9s-.19-1.45-.56-1.88-.89-.65-1.54-.65-1.16.21-1.54.64c-.37.43-.56 1.04-.56 1.82 0 .86.19 1.51.56 1.94s.89.65 1.54.65Zm5.61 1.58-.62-1.57c.35-.13.65-.29.89-.5s.43-.47.58-.8c.14-.33.25-.73.31-1.22.06-.48.1-1.06.1-1.74v-2.48h6.43v8.08h-1.98v-6.54h-2.62v1.01c0 1.16-.11 2.14-.32 2.92s-.54 1.41-.99 1.86-1.04.78-1.76.98Zm9.95-.22v-8.08h1.81v6.11h-.48l4.59-6.11h1.65v8.08h-1.81v-6.13h.5l-4.61 6.13zm14.98 0v-2.94a4.45 4.45 0 0 1-1.94.43c-1.18 0-2.07-.28-2.65-.85-.58-.56-.87-1.41-.87-2.53v-2.19h1.98v2.02c0 .68.15 1.18.45 1.48s.78.46 1.44.46c.31 0 .59-.03.83-.1.25-.06.48-.17.7-.3v-3.55h1.98v8.08h-1.94Zm4.21 0v-8.08h1.98v3.17h1.22l2.37-3.17h2.14l-2.98 4.03-.43-.62c.3.03.56.11.79.24q.345.195.66.54c.21.23.41.52.62.87l1.7 3.02h-2.13l-1.38-2.43c-.14-.24-.28-.44-.42-.58s-.29-.24-.46-.29-.38-.08-.62-.08h-1.07v3.38h-1.98Zm9.12 0v-8.08h1.81v6.11h-.48l4.59-6.11h1.65v8.08h-1.81v-6.13h.5l-4.61 6.13zm10.54 2.13-.82-.64c.34-.35.58-.68.71-.98s.2-.63.2-.97l.43.46h-1.5v-2.22h2.24v1.47c0 .54-.09 1.04-.28 1.5-.19.45-.51.92-.98 1.38m11.42-1.97c-.83 0-1.56-.17-2.18-.51s-1.11-.83-1.45-1.46-.51-1.39-.51-2.26.17-1.62.52-2.24.83-1.09 1.45-1.42 1.34-.5 2.18-.5c.53 0 1.05.08 1.56.25s.92.4 1.24.71l-.61 1.39a2.8 2.8 0 0 0-.97-.6c-.36-.13-.71-.2-1.05-.2-.71 0-1.27.22-1.67.67q-.6.675-.6 1.95c0 1.275.2 1.51.6 1.97s.96.69 1.67.69c.33 0 .67-.06 1.03-.19s.69-.32.98-.59l.61 1.38q-.495.465-1.26.72c-.51.17-1.02.26-1.54.26Zm6.26-.16V22.1h-2.77v-1.57h7.54v1.57h-2.78v6.51h-1.98Zm9.89.16c-1.35 0-2.42-.37-3.18-1.12-.77-.75-1.15-1.77-1.15-3.07 0-.84.17-1.58.5-2.21q.495-.945 1.38-1.47c.59-.35 1.28-.53 2.07-.53s1.43.17 1.95.5.92.79 1.19 1.39.41 1.3.41 2.1v.53h-5.89v-1.06h4.46l-.27.22c0-.75-.16-1.32-.47-1.71s-.77-.59-1.37-.59c-.66 0-1.17.23-1.53.7s-.54 1.13-.54 1.97v.21c0 .87.22 1.53.65 1.96s1.04.65 1.83.65q.69 0 1.29-.18t1.14-.6l.59 1.34q-.57.465-1.38.72c-.53.17-1.1.26-1.7.26Zm5.02-.16v-8.08h1.98v3.17h3.65v-3.17h1.98v8.08h-1.98v-3.38h-3.65v3.38zm9.17 2.08v-3.6h.93c.32-.5.55-1.09.7-1.77s.22-1.51.22-2.49v-2.3h6.22v6.56h1.31v3.6h-1.7v-2.08h-5.98v2.08zm2.72-3.58h3.47v-5.07h-2.66v1.25q0 1.065-.21 2.1c-.14.68-.34 1.26-.61 1.73Zm8.13 1.5v-8.08h1.98v2.7h2.13c1.08 0 1.89.23 2.43.68s.82 1.11.82 1.96c0 .55-.13 1.04-.38 1.45s-.63.73-1.11.95-1.07.34-1.75.34h-4.11Zm1.98-1.31h1.86c.54 0 .96-.12 1.25-.34.29-.23.43-.58.43-1.05s-.14-.81-.42-1.03q-.42-.33-1.26-.33h-1.86zm6.38 1.31v-8.08h1.98v8.08zM21.19 118.95v-9.58h-3.73v-1.7h9.52v1.7h-3.73v9.58zm9.6.16q-1.245 0-2.16-.51c-.915-.51-1.08-.83-1.42-1.46s-.5-1.38-.5-2.24.17-1.61.5-2.23.81-1.11 1.42-1.45 1.33-.51 2.16-.51 1.55.17 2.17.51c.61.34 1.09.82 1.42 1.45s.5 1.37.5 2.23-.17 1.61-.5 2.24-.81 1.12-1.42 1.46-1.34.51-2.17.51m0-1.54q.945 0 1.5-.66c.37-.44.56-1.11.56-2.01s-.19-1.56-.56-2-.88-.66-1.5-.66-1.13.22-1.5.66-.56 1.1-.56 2 .19 1.57.56 2.01q.555.66 1.5.66m5.62 1.61-.62-1.57c.35-.13.65-.3.89-.5.24-.21.43-.47.58-.8.14-.33.25-.73.31-1.22s.1-1.06.1-1.74v-2.48h6.43v8.08h-1.98v-6.54H39.5v1.01c0 1.16-.11 2.14-.32 2.92-.21.79-.54 1.41-.99 1.87s-1.03.78-1.76.98Zm20.88 1.85v-2.08H46.36v-8.08h1.87v6.54h2.85v-6.54h1.86v6.54h2.85v-6.54h1.87v6.54h1.31v3.62zm3.15-2.08v-8.08h1.81v6.11h-.48l4.59-6.11h1.65v8.08H66.2v-6.13h.5l-4.61 6.13zm9.84 0v-8.08h1.98v3.17h3.65v-3.17h1.98v8.08h-1.98v-3.38h-3.65v3.38zm13.07.16c-.7 0-1.32-.17-1.86-.5-.53-.34-.95-.82-1.25-1.45s-.45-1.38-.45-2.26.15-1.62.45-2.25c.3-.62.71-1.1 1.25-1.44s1.15-.5 1.86-.5 1.28.17 1.8.5c.52.34.86.79 1.03 1.35H86l.18-1.7h1.92l-.09 1.01c-.03.34-.04.68-.04 1.01v6.06h-1.98l-.02-1.66h.19c-.17.55-.52 1-1.04 1.33s-1.11.5-1.78.5Zm.56-1.54c.63 0 1.14-.22 1.52-.66s.58-1.11.58-2.01-.19-1.56-.58-2c-.38-.44-.89-.66-1.52-.66s-1.14.22-1.52.66-.58 1.1-.58 2 .19 1.57.57 2.01q.57.66 1.53.66m10.78 1.38v-8.08h1.66l2.78 4.83 2.78-4.83h1.66v8.08h-1.76v-5.84h.37l-2.59 4.53h-.93l-2.59-4.53h.37v5.84h-1.76Zm14.35.16c-.7 0-1.32-.17-1.86-.5-.53-.34-.95-.82-1.25-1.45s-.45-1.38-.45-2.26.15-1.62.45-2.25c.3-.62.71-1.1 1.25-1.44s1.15-.5 1.86-.5 1.28.17 1.8.5.86.79 1.03 1.35h-.18l.18-1.7h1.92l-.09 1.01c-.03.34-.04.68-.04 1.01v6.06h-1.98l-.02-1.66h.19c-.17.55-.52 1-1.04 1.33s-1.12.5-1.78.5Zm.56-1.54c.63 0 1.14-.22 1.52-.66s.58-1.11.58-2.01-.19-1.56-.58-2-.89-.66-1.52-.66-1.14.22-1.52.66-.58 1.1-.58 2 .19 1.57.57 2.01q.57.66 1.53.66m8.15 1.38v-6.51h-2.77v-1.57h7.54v1.57h-2.78v6.51h-1.98Zm9.89.16c-1.35 0-2.42-.37-3.18-1.12-.77-.75-1.15-1.77-1.15-3.07 0-.84.17-1.58.5-2.21q.495-.945 1.38-1.47c.59-.35 1.28-.53 2.07-.53s1.43.17 1.95.5.92.79 1.19 1.39.41 1.3.41 2.1v.53h-5.89v-1.06h4.46l-.27.22c0-.75-.16-1.32-.47-1.71s-.77-.59-1.37-.59c-.66 0-1.17.23-1.53.7s-.54 1.12-.54 1.97v.21c0 .88.22 1.53.65 1.96s1.04.65 1.83.65q.69 0 1.29-.18t1.14-.6l.59 1.34q-.57.465-1.38.72c-.81.255-1.1.26-1.7.26Zm5.08 3.3v-9.52c0-.33-.01-.67-.03-1.01s-.05-.68-.1-1.01h1.94l.18 1.7h-.18c.16-.56.5-1.02 1.02-1.35.52-.34 1.12-.5 1.8-.5s1.34.17 1.87.5c.53.34.95.82 1.25 1.44q.45.93.45 2.25c0 1.32-.15 1.63-.45 2.26s-.71 1.11-1.25 1.45c-.53.34-1.16.5-1.87.5-.67 0-1.26-.17-1.78-.5-.51-.33-.85-.77-1.02-1.33h.18v5.12h-2Zm4.06-4.83c.64 0 1.15-.22 1.54-.66.38-.44.58-1.11.58-2.01s-.19-1.56-.58-2-.9-.66-1.54-.66-1.14.22-1.52.66-.58 1.1-.58 2 .19 1.57.58 2.01c.38.44.89.66 1.52.66m6.02 1.37v-8.08h1.81v6.11h-.48l4.59-6.11h1.65v8.08h-1.81v-6.13h.5l-4.61 6.13zm13.03.16c-.7 0-1.32-.17-1.86-.5-.53-.34-.95-.82-1.25-1.45s-.45-1.38-.45-2.26.15-1.62.45-2.25c.3-.62.71-1.1 1.25-1.44s1.15-.5 1.86-.5 1.28.17 1.8.5.86.79 1.03 1.35h-.18l.18-1.7h1.92l-.09 1.01c-.03.34-.04.68-.04 1.01v6.06h-1.98l-.02-1.66h.19c-.17.55-.52 1-1.04 1.33s-1.11.5-1.78.5Zm.56-1.54c.63 0 1.14-.22 1.52-.66s.58-1.11.58-2.01-.19-1.56-.58-2c-.38-.44-.89-.66-1.52-.66s-1.14.22-1.52.66-.58 1.1-.58 2 .19 1.57.57 2.01q.57.66 1.53.66m6.19 1.61-.62-1.57c.35-.13.65-.3.89-.5.24-.21.43-.47.58-.8.14-.33.25-.73.31-1.22s.1-1.06.1-1.74v-2.48h6.43v8.08h-1.98v-6.54h-2.62v1.01c0 1.16-.11 2.14-.32 2.92-.21.79-.54 1.41-.99 1.87s-1.04.78-1.76.98Zm13.14-.07c-.7 0-1.32-.17-1.86-.5-.53-.34-.95-.82-1.25-1.45s-.45-1.38-.45-2.26.15-1.62.45-2.25c.3-.62.71-1.1 1.25-1.44s1.15-.5 1.86-.5 1.28.17 1.8.5.86.79 1.03 1.35h-.18l.18-1.7h1.92l-.09 1.01c-.03.34-.04.68-.04 1.01v6.06h-1.98l-.02-1.66h.19c-.17.55-.52 1-1.04 1.33s-1.11.5-1.78.5Zm.56-1.54c.63 0 1.14-.22 1.52-.66s.58-1.11.58-2.01-.19-1.56-.58-2c-.38-.44-.89-.66-1.52-.66s-1.14.22-1.52.66-.58 1.1-.58 2 .19 1.57.57 2.01q.57.66 1.53.66M53.44 170.05v-2.64h-9.71v-11.28h2.03v9.58h5.79v-9.58h2.05v9.58h1.65v4.34zm7.28-2.48c-1.35 0-2.42-.37-3.18-1.12s-1.15-1.77-1.15-3.07c0-.84.17-1.58.5-2.21q.495-.945 1.38-1.47c.59-.35 1.28-.53 2.07-.53s1.43.17 1.95.5.92.79 1.19 1.39.41 1.3.41 2.1v.53H58v-1.06h4.46l-.27.22c0-.75-.16-1.32-.47-1.71s-.77-.59-1.37-.59c-.66 0-1.17.23-1.53.7s-.54 1.13-.54 1.97v.21c0 .87.22 1.53.65 1.96s1.04.65 1.83.65q.69 0 1.29-.18c.6-.18.78-.32 1.14-.6l.59 1.34q-.57.465-1.38.72c-.53.17-1.1.26-1.7.26Zm5.02-.16v-8.08h1.98v3.17h3.65v-3.17h1.98v8.08h-1.98v-3.38h-3.65v3.38zm13.07.16c-.7 0-1.32-.17-1.86-.5-.53-.34-.95-.82-1.25-1.45s-.45-1.38-.45-2.26.15-1.62.45-2.25c.3-.62.71-1.1 1.25-1.44s1.15-.5 1.86-.5 1.28.17 1.8.5c.52.34.86.79 1.03 1.35h-.18l.18-1.7h1.92l-.09 1.01c-.03.34-.04.68-.04 1.01v6.06h-1.98l-.02-1.66h.19c-.17.55-.52 1-1.04 1.33s-1.11.5-1.78.5Zm.56-1.54c.63 0 1.14-.22 1.52-.66s.58-1.11.58-2.01-.19-1.56-.58-2c-.38-.44-.89-.66-1.52-.66s-1.14.22-1.52.66-.58 1.1-.58 2 .19 1.57.57 2.01q.57.66 1.53.66m13.76 1.54c-.73 0-1.41-.08-2.04-.26-.63-.17-1.17-.42-1.59-.74l.56-1.31c.39.29.86.51 1.38.66.53.15 1.09.22 1.67.22.68 0 1.18-.09 1.5-.28a.89.89 0 0 0 .47-.82c0-.34-.12-.6-.37-.78s-.61-.26-1.09-.26h-2.1v-1.38h1.9c.44 0 .77-.08 1.01-.26.24-.17.35-.41.35-.72q0-.495-.42-.78c-.28-.19-.74-.29-1.38-.29-.55 0-1.06.07-1.52.2s-.89.33-1.3.58l-.54-1.25c.44-.31.97-.54 1.59-.7s1.3-.24 2.04-.24c1.08 0 1.9.2 2.48.59s.86.95.86 1.68c0 .49-.17.91-.5 1.26s-.79.57-1.35.66v-.22c.66.04 1.18.24 1.57.59.38.35.58.83.58 1.42 0 .74-.33 1.32-.98 1.76s-1.58.66-2.78.66Zm8.69 0c-.7 0-1.32-.17-1.86-.5-.53-.34-.95-.82-1.25-1.45s-.45-1.38-.45-2.26.15-1.62.45-2.25.71-1.1 1.25-1.44 1.15-.5 1.86-.5 1.28.17 1.8.5c.52.34.86.79 1.03 1.35h-.18l.18-1.7h1.92l-.09 1.01c-.03.34-.04.68-.04 1.01v6.06h-1.98l-.02-1.66h.19c-.17.55-.52 1-1.04 1.33s-1.11.5-1.78.5Zm.56-1.54c.63 0 1.14-.22 1.52-.66s.58-1.11.58-2.01-.19-1.56-.58-2c-.38-.44-.89-.66-1.52-.66s-1.14.22-1.52.66-.58 1.1-.58 2 .19 1.57.57 2.01q.57.66 1.53.66m14.45 1.54c-1.32 0-2.34-.5-3.06-1.51s-1.07-2.45-1.07-4.31.36-3.32 1.07-4.3 1.73-1.47 3.06-1.47 2.35.49 3.06 1.47 1.06 2.41 1.06 4.29-.35 3.32-1.06 4.33-1.73 1.51-3.06 1.51Zm0-1.7c.73 0 1.26-.33 1.62-1 .35-.67.53-1.71.53-3.14s-.18-2.47-.53-3.11-.89-.97-1.62-.97-1.25.32-1.61.97-.54 1.68-.54 3.11.18 2.48.54 3.14c.36.67.89 1 1.61 1m6.64 3.66-.82-.64c.34-.35.58-.68.71-.98s.2-.63.2-.97l.43.46h-1.5v-2.22h2.24v1.47c0 .54-.09 1.04-.28 1.5-.19.45-.51.92-.98 1.38m7.01-1.96c-.49 0-.98-.05-1.46-.16s-.94-.26-1.36-.45q-.63-.285-1.08-.69l.67-1.55c.5.37 1.02.65 1.54.84.53.19 1.08.28 1.66.28.69 0 1.23-.17 1.62-.52s.58-.81.58-1.4-.19-1.08-.56-1.45-.89-.55-1.54-.55c-.46 0-.88.09-1.26.26q-.57.27-1.02.81h-1.36v-6.86h7.01v1.7h-5.06v3.58h-.5c.28-.37.65-.66 1.11-.86q.69-.3 1.56-.3c.73 0 1.35.15 1.89.45s.95.72 1.25 1.26.45 1.17.45 1.9-.17 1.38-.5 1.94-.82 1-1.44 1.31-1.36.47-2.22.47Zm10.24-.16v-8.08h1.66l2.78 4.83 2.78-4.83h1.66v8.08h-1.76v-5.84h.37l-2.59 4.53h-.93l-2.59-4.53h.37v5.84h-1.76Zm10.76-5.33v-.89l2.18-2.28c.27-.29.48-.55.61-.79s.2-.49.2-.75q0-.48-.3-.72t-.87-.24c-.3 0-.6.05-.88.16s-.55.28-.82.51l-.39-.89q.405-.36.99-.57c.4-.14.81-.21 1.25-.21.71 0 1.25.16 1.63.47.38.32.57.77.57 1.36 0 .41-.1.8-.29 1.17s-.49.76-.9 1.16l-1.82 1.82v-.32h3.26v1h-4.43Zm-91.26 53.76v-2.64h-9.71v-11.28h2.03v9.58h5.79v-9.58h2.05v9.58h1.65v4.34zm7.28-2.48c-1.35 0-2.42-.37-3.18-1.12-.77-.75-1.15-1.77-1.15-3.07 0-.84.17-1.58.5-2.21q.495-.945 1.38-1.47c.59-.35 1.28-.53 2.07-.53s1.43.17 1.95.5.92.79 1.19 1.39.41 1.3.41 2.1v.53h-5.89v-1.06h4.46l-.27.22c0-.75-.16-1.32-.47-1.71s-.77-.59-1.37-.59c-.66 0-1.17.23-1.53.7s-.54 1.12-.54 1.97v.21c0 .88.22 1.53.65 1.96s1.04.65 1.83.65q.69 0 1.29-.18c.6-.18.78-.32 1.14-.6l.59 1.34q-.57.465-1.38.72c-.81.255-1.1.26-1.7.26Zm5.03-.16v-8.08h1.98v3.17h3.65v-3.17h1.98v8.08h-1.98v-3.38h-3.65v3.38zm13.07.16c-.7 0-1.32-.17-1.86-.5-.53-.34-.95-.82-1.25-1.45s-.45-1.38-.45-2.26.15-1.62.45-2.25c.3-.62.71-1.1 1.25-1.44s1.15-.5 1.86-.5 1.28.17 1.8.5c.52.34.86.79 1.03 1.35h-.18l.18-1.7h1.92l-.09 1.01c-.03.34-.04.68-.04 1.01v6.06h-1.98l-.02-1.66h.19c-.17.55-.52 1-1.04 1.33s-1.11.5-1.78.5Zm.56-1.54c.63 0 1.14-.22 1.52-.66s.58-1.11.58-2.01-.19-1.56-.58-2c-.38-.44-.89-.66-1.52-.66s-1.14.22-1.52.66-.58 1.1-.58 2 .19 1.57.57 2.01q.57.66 1.53.66m13.76 1.54c-.72 0-1.41-.09-2.04-.26s-1.17-.42-1.59-.74l.56-1.31c.39.29.86.51 1.38.66s1.08.22 1.67.22c.68 0 1.18-.09 1.5-.28.31-.19.47-.46.47-.82 0-.34-.12-.6-.37-.78s-.61-.26-1.09-.26h-2.1v-1.38h1.9c.44 0 .77-.08 1.01-.26.23-.17.35-.41.35-.72 0-.33-.14-.59-.42-.79-.28-.19-.74-.29-1.38-.29-.55 0-1.06.07-1.52.2s-.89.33-1.3.58l-.54-1.25c.44-.31.97-.54 1.59-.7s1.3-.24 2.04-.24c1.08 0 1.9.2 2.48.59s.86.96.86 1.68c0 .49-.17.91-.5 1.26q-.51.525-1.35.66v-.22c.66.04 1.18.24 1.57.59s.58.83.58 1.42c0 .74-.33 1.32-.98 1.76s-1.58.66-2.78.66Zm8.69 0c-.7 0-1.32-.17-1.86-.5-.53-.34-.95-.82-1.25-1.45s-.45-1.38-.45-2.26.15-1.62.45-2.25c.3-.62.71-1.1 1.25-1.44s1.15-.5 1.86-.5 1.28.17 1.8.5.86.79 1.03 1.35h-.18l.18-1.7h1.92l-.09 1.01c-.03.34-.04.68-.04 1.01v6.06h-1.98l-.02-1.66h.19c-.17.55-.52 1-1.04 1.33s-1.12.5-1.78.5Zm.56-1.54c.63 0 1.14-.22 1.52-.66s.58-1.11.58-2.01-.19-1.56-.58-2-.89-.66-1.52-.66-1.14.22-1.52.66-.58 1.1-.58 2 .19 1.57.57 2.01q.57.66 1.53.66m11.42 1.38v-1.71h2.59v-7.84h.99l-3.33 1.98v-1.95l2.93-1.76h1.47v9.57h2.43v1.71h-7.09Zm13.34 0v-8.08h1.66l2.78 4.83 2.78-4.83h1.66v8.08h-1.76v-5.84h.37l-2.59 4.53h-.93l-2.59-4.53h.37v5.84h-1.76Zm10.76-5.33v-.89l2.18-2.28c.27-.29.48-.55.61-.79s.2-.49.2-.75q0-.48-.3-.72c-.3-.24-.49-.24-.87-.24-.3 0-.6.05-.88.16s-.55.28-.82.51l-.39-.9q.405-.36.99-.57c.4-.14.81-.21 1.25-.21.71 0 1.25.16 1.63.48s.57.77.57 1.36c0 .41-.1.8-.29 1.17s-.49.76-.9 1.16l-1.82 1.82v-.32h3.26v1h-4.43Zm64.78-134.7V61.89h9.87v11.28h-2.05v-9.6h-5.79v9.6zm12.03.22-.62-1.57c.35-.13.65-.3.89-.5.24-.21.43-.47.58-.8.14-.33.25-.73.31-1.22s.1-1.06.1-1.74v-2.48h6.43v8.08h-1.98v-6.54h-2.62v1.01c0 1.16-.11 2.14-.32 2.92-.21.79-.54 1.41-.99 1.87s-1.03.78-1.76.98Zm13.13-.06c-.7 0-1.32-.17-1.86-.5-.53-.34-.95-.82-1.25-1.45s-.45-1.38-.45-2.26.15-1.62.45-2.25c.3-.62.71-1.1 1.25-1.44s1.15-.5 1.86-.5 1.28.17 1.8.5c.52.34.86.79 1.03 1.35h-.18l.18-1.7h1.92l-.09 1.01c-.03.34-.04.68-.04 1.01v6.06h-1.98l-.02-1.66h.19c-.17.55-.52 1-1.04 1.33s-1.11.5-1.78.5Zm.56-1.54c.63 0 1.14-.22 1.52-.66s.58-1.11.58-2.01-.19-1.56-.58-2c-.38-.44-.89-.66-1.52-.66s-1.14.22-1.52.66-.58 1.1-.58 2 .19 1.57.57 2.01q.57.66 1.53.66m10.18 1.54c-.83 0-1.56-.17-2.18-.51s-1.11-.83-1.45-1.46-.51-1.39-.51-2.26.17-1.62.52-2.24.83-1.09 1.45-1.42 1.34-.5 2.18-.5c.53 0 1.05.08 1.56.25s.92.4 1.24.71l-.61 1.39a2.8 2.8 0 0 0-.97-.6c-.36-.13-.71-.2-1.05-.2-.71 0-1.27.22-1.67.67q-.6.675-.6 1.95c0 1.275.2 1.51.6 1.97s.96.69 1.67.69c.33 0 .67-.06 1.03-.19s.69-.33.98-.59l.61 1.38q-.495.465-1.26.72c-.51.17-1.02.26-1.54.26Zm6.26-.16v-6.51h-2.77v-1.57h7.54v1.57h-2.78v6.51h-1.98Zm6 0v-8.08h1.81v6.11h-.48l4.59-6.11h1.65v8.08h-1.81v-6.13h.5l-4.61 6.13zm9.84 0v-8.08h1.98v3.17h1.21l2.37-3.17h2.14l-2.98 4.03-.43-.62c.3.03.56.11.79.24s.45.31.66.54.41.52.62.87l1.7 3.02h-2.13l-1.38-2.43c-.14-.25-.28-.44-.42-.58s-.29-.24-.46-.29-.38-.08-.62-.08h-1.07v3.38zm13.61 0V61.89h9.87v11.28h-2.05v-9.6h-5.79v9.6zm12.35 0V61.89h4.94c1.23 0 2.17.26 2.83.78s.99 1.23.99 2.15c0 .68-.2 1.26-.61 1.73s-.96.79-1.68.94v-.24c.82.12 1.46.41 1.91.89s.68 1.1.68 1.88c0 1-.35 1.78-1.04 2.33s-1.66.82-2.9.82h-5.14Zm1.98-6.5h2.61c.74 0 1.28-.14 1.64-.41s.54-.67.54-1.21-.18-.94-.54-1.21-.9-.41-1.64-.41h-2.61v3.23Zm0 4.93h2.91q1.035 0 1.62-.39c.38-.26.58-.69.58-1.29s-.19-1.04-.58-1.3q-.57-.39-1.62-.39h-2.91v3.38Zm7.53 1.57 4.64-6.18v.88l-4.48-5.98h2.42l3.25 4.5h-.66l3.23-4.5h2.43l-4.5 5.98v-.88l4.66 6.18h-2.43l-3.42-4.71h.7l-3.42 4.71zm18.97 2.87c-.5-.79-.91-1.56-1.22-2.32s-.54-1.53-.68-2.31c-.14-.79-.21-1.6-.21-2.46s.07-1.68.21-2.46.37-1.55.68-2.3.72-1.53 1.22-2.3h1.6c-.55 1.23-.97 2.42-1.24 3.58s-.41 2.32-.41 3.5.14 2.33.41 3.49.69 2.36 1.24 3.6h-1.6Zm3.22-2.87v-1.52l3.74-3.9c.47-.49.82-.95 1.04-1.36.22-.42.34-.84.34-1.28 0-.54-.17-.96-.51-1.23-.34-.28-.84-.42-1.49-.42-.52 0-1.03.09-1.5.28q-.72.285-1.41.87l-.67-1.54c.46-.41 1.03-.73 1.7-.98.68-.25 1.39-.37 2.14-.37 1.21 0 2.15.27 2.8.82.65.54.98 1.32.98 2.34 0 .71-.17 1.37-.5 2.01s-.84 1.3-1.54 1.99L327.13 72v-.54h5.6v1.71zm8.3 0 3.76-4.62v.91l-3.55-4.37h2.37l2.32 2.99h-.72l2.32-2.99h2.35l-3.52 4.37v-.91l3.74 4.62h-2.38l-2.51-3.22h.72l-2.53 3.22zm13.68.16c-.78 0-1.53-.12-2.24-.34s-1.3-.55-1.76-.95l.67-1.55c.5.38 1.02.67 1.56.85s1.11.27 1.7.27c.72 0 1.28-.14 1.65-.43s.56-.71.56-1.26-.18-.94-.55-1.21-.9-.41-1.61-.41h-1.82v-1.65h1.65c.61 0 1.09-.15 1.46-.45s.54-.71.54-1.23c0-.49-.17-.86-.5-1.12s-.82-.38-1.45-.38c-1.13 0-2.13.38-2.99 1.15l-.67-1.54c.46-.43 1.03-.76 1.7-.99.68-.23 1.39-.35 2.14-.35 1.17 0 2.09.26 2.76.79s1 1.26 1 2.2q0 1.005-.57 1.74c-.38.49-.9.81-1.56.97v-.19c.78.13 1.38.45 1.81.95.43.51.65 1.14.65 1.9 0 1-.37 1.79-1.1 2.38-.74.58-1.74.87-3.02.87Zm10.5-.16v-8.08h1.66l2.79 4.83 2.78-4.83h1.66v8.08h-1.76v-5.84h.37l-2.59 4.53h-.93L359 67.33h.37v5.84zm12 2.87h-1.6c.55-1.23.97-2.42 1.24-3.59s.41-2.33.41-3.5-.14-2.32-.41-3.49-.69-2.36-1.24-3.58h1.6c.51.78.92 1.55 1.23 2.3s.53 1.53.67 2.31q.21 1.17.21 2.46c0 1.29-.07 1.68-.21 2.46s-.36 1.56-.67 2.32-.72 1.52-1.23 2.3Zm-99.22 43.06c-.77 0-1.5-.11-2.21-.34-.7-.23-1.29-.56-1.76-.98l.58-1.26c.52.41 1.06.71 1.6.9s1.13.29 1.74.29c.79 0 1.39-.17 1.8-.5s.62-.81.62-1.42-.21-1.07-.62-1.38-1.02-.47-1.82-.47h-1.74v-1.34h1.62c.68 0 1.23-.17 1.63-.52s.61-.82.61-1.42c0-.54-.19-.96-.56-1.26-.37-.29-.91-.44-1.6-.44q-1.755 0-3.09 1.23l-.56-1.26c.44-.44.99-.78 1.66-1.02s1.38-.36 2.11-.36q1.695 0 2.67.78c.975.78.98 1.23.98 2.15 0 .69-.2 1.29-.58 1.78-.39.49-.92.82-1.59.98v-.18c.8.13 1.42.45 1.85.95.43.51.65 1.14.65 1.9 0 1-.35 1.79-1.06 2.36s-1.68.86-2.92.86Zm5.88.77h-1.36l4.19-12.91h1.36zm8.79-.77a6.5 6.5 0 0 1-2.8-.62c-.41-.2-.78-.43-1.09-.71l.58-1.26c.51.4 1.04.69 1.58.89s1.11.3 1.7.3c.76 0 1.35-.2 1.78-.59s.65-.92.65-1.58-.21-1.23-.62-1.66c-.41-.42-.98-.63-1.7-.63-.5 0-.96.1-1.37.3q-.615.3-1.08.93h-1.15v-6.78h6.83v1.39h-5.25v4.06h-.42c.29-.41.67-.72 1.16-.94s1.03-.34 1.64-.34q1.095 0 1.89.45c.795.45.95.71 1.24 1.25.29.53.44 1.16.44 1.89s-.16 1.36-.49 1.91a3.4 3.4 0 0 1-1.39 1.29c-.6.31-1.32.46-2.14.46Zm10.13-.15v-8.06h1.34l2.91 5.15 2.91-5.15h1.34v8.06h-1.42v-6.26h.35l-2.8 4.96h-.77l-2.8-4.96h.35v6.26h-1.42Zm10.94 0v-8.06h1.34l2.91 5.15 2.91-5.15h1.34v8.06h-1.42v-6.26h.35l-2.8 4.96h-.77l-2.8-4.96h.35v6.26h-1.42Zm-60.28 49.03v-2.58h-9.81v-11.28h1.65v9.89h6.34v-9.89h1.65v9.89h1.65v3.97h-1.47Zm6.85-2.43c-1.3 0-2.32-.37-3.07-1.1-.75-.74-1.12-1.75-1.12-3.06 0-.84.16-1.58.49-2.21s.78-1.12 1.36-1.46c.58-.35 1.26-.52 2.02-.52s1.39.16 1.9.48q.765.48 1.17 1.35c.27.58.4 1.27.4 2.06v.51h-6.08v-.93h4.98l-.27.21q0-1.2-.54-1.86c-.54-.66-.87-.66-1.54-.66-.75 0-1.32.26-1.73.78s-.61 1.23-.61 2.14v.16c0 .95.23 1.66.7 2.14q.69.72 1.98.72c.47 0 .91-.07 1.32-.2s.8-.35 1.18-.66l.53 1.1c-.37.33-.83.58-1.36.76s-1.1.26-1.7.26Zm5.14-.14v-8.06h1.6v3.28h4.08v-3.28h1.6v8.06h-1.6v-3.52h-4.08v3.52zm12.86.14c-.71 0-1.34-.17-1.87-.5s-.95-.81-1.24-1.44-.44-1.38-.44-2.24.15-1.62.44-2.24.71-1.1 1.24-1.43 1.16-.5 1.87-.5 1.32.18 1.84.53.87.83 1.04 1.44h-.18l.16-1.82h1.57l-.09.98c-.03.33-.04.64-.04.95v6.13h-1.62v-1.79h.18c-.17.6-.52 1.07-1.05 1.42s-1.13.52-1.82.52Zm.4-1.26c.69 0 1.25-.25 1.67-.74s.63-1.22.63-2.18-.21-1.68-.63-2.17-.98-.73-1.67-.73-1.27.24-1.69.73-.63 1.21-.63 2.17.21 1.69.62 2.18.98.74 1.7.74m13.46 1.26c-.7 0-1.37-.09-1.98-.26-.62-.18-1.13-.43-1.52-.76l.5-1.09c.39.31.85.54 1.36.7.51.15 1.06.23 1.65.23.74 0 1.27-.11 1.61-.33s.5-.53.5-.94-.14-.69-.42-.9-.68-.3-1.22-.3h-1.98v-1.15h1.82c.48 0 .85-.1 1.12-.3s.4-.49.4-.85c0-.38-.16-.68-.46-.9-.31-.21-.79-.32-1.44-.32-.55 0-1.06.07-1.52.21s-.9.35-1.31.62l-.48-1.04c.44-.33.96-.58 1.55-.74.6-.16 1.24-.24 1.94-.24 1.04 0 1.84.19 2.38.58s.82.95.82 1.67c0 .5-.17.93-.5 1.28-.34.35-.79.57-1.35.64v-.21c.65.03 1.17.23 1.56.58.39.36.58.83.58 1.42 0 .73-.31 1.3-.92 1.74-.61.43-1.51.65-2.68.65Zm8.63 0c-.71 0-1.34-.17-1.87-.5s-.95-.81-1.24-1.44-.44-1.38-.44-2.24.15-1.62.44-2.24.71-1.1 1.24-1.43c.53-.34 1.16-.5 1.87-.5s1.32.18 1.84.53.87.83 1.04 1.44h-.18l.16-1.82h1.57l-.09.98c-.03.33-.04.64-.04.95v6.13h-1.62v-1.79h.18c-.17.6-.52 1.07-1.05 1.42s-1.13.52-1.82.52Zm.4-1.26c.69 0 1.25-.25 1.67-.74s.63-1.22.63-2.18-.21-1.68-.63-2.17-.98-.73-1.67-.73-1.27.24-1.69.73-.63 1.21-.63 2.17.21 1.69.62 2.18.98.74 1.7.74m14.25 1.26q-1.95 0-3-1.5c-.7-1-1.05-2.43-1.05-4.3s.35-3.34 1.05-4.31c.7-.98 1.7-1.46 3-1.46s2.31.49 3.01 1.46c.69.98 1.04 2.41 1.04 4.29s-.35 3.32-1.05 4.31q-1.05 1.5-3 1.5Zm0-1.39c.82 0 1.43-.36 1.83-1.07s.6-1.83.6-3.34-.2-2.64-.6-3.34q-.6-1.05-1.83-1.05c-1.23 0-1.42.35-1.82 1.05-.41.7-.61 1.81-.61 3.32s.21 2.65.62 3.36 1.02 1.07 1.82 1.07Zm6.55 3.21-.7-.54c.31-.33.52-.63.63-.91s.17-.57.17-.86l.35.35h-1.26v-1.9h1.9v1.3c0 .48-.08.93-.24 1.34s-.44.82-.85 1.24Zm7-1.82c-.49 0-.97-.05-1.46-.16s-.93-.26-1.34-.46c-.42-.2-.78-.43-1.09-.71l.58-1.26c.51.39 1.04.69 1.57.89q.81.3 1.71.3c.76 0 1.35-.2 1.78-.59s.65-.92.65-1.58-.21-1.23-.62-1.66q-.615-.63-1.71-.63c-.5 0-.96.1-1.37.3q-.615.3-1.08.93h-1.15v-6.78h6.83v1.39h-5.25v4.06h-.42c.29-.4.67-.72 1.16-.94.48-.22 1.03-.34 1.64-.34q1.08 0 1.89.45c.53.3.95.71 1.24 1.25.29.53.44 1.16.44 1.89s-.16 1.36-.49 1.91a3.4 3.4 0 0 1-1.39 1.29c-.6.31-1.31.46-2.14.46Zm10.13-.14v-8.06h1.34l2.91 5.15 2.91-5.15h1.34v8.06h-1.42v-6.26h.35l-2.8 4.96h-.77l-2.8-4.96h.35v6.26h-1.42Zm10.5-5.33v-.72l2.26-2.36c.29-.3.51-.59.65-.86s.21-.54.21-.83c0-.36-.11-.62-.33-.8q-.33-.27-.96-.27-.495 0-.93.18c-.29.12-.57.3-.83.54l-.34-.74c.26-.24.59-.44.97-.58s.8-.22 1.24-.22c.68 0 1.21.16 1.58.47s.56.76.56 1.33c0 .41-.1.8-.3 1.18s-.5.76-.9 1.16l-1.95 1.97v-.26h3.41v.81H342Zm-89.47 53.69v-2.58h-9.81v-11.28h1.65v9.89h6.34v-9.89h1.65v9.89h1.65v3.97h-1.47Zm6.85-2.43c-1.3 0-2.33-.37-3.07-1.1s-1.12-1.75-1.12-3.06c0-.84.16-1.58.49-2.21s.78-1.12 1.36-1.46c.58-.35 1.26-.52 2.02-.52s1.39.16 1.9.48q.765.48 1.17 1.35c.27.58.4 1.27.4 2.06v.51h-6.08v-.93h4.98l-.27.21q0-1.2-.54-1.86c-.36-.44-.87-.66-1.54-.66-.75 0-1.32.26-1.73.78s-.61 1.23-.61 2.14v.16c0 .95.23 1.66.7 2.14s1.12.72 1.98.72c.47 0 .91-.07 1.32-.2s.8-.36 1.18-.66l.53 1.1c-.37.33-.83.58-1.36.76s-1.1.26-1.7.26Zm5.13-.14v-8.06h1.6v3.28h4.08v-3.28h1.6v8.06h-1.6v-3.52h-4.08v3.52zm12.87.14c-.71 0-1.34-.17-1.87-.5s-.95-.81-1.24-1.44-.44-1.38-.44-2.24.15-1.62.44-2.24.71-1.1 1.24-1.43 1.16-.5 1.87-.5 1.32.18 1.84.53.87.83 1.04 1.44h-.18l.16-1.82h1.57l-.09.98c-.03.33-.04.64-.04.95v6.13h-1.62v-1.79h.18c-.17.6-.52 1.07-1.05 1.42s-1.13.52-1.82.52Zm.4-1.26c.69 0 1.25-.25 1.67-.74s.63-1.21.63-2.18-.21-1.68-.63-2.17c-.42-.48-.98-.73-1.67-.73s-1.27.24-1.69.73-.63 1.21-.63 2.17.21 1.69.62 2.18c.42.49.98.74 1.7.74m13.45 1.26c-.7 0-1.37-.09-1.98-.26s-1.12-.43-1.52-.76l.5-1.09c.39.31.85.54 1.36.7s1.06.23 1.65.23c.74 0 1.27-.11 1.61-.33s.5-.53.5-.94-.14-.69-.42-.9c-.28-.2-.68-.3-1.21-.3h-1.98v-1.15h1.82c.48 0 .85-.1 1.12-.3s.4-.49.4-.85c0-.38-.15-.68-.46-.9s-.79-.32-1.44-.32c-.55 0-1.06.07-1.52.21s-.9.35-1.31.62l-.48-1.04c.44-.33.95-.58 1.55-.74s1.24-.24 1.94-.24c1.05 0 1.84.2 2.38.58.54.39.82.95.82 1.67 0 .5-.17.93-.5 1.28-.34.35-.79.57-1.35.64v-.21c.65.03 1.17.23 1.56.58.39.36.58.83.58 1.42 0 .73-.31 1.3-.92 1.74s-1.51.65-2.68.65Zm8.64 0c-.71 0-1.34-.17-1.87-.5s-.95-.81-1.24-1.44-.44-1.38-.44-2.24.15-1.62.44-2.24.71-1.1 1.24-1.43 1.16-.5 1.87-.5 1.32.18 1.84.53.87.83 1.04 1.44h-.18l.16-1.82h1.57l-.09.98c-.03.33-.04.64-.04.95v6.13h-1.62v-1.79h.18c-.17.6-.52 1.07-1.05 1.42s-1.13.52-1.82.52Zm.4-1.26c.69 0 1.25-.25 1.67-.74s.63-1.21.63-2.18-.21-1.68-.63-2.17c-.42-.48-.98-.73-1.67-.73s-1.27.24-1.69.73-.63 1.21-.63 2.17.21 1.69.62 2.18c.42.49.98.74 1.7.74m11.36 1.12v-1.39h2.62v-8.48h.83l-3.2 1.95v-1.6l2.83-1.76h1.2v9.89h2.46v1.39h-6.75Zm13.17 0v-8.06h1.34l2.91 5.15 2.91-5.15h1.34v8.06h-1.42v-6.26h.35l-2.8 4.96h-.77l-2.8-4.96h.35v6.26h-1.42Zm10.5-5.33v-.72l2.26-2.36c.29-.3.51-.59.65-.86s.21-.54.21-.83c0-.35-.11-.62-.33-.8q-.33-.27-.96-.27-.495 0-.93.18c-.435.18-.57.3-.83.54l-.34-.74c.26-.24.59-.44.97-.58.39-.15.8-.22 1.24-.22.68 0 1.21.16 1.58.47s.56.76.56 1.33c0 .41-.1.8-.3 1.18s-.5.76-.9 1.16l-1.95 1.97v-.26h3.41v.81h-4.36Zm52.83-132.7V61.89h9.87v11.28h-2.05v-9.6h-5.79v9.6zm12.03.22-.62-1.57c.35-.13.65-.3.89-.5s.43-.47.58-.8c.14-.33.25-.73.31-1.22s.1-1.06.1-1.74v-2.48h6.43v8.08h-1.98v-6.54h-2.62v1.01c0 1.16-.11 2.14-.32 2.92-.21.79-.54 1.41-.99 1.87s-1.04.78-1.76.98Zm13.14-.06c-.7 0-1.32-.17-1.86-.5-.53-.34-.95-.82-1.25-1.45s-.45-1.38-.45-2.26.15-1.62.45-2.25c.3-.62.71-1.1 1.25-1.44s1.15-.5 1.86-.5 1.28.17 1.8.5.86.79 1.03 1.35h-.18l.18-1.7h1.92l-.09 1.01c-.03.34-.04.68-.04 1.01v6.06h-1.98l-.02-1.66h.19c-.17.55-.52 1-1.04 1.33s-1.12.5-1.78.5Zm.56-1.54c.63 0 1.14-.22 1.52-.66s.58-1.11.58-2.01-.19-1.56-.58-2-.89-.66-1.52-.66-1.14.22-1.52.66-.58 1.1-.58 2 .19 1.57.57 2.01q.57.66 1.53.66m10.18 1.54c-.83 0-1.56-.17-2.18-.51s-1.11-.83-1.45-1.46-.51-1.39-.51-2.26.17-1.62.52-2.24.83-1.09 1.45-1.42 1.34-.5 2.18-.5c.53 0 1.05.08 1.56.25s.92.4 1.24.71l-.61 1.39a2.8 2.8 0 0 0-.97-.6c-.36-.13-.71-.2-1.05-.2-.71 0-1.27.22-1.67.67q-.6.675-.6 1.95c0 1.275.2 1.51.6 1.97s.96.69 1.67.69c.33 0 .67-.06 1.03-.19s.69-.33.98-.59l.61 1.38q-.495.465-1.26.72c-.765.255-1.02.26-1.54.26Zm6.25-.16v-6.51h-2.77v-1.57h7.54v1.57h-2.78v6.51h-1.98Zm6 0v-8.08h1.81v6.11h-.48l4.59-6.11h1.65v8.08h-1.81v-6.13h.5l-4.61 6.13zm9.84 0v-8.08h1.98v3.17h1.22l2.37-3.17h2.14l-2.98 4.03-.43-.62c.3.03.56.11.79.24s.45.31.66.54.41.52.62.87l1.7 3.02h-2.13l-1.38-2.43c-.14-.25-.28-.44-.42-.58s-.29-.24-.46-.29-.38-.08-.62-.08h-1.07v3.38h-1.98Zm13.62 0V61.89h9.87v11.28h-2.05v-9.6h-5.79v9.6zm12.35 0V61.89h4.94c1.23 0 2.17.26 2.83.78s.99 1.23.99 2.15c0 .68-.2 1.26-.61 1.73s-.97.79-1.68.94v-.24c.82.12 1.46.41 1.91.89s.68 1.1.68 1.88c0 1-.35 1.78-1.04 2.33s-1.66.82-2.9.82h-5.14Zm1.98-6.5h2.61c.74 0 1.28-.14 1.64-.41s.54-.67.54-1.21-.18-.94-.54-1.21-.9-.41-1.64-.41h-2.61v3.23Zm0 4.93h2.91q1.035 0 1.62-.39c.38-.26.58-.69.58-1.29s-.19-1.04-.58-1.3q-.57-.39-1.62-.39h-2.91v3.38Zm7.52 1.57 4.64-6.18v.88l-4.48-5.98h2.42l3.25 4.5h-.66l3.23-4.5h2.43l-4.5 5.98v-.88l4.66 6.18h-2.43l-3.42-4.71h.7l-3.42 4.71zm18.98 2.87c-.5-.79-.91-1.56-1.22-2.32s-.54-1.53-.68-2.31c-.14-.79-.21-1.6-.21-2.46s.07-1.68.21-2.46.37-1.55.68-2.3.72-1.53 1.22-2.3h1.6c-.55 1.23-.97 2.42-1.24 3.58s-.41 2.32-.41 3.5.14 2.33.41 3.49.69 2.36 1.24 3.6h-1.6Zm3.21-2.87v-1.52l3.74-3.9c.47-.49.82-.95 1.04-1.36.22-.42.34-.84.34-1.28 0-.54-.17-.96-.51-1.23-.34-.28-.84-.42-1.49-.42-.52 0-1.02.09-1.5.28q-.72.285-1.41.87l-.67-1.54c.46-.41 1.03-.73 1.7-.98.68-.25 1.39-.37 2.14-.37 1.22 0 2.15.27 2.8.82.65.54.98 1.32.98 2.34 0 .71-.17 1.37-.5 2.01-.33.63-.84 1.3-1.54 1.99L505.81 72v-.54h5.6v1.71zm8.31 0 3.76-4.62v.91l-3.55-4.37h2.37l2.32 2.99h-.72l2.32-2.99h2.35l-3.52 4.37v-.91l3.74 4.62h-2.38l-2.51-3.22h.72l-2.53 3.22zm13.68.16c-.78 0-1.53-.12-2.24-.34s-1.3-.55-1.76-.95l.67-1.55c.5.38 1.02.67 1.56.85s1.11.27 1.7.27c.73 0 1.28-.14 1.65-.43s.56-.71.56-1.26-.18-.94-.55-1.21-.9-.41-1.61-.41h-1.82v-1.65h1.65c.61 0 1.09-.15 1.46-.45q.54-.45.54-1.23c0-.49-.17-.86-.5-1.12s-.82-.38-1.45-.38c-1.13 0-2.13.38-2.99 1.15l-.67-1.54c.46-.43 1.03-.76 1.7-.99.68-.23 1.39-.35 2.14-.35 1.17 0 2.09.26 2.76.79s1 1.26 1 2.2q0 1.005-.57 1.74c-.38.49-.9.81-1.56.97v-.19c.78.13 1.38.45 1.82.95.43.51.65 1.14.65 1.9 0 1-.37 1.79-1.1 2.38-.74.58-1.74.87-3.02.87Zm10.49-.16v-8.08h1.66l2.78 4.83 2.78-4.83h1.66v8.08h-1.76v-5.84h.37l-2.59 4.53h-.93l-2.59-4.53h.37v5.84h-1.76Zm12 2.87h-1.6c.55-1.23.97-2.42 1.24-3.59s.41-2.33.41-3.5-.14-2.32-.41-3.49c-.27-1.16-.69-2.36-1.24-3.58h1.6c.51.78.92 1.55 1.23 2.3.31.76.53 1.53.67 2.31q.21 1.17.21 2.46c0 1.29-.07 1.68-.21 2.46s-.36 1.56-.67 2.32-.72 1.52-1.23 2.3Zm54.23-2.87V61.89h2.03v4.8h1.92l-.42.27 3.33-5.07h2.27l-3.71 5.46-.78-.58c.73.11 1.33.35 1.82.74s.91.94 1.27 1.64l2 4.02h-2.22l-1.55-3.25c-.27-.57-.58-.97-.95-1.2s-.83-.35-1.4-.35h-1.57v4.8h-2.03Zm14.12.16c-.7 0-1.32-.17-1.86-.5-.53-.34-.95-.82-1.25-1.45s-.45-1.38-.45-2.26.15-1.62.45-2.25c.3-.62.71-1.1 1.25-1.44s1.15-.5 1.86-.5 1.28.17 1.8.5c.52.34.86.79 1.03 1.35h-.18l.18-1.7h1.92l-.09 1.01c-.03.34-.04.68-.04 1.01v6.06h-1.98l-.02-1.66h.19c-.17.55-.52 1-1.04 1.33s-1.11.5-1.78.5Zm.56-1.54c.63 0 1.14-.22 1.52-.66s.58-1.11.58-2.01-.19-1.56-.58-2c-.38-.44-.89-.66-1.52-.66s-1.14.22-1.52.66-.58 1.1-.58 2 .19 1.57.57 2.01q.57.66 1.53.66m6.46 4.83V67.1c0-.33-.01-.67-.03-1.01s-.05-.68-.1-1.01h1.94l.18 1.7h-.18c.16-.56.5-1.02 1.02-1.35s1.12-.5 1.8-.5 1.34.17 1.87.5c.53.34.95.82 1.25 1.44q.45.93.45 2.25c0 1.32-.15 1.63-.45 2.26s-.71 1.11-1.25 1.45c-.53.34-1.16.5-1.87.5-.67 0-1.26-.17-1.78-.5-.51-.33-.85-.77-1.02-1.33h.18v5.12h-2Zm4.06-4.83c.64 0 1.15-.22 1.54-.66.38-.44.58-1.11.58-2.01s-.19-1.56-.58-2-.9-.66-1.54-.66-1.14.22-1.52.66-.58 1.1-.58 2 .19 1.57.58 2.01c.38.44.89.66 1.52.66m6.02 1.38v-8.08h1.66l2.78 4.83 2.78-4.83h1.66v8.08h-1.76v-5.84h.37l-2.59 4.53h-.93l-2.59-4.53h.37v5.84h-1.76Zm14.35.16c-.7 0-1.32-.17-1.86-.5-.53-.34-.95-.82-1.25-1.45s-.45-1.38-.45-2.26.15-1.62.45-2.25c.3-.62.71-1.1 1.25-1.44s1.15-.5 1.86-.5 1.28.17 1.8.5c.52.34.86.79 1.03 1.35h-.18l.18-1.7h1.92l-.09 1.01c-.03.34-.04.68-.04 1.01v6.06h-1.98l-.02-1.66h.19c-.17.55-.52 1-1.04 1.33s-1.11.5-1.78.5Zm.56-1.54c.63 0 1.14-.22 1.52-.66s.58-1.11.58-2.01-.19-1.56-.58-2c-.38-.44-.89-.66-1.52-.66s-1.14.22-1.52.66-.58 1.1-.58 2 .19 1.57.57 2.01q.57.66 1.53.66m6.4 1.38v-8.08h1.87v6.54h2.85v-6.54h1.86v6.54h2.85v-6.54h1.87v8.08zm13.57 0v-8.08h1.98v3.17h1.22l2.37-3.17h2.14l-2.98 4.03-.43-.62c.3.03.56.11.79.24s.45.31.66.54.41.52.62.87l1.7 3.02h-2.13l-1.38-2.43c-.14-.25-.28-.44-.42-.58s-.29-.24-.46-.29-.38-.08-.62-.08h-1.07v3.38h-1.98Zm9.12 0v-8.08h1.81v6.11h-.48l4.59-6.11h1.65v8.08h-1.81v-6.13h.5l-4.61 6.13zm16.81 2.87c-.5-.79-.91-1.56-1.22-2.32s-.54-1.53-.68-2.31c-.14-.79-.21-1.6-.21-2.46s.07-1.68.21-2.46.37-1.55.68-2.3.72-1.53 1.22-2.3h1.6c-.55 1.23-.97 2.42-1.24 3.58s-.41 2.32-.41 3.5.14 2.33.41 3.49.69 2.36 1.24 3.6h-1.6Zm3.11-2.87v-8.08h7.57v8.08h-1.98v-6.54h-3.6v6.54h-1.98Zm9.9 3.45V67.1c0-.33-.01-.67-.03-1.01s-.05-.68-.1-1.01h1.94l.18 1.7h-.18c.16-.56.5-1.02 1.02-1.35s1.12-.5 1.8-.5 1.34.17 1.87.5c.53.34.95.82 1.25 1.44q.45.93.45 2.25c0 1.32-.15 1.63-.45 2.26s-.71 1.11-1.25 1.45c-.53.34-1.16.5-1.87.5-.67 0-1.26-.17-1.78-.5-.51-.33-.85-.77-1.02-1.33h.18v5.12h-2Zm4.06-4.83c.64 0 1.15-.22 1.54-.66.38-.44.58-1.11.58-2.01s-.19-1.56-.58-2-.9-.66-1.54-.66-1.14.22-1.52.66-.58 1.1-.58 2 .19 1.57.58 2.01c.38.44.89.66 1.52.66m9.73 1.54q-1.245 0-2.16-.51c-.61-.34-1.08-.83-1.42-1.46s-.5-1.38-.5-2.24.17-1.61.5-2.23.81-1.11 1.42-1.45q.915-.51 2.16-.51c1.245 0 1.55.17 2.17.51.61.34 1.09.82 1.42 1.45s.5 1.37.5 2.23-.17 1.61-.5 2.24-.81 1.12-1.42 1.46-1.34.51-2.17.51m0-1.54q.945 0 1.5-.66c.37-.44.56-1.11.56-2.01s-.19-1.56-.56-2-.88-.66-1.5-.66-1.13.22-1.5.66-.56 1.1-.56 2 .19 1.57.56 2.01q.555.66 1.5.66m8.96 1.54c-.72 0-1.41-.09-2.04-.26s-1.17-.42-1.59-.74l.56-1.31c.39.29.86.51 1.38.66s1.08.22 1.67.22c.68 0 1.18-.09 1.5-.28.31-.19.47-.46.47-.82 0-.34-.12-.6-.37-.78s-.61-.26-1.09-.26h-2.1v-1.38h1.9c.44 0 .77-.08 1.01-.26.23-.17.35-.41.35-.72 0-.33-.14-.59-.42-.79-.28-.19-.74-.29-1.38-.29-.55 0-1.06.07-1.52.2s-.89.33-1.3.58l-.54-1.25c.44-.31.97-.54 1.59-.7s1.3-.24 2.04-.24c1.08 0 1.9.2 2.48.59s.86.96.86 1.68c0 .49-.17.91-.5 1.26q-.51.525-1.35.66v-.22c.66.04 1.18.24 1.57.59s.58.83.58 1.42c0 .74-.33 1.32-.98 1.76s-1.58.66-2.78.66Zm5.57 3.29V67.1c0-.33-.01-.67-.03-1.01s-.05-.68-.1-1.01h1.94l.18 1.7h-.18c.16-.56.5-1.02 1.02-1.35.52-.34 1.12-.5 1.8-.5s1.34.17 1.87.5.95.82 1.25 1.44q.45.93.45 2.25c0 1.32-.15 1.63-.45 2.26s-.71 1.11-1.25 1.45c-.53.34-1.16.5-1.87.5-.67 0-1.26-.17-1.78-.5-.51-.33-.85-.77-1.02-1.33h.18v5.12h-2Zm4.06-4.83c.64 0 1.15-.22 1.54-.66.38-.44.58-1.11.58-2.01s-.19-1.56-.58-2c-.38-.44-.9-.66-1.54-.66s-1.14.22-1.52.66-.58 1.1-.58 2 .19 1.57.58 2.01c.38.44.89.66 1.52.66m9.2 1.54c-.7 0-1.32-.17-1.86-.5-.53-.34-.95-.82-1.25-1.45s-.45-1.38-.45-2.26.15-1.62.45-2.25c.3-.62.71-1.1 1.25-1.44s1.15-.5 1.86-.5 1.28.17 1.8.5.86.79 1.03 1.35h-.18l.18-1.7h1.92l-.09 1.01c-.03.34-.04.68-.04 1.01v6.06h-1.98l-.02-1.66h.19c-.17.55-.52 1-1.04 1.33s-1.11.5-1.78.5Zm.56-1.54c.63 0 1.14-.22 1.52-.66s.58-1.11.58-2.01-.19-1.56-.58-2c-.38-.44-.89-.66-1.52-.66s-1.14.22-1.52.66-.58 1.1-.58 2 .19 1.57.57 2.01q.57.66 1.53.66m11.54 1.38v-2.94c-.3.14-.61.25-.93.32-.32.08-.66.11-1.01.11-1.18 0-2.07-.28-2.65-.85s-.87-1.41-.87-2.53v-2.19h1.98v2.02c0 .68.15 1.18.45 1.48s.78.46 1.44.46c.31 0 .59-.03.83-.1.25-.06.48-.17.7-.3V65.1h1.98v8.08h-1.94Zm4.21 0v-8.08h1.98v3.17h3.65v-3.17h1.98v8.08h-1.98v-3.38h-3.65v3.38zm9.89 0v-8.08h1.98v2.7h2.13c1.08 0 1.89.23 2.43.68s.82 1.11.82 1.96c0 .55-.13 1.04-.38 1.45-.26.41-.63.73-1.11.95-.49.22-1.07.34-1.75.34h-4.11Zm1.98-1.31h1.86c.54 0 .96-.11 1.25-.34s.43-.58.43-1.05-.14-.81-.42-1.03q-.42-.33-1.26-.33h-1.86zm6.38 1.31v-8.08h1.98v8.08zm4.26 0v-8.08h1.81v6.11h-.48l4.59-6.11h1.65v8.08h-1.81v-6.13h.5l-4.61 6.13zm3.78-8.82c-.53 0-1-.09-1.41-.26s-.74-.43-1.01-.75c-.27-.33-.46-.71-.58-1.16l1.02-.35q.27.735.75 1.08c.32.23.73.34 1.23.34s.91-.11 1.23-.34c.32-.22.58-.58.78-1.07l.98.34c-.22.71-.59 1.26-1.11 1.62-.52.37-1.15.55-1.9.55Zm10.44 8.82v-8.08h7.57v8.08h-1.98v-6.54h-3.6v6.54h-1.98Zm9.64.22-.62-1.57c.35-.13.65-.3.89-.5.24-.21.43-.47.58-.8.14-.33.25-.73.31-1.22s.1-1.06.1-1.74v-2.48h6.43v8.08h-1.98v-6.54h-2.62v1.01c0 1.16-.11 2.14-.32 2.92-.21.79-.54 1.41-.99 1.87s-1.04.78-1.76.98Zm13.13-.06c-.7 0-1.32-.17-1.86-.5-.53-.34-.95-.82-1.25-1.45s-.45-1.38-.45-2.26.15-1.62.45-2.25c.3-.62.71-1.1 1.25-1.44s1.15-.5 1.86-.5 1.28.17 1.8.5.86.79 1.03 1.35h-.18l.18-1.7h1.92l-.09 1.01c-.03.34-.04.68-.04 1.01v6.06h-1.98l-.02-1.66h.19c-.17.55-.52 1-1.04 1.33s-1.11.5-1.78.5Zm.56-1.54c.63 0 1.14-.22 1.52-.66s.58-1.11.58-2.01-.19-1.56-.58-2c-.38-.44-.89-.66-1.52-.66s-1.14.22-1.52.66-.58 1.1-.58 2 .19 1.57.57 2.01q.57.66 1.53.66m10.18 1.54c-.83 0-1.56-.17-2.18-.51s-1.11-.83-1.45-1.46-.51-1.39-.51-2.26.17-1.62.52-2.24.83-1.09 1.45-1.42 1.34-.5 2.18-.5c.53 0 1.05.08 1.56.25s.92.4 1.24.71l-.61 1.39c-.29-.27-.61-.47-.97-.6s-.71-.2-1.05-.2c-.71 0-1.27.22-1.67.67s-.6 1.1-.6 1.95.2 1.51.6 1.97.96.69 1.67.69c.33 0 .67-.06 1.03-.19s.69-.33.98-.59l.61 1.38q-.495.465-1.26.72c-.765.255-1.02.26-1.54.26Zm6.25-.16v-6.51h-2.77v-1.57h7.54v1.57h-2.78v6.51h-1.98Zm6 0v-8.08h1.81v6.11h-.48l4.59-6.11h1.65v8.08h-1.81v-6.13h.5l-4.61 6.13zm9.84 0v-8.08h1.98v3.17h1.22l2.37-3.17h2.14l-2.98 4.03-.43-.62c.3.03.56.11.79.24q.345.195.66.54c.315.345.41.52.62.87l1.7 3.02h-2.13l-1.38-2.43c-.14-.25-.28-.44-.42-.58s-.29-.24-.46-.29-.38-.08-.62-.08h-1.07v3.38h-1.98Zm9.96 2.87h-1.6c.55-1.23.97-2.42 1.24-3.59s.41-2.33.41-3.5-.14-2.32-.41-3.49c-.27-1.16-.69-2.36-1.24-3.58h1.6c.51.78.92 1.55 1.23 2.3.31.76.53 1.53.67 2.31q.21 1.17.21 2.46c0 1.29-.07 1.68-.21 2.46s-.36 1.56-.67 2.32-.72 1.52-1.23 2.3ZM412.97 119.1c-.77 0-1.5-.11-2.21-.34-.7-.23-1.29-.56-1.76-.98l.58-1.26c.52.41 1.06.71 1.6.9s1.12.29 1.74.29c.79 0 1.39-.17 1.8-.5s.62-.81.62-1.42-.21-1.07-.62-1.38-1.02-.47-1.82-.47h-1.74v-1.34h1.62c.68 0 1.23-.17 1.63-.52s.61-.82.61-1.42c0-.54-.19-.96-.56-1.26-.37-.29-.91-.44-1.6-.44q-1.755 0-3.09 1.23l-.56-1.26c.44-.44.99-.78 1.66-1.02s1.38-.36 2.11-.36q1.695 0 2.67.78c.975.78.98 1.23.98 2.15 0 .69-.2 1.29-.58 1.78-.39.49-.92.82-1.59.98v-.18c.8.13 1.42.45 1.85.95.43.51.65 1.14.65 1.9 0 1-.35 1.79-1.06 2.36s-1.68.86-2.92.86Zm10.4-.15v-8.06h1.34l2.91 5.15 2.91-5.15h1.34v8.06h-1.42v-6.26h.35l-2.8 4.96h-.77l-2.8-4.96h.35v6.26h-1.42Zm10.94 0v-8.06h1.34l2.91 5.15 2.91-5.15h1.34v8.06h-1.42v-6.26h.35l-2.8 4.96h-.77l-2.8-4.96h.35v6.26h-1.42Zm65.2.15a6.5 6.5 0 0 1-2.8-.62c-.41-.2-.78-.43-1.09-.71l.58-1.26c.51.4 1.04.69 1.58.89s1.11.3 1.7.3c.76 0 1.35-.2 1.78-.59s.65-.92.65-1.58-.21-1.23-.62-1.66c-.41-.42-.98-.63-1.7-.63-.5 0-.96.1-1.37.3q-.615.3-1.08.93h-1.15v-6.78h6.83v1.39h-5.25v4.06h-.42c.29-.41.67-.72 1.16-.94s1.03-.34 1.64-.34q1.08 0 1.89.45c.81.45.95.71 1.24 1.25.29.53.44 1.16.44 1.89s-.16 1.36-.49 1.91a3.4 3.4 0 0 1-1.39 1.29c-.6.31-1.31.46-2.14.46Zm10.13-.15v-8.06h1.34l2.91 5.15 2.91-5.15h1.34v8.06h-1.42v-6.26h.35l-2.8 4.96h-.77l-2.8-4.96h.35v6.26h-1.42Zm10.94 0v-8.06h1.34l2.91 5.15 2.91-5.15h1.34v8.06h-1.42v-6.26h.35l-2.8 4.96h-.77l-2.8-4.96h.35v6.26h-1.42Zm74.36.25 5.02-11.28h1.42l5.1 11.28h-1.71l-1.39-3.2.7.45h-6.83l.75-.45-1.39 3.2h-1.68Zm5.71-9.46-2.43 5.74-.38-.37h5.68l-.32.37-2.48-5.74h-.06Zm10.69 9.61c-.77 0-1.5-.11-2.21-.34-.7-.23-1.29-.56-1.76-.98l.58-1.26c.52.41 1.06.71 1.6.9s1.13.29 1.74.29c.79 0 1.39-.17 1.8-.5s.62-.81.62-1.42-.21-1.07-.62-1.38-1.02-.47-1.82-.47h-1.74v-1.34h1.62c.68 0 1.23-.17 1.63-.52s.61-.82.61-1.42c0-.54-.19-.96-.56-1.26-.37-.29-.91-.44-1.6-.44q-1.755 0-3.09 1.23l-.56-1.26c.44-.44.99-.78 1.66-1.02s1.38-.36 2.11-.36q1.695 0 2.67.78c.975.78.98 1.23.98 2.15 0 .69-.2 1.29-.58 1.78-.39.49-.92.82-1.59.98v-.18c.8.13 1.42.45 1.85.95.43.51.65 1.14.65 1.9 0 1-.35 1.79-1.06 2.36s-1.68.86-2.92.86Zm78.47-.15 5.02-11.28h1.42l5.1 11.28h-1.71l-1.39-3.2.7.45h-6.83l.75-.45-1.39 3.2h-1.68Zm5.71-9.46-2.43 5.74-.38-.37h5.68l-.32.37-2.48-5.74h-.06Zm11.96 9.46v-2.34h-5.22v-1.18l5.49-7.76h1.34v7.65h1.68v1.3h-1.68v2.34h-1.62Zm0-3.63v-5.68h.37l-4.29 6.08v-.4zm77.19 3.63 5.02-11.28h1.42l5.1 11.28h-1.71l-1.39-3.2.7.45h-6.83l.75-.45-1.39 3.2h-1.68Zm5.71-9.46-2.43 5.74-.38-.37h5.68l-.32.37-2.48-5.74h-.06Zm10.96 9.61a6.5 6.5 0 0 1-2.8-.62c-.41-.2-.78-.43-1.09-.71l.58-1.26c.51.4 1.04.69 1.58.89s1.11.3 1.7.3c.76 0 1.35-.2 1.78-.59s.65-.92.65-1.58-.21-1.23-.62-1.66c-.41-.42-.98-.63-1.7-.63-.5 0-.96.1-1.37.3q-.615.3-1.08.93h-1.15v-6.78h6.83v1.39h-5.25v4.06h-.42c.29-.41.67-.72 1.16-.94s1.03-.34 1.64-.34q1.08 0 1.89.45c.81.45.95.71 1.24 1.25.29.53.44 1.16.44 1.89s-.16 1.36-.49 1.91a3.4 3.4 0 0 1-1.39 1.29c-.6.31-1.31.46-2.14.46Zm75.26-7.15v-11.28h9.63v11.28h-1.65v-9.9h-6.34v9.9h-1.65Zm15.7.15c-.8 0-1.49-.17-2.08-.5-.59-.34-1.04-.82-1.36-1.44s-.48-1.37-.48-2.23.16-1.61.48-2.23.77-1.1 1.36-1.44 1.28-.5 2.08-.5 1.5.17 2.09.5q.885.51 1.38 1.44c.33.62.49 1.37.49 2.23s-.16 1.61-.49 2.23-.78 1.1-1.38 1.44c-.59.34-1.29.5-2.09.5m0-1.26c.7 0 1.26-.25 1.68-.74s.62-1.22.62-2.18-.21-1.68-.62-2.17-.98-.73-1.68-.73-1.25.24-1.66.73-.62 1.21-.62 2.17.21 1.69.62 2.18.97.74 1.67.74Zm5.15 3.19v-3.33h.9c.35-.53.61-1.16.77-1.87s.24-1.58.24-2.59v-2.35h5.9v6.82h1.3v3.33h-1.39v-2.08h-6.32v2.08h-1.39Zm2.38-3.31h3.9v-5.58h-2.99v1.42c0 .78-.08 1.54-.23 2.28s-.38 1.37-.68 1.88m-38.85 15.23v-8.06h4.06c.97 0 1.69.18 2.15.55s.7.89.7 1.56c0 .52-.17.96-.52 1.3s-.8.55-1.37.62v-.21c.67.03 1.2.23 1.58.59s.58.83.58 1.41c0 .69-.26 1.24-.78 1.64s-1.25.6-2.2.6h-4.21Zm1.52-4.62h2.38c.48 0 .85-.11 1.12-.32s.4-.51.4-.88-.13-.68-.4-.89-.64-.31-1.12-.31h-2.38zm0 3.58h2.56q.78 0 1.2-.33c.28-.22.42-.54.42-.95s-.14-.73-.42-.94-.68-.32-1.2-.32h-2.56zm7.57 1.04v-8.06h1.47v6.51h-.45l4.86-6.51h1.34v8.06h-1.46v-6.53h.46l-4.9 6.53h-1.34Zm12.46.15c-.7 0-1.37-.09-1.98-.26-.62-.18-1.13-.43-1.52-.76l.5-1.09c.39.31.85.54 1.36.7.51.15 1.06.23 1.65.23.74 0 1.27-.11 1.61-.33s.5-.53.5-.94-.14-.69-.42-.9c-.28-.2-.68-.3-1.22-.3h-1.98v-1.15h1.82c.48 0 .85-.1 1.12-.3s.4-.49.4-.85c0-.38-.15-.68-.46-.9s-.79-.32-1.44-.32c-.55 0-1.06.07-1.52.21s-.9.35-1.31.62l-.48-1.04c.44-.33.96-.58 1.55-.74.6-.16 1.24-.24 1.94-.24 1.04 0 1.84.19 2.38.58s.82.95.82 1.67c0 .5-.17.93-.5 1.28-.34.35-.79.57-1.35.64v-.21c.65.03 1.17.23 1.56.58.39.36.58.83.58 1.42 0 .73-.31 1.3-.92 1.74s-1.51.65-2.68.65Zm5.49-.15v-8.06h1.47v6.51h-.45l4.86-6.51h1.34v8.06h-1.46v-6.53h.46l-4.9 6.53H888Zm11.39 0v-6.77h-2.85v-1.3h7.31v1.3h-2.86v6.77zm5.76 0v-8.06h1.6v3.3h1.39l2.51-3.3h1.76l-3.01 3.97-.4-.51c.31.03.58.11.8.23s.44.3.66.54q.315.345.66.93l1.68 2.91h-1.73l-1.44-2.46c-.16-.28-.32-.49-.46-.65a1.16 1.16 0 0 0-.51-.32c-.19-.06-.43-.09-.7-.09h-1.2v3.52h-1.6Zm8.83 0v-8.06h1.47v6.51h-.45l4.86-6.51h1.34v8.06h-1.46v-6.53h.46l-4.9 6.53h-1.34Zm-340.97 38.73a6.5 6.5 0 0 1-2.8-.62c-.42-.2-.78-.43-1.09-.71l.58-1.26c.51.4 1.04.69 1.58.89s1.11.3 1.7.3c.76 0 1.35-.2 1.78-.59s.65-.92.65-1.58-.21-1.23-.62-1.66c-.41-.42-.98-.63-1.7-.63-.5 0-.96.1-1.37.3s-.77.51-1.08.93h-1.15v-6.78h6.83v1.39h-5.25v4.06h-.42c.29-.41.68-.72 1.16-.94a3.9 3.9 0 0 1 1.64-.34q1.08 0 1.89.45c.81.45.95.71 1.24 1.25.29.53.44 1.16.44 1.89s-.16 1.36-.49 1.91a3.4 3.4 0 0 1-1.39 1.29c-.6.31-1.31.46-2.14.46Zm9.44 0q-1.95 0-3-1.5c-.7-1-1.05-2.43-1.05-4.3s.35-3.34 1.05-4.31 1.7-1.46 3-1.46 2.31.49 3.01 1.46c.69.98 1.04 2.41 1.04 4.3s-.35 3.31-1.05 4.31q-1.05 1.5-3 1.5m0-1.39c.82 0 1.43-.36 1.83-1.07s.6-1.83.6-3.34-.2-2.64-.6-3.34q-.6-1.05-1.83-1.05c-1.23 0-1.42.35-1.82 1.05-.41.7-.61 1.81-.61 3.32s.21 2.64.62 3.36c.41.71 1.02 1.07 1.82 1.07Zm6.4 1.25 5.54-10.51v.64h-6.18v-1.41h7.68v1.23l-5.22 10.05zm13.55 3.45v-9.58c0-.31-.01-.63-.04-.95l-.09-.98h1.57l.16 1.82h-.18c.17-.61.51-1.09 1.03-1.44s1.13-.53 1.85-.53 1.34.17 1.87.5.95.81 1.24 1.43.44 1.37.44 2.24-.15 1.61-.44 2.24-.71 1.11-1.24 1.44-1.16.5-1.87.5-1.32-.17-1.83-.52c-.52-.35-.86-.82-1.03-1.42h.18v5.25zm3.9-4.58c.7 0 1.27-.25 1.69-.74s.63-1.22.63-2.18-.21-1.68-.63-2.17-.98-.73-1.69-.73-1.27.24-1.69.73-.63 1.21-.63 2.17.21 1.69.63 2.18.98.74 1.69.74m5.44 1.13v-1.9h1.9v1.9zm4.88.91h-1.36l4.19-12.91h1.36zm4.08-.91v-8.06h1.52v6.8h3.15v-6.8h1.52v6.8h3.14v-6.8h1.54v8.06h-10.86Zm15.03 0v-6.77h-2.85v-1.3h7.31v1.3h-2.86v6.77zm4.37 0v-1.9h1.9v1.9zm-36.95 42.81v-1.3h4.69v1.3zm94.87 0v-1.3h4.69v1.3zm94.86 0v-1.3h4.69v1.3zm95.86 0v-1.3h4.69v1.3zm-224.49-42.81v-1.23l3.87-4.05c.5-.52.88-1.01 1.12-1.47s.37-.93.37-1.42q0-.915-.57-1.38c-.57-.465-.93-.46-1.64-.46q-.855 0-1.59.3c-.5.2-.97.51-1.43.93l-.58-1.26c.45-.42 1.01-.75 1.67-1a6 6 0 0 1 2.12-.38c1.17 0 2.08.27 2.71.8s.95 1.3.95 2.29c0 .7-.17 1.38-.51 2.02-.34.65-.85 1.31-1.54 1.99l-3.34 3.38v-.45h5.86v1.39zm13.23.14a6.5 6.5 0 0 1-2.8-.62c-.42-.2-.78-.43-1.09-.71l.58-1.26c.51.4 1.04.69 1.58.89s1.11.3 1.7.3c.76 0 1.35-.2 1.78-.59s.65-.92.65-1.58-.21-1.23-.62-1.66c-.41-.42-.98-.63-1.7-.63-.5 0-.96.1-1.37.3q-.615.3-1.08.93h-1.15v-6.78h6.83v1.39h-5.25v4.06h-.42c.29-.41.67-.72 1.16-.94a3.9 3.9 0 0 1 1.64-.34c.73 0 1.35.15 1.89.45s.95.71 1.24 1.25.44 1.16.44 1.89-.16 1.36-.49 1.91a3.4 3.4 0 0 1-1.39 1.29c-.6.31-1.32.46-2.14.46Zm9.33 0c-.77 0-1.5-.12-2.21-.34s-1.29-.56-1.76-.98l.58-1.26c.52.41 1.06.7 1.6.9s1.13.29 1.74.29c.79 0 1.39-.17 1.8-.5s.62-.81.62-1.42-.21-1.07-.62-1.38-1.02-.47-1.82-.47h-1.74v-1.34h1.62c.68 0 1.23-.17 1.63-.52.41-.35.61-.82.61-1.42 0-.54-.19-.96-.56-1.26s-.91-.44-1.6-.44q-1.755 0-3.09 1.23l-.56-1.26c.44-.44.99-.78 1.66-1.02s1.38-.36 2.11-.36q1.695 0 2.67.78c.65.52.98 1.24.98 2.15 0 .69-.19 1.29-.58 1.78s-.92.82-1.59.98v-.18c.8.13 1.42.45 1.85.95.43.51.65 1.14.65 1.9 0 1-.35 1.79-1.06 2.36s-1.68.86-2.92.86Zm10.46 3.31v-9.58c0-.31-.01-.63-.04-.95l-.09-.98h1.57l.16 1.82h-.18c.17-.61.51-1.09 1.03-1.44s1.13-.53 1.85-.53 1.34.17 1.87.5.95.81 1.24 1.43.44 1.37.44 2.24-.15 1.61-.44 2.24-.71 1.11-1.24 1.44-1.16.5-1.87.5-1.31-.17-1.83-.52-.86-.82-1.03-1.42h.18v5.25zm3.9-4.58c.7 0 1.27-.25 1.69-.74s.63-1.22.63-2.18-.21-1.68-.63-2.17-.98-.73-1.69-.73-1.27.24-1.69.73-.63 1.21-.63 2.17.21 1.69.63 2.18.98.74 1.69.74m5.45 1.13v-1.9h1.9v1.9zm4.88.91h-1.36l4.19-12.91h1.36zm4.08-.91v-8.06h1.52v6.8h3.15v-6.8h1.52v6.8h3.14v-6.8h1.54v8.06h-10.86Zm15.02 0v-6.77h-2.85v-1.3h7.31v1.3h-2.86v6.77zm4.37 0v-1.9h1.9v1.9zm24.73 0v-1.39h2.62v-8.48h.83l-3.2 1.95v-1.6l2.83-1.76h1.2v9.89h2.46v1.39h-6.75Zm12.86.14c-1.4 0-2.47-.49-3.22-1.46s-1.13-2.33-1.13-4.08c0-1.3.19-2.4.58-3.29.38-.89.93-1.57 1.64-2.04s1.57-.7 2.57-.7c.6 0 1.19.12 1.79.34.6.23 1.1.55 1.5.97l-.59 1.25c-.39-.38-.83-.67-1.3-.87-.47-.19-.94-.29-1.42-.29q-1.545 0-2.37 1.08c-.54.72-.82 1.79-.82 3.22v1.36h-.16c.07-.58.26-1.07.54-1.5s.66-.74 1.12-.97c.46-.22.97-.34 1.54-.34.67 0 1.27.16 1.78.46.52.31.92.73 1.22 1.27s.45 1.15.45 1.85-.16 1.36-.48 1.92q-.48.855-1.32 1.32c-.56.31-1.2.47-1.93.47Zm-.1-1.34c.45 0 .84-.1 1.18-.29s.6-.46.79-.81.29-.75.29-1.21-.1-.86-.29-1.2-.46-.61-.79-.81-.73-.3-1.18-.3-.84.1-1.18.3-.61.47-.8.81-.29.74-.29 1.2.1.86.29 1.21.46.62.8.81.74.29 1.18.29m8.52 1.34c-.6 0-1.19-.12-1.79-.36s-1.1-.56-1.5-.95l.59-1.26c.39.38.83.67 1.3.87s.94.3 1.42.3c1.02 0 1.81-.36 2.36-1.08s.82-1.79.82-3.22v-1.36h.16a3.2 3.2 0 0 1-.54 1.49c-.3.43-.67.75-1.13.98-.45.22-.96.34-1.53.34-.66 0-1.26-.16-1.78-.46-.53-.31-.94-.74-1.23-1.28s-.44-1.16-.44-1.84c0-.73.16-1.37.48-1.93s.76-1 1.31-1.31 1.19-.47 1.92-.47c1.41 0 2.49.48 3.24 1.45s1.13 2.33 1.13 4.09c0 1.29-.19 2.38-.57 3.28s-.92 1.58-1.64 2.05c-.71.47-1.57.71-2.58.71Zm.53-5.63c.45 0 .84-.1 1.18-.29s.61-.46.8-.81.29-.74.29-1.19-.1-.86-.29-1.21-.46-.62-.8-.82-.74-.3-1.18-.3-.84.1-1.18.3-.6.47-.79.82-.29.75-.29 1.21.1.84.29 1.19.46.62.79.81c.34.19.73.29 1.18.29m10.62 8.94v-9.58c0-.31-.01-.63-.04-.95l-.09-.98h1.57l.16 1.82h-.18c.17-.61.51-1.09 1.03-1.44s1.13-.53 1.85-.53 1.34.17 1.87.5c.53.34.95.81 1.24 1.43s.44 1.37.44 2.24-.15 1.61-.44 2.24-.71 1.11-1.24 1.44-1.16.5-1.87.5-1.32-.17-1.83-.52c-.52-.35-.86-.82-1.03-1.42h.18v5.25zm3.9-4.58c.7 0 1.27-.25 1.69-.74s.63-1.22.63-2.18-.21-1.68-.63-2.17-.98-.73-1.69-.73-1.27.24-1.69.73-.63 1.21-.63 2.17.21 1.69.63 2.18.98.74 1.69.74m5.45 1.13v-1.9h1.9v1.9zm4.88.91h-1.36l4.19-12.91h1.36zm4.08-.91v-8.06h1.52v6.8h3.15v-6.8h1.52v6.8h3.14v-6.8h1.54v8.06h-10.86Zm15.02 0v-6.77h-2.85v-1.3h7.31v1.3h-2.86v6.77zm4.37 0v-1.9h1.9v1.9zm28.5.14c-.77 0-1.5-.12-2.21-.34s-1.29-.56-1.76-.98l.58-1.26c.52.41 1.06.7 1.6.9s1.12.29 1.74.29c.79 0 1.39-.17 1.8-.5s.62-.81.62-1.42-.21-1.07-.62-1.38-1.02-.47-1.82-.47h-1.74v-1.34h1.62c.68 0 1.23-.17 1.63-.52.41-.35.61-.82.61-1.42 0-.54-.19-.96-.56-1.26-.37-.29-.91-.44-1.6-.44q-1.755 0-3.09 1.23l-.56-1.26c.44-.44.99-.78 1.66-1.02s1.38-.36 2.11-.36q1.695 0 2.67.78c.65.52.98 1.24.98 2.15 0 .69-.2 1.29-.58 1.78-.39.49-.92.82-1.59.98v-.18c.8.13 1.42.45 1.85.95.43.51.65 1.14.65 1.9 0 1-.35 1.79-1.06 2.36s-1.68.86-2.92.86Zm6.24-.14v-1.23l3.87-4.05c.5-.52.88-1.01 1.12-1.47s.37-.93.37-1.42q0-.915-.57-1.38c-.57-.465-.93-.46-1.64-.46q-.855 0-1.59.3c-.5.2-.97.51-1.43.93l-.58-1.26c.45-.42 1.01-.75 1.67-1a6 6 0 0 1 2.12-.38c1.17 0 2.08.27 2.71.8s.95 1.3.95 2.29c0 .7-.17 1.38-.51 2.02-.34.65-.85 1.31-1.54 1.99l-3.34 3.38v-.45h5.86v1.39zm13.23.14a6.5 6.5 0 0 1-2.8-.62c-.42-.2-.78-.43-1.09-.71l.58-1.26c.51.4 1.04.69 1.58.89s1.11.3 1.7.3c.76 0 1.35-.2 1.78-.59s.65-.92.65-1.58-.21-1.23-.62-1.66c-.41-.42-.98-.63-1.7-.63-.5 0-.96.1-1.37.3q-.615.3-1.08.93h-1.15v-6.78h6.83v1.39h-5.25v4.06h-.42c.29-.41.67-.72 1.16-.94a3.9 3.9 0 0 1 1.64-.34q1.08 0 1.89.45c.81.45.95.71 1.24 1.25.29.53.44 1.16.44 1.89s-.16 1.36-.49 1.91a3.4 3.4 0 0 1-1.39 1.29c-.6.31-1.31.46-2.14.46Zm10.19 3.31v-9.58c0-.31-.01-.63-.04-.95l-.09-.98h1.57l.16 1.82h-.18c.17-.61.51-1.09 1.03-1.44s1.13-.53 1.85-.53 1.34.17 1.87.5.95.81 1.24 1.43.44 1.37.44 2.24-.15 1.61-.44 2.24-.71 1.11-1.24 1.44-1.16.5-1.87.5-1.31-.17-1.83-.52-.86-.82-1.03-1.42h.18v5.25zm3.9-4.58c.7 0 1.27-.25 1.69-.74s.63-1.22.63-2.18-.21-1.68-.63-2.17-.98-.73-1.69-.73-1.27.24-1.69.73-.63 1.21-.63 2.17.21 1.69.63 2.18.98.74 1.69.74m5.44 1.13v-1.9h1.9v1.9zm4.88.91h-1.36l4.19-12.91h1.36zm4.08-.91v-8.06h1.52v6.8h3.15v-6.8h1.52v6.8h3.14v-6.8h1.54v8.06h-10.86Zm15.03 0v-6.77h-2.85v-1.3h7.31v1.3h-2.86v6.77zm4.37 0v-1.9h1.9v1.9zm-479.14.76c-1.4 0-2.47-.49-3.22-1.46s-1.13-2.33-1.13-4.08c0-1.3.19-2.4.58-3.29.38-.89.93-1.57 1.64-2.04s1.57-.7 2.57-.7c.6 0 1.19.12 1.79.34.6.23 1.1.55 1.5.97l-.59 1.25c-.39-.38-.83-.67-1.3-.86s-.94-.29-1.42-.29q-1.545 0-2.37 1.08c-.54.72-.82 1.79-.82 3.22v1.36h-.16c.07-.58.26-1.07.54-1.5.29-.42.66-.74 1.12-.97.46-.22.97-.34 1.54-.34.67 0 1.27.16 1.78.46.52.31.92.73 1.22 1.27s.45 1.16.45 1.85-.16 1.35-.48 1.92-.76 1-1.32 1.32-1.2.47-1.93.47Zm-.1-1.34c.45 0 .84-.1 1.18-.29s.6-.46.79-.81.29-.75.29-1.21-.1-.86-.29-1.2-.46-.61-.79-.81-.73-.3-1.18-.3-.84.1-1.18.3-.61.47-.8.81-.29.74-.29 1.2.1.86.29 1.21.46.62.8.81.74.29 1.18.29m6.12 1.2 5.54-10.51v.64h-6.18v-1.41h7.68v1.23l-5.22 10.05zm13.18.14c-1.4 0-2.47-.49-3.22-1.46s-1.13-2.33-1.13-4.08c0-1.3.19-2.4.58-3.29s.93-1.57 1.64-2.04 1.57-.7 2.57-.7c.6 0 1.19.12 1.79.34.6.23 1.1.55 1.5.97l-.59 1.25c-.39-.38-.83-.67-1.3-.86s-.94-.29-1.42-.29c-1.04 0-1.82.36-2.37 1.08-.54.72-.82 1.79-.82 3.22v1.36h-.16c.08-.58.26-1.07.54-1.5.29-.42.66-.74 1.12-.97.46-.22.97-.34 1.54-.34.67 0 1.27.16 1.78.46.52.31.92.73 1.22 1.27s.45 1.16.45 1.85-.16 1.35-.48 1.92-.76 1-1.32 1.32-1.2.47-1.93.47Zm-.1-1.34c.45 0 .84-.1 1.18-.29s.6-.46.79-.81.29-.75.29-1.21-.1-.86-.29-1.2-.46-.61-.79-.81-.73-.3-1.18-.3-.84.1-1.18.3-.61.47-.8.81-.29.74-.29 1.2.1.86.29 1.21.46.62.8.81.74.29 1.18.29m9.32 1.34q-1.95 0-3-1.5c-.7-1-1.05-2.43-1.05-4.3s.35-3.34 1.05-4.31c.7-.98 1.7-1.46 3-1.46s2.31.49 3.01 1.46c.69.98 1.04 2.41 1.04 4.29s-.35 3.32-1.05 4.31q-1.05 1.5-3 1.5Zm0-1.39c.82 0 1.43-.36 1.83-1.07s.6-1.83.6-3.34-.2-2.64-.6-3.34q-.6-1.05-1.83-1.05c-1.23 0-1.42.35-1.82 1.05-.41.7-.61 1.81-.61 3.32s.21 2.65.62 3.36 1.02 1.07 1.82 1.07Zm10.35 4.7v-9.58c0-.31-.01-.63-.04-.95l-.09-.98h1.57l.16 1.82h-.18c.17-.61.51-1.09 1.03-1.44s1.13-.53 1.85-.53 1.34.17 1.87.5.95.81 1.24 1.43.44 1.37.44 2.24-.15 1.61-.44 2.24-.71 1.11-1.24 1.44-1.16.5-1.87.5-1.31-.17-1.83-.52-.86-.82-1.03-1.42h.18v5.25zm3.9-4.58c.7 0 1.27-.25 1.69-.74s.63-1.22.63-2.18-.21-1.68-.63-2.17-.98-.73-1.69-.73-1.27.24-1.69.73-.63 1.21-.63 2.17.21 1.69.63 2.18.98.74 1.69.74m5.45 1.13v-1.9h1.9v1.9zm-48.34 45.93a6.5 6.5 0 0 1-2.8-.62 5 5 0 0 1-1.09-.71l.58-1.26c.51.39 1.04.69 1.58.89s1.11.29 1.7.29c.76 0 1.35-.2 1.78-.59s.65-.92.65-1.58-.21-1.23-.62-1.66c-.41-.42-.98-.63-1.7-.63-.5 0-.96.1-1.37.3q-.615.3-1.08.93h-1.15v-6.78h6.83v1.39h-5.25v4.06h-.42c.29-.41.67-.72 1.16-.94a3.9 3.9 0 0 1 1.64-.34q1.08 0 1.89.45c.53.3.95.71 1.24 1.25.29.53.44 1.16.44 1.89s-.16 1.36-.49 1.91a3.4 3.4 0 0 1-1.39 1.29c-.6.31-1.31.46-2.14.46Zm9.44 0q-1.95 0-3-1.5t-1.05-4.29c0-2.79.35-3.34 1.05-4.31.7-.98 1.7-1.46 3-1.46s2.31.49 3.01 1.46c.69.98 1.04 2.41 1.04 4.3s-.35 3.32-1.05 4.31q-1.05 1.5-3 1.5Zm0-1.39c.82 0 1.43-.36 1.83-1.07s.6-1.83.6-3.34-.2-2.64-.6-3.34q-.6-1.05-1.83-1.05c-1.23 0-1.42.35-1.82 1.05-.41.7-.61 1.81-.61 3.32s.21 2.65.62 3.36 1.02 1.07 1.82 1.07Zm6.4 1.25 5.54-10.51v.64h-6.18v-1.41h7.68v1.23l-5.22 10.05zm12.8.14q-1.95 0-3-1.5t-1.05-4.29c0-2.79.35-3.34 1.05-4.31.7-.98 1.7-1.46 3-1.46s2.31.49 3.01 1.46c.69.98 1.04 2.41 1.04 4.3s-.35 3.32-1.05 4.31q-1.05 1.5-3 1.5Zm0-1.39c.82 0 1.43-.36 1.83-1.07s.6-1.83.6-3.34-.2-2.64-.6-3.34q-.6-1.05-1.83-1.05c-1.23 0-1.42.35-1.82 1.05-.41.7-.61 1.81-.61 3.32s.21 2.65.62 3.36 1.02 1.07 1.82 1.07Zm10.35 4.7v-9.58c0-.31-.01-.63-.04-.95l-.09-.98h1.57l.16 1.82h-.18c.17-.61.51-1.09 1.03-1.44s1.13-.53 1.85-.53 1.34.17 1.87.5.95.81 1.24 1.43.44 1.37.44 2.24-.15 1.61-.44 2.24-.71 1.11-1.24 1.44-1.16.5-1.87.5-1.31-.17-1.83-.52-.86-.82-1.03-1.42h.18v5.25zm3.9-4.58c.7 0 1.27-.25 1.69-.74s.63-1.21.63-2.18-.21-1.68-.63-2.17c-.42-.48-.98-.73-1.69-.73s-1.27.24-1.69.73-.63 1.21-.63 2.17.21 1.69.63 2.18.98.74 1.69.74m5.45 1.13v-1.9h1.9v1.9z" style="fill:#27625f;stroke-width:0"/></g></svg>