<svg xmlns="http://www.w3.org/2000/svg" width="44" height="46" fill="none" viewBox="0 0 44 46"><path fill="#27625F" d="M42.883 23.092h-2.38a.256.256 0 0 1-.258-.26v-1.954c.005-1.107.01-2.214-.005-3.32-.016-1.237-.518-2.287-1.495-3.125a14 14 0 0 1-.884-.801A2782 2782 0 0 1 33.925 9.7l-8.452-8.452c-.243-.243-.434-.356-.6-.356s-.362.113-.6.356c-.419.41-2.229 2.22-2.229 2.22-.062.067-.134.123-.207.186l-.098.082a.25.25 0 0 1-.352-.01l-2.364-2.369c-.325-.326-.537-.465-.708-.465s-.388.14-.714.465l-2.017 2.017a5773 5773 0 0 1-9.755 9.74c-.18.175-.496.356-.801.367-2.555.046-4.273 1.8-4.283 4.35v6.687q-.008.426 0 .853c.016.357.269.605.61.605.342 0 .59-.248.61-.615q.008-.132.006-.264V17.78c0-1.831 1.226-3.057 3.041-3.057h30.971c1.8 0 3.015 1.22 3.02 3.03.006 1.397 0 2.794 0 4.19v.486c0 .094-.005.181-.015.285l-.01.134a.26.26 0 0 1-.259.244h-8.063c-1.759-.006-3.523 0-5.281.01-3.331.02-6.077 2.757-6.114 6.093a6.2 6.2 0 0 0 1.785 4.458 6.2 6.2 0 0 0 4.458 1.846q2.5.008 5.007.006h8.234c.145 0 .259.113.259.258v5.028c0 1.877-1.221 3.087-3.099 3.087H5.08c-1.882 0-3.098-1.215-3.098-3.087v-7.428c-.005-.45-.233-.74-.615-.744-.362 0-.61.294-.616.718v1.78c-.005 1.965-.01 3.993.01 5.99.016 1.334.585 2.42 1.635 3.139.388.263.833.44 1.309.62.201.078.403.155.6.243h32.362a.3.3 0 0 1 .14-.062c2.146-.46 3.434-2.048 3.439-4.246v-5.038c0-.145.114-.258.258-.258h2.4c.642-.006.833-.197.833-.823q.006-5.367.005-10.742c-.005-.657-.196-.843-.858-.849m-31.406-9.595h-.005c-.527 0-1.055-.01-1.583-.01H7.996a.254.254 0 0 1-.181-.434L18.17 2.697a.27.27 0 0 1 .367 0l1.945 1.95a.253.253 0 0 1 .005.356l-.057.068c-.062.067-.129.144-.201.217l-1.971 1.97q-2.925 2.919-5.834 5.845a1.24 1.24 0 0 1-.947.393M35.44 13.3a.26.26 0 0 1-.243.16H14.544a.258.258 0 0 1-.18-.44L24.691 2.692a.24.24 0 0 1 .181-.077c.067 0 .135.026.181.077l10.329 10.33a.26.26 0 0 1 .057.279m7.05 20.714c0 .14-.12.259-.26.259h-9.935c-2.265 0-4.536 0-6.801-.005-1.386-.006-2.664-.544-3.6-1.516a4.97 4.97 0 0 1-1.386-3.672c.093-2.617 2.24-4.702 4.882-4.748.838-.016 1.671-.02 2.509-.02.595 0 2.958.01 3.548.01H42.23a.26.26 0 0 1 .259.258z"/><path fill="#27625F" d="M42.883 23.092h-2.38a.256.256 0 0 1-.258-.26v-1.954c.005-1.107.01-2.214-.005-3.32-.016-1.237-.518-2.287-1.495-3.125a14 14 0 0 1-.884-.801A2782 2782 0 0 1 33.925 9.7l-8.452-8.452c-.243-.243-.434-.356-.6-.356s-.362.113-.6.356c-.419.41-2.229 2.22-2.229 2.22-.062.067-.134.123-.207.186l-.098.082a.25.25 0 0 1-.352-.01l-2.364-2.369c-.325-.326-.537-.465-.708-.465s-.388.14-.714.465l-2.017 2.017a5773 5773 0 0 1-9.755 9.74c-.18.175-.496.356-.801.367-2.555.046-4.273 1.8-4.283 4.35v6.687q-.008.426 0 .853c.016.357.269.605.61.605.342 0 .59-.248.61-.615q.008-.132.006-.264V17.78c0-1.831 1.226-3.057 3.041-3.057h30.971c1.8 0 3.015 1.22 3.02 3.03.006 1.397 0 2.794 0 4.19v.486c0 .094-.005.181-.015.285l-.01.134a.26.26 0 0 1-.259.244h-8.063c-1.759-.006-3.523 0-5.281.01-3.331.02-6.077 2.757-6.114 6.093a6.2 6.2 0 0 0 1.785 4.458 6.2 6.2 0 0 0 4.458 1.846q2.5.008 5.007.006h8.234c.145 0 .259.113.259.258v5.028c0 1.877-1.221 3.087-3.099 3.087H5.08c-1.882 0-3.098-1.215-3.098-3.087v-7.428c-.005-.45-.233-.74-.615-.744-.362 0-.61.294-.616.718v1.78c-.005 1.965-.01 3.993.01 5.99.016 1.334.585 2.42 1.635 3.139.388.263.833.44 1.309.62.201.078.403.155.6.243h32.362a.3.3 0 0 1 .14-.062c2.146-.46 3.434-2.048 3.439-4.246v-5.038c0-.145.114-.258.258-.258h2.4c.642-.006.833-.197.833-.823q.006-5.367.005-10.742c-.005-.657-.196-.843-.858-.849m-31.406-9.595h-.005c-.527 0-1.055-.01-1.583-.01H7.996a.254.254 0 0 1-.181-.434L18.17 2.697a.27.27 0 0 1 .367 0l1.945 1.95a.253.253 0 0 1 .005.356l-.057.068c-.062.067-.129.144-.201.217l-1.971 1.97q-2.925 2.919-5.834 5.845a1.24 1.24 0 0 1-.947.393M35.44 13.3a.26.26 0 0 1-.243.16H14.544a.258.258 0 0 1-.18-.44L24.691 2.692a.24.24 0 0 1 .181-.077c.067 0 .135.026.181.077l10.329 10.33a.26.26 0 0 1 .057.279m7.05 20.714c0 .14-.12.259-.26.259h-9.935c-2.265 0-4.536 0-6.801-.005-1.386-.006-2.664-.544-3.6-1.516a4.97 4.97 0 0 1-1.386-3.672c.093-2.617 2.24-4.702 4.882-4.748.838-.016 1.671-.02 2.509-.02.595 0 2.958.01 3.548.01H42.23a.26.26 0 0 1 .259.258z"/><path fill="#27625F" d="M1.976 29.293a.606.606 0 0 1-.61.615H1.36a.61.61 0 0 1-.605-.6.62.62 0 0 1 .18-.434.6.6 0 0 1 .43-.186.624.624 0 0 1 .61.605"/><path fill="#27625F" d="M1.976 29.293a.606.606 0 0 1-.61.615H1.36a.61.61 0 0 1-.605-.6.62.62 0 0 1 .18-.434.6.6 0 0 1 .43-.186.624.624 0 0 1 .61.605m23.503-2.352a2.37 2.37 0 0 0-2.364 2.328 2.36 2.36 0 0 0 2.359 2.39 2.36 2.36 0 0 0 2.364-2.344 2.37 2.37 0 0 0-2.359-2.374m0 3.486a1.1 1.1 0 0 1-.802-.336 1.12 1.12 0 0 1-.33-.796 1.14 1.14 0 0 1 1.111-1.123h.021c.295 0 .58.12.796.337.218.217.331.501.331.801a1.14 1.14 0 0 1-1.127 1.117"/><path fill="#27625F" d="M25.478 26.941a2.37 2.37 0 0 0-2.364 2.328 2.36 2.36 0 0 0 2.359 2.39 2.36 2.36 0 0 0 2.364-2.344 2.37 2.37 0 0 0-2.359-2.374m0 3.486a1.1 1.1 0 0 1-.802-.336 1.12 1.12 0 0 1-.33-.796 1.14 1.14 0 0 1 1.111-1.123h.021c.295 0 .58.12.796.337.218.217.331.501.331.801a1.14 1.14 0 0 1-1.127 1.117"/></svg>