<svg xmlns="http://www.w3.org/2000/svg" id="_Слой_2" data-name="Слой 2" viewBox="0 0 938.93 597.95"><defs><style>.cls-1{font-family:Mulish-Bold,Mulish;font-weight:700}.cls-1,.cls-2{fill:#27625f;font-size:16px}.cls-5{letter-spacing:0}.cls-2{font-family:Mulish-SemiBold,Mulish;font-weight:600}.cls-10,.cls-9{letter-spacing:0}.cls-11{letter-spacing:-.07em}.cls-12,.cls-13,.cls-14{letter-spacing:0}.cls-16{letter-spacing:-.08em}.cls-18{letter-spacing:-.02em}</style></defs><g id="_Слой_1-2" data-name="Слой 1"><rect width="937.93" height="596.95" x=".5" y=".5" rx="10" ry="10" style="fill:#fff;stroke:#a0b6b5;stroke-miterlimit:10"/><path d="M.5 46.44h937.93m-493.93 0v551.01M609.37 46.44v551.01M773.9 46.44v551.01M.5 92.38h937.93M.5 138.32h937.93M.5 184.26h937.93M.5 230.2h937.93M.5 276.13h937.93M.5 322.07h937.93M.5 368.01h937.93M.5 413.95h937.93M.5 459.89h937.93M.5 505.83h937.93M.5 551.77h937.93" style="stroke:#a0b6b5;stroke-miterlimit:10;fill:none"/><text class="cls-1" transform="translate(162.28 75.13)"><tspan x="0" y="0">Наименование</tspan></text><text class="cls-1" transform="translate(497.63 75.13)"><tspan x="0" y="0">от 1 ш</tspan><tspan x="49.38" y="0" class="cls-11">т</tspan><tspan x="56" y="0">.</tspan></text><text class="cls-2" transform="translate(504.35 118.95)"><tspan x="0" y="0">300 </tspan><tspan x="33.07" y="0" class="cls-18">р</tspan><tspan x="42.75" y="0" class="cls-13">.</tspan></text><text class="cls-2" transform="translate(504.35 165.48)"><tspan x="0" y="0">400 </tspan><tspan x="33.07" y="0" class="cls-18">р</tspan><tspan x="42.75" y="0" class="cls-13">.</tspan></text><text class="cls-2" transform="translate(504.35 210.87)"><tspan x="0" y="0">400 </tspan><tspan x="33.07" y="0" class="cls-18">р</tspan><tspan x="42.75" y="0" class="cls-13">.</tspan></text><text class="cls-2" transform="translate(504.35 257.3)"><tspan x="0" y="0">400 </tspan><tspan x="33.07" y="0" class="cls-18">р</tspan><tspan x="42.75" y="0" class="cls-13">.</tspan></text><text class="cls-2" transform="translate(504.35 303.74)"><tspan x="0" y="0">500 </tspan><tspan x="33.07" y="0" class="cls-18">р</tspan><tspan x="42.75" y="0" class="cls-13">.</tspan></text><text class="cls-2" transform="translate(504.35 348.69)"><tspan x="0" y="0">500 </tspan><tspan x="33.07" y="0" class="cls-18">р</tspan><tspan x="42.75" y="0" class="cls-13">.</tspan></text><text class="cls-2" transform="translate(504.35 441.52)"><tspan x="0" y="0">650 </tspan><tspan x="33.07" y="0" class="cls-18">р</tspan><tspan x="42.75" y="0" class="cls-13">.</tspan></text><text class="cls-2" transform="translate(504.35 487.95)"><tspan x="0" y="0">600 </tspan><tspan x="33.07" y="0" class="cls-18">р</tspan><tspan x="42.75" y="0" class="cls-13">.</tspan></text><text class="cls-2" transform="translate(504.35 533.87)"><tspan x="0" y="0">830 </tspan><tspan x="33.07" y="0" class="cls-18">р</tspan><tspan x="42.75" y="0" class="cls-13">.</tspan></text><text class="cls-2" transform="translate(504.35 579.26)"><tspan x="0" y="0">400 </tspan><tspan x="33.07" y="0" class="cls-18">р</tspan><tspan x="42.75" y="0" class="cls-13">.</tspan></text><text class="cls-1" transform="translate(656.7 75.13)"><tspan x="0" y="0">от 10 ш</tspan><tspan x="58.97" y="0" class="cls-11">т</tspan><tspan x="65.6" y="0">.</tspan></text><text class="cls-2" transform="translate(668.21 118.95)"><tspan x="0" y="0">250 </tspan><tspan x="33.07" y="0" class="cls-18">р</tspan><tspan x="42.75" y="0" class="cls-13">.</tspan></text><text class="cls-2" transform="translate(668.21 165.48)"><tspan x="0" y="0">350 </tspan><tspan x="33.07" y="0" class="cls-18">р</tspan><tspan x="42.75" y="0" class="cls-13">.</tspan></text><text class="cls-2" transform="translate(668.21 210.87)"><tspan x="0" y="0">350 </tspan><tspan x="33.07" y="0" class="cls-18">р</tspan><tspan x="42.75" y="0" class="cls-13">.</tspan></text><text class="cls-2" transform="translate(668.21 257.3)"><tspan x="0" y="0">350 </tspan><tspan x="33.07" y="0" class="cls-18">р</tspan><tspan x="42.75" y="0" class="cls-13">.</tspan></text><text class="cls-2" transform="translate(668.21 303.74)"><tspan x="0" y="0">450 </tspan><tspan x="33.07" y="0" class="cls-18">р</tspan><tspan x="42.75" y="0" class="cls-13">.</tspan></text><text class="cls-2" transform="translate(668.21 348.69)"><tspan x="0" y="0">450 </tspan><tspan x="33.07" y="0" class="cls-18">р</tspan><tspan x="42.75" y="0" class="cls-13">.</tspan></text><text class="cls-2" transform="translate(668.21 441.52)"><tspan x="0" y="0">600 </tspan><tspan x="33.07" y="0" class="cls-18">р</tspan><tspan x="42.75" y="0" class="cls-13">.</tspan></text><text class="cls-2" transform="translate(668.21 487.95)"><tspan x="0" y="0">550 </tspan><tspan x="33.07" y="0" class="cls-18">р</tspan><tspan x="42.75" y="0" class="cls-13">.</tspan></text><text class="cls-2" transform="translate(668.21 579.26)"><tspan x="0" y="0">350 </tspan><tspan x="33.07" y="0" class="cls-18">р</tspan><tspan x="42.75" y="0" class="cls-13">.</tspan></text><text class="cls-1" transform="translate(821.83 75.13)"><tspan x="0" y="0">от 20 ш</tspan><tspan x="58.97" y="0" class="cls-11">т</tspan><tspan x="65.6" y="0">.</tspan></text><text class="cls-2" transform="translate(833.35 118.95)"><tspan x="0" y="0">220 </tspan><tspan x="33.07" y="0" class="cls-18">р</tspan><tspan x="42.75" y="0" class="cls-13">.</tspan></text><text class="cls-2" transform="translate(833.35 165.48)"><tspan x="0" y="0">320 </tspan><tspan x="33.07" y="0" class="cls-18">р</tspan><tspan x="42.75" y="0" class="cls-13">.</tspan></text><text class="cls-2" transform="translate(833.35 210.87)"><tspan x="0" y="0">320 </tspan><tspan x="33.07" y="0" class="cls-18">р</tspan><tspan x="42.75" y="0" class="cls-13">.</tspan></text><text class="cls-2" transform="translate(833.35 257.3)"><tspan x="0" y="0">320 </tspan><tspan x="33.07" y="0" class="cls-18">р</tspan><tspan x="42.75" y="0" class="cls-13">.</tspan></text><text class="cls-2" transform="translate(833.35 303.74)"><tspan x="0" y="0">420 </tspan><tspan x="33.07" y="0" class="cls-18">р</tspan><tspan x="42.75" y="0" class="cls-13">.</tspan></text><text class="cls-2" transform="translate(833.35 348.69)"><tspan x="0" y="0">420 </tspan><tspan x="33.07" y="0" class="cls-18">р</tspan><tspan x="42.75" y="0" class="cls-13">.</tspan></text><text class="cls-2" transform="translate(833.35 441.52)"><tspan x="0" y="0">570 </tspan><tspan x="33.07" y="0" class="cls-18">р</tspan><tspan x="42.75" y="0" class="cls-13">.</tspan></text><text class="cls-2" transform="translate(833.35 487.95)"><tspan x="0" y="0">520 </tspan><tspan x="33.07" y="0" class="cls-18">р</tspan><tspan x="42.75" y="0" class="cls-13">.</tspan></text><text class="cls-2" transform="translate(833.35 579.26)"><tspan x="0" y="0">320 </tspan><tspan x="33.07" y="0" class="cls-18">р</tspan><tspan x="42.75" y="0" class="cls-13">.</tspan></text><text class="cls-1" transform="translate(15.99 27.78)"><tspan x="0" y="0">К</tspan><tspan x="11.04" y="0" class="cls-10">р</tspan><tspan x="21.06" y="0">ужки</tspan></text><text class="cls-1" transform="translate(15.99 120.13)"><tspan x="0" y="0">К</tspan><tspan x="11.04" y="0" class="cls-10">р</tspan><tspan x="21.06" y="0">ужка стандартная (белая вн</tspan><tspan x="251.9" y="0" class="cls-14">у</tspan><tspan x="260.96" y="0" class="cls-13">три и сна</tspan><tspan x="335.61" y="0" class="cls-10">р</tspan><tspan x="345.63" y="0">ужи)</tspan></text><text class="cls-1" transform="translate(15.99 164.48)"><tspan x="0" y="0">К</tspan><tspan x="11.04" y="0" class="cls-10">р</tspan><tspan x="21.06" y="0">ужка цветная вн</tspan><tspan x="156.05" y="0" class="cls-14">у</tspan><tspan x="165.1" y="0">три</tspan></text><text class="cls-1" transform="translate(15.99 213.52)"><tspan x="0" y="0">К</tspan><tspan x="11.04" y="0" class="cls-10">р</tspan><tspan x="21.06" y="0">ужка цветная вн</tspan><tspan x="156.05" y="0" class="cls-14">у</tspan><tspan x="165.1" y="0">три + </tspan><tspan x="211.2" y="0" style="letter-spacing:0">р</tspan><tspan x="221.21" y="0" class="cls-13">учка</tspan></text><text class="cls-1" transform="translate(15.99 256.3)"><tspan x="0" y="0">К</tspan><tspan x="11.04" y="0" class="cls-10">р</tspan><tspan x="21.06" y="0">ужка цветная </tspan><tspan x="136.89" y="0" class="cls-10">р</tspan><tspan x="146.91" y="0">учка + каёмка</tspan></text><text class="cls-1" transform="translate(15.99 302.74)"><tspan x="0" y="0">К</tspan><tspan x="11.04" y="0" class="cls-10">р</tspan><tspan x="21.06" y="0">ужка цветная с ложкой</tspan></text><text class="cls-1" transform="translate(15.99 349.69)"><tspan x="0" y="0">К</tspan><tspan x="11.04" y="0" class="cls-10">р</tspan><tspan x="21.06" y="0">ужка цветная сна</tspan><tspan x="165.21" y="0" class="cls-10">р</tspan><tspan x="175.23" y="0">ужи (розовая, серебр</tspan><tspan x="348.81" y="0" style="letter-spacing:-.01em">о</tspan><tspan x="358.27" y="0">, з</tspan><tspan x="375.1" y="0" class="cls-9">о</tspan><tspan x="384.63" y="0">ло</tspan><tspan x="404.07" y="0" class="cls-12">т</tspan><tspan x="411.74" y="0" class="cls-9">о</tspan><tspan x="421.27" y="0">)</tspan></text><text class="cls-1" transform="translate(15.99 441.52)"><tspan x="0" y="0">К</tspan><tspan x="11.04" y="0" class="cls-10">р</tspan><tspan x="21.06" y="0">ужка кофейная + ложка и </tspan><tspan x="237.02" y="0" class="cls-9">б</tspan><tspan x="246.57" y="0">людце</tspan></text><text class="cls-1" transform="translate(15.99 487.95)"><tspan x="0" y="0">К</tspan><tspan x="11.04" y="0" class="cls-10">р</tspan><tspan x="21.06" y="0">ужка</tspan><tspan x="62.82" y="0" style="letter-spacing:-.03em">-</tspan><tspan x="69.42" y="0" style="letter-spacing:0">х</tspan><tspan x="78.35" y="0">амелеон</tspan></text><text class="cls-1" transform="translate(15.99 533.87)"><tspan x="0" y="0" class="cls-16">Т</tspan><tspan x="8.66" y="0" class="cls-5">ермо а</tspan><tspan x="63.18" y="0" style="letter-spacing:.01em">в</tspan><tspan x="72.61" y="0" class="cls-12">т</tspan><tspan x="80.27" y="0">омобильная к</tspan><tspan x="191.81" y="0" class="cls-10">р</tspan><tspan x="201.82" y="0">ужка</tspan></text><text class="cls-1" transform="translate(15.99 579.26)"><tspan x="0" y="0" class="cls-16">Т</tspan><tspan x="8.66" y="0" class="cls-5">ермостакан с п</tspan><tspan x="130.88" y="0" class="cls-9">о</tspan><tspan x="140.41" y="0">лиграфической вставкой</tspan></text></g></svg>