<svg xmlns="http://www.w3.org/2000/svg" width="967" height="457" fill="none" viewBox="0 0 967 457"><rect width="967" height="457" fill="#fff" rx="8"/><mask id="a" fill="#fff"><path d="M0 172.363h137.375v57.454H0z"/></mask><path fill="#8BA9A7" d="M137.375 172.363h1v-1h-1zm0 57.454v1h1v-1zM0 173.363h137.375v-2H0zm136.375-1v57.454h2v-57.454zm1 56.454H0v2h137.375z" mask="url(#a)"/><path fill="#121212" d="M60.252 207.09v-2.384h-5.296v-1.072l5.536-7.824h1.216v7.712h1.696v1.184h-1.696v2.384zm0-3.568v-5.952h.368l-4.464 6.304v-.352zm7.77 2.96v-3.44h-3.393v-1.088h3.392v-3.36h1.12v3.36h3.392v1.088h-3.392v3.44zm10.153.752q-1.935 0-2.976-1.488-1.04-1.504-1.04-4.304 0-2.848 1.04-4.304 1.041-1.472 2.976-1.472 1.953 0 2.976 1.472 1.04 1.456 1.04 4.288 0 2.816-1.04 4.32-1.04 1.488-2.976 1.488m0-1.264q1.28 0 1.904-1.104.64-1.104.64-3.44t-.64-3.408q-.624-1.088-1.904-1.088-1.263 0-1.904 1.088-.64 1.073-.64 3.408t.64 3.44q.64 1.104 1.904 1.104"/><path stroke="#8BA9A7" d="M136.858 172.863h172.03v56.454h-172.03z"/><path fill="#121212" d="M216.094 207.234a7 7 0 0 1-2.208-.352q-1.04-.352-1.744-.992l.528-1.152a5.3 5.3 0 0 0 1.616.928 5.3 5.3 0 0 0 1.76.288q1.231 0 1.872-.512.64-.528.64-1.504 0-.96-.656-1.456-.64-.496-1.888-.496h-1.728v-1.232h1.616q1.056 0 1.696-.544t.64-1.488q0-.864-.592-1.312-.576-.464-1.648-.464-1.809 0-3.136 1.264l-.528-1.136a4.55 4.55 0 0 1 1.664-1.04 6 6 0 0 1 2.096-.368q1.68 0 2.64.768t.96 2.144q0 1.04-.592 1.792-.576.736-1.584.976v-.176q1.183.208 1.84.976.656.752.656 1.888 0 1.488-1.056 2.352-1.04.848-2.864.848m6.585 1.76-.656-.512q.449-.464.608-.88.16-.4.16-.832l.32.32h-1.168v-1.776h1.776v1.232q0 .688-.224 1.264-.224.592-.816 1.184m7.191-1.76q-2.065 0-3.184-1.456t-1.12-4.064q0-1.952.56-3.296.576-1.344 1.632-2.048t2.528-.704q.895 0 1.792.352.895.352 1.488.976l-.544 1.152a3.8 3.8 0 0 0-1.312-.896 3.6 3.6 0 0 0-1.44-.304q-1.584 0-2.432 1.136-.832 1.12-.832 3.344v1.424h-.16q.112-.895.544-1.536a3.1 3.1 0 0 1 1.136-.992 3.5 3.5 0 0 1 1.584-.352q1.008 0 1.792.464.783.464 1.232 1.264.447.8.448 1.856 0 1.056-.48 1.904-.48.832-1.312 1.312-.833.464-1.92.464m-.08-1.232q.704 0 1.232-.304a2.06 2.06 0 0 0 .832-.848q.303-.544.304-1.248 0-.703-.304-1.248a2.06 2.06 0 0 0-.832-.848q-.528-.304-1.232-.304-.705 0-1.248.304-.529.304-.832.848a2.5 2.5 0 0 0-.304 1.248q0 .703.304 1.248.303.544.832.848.543.304 1.248.304"/><path stroke="#8BA9A7" d="M136.753 115.695H309.63v56.598H136.753z"/><path fill="#121212" d="M201.755 149.994v-2.384h-5.296v-1.072l5.536-7.824h1.216v7.712h1.696v1.184h-1.696v2.384zm0-3.568v-5.952h.368l-4.464 6.304v-.352zm8.33 3.712q-1.952 0-3.024-.832t-1.072-2.32q0-1.168.72-1.936.736-.784 1.904-.944v.256q-1.072-.224-1.712-.976-.624-.752-.624-1.808 0-1.409 1.008-2.208 1.024-.8 2.8-.8 1.792 0 2.8.8 1.024.8 1.024 2.208 0 1.056-.608 1.824-.592.768-1.648.96v-.256q1.168.16 1.84.944.688.768.688 1.936 0 1.488-1.072 2.32-1.056.832-3.024.832m0-1.2q1.36 0 2.016-.512.672-.512.672-1.52 0-1.024-.672-1.52-.656-.496-2.016-.496-1.344 0-2.016.496t-.672 1.52q0 1.008.672 1.52t2.016.512m0-5.264q1.168 0 1.776-.512.624-.528.624-1.456 0-.912-.624-1.424-.608-.512-1.776-.512-1.152 0-1.776.512t-.624 1.424q0 .928.624 1.456.624.512 1.776.512m5.93 2.528v-1.184h4.624v1.184zm7.739 3.792v-1.264h2.64v-8.752h.752l-3.152 1.952v-1.456l2.816-1.76h1.072v10.016h2.48v1.264zm11.641.144a4.7 4.7 0 0 1-1.792-.368 4.4 4.4 0 0 1-1.488-.976l.544-1.136q.593.592 1.296.896.72.304 1.456.304 1.569 0 2.416-1.12.849-1.136.848-3.36v-1.424h.16a3.2 3.2 0 0 1-.56 1.536 3.1 3.1 0 0 1-1.136.992q-.687.352-1.568.352-1.008 0-1.792-.464a3.35 3.35 0 0 1-1.232-1.264q-.448-.816-.448-1.856 0-1.072.464-1.904.48-.833 1.312-1.296.833-.48 1.92-.48 2.08 0 3.2 1.456 1.12 1.44 1.12 4.064 0 1.936-.576 3.296-.56 1.344-1.616 2.048-1.055.704-2.528.704m.496-5.536q.705 0 1.232-.304.545-.304.848-.848.304-.544.304-1.248 0-.72-.304-1.248a2.15 2.15 0 0 0-.848-.848q-.527-.32-1.232-.32a2.4 2.4 0 0 0-1.248.32 2.2 2.2 0 0 0-.832.848q-.288.528-.288 1.248 0 .703.288 1.248.304.544.832.848.544.304 1.248.304m6.426 5.392v-1.104l3.936-4.128q.768-.784 1.136-1.504.384-.72.384-1.488 0-.944-.592-1.424-.576-.496-1.696-.496-.864 0-1.632.32a4.7 4.7 0 0 0-1.44.944l-.528-1.136q.656-.64 1.648-1.024a5.9 5.9 0 0 1 2.112-.384q1.728 0 2.672.8.944.785.944 2.256 0 1.072-.528 2.048-.512.96-1.52 1.984l-3.44 3.488v-.416h5.952v1.264z"/><mask id="b" fill="#fff"><path d="M136.253 56.652h830.745v59.486H136.253z"/></mask><path fill="#8BA9A7" d="M136.253 56.652v-1h-1v1zm0 59.486h-1v1h1zm0-58.486h830.745v-2H136.253zm830.745 57.486H136.253v2h830.745zm-829.745 1V56.652h-2v59.486z" mask="url(#b)"/><path fill="#121212" d="M530.206 92.395V82.378h-3.904v-1.264h9.328v1.264h-3.92v10.015zm5.652 0v-8.048h1.328v6.672h-.432l4.992-6.672h1.216v8.047h-1.328v-6.687h.448l-5.008 6.688zm9.642 3.456v-9.6a14 14 0 0 0-.128-1.904h1.408l.176 1.856h-.176a2.43 2.43 0 0 1 1.024-1.457q.785-.543 1.872-.543 1.073 0 1.872.495.8.497 1.232 1.44.448.929.448 2.224 0 1.297-.448 2.24-.432.945-1.232 1.44-.8.496-1.872.496t-1.856-.528a2.67 2.67 0 0 1-1.04-1.456h.176v5.296zm3.84-4.465q1.104 0 1.76-.767.656-.769.656-2.257t-.656-2.24q-.656-.75-1.76-.751-1.104 0-1.76.752-.64.751-.64 2.24 0 1.487.64 2.255.656.77 1.76.769m9.091 1.153q-1.055 0-1.856-.496-.8-.497-1.248-1.44-.447-.945-.448-2.24 0-1.296.448-2.225.448-.944 1.248-1.44.8-.495 1.856-.495 1.073 0 1.856.543.801.529 1.056 1.457h-.192l.176-1.856h1.408l-.096.96q-.032.48-.032.944v6.143h-1.456v-1.84h.176a2.54 2.54 0 0 1-1.056 1.456q-.784.528-1.84.528m.336-1.153q1.089 0 1.744-.767.656-.769.656-2.257t-.656-2.24q-.655-.75-1.744-.751-1.088 0-1.76.752-.656.751-.656 2.24 0 1.487.656 2.255.657.77 1.76.769m5.156 1.008 1.664-2.864q.368-.591.672-.944.303-.351.64-.528.351-.192.816-.24l-.352.448-3.056-3.92h1.6l2.608 3.328h1.232v-3.328h1.44v3.328h1.216l2.592-3.328h1.616l-3.056 3.92-.368-.448q.464.048.8.24.351.177.672.528.32.352.672.945l1.664 2.863h-1.552l-1.456-2.48a3.4 3.4 0 0 0-.496-.671 1.3 1.3 0 0 0-.544-.337 2.4 2.4 0 0 0-.736-.096h-1.024v3.584h-1.44V88.81h-1.04q-.449 0-.752.096a1.35 1.35 0 0 0-.528.337q-.225.24-.496.672l-1.44 2.48z"/><mask id="c" fill="#fff"><path d="M0 56.656h137.271v116.14H0z"/></mask><path fill="#8BA9A7" d="M137.271 56.656h1v-1h-1zm0 116.14v1h1v-1zM0 57.656h137.271v-2H0zm136.271-1v116.14h2V56.656zm1 115.14H0v2h137.271z" mask="url(#c)"/><path fill="#121212" d="M60.352 123.271v-2.544h-9.84v-11.28h1.472v10.016h6.576v-10.016h1.472v10.016h1.648v3.808zm2.938-2.544v-8.048h3.968q1.424 0 2.112.544.704.543.704 1.568 0 .768-.528 1.296-.528.511-1.376.624v-.208q1.008.031 1.584.592.592.543.592 1.408 0 1.023-.784 1.632-.768.592-2.16.592zm1.376-.96h2.64q.816 0 1.248-.336.432-.353.432-.992 0-.656-.432-.992t-1.248-.336h-2.64zm0-3.616h2.464q.751 0 1.168-.336.416-.337.416-.928 0-.609-.416-.928t-1.168-.32h-2.464zm11.352 4.72q-1.92 0-3.04-1.104-1.104-1.105-1.104-3.04 0-1.281.48-2.208.495-.945 1.36-1.456.864-.528 2.016-.528 1.104 0 1.872.48.768.464 1.168 1.328.4.863.4 2.048v.48h-6.16v-.864h5.168l-.272.208q0-1.249-.56-1.936-.545-.688-1.616-.688-1.169 0-1.808.816-.64.8-.64 2.192v.144q0 1.471.72 2.224.736.752 2.032.752.72 0 1.344-.208a3.7 3.7 0 0 0 1.2-.688l.48 1.008q-.544.495-1.36.768a5.2 5.2 0 0 1-1.68.272m6.906-.144v-6.88h-2.896v-1.168h7.232v1.168h-2.896v6.88z"/><mask id="d" fill="#fff"><path d="M0 0h967v57.598H0z"/></mask><path fill="#8BA9A7" d="M967 56.598H0v2h967z" mask="url(#d)"/><path fill="#121212" d="M31.284 34.799v-11.28h7.696v1.2h-6.256v3.728h3.504q1.824 0 2.832.8 1.024.784 1.024 2.352t-1.024 2.384q-1.008.816-2.832.816zm1.44-1.184h3.344q1.313 0 1.92-.496.624-.495.624-1.504t-.624-1.488q-.608-.495-1.92-.496h-3.344zm9.083 4.816-.336-1.184a6 6 0 0 0 1.248-.416q.495-.225.832-.592a3.6 3.6 0 0 0 .592-.928l.4-.96-.032.608-3.504-8.208h1.568l2.8 6.896h-.416l2.8-6.896h1.504l-3.696 8.672q-.336.784-.736 1.312a3.85 3.85 0 0 1-1.84 1.392 7.4 7.4 0 0 1-1.184.304m8.927-3.632V26.75h1.216l2.96 5.264 2.976-5.264h1.2v8.048h-1.28v-6.416h.352l-2.88 5.12h-.72l-2.88-5.136h.336v6.432zm13.964.144q-1.056 0-1.856-.496-.8-.495-1.248-1.44t-.448-2.24.448-2.224q.449-.945 1.248-1.44.8-.495 1.856-.496 1.072 0 1.856.544a2.48 2.48 0 0 1 1.056 1.456h-.192l.176-1.856h1.408l-.096.96q-.032.48-.032.944v6.144h-1.456v-1.84h.176a2.55 2.55 0 0 1-1.056 1.456q-.784.528-1.84.528m.336-1.152q1.088 0 1.744-.768t.656-2.256-.656-2.24-1.744-.752-1.76.752q-.656.752-.656 2.24t.656 2.256 1.76.768m6.403 1.008V26.75h5.713v1.168h-4.257v6.88zm10.324.144q-1.056 0-1.856-.496-.801-.495-1.248-1.44-.449-.945-.448-2.24 0-1.296.448-2.224.447-.945 1.248-1.44t1.856-.496q1.071 0 1.856.544a2.48 2.48 0 0 1 1.056 1.456h-.192l.176-1.856h1.408l-.096.96q-.032.48-.032.944v6.144H84.48v-1.84h.176a2.55 2.55 0 0 1-1.056 1.456q-.784.528-1.84.528m.336-1.152q1.087 0 1.744-.768.656-.768.656-2.256-.001-1.488-.656-2.24-.657-.752-1.744-.752-1.088 0-1.76.752-.656.752-.656 2.24t.656 2.256 1.76.768m14.094 1.152a7 7 0 0 1-2.208-.352q-1.04-.353-1.744-.992l.528-1.152a5.3 5.3 0 0 0 1.616.928 5.3 5.3 0 0 0 1.76.288q1.231 0 1.872-.512.64-.529.64-1.504 0-.96-.656-1.456-.64-.495-1.888-.496h-1.728v-1.232h1.616q1.056 0 1.696-.544t.64-1.488q0-.864-.592-1.312-.576-.464-1.648-.464-1.809 0-3.136 1.264l-.528-1.136a4.6 4.6 0 0 1 1.664-1.04 6 6 0 0 1 2.096-.368q1.68 0 2.64.768t.96 2.144q0 1.04-.592 1.792-.576.735-1.584.976v-.176q1.183.207 1.84.976.656.751.656 1.888 0 1.488-1.056 2.352-1.04.848-2.864.848m9.673 0q-1.935 0-2.976-1.488-1.04-1.504-1.04-4.304 0-2.849 1.04-4.304 1.041-1.472 2.976-1.472 1.953 0 2.976 1.472 1.04 1.455 1.04 4.288 0 2.816-1.04 4.32-1.04 1.488-2.976 1.488m0-1.264q1.28 0 1.904-1.104.64-1.104.64-3.44t-.64-3.408q-.623-1.088-1.904-1.088-1.263 0-1.904 1.088-.64 1.072-.64 3.408t.64 3.44 1.904 1.104m9.594 1.264q-1.935 0-2.976-1.488-1.04-1.504-1.04-4.304 0-2.849 1.04-4.304 1.041-1.472 2.976-1.472 1.953 0 2.976 1.472 1.04 1.455 1.04 4.288 0 2.816-1.04 4.32-1.04 1.488-2.976 1.488m0-1.264q1.28 0 1.904-1.104.64-1.104.64-3.44t-.64-3.408q-.624-1.088-1.904-1.088-1.263 0-1.904 1.088-.64 1.072-.64 3.408t.64 3.44 1.904 1.104m6.042 1.12V26.75h5.712v1.168h-4.256v6.88zm6.819.896h-1.232l4.176-12.88h1.248zm4.118-.896V26.75h1.216l2.96 5.264 2.976-5.264h1.2v8.048h-1.28v-6.416h.352l-2.88 5.12h-.72l-2.88-5.136h.336v6.432zm11.308 1.904-.656-.512q.449-.465.608-.88.16-.4.16-.832l.32.32h-1.168v-1.776h1.776v1.232q0 .688-.224 1.264-.224.593-.816 1.184m11.233-1.76a6.7 6.7 0 0 1-2.784-.608 4.4 4.4 0 0 1-1.088-.736l.528-1.152a5.9 5.9 0 0 0 1.6.928 5.1 5.1 0 0 0 1.712.288q1.184 0 1.856-.624.672-.623.672-1.664 0-1.072-.64-1.728-.639-.672-1.776-.672-.783 0-1.424.32-.624.303-1.104.976h-1.056v-6.752h6.768v1.264h-5.328v4.272h-.384a2.9 2.9 0 0 1 1.168-.992 3.9 3.9 0 0 1 1.68-.352q1.089 0 1.872.448.8.448 1.232 1.264.448.8.448 1.872t-.48 1.904q-.48.815-1.376 1.28-.88.464-2.096.464m9.402 0q-1.936 0-2.976-1.488-1.04-1.504-1.04-4.304 0-2.849 1.04-4.304 1.04-1.472 2.976-1.472 1.952 0 2.976 1.472 1.04 1.455 1.04 4.288 0 2.816-1.04 4.32-1.04 1.488-2.976 1.488m0-1.264q1.28 0 1.904-1.104.64-1.104.64-3.44t-.64-3.408q-.624-1.088-1.904-1.088-1.264 0-1.904 1.088-.64 1.072-.64 3.408t.64 3.44 1.904 1.104m4.97 1.12 3.648-4.512v.72l-3.44-4.256h1.744l2.512 3.216h-.528l2.512-3.216h1.728l-3.392 4.224v-.656l3.6 4.48h-1.76l-2.688-3.44h.528l-2.72 3.44zm12.637.144a4.7 4.7 0 0 1-1.792-.368q-.895-.367-1.488-.976l.544-1.136a4.2 4.2 0 0 0 1.296.896q.72.304 1.456.304 1.568 0 2.416-1.12.848-1.136.848-3.36v-1.424h.16a3.2 3.2 0 0 1-.56 1.536 3.1 3.1 0 0 1-1.136.992q-.688.352-1.568.352-1.008 0-1.792-.464a3.34 3.34 0 0 1-1.232-1.264q-.448-.816-.448-1.856 0-1.073.464-1.904.48-.832 1.312-1.296.833-.48 1.92-.48 2.08 0 3.2 1.456 1.12 1.44 1.12 4.064 0 1.936-.576 3.296-.56 1.344-1.616 2.048t-2.528.704m.496-5.536q.704 0 1.232-.304a2.16 2.16 0 0 0 .848-.848 2.5 2.5 0 0 0 .304-1.248q0-.72-.304-1.248a2.16 2.16 0 0 0-.848-.848q-.528-.32-1.232-.32-.703 0-1.248.32a2.2 2.2 0 0 0-.832.848q-.288.528-.288 1.248 0 .704.288 1.248.304.544.832.848.545.303 1.248.304m9.866 5.536q-1.936 0-2.976-1.488-1.04-1.504-1.04-4.304 0-2.849 1.04-4.304 1.04-1.472 2.976-1.472 1.951 0 2.976 1.472 1.04 1.455 1.04 4.288 0 2.816-1.04 4.32-1.041 1.488-2.976 1.488m0-1.264q1.28 0 1.904-1.104.64-1.104.64-3.44t-.64-3.408q-.624-1.088-1.904-1.088-1.265 0-1.904 1.088-.64 1.072-.64 3.408t.64 3.44 1.904 1.104m6.042 1.12V26.75h1.216l2.96 5.264 2.976-5.264h1.2v8.048h-1.28v-6.416h.352l-2.88 5.12h-.72l-2.88-5.136h.336v6.432zm10.843 0V26.75h1.216l2.96 5.264 2.976-5.264h1.2v8.048h-1.28v-6.416h.352l-2.88 5.12h-.72l-2.88-5.136h.336v6.432z"/><path stroke="#8BA9A7" d="M308.872 172.863h194.052v56.454H308.872z"/><path fill="#121212" d="M405.618 207.234a7 7 0 0 1-2.208-.352q-1.04-.352-1.744-.992l.528-1.152a5.3 5.3 0 0 0 1.616.928 5.4 5.4 0 0 0 1.76.288q1.233 0 1.872-.512.64-.528.64-1.504 0-.96-.656-1.456-.64-.496-1.888-.496h-1.728v-1.232h1.616q1.056 0 1.696-.544t.64-1.488q0-.864-.592-1.312-.576-.464-1.648-.464-1.807 0-3.136 1.264l-.528-1.136a4.55 4.55 0 0 1 1.664-1.04 6 6 0 0 1 2.096-.368q1.68 0 2.64.768t.96 2.144q0 1.04-.592 1.792-.576.736-1.584.976v-.176q1.185.208 1.84.976.656.752.656 1.888 0 1.488-1.056 2.352-1.04.848-2.864.848"/><path stroke="#8BA9A7" d="M309.613 115.695h193.213v56.598H309.613z"/><path fill="#121212" d="M375.08 149.994v-1.104l3.936-4.128q.768-.784 1.136-1.504.384-.72.384-1.488 0-.944-.592-1.424-.576-.496-1.696-.496-.864 0-1.632.32a4.7 4.7 0 0 0-1.44.944l-.528-1.136q.656-.64 1.648-1.024a5.9 5.9 0 0 1 2.112-.384q1.728 0 2.672.8.944.785.944 2.256 0 1.072-.528 2.048-.512.96-1.52 1.984l-3.44 3.488v-.416h5.952v1.264zm10.218 0v-1.264h2.64v-8.752h.752l-3.152 1.952v-1.456l2.816-1.76h1.072v10.016h2.48v1.264zm12.777.144q-2.064 0-3.184-1.456t-1.12-4.064q0-1.952.56-3.296.576-1.344 1.632-2.048t2.528-.704q.897 0 1.792.352.897.352 1.488.976l-.544 1.152a3.8 3.8 0 0 0-1.312-.896 3.6 3.6 0 0 0-1.44-.304q-1.583 0-2.432 1.136-.832 1.12-.832 3.344v1.424h-.16q.112-.895.544-1.536a3.1 3.1 0 0 1 1.136-.992q.705-.352 1.584-.352 1.008 0 1.792.464a3.33 3.33 0 0 1 1.232 1.264q.448.8.448 1.856t-.48 1.904q-.48.832-1.312 1.312-.831.464-1.92.464m-.08-1.232q.704 0 1.232-.304.544-.304.832-.848.304-.544.304-1.248 0-.703-.304-1.248a2.05 2.05 0 0 0-.832-.848q-.527-.304-1.232-.304-.704 0-1.248.304a2.2 2.2 0 0 0-.832.848 2.5 2.5 0 0 0-.304 1.248q0 .703.304 1.248.304.544.832.848.544.304 1.248.304m5.642-2.704v-1.184h4.624v1.184zm10.475 3.936a7 7 0 0 1-2.208-.352q-1.04-.352-1.744-.992l.528-1.152a5.3 5.3 0 0 0 1.616.928 5.3 5.3 0 0 0 1.76.288q1.232 0 1.872-.512.64-.528.64-1.504 0-.96-.656-1.456-.64-.496-1.888-.496h-1.728v-1.232h1.616q1.056 0 1.696-.544t.64-1.488q0-.864-.592-1.312-.576-.464-1.648-.464-1.808 0-3.136 1.264l-.528-1.136a4.55 4.55 0 0 1 1.664-1.04 6 6 0 0 1 2.096-.368q1.68 0 2.64.768t.96 2.144q0 1.04-.592 1.792-.576.736-1.584.976v-.176q1.184.208 1.84.976.656.752.656 1.888 0 1.488-1.056 2.352-1.04.848-2.864.848m9.674 0q-1.953 0-3.024-.832-1.072-.832-1.072-2.32 0-1.168.72-1.936.735-.784 1.904-.944v.256q-1.073-.224-1.712-.976-.624-.752-.624-1.808 0-1.409 1.008-2.208 1.024-.8 2.8-.8 1.791 0 2.8.8 1.024.8 1.024 2.208 0 1.056-.608 1.824-.592.768-1.648.96v-.256q1.167.16 1.84.944.688.768.688 1.936 0 1.488-1.072 2.32-1.056.832-3.024.832m0-1.2q1.359 0 2.016-.512.672-.512.672-1.52 0-1.024-.672-1.52-.657-.496-2.016-.496-1.344 0-2.016.496t-.672 1.52q0 1.008.672 1.52t2.016.512m0-5.264q1.167 0 1.776-.512.624-.528.624-1.456 0-.912-.624-1.424-.609-.512-1.776-.512-1.152 0-1.776.512t-.624 1.424q0 .928.624 1.456.624.512 1.776.512m10.857 6.32v-2.384h-5.296v-1.072l5.536-7.824h1.216v7.712h1.696v1.184h-1.696v2.384zm0-3.568v-5.952h.368l-4.464 6.304v-.352z"/><path stroke="#8BA9A7" d="M502.732 172.125h194.425v57.178H502.732z"/><path fill="#121212" d="M589.805 206.715v-1.104l3.936-4.128q.768-.784 1.136-1.504.384-.72.384-1.488 0-.944-.592-1.424-.576-.496-1.696-.496-.864 0-1.632.32a4.7 4.7 0 0 0-1.44.944l-.528-1.136q.656-.64 1.648-1.024a5.9 5.9 0 0 1 2.112-.384q1.728 0 2.672.8.944.785.944 2.256 0 1.072-.528 2.048-.512.96-1.52 1.984l-3.44 3.488v-.416h5.952v1.264zm9.946 1.904-.656-.512q.447-.464.608-.88.16-.4.16-.832l.32.32h-1.168v-1.776h1.776v1.232q0 .688-.224 1.264-.225.592-.816 1.184m6.822-1.76q-1.952 0-3.024-.832t-1.072-2.32q0-1.168.72-1.936.737-.784 1.904-.944v.256q-1.071-.224-1.712-.976-.624-.752-.624-1.808 0-1.409 1.008-2.208 1.024-.8 2.8-.8 1.792 0 2.8.8 1.024.8 1.024 2.208 0 1.056-.608 1.824-.591.768-1.648.96v-.256q1.168.16 1.84.944.688.768.688 1.936 0 1.488-1.072 2.32-1.056.832-3.024.832m0-1.2q1.36 0 2.016-.512.672-.512.672-1.52 0-1.024-.672-1.52-.655-.496-2.016-.496-1.344 0-2.016.496t-.672 1.52q0 1.008.672 1.52t2.016.512m0-5.264q1.169 0 1.776-.512.624-.528.624-1.456 0-.912-.624-1.424-.607-.512-1.776-.512-1.152 0-1.776.512t-.624 1.424q0 .928.624 1.456.624.512 1.776.512"/><path stroke="#8BA9A7" d="M502.812 115.695h194.23v56.598h-194.23z"/><path fill="#121212" d="M573.491 149.994v-2.384h-5.296v-1.072l5.536-7.824h1.216v7.712h1.696v1.184h-1.696v2.384zm0-3.568v-5.952h.368l-4.464 6.304v-.352zm8.33 3.712q-1.937 0-2.976-1.488-1.04-1.504-1.04-4.304 0-2.848 1.04-4.304 1.04-1.472 2.976-1.472 1.952 0 2.976 1.472 1.04 1.456 1.04 4.288 0 2.816-1.04 4.32-1.041 1.488-2.976 1.488m0-1.264q1.28 0 1.904-1.104.64-1.104.64-3.44t-.64-3.408q-.624-1.088-1.904-1.088-1.265 0-1.904 1.088-.64 1.073-.64 3.408t.64 3.44 1.904 1.104m9.593 1.264q-1.951 0-3.024-.832t-1.072-2.32q0-1.168.72-1.936.737-.784 1.904-.944v.256q-1.071-.224-1.712-.976-.624-.752-.624-1.808 0-1.409 1.008-2.208 1.024-.8 2.8-.8 1.792 0 2.8.8 1.024.8 1.024 2.208 0 1.056-.608 1.824-.591.768-1.648.96v-.256q1.168.16 1.84.944.688.768.688 1.936 0 1.488-1.072 2.32-1.056.832-3.024.832m0-1.2q1.36 0 2.016-.512.672-.512.672-1.52 0-1.024-.672-1.52-.655-.496-2.016-.496-1.344 0-2.016.496t-.672 1.52q0 1.008.672 1.52t2.016.512m0-5.264q1.168 0 1.776-.512.624-.528.624-1.456 0-.912-.624-1.424-.608-.512-1.776-.512-1.152 0-1.776.512t-.624 1.424q0 .928.624 1.456.624.512 1.776.512m5.93 2.528v-1.184h4.624v1.184zm11.819 3.792v-2.384h-5.296v-1.072l5.536-7.824h1.216v7.712h1.696v1.184h-1.696v2.384zm0-3.568v-5.952h.368l-4.464 6.304v-.352zm8.329 3.712q-1.951 0-3.024-.832t-1.072-2.32q0-1.168.72-1.936.737-.784 1.904-.944v.256q-1.071-.224-1.712-.976-.624-.752-.624-1.808 0-1.409 1.008-2.208 1.024-.8 2.8-.8 1.792 0 2.8.8 1.024.8 1.024 2.208 0 1.056-.608 1.824-.591.768-1.648.96v-.256q1.168.16 1.84.944.688.768.688 1.936 0 1.488-1.072 2.32-1.056.832-3.024.832m0-1.2q1.36 0 2.016-.512.672-.512.672-1.52 0-1.024-.672-1.52-.656-.496-2.016-.496-1.344 0-2.016.496t-.672 1.52q0 1.008.672 1.52t2.016.512m0-5.264q1.168 0 1.776-.512.624-.528.624-1.456 0-.912-.624-1.424-.608-.512-1.776-.512-1.152 0-1.776.512t-.624 1.424q0 .928.624 1.456.624.512 1.776.512m9.594 6.464q-1.937 0-2.976-1.488-1.04-1.504-1.04-4.304 0-2.848 1.04-4.304 1.04-1.472 2.976-1.472 1.952 0 2.976 1.472 1.04 1.456 1.04 4.288 0 2.816-1.04 4.32-1.04 1.488-2.976 1.488m0-1.264q1.28 0 1.904-1.104.64-1.104.64-3.44t-.64-3.408q-.624-1.088-1.904-1.088-1.264 0-1.904 1.088-.64 1.073-.64 3.408t.64 3.44 1.904 1.104"/><mask id="e" fill="#fff"><path d="M696.523 171.848h270.476v57.597H696.523z"/></mask><path fill="#8BA9A7" d="M696.523 171.848v-1h-1v1zm0 57.597h-1v1h1zm0-56.597h270.476v-2H696.523zm270.476 55.597H696.523v2h270.476zm-269.476 1v-57.597h-2v57.597z" mask="url(#e)"/><path fill="#121212" d="M828.121 206.646v-1.104l3.936-4.128q.768-.784 1.136-1.504.384-.72.384-1.488 0-.944-.592-1.424-.576-.495-1.696-.496-.864 0-1.632.32a4.8 4.8 0 0 0-1.44.944l-.528-1.136q.656-.64 1.648-1.024a5.9 5.9 0 0 1 2.112-.384q1.728 0 2.672.8.944.784.944 2.256 0 1.073-.528 2.048-.512.96-1.52 1.984l-3.44 3.488v-.416h5.952v1.264z"/><mask id="f" fill="#fff"><path d="M696.523 115.195h270.476v57.598H696.523z"/></mask><path fill="#8BA9A7" d="M696.523 115.195v-1h-1v1zm0 57.598h-1v1h1zm0-56.598h270.476v-2H696.523zm270.476 55.598H696.523v2h270.476zm-269.476 1v-57.598h-2v57.598z" mask="url(#f)"/><path fill="#121212" d="M790.513 150.138q-1.808 0-2.864-1.136t-1.056-3.328v-1.392q0-2.24.944-3.616t2.928-1.856l2.944-.736.432 1.184-3.264.784q-.88.208-1.456.752a3.5 3.5 0 0 0-.864 1.28 4.5 4.5 0 0 0-.272 1.568v.688h-.224q.192-.72.608-1.248a2.75 2.75 0 0 1 1.072-.8 3.4 3.4 0 0 1 1.408-.288q1.04 0 1.824.48t1.216 1.392q.448.896.448 2.144 0 1.28-.48 2.208a3.3 3.3 0 0 1-1.328 1.424q-.864.496-2.016.496m-.048-1.152q1.12 0 1.76-.736.656-.736.656-2.192 0-1.424-.656-2.176-.64-.752-1.76-.752t-1.776.736q-.64.736-.64 2.096 0 1.52.64 2.272.655.752 1.776.752m9.375 1.152q-1.184 0-2.048-.496a3.5 3.5 0 0 1-1.344-1.44q-.48-.944-.48-2.24 0-1.28.48-2.208a3.4 3.4 0 0 1 1.344-1.44q.864-.512 2.048-.512t2.048.512a3.27 3.27 0 0 1 1.344 1.44q.48.929.48 2.208 0 1.296-.48 2.24a3.4 3.4 0 0 1-1.344 1.44q-.864.496-2.048.496m0-1.152q1.087 0 1.744-.768.656-.768.656-2.256t-.656-2.24-1.744-.752q-1.104 0-1.76.752-.64.752-.64 2.24t.64 2.256q.656.768 1.76.768m5.41 1.2-.512-1.136q.56-.256.928-.608a2.44 2.44 0 0 0 .592-.928q.224-.56.32-1.392t.096-2.016v-2.16h5.936v8.048h-1.44v-6.912h-3.152v1.056q0 1.855-.288 3.072-.272 1.2-.88 1.904-.592.704-1.6 1.072m9.853-.192v-8.048h1.44v2.848h2.368q1.567 0 2.352.672.8.656.8 1.904 0 .8-.368 1.392-.369.593-1.072.912-.705.32-1.712.32zm1.44-1.008h2.208q.943 0 1.44-.384.495-.4.496-1.216 0-.816-.496-1.2-.48-.384-1.44-.384h-2.208zm7.388 1.008v-8.048h1.376v6.912h3.28v-6.912h1.376v6.912h3.264v-6.912h1.392v8.048zm16.899.144q-1.92 0-3.04-1.104-1.104-1.104-1.104-3.04 0-1.28.48-2.208a3.6 3.6 0 0 1 1.36-1.456q.864-.528 2.016-.528 1.104 0 1.872.48.769.464 1.168 1.328.4.864.4 2.048v.48h-6.16v-.864h5.168l-.272.208q0-1.248-.56-1.936-.543-.688-1.616-.688-1.167 0-1.808.816-.64.8-.64 2.192v.144q0 1.472.72 2.224.736.752 2.032.752.72 0 1.344-.208a3.7 3.7 0 0 0 1.2-.688l.48 1.008q-.543.496-1.36.768a5.2 5.2 0 0 1-1.68.272m13.142 0a6.7 6.7 0 0 1-2.784-.608 4.4 4.4 0 0 1-1.088-.736l.528-1.152a5.9 5.9 0 0 0 1.6.928 5.1 5.1 0 0 0 1.712.288q1.184 0 1.856-.624t.672-1.664q0-1.072-.64-1.728-.64-.672-1.776-.672a3.14 3.14 0 0 0-1.424.32q-.624.304-1.104.976h-1.056v-6.752h6.768v1.264h-5.328v4.272h-.384a2.87 2.87 0 0 1 1.168-.992 3.9 3.9 0 0 1 1.68-.352q1.088 0 1.872.448.8.448 1.232 1.264.447.8.448 1.872 0 1.072-.48 1.904a3.33 3.33 0 0 1-1.376 1.28q-.88.464-2.096.464m9.401 0q-1.935 0-2.976-1.488-1.04-1.504-1.04-4.304 0-2.848 1.04-4.304 1.041-1.472 2.976-1.472 1.953 0 2.976 1.472 1.04 1.456 1.04 4.288 0 2.816-1.04 4.32-1.04 1.488-2.976 1.488m0-1.264q1.28 0 1.904-1.104.64-1.104.64-3.44t-.64-3.408q-.623-1.088-1.904-1.088-1.263 0-1.904 1.088-.64 1.073-.64 3.408t.64 3.44 1.904 1.104m10.858 1.12v-2.384h-5.296v-1.072l5.536-7.824h1.216v7.712h1.696v1.184h-1.696v2.384zm0-3.568v-5.952h.368l-4.464 6.304v-.352z"/><mask id="g" fill="#fff"><path d="M0 229.238h137.375v57.454H0z"/></mask><path fill="#8BA9A7" d="M137.375 229.238h1v-1h-1zm0 57.454v1h1v-1zM0 230.238h137.375v-2H0zm136.375-1v57.454h2v-57.454zm1 56.454H0v2h137.375z" mask="url(#g)"/><path fill="#121212" d="M60.252 263.965v-2.384h-5.296v-1.072l5.536-7.824h1.216v7.712h1.696v1.184h-1.696v2.384zm0-3.568v-5.952h.368l-4.464 6.304v-.352zm7.77 2.96v-3.44h-3.393v-1.088h3.392v-3.36h1.12v3.36h3.392v1.088h-3.392v3.44zm11.417.608v-2.384h-5.296v-1.072l5.536-7.824h1.216v7.712h1.696v1.184h-1.696v2.384zm0-3.568v-5.952h.368l-4.464 6.304v-.352z"/><path stroke="#8BA9A7" d="M136.858 229.738h172.03v56.454h-172.03z"/><path fill="#121212" d="M216.366 264.109a6.7 6.7 0 0 1-2.784-.608 4.4 4.4 0 0 1-1.088-.736l.528-1.152a5.9 5.9 0 0 0 1.6.928 5.1 5.1 0 0 0 1.712.288q1.184 0 1.856-.624t.672-1.664q0-1.072-.64-1.728-.64-.672-1.776-.672a3.14 3.14 0 0 0-1.424.32q-.624.304-1.104.976h-1.056v-6.752h6.768v1.264h-5.328v4.272h-.384a2.87 2.87 0 0 1 1.168-.992 3.9 3.9 0 0 1 1.68-.352q1.087 0 1.872.448.8.448 1.232 1.264.448.8.448 1.872t-.48 1.904a3.33 3.33 0 0 1-1.376 1.28q-.88.464-2.096.464m6.313 1.76-.656-.512q.449-.464.608-.88.16-.4.16-.832l.32.32h-1.168v-1.776h1.776v1.232q0 .688-.224 1.264-.224.592-.816 1.184m4.007-1.904v-1.264h2.64v-8.752h.752l-3.152 1.952v-1.456l2.816-1.76h1.072v10.016h2.48v1.264z"/><path stroke="#8BA9A7" d="M308.872 229.738h194.052v56.454H308.872z"/><path fill="#121212" d="M400.462 263.965v-2.384h-5.296v-1.072l5.536-7.824h1.216v7.712h1.696v1.184h-1.696v2.384zm0-3.568v-5.952h.368l-4.464 6.304v-.352zm5.242 5.472-.656-.512q.448-.464.608-.88.16-.4.16-.832l.32.32h-1.168v-1.776h1.776v1.232q0 .688-.224 1.264-.224.592-.816 1.184m3.382-1.904v-1.104l3.936-4.128q.768-.784 1.136-1.504.384-.72.384-1.488 0-.944-.592-1.424-.576-.496-1.696-.496-.864 0-1.632.32a4.7 4.7 0 0 0-1.44.944l-.528-1.136q.657-.64 1.648-1.024a5.9 5.9 0 0 1 2.112-.384q1.728 0 2.672.8.945.785.944 2.256 0 1.072-.528 2.048-.512.96-1.52 1.984l-3.44 3.488v-.416h5.952v1.264z"/><path stroke="#8BA9A7" d="M502.906 229.738h194.052v56.454H502.906z"/><path fill="#121212" d="M593.152 264.109a7 7 0 0 1-2.208-.352q-1.04-.352-1.744-.992l.528-1.152a5.3 5.3 0 0 0 1.616.928 5.4 5.4 0 0 0 1.76.288q1.233 0 1.872-.512.64-.528.64-1.504 0-.96-.656-1.456-.64-.496-1.888-.496h-1.728v-1.232h1.616q1.056 0 1.696-.544.64-.545.64-1.488 0-.864-.592-1.312-.576-.464-1.648-.464-1.807 0-3.136 1.264l-.528-1.136a4.55 4.55 0 0 1 1.664-1.04 6 6 0 0 1 2.096-.368q1.68 0 2.64.768t.96 2.144q0 1.04-.592 1.792-.576.736-1.584.976v-.176q1.185.208 1.84.976.656.752.656 1.888 0 1.488-1.056 2.352-1.04.848-2.864.848m6.586 1.76-.656-.512q.448-.464.608-.88.16-.4.16-.832l.32.32h-1.168v-1.776h1.776v1.232q0 .688-.224 1.264-.223.592-.816 1.184m6.054-1.76a4.7 4.7 0 0 1-1.792-.368 4.4 4.4 0 0 1-1.488-.976l.544-1.136q.592.592 1.296.896.72.304 1.456.304 1.569 0 2.416-1.12.848-1.136.848-3.36v-1.424h.16a3.2 3.2 0 0 1-.56 1.536 3.1 3.1 0 0 1-1.136.992q-.687.352-1.568.352-1.008 0-1.792-.464a3.35 3.35 0 0 1-1.232-1.264q-.447-.816-.448-1.856 0-1.072.464-1.904.48-.832 1.312-1.296.832-.48 1.92-.48 2.08 0 3.2 1.456 1.12 1.44 1.12 4.064 0 1.936-.576 3.296-.56 1.344-1.616 2.048-1.055.704-2.528.704m.496-5.536q.705 0 1.232-.304.545-.304.848-.848.304-.545.304-1.248 0-.72-.304-1.248a2.15 2.15 0 0 0-.848-.848q-.527-.32-1.232-.32a2.4 2.4 0 0 0-1.248.32 2.2 2.2 0 0 0-.832.848q-.288.528-.288 1.248 0 .703.288 1.248.304.544.832.848.544.304 1.248.304"/><mask id="h" fill="#fff"><path d="M696.443 228.871h270.476v57.598H696.443z"/></mask><path fill="#8BA9A7" d="M696.443 228.871v-1h-1v1zm0 57.598h-1v1h1zm0-56.598h270.476v-2H696.443zm270.476 55.598H696.443v2h270.476zm-269.476 1v-57.598h-2v57.598z" mask="url(#h)"/><path fill="#121212" d="M832.745 263.67v-2.384h-5.296v-1.072l5.536-7.824h1.216v7.712h1.696v1.184h-1.696v2.384zm0-3.568v-5.952h.368l-4.464 6.304v-.352z"/><mask id="i" fill="#fff"><path d="M0 285.977h137.375v57.453H0z"/></mask><path fill="#8BA9A7" d="M137.375 285.977h1v-1h-1zm0 57.453v1h1v-1zM0 286.977h137.375v-2H0zm136.375-1v57.453h2v-57.453zm1 56.453H0v2h137.375z" mask="url(#i)"/><path fill="#121212" d="M60.252 320.703v-2.384h-5.296v-1.072l5.536-7.824h1.216v7.712h1.696v1.184h-1.696v2.384zm0-3.568v-5.952h.368l-4.464 6.304v-.352zm7.77 2.96v-3.44h-3.393v-1.088h3.392v-3.36h1.12v3.36h3.392v1.088h-3.392v3.44zm7.337.608v-1.264H78v-8.752h.752l-3.152 1.952v-1.456l2.816-1.76h1.072v10.016h2.48v1.264z"/><path stroke="#8BA9A7" d="M136.858 286.477h172.03v56.454h-172.03z"/><path fill="#121212" d="M217.438 320.703v-2.384h-5.296v-1.072l5.536-7.824h1.216v7.712h1.696v1.184h-1.696v2.384zm0-3.568v-5.952h.368l-4.464 6.304v-.352zm5.241 5.472-.656-.512q.449-.464.608-.88.16-.4.16-.832l.32.32h-1.168v-1.776h1.776v1.232q0 .688-.224 1.264-.224.592-.816 1.184m6.743-1.76a7 7 0 0 1-2.208-.352q-1.04-.352-1.744-.992l.528-1.152a5.3 5.3 0 0 0 1.616.928 5.3 5.3 0 0 0 1.76.288q1.232 0 1.872-.512.64-.528.64-1.504 0-.96-.656-1.456-.64-.496-1.888-.496h-1.728v-1.232h1.616q1.056 0 1.696-.544t.64-1.488q0-.864-.592-1.312-.577-.464-1.648-.464-1.809 0-3.136 1.264l-.528-1.136a4.55 4.55 0 0 1 1.664-1.04 6 6 0 0 1 2.096-.368q1.68 0 2.64.768t.96 2.144q0 1.04-.592 1.792-.576.736-1.584.976v-.176q1.183.208 1.84.976.656.752.656 1.888 0 1.488-1.056 2.352-1.04.848-2.864.848"/><path stroke="#8BA9A7" d="M308.872 286.477h194.052v56.454H308.872z"/><path fill="#121212" d="M399.118 320.847a7 7 0 0 1-2.208-.352q-1.04-.352-1.744-.992l.528-1.152a5.3 5.3 0 0 0 1.616.928 5.4 5.4 0 0 0 1.76.288q1.233 0 1.872-.512.64-.528.64-1.504 0-.96-.656-1.456-.64-.496-1.888-.496h-1.728v-1.232h1.616q1.056 0 1.696-.544t.64-1.488q0-.864-.592-1.312-.576-.464-1.648-.464-1.807 0-3.136 1.264l-.528-1.136a4.55 4.55 0 0 1 1.664-1.04 6 6 0 0 1 2.096-.368q1.68 0 2.64.768t.96 2.144q0 1.04-.592 1.792-.576.736-1.584.976v-.176q1.185.208 1.84.976.656.752.656 1.888 0 1.488-1.056 2.352-1.04.848-2.864.848m6.586 1.76-.656-.512q.448-.464.608-.88.16-.4.16-.832l.32.32h-1.168v-1.776h1.776v1.232q0 .688-.224 1.264-.224.592-.816 1.184m7.19-1.76q-2.064 0-3.184-1.456t-1.12-4.064q0-1.952.56-3.296.576-1.344 1.632-2.048t2.528-.704q.897 0 1.792.352.897.352 1.488.976l-.544 1.152a3.8 3.8 0 0 0-1.312-.896 3.6 3.6 0 0 0-1.44-.304q-1.583 0-2.432 1.136-.831 1.12-.832 3.344v1.424h-.16q.112-.895.544-1.536a3.1 3.1 0 0 1 1.136-.992q.705-.352 1.584-.352 1.009 0 1.792.464a3.33 3.33 0 0 1 1.232 1.264q.448.8.448 1.856t-.48 1.904q-.48.832-1.312 1.312-.831.464-1.92.464m-.08-1.232q.704 0 1.232-.304.544-.304.832-.848.304-.545.304-1.248 0-.704-.304-1.248a2.05 2.05 0 0 0-.832-.848q-.527-.304-1.232-.304-.704 0-1.248.304a2.2 2.2 0 0 0-.832.848 2.5 2.5 0 0 0-.304 1.248q0 .704.304 1.248t.832.848q.544.304 1.248.304"/><path stroke="#8BA9A7" d="M502.906 286.477h194.052v56.454H502.906z"/><path fill="#121212" d="M593.152 320.847a7 7 0 0 1-2.208-.352q-1.04-.352-1.744-.992l.528-1.152a5.3 5.3 0 0 0 1.616.928 5.4 5.4 0 0 0 1.76.288q1.233 0 1.872-.512.64-.528.64-1.504 0-.96-.656-1.456-.64-.496-1.888-.496h-1.728v-1.232h1.616q1.056 0 1.696-.544t.64-1.488q0-.864-.592-1.312-.576-.464-1.648-.464-1.807 0-3.136 1.264l-.528-1.136a4.55 4.55 0 0 1 1.664-1.04 6 6 0 0 1 2.096-.368q1.68 0 2.64.768t.96 2.144q0 1.04-.592 1.792-.576.736-1.584.976v-.176q1.185.208 1.84.976.656.752.656 1.888 0 1.488-1.056 2.352-1.04.848-2.864.848m6.586 1.76-.656-.512q.448-.464.608-.88.16-.4.16-.832l.32.32h-1.168v-1.776h1.776v1.232q0 .688-.224 1.264-.223.592-.816 1.184m6.742-1.76a7 7 0 0 1-2.208-.352q-1.04-.352-1.744-.992l.528-1.152a5.3 5.3 0 0 0 1.616.928 5.4 5.4 0 0 0 1.76.288q1.233 0 1.872-.512.64-.528.64-1.504 0-.96-.656-1.456-.64-.496-1.888-.496h-1.728v-1.232h1.616q1.056 0 1.696-.544t.64-1.488q0-.864-.592-1.312-.576-.464-1.648-.464-1.807 0-3.136 1.264l-.528-1.136a4.55 4.55 0 0 1 1.664-1.04 6 6 0 0 1 2.096-.368q1.68 0 2.64.768t.96 2.144q0 1.04-.592 1.792-.576.736-1.584.976v-.176q1.185.208 1.84.976.656.752.656 1.888 0 1.488-1.056 2.352-1.04.848-2.864.848"/><mask id="j" fill="#fff"><path d="M696.443 285.75h270.476v57.598H696.443z"/></mask><path fill="#8BA9A7" d="M696.443 285.75v-1h-1v1zm0 57.598h-1v1h1zm0-56.598h270.476v-2H696.443zm270.476 55.598H696.443v2h270.476zm-269.476 1V285.75h-2v57.598z" mask="url(#j)"/><path fill="#121212" d="M821.541 320.549v-1.104l3.936-4.128q.768-.784 1.136-1.504.384-.72.384-1.488 0-.945-.592-1.424-.576-.496-1.696-.496-.864 0-1.632.32a4.7 4.7 0 0 0-1.44.944l-.528-1.136q.656-.64 1.648-1.024a5.9 5.9 0 0 1 2.112-.384q1.728 0 2.672.8.944.783.944 2.256 0 1.071-.528 2.048-.512.96-1.52 1.984l-3.44 3.488v-.416h5.952v1.264zm9.946 1.904-.656-.512q.447-.465.608-.88.16-.4.16-.832l.32.32h-1.168v-1.776h1.776v1.232q0 .688-.224 1.264-.225.591-.816 1.184m8.086-1.904v-2.384h-5.296v-1.072l5.536-7.824h1.216v7.712h1.696v1.184h-1.696v2.384zm0-3.568v-5.952h.368l-4.464 6.304v-.352z"/><mask id="k" fill="#fff"><path d="M0 342.562h137.375v57.454H0z"/></mask><path fill="#8BA9A7" d="M137.375 342.562h1v-1h-1zm0 57.454v1h1v-1zM0 343.562h137.375v-2H0zm136.375-1v57.454h2v-57.454zm1 56.454H0v2h137.375z" mask="url(#k)"/><path fill="#121212" d="M56.172 377.289v-1.264h2.64v-8.752h.752l-3.152 1.952v-1.456l2.816-1.76H60.3v10.016h2.48v1.264zm11.85-.608v-3.44h-3.393v-1.088h3.392v-3.36h1.12v3.36h3.392v1.088h-3.392v3.44zm7.337.608v-1.264H78v-8.752h.752l-3.152 1.952v-1.456l2.816-1.76h1.072v10.016h2.48v1.264z"/><path stroke="#8BA9A7" d="M136.858 343.062h172.03v56.454h-172.03z"/><path fill="#121212" d="M222.594 377.433a7 7 0 0 1-2.208-.352q-1.04-.352-1.744-.992l.528-1.152a5.3 5.3 0 0 0 1.616.928 5.3 5.3 0 0 0 1.76.288q1.231 0 1.872-.512.64-.528.64-1.504 0-.96-.656-1.456-.64-.496-1.888-.496h-1.728v-1.232h1.616q1.056 0 1.696-.544t.64-1.488q0-.864-.592-1.312-.576-.464-1.648-.464-1.809 0-3.136 1.264l-.528-1.136a4.55 4.55 0 0 1 1.664-1.04 6 6 0 0 1 2.096-.368q1.68 0 2.64.768t.96 2.144q0 1.04-.592 1.792-.576.736-1.584.976v-.176q1.183.208 1.84.976.656.752.656 1.888 0 1.488-1.056 2.352-1.04.848-2.864.848"/><path stroke="#8BA9A7" d="M308.872 343.062h194.052v56.454H308.872z"/><path fill="#121212" d="M395.758 377.289v-1.104l3.936-4.128q.768-.784 1.136-1.504.384-.72.384-1.488 0-.944-.592-1.424-.576-.496-1.696-.496-.864 0-1.632.32a4.7 4.7 0 0 0-1.44.944l-.528-1.136q.657-.64 1.648-1.024a5.9 5.9 0 0 1 2.112-.384q1.728 0 2.672.8.945.784.944 2.256 0 1.072-.528 2.048-.512.96-1.52 1.984l-3.44 3.488v-.416h5.952v1.264zm9.946 1.904-.656-.512q.448-.464.608-.88.16-.4.16-.832l.32.32h-1.168v-1.776h1.776v1.232q0 .688-.224 1.264-.224.592-.816 1.184m7.19-1.76q-2.064 0-3.184-1.456t-1.12-4.064q0-1.952.56-3.296.576-1.344 1.632-2.048t2.528-.704q.897 0 1.792.352.897.352 1.488.976l-.544 1.152a3.8 3.8 0 0 0-1.312-.896 3.6 3.6 0 0 0-1.44-.304q-1.583 0-2.432 1.136-.831 1.12-.832 3.344v1.424h-.16q.112-.895.544-1.536a3.1 3.1 0 0 1 1.136-.992q.705-.352 1.584-.352 1.009 0 1.792.464a3.33 3.33 0 0 1 1.232 1.264q.448.8.448 1.856t-.48 1.904q-.48.832-1.312 1.312-.831.464-1.92.464m-.08-1.232q.704 0 1.232-.304.544-.304.832-.848.304-.544.304-1.248 0-.703-.304-1.248a2.05 2.05 0 0 0-.832-.848q-.527-.304-1.232-.304-.704 0-1.248.304a2.2 2.2 0 0 0-.832.848 2.5 2.5 0 0 0-.304 1.248q0 .704.304 1.248t.832.848q.544.304 1.248.304"/><path stroke="#8BA9A7" d="M502.906 343.062h194.052v56.454H502.906z"/><path fill="#121212" d="M589.792 377.289v-1.104l3.936-4.128q.768-.784 1.136-1.504.384-.72.384-1.488 0-.944-.592-1.424-.576-.496-1.696-.496-.864 0-1.632.32a4.7 4.7 0 0 0-1.44.944l-.528-1.136q.657-.64 1.648-1.024a5.9 5.9 0 0 1 2.112-.384q1.728 0 2.672.8.945.784.944 2.256 0 1.072-.528 2.048-.512.96-1.52 1.984l-3.44 3.488v-.416h5.952v1.264zm9.946 1.904-.656-.512q.448-.464.608-.88.16-.4.16-.832l.32.32h-1.168v-1.776h1.776v1.232q0 .688-.224 1.264-.223.592-.816 1.184m7.014-1.76a6.7 6.7 0 0 1-2.784-.608 4.5 4.5 0 0 1-1.088-.736l.528-1.152a5.9 5.9 0 0 0 1.6.928 5.1 5.1 0 0 0 1.712.288q1.184 0 1.856-.624t.672-1.664q0-1.072-.64-1.728-.639-.672-1.776-.672-.783 0-1.424.32-.624.304-1.104.976h-1.056v-6.752h6.768v1.264h-5.328v4.272h-.384a2.9 2.9 0 0 1 1.168-.992 3.9 3.9 0 0 1 1.68-.352q1.089 0 1.872.448.8.448 1.232 1.264.448.8.448 1.872t-.48 1.904q-.48.816-1.376 1.28-.88.464-2.096.464"/><mask id="l" fill="#fff"><path d="M696.443 342.484h270.476v57.598H696.443z"/></mask><path fill="#8BA9A7" d="M696.443 342.484v-1h-1v1zm0 57.598h-1v1h1zm0-56.598h270.476v-2H696.443zm270.476 55.598H696.443v2h270.476zm-269.476 1v-57.598h-2v57.598z" mask="url(#l)"/><path fill="#121212" d="M822.165 377.283v-1.264h2.64v-8.752h.752l-3.152 1.952v-1.456l2.816-1.76h1.072v10.016h2.48v1.264zm9.322 1.904-.656-.512q.447-.463.608-.88a2.2 2.2 0 0 0 .16-.832l.32.32h-1.168v-1.776h1.776v1.232q0 .688-.224 1.264-.225.593-.816 1.184m7.014-1.76a6.7 6.7 0 0 1-2.784-.608 4.4 4.4 0 0 1-1.088-.736l.528-1.152a5.9 5.9 0 0 0 1.6.928 5.1 5.1 0 0 0 1.712.288q1.184 0 1.856-.624.672-.623.672-1.664 0-1.071-.64-1.728-.64-.672-1.776-.672-.784 0-1.424.32-.624.304-1.104.976h-1.056v-6.752h6.768v1.264h-5.328v4.272h-.384a2.9 2.9 0 0 1 1.168-.992 3.9 3.9 0 0 1 1.68-.352q1.087 0 1.872.448.8.448 1.232 1.264.448.801.448 1.872 0 1.073-.48 1.904a3.33 3.33 0 0 1-1.376 1.28q-.88.464-2.096.464"/><mask id="m" fill="#fff"><path d="M0 399.137h137.375v57.454H0z"/></mask><path fill="#8BA9A7" d="M137.375 399.137h1v-1h-1zM0 400.137h137.375v-2H0zm136.375-1v57.454h2v-57.454z" mask="url(#m)"/><path fill="#121212" d="M56.172 433.863v-1.264h2.64v-8.752h.752l-3.152 1.952v-1.456l2.816-1.76H60.3v10.016h2.48v1.264zm11.85-.608v-3.44h-3.393v-1.088h3.392v-3.36h1.12v3.36h3.392v1.088h-3.392v3.44zm10.153.752q-1.935 0-2.976-1.488-1.04-1.503-1.04-4.304 0-2.847 1.04-4.304 1.041-1.472 2.976-1.472 1.953 0 2.976 1.472 1.04 1.456 1.04 4.288 0 2.817-1.04 4.32-1.04 1.488-2.976 1.488m0-1.264q1.28 0 1.904-1.104.64-1.104.64-3.44t-.64-3.408q-.624-1.088-1.904-1.088-1.263 0-1.904 1.088-.64 1.072-.64 3.408t.64 3.44 1.904 1.104"/><mask id="n" fill="#fff"><path d="M136.358 399.137h173.03v57.454h-173.03z"/></mask><path fill="#8BA9A7" d="M136.358 399.137v-1h-1v1zm173.03 0h1v-1h-1zm-173.03 1h173.03v-2h-173.03zm172.03-1v57.454h2v-57.454zm-171.03 57.454v-57.454h-2v57.454z" mask="url(#n)"/><path fill="#121212" d="M213.358 433.863v-1.264h2.64v-8.752h.752l-3.152 1.952v-1.456l2.816-1.76h1.072v10.016h2.48v1.264zm9.321 1.904-.656-.512q.449-.463.608-.88.16-.4.16-.832l.32.32h-1.168v-1.776h1.776v1.232q0 .688-.224 1.264-.224.593-.816 1.184m7.015-1.76a6.7 6.7 0 0 1-2.784-.608 4.4 4.4 0 0 1-1.088-.736l.528-1.152a5.8 5.8 0 0 0 1.6.928 5.1 5.1 0 0 0 1.712.288q1.184 0 1.856-.624t.672-1.664q0-1.071-.64-1.728-.64-.672-1.776-.672a3.14 3.14 0 0 0-1.424.32q-.624.304-1.104.976h-1.056v-6.752h6.768v1.264h-5.328v4.272h-.384a2.9 2.9 0 0 1 1.168-.992 3.9 3.9 0 0 1 1.68-.352q1.087 0 1.872.448.8.448 1.232 1.264.448.801.448 1.872 0 1.073-.48 1.904a3.33 3.33 0 0 1-1.376 1.28q-.88.464-2.096.464"/><mask id="o" fill="#fff"><path d="M308.372 399.137h195.052v57.454H308.372z"/></mask><path fill="#8BA9A7" d="M308.372 399.137v-1h-1v1zm195.052 0h1v-1h-1zm-195.052 1h195.052v-2H308.372zm194.052-1v57.454h2v-57.454zm-193.052 57.454v-57.454h-2v57.454z" mask="url(#o)"/><path fill="#121212" d="M396.382 433.863v-1.264h2.64v-8.752h.752l-3.152 1.952v-1.456l2.816-1.76h1.072v10.016h2.48v1.264zm9.322 1.904-.656-.512q.448-.463.608-.88.16-.4.16-.832l.32.32h-1.168v-1.776h1.776v1.232q0 .688-.224 1.264-.224.593-.816 1.184m6.742-1.76a7 7 0 0 1-2.208-.352q-1.04-.351-1.744-.992l.528-1.152a5.3 5.3 0 0 0 1.616.928 5.4 5.4 0 0 0 1.76.288q1.233 0 1.872-.512.64-.528.64-1.504 0-.96-.656-1.456-.64-.495-1.888-.496h-1.728v-1.232h1.616q1.057 0 1.696-.544.64-.543.64-1.488 0-.864-.592-1.312-.576-.464-1.648-.464-1.807 0-3.136 1.264l-.528-1.136q.672-.671 1.664-1.04a6 6 0 0 1 2.096-.368q1.68 0 2.64.768t.96 2.144q0 1.04-.592 1.792-.576.736-1.584.976v-.176q1.185.208 1.84.976.656.753.656 1.888 0 1.488-1.056 2.352-1.04.848-2.864.848"/><mask id="p" fill="#fff"><path d="M502.406 399.137h195.052v57.454H502.406z"/></mask><path fill="#8BA9A7" d="M502.406 399.137v-1h-1v1zm195.052 0h1v-1h-1zm-195.052 1h195.052v-2H502.406zm194.052-1v57.454h2v-57.454zm-193.052 57.454v-57.454h-2v57.454z" mask="url(#p)"/><path fill="#121212" d="M590.416 433.863v-1.264h2.64v-8.752h.752l-3.152 1.952v-1.456l2.816-1.76h1.072v10.016h2.48v1.264zm9.322 1.904-.656-.512q.448-.463.608-.88.16-.4.16-.832l.32.32h-1.168v-1.776h1.776v1.232q0 .688-.224 1.264-.223.593-.816 1.184m3.382-1.904v-1.104l3.936-4.128q.768-.784 1.136-1.504.384-.72.384-1.488 0-.944-.592-1.424-.576-.495-1.696-.496-.864 0-1.632.32a4.8 4.8 0 0 0-1.44.944l-.528-1.136q.657-.64 1.648-1.024a5.9 5.9 0 0 1 2.112-.384q1.728 0 2.672.8.945.785.944 2.256 0 1.073-.528 2.048-.512.96-1.52 1.984l-3.44 3.488v-.416h5.952v1.264z"/><mask id="q" fill="#fff"><path d="M696.443 399.199h270.476v57.598H696.443z"/></mask><path fill="#8BA9A7" d="M696.443 399.199v-1h-1v1zm0 1h270.476v-2H696.443zm1 56.598v-57.598h-2v57.598z" mask="url(#q)"/><path fill="#121212" d="M824.981 434.142q-1.937 0-2.976-1.488-1.04-1.504-1.04-4.304 0-2.848 1.04-4.304 1.04-1.472 2.976-1.472 1.952 0 2.976 1.472 1.04 1.456 1.04 4.288 0 2.815-1.04 4.32-1.04 1.488-2.976 1.488m0-1.264q1.28 0 1.904-1.104.64-1.104.64-3.44t-.64-3.408q-.624-1.088-1.904-1.088-1.264 0-1.904 1.088-.64 1.072-.64 3.408t.64 3.44 1.904 1.104m6.506 3.024-.656-.512q.447-.464.608-.88.16-.4.16-.832l.32.32h-1.168v-1.776h1.776v1.232q0 .688-.224 1.264-.225.592-.816 1.184m6.054-1.76a4.7 4.7 0 0 1-1.792-.368 4.4 4.4 0 0 1-1.488-.976l.544-1.136q.592.592 1.296.896.72.304 1.456.304 1.568 0 2.416-1.12.848-1.136.848-3.36v-1.424h.16a3.2 3.2 0 0 1-.56 1.536 3.1 3.1 0 0 1-1.136.992q-.688.352-1.568.352-1.008 0-1.792-.464a3.34 3.34 0 0 1-1.232-1.264q-.448-.816-.448-1.856 0-1.072.464-1.904.48-.833 1.312-1.296.832-.48 1.92-.48 2.08 0 3.2 1.456 1.12 1.44 1.12 4.064 0 1.936-.576 3.296-.56 1.344-1.616 2.048t-2.528.704m.496-5.536q.704 0 1.232-.304.544-.304.848-.848t.304-1.248q0-.72-.304-1.248a2.16 2.16 0 0 0-.848-.848q-.528-.32-1.232-.32a2.4 2.4 0 0 0-1.248.32 2.2 2.2 0 0 0-.832.848q-.288.528-.288 1.248 0 .704.288 1.248.304.544.832.848.544.304 1.248.304"/><path fill="url(#r)" d="M0 14h967v443H0z"/><defs><linearGradient id="r" x1="483.5" x2="483.5" y1="14" y2="457" gradientUnits="userSpaceOnUse"><stop stop-color="#fff" stop-opacity="0"/><stop offset="1" stop-color="#fff"/></linearGradient></defs></svg>