<svg width="967" height="457" viewBox="0 0 967 457" fill="none" xmlns="http://www.w3.org/2000/svg">
<rect width="967" height="457" rx="8" fill="white"/>
<mask id="path-2-inside-1_175_3197" fill="white">
<path d="M0 172.363H137.375V229.817H0V172.363Z"/>
</mask>
<path d="M137.375 172.363H138.375V171.363H137.375V172.363ZM137.375 229.817V230.817H138.375V229.817H137.375ZM0 173.363H137.375V171.363H0V173.363ZM136.375 172.363V229.817H138.375V172.363H136.375ZM137.375 228.817H0V230.817H137.375V228.817Z" fill="#8BA9A7" mask="url(#path-2-inside-1_175_3197)"/>
<path d="M60.2517 207.09V204.706H54.9557V203.634L60.4917 195.81H61.7077V203.522H63.4037V204.706H61.7077V207.09H60.2517ZM60.2517 203.522V197.57H60.6197L56.1557 203.874V203.522H60.2517ZM68.0215 206.482V203.042H64.6295V201.954H68.0215V198.594H69.1415V201.954H72.5335V203.042H69.1415V206.482H68.0215ZM78.1752 207.234C76.8846 207.234 75.8926 206.738 75.1992 205.746C74.5059 204.743 74.1592 203.309 74.1592 201.442C74.1592 199.543 74.5059 198.109 75.1992 197.138C75.8926 196.157 76.8846 195.666 78.1752 195.666C79.4766 195.666 80.4686 196.157 81.1512 197.138C81.8446 198.109 82.1912 199.538 82.1912 201.426C82.1912 203.303 81.8446 204.743 81.1512 205.746C80.4579 206.738 79.4659 207.234 78.1752 207.234ZM78.1752 205.97C79.0286 205.97 79.6632 205.602 80.0792 204.866C80.5059 204.13 80.7192 202.983 80.7192 201.426C80.7192 199.869 80.5059 198.733 80.0792 198.018C79.6632 197.293 79.0286 196.93 78.1752 196.93C77.3326 196.93 76.6979 197.293 76.2712 198.018C75.8446 198.733 75.6312 199.869 75.6312 201.426C75.6312 202.983 75.8446 204.13 76.2712 204.866C76.6979 205.602 77.3326 205.97 78.1752 205.97Z" fill="#121212"/>
<rect x="136.858" y="172.863" width="172.03" height="56.4538" stroke="#8BA9A7"/>
<path d="M216.094 207.234C215.326 207.234 214.59 207.117 213.886 206.882C213.192 206.647 212.611 206.317 212.142 205.89L212.67 204.738C213.192 205.165 213.731 205.474 214.286 205.666C214.84 205.858 215.427 205.954 216.046 205.954C216.867 205.954 217.491 205.783 217.918 205.442C218.344 205.09 218.558 204.589 218.558 203.938C218.558 203.298 218.339 202.813 217.902 202.482C217.475 202.151 216.846 201.986 216.014 201.986H214.286V200.754H215.902C216.606 200.754 217.171 200.573 217.598 200.21C218.024 199.847 218.238 199.351 218.238 198.722C218.238 198.146 218.04 197.709 217.646 197.41C217.262 197.101 216.712 196.946 215.998 196.946C214.792 196.946 213.747 197.367 212.862 198.21L212.334 197.074C212.782 196.626 213.336 196.279 213.998 196.034C214.659 195.789 215.358 195.666 216.094 195.666C217.214 195.666 218.094 195.922 218.734 196.434C219.374 196.946 219.694 197.661 219.694 198.578C219.694 199.271 219.496 199.869 219.102 200.37C218.718 200.861 218.19 201.186 217.518 201.346V201.17C218.307 201.309 218.92 201.634 219.358 202.146C219.795 202.647 220.014 203.277 220.014 204.034C220.014 205.026 219.662 205.81 218.958 206.386C218.264 206.951 217.31 207.234 216.094 207.234ZM222.679 208.994L222.023 208.482C222.322 208.173 222.525 207.879 222.631 207.602C222.738 207.335 222.791 207.058 222.791 206.77L223.111 207.09H221.943V205.314H223.719V206.546C223.719 207.005 223.645 207.426 223.495 207.81C223.346 208.205 223.074 208.599 222.679 208.994ZM229.87 207.234C228.494 207.234 227.432 206.749 226.686 205.778C225.939 204.807 225.566 203.453 225.566 201.714C225.566 200.413 225.752 199.314 226.126 198.418C226.51 197.522 227.054 196.839 227.758 196.37C228.462 195.901 229.304 195.666 230.286 195.666C230.883 195.666 231.48 195.783 232.078 196.018C232.675 196.253 233.171 196.578 233.566 196.994L233.022 198.146C232.627 197.741 232.19 197.442 231.71 197.25C231.24 197.047 230.76 196.946 230.27 196.946C229.214 196.946 228.403 197.325 227.838 198.082C227.283 198.829 227.006 199.943 227.006 201.426V202.85H226.846C226.92 202.253 227.102 201.741 227.39 201.314C227.688 200.887 228.067 200.557 228.526 200.322C228.995 200.087 229.523 199.97 230.11 199.97C230.782 199.97 231.379 200.125 231.902 200.434C232.424 200.743 232.835 201.165 233.134 201.698C233.432 202.231 233.582 202.85 233.582 203.554C233.582 204.258 233.422 204.893 233.102 205.458C232.782 206.013 232.344 206.45 231.79 206.77C231.235 207.079 230.595 207.234 229.87 207.234ZM229.79 206.002C230.259 206.002 230.67 205.901 231.022 205.698C231.384 205.495 231.662 205.213 231.854 204.85C232.056 204.487 232.158 204.071 232.158 203.602C232.158 203.133 232.056 202.717 231.854 202.354C231.662 201.991 231.384 201.709 231.022 201.506C230.67 201.303 230.259 201.202 229.79 201.202C229.32 201.202 228.904 201.303 228.542 201.506C228.19 201.709 227.912 201.991 227.71 202.354C227.507 202.717 227.406 203.133 227.406 203.602C227.406 204.071 227.507 204.487 227.71 204.85C227.912 205.213 228.19 205.495 228.542 205.698C228.904 205.901 229.32 206.002 229.79 206.002Z" fill="#121212"/>
<rect x="136.753" y="115.695" width="172.877" height="56.5977" stroke="#8BA9A7"/>
<path d="M201.755 149.994V147.61H196.459V146.538L201.995 138.714H203.211V146.426H204.907V147.61H203.211V149.994H201.755ZM201.755 146.426V140.474H202.123L197.659 146.778V146.426H201.755ZM210.085 150.138C208.784 150.138 207.776 149.861 207.061 149.306C206.346 148.751 205.989 147.978 205.989 146.986C205.989 146.207 206.229 145.562 206.709 145.05C207.2 144.527 207.834 144.213 208.613 144.106V144.362C207.898 144.213 207.328 143.887 206.901 143.386C206.485 142.885 206.277 142.282 206.277 141.578C206.277 140.639 206.613 139.903 207.285 139.37C207.968 138.837 208.901 138.57 210.085 138.57C211.28 138.57 212.213 138.837 212.885 139.37C213.568 139.903 213.909 140.639 213.909 141.578C213.909 142.282 213.706 142.89 213.301 143.402C212.906 143.914 212.357 144.234 211.653 144.362V144.106C212.432 144.213 213.045 144.527 213.493 145.05C213.952 145.562 214.181 146.207 214.181 146.986C214.181 147.978 213.824 148.751 213.109 149.306C212.405 149.861 211.397 150.138 210.085 150.138ZM210.085 148.938C210.992 148.938 211.664 148.767 212.101 148.426C212.549 148.085 212.773 147.578 212.773 146.906C212.773 146.223 212.549 145.717 212.101 145.386C211.664 145.055 210.992 144.89 210.085 144.89C209.189 144.89 208.517 145.055 208.069 145.386C207.621 145.717 207.397 146.223 207.397 146.906C207.397 147.578 207.621 148.085 208.069 148.426C208.517 148.767 209.189 148.938 210.085 148.938ZM210.085 143.674C210.864 143.674 211.456 143.503 211.861 143.162C212.277 142.81 212.485 142.325 212.485 141.706C212.485 141.098 212.277 140.623 211.861 140.282C211.456 139.941 210.864 139.77 210.085 139.77C209.317 139.77 208.725 139.941 208.309 140.282C207.893 140.623 207.685 141.098 207.685 141.706C207.685 142.325 207.893 142.81 208.309 143.162C208.725 143.503 209.317 143.674 210.085 143.674ZM216.015 146.202V145.018H220.639V146.202H216.015ZM223.754 149.994V148.73H226.394V139.978H227.146L223.994 141.93V140.474L226.81 138.714H227.882V148.73H230.362V149.994H223.754ZM235.395 150.138C234.798 150.138 234.201 150.015 233.603 149.77C233.006 149.525 232.51 149.199 232.115 148.794L232.659 147.658C233.054 148.053 233.486 148.351 233.955 148.554C234.435 148.757 234.921 148.858 235.411 148.858C236.457 148.858 237.262 148.485 237.827 147.738C238.393 146.981 238.675 145.861 238.675 144.378V142.954H238.835C238.771 143.541 238.585 144.053 238.275 144.49C237.977 144.917 237.598 145.247 237.139 145.482C236.681 145.717 236.158 145.834 235.571 145.834C234.899 145.834 234.302 145.679 233.779 145.37C233.257 145.061 232.846 144.639 232.547 144.106C232.249 143.562 232.099 142.943 232.099 142.25C232.099 141.535 232.254 140.901 232.563 140.346C232.883 139.791 233.321 139.359 233.875 139.05C234.43 138.73 235.07 138.57 235.795 138.57C237.182 138.57 238.249 139.055 238.995 140.026C239.742 140.986 240.115 142.341 240.115 144.09C240.115 145.381 239.923 146.479 239.539 147.386C239.166 148.282 238.627 148.965 237.923 149.434C237.219 149.903 236.377 150.138 235.395 150.138ZM235.891 144.602C236.361 144.602 236.771 144.501 237.123 144.298C237.486 144.095 237.769 143.813 237.971 143.45C238.174 143.087 238.275 142.671 238.275 142.202C238.275 141.722 238.174 141.306 237.971 140.954C237.769 140.591 237.486 140.309 237.123 140.106C236.771 139.893 236.361 139.786 235.891 139.786C235.422 139.786 235.006 139.893 234.643 140.106C234.291 140.309 234.014 140.591 233.811 140.954C233.619 141.306 233.523 141.722 233.523 142.202C233.523 142.671 233.619 143.087 233.811 143.45C234.014 143.813 234.291 144.095 234.643 144.298C235.006 144.501 235.422 144.602 235.891 144.602ZM242.317 149.994V148.89L246.253 144.762C246.765 144.239 247.144 143.738 247.389 143.258C247.645 142.778 247.773 142.282 247.773 141.77C247.773 141.141 247.576 140.666 247.181 140.346C246.797 140.015 246.232 139.85 245.485 139.85C244.909 139.85 244.365 139.957 243.853 140.17C243.352 140.373 242.872 140.687 242.413 141.114L241.885 139.978C242.322 139.551 242.872 139.21 243.533 138.954C244.205 138.698 244.909 138.57 245.645 138.57C246.797 138.57 247.688 138.837 248.317 139.37C248.946 139.893 249.261 140.645 249.261 141.626C249.261 142.341 249.085 143.023 248.733 143.674C248.392 144.314 247.885 144.975 247.213 145.658L243.773 149.146V148.73H249.725V149.994H242.317Z" fill="#121212"/>
<mask id="path-9-inside-2_175_3197" fill="white">
<path d="M136.253 56.6523H966.998V116.138H136.253V56.6523Z"/>
</mask>
<path d="M136.253 56.6523V55.6523H135.253V56.6523H136.253ZM136.253 116.138H135.253V117.138H136.253V116.138ZM136.253 57.6523H966.998V55.6523H136.253V57.6523ZM966.998 115.138H136.253V117.138H966.998V115.138ZM137.253 116.138V56.6523H135.253V116.138H137.253Z" fill="#8BA9A7" mask="url(#path-9-inside-2_175_3197)"/>
<path d="M530.206 92.3945V82.3785H526.302V81.1145H535.63V82.3785H531.71V92.3945H530.206ZM535.858 92.3945V84.3465H537.186V91.0185H536.754L541.746 84.3465H542.962V92.3945H541.634V85.7065H542.082L537.074 92.3945H535.858ZM545.5 95.8505V86.2505C545.5 85.9412 545.489 85.6265 545.468 85.3065C545.447 84.9865 545.415 84.6665 545.372 84.3465H546.78L546.956 86.2025H546.78C546.94 85.5839 547.281 85.0985 547.804 84.7465C548.327 84.3839 548.951 84.2025 549.676 84.2025C550.391 84.2025 551.015 84.3679 551.548 84.6985C552.081 85.0292 552.492 85.5092 552.78 86.1385C553.079 86.7572 553.228 87.4985 553.228 88.3625C553.228 89.2265 553.079 89.9732 552.78 90.6025C552.492 91.2319 552.081 91.7119 551.548 92.0425C551.015 92.3732 550.391 92.5385 549.676 92.5385C548.961 92.5385 548.343 92.3625 547.82 92.0105C547.308 91.6479 546.961 91.1625 546.78 90.5545H546.956V95.8505H545.5ZM549.34 91.3865C550.076 91.3865 550.663 91.1305 551.1 90.6185C551.537 90.1065 551.756 89.3545 551.756 88.3625C551.756 87.3705 551.537 86.6239 551.1 86.1225C550.663 85.6212 550.076 85.3705 549.34 85.3705C548.604 85.3705 548.017 85.6212 547.58 86.1225C547.153 86.6239 546.94 87.3705 546.94 88.3625C546.94 89.3545 547.153 90.1065 547.58 90.6185C548.017 91.1305 548.604 91.3865 549.34 91.3865ZM558.431 92.5385C557.727 92.5385 557.109 92.3732 556.575 92.0425C556.042 91.7119 555.626 91.2319 555.327 90.6025C555.029 89.9732 554.879 89.2265 554.879 88.3625C554.879 87.4985 555.029 86.7572 555.327 86.1385C555.626 85.5092 556.042 85.0292 556.575 84.6985C557.109 84.3679 557.727 84.2025 558.431 84.2025C559.146 84.2025 559.765 84.3839 560.287 84.7465C560.821 85.0985 561.173 85.5839 561.343 86.2025H561.151L561.327 84.3465H562.735C562.703 84.6665 562.671 84.9865 562.639 85.3065C562.618 85.6265 562.607 85.9412 562.607 86.2505V92.3945H561.151V90.5545H561.327C561.157 91.1625 560.805 91.6479 560.271 92.0105C559.749 92.3625 559.135 92.5385 558.431 92.5385ZM558.767 91.3865C559.493 91.3865 560.074 91.1305 560.511 90.6185C560.949 90.1065 561.167 89.3545 561.167 88.3625C561.167 87.3705 560.949 86.6239 560.511 86.1225C560.074 85.6212 559.493 85.3705 558.767 85.3705C558.042 85.3705 557.455 85.6212 557.007 86.1225C556.57 86.6239 556.351 87.3705 556.351 88.3625C556.351 89.3545 556.57 90.1065 557.007 90.6185C557.445 91.1305 558.031 91.3865 558.767 91.3865ZM563.923 92.3945L565.587 89.5305C565.832 89.1359 566.056 88.8212 566.259 88.5865C566.461 88.3519 566.675 88.1759 566.899 88.0585C567.133 87.9305 567.405 87.8505 567.715 87.8185L567.363 88.2665L564.307 84.3465H565.907L568.515 87.6745H569.747V84.3465H571.187V87.6745H572.403L574.995 84.3465H576.611L573.555 88.2665L573.187 87.8185C573.496 87.8505 573.763 87.9305 573.987 88.0585C574.221 88.1759 574.445 88.3519 574.659 88.5865C574.872 88.8212 575.096 89.1359 575.331 89.5305L576.995 92.3945H575.443L573.987 89.9145C573.816 89.6265 573.651 89.4025 573.491 89.2425C573.331 89.0825 573.149 88.9705 572.947 88.9065C572.755 88.8425 572.509 88.8105 572.211 88.8105H571.187V92.3945H569.747V88.8105H568.707C568.408 88.8105 568.157 88.8425 567.955 88.9065C567.763 88.9705 567.587 89.0825 567.427 89.2425C567.277 89.4025 567.112 89.6265 566.931 89.9145L565.491 92.3945H563.923Z" fill="#121212"/>
<mask id="path-12-inside-3_175_3197" fill="white">
<path d="M0 56.6562H137.271V172.796H0V56.6562Z"/>
</mask>
<path d="M137.271 56.6562H138.271V55.6562H137.271V56.6562ZM137.271 172.796V173.796H138.271V172.796H137.271ZM0 57.6562H137.271V55.6562H0V57.6562ZM136.271 56.6562V172.796H138.271V56.6562H136.271ZM137.271 171.796H0V173.796H137.271V171.796Z" fill="#8BA9A7" mask="url(#path-12-inside-3_175_3197)"/>
<path d="M60.3517 123.271V120.727H50.5117V109.447H51.9837V119.463H58.5597V109.447H60.0317V119.463H61.6797V123.271H60.3517ZM63.29 120.727V112.679H67.258C68.2073 112.679 68.9113 112.86 69.37 113.223C69.8393 113.585 70.074 114.108 70.074 114.791C70.074 115.303 69.898 115.735 69.546 116.087C69.194 116.428 68.7353 116.636 68.17 116.711V116.503C68.842 116.524 69.37 116.721 69.754 117.095C70.1487 117.457 70.346 117.927 70.346 118.503C70.346 119.185 70.0847 119.729 69.562 120.135C69.05 120.529 68.33 120.727 67.402 120.727H63.29ZM64.666 119.767H67.306C67.85 119.767 68.266 119.655 68.554 119.431C68.842 119.196 68.986 118.865 68.986 118.439C68.986 118.001 68.842 117.671 68.554 117.447C68.266 117.223 67.85 117.111 67.306 117.111H64.666V119.767ZM64.666 116.151H67.13C67.6313 116.151 68.0207 116.039 68.298 115.815C68.5753 115.591 68.714 115.281 68.714 114.887C68.714 114.481 68.5753 114.172 68.298 113.959C68.0207 113.745 67.6313 113.639 67.13 113.639H64.666V116.151ZM76.0176 120.871C74.7376 120.871 73.7243 120.503 72.9776 119.767C72.2416 119.031 71.8736 118.017 71.8736 116.727C71.8736 115.873 72.0336 115.137 72.3536 114.519C72.6843 113.889 73.1376 113.404 73.7136 113.063C74.2896 112.711 74.9616 112.535 75.7296 112.535C76.4656 112.535 77.0896 112.695 77.6016 113.015C78.1136 113.324 78.503 113.767 78.7696 114.343C79.0363 114.919 79.1696 115.601 79.1696 116.391V116.871H73.0096V116.007H78.1776L77.9056 116.215C77.9056 115.383 77.719 114.737 77.3456 114.279C76.983 113.82 76.4443 113.591 75.7296 113.591C74.951 113.591 74.3483 113.863 73.9216 114.407C73.495 114.94 73.2816 115.671 73.2816 116.599V116.743C73.2816 117.724 73.5216 118.465 74.0016 118.967C74.4923 119.468 75.1696 119.719 76.0336 119.719C76.5136 119.719 76.9616 119.649 77.3776 119.511C77.7936 119.372 78.1936 119.143 78.5776 118.823L79.0576 119.831C78.695 120.161 78.2416 120.417 77.6976 120.599C77.1643 120.78 76.6043 120.871 76.0176 120.871ZM82.9242 120.727V113.847H80.0282V112.679H87.2602V113.847H84.3642V120.727H82.9242Z" fill="#121212"/>
<mask id="path-15-inside-4_175_3197" fill="white">
<path d="M0 0H967V57.5977H0V0Z"/>
</mask>
<path d="M967 56.5977H0V58.5977H967V56.5977Z" fill="#8BA9A7" mask="url(#path-15-inside-4_175_3197)"/>
<path d="M31.2842 34.7988V23.5188H38.9802V24.7188H32.7242V28.4468H36.2282C37.4442 28.4468 38.3882 28.7135 39.0602 29.2468C39.7429 29.7695 40.0842 30.5535 40.0842 31.5988C40.0842 32.6442 39.7429 33.4388 39.0602 33.9828C38.3882 34.5268 37.4442 34.7988 36.2282 34.7988H31.2842ZM32.7242 33.6148H36.0682C36.9429 33.6148 37.5829 33.4495 37.9882 33.1188C38.4042 32.7882 38.6122 32.2868 38.6122 31.6148C38.6122 30.9428 38.4042 30.4468 37.9882 30.1268C37.5829 29.7962 36.9429 29.6308 36.0682 29.6308H32.7242V33.6148ZM41.8072 38.4308L41.4712 37.2468C41.9725 37.1295 42.3885 36.9908 42.7192 36.8308C43.0499 36.6815 43.3272 36.4842 43.5512 36.2388C43.7752 35.9935 43.9725 35.6842 44.1432 35.3108L44.5432 34.3508L44.5112 34.9588L41.0072 26.7508H42.5752L45.3752 33.6468H44.9592L47.7592 26.7508H49.2632L45.5672 35.4228C45.3432 35.9455 45.0979 36.3828 44.8312 36.7348C44.5752 37.0868 44.2925 37.3748 43.9832 37.5988C43.6845 37.8228 43.3539 37.9988 42.9912 38.1268C42.6285 38.2548 42.2339 38.3562 41.8072 38.4308ZM50.7343 34.7988V26.7508H51.9503L54.9103 32.0148L57.8863 26.7508H59.0863V34.7988H57.8063V28.3828H58.1583L55.2783 33.5028H54.5583L51.6783 28.3668H52.0143V34.7988H50.7343ZM64.6981 34.9428C63.9941 34.9428 63.3754 34.7775 62.8421 34.4468C62.3087 34.1162 61.8927 33.6362 61.5941 33.0068C61.2954 32.3775 61.1461 31.6308 61.1461 30.7668C61.1461 29.9028 61.2954 29.1615 61.5941 28.5428C61.8927 27.9135 62.3087 27.4335 62.8421 27.1028C63.3754 26.7722 63.9941 26.6068 64.6981 26.6068C65.4127 26.6068 66.0314 26.7882 66.5541 27.1508C67.0874 27.5028 67.4394 27.9882 67.6101 28.6068H67.4181L67.5941 26.7508H69.0021C68.9701 27.0708 68.9381 27.3908 68.9061 27.7108C68.8847 28.0308 68.8741 28.3455 68.8741 28.6548V34.7988H67.4181V32.9588H67.5941C67.4234 33.5668 67.0714 34.0522 66.5381 34.4148C66.0154 34.7668 65.4021 34.9428 64.6981 34.9428ZM65.0341 33.7908C65.7594 33.7908 66.3407 33.5348 66.7781 33.0228C67.2154 32.5108 67.4341 31.7588 67.4341 30.7668C67.4341 29.7748 67.2154 29.0282 66.7781 28.5268C66.3407 28.0255 65.7594 27.7748 65.0341 27.7748C64.3087 27.7748 63.7221 28.0255 63.2741 28.5268C62.8367 29.0282 62.6181 29.7748 62.6181 30.7668C62.6181 31.7588 62.8367 32.5108 63.2741 33.0228C63.7114 33.5348 64.2981 33.7908 65.0341 33.7908ZM71.4375 34.7988V26.7508H77.1495V27.9188H72.8935V34.7988H71.4375ZM81.7606 34.9428C81.0566 34.9428 80.4379 34.7775 79.9046 34.4468C79.3712 34.1162 78.9552 33.6362 78.6566 33.0068C78.3579 32.3775 78.2086 31.6308 78.2086 30.7668C78.2086 29.9028 78.3579 29.1615 78.6566 28.5428C78.9552 27.9135 79.3712 27.4335 79.9046 27.1028C80.4379 26.7722 81.0566 26.6068 81.7606 26.6068C82.4752 26.6068 83.0939 26.7882 83.6166 27.1508C84.1499 27.5028 84.5019 27.9882 84.6726 28.6068H84.4806L84.6566 26.7508H86.0646C86.0326 27.0708 86.0006 27.3908 85.9686 27.7108C85.9472 28.0308 85.9366 28.3455 85.9366 28.6548V34.7988H84.4806V32.9588H84.6566C84.4859 33.5668 84.1339 34.0522 83.6006 34.4148C83.0779 34.7668 82.4646 34.9428 81.7606 34.9428ZM82.0966 33.7908C82.8219 33.7908 83.4032 33.5348 83.8406 33.0228C84.2779 32.5108 84.4966 31.7588 84.4966 30.7668C84.4966 29.7748 84.2779 29.0282 83.8406 28.5268C83.4032 28.0255 82.8219 27.7748 82.0966 27.7748C81.3712 27.7748 80.7846 28.0255 80.3366 28.5268C79.8992 29.0282 79.6806 29.7748 79.6806 30.7668C79.6806 31.7588 79.8992 32.5108 80.3366 33.0228C80.7739 33.5348 81.3606 33.7908 82.0966 33.7908ZM96.1907 34.9428C95.4227 34.9428 94.6867 34.8255 93.9827 34.5908C93.2894 34.3562 92.708 34.0255 92.2387 33.5988L92.7667 32.4468C93.2894 32.8735 93.828 33.1828 94.3827 33.3748C94.9374 33.5668 95.524 33.6628 96.1427 33.6628C96.964 33.6628 97.588 33.4922 98.0147 33.1508C98.4414 32.7988 98.6547 32.2975 98.6547 31.6468C98.6547 31.0068 98.436 30.5215 97.9987 30.1908C97.572 29.8602 96.9427 29.6948 96.1107 29.6948H94.3827V28.4628H95.9987C96.7027 28.4628 97.268 28.2815 97.6947 27.9188C98.1214 27.5562 98.3347 27.0602 98.3347 26.4308C98.3347 25.8548 98.1374 25.4175 97.7427 25.1188C97.3587 24.8095 96.8094 24.6548 96.0947 24.6548C94.8894 24.6548 93.844 25.0762 92.9587 25.9188L92.4307 24.7828C92.8787 24.3348 93.4334 23.9882 94.0947 23.7428C94.756 23.4975 95.4547 23.3748 96.1907 23.3748C97.3107 23.3748 98.1907 23.6308 98.8307 24.1428C99.4707 24.6548 99.7907 25.3695 99.7907 26.2868C99.7907 26.9802 99.5934 27.5775 99.1987 28.0788C98.8147 28.5695 98.2867 28.8948 97.6147 29.0548V28.8788C98.404 29.0175 99.0174 29.3428 99.4547 29.8548C99.892 30.3562 100.111 30.9855 100.111 31.7428C100.111 32.7348 99.7587 33.5188 99.0547 34.0948C98.3614 34.6602 97.4067 34.9428 96.1907 34.9428ZM105.864 34.9428C104.574 34.9428 103.582 34.4468 102.888 33.4548C102.195 32.4522 101.848 31.0175 101.848 29.1508C101.848 27.2522 102.195 25.8175 102.888 24.8468C103.582 23.8655 104.574 23.3748 105.864 23.3748C107.166 23.3748 108.158 23.8655 108.84 24.8468C109.534 25.8175 109.88 27.2468 109.88 29.1348C109.88 31.0122 109.534 32.4522 108.84 33.4548C108.147 34.4468 107.155 34.9428 105.864 34.9428ZM105.864 33.6788C106.718 33.6788 107.352 33.3108 107.768 32.5748C108.195 31.8388 108.408 30.6922 108.408 29.1348C108.408 27.5775 108.195 26.4415 107.768 25.7268C107.352 25.0015 106.718 24.6388 105.864 24.6388C105.022 24.6388 104.387 25.0015 103.96 25.7268C103.534 26.4415 103.32 27.5775 103.32 29.1348C103.32 30.6922 103.534 31.8388 103.96 32.5748C104.387 33.3108 105.022 33.6788 105.864 33.6788ZM115.458 34.9428C114.168 34.9428 113.176 34.4468 112.482 33.4548C111.789 32.4522 111.442 31.0175 111.442 29.1508C111.442 27.2522 111.789 25.8175 112.482 24.8468C113.176 23.8655 114.168 23.3748 115.458 23.3748C116.76 23.3748 117.752 23.8655 118.434 24.8468C119.128 25.8175 119.474 27.2468 119.474 29.1348C119.474 31.0122 119.128 32.4522 118.434 33.4548C117.741 34.4468 116.749 34.9428 115.458 34.9428ZM115.458 33.6788C116.312 33.6788 116.946 33.3108 117.362 32.5748C117.789 31.8388 118.002 30.6922 118.002 29.1348C118.002 27.5775 117.789 26.4415 117.362 25.7268C116.946 25.0015 116.312 24.6388 115.458 24.6388C114.616 24.6388 113.981 25.0015 113.554 25.7268C113.128 26.4415 112.914 27.5775 112.914 29.1348C112.914 30.6922 113.128 31.8388 113.554 32.5748C113.981 33.3108 114.616 33.6788 115.458 33.6788ZM121.5 34.7988V26.7508H127.212V27.9188H122.956V34.7988H121.5ZM128.319 35.6948H127.087L131.263 22.8148H132.511L128.319 35.6948ZM132.437 34.7988V26.7508H133.653L136.613 32.0148L139.589 26.7508H140.789V34.7988H139.509V28.3828H139.861L136.981 33.5028H136.261L133.381 28.3668H133.717V34.7988H132.437ZM143.745 36.7028L143.089 36.1908C143.388 35.8815 143.591 35.5882 143.697 35.3108C143.804 35.0442 143.857 34.7668 143.857 34.4788L144.177 34.7988H143.009V33.0228H144.785V34.2548C144.785 34.7135 144.711 35.1348 144.561 35.5188C144.412 35.9135 144.14 36.3082 143.745 36.7028ZM154.978 34.9428C154.488 34.9428 154.002 34.8895 153.522 34.7828C153.053 34.6762 152.61 34.5268 152.194 34.3348C151.778 34.1322 151.416 33.8868 151.106 33.5988L151.634 32.4468C152.157 32.8628 152.69 33.1722 153.234 33.3748C153.778 33.5668 154.349 33.6628 154.946 33.6628C155.736 33.6628 156.354 33.4548 156.802 33.0388C157.25 32.6228 157.474 32.0682 157.474 31.3748C157.474 30.6602 157.261 30.0842 156.834 29.6468C156.408 29.1988 155.816 28.9748 155.058 28.9748C154.536 28.9748 154.061 29.0815 153.634 29.2948C153.218 29.4975 152.85 29.8228 152.53 30.2708H151.474V23.5188H158.242V24.7828H152.914V29.0548H152.53C152.818 28.6282 153.208 28.2975 153.698 28.0628C154.2 27.8282 154.76 27.7108 155.378 27.7108C156.104 27.7108 156.728 27.8602 157.25 28.1588C157.784 28.4575 158.194 28.8788 158.482 29.4228C158.781 29.9562 158.93 30.5802 158.93 31.2948C158.93 32.0095 158.77 32.6442 158.45 33.1988C158.13 33.7428 157.672 34.1695 157.074 34.4788C156.488 34.7882 155.789 34.9428 154.978 34.9428ZM164.38 34.9428C163.089 34.9428 162.097 34.4468 161.404 33.4548C160.711 32.4522 160.364 31.0175 160.364 29.1508C160.364 27.2522 160.711 25.8175 161.404 24.8468C162.097 23.8655 163.089 23.3748 164.38 23.3748C165.681 23.3748 166.673 23.8655 167.356 24.8468C168.049 25.8175 168.396 27.2468 168.396 29.1348C168.396 31.0122 168.049 32.4522 167.356 33.4548C166.663 34.4468 165.671 34.9428 164.38 34.9428ZM164.38 33.6788C165.233 33.6788 165.868 33.3108 166.284 32.5748C166.711 31.8388 166.924 30.6922 166.924 29.1348C166.924 27.5775 166.711 26.4415 166.284 25.7268C165.868 25.0015 165.233 24.6388 164.38 24.6388C163.537 24.6388 162.903 25.0015 162.476 25.7268C162.049 26.4415 161.836 27.5775 161.836 29.1348C161.836 30.6922 162.049 31.8388 162.476 32.5748C162.903 33.3108 163.537 33.6788 164.38 33.6788ZM169.35 34.7988L172.998 30.2868V31.0068L169.558 26.7508H171.302L173.814 29.9668H173.286L175.798 26.7508H177.526L174.134 30.9748V30.3188L177.734 34.7988H175.974L173.286 31.3588H173.814L171.094 34.7988H169.35ZM181.987 34.9428C181.39 34.9428 180.792 34.8202 180.195 34.5748C179.598 34.3295 179.102 34.0042 178.707 33.5988L179.251 32.4628C179.646 32.8575 180.078 33.1562 180.547 33.3588C181.027 33.5615 181.512 33.6628 182.003 33.6628C183.048 33.6628 183.854 33.2895 184.419 32.5428C184.984 31.7855 185.267 30.6655 185.267 29.1828V27.7588H185.427C185.363 28.3455 185.176 28.8575 184.867 29.2948C184.568 29.7215 184.19 30.0522 183.731 30.2868C183.272 30.5215 182.75 30.6388 182.163 30.6388C181.491 30.6388 180.894 30.4842 180.371 30.1748C179.848 29.8655 179.438 29.4442 179.139 28.9108C178.84 28.3668 178.691 27.7482 178.691 27.0548C178.691 26.3402 178.846 25.7055 179.155 25.1508C179.475 24.5962 179.912 24.1642 180.467 23.8548C181.022 23.5348 181.662 23.3748 182.387 23.3748C183.774 23.3748 184.84 23.8602 185.587 24.8308C186.334 25.7908 186.707 27.1455 186.707 28.8948C186.707 30.1855 186.515 31.2842 186.131 32.1908C185.758 33.0868 185.219 33.7695 184.515 34.2388C183.811 34.7082 182.968 34.9428 181.987 34.9428ZM182.483 29.4068C182.952 29.4068 183.363 29.3055 183.715 29.1028C184.078 28.9002 184.36 28.6175 184.563 28.2548C184.766 27.8922 184.867 27.4762 184.867 27.0068C184.867 26.5268 184.766 26.1108 184.563 25.7588C184.36 25.3962 184.078 25.1135 183.715 24.9108C183.363 24.6975 182.952 24.5908 182.483 24.5908C182.014 24.5908 181.598 24.6975 181.235 24.9108C180.883 25.1135 180.606 25.3962 180.403 25.7588C180.211 26.1108 180.115 26.5268 180.115 27.0068C180.115 27.4762 180.211 27.8922 180.403 28.2548C180.606 28.6175 180.883 28.9002 181.235 29.1028C181.598 29.3055 182.014 29.4068 182.483 29.4068ZM192.349 34.9428C191.058 34.9428 190.066 34.4468 189.373 33.4548C188.679 32.4522 188.333 31.0175 188.333 29.1508C188.333 27.2522 188.679 25.8175 189.373 24.8468C190.066 23.8655 191.058 23.3748 192.349 23.3748C193.65 23.3748 194.642 23.8655 195.325 24.8468C196.018 25.8175 196.365 27.2468 196.365 29.1348C196.365 31.0122 196.018 32.4522 195.325 33.4548C194.631 34.4468 193.639 34.9428 192.349 34.9428ZM192.349 33.6788C193.202 33.6788 193.837 33.3108 194.253 32.5748C194.679 31.8388 194.893 30.6922 194.893 29.1348C194.893 27.5775 194.679 26.4415 194.253 25.7268C193.837 25.0015 193.202 24.6388 192.349 24.6388C191.506 24.6388 190.871 25.0015 190.445 25.7268C190.018 26.4415 189.805 27.5775 189.805 29.1348C189.805 30.6922 190.018 31.8388 190.445 32.5748C190.871 33.3108 191.506 33.6788 192.349 33.6788ZM198.391 34.7988V26.7508H199.607L202.567 32.0148L205.543 26.7508H206.743V34.7988H205.463V28.3828H205.815L202.935 33.5028H202.215L199.335 28.3668H199.671V34.7988H198.391ZM209.234 34.7988V26.7508H210.45L213.41 32.0148L216.386 26.7508H217.586V34.7988H216.306V28.3828H216.658L213.778 33.5028H213.058L210.178 28.3668H210.514V34.7988H209.234Z" fill="#121212"/>
<rect x="308.872" y="172.863" width="194.052" height="56.4538" stroke="#8BA9A7"/>
<path d="M405.618 207.234C404.85 207.234 404.114 207.117 403.41 206.882C402.717 206.647 402.136 206.317 401.666 205.89L402.194 204.738C402.717 205.165 403.256 205.474 403.81 205.666C404.365 205.858 404.952 205.954 405.57 205.954C406.392 205.954 407.016 205.783 407.442 205.442C407.869 205.09 408.082 204.589 408.082 203.938C408.082 203.298 407.864 202.813 407.426 202.482C407 202.151 406.37 201.986 405.538 201.986H403.81V200.754H405.426C406.13 200.754 406.696 200.573 407.122 200.21C407.549 199.847 407.762 199.351 407.762 198.722C407.762 198.146 407.565 197.709 407.17 197.41C406.786 197.101 406.237 196.946 405.522 196.946C404.317 196.946 403.272 197.367 402.386 198.21L401.858 197.074C402.306 196.626 402.861 196.279 403.522 196.034C404.184 195.789 404.882 195.666 405.618 195.666C406.738 195.666 407.618 195.922 408.258 196.434C408.898 196.946 409.218 197.661 409.218 198.578C409.218 199.271 409.021 199.869 408.626 200.37C408.242 200.861 407.714 201.186 407.042 201.346V201.17C407.832 201.309 408.445 201.634 408.882 202.146C409.32 202.647 409.538 203.277 409.538 204.034C409.538 205.026 409.186 205.81 408.482 206.386C407.789 206.951 406.834 207.234 405.618 207.234Z" fill="#121212"/>
<rect x="309.613" y="115.695" width="193.213" height="56.5977" stroke="#8BA9A7"/>
<path d="M375.08 149.994V148.89L379.016 144.762C379.528 144.239 379.907 143.738 380.152 143.258C380.408 142.778 380.536 142.282 380.536 141.77C380.536 141.141 380.339 140.666 379.944 140.346C379.56 140.015 378.995 139.85 378.248 139.85C377.672 139.85 377.128 139.957 376.616 140.17C376.115 140.373 375.635 140.687 375.176 141.114L374.648 139.978C375.085 139.551 375.635 139.21 376.296 138.954C376.968 138.698 377.672 138.57 378.408 138.57C379.56 138.57 380.451 138.837 381.08 139.37C381.709 139.893 382.024 140.645 382.024 141.626C382.024 142.341 381.848 143.023 381.496 143.674C381.155 144.314 380.648 144.975 379.976 145.658L376.536 149.146V148.73H382.488V149.994H375.08ZM385.298 149.994V148.73H387.938V139.978H388.69L385.538 141.93V140.474L388.354 138.714H389.426V148.73H391.906V149.994H385.298ZM398.075 150.138C396.699 150.138 395.638 149.653 394.891 148.682C394.145 147.711 393.771 146.357 393.771 144.618C393.771 143.317 393.958 142.218 394.331 141.322C394.715 140.426 395.259 139.743 395.963 139.274C396.667 138.805 397.51 138.57 398.491 138.57C399.089 138.57 399.686 138.687 400.283 138.922C400.881 139.157 401.377 139.482 401.771 139.898L401.227 141.05C400.833 140.645 400.395 140.346 399.915 140.154C399.446 139.951 398.966 139.85 398.475 139.85C397.419 139.85 396.609 140.229 396.043 140.986C395.489 141.733 395.211 142.847 395.211 144.33V145.754H395.051C395.126 145.157 395.307 144.645 395.595 144.218C395.894 143.791 396.273 143.461 396.731 143.226C397.201 142.991 397.729 142.874 398.315 142.874C398.987 142.874 399.585 143.029 400.107 143.338C400.63 143.647 401.041 144.069 401.339 144.602C401.638 145.135 401.787 145.754 401.787 146.458C401.787 147.162 401.627 147.797 401.307 148.362C400.987 148.917 400.55 149.354 399.995 149.674C399.441 149.983 398.801 150.138 398.075 150.138ZM397.995 148.906C398.465 148.906 398.875 148.805 399.227 148.602C399.59 148.399 399.867 148.117 400.059 147.754C400.262 147.391 400.363 146.975 400.363 146.506C400.363 146.037 400.262 145.621 400.059 145.258C399.867 144.895 399.59 144.613 399.227 144.41C398.875 144.207 398.465 144.106 397.995 144.106C397.526 144.106 397.11 144.207 396.747 144.41C396.395 144.613 396.118 144.895 395.915 145.258C395.713 145.621 395.611 146.037 395.611 146.506C395.611 146.975 395.713 147.391 395.915 147.754C396.118 148.117 396.395 148.399 396.747 148.602C397.11 148.805 397.526 148.906 397.995 148.906ZM403.637 146.202V145.018H408.261V146.202H403.637ZM414.112 150.138C413.344 150.138 412.608 150.021 411.904 149.786C411.211 149.551 410.629 149.221 410.16 148.794L410.688 147.642C411.211 148.069 411.749 148.378 412.304 148.57C412.859 148.762 413.445 148.858 414.064 148.858C414.885 148.858 415.509 148.687 415.936 148.346C416.363 147.994 416.576 147.493 416.576 146.842C416.576 146.202 416.357 145.717 415.92 145.386C415.493 145.055 414.864 144.89 414.032 144.89H412.304V143.658H413.92C414.624 143.658 415.189 143.477 415.616 143.114C416.043 142.751 416.256 142.255 416.256 141.626C416.256 141.05 416.059 140.613 415.664 140.314C415.28 140.005 414.731 139.85 414.016 139.85C412.811 139.85 411.765 140.271 410.88 141.114L410.352 139.978C410.8 139.53 411.355 139.183 412.016 138.938C412.677 138.693 413.376 138.57 414.112 138.57C415.232 138.57 416.112 138.826 416.752 139.338C417.392 139.85 417.712 140.565 417.712 141.482C417.712 142.175 417.515 142.773 417.12 143.274C416.736 143.765 416.208 144.09 415.536 144.25V144.074C416.325 144.213 416.939 144.538 417.376 145.05C417.813 145.551 418.032 146.181 418.032 146.938C418.032 147.93 417.68 148.714 416.976 149.29C416.283 149.855 415.328 150.138 414.112 150.138ZM423.786 150.138C422.484 150.138 421.476 149.861 420.762 149.306C420.047 148.751 419.69 147.978 419.69 146.986C419.69 146.207 419.93 145.562 420.41 145.05C420.9 144.527 421.535 144.213 422.314 144.106V144.362C421.599 144.213 421.028 143.887 420.602 143.386C420.186 142.885 419.978 142.282 419.978 141.578C419.978 140.639 420.314 139.903 420.986 139.37C421.668 138.837 422.602 138.57 423.786 138.57C424.98 138.57 425.914 138.837 426.586 139.37C427.268 139.903 427.61 140.639 427.61 141.578C427.61 142.282 427.407 142.89 427.002 143.402C426.607 143.914 426.058 144.234 425.354 144.362V144.106C426.132 144.213 426.746 144.527 427.194 145.05C427.652 145.562 427.882 146.207 427.882 146.986C427.882 147.978 427.524 148.751 426.81 149.306C426.106 149.861 425.098 150.138 423.786 150.138ZM423.786 148.938C424.692 148.938 425.364 148.767 425.802 148.426C426.25 148.085 426.474 147.578 426.474 146.906C426.474 146.223 426.25 145.717 425.802 145.386C425.364 145.055 424.692 144.89 423.786 144.89C422.89 144.89 422.218 145.055 421.77 145.386C421.322 145.717 421.098 146.223 421.098 146.906C421.098 147.578 421.322 148.085 421.77 148.426C422.218 148.767 422.89 148.938 423.786 148.938ZM423.786 143.674C424.564 143.674 425.156 143.503 425.562 143.162C425.978 142.81 426.186 142.325 426.186 141.706C426.186 141.098 425.978 140.623 425.562 140.282C425.156 139.941 424.564 139.77 423.786 139.77C423.018 139.77 422.426 139.941 422.01 140.282C421.594 140.623 421.386 141.098 421.386 141.706C421.386 142.325 421.594 142.81 422.01 143.162C422.426 143.503 423.018 143.674 423.786 143.674ZM434.643 149.994V147.61H429.347V146.538L434.883 138.714H436.099V146.426H437.795V147.61H436.099V149.994H434.643ZM434.643 146.426V140.474H435.011L430.547 146.778V146.426H434.643Z" fill="#121212"/>
<rect x="502.732" y="172.125" width="194.425" height="57.178" stroke="#8BA9A7"/>
<path d="M589.805 206.715V205.611L593.741 201.483C594.253 200.96 594.632 200.459 594.877 199.979C595.133 199.499 595.261 199.003 595.261 198.491C595.261 197.862 595.064 197.387 594.669 197.067C594.285 196.736 593.72 196.571 592.973 196.571C592.397 196.571 591.853 196.678 591.341 196.891C590.84 197.094 590.36 197.408 589.901 197.835L589.373 196.699C589.81 196.272 590.36 195.931 591.021 195.675C591.693 195.419 592.397 195.291 593.133 195.291C594.285 195.291 595.176 195.558 595.805 196.091C596.434 196.614 596.749 197.366 596.749 198.347C596.749 199.062 596.573 199.744 596.221 200.395C595.88 201.035 595.373 201.696 594.701 202.379L591.261 205.867V205.451H597.213V206.715H589.805ZM599.751 208.619L599.095 208.107C599.393 207.798 599.596 207.504 599.703 207.227C599.809 206.96 599.863 206.683 599.863 206.395L600.183 206.715H599.015V204.939H600.791V206.171C600.791 206.63 600.716 207.051 600.567 207.435C600.417 207.83 600.145 208.224 599.751 208.619ZM606.573 206.859C605.272 206.859 604.264 206.582 603.549 206.027C602.835 205.472 602.477 204.699 602.477 203.707C602.477 202.928 602.717 202.283 603.197 201.771C603.688 201.248 604.323 200.934 605.101 200.827V201.083C604.387 200.934 603.816 200.608 603.389 200.107C602.973 199.606 602.765 199.003 602.765 198.299C602.765 197.36 603.101 196.624 603.773 196.091C604.456 195.558 605.389 195.291 606.573 195.291C607.768 195.291 608.701 195.558 609.373 196.091C610.056 196.624 610.397 197.36 610.397 198.299C610.397 199.003 610.195 199.611 609.789 200.123C609.395 200.635 608.845 200.955 608.141 201.083V200.827C608.92 200.934 609.533 201.248 609.981 201.771C610.44 202.283 610.669 202.928 610.669 203.707C610.669 204.699 610.312 205.472 609.597 206.027C608.893 206.582 607.885 206.859 606.573 206.859ZM606.573 205.659C607.48 205.659 608.152 205.488 608.589 205.147C609.037 204.806 609.261 204.299 609.261 203.627C609.261 202.944 609.037 202.438 608.589 202.107C608.152 201.776 607.48 201.611 606.573 201.611C605.677 201.611 605.005 201.776 604.557 202.107C604.109 202.438 603.885 202.944 603.885 203.627C603.885 204.299 604.109 204.806 604.557 205.147C605.005 205.488 605.677 205.659 606.573 205.659ZM606.573 200.395C607.352 200.395 607.944 200.224 608.349 199.883C608.765 199.531 608.973 199.046 608.973 198.427C608.973 197.819 608.765 197.344 608.349 197.003C607.944 196.662 607.352 196.491 606.573 196.491C605.805 196.491 605.213 196.662 604.797 197.003C604.381 197.344 604.173 197.819 604.173 198.427C604.173 199.046 604.381 199.531 604.797 199.883C605.213 200.224 605.805 200.395 606.573 200.395Z" fill="#121212"/>
<rect x="502.812" y="115.695" width="194.23" height="56.5977" stroke="#8BA9A7"/>
<path d="M573.491 149.994V147.61H568.195V146.538L573.731 138.714H574.947V146.426H576.643V147.61H574.947V149.994H573.491ZM573.491 146.426V140.474H573.859L569.395 146.778V146.426H573.491ZM581.821 150.138C580.53 150.138 579.538 149.642 578.845 148.65C578.151 147.647 577.805 146.213 577.805 144.346C577.805 142.447 578.151 141.013 578.845 140.042C579.538 139.061 580.53 138.57 581.821 138.57C583.122 138.57 584.114 139.061 584.797 140.042C585.49 141.013 585.837 142.442 585.837 144.33C585.837 146.207 585.49 147.647 584.797 148.65C584.103 149.642 583.111 150.138 581.821 150.138ZM581.821 148.874C582.674 148.874 583.309 148.506 583.725 147.77C584.151 147.034 584.365 145.887 584.365 144.33C584.365 142.773 584.151 141.637 583.725 140.922C583.309 140.197 582.674 139.834 581.821 139.834C580.978 139.834 580.343 140.197 579.917 140.922C579.49 141.637 579.277 142.773 579.277 144.33C579.277 145.887 579.49 147.034 579.917 147.77C580.343 148.506 580.978 148.874 581.821 148.874ZM591.414 150.138C590.113 150.138 589.105 149.861 588.39 149.306C587.676 148.751 587.318 147.978 587.318 146.986C587.318 146.207 587.558 145.562 588.038 145.05C588.529 144.527 589.164 144.213 589.942 144.106V144.362C589.228 144.213 588.657 143.887 588.23 143.386C587.814 142.885 587.606 142.282 587.606 141.578C587.606 140.639 587.942 139.903 588.614 139.37C589.297 138.837 590.23 138.57 591.414 138.57C592.609 138.57 593.542 138.837 594.214 139.37C594.897 139.903 595.238 140.639 595.238 141.578C595.238 142.282 595.036 142.89 594.63 143.402C594.236 143.914 593.686 144.234 592.982 144.362V144.106C593.761 144.213 594.374 144.527 594.822 145.05C595.281 145.562 595.51 146.207 595.51 146.986C595.51 147.978 595.153 148.751 594.438 149.306C593.734 149.861 592.726 150.138 591.414 150.138ZM591.414 148.938C592.321 148.938 592.993 148.767 593.43 148.426C593.878 148.085 594.102 147.578 594.102 146.906C594.102 146.223 593.878 145.717 593.43 145.386C592.993 145.055 592.321 144.89 591.414 144.89C590.518 144.89 589.846 145.055 589.398 145.386C588.95 145.717 588.726 146.223 588.726 146.906C588.726 147.578 588.95 148.085 589.398 148.426C589.846 148.767 590.518 148.938 591.414 148.938ZM591.414 143.674C592.193 143.674 592.785 143.503 593.19 143.162C593.606 142.81 593.814 142.325 593.814 141.706C593.814 141.098 593.606 140.623 593.19 140.282C592.785 139.941 592.193 139.77 591.414 139.77C590.646 139.77 590.054 139.941 589.638 140.282C589.222 140.623 589.014 141.098 589.014 141.706C589.014 142.325 589.222 142.81 589.638 143.162C590.054 143.503 590.646 143.674 591.414 143.674ZM597.344 146.202V145.018H601.968V146.202H597.344ZM609.163 149.994V147.61H603.867V146.538L609.403 138.714H610.619V146.426H612.315V147.61H610.619V149.994H609.163ZM609.163 146.426V140.474H609.531L605.067 146.778V146.426H609.163ZM617.492 150.138C616.191 150.138 615.183 149.861 614.468 149.306C613.754 148.751 613.396 147.978 613.396 146.986C613.396 146.207 613.636 145.562 614.116 145.05C614.607 144.527 615.242 144.213 616.02 144.106V144.362C615.306 144.213 614.735 143.887 614.308 143.386C613.892 142.885 613.684 142.282 613.684 141.578C613.684 140.639 614.02 139.903 614.692 139.37C615.375 138.837 616.308 138.57 617.492 138.57C618.687 138.57 619.62 138.837 620.292 139.37C620.975 139.903 621.316 140.639 621.316 141.578C621.316 142.282 621.114 142.89 620.708 143.402C620.314 143.914 619.764 144.234 619.06 144.362V144.106C619.839 144.213 620.452 144.527 620.9 145.05C621.359 145.562 621.588 146.207 621.588 146.986C621.588 147.978 621.231 148.751 620.516 149.306C619.812 149.861 618.804 150.138 617.492 150.138ZM617.492 148.938C618.399 148.938 619.071 148.767 619.508 148.426C619.956 148.085 620.18 147.578 620.18 146.906C620.18 146.223 619.956 145.717 619.508 145.386C619.071 145.055 618.399 144.89 617.492 144.89C616.596 144.89 615.924 145.055 615.476 145.386C615.028 145.717 614.804 146.223 614.804 146.906C614.804 147.578 615.028 148.085 615.476 148.426C615.924 148.767 616.596 148.938 617.492 148.938ZM617.492 143.674C618.271 143.674 618.863 143.503 619.268 143.162C619.684 142.81 619.892 142.325 619.892 141.706C619.892 141.098 619.684 140.623 619.268 140.282C618.863 139.941 618.271 139.77 617.492 139.77C616.724 139.77 616.132 139.941 615.716 140.282C615.3 140.623 615.092 141.098 615.092 141.706C615.092 142.325 615.3 142.81 615.716 143.162C616.132 143.503 616.724 143.674 617.492 143.674ZM627.086 150.138C625.795 150.138 624.803 149.642 624.11 148.65C623.417 147.647 623.07 146.213 623.07 144.346C623.07 142.447 623.417 141.013 624.11 140.042C624.803 139.061 625.795 138.57 627.086 138.57C628.387 138.57 629.379 139.061 630.062 140.042C630.755 141.013 631.102 142.442 631.102 144.33C631.102 146.207 630.755 147.647 630.062 148.65C629.369 149.642 628.377 150.138 627.086 150.138ZM627.086 148.874C627.939 148.874 628.574 148.506 628.99 147.77C629.417 147.034 629.63 145.887 629.63 144.33C629.63 142.773 629.417 141.637 628.99 140.922C628.574 140.197 627.939 139.834 627.086 139.834C626.243 139.834 625.609 140.197 625.182 140.922C624.755 141.637 624.542 142.773 624.542 144.33C624.542 145.887 624.755 147.034 625.182 147.77C625.609 148.506 626.243 148.874 627.086 148.874Z" fill="#121212"/>
<mask id="path-26-inside-5_175_3197" fill="white">
<path d="M696.523 171.848H966.999V229.445H696.523V171.848Z"/>
</mask>
<path d="M696.523 171.848V170.848H695.523V171.848H696.523ZM696.523 229.445H695.523V230.445H696.523V229.445ZM696.523 172.848H966.999V170.848H696.523V172.848ZM966.999 228.445H696.523V230.445H966.999V228.445ZM697.523 229.445V171.848H695.523V229.445H697.523Z" fill="#8BA9A7" mask="url(#path-26-inside-5_175_3197)"/>
<path d="M828.121 206.646V205.542L832.057 201.414C832.569 200.892 832.948 200.39 833.193 199.91C833.449 199.43 833.577 198.934 833.577 198.422C833.577 197.793 833.38 197.318 832.985 196.998C832.601 196.668 832.036 196.502 831.289 196.502C830.713 196.502 830.169 196.609 829.657 196.822C829.156 197.025 828.676 197.34 828.217 197.766L827.689 196.63C828.126 196.204 828.676 195.862 829.337 195.606C830.009 195.35 830.713 195.222 831.449 195.222C832.601 195.222 833.492 195.489 834.121 196.022C834.75 196.545 835.065 197.297 835.065 198.278C835.065 198.993 834.889 199.676 834.537 200.326C834.196 200.966 833.689 201.628 833.017 202.31L829.577 205.798V205.382H835.529V206.646H828.121Z" fill="#121212"/>
<mask id="path-29-inside-6_175_3197" fill="white">
<path d="M696.523 115.195H966.999V172.793H696.523V115.195Z"/>
</mask>
<path d="M696.523 115.195V114.195H695.523V115.195H696.523ZM696.523 172.793H695.523V173.793H696.523V172.793ZM696.523 116.195H966.999V114.195H696.523V116.195ZM966.999 171.793H696.523V173.793H966.999V171.793ZM697.523 172.793V115.195H695.523V172.793H697.523Z" fill="#8BA9A7" mask="url(#path-29-inside-6_175_3197)"/>
<path d="M790.513 150.138C789.308 150.138 788.353 149.759 787.649 149.002C786.945 148.245 786.593 147.135 786.593 145.674V144.282C786.593 142.789 786.908 141.583 787.537 140.666C788.166 139.749 789.142 139.13 790.465 138.81L793.409 138.074L793.841 139.258L790.577 140.042C789.99 140.181 789.505 140.431 789.121 140.794C788.737 141.157 788.449 141.583 788.257 142.074C788.076 142.565 787.985 143.087 787.985 143.642V144.33H787.761C787.889 143.85 788.092 143.434 788.369 143.082C788.657 142.73 789.014 142.463 789.441 142.282C789.868 142.09 790.337 141.994 790.849 141.994C791.542 141.994 792.15 142.154 792.673 142.474C793.196 142.794 793.601 143.258 793.889 143.866C794.188 144.463 794.337 145.178 794.337 146.01C794.337 146.863 794.177 147.599 793.857 148.218C793.548 148.837 793.105 149.311 792.529 149.642C791.953 149.973 791.281 150.138 790.513 150.138ZM790.465 148.986C791.212 148.986 791.798 148.741 792.225 148.25C792.662 147.759 792.881 147.029 792.881 146.058C792.881 145.109 792.662 144.383 792.225 143.882C791.798 143.381 791.212 143.13 790.465 143.13C789.718 143.13 789.126 143.375 788.689 143.866C788.262 144.357 788.049 145.055 788.049 145.962C788.049 146.975 788.262 147.733 788.689 148.234C789.126 148.735 789.718 148.986 790.465 148.986ZM799.84 150.138C799.05 150.138 798.368 149.973 797.792 149.642C797.216 149.301 796.768 148.821 796.448 148.202C796.128 147.573 795.968 146.826 795.968 145.962C795.968 145.109 796.128 144.373 796.448 143.754C796.768 143.125 797.216 142.645 797.792 142.314C798.368 141.973 799.05 141.802 799.84 141.802C800.629 141.802 801.312 141.973 801.888 142.314C802.474 142.645 802.922 143.125 803.232 143.754C803.552 144.373 803.712 145.109 803.712 145.962C803.712 146.826 803.552 147.573 803.232 148.202C802.922 148.821 802.474 149.301 801.888 149.642C801.312 149.973 800.629 150.138 799.84 150.138ZM799.84 148.986C800.565 148.986 801.146 148.73 801.584 148.218C802.021 147.706 802.24 146.954 802.24 145.962C802.24 144.97 802.021 144.223 801.584 143.722C801.146 143.221 800.565 142.97 799.84 142.97C799.104 142.97 798.517 143.221 798.08 143.722C797.653 144.223 797.44 144.97 797.44 145.962C797.44 146.954 797.653 147.706 798.08 148.218C798.517 148.73 799.104 148.986 799.84 148.986ZM805.25 150.186L804.738 149.05C805.111 148.879 805.421 148.677 805.666 148.442C805.922 148.197 806.119 147.887 806.258 147.514C806.407 147.141 806.514 146.677 806.578 146.122C806.642 145.567 806.674 144.895 806.674 144.106V141.946H812.61V149.994H811.17V143.082H808.018V144.138C808.018 145.375 807.922 146.399 807.73 147.21C807.549 148.01 807.255 148.645 806.85 149.114C806.455 149.583 805.922 149.941 805.25 150.186ZM815.103 149.994V141.946H816.543V144.794H818.911C819.956 144.794 820.74 145.018 821.263 145.466C821.796 145.903 822.063 146.538 822.063 147.37C822.063 147.903 821.94 148.367 821.695 148.762C821.449 149.157 821.092 149.461 820.623 149.674C820.153 149.887 819.583 149.994 818.911 149.994H815.103ZM816.543 148.986H818.751C819.38 148.986 819.86 148.858 820.191 148.602C820.521 148.335 820.687 147.93 820.687 147.386C820.687 146.842 820.521 146.442 820.191 146.186C819.871 145.93 819.391 145.802 818.751 145.802H816.543V148.986ZM823.931 149.994V141.946H825.307V148.858H828.587V141.946H829.963V148.858H833.227V141.946H834.619V149.994H823.931ZM840.83 150.138C839.55 150.138 838.537 149.77 837.79 149.034C837.054 148.298 836.686 147.285 836.686 145.994C836.686 145.141 836.846 144.405 837.166 143.786C837.497 143.157 837.95 142.671 838.526 142.33C839.102 141.978 839.774 141.802 840.542 141.802C841.278 141.802 841.902 141.962 842.414 142.282C842.926 142.591 843.316 143.034 843.582 143.61C843.849 144.186 843.982 144.869 843.982 145.658V146.138H837.822V145.274H842.99L842.718 145.482C842.718 144.65 842.532 144.005 842.158 143.546C841.796 143.087 841.257 142.858 840.542 142.858C839.764 142.858 839.161 143.13 838.734 143.674C838.308 144.207 838.094 144.938 838.094 145.866V146.01C838.094 146.991 838.334 147.733 838.814 148.234C839.305 148.735 839.982 148.986 840.846 148.986C841.326 148.986 841.774 148.917 842.19 148.778C842.606 148.639 843.006 148.41 843.39 148.09L843.87 149.098C843.508 149.429 843.054 149.685 842.51 149.866C841.977 150.047 841.417 150.138 840.83 150.138ZM853.972 150.138C853.481 150.138 852.996 150.085 852.516 149.978C852.046 149.871 851.604 149.722 851.188 149.53C850.772 149.327 850.409 149.082 850.1 148.794L850.628 147.642C851.15 148.058 851.684 148.367 852.228 148.57C852.772 148.762 853.342 148.858 853.94 148.858C854.729 148.858 855.348 148.65 855.796 148.234C856.244 147.818 856.468 147.263 856.468 146.57C856.468 145.855 856.254 145.279 855.828 144.842C855.401 144.394 854.809 144.17 854.052 144.17C853.529 144.17 853.054 144.277 852.628 144.49C852.212 144.693 851.844 145.018 851.524 145.466H850.468V138.714H857.236V139.978H851.908V144.25H851.524C851.812 143.823 852.201 143.493 852.692 143.258C853.193 143.023 853.753 142.906 854.372 142.906C855.097 142.906 855.721 143.055 856.244 143.354C856.777 143.653 857.188 144.074 857.476 144.618C857.774 145.151 857.924 145.775 857.924 146.49C857.924 147.205 857.764 147.839 857.444 148.394C857.124 148.938 856.665 149.365 856.068 149.674C855.481 149.983 854.782 150.138 853.972 150.138ZM863.373 150.138C862.083 150.138 861.091 149.642 860.397 148.65C859.704 147.647 859.357 146.213 859.357 144.346C859.357 142.447 859.704 141.013 860.397 140.042C861.091 139.061 862.083 138.57 863.373 138.57C864.675 138.57 865.667 139.061 866.349 140.042C867.043 141.013 867.389 142.442 867.389 144.33C867.389 146.207 867.043 147.647 866.349 148.65C865.656 149.642 864.664 150.138 863.373 150.138ZM863.373 148.874C864.227 148.874 864.861 148.506 865.277 147.77C865.704 147.034 865.917 145.887 865.917 144.33C865.917 142.773 865.704 141.637 865.277 140.922C864.861 140.197 864.227 139.834 863.373 139.834C862.531 139.834 861.896 140.197 861.469 140.922C861.043 141.637 860.829 142.773 860.829 144.33C860.829 145.887 861.043 147.034 861.469 147.77C861.896 148.506 862.531 148.874 863.373 148.874ZM874.231 149.994V147.61H868.935V146.538L874.471 138.714H875.687V146.426H877.383V147.61H875.687V149.994H874.231ZM874.231 146.426V140.474H874.599L870.135 146.778V146.426H874.231Z" fill="#121212"/>
<mask id="path-32-inside-7_175_3197" fill="white">
<path d="M0 229.238H137.375V286.692H0V229.238Z"/>
</mask>
<path d="M137.375 229.238H138.375V228.238H137.375V229.238ZM137.375 286.692V287.692H138.375V286.692H137.375ZM0 230.238H137.375V228.238H0V230.238ZM136.375 229.238V286.692H138.375V229.238H136.375ZM137.375 285.692H0V287.692H137.375V285.692Z" fill="#8BA9A7" mask="url(#path-32-inside-7_175_3197)"/>
<path d="M60.2517 263.965V261.581H54.9557V260.509L60.4917 252.685H61.7077V260.397H63.4037V261.581H61.7077V263.965H60.2517ZM60.2517 260.397V254.445H60.6197L56.1557 260.749V260.397H60.2517ZM68.0215 263.357V259.917H64.6295V258.829H68.0215V255.469H69.1415V258.829H72.5335V259.917H69.1415V263.357H68.0215ZM79.4392 263.965V261.581H74.1432V260.509L79.6792 252.685H80.8952V260.397H82.5912V261.581H80.8952V263.965H79.4392ZM79.4392 260.397V254.445H79.8072L75.3432 260.749V260.397H79.4392Z" fill="#121212"/>
<rect x="136.858" y="229.738" width="172.03" height="56.4538" stroke="#8BA9A7"/>
<path d="M216.366 264.109C215.875 264.109 215.39 264.056 214.91 263.949C214.44 263.842 213.998 263.693 213.582 263.501C213.166 263.298 212.803 263.053 212.494 262.765L213.022 261.613C213.544 262.029 214.078 262.338 214.622 262.541C215.166 262.733 215.736 262.829 216.334 262.829C217.123 262.829 217.742 262.621 218.19 262.205C218.638 261.789 218.862 261.234 218.862 260.541C218.862 259.826 218.648 259.25 218.222 258.813C217.795 258.365 217.203 258.141 216.446 258.141C215.923 258.141 215.448 258.248 215.022 258.461C214.606 258.664 214.238 258.989 213.918 259.437H212.862V252.685H219.63V253.949H214.302V258.221H213.918C214.206 257.794 214.595 257.464 215.086 257.229C215.587 256.994 216.147 256.877 216.766 256.877C217.491 256.877 218.115 257.026 218.638 257.325C219.171 257.624 219.582 258.045 219.87 258.589C220.168 259.122 220.318 259.746 220.318 260.461C220.318 261.176 220.158 261.81 219.838 262.365C219.518 262.909 219.059 263.336 218.462 263.645C217.875 263.954 217.176 264.109 216.366 264.109ZM222.679 265.869L222.023 265.357C222.322 265.048 222.525 264.754 222.631 264.477C222.738 264.21 222.791 263.933 222.791 263.645L223.111 263.965H221.943V262.189H223.719V263.421C223.719 263.88 223.645 264.301 223.495 264.685C223.346 265.08 223.074 265.474 222.679 265.869ZM226.686 263.965V262.701H229.326V253.949H230.078L226.926 255.901V254.445L229.742 252.685H230.814V262.701H233.294V263.965H226.686Z" fill="#121212"/>
<rect x="308.872" y="229.738" width="194.052" height="56.4538" stroke="#8BA9A7"/>
<path d="M400.462 263.965V261.581H395.166V260.509L400.702 252.685H401.918V260.397H403.614V261.581H401.918V263.965H400.462ZM400.462 260.397V254.445H400.83L396.366 260.749V260.397H400.462ZM405.704 265.869L405.048 265.357C405.347 265.048 405.549 264.754 405.656 264.477C405.763 264.21 405.816 263.933 405.816 263.645L406.136 263.965H404.968V262.189H406.744V263.421C406.744 263.88 406.669 264.301 406.52 264.685C406.371 265.08 406.099 265.474 405.704 265.869ZM409.086 263.965V262.861L413.022 258.733C413.534 258.21 413.913 257.709 414.158 257.229C414.414 256.749 414.542 256.253 414.542 255.741C414.542 255.112 414.345 254.637 413.95 254.317C413.566 253.986 413.001 253.821 412.254 253.821C411.678 253.821 411.134 253.928 410.622 254.141C410.121 254.344 409.641 254.658 409.182 255.085L408.654 253.949C409.092 253.522 409.641 253.181 410.302 252.925C410.974 252.669 411.678 252.541 412.414 252.541C413.566 252.541 414.457 252.808 415.086 253.341C415.716 253.864 416.03 254.616 416.03 255.597C416.03 256.312 415.854 256.994 415.502 257.645C415.161 258.285 414.654 258.946 413.982 259.629L410.542 263.117V262.701H416.494V263.965H409.086Z" fill="#121212"/>
<rect x="502.906" y="229.738" width="194.052" height="56.4538" stroke="#8BA9A7"/>
<path d="M593.152 264.109C592.384 264.109 591.648 263.992 590.944 263.757C590.251 263.522 589.67 263.192 589.2 262.765L589.728 261.613C590.251 262.04 590.79 262.349 591.344 262.541C591.899 262.733 592.486 262.829 593.104 262.829C593.926 262.829 594.55 262.658 594.976 262.317C595.403 261.965 595.616 261.464 595.616 260.813C595.616 260.173 595.398 259.688 594.96 259.357C594.534 259.026 593.904 258.861 593.072 258.861H591.344V257.629H592.96C593.664 257.629 594.23 257.448 594.656 257.085C595.083 256.722 595.296 256.226 595.296 255.597C595.296 255.021 595.099 254.584 594.704 254.285C594.32 253.976 593.771 253.821 593.056 253.821C591.851 253.821 590.806 254.242 589.92 255.085L589.392 253.949C589.84 253.501 590.395 253.154 591.056 252.909C591.718 252.664 592.416 252.541 593.152 252.541C594.272 252.541 595.152 252.797 595.792 253.309C596.432 253.821 596.752 254.536 596.752 255.453C596.752 256.146 596.555 256.744 596.16 257.245C595.776 257.736 595.248 258.061 594.576 258.221V258.045C595.366 258.184 595.979 258.509 596.416 259.021C596.854 259.522 597.072 260.152 597.072 260.909C597.072 261.901 596.72 262.685 596.016 263.261C595.323 263.826 594.368 264.109 593.152 264.109ZM599.738 265.869L599.082 265.357C599.381 265.048 599.583 264.754 599.69 264.477C599.797 264.21 599.85 263.933 599.85 263.645L600.17 263.965H599.002V262.189H600.778V263.421C600.778 263.88 600.703 264.301 600.554 264.685C600.405 265.08 600.133 265.474 599.738 265.869ZM605.792 264.109C605.195 264.109 604.598 263.986 604 263.741C603.403 263.496 602.907 263.17 602.512 262.765L603.056 261.629C603.451 262.024 603.883 262.322 604.352 262.525C604.832 262.728 605.318 262.829 605.808 262.829C606.854 262.829 607.659 262.456 608.224 261.709C608.79 260.952 609.072 259.832 609.072 258.349V256.925H609.232C609.168 257.512 608.982 258.024 608.672 258.461C608.374 258.888 607.995 259.218 607.536 259.453C607.078 259.688 606.555 259.805 605.968 259.805C605.296 259.805 604.699 259.65 604.176 259.341C603.654 259.032 603.243 258.61 602.944 258.077C602.646 257.533 602.496 256.914 602.496 256.221C602.496 255.506 602.651 254.872 602.96 254.317C603.28 253.762 603.718 253.33 604.272 253.021C604.827 252.701 605.467 252.541 606.192 252.541C607.579 252.541 608.646 253.026 609.392 253.997C610.139 254.957 610.512 256.312 610.512 258.061C610.512 259.352 610.32 260.45 609.936 261.357C609.563 262.253 609.024 262.936 608.32 263.405C607.616 263.874 606.774 264.109 605.792 264.109ZM606.288 258.573C606.758 258.573 607.168 258.472 607.52 258.269C607.883 258.066 608.166 257.784 608.368 257.421C608.571 257.058 608.672 256.642 608.672 256.173C608.672 255.693 608.571 255.277 608.368 254.925C608.166 254.562 607.883 254.28 607.52 254.077C607.168 253.864 606.758 253.757 606.288 253.757C605.819 253.757 605.403 253.864 605.04 254.077C604.688 254.28 604.411 254.562 604.208 254.925C604.016 255.277 603.92 255.693 603.92 256.173C603.92 256.642 604.016 257.058 604.208 257.421C604.411 257.784 604.688 258.066 605.04 258.269C605.403 258.472 605.819 258.573 606.288 258.573Z" fill="#121212"/>
<mask id="path-41-inside-8_175_3197" fill="white">
<path d="M696.443 228.871H966.919V286.469H696.443V228.871Z"/>
</mask>
<path d="M696.443 228.871V227.871H695.443V228.871H696.443ZM696.443 286.469H695.443V287.469H696.443V286.469ZM696.443 229.871H966.919V227.871H696.443V229.871ZM966.919 285.469H696.443V287.469H966.919V285.469ZM697.443 286.469V228.871H695.443V286.469H697.443Z" fill="#8BA9A7" mask="url(#path-41-inside-8_175_3197)"/>
<path d="M832.745 263.67V261.286H827.449V260.214L832.985 252.39H834.201V260.102H835.897V261.286H834.201V263.67H832.745ZM832.745 260.102V254.15H833.113L828.649 260.454V260.102H832.745Z" fill="#121212"/>
<mask id="path-44-inside-9_175_3197" fill="white">
<path d="M0 285.977H137.375V343.43H0V285.977Z"/>
</mask>
<path d="M137.375 285.977H138.375V284.977H137.375V285.977ZM137.375 343.43V344.43H138.375V343.43H137.375ZM0 286.977H137.375V284.977H0V286.977ZM136.375 285.977V343.43H138.375V285.977H136.375ZM137.375 342.43H0V344.43H137.375V342.43Z" fill="#8BA9A7" mask="url(#path-44-inside-9_175_3197)"/>
<path d="M60.2517 320.703V318.319H54.9557V317.247L60.4917 309.423H61.7077V317.135H63.4037V318.319H61.7077V320.703H60.2517ZM60.2517 317.135V311.183H60.6197L56.1557 317.487V317.135H60.2517ZM68.0215 320.095V316.655H64.6295V315.567H68.0215V312.207H69.1415V315.567H72.5335V316.655H69.1415V320.095H68.0215ZM75.3592 320.703V319.439H77.9992V310.687H78.7512L75.5992 312.639V311.183L78.4152 309.423H79.4872V319.439H81.9672V320.703H75.3592Z" fill="#121212"/>
<rect x="136.858" y="286.477" width="172.03" height="56.4538" stroke="#8BA9A7"/>
<path d="M217.438 320.703V318.319H212.142V317.247L217.678 309.423H218.894V317.135H220.59V318.319H218.894V320.703H217.438ZM217.438 317.135V311.183H217.806L213.342 317.487V317.135H217.438ZM222.679 322.607L222.023 322.095C222.322 321.786 222.525 321.492 222.631 321.215C222.738 320.948 222.791 320.671 222.791 320.383L223.111 320.703H221.943V318.927H223.719V320.159C223.719 320.618 223.645 321.039 223.495 321.423C223.346 321.818 223.074 322.212 222.679 322.607ZM229.422 320.847C228.654 320.847 227.918 320.73 227.214 320.495C226.52 320.26 225.939 319.93 225.47 319.503L225.998 318.351C226.52 318.778 227.059 319.087 227.614 319.279C228.168 319.471 228.755 319.567 229.374 319.567C230.195 319.567 230.819 319.396 231.246 319.055C231.672 318.703 231.886 318.202 231.886 317.551C231.886 316.911 231.667 316.426 231.23 316.095C230.803 315.764 230.174 315.599 229.342 315.599H227.614V314.367H229.23C229.934 314.367 230.499 314.186 230.926 313.823C231.352 313.46 231.566 312.964 231.566 312.335C231.566 311.759 231.368 311.322 230.974 311.023C230.59 310.714 230.04 310.559 229.326 310.559C228.12 310.559 227.075 310.98 226.19 311.823L225.662 310.687C226.11 310.239 226.664 309.892 227.326 309.647C227.987 309.402 228.686 309.279 229.422 309.279C230.542 309.279 231.422 309.535 232.062 310.047C232.702 310.559 233.022 311.274 233.022 312.191C233.022 312.884 232.824 313.482 232.43 313.983C232.046 314.474 231.518 314.799 230.846 314.959V314.783C231.635 314.922 232.248 315.247 232.686 315.759C233.123 316.26 233.342 316.89 233.342 317.647C233.342 318.639 232.99 319.423 232.286 319.999C231.592 320.564 230.638 320.847 229.422 320.847Z" fill="#121212"/>
<rect x="308.872" y="286.477" width="194.052" height="56.4538" stroke="#8BA9A7"/>
<path d="M399.118 320.847C398.35 320.847 397.614 320.73 396.91 320.495C396.217 320.26 395.636 319.93 395.166 319.503L395.694 318.351C396.217 318.778 396.756 319.087 397.31 319.279C397.865 319.471 398.452 319.567 399.07 319.567C399.892 319.567 400.516 319.396 400.942 319.055C401.369 318.703 401.582 318.202 401.582 317.551C401.582 316.911 401.364 316.426 400.926 316.095C400.5 315.764 399.87 315.599 399.038 315.599H397.31V314.367H398.926C399.63 314.367 400.196 314.186 400.622 313.823C401.049 313.46 401.262 312.964 401.262 312.335C401.262 311.759 401.065 311.322 400.67 311.023C400.286 310.714 399.737 310.559 399.022 310.559C397.817 310.559 396.772 310.98 395.886 311.823L395.358 310.687C395.806 310.239 396.361 309.892 397.022 309.647C397.684 309.402 398.382 309.279 399.118 309.279C400.238 309.279 401.118 309.535 401.758 310.047C402.398 310.559 402.718 311.274 402.718 312.191C402.718 312.884 402.521 313.482 402.126 313.983C401.742 314.474 401.214 314.799 400.542 314.959V314.783C401.332 314.922 401.945 315.247 402.382 315.759C402.82 316.26 403.038 316.89 403.038 317.647C403.038 318.639 402.686 319.423 401.982 319.999C401.289 320.564 400.334 320.847 399.118 320.847ZM405.704 322.607L405.048 322.095C405.347 321.786 405.549 321.492 405.656 321.215C405.763 320.948 405.816 320.671 405.816 320.383L406.136 320.703H404.968V318.927H406.744V320.159C406.744 320.618 406.669 321.039 406.52 321.423C406.371 321.818 406.099 322.212 405.704 322.607ZM412.894 320.847C411.518 320.847 410.457 320.362 409.71 319.391C408.964 318.42 408.59 317.066 408.59 315.327C408.59 314.026 408.777 312.927 409.15 312.031C409.534 311.135 410.078 310.452 410.782 309.983C411.486 309.514 412.329 309.279 413.31 309.279C413.908 309.279 414.505 309.396 415.102 309.631C415.7 309.866 416.196 310.191 416.59 310.607L416.046 311.759C415.652 311.354 415.214 311.055 414.734 310.863C414.265 310.66 413.785 310.559 413.294 310.559C412.238 310.559 411.428 310.938 410.862 311.695C410.308 312.442 410.03 313.556 410.03 315.039V316.463H409.87C409.945 315.866 410.126 315.354 410.414 314.927C410.713 314.5 411.092 314.17 411.55 313.935C412.02 313.7 412.548 313.583 413.134 313.583C413.806 313.583 414.404 313.738 414.926 314.047C415.449 314.356 415.86 314.778 416.158 315.311C416.457 315.844 416.606 316.463 416.606 317.167C416.606 317.871 416.446 318.506 416.126 319.071C415.806 319.626 415.369 320.063 414.814 320.383C414.26 320.692 413.62 320.847 412.894 320.847ZM412.814 319.615C413.284 319.615 413.694 319.514 414.046 319.311C414.409 319.108 414.686 318.826 414.878 318.463C415.081 318.1 415.182 317.684 415.182 317.215C415.182 316.746 415.081 316.33 414.878 315.967C414.686 315.604 414.409 315.322 414.046 315.119C413.694 314.916 413.284 314.815 412.814 314.815C412.345 314.815 411.929 314.916 411.566 315.119C411.214 315.322 410.937 315.604 410.734 315.967C410.532 316.33 410.43 316.746 410.43 317.215C410.43 317.684 410.532 318.1 410.734 318.463C410.937 318.826 411.214 319.108 411.566 319.311C411.929 319.514 412.345 319.615 412.814 319.615Z" fill="#121212"/>
<rect x="502.906" y="286.477" width="194.052" height="56.4538" stroke="#8BA9A7"/>
<path d="M593.152 320.847C592.384 320.847 591.648 320.73 590.944 320.495C590.251 320.26 589.67 319.93 589.2 319.503L589.728 318.351C590.251 318.778 590.79 319.087 591.344 319.279C591.899 319.471 592.486 319.567 593.104 319.567C593.926 319.567 594.55 319.396 594.976 319.055C595.403 318.703 595.616 318.202 595.616 317.551C595.616 316.911 595.398 316.426 594.96 316.095C594.534 315.764 593.904 315.599 593.072 315.599H591.344V314.367H592.96C593.664 314.367 594.23 314.186 594.656 313.823C595.083 313.46 595.296 312.964 595.296 312.335C595.296 311.759 595.099 311.322 594.704 311.023C594.32 310.714 593.771 310.559 593.056 310.559C591.851 310.559 590.806 310.98 589.92 311.823L589.392 310.687C589.84 310.239 590.395 309.892 591.056 309.647C591.718 309.402 592.416 309.279 593.152 309.279C594.272 309.279 595.152 309.535 595.792 310.047C596.432 310.559 596.752 311.274 596.752 312.191C596.752 312.884 596.555 313.482 596.16 313.983C595.776 314.474 595.248 314.799 594.576 314.959V314.783C595.366 314.922 595.979 315.247 596.416 315.759C596.854 316.26 597.072 316.89 597.072 317.647C597.072 318.639 596.72 319.423 596.016 319.999C595.323 320.564 594.368 320.847 593.152 320.847ZM599.738 322.607L599.082 322.095C599.381 321.786 599.583 321.492 599.69 321.215C599.797 320.948 599.85 320.671 599.85 320.383L600.17 320.703H599.002V318.927H600.778V320.159C600.778 320.618 600.703 321.039 600.554 321.423C600.405 321.818 600.133 322.212 599.738 322.607ZM606.48 320.847C605.712 320.847 604.976 320.73 604.272 320.495C603.579 320.26 602.998 319.93 602.528 319.503L603.056 318.351C603.579 318.778 604.118 319.087 604.672 319.279C605.227 319.471 605.814 319.567 606.432 319.567C607.254 319.567 607.878 319.396 608.304 319.055C608.731 318.703 608.944 318.202 608.944 317.551C608.944 316.911 608.726 316.426 608.288 316.095C607.862 315.764 607.232 315.599 606.4 315.599H604.672V314.367H606.288C606.992 314.367 607.558 314.186 607.984 313.823C608.411 313.46 608.624 312.964 608.624 312.335C608.624 311.759 608.427 311.322 608.032 311.023C607.648 310.714 607.099 310.559 606.384 310.559C605.179 310.559 604.134 310.98 603.248 311.823L602.72 310.687C603.168 310.239 603.723 309.892 604.384 309.647C605.046 309.402 605.744 309.279 606.48 309.279C607.6 309.279 608.48 309.535 609.12 310.047C609.76 310.559 610.08 311.274 610.08 312.191C610.08 312.884 609.883 313.482 609.488 313.983C609.104 314.474 608.576 314.799 607.904 314.959V314.783C608.694 314.922 609.307 315.247 609.744 315.759C610.182 316.26 610.4 316.89 610.4 317.647C610.4 318.639 610.048 319.423 609.344 319.999C608.651 320.564 607.696 320.847 606.48 320.847Z" fill="#121212"/>
<mask id="path-53-inside-10_175_3197" fill="white">
<path d="M696.443 285.75H966.919V343.348H696.443V285.75Z"/>
</mask>
<path d="M696.443 285.75V284.75H695.443V285.75H696.443ZM696.443 343.348H695.443V344.348H696.443V343.348ZM696.443 286.75H966.919V284.75H696.443V286.75ZM966.919 342.348H696.443V344.348H966.919V342.348ZM697.443 343.348V285.75H695.443V343.348H697.443Z" fill="#8BA9A7" mask="url(#path-53-inside-10_175_3197)"/>
<path d="M821.541 320.549V319.445L825.477 315.317C825.989 314.794 826.368 314.293 826.613 313.813C826.869 313.333 826.997 312.837 826.997 312.325C826.997 311.695 826.8 311.221 826.405 310.901C826.021 310.57 825.456 310.405 824.709 310.405C824.133 310.405 823.589 310.511 823.077 310.725C822.576 310.927 822.096 311.242 821.637 311.669L821.109 310.533C821.546 310.106 822.096 309.765 822.757 309.509C823.429 309.253 824.133 309.125 824.869 309.125C826.021 309.125 826.912 309.391 827.541 309.925C828.17 310.447 828.485 311.199 828.485 312.181C828.485 312.895 828.309 313.578 827.957 314.229C827.616 314.869 827.109 315.53 826.437 316.213L822.997 319.701V319.285H828.949V320.549H821.541ZM831.487 322.453L830.831 321.941C831.129 321.631 831.332 321.338 831.439 321.061C831.545 320.794 831.599 320.517 831.599 320.229L831.919 320.549H830.751V318.773H832.527V320.005C832.527 320.463 832.452 320.885 832.303 321.269C832.153 321.663 831.881 322.058 831.487 322.453ZM839.573 320.549V318.165H834.277V317.093L839.813 309.269H841.029V316.981H842.725V318.165H841.029V320.549H839.573ZM839.573 316.981V311.029H839.941L835.477 317.333V316.981H839.573Z" fill="#121212"/>
<mask id="path-56-inside-11_175_3197" fill="white">
<path d="M0 342.562H137.375V400.016H0V342.562Z"/>
</mask>
<path d="M137.375 342.562H138.375V341.562H137.375V342.562ZM137.375 400.016V401.016H138.375V400.016H137.375ZM0 343.562H137.375V341.562H0V343.562ZM136.375 342.562V400.016H138.375V342.562H136.375ZM137.375 399.016H0V401.016H137.375V399.016Z" fill="#8BA9A7" mask="url(#path-56-inside-11_175_3197)"/>
<path d="M56.1717 377.289V376.025H58.8117V367.273H59.5637L56.4117 369.225V367.769L59.2277 366.009H60.2997V376.025H62.7797V377.289H56.1717ZM68.0215 376.681V373.241H64.6295V372.153H68.0215V368.793H69.1415V372.153H72.5335V373.241H69.1415V376.681H68.0215ZM75.3592 377.289V376.025H77.9992V367.273H78.7512L75.5992 369.225V367.769L78.4152 366.009H79.4872V376.025H81.9672V377.289H75.3592Z" fill="#121212"/>
<rect x="136.858" y="343.062" width="172.03" height="56.4538" stroke="#8BA9A7"/>
<path d="M222.594 377.433C221.826 377.433 221.09 377.316 220.386 377.081C219.692 376.846 219.111 376.516 218.642 376.089L219.17 374.937C219.692 375.364 220.231 375.673 220.786 375.865C221.34 376.057 221.927 376.153 222.546 376.153C223.367 376.153 223.991 375.982 224.418 375.641C224.844 375.289 225.058 374.788 225.058 374.137C225.058 373.497 224.839 373.012 224.402 372.681C223.975 372.35 223.346 372.185 222.514 372.185H220.786V370.953H222.402C223.106 370.953 223.671 370.772 224.098 370.409C224.524 370.046 224.738 369.55 224.738 368.921C224.738 368.345 224.54 367.908 224.146 367.609C223.762 367.3 223.212 367.145 222.498 367.145C221.292 367.145 220.247 367.566 219.362 368.409L218.834 367.273C219.282 366.825 219.836 366.478 220.498 366.233C221.159 365.988 221.858 365.865 222.594 365.865C223.714 365.865 224.594 366.121 225.234 366.633C225.874 367.145 226.194 367.86 226.194 368.777C226.194 369.47 225.996 370.068 225.602 370.569C225.218 371.06 224.69 371.385 224.018 371.545V371.369C224.807 371.508 225.42 371.833 225.858 372.345C226.295 372.846 226.514 373.476 226.514 374.233C226.514 375.225 226.162 376.009 225.458 376.585C224.764 377.15 223.81 377.433 222.594 377.433Z" fill="#121212"/>
<rect x="308.872" y="343.062" width="194.052" height="56.4538" stroke="#8BA9A7"/>
<path d="M395.758 377.289V376.185L399.694 372.057C400.206 371.534 400.585 371.033 400.83 370.553C401.086 370.073 401.214 369.577 401.214 369.065C401.214 368.436 401.017 367.961 400.622 367.641C400.238 367.31 399.673 367.145 398.926 367.145C398.35 367.145 397.806 367.252 397.294 367.465C396.793 367.668 396.313 367.982 395.854 368.409L395.326 367.273C395.764 366.846 396.313 366.505 396.974 366.249C397.646 365.993 398.35 365.865 399.086 365.865C400.238 365.865 401.129 366.132 401.758 366.665C402.388 367.188 402.702 367.94 402.702 368.921C402.702 369.636 402.526 370.318 402.174 370.969C401.833 371.609 401.326 372.27 400.654 372.953L397.214 376.441V376.025H403.166V377.289H395.758ZM405.704 379.193L405.048 378.681C405.347 378.372 405.549 378.078 405.656 377.801C405.763 377.534 405.816 377.257 405.816 376.969L406.136 377.289H404.968V375.513H406.744V376.745C406.744 377.204 406.669 377.625 406.52 378.009C406.371 378.404 406.099 378.798 405.704 379.193ZM412.894 377.433C411.518 377.433 410.457 376.948 409.71 375.977C408.964 375.006 408.59 373.652 408.59 371.913C408.59 370.612 408.777 369.513 409.15 368.617C409.534 367.721 410.078 367.038 410.782 366.569C411.486 366.1 412.329 365.865 413.31 365.865C413.908 365.865 414.505 365.982 415.102 366.217C415.7 366.452 416.196 366.777 416.59 367.193L416.046 368.345C415.652 367.94 415.214 367.641 414.734 367.449C414.265 367.246 413.785 367.145 413.294 367.145C412.238 367.145 411.428 367.524 410.862 368.281C410.308 369.028 410.03 370.142 410.03 371.625V373.049H409.87C409.945 372.452 410.126 371.94 410.414 371.513C410.713 371.086 411.092 370.756 411.55 370.521C412.02 370.286 412.548 370.169 413.134 370.169C413.806 370.169 414.404 370.324 414.926 370.633C415.449 370.942 415.86 371.364 416.158 371.897C416.457 372.43 416.606 373.049 416.606 373.753C416.606 374.457 416.446 375.092 416.126 375.657C415.806 376.212 415.369 376.649 414.814 376.969C414.26 377.278 413.62 377.433 412.894 377.433ZM412.814 376.201C413.284 376.201 413.694 376.1 414.046 375.897C414.409 375.694 414.686 375.412 414.878 375.049C415.081 374.686 415.182 374.27 415.182 373.801C415.182 373.332 415.081 372.916 414.878 372.553C414.686 372.19 414.409 371.908 414.046 371.705C413.694 371.502 413.284 371.401 412.814 371.401C412.345 371.401 411.929 371.502 411.566 371.705C411.214 371.908 410.937 372.19 410.734 372.553C410.532 372.916 410.43 373.332 410.43 373.801C410.43 374.27 410.532 374.686 410.734 375.049C410.937 375.412 411.214 375.694 411.566 375.897C411.929 376.1 412.345 376.201 412.814 376.201Z" fill="#121212"/>
<rect x="502.906" y="343.062" width="194.052" height="56.4538" stroke="#8BA9A7"/>
<path d="M589.792 377.289V376.185L593.728 372.057C594.24 371.534 594.619 371.033 594.864 370.553C595.12 370.073 595.248 369.577 595.248 369.065C595.248 368.436 595.051 367.961 594.656 367.641C594.272 367.31 593.707 367.145 592.96 367.145C592.384 367.145 591.84 367.252 591.328 367.465C590.827 367.668 590.347 367.982 589.888 368.409L589.36 367.273C589.798 366.846 590.347 366.505 591.008 366.249C591.68 365.993 592.384 365.865 593.12 365.865C594.272 365.865 595.163 366.132 595.792 366.665C596.422 367.188 596.736 367.94 596.736 368.921C596.736 369.636 596.56 370.318 596.208 370.969C595.867 371.609 595.36 372.27 594.688 372.953L591.248 376.441V376.025H597.2V377.289H589.792ZM599.738 379.193L599.082 378.681C599.381 378.372 599.583 378.078 599.69 377.801C599.797 377.534 599.85 377.257 599.85 376.969L600.17 377.289H599.002V375.513H600.778V376.745C600.778 377.204 600.703 377.625 600.554 378.009C600.405 378.404 600.133 378.798 599.738 379.193ZM606.752 377.433C606.262 377.433 605.776 377.38 605.296 377.273C604.827 377.166 604.384 377.017 603.968 376.825C603.552 376.622 603.19 376.377 602.88 376.089L603.408 374.937C603.931 375.353 604.464 375.662 605.008 375.865C605.552 376.057 606.123 376.153 606.72 376.153C607.51 376.153 608.128 375.945 608.576 375.529C609.024 375.113 609.248 374.558 609.248 373.865C609.248 373.15 609.035 372.574 608.608 372.137C608.182 371.689 607.59 371.465 606.832 371.465C606.31 371.465 605.835 371.572 605.408 371.785C604.992 371.988 604.624 372.313 604.304 372.761H603.248V366.009H610.016V367.273H604.688V371.545H604.304C604.592 371.118 604.982 370.788 605.472 370.553C605.974 370.318 606.534 370.201 607.152 370.201C607.878 370.201 608.502 370.35 609.024 370.649C609.558 370.948 609.968 371.369 610.256 371.913C610.555 372.446 610.704 373.07 610.704 373.785C610.704 374.5 610.544 375.134 610.224 375.689C609.904 376.233 609.446 376.66 608.848 376.969C608.262 377.278 607.563 377.433 606.752 377.433Z" fill="#121212"/>
<mask id="path-65-inside-12_175_3197" fill="white">
<path d="M696.443 342.484H966.919V400.082H696.443V342.484Z"/>
</mask>
<path d="M696.443 342.484V341.484H695.443V342.484H696.443ZM696.443 400.082H695.443V401.082H696.443V400.082ZM696.443 343.484H966.919V341.484H696.443V343.484ZM966.919 399.082H696.443V401.082H966.919V399.082ZM697.443 400.082V342.484H695.443V400.082H697.443Z" fill="#8BA9A7" mask="url(#path-65-inside-12_175_3197)"/>
<path d="M822.165 377.283V376.019H824.805V367.267H825.557L822.405 369.219V367.763L825.221 366.003H826.293V376.019H828.773V377.283H822.165ZM831.487 379.187L830.831 378.675C831.129 378.366 831.332 378.073 831.439 377.795C831.545 377.529 831.599 377.251 831.599 376.963L831.919 377.283H830.751V375.507H832.527V376.739C832.527 377.198 832.452 377.619 832.303 378.003C832.153 378.398 831.881 378.793 831.487 379.187ZM838.501 377.427C838.01 377.427 837.525 377.374 837.045 377.267C836.576 377.161 836.133 377.011 835.717 376.819C835.301 376.617 834.938 376.371 834.629 376.083L835.157 374.931C835.68 375.347 836.213 375.657 836.757 375.859C837.301 376.051 837.872 376.147 838.469 376.147C839.258 376.147 839.877 375.939 840.325 375.523C840.773 375.107 840.997 374.553 840.997 373.859C840.997 373.145 840.784 372.569 840.357 372.131C839.93 371.683 839.338 371.459 838.581 371.459C838.058 371.459 837.584 371.566 837.157 371.779C836.741 371.982 836.373 372.307 836.053 372.755H834.997V366.003H841.765V367.267H836.437V371.539H836.053C836.341 371.113 836.73 370.782 837.221 370.547C837.722 370.313 838.282 370.195 838.901 370.195C839.626 370.195 840.25 370.345 840.773 370.643C841.306 370.942 841.717 371.363 842.005 371.907C842.304 372.441 842.453 373.065 842.453 373.779C842.453 374.494 842.293 375.129 841.973 375.683C841.653 376.227 841.194 376.654 840.597 376.963C840.01 377.273 839.312 377.427 838.501 377.427Z" fill="#121212"/>
<mask id="path-68-inside-13_175_3197" fill="white">
<path d="M0 399.137H137.375V456.591H0V399.137Z"/>
</mask>
<path d="M137.375 399.137H138.375V398.137H137.375V399.137ZM0 400.137H137.375V398.137H0V400.137ZM136.375 399.137V456.591H138.375V399.137H136.375Z" fill="#8BA9A7" mask="url(#path-68-inside-13_175_3197)"/>
<path d="M56.1717 433.863V432.599H58.8117V423.847H59.5637L56.4117 425.799V424.343L59.2277 422.583H60.2997V432.599H62.7797V433.863H56.1717ZM68.0215 433.255V429.815H64.6295V428.727H68.0215V425.367H69.1415V428.727H72.5335V429.815H69.1415V433.255H68.0215ZM78.1752 434.007C76.8846 434.007 75.8926 433.511 75.1992 432.519C74.5059 431.517 74.1592 430.082 74.1592 428.215C74.1592 426.317 74.5059 424.882 75.1992 423.911C75.8926 422.93 76.8846 422.439 78.1752 422.439C79.4766 422.439 80.4686 422.93 81.1512 423.911C81.8446 424.882 82.1912 426.311 82.1912 428.199C82.1912 430.077 81.8446 431.517 81.1512 432.519C80.4579 433.511 79.4659 434.007 78.1752 434.007ZM78.1752 432.743C79.0286 432.743 79.6632 432.375 80.0792 431.639C80.5059 430.903 80.7192 429.757 80.7192 428.199C80.7192 426.642 80.5059 425.506 80.0792 424.791C79.6632 424.066 79.0286 423.703 78.1752 423.703C77.3326 423.703 76.6979 424.066 76.2712 424.791C75.8446 425.506 75.6312 426.642 75.6312 428.199C75.6312 429.757 75.8446 430.903 76.2712 431.639C76.6979 432.375 77.3326 432.743 78.1752 432.743Z" fill="#121212"/>
<mask id="path-71-inside-14_175_3197" fill="white">
<path d="M136.358 399.137H309.388V456.591H136.358V399.137Z"/>
</mask>
<path d="M136.358 399.137V398.137H135.358V399.137H136.358ZM309.388 399.137H310.388V398.137H309.388V399.137ZM136.358 400.137H309.388V398.137H136.358V400.137ZM308.388 399.137V456.591H310.388V399.137H308.388ZM137.358 456.591V399.137H135.358V456.591H137.358Z" fill="#8BA9A7" mask="url(#path-71-inside-14_175_3197)"/>
<path d="M213.358 433.863V432.599H215.998V423.847H216.75L213.598 425.799V424.343L216.414 422.583H217.486V432.599H219.966V433.863H213.358ZM222.679 435.767L222.023 435.255C222.322 434.946 222.525 434.653 222.631 434.375C222.738 434.109 222.791 433.831 222.791 433.543L223.111 433.863H221.943V432.087H223.719V433.319C223.719 433.778 223.645 434.199 223.495 434.583C223.346 434.978 223.074 435.373 222.679 435.767ZM229.694 434.007C229.203 434.007 228.718 433.954 228.238 433.847C227.768 433.741 227.326 433.591 226.91 433.399C226.494 433.197 226.131 432.951 225.822 432.663L226.35 431.511C226.872 431.927 227.406 432.237 227.95 432.439C228.494 432.631 229.064 432.727 229.662 432.727C230.451 432.727 231.07 432.519 231.518 432.103C231.966 431.687 232.19 431.133 232.19 430.439C232.19 429.725 231.976 429.149 231.55 428.711C231.123 428.263 230.531 428.039 229.774 428.039C229.251 428.039 228.776 428.146 228.35 428.359C227.934 428.562 227.566 428.887 227.246 429.335H226.19V422.583H232.958V423.847H227.63V428.119H227.246C227.534 427.693 227.923 427.362 228.414 427.127C228.915 426.893 229.475 426.775 230.094 426.775C230.819 426.775 231.443 426.925 231.966 427.223C232.499 427.522 232.91 427.943 233.198 428.487C233.496 429.021 233.646 429.645 233.646 430.359C233.646 431.074 233.486 431.709 233.166 432.263C232.846 432.807 232.387 433.234 231.79 433.543C231.203 433.853 230.504 434.007 229.694 434.007Z" fill="#121212"/>
<mask id="path-74-inside-15_175_3197" fill="white">
<path d="M308.372 399.137H503.424V456.591H308.372V399.137Z"/>
</mask>
<path d="M308.372 399.137V398.137H307.372V399.137H308.372ZM503.424 399.137H504.424V398.137H503.424V399.137ZM308.372 400.137H503.424V398.137H308.372V400.137ZM502.424 399.137V456.591H504.424V399.137H502.424ZM309.372 456.591V399.137H307.372V456.591H309.372Z" fill="#8BA9A7" mask="url(#path-74-inside-15_175_3197)"/>
<path d="M396.382 433.863V432.599H399.022V423.847H399.774L396.622 425.799V424.343L399.438 422.583H400.51V432.599H402.99V433.863H396.382ZM405.704 435.767L405.048 435.255C405.347 434.946 405.549 434.653 405.656 434.375C405.763 434.109 405.816 433.831 405.816 433.543L406.136 433.863H404.968V432.087H406.744V433.319C406.744 433.778 406.669 434.199 406.52 434.583C406.371 434.978 406.099 435.373 405.704 435.767ZM412.446 434.007C411.678 434.007 410.942 433.89 410.238 433.655C409.545 433.421 408.964 433.09 408.494 432.663L409.022 431.511C409.545 431.938 410.084 432.247 410.638 432.439C411.193 432.631 411.78 432.727 412.398 432.727C413.22 432.727 413.844 432.557 414.27 432.215C414.697 431.863 414.91 431.362 414.91 430.711C414.91 430.071 414.692 429.586 414.254 429.255C413.828 428.925 413.198 428.759 412.366 428.759H410.638V427.527H412.254C412.958 427.527 413.524 427.346 413.95 426.983C414.377 426.621 414.59 426.125 414.59 425.495C414.59 424.919 414.393 424.482 413.998 424.183C413.614 423.874 413.065 423.719 412.35 423.719C411.145 423.719 410.1 424.141 409.214 424.983L408.686 423.847C409.134 423.399 409.689 423.053 410.35 422.807C411.012 422.562 411.71 422.439 412.446 422.439C413.566 422.439 414.446 422.695 415.086 423.207C415.726 423.719 416.046 424.434 416.046 425.351C416.046 426.045 415.849 426.642 415.454 427.143C415.07 427.634 414.542 427.959 413.87 428.119V427.943C414.66 428.082 415.273 428.407 415.71 428.919C416.148 429.421 416.366 430.05 416.366 430.807C416.366 431.799 416.014 432.583 415.31 433.159C414.617 433.725 413.662 434.007 412.446 434.007Z" fill="#121212"/>
<mask id="path-77-inside-16_175_3197" fill="white">
<path d="M502.406 399.137H697.458V456.591H502.406V399.137Z"/>
</mask>
<path d="M502.406 399.137V398.137H501.406V399.137H502.406ZM697.458 399.137H698.458V398.137H697.458V399.137ZM502.406 400.137H697.458V398.137H502.406V400.137ZM696.458 399.137V456.591H698.458V399.137H696.458ZM503.406 456.591V399.137H501.406V456.591H503.406Z" fill="#8BA9A7" mask="url(#path-77-inside-16_175_3197)"/>
<path d="M590.416 433.863V432.599H593.056V423.847H593.808L590.656 425.799V424.343L593.472 422.583H594.544V432.599H597.024V433.863H590.416ZM599.738 435.767L599.082 435.255C599.381 434.946 599.583 434.653 599.69 434.375C599.797 434.109 599.85 433.831 599.85 433.543L600.17 433.863H599.002V432.087H600.778V433.319C600.778 433.778 600.703 434.199 600.554 434.583C600.405 434.978 600.133 435.373 599.738 435.767ZM603.12 433.863V432.759L607.056 428.631C607.568 428.109 607.947 427.607 608.192 427.127C608.448 426.647 608.576 426.151 608.576 425.639C608.576 425.01 608.379 424.535 607.984 424.215C607.6 423.885 607.035 423.719 606.288 423.719C605.712 423.719 605.168 423.826 604.656 424.039C604.155 424.242 603.675 424.557 603.216 424.983L602.688 423.847C603.126 423.421 603.675 423.079 604.336 422.823C605.008 422.567 605.712 422.439 606.448 422.439C607.6 422.439 608.491 422.706 609.12 423.239C609.75 423.762 610.064 424.514 610.064 425.495C610.064 426.21 609.888 426.893 609.536 427.543C609.195 428.183 608.688 428.845 608.016 429.527L604.576 433.015V432.599H610.528V433.863H603.12Z" fill="#121212"/>
<mask id="path-80-inside-17_175_3197" fill="white">
<path d="M696.443 399.199H966.919V456.797H696.443V399.199Z"/>
</mask>
<path d="M696.443 399.199V398.199H695.443V399.199H696.443ZM696.443 400.199H966.919V398.199H696.443V400.199ZM697.443 456.797V399.199H695.443V456.797H697.443Z" fill="#8BA9A7" mask="url(#path-80-inside-17_175_3197)"/>
<path d="M824.981 434.142C823.69 434.142 822.698 433.646 822.005 432.654C821.312 431.651 820.965 430.217 820.965 428.35C820.965 426.451 821.312 425.017 822.005 424.046C822.698 423.065 823.69 422.574 824.981 422.574C826.282 422.574 827.274 423.065 827.957 424.046C828.65 425.017 828.997 426.446 828.997 428.334C828.997 430.211 828.65 431.651 827.957 432.654C827.264 433.646 826.272 434.142 824.981 434.142ZM824.981 432.878C825.834 432.878 826.469 432.51 826.885 431.774C827.312 431.038 827.525 429.891 827.525 428.334C827.525 426.777 827.312 425.641 826.885 424.926C826.469 424.201 825.834 423.838 824.981 423.838C824.138 423.838 823.504 424.201 823.077 424.926C822.65 425.641 822.437 426.777 822.437 428.334C822.437 429.891 822.65 431.038 823.077 431.774C823.504 432.51 824.138 432.878 824.981 432.878ZM831.487 435.902L830.831 435.39C831.129 435.081 831.332 434.787 831.439 434.51C831.545 434.243 831.599 433.966 831.599 433.678L831.919 433.998H830.751V432.222H832.527V433.454C832.527 433.913 832.452 434.334 832.303 434.718C832.153 435.113 831.881 435.507 831.487 435.902ZM837.541 434.142C836.944 434.142 836.346 434.019 835.749 433.774C835.152 433.529 834.656 433.203 834.261 432.798L834.805 431.662C835.2 432.057 835.632 432.355 836.101 432.558C836.581 432.761 837.066 432.862 837.557 432.862C838.602 432.862 839.408 432.489 839.973 431.742C840.538 430.985 840.821 429.865 840.821 428.382V426.958H840.981C840.917 427.545 840.73 428.057 840.421 428.494C840.122 428.921 839.744 429.251 839.285 429.486C838.826 429.721 838.304 429.838 837.717 429.838C837.045 429.838 836.448 429.683 835.925 429.374C835.402 429.065 834.992 428.643 834.693 428.11C834.394 427.566 834.245 426.947 834.245 426.254C834.245 425.539 834.4 424.905 834.709 424.35C835.029 423.795 835.466 423.363 836.021 423.054C836.576 422.734 837.216 422.574 837.941 422.574C839.328 422.574 840.394 423.059 841.141 424.03C841.888 424.99 842.261 426.345 842.261 428.094C842.261 429.385 842.069 430.483 841.685 431.39C841.312 432.286 840.773 432.969 840.069 433.438C839.365 433.907 838.522 434.142 837.541 434.142ZM838.037 428.606C838.506 428.606 838.917 428.505 839.269 428.302C839.632 428.099 839.914 427.817 840.117 427.454C840.32 427.091 840.421 426.675 840.421 426.206C840.421 425.726 840.32 425.31 840.117 424.958C839.914 424.595 839.632 424.313 839.269 424.11C838.917 423.897 838.506 423.79 838.037 423.79C837.568 423.79 837.152 423.897 836.789 424.11C836.437 424.313 836.16 424.595 835.957 424.958C835.765 425.31 835.669 425.726 835.669 426.206C835.669 426.675 835.765 427.091 835.957 427.454C836.16 427.817 836.437 428.099 836.789 428.302C837.152 428.505 837.568 428.606 838.037 428.606Z" fill="#121212"/>
<rect y="14" width="967" height="443" fill="url(#paint0_linear_175_3197)"/>
<defs>
<linearGradient id="paint0_linear_175_3197" x1="483.5" y1="14" x2="483.5" y2="457" gradientUnits="userSpaceOnUse">
<stop stop-color="white" stop-opacity="0"/>
<stop offset="1" stop-color="white"/>
</linearGradient>
</defs>
</svg>
