<svg xmlns="http://www.w3.org/2000/svg" id="_Слой_2" data-name="Слой 2" viewBox="0 0 938.93 320.14"><defs><style>.cls-1{font-family:Mulish-Bold,Mulish;font-weight:700}.cls-1,.cls-2,.cls-3{fill:#27625f}.cls-1,.cls-3{font-size:16px}.cls-2{stroke-width:0}.cls-3{font-family:Mulish-SemiBold,Mulish;font-weight:600}.cls-9{letter-spacing:-.07em}.cls-11{letter-spacing:0}.cls-12{letter-spacing:-.07em}.cls-13{letter-spacing:-.02em}.cls-15{letter-spacing:0}.cls-16{letter-spacing:-.02em}.cls-17{letter-spacing:0}.cls-18{letter-spacing:-.02em}.cls-20{letter-spacing:-.01em}</style></defs><g id="_Слой_1-2" data-name="Слой 1"><rect width="937.93" height="319.14" x=".5" y=".5" rx="10" ry="10" style="fill:#fff;stroke:#a0b6b5;stroke-miterlimit:10"/><path d="M938.43 91.68H.5m937.93 45.59H.5m937.93-91.18H.5m937.93 45.59H.5m937.93 91.18H.5m937.93 45.6H.5m937.93 45.59H.5M128.85 46.09v227.96M230.3 46.09v227.96M331.8 46.09v227.96M432.5 46.09v227.96M533.2 46.09v227.96M634.41 46.09v227.96m32.74 0v45.59m-125.17-45.59v45.59m-132.87-45.59v45.59m-252.74-45.59v45.59m642.91-45.59v45.59M736.15 46.09v227.96M837.29 46.09v227.96" style="stroke:#a0b6b5;stroke-miterlimit:10;fill:none"/><text class="cls-1" transform="translate(13.5 27.82)"><tspan x="0" y="0">Пакеты (вы</tspan><tspan x="92.94" y="0" class="cls-11">р</tspan><tspan x="102.96" y="0">убная укреплённая </tspan><tspan x="264.28" y="0" class="cls-11">р</tspan><tspan x="274.3" y="0">учка, донная складка. Белый, 300х400 мм, 70 мк</tspan><tspan x="664.58" y="0" class="cls-20">р</tspan><tspan x="674.56" y="0">)м</tspan></text><text class="cls-1" transform="translate(50.27 121.3)"><tspan x="0" y="0">1+0</tspan></text><text class="cls-1" transform="translate(33.89 166.08)"><tspan x="0" y="0">2+0,1+1</tspan></text><text class="cls-1" transform="translate(33.89 210.85)"><tspan x="0" y="0">3+0,2+1</tspan></text><text class="cls-1" transform="translate(33.89 255.63)"><tspan x="0" y="0">4+0,2+2</tspan></text><text class="cls-3" transform="translate(160.4 121.3)"><tspan x="0" y="0">76 </tspan><tspan x="23.47" y="0" class="cls-13">р</tspan><tspan x="33.15" y="0">.</tspan></text><text class="cls-1" transform="translate(155 75.91)"><tspan x="0" y="0">50 ш</tspan><tspan x="37.15" y="0" class="cls-9">т</tspan><tspan x="43.78" y="0" class="cls-15">.</tspan></text><text class="cls-3" transform="translate(155.6 166.08)"><tspan x="0" y="0">127 </tspan><tspan x="33.07" y="0" class="cls-18">р</tspan><tspan x="42.75" y="0" class="cls-15">.</tspan></text><text class="cls-3" transform="translate(148.9 210.85)"><tspan x="0" y="0">179,5 </tspan><tspan x="46.46" y="0" class="cls-16">р</tspan><tspan x="56.14" y="0">.</tspan></text><path d="M164.25 251.88v-1.29h4.69v1.29zm18.17 7.2v-9.58c0-.31-.01-.63-.04-.95l-.09-.98h1.57l.16 1.82h-.18c.17-.61.51-1.09 1.03-1.44s1.13-.53 1.85-.53 1.34.17 1.87.5.95.81 1.24 1.43.44 1.37.44 2.24-.15 1.61-.44 2.24-.71 1.11-1.24 1.44-1.16.5-1.87.5-1.31-.17-1.83-.52-.86-.82-1.03-1.42h.18v5.25zm3.9-4.58c.7 0 1.27-.25 1.69-.74s.63-1.22.63-2.18-.21-1.68-.63-2.17-.98-.73-1.69-.73-1.27.24-1.69.73-.63 1.21-.63 2.17.21 1.69.63 2.18.98.74 1.69.74m5.44 1.13v-1.9h1.9v1.9z" class="cls-2"/><text class="cls-3" transform="translate(257.01 121.3)"><tspan x="0" y="0">58,5 </tspan><tspan x="36.86" y="0" class="cls-13">р</tspan><tspan x="46.54" y="0" class="cls-17">.</tspan></text><text class="cls-1" transform="translate(253.5 75.91)"><tspan x="0" y="0">100 ш</tspan><tspan x="46.75" y="0" class="cls-12">т</tspan><tspan x="53.38" y="0">.</tspan></text><text class="cls-3" transform="translate(263.7 166.08)"><tspan x="0" y="0">91 </tspan><tspan x="23.47" y="0" class="cls-13">р</tspan><tspan x="33.15" y="0">.</tspan></text><text class="cls-3" transform="translate(252.21 210.85)"><tspan x="0" y="0">123,5 </tspan><tspan x="46.46" y="0" class="cls-16">р</tspan><tspan x="56.14" y="0">.</tspan></text><text class="cls-3" transform="translate(259.41 255.63)"><tspan x="0" y="0">156 </tspan><tspan x="33.07" y="0" class="cls-18">р</tspan><tspan x="42.75" y="0" class="cls-15">.</tspan></text><text class="cls-3" transform="translate(12.61 291.98)"><tspan x="0" y="0">Цветной/з</tspan><tspan x="80.42" y="0" class="cls-20">о</tspan><tspan x="89.73" y="0">ло</tspan><tspan x="108.75" y="0" style="letter-spacing:0">т</tspan><tspan x="116.19" y="0">ой</tspan></text><text class="cls-3" transform="translate(28.38 312.48)"><tspan x="0" y="0">+3,6 </tspan><tspan x="36.86" y="0" class="cls-16">р</tspan><tspan x="46.54" y="0" style="letter-spacing:.07em">.</tspan><tspan x="51.39" y="0">/+18 </tspan><tspan x="89.26" y="0" class="cls-16">р</tspan><tspan x="98.94" y="0">.</tspan></text><text class="cls-3" transform="translate(209.79 293.56)"><tspan x="0" y="0">200х300 мм -1,2 </tspan><tspan x="131.07" y="0" style="letter-spacing:-.02em">р</tspan><tspan x="140.75" y="0">.</tspan></text><path d="M437.08 295.69v-2.34h-5.22v-1.18l5.49-7.76h1.34v7.65h1.68v1.3h-1.68v2.34h-1.62Zm0-3.63v-5.68h.37l-4.29 6.08v-.4zm8.45 3.78q-1.95 0-3-1.5t-1.05-4.29c0-2.79.35-3.34 1.05-4.31.7-.98 1.7-1.46 3-1.46s2.31.49 3.01 1.46c.69.98 1.04 2.41 1.04 4.3s-.35 3.32-1.05 4.31q-1.05 1.5-3 1.5Zm0-1.39c.82 0 1.43-.36 1.83-1.07s.6-1.83.6-3.34-.2-2.64-.6-3.34q-.6-1.05-1.83-1.05c-1.23 0-1.42.35-1.82 1.05-.41.7-.61 1.81-.61 3.32s.21 2.65.62 3.36 1.02 1.07 1.82 1.07Zm9.6 1.39q-1.95 0-3-1.5t-1.05-4.29c0-2.79.35-3.34 1.05-4.31.7-.98 1.7-1.46 3-1.46s2.31.49 3.01 1.46c.69.98 1.04 2.41 1.04 4.3s-.35 3.32-1.05 4.31q-1.05 1.5-3 1.5Zm0-1.39c.82 0 1.43-.36 1.83-1.07s.6-1.83.6-3.34-.2-2.64-.6-3.34q-.6-1.05-1.83-1.05c-1.23 0-1.42.35-1.82 1.05-.41.7-.61 1.81-.61 3.32s.21 2.65.62 3.36 1.02 1.07 1.82 1.07Zm4.93 1.24 3.66-4.54v.77l-3.47-4.29h1.94l2.45 3.15h-.58l2.45-3.15h1.92l-3.44 4.27v-.74l3.65 4.53h-1.94l-2.64-3.38h.58l-2.66 3.38zm13.68.15a6.5 6.5 0 0 1-2.8-.62 5 5 0 0 1-1.09-.71l.58-1.26c.51.39 1.04.69 1.58.89s1.11.29 1.7.29c.76 0 1.35-.2 1.78-.59s.65-.92.65-1.58-.21-1.23-.62-1.66c-.41-.42-.98-.63-1.7-.63-.5 0-.96.1-1.37.3q-.615.3-1.08.93h-1.15v-6.78h6.83v1.39h-5.25v4.06h-.42c.29-.41.67-.72 1.16-.94a3.9 3.9 0 0 1 1.64-.34q1.08 0 1.89.45c.53.3.95.71 1.24 1.25.29.53.44 1.16.44 1.89s-.16 1.36-.49 1.91a3.4 3.4 0 0 1-1.39 1.29c-.6.31-1.31.46-2.14.46Zm9.44 0q-1.95 0-3-1.5t-1.05-4.29c0-2.79.35-3.34 1.05-4.31.7-.98 1.7-1.46 3-1.46s2.31.49 3.01 1.46c.69.98 1.04 2.41 1.04 4.3s-.35 3.32-1.05 4.31q-1.05 1.5-3 1.5Zm0-1.39c.82 0 1.43-.36 1.83-1.07s.6-1.83.6-3.34-.2-2.64-.6-3.34q-.6-1.05-1.83-1.05c-1.23 0-1.42.35-1.82 1.05-.41.7-.61 1.81-.61 3.32s.21 2.65.62 3.36 1.02 1.07 1.82 1.07Zm9.6 1.39q-1.95 0-3-1.5t-1.05-4.29c0-2.79.35-3.34 1.05-4.31.7-.98 1.7-1.46 3-1.46s2.31.49 3.01 1.46 1.04 2.41 1.04 4.3-.35 3.32-1.05 4.31q-1.05 1.5-3 1.5Zm0-1.39c.82 0 1.43-.36 1.83-1.07s.6-1.83.6-3.34-.2-2.64-.6-3.34q-.6-1.05-1.83-1.05c-1.23 0-1.42.35-1.82 1.05s-.61 1.81-.61 3.32.21 2.65.62 3.36 1.02 1.07 1.82 1.07Zm10.29 1.24v-8.06h1.34l2.91 5.15 2.91-5.15h1.34v8.06h-1.42v-6.26h.35l-2.8 4.96h-.77l-2.8-4.96h.35v6.26h-1.42Zm10.94 0v-8.06h1.34l2.91 5.15 2.91-5.15h1.34v8.06h-1.42v-6.26h.35l-2.8 4.96h-.77l-2.8-4.96h.35v6.26H514Zm-50.85 13.39v-3.39h-3.34v-1.18h3.34v-3.31h1.22v3.31h3.34v1.18h-3.34v3.39zm10.2.76c-1.3 0-2.31-.28-3.04-.83-.72-.55-1.09-1.33-1.09-2.32 0-.79.24-1.44.72-1.96s1.11-.83 1.89-.94v.29c-.7-.15-1.27-.47-1.69-.98-.42-.5-.63-1.11-.63-1.82 0-.94.34-1.67 1.02-2.21s1.62-.8 2.82-.8 2.15.27 2.83.8 1.02 1.27 1.02 2.21c0 .71-.2 1.33-.6 1.83-.4.51-.95.82-1.64.95v-.27c.77.11 1.38.42 1.84.94s.69 1.17.69 1.96c0 .99-.36 1.76-1.09 2.32-.73.55-1.74.83-3.06.83Zm0-1.31c.86 0 1.51-.16 1.94-.49s.64-.81.64-1.46-.21-1.14-.64-1.46-1.07-.48-1.94-.48-1.51.16-1.94.48-.64.81-.64 1.46.22 1.14.65 1.46 1.07.49 1.93.49m0-5.2c.75 0 1.31-.17 1.7-.5s.58-.8.58-1.38-.19-1.03-.58-1.36-.96-.5-1.7-.5-1.3.17-1.7.5c-.39.33-.59.78-.59 1.36s.2 1.05.59 1.38.96.5 1.7.5m10.35 9.82v-9.58c0-.31-.01-.63-.04-.95l-.09-.98h1.57l.16 1.82h-.18c.17-.61.51-1.09 1.03-1.44s1.13-.53 1.85-.53 1.34.17 1.87.5.95.81 1.24 1.43.44 1.37.44 2.24-.15 1.61-.44 2.24-.71 1.11-1.24 1.44-1.16.5-1.87.5-1.31-.17-1.83-.52-.86-.82-1.03-1.42h.18v5.25zm3.9-4.58c.7 0 1.27-.25 1.69-.74s.63-1.21.63-2.18-.21-1.68-.63-2.17c-.42-.48-.98-.73-1.69-.73s-1.27.24-1.69.73-.63 1.21-.63 2.17.21 1.69.63 2.18.98.74 1.69.74m5.45 1.12v-1.9h1.9v1.9zm73.65-14a6.5 6.5 0 0 1-2.8-.62c-.41-.2-.78-.43-1.09-.71l.58-1.26c.51.4 1.04.69 1.58.89s1.11.3 1.71.3c.76 0 1.35-.2 1.78-.59s.65-.92.65-1.58-.21-1.23-.62-1.66c-.41-.42-.98-.63-1.7-.63-.5 0-.96.1-1.37.3q-.615.3-1.08.93h-1.15v-6.78h6.83v1.39h-5.25v4.06h-.42c.29-.41.67-.72 1.16-.94.48-.22 1.03-.34 1.64-.34.73 0 1.35.15 1.89.45s.95.71 1.24 1.25.44 1.16.44 1.89-.16 1.36-.49 1.91c-.32.55-.79.98-1.39 1.29s-1.32.46-2.14.46Zm9.44 0q-1.95 0-3-1.5c-.7-1-1.05-2.43-1.05-4.3s.35-3.34 1.05-4.31c.7-.98 1.7-1.46 3-1.46s2.31.49 3.01 1.46c.69.98 1.04 2.41 1.04 4.3s-.35 3.31-1.05 4.31q-1.05 1.5-3 1.5m0-1.39c.82 0 1.43-.36 1.83-1.07s.6-1.83.6-3.34-.2-2.64-.6-3.34q-.6-1.05-1.83-1.05c-1.23 0-1.42.35-1.82 1.05-.41.7-.61 1.8-.61 3.32s.21 2.65.62 3.36 1.02 1.07 1.82 1.07Zm9.6 1.39q-1.95 0-3-1.5c-.7-1-1.05-2.43-1.05-4.3s.35-3.34 1.05-4.31c.7-.98 1.7-1.46 3-1.46s2.31.49 3.01 1.46c.69.98 1.04 2.41 1.04 4.3s-.35 3.31-1.05 4.31q-1.05 1.5-3 1.5m0-1.39c.82 0 1.43-.36 1.83-1.07s.6-1.83.6-3.34-.2-2.64-.6-3.34q-.6-1.05-1.83-1.05c-1.23 0-1.42.35-1.82 1.05-.41.7-.61 1.8-.61 3.32s.21 2.65.62 3.36 1.02 1.07 1.82 1.07Zm4.93 1.25 3.66-4.54v.77l-3.47-4.29h1.94l2.45 3.15h-.58l2.45-3.15h1.92l-3.44 4.27v-.74l3.65 4.53h-1.94l-2.64-3.38h.58l-2.66 3.38zm13.91.14c-1.4 0-2.47-.49-3.22-1.46s-1.13-2.33-1.13-4.08c0-1.3.19-2.4.58-3.29.38-.89.93-1.57 1.64-2.04s1.57-.7 2.57-.7c.6 0 1.19.11 1.79.34s1.1.55 1.5.97l-.59 1.25c-.39-.38-.83-.67-1.3-.86s-.94-.29-1.42-.29q-1.545 0-2.37 1.08c-.54.72-.82 1.79-.82 3.22v1.36h-.16c.07-.58.26-1.07.54-1.5.29-.42.66-.74 1.12-.97s.97-.34 1.54-.34c.67 0 1.27.15 1.78.46s.92.73 1.22 1.27.45 1.15.45 1.85-.16 1.35-.48 1.92-.76 1.01-1.32 1.32-1.2.47-1.93.47Zm-.1-1.34c.45 0 .84-.1 1.18-.29s.6-.46.79-.81.29-.75.29-1.21-.1-.86-.29-1.2-.46-.61-.79-.81c-.34-.2-.73-.3-1.18-.3s-.84.1-1.18.3-.61.47-.8.81-.29.74-.29 1.2.1.86.29 1.21.46.62.8.81.74.29 1.18.29m9.31 1.34q-1.95 0-3-1.5c-.7-1-1.05-2.43-1.05-4.3s.35-3.34 1.05-4.31c.7-.98 1.7-1.46 3-1.46s2.31.49 3.01 1.46c.69.98 1.04 2.41 1.04 4.3s-.35 3.31-1.05 4.31q-1.05 1.5-3 1.5m0-1.39c.82 0 1.43-.36 1.83-1.07s.6-1.83.6-3.34-.2-2.64-.6-3.34q-.6-1.05-1.83-1.05c-1.23 0-1.42.35-1.82 1.05-.41.7-.61 1.8-.61 3.32s.21 2.65.62 3.36 1.02 1.07 1.82 1.07Zm9.6 1.39q-1.95 0-3-1.5c-1.05-1.5-1.05-2.43-1.05-4.3s.35-3.34 1.05-4.31c.7-.98 1.7-1.46 3-1.46s2.31.49 3.01 1.46c.69.98 1.04 2.41 1.04 4.3s-.35 3.31-1.05 4.31q-1.05 1.5-3 1.5m0-1.39c.82 0 1.43-.36 1.83-1.07s.6-1.83.6-3.34-.2-2.64-.6-3.34q-.6-1.05-1.83-1.05c-1.23 0-1.42.35-1.82 1.05-.41.7-.61 1.8-.61 3.32s.21 2.65.62 3.36 1.02 1.07 1.82 1.07Zm10.29 1.25v-8.06h1.34l2.91 5.15 2.91-5.15h1.34v8.06h-1.42v-6.26h.35l-2.8 4.96h-.77l-2.8-4.96h.35v6.26h-1.42Zm10.94 0v-8.06h1.34l2.91 5.15 2.91-5.15h1.34v8.06h-1.42v-6.26h.35l-2.8 4.96h-.77l-2.8-4.96h.35v6.26h-1.42Zm-62.35 13.39v-3.39h-3.34v-1.18h3.34v-3.31h1.22v3.31h3.34v1.18h-3.34v3.39zm7.33.61v-1.39h2.62v-8.48h.83l-3.2 1.95v-1.6l2.83-1.76h1.2v9.89h2.46v1.39h-6.75Zm12.64.14a6.5 6.5 0 0 1-2.8-.62c-.41-.2-.78-.43-1.09-.71l.58-1.26c.51.4 1.04.69 1.58.89s1.11.3 1.71.3c.76 0 1.35-.2 1.78-.59s.65-.92.65-1.58-.21-1.23-.62-1.66c-.41-.42-.98-.63-1.7-.63-.5 0-.96.1-1.37.3q-.615.3-1.08.93h-1.15v-6.78h6.83v1.39h-5.25v4.06h-.42c.29-.41.67-.72 1.16-.94.48-.22 1.03-.34 1.64-.34.73 0 1.35.15 1.89.45s.95.71 1.24 1.25.44 1.16.44 1.89-.16 1.36-.49 1.91c-.32.55-.79.98-1.39 1.29s-1.32.46-2.14.46Zm6.4 1.83-.7-.54c.31-.33.52-.63.63-.91s.17-.57.17-.86l.35.35h-1.26v-1.9h1.9v1.3c0 .48-.08.92-.24 1.34s-.44.82-.85 1.24Zm6.72-1.83c-.77 0-1.5-.11-2.21-.34-.7-.23-1.29-.56-1.76-.98l.58-1.26c.52.41 1.06.71 1.6.9s1.12.29 1.74.29c.79 0 1.39-.17 1.8-.5s.62-.81.62-1.42-.21-1.07-.62-1.38-1.02-.47-1.82-.47h-1.74v-1.34h1.62c.68 0 1.23-.17 1.63-.52s.61-.82.61-1.42c0-.54-.19-.96-.56-1.26-.37-.29-.91-.44-1.6-.44q-1.755 0-3.09 1.23l-.56-1.26c.44-.44.99-.78 1.66-1.02s1.38-.36 2.11-.36q1.695 0 2.67.78c.65.52.98 1.23.98 2.15 0 .69-.19 1.29-.58 1.78s-.92.82-1.59.98v-.18c.8.13 1.42.45 1.85.95.43.51.65 1.14.65 1.9 0 1-.35 1.79-1.06 2.36s-1.68.86-2.92.86Zm10.46 3.31v-9.58c0-.31-.01-.63-.04-.95l-.09-.98h1.57l.16 1.82h-.18c.17-.61.52-1.09 1.03-1.44.52-.35 1.13-.53 1.85-.53s1.34.17 1.87.5.95.81 1.24 1.43.44 1.37.44 2.24-.15 1.61-.44 2.24-.71 1.11-1.24 1.44-1.16.5-1.87.5-1.31-.17-1.83-.52-.86-.82-1.03-1.42h.18V313zm3.9-4.58c.7 0 1.27-.24 1.69-.74s.63-1.22.63-2.18-.21-1.68-.63-2.17c-.42-.48-.98-.73-1.69-.73s-1.27.24-1.69.73-.63 1.21-.63 2.17.21 1.69.63 2.18.98.74 1.69.74m5.45 1.13v-1.9h1.9v1.9zm59.85-13.86c-1.4 0-2.47-.49-3.22-1.46s-1.13-2.33-1.13-4.08c0-1.3.19-2.4.58-3.29.38-.89.93-1.57 1.64-2.04s1.57-.7 2.57-.7c.6 0 1.19.11 1.79.34s1.1.55 1.5.97l-.59 1.25c-.39-.38-.83-.67-1.3-.86s-.94-.29-1.42-.29q-1.545 0-2.37 1.08c-.825 1.08-.82 1.79-.82 3.22v1.36h-.16c.07-.58.26-1.07.54-1.5.29-.42.66-.74 1.12-.97.46-.22.97-.34 1.54-.34.67 0 1.27.15 1.78.46.52.31.92.73 1.22 1.27s.45 1.15.45 1.85-.16 1.35-.48 1.92-.76 1.01-1.32 1.32-1.2.47-1.93.47Zm-.1-1.34c.45 0 .84-.1 1.18-.29s.6-.46.79-.81.29-.75.29-1.21-.1-.86-.29-1.2-.46-.61-.79-.81c-.34-.2-.73-.3-1.18-.3s-.84.1-1.18.3-.61.47-.8.81-.29.74-.29 1.2.1.86.29 1.21.46.62.8.81.74.29 1.18.29m9.32 1.34q-1.95 0-3-1.5c-.7-1-1.05-2.43-1.05-4.3s.35-3.34 1.05-4.31c.7-.98 1.7-1.46 3-1.46s2.31.49 3.01 1.46c.69.98 1.04 2.41 1.04 4.3s-.35 3.31-1.05 4.31q-1.05 1.5-3 1.5m0-1.39c.82 0 1.43-.36 1.83-1.07s.6-1.83.6-3.34-.2-2.64-.6-3.34q-.6-1.05-1.83-1.05c-1.23 0-1.42.35-1.82 1.05-.41.7-.61 1.8-.61 3.32s.21 2.65.62 3.36 1.02 1.07 1.82 1.07Zm9.6 1.39q-1.95 0-3-1.5c-.7-1-1.05-2.43-1.05-4.3s.35-3.34 1.05-4.31c.7-.98 1.7-1.46 3-1.46s2.31.49 3.01 1.46c.69.98 1.04 2.41 1.04 4.3s-.35 3.31-1.05 4.31q-1.05 1.5-3 1.5m0-1.39c.82 0 1.43-.36 1.83-1.07s.6-1.83.6-3.34-.2-2.64-.6-3.34q-.6-1.05-1.83-1.05c-1.23 0-1.42.35-1.82 1.05-.41.7-.61 1.8-.61 3.32s.21 2.65.62 3.36 1.02 1.07 1.82 1.07Zm4.93 1.25 3.66-4.54v.77l-3.47-4.29h1.94l2.45 3.15h-.58l2.45-3.15h1.92l-3.44 4.27v-.74l3.65 4.53h-1.94l-2.64-3.38h.58l-2.66 3.38zm13.68.14a6.5 6.5 0 0 1-2.8-.62c-.41-.2-.78-.43-1.09-.71l.58-1.26c.51.4 1.04.69 1.58.89s1.11.3 1.7.3c.76 0 1.35-.2 1.78-.59s.65-.92.65-1.58-.21-1.23-.62-1.66c-.41-.42-.98-.63-1.7-.63-.5 0-.96.1-1.37.3q-.615.3-1.08.93h-1.15v-6.78h6.83v1.39h-5.25v4.06h-.42c.29-.41.67-.72 1.16-.94s1.03-.34 1.64-.34q1.08 0 1.89.45c.81.45.95.71 1.24 1.25.29.53.44 1.16.44 1.89s-.16 1.36-.49 1.91a3.4 3.4 0 0 1-1.39 1.29c-.6.31-1.31.46-2.14.46Zm9.44 0q-1.95 0-3-1.5c-.7-1-1.05-2.43-1.05-4.3s.35-3.34 1.05-4.31c.7-.98 1.7-1.46 3-1.46s2.31.49 3.01 1.46c.69.98 1.04 2.41 1.04 4.3s-.35 3.31-1.05 4.31q-1.05 1.5-3 1.5m0-1.39c.82 0 1.43-.36 1.83-1.07s.6-1.83.6-3.34-.2-2.64-.6-3.34q-.6-1.05-1.83-1.05c-1.23 0-1.42.35-1.82 1.05-.41.7-.61 1.8-.61 3.32s.21 2.65.62 3.36 1.02 1.07 1.82 1.07Zm9.6 1.39q-1.95 0-3-1.5c-.7-1-1.05-2.43-1.05-4.3s.35-3.34 1.05-4.31c.7-.98 1.7-1.46 3-1.46s2.31.49 3.01 1.46c.69.98 1.04 2.41 1.04 4.3s-.35 3.31-1.05 4.31-1.7 1.5-3 1.5m0-1.39c.82 0 1.43-.36 1.83-1.07s.6-1.83.6-3.34-.2-2.64-.6-3.34q-.6-1.05-1.83-1.05c-1.23 0-1.42.35-1.82 1.05-.41.7-.61 1.8-.61 3.32s.21 2.65.62 3.36 1.02 1.07 1.82 1.07Zm10.28 1.25v-8.06h1.34l2.91 5.15 2.91-5.15h1.34v8.06h-1.42v-6.26h.35l-2.8 4.96h-.77l-2.8-4.96h.35v6.26h-1.42Zm10.95 0v-8.06h1.34l2.91 5.15 2.91-5.15h1.34v8.06h-1.42v-6.26h.35l-2.8 4.96h-.77l-2.8-4.96h.35v6.26h-1.42Zm-62.35 13.39v-3.39h-3.34v-1.18h3.34v-3.31h1.22v3.31h3.34v1.18h-3.34v3.39zm7.32.61v-1.39h2.62v-8.48h.83l-3.2 1.95v-1.6l2.83-1.76h1.2v9.89h2.46v1.39h-6.75Zm12.48.14q-1.95 0-3-1.5c-.7-1-1.05-2.43-1.05-4.3s.35-3.34 1.05-4.31c.7-.98 1.7-1.46 3-1.46s2.31.49 3.01 1.46c.69.98 1.04 2.41 1.04 4.3s-.35 3.31-1.05 4.31q-1.05 1.5-3 1.5m0-1.39c.82 0 1.43-.36 1.83-1.07s.6-1.83.6-3.34-.2-2.64-.6-3.34q-.6-1.05-1.83-1.05c-1.23 0-1.42.35-1.82 1.05-.41.7-.61 1.8-.61 3.32s.21 2.65.62 3.36 1.02 1.07 1.82 1.07Zm6.56 3.22-.7-.54c.31-.33.52-.63.63-.91s.17-.57.17-.86l.35.35h-1.26v-1.9h1.9v1.3c0 .48-.08.92-.24 1.34s-.44.82-.85 1.24Zm7.22-1.83c-1.4 0-2.47-.49-3.22-1.46s-1.13-2.33-1.13-4.08c0-1.3.19-2.4.58-3.29.38-.89.93-1.57 1.64-2.04s1.57-.7 2.57-.7c.6 0 1.19.11 1.79.34s1.1.55 1.5.97l-.59 1.25c-.39-.38-.83-.67-1.3-.86s-.94-.29-1.42-.29c-1.04 0-1.82.36-2.37 1.08s-.82 1.79-.82 3.22v1.36h-.16c.08-.58.26-1.07.54-1.5.29-.42.66-.74 1.12-.97.46-.22.97-.34 1.54-.34.67 0 1.27.15 1.78.46s.92.73 1.22 1.27.45 1.15.45 1.85-.16 1.35-.48 1.92q-.48.855-1.32 1.32c-.56.31-1.2.47-1.93.47Zm-.1-1.34c.45 0 .84-.1 1.18-.29s.6-.46.79-.81.29-.75.29-1.21-.1-.86-.29-1.2-.46-.61-.79-.81c-.34-.2-.73-.3-1.18-.3s-.84.1-1.18.3-.61.47-.8.81-.29.74-.29 1.2.1.86.29 1.21.46.62.8.81.74.29 1.18.29m10.07 4.65v-9.58c0-.31-.01-.63-.04-.95l-.09-.98h1.57l.16 1.82h-.18c.17-.61.51-1.09 1.03-1.44s1.13-.53 1.85-.53 1.34.17 1.87.5.95.81 1.24 1.43.44 1.37.44 2.24-.15 1.61-.44 2.24-.71 1.11-1.24 1.44-1.16.5-1.87.5-1.31-.17-1.83-.52-.86-.82-1.03-1.42h.18V313zm3.9-4.58c.7 0 1.27-.24 1.69-.74.42-.49.63-1.22.63-2.18s-.21-1.68-.63-2.17c-.42-.48-.98-.73-1.69-.73s-1.27.24-1.69.73-.63 1.21-.63 2.17.21 1.69.63 2.18.98.74 1.69.74m5.44 1.13v-1.9h1.9v1.9zm60.49-14 5.54-10.51v.64h-6.18v-1.41h7.68v1.23l-5.22 10.05zm12.8.14q-1.95 0-3-1.5c-.7-1-1.05-2.43-1.05-4.3s.35-3.34 1.05-4.31c.7-.98 1.7-1.46 3-1.46s2.31.49 3.01 1.46c.69.98 1.04 2.41 1.04 4.3s-.35 3.31-1.05 4.31q-1.05 1.5-3 1.5m0-1.39c.82 0 1.43-.36 1.83-1.07s.6-1.83.6-3.34-.2-2.64-.6-3.34q-.6-1.05-1.83-1.05c-1.23 0-1.42.35-1.82 1.05-.41.7-.61 1.8-.61 3.32s.21 2.65.62 3.36 1.02 1.07 1.82 1.07Zm9.6 1.39q-1.95 0-3-1.5c-.7-1-1.05-2.43-1.05-4.3s.35-3.34 1.05-4.31c.7-.98 1.7-1.46 3-1.46s2.31.49 3.01 1.46c.69.98 1.04 2.41 1.04 4.3s-.35 3.31-1.05 4.31q-1.05 1.5-3 1.5m0-1.39c.82 0 1.43-.36 1.83-1.07s.6-1.83.6-3.34-.2-2.64-.6-3.34q-.6-1.05-1.83-1.05c-1.23 0-1.42.35-1.82 1.05-.41.7-.61 1.8-.61 3.32s.21 2.65.62 3.36 1.02 1.07 1.82 1.07Zm4.93 1.25 3.66-4.54v.77l-3.47-4.29h1.94l2.45 3.15h-.58l2.45-3.15h1.92l-3.44 4.27v-.74l3.65 4.53h-1.94l-2.64-3.38h.58l-2.66 3.38zm13.9.14c-1.4 0-2.47-.49-3.22-1.46s-1.13-2.33-1.13-4.08c0-1.3.19-2.4.58-3.29.38-.89.93-1.57 1.64-2.04s1.57-.7 2.57-.7c.6 0 1.19.11 1.79.34s1.1.55 1.5.97l-.59 1.25c-.39-.38-.83-.67-1.3-.86s-.94-.29-1.42-.29q-1.545 0-2.37 1.08c-.825 1.08-.82 1.79-.82 3.22v1.36h-.16c.07-.58.26-1.07.54-1.5.29-.42.66-.74 1.12-.97.46-.22.97-.34 1.54-.34.67 0 1.27.15 1.78.46.52.31.92.73 1.22 1.27s.45 1.15.45 1.85-.16 1.35-.48 1.92-.76 1.01-1.32 1.32-1.2.47-1.93.47Zm-.1-1.34c.45 0 .84-.1 1.18-.29s.6-.46.79-.81.29-.75.29-1.21-.1-.86-.29-1.2-.46-.61-.79-.81c-.34-.2-.73-.3-1.18-.3s-.84.1-1.18.3-.61.47-.8.81-.29.74-.29 1.2.1.86.29 1.21.46.62.8.81.74.29 1.18.29m9.32 1.34q-1.95 0-3-1.5c-.7-1-1.05-2.43-1.05-4.3s.35-3.34 1.05-4.31c.7-.98 1.7-1.46 3-1.46s2.31.49 3.01 1.46c.69.98 1.04 2.41 1.04 4.3s-.35 3.31-1.05 4.31q-1.05 1.5-3 1.5m0-1.39c.82 0 1.43-.36 1.83-1.07s.6-1.83.6-3.34-.2-2.64-.6-3.34q-.6-1.05-1.83-1.05c-1.23 0-1.42.35-1.82 1.05-.41.7-.61 1.8-.61 3.32s.21 2.65.62 3.36 1.02 1.07 1.82 1.07Zm9.6 1.39q-1.95 0-3-1.5c-.7-1-1.05-2.43-1.05-4.3s.35-3.34 1.05-4.31c.7-.98 1.7-1.46 3-1.46s2.31.49 3.01 1.46c.69.98 1.04 2.41 1.04 4.3s-.35 3.31-1.05 4.31-1.7 1.5-3 1.5m0-1.39c.82 0 1.43-.36 1.83-1.07s.6-1.83.6-3.34-.2-2.64-.6-3.34q-.6-1.05-1.83-1.05c-1.23 0-1.42.35-1.82 1.05-.41.7-.61 1.8-.61 3.32s.21 2.65.62 3.36 1.02 1.07 1.82 1.07Zm10.28 1.25v-8.06h1.34l2.91 5.15 2.91-5.15h1.34v8.06h-1.42v-6.26h.35l-2.8 4.96h-.77l-2.8-4.96h.35v6.26h-1.42Zm10.95 0v-8.06h1.34l2.91 5.15 2.91-5.15h1.34v8.06h-1.42v-6.26h.35l-2.8 4.96h-.77l-2.8-4.96h.35v6.26h-1.42Zm-62.35 13.39v-3.39h-3.34v-1.18h3.34v-3.31h1.22v3.31h3.34v1.18h-3.34v3.39zm6.73.61v-1.23l3.87-4.05c.5-.52.88-1.01 1.12-1.47.25-.46.37-.93.37-1.42q0-.915-.57-1.38c-.38-.31-.93-.46-1.64-.46q-.855 0-1.59.3c-.5.2-.97.51-1.43.93l-.58-1.26c.45-.42 1.01-.75 1.67-1a6 6 0 0 1 2.12-.38c1.17 0 2.08.27 2.71.8s.95 1.3.95 2.29c0 .7-.17 1.38-.51 2.02-.34.65-.85 1.31-1.54 1.99l-3.34 3.38v-.45h5.86v1.39zm13.46.14c-1.4 0-2.47-.49-3.22-1.46s-1.13-2.33-1.13-4.08c0-1.3.19-2.4.58-3.29.38-.89.93-1.57 1.64-2.04s1.57-.7 2.57-.7c.6 0 1.19.11 1.79.34s1.1.55 1.5.97l-.59 1.25c-.39-.38-.83-.67-1.3-.86s-.94-.29-1.42-.29q-1.545 0-2.37 1.08c-.825 1.08-.82 1.79-.82 3.22v1.36h-.16c.07-.58.26-1.07.54-1.5.29-.42.66-.74 1.12-.97.46-.22.97-.34 1.54-.34.67 0 1.27.15 1.78.46.52.31.92.73 1.22 1.27s.45 1.15.45 1.85-.16 1.35-.48 1.92-.76 1.01-1.32 1.32-1.2.47-1.93.47Zm-.1-1.34c.45 0 .84-.1 1.18-.29s.6-.46.79-.81.29-.75.29-1.21-.1-.86-.29-1.2-.46-.61-.79-.81c-.34-.2-.73-.3-1.18-.3s-.84.1-1.18.3-.61.47-.8.81-.29.74-.29 1.2.1.86.29 1.21.46.62.8.81.74.29 1.18.29m6.27 3.17-.7-.54c.31-.33.52-.63.63-.91s.17-.57.17-.86l.35.35h-1.26v-1.9h1.9v1.3c0 .48-.08.92-.24 1.34s-.44.82-.85 1.24Zm6.04-1.83c-.6 0-1.19-.12-1.79-.36s-1.1-.56-1.5-.95l.59-1.26c.39.38.83.67 1.3.87s.94.3 1.42.3c1.02 0 1.81-.36 2.36-1.08s.82-1.79.82-3.22v-1.36h.16a3.2 3.2 0 0 1-.54 1.49c-.3.43-.67.75-1.13.98-.45.22-.96.34-1.53.34-.66 0-1.26-.15-1.78-.46-.53-.31-.94-.74-1.23-1.28s-.44-1.16-.44-1.84c0-.72.16-1.37.48-1.93s.76-1 1.31-1.31 1.19-.47 1.92-.47c1.41 0 2.49.48 3.24 1.45s1.13 2.33 1.13 4.09c0 1.29-.19 2.38-.57 3.28s-.92 1.58-1.64 2.05c-.71.47-1.57.7-2.58.7Zm.53-5.63c.45 0 .84-.1 1.18-.29s.61-.46.8-.81.29-.74.29-1.19-.1-.86-.29-1.21-.46-.62-.8-.82-.74-.3-1.18-.3-.84.1-1.18.3-.6.47-.79.82-.29.75-.29 1.21.1.84.29 1.19.46.62.79.81.73.29 1.18.29m10.62 8.94v-9.58c0-.31-.01-.63-.04-.95l-.09-.98h1.57l.16 1.82h-.18c.17-.61.51-1.09 1.03-1.44s1.13-.53 1.85-.53 1.34.17 1.87.5.95.81 1.24 1.43.44 1.37.44 2.24-.15 1.61-.44 2.24-.71 1.11-1.24 1.44-1.16.5-1.87.5-1.31-.17-1.83-.52-.86-.82-1.03-1.42h.18V313zm3.9-4.58c.7 0 1.27-.24 1.69-.74.42-.49.63-1.22.63-2.18s-.21-1.68-.63-2.17c-.42-.48-.98-.73-1.69-.73s-1.27.24-1.69.73-.63 1.21-.63 2.17.21 1.69.63 2.18.98.74 1.69.74m5.44 1.13v-1.9h1.9v1.9z" class="cls-2"/><text style="fill:#27625f;font-family:Mulish-SemiBold,Mulish;font-weight:600;font-size:13px" transform="translate(179.9 309)"><tspan x="0" y="0">(80 мк</tspan><tspan x="39.49" y="0" style="letter-spacing:-.02em">р</tspan><tspan x="47.36" y="0">, </tspan><tspan x="53.91" y="0" style="letter-spacing:0">р</tspan><tspan x="61.89" y="0">учка НЕ укреплённая)</tspan></text><text class="cls-3" transform="translate(353.43 254.73)"><tspan x="0" y="0">132,5 </tspan><tspan x="46.46" y="0" class="cls-16">р</tspan><tspan x="56.14" y="0">.</tspan></text><text class="cls-3" transform="translate(458.7 254.73)"><tspan x="0" y="0">121 </tspan><tspan x="33.07" y="0" class="cls-18">р</tspan><tspan x="42.75" y="0" class="cls-15">.</tspan></text><text class="cls-3" transform="translate(558.76 254.73)"><tspan x="0" y="0">108 </tspan><tspan x="33.07" y="0" class="cls-18">р</tspan><tspan x="42.75" y="0" class="cls-15">.</tspan></text><text class="cls-3" transform="translate(654.56 254.73)"><tspan x="0" y="0">101,4 </tspan><tspan x="46.46" y="0" class="cls-16">р</tspan><tspan x="56.14" y="0">.</tspan></text><text class="cls-3" transform="translate(762.99 254.73)"><tspan x="0" y="0">100 </tspan><tspan x="33.07" y="0" class="cls-18">р</tspan><tspan x="42.75" y="0" class="cls-15">.</tspan></text><text class="cls-3" transform="translate(866.49 254.73)"><tspan x="0" y="0">91 </tspan><tspan x="23.47" y="0" class="cls-13">р</tspan><tspan x="33.15" y="0">.</tspan></text><text class="cls-3" transform="translate(362.83 121.3)"><tspan x="0" y="0">52 </tspan><tspan x="23.47" y="0" class="cls-13">р</tspan><tspan x="33.15" y="0">.</tspan></text><text class="cls-1" transform="translate(352.63 75.91)"><tspan x="0" y="0">150 ш</tspan><tspan x="46.75" y="0" class="cls-12">т</tspan><tspan x="53.38" y="0">.</tspan></text><text class="cls-3" transform="translate(362.83 166.08)"><tspan x="0" y="0">83 </tspan><tspan x="23.47" y="0" class="cls-13">р</tspan><tspan x="33.15" y="0">.</tspan></text><text class="cls-3" transform="translate(358.03 210.85)"><tspan x="0" y="0">105 </tspan><tspan x="33.07" y="0" class="cls-18">р</tspan><tspan x="42.75" y="0" class="cls-15">.</tspan></text><text class="cls-3" transform="translate(457.59 121.3)"><tspan x="0" y="0">49,4 </tspan><tspan x="36.86" y="0" class="cls-13">р</tspan><tspan x="46.54" y="0" class="cls-17">.</tspan></text><text class="cls-1" transform="translate(454.09 75.91)"><tspan x="0" y="0">200 ш</tspan><tspan x="46.75" y="0" class="cls-12">т</tspan><tspan x="53.38" y="0">.</tspan></text><text class="cls-3" transform="translate(457.59 166.08)"><tspan x="0" y="0">72,8 </tspan><tspan x="36.86" y="0" class="cls-13">р</tspan><tspan x="46.54" y="0" class="cls-17">.</tspan></text><text class="cls-3" transform="translate(457.59 210.85)"><tspan x="0" y="0">97,5 </tspan><tspan x="36.86" y="0" class="cls-13">р</tspan><tspan x="46.54" y="0" class="cls-17">.</tspan></text><text class="cls-3" transform="translate(558.67 121.3)"><tspan x="0" y="0">45,5 </tspan><tspan x="36.86" y="0" class="cls-13">р</tspan><tspan x="46.54" y="0" class="cls-17">.</tspan></text><text class="cls-1" transform="translate(555.16 75.91)"><tspan x="0" y="0">300 ш</tspan><tspan x="46.75" y="0" class="cls-12">т</tspan><tspan x="53.38" y="0">.</tspan></text><text class="cls-3" transform="translate(558.67 166.08)"><tspan x="0" y="0">66,3 </tspan><tspan x="36.86" y="0" class="cls-13">р</tspan><tspan x="46.54" y="0" class="cls-17">.</tspan></text><text class="cls-3" transform="translate(558.67 210.85)"><tspan x="0" y="0">88,4 </tspan><tspan x="36.86" y="0" class="cls-13">р</tspan><tspan x="46.54" y="0" class="cls-17">.</tspan></text><text class="cls-3" transform="translate(666.41 121.3)"><tspan x="0" y="0">43 </tspan><tspan x="23.47" y="0" class="cls-13">р</tspan><tspan x="33.15" y="0">.</tspan></text><text class="cls-1" transform="translate(656.21 75.91)"><tspan x="0" y="0">400 ш</tspan><tspan x="46.75" y="0" class="cls-12">т</tspan><tspan x="53.38" y="0">.</tspan></text><text class="cls-3" transform="translate(659.72 166.08)"><tspan x="0" y="0">62,4 </tspan><tspan x="36.86" y="0" class="cls-13">р</tspan><tspan x="46.54" y="0" class="cls-17">.</tspan></text><text class="cls-3" transform="translate(666.41 210.85)"><tspan x="0" y="0">82 </tspan><tspan x="23.47" y="0" class="cls-13">р</tspan><tspan x="33.15" y="0">.</tspan></text><text class="cls-3" transform="translate(767.61 121.3)"><tspan x="0" y="0">42 </tspan><tspan x="23.47" y="0" class="cls-13">р</tspan><tspan x="33.15" y="0">.</tspan></text><text class="cls-1" transform="translate(757.41 75.91)"><tspan x="0" y="0">500 ш</tspan><tspan x="46.75" y="0" class="cls-12">т</tspan><tspan x="53.38" y="0">.</tspan></text><text class="cls-3" transform="translate(767.61 166.08)"><tspan x="0" y="0">61 </tspan><tspan x="23.47" y="0" class="cls-13">р</tspan><tspan x="33.15" y="0">.</tspan></text><text class="cls-3" transform="translate(760.91 210.85)"><tspan x="0" y="0">80,5 </tspan><tspan x="36.86" y="0" class="cls-13">р</tspan><tspan x="46.54" y="0" class="cls-17">.</tspan></text><text class="cls-3" transform="translate(860.81 121.3)"><tspan x="0" y="0">40,3 </tspan><tspan x="36.86" y="0" class="cls-13">р</tspan><tspan x="46.54" y="0" class="cls-17">.</tspan></text><text class="cls-1" transform="translate(852.5 75.91)"><tspan x="0" y="0">1000 ш</tspan><tspan x="56.35" y="0" class="cls-9">т</tspan><tspan x="62.98" y="0" class="cls-15">.</tspan></text><text class="cls-3" transform="translate(860.81 166.08)"><tspan x="0" y="0">57,2 </tspan><tspan x="36.86" y="0" class="cls-13">р</tspan><tspan x="46.54" y="0" class="cls-17">.</tspan></text><text class="cls-3" transform="translate(867.5 210.85)"><tspan x="0" y="0">74 </tspan><tspan x="23.47" y="0" class="cls-13">р</tspan><tspan x="33.15" y="0">.</tspan></text></g></svg>