<svg xmlns="http://www.w3.org/2000/svg" id="_Слой_2" data-name="Слой 2" viewBox="0 0 938.93 128.95"><defs><style>.cls-1{font-family:Mulish-Bold,Mulish;font-weight:700}.cls-1,.cls-3{fill:#27625f;font-size:16px}.cls-6{letter-spacing:0}.cls-3{font-family:Mulish-SemiBold,Mulish;font-weight:600}.cls-9{letter-spacing:-.07em}.cls-11,.cls-12,.cls-13{letter-spacing:0}.cls-14{letter-spacing:-.02em}.cls-15{letter-spacing:-.08em}</style></defs><g id="_Слой_1-2" data-name="Слой 1"><rect width="937.93" height="127.95" x=".5" y=".5" rx="10" ry="10" style="fill:#fff;stroke:#a0b6b5;stroke-miterlimit:10"/><path d="M938.43 85.8H.5m937.93-42.65H.5m208.43 85.3v-85.3m146.35 85.3v-85.3m300.52 85.3v-85.3" style="stroke:#a0b6b5;stroke-miterlimit:10;fill:none"/><text class="cls-1" transform="translate(81.4 70.92)"><tspan x="0" y="0" class="cls-12">Р</tspan><tspan x="10.69" y="0" class="cls-11">учки</tspan></text><text class="cls-1" transform="translate(16.81 27.09)"><tspan x="0" y="0" class="cls-12">Р</tspan><tspan x="10.69" y="0" class="cls-11">учки</tspan></text><text class="cls-1" transform="translate(387.23 70.92)"><tspan x="0" y="0" class="cls-15">Т</tspan><tspan x="8.66" y="0" class="cls-11">ампопечать 1 цвет/1 о</tspan><tspan x="187.85" y="0" style="letter-spacing:0">т</tspan><tspan x="195.76" y="0">тиск</tspan></text><text class="cls-1" transform="translate(239.49 70.92)"><tspan x="0" y="0">Ар</tspan><tspan x="22.14" y="0" class="cls-9">т</tspan><tspan x="28.77" y="0">. </tspan><tspan x="37.12" y="0" style="letter-spacing:0">р</tspan><tspan x="47.14" y="0">учки</tspan></text><path d="M250.79 104.54V93.26h1.65v4.93h2.11l-.4.26 3.49-5.18h1.84l-3.78 5.47-.61-.48c.69.09 1.28.32 1.76.7s.9.92 1.25 1.62l1.98 3.97h-1.79l-1.58-3.28c-.3-.62-.65-1.06-1.04-1.31-.39-.26-.89-.38-1.49-.38h-1.74v4.98h-1.65Zm13.79.14c-.71 0-1.34-.17-1.87-.5s-.95-.81-1.24-1.44-.44-1.38-.44-2.24.15-1.62.44-2.24.71-1.1 1.24-1.43c.53-.34 1.16-.5 1.87-.5s1.32.18 1.84.53.87.83 1.04 1.44h-.18l.16-1.82h1.57l-.09.98c-.03.33-.04.64-.04.95v6.13h-1.62v-1.79h.18c-.17.6-.52 1.07-1.05 1.42s-1.13.52-1.82.52Zm.4-1.26c.69 0 1.25-.25 1.67-.74s.63-1.22.63-2.18-.21-1.68-.63-2.17c-.42-.48-.98-.73-1.67-.73s-1.27.24-1.69.73-.63 1.21-.63 2.17.21 1.69.62 2.18.98.74 1.7.74m8.11 1.12v-6.77h-2.85v-1.3h7.31v1.3h-2.87v6.77h-1.6Zm8.91.14c-.71 0-1.34-.17-1.87-.5s-.95-.81-1.24-1.44-.44-1.38-.44-2.24.15-1.62.44-2.24.71-1.1 1.24-1.43 1.16-.5 1.87-.5 1.32.18 1.84.53.87.83 1.04 1.44h-.18l.16-1.82h1.57l-.09.98c-.03.33-.04.64-.04.95v6.13h-1.62v-1.79h.18c-.17.6-.52 1.07-1.05 1.42s-1.13.52-1.82.52Zm.4-1.26c.69 0 1.25-.25 1.67-.74s.63-1.22.63-2.18-.21-1.68-.63-2.17c-.42-.48-.98-.73-1.67-.73s-1.27.24-1.69.73-.63 1.21-.63 2.17.21 1.69.62 2.18.98.74 1.7.74m6.05 1.33-.54-1.28c.36-.15.67-.34.92-.57s.45-.52.59-.89c.14-.36.25-.81.31-1.34s.1-1.18.1-1.94v-2.26h6.08v8.06h-1.6v-6.8h-2.99v1.04c0 1.22-.1 2.22-.29 3.02s-.5 1.43-.92 1.9c-.42.46-.97.81-1.66 1.05Zm13.41-.07c-.8 0-1.49-.17-2.08-.5-.59-.34-1.04-.82-1.36-1.44s-.48-1.37-.48-2.23.16-1.61.48-2.23.77-1.1 1.36-1.44 1.28-.5 2.08-.5 1.5.17 2.09.5 1.05.82 1.38 1.44.49 1.37.49 2.23-.16 1.61-.49 2.23-.78 1.1-1.38 1.44-1.29.5-2.09.5m0-1.26c.7 0 1.26-.25 1.68-.74s.62-1.22.62-2.18-.21-1.68-.62-2.17c-.42-.48-.98-.73-1.68-.73s-1.25.24-1.66.73c-.42.49-.62 1.21-.62 2.17s.21 1.69.62 2.18.97.74 1.67.74Zm5.95 1.12v-8.06h5.81v1.3h-4.19v6.77h-1.62Zm-66.26 18.88c-.47-.79-.85-1.57-1.15-2.33s-.52-1.54-.66-2.32-.21-1.6-.21-2.44.07-1.67.21-2.45.36-1.55.66-2.3c.3-.76.68-1.53 1.15-2.32h1.31c-.55 1.21-.97 2.39-1.24 3.56s-.41 2.34-.41 3.51.14 2.34.41 3.51.68 2.36 1.24 3.58zm9.9-.8v-2.08h-6.98v-8.06h1.6v6.8h3.86v-6.8h1.58v6.8h1.3v3.34zm6.77-1.94c-1.3 0-2.32-.37-3.07-1.1s-1.12-1.75-1.12-3.06c0-.84.16-1.58.49-2.21s.78-1.12 1.36-1.46c.58-.35 1.26-.52 2.02-.52s1.39.16 1.9.48q.765.48 1.17 1.35c.27.58.4 1.27.4 2.06v.51h-6.08v-.93h4.98l-.27.21q0-1.2-.54-1.86c-.36-.44-.87-.66-1.54-.66-.75 0-1.32.26-1.73.78s-.61 1.23-.61 2.14v.16c0 .95.23 1.66.7 2.14s1.12.72 1.98.72c.47 0 .91-.07 1.32-.2s.8-.35 1.18-.66l.53 1.1c-.37.33-.83.58-1.36.76s-1.1.26-1.7.26Zm5.14-.14v-8.06h1.6v3.28h4.08v-3.28h1.6v8.06h-1.6v-3.52h-4.08v3.52zm12.86.14c-.71 0-1.34-.17-1.87-.5s-.95-.81-1.24-1.44-.44-1.38-.44-2.24.15-1.62.44-2.24.71-1.1 1.24-1.43 1.16-.5 1.87-.5 1.32.18 1.84.53.87.83 1.04 1.44h-.18l.16-1.82h1.57l-.09.98c-.03.33-.04.64-.04.95v6.13h-1.62v-1.79h.18c-.17.6-.52 1.07-1.05 1.42s-1.13.52-1.82.52Zm.4-1.26c.69 0 1.25-.25 1.67-.74s.63-1.22.63-2.18-.21-1.68-.63-2.17c-.42-.48-.98-.73-1.67-.73s-1.27.24-1.69.73-.63 1.21-.63 2.17.21 1.69.62 2.18.98.74 1.7.74m10.66 1.12v-8.06h4.06c.97 0 1.69.18 2.15.55s.7.89.7 1.56c0 .52-.17.96-.52 1.3s-.8.55-1.37.62v-.21c.67.03 1.2.23 1.58.59s.58.83.58 1.41c0 .69-.26 1.24-.78 1.64s-1.25.6-2.2.6h-4.21Zm1.52-4.62h2.38c.48 0 .85-.11 1.12-.32s.4-.51.4-.88-.13-.68-.4-.89-.64-.31-1.12-.31h-2.38zm0 3.58h2.56q.78 0 1.2-.33c.28-.22.42-.54.42-.95s-.14-.73-.42-.94-.68-.32-1.2-.32h-2.56zm11.95 1.04v-11.28h4.78c1.21 0 2.13.29 2.78.87s.97 1.38.97 2.41-.32 1.83-.97 2.42c-.64.59-1.57.88-2.78.88h-3.12v4.7zm1.66-6.03h2.94q1.14 0 1.71-.51c.38-.34.57-.83.57-1.46s-.19-1.1-.57-1.44-.96-.51-1.71-.51h-2.94zm12.67 6.17c-.91 0-1.73-.11-2.46-.34-.74-.23-1.38-.56-1.92-.98l.56-1.31c.36.28.74.51 1.13.69s.8.32 1.25.41.93.14 1.45.14c.9 0 1.55-.16 1.98-.48q.63-.48.63-1.26c0-.45-.15-.79-.44-1.04s-.81-.44-1.54-.59l-1.74-.35c-1.04-.21-1.8-.56-2.31-1.05s-.76-1.15-.76-1.99c0-.68.18-1.28.54-1.79s.87-.91 1.51-1.18c.64-.28 1.4-.42 2.26-.42.8 0 1.54.11 2.21.34s1.24.57 1.7 1.02l-.54 1.26c-.48-.42-.99-.72-1.54-.92q-.81-.3-1.86-.3c-.82 0-1.46.17-1.93.51-.46.34-.7.81-.7 1.39 0 .47.15.84.44 1.1s.78.47 1.46.61l1.74.34c1.08.22 1.87.57 2.38 1.03s.77 1.1.77 1.91c0 .65-.17 1.22-.52 1.71s-.84.87-1.48 1.14-1.4.41-2.27.41Zm6.71 2.74h-1.31c.55-1.21.97-2.39 1.25-3.57s.42-2.35.42-3.52-.14-2.33-.42-3.5-.69-2.36-1.25-3.57h1.31c.48.79.87 1.56 1.17 2.32s.51 1.53.65 2.31c.13.78.2 1.6.2 2.44s-.07 1.67-.2 2.46c-.13.78-.35 1.55-.65 2.31s-.69 1.53-1.17 2.32" style="fill:#27625f;stroke-width:0"/><text class="cls-1" transform="translate(687.18 70.92)"><tspan x="0" y="0">Уф-печать и шелкография</tspan></text><text class="cls-3" transform="translate(369.91 104.41)"><tspan x="0" y="0">При партии до 250 ш</tspan><tspan x="166.8" y="0" class="cls-9">т</tspan><tspan x="173.17" y="0">. - 2540 </tspan><tspan x="235.1" y="0" class="cls-6">р</tspan><tspan x="244.92" y="0">у</tspan><tspan x="253.69" y="0" class="cls-14">б</tspan><tspan x="262.92" y="0" class="cls-13">.</tspan></text><text class="cls-3" transform="translate(369.91 121.81)"><tspan x="0" y="0">При партии до 500 ш</tspan><tspan x="166.8" y="0" class="cls-9">т</tspan><tspan x="173.17" y="0">. - 4080 </tspan><tspan x="235.1" y="0" class="cls-6">р</tspan><tspan x="244.92" y="0">у</tspan><tspan x="253.69" y="0" class="cls-14">б</tspan><tspan x="262.92" y="0" class="cls-13">.</tspan></text><text class="cls-3" transform="translate(680.61 112.35)"><tspan x="0" y="0">(цену </tspan><tspan x="46.99" y="0" style="letter-spacing:0">у</tspan><tspan x="55.86" y="0" style="letter-spacing:0">т</tspan><tspan x="63.29" y="0">очнять у менеджера)</tspan></text><text class="cls-1" transform="translate(53.11 115.13)"><tspan x="0" y="0" class="cls-15">Т</tspan><tspan x="8.66" y="0">ираж 50 ш</tspan><tspan x="93.9" y="0" class="cls-9">т</tspan><tspan x="100.53" y="0">.</tspan></text></g></svg>