<svg xmlns="http://www.w3.org/2000/svg" data-name="Слой 2" viewBox="0 0 938.93 128.95"><g data-name="Слой 1"><rect width="937.93" height="127.95" x=".5" y=".5" rx="10" ry="10" style="fill:#fff;stroke:#a0b6b5;stroke-miterlimit:10"/><path d="M938.43 85.8H.5m937.93-42.65H.5m208.43 85.3v-85.3m146.35 85.3v-85.3m300.52 85.3v-85.3" style="stroke:#a0b6b5;stroke-miterlimit:10;fill:none"/><path d="M82.65 70.92V59.64h5.01c1.24 0 2.18.3 2.83.9s.98 1.42.98 2.46-.33 1.86-.98 2.46-1.59.91-2.83.91h-2.94v4.54h-2.06Zm2.06-6.18h2.7c.68 0 1.19-.15 1.54-.46q.51-.45.51-1.29c0-.84-.17-.98-.51-1.29-.34-.3-.85-.46-1.54-.46h-2.7v3.49Zm8.42 9.81-.46-1.58c.5-.11.92-.23 1.26-.37s.62-.32.85-.54c.22-.22.41-.51.56-.86l.4-.94-.05.78-3.52-8.19h2.13l2.53 6.3h-.46l2.54-6.3h2.02l-3.68 8.53c-.24.58-.51 1.05-.8 1.43s-.6.68-.93.91-.69.41-1.09.54-.83.23-1.3.3Zm14.15-3.63v-2.94a4.45 4.45 0 0 1-1.94.43c-1.18 0-2.07-.28-2.65-.85s-.87-1.41-.87-2.53v-2.19h1.98v2.02c0 .68.15 1.18.45 1.48s.78.46 1.44.46c.31 0 .59-.03.83-.1s.48-.17.7-.3v-3.55h1.98v8.08h-1.94Zm4.2 0v-8.08h1.98v3.17h1.22l2.37-3.17h2.14l-2.98 4.03-.43-.62c.3.03.56.11.79.24q.345.195.66.54c.21.23.41.52.62.87l1.7 3.02h-2.13l-1.38-2.43c-.14-.25-.28-.44-.42-.58s-.29-.23-.46-.29c-.17-.05-.38-.08-.62-.08h-1.07v3.38h-1.98Zm9.12 0v-8.08h1.81v6.11h-.48l4.59-6.11h1.65v8.08h-1.81v-6.13h.5l-4.61 6.13zM18.06 27.09V15.81h5.01c1.24 0 2.18.3 2.83.9s.98 1.42.98 2.46-.33 1.86-.98 2.46-1.59.91-2.83.91h-2.94v4.54h-2.06Zm2.06-6.18h2.7c.68 0 1.2-.15 1.54-.46q.51-.45.51-1.29c0-.84-.17-.98-.51-1.29s-.85-.46-1.54-.46h-2.7v3.49Zm8.42 9.81-.46-1.58c.5-.11.92-.23 1.26-.37s.62-.32.85-.54c.22-.22.41-.51.56-.86l.4-.94-.05.78-3.52-8.19h2.13l2.53 6.3h-.46l2.54-6.3h2.02l-3.68 8.53c-.25.58-.51 1.05-.8 1.43s-.6.68-.93.91-.69.41-1.09.54-.83.23-1.29.3Zm14.14-3.63v-2.94a4.45 4.45 0 0 1-1.94.43c-1.18 0-2.07-.28-2.65-.85s-.87-1.41-.87-2.53v-2.19h1.98v2.02c0 .68.15 1.18.45 1.48s.78.46 1.44.46c.31 0 .59-.03.83-.1.25-.06.48-.17.71-.3v-3.55h1.98v8.08h-1.94Zm4.21 0v-8.08h1.98v3.17h1.21l2.37-3.17h2.14l-2.97 4.03-.43-.62c.3.03.56.11.79.24s.45.31.66.54.41.52.62.87l1.7 3.02h-2.13l-1.38-2.43c-.14-.25-.28-.44-.42-.58s-.29-.23-.46-.29c-.17-.05-.38-.08-.62-.08h-1.07v3.38H46.9Zm9.12 0v-8.08h1.81v6.11h-.48l4.59-6.11h1.65v8.08h-1.81v-6.13h.5l-4.61 6.13zm335.13 43.83v-9.58h-3.73v-1.7h9.52v1.7h-3.73v9.58zm9.07.16c-.7 0-1.32-.17-1.86-.5-.53-.34-.95-.82-1.25-1.45s-.45-1.38-.45-2.26.15-1.62.45-2.25.71-1.1 1.25-1.44 1.15-.5 1.86-.5 1.28.17 1.8.5c.52.34.86.79 1.03 1.35h-.18l.18-1.7h1.92l-.09 1.01c-.03.34-.04.68-.04 1.01v6.06h-1.98l-.02-1.66h.19c-.17.55-.52 1-1.04 1.33s-1.11.5-1.78.5Zm.56-1.54c.63 0 1.14-.22 1.52-.66s.58-1.11.58-2.01-.19-1.56-.58-2c-.38-.44-.89-.66-1.52-.66s-1.14.22-1.52.66-.58 1.1-.58 2 .19 1.57.57 2.01q.57.66 1.53.66m6.4 1.38v-8.08h1.66l2.78 4.83 2.78-4.83h1.66v8.08h-1.76v-5.84h.37l-2.59 4.53h-.93l-2.59-4.53h.37v5.84h-1.76Zm11.17 0v-8.08h7.57v8.08h-1.98v-6.54h-3.6v6.54h-1.98Zm13.55.16q-1.245 0-2.16-.51c-.61-.34-1.08-.83-1.42-1.46s-.5-1.38-.5-2.24.17-1.61.5-2.23.81-1.11 1.42-1.45q.915-.51 2.16-.51c1.245 0 1.55.17 2.17.51s1.09.82 1.42 1.45.5 1.37.5 2.23-.17 1.61-.5 2.24c-.34.63-.81 1.11-1.42 1.46s-1.34.51-2.17.51m0-1.54q.945 0 1.5-.66c.37-.44.56-1.11.56-2.01s-.19-1.56-.56-2-.88-.66-1.5-.66-1.13.22-1.5.66-.56 1.1-.56 2 .19 1.57.56 2.01q.555.66 1.5.66m5.98 1.38v-8.08h7.57v8.08h-1.98v-6.54h-3.6v6.54h-1.98Zm13.81.16c-1.36 0-2.42-.37-3.18-1.12-.77-.75-1.15-1.77-1.15-3.07 0-.84.17-1.58.5-2.21q.495-.945 1.38-1.47c.885-.525 1.28-.53 2.07-.53s1.43.17 1.95.5.92.79 1.19 1.39.41 1.3.41 2.1v.53h-5.89v-1.06h4.46l-.27.22c0-.75-.16-1.32-.47-1.71-.32-.39-.77-.59-1.37-.59-.66 0-1.17.23-1.53.7s-.54 1.13-.54 1.97v.21c0 .87.22 1.53.65 1.96s1.04.65 1.83.65q.69 0 1.29-.18t1.14-.6l.59 1.34q-.57.465-1.38.72c-.53.17-1.1.26-1.7.26Zm10.16-.16v-2.94a4.45 4.45 0 0 1-1.94.43c-1.18 0-2.07-.28-2.65-.85s-.87-1.41-.87-2.53v-2.19h1.98v2.02c0 .68.15 1.18.45 1.48s.78.46 1.44.46c.31 0 .59-.03.83-.1s.48-.17.7-.3v-3.55h1.98v8.08h-1.94Zm7.39.16c-.7 0-1.32-.17-1.86-.5-.53-.34-.95-.82-1.25-1.45s-.45-1.38-.45-2.26.15-1.62.45-2.25c.3-.62.71-1.1 1.25-1.44s1.15-.5 1.86-.5 1.28.17 1.8.5.86.79 1.03 1.35h-.18l.18-1.7h1.92l-.09 1.01c-.03.34-.04.68-.04 1.01v6.06h-1.98l-.02-1.66h.19c-.17.55-.52 1-1.04 1.33s-1.12.5-1.78.5Zm.56-1.54c.63 0 1.14-.22 1.52-.66s.58-1.11.58-2.01-.19-1.56-.58-2-.89-.66-1.52-.66-1.14.22-1.52.66-.58 1.1-.58 2 .19 1.57.57 2.01q.57.66 1.53.66m8.15 1.38v-6.51h-2.77v-1.57h7.54v1.57h-2.78v6.51h-1.98Zm6 0v-8.08h1.98v2.7h2.13c1.08 0 1.89.23 2.43.68s.82 1.11.82 1.96c0 .55-.13 1.04-.38 1.45s-.63.73-1.11.95-1.07.34-1.75.34h-4.11Zm1.98-1.31h1.86c.54 0 .96-.11 1.25-.34s.43-.58.43-1.05-.14-.81-.42-1.03q-.42-.33-1.26-.33h-1.86zm12.06 1.31v-1.71h2.59v-7.84h.99l-3.33 1.98V61.4l2.93-1.76h1.47v9.57h2.43v1.71h-7.09ZM518.34 73v-2.08h-7.01v-8.08h1.98v6.54h3.42v-6.54h1.97v6.54h1.31V73h-1.68Zm3.15-2.08v-8.08h4.3c1.01 0 1.75.18 2.22.55s.7.89.7 1.56c0 .51-.17.94-.51 1.28s-.79.55-1.36.64v-.22c.69.04 1.23.25 1.6.61s.56.83.56 1.41c0 .69-.27 1.24-.8 1.65s-1.29.61-2.27.61h-4.45Zm1.86-4.74h2.21c.43 0 .76-.09.99-.28s.35-.45.35-.79-.12-.6-.35-.78q-.36-.27-.99-.27h-2.21v2.13Zm0 3.5h2.38c.47 0 .83-.1 1.08-.29s.38-.47.38-.85-.13-.66-.38-.85-.61-.29-1.08-.29h-2.38v2.27Zm11.37 1.4c-1.35 0-2.42-.37-3.18-1.12-.77-.75-1.15-1.77-1.15-3.07 0-.84.17-1.58.5-2.21q.495-.945 1.38-1.47c.59-.35 1.28-.53 2.07-.53s1.43.17 1.95.5.92.79 1.19 1.39.41 1.3.41 2.1v.53H532v-1.06h4.46l-.27.22c0-.75-.16-1.32-.47-1.71s-.77-.59-1.37-.59c-.66 0-1.17.23-1.53.7s-.54 1.13-.54 1.97v.21c0 .87.22 1.53.65 1.96s1.04.65 1.83.65q.69 0 1.29-.18t1.14-.6l.59 1.34q-.57.465-1.38.72c-.53.17-1.1.26-1.7.26Zm6.77-.16v-6.51h-2.77v-1.57h7.54v1.57h-2.78v6.51h-1.98Zm6.11.94h-1.65l4.21-12.98h1.65zm5.58-.94v-1.71h2.59v-7.84h.99l-3.33 1.98V61.4l2.93-1.76h1.47v9.57h2.43v1.71h-7.09Zm17.06.16q-1.245 0-2.16-.51c-.61-.34-1.08-.83-1.42-1.46s-.5-1.38-.5-2.24.17-1.61.5-2.23c.34-.62.81-1.11 1.42-1.45q.915-.51 2.16-.51c1.245 0 1.55.17 2.17.51s1.09.82 1.42 1.45c.34.62.5 1.37.5 2.23s-.17 1.61-.5 2.24c-.34.63-.81 1.11-1.42 1.46s-1.34.51-2.17.51m0-1.54q.945 0 1.5-.66c.37-.44.56-1.11.56-2.01s-.19-1.56-.56-2q-.555-.66-1.5-.66c-.945 0-1.13.22-1.5.66s-.56 1.1-.56 2 .19 1.57.56 2.01.88.66 1.5.66m7.73 1.38v-6.51h-2.77v-1.57h7.54v1.57h-2.78v6.51h-1.98Zm7.9 0v-6.51h-2.77v-1.57h7.54v1.57h-2.78v6.51h-1.98Zm6 0v-8.08h1.81v6.11h-.48l4.59-6.11h1.65v8.08h-1.81v-6.13h.5l-4.61 6.13zm13.62.16c-.83 0-1.56-.17-2.18-.51s-1.11-.83-1.45-1.46-.51-1.39-.51-2.26.17-1.62.52-2.24.83-1.09 1.45-1.42 1.34-.5 2.18-.5c.53 0 1.05.08 1.56.25s.92.4 1.24.71l-.61 1.39c-.29-.27-.61-.47-.97-.6s-.71-.2-1.05-.2c-.71 0-1.27.22-1.67.67q-.6.675-.6 1.95c0 1.275.2 1.51.6 1.97s.96.69 1.67.69c.33 0 .67-.06 1.03-.19s.69-.33.98-.59l.61 1.38q-.495.465-1.26.72c-.51.17-1.02.26-1.54.26Zm4.51-.16v-8.08h1.98v3.17h1.22l2.37-3.17h2.14l-2.98 4.03-.43-.62c.3.03.56.11.79.24q.345.195.66.54c.315.345.41.52.62.87l1.7 3.02h-2.13l-1.38-2.43c-.14-.25-.28-.44-.42-.58s-.29-.23-.46-.29c-.17-.05-.38-.08-.62-.08h-1.07v3.38h-1.98Zm-370.51 0 5.1-11.28h1.73l5.17 11.28h-2.1l-1.38-3.17.83.56h-6.77l.86-.56-1.38 3.17h-2.08Zm5.95-9.07-2.26 5.34-.42-.5h5.38l-.34.5-2.3-5.34zm7.25 12.53v-9.52c0-.33-.01-.67-.03-1.01s-.05-.68-.1-1.01h1.94l.18 1.7h-.18q.24-.855 1.02-1.35c.78-.495 1.12-.5 1.8-.5s1.34.17 1.87.5c.53.34.95.82 1.25 1.44s.45 1.37.45 2.25-.15 1.63-.45 2.26-.71 1.11-1.25 1.45c-.53.34-1.16.5-1.87.5-.67 0-1.26-.17-1.78-.5-.51-.33-.85-.77-1.02-1.33h.18v5.12h-2Zm4.06-4.83c.64 0 1.15-.22 1.54-.66.38-.44.58-1.11.58-2.01s-.19-1.56-.58-2-.9-.66-1.54-.66-1.14.22-1.52.66-.58 1.1-.58 2 .19 1.57.58 2.01c.38.44.89.66 1.52.66m7.77 1.37v-6.51h-2.77v-1.57h7.54v1.57h-2.78v6.51h-1.98Zm4.6 0V68.7h2.24v2.22zm8.69 3.46v-9.52c0-.33-.01-.67-.03-1.01s-.05-.68-.1-1.01h1.94l.18 1.7h-.18q.24-.855 1.02-1.35c.52-.34 1.12-.5 1.8-.5s1.34.17 1.87.5c.53.34.95.82 1.25 1.44s.45 1.37.45 2.25-.15 1.63-.45 2.26-.71 1.11-1.25 1.45c-.53.34-1.16.5-1.87.5-.67 0-1.26-.17-1.78-.5s-.85-.77-1.02-1.33h.18v5.12h-2Zm4.06-4.83c.64 0 1.15-.22 1.54-.66.38-.44.58-1.11.58-2.01s-.19-1.56-.58-2c-.38-.44-.9-.66-1.54-.66s-1.14.22-1.52.66-.58 1.1-.58 2 .19 1.57.58 2.01c.38.44.89.66 1.52.66m5.8 5-.46-1.58c.5-.11.92-.23 1.26-.37s.62-.32.85-.54c.22-.22.41-.51.56-.86l.4-.94-.05.78-3.52-8.19h2.13l2.53 6.3h-.46l2.54-6.3h2.02l-3.68 8.53c-.25.58-.51 1.05-.8 1.43s-.6.68-.93.91-.69.41-1.09.54-.83.23-1.29.3Zm14.14-3.63v-2.94a4.45 4.45 0 0 1-1.94.43c-1.18 0-2.07-.28-2.65-.85s-.87-1.41-.87-2.53v-2.19h1.98v2.02c0 .68.15 1.18.45 1.48s.78.46 1.44.46c.31 0 .59-.03.83-.1.25-.06.48-.17.71-.3v-3.55h1.98v8.08h-1.94Zm4.21 0v-8.08H308v3.17h1.21l2.37-3.17h2.14l-2.97 4.03-.43-.62c.3.03.56.11.79.24s.45.31.66.54.41.52.62.87l1.7 3.02h-2.13l-1.38-2.43c-.14-.25-.28-.44-.42-.58s-.29-.23-.46-.29-.38-.08-.62-.08h-1.07v3.38h-1.98Zm9.12 0v-8.08h1.81v6.11h-.48l4.59-6.11h1.65v8.08h-1.81v-6.13h.49l-4.61 6.13h-1.65Zm-64.35 33.62V93.26h1.65v4.93h2.11l-.4.26 3.49-5.18h1.84l-3.78 5.47-.61-.48c.69.09 1.28.32 1.76.7s.9.92 1.25 1.62l1.98 3.97h-1.79l-1.58-3.28c-.3-.62-.65-1.06-1.04-1.31-.39-.26-.89-.38-1.49-.38h-1.74v4.98h-1.65Zm13.79.14c-.71 0-1.34-.17-1.87-.5s-.95-.81-1.24-1.44-.44-1.38-.44-2.24.15-1.62.44-2.24.71-1.1 1.24-1.43c.53-.34 1.16-.5 1.87-.5s1.32.18 1.84.53.87.83 1.04 1.44h-.18l.16-1.82h1.57l-.09.98c-.03.33-.04.64-.04.95v6.13h-1.62v-1.79h.18c-.17.6-.52 1.07-1.05 1.42s-1.13.52-1.82.52Zm.4-1.26c.69 0 1.25-.25 1.67-.74s.63-1.22.63-2.18-.21-1.68-.63-2.17c-.42-.48-.98-.73-1.67-.73s-1.27.24-1.69.73-.63 1.21-.63 2.17.21 1.69.62 2.18.98.74 1.7.74m8.11 1.12v-6.77h-2.85v-1.3h7.31v1.3h-2.87v6.77h-1.6Zm8.91.14c-.71 0-1.34-.17-1.87-.5s-.95-.81-1.24-1.44-.44-1.38-.44-2.24.15-1.62.44-2.24.71-1.1 1.24-1.43 1.16-.5 1.87-.5 1.32.18 1.84.53.87.83 1.04 1.44h-.18l.16-1.82h1.57l-.09.98c-.03.33-.04.64-.04.95v6.13h-1.62v-1.79h.18c-.17.6-.52 1.07-1.05 1.42s-1.13.52-1.82.52Zm.4-1.26c.69 0 1.25-.25 1.67-.74s.63-1.22.63-2.18-.21-1.68-.63-2.17c-.42-.48-.98-.73-1.67-.73s-1.27.24-1.69.73-.63 1.21-.63 2.17.21 1.69.62 2.18.98.74 1.7.74m6.05 1.33-.54-1.28c.36-.15.67-.34.92-.57s.45-.52.59-.89c.14-.36.25-.81.31-1.34s.1-1.18.1-1.94v-2.26h6.08v8.06h-1.6v-6.8h-2.99v1.04c0 1.22-.1 2.22-.29 3.02s-.5 1.43-.92 1.9c-.42.46-.97.81-1.66 1.05Zm13.41-.07c-.8 0-1.49-.17-2.08-.5-.59-.34-1.04-.82-1.36-1.44s-.48-1.37-.48-2.23.16-1.61.48-2.23.77-1.1 1.36-1.44 1.28-.5 2.08-.5 1.5.17 2.09.5 1.05.82 1.38 1.44.49 1.37.49 2.23-.16 1.61-.49 2.23-.78 1.1-1.38 1.44-1.29.5-2.09.5m0-1.26c.7 0 1.26-.25 1.68-.74s.62-1.22.62-2.18-.21-1.68-.62-2.17c-.42-.48-.98-.73-1.68-.73s-1.25.24-1.66.73c-.42.49-.62 1.21-.62 2.17s.21 1.69.62 2.18.97.74 1.67.74Zm5.95 1.12v-8.06h5.81v1.3h-4.19v6.77h-1.62Zm-66.26 18.88c-.47-.79-.85-1.57-1.15-2.33s-.52-1.54-.66-2.32-.21-1.6-.21-2.44.07-1.67.21-2.45.36-1.55.66-2.3c.3-.76.68-1.53 1.15-2.32h1.31c-.55 1.21-.97 2.39-1.24 3.56s-.41 2.34-.41 3.51.14 2.34.41 3.51.68 2.36 1.24 3.58zm9.9-.8v-2.08h-6.98v-8.06h1.6v6.8h3.86v-6.8h1.58v6.8h1.3v3.34zm6.77-1.94c-1.3 0-2.32-.37-3.07-1.1s-1.12-1.75-1.12-3.06c0-.84.16-1.58.49-2.21s.78-1.12 1.36-1.46c.58-.35 1.26-.52 2.02-.52s1.39.16 1.9.48q.765.48 1.17 1.35c.27.58.4 1.27.4 2.06v.51h-6.08v-.93h4.98l-.27.21q0-1.2-.54-1.86c-.36-.44-.87-.66-1.54-.66-.75 0-1.32.26-1.73.78s-.61 1.23-.61 2.14v.16c0 .95.23 1.66.7 2.14s1.12.72 1.98.72c.47 0 .91-.07 1.32-.2s.8-.35 1.18-.66l.53 1.1c-.37.33-.83.58-1.36.76s-1.1.26-1.7.26Zm5.14-.14v-8.06h1.6v3.28h4.08v-3.28h1.6v8.06h-1.6v-3.52h-4.08v3.52zm12.86.14c-.71 0-1.34-.17-1.87-.5s-.95-.81-1.24-1.44-.44-1.38-.44-2.24.15-1.62.44-2.24.71-1.1 1.24-1.43 1.16-.5 1.87-.5 1.32.18 1.84.53.87.83 1.04 1.44h-.18l.16-1.82h1.57l-.09.98c-.03.33-.04.64-.04.95v6.13h-1.62v-1.79h.18c-.17.6-.52 1.07-1.05 1.42s-1.13.52-1.82.52Zm.4-1.26c.69 0 1.25-.25 1.67-.74s.63-1.22.63-2.18-.21-1.68-.63-2.17c-.42-.48-.98-.73-1.67-.73s-1.27.24-1.69.73-.63 1.21-.63 2.17.21 1.69.62 2.18.98.74 1.7.74m10.66 1.12v-8.06h4.06c.97 0 1.69.18 2.15.55s.7.89.7 1.56c0 .52-.17.96-.52 1.3s-.8.55-1.37.62v-.21c.67.03 1.2.23 1.58.59s.58.83.58 1.41c0 .69-.26 1.24-.78 1.64s-1.25.6-2.2.6h-4.21Zm1.52-4.62h2.38c.48 0 .85-.11 1.12-.32s.4-.51.4-.88-.13-.68-.4-.89-.64-.31-1.12-.31h-2.38zm0 3.58h2.56q.78 0 1.2-.33c.28-.22.42-.54.42-.95s-.14-.73-.42-.94-.68-.32-1.2-.32h-2.56zm11.95 1.04v-11.28h4.78c1.21 0 2.13.29 2.78.87s.97 1.38.97 2.41-.32 1.83-.97 2.42c-.64.59-1.57.88-2.78.88h-3.12v4.7zm1.66-6.03h2.94q1.14 0 1.71-.51c.38-.34.57-.83.57-1.46s-.19-1.1-.57-1.44-.96-.51-1.71-.51h-2.94zm12.67 6.17c-.91 0-1.73-.11-2.46-.34-.74-.23-1.38-.56-1.92-.98l.56-1.31c.36.28.74.51 1.13.69s.8.32 1.25.41.93.14 1.45.14c.9 0 1.55-.16 1.98-.48q.63-.48.63-1.26c0-.45-.15-.79-.44-1.04s-.81-.44-1.54-.59l-1.74-.35c-1.04-.21-1.8-.56-2.31-1.05s-.76-1.15-.76-1.99c0-.68.18-1.28.54-1.79s.87-.91 1.51-1.18c.64-.28 1.4-.42 2.26-.42.8 0 1.54.11 2.21.34s1.24.57 1.7 1.02l-.54 1.26c-.48-.42-.99-.72-1.54-.92q-.81-.3-1.86-.3c-.82 0-1.46.17-1.93.51-.46.34-.7.81-.7 1.39 0 .47.15.84.44 1.1s.78.47 1.46.61l1.74.34c1.08.22 1.87.57 2.38 1.03s.77 1.1.77 1.91c0 .65-.17 1.22-.52 1.71s-.84.87-1.48 1.14-1.4.41-2.27.41Zm6.71 2.74h-1.31c.55-1.21.97-2.39 1.25-3.57s.42-2.35.42-3.52-.14-2.33-.42-3.5-.69-2.36-1.25-3.57h1.31c.48.79.87 1.56 1.17 2.32s.51 1.53.65 2.31c.13.78.2 1.6.2 2.44s-.07 1.67-.2 2.46c-.13.78-.35 1.55-.65 2.31s-.69 1.53-1.17 2.32m368.37-52.5 1.98-3.76.03.64-5.22-8.16h2.21l4.02 6.37h-.4l3.34-6.37h2.13l-5.95 11.28zm13.77 3.46v-5.02h.18c-.17.55-.46.98-.86 1.28s-.88.45-1.45.45-1.11-.17-1.56-.52-.81-.83-1.06-1.46c-.26-.63-.38-1.37-.38-2.22s.12-1.61.38-2.23c.25-.62.6-1.11 1.06-1.45s.98-.51 1.58-.51c.57 0 1.05.15 1.45.45s.68.72.86 1.26h-.18v-5.25h1.98v5.25h-.18c.17-.54.46-.97.86-1.26.4-.3.88-.45 1.45-.45.6 0 1.12.17 1.58.51.45.34.8.82 1.06 1.45.25.62.38 1.37.38 2.23s-.13 1.59-.38 2.22-.6 1.12-1.06 1.46c-.45.35-.98.52-1.58.52-.55 0-1.03-.15-1.43-.45s-.69-.73-.87-1.28h.18v5.02h-1.98Zm-1.55-4.8c.49 0 .88-.22 1.16-.67s.42-1.12.42-2.03-.14-1.57-.43-2.02-.67-.68-1.15-.68-.88.23-1.17.68-.43 1.13-.43 2.02.14 1.58.43 2.03.68.67 1.17.67m5.09 0c.49 0 .88-.22 1.17-.67s.43-1.12.43-2.03-.15-1.57-.44-2.02-.68-.68-1.16-.68-.88.23-1.16.68-.42 1.13-.42 2.02.14 1.58.42 2.03.67.67 1.16.67m5.41-2.28v-1.58h4.86v1.58zm7.07 3.62v-8.08h7.57v8.08h-1.98v-6.54h-3.6v6.54h-1.98Zm13.8.16c-1.35 0-2.42-.37-3.18-1.12-.77-.75-1.15-1.77-1.15-3.07 0-.84.17-1.58.5-2.21q.495-.945 1.38-1.47c.59-.35 1.28-.53 2.07-.53s1.43.17 1.95.5.92.79 1.19 1.39.41 1.3.41 2.1v.53h-5.89v-1.06h4.46l-.27.22c0-.75-.16-1.32-.47-1.71s-.77-.59-1.37-.59c-.66 0-1.17.23-1.53.7s-.54 1.13-.54 1.97v.21c0 .87.22 1.53.65 1.96s1.04.65 1.83.65q.69 0 1.29-.18t1.14-.6l.59 1.34q-.57.465-1.38.72c-.53.17-1.1.26-1.7.26Zm10.17-.16v-2.94a4.45 4.45 0 0 1-1.94.43c-1.18 0-2.07-.28-2.65-.85s-.87-1.41-.87-2.53v-2.19h1.98v2.02c0 .68.15 1.18.45 1.48s.78.46 1.44.46c.31 0 .59-.03.83-.1s.48-.17.7-.3v-3.55h1.98v8.08h-1.94Zm7.39.16c-.7 0-1.32-.17-1.86-.5-.53-.34-.95-.82-1.25-1.45s-.45-1.38-.45-2.26.15-1.62.45-2.25.71-1.1 1.25-1.44 1.15-.5 1.86-.5 1.28.17 1.8.5c.52.34.86.79 1.03 1.35h-.18l.18-1.7h1.92l-.09 1.01c-.03.34-.04.68-.04 1.01v6.06h-1.98l-.02-1.66h.19c-.17.55-.52 1-1.04 1.33s-1.11.5-1.78.5Zm.56-1.54c.63 0 1.14-.22 1.52-.66s.58-1.11.58-2.01-.19-1.56-.58-2c-.38-.44-.89-.66-1.52-.66s-1.14.22-1.52.66-.58 1.1-.58 2 .19 1.57.57 2.01q.57.66 1.53.66m8.14 1.38v-6.51h-2.77v-1.57h7.54v1.57H762v6.51h-1.98Zm6 0v-8.08h1.98v2.7h2.13c1.08 0 1.89.23 2.43.68s.82 1.11.82 1.96c0 .55-.13 1.04-.38 1.45-.26.41-.63.73-1.11.95s-1.07.34-1.75.34h-4.11Zm1.98-1.31h1.86c.54 0 .96-.11 1.25-.34s.43-.58.43-1.05-.14-.81-.42-1.03q-.42-.33-1.26-.33h-1.86zm11.43 1.31v-8.08h1.81v6.11h-.48l4.59-6.11h1.65v8.08h-1.81v-6.13h.5l-4.61 6.13zm14.22 0v-8.08h1.87v6.54h2.85v-6.54h1.86v6.54h2.85v-6.54h1.87v8.08zm17.54.16c-1.35 0-2.42-.37-3.18-1.12-.77-.75-1.15-1.77-1.15-3.07 0-.84.17-1.58.5-2.21q.495-.945 1.38-1.47c.59-.35 1.28-.53 2.07-.53s1.43.17 1.95.5.92.79 1.19 1.39.41 1.3.41 2.1v.53h-5.89v-1.06h4.46l-.27.22c0-.75-.16-1.32-.47-1.71s-.77-.59-1.37-.59c-.66 0-1.17.23-1.53.7s-.54 1.13-.54 1.97v.21c0 .87.22 1.53.65 1.96s1.04.65 1.83.65q.69 0 1.29-.18t1.14-.6l.59 1.34q-.57.465-1.38.72c-.53.17-1.1.26-1.7.26Zm4.81.06-.62-1.57c.35-.13.65-.3.89-.5.24-.21.43-.47.58-.8.14-.33.25-.73.31-1.22s.1-1.06.1-1.74v-2.48h6.43v8.08h-1.98v-6.54h-2.62v1.01c0 1.16-.11 2.14-.32 2.92s-.54 1.41-.99 1.86c-.45.46-1.04.78-1.76.98Zm9.96-.22v-8.08h1.98v3.17h1.22l2.37-3.17h2.14l-2.98 4.03-.43-.62c.3.03.56.11.79.24q.345.195.66.54c.315.345.41.52.62.87l1.7 3.02h-2.13l-1.38-2.43c-.14-.25-.28-.44-.42-.58s-.29-.23-.46-.29c-.17-.05-.38-.08-.62-.08h-1.07v3.38h-1.98Zm12.83.16q-1.245 0-2.16-.51c-.61-.34-1.08-.83-1.42-1.46s-.5-1.38-.5-2.24.17-1.61.5-2.23c.34-.62.81-1.11 1.42-1.45q.915-.51 2.16-.51c1.245 0 1.55.17 2.17.51s1.09.82 1.42 1.45c.34.62.5 1.37.5 2.23s-.17 1.61-.5 2.24c-.34.63-.81 1.11-1.42 1.46s-1.34.51-2.17.51m0-1.54q.945 0 1.5-.66c.37-.44.56-1.11.56-2.01s-.19-1.56-.56-2q-.555-.66-1.5-.66c-.945 0-1.13.22-1.5.66s-.56 1.1-.56 2 .19 1.57.56 2.01.88.66 1.5.66m5.98 1.38v-8.08h6.06v1.57h-4.06v6.51zm7.54 3.46v-9.52c0-.33-.01-.67-.03-1.01s-.05-.68-.1-1.01h1.94l.18 1.7h-.18q.24-.855 1.02-1.35c.52-.34 1.12-.5 1.8-.5s1.34.17 1.87.5c.53.34.95.82 1.25 1.44q.45.93.45 2.25c0 1.32-.15 1.63-.45 2.26s-.71 1.11-1.25 1.45c-.53.34-1.16.5-1.87.5-.67 0-1.26-.17-1.78-.5s-.85-.77-1.02-1.33h.18v5.12h-2Zm4.06-4.83c.64 0 1.15-.22 1.54-.66.38-.44.58-1.11.58-2.01s-.19-1.56-.58-2-.9-.66-1.54-.66-1.14.22-1.52.66-.58 1.1-.58 2 .19 1.57.58 2.01c.38.44.89.66 1.52.66m9.2 1.53c-.7 0-1.32-.17-1.86-.5-.53-.34-.95-.82-1.25-1.45s-.45-1.38-.45-2.26.15-1.62.45-2.25.71-1.1 1.25-1.44 1.15-.5 1.86-.5 1.28.17 1.8.5.86.79 1.03 1.35h-.18l.18-1.7h1.92l-.09 1.01c-.03.34-.04.68-.04 1.01v6.06h-1.98l-.02-1.66h.19c-.17.55-.52 1-1.04 1.33s-1.11.5-1.78.5Zm.56-1.54c.63 0 1.14-.22 1.52-.66s.58-1.11.58-2.01-.19-1.56-.58-2c-.38-.44-.89-.66-1.52-.66s-1.14.22-1.52.66-.58 1.1-.58 2 .19 1.57.57 2.01q.57.66 1.53.66m11.15 4.84v-5.02h.18c-.17.55-.46.98-.86 1.28s-.88.45-1.45.45-1.11-.17-1.56-.52-.81-.83-1.06-1.46c-.26-.63-.38-1.37-.38-2.22s.12-1.61.38-2.23.6-1.11 1.06-1.45c.45-.34.98-.51 1.58-.51.57 0 1.05.15 1.45.45s.69.72.86 1.26h-.18v-5.25h1.98v5.25h-.18c.17-.54.46-.97.86-1.26.4-.3.88-.45 1.45-.45.6 0 1.12.17 1.58.51.45.34.8.82 1.06 1.45s.38 1.37.38 2.23-.12 1.59-.38 2.22c-.25.63-.6 1.12-1.06 1.46-.45.35-.98.52-1.58.52-.55 0-1.03-.15-1.43-.45s-.69-.73-.87-1.28h.18v5.02h-1.98Zm-1.55-4.8c.49 0 .88-.22 1.16-.67s.42-1.12.42-2.03-.14-1.57-.43-2.02-.67-.68-1.15-.68-.88.23-1.17.68-.43 1.13-.43 2.02.14 1.58.43 2.03.68.67 1.17.67m5.09 0c.49 0 .88-.22 1.17-.67s.43-1.12.43-2.03-.15-1.57-.44-2.02-.68-.68-1.16-.68-.88.23-1.16.68-.42 1.13-.42 2.02.14 1.58.42 2.03.67.67 1.16.67m5.47 1.34v-8.08h1.81v6.11h-.48l4.59-6.11h1.65v8.08h-1.81v-6.13h.5l-4.61 6.13zm9.17 0 1.23-2.13c.21-.36.48-.65.79-.87s.64-.33.98-.33h.35l-.02.18c-.95 0-1.68-.21-2.19-.62-.51-.42-.77-1.02-.77-1.82s.26-1.4.79-1.83 1.3-.65 2.33-.65h4.02v8.08h-1.82v-2.85h-.91q-.495 0-.87.27c-.25.18-.46.42-.63.7l-1.06 1.87zm3.89-4.14h1.81v-2.64h-1.81c-.54 0-.95.12-1.22.35s-.41.55-.41.96c0 .43.14.75.41.98s.68.34 1.22.34Zm-528.11 37.63V93.13h9.63v11.28h-1.65v-9.9h-6.34v9.9h-1.65Zm12.24 3.46v-9.58c0-.31-.01-.63-.04-.95l-.09-.98h1.57l.16 1.82h-.18c.17-.61.51-1.09 1.03-1.44s1.13-.53 1.85-.53 1.34.17 1.87.5c.53.34.95.81 1.24 1.43s.44 1.37.44 2.24-.15 1.61-.44 2.24-.71 1.11-1.24 1.44-1.16.5-1.87.5-1.32-.17-1.83-.52c-.52-.35-.86-.82-1.03-1.42h.18v5.25zm3.9-4.58c.7 0 1.27-.25 1.69-.74s.63-1.22.63-2.18-.21-1.68-.63-2.17c-.42-.48-.98-.73-1.69-.73s-1.27.24-1.69.73-.63 1.21-.63 2.17.21 1.69.63 2.18.98.74 1.69.74m5.98 1.12v-8.06h1.47v6.51h-.45l4.86-6.51h1.34v8.06h-1.46v-6.53h.46l-4.9 6.53h-1.34Zm13.93 0v-8.06h7.23v8.06h-1.6v-6.8h-4.03v6.8zm12.82.15c-.71 0-1.34-.17-1.87-.5s-.95-.81-1.24-1.44-.44-1.38-.44-2.24.15-1.62.44-2.24.71-1.1 1.24-1.43c.53-.34 1.16-.5 1.87-.5s1.32.18 1.84.53.87.83 1.04 1.44h-.18l.16-1.82h1.57l-.09.98c-.03.33-.04.64-.04.95v6.13h-1.62v-1.79h.18c-.17.6-.52 1.07-1.05 1.42s-1.13.52-1.82.52Zm.4-1.26c.69 0 1.25-.25 1.67-.74s.63-1.22.63-2.18-.21-1.68-.63-2.17c-.42-.48-.98-.73-1.67-.73s-1.27.24-1.69.73-.63 1.21-.63 2.17.21 1.69.62 2.18.98.74 1.7.74m6.44 4.57v-9.58c0-.31-.01-.63-.04-.95l-.09-.98h1.57l.16 1.82h-.18c.17-.61.51-1.09 1.03-1.44s1.13-.53 1.85-.53 1.34.17 1.87.5c.53.34.95.81 1.24 1.43s.44 1.37.44 2.24-.15 1.61-.44 2.24-.71 1.11-1.24 1.44-1.16.5-1.87.5-1.32-.17-1.83-.52c-.52-.35-.86-.82-1.03-1.42h.18v5.25zm3.9-4.58c.7 0 1.27-.25 1.69-.74s.63-1.22.63-2.18-.21-1.68-.63-2.17c-.42-.48-.98-.73-1.69-.73s-1.27.24-1.69.73-.63 1.21-.63 2.17.21 1.69.63 2.18.98.74 1.69.74m7.7 1.12v-6.77h-2.85v-1.3H443v1.3h-2.86v6.77zm5.76 0v-8.06h1.47v6.51h-.45l4.86-6.51h1.34v8.06h-1.46v-6.53h.46l-4.9 6.53h-1.34Zm9.67 0v-8.06h1.47v6.51h-.45l4.86-6.51h1.34v8.06h-1.46v-6.53h.46l-4.9 6.53h-1.34Zm13.13 2.08v-3.33h.9c.35-.53.61-1.16.77-1.87s.24-1.58.24-2.59v-2.35h5.9v6.82h1.3v3.33h-1.39v-2.08h-6.32v2.08h-1.39Zm2.38-3.31h3.9V97.6h-2.99v1.42c0 .78-.08 1.54-.23 2.28s-.38 1.37-.68 1.88m11.85 1.38c-.8 0-1.49-.17-2.08-.5s-1.04-.82-1.36-1.44-.48-1.37-.48-2.23.16-1.61.48-2.23.77-1.1 1.36-1.44 1.28-.5 2.08-.5 1.5.17 2.09.5 1.05.82 1.38 1.44.49 1.37.49 2.23-.16 1.61-.49 2.23-.78 1.1-1.38 1.44-1.29.5-2.09.5m0-1.26c.7 0 1.26-.25 1.68-.74s.62-1.22.62-2.18-.21-1.68-.62-2.17c-.42-.48-.98-.73-1.68-.73s-1.25.24-1.66.73c-.42.49-.62 1.21-.62 2.17s.21 1.69.62 2.18.97.74 1.67.74Zm10.33 1.11v-1.23l3.87-4.05c.5-.52.87-1.01 1.12-1.47s.37-.93.37-1.42q0-.915-.57-1.38c-.38-.31-.93-.46-1.64-.46q-.855 0-1.59.3c-.735.3-.97.51-1.43.93l-.58-1.26c.45-.42 1-.75 1.67-1a6 6 0 0 1 2.12-.38c1.17 0 2.08.27 2.71.8s.95 1.3.95 2.29c0 .7-.17 1.38-.51 2.02-.34.65-.85 1.31-1.54 1.99l-3.34 3.38v-.45h5.86v1.39zm13.24.15a6.5 6.5 0 0 1-2.8-.62c-.42-.2-.78-.43-1.09-.71l.58-1.26c.51.4 1.04.69 1.58.89s1.11.3 1.7.3c.76 0 1.35-.2 1.78-.59s.65-.92.65-1.58-.21-1.23-.62-1.66c-.41-.42-.98-.63-1.7-.63-.5 0-.96.1-1.37.3q-.615.3-1.08.93h-1.15v-6.78h6.83v1.39h-5.25v4.06h-.42c.29-.41.67-.72 1.16-.94s1.03-.34 1.64-.34c.73 0 1.35.15 1.89.45.53.3.95.71 1.24 1.25.29.53.44 1.16.44 1.89s-.16 1.36-.49 1.91-.79.98-1.39 1.29-1.32.46-2.14.46Zm9.44 0q-1.95 0-3-1.5c-.7-1-1.05-2.43-1.05-4.3s.35-3.34 1.05-4.31c.7-.98 1.7-1.46 3-1.46s2.31.49 3.01 1.46 1.04 2.41 1.04 4.3-.35 3.31-1.05 4.31q-1.05 1.5-3 1.5m0-1.39c.82 0 1.43-.36 1.83-1.07s.6-1.83.6-3.34-.2-2.64-.6-3.34-1.01-1.05-1.83-1.05-1.42.35-1.82 1.05-.61 1.81-.61 3.32.21 2.65.62 3.36 1.02 1.07 1.82 1.07Zm10.28 1.24v-8.06h1.52v6.8h3.15v-6.8h1.52v6.8h3.14v-6.8h1.54v8.06h-10.86Zm15.03 0v-6.77h-2.85v-1.3h7.31v1.3h-2.86v6.77zm4.37 0v-1.9h1.9v1.9zm8.24-3.74v-1.3h4.69v1.3zm11.4 3.74v-1.23l3.87-4.05c.5-.52.87-1.01 1.12-1.47s.37-.93.37-1.42q0-.915-.57-1.38c-.38-.31-.93-.46-1.64-.46q-.855 0-1.59.3c-.735.3-.97.51-1.43.93l-.58-1.26c.45-.42 1-.75 1.67-1s1.37-.38 2.12-.38c1.17 0 2.08.27 2.71.8s.95 1.3.95 2.29c0 .7-.17 1.38-.51 2.02-.34.65-.85 1.31-1.54 1.99l-3.34 3.38v-.45h5.86v1.39zm13.24.15a6.5 6.5 0 0 1-2.8-.62c-.42-.2-.78-.43-1.09-.71l.58-1.26c.51.4 1.04.69 1.58.89s1.11.3 1.7.3c.76 0 1.35-.2 1.78-.59s.65-.92.65-1.58-.21-1.23-.62-1.66c-.41-.42-.98-.63-1.7-.63-.5 0-.96.1-1.37.3s-.77.51-1.08.93h-1.15v-6.78h6.83v1.39h-5.25v4.06h-.42c.29-.41.67-.72 1.16-.94s1.03-.34 1.64-.34q1.08 0 1.89.45c.53.3.95.71 1.24 1.25.29.53.44 1.16.44 1.89s-.16 1.36-.49 1.91a3.4 3.4 0 0 1-1.39 1.29c-.6.31-1.31.46-2.14.46Zm10.59-.15v-2.34h-5.22v-1.18l5.49-7.76h1.34v7.65h1.68v1.3h-1.68v2.34h-1.62Zm0-3.63V95.1h.37l-4.29 6.08v-.4zm8.44 3.78q-1.95 0-3-1.5c-.7-1-1.05-2.43-1.05-4.3s.35-3.34 1.05-4.31 1.7-1.46 3-1.46 2.31.49 3.01 1.46 1.04 2.41 1.04 4.3-.35 3.31-1.05 4.31q-1.05 1.5-3 1.5m0-1.39c.82 0 1.43-.36 1.83-1.07s.6-1.83.6-3.34-.2-2.64-.6-3.34q-.6-1.05-1.83-1.05c-1.23 0-1.42.35-1.82 1.05s-.61 1.81-.61 3.32.21 2.65.62 3.36 1.02 1.07 1.82 1.07Zm10.36 4.7v-9.58c0-.31-.01-.63-.04-.95l-.09-.98h1.57l.16 1.82h-.18c.17-.61.51-1.09 1.03-1.44s1.13-.53 1.85-.53 1.34.17 1.87.5.95.81 1.24 1.43.44 1.37.44 2.24-.15 1.61-.44 2.24-.71 1.11-1.24 1.44-1.16.5-1.87.5-1.31-.17-1.83-.52-.86-.82-1.03-1.42h.18v5.25zm3.9-4.58c.7 0 1.27-.25 1.69-.74s.63-1.22.63-2.18-.21-1.68-.63-2.17c-.42-.48-.98-.73-1.69-.73s-1.27.24-1.69.73-.63 1.21-.63 2.17.21 1.69.63 2.18.98.74 1.69.74m5.68 4.75-.38-1.31c.5-.11.92-.23 1.26-.38s.62-.34.84-.58.42-.55.58-.92l.4-.94-.03.66-3.5-8.21h1.73l2.72 6.72h-.43l2.72-6.72h1.66l-3.7 8.64c-.24.53-.49.98-.75 1.34s-.55.66-.86.88-.65.4-1.02.53-.78.23-1.22.3Zm12.53-3.48c-1.22 0-2.18-.38-2.9-1.14s-1.08-1.87-1.08-3.34v-1.39c0-1.5.32-2.71.97-3.63s1.65-1.54 3-1.86l2.94-.7.46 1.3-3.3.77c-.58.13-1.05.37-1.42.72s-.65.77-.84 1.25-.28.99-.28 1.54v.74h-.24c.13-.49.33-.91.62-1.26.28-.35.63-.62 1.06-.82.42-.2.89-.3 1.42-.3.69 0 1.3.16 1.82.48s.93.78 1.22 1.38.44 1.31.44 2.14-.16 1.59-.48 2.21-.77 1.09-1.35 1.42-1.27.5-2.06.5Zm-.05-1.25c.73 0 1.29-.24 1.7-.71s.62-1.18.62-2.1-.21-1.62-.62-2.1-.98-.72-1.7-.72-1.28.24-1.7.71-.62 1.15-.62 2.02c0 .96.21 1.68.62 2.17s.98.73 1.7.73m5.43 1.1v-1.9h1.9v1.9zm-262.55 17.4v-11.28h9.63v11.28h-1.65v-9.9h-6.34v9.9h-1.65Zm12.24 3.46v-9.58c0-.31-.01-.63-.04-.95l-.09-.98h1.57l.16 1.82h-.18c.17-.61.51-1.09 1.03-1.44s1.13-.53 1.85-.53 1.34.17 1.87.5c.53.34.95.81 1.24 1.43s.44 1.37.44 2.24-.15 1.61-.44 2.24-.71 1.11-1.24 1.44-1.16.5-1.87.5-1.32-.17-1.83-.52c-.52-.35-.86-.82-1.03-1.42h.18v5.25zm3.9-4.58c.7 0 1.27-.25 1.69-.74s.63-1.22.63-2.18-.21-1.68-.63-2.17c-.42-.48-.98-.73-1.69-.73s-1.27.24-1.69.73-.63 1.21-.63 2.17.21 1.69.63 2.18.98.74 1.69.74m5.98 1.12v-8.06h1.47v6.51h-.45l4.86-6.51h1.34v8.06h-1.46v-6.53h.46l-4.9 6.53h-1.34Zm13.93 0v-8.06h7.23v8.06h-1.6v-6.8h-4.03v6.8zm12.82.14c-.71 0-1.34-.17-1.87-.5s-.95-.81-1.24-1.44-.44-1.38-.44-2.24.15-1.62.44-2.24.71-1.1 1.24-1.43c.53-.34 1.16-.5 1.87-.5s1.32.18 1.84.53.87.83 1.04 1.44h-.18l.16-1.82h1.57l-.09.98c-.03.33-.04.64-.04.95v6.13h-1.62v-1.79h.18c-.17.6-.52 1.07-1.05 1.42s-1.13.52-1.82.52Zm.4-1.26c.69 0 1.25-.25 1.67-.74s.63-1.22.63-2.18-.21-1.68-.63-2.17c-.42-.48-.98-.73-1.67-.73s-1.27.24-1.69.73-.63 1.21-.63 2.17.21 1.69.62 2.18.98.74 1.7.74m6.44 4.58v-9.58c0-.31-.01-.63-.04-.95l-.09-.98h1.57l.16 1.82h-.18c.17-.61.51-1.09 1.03-1.44s1.13-.53 1.85-.53 1.34.17 1.87.5c.53.34.95.81 1.24 1.43s.44 1.37.44 2.24-.15 1.61-.44 2.24-.71 1.11-1.24 1.44-1.16.5-1.87.5-1.32-.17-1.83-.52c-.52-.35-.86-.82-1.03-1.42h.18v5.25zm3.9-4.58c.7 0 1.27-.25 1.69-.74s.63-1.22.63-2.18-.21-1.68-.63-2.17c-.42-.48-.98-.73-1.69-.73s-1.27.24-1.69.73-.63 1.21-.63 2.17.21 1.69.63 2.18.98.74 1.69.74m7.7 1.12v-6.77h-2.85v-1.3H443v1.3h-2.86v6.77zm5.76 0v-8.06h1.47v6.51h-.45l4.86-6.51h1.34v8.06h-1.46v-6.53h.46l-4.9 6.53h-1.34Zm9.67 0v-8.06h1.47v6.51h-.45l4.86-6.51h1.34v8.06h-1.46v-6.53h.46l-4.9 6.53h-1.34Zm13.13 2.08v-3.33h.9c.35-.53.61-1.16.77-1.87s.24-1.58.24-2.59v-2.35h5.9v6.82h1.3v3.33h-1.39v-2.08h-6.32v2.08h-1.39Zm2.38-3.31h3.9V115h-2.99v1.42c0 .78-.08 1.54-.23 2.28s-.38 1.37-.68 1.88m11.85 1.37c-.8 0-1.49-.17-2.08-.5s-1.04-.82-1.36-1.44-.48-1.37-.48-2.23.16-1.61.48-2.23.77-1.1 1.36-1.44 1.28-.5 2.08-.5 1.5.17 2.09.5 1.05.82 1.38 1.44.49 1.37.49 2.23-.16 1.61-.49 2.23-.78 1.1-1.38 1.44-1.29.5-2.09.5m0-1.26c.7 0 1.26-.25 1.68-.74s.62-1.22.62-2.18-.21-1.68-.62-2.17c-.42-.48-.98-.73-1.68-.73s-1.25.24-1.66.73c-.42.49-.62 1.21-.62 2.17s.21 1.69.62 2.18.97.74 1.67.74Zm13.97 1.26a6.5 6.5 0 0 1-2.8-.62c-.42-.2-.78-.43-1.09-.71l.58-1.26c.51.4 1.04.69 1.58.89s1.11.3 1.7.3c.76 0 1.35-.2 1.78-.59s.65-.92.65-1.58-.21-1.23-.62-1.66c-.41-.42-.98-.63-1.7-.63-.5 0-.96.1-1.37.3q-.615.3-1.08.93h-1.15v-6.78h6.83v1.39h-5.25v4.06h-.42c.29-.41.67-.72 1.16-.94s1.03-.34 1.64-.34q1.08 0 1.89.45c.53.3.95.71 1.24 1.25.29.53.44 1.16.44 1.89s-.16 1.36-.49 1.91a3.4 3.4 0 0 1-1.39 1.29c-.6.31-1.31.46-2.14.46Zm9.44 0q-1.95 0-3-1.5c-.7-1-1.05-2.43-1.05-4.3s.35-3.34 1.05-4.31c.7-.98 1.7-1.46 3-1.46s2.31.49 3.01 1.46c.69.98 1.04 2.41 1.04 4.3s-.35 3.31-1.05 4.31q-1.05 1.5-3 1.5m0-1.39c.82 0 1.43-.36 1.83-1.07s.6-1.83.6-3.34-.2-2.64-.6-3.34q-.6-1.05-1.83-1.05c-1.23 0-1.42.35-1.82 1.05-.41.7-.61 1.81-.61 3.32s.21 2.65.62 3.36 1.02 1.07 1.82 1.07Zm9.6 1.39q-1.95 0-3-1.5c-.7-1-1.05-2.43-1.05-4.3s.35-3.34 1.05-4.31c.7-.98 1.7-1.46 3-1.46s2.31.49 3.01 1.46 1.04 2.41 1.04 4.3-.35 3.31-1.05 4.31q-1.05 1.5-3 1.5m0-1.39c.82 0 1.43-.36 1.83-1.07s.6-1.83.6-3.34-.2-2.64-.6-3.34-1.01-1.05-1.83-1.05-1.42.35-1.82 1.05-.61 1.81-.61 3.32.21 2.65.62 3.36 1.02 1.07 1.82 1.07Zm10.28 1.25v-8.06h1.52v6.8h3.15v-6.8h1.52v6.8h3.14v-6.8h1.54v8.06h-10.86Zm15.03 0v-6.77h-2.85v-1.3h7.31v1.3h-2.86v6.77zm4.37 0v-1.9h1.9v1.9zm8.24-3.74v-1.3h4.69v1.3zm16.03 3.74v-2.34h-5.22v-1.18l5.49-7.76h1.34v7.65h1.68v1.3h-1.68v2.34h-1.62Zm0-3.63v-5.68h.37l-4.29 6.08v-.4zm8.45 3.77q-1.95 0-3-1.5c-.7-1-1.05-2.43-1.05-4.3s.35-3.34 1.05-4.31 1.7-1.46 3-1.46 2.31.49 3.01 1.46 1.04 2.41 1.04 4.3-.35 3.31-1.05 4.31q-1.05 1.5-3 1.5m0-1.39c.82 0 1.43-.36 1.83-1.07s.6-1.83.6-3.34-.2-2.64-.6-3.34q-.6-1.05-1.83-1.05c-1.23 0-1.42.35-1.82 1.05s-.61 1.81-.61 3.32.21 2.65.62 3.36 1.02 1.07 1.82 1.07Zm9.6 1.39c-1.3 0-2.31-.28-3.04-.83s-1.09-1.33-1.09-2.32c0-.79.24-1.44.72-1.96s1.11-.83 1.89-.94v.29c-.7-.15-1.27-.47-1.69-.98-.42-.5-.63-1.11-.63-1.82 0-.94.34-1.67 1.02-2.21.68-.53 1.62-.8 2.82-.8s2.15.27 2.83.8 1.02 1.27 1.02 2.21c0 .71-.2 1.33-.6 1.83-.4.51-.95.82-1.64.95v-.27c.77.11 1.38.42 1.84.94s.69 1.17.69 1.96c0 .99-.36 1.77-1.09 2.32s-1.74.83-3.06.83Zm0-1.31c.86 0 1.51-.16 1.94-.49s.64-.81.64-1.46-.21-1.14-.64-1.46-1.07-.48-1.94-.48-1.51.16-1.94.48-.64.81-.64 1.46.22 1.14.65 1.46c.43.33 1.07.49 1.93.49m0-5.2c.75 0 1.31-.17 1.7-.5s.58-.8.58-1.38-.19-1.03-.58-1.36-.96-.5-1.7-.5-1.3.17-1.7.5c-.39.33-.59.78-.59 1.36s.2 1.05.59 1.38.96.5 1.7.5m9.59 6.51q-1.95 0-3-1.5c-.7-1-1.05-2.43-1.05-4.3s.35-3.34 1.05-4.31 1.7-1.46 3-1.46 2.31.49 3.01 1.46 1.04 2.41 1.04 4.3-.35 3.31-1.05 4.31q-1.05 1.5-3 1.5m0-1.39c.82 0 1.43-.36 1.83-1.07s.6-1.83.6-3.34-.2-2.64-.6-3.34q-.6-1.05-1.83-1.05c-1.23 0-1.42.35-1.82 1.05s-.61 1.81-.61 3.32.21 2.65.62 3.36 1.02 1.07 1.82 1.07Zm10.36 4.71v-9.58c0-.31-.01-.63-.04-.95l-.09-.98h1.57l.16 1.82h-.18c.17-.61.51-1.09 1.03-1.44s1.13-.53 1.85-.53 1.34.17 1.87.5.95.81 1.24 1.43.44 1.37.44 2.24-.15 1.61-.44 2.24-.71 1.11-1.24 1.44-1.16.5-1.87.5-1.31-.17-1.83-.52-.86-.82-1.03-1.42h.18v5.25zm3.9-4.58c.7 0 1.27-.25 1.69-.74s.63-1.22.63-2.18-.21-1.68-.63-2.17c-.42-.48-.98-.73-1.69-.73s-1.27.24-1.69.73-.63 1.21-.63 2.17.21 1.69.63 2.18.98.74 1.69.74m5.68 4.75-.38-1.31c.5-.11.92-.23 1.26-.38s.62-.34.84-.58.42-.55.58-.92l.4-.94-.03.66-3.5-8.21h1.73l2.72 6.72h-.43l2.72-6.72h1.66l-3.7 8.64c-.24.53-.49.98-.75 1.34s-.55.66-.86.88-.65.4-1.02.53-.78.23-1.22.3Zm12.53-3.49c-1.22 0-2.18-.38-2.9-1.14s-1.08-1.87-1.08-3.34v-1.39c0-1.5.32-2.71.97-3.63s1.65-1.54 3-1.86l2.94-.7.46 1.3-3.3.77c-.58.13-1.05.37-1.42.72s-.65.77-.84 1.25-.28.99-.28 1.54v.74h-.24c.13-.49.33-.91.62-1.26.28-.35.63-.62 1.06-.82.42-.2.89-.3 1.42-.3.69 0 1.3.16 1.82.48s.93.78 1.22 1.38.44 1.31.44 2.14-.16 1.59-.48 2.21-.77 1.09-1.35 1.42-1.27.5-2.06.5Zm-.05-1.25c.73 0 1.29-.24 1.7-.71s.62-1.18.62-2.1-.21-1.62-.62-2.1-.98-.72-1.7-.72-1.28.24-1.7.71-.62 1.15-.62 2.02c0 .96.21 1.68.62 2.17s.98.73 1.7.73m5.43 1.11v-1.9h1.9v1.9zm50.48-6.58c-.47-.79-.85-1.57-1.15-2.33s-.52-1.54-.66-2.32-.21-1.6-.21-2.44.07-1.67.21-2.45.36-1.55.66-2.3c.3-.76.68-1.53 1.15-2.32h1.31c-.55 1.21-.97 2.39-1.24 3.56s-.41 2.34-.41 3.51.14 2.34.41 3.51.69 2.36 1.24 3.58zm9.9-.8v-2.08h-6.98v-8.06h1.6v6.8h3.86v-6.8h1.58v6.8h1.3v3.34zm6.77-1.93c-1.3 0-2.33-.37-3.07-1.1-.75-.74-1.12-1.75-1.12-3.06 0-.84.16-1.58.49-2.21s.78-1.12 1.36-1.46c.58-.35 1.26-.52 2.02-.52s1.39.16 1.9.48.9.77 1.17 1.35.4 1.27.4 2.06v.51H698v-.93h4.98l-.27.21q0-1.2-.54-1.86c-.36-.44-.87-.66-1.54-.66-.75 0-1.32.26-1.73.78s-.61 1.23-.61 2.14v.16c0 .95.23 1.66.7 2.14s1.12.72 1.98.72c.47 0 .91-.07 1.32-.2s.8-.35 1.18-.66l.53 1.1c-.37.33-.83.58-1.36.76s-1.1.26-1.7.26Zm5.14-.15v-8.06h1.6v3.28h4.08v-3.28h1.6v8.06h-1.6v-3.52h-4.08v3.52zm9.53 3.64-.38-1.31c.5-.11.92-.23 1.26-.38s.62-.34.84-.58.42-.55.58-.92l.4-.94-.03.66-3.5-8.21h1.73l2.72 6.72h-.43l2.72-6.72h1.66l-3.7 8.64c-.24.53-.49.98-.75 1.34s-.55.66-.86.88-.65.4-1.02.53-.78.23-1.22.3Zm13.04 0-.38-1.31c.5-.11.92-.23 1.26-.38s.62-.34.84-.58.42-.55.58-.92l.4-.94-.03.66-3.5-8.21h1.73l2.72 6.72h-.43l2.72-6.72h1.66l-3.7 8.64c-.23.53-.49.98-.75 1.34s-.55.66-.86.88-.65.4-1.02.53-.78.23-1.22.3Zm10.77-3.64v-6.77h-2.85v-1.3h7.31v1.3h-2.86v6.77zm9.23.15c-.8 0-1.49-.17-2.08-.5-.59-.34-1.04-.82-1.36-1.44s-.48-1.37-.48-2.23.16-1.61.48-2.23.77-1.1 1.36-1.44 1.28-.5 2.08-.5 1.5.17 2.09.5q.885.51 1.38 1.44c.33.62.49 1.37.49 2.23s-.16 1.61-.49 2.23-.78 1.1-1.38 1.44c-.59.34-1.29.5-2.09.5m0-1.26c.7 0 1.26-.25 1.68-.74s.62-1.22.62-2.18-.21-1.68-.62-2.17c-.42-.48-.98-.73-1.68-.73s-1.25.24-1.66.73c-.42.49-.62 1.21-.62 2.17s.21 1.69.62 2.18.97.74 1.67.74Zm11.11 1.11v-3.12c-.3.16-.62.29-.96.38s-.7.14-1.09.14c-1.16 0-2.02-.27-2.58-.82s-.84-1.37-.84-2.47v-2.16h1.6v2.03c0 .74.17 1.27.5 1.6s.85.5 1.57.5q.54 0 .96-.12c.42-.12.55-.21.82-.38v-3.63h1.62v8.06h-1.58Zm4 0v-8.06h1.6v3.28h4.08v-3.28h1.6v8.06h-1.6v-3.52h-4.08v3.52zm9.05 0 1.26-2.18c.2-.35.46-.64.78-.86.31-.22.64-.33.97-.33h.29l-.02.16c-.92 0-1.63-.21-2.14-.62-.51-.42-.77-1.01-.77-1.79s.26-1.38.77-1.81 1.26-.64 2.26-.64h3.78v8.06h-1.49v-2.99h-1.07c-.41 0-.75.1-1.03.3s-.51.47-.7.8l-1.09 1.89h-1.79Zm3.68-4.08h2v-2.9h-2c-.6 0-1.04.13-1.34.38-.29.26-.44.61-.44 1.06 0 .47.15.83.44 1.08s.74.38 1.34.38m7.65 4.08v-6.77h-2.85v-1.3h7.31v1.3h-2.86v6.77zm5.76 0v-8.06h1.6v2.82h2.29c1.06 0 1.85.22 2.38.66s.8 1.09.8 1.93c0 .54-.12 1.02-.37 1.42s-.61.71-1.08.92-1.05.32-1.74.32h-3.89Zm1.6-1.1h2.11c.6 0 1.06-.13 1.38-.38s.48-.64.48-1.16-.16-.9-.47-1.14-.78-.36-1.38-.36h-2.11v3.04Zm11.39 4.74-.38-1.31c.5-.11.92-.23 1.26-.38s.62-.34.84-.58.42-.55.58-.92l.4-.94-.03.66-3.5-8.21h1.73l2.72 6.72h-.43l2.72-6.72h1.66l-3.7 8.64c-.23.53-.49.98-.75 1.34s-.55.66-.86.88-.65.4-1.02.53-.78.23-1.22.3Zm13.22-3.64v-8.06h1.34l2.91 5.15 2.91-5.15h1.34v8.06h-1.42v-6.26h.35l-2.8 4.96h-.77l-2.8-4.96h.35v6.26h-1.42Zm14.73.15c-1.3 0-2.33-.37-3.07-1.1-.75-.74-1.12-1.75-1.12-3.06 0-.84.16-1.58.49-2.21s.78-1.12 1.36-1.46c.58-.35 1.26-.52 2.02-.52s1.39.16 1.9.48.9.77 1.17 1.35.4 1.27.4 2.06v.51h-6.08v-.93h4.98l-.27.21q0-1.2-.54-1.86c-.36-.44-.87-.66-1.54-.66-.75 0-1.32.26-1.73.78s-.61 1.23-.61 2.14v.16c0 .95.23 1.66.7 2.14q.69.72 1.98.72c.47 0 .91-.07 1.32-.2s.8-.35 1.18-.66l.53 1.1c-.37.33-.83.58-1.36.76s-1.1.26-1.7.26Zm5.14-.15v-8.06h1.6v3.28h4.08v-3.28h1.6v8.06h-1.6v-3.52h-4.08v3.52zm13.5.15c-1.3 0-2.33-.37-3.07-1.1-.75-.74-1.12-1.75-1.12-3.06 0-.84.16-1.58.49-2.21s.78-1.12 1.36-1.46c.58-.35 1.26-.52 2.02-.52s1.39.16 1.9.48.9.77 1.17 1.35.4 1.27.4 2.06v.51h-6.08v-.93h4.98l-.27.21q0-1.2-.54-1.86c-.36-.44-.87-.66-1.54-.66-.75 0-1.32.26-1.73.78s-.61 1.23-.61 2.14v.16c0 .95.23 1.66.7 2.14q.69.72 1.98.72c.47 0 .91-.07 1.32-.2s.8-.35 1.18-.66l.53 1.1c-.37.33-.83.58-1.36.76s-1.1.26-1.7.26Zm4.34 1.93v-3.33h.9c.35-.53.61-1.16.77-1.87s.24-1.58.24-2.59v-2.35h5.9v6.82h1.3v3.33h-1.39v-2.08h-6.32v2.08h-1.39Zm2.38-3.31h3.9v-5.58h-2.99v1.42c0 .78-.08 1.54-.23 2.28-.16.74-.38 1.37-.68 1.88m7.08 1.23 1.68-2.91q.345-.57.66-.93c.2-.23.42-.41.65-.54s.5-.2.81-.23l-.37.51-3.04-3.97h1.76l2.54 3.3h1.17v-3.3h1.6v3.3h1.15l2.53-3.3h1.76l-3.04 3.97-.37-.51c.3.03.57.11.8.23s.46.3.66.54c.21.23.42.54.65.93l1.68 2.91h-1.73l-1.42-2.46c-.16-.28-.32-.49-.47-.65s-.33-.26-.52-.32-.43-.09-.7-.09h-.98v3.52h-1.6v-3.52h-1.01c-.28 0-.51.03-.7.09s-.35.17-.5.32-.31.37-.48.65l-1.42 2.46h-1.74Zm18.25.15c-1.3 0-2.33-.37-3.07-1.1-.75-.74-1.12-1.75-1.12-3.06 0-.84.16-1.58.49-2.21s.78-1.12 1.36-1.46c.58-.35 1.26-.52 2.02-.52s1.39.16 1.9.48.9.77 1.17 1.35.4 1.27.4 2.06v.51h-6.08v-.93h4.98l-.27.21q0-1.2-.54-1.86c-.36-.44-.87-.66-1.54-.66-.75 0-1.32.26-1.73.78s-.61 1.23-.61 2.14v.16c0 .95.23 1.66.7 2.14q.69.72 1.98.72c.47 0 .91-.07 1.32-.2s.8-.35 1.18-.66l.53 1.1c-.37.33-.83.58-1.36.76s-1.1.26-1.7.26Zm5.2 3.31v-9.58c0-.31-.01-.63-.04-.95l-.09-.98h1.57l.16 1.82h-.18c.17-.61.51-1.09 1.03-1.44s1.13-.53 1.85-.53 1.34.17 1.87.5.95.81 1.24 1.43.44 1.37.44 2.24-.15 1.61-.44 2.24-.71 1.11-1.24 1.44-1.16.5-1.87.5-1.31-.17-1.83-.52-.86-.82-1.03-1.42h.18v5.25zm3.9-4.58c.7 0 1.27-.25 1.69-.74s.63-1.22.63-2.18-.21-1.68-.63-2.17c-.42-.48-.98-.73-1.69-.73s-1.27.24-1.69.73-.63 1.21-.63 2.17.21 1.69.63 2.18.98.74 1.69.74m9.13 1.27c-.71 0-1.34-.17-1.87-.5s-.95-.81-1.24-1.44-.44-1.38-.44-2.24.15-1.62.44-2.24.71-1.1 1.24-1.43 1.16-.5 1.87-.5 1.32.18 1.84.53.87.83 1.04 1.44h-.18l.16-1.82h1.57l-.09.98c-.03.33-.04.64-.04.95v6.13h-1.62v-1.79h.18c-.17.6-.52 1.07-1.05 1.42s-1.13.52-1.82.52Zm.4-1.26c.69 0 1.25-.25 1.67-.74s.63-1.22.63-2.18-.21-1.68-.63-2.17c-.42-.48-.98-.73-1.67-.73s-1.27.24-1.69.73-.63 1.21-.63 2.17.21 1.69.62 2.18.98.74 1.7.74m6.88 3.99h-1.31c.55-1.21.97-2.39 1.25-3.57.28-1.17.42-2.35.42-3.52s-.14-2.33-.42-3.5-.69-2.36-1.25-3.57h1.31c.48.79.87 1.56 1.17 2.32s.51 1.53.65 2.31c.13.78.2 1.6.2 2.44s-.07 1.67-.2 2.46c-.13.78-.35 1.55-.65 2.31s-.69 1.53-1.17 2.32m-850.02-.1v-9.58h-3.73v-1.7h9.52v1.7h-3.73v9.58zm5.89 0v-8.08h1.81v6.11h-.48l4.59-6.11h1.65v8.08h-1.81V109h.5l-4.61 6.13zm9.91 3.46v-9.52c0-.33-.01-.67-.03-1.01s-.05-.68-.1-1.01h1.94l.18 1.7h-.18q.24-.855 1.02-1.35c.78-.495 1.12-.5 1.8-.5s1.34.17 1.87.5c.53.34.95.82 1.25 1.44s.45 1.37.45 2.25-.15 1.63-.45 2.26-.71 1.11-1.25 1.45c-.53.34-1.16.5-1.87.5-.67 0-1.26-.17-1.78-.5-.51-.33-.85-.77-1.02-1.33h.18v5.12h-2Zm4.06-4.83c.64 0 1.15-.22 1.54-.66.38-.44.58-1.11.58-2.01s-.19-1.56-.58-2-.9-.66-1.54-.66-1.14.22-1.52.66-.58 1.1-.58 2 .19 1.57.58 2.01c.38.44.89.66 1.52.66m9.2 1.53c-.7 0-1.32-.17-1.86-.5-.53-.34-.95-.82-1.25-1.45s-.45-1.38-.45-2.26.15-1.62.45-2.25.71-1.1 1.25-1.44 1.15-.5 1.86-.5 1.28.17 1.8.5.86.79 1.03 1.35h-.18l.18-1.7h1.92l-.09 1.01c-.03.34-.04.68-.04 1.01v6.06h-1.98l-.02-1.66h.19c-.17.55-.52 1-1.04 1.33s-1.12.5-1.78.5Zm.56-1.54c.63 0 1.14-.22 1.52-.66s.58-1.11.58-2.01-.19-1.56-.58-2c-.38-.44-.89-.66-1.52-.66s-1.14.22-1.52.66-.58 1.1-.58 2 .19 1.57.57 2.01q.57.66 1.53.66m5.18 1.38 1.7-3.02c.21-.35.42-.64.62-.87s.41-.41.65-.54c.23-.13.5-.21.8-.24l-.42.62-2.99-4.03h2.14l2.38 3.17h1.01v-3.17h1.98v3.17h.99l2.37-3.17h2.16l-3.01 4.03-.42-.62c.3.03.56.11.8.24s.46.31.66.54c.21.23.41.52.62.87l1.7 3.02h-2.13l-1.38-2.43c-.14-.25-.28-.44-.42-.58s-.29-.23-.46-.29c-.17-.05-.38-.08-.62-.08h-.86v3.38H97.7v-3.38h-.88c-.25 0-.45.03-.62.08s-.32.15-.46.29c-.13.14-.27.33-.42.58l-1.38 2.43zm22.93.16c-.49 0-.98-.05-1.46-.16s-.94-.26-1.36-.45q-.63-.285-1.08-.69l.67-1.55c.5.37 1.02.65 1.54.84.53.19 1.08.28 1.66.28.69 0 1.23-.17 1.62-.52s.58-.81.58-1.4-.19-1.08-.56-1.45-.89-.55-1.54-.55c-.46 0-.88.09-1.26.26q-.57.27-1.02.81h-1.36v-6.86h7.01v1.7h-5.06v3.58h-.5c.28-.37.65-.66 1.11-.86q.69-.3 1.56-.3 1.08 0 1.89.45c.53.3.95.72 1.25 1.26s.45 1.17.45 1.9-.17 1.38-.5 1.94-.82 1-1.44 1.31-1.36.47-2.22.47Zm9.52 0c-1.32 0-2.34-.5-3.06-1.51s-1.07-2.45-1.07-4.31.36-3.32 1.07-4.3 1.73-1.47 3.06-1.47 2.35.49 3.06 1.47 1.06 2.41 1.06 4.29-.35 3.32-1.06 4.33-1.73 1.51-3.06 1.51Zm0-1.7c.73 0 1.26-.33 1.62-1 .35-.67.53-1.71.53-3.14s-.18-2.47-.53-3.11c-.35-.65-.89-.97-1.62-.97s-1.25.32-1.61.97-.54 1.68-.54 3.11.18 2.48.54 3.14c.36.67.89 1 1.61 1m10.32 1.54v-8.08h1.87v6.54h2.85v-6.54h1.86v6.54h2.85v-6.54h1.87v8.08zm15.31 0v-6.51h-2.77v-1.57h7.54v1.57h-2.78v6.51h-1.98Zm4.61 0v-2.22h2.24v2.22z" style="fill:#27625f;stroke-width:0"/></g></svg>