<svg xmlns="http://www.w3.org/2000/svg" id="_Слой_2" data-name="Слой 2" viewBox="0 0 938.93 434.06"><defs><style>.cls-1,.cls-2,.cls-3,.cls-4{fill:#27625f}.cls-1,.cls-3{font-size:16px}.cls-1,.cls-4{font-family:Mulish-Bold,Mulish;font-weight:700}.cls-6{fill:#fff}.cls-6,.cls-7{stroke:#a0b6b5;stroke-miterlimit:10}.cls-2{stroke-width:0}.cls-3{font-family:Mulish-SemiBold,Mulish;font-weight:600}.cls-12{letter-spacing:-.07em}.cls-14{letter-spacing:-.02em}.cls-15{letter-spacing:0}.cls-16{letter-spacing:-.07em}.cls-17{letter-spacing:-.02em}.cls-19{letter-spacing:0}.cls-4{font-size:13px}.cls-7{fill:none}</style></defs><g id="_Слой_1-2" data-name="Слой 1"><rect width="937.93" height="137.82" x=".5" y=".5" class="cls-6" rx="10" ry="10"/><path d="M.5 92.38h937.92M.5 46.44h937.92m-831.59 0v91.88m119.72-91.88v91.88m119.72-91.88v91.88m119.72-91.88v91.88m119.72-91.88v91.88m119.73-91.88v91.88m119.72-91.88v91.88" class="cls-7"/><text class="cls-1" transform="translate(27.48 73.43)"><tspan x="0" y="0" style="letter-spacing:-.08em">Т</tspan><tspan x="8.66" y="0">ираж</tspan></text><text class="cls-1" transform="translate(14.5 28.43)"><tspan x="0" y="0">Пластиковые карты</tspan></text><text class="cls-1" transform="translate(129.71 73.59)"><tspan x="0" y="0">50-99 ш</tspan><tspan x="63.36" y="0" style="letter-spacing:-.07em">т</tspan><tspan x="69.98" y="0" class="cls-15">.</tspan></text><text class="cls-3" transform="translate(148.22 119.08)"><tspan x="0" y="0">25 </tspan><tspan x="23.47" y="0" class="cls-14">р</tspan><tspan x="33.15" y="0">.</tspan></text><text class="cls-1" transform="translate(239.84 73.59)"><tspan x="0" y="0">100-299 ш</tspan><tspan x="82.56" y="0" class="cls-12">т</tspan><tspan x="89.18" y="0">.</tspan></text><text class="cls-3" transform="translate(267.94 119.08)"><tspan x="0" y="0">20 </tspan><tspan x="23.47" y="0" class="cls-14">р</tspan><tspan x="33.15" y="0">.</tspan></text><text class="cls-1" transform="translate(359.56 73.59)"><tspan x="0" y="0">300-499 ш</tspan><tspan x="82.56" y="0" class="cls-12">т</tspan><tspan x="89.18" y="0">.</tspan></text><text class="cls-3" transform="translate(387.66 119.08)"><tspan x="0" y="0">18 </tspan><tspan x="23.47" y="0" class="cls-14">р</tspan><tspan x="33.15" y="0">.</tspan></text><text class="cls-1" transform="translate(479.28 73.59)"><tspan x="0" y="0">300-499 ш</tspan><tspan x="82.56" y="0" class="cls-12">т</tspan><tspan x="89.18" y="0">.</tspan></text><text class="cls-3" transform="translate(507.38 119.08)"><tspan x="0" y="0">16 </tspan><tspan x="23.47" y="0" class="cls-14">р</tspan><tspan x="33.15" y="0">.</tspan></text><text class="cls-1" transform="translate(709.12 73.59)"><tspan x="0" y="0">3000-4999 ш</tspan><tspan x="101.76" y="0" class="cls-16">т</tspan><tspan x="108.38" y="0" class="cls-19">.</tspan></text><text class="cls-1" transform="translate(589.4 73.59)"><tspan x="0" y="0">1000-2999 ш</tspan><tspan x="101.76" y="0" class="cls-16">т</tspan><tspan x="108.38" y="0" class="cls-19">.</tspan></text><text class="cls-3" transform="translate(627.1 119.08)"><tspan x="0" y="0">13 </tspan><tspan x="23.47" y="0" class="cls-14">р</tspan><tspan x="33.15" y="0">.</tspan></text><text class="cls-1" transform="translate(840.64 73.59)"><tspan x="0" y="0">от 5000 ш</tspan><tspan x="78.17" y="0" class="cls-12">т</tspan><tspan x="84.8" y="0">.</tspan></text><text class="cls-3" transform="translate(866.55 119.08)"><tspan x="0" y="0">12 </tspan><tspan x="23.47" y="0" class="cls-14">р</tspan><tspan x="33.15" y="0">.</tspan></text><text class="cls-1" transform="translate(32.58 118.92)"><tspan x="0" y="0">Цена</tspan></text><rect width="937.93" height="229.7" x=".5" y="203.86" class="cls-6" rx="10" ry="10"/><path d="M.5 341.68h937.93m-202.28 45.94h202.28m-937.93 0h351.83M.5 249.8h937.93m-810.8 0v183.76m104-183.76v183.76m120.7-183.76v183.76M489.9 249.8v183.76m95.34-183.76v183.76M674.2 249.8v183.76m61.95-183.76v183.76M837.29 249.8v183.76" class="cls-7"/><text style="fill:#27625f;font-family:Mulish-Bold,Mulish;font-weight:700;font-size:15px" transform="translate(7.96 299.98)"><tspan x="0" y="0">Наименование</tspan></text><text class="cls-1" transform="translate(14.5 232.08)"><tspan x="0" y="0">Доп</tspan><tspan x="32.69" y="0" style="letter-spacing:0">о</tspan><tspan x="42.22" y="0" class="cls-15">лни</tspan><tspan x="71.7" y="0" style="letter-spacing:0">т</tspan><tspan x="79.36" y="0">ельные </tspan><tspan x="143.01" y="0" style="letter-spacing:0">у</tspan><tspan x="151.79" y="0">слуги</tspan></text><text class="cls-1" transform="translate(22.55 370.94)"><tspan x="0" y="0">50-499 ш</tspan><tspan x="72.96" y="0" class="cls-12">т</tspan><tspan x="79.58" y="0">.</tspan></text><text class="cls-4" transform="translate(144.79 285.41)"><tspan x="0" y="0">Магнитная</tspan><tspan x="12.56" y="14">п</tspan><tspan x="20.55" y="14" style="letter-spacing:-.01em">о</tspan><tspan x="28.3" y="14">лоса</tspan><tspan x="-11.45" y="28">+кодирование</tspan></text><path d="M238.1 285.54q-.945 0-1.77-.3c-.825-.3-1.01-.47-1.38-.82l.55-1.33c.41.34.81.59 1.22.74.41.16.86.23 1.35.23.91 0 1.62-.26 2.12-.79q.765-.795.81-2.28l.46.4h-4.82v-1.31h4.8l-.44.44c-.04-.94-.31-1.66-.81-2.18-.49-.52-1.18-.77-2.07-.77-.49 0-.95.07-1.36.22s-.83.39-1.27.74l-.55-1.31c.4-.36.88-.63 1.43-.83s1.15-.29 1.79-.29c.95 0 1.77.19 2.45.58s1.2.93 1.57 1.63.55 1.53.55 2.5-.18 1.8-.55 2.5c-.36.71-.89 1.25-1.58 1.64s-1.52.58-2.5.58Zm6.27-.13v-6.56h1.35l2.26 3.93 2.26-3.93h1.35v6.56h-1.43v-4.75h.3l-2.11 3.68h-.75l-2.11-3.68h.3v4.75h-1.43Zm12.15.13c-1.03 0-1.85-.31-2.46-.94-.61-.62-.92-1.54-.92-2.74v-1.12c0-1.24.28-2.24.84-2.99q.84-1.125 2.55-1.5l2.4-.55.44 1.27-2.7.6c-.45.1-.82.28-1.12.54-.29.27-.52.58-.66.94-.15.36-.22.75-.22 1.17v.69h-.22q.135-.585.48-1.02c.22-.29.51-.52.86-.68.35-.17.74-.25 1.18-.25.55 0 1.04.13 1.46.38s.75.62.99 1.1.36 1.06.36 1.72-.14 1.28-.41 1.78-.66.89-1.14 1.16c-.49.27-1.06.41-1.72.41Zm-.05-1.24c.54 0 .96-.17 1.25-.51.3-.34.45-.86.45-1.54s-.15-1.18-.45-1.53-.72-.53-1.25-.53-.94.17-1.25.52c-.3.35-.46.84-.46 1.48 0 .7.15 1.23.46 1.58.3.35.72.53 1.25.53m7.88 1.24c-.68 0-1.26-.14-1.75-.42s-.88-.67-1.15-1.18-.41-1.12-.41-1.82.14-1.31.41-1.81.66-.9 1.15-1.18 1.08-.42 1.75-.42 1.26.14 1.76.42.88.67 1.16 1.18c.27.51.41 1.11.41 1.81s-.14 1.31-.41 1.82-.66.91-1.16 1.18c-.5.28-1.09.42-1.76.42m0-1.25c.51 0 .92-.18 1.22-.54s.46-.9.46-1.63-.15-1.27-.46-1.62c-.3-.36-.71-.53-1.22-.53s-.92.18-1.22.53q-.45.54-.45 1.62c0 1.08.15 1.27.45 1.63s.71.54 1.22.54m7.93 1.25q-1.02 0-1.77-.42c-.51-.28-.9-.67-1.18-1.19s-.42-1.13-.42-1.84.14-1.32.42-1.82.67-.89 1.18-1.16c.5-.27 1.09-.4 1.77-.4.43 0 .86.07 1.27.2s.75.33 1.01.58l-.49 1.13c-.23-.22-.5-.38-.79-.49s-.57-.16-.85-.16c-.58 0-1.03.18-1.36.54-.33.37-.49.89-.49 1.59s.16 1.23.49 1.6c.32.37.78.56 1.36.56.27 0 .55-.05.84-.16.29-.1.56-.26.8-.48l.49 1.12c-.27.25-.61.45-1.02.58s-.83.21-1.25.21Zm3.66-.13v-6.56h1.47v4.96h-.39l3.73-4.96h1.34v6.56h-1.47v-4.98h.4l-3.74 4.98zm8.05 2.81v-7.74c0-.27 0-.54-.03-.82-.02-.28-.04-.55-.08-.82h1.57l.14 1.38h-.14c.13-.46.41-.83.83-1.1s.91-.41 1.46-.41 1.09.14 1.52.41.77.66 1.01 1.17q.36.765.36 1.83c0 1.065-.12 1.32-.36 1.83s-.58.9-1.01 1.18-.94.41-1.52.41c-.55 0-1.03-.13-1.44-.4-.42-.27-.69-.63-.83-1.08h.14v4.16zm3.3-3.93c.52 0 .94-.18 1.25-.54s.47-.9.47-1.63-.16-1.27-.47-1.62-.73-.53-1.25-.53-.92.18-1.24.53c-.31.36-.47.9-.47 1.62s.16 1.27.47 1.63.72.54 1.24.54m7.91 1.25c-.68 0-1.26-.14-1.75-.42s-.88-.67-1.15-1.18-.41-1.12-.41-1.82.14-1.31.41-1.81c.27-.51.66-.9 1.15-1.18s1.08-.42 1.75-.42 1.26.14 1.76.42.88.67 1.16 1.18.41 1.11.41 1.81-.14 1.31-.41 1.82-.66.91-1.16 1.18c-.5.28-1.08.42-1.76.42m0-1.25c.51 0 .92-.18 1.22-.54s.46-.9.46-1.63-.15-1.27-.46-1.62c-.3-.36-.71-.53-1.22-.53s-.92.18-1.22.53-.45.9-.45 1.62.15 1.27.45 1.63.71.54 1.22.54m4.86 1.12v-6.56h3.5c.82 0 1.43.15 1.81.45s.57.72.57 1.27c0 .42-.14.76-.42 1.04s-.65.45-1.11.52v-.18c.56.04 1 .2 1.3.49s.46.68.46 1.14c0 .56-.22 1.01-.65 1.34s-1.05.49-1.85.49zm1.51-3.85h1.79c.35 0 .62-.08.81-.23s.29-.37.29-.64-.09-.49-.29-.64c-.19-.15-.46-.22-.81-.22h-1.79zm0 2.85h1.94c.38 0 .67-.08.88-.23q.3-.24.3-.69c0-.45-.1-.53-.3-.69s-.5-.23-.88-.23h-1.94v1.85Zm8.6 1.13c-.57 0-1.07-.14-1.51-.41s-.77-.67-1.01-1.18-.37-1.12-.37-1.83.12-1.32.37-1.83c.24-.51.58-.9 1.01-1.17s.94-.41 1.51-.41 1.04.14 1.46.41.7.64.84 1.1h-.14l.14-1.38h1.56c-.03.27-.05.54-.07.82s-.03.55-.03.82v4.93h-1.61v-1.35h.14q-.21.675-.84 1.08c-.43.27-.91.4-1.44.4Zm.46-1.25q.765 0 1.23-.54c.31-.36.47-.9.47-1.63s-.16-1.27-.47-1.62-.72-.53-1.23-.53-.92.18-1.23.53c-.31.36-.47.9-.47 1.62s.15 1.27.46 1.63.72.54 1.24.54m5.2 1.12v-6.56h1.61v2.57h2.96v-2.57h1.61v6.56h-1.61v-2.74h-2.96v2.74zm8.03 0v-6.56h1.47v4.96h-.39l3.73-4.96h1.34v6.56h-1.47v-4.98h.4l-3.74 4.98zm11.22.13c-1.1 0-1.96-.3-2.59-.91-.62-.61-.94-1.44-.94-2.5 0-.69.13-1.28.4-1.79s.64-.91 1.12-1.2 1.04-.43 1.68-.43 1.16.13 1.59.4c.42.27.75.65.97 1.13s.33 1.05.33 1.7v.43h-4.78v-.86h3.63l-.22.18c0-.61-.13-1.07-.38-1.39q-.39-.48-1.11-.48c-.54 0-.95.19-1.24.57s-.44.92-.44 1.6v.17c0 .71.18 1.24.53 1.59s.85.53 1.49.53q.555 0 1.05-.15c.33-.1.63-.26.93-.49l.48 1.09c-.31.25-.68.45-1.12.58s-.89.21-1.38.21Zm10.04-.64v-2.65h-2.61v-1.14h2.61v-2.59h1.18v2.59h2.6v1.14h-2.6v2.65zm-93.54 14.51v-5.29h-2.25v-1.27h6.12v1.27h-2.26v5.29zm4.88 0v-6.56h1.47v4.96h-.39l3.73-4.96h1.34v6.56h-1.47v-4.98h.4l-3.74 4.98zm7.99 0v-6.56h6.15v6.56h-1.61v-5.32h-2.92v5.32h-1.61Zm8 0v-6.56h1.47v4.96h-.39l3.73-4.96h1.34v6.56h-1.47v-4.98h.4l-3.74 4.98zm8.04 2.81v-7.74c0-.27 0-.54-.03-.82s-.04-.55-.08-.82h1.57l.14 1.38h-.14c.13-.46.41-.83.83-1.1s.91-.41 1.46-.41 1.09.14 1.52.41.77.66 1.01 1.17q.36.765.36 1.83c0 1.065-.12 1.32-.36 1.83s-.58.9-1.01 1.18c-.43.27-.94.41-1.52.41-.55 0-1.03-.13-1.44-.4-.42-.27-.69-.63-.83-1.08h.14v4.16zm3.3-3.93c.52 0 .94-.18 1.25-.54s.47-.9.47-1.63-.16-1.27-.47-1.62-.73-.53-1.25-.53-.92.18-1.23.53c-.31.36-.47.9-.47 1.62s.16 1.27.47 1.63q.465.54 1.23.54m7.91 1.25c-.68 0-1.26-.14-1.75-.42s-.88-.67-1.15-1.18-.41-1.12-.41-1.82.14-1.31.41-1.81.66-.9 1.15-1.18 1.08-.42 1.75-.42 1.26.14 1.76.42.88.67 1.16 1.18c.27.51.41 1.11.41 1.81s-.14 1.31-.41 1.82-.66.91-1.16 1.18c-.5.28-1.09.42-1.76.42m0-1.25c.51 0 .92-.18 1.22-.54s.46-.9.46-1.63-.15-1.27-.46-1.62c-.3-.36-.71-.53-1.22-.53s-.92.18-1.22.53q-.45.54-.45 1.62c0 1.08.15 1.27.45 1.63s.71.54 1.22.54m4.86 1.12v-6.56h3.5c.82 0 1.43.15 1.81.45s.57.72.57 1.27c0 .42-.14.76-.42 1.04s-.65.45-1.1.52v-.18c.56.04 1 .2 1.3.49s.46.68.46 1.14c0 .56-.22 1.01-.65 1.34s-1.05.49-1.85.49h-3.61Zm1.51-3.85h1.79c.35 0 .62-.08.8-.23.19-.15.29-.37.29-.64s-.1-.49-.29-.64-.46-.22-.8-.22h-1.79zm0 2.85h1.94c.38 0 .67-.08.88-.23.2-.16.31-.39.31-.69s-.1-.53-.31-.69c-.2-.16-.5-.23-.88-.23h-1.94v1.85Zm8.61 1.13c-.57 0-1.07-.14-1.51-.41-.43-.27-.77-.67-1.02-1.18q-.36-.765-.36-1.83c0-1.065.12-1.32.36-1.83q.36-.765 1.02-1.17c.43-.27.94-.41 1.51-.41s1.04.14 1.46.41.7.64.84 1.1h-.14l.14-1.38h1.56c-.03.27-.05.54-.07.82s-.03.55-.03.82v4.93h-1.61v-1.35h.14q-.21.675-.84 1.08c-.43.27-.91.4-1.44.4Zm.46-1.25q.765 0 1.23-.54c.31-.36.47-.9.47-1.63s-.16-1.27-.47-1.62-.72-.53-1.23-.53-.92.18-1.23.53c-.31.36-.47.9-.47 1.62s.15 1.27.46 1.63.72.54 1.24.54m5.19 1.12v-6.56h1.61v2.57h2.96v-2.57h1.61v6.56h-1.61v-2.74h-2.96v2.74zm8.03 0v-6.56h1.47v4.96h-.39l3.73-4.96h1.34v6.56h-1.47v-4.98h.4l-3.74 4.98zm11.22.13c-1.1 0-1.96-.3-2.59-.91-.62-.61-.94-1.44-.94-2.5 0-.69.13-1.28.4-1.79s.64-.91 1.12-1.2 1.04-.43 1.68-.43 1.16.13 1.59.4.75.65.97 1.13.33 1.05.33 1.7v.43h-4.79v-.86h3.63l-.22.18c0-.61-.13-1.07-.38-1.39s-.63-.48-1.11-.48c-.54 0-.95.19-1.24.57s-.44.92-.44 1.6v.17c0 .71.18 1.24.53 1.59s.85.53 1.49.53q.555 0 1.05-.15c.32-.1.63-.26.93-.49l.48 1.09c-.31.25-.69.45-1.12.58q-.645.21-1.38.21Zm-77.81 16.21c-.41-.64-.74-1.27-.99-1.88s-.44-1.24-.55-1.88-.17-1.3-.17-2 .06-1.37.17-2 .3-1.26.55-1.87.59-1.24.99-1.87h1.3c-.45 1-.79 1.97-1.01 2.91s-.33 1.89-.33 2.84.11 1.89.33 2.83.56 1.92 1.01 2.92zm4.94-2.21c-.59 0-1.14-.07-1.66-.21s-.95-.34-1.29-.6l.46-1.07c.32.23.7.41 1.12.53.43.12.88.18 1.36.18.55 0 .96-.08 1.21-.23.26-.15.38-.38.38-.67q0-.42-.3-.63c-.3-.21-.49-.21-.88-.21h-1.7v-1.12h1.55c.36 0 .63-.07.82-.21a.68.68 0 0 0 .29-.58c0-.27-.11-.48-.34-.64s-.6-.23-1.12-.23c-.45 0-.86.05-1.24.16-.37.11-.72.27-1.05.47l-.44-1.01c.35-.25.79-.44 1.29-.57.51-.13 1.06-.2 1.66-.2q1.32 0 2.01.48c.47.32.7.78.7 1.36 0 .4-.14.74-.41 1.03s-.64.46-1.1.53v-.18c.54.04.96.2 1.27.48.31.29.47.67.47 1.16 0 .6-.26 1.08-.79 1.43s-1.28.53-2.26.53Zm7.06 0c-.57 0-1.07-.14-1.51-.41s-.77-.67-1.01-1.18q-.36-.765-.36-1.83c0-1.065.12-1.32.36-1.83s.58-.9 1.01-1.17.94-.41 1.51-.41 1.04.14 1.46.41.7.64.84 1.1h-.14l.14-1.38h1.56c-.03.27-.05.54-.07.82s-.03.55-.03.82v4.93h-1.61v-1.35h.14c-.14.45-.42.81-.85 1.08-.42.27-.91.4-1.44.4m.46-1.25c.51 0 .92-.18 1.24-.54.31-.36.47-.9.47-1.63s-.16-1.27-.47-1.62c-.31-.36-.72-.53-1.24-.53s-.92.18-1.23.53-.47.9-.47 1.62.15 1.27.46 1.63.72.54 1.24.54m8.75 1.12v-6.56h1.61v2.57h2.96v-2.57h1.61v6.56h-1.61v-2.74h-2.96v2.74zm10.62.13c-.57 0-1.07-.14-1.51-.41s-.77-.67-1.01-1.18q-.36-.765-.36-1.83c0-1.065.12-1.32.36-1.83s.58-.9 1.01-1.17.94-.41 1.51-.41 1.04.14 1.46.41.7.64.84 1.1h-.14l.14-1.38h1.56c-.03.27-.05.54-.07.82s-.03.55-.03.82v4.93h-1.61v-1.35h.14c-.14.45-.42.81-.85 1.08-.42.27-.91.4-1.44.4m.46-1.25c.51 0 .92-.18 1.24-.54.31-.36.47-.9.47-1.63s-.16-1.27-.47-1.62c-.31-.36-.72-.53-1.24-.53s-.92.18-1.23.53-.47.9-.47 1.62.15 1.27.46 1.63.72.54 1.24.54m4.61 2.81v-2.92h.75q.39-.615.57-1.44c.12-.55.17-1.22.17-2.02v-1.87h5.06v5.33h1.07v2.92h-1.38v-1.69h-4.86v1.69zm2.21-2.91h2.82v-4.12h-2.16v1.01c0 .58-.06 1.15-.17 1.7s-.28 1.02-.49 1.4Zm6.61 1.22v-6.56h6.15v6.56h-1.61v-5.32h-2.93v5.32zm7.99 0v-6.56h1.47v4.96h-.39l3.73-4.96h1.34v6.56h-1.47v-4.98h.4l-3.74 4.98zm11.07.13c-.68 0-1.27-.14-1.78-.42s-.9-.67-1.18-1.19-.42-1.13-.42-1.84.14-1.32.42-1.82.67-.89 1.18-1.16c.5-.27 1.09-.4 1.77-.4.43 0 .86.07 1.27.2s.75.33 1.01.58l-.49 1.13c-.23-.22-.5-.38-.79-.49s-.57-.16-.85-.16c-.58 0-1.03.18-1.36.54-.32.37-.49.89-.49 1.59s.16 1.23.49 1.6.78.56 1.36.56c.27 0 .55-.05.84-.16s.56-.26.8-.48l.49 1.12c-.27.25-.61.45-1.02.58s-.83.21-1.25.21Zm3.66-.13v-6.56h1.61v2.2h1.73c.88 0 1.53.18 1.98.55q.66.555.66 1.59c0 .45-.1.84-.31 1.18-.21.33-.51.59-.9.77s-.87.27-1.42.27h-3.34Zm1.61-1.07h1.51c.44 0 .78-.09 1.01-.28s.35-.47.35-.85-.12-.66-.35-.84q-.345-.27-1.02-.27h-1.51v2.24Zm6.4 3.41h-1.3c.45-1 .79-1.97 1.01-2.92s.33-1.9.33-2.84-.11-1.89-.33-2.83-.56-1.92-1.01-2.91h1.3c.42.63.75 1.26 1 1.87s.43 1.24.55 1.88c.11.64.17 1.3.17 2s-.06 1.36-.17 2-.29 1.27-.55 1.88c-.25.62-.59 1.24-1 1.87m38.13-28.2v-2.15h-7.89v-9.17h1.65v7.79h4.71v-7.79h1.66v7.79h1.34v3.52h-1.47Zm2.69-2.14v-6.57h3.5c.82 0 1.43.15 1.81.45s.57.72.57 1.27c0 .42-.14.76-.42 1.04s-.65.45-1.1.52v-.18c.56.04 1 .2 1.3.49s.46.68.46 1.14c0 .56-.22 1.01-.65 1.34s-1.05.49-1.85.49h-3.61Zm1.51-3.85h1.79c.35 0 .62-.08.81-.23s.29-.37.29-.64-.1-.49-.29-.64-.46-.22-.81-.22h-1.79zm0 2.85h1.94c.38 0 .67-.08.88-.23.2-.16.3-.38.3-.69s-.1-.53-.3-.69-.5-.23-.88-.23h-1.94v1.85Zm9.24 1.13c-1.1 0-1.96-.3-2.59-.91-.62-.61-.94-1.44-.94-2.5 0-.68.13-1.28.4-1.79s.64-.91 1.12-1.2 1.04-.43 1.68-.43 1.16.13 1.59.4.75.65.97 1.13c.22.49.33 1.05.33 1.7v.43h-4.78v-.86h3.63l-.22.18c0-.61-.13-1.07-.38-1.39q-.39-.48-1.11-.48c-.54 0-.95.19-1.24.57s-.44.91-.44 1.6v.17c0 .71.18 1.24.53 1.59s.85.53 1.49.53q.555 0 1.05-.15c.495-.15.63-.26.93-.49l.48 1.09c-.31.25-.68.45-1.12.58q-.645.21-1.38.21Zm5.5-.13v-5.29h-2.25v-1.27h6.12v1.27h-2.26v5.29zm4.87 0v-6.57h1.61v2.57h2.96v-2.57h1.61v6.57h-1.61v-2.74h-2.96v2.74zm11.05.13c-.68 0-1.26-.14-1.75-.42s-.88-.67-1.15-1.18-.41-1.12-.41-1.82.14-1.31.41-1.81c.27-.51.66-.9 1.15-1.18s1.08-.42 1.75-.42 1.26.14 1.76.42.88.67 1.16 1.18c.27.51.41 1.11.41 1.81s-.14 1.31-.41 1.82-.66.91-1.16 1.18-1.08.42-1.76.42m0-1.25c.51 0 .92-.18 1.22-.54s.46-.9.46-1.63-.15-1.27-.46-1.62c-.3-.35-.71-.53-1.22-.53s-.92.18-1.22.53c-.3.36-.46.9-.46 1.62s.15 1.27.46 1.63.71.54 1.22.54m4.87 1.12v-6.57h1.47v4.97h-.39l3.73-4.97h1.34v6.57h-1.47v-4.98h.4l-3.74 4.98zm3.07-7.16c-.43 0-.82-.07-1.14-.21-.33-.14-.6-.35-.82-.61s-.37-.58-.47-.94l.83-.29c.15.4.35.69.61.88s.59.28 1 .28.74-.09 1-.27.47-.47.64-.87l.79.27q-.27.87-.9 1.32c-.42.3-.93.45-1.54.45Zm8.48 7.16v-6.57h6.15v6.57h-1.61v-5.32h-2.92v5.32h-1.61Zm7.83.18-.51-1.27c.29-.1.53-.24.72-.41.2-.17.35-.39.47-.65s.2-.59.25-.99c.05-.39.08-.86.08-1.41v-2.02h5.23v6.57h-1.61v-5.32h-2.13v.82c0 .94-.09 1.74-.26 2.37-.17.64-.44 1.14-.81 1.52-.36.37-.84.64-1.43.79m10.67-.05c-.57 0-1.07-.14-1.51-.41-.43-.27-.77-.67-1.01-1.18q-.36-.765-.36-1.83c0-1.065.12-1.32.36-1.83s.58-.9 1.01-1.17.94-.41 1.51-.41 1.04.14 1.46.41.7.64.84 1.1h-.14l.14-1.38h1.56c-.03.27-.05.54-.07.82s-.03.55-.03.82v4.93h-1.61v-1.35h.14q-.21.675-.84 1.08c-.42.27-.91.4-1.44.4Zm.46-1.25c.51 0 .92-.18 1.24-.54.31-.36.47-.9.47-1.63s-.16-1.27-.47-1.62-.72-.53-1.24-.53-.92.18-1.23.53c-.31.36-.47.9-.47 1.62s.15 1.27.46 1.63.72.54 1.24.54m8.26 1.25q-1.02 0-1.77-.42c-.75-.42-.9-.67-1.18-1.19s-.42-1.13-.42-1.84.14-1.32.42-1.82.67-.89 1.18-1.16c.5-.27 1.09-.4 1.77-.4.43 0 .86.07 1.27.2s.75.33 1.01.58l-.49 1.13c-.23-.22-.5-.38-.79-.49s-.57-.16-.85-.16c-.58 0-1.03.18-1.36.55-.33.36-.49.89-.49 1.59s.16 1.23.49 1.6.78.56 1.36.56c.27 0 .55-.05.84-.16.29-.1.56-.26.8-.48l.49 1.12c-.27.25-.61.45-1.02.58-.41.14-.83.21-1.25.21Zm5.09-.13v-5.29h-2.25v-1.27h6.12v1.27h-2.26v5.29zm4.87 0v-6.57h1.47v4.97h-.39l3.73-4.97h1.34v6.57h-1.47v-4.98h.4l-3.74 4.98zm8 0v-6.57h1.61v2.57h.99l1.92-2.57h1.74l-2.42 3.28-.35-.51c.24.03.46.09.64.2.19.1.36.25.53.44s.34.42.5.71l1.38 2.46h-1.73l-1.12-1.98c-.11-.2-.23-.36-.34-.47a.9.9 0 0 0-.38-.23q-.21-.06-.51-.06h-.87v2.74h-1.61Zm13.36-.51v-2.65h-2.61v-1.14h2.61v-2.59h1.18v2.59h2.6v1.14h-2.6v2.65zm-110.28 16.85c-.41-.64-.74-1.27-.99-1.88s-.44-1.24-.55-1.88-.17-1.3-.17-2 .06-1.37.17-2 .3-1.26.55-1.87.59-1.24.99-1.87h1.3c-.45 1-.79 1.96-1.01 2.91a12.36 12.36 0 0 0 0 5.67c.22.94.56 1.92 1.01 2.92zm4.94-2.21c-.59 0-1.14-.07-1.66-.21q-.78-.21-1.29-.6l.46-1.07c.32.23.7.41 1.12.53.43.12.88.18 1.36.18.55 0 .96-.08 1.21-.23.26-.15.38-.38.38-.67q0-.42-.3-.63c-.2-.14-.49-.21-.88-.21h-1.7v-1.12h1.55c.36 0 .63-.07.82-.21s.29-.33.29-.59c0-.27-.11-.48-.34-.64s-.6-.23-1.12-.23c-.45 0-.86.05-1.24.16-.37.11-.72.27-1.05.47l-.44-1.01c.35-.25.79-.44 1.29-.57s1.06-.19 1.66-.19c.88 0 1.55.16 2.02.48s.7.78.7 1.37c0 .4-.14.74-.41 1.03s-.64.46-1.1.53v-.18c.54.04.96.2 1.27.48.31.29.47.67.47 1.16 0 .6-.26 1.07-.79 1.43s-1.28.53-2.26.53Zm7.48 0c-.68 0-1.26-.14-1.75-.42s-.88-.67-1.15-1.18-.41-1.12-.41-1.82.14-1.31.41-1.81c.27-.51.66-.9 1.15-1.18s1.08-.42 1.75-.42 1.26.14 1.76.42.88.67 1.16 1.18c.27.51.41 1.11.41 1.81s-.14 1.31-.41 1.82-.66.91-1.16 1.18-1.08.42-1.76.42m0-1.25c.51 0 .92-.18 1.22-.54s.46-.9.46-1.63-.15-1.27-.46-1.62c-.3-.35-.71-.53-1.22-.53s-.92.18-1.22.53c-.3.36-.46.9-.46 1.62s.15 1.27.46 1.63.71.54 1.22.54m4.57 1.3-.51-1.27c.29-.1.53-.24.72-.41.2-.17.35-.39.47-.65s.2-.59.25-.99c.05-.39.08-.86.08-1.41v-2.02h5.23v6.57h-1.61v-5.32h-2.13v.82c0 .94-.09 1.74-.26 2.37-.17.64-.44 1.14-.81 1.52-.36.37-.84.64-1.43.79m11.1-.05c-.68 0-1.26-.14-1.75-.42s-.88-.67-1.15-1.18-.41-1.12-.41-1.82.14-1.31.41-1.81c.27-.51.66-.9 1.15-1.18s1.08-.42 1.75-.42 1.26.14 1.76.42.88.67 1.16 1.18c.27.51.41 1.11.41 1.81s-.14 1.31-.41 1.82-.66.91-1.16 1.18-1.08.42-1.76.42m0-1.25c.51 0 .92-.18 1.22-.54s.46-.9.46-1.63-.15-1.27-.46-1.62c-.3-.35-.71-.53-1.22-.53s-.92.18-1.22.53c-.3.36-.46.9-.46 1.62s.15 1.27.46 1.63.71.54 1.22.54m6.28 1.12v-5.29h-2.25v-1.27h6.12v1.27h-2.26v5.29zm7.82.13c-.68 0-1.26-.14-1.75-.42s-.88-.67-1.15-1.18-.41-1.12-.41-1.82.14-1.31.41-1.81c.27-.51.66-.9 1.15-1.18s1.08-.42 1.75-.42 1.26.14 1.76.42.88.67 1.16 1.18c.27.51.41 1.11.41 1.81s-.14 1.31-.41 1.82-.66.91-1.16 1.18c-.5.28-1.09.42-1.76.42m0-1.25c.51 0 .92-.18 1.22-.54s.46-.9.46-1.63-.15-1.27-.46-1.62c-.3-.35-.71-.53-1.22-.53s-.92.18-1.22.53q-.45.54-.45 1.62c0 1.08.15 1.27.45 1.63s.71.54 1.22.54m5.24 2.85-.66-.52c.28-.29.47-.55.58-.8s.16-.51.16-.79l.35.38h-1.22v-1.81h1.82v1.2c0 .44-.08.85-.23 1.21-.15.37-.42.74-.8 1.12Zm9.28-1.6c-.68 0-1.27-.14-1.78-.42s-.9-.67-1.18-1.19-.42-1.13-.42-1.84.14-1.32.42-1.82.67-.89 1.18-1.16 1.09-.4 1.77-.4c.43 0 .86.07 1.27.2s.75.33 1.01.58l-.49 1.13c-.23-.22-.5-.38-.79-.49s-.57-.16-.85-.16c-.58 0-1.03.18-1.36.55-.33.36-.49.89-.49 1.59s.16 1.23.49 1.6.78.56 1.36.56c.27 0 .55-.05.84-.16.29-.1.56-.26.8-.48l.49 1.12c-.27.25-.61.45-1.02.58-.41.14-.83.21-1.25.21m6.89 0c-1.1 0-1.96-.3-2.59-.91-.62-.61-.94-1.44-.94-2.5 0-.68.13-1.28.4-1.79s.64-.91 1.12-1.2 1.04-.43 1.68-.43 1.16.13 1.59.4.75.65.97 1.13c.22.49.33 1.05.33 1.7v.43h-4.78v-.86h3.63l-.22.18c0-.61-.13-1.07-.38-1.39q-.39-.48-1.11-.48c-.54 0-.95.19-1.24.57s-.44.91-.44 1.6v.17c0 .71.18 1.24.53 1.59s.85.53 1.49.53q.555 0 1.05-.15c.33-.1.63-.26.93-.49l.48 1.09c-.31.25-.68.45-1.12.58q-.645.21-1.38.21Zm4.14 2.67v-7.73c0-.27 0-.54-.03-.82-.02-.28-.04-.55-.08-.82h1.57l.14 1.38h-.14c.13-.46.4-.83.83-1.1.42-.27.91-.41 1.46-.41s1.09.14 1.52.41.77.66 1.01 1.17q.36.765.36 1.83c0 1.065-.12 1.32-.36 1.83s-.58.9-1.01 1.18c-.43.27-.94.41-1.52.41-.55 0-1.03-.13-1.44-.4-.42-.27-.69-.63-.83-1.08h.14v4.16h-1.62Zm3.3-3.93c.52 0 .94-.18 1.25-.54s.47-.9.47-1.63-.16-1.27-.47-1.62-.73-.53-1.25-.53-.92.18-1.24.53c-.31.36-.47.9-.47 1.62s.16 1.27.47 1.63.72.54 1.24.54m8.11 1.26c-1.1 0-1.96-.3-2.59-.91-.62-.61-.94-1.44-.94-2.5 0-.68.13-1.28.4-1.79s.64-.91 1.12-1.2 1.04-.43 1.68-.43 1.16.13 1.59.4.75.65.97 1.13c.22.49.33 1.05.33 1.7v.43h-4.78v-.86h3.63l-.22.18c0-.61-.13-1.07-.38-1.39q-.39-.48-1.11-.48c-.54 0-.95.19-1.24.57s-.44.91-.44 1.6v.17c0 .71.18 1.24.53 1.59s.85.53 1.49.53q.555 0 1.05-.15c.495-.15.63-.26.93-.49l.48 1.09c-.31.25-.68.45-1.12.58q-.645.21-1.38.21Zm7.17 0c-1.03 0-1.85-.31-2.46-.94-.61-.62-.92-1.54-.92-2.74v-1.12c0-1.24.28-2.24.84-2.99s1.41-1.25 2.55-1.49l2.41-.55.44 1.27-2.7.6c-.45.1-.82.28-1.12.54-.29.26-.52.58-.66.94-.15.37-.22.75-.22 1.17v.69h-.22q.15-.585.48-1.02c.23-.29.51-.52.86-.68s.74-.25 1.18-.25c.55 0 1.04.13 1.46.38.42.26.75.62.99 1.11.24.48.36 1.05.36 1.72s-.14 1.28-.41 1.78-.65.89-1.14 1.16-1.06.41-1.72.41Zm-.05-1.23c.54 0 .96-.17 1.25-.51.3-.34.45-.86.45-1.54s-.15-1.18-.46-1.53c-.3-.35-.72-.53-1.25-.53s-.95.17-1.25.52-.46.84-.46 1.48c0 .7.15 1.23.46 1.58.3.35.72.53 1.25.53Zm4.91 3.9v-7.73c0-.27 0-.54-.03-.82-.02-.28-.04-.55-.08-.82h1.57l.14 1.38h-.14c.13-.46.4-.83.83-1.1.42-.27.91-.41 1.46-.41s1.09.14 1.52.41.77.66 1.01 1.17q.36.765.36 1.83c0 1.065-.12 1.32-.36 1.83s-.58.9-1.01 1.18c-.43.27-.94.41-1.52.41-.55 0-1.03-.13-1.44-.4-.42-.27-.69-.63-.83-1.08h.14v4.16h-1.62Zm3.3-3.93c.52 0 .94-.18 1.25-.54s.47-.9.47-1.63-.16-1.27-.47-1.62-.73-.53-1.25-.53-.92.18-1.24.53c-.31.36-.47.9-.47 1.62s.16 1.27.47 1.63.72.54 1.24.54m7.9 1.26c-.68 0-1.26-.14-1.76-.42-.49-.28-.88-.67-1.15-1.18s-.41-1.12-.41-1.82.14-1.31.41-1.81c.27-.51.66-.9 1.15-1.18s1.08-.42 1.76-.42 1.26.14 1.76.42.88.67 1.16 1.18c.27.51.41 1.11.41 1.81s-.14 1.31-.41 1.82-.66.91-1.16 1.18c-.5.28-1.08.42-1.76.42m0-1.25c.51 0 .92-.18 1.22-.54s.46-.9.46-1.63-.15-1.27-.46-1.62c-.3-.35-.71-.53-1.22-.53s-.92.18-1.22.53c-.3.36-.46.9-.46 1.62s.15 1.27.46 1.63.71.54 1.22.54m5.24 2.85-.66-.52c.28-.29.47-.55.58-.8s.16-.51.16-.79l.35.38h-1.22v-1.81h1.82v1.2c0 .44-.08.85-.23 1.21-.15.37-.42.74-.8 1.12Zm-91.06 12.27v-6.57h6.15v6.57h-1.61v-5.32h-2.92v5.32h-1.61Zm11.22.13c-1.1 0-1.96-.3-2.59-.91-.62-.61-.94-1.44-.94-2.5 0-.68.13-1.28.4-1.79s.64-.91 1.12-1.2 1.04-.43 1.68-.43 1.16.13 1.59.4.75.65.97 1.13c.22.49.33 1.05.33 1.7v.43h-4.78v-.86h3.63l-.22.18c0-.61-.13-1.07-.38-1.39q-.39-.48-1.11-.48c-.54 0-.95.19-1.24.57s-.44.91-.44 1.6v.17c0 .71.18 1.24.53 1.59s.85.53 1.49.53q.555 0 1.05-.15c.495-.15.63-.26.93-.49l.48 1.09c-.31.25-.68.45-1.12.58q-.645.21-1.38.21Zm4.14 2.67v-7.73c0-.27 0-.54-.03-.82-.02-.28-.04-.55-.08-.82h1.57l.14 1.38h-.14c.13-.46.41-.83.83-1.1s.91-.41 1.46-.41 1.09.14 1.52.41.77.66 1.01 1.17q.36.765.36 1.83c0 1.065-.12 1.32-.36 1.83s-.58.9-1.01 1.18c-.43.27-.94.41-1.52.41-.55 0-1.03-.13-1.44-.4-.42-.27-.69-.63-.83-1.08h.14v4.16h-1.62Zm3.3-3.93c.52 0 .94-.18 1.25-.54s.47-.9.47-1.63-.16-1.27-.47-1.62-.73-.53-1.25-.53-.92.18-1.23.53c-.31.36-.47.9-.47 1.62s.16 1.27.47 1.63q.465.54 1.23.54m4.59 1.31-.51-1.27c.29-.1.53-.24.72-.41.2-.17.35-.39.47-.65s.2-.59.25-.99.08-.86.08-1.41v-2.02h5.23v6.57h-1.61v-5.32h-2.13v.82c0 .94-.09 1.74-.26 2.37-.17.64-.44 1.14-.81 1.52-.36.37-.84.64-1.43.79m10.67-.05c-.57 0-1.07-.14-1.51-.41-.43-.27-.77-.67-1.01-1.18q-.36-.765-.36-1.83c0-1.065.12-1.32.36-1.83s.58-.9 1.01-1.17.94-.41 1.51-.41 1.04.14 1.46.41.7.64.84 1.1h-.14l.14-1.38h1.56c-.03.27-.05.54-.07.82s-.03.55-.03.82v4.93h-1.61v-1.35h.14q-.21.675-.84 1.08c-.42.27-.91.4-1.44.4Zm.46-1.25c.51 0 .92-.18 1.24-.54.31-.36.47-.9.47-1.63s-.16-1.27-.47-1.62-.72-.53-1.24-.53-.92.18-1.23.53c-.31.36-.47.9-.47 1.62s.15 1.27.46 1.63.72.54 1.24.54m5.2 1.12v-6.57h1.35l2.26 3.93 2.26-3.93h1.35v6.57h-1.43v-4.75h.3l-2.11 3.68h-.75l-2.11-3.68h.3v4.75h-1.43Zm8.99 2.95-.38-1.29c.41-.09.75-.19 1.03-.3s.51-.26.69-.44.33-.42.46-.7l.33-.77-.04.64-2.86-6.66h1.73l2.05 5.12h-.38l2.07-5.12h1.64l-2.99 6.93c-.2.47-.42.86-.65 1.16-.23.31-.49.55-.75.74-.27.19-.56.33-.88.44-.32.1-.67.19-1.05.25Zm8.85-2.95v-5.29h-2.25v-1.27h6.12v1.27h-2.26v5.29zm4.93 2.8v-7.73c0-.27 0-.54-.03-.82-.02-.28-.04-.55-.08-.82h1.57l.14 1.38h-.14c.13-.46.4-.83.83-1.1.42-.27.91-.41 1.46-.41s1.09.14 1.52.41.77.66 1.01 1.17q.36.765.36 1.83c0 1.065-.12 1.32-.36 1.83s-.58.9-1.01 1.18c-.43.27-.94.41-1.52.41-.55 0-1.03-.13-1.44-.4-.42-.27-.69-.63-.83-1.08h.14v4.16h-1.62Zm3.3-3.93c.52 0 .94-.18 1.25-.54s.47-.9.47-1.63-.16-1.27-.47-1.62-.73-.53-1.25-.53-.92.18-1.24.53c-.31.36-.47.9-.47 1.62s.16 1.27.47 1.63.72.54 1.24.54m5.44 3.47h-1.3c.45-1 .79-1.97 1.01-2.92s.33-1.89.33-2.84-.11-1.89-.33-2.83-.56-1.92-1.01-2.91h1.3c.42.63.75 1.26 1 1.87.25.62.43 1.24.55 1.88.11.64.17 1.3.17 2s-.06 1.36-.17 2-.29 1.27-.55 1.88c-.25.62-.58 1.24-1 1.87m40.33-23.34v-9.17h8.02v9.17h-1.66v-7.8h-4.71v7.8zm9.99 2.8v-7.74c0-.27 0-.54-.03-.82s-.04-.55-.08-.82h1.57l.14 1.38h-.14c.13-.46.41-.83.83-1.1s.91-.41 1.46-.41 1.09.14 1.52.41.77.66 1.01 1.17q.36.765.36 1.83c0 1.065-.12 1.32-.36 1.83s-.58.9-1.01 1.18c-.43.27-.94.41-1.52.41-.55 0-1.03-.13-1.44-.4s-.69-.63-.83-1.08h.14v4.16zm3.3-3.93c.52 0 .94-.18 1.25-.54s.47-.9.47-1.63-.16-1.27-.47-1.62c-.31-.36-.73-.53-1.25-.53s-.92.18-1.24.53c-.31.36-.47.9-.47 1.62s.16 1.27.47 1.63.72.54 1.24.54m7.91 1.26c-.68 0-1.26-.14-1.75-.42s-.88-.67-1.15-1.18-.41-1.12-.41-1.82.14-1.31.41-1.81c.27-.51.66-.9 1.15-1.18s1.08-.42 1.75-.42 1.26.14 1.76.42.88.67 1.16 1.18c.27.51.41 1.11.41 1.81s-.14 1.31-.41 1.82-.66.91-1.16 1.18c-.5.28-1.09.42-1.76.42m0-1.25c.51 0 .92-.18 1.22-.54s.46-.9.46-1.63-.15-1.27-.46-1.62-.71-.53-1.22-.53-.92.18-1.22.53q-.45.54-.45 1.62c0 1.08.15 1.27.45 1.63s.71.54 1.22.54m7.28 1.25c-.59 0-1.14-.07-1.66-.21s-.95-.34-1.29-.6l.46-1.07c.32.23.7.41 1.12.53s.88.18 1.36.18c.55 0 .96-.08 1.22-.23.25-.15.38-.38.38-.67q0-.42-.3-.63c-.3-.21-.49-.21-.88-.21h-1.7v-1.12h1.55c.36 0 .63-.07.82-.21s.29-.33.29-.58c0-.27-.12-.48-.34-.64-.23-.16-.6-.23-1.12-.23-.45 0-.86.05-1.24.16-.37.11-.72.27-1.05.47l-.44-1.01q.54-.375 1.29-.57c.51-.13 1.06-.2 1.66-.2q1.32 0 2.01.48c.47.32.7.78.7 1.37 0 .4-.14.74-.41 1.03s-.64.46-1.1.53v-.18c.54.04.96.2 1.27.48.31.29.47.67.47 1.16 0 .6-.26 1.08-.79 1.43-.53.36-1.28.53-2.26.53Zm4.52 2.67v-7.74c0-.27 0-.54-.03-.82s-.04-.55-.08-.82h1.57l.14 1.38h-.14c.13-.46.41-.83.83-1.1s.91-.41 1.46-.41 1.09.14 1.52.41.77.66 1.01 1.17q.36.765.36 1.83c0 1.065-.12 1.32-.36 1.83s-.58.9-1.01 1.18c-.43.27-.94.41-1.52.41-.55 0-1.03-.13-1.44-.4s-.69-.63-.83-1.08h.14v4.16zm3.3-3.93c.52 0 .94-.18 1.25-.54s.47-.9.47-1.63-.16-1.27-.47-1.62c-.31-.36-.73-.53-1.25-.53s-.92.18-1.24.53c-.31.36-.47.9-.47 1.62s.16 1.27.47 1.63.72.54 1.24.54m7.48 1.26c-.57 0-1.08-.14-1.51-.41s-.77-.67-1.01-1.18q-.36-.765-.36-1.83c0-1.065.12-1.32.36-1.83s.58-.9 1.01-1.17.94-.41 1.51-.41 1.04.14 1.46.41.7.64.84 1.1h-.14l.14-1.38h1.56c-.03.27-.05.54-.07.82s-.03.55-.03.82v4.93h-1.61v-1.35h.14q-.21.675-.84 1.08c-.42.27-.91.4-1.44.4Zm.46-1.25c.51 0 .92-.18 1.24-.54.31-.36.47-.9.47-1.63s-.16-1.27-.47-1.62c-.31-.36-.72-.53-1.24-.53s-.92.18-1.24.53c-.31.36-.47.9-.47 1.62s.15 1.27.46 1.63.72.54 1.24.54Zm9.37 1.12v-2.39a3.6 3.6 0 0 1-1.57.35c-.96 0-1.68-.23-2.15-.69s-.71-1.14-.71-2.05v-1.78h1.61v1.64c0 .55.12.96.36 1.2.24.25.63.37 1.17.37.25 0 .48-.03.68-.08s.39-.13.57-.25v-2.89h1.61v6.57zm3.42 0v-6.57h1.61v2.57h2.96v-2.57h1.61v6.57h-1.61v-2.74h-2.96v2.74zm8.03 0v-6.57h1.61v2.2h1.73c.88 0 1.53.19 1.98.55q.66.555.66 1.59c0 .45-.1.84-.31 1.18s-.51.59-.9.77-.87.27-1.42.27h-3.34Zm1.61-1.07h1.51c.44 0 .78-.09 1.01-.28s.35-.47.35-.85-.12-.66-.34-.84q-.345-.27-1.02-.27h-1.51zm5.19 1.07v-6.57h1.61v6.57zm3.46 0v-6.57h1.47v4.97h-.39l3.73-4.97h1.34v6.57h-1.47v-4.98h.4l-3.74 4.98zm3.07-7.16c-.43 0-.82-.07-1.14-.21s-.6-.35-.82-.61c-.22-.27-.37-.58-.47-.94l.83-.29c.15.4.35.69.61.88s.59.28 1 .28.74-.09 1-.27.47-.47.64-.87l.79.27q-.27.87-.9 1.32c-.42.3-.93.45-1.54.45Zm-63.07 21.16v-6.57h6.15v6.57h-1.61v-5.32h-2.92v5.32h-1.61Zm7.82.18-.51-1.27c.29-.1.53-.24.72-.41s.35-.39.47-.65.2-.59.25-.99c.05-.39.08-.86.08-1.41v-2.01h5.23v6.57h-1.61v-5.32h-2.13v.82c0 .94-.09 1.73-.26 2.37s-.44 1.14-.81 1.51c-.36.37-.84.64-1.43.79m10.68-.05c-.57 0-1.08-.14-1.51-.41s-.77-.67-1.01-1.18q-.36-.765-.36-1.83c0-1.065.12-1.32.36-1.83s.58-.9 1.01-1.17.94-.41 1.51-.41 1.04.14 1.46.41.7.64.84 1.1h-.14l.14-1.38h1.56c-.03.27-.05.54-.07.82s-.03.55-.03.82v4.93h-1.61v-1.35h.14q-.21.675-.84 1.08c-.42.27-.91.4-1.44.4Zm.46-1.25c.51 0 .92-.18 1.24-.54.31-.36.47-.9.47-1.63s-.16-1.27-.47-1.62c-.31-.36-.72-.53-1.24-.53s-.92.18-1.24.53c-.31.36-.47.9-.47 1.62s.15 1.27.46 1.63.72.54 1.24.54Zm8.26 1.25c-.68 0-1.27-.14-1.78-.42s-.9-.67-1.18-1.19-.42-1.13-.42-1.84.14-1.32.42-1.82.67-.89 1.18-1.16c.5-.27 1.09-.4 1.77-.4.43 0 .86.07 1.27.2s.75.33 1.01.58l-.49 1.13c-.23-.22-.5-.38-.79-.49s-.57-.16-.85-.16c-.58 0-1.03.18-1.36.55-.33.36-.49.89-.49 1.59s.16 1.23.49 1.6.78.56 1.36.56c.27 0 .55-.05.84-.16.29-.1.56-.26.8-.48l.49 1.12c-.27.25-.61.45-1.02.59s-.83.21-1.25.21Zm5.08-.13v-5.29h-2.25v-1.27h6.12v1.27h-2.26v5.29zm4.88 0v-6.57h1.47v4.97h-.39l3.73-4.97h1.34v6.57h-1.47v-4.98h.4l-3.74 4.98zm7.99 0v-6.57h1.61v2.57h.99l1.92-2.57h1.74l-2.42 3.28-.35-.51c.24.03.46.09.64.2s.36.25.53.44.34.42.5.71l1.38 2.46h-1.73l-1.12-1.98c-.11-.2-.23-.36-.34-.47s-.24-.19-.38-.23-.31-.07-.51-.07h-.87v2.74h-1.61Zm39.8-13.68v-1.35l.42.31h-.36c-.91 0-1.69-.16-2.35-.47s-1.16-.76-1.51-1.35-.53-1.29-.53-2.12c0-1.27.38-2.24 1.15-2.92s1.85-1.02 3.24-1.02h.36l-.42.31v-1.28h1.66v1.28l-.42-.31h.36c1.4 0 2.48.34 3.25 1.02s1.16 1.65 1.16 2.92c0 .83-.18 1.54-.53 2.12s-.86 1.03-1.51 1.35c-.65.31-1.44.47-2.36.47h-.36l.42-.31v1.35h-1.66Zm.01-2.02v-5.93l.35.29h-.48c-.76 0-1.38.22-1.84.67s-.7 1.12-.7 2.01q0 .87.33 1.47c.33.6.52.7.9.9.38.21.82.31 1.31.31h.48l-.35.29Zm1.65 0-.36-.29h.49c.49 0 .93-.1 1.31-.31.38-.2.68-.5.89-.9s.32-.89.32-1.47q0-1.335-.69-2.01c-.46-.45-1.07-.67-1.83-.67h-.49l.36-.29v5.93Zm8.59 1.83c-.57 0-1.08-.14-1.51-.41s-.77-.67-1.01-1.18q-.36-.765-.36-1.83c0-1.065.12-1.32.36-1.83s.58-.9 1.01-1.17.94-.41 1.51-.41 1.04.14 1.46.41.7.64.84 1.1h-.14l.14-1.38h1.56c-.03.27-.05.54-.07.82s-.03.55-.03.82v4.93h-1.61v-1.35h.14q-.21.675-.84 1.08c-.42.27-.91.4-1.44.4Zm.46-1.25c.51 0 .92-.18 1.24-.54.31-.36.47-.9.47-1.63s-.16-1.27-.47-1.62-.72-.53-1.24-.53-.92.18-1.24.53c-.31.36-.47.9-.47 1.62s.15 1.27.46 1.63.72.54 1.24.54Zm5.19 1.12v-6.57h1.61v2.57h.99l1.92-2.57h1.74l-2.42 3.28-.35-.51c.24.03.46.09.64.2.19.1.36.25.53.44s.34.42.5.71l1.38 2.46h-1.73l-1.12-1.98c-.11-.2-.23-.36-.34-.47a.9.9 0 0 0-.38-.23q-.21-.06-.51-.06h-.87v2.74h-1.61Zm8.83 0v-5.29h-2.25v-1.27h6.12v1.27h-2.26v5.29zm4.86 2.95-.38-1.29c.41-.09.75-.19 1.03-.3s.51-.26.69-.44.33-.42.46-.7l.32-.77-.04.64-2.86-6.66h1.73l2.05 5.12h-.38l2.07-5.12h1.64l-2.99 6.93c-.2.47-.42.86-.65 1.16s-.49.55-.75.74c-.27.19-.56.33-.88.44-.32.1-.67.19-1.05.25Zm7.37-.15v-7.73c0-.27 0-.54-.03-.82s-.04-.55-.08-.82h1.57l.14 1.38h-.14c.13-.46.41-.83.83-1.1s.91-.41 1.46-.41 1.09.14 1.52.41.77.66 1.01 1.17q.36.765.36 1.83c0 1.065-.12 1.32-.36 1.83s-.58.9-1.01 1.18c-.43.27-.94.41-1.52.41-.55 0-1.03-.13-1.44-.4-.42-.27-.69-.63-.83-1.08h.14v4.16h-1.62Zm3.3-3.93c.52 0 .94-.18 1.25-.54s.47-.9.47-1.63-.16-1.27-.47-1.62-.73-.53-1.25-.53-.92.18-1.24.53c-.31.36-.47.9-.47 1.62s.16 1.27.47 1.63.72.54 1.24.54m4.89 1.13v-6.57h1.61v2.57h2.96v-2.57h1.61v6.57h-1.61v-2.74h-2.96v2.74zm8.04 0v-6.57h1.61v2.2h1.73c.88 0 1.53.18 1.98.55q.66.555.66 1.59c0 .45-.1.84-.31 1.18-.21.33-.51.59-.9.77s-.87.27-1.42.27h-3.34Zm1.61-1.07h1.51c.44 0 .78-.09 1.01-.28s.35-.47.35-.85-.12-.66-.34-.84q-.345-.27-1.02-.27h-1.51zm5.19 1.07v-6.57h1.61v6.57zm6.68.13c-1.1 0-1.96-.3-2.59-.91-.62-.61-.94-1.44-.94-2.5 0-.68.13-1.28.4-1.79s.64-.91 1.12-1.2 1.04-.43 1.68-.43 1.16.13 1.59.4.75.65.97 1.13c.22.49.33 1.05.33 1.7v.43h-4.78v-.86h3.63l-.22.18c0-.61-.13-1.07-.38-1.39q-.39-.48-1.11-.48c-.54 0-.95.19-1.24.57s-.44.91-.44 1.6v.17c0 .71.18 1.24.53 1.59s.85.53 1.49.53q.555 0 1.05-.15c.495-.15.63-.26.93-.49l.48 1.09c-.31.25-.68.45-1.12.58q-.645.21-1.38.21Zm-53.58 13.87v-6.57h1.61v2.57h.99l1.92-2.57h1.74l-2.42 3.28-.35-.51c.24.03.46.09.64.2.19.1.36.25.53.44s.34.42.5.71l1.38 2.46h-1.73l-1.12-1.98c-.11-.2-.23-.36-.34-.47a.9.9 0 0 0-.38-.23q-.21-.06-.51-.06h-.87v2.74h-1.61Zm9.99.13c-.57 0-1.08-.14-1.51-.41s-.77-.67-1.01-1.18q-.36-.765-.36-1.83c0-1.065.12-1.32.36-1.83s.58-.9 1.01-1.17.94-.41 1.51-.41 1.04.14 1.46.41.7.64.84 1.1h-.14l.14-1.38h1.56c-.03.27-.05.54-.07.82s-.03.55-.03.82v4.93h-1.61v-1.35h.14q-.21.675-.84 1.08c-.42.27-.91.4-1.44.4Zm.46-1.25c.51 0 .92-.18 1.24-.54.31-.36.47-.9.47-1.63s-.16-1.27-.47-1.62-.72-.53-1.24-.53-.92.18-1.24.53c-.31.36-.47.9-.47 1.62s.15 1.27.46 1.63.72.54 1.24.54Zm5.25 3.92v-7.73c0-.27 0-.54-.03-.82-.02-.28-.04-.55-.08-.82h1.57l.14 1.38h-.14c.13-.46.41-.83.83-1.1s.91-.41 1.46-.41 1.09.14 1.52.41.77.66 1.01 1.17q.36.765.36 1.83c0 1.065-.12 1.32-.36 1.83s-.58.9-1.01 1.18c-.43.27-.94.41-1.52.41-.55 0-1.03-.13-1.44-.4-.42-.27-.69-.63-.83-1.08h.14v4.16h-1.62Zm3.3-3.93c.52 0 .94-.18 1.25-.54s.47-.9.47-1.63-.16-1.27-.47-1.62-.73-.53-1.25-.53-.92.18-1.23.53c-.31.36-.47.9-.47 1.62s.16 1.27.47 1.63q.465.54 1.23.54m6.31 1.13v-5.29h-2.25v-1.27h6.12v1.27h-2.26v5.29zm4.87 0v-6.57h1.61v2.2h1.73c.88 0 1.53.18 1.98.55q.66.555.66 1.59c0 .45-.1.84-.31 1.18-.21.33-.51.59-.9.77s-.87.27-1.42.27h-3.34Zm1.61-1.07h1.51c.44 0 .78-.09 1.01-.28s.35-.47.35-.85-.12-.66-.35-.84q-.345-.27-1.02-.27h-1.51v2.24Zm5.19 1.07v-6.57h1.61v6.57zm35.68-14v-9.17h4.07c1.01 0 1.77.24 2.3.73s.79 1.15.79 2-.26 1.51-.79 2-1.29.74-2.3.74h-2.39v3.69h-1.68Zm1.68-5.02h2.2c.55 0 .97-.12 1.25-.37q.42-.375.42-1.05c0-.675-.14-.8-.42-1.05s-.69-.37-1.25-.37h-2.2v2.83Zm9.88 5.15c-1.1 0-1.96-.3-2.59-.91-.62-.61-.94-1.44-.94-2.5 0-.69.13-1.28.4-1.79s.64-.91 1.12-1.2 1.04-.43 1.68-.43 1.16.13 1.59.4.75.65.97 1.13.33 1.05.33 1.7v.43h-4.78v-.86h3.63l-.22.18c0-.61-.13-1.07-.38-1.39q-.39-.48-1.11-.48c-.54 0-.95.19-1.24.57s-.44.92-.44 1.6v.17c0 .71.18 1.24.53 1.59s.85.53 1.49.53q.555 0 1.05-.15c.33-.1.63-.26.93-.49l.48 1.09c-.31.25-.68.45-1.12.58s-.89.21-1.38.21Zm6.5 0c-.59 0-1.14-.07-1.66-.21s-.95-.34-1.29-.6l.46-1.07c.32.23.7.41 1.12.53.43.12.88.18 1.36.18.55 0 .96-.08 1.21-.23.26-.15.38-.38.38-.67q0-.42-.3-.63c-.3-.21-.49-.21-.88-.21h-1.7v-1.12h1.55c.36 0 .63-.07.82-.21a.68.68 0 0 0 .29-.58c0-.27-.11-.48-.34-.64s-.6-.23-1.12-.23c-.45 0-.86.05-1.24.16-.37.11-.72.27-1.05.47l-.44-1.01c.35-.25.79-.44 1.29-.57s1.06-.2 1.66-.2c.88 0 1.55.16 2.02.48s.7.78.7 1.36c0 .4-.14.74-.41 1.03s-.64.46-1.1.53v-.18c.54.04.96.2 1.27.48.31.29.47.67.47 1.16 0 .6-.26 1.08-.79 1.43s-1.28.53-2.26.53Zm4.47-.13v-6.56h1.61v2.57h2.96v-2.57h1.61v6.56h-1.61v-2.74h-2.96v2.74zm8.03 0v-6.56h1.61v2.2h1.73c.88 0 1.53.18 1.98.55q.66.555.66 1.59c0 .45-.1.84-.31 1.18-.21.33-.51.59-.9.77s-.87.27-1.42.27h-3.34Zm1.61-1.07h1.51c.44 0 .78-.09 1.01-.28s.35-.47.35-.85-.12-.66-.34-.84-.57-.27-1.02-.27h-1.51zm5.19 1.07v-6.56h1.61v6.56zm6.69.13c-1.1 0-1.96-.3-2.59-.91-.62-.61-.94-1.44-.94-2.5 0-.69.13-1.28.4-1.79s.64-.91 1.12-1.2 1.04-.43 1.68-.43 1.16.13 1.59.4.75.65.97 1.13.33 1.05.33 1.7v.43h-4.78v-.86h3.63l-.22.18c0-.61-.13-1.07-.38-1.39q-.39-.48-1.11-.48c-.54 0-.95.19-1.24.57s-.44.92-.44 1.6v.17c0 .71.18 1.24.53 1.59s.85.53 1.49.53q.555 0 1.05-.15c.495-.15.63-.26.93-.49l.48 1.09c-.31.25-.68.45-1.12.58q-.645.21-1.38.21Zm-40.25 13.87v-6.56h1.61v2.57h.99l1.92-2.57h1.74l-2.42 3.28-.35-.51c.24.03.46.09.64.19.19.1.36.25.53.44s.33.42.5.71l1.38 2.46h-1.73l-1.12-1.98c-.11-.2-.23-.35-.34-.47s-.24-.19-.38-.23-.31-.07-.51-.07h-.87v2.74h-1.61Zm9.99.13c-.57 0-1.07-.14-1.51-.41s-.77-.67-1.01-1.18q-.36-.765-.36-1.83c0-1.065.12-1.32.36-1.83s.58-.9 1.01-1.17.94-.41 1.51-.41 1.04.14 1.46.41.7.64.84 1.1h-.14l.14-1.38h1.56c-.03.27-.05.54-.07.82s-.03.55-.03.82v4.93h-1.61v-1.35h.14q-.21.675-.84 1.08c-.42.27-.91.4-1.44.4Zm.46-1.25c.51 0 .92-.18 1.24-.54.31-.36.47-.9.47-1.63s-.16-1.27-.47-1.62c-.31-.36-.72-.53-1.24-.53s-.92.18-1.23.53c-.31.36-.47.9-.47 1.62s.15 1.27.46 1.63.72.54 1.24.54m5.25 3.93v-7.74c0-.27 0-.54-.03-.82s-.04-.55-.08-.82h1.57l.14 1.38h-.14c.13-.46.41-.83.83-1.1s.91-.41 1.46-.41 1.09.14 1.52.41.77.66 1.01 1.17q.36.765.36 1.83c0 1.065-.12 1.32-.36 1.83s-.58.9-1.01 1.18-.94.41-1.52.41c-.55 0-1.03-.13-1.44-.4-.42-.27-.69-.63-.83-1.08h.14v4.16zm3.3-3.93c.52 0 .94-.18 1.25-.54s.47-.9.47-1.63-.16-1.27-.47-1.62c-.31-.36-.73-.53-1.25-.53s-.92.18-1.24.53c-.31.36-.47.9-.47 1.62s.16 1.27.47 1.63.72.54 1.24.54m6.31 1.12v-5.29h-2.25v-1.27h6.12v1.27h-2.26v5.29zm4.87 0v-6.56h1.61v2.2h1.73c.88 0 1.53.18 1.98.55q.66.555.66 1.59c0 .45-.1.84-.31 1.18-.21.33-.51.59-.9.77s-.87.27-1.42.27h-3.34Zm1.61-1.07h1.51c.44 0 .78-.09 1.01-.28s.35-.47.35-.85-.12-.66-.35-.84q-.345-.27-1.02-.27h-1.51v2.24Zm5.19 1.07v-6.56h1.61v6.56z" class="cls-2"/><text class="cls-4" transform="translate(742.54 299.41)"><tspan x="0" y="0">Скетч-панель</tspan></text><path d="M865.2 292.41v-9.17h8.02v9.17h-1.66v-7.8h-4.71v7.8zm12.96.13c-.68 0-1.26-.14-1.75-.42s-.88-.67-1.15-1.18-.41-1.12-.41-1.82.14-1.31.41-1.81c.27-.51.66-.9 1.15-1.18s1.08-.42 1.75-.42 1.26.14 1.76.42.88.67 1.16 1.18c.27.51.41 1.11.41 1.81s-.14 1.31-.41 1.82-.66.91-1.16 1.18c-.5.28-1.08.42-1.76.42m0-1.25c.51 0 .92-.18 1.22-.54s.46-.9.46-1.63-.15-1.27-.46-1.62c-.3-.36-.71-.53-1.22-.53s-.92.18-1.22.53-.46.9-.46 1.62.15 1.27.46 1.63.71.54 1.22.54m4.56 1.3-.51-1.27c.29-.1.53-.24.72-.41.2-.17.35-.39.47-.65s.2-.59.25-.99c.05-.39.08-.86.08-1.41v-2.01h5.23v6.57h-1.61v-5.32h-2.13v.82c0 .94-.09 1.73-.26 2.37s-.44 1.14-.81 1.51-.84.64-1.43.79m11.1-.05c-.68 0-1.26-.14-1.75-.42s-.88-.67-1.15-1.18-.41-1.12-.41-1.82.14-1.31.41-1.81c.27-.51.66-.9 1.15-1.18s1.08-.42 1.75-.42 1.26.14 1.76.42.88.67 1.16 1.18c.27.51.41 1.11.41 1.81s-.14 1.31-.41 1.82-.66.91-1.16 1.18c-.5.28-1.08.42-1.76.42m0-1.25c.51 0 .92-.18 1.22-.54s.46-.9.46-1.63-.15-1.27-.46-1.62c-.3-.36-.71-.53-1.22-.53s-.92.18-1.22.53-.46.9-.46 1.62.15 1.27.46 1.63.71.54 1.22.54m7.94 1.25c-.68 0-1.27-.14-1.78-.42s-.9-.67-1.18-1.19-.42-1.13-.42-1.84.14-1.32.42-1.82.67-.89 1.18-1.16c.5-.27 1.09-.4 1.77-.4.43 0 .86.07 1.27.2s.75.33 1.01.58l-.49 1.13c-.23-.22-.5-.38-.79-.49s-.57-.16-.85-.16c-.58 0-1.03.18-1.36.55-.33.36-.49.89-.49 1.59s.16 1.23.49 1.6.78.56 1.36.56c.27 0 .55-.05.84-.16.29-.1.56-.26.8-.48l.49 1.12c-.27.25-.61.45-1.02.59s-.83.21-1.25.21Zm6.25 0c-.57 0-1.07-.14-1.51-.41-.43-.27-.77-.67-1.01-1.18q-.36-.765-.36-1.83c0-1.065.12-1.32.36-1.83s.58-.9 1.01-1.17.94-.41 1.51-.41 1.04.14 1.46.41.7.64.84 1.1h-.14l.14-1.38h1.56c-.03.27-.05.54-.07.82s-.03.55-.03.82v4.93h-1.61v-1.35h.14q-.21.675-.84 1.08c-.63.405-.91.4-1.44.4Zm.46-1.25c.51 0 .92-.18 1.24-.54.31-.36.47-.9.47-1.63s-.16-1.27-.47-1.62c-.31-.36-.72-.53-1.24-.53s-.92.18-1.23.53c-.31.36-.47.9-.47 1.62s.15 1.27.46 1.63.72.54 1.24.54m-60.64 16.81v-2.92h.75q.39-.615.57-1.44c.12-.55.17-1.22.17-2.02v-1.87h5.06v5.33h1.07v2.92h-1.38v-1.69h-4.86v1.69zm2.21-2.91h2.82v-4.12h-2.16v1.01c0 .58-.06 1.15-.17 1.7s-.28 1.02-.49 1.4Zm6.44 1.4-.51-1.27c.29-.1.53-.24.72-.41.2-.17.35-.39.47-.65s.2-.59.25-.99c.05-.39.08-.86.08-1.41v-2.01h5.23v6.57h-1.61v-5.32h-2.13v.82c0 .94-.09 1.73-.26 2.37s-.44 1.14-.81 1.51-.84.64-1.43.79m7.54-.18 1-1.73c.17-.29.39-.53.64-.71s.52-.27.8-.27h.29v.14c-.78 0-1.38-.17-1.79-.51s-.62-.83-.62-1.48.21-1.14.64-1.49 1.06-.53 1.89-.53h3.26v6.57h-1.48v-2.31h-.74c-.27 0-.5.07-.71.22-.2.15-.38.34-.51.57l-.86 1.52h-1.81Zm3.16-3.37h1.47v-2.15h-1.47c-.44 0-.77.1-1 .29q-.33.285-.33.78c0 .35.11.61.33.8s.55.28 1 .28m8.35 3.37v-6.57h6.15v6.57h-1.61v-5.32h-2.92v5.32h-1.61Zm11.02.13c-.68 0-1.26-.14-1.75-.42s-.88-.67-1.15-1.18-.41-1.12-.41-1.82.14-1.31.41-1.81c.27-.51.66-.9 1.15-1.18s1.08-.42 1.75-.42 1.26.14 1.76.42.88.67 1.16 1.18c.27.51.41 1.11.41 1.81s-.14 1.31-.41 1.82-.66.91-1.16 1.18c-.5.28-1.09.42-1.76.42m0-1.25c.51 0 .92-.18 1.22-.54s.46-.9.46-1.63-.15-1.27-.46-1.62-.71-.53-1.22-.53-.92.18-1.22.53q-.45.54-.45 1.62c0 1.08.15 1.27.45 1.63s.71.54 1.22.54m4.27 2.81v-2.92h.75q.39-.615.57-1.44c.12-.55.17-1.22.17-2.02v-1.87h5.06v5.33h1.07v2.92h-1.38v-1.69h-4.86v1.69zm2.21-2.91h2.82v-4.12h-2.16v1.01c0 .58-.06 1.15-.17 1.7s-.28 1.02-.49 1.4Zm6.61 1.22v-6.57h6.15v6.57h-1.61v-5.32h-2.92v5.32h-1.61Zm7.99 0v-6.57h1.47v4.97h-.39l3.73-4.97h1.34v6.57h-1.47v-4.98h.4l-3.74 4.98zm11.06.13q-1.02 0-1.77-.42c-.51-.28-.9-.67-1.18-1.19s-.42-1.13-.42-1.84.14-1.32.42-1.82.67-.89 1.18-1.16c.5-.27 1.09-.4 1.77-.4.43 0 .86.07 1.27.2s.75.33 1.01.58l-.49 1.13c-.23-.22-.5-.38-.79-.49s-.57-.16-.85-.16c-.58 0-1.03.18-1.36.55-.33.36-.49.89-.49 1.59s.16 1.23.49 1.6.78.56 1.36.56c.27 0 .55-.05.84-.16.29-.1.56-.26.8-.48l.49 1.12c-.27.25-.61.45-1.02.59s-.83.21-1.25.21Zm3.67-.13v-6.57h1.47v4.97h-.39l3.73-4.97h1.34v6.57h-1.47v-4.98h.4l-3.74 4.98z" class="cls-2"/><text class="cls-3" transform="translate(164.94 370.94)"><tspan x="0" y="0">5 </tspan><tspan x="13.87" y="0" class="cls-14">р</tspan><tspan x="23.55" y="0">.</tspan></text><text class="cls-3" transform="translate(279.31 370.94)"><tspan x="0" y="0">5 </tspan><tspan x="13.87" y="0" class="cls-14">р</tspan><tspan x="23.55" y="0">.</tspan></text><text class="cls-3" transform="translate(408.22 391.23)"><tspan x="0" y="0">5 </tspan><tspan x="13.87" y="0" class="cls-14">р</tspan><tspan x="23.55" y="0">.</tspan></text><text class="cls-3" transform="translate(515.76 391.23)"><tspan x="0" y="0">7,5 </tspan><tspan x="27.26" y="0" class="cls-17">р</tspan><tspan x="36.94" y="0">.</tspan></text><text class="cls-3" transform="translate(612.73 391.23)"><tspan x="0" y="0">3,4 </tspan><tspan x="27.26" y="0" class="cls-17">р</tspan><tspan x="36.94" y="0">.</tspan></text><text class="cls-3" transform="translate(769.59 369.56)"><tspan x="0" y="0">4,3 </tspan><tspan x="27.26" y="0" class="cls-17">р</tspan><tspan x="36.94" y="0">.</tspan></text><text class="cls-3" transform="translate(866.65 369.56)"><tspan x="0" y="0">4,3 </tspan><tspan x="27.26" y="0" class="cls-17">р</tspan><tspan x="36.94" y="0">.</tspan></text><text class="cls-1" transform="translate(12.95 414.86)"><tspan x="0" y="0">500-4999 ш</tspan><tspan x="92.16" y="0" class="cls-12">т</tspan><tspan x="98.78" y="0">.</tspan></text></g></svg>