<svg xmlns="http://www.w3.org/2000/svg" id="_Слой_2" data-name="Слой 2" viewBox="0 0 938.93 210.33"><defs><style>.cls-1{font-family:Mulish-Bold,Mulish;font-weight:700}.cls-1,.cls-2,.cls-3{fill:#27625f}.cls-1,.cls-3{font-size:16px}.cls-2{stroke-width:0}.cls-3{font-family:Mulish-SemiBold,Mulish;font-weight:600}.cls-10{letter-spacing:0}.cls-11{letter-spacing:-.02em}.cls-12{letter-spacing:0}</style></defs><g id="_Слой_1-2" data-name="Слой 1"><rect width="937.93" height="183.76" x=".5" y=".5" rx="10" ry="10" style="fill:#fff;stroke:#a0b6b5;stroke-miterlimit:10"/><path d="M.5 46.44h937.93m-476.19 0v137.82m158.09-91.88v91.88m159.05-91.88v91.88M.5 92.38h937.93M.5 138.32h937.93" style="stroke:#a0b6b5;stroke-miterlimit:10;fill:none"/><text class="cls-1" transform="translate(19.9 28.38)"><tspan x="0" y="0">Пло</tspan><tspan x="31.79" y="0" style="letter-spacing:.01em">т</tspan><tspan x="39.7" y="0" style="letter-spacing:0">т</tspan><tspan x="47.36" y="0">ерная резка</tspan></text><text class="cls-1" transform="translate(173.44 75.12)"><tspan x="0" y="0">Наименование</tspan></text><path d="M643.8 65.95V54.67h9.87v11.28h-2.05v-9.6h-5.79v9.6zm15.96.16q-1.245 0-2.16-.51c-.61-.34-1.08-.83-1.42-1.46s-.5-1.38-.5-2.24.17-1.61.5-2.23.81-1.11 1.42-1.45q.915-.51 2.16-.51c1.245 0 1.55.17 2.17.51.61.34 1.09.82 1.42 1.45s.5 1.37.5 2.23-.17 1.61-.5 2.24a3.63 3.63 0 0 1-1.42 1.46c-.61.34-1.34.51-2.17.51m0-1.54q.945 0 1.5-.66c.37-.44.56-1.11.56-2.01s-.19-1.56-.56-2-.88-.66-1.5-.66-1.13.22-1.5.66-.56 1.1-.56 2 .19 1.57.56 2.01q.555.66 1.5.66m5.61 1.6-.62-1.57c.35-.13.65-.3.89-.5.24-.21.43-.47.58-.8.14-.33.25-.73.31-1.22s.1-1.06.1-1.74v-2.48h6.43v8.08h-1.98V59.4h-2.62v1.01c0 1.16-.11 2.14-.32 2.92s-.54 1.41-.99 1.86c-.45.46-1.03.78-1.76.98Zm9.95-.22v-8.08h1.98v3.17h3.65v-3.17h1.98v8.08h-1.98v-3.38h-3.65v3.38zm9.89 0v-8.08h1.98v2.7h2.13c1.08 0 1.89.23 2.43.68s.82 1.11.82 1.96c0 .55-.13 1.04-.38 1.45-.26.41-.63.73-1.11.95s-1.07.34-1.75.34h-4.11Zm1.98-1.31h1.86c.54 0 .96-.11 1.25-.34s.43-.58.43-1.05-.14-.81-.42-1.03q-.42-.33-1.26-.33h-1.86zm6.38 1.31v-8.08h1.98v8.08zm4.26 0v-8.08h1.81v6.11h-.48l4.59-6.11h1.65v8.08h-1.81v-6.13h.5l-4.61 6.13zm3.78-8.82c-.53 0-1-.09-1.41-.26a2.7 2.7 0 0 1-1.01-.75c-.27-.33-.46-.71-.58-1.16l1.02-.35q.27.735.75 1.08c.32.23.73.34 1.23.34s.91-.11 1.23-.34c.32-.22.58-.58.78-1.07l.98.34c-.22.71-.59 1.26-1.11 1.62-.52.37-1.15.55-1.9.55Zm12.19 8.82v-6.51h-2.77v-1.57h7.54v1.57h-2.78v6.51h-1.98Zm9.89.16c-1.35 0-2.42-.37-3.18-1.12-.77-.75-1.15-1.77-1.15-3.07 0-.84.17-1.58.5-2.21q.495-.945 1.38-1.47c.59-.35 1.28-.53 2.07-.53s1.43.17 1.95.5.92.79 1.19 1.39.41 1.3.41 2.1v.53h-5.89v-1.06h4.46l-.27.22c0-.75-.16-1.32-.47-1.71s-.77-.59-1.37-.59c-.66 0-1.17.23-1.53.7s-.54 1.13-.54 1.97v.21c0 .87.22 1.53.65 1.96s1.04.65 1.83.65q.69 0 1.29-.18t1.14-.6l.59 1.34q-.57.465-1.38.72c-.53.17-1.1.26-1.7.26Zm5.02-.16v-8.08h1.98v3.17h1.22l2.37-3.17h2.14l-2.98 4.03-.43-.62c.3.03.56.11.79.24q.345.195.66.54c.315.345.41.52.62.87l1.7 3.02h-2.13l-1.38-2.43c-.14-.25-.28-.44-.42-.58s-.29-.23-.46-.29c-.17-.05-.38-.08-.62-.08h-1.07v3.38h-1.98Zm12.9.16c-.83 0-1.56-.17-2.18-.51s-1.11-.83-1.45-1.46-.51-1.39-.51-2.26.17-1.62.52-2.24.83-1.09 1.45-1.42 1.34-.5 2.18-.5c.53 0 1.05.08 1.56.25s.92.4 1.24.71l-.61 1.39c-.29-.27-.61-.47-.97-.6s-.71-.2-1.05-.2c-.71 0-1.27.22-1.67.67q-.6.675-.6 1.95c0 1.275.2 1.51.6 1.97s.96.69 1.67.69c.33 0 .67-.06 1.03-.19s.69-.33.98-.59l.61 1.38q-.495.465-1.26.72c-.51.17-1.02.26-1.54.26Zm6.26-.16v-6.51h-2.77v-1.57h7.54v1.57h-2.78v6.51h-1.98ZM560.62 83.83c-.5-.79-.91-1.56-1.22-2.32s-.54-1.53-.68-2.31-.21-1.6-.21-2.46.07-1.69.21-2.46.37-1.55.68-2.3c.31-.76.72-1.53 1.22-2.3h1.6c-.55 1.23-.97 2.42-1.24 3.58s-.41 2.32-.41 3.5.14 2.33.41 3.49.69 2.36 1.24 3.6h-1.6Zm3.1-2.88v-8.08h7.57v8.08h-1.98v-6.54h-3.6v6.54h-1.98Zm9.64.22-.62-1.57c.35-.13.65-.3.89-.5.24-.21.43-.47.58-.8.14-.33.25-.73.31-1.22s.1-1.06.1-1.74v-2.48h6.43v8.08h-1.98V74.4h-2.62v1.01c0 1.16-.11 2.14-.32 2.92s-.54 1.41-.99 1.86c-.45.46-1.03.78-1.76.98Zm13.92-.06c-1.36 0-2.42-.37-3.18-1.12-.77-.75-1.15-1.77-1.15-3.07 0-.84.17-1.58.5-2.21q.495-.945 1.38-1.47c.885-.525 1.28-.53 2.07-.53s1.43.17 1.95.5.92.79 1.19 1.39.41 1.3.41 2.1v.53h-5.89v-1.06h4.46l-.27.22c0-.75-.16-1.32-.47-1.71-.32-.39-.77-.59-1.37-.59-.66 0-1.17.23-1.53.7s-.54 1.13-.54 1.97v.21c0 .87.22 1.53.65 1.96s1.04.65 1.83.65q.69 0 1.29-.18t1.14-.6l.59 1.34q-.57.465-1.38.72c-.53.17-1.1.26-1.7.26Zm-2.82-9.71v-1.84h1.84v1.84zm3.02 0v-1.84h1.84v1.84zm4.82 9.55v-8.08h1.98v3.17h3.65v-3.17h1.98v8.08h-1.98v-3.38h-3.65v3.38zm9.89 0v-8.08h1.98v3.17h1.22l2.37-3.17h2.14l-2.98 4.03-.43-.62c.3.03.56.11.79.24s.45.31.66.54.41.52.62.87l1.7 3.02h-2.13l-1.38-2.43c-.14-.25-.28-.44-.42-.58s-.29-.23-.46-.29c-.17-.05-.38-.08-.62-.08h-1.07v3.38h-1.98Zm12.3.16c-.7 0-1.32-.17-1.86-.5-.53-.34-.95-.82-1.25-1.45s-.45-1.38-.45-2.26.15-1.62.45-2.25c.3-.62.71-1.1 1.25-1.44s1.15-.5 1.86-.5 1.28.17 1.8.5.86.79 1.03 1.35h-.18l.18-1.7h1.92l-.09 1.01c-.03.34-.04.68-.04 1.01v6.06h-1.98l-.02-1.66h.19c-.17.55-.52 1-1.04 1.33s-1.12.5-1.78.5Zm.56-1.54c.63 0 1.14-.22 1.52-.66s.58-1.11.58-2.01-.19-1.56-.58-2-.89-.66-1.52-.66-1.14.22-1.52.66-.58 1.1-.58 2 .19 1.57.57 2.01q.57.66 1.53.66m9.34.75v-3.26h-3.22v-1.41h3.22v-3.18h1.46v3.18h3.2v1.41h-3.2v3.26zm6.73 4.08v-9.52c0-.33-.01-.67-.03-1.01s-.05-.68-.1-1.01h1.94l.18 1.7h-.18q.24-.855 1.02-1.35c.78-.495 1.12-.5 1.8-.5s1.34.17 1.87.5c.53.34.95.82 1.25 1.44s.45 1.37.45 2.25-.15 1.63-.45 2.26-.71 1.11-1.25 1.45c-.53.34-1.16.5-1.87.5-.67 0-1.26-.17-1.78-.5s-.85-.77-1.02-1.33h.18v5.12h-2Zm4.06-4.83c.64 0 1.15-.22 1.54-.66.38-.44.58-1.11.58-2.01s-.19-1.56-.58-2-.9-.66-1.54-.66-1.14.22-1.52.66-.58 1.1-.58 2 .19 1.57.58 2.01c.38.44.89.66 1.52.66m9.98 1.54c-1.36 0-2.42-.37-3.18-1.12-.77-.75-1.15-1.77-1.15-3.07 0-.84.17-1.58.5-2.21q.495-.945 1.38-1.47c.885-.525 1.28-.53 2.07-.53s1.43.17 1.95.5.92.79 1.19 1.39.41 1.3.41 2.1v.53h-5.89v-1.06h4.46l-.27.22c0-.75-.16-1.32-.47-1.71-.32-.39-.77-.59-1.37-.59-.66 0-1.17.23-1.53.7s-.54 1.13-.54 1.97v.21c0 .87.22 1.53.65 1.96s1.04.65 1.83.65q.69 0 1.29-.18t1.14-.6l.59 1.34q-.57.465-1.38.72c-.53.17-1.1.26-1.7.26Zm8 0c-.72 0-1.41-.09-2.04-.26s-1.17-.42-1.59-.74l.56-1.31c.39.29.86.51 1.38.66s1.08.22 1.67.22c.68 0 1.18-.09 1.5-.28s.47-.46.47-.82c0-.34-.12-.6-.37-.78s-.61-.26-1.09-.26h-2.1v-1.38h1.9c.44 0 .77-.08 1.01-.26.23-.17.35-.41.35-.72q0-.495-.42-.78c-.42-.285-.74-.29-1.38-.29-.55 0-1.06.07-1.52.2s-.89.33-1.3.58l-.54-1.25c.44-.31.97-.54 1.59-.7s1.3-.24 2.04-.24c1.08 0 1.9.2 2.48.59s.86.95.86 1.68c0 .49-.17.91-.5 1.26s-.79.57-1.35.66v-.22c.66.04 1.18.24 1.57.59s.58.83.58 1.42c0 .74-.33 1.32-.98 1.76s-1.58.66-2.78.66Zm5.51-.16v-8.08h1.98v3.17h1.22l2.37-3.17h2.14l-2.98 4.03-.43-.62c.3.03.56.11.79.24s.45.31.66.54.41.52.62.87l1.7 3.02h-2.13l-1.38-2.43c-.14-.25-.28-.44-.42-.58s-.29-.23-.46-.29c-.17-.05-.38-.08-.62-.08h-1.07v3.38h-1.98Zm12.3.16c-.7 0-1.32-.17-1.86-.5-.53-.34-.95-.82-1.25-1.45s-.45-1.38-.45-2.26.15-1.62.45-2.25c.3-.62.71-1.1 1.25-1.44s1.15-.5 1.86-.5 1.28.17 1.8.5.86.79 1.03 1.35h-.18l.18-1.7h1.92l-.09 1.01c-.03.34-.04.68-.04 1.01v6.06h-1.98l-.02-1.66h.19c-.17.55-.52 1-1.04 1.33s-1.12.5-1.78.5Zm.56-1.54c.63 0 1.14-.22 1.52-.66s.58-1.11.58-2.01-.19-1.56-.58-2-.89-.66-1.52-.66-1.14.22-1.52.66-.58 1.1-.58 2 .19 1.57.57 2.01q.57.66 1.53.66m9.34.75v-3.26h-3.22v-1.41h3.22v-3.18h1.46v3.18h3.2v1.41h-3.2v3.26zm6.66.63v-8.08h4.3c1.01 0 1.75.18 2.22.55s.7.89.7 1.56c0 .51-.17.94-.51 1.28s-.79.55-1.36.64v-.22c.69.04 1.23.25 1.6.61s.56.83.56 1.41c0 .69-.27 1.24-.8 1.65s-1.29.61-2.27.61h-4.45Zm1.86-4.74h2.21c.43 0 .76-.09.99-.28s.35-.45.35-.79-.12-.6-.35-.78q-.36-.27-.99-.27h-2.21v2.13Zm0 3.5h2.38c.47 0 .83-.1 1.08-.29s.38-.47.38-.85-.12-.66-.38-.85c-.25-.19-.61-.29-1.08-.29h-2.38v2.27Zm7.4 1.24v-8.08h1.98v2.7h2.13c1.08 0 1.89.23 2.43.68s.82 1.11.82 1.96c0 .55-.13 1.04-.38 1.45-.26.41-.63.73-1.11.95s-1.07.34-1.75.34h-4.11Zm1.98-1.31h1.86c.54 0 .96-.11 1.25-.34s.43-.58.43-1.05-.14-.81-.42-1.03q-.42-.33-1.26-.33h-1.86zm6.38 1.31v-8.08h1.98v8.08zm8.06.16c-1.27 0-2.28-.38-3.03-1.15s-1.13-1.89-1.13-3.38V75.2c0-1.52.35-2.75 1.04-3.68s1.74-1.54 3.14-1.84l2.96-.67.54 1.57-3.33.74q-.825.18-1.38.66c-.36.33-.63.71-.82 1.16q-.27.675-.27 1.44v.85h-.27c.12-.48.31-.9.59-1.26s.63-.64 1.06-.84.91-.3 1.46-.3c.68 0 1.28.16 1.8.47s.92.77 1.22 1.36.45 1.3.45 2.12-.17 1.57-.5 2.19-.81 1.1-1.41 1.43c-.6.34-1.31.5-2.12.5Zm-.06-1.52c.66 0 1.18-.21 1.54-.63.37-.42.55-1.05.55-1.9s-.19-1.45-.56-1.88-.89-.65-1.54-.65-1.16.21-1.54.64c-.37.43-.56 1.03-.56 1.82 0 .86.19 1.51.56 1.94s.88.65 1.54.65Zm9.69 1.52q-1.245 0-2.16-.51c-.61-.34-1.08-.83-1.42-1.46s-.5-1.38-.5-2.24.17-1.61.5-2.23c.34-.62.81-1.11 1.42-1.45q.915-.51 2.16-.51c1.245 0 1.55.17 2.17.51s1.09.82 1.42 1.45c.34.62.5 1.37.5 2.23s-.17 1.61-.5 2.24c-.34.63-.81 1.11-1.42 1.46s-1.34.51-2.17.51m0-1.54q.945 0 1.5-.66c.37-.44.56-1.11.56-2.01s-.19-1.56-.56-2q-.555-.66-1.5-.66c-.945 0-1.13.22-1.5.66s-.56 1.1-.56 2 .19 1.57.56 2.01.88.66 1.5.66m6.05 4.83v-9.52c0-.33-.01-.67-.03-1.01s-.05-.68-.1-1.01h1.94l.18 1.7h-.18q.24-.855 1.02-1.35c.52-.34 1.12-.5 1.8-.5s1.34.17 1.87.5c.53.34.95.82 1.25 1.44q.45.93.45 2.25c0 1.32-.15 1.63-.45 2.26s-.71 1.11-1.25 1.45c-.53.34-1.16.5-1.87.5-.67 0-1.26-.17-1.78-.5s-.85-.77-1.02-1.33h.18v5.12h-2Zm4.06-4.83c.64 0 1.15-.22 1.54-.66.38-.44.58-1.11.58-2.01s-.19-1.56-.58-2-.9-.66-1.54-.66-1.14.22-1.52.66-.58 1.1-.58 2 .19 1.57.58 2.01c.38.44.89.66 1.52.66m6.02 1.38v-8.08h1.98v3.17h1.22l2.37-3.17h2.14l-2.98 4.03-.43-.62c.3.03.56.11.79.24q.345.195.66.54c.315.345.41.52.62.87l1.7 3.02h-2.13l-1.38-2.43c-.14-.25-.28-.44-.42-.58s-.29-.23-.46-.29c-.17-.05-.38-.08-.62-.08h-1.07v3.38h-1.98Zm12.3.16c-.7 0-1.32-.17-1.86-.5-.53-.34-.95-.82-1.25-1.45s-.45-1.38-.45-2.26.15-1.62.45-2.25.71-1.1 1.25-1.44 1.15-.5 1.86-.5 1.28.17 1.8.5.86.79 1.03 1.35h-.18l.18-1.7h1.92l-.09 1.01c-.03.34-.04.68-.04 1.01v6.06h-1.98l-.02-1.66h.19c-.17.55-.52 1-1.04 1.33s-1.11.5-1.78.5Zm.56-1.54c.63 0 1.14-.22 1.52-.66s.58-1.11.58-2.01-.19-1.56-.58-2c-.38-.44-.89-.66-1.52-.66s-1.14.22-1.52.66-.58 1.1-.58 2 .19 1.57.57 2.01q.57.66 1.53.66m9.35.75v-3.26h-3.22v-1.41h3.22v-3.18h1.46v3.18h3.2v1.41h-3.2v3.26zm6.65.63v-8.08h7.57v8.08h-1.98v-6.54h-3.6v6.54h-1.98Zm13.81.16c-1.35 0-2.42-.37-3.18-1.12-.77-.75-1.15-1.77-1.15-3.07 0-.84.17-1.58.5-2.21q.495-.945 1.38-1.47c.59-.35 1.28-.53 2.07-.53s1.43.17 1.95.5.92.79 1.19 1.39.41 1.3.41 2.1v.53h-5.89v-1.06h4.46l-.27.22c0-.75-.16-1.32-.47-1.71s-.77-.59-1.37-.59c-.66 0-1.17.23-1.53.7s-.54 1.13-.54 1.97v.21c0 .87.22 1.53.65 1.96s1.04.65 1.83.65q.69 0 1.29-.18t1.14-.6l.59 1.34q-.57.465-1.38.72c-.53.17-1.1.26-1.7.26Zm5.09 3.29v-9.52c0-.33-.01-.67-.03-1.01s-.05-.68-.1-1.01h1.94l.18 1.7h-.18q.24-.855 1.02-1.35c.52-.34 1.12-.5 1.8-.5s1.34.17 1.87.5c.53.34.95.82 1.25 1.44q.45.93.45 2.25c0 1.32-.15 1.63-.45 2.26s-.71 1.11-1.25 1.45c-.53.34-1.16.5-1.87.5-.67 0-1.26-.17-1.78-.5s-.85-.77-1.02-1.33h.18v5.12h-2Zm4.06-4.83c.64 0 1.15-.22 1.54-.66.38-.44.58-1.11.58-2.01s-.19-1.56-.58-2-.9-.66-1.54-.66-1.14.22-1.52.66-.58 1.1-.58 2 .19 1.57.58 2.01c.38.44.89.66 1.52.66m9.99 1.54c-1.35 0-2.42-.37-3.18-1.12-.77-.75-1.15-1.77-1.15-3.07 0-.84.17-1.58.5-2.21q.495-.945 1.38-1.47c.59-.35 1.28-.53 2.07-.53s1.43.17 1.95.5.92.79 1.19 1.39.41 1.3.41 2.1v.53h-5.89v-1.06h4.46l-.27.22c0-.75-.16-1.32-.47-1.71s-.77-.59-1.37-.59c-.66 0-1.17.23-1.53.7s-.54 1.13-.54 1.97v.21c0 .87.22 1.53.65 1.96s1.04.65 1.83.65q.69 0 1.29-.18t1.14-.6l.59 1.34q-.57.465-1.38.72c-.53.17-1.1.26-1.7.26Zm5.02-.16v-8.08h1.98v3.17h3.65v-3.17h1.98v8.08h-1.98v-3.38h-3.65v3.38zm13.6.16q-1.245 0-2.16-.51c-.61-.34-1.08-.83-1.42-1.46s-.5-1.38-.5-2.24.17-1.61.5-2.23c.34-.62.81-1.11 1.42-1.45q.915-.51 2.16-.51c1.245 0 1.55.17 2.17.51s1.09.82 1.42 1.45c.34.62.5 1.37.5 2.23s-.17 1.61-.5 2.24c-.34.63-.81 1.11-1.42 1.46s-1.34.51-2.17.51m0-1.54q.945 0 1.5-.66c.37-.44.56-1.11.56-2.01s-.19-1.56-.56-2q-.555-.66-1.5-.66c-.945 0-1.13.22-1.5.66s-.56 1.1-.56 2 .19 1.57.56 2.01.88.66 1.5.66m9.76 1.54c-.83 0-1.56-.17-2.18-.51s-1.11-.83-1.45-1.46-.51-1.39-.51-2.26.17-1.62.52-2.24.83-1.09 1.45-1.42 1.34-.5 2.18-.5c.53 0 1.05.08 1.56.25s.92.4 1.24.71l-.61 1.39c-.29-.27-.61-.47-.97-.6s-.71-.2-1.05-.2c-.71 0-1.27.22-1.67.67q-.6.675-.6 1.95c0 1.275.2 1.51.6 1.97s.96.69 1.67.69c.33 0 .67-.06 1.03-.19s.69-.33.98-.59l.61 1.38q-.495.465-1.26.72c-.51.17-1.02.26-1.54.26Zm5.5 2.72h-1.6c.55-1.23.97-2.42 1.24-3.59s.41-2.33.41-3.5-.14-2.33-.41-3.49-.69-2.36-1.24-3.58h1.6c.51.78.92 1.55 1.23 2.3.31.76.53 1.53.67 2.31s.21 1.6.21 2.46-.07 1.67-.21 2.46-.36 1.56-.67 2.32-.72 1.52-1.23 2.3Z" class="cls-2"/><text class="cls-1" transform="translate(518.2 121.13)"><tspan x="0" y="0">&gt;1 см</tspan></text><text class="cls-3" transform="translate(511.65 166.23)"><tspan x="0" y="0">3315 </tspan><tspan x="42.67" y="0" class="cls-11">р</tspan><tspan x="52.35" y="0">.</tspan></text><text class="cls-1" transform="translate(673.62 121.13)"><tspan x="0" y="0">1-5 см</tspan></text><text class="cls-3" transform="translate(670.57 166.23)"><tspan x="0" y="0">2665 </tspan><tspan x="42.67" y="0" class="cls-11">р</tspan><tspan x="52.35" y="0">.</tspan></text><text class="cls-3" transform="translate(19.9 205.96)"><tspan x="0" y="0">Минимальная с</tspan><tspan x="123.23" y="0" class="cls-10">т</tspan><tspan x="130.67" y="0" class="cls-12">оимость пло</tspan><tspan x="227.74" y="0" style="letter-spacing:.01em">т</tspan><tspan x="235.4" y="0" class="cls-10">т</tspan><tspan x="242.84" y="0" class="cls-12">ерной резки - 300 </tspan><tspan x="389.02" y="0" style="letter-spacing:0">р</tspan><tspan x="398.84" y="0" class="cls-12">у</tspan><tspan x="407.61" y="0" style="letter-spacing:-.02em">б</tspan><tspan x="416.84" y="0">.</tspan></text><text class="cls-1" transform="translate(835.72 121.13)"><tspan x="0" y="0">&lt;5 см</tspan></text><text class="cls-3" transform="translate(829.17 166.23)"><tspan x="0" y="0">2015 </tspan><tspan x="42.67" y="0" class="cls-11">р</tspan><tspan x="52.35" y="0">.</tspan></text><path d="M208.08 112.07v-1.66l.51.38h-.45c-1.12 0-2.09-.19-2.9-.58-.81-.38-1.43-.94-1.86-1.66s-.65-1.59-.65-2.62c0-1.56.47-2.75 1.42-3.59q1.41-1.26 3.99-1.26h.45l-.51.38v-1.57h2.05v1.57l-.51-.38h.45c1.72 0 3.05.42 4 1.26s1.42 2.03 1.42 3.59c0 1.02-.22 1.9-.66 2.62s-1.06 1.27-1.86 1.66c-.81.38-1.77.58-2.9.58h-.45l.51-.38v1.66zm.02-2.48v-7.3l.43.35h-.59c-.94 0-1.69.27-2.26.82s-.86 1.37-.86 2.47c0 .71.13 1.32.4 1.81s.63.86 1.1 1.11 1.01.38 1.62.38h.59l-.43.35Zm2.03 0-.45-.35h.61c.61 0 1.15-.12 1.62-.38.47-.25.83-.62 1.1-1.11s.39-1.09.39-1.81c0-1.1-.28-1.92-.85-2.47s-1.32-.82-2.26-.82h-.61l.45-.35v7.3Zm11.08 2.24q-1.245 0-2.16-.51c-.61-.34-1.08-.83-1.42-1.46s-.5-1.38-.5-2.24.17-1.61.5-2.23.81-1.11 1.42-1.45q.915-.51 2.16-.51c1.245 0 1.55.17 2.17.51.61.34 1.09.82 1.42 1.45s.5 1.37.5 2.23-.17 1.61-.5 2.24a3.63 3.63 0 0 1-1.42 1.46c-.61.34-1.34.51-2.17.51m0-1.54q.945 0 1.5-.66c.37-.44.56-1.11.56-2.01s-.19-1.56-.56-2-.88-.66-1.5-.66-1.13.22-1.5.66-.56 1.1-.56 2 .19 1.57.56 2.01q.555.66 1.5.66m6.05 4.83v-9.52c0-.33-.01-.67-.03-1.01s-.05-.68-.1-1.01h1.94l.18 1.7h-.18q.24-.855 1.02-1.35c.52-.34 1.12-.5 1.8-.5s1.34.17 1.87.5.95.82 1.25 1.44.45 1.37.45 2.25-.15 1.63-.45 2.26-.71 1.11-1.25 1.45c-.53.34-1.16.5-1.87.5-.67 0-1.26-.17-1.78-.5s-.85-.77-1.02-1.33h.18v5.12h-2Zm4.06-4.83c.64 0 1.15-.22 1.54-.66.38-.44.58-1.11.58-2.01s-.19-1.56-.58-2c-.38-.44-.9-.66-1.54-.66s-1.14.22-1.52.66-.58 1.1-.58 2 .19 1.57.58 2.01c.38.44.89.66 1.52.66m6.02 1.38v-8.08H239l2.78 4.83 2.79-4.83h1.66v8.08h-1.76v-5.84h.37l-2.59 4.53h-.93l-2.59-4.53h.37v5.84zm14.35.16c-.7 0-1.32-.17-1.86-.5-.53-.34-.95-.82-1.25-1.45s-.45-1.38-.45-2.26.15-1.62.45-2.25.71-1.1 1.25-1.44 1.15-.5 1.86-.5 1.28.17 1.8.5.86.79 1.03 1.35h-.18l.18-1.7h1.92l-.09 1.01c-.03.34-.04.68-.04 1.01v6.06h-1.98l-.02-1.66h.19c-.17.55-.52 1-1.04 1.33s-1.11.5-1.78.5Zm.56-1.54c.63 0 1.14-.22 1.52-.66s.58-1.11.58-2.01-.19-1.56-.58-2c-.38-.44-.89-.66-1.52-.66s-1.14.22-1.52.66-.58 1.1-.58 2 .19 1.57.57 2.01q.57.66 1.53.66m8.14 1.38v-6.51h-2.77v-1.57h7.54v1.57h-2.78v6.51h-1.98Zm-128.87 17.88c-.5-.79-.91-1.56-1.22-2.32s-.54-1.53-.68-2.31-.21-1.6-.21-2.46.07-1.69.21-2.46.37-1.55.68-2.3c.31-.76.72-1.53 1.22-2.3h1.6c-.55 1.23-.97 2.42-1.24 3.58s-.41 2.32-.41 3.5.14 2.33.41 3.49.69 2.36 1.24 3.6h-1.6Zm6.83-2.72c-.83 0-1.56-.17-2.18-.51s-1.11-.83-1.45-1.46-.51-1.39-.51-2.26.17-1.62.52-2.24.83-1.09 1.45-1.42 1.34-.5 2.18-.5c.53 0 1.05.08 1.56.25s.92.4 1.24.71l-.61 1.39a2.8 2.8 0 0 0-.97-.6c-.36-.13-.71-.2-1.05-.2-.71 0-1.27.22-1.67.67q-.6.675-.6 1.95c0 1.275.2 1.51.6 1.97s.96.69 1.67.69c.33 0 .67-.06 1.03-.19s.69-.33.98-.59l.61 1.38q-.495.465-1.26.72c-.51.17-1.02.26-1.54.26Zm4.57 3.29v-9.52c0-.33-.01-.67-.03-1.01s-.05-.68-.1-1.01h1.94l.18 1.7h-.18q.24-.855 1.02-1.35c.78-.495 1.12-.5 1.8-.5s1.34.17 1.87.5c.53.34.95.82 1.25 1.44s.45 1.37.45 2.25-.15 1.63-.45 2.26-.71 1.11-1.25 1.45c-.53.34-1.16.5-1.87.5-.67 0-1.26-.17-1.78-.5-.51-.33-.85-.77-1.02-1.33h.18v5.12h-2Zm4.06-4.83c.64 0 1.15-.22 1.54-.66.38-.44.58-1.11.58-2.01s-.19-1.56-.58-2-.9-.66-1.54-.66-1.14.22-1.52.66-.58 1.1-.58 2 .19 1.57.58 2.01c.38.44.89.66 1.52.66m9.99 1.54c-1.36 0-2.42-.37-3.18-1.12-.77-.75-1.15-1.77-1.15-3.07 0-.84.17-1.58.5-2.21q.495-.945 1.38-1.47c.59-.35 1.28-.53 2.07-.53s1.43.17 1.95.5.92.79 1.19 1.39.41 1.3.41 2.1v.53h-5.89v-1.06h4.46l-.27.22c0-.75-.16-1.32-.47-1.71s-.77-.59-1.37-.59c-.66 0-1.17.23-1.53.7s-.54 1.13-.54 1.97v.21c0 .87.22 1.53.65 1.96s1.04.65 1.83.65q.69 0 1.29-.18t1.14-.6l.59 1.34q-.57.465-1.38.72c-.53.17-1.1.26-1.7.26Zm4.31 1.92v-3.6h.93c.32-.5.55-1.09.7-1.77.14-.68.22-1.51.22-2.49v-2.3h6.22v6.56h1.31v3.6h-1.7v-2.08h-5.98v2.08zm2.72-3.58h3.47v-5.07h-2.66v1.25q0 1.065-.21 2.1c-.14.68-.34 1.26-.61 1.73Zm8.12 1.5v-8.08h1.98v3.17h3.65v-3.17h1.98v8.08h-1.98v-3.38h-3.65v3.38zm9.22 0 1.23-2.13c.21-.36.48-.65.79-.87.32-.22.64-.33.98-.33h.35l-.02.18c-.95 0-1.68-.21-2.19-.62s-.77-1.02-.77-1.82.26-1.4.79-1.83 1.3-.65 2.33-.65h4.02v8.08h-1.82v-2.85h-.91q-.495 0-.87.27c-.25.18-.46.42-.63.7l-1.06 1.87zm3.89-4.14h1.81v-2.64h-1.81c-.54 0-.95.12-1.22.35s-.41.55-.41.96c0 .43.14.75.41.98s.68.34 1.22.34Zm5.23 4.14 1.23-2.13c.21-.36.48-.65.79-.87s.64-.33.98-.33h.35l-.02.18c-.95 0-1.68-.21-2.19-.62-.51-.42-.77-1.02-.77-1.82s.26-1.4.79-1.83 1.3-.65 2.33-.65h4.02v8.08h-1.82v-2.85h-.91q-.495 0-.87.27c-.25.18-.46.42-.63.7l-1.06 1.87zm3.89-4.14h1.81v-2.64h-1.81c-.54 0-.95.12-1.22.35s-.41.55-.41.96c0 .43.13.75.41.98s.68.34 1.22.34Zm10.29 4.14v-8.08h4.3c1.01 0 1.75.18 2.22.55s.7.89.7 1.56c0 .51-.17.94-.51 1.28s-.79.55-1.36.64v-.22c.69.04 1.23.25 1.6.61s.56.83.56 1.41c0 .69-.27 1.24-.8 1.65s-1.29.61-2.27.61h-4.45Zm1.86-4.74h2.21c.43 0 .76-.09.99-.28s.35-.45.35-.79-.12-.6-.35-.78q-.345-.27-.99-.27h-2.21v2.13Zm0 3.5h2.38c.47 0 .83-.1 1.08-.29s.38-.47.38-.85-.12-.66-.38-.85c-.25-.19-.61-.29-1.08-.29h-2.38v2.27Zm7.4 1.24v-8.08h1.98v2.7h2.13c1.08 0 1.89.23 2.43.68s.82 1.11.82 1.96c0 .55-.13 1.04-.38 1.45-.26.41-.63.73-1.11.95s-1.07.34-1.75.34h-4.11Zm1.98-1.31h1.86c.54 0 .96-.11 1.25-.34s.43-.58.43-1.05-.14-.81-.42-1.03q-.42-.33-1.26-.33h-1.86zm6.38 1.31v-8.08h1.98v8.08zm8.04.16c-.83 0-1.56-.17-2.18-.51s-1.11-.83-1.45-1.46-.51-1.39-.51-2.26.17-1.62.52-2.24.83-1.09 1.45-1.42 1.34-.5 2.18-.5c.53 0 1.05.08 1.56.25s.92.4 1.24.71l-.61 1.39c-.29-.27-.61-.47-.97-.6s-.71-.2-1.05-.2c-.71 0-1.27.22-1.67.67q-.6.675-.6 1.95c0 1.275.2 1.51.6 1.97s.96.69 1.67.69c.33 0 .67-.06 1.03-.19s.69-.33.98-.59l.61 1.38q-.495.465-1.26.72c-.51.17-1.02.26-1.54.26Zm8.22 0q-1.245 0-2.16-.51c-.61-.34-1.08-.83-1.42-1.46s-.5-1.38-.5-2.24.17-1.61.5-2.23.81-1.11 1.42-1.45q.915-.51 2.16-.51c1.245 0 1.55.17 2.17.51s1.09.82 1.42 1.45.5 1.37.5 2.23-.17 1.61-.5 2.24c-.34.63-.81 1.11-1.42 1.46s-1.34.51-2.17.51m0-1.54q.945 0 1.5-.66c.37-.44.56-1.11.56-2.01s-.19-1.56-.56-2-.88-.66-1.5-.66-1.13.22-1.5.66-.56 1.1-.56 2 .19 1.57.56 2.01.88.66 1.5.66m7.73 1.38v-6.51h-2.77v-1.57h7.54v1.57h-2.78v6.51h-1.98Zm9.19.16c-.7 0-1.32-.17-1.86-.5-.53-.34-.95-.82-1.25-1.45s-.45-1.38-.45-2.26.15-1.62.45-2.25.71-1.1 1.25-1.44 1.15-.5 1.86-.5 1.28.17 1.8.5.86.79 1.03 1.35h-.18l.18-1.7h1.92l-.09 1.01c-.03.34-.04.68-.04 1.01v6.06h-1.98l-.02-1.66h.19c-.17.55-.52 1-1.04 1.33s-1.11.5-1.78.5Zm.56-1.54c.63 0 1.14-.22 1.52-.66s.58-1.11.58-2.01-.19-1.56-.58-2c-.38-.44-.89-.66-1.52-.66s-1.14.22-1.52.66-.58 1.1-.58 2 .19 1.57.57 2.01q.57.66 1.53.66m14.55 1.54c-.83 0-1.56-.17-2.18-.51s-1.11-.83-1.45-1.46-.51-1.39-.51-2.26.17-1.62.52-2.24.83-1.09 1.45-1.42 1.34-.5 2.18-.5c.53 0 1.05.08 1.56.25s.92.4 1.24.71l-.61 1.39c-.29-.27-.61-.47-.97-.6s-.71-.2-1.05-.2c-.71 0-1.27.22-1.67.67q-.6.675-.6 1.95c0 1.275.2 1.51.6 1.97s.96.69 1.67.69c.33 0 .67-.06 1.03-.19s.69-.33.98-.59l.61 1.38q-.495.465-1.26.72c-.51.17-1.02.26-1.54.26Zm4.52-.16v-8.08h1.81v6.11h-.48l4.59-6.11h1.65v8.08h-1.81v-6.13h.5l-4.61 6.13zm9.84 0v-8.08h1.66l2.78 4.83 2.78-4.83h1.66v8.08h-1.76v-5.84h.37l-2.59 4.53h-.93l-2.59-4.53h.37v5.84h-1.76Zm11.16 0v-8.08h4.3c1.01 0 1.75.18 2.22.55s.7.89.7 1.56c0 .51-.17.94-.51 1.28s-.79.55-1.36.64v-.22c.69.04 1.23.25 1.6.61s.56.83.56 1.41c0 .69-.27 1.24-.8 1.65s-1.29.61-2.27.61h-4.45Zm1.86-4.74h2.21c.43 0 .76-.09.99-.28s.35-.45.35-.79-.12-.6-.35-.78q-.36-.27-.99-.27h-2.21v2.13Zm0 3.5h2.38c.47 0 .83-.1 1.08-.29s.38-.47.38-.85-.13-.66-.38-.85-.61-.29-1.08-.29h-2.38v2.27Zm11.12 1.4q-1.245 0-2.16-.51c-.61-.34-1.08-.83-1.42-1.46s-.5-1.38-.5-2.24.17-1.61.5-2.23c.34-.62.81-1.11 1.42-1.45q.915-.51 2.16-.51c1.245 0 1.55.17 2.17.51s1.09.82 1.42 1.45c.34.62.5 1.37.5 2.23s-.17 1.61-.5 2.24c-.34.63-.81 1.11-1.42 1.46s-1.34.51-2.17.51m0-1.54q.945 0 1.5-.66c.37-.44.56-1.11.56-2.01s-.19-1.56-.56-2q-.555-.66-1.5-.66c-.945 0-1.13.22-1.5.66s-.56 1.1-.56 2 .19 1.57.56 2.01.88.66 1.5.66m5.62 1.6-.62-1.57c.35-.13.65-.3.89-.5.24-.21.43-.47.58-.8.14-.33.25-.73.31-1.22s.1-1.06.1-1.74v-2.48h6.43v8.08h-1.98v-6.54h-2.62v1.01c0 1.16-.11 2.14-.32 2.92s-.54 1.41-.99 1.86c-.45.46-1.04.78-1.76.98Zm13.13-.06c-.7 0-1.32-.17-1.86-.5-.53-.34-.95-.82-1.25-1.45s-.45-1.38-.45-2.26.15-1.62.45-2.25.71-1.1 1.25-1.44 1.15-.5 1.86-.5 1.28.17 1.8.5.86.79 1.03 1.35h-.18l.18-1.7h1.92l-.09 1.01c-.03.34-.04.68-.04 1.01v6.06h-1.98l-.02-1.66h.19c-.17.55-.52 1-1.04 1.33s-1.11.5-1.78.5Zm.56-1.54c.63 0 1.14-.22 1.52-.66s.58-1.11.58-2.01-.19-1.56-.58-2c-.38-.44-.89-.66-1.52-.66s-1.14.22-1.52.66-.58 1.1-.58 2 .19 1.57.57 2.01q.57.66 1.53.66m7.23 4.26h-1.6c.55-1.23.97-2.42 1.24-3.59s.41-2.33.41-3.5-.14-2.33-.41-3.49-.69-2.36-1.24-3.58h1.6c.51.78.92 1.55 1.23 2.3.31.76.53 1.53.67 2.31s.21 1.6.21 2.46-.07 1.67-.21 2.46-.36 1.56-.67 2.32-.72 1.52-1.23 2.3Z" class="cls-2"/><text class="cls-1" transform="translate(183.41 167.23)"><tspan x="0" y="0">Цена за 1 м</tspan></text><text class="cls-1" transform="matrix(.58 0 0 .58 278.11 161.9)"><tspan x="0" y="0">2</tspan></text></g></svg>