<svg xmlns="http://www.w3.org/2000/svg" id="_Слой_2" data-name="Слой 2" viewBox="0 0 938.93 309.64"><defs><style>.cls-1,.cls-2{font-family:Mulish-Bold,Mulish;font-weight:700;fill:#27625f;font-size:16px}.cls-2{font-family:Mulish-SemiBold,Mulish;font-weight:600}.cls-10,.cls-13{letter-spacing:0}.cls-18{letter-spacing:-.02em}</style></defs><g id="_Слой_1-2" data-name="Слой 1"><rect width="937.93" height="275.63" x=".5" y=".5" rx="10" ry="10" style="fill:#fff;stroke:#a0b6b5;stroke-miterlimit:10"/><path d="M938.43 92.38H312.76m0 183.75V46.44M470.31 230.2V92.38M626.16 230.2V92.38M782.01 230.2V92.38m156.42 45.94H.5m937.93-91.88H.5m937.93 137.82H.5m937.93 45.94H.5" style="stroke:#a0b6b5;stroke-miterlimit:10;fill:none"/><text class="cls-1" transform="translate(115.12 92.38)"><tspan x="0" y="0">Ма</tspan><tspan x="24.06" y="0" class="cls-10">т</tspan><tspan x="31.73" y="0" style="letter-spacing:0">ериал</tspan></text><text class="cls-1" transform="translate(17.37 28.77)"><tspan x="0" y="0">Пос</tspan><tspan x="30.34" y="0" class="cls-10">т</tspan><tspan x="38" y="0" class="cls-13">еры</tspan></text><text class="cls-1" transform="translate(573.45 75.16)"><tspan x="0" y="0">Цена за м</tspan></text><text class="cls-1" transform="matrix(.58 0 0 .58 654.17 69.83)"><tspan x="0" y="0">2</tspan></text><text class="cls-1" transform="translate(659.77 75.16)"><tspan x="0" y="0" style="letter-spacing:-.06em">/</tspan><tspan x="4.1" y="0" style="letter-spacing:-.02em">р</tspan><tspan x="14" y="0">.</tspan></text><text class="cls-1" transform="translate(363.21 118.99)"><tspan x="0" y="0">360 dpi</tspan></text><text class="cls-2" transform="translate(368.54 165.16)"><tspan x="0" y="0">253 </tspan><tspan x="33.07" y="0" class="cls-18">р</tspan><tspan x="42.75" y="0" class="cls-13">.</tspan></text><text class="cls-2" transform="translate(368.54 211.77)"><tspan x="0" y="0">253 </tspan><tspan x="33.07" y="0" class="cls-18">р</tspan><tspan x="42.75" y="0" class="cls-13">.</tspan></text><text class="cls-1" transform="translate(520.52 118.99)"><tspan x="0" y="0">540 dpi</tspan></text><text class="cls-2" transform="translate(525.84 165.16)"><tspan x="0" y="0">286 </tspan><tspan x="33.07" y="0" class="cls-18">р</tspan><tspan x="42.75" y="0" class="cls-13">.</tspan></text><text class="cls-2" transform="translate(525.84 211.77)"><tspan x="0" y="0">253 </tspan><tspan x="33.07" y="0" class="cls-18">р</tspan><tspan x="42.75" y="0" class="cls-13">.</tspan></text><text class="cls-1" transform="translate(676.35 118.99)"><tspan x="0" y="0">720 dpi</tspan></text><text class="cls-2" transform="translate(681.68 165.16)"><tspan x="0" y="0">550 </tspan><tspan x="33.07" y="0" class="cls-18">р</tspan><tspan x="42.75" y="0" class="cls-13">.</tspan></text><text class="cls-2" transform="translate(681.68 211.77)"><tspan x="0" y="0">853 </tspan><tspan x="33.07" y="0" class="cls-18">р</tspan><tspan x="42.75" y="0" class="cls-13">.</tspan></text><text class="cls-2" transform="translate(604.22 257.47)"><tspan x="0" y="0">+20%</tspan></text><text class="cls-2" transform="translate(.5 305.27)"><tspan x="0" y="0">Пос</tspan><tspan x="29.94" y="0" style="letter-spacing:0">т</tspan><tspan x="37.38" y="0" style="letter-spacing:0">ерная: размер х резмер х 550 </tspan><tspan x="275.68" y="0" style="letter-spacing:-.02em">р</tspan><tspan x="285.36" y="0">. + 20% резка</tspan></text><text class="cls-2" transform="translate(519.37 305.27)"><tspan x="0" y="0">Фо</tspan><tspan x="23.65" y="0" style="letter-spacing:0">т</tspan><tspan x="31.09" y="0">о</tspan><tspan x="40.56" y="0" style="letter-spacing:0">б</tspan><tspan x="49.94" y="0">умага: размер х резмер х 853 </tspan><tspan x="287.64" y="0" style="letter-spacing:-.02em">р</tspan><tspan x="297.32" y="0">. + 20% резка</tspan></text><text class="cls-1" transform="translate(826.51 118.99)"><tspan x="0" y="0">1440 dpi</tspan></text><text class="cls-2" transform="translate(836.63 165.16)"><tspan x="0" y="0">585 </tspan><tspan x="33.07" y="0" class="cls-18">р</tspan><tspan x="42.75" y="0" class="cls-13">.</tspan></text><text class="cls-2" transform="translate(836.63 211.77)"><tspan x="0" y="0">905 </tspan><tspan x="33.07" y="0" class="cls-18">р</tspan><tspan x="42.75" y="0" class="cls-13">.</tspan></text><text class="cls-1" transform="translate(81.91 165.16)"><tspan x="0" y="0">Бумага пос</tspan><tspan x="91.07" y="0" class="cls-10">т</tspan><tspan x="98.73" y="0">ерная</tspan></text><text class="cls-1" transform="translate(11.15 211.77)"><tspan x="0" y="0">Фо</tspan><tspan x="24.21" y="0" style="letter-spacing:0">т</tspan><tspan x="31.87" y="0" style="letter-spacing:0">о </tspan><tspan x="45.95" y="0" style="letter-spacing:0">б</tspan><tspan x="55.54" y="0">умага (ма</tspan><tspan x="134.77" y="0" class="cls-10">т</tspan><tspan x="142.43" y="0">овая и </tspan><tspan x="199.26" y="0" style="letter-spacing:-.02em">г</tspan><tspan x="206.41" y="0">лянцевая)</tspan></text><text class="cls-1" transform="translate(45.96 256.94)"><tspan x="0" y="0" style="letter-spacing:-.02em">Р</tspan><tspan x="10.37" y="0">езка изображений в край</tspan></text></g></svg>