<svg xmlns="http://www.w3.org/2000/svg" data-name="Слой 2" viewBox="0 0 938.93 276.63"><g data-name="Слой 1"><rect width="937.93" height="275.63" x=".5" y=".5" rx="10" ry="10" style="fill:#fff;stroke:#a0b6b5;stroke-miterlimit:10"/><path d="M938.43 92.38H312.76m0 183.75V46.44M470.31 230.2V92.38M626.16 230.2V92.38M782.01 230.2V92.38m156.42 45.94H.5m937.93-91.88H.5m937.93 137.82H.5m937.93 45.94H.5" style="stroke:#a0b6b5;stroke-miterlimit:10;fill:none"/><path d="M116.39 92.38V81.1h1.81l4.14 9.33h-.5l4.14-9.33h1.79v11.28h-1.87v-8.37h.58l-3.79 8.37h-1.23l-3.79-8.37h.59v8.37zm16.97.16c-.7 0-1.32-.17-1.86-.5s-.95-.82-1.25-1.45-.45-1.38-.45-2.26.15-1.62.45-2.25c.3-.62.71-1.1 1.25-1.44s1.15-.5 1.86-.5 1.28.17 1.8.5.86.79 1.03 1.35h-.18l.18-1.7h1.92l-.09 1.01c-.03.34-.04.68-.04 1.01v6.06H136l-.02-1.66h.19c-.17.55-.52 1-1.04 1.33s-1.12.5-1.78.5Zm.56-1.54c.63 0 1.14-.22 1.52-.66s.58-1.11.58-2.01-.19-1.56-.58-2-.89-.66-1.52-.66-1.13.22-1.52.66c-.38.44-.58 1.1-.58 2s.19 1.57.57 2.01q.57.66 1.53.66m8.15 1.38v-6.51h-2.77V84.3h7.54v1.57h-2.78v6.51h-1.98Zm9.89.16c-1.36 0-2.42-.37-3.18-1.12-.77-.75-1.15-1.77-1.15-3.07 0-.84.16-1.58.5-2.21q.495-.945 1.38-1.47c.59-.35 1.28-.53 2.07-.53s1.43.17 1.95.5.92.79 1.19 1.39.41 1.3.41 2.1v.53h-5.89V87.6h4.46l-.27.22c0-.75-.16-1.32-.47-1.71-.32-.39-.77-.59-1.37-.59-.66 0-1.17.23-1.53.7s-.54 1.13-.54 1.97v.21c0 .87.22 1.53.65 1.96s1.04.65 1.83.65q.69 0 1.29-.18t1.14-.6l.59 1.34q-.57.465-1.38.72c-.81.255-1.1.26-1.7.26Zm5.08 3.29v-9.52c0-.33-.01-.67-.03-1.01s-.05-.68-.1-1.01h1.94l.18 1.7h-.18q.24-.855 1.02-1.35c.52-.34 1.12-.5 1.8-.5s1.34.17 1.87.5c.53.34.95.82 1.25 1.44s.45 1.37.45 2.25-.15 1.63-.45 2.26-.71 1.11-1.25 1.45c-.53.34-1.16.5-1.87.5-.67 0-1.26-.17-1.78-.5-.51-.33-.85-.77-1.02-1.33h.18v5.12h-2ZM161.1 91c.64 0 1.15-.22 1.54-.66.38-.44.58-1.11.58-2.01s-.19-1.56-.58-2c-.38-.44-.9-.66-1.54-.66s-1.14.22-1.52.66-.58 1.1-.58 2 .19 1.57.58 2.01c.38.44.89.66 1.52.66m6.02 1.38V84.3h1.81v6.11h-.48l4.59-6.11h1.65v8.08h-1.81v-6.13h.5l-4.61 6.13zm13.03.16c-.7 0-1.32-.17-1.86-.5s-.95-.82-1.25-1.45-.45-1.38-.45-2.26.15-1.62.45-2.25.71-1.1 1.25-1.44 1.15-.5 1.86-.5 1.28.17 1.8.5.86.79 1.03 1.35h-.18l.18-1.7h1.92l-.09 1.01c-.03.34-.04.68-.04 1.01v6.06h-1.98l-.02-1.66h.19c-.17.55-.52 1-1.04 1.33s-1.11.5-1.78.5Zm.56-1.54c.63 0 1.14-.22 1.52-.66s.58-1.11.58-2.01-.19-1.56-.58-2c-.38-.44-.89-.66-1.52-.66s-1.14.22-1.52.66-.58 1.1-.58 2 .19 1.57.57 2.01q.57.66 1.53.66m6.19 1.6-.62-1.57c.35-.13.65-.3.89-.5.24-.21.43-.47.58-.8.14-.33.25-.73.31-1.22s.1-1.06.1-1.74v-2.48h6.43v8.08h-1.98v-6.54h-2.62v1.01c0 1.16-.11 2.14-.32 2.92s-.54 1.41-.99 1.86c-.45.46-1.04.78-1.76.98ZM18.62 28.77V17.49h9.87v11.28h-2.05v-9.6h-5.79v9.6zm15.95.16q-1.245 0-2.16-.51c-.61-.34-1.08-.83-1.42-1.46s-.5-1.38-.5-2.24.17-1.61.5-2.23.81-1.11 1.42-1.45q.915-.51 2.16-.51c1.245 0 1.55.17 2.17.51.61.34 1.09.82 1.42 1.45s.5 1.37.5 2.23-.17 1.61-.5 2.24-.81 1.11-1.42 1.46c-.61.34-1.34.51-2.17.51m0-1.54q.945 0 1.5-.66c.37-.44.56-1.11.56-2.01s-.19-1.56-.56-2-.88-.66-1.5-.66-1.13.22-1.5.66-.56 1.1-.56 2 .19 1.57.56 2.01.88.66 1.5.66m9.76 1.54c-.83 0-1.56-.17-2.18-.51s-1.11-.83-1.45-1.46-.51-1.39-.51-2.26.17-1.62.52-2.24.83-1.09 1.45-1.42 1.34-.5 2.18-.5c.53 0 1.05.08 1.56.25s.92.4 1.24.71l-.61 1.39a2.8 2.8 0 0 0-.97-.6c-.36-.13-.71-.2-1.05-.2-.71 0-1.27.22-1.67.67s-.6 1.1-.6 1.95.2 1.51.6 1.97.96.69 1.67.69c.33 0 .68-.06 1.03-.19s.69-.33.98-.59l.61 1.38q-.495.465-1.26.72c-.51.17-1.02.26-1.54.26Zm6.26-.16v-6.51h-2.77v-1.57h7.54v1.57h-2.79v6.51zm9.88.16c-1.36 0-2.42-.37-3.18-1.12-.77-.75-1.15-1.77-1.15-3.07 0-.84.17-1.58.5-2.21q.495-.945 1.38-1.47c.59-.35 1.28-.53 2.07-.53s1.43.17 1.95.5.92.79 1.19 1.39.41 1.3.41 2.1v.53h-5.89v-1.06h4.46l-.27.22c0-.75-.16-1.32-.47-1.71s-.77-.59-1.37-.59c-.66 0-1.17.23-1.53.7s-.54 1.13-.54 1.97v.21c0 .87.21 1.53.65 1.96.43.43 1.04.65 1.83.65q.69 0 1.29-.18c.6-.18.78-.32 1.14-.6l.59 1.34q-.57.465-1.38.72c-.81.255-1.1.26-1.7.26Zm5.09 3.3v-9.52c0-.33-.01-.67-.03-1.01s-.05-.68-.1-1.01h1.94l.18 1.7h-.18q.24-.855 1.02-1.35c.52-.34 1.12-.5 1.8-.5s1.34.17 1.87.5c.53.34.95.82 1.25 1.44q.45.93.45 2.25c0 1.32-.15 1.63-.45 2.26s-.71 1.11-1.25 1.45-1.16.5-1.87.5c-.67 0-1.26-.17-1.78-.5-.51-.33-.85-.77-1.02-1.33h.18v5.12h-2Zm4.06-4.83c.64 0 1.15-.22 1.54-.66.38-.44.58-1.11.58-2.01s-.19-1.56-.58-2c-.38-.44-.9-.66-1.54-.66s-1.13.22-1.52.66c-.38.44-.58 1.1-.58 2s.19 1.57.58 2.01c.38.44.89.66 1.52.66m6.02 1.37v-8.08h1.98v2.7h2.13c1.08 0 1.89.23 2.43.68s.82 1.11.82 1.96c0 .55-.13 1.04-.38 1.45-.26.41-.63.73-1.11.95-.49.22-1.07.34-1.75.34h-4.11Zm1.98-1.31h1.86c.54 0 .96-.11 1.25-.34s.43-.58.43-1.05-.14-.81-.42-1.03q-.42-.33-1.26-.33h-1.86zM84 28.77v-8.08h1.98v8.08zM584.41 77.8v-2.64h-9.71V63.88h2.03v9.58h5.79v-9.58h2.05v9.58h1.65v4.34zm7.28-2.48c-1.36 0-2.42-.37-3.18-1.12-.77-.75-1.15-1.77-1.15-3.07 0-.84.17-1.58.5-2.21q.495-.945 1.38-1.47c.59-.35 1.28-.53 2.07-.53s1.43.17 1.95.5.92.79 1.19 1.39.41 1.3.41 2.1v.53h-5.89v-1.06h4.46l-.27.22c0-.75-.16-1.32-.47-1.71s-.77-.59-1.37-.59c-.66 0-1.17.23-1.53.7s-.54 1.12-.54 1.97v.21c0 .88.22 1.53.65 1.96s1.04.65 1.83.65q.69 0 1.29-.18t1.14-.6l.59 1.34q-.57.465-1.38.72c-.53.17-1.1.26-1.7.26Zm5.03-.16v-8.08h1.98v3.17h3.65v-3.17h1.98v8.08h-1.98v-3.38h-3.65v3.38zm13.07.16c-.7 0-1.32-.17-1.86-.5-.53-.34-.95-.82-1.25-1.45s-.45-1.38-.45-2.26.15-1.62.45-2.25.71-1.1 1.25-1.44 1.15-.5 1.86-.5 1.28.17 1.8.5c.52.34.86.79 1.03 1.35h-.18l.18-1.7h1.92l-.09 1.01c-.03.34-.04.68-.04 1.01v6.06h-1.98l-.02-1.66h.19c-.17.55-.52 1-1.04 1.33s-1.11.5-1.78.5Zm.56-1.54c.63 0 1.14-.22 1.52-.66s.58-1.11.58-2.01-.19-1.56-.58-2c-.38-.44-.89-.66-1.52-.66s-1.14.22-1.52.66-.58 1.1-.58 2 .19 1.57.57 2.01q.57.66 1.53.66m13.76 1.54c-.73 0-1.41-.09-2.04-.26s-1.16-.42-1.59-.74l.56-1.31c.39.29.86.51 1.38.66s1.08.22 1.67.22c.68 0 1.18-.09 1.5-.28a.89.89 0 0 0 .47-.82c0-.34-.12-.6-.37-.78s-.61-.26-1.09-.26h-2.1v-1.38h1.9c.44 0 .77-.08 1.01-.26.24-.17.35-.41.35-.72q0-.495-.42-.78c-.28-.19-.74-.29-1.38-.29-.55 0-1.06.07-1.52.2s-.89.33-1.3.58l-.54-1.25c.44-.31.97-.54 1.59-.7s1.3-.24 2.04-.24c1.08 0 1.9.2 2.48.59s.86.96.86 1.68c0 .49-.17.91-.5 1.26q-.51.525-1.35.66v-.22c.66.04 1.18.24 1.57.59.38.35.58.83.58 1.42 0 .74-.33 1.32-.98 1.76s-1.58.66-2.78.66Zm8.69 0c-.7 0-1.32-.17-1.86-.5-.53-.34-.95-.82-1.25-1.45s-.45-1.38-.45-2.26.15-1.62.45-2.25.71-1.1 1.25-1.44 1.15-.5 1.86-.5 1.28.17 1.8.5c.52.34.86.79 1.03 1.35h-.18l.18-1.7h1.92l-.09 1.01c-.03.34-.04.68-.04 1.01v6.06h-1.98l-.02-1.66h.19c-.17.55-.52 1-1.04 1.33s-1.11.5-1.78.5Zm.56-1.54c.63 0 1.14-.22 1.52-.66s.58-1.11.58-2.01-.19-1.56-.58-2c-.38-.44-.89-.66-1.52-.66s-1.14.22-1.52.66-.58 1.1-.58 2 .19 1.57.57 2.01q.57.66 1.53.66m10.78 1.38v-8.08h1.66l2.78 4.83 2.79-4.83h1.66v8.08h-1.76v-5.84h.37l-2.59 4.53h-.93l-2.59-4.53h.37v5.84zm10.76-5.33v-.89l2.18-2.28c.27-.29.48-.55.61-.79s.2-.49.2-.75q0-.48-.3-.72t-.87-.24c-.3 0-.6.05-.88.16s-.55.28-.82.51l-.39-.89q.405-.36.99-.57c.39-.14.81-.21 1.24-.21.71 0 1.25.16 1.63.48s.57.77.57 1.36c0 .41-.1.8-.29 1.17s-.49.76-.9 1.16l-1.82 1.82v-.32h3.26v1h-4.43Zm6.12 6.27h-1.65l4.21-12.98h1.65zm4.04 2.52V69.1c0-.33-.01-.67-.03-1.01s-.05-.68-.1-1.01h1.94l.18 1.7h-.18q.24-.855 1.02-1.35c.52-.34 1.12-.5 1.8-.5s1.34.17 1.87.5c.53.34.95.82 1.25 1.44q.45.93.45 2.25c0 1.32-.15 1.63-.45 2.26s-.71 1.11-1.25 1.45-1.16.5-1.87.5c-.67 0-1.26-.17-1.78-.5-.51-.33-.85-.77-1.02-1.33h.18v5.12h-2Zm4.06-4.83c.64 0 1.15-.22 1.54-.66.38-.44.58-1.11.58-2.01s-.19-1.56-.58-2c-.38-.44-.9-.66-1.54-.66s-1.13.22-1.52.66c-.38.44-.58 1.1-.58 2s.19 1.57.58 2.01c.38.44.89.66 1.52.66m5.51 1.37v-2.22h2.24v2.22zm-306.79 43.99c-.78 0-1.53-.11-2.24-.34s-1.3-.55-1.76-.95l.67-1.55c.5.38 1.02.67 1.56.85s1.11.27 1.7.27c.72 0 1.27-.14 1.65-.43s.56-.71.56-1.26-.18-.94-.55-1.21-.9-.41-1.61-.41H366v-1.65h1.65c.61 0 1.09-.15 1.46-.45q.54-.45.54-1.23c0-.49-.17-.86-.5-1.12-.34-.26-.82-.38-1.45-.38-1.13 0-2.13.38-2.99 1.15l-.67-1.54c.46-.43 1.03-.76 1.7-.99.68-.23 1.39-.35 2.14-.35 1.17 0 2.09.26 2.76.79s1 1.26 1 2.2q0 1.005-.57 1.74c-.38.49-.9.81-1.56.97v-.19c.78.13 1.38.45 1.82.95.43.51.65 1.14.65 1.9 0 1-.37 1.79-1.1 2.38-.74.58-1.74.87-3.02.87Zm10.17 0c-1.42 0-2.51-.49-3.29-1.47-.77-.98-1.16-2.36-1.16-4.13 0-1.28.2-2.37.59-3.26s.96-1.57 1.69-2.04 1.61-.71 2.63-.71c.61 0 1.21.11 1.81.33s1.11.53 1.54.94l-.69 1.54c-.39-.36-.82-.63-1.28-.81s-.92-.26-1.39-.26c-.96 0-1.69.33-2.19.98q-.75.975-.75 2.91v1.2h-.19c.08-.54.27-1.01.54-1.4.28-.39.63-.69 1.07-.9s.92-.31 1.46-.31c.66 0 1.25.15 1.76.46s.91.74 1.21 1.28c.29.54.44 1.17.44 1.87s-.16 1.37-.49 1.94-.77 1.02-1.34 1.34-1.22.49-1.97.49Zm-.11-1.63c.39 0 .74-.09 1.04-.26s.53-.41.7-.73.25-.67.25-1.08-.08-.78-.25-1.09-.4-.55-.7-.73-.65-.26-1.04-.26-.74.09-1.04.26c-.3.18-.53.42-.7.73s-.26.67-.26 1.09.09.77.26 1.08.4.56.7.73.65.26 1.04.26m9.31 1.63c-1.32 0-2.34-.5-3.06-1.51-.71-1.01-1.07-2.45-1.07-4.31s.36-3.32 1.07-4.3q1.065-1.47 3.06-1.47c1.995 0 2.35.49 3.06 1.47s1.06 2.41 1.06 4.29-.35 3.32-1.06 4.33-1.73 1.51-3.06 1.51Zm0-1.7c.73 0 1.26-.33 1.62-1 .35-.67.53-1.71.53-3.14s-.18-2.47-.53-3.11-.89-.97-1.62-.97-1.25.32-1.61.97-.54 1.68-.54 3.11.18 2.48.54 3.14c.36.67.89 1 1.61 1m13.41 1.7c-.7 0-1.33-.17-1.86-.5-.54-.34-.96-.82-1.26-1.45s-.45-1.38-.45-2.26.15-1.62.45-2.25q.45-.93 1.26-1.44c.54-.34 1.16-.5 1.86-.5s1.27.16 1.78.49c.52.33.86.77 1.03 1.32h-.21v-5.34h2V119h-1.97v-1.71h.19c-.17.58-.52 1.03-1.03 1.37-.52.34-1.12.5-1.8.5Zm.56-1.54c.63 0 1.14-.22 1.52-.66s.58-1.11.58-2.01-.19-1.56-.58-2c-.38-.44-.89-.66-1.52-.66s-1.14.22-1.53.66-.58 1.1-.58 2 .2 1.57.58 2.01q.585.66 1.53.66m6.22 4.83v-9.52c0-.33-.01-.67-.03-1.01s-.05-.68-.1-1.01h1.94l.18 1.7h-.18q.24-.855 1.02-1.35c.78-.495 1.12-.5 1.8-.5s1.34.17 1.87.5.95.82 1.25 1.44.45 1.37.45 2.25-.15 1.63-.45 2.26-.71 1.11-1.25 1.45c-.53.34-1.16.5-1.87.5-.67 0-1.26-.17-1.78-.5-.51-.33-.85-.77-1.02-1.33h.18v5.12h-2Zm4.06-4.83c.64 0 1.15-.22 1.54-.66.38-.44.58-1.11.58-2.01s-.19-1.56-.58-2c-.38-.44-.9-.66-1.54-.66s-1.14.22-1.52.66-.58 1.1-.58 2 .19 1.57.58 2.01c.38.44.89.66 1.52.66m5.75-8.22v-1.95h2.22v1.95zm.11 9.6v-8.08h2v8.08zm-47.45 46.17v-1.23l3.87-4.05c.5-.52.88-1.01 1.12-1.47.25-.46.37-.93.37-1.42q0-.915-.57-1.38c-.57-.465-.93-.46-1.64-.46q-.855 0-1.59.3c-.5.2-.97.51-1.43.93l-.58-1.26c.45-.42 1.01-.75 1.67-1a6 6 0 0 1 2.12-.38c1.17 0 2.08.27 2.71.8s.95 1.3.95 2.29c0 .7-.17 1.38-.51 2.02-.34.65-.85 1.31-1.54 1.99l-3.34 3.38v-.45h5.86v1.39zm13.23.15a6.5 6.5 0 0 1-2.8-.62c-.41-.2-.78-.43-1.09-.71l.58-1.26c.51.4 1.04.69 1.58.89s1.11.3 1.7.3c.76 0 1.35-.2 1.78-.59s.65-.92.65-1.58-.21-1.23-.62-1.66c-.41-.42-.98-.63-1.7-.63-.5 0-.96.1-1.37.3q-.615.3-1.08.93h-1.15v-6.78h6.83v1.39h-5.25v4.06h-.42c.29-.41.67-.72 1.16-.94a3.9 3.9 0 0 1 1.64-.34c.73 0 1.35.15 1.89.45.53.3.95.71 1.24 1.25.29.53.44 1.16.44 1.89s-.16 1.36-.49 1.91a3.4 3.4 0 0 1-1.39 1.29c-.6.31-1.32.46-2.14.46Zm9.33 0c-.77 0-1.5-.12-2.21-.34-.7-.23-1.29-.56-1.76-.98l.58-1.26c.52.41 1.06.7 1.6.9s1.13.29 1.74.29c.79 0 1.39-.17 1.8-.5s.62-.81.62-1.42-.21-1.07-.62-1.38-1.02-.47-1.82-.47h-1.74v-1.34h1.62c.68 0 1.23-.17 1.63-.52s.61-.82.61-1.42c0-.54-.19-.96-.56-1.26-.37-.29-.91-.44-1.6-.44q-1.755 0-3.09 1.23l-.56-1.26c.44-.44.99-.78 1.66-1.02s1.38-.36 2.11-.36q1.695 0 2.67.78c.65.52.98 1.23.98 2.15 0 .69-.19 1.29-.58 1.78s-.92.82-1.59.98v-.18c.8.13 1.42.45 1.85.95.43.51.65 1.14.65 1.9 0 1-.35 1.79-1.06 2.36s-1.68.86-2.92.86Zm10.46 3.31v-9.58c0-.31-.01-.63-.04-.95l-.09-.98h1.57l.16 1.82h-.18c.17-.61.51-1.09 1.03-1.44s1.13-.53 1.85-.53 1.34.17 1.87.5.95.81 1.24 1.43.44 1.37.44 2.24-.15 1.61-.44 2.24-.71 1.11-1.24 1.44-1.16.5-1.87.5-1.31-.17-1.83-.52-.86-.82-1.03-1.42h.18v5.25zm3.9-4.58c.7 0 1.27-.25 1.69-.74s.63-1.22.63-2.18-.21-1.68-.63-2.17c-.42-.48-.98-.73-1.69-.73s-1.27.24-1.69.73-.63 1.21-.63 2.17.21 1.69.63 2.18.98.74 1.69.74m5.45 1.12v-1.9h1.9v1.9zm-42.37 46.61v-1.23l3.87-4.05c.5-.52.88-1.01 1.12-1.47.25-.46.37-.93.37-1.42q0-.915-.57-1.38c-.38-.31-.93-.46-1.64-.46q-.855 0-1.59.3c-.5.2-.97.51-1.43.93l-.58-1.26c.45-.42 1.01-.75 1.67-1a6 6 0 0 1 2.12-.38c1.17 0 2.08.27 2.71.8s.95 1.3.95 2.29c0 .7-.17 1.38-.51 2.02-.34.65-.85 1.31-1.54 1.99l-3.34 3.38v-.45h5.86v1.39zm13.23.14a6.5 6.5 0 0 1-2.8-.62c-.42-.2-.78-.43-1.09-.71l.58-1.26c.51.39 1.04.69 1.58.89s1.11.3 1.7.3c.76 0 1.35-.2 1.78-.59s.65-.92.65-1.58-.21-1.23-.62-1.66c-.41-.42-.98-.63-1.7-.63-.5 0-.96.1-1.37.3q-.615.3-1.08.93h-1.15v-6.78h6.83v1.39h-5.25v4.06h-.42c.29-.41.67-.72 1.16-.94a3.9 3.9 0 0 1 1.64-.34c.73 0 1.35.15 1.89.45s.95.71 1.24 1.25.44 1.16.44 1.89-.16 1.36-.49 1.91a3.4 3.4 0 0 1-1.39 1.29c-.6.31-1.32.46-2.14.46Zm9.33 0c-.77 0-1.5-.11-2.21-.34s-1.29-.56-1.76-.98l.58-1.26c.52.41 1.06.7 1.6.9.54.19 1.13.29 1.74.29.79 0 1.39-.17 1.8-.5s.62-.81.62-1.42-.21-1.07-.62-1.38-1.02-.47-1.82-.47h-1.74v-1.34h1.62c.68 0 1.23-.17 1.63-.52s.61-.82.61-1.42c0-.54-.19-.96-.56-1.26s-.91-.44-1.6-.44q-1.755 0-3.09 1.23l-.56-1.26c.44-.44.99-.78 1.66-1.02s1.38-.36 2.11-.36q1.695 0 2.67.78c.65.52.98 1.24.98 2.15 0 .69-.19 1.29-.58 1.78s-.92.82-1.59.98v-.18c.8.13 1.42.45 1.85.95.43.51.65 1.14.65 1.9 0 1-.35 1.79-1.06 2.36s-1.68.86-2.92.86Zm10.46 3.32v-9.58c0-.31-.01-.63-.04-.95l-.09-.98h1.57l.16 1.82h-.18c.17-.61.51-1.09 1.03-1.44s1.13-.53 1.85-.53 1.34.17 1.87.5.95.81 1.24 1.43.44 1.37.44 2.24-.15 1.61-.44 2.24-.71 1.11-1.24 1.44-1.16.5-1.87.5-1.31-.17-1.83-.52-.86-.82-1.03-1.42h.18v5.25zm3.9-4.58c.7 0 1.27-.25 1.69-.74s.63-1.22.63-2.18-.21-1.68-.63-2.17-.98-.73-1.69-.73-1.27.24-1.69.73-.63 1.21-.63 2.17.21 1.69.63 2.18.98.74 1.69.74m5.45 1.12v-1.9h1.9v1.9zm113.15-92.62c-.49 0-.98-.05-1.46-.16s-.94-.26-1.36-.45q-.63-.285-1.08-.69l.67-1.55c.5.37 1.02.65 1.54.84.53.19 1.08.28 1.66.28.69 0 1.23-.17 1.62-.52s.58-.81.58-1.4-.19-1.08-.56-1.45-.89-.55-1.54-.55c-.46 0-.88.09-1.26.26s-.72.45-1.02.81h-1.36v-6.86h7.01v1.7h-5.06v3.58h-.5c.28-.37.65-.66 1.11-.86q.69-.3 1.56-.3c.73 0 1.35.15 1.89.45.53.3.95.72 1.25 1.26s.45 1.17.45 1.9-.17 1.38-.5 1.94-.82 1-1.44 1.31-1.36.47-2.22.47Zm10.42-.16v-2.21h-5.04v-1.44l5.36-7.63h1.66v7.5h1.62v1.57h-1.62v2.21zm0-3.78v-5.07h.38l-3.89 5.55v-.48h3.5Zm8.7 3.94c-1.32 0-2.34-.5-3.06-1.51-.71-1.01-1.07-2.45-1.07-4.31s.36-3.32 1.07-4.3q1.065-1.47 3.06-1.47c1.995 0 2.35.49 3.06 1.47s1.06 2.41 1.06 4.29-.35 3.32-1.06 4.33-1.73 1.51-3.06 1.51Zm0-1.7c.73 0 1.26-.33 1.62-1 .35-.67.53-1.71.53-3.14s-.18-2.47-.53-3.11-.89-.97-1.62-.97-1.25.32-1.61.97-.54 1.68-.54 3.11.18 2.48.54 3.14c.36.67.89 1 1.61 1m13.41 1.7c-.7 0-1.33-.17-1.86-.5-.54-.34-.96-.82-1.26-1.45s-.45-1.38-.45-2.26.15-1.62.45-2.25q.45-.93 1.26-1.44c.54-.34 1.16-.5 1.86-.5s1.27.16 1.78.49c.52.33.86.77 1.03 1.32h-.21v-5.34h2V119h-1.97v-1.71h.19c-.17.58-.52 1.03-1.03 1.37-.52.34-1.12.5-1.8.5Zm.56-1.54c.63 0 1.14-.22 1.52-.66s.58-1.11.58-2.01-.19-1.56-.58-2c-.38-.44-.89-.66-1.52-.66s-1.14.22-1.53.66-.58 1.1-.58 2 .2 1.57.58 2.01q.585.66 1.53.66m6.23 4.83v-9.52c0-.33-.01-.67-.03-1.01s-.05-.68-.1-1.01h1.94l.18 1.7h-.18q.24-.855 1.02-1.35c.78-.495 1.12-.5 1.8-.5s1.34.17 1.87.5.95.82 1.25 1.44.45 1.37.45 2.25-.15 1.63-.45 2.26-.71 1.11-1.25 1.45c-.53.34-1.16.5-1.87.5-.67 0-1.26-.17-1.78-.5-.51-.33-.85-.77-1.02-1.33h.18v5.12h-2Zm4.06-4.83c.64 0 1.15-.22 1.54-.66.38-.44.58-1.11.58-2.01s-.19-1.56-.58-2c-.38-.44-.9-.66-1.54-.66s-1.14.22-1.52.66-.58 1.1-.58 2 .19 1.57.58 2.01c.38.44.89.66 1.52.66m5.74-8.22v-1.95h2.22v1.95zm.11 9.6v-8.08h2v8.08zm-47.45 46.17v-1.23l3.87-4.05c.5-.52.88-1.01 1.12-1.47.25-.46.37-.93.37-1.42q0-.915-.57-1.38c-.57-.465-.93-.46-1.64-.46q-.855 0-1.59.3c-.5.2-.97.51-1.43.93l-.58-1.26c.45-.42 1.01-.75 1.67-1a6 6 0 0 1 2.12-.38c1.17 0 2.08.27 2.71.8s.95 1.3.95 2.29c0 .7-.17 1.38-.51 2.02-.34.65-.85 1.31-1.54 1.99l-3.34 3.38v-.45h5.86v1.39zm13.07.15c-1.3 0-2.31-.28-3.04-.83-.72-.55-1.09-1.33-1.09-2.32 0-.79.24-1.44.72-1.96s1.11-.83 1.89-.94v.29c-.7-.15-1.27-.47-1.69-.98-.42-.5-.63-1.11-.63-1.82 0-.94.34-1.67 1.02-2.21.68-.53 1.62-.8 2.82-.8s2.15.27 2.83.8 1.02 1.27 1.02 2.21c0 .71-.2 1.33-.6 1.83-.4.51-.95.82-1.64.95v-.27c.77.11 1.38.42 1.84.94s.69 1.17.69 1.96c0 .99-.36 1.77-1.09 2.32s-1.74.83-3.06.83Zm0-1.31c.86 0 1.51-.16 1.94-.49s.64-.81.64-1.46-.21-1.14-.64-1.46-1.07-.48-1.94-.48-1.51.16-1.94.48-.64.81-.64 1.46.22 1.14.65 1.46c.43.33 1.07.49 1.93.49m0-5.2c.75 0 1.31-.17 1.7-.5s.58-.8.58-1.38-.19-1.03-.58-1.36-.96-.5-1.7-.5-1.3.17-1.7.5c-.39.33-.59.78-.59 1.36s.2 1.05.59 1.38.96.5 1.7.5m9.99 6.51c-1.4 0-2.47-.49-3.22-1.46s-1.13-2.33-1.13-4.08c0-1.3.19-2.4.58-3.29.38-.89.93-1.57 1.64-2.04s1.57-.7 2.57-.7c.6 0 1.19.12 1.79.34.6.23 1.1.55 1.5.97l-.59 1.25c-.39-.38-.83-.67-1.3-.86s-.94-.29-1.42-.29q-1.545 0-2.37 1.08c-.825 1.08-.82 1.79-.82 3.22v1.36h-.16c.07-.58.26-1.07.54-1.5.29-.42.66-.74 1.12-.97.46-.22.97-.34 1.54-.34.67 0 1.27.15 1.78.46.52.31.92.73 1.22 1.27s.45 1.16.45 1.85-.16 1.35-.48 1.92-.76 1-1.32 1.32-1.2.47-1.93.47Zm-.1-1.34c.45 0 .84-.1 1.18-.29s.6-.46.79-.81.29-.75.29-1.21-.1-.86-.29-1.2-.46-.61-.79-.81-.73-.3-1.18-.3-.84.1-1.18.3-.61.47-.8.81-.29.74-.29 1.2.1.86.29 1.21.46.62.8.81.74.29 1.18.29m10.06 4.65v-9.58c0-.31-.01-.63-.04-.95l-.09-.98h1.57l.16 1.82h-.18c.17-.61.51-1.09 1.03-1.44s1.13-.53 1.85-.53 1.34.17 1.87.5.95.81 1.24 1.43.44 1.37.44 2.24-.15 1.61-.44 2.24-.71 1.11-1.24 1.44-1.16.5-1.87.5-1.31-.17-1.83-.52-.86-.82-1.03-1.42h.18v5.25zm3.9-4.58c.7 0 1.27-.25 1.69-.74s.63-1.22.63-2.18-.21-1.68-.63-2.17c-.42-.48-.98-.73-1.69-.73s-1.27.24-1.69.73-.63 1.21-.63 2.17.21 1.69.63 2.18.98.74 1.69.74m5.45 1.12v-1.9h1.9v1.9zm-42.37 46.61v-1.23l3.87-4.05c.5-.52.88-1.01 1.12-1.47.25-.46.37-.93.37-1.42q0-.915-.57-1.38c-.38-.31-.93-.46-1.64-.46q-.855 0-1.59.3c-.5.2-.97.51-1.43.93l-.58-1.26c.45-.42 1.01-.75 1.67-1a6 6 0 0 1 2.12-.38c1.17 0 2.08.27 2.71.8s.95 1.3.95 2.29c0 .7-.17 1.38-.51 2.02-.34.65-.85 1.31-1.54 1.99l-3.34 3.38v-.45h5.86v1.39zm13.23.14a6.5 6.5 0 0 1-2.8-.62c-.42-.2-.78-.43-1.09-.71l.58-1.26c.51.39 1.04.69 1.58.89s1.11.3 1.7.3c.76 0 1.35-.2 1.78-.59s.65-.92.65-1.58-.21-1.23-.62-1.66c-.41-.42-.98-.63-1.7-.63-.5 0-.96.1-1.37.3q-.615.3-1.08.93h-1.15v-6.78h6.83v1.39h-5.25v4.06h-.42c.29-.41.67-.72 1.16-.94a3.9 3.9 0 0 1 1.64-.34c.73 0 1.35.15 1.89.45s.95.71 1.24 1.25.44 1.16.44 1.89-.16 1.36-.49 1.91a3.4 3.4 0 0 1-1.39 1.29c-.6.31-1.32.46-2.14.46Zm9.33 0c-.77 0-1.5-.11-2.21-.34s-1.29-.56-1.76-.98l.58-1.26c.52.41 1.06.7 1.6.9.54.19 1.13.29 1.74.29.79 0 1.39-.17 1.8-.5s.62-.81.62-1.42-.21-1.07-.62-1.38-1.02-.47-1.82-.47h-1.74v-1.34h1.62c.68 0 1.23-.17 1.63-.52s.61-.82.61-1.42c0-.54-.19-.96-.56-1.26s-.91-.44-1.6-.44q-1.755 0-3.09 1.23l-.56-1.26c.44-.44.99-.78 1.66-1.02s1.38-.36 2.11-.36q1.695 0 2.67.78c.65.52.98 1.24.98 2.15 0 .69-.19 1.29-.58 1.78s-.92.82-1.59.98v-.18c.8.13 1.42.45 1.85.95.43.51.65 1.14.65 1.9 0 1-.35 1.79-1.06 2.36s-1.68.86-2.92.86Zm10.46 3.32v-9.58c0-.31-.01-.63-.04-.95l-.09-.98h1.57l.16 1.82h-.18c.17-.61.51-1.09 1.03-1.44s1.13-.53 1.85-.53 1.34.17 1.87.5.95.81 1.24 1.43.44 1.37.44 2.24-.15 1.61-.44 2.24-.71 1.11-1.24 1.44-1.16.5-1.87.5-1.31-.17-1.83-.52-.86-.82-1.03-1.42h.18v5.25zm3.9-4.58c.7 0 1.27-.25 1.69-.74s.63-1.22.63-2.18-.21-1.68-.63-2.17-.98-.73-1.69-.73-1.27.24-1.69.73-.63 1.21-.63 2.17.21 1.69.63 2.18.98.74 1.69.74m5.45 1.12v-1.9h1.9v1.9zm108.18-92.78 5.47-10.27v.72h-5.98v-1.73h7.89v1.54l-5.12 9.74zm9.48 0v-1.52l3.74-3.9c.47-.49.82-.94 1.04-1.36s.34-.84.34-1.28c0-.54-.17-.96-.51-1.23-.34-.28-.84-.42-1.49-.42-.52 0-1.02.09-1.5.28q-.72.285-1.41.87l-.67-1.54c.46-.4 1.03-.73 1.7-.97.68-.25 1.39-.37 2.14-.37 1.22 0 2.15.27 2.8.82.65.54.98 1.32.98 2.34 0 .7-.17 1.37-.5 2.01-.33.63-.84 1.3-1.54 1.99l-3.12 3.12v-.54h5.6V119h-7.6Zm13.15.16c-1.32 0-2.34-.5-3.05-1.51s-1.07-2.45-1.07-4.31.36-3.32 1.07-4.3 1.73-1.47 3.05-1.47 2.36.49 3.06 1.47 1.06 2.41 1.06 4.29-.36 3.32-1.06 4.33-1.73 1.51-3.06 1.51Zm0-1.7c.73 0 1.26-.33 1.62-1 .35-.67.53-1.71.53-3.14s-.18-2.47-.53-3.11-.89-.97-1.62-.97-1.25.32-1.61.97-.54 1.68-.54 3.11.18 2.48.54 3.14c.36.67.89 1 1.61 1m13.41 1.7c-.7 0-1.33-.17-1.86-.5-.54-.34-.96-.82-1.26-1.45s-.45-1.38-.45-2.26.15-1.62.45-2.25q.45-.93 1.26-1.44c.54-.34 1.16-.5 1.86-.5s1.27.16 1.78.49c.52.33.86.77 1.03 1.32h-.21v-5.34h2V119h-1.97v-1.71h.19a2.4 2.4 0 0 1-1.03 1.37c-.52.34-1.12.5-1.8.5Zm.56-1.54c.63 0 1.14-.22 1.52-.66s.58-1.11.58-2.01-.19-1.56-.58-2c-.38-.44-.89-.66-1.52-.66s-1.14.22-1.53.66-.58 1.1-.58 2 .19 1.57.58 2.01q.585.66 1.53.66m6.22 4.83v-9.52c0-.33-.01-.67-.03-1.01s-.05-.68-.1-1.01h1.94l.18 1.7h-.18q.24-.855 1.02-1.35c.78-.495 1.12-.5 1.8-.5s1.34.17 1.87.5.95.82 1.25 1.44.45 1.37.45 2.25-.15 1.63-.45 2.26-.71 1.11-1.25 1.45c-.53.34-1.16.5-1.87.5-.67 0-1.26-.17-1.78-.5-.51-.33-.85-.77-1.02-1.33h.18v5.12h-2Zm4.06-4.83c.64 0 1.15-.22 1.54-.66.38-.44.58-1.11.58-2.01s-.19-1.56-.58-2c-.38-.44-.9-.66-1.54-.66s-1.14.22-1.52.66-.58 1.1-.58 2 .19 1.57.58 2.01c.38.44.89.66 1.52.66m5.75-8.22v-1.95h2.22v1.95zm.11 9.6v-8.08h2v8.08zm-43.82 46.32a6.5 6.5 0 0 1-2.8-.62c-.41-.2-.78-.43-1.09-.71l.58-1.26c.51.4 1.04.69 1.58.89s1.11.3 1.71.3c.76 0 1.35-.2 1.78-.59s.65-.92.65-1.58-.21-1.23-.62-1.66c-.41-.42-.98-.63-1.7-.63-.5 0-.96.1-1.37.3q-.615.3-1.08.93h-1.15v-6.78h6.83v1.39h-5.25v4.06h-.42c.29-.41.67-.72 1.16-.94.48-.22 1.03-.34 1.64-.34.73 0 1.35.15 1.89.45.53.3.95.71 1.24 1.25.29.53.44 1.16.44 1.89s-.16 1.36-.49 1.91c-.32.55-.79.98-1.39 1.29s-1.32.46-2.14.46Zm9.6 0a6.5 6.5 0 0 1-2.8-.62c-.41-.2-.78-.43-1.09-.71l.58-1.26c.51.4 1.04.69 1.58.89s1.11.3 1.71.3c.76 0 1.35-.2 1.78-.59s.65-.92.65-1.58-.21-1.23-.62-1.66c-.41-.42-.98-.63-1.7-.63-.5 0-.96.1-1.37.3q-.615.3-1.08.93h-1.15v-6.78h6.83v1.39h-5.25v4.06h-.42c.29-.41.67-.72 1.16-.94.48-.22 1.03-.34 1.64-.34.73 0 1.35.15 1.89.45.53.3.95.71 1.24 1.25.29.53.44 1.16.44 1.89s-.16 1.36-.49 1.91c-.32.55-.79.98-1.39 1.29s-1.32.46-2.14.46Zm9.44 0q-1.95 0-3-1.5c-.7-1-1.05-2.43-1.05-4.3s.35-3.34 1.05-4.31c.7-.98 1.7-1.46 3-1.46s2.31.49 3.01 1.46c.69.98 1.04 2.41 1.04 4.3s-.35 3.32-1.05 4.31q-1.05 1.5-3 1.5m0-1.39c.82 0 1.43-.36 1.83-1.07s.6-1.83.6-3.34-.2-2.64-.6-3.34q-.6-1.05-1.83-1.05c-1.23 0-1.42.35-1.82 1.05-.41.7-.61 1.81-.61 3.32s.21 2.65.62 3.36 1.02 1.07 1.82 1.07Zm10.35 4.7v-9.58c0-.31-.01-.63-.04-.95l-.09-.98h1.57l.16 1.82h-.18c.17-.61.51-1.09 1.03-1.44s1.13-.53 1.85-.53 1.34.17 1.87.5.95.81 1.24 1.43.44 1.37.44 2.24-.15 1.61-.44 2.24-.71 1.11-1.24 1.44-1.16.5-1.87.5-1.31-.17-1.83-.52-.86-.82-1.03-1.42h.18v5.25zm3.9-4.58c.7 0 1.27-.25 1.69-.74s.63-1.22.63-2.18-.21-1.68-.63-2.17c-.42-.48-.98-.73-1.69-.73s-1.27.24-1.69.73-.63 1.21-.63 2.17.21 1.69.63 2.18.98.74 1.69.74m5.44 1.12v-1.9h1.9v1.9zm-38.89 46.75c-1.3 0-2.31-.28-3.04-.83s-1.09-1.33-1.09-2.32c0-.79.24-1.44.72-1.96s1.11-.83 1.89-.94v.29c-.7-.15-1.27-.47-1.69-.98-.42-.5-.63-1.11-.63-1.82 0-.94.34-1.67 1.02-2.21.68-.53 1.62-.8 2.82-.8s2.15.27 2.83.8 1.02 1.27 1.02 2.21c0 .71-.2 1.33-.6 1.83s-.95.82-1.64.95v-.27c.77.11 1.38.42 1.84.94s.69 1.17.69 1.96c0 .99-.36 1.76-1.09 2.32-.73.55-1.74.83-3.06.83Zm0-1.31c.86 0 1.51-.16 1.94-.49s.64-.81.64-1.46-.21-1.14-.64-1.46-1.07-.48-1.94-.48-1.51.16-1.94.48-.64.81-.64 1.46.22 1.14.65 1.46 1.07.49 1.93.49m0-5.2c.75 0 1.31-.17 1.7-.5s.58-.8.58-1.38-.19-1.03-.58-1.36-.96-.5-1.7-.5-1.3.17-1.7.5c-.39.33-.59.78-.59 1.36s.2 1.05.59 1.38.96.5 1.7.5m9.76 6.51a6.5 6.5 0 0 1-2.8-.62c-.42-.2-.78-.43-1.09-.71l.58-1.26c.51.39 1.04.69 1.58.89q.81.3 1.71.3c.76 0 1.35-.2 1.78-.59s.65-.92.65-1.58-.21-1.23-.62-1.66c-.41-.42-.98-.63-1.7-.63-.5 0-.96.1-1.37.3q-.615.3-1.08.93h-1.15v-6.78h6.83v1.39h-5.25v4.06h-.42c.29-.41.67-.72 1.16-.94.48-.22 1.03-.34 1.64-.34.73 0 1.35.15 1.89.45s.95.71 1.24 1.25.44 1.16.44 1.89-.16 1.36-.49 1.91c-.32.55-.79.98-1.39 1.29s-1.32.46-2.14.46Zm9.32 0c-.77 0-1.5-.11-2.21-.34s-1.29-.56-1.76-.98l.58-1.26c.52.41 1.06.7 1.6.9.54.19 1.13.29 1.74.29.79 0 1.39-.17 1.8-.5s.62-.81.62-1.42-.21-1.07-.62-1.38-1.02-.47-1.82-.47h-1.74v-1.34h1.62c.68 0 1.23-.17 1.63-.52.41-.35.61-.82.61-1.42 0-.54-.19-.96-.56-1.26s-.91-.44-1.6-.44q-1.755 0-3.09 1.23l-.56-1.26c.44-.44.99-.78 1.66-1.02s1.38-.36 2.11-.36q1.695 0 2.67.78c.65.52.98 1.24.98 2.15 0 .69-.2 1.29-.58 1.78-.39.49-.92.82-1.59.98v-.18c.8.13 1.42.45 1.85.95.43.51.65 1.14.65 1.9 0 1-.36 1.79-1.06 2.36-.71.57-1.68.86-2.92.86Zm10.47 3.32v-9.58c0-.31-.01-.63-.04-.95l-.09-.98h1.57l.16 1.82h-.18c.17-.61.51-1.09 1.03-1.44s1.13-.53 1.85-.53 1.34.17 1.87.5.95.81 1.24 1.43.44 1.37.44 2.24-.15 1.61-.44 2.24-.71 1.11-1.24 1.44-1.16.5-1.87.5-1.31-.17-1.83-.52-.86-.82-1.03-1.42h.18v5.25zm3.9-4.58c.7 0 1.27-.25 1.69-.74s.63-1.22.63-2.18-.21-1.68-.63-2.17-.98-.73-1.69-.73-1.27.24-1.69.73-.63 1.21-.63 2.17.21 1.69.63 2.18.98.74 1.69.74m5.44 1.12v-1.9h1.9v1.9zm-116.96 45.09v-3.39h-3.34v-1.18h3.34v-3.31h1.22v3.31h3.34v1.18h-3.34v3.39zm6.73.61v-1.23l3.87-4.05c.5-.52.88-1.01 1.12-1.47.25-.46.37-.93.37-1.42q0-.915-.57-1.38c-.38-.31-.93-.46-1.64-.46q-.855 0-1.59.3c-.5.2-.97.51-1.43.93l-.58-1.26c.45-.42 1.01-.75 1.67-1a6 6 0 0 1 2.12-.38c1.17 0 2.08.27 2.71.8s.95 1.3.95 2.29c0 .7-.17 1.38-.51 2.02-.34.65-.85 1.31-1.54 1.99l-3.34 3.38v-.45h5.86v1.39zm13.08.14q-1.95 0-3-1.5c-.7-1-1.05-2.43-1.05-4.3s.35-3.34 1.05-4.31c.7-.98 1.7-1.46 3-1.46s2.31.49 3.01 1.46c.69.98 1.04 2.41 1.04 4.3s-.35 3.31-1.05 4.31q-1.05 1.5-3 1.5m0-1.39c.82 0 1.43-.36 1.83-1.07s.6-1.83.6-3.34-.2-2.64-.6-3.34q-.6-1.05-1.83-1.05c-1.23 0-1.42.35-1.82 1.05-.41.7-.61 1.81-.61 3.32s.21 2.65.62 3.36 1.02 1.07 1.82 1.07Zm8.38-3.28c-.89 0-1.58-.31-2.09-.92s-.76-1.46-.76-2.54.26-1.93.77-2.54 1.21-.9 2.08-.9 1.58.31 2.08.92q.75.915.75 2.52c0 1.605-.25 1.92-.75 2.54-.5.61-1.2.92-2.08.92m0-1.09c.46 0 .82-.19 1.08-.58s.39-.98.39-1.78-.13-1.41-.39-1.78q-.39-.57-1.08-.57c-.69 0-.82.19-1.08.57s-.39.97-.39 1.78.13 1.41.39 1.79.62.58 1.08.58Zm1.33 5.62h-1.41l6.69-11.28h1.41zm6.61.14c-.88 0-1.58-.31-2.08-.92s-.75-1.46-.75-2.54.25-1.93.76-2.54q.765-.9 2.07-.9c1.305 0 1.58.31 2.08.92s.75 1.45.75 2.52-.25 1.92-.75 2.54-1.2.92-2.08.92m0-1.09c.46 0 .82-.19 1.08-.58s.39-.98.39-1.79-.13-1.41-.39-1.78q-.39-.57-1.08-.57c-.69 0-.82.19-1.08.57s-.39.97-.39 1.78.13 1.41.39 1.79.62.58 1.08.58m183.74-137.53v-1.71h2.59v-7.84h.99l-3.33 1.98v-1.95l2.93-1.76h1.47v9.57h2.43v1.71h-7.09Zm13.52 0v-2.21h-5.04v-1.44l5.36-7.63h1.66v7.5h1.62v1.57h-1.62v2.21zm0-3.78v-5.07h.38l-3.89 5.55v-.48h3.5Zm9.6 3.78v-2.21h-5.04v-1.44l5.36-7.63h1.66v7.5H855v1.57h-1.62v2.21zm0-3.78v-5.07h.38l-3.89 5.55v-.48h3.5Zm8.71 3.94c-1.32 0-2.34-.5-3.06-1.51s-1.07-2.45-1.07-4.31.36-3.32 1.07-4.3 1.73-1.47 3.06-1.47 2.35.49 3.06 1.47 1.06 2.41 1.06 4.29-.35 3.32-1.06 4.33-1.73 1.51-3.06 1.51Zm0-1.7c.72 0 1.26-.33 1.62-1 .35-.67.53-1.71.53-3.14s-.18-2.47-.53-3.11-.89-.97-1.62-.97-1.25.32-1.61.97-.54 1.68-.54 3.11.18 2.48.54 3.14c.36.67.89 1 1.61 1m13.4 1.7c-.7 0-1.32-.17-1.86-.5-.54-.34-.96-.82-1.26-1.45s-.45-1.38-.45-2.26.15-1.62.45-2.25.72-1.1 1.26-1.44 1.16-.5 1.86-.5 1.27.16 1.79.49.86.77 1.03 1.32h-.21v-5.34h2V119h-1.97v-1.71h.19a2.4 2.4 0 0 1-1.03 1.37c-.52.34-1.12.5-1.8.5Zm.56-1.54c.63 0 1.14-.22 1.52-.66s.58-1.11.58-2.01-.19-1.56-.58-2c-.38-.44-.89-.66-1.52-.66s-1.14.22-1.53.66-.58 1.1-.58 2 .19 1.57.58 2.01q.585.66 1.53.66m6.23 4.83v-9.52c0-.33-.01-.67-.03-1.01s-.05-.68-.1-1.01h1.94l.18 1.7h-.18q.24-.855 1.02-1.35c.78-.495 1.12-.5 1.8-.5s1.34.17 1.87.5.95.82 1.25 1.44.45 1.37.45 2.25-.15 1.63-.45 2.26-.71 1.11-1.25 1.45c-.53.34-1.16.5-1.87.5-.67 0-1.26-.17-1.78-.5s-.85-.77-1.02-1.33h.18v5.12h-2Zm4.06-4.83c.64 0 1.15-.22 1.54-.66.38-.44.58-1.11.58-2.01s-.19-1.56-.58-2-.9-.66-1.54-.66-1.14.22-1.52.66-.58 1.1-.58 2 .19 1.57.58 2.01c.38.44.89.66 1.52.66m5.74-8.22v-1.95h2.22v1.95zm.11 9.6v-8.08h2v8.08zm-48.62 46.32a6.5 6.5 0 0 1-2.8-.62c-.41-.2-.78-.43-1.09-.71l.58-1.26c.51.4 1.04.69 1.58.89s1.11.3 1.7.3c.76 0 1.35-.2 1.78-.59s.65-.92.65-1.58-.21-1.23-.62-1.66c-.41-.42-.98-.63-1.7-.63-.5 0-.96.1-1.37.3q-.615.3-1.08.93h-1.15v-6.78h6.83v1.39h-5.25v4.06h-.42c.29-.41.67-.72 1.16-.94a3.9 3.9 0 0 1 1.64-.34q1.095 0 1.89.45c.53.3.95.71 1.24 1.25.29.53.44 1.16.44 1.89s-.16 1.36-.49 1.91a3.4 3.4 0 0 1-1.39 1.29c-.6.31-1.32.46-2.14.46Zm9.44 0c-1.3 0-2.31-.28-3.04-.83-.72-.55-1.09-1.33-1.09-2.32 0-.79.24-1.44.72-1.96s1.11-.83 1.89-.94v.29c-.7-.15-1.27-.47-1.69-.98-.42-.5-.63-1.11-.63-1.82 0-.94.34-1.67 1.02-2.21.68-.53 1.62-.8 2.82-.8s2.15.27 2.83.8 1.02 1.27 1.02 2.21c0 .71-.2 1.33-.6 1.83-.4.51-.95.82-1.64.95v-.27c.77.11 1.38.42 1.84.94s.69 1.17.69 1.96c0 .99-.36 1.77-1.09 2.32s-1.74.83-3.06.83Zm0-1.31c.86 0 1.51-.16 1.94-.49s.64-.81.64-1.46-.21-1.14-.64-1.46-1.07-.48-1.94-.48-1.51.16-1.94.48-.64.81-.64 1.46.22 1.14.65 1.46c.43.33 1.07.49 1.93.49m0-5.2c.75 0 1.31-.17 1.7-.5.39-.34.58-.8.58-1.38s-.19-1.03-.58-1.36-.96-.5-1.7-.5-1.3.17-1.7.5c-.39.33-.59.78-.59 1.36s.2 1.05.59 1.38.96.5 1.7.5m9.76 6.51a6.5 6.5 0 0 1-2.8-.62c-.41-.2-.78-.43-1.09-.71l.58-1.26c.51.4 1.04.69 1.58.89s1.11.3 1.71.3c.76 0 1.35-.2 1.78-.59s.65-.92.65-1.58-.21-1.23-.62-1.66c-.41-.42-.98-.63-1.7-.63-.5 0-.96.1-1.37.3q-.615.3-1.08.93h-1.15v-6.78h6.83v1.39h-5.25v4.06h-.42c.29-.41.67-.72 1.16-.94.48-.22 1.03-.34 1.64-.34.73 0 1.35.15 1.89.45.53.3.95.71 1.24 1.25.29.53.44 1.16.44 1.89s-.16 1.36-.49 1.91c-.32.55-.79.98-1.39 1.29s-1.32.46-2.14.46Zm10.19 3.31v-9.58c0-.31-.01-.63-.04-.95l-.09-.98h1.57l.16 1.82h-.18c.17-.61.51-1.09 1.03-1.44s1.13-.53 1.85-.53 1.34.17 1.87.5.95.81 1.24 1.43.44 1.37.44 2.24-.15 1.61-.44 2.24-.71 1.11-1.24 1.44-1.16.5-1.87.5-1.31-.17-1.83-.52-.86-.82-1.03-1.42h.18v5.25zm3.9-4.58c.7 0 1.27-.25 1.69-.74s.63-1.22.63-2.18-.21-1.68-.63-2.17c-.42-.48-.98-.73-1.69-.73s-1.27.24-1.69.73-.63 1.21-.63 2.17.21 1.69.63 2.18.98.74 1.69.74m5.45 1.12v-1.9h1.9v1.9zm-39.7 46.75c-.6 0-1.19-.12-1.79-.36s-1.1-.56-1.5-.95l.59-1.26c.39.38.83.67 1.29.87.47.2.95.3 1.42.3 1.02 0 1.81-.36 2.36-1.08s.82-1.79.82-3.22v-1.36h.16c-.06.57-.25 1.06-.54 1.49s-.67.75-1.13.98c-.45.22-.96.34-1.53.34-.66 0-1.26-.16-1.78-.46-.53-.31-.94-.74-1.23-1.28s-.44-1.16-.44-1.84c0-.73.16-1.37.48-1.93s.76-1 1.31-1.31 1.2-.47 1.92-.47c1.41 0 2.49.48 3.24 1.45s1.13 2.33 1.13 4.09c0 1.29-.19 2.38-.57 3.28s-.93 1.58-1.64 2.05-1.57.7-2.58.7Zm.53-5.63c.45 0 .84-.1 1.18-.29s.61-.46.8-.81.29-.74.29-1.19-.1-.86-.29-1.21-.46-.62-.8-.82-.74-.3-1.18-.3-.84.1-1.18.3-.6.47-.79.82-.29.75-.29 1.21.1.85.29 1.19.46.62.79.81c.34.19.73.29 1.18.29m9.87 5.63q-1.95 0-3-1.5c-.7-1-1.05-2.43-1.05-4.3s.35-3.34 1.05-4.31c.7-.98 1.7-1.46 3-1.46s2.31.49 3.01 1.46c.69.98 1.04 2.41 1.04 4.3s-.35 3.31-1.05 4.31q-1.05 1.5-3 1.5m0-1.39c.82 0 1.43-.36 1.83-1.07s.6-1.83.6-3.34-.2-2.64-.6-3.34q-.6-1.05-1.83-1.05c-1.23 0-1.42.35-1.82 1.05-.41.7-.61 1.81-.61 3.32s.21 2.65.62 3.36 1.02 1.07 1.82 1.07Zm9.76 1.39a6.5 6.5 0 0 1-2.8-.62c-.42-.2-.78-.43-1.09-.71l.58-1.26c.51.39 1.04.69 1.58.89q.81.3 1.71.3c.76 0 1.35-.2 1.78-.59s.65-.92.65-1.58-.21-1.23-.62-1.66c-.41-.42-.98-.63-1.7-.63-.5 0-.96.1-1.37.3q-.615.3-1.08.93h-1.15v-6.78h6.83v1.39h-5.25v4.06h-.42c.29-.41.67-.72 1.16-.94.48-.22 1.03-.34 1.64-.34.73 0 1.35.15 1.89.45s.95.71 1.24 1.25.44 1.16.44 1.89-.16 1.36-.49 1.91c-.32.55-.79.98-1.39 1.29s-1.32.46-2.14.46Zm10.19 3.32v-9.58c0-.31-.01-.63-.04-.95l-.09-.98h1.57l.16 1.82h-.18c.17-.61.51-1.09 1.03-1.44s1.13-.53 1.85-.53 1.34.17 1.87.5.95.81 1.24 1.43.44 1.37.44 2.24-.15 1.61-.44 2.24-.71 1.11-1.24 1.44-1.16.5-1.87.5-1.31-.17-1.83-.52-.86-.82-1.03-1.42h.18v5.25zm3.9-4.58c.7 0 1.27-.25 1.69-.74s.63-1.22.63-2.18-.21-1.68-.63-2.17-.98-.73-1.69-.73-1.27.24-1.69.73-.63 1.21-.63 2.17.21 1.69.63 2.18.98.74 1.69.74m5.45 1.12v-1.9h1.9v1.9zM83.16 165.16v-11.28h8.05v1.6h-6.08v3.12h3.28c1.24 0 2.2.27 2.9.82.69.55 1.04 1.36 1.04 2.44s-.35 1.88-1.04 2.45-1.66.85-2.9.85zm1.97-1.58h3.04c.76 0 1.31-.14 1.66-.42s.53-.71.53-1.29-.18-.99-.53-1.26-.91-.42-1.66-.42h-3.04zm8.84 5.21-.46-1.58c.5-.11.92-.23 1.26-.37s.62-.32.85-.54c.22-.22.41-.51.56-.86l.4-.94-.05.78-3.52-8.19h2.13l2.53 6.3h-.46l2.54-6.3h2.02l-3.68 8.53c-.25.58-.51 1.05-.8 1.43s-.6.68-.93.91-.69.41-1.09.54-.83.23-1.3.3Zm9.01-3.63v-8.08h1.66l2.78 4.83 2.78-4.83h1.66v8.08h-1.76v-5.84h.37l-2.59 4.53h-.93l-2.59-4.53h.37v5.84h-1.76Zm14.35.16c-.7 0-1.32-.17-1.86-.5s-.95-.82-1.25-1.45-.45-1.38-.45-2.26.15-1.62.45-2.25.71-1.1 1.25-1.44 1.15-.5 1.86-.5 1.28.17 1.8.5.86.79 1.03 1.35h-.18l.18-1.7h1.92l-.09 1.01c-.03.34-.04.68-.04 1.01v6.06h-1.98l-.02-1.66h.19c-.17.55-.52 1-1.04 1.33s-1.12.5-1.78.5Zm.56-1.54c.63 0 1.14-.22 1.52-.66s.58-1.11.58-2.01-.19-1.56-.58-2c-.38-.44-.89-.66-1.52-.66s-1.14.22-1.52.66-.58 1.1-.58 2 .19 1.57.57 2.01q.57.66 1.53.66m6.4 1.38v-8.08h6.06v1.57h-4.06v6.51zm10.66.16c-.7 0-1.32-.17-1.86-.5s-.95-.82-1.25-1.45-.45-1.38-.45-2.26.15-1.62.45-2.25c.3-.62.71-1.1 1.25-1.44s1.15-.5 1.86-.5 1.28.17 1.8.5c.52.34.86.79 1.03 1.35h-.18l.18-1.7h1.92l-.09 1.01c-.03.34-.04.68-.04 1.01v6.06h-1.98l-.02-1.66h.19c-.17.55-.52 1-1.04 1.33s-1.11.5-1.78.5Zm.56-1.54c.63 0 1.14-.22 1.52-.66s.58-1.11.58-2.01-.19-1.56-.58-2c-.38-.44-.89-.66-1.52-.66s-1.14.22-1.52.66-.58 1.1-.58 2 .19 1.57.57 2.01q.57.66 1.53.66m10.78 1.38v-8.08h7.57v8.08h-1.98v-6.54h-3.6v6.54h-1.98Zm13.55.16q-1.245 0-2.16-.51c-.61-.34-1.08-.83-1.42-1.46s-.5-1.38-.5-2.24.17-1.61.5-2.23.81-1.11 1.42-1.45q.915-.51 2.16-.51c1.245 0 1.55.17 2.17.51.61.34 1.09.82 1.42 1.45s.5 1.37.5 2.23-.17 1.61-.5 2.24-.81 1.11-1.42 1.46c-.61.34-1.34.51-2.17.51m0-1.54q.945 0 1.5-.66c.37-.44.56-1.11.56-2.01s-.19-1.56-.56-2-.88-.66-1.5-.66-1.13.22-1.5.66-.56 1.1-.56 2 .19 1.57.56 2.01.88.66 1.5.66m9.76 1.54c-.83 0-1.56-.17-2.18-.51s-1.11-.83-1.45-1.46-.51-1.39-.51-2.26.17-1.62.52-2.24.83-1.09 1.45-1.42 1.34-.5 2.18-.5c.53 0 1.05.08 1.56.25s.92.4 1.24.71l-.61 1.39a2.8 2.8 0 0 0-.97-.6c-.36-.13-.71-.2-1.05-.2-.71 0-1.27.22-1.67.67q-.6.675-.6 1.95c0 1.275.2 1.51.6 1.97s.96.69 1.67.69c.33 0 .68-.06 1.03-.19s.69-.33.98-.59l.61 1.38q-.495.465-1.26.72c-.51.17-1.02.26-1.54.26Zm6.26-.16v-6.51h-2.77v-1.57h7.54v1.57h-2.78v6.51h-1.98Zm9.89.16c-1.35 0-2.42-.37-3.18-1.12-.77-.75-1.15-1.77-1.15-3.07 0-.84.17-1.58.5-2.21q.495-.945 1.38-1.47c.59-.35 1.28-.53 2.07-.53s1.43.17 1.95.5.92.79 1.19 1.39.41 1.3.41 2.1v.53h-5.89v-1.06h4.46l-.27.22c0-.75-.16-1.32-.47-1.71s-.77-.59-1.37-.59c-.66 0-1.17.23-1.53.7s-.54 1.13-.54 1.97v.21c0 .87.22 1.53.65 1.96s1.04.65 1.83.65q.69 0 1.29-.18t1.14-.6l.59 1.34q-.57.465-1.38.72c-.81.255-1.1.26-1.7.26Zm5.08 3.3v-9.52c0-.33-.01-.67-.03-1.01s-.05-.68-.1-1.01h1.94l.18 1.7h-.18q.24-.855 1.02-1.35c.52-.34 1.12-.5 1.8-.5s1.34.17 1.87.5c.53.34.95.82 1.25 1.44q.45.93.45 2.25c0 1.32-.15 1.63-.45 2.26s-.71 1.11-1.25 1.45c-.53.34-1.16.5-1.87.5-.67 0-1.26-.17-1.78-.5-.51-.33-.85-.77-1.02-1.33h.18v5.12h-2Zm4.06-4.83c.64 0 1.15-.22 1.54-.66.38-.44.58-1.11.58-2.01s-.19-1.56-.58-2-.9-.66-1.54-.66-1.14.22-1.52.66-.58 1.1-.58 2 .19 1.57.58 2.01c.38.44.89.66 1.52.66m6.02 1.37v-8.08h1.98v3.17h3.65v-3.17h1.98v8.08h-1.98v-3.38h-3.65v3.38zm13.08.16c-.7 0-1.32-.17-1.86-.5s-.95-.82-1.25-1.45-.45-1.38-.45-2.26.15-1.62.45-2.25.71-1.1 1.25-1.44 1.15-.5 1.86-.5 1.28.17 1.8.5.86.79 1.03 1.35h-.18l.18-1.7h1.92l-.09 1.01c-.03.34-.04.68-.04 1.01v6.06h-1.98l-.02-1.66h.19c-.17.55-.52 1-1.04 1.33s-1.11.5-1.78.5Zm.56-1.54c.63 0 1.14-.22 1.52-.66s.58-1.11.58-2.01-.19-1.56-.58-2c-.38-.44-.89-.66-1.52-.66s-1.14.22-1.52.66-.58 1.1-.58 2 .19 1.57.57 2.01q.57.66 1.53.66m5.72 1.38 1.23-2.13c.21-.36.48-.65.79-.87s.64-.33.98-.33h.35l-.02.18c-.95 0-1.68-.21-2.19-.62-.51-.42-.77-1.02-.77-1.82s.26-1.4.79-1.83 1.3-.65 2.33-.65h4.02v8.08h-1.82v-2.85h-.91q-.495 0-.87.27c-.25.18-.46.42-.63.7l-1.06 1.87zm3.89-4.14h1.81v-2.64h-1.81c-.54 0-.95.12-1.22.35s-.41.55-.41.96c0 .43.14.75.41.98s.68.34 1.22.34ZM17.37 212.17v-1.66l.51.38h-.45c-1.12 0-2.08-.19-2.9-.58-.81-.38-1.43-.94-1.86-1.66s-.65-1.59-.65-2.62c0-1.56.47-2.75 1.42-3.59q1.425-1.26 3.99-1.26h.45l-.51.38v-1.57h2.05v1.57l-.51-.38h.45c1.72 0 3.05.42 4 1.26s1.42 2.04 1.42 3.59c0 1.02-.22 1.9-.66 2.62s-1.06 1.27-1.86 1.66c-.8.38-1.77.58-2.9.58h-.45l.51-.38v1.66zm.02-2.48v-7.3l.43.35h-.59c-.94 0-1.69.28-2.26.82-.57.55-.86 1.37-.86 2.47 0 .71.13 1.32.4 1.81s.63.86 1.1 1.11 1.01.38 1.62.38h.59l-.43.35Zm2.03 0-.45-.35h.61c.61 0 1.15-.12 1.62-.38.47-.25.83-.62 1.1-1.11.26-.49.39-1.09.39-1.81 0-1.1-.28-1.92-.85-2.47s-1.32-.82-2.26-.82h-.61l.45-.35v7.3Zm11.09 2.24q-1.245 0-2.16-.51c-.61-.34-1.08-.83-1.42-1.46s-.5-1.38-.5-2.24.17-1.61.5-2.23.81-1.11 1.42-1.45q.915-.51 2.16-.51c1.245 0 1.55.17 2.17.51.61.34 1.09.82 1.42 1.45s.5 1.37.5 2.23-.17 1.61-.5 2.24c-.34.63-.81 1.12-1.42 1.46s-1.34.51-2.17.51m0-1.54q.945 0 1.5-.66c.555-.66.56-1.11.56-2.01s-.19-1.56-.56-2-.88-.66-1.5-.66-1.13.22-1.5.66-.56 1.1-.56 2 .19 1.57.56 2.01.88.66 1.5.66m7.73 1.38v-6.51h-2.77v-1.57h7.54v1.57h-2.79v6.51zm9.63.16q-1.245 0-2.16-.51c-.61-.34-1.08-.83-1.42-1.46s-.5-1.38-.5-2.24.17-1.61.5-2.23.81-1.11 1.42-1.45q.915-.51 2.16-.51c1.245 0 1.55.17 2.17.51.61.34 1.09.82 1.42 1.45s.5 1.37.5 2.23-.17 1.61-.5 2.24c-.34.63-.81 1.12-1.42 1.46s-1.34.51-2.17.51m0-1.54q.945 0 1.5-.66c.555-.66.56-1.11.56-2.01s-.19-1.56-.56-2-.88-.66-1.5-.66-1.13.22-1.5.66-.56 1.1-.56 2 .19 1.57.56 2.01.88.66 1.5.66m14.16 1.54c-1.27 0-2.28-.38-3.03-1.15s-1.13-1.89-1.13-3.38v-1.38c0-1.53.35-2.75 1.04-3.68s1.74-1.54 3.13-1.84l2.96-.67.54 1.57-3.33.74q-.825.18-1.38.66c-.36.33-.63.71-.82 1.16q-.27.675-.27 1.44v.85h-.27c.12-.48.32-.9.59-1.26s.63-.64 1.06-.84.91-.3 1.46-.3c.68 0 1.28.16 1.8.47s.92.77 1.22 1.36.45 1.3.45 2.12-.17 1.57-.5 2.19c-.34.62-.81 1.1-1.41 1.43-.6.34-1.31.5-2.12.5Zm-.06-1.52c.66 0 1.18-.21 1.54-.63.37-.42.55-1.05.55-1.9s-.19-1.45-.56-1.88-.89-.65-1.54-.65-1.16.21-1.54.64-.56 1.04-.56 1.82c0 .86.19 1.51.56 1.94s.88.65 1.54.65Zm5.75 4.99-.46-1.58c.5-.11.92-.23 1.26-.37s.62-.32.85-.54c.22-.22.41-.51.56-.86l.4-.94-.05.78-3.52-8.19h2.13l2.53 6.3h-.46l2.54-6.3h2.02l-3.68 8.53c-.25.58-.51 1.05-.8 1.43s-.6.68-.93.91-.69.41-1.09.54-.83.23-1.3.3Zm9.01-3.63v-8.08h1.66l2.79 4.83 2.78-4.83h1.66v8.08h-1.76v-5.84h.37l-2.59 4.53h-.93l-2.59-4.53h.37v5.84zm14.35.16c-.7 0-1.32-.17-1.86-.5-.53-.34-.95-.82-1.25-1.45s-.45-1.38-.45-2.26.15-1.62.45-2.25c.3-.62.71-1.1 1.25-1.44s1.15-.5 1.86-.5 1.28.17 1.8.5.86.79 1.03 1.35h-.18l.18-1.7h1.92l-.09 1.01c-.03.34-.04.68-.04 1.01v6.06h-1.98l-.02-1.66h.19c-.17.55-.52 1-1.04 1.33s-1.12.5-1.78.5Zm.56-1.54c.63 0 1.14-.22 1.52-.66s.58-1.11.58-2.01-.19-1.56-.58-2-.89-.66-1.52-.66-1.13.22-1.52.66c-.38.44-.58 1.1-.58 2s.19 1.57.57 2.01.89.66 1.53.66m6.4 1.38v-8.08h6.06v1.57h-4.06v6.51zm10.66.16c-.7 0-1.32-.17-1.86-.5-.53-.34-.95-.82-1.25-1.45s-.45-1.38-.45-2.26.15-1.62.45-2.25c.3-.62.71-1.1 1.25-1.44s1.15-.5 1.86-.5 1.28.17 1.8.5c.52.34.86.79 1.03 1.35h-.18l.18-1.7h1.92l-.09 1.01c-.03.34-.04.68-.04 1.01v6.06h-1.98l-.02-1.66h.19c-.17.55-.52 1-1.04 1.33s-1.11.5-1.78.5Zm.56-1.54c.63 0 1.14-.22 1.52-.66s.58-1.11.58-2.01-.19-1.56-.58-2c-.38-.44-.89-.66-1.52-.66s-1.14.22-1.52.66-.58 1.1-.58 2 .19 1.57.57 2.01.89.66 1.53.66m13.38 4.26c-.5-.79-.91-1.56-1.22-2.32s-.54-1.53-.68-2.31-.21-1.6-.21-2.46.07-1.69.21-2.46c.14-.78.37-1.55.68-2.3.31-.76.72-1.53 1.22-2.3h1.6c-.55 1.23-.97 2.42-1.24 3.58s-.41 2.32-.41 3.5.14 2.33.41 3.49.69 2.36 1.24 3.6h-1.6Zm3.1-2.88v-8.08h1.66l2.78 4.83 2.78-4.83h1.66v8.08h-1.76v-5.84h.37l-2.59 4.53h-.93l-2.59-4.53h.37v5.84h-1.76Zm14.35.16c-.7 0-1.32-.17-1.86-.5-.53-.34-.95-.82-1.25-1.45s-.45-1.38-.45-2.26.15-1.62.45-2.25.71-1.1 1.25-1.44 1.15-.5 1.86-.5 1.28.17 1.8.5.86.79 1.03 1.35h-.18l.18-1.7h1.92l-.09 1.01c-.03.34-.04.68-.04 1.01v6.06h-1.98l-.02-1.66h.19c-.17.55-.52 1-1.04 1.33s-1.12.5-1.78.5Zm.56-1.54c.63 0 1.14-.22 1.52-.66s.58-1.11.58-2.01-.19-1.56-.58-2c-.38-.44-.89-.66-1.52-.66s-1.14.22-1.52.66-.58 1.1-.58 2 .19 1.57.57 2.01q.57.66 1.53.66m8.14 1.38v-6.51h-2.77v-1.57h7.54v1.57h-2.79v6.51zm9.64.16q-1.245 0-2.16-.51c-.61-.34-1.08-.83-1.42-1.46s-.5-1.38-.5-2.24.17-1.61.5-2.23.81-1.11 1.42-1.45q.915-.51 2.16-.51c1.245 0 1.55.17 2.17.51.61.34 1.09.82 1.42 1.45s.5 1.37.5 2.23-.17 1.61-.5 2.24c-.34.63-.81 1.12-1.42 1.46s-1.34.51-2.17.51m0-1.54q.945 0 1.5-.66c.555-.66.56-1.11.56-2.01s-.19-1.56-.56-2-.88-.66-1.5-.66-1.13.22-1.5.66-.56 1.1-.56 2 .19 1.57.56 2.01.88.66 1.5.66m5.98 1.38v-8.08h4.3c1.01 0 1.75.18 2.22.55s.71.89.71 1.56c0 .51-.17.94-.51 1.28s-.79.55-1.36.64v-.22c.69.04 1.23.25 1.6.61.38.36.56.83.56 1.41 0 .69-.27 1.24-.8 1.65-.54.41-1.29.61-2.27.61h-4.45Zm1.86-4.74h2.21c.43 0 .76-.09.99-.28s.35-.45.35-.79-.12-.6-.35-.78q-.36-.27-.99-.27h-2.21v2.13Zm0 3.5h2.38c.47 0 .83-.1 1.08-.29s.38-.47.38-.85-.12-.66-.38-.85c-.25-.19-.61-.29-1.08-.29h-2.38v2.27Zm10.59 1.4c-.7 0-1.32-.17-1.86-.5-.53-.34-.95-.82-1.25-1.45s-.45-1.38-.45-2.26.15-1.62.45-2.25.71-1.1 1.25-1.44 1.15-.5 1.86-.5 1.28.17 1.8.5.86.79 1.03 1.35h-.18l.18-1.7h1.92l-.09 1.01c-.03.34-.04.68-.04 1.01v6.06h-1.98l-.02-1.66h.19c-.17.55-.52 1-1.04 1.33s-1.11.5-1.78.5Zm.56-1.54c.63 0 1.14-.22 1.52-.66s.58-1.11.58-2.01-.19-1.56-.58-2c-.38-.44-.89-.66-1.52-.66s-1.14.22-1.52.66-.58 1.1-.58 2 .19 1.57.57 2.01q.57.66 1.53.66m5.73 1.38 1.23-2.13c.21-.36.48-.65.79-.87s.64-.33.98-.33h.35l-.02.18c-.95 0-1.68-.21-2.19-.62-.51-.42-.77-1.02-.77-1.82s.26-1.4.79-1.83 1.3-.65 2.33-.65h4.02v8.08h-1.82v-2.85h-.91q-.495 0-.87.27c-.375.27-.46.42-.63.7l-1.06 1.87zm3.89-4.14h1.81v-2.64h-1.81c-.54 0-.95.12-1.22.35-.27.24-.41.55-.41.96 0 .43.14.75.41.98s.68.34 1.22.34Zm10.28 4.14v-8.08h1.81v6.11h-.48l4.59-6.11h1.65v8.08h-1.81v-6.13h.5l-4.61 6.13zm14.23 0v-8.08h6.06v1.57h-4.06v6.51zm6.94.22-.62-1.57c.35-.13.65-.3.89-.5.24-.21.43-.47.58-.8.14-.33.25-.73.31-1.22s.1-1.06.1-1.74v-2.48h6.43v8.08h-1.98v-6.54h-2.62v1.01c0 1.16-.11 2.14-.32 2.92s-.54 1.41-.99 1.86c-.45.46-1.04.78-1.76.98Zm9.28-.22 1.23-2.13c.21-.36.48-.65.79-.87s.64-.33.98-.33h.35l-.02.18c-.95 0-1.68-.21-2.19-.62-.51-.42-.77-1.02-.77-1.82s.26-1.4.79-1.83 1.3-.65 2.33-.65h4.02v8.08h-1.82v-2.85h-.91q-.495 0-.87.27c-.375.27-.46.42-.63.7l-1.06 1.87zm3.89-4.14h1.81v-2.64h-1.81c-.54 0-.95.12-1.22.35-.27.24-.41.55-.41.96 0 .43.14.75.41.98s.68.34 1.22.34Zm5.9 4.14v-8.08h1.98v3.17h3.65v-3.17h1.98v8.08h-1.98v-3.38h-3.65v3.38zm16.9 2.08v-2.08h-7.01v-8.08h1.98v6.54h3.42v-6.54h1.97v6.54h1.31v3.62h-1.68Zm7.12-1.92c-1.35 0-2.42-.37-3.18-1.12-.77-.75-1.15-1.77-1.15-3.07 0-.84.17-1.58.5-2.21q.495-.945 1.38-1.47c.59-.35 1.28-.53 2.07-.53s1.43.17 1.95.5.92.79 1.19 1.39.41 1.3.41 2.1v.53h-5.89v-1.06h4.46l-.27.22c0-.75-.16-1.32-.47-1.71s-.77-.59-1.37-.59c-.66 0-1.17.23-1.53.7s-.54 1.12-.54 1.97v.21c0 .88.22 1.53.65 1.96s1.04.65 1.83.65q.69 0 1.29-.18t1.14-.6l.59 1.34q-.57.465-1.38.72c-.53.17-1.1.26-1.7.26Zm5.02-.16v-8.08h4.3c1.01 0 1.75.18 2.22.55s.7.89.7 1.56c0 .51-.17.94-.51 1.28s-.79.55-1.36.64v-.22c.69.04 1.23.25 1.6.61s.56.83.56 1.41c0 .69-.27 1.24-.8 1.65s-1.29.61-2.27.61h-4.45Zm1.86-4.74h2.21c.43 0 .76-.09.99-.28s.35-.45.35-.79-.12-.6-.35-.78q-.36-.27-.99-.27h-2.21v2.13Zm0 3.5h2.38c.47 0 .83-.1 1.08-.29s.38-.47.38-.85-.13-.66-.38-.85-.61-.29-1.08-.29h-2.38v2.27Zm10.59 1.4c-.7 0-1.32-.17-1.86-.5-.53-.34-.95-.82-1.25-1.45s-.45-1.38-.45-2.26.15-1.62.45-2.25.71-1.1 1.25-1.44 1.15-.5 1.86-.5 1.28.17 1.8.5.86.79 1.03 1.35h-.18l.18-1.7h1.92l-.09 1.01c-.03.34-.04.68-.04 1.01v6.06h-1.98l-.02-1.66h.19c-.17.55-.52 1-1.04 1.33s-1.11.5-1.78.5Zm.56-1.54c.63 0 1.14-.22 1.52-.66s.58-1.11.58-2.01-.19-1.56-.58-2c-.38-.44-.89-.66-1.52-.66s-1.14.22-1.52.66-.58 1.1-.58 2 .19 1.57.57 2.01q.57.66 1.53.66m5.73 1.38 1.23-2.13c.21-.36.48-.65.79-.87s.64-.33.98-.33h.35l-.02.18c-.95 0-1.68-.21-2.19-.62-.51-.42-.77-1.02-.77-1.82s.26-1.4.79-1.83 1.3-.65 2.33-.65h4.02v8.08h-1.82v-2.85h-.91q-.495 0-.87.27c-.375.27-.46.42-.63.7l-1.06 1.87zm3.89-4.14h1.81v-2.64h-1.81c-.54 0-.95.12-1.22.35-.27.24-.41.55-.41.96 0 .43.14.75.41.98s.68.34 1.22.34Zm6.73 7.02h-1.6c.55-1.23.97-2.42 1.24-3.59s.41-2.33.41-3.5-.14-2.33-.41-3.49-.69-2.36-1.24-3.58h1.6c.51.78.92 1.55 1.23 2.3.31.76.53 1.53.67 2.31s.21 1.6.21 2.46-.07 1.67-.21 2.46-.36 1.56-.67 2.32-.72 1.52-1.23 2.3ZM47.2 256.94v-11.28h5.01c1.24 0 2.18.3 2.83.9s.98 1.42.98 2.46-.33 1.86-.98 2.46c-.65.61-1.59.91-2.83.91h-2.94v4.54h-2.06Zm2.06-6.18h2.7c.68 0 1.19-.15 1.54-.46q.51-.45.51-1.29c0-.84-.17-.98-.51-1.29-.34-.3-.85-.46-1.54-.46h-2.7v3.49Zm12.17 6.34c-1.36 0-2.42-.37-3.18-1.12-.77-.75-1.15-1.77-1.15-3.07 0-.84.16-1.58.5-2.21q.495-.945 1.38-1.47c.59-.35 1.28-.53 2.07-.53s1.43.17 1.95.5.92.79 1.19 1.39.41 1.3.41 2.1v.53h-5.89v-1.06h4.46l-.27.22c0-.75-.16-1.32-.47-1.71-.32-.39-.77-.59-1.37-.59-.66 0-1.17.23-1.53.7s-.54 1.12-.54 1.97v.21c0 .88.22 1.53.65 1.96s1.04.65 1.83.65q.69 0 1.29-.18t1.14-.6l.59 1.34q-.57.465-1.38.72c-.53.17-1.1.26-1.7.26Zm8 0c-.73 0-1.41-.09-2.04-.26s-1.16-.42-1.59-.74l.56-1.31c.39.29.86.51 1.38.66s1.08.22 1.67.22c.68 0 1.18-.09 1.5-.28a.89.89 0 0 0 .47-.82c0-.34-.12-.6-.37-.78s-.61-.26-1.09-.26h-2.1v-1.38h1.9c.44 0 .77-.08 1.01-.26.24-.17.35-.41.35-.72q0-.495-.42-.78c-.28-.19-.74-.29-1.38-.29-.55 0-1.06.07-1.52.2s-.89.33-1.3.58l-.54-1.25c.44-.31.97-.54 1.59-.7s1.3-.24 2.04-.24c1.08 0 1.9.2 2.48.59s.86.96.86 1.68c0 .49-.17.91-.5 1.26q-.51.525-1.35.66v-.22c.66.04 1.18.24 1.57.59.38.35.58.83.58 1.42 0 .74-.33 1.32-.98 1.76s-1.58.66-2.78.66Zm5.5-.16v-8.08h1.98v3.17h1.21l2.37-3.17h2.14l-2.98 4.03-.43-.62c.3.03.56.11.79.24s.45.31.66.54.41.52.62.87l1.7 3.02h-2.13l-1.38-2.43c-.14-.25-.28-.44-.42-.58s-.29-.24-.46-.29-.38-.08-.62-.08h-1.07v3.38zm12.3.16c-.7 0-1.32-.17-1.86-.5-.53-.34-.95-.82-1.25-1.45s-.45-1.38-.45-2.26.15-1.62.45-2.25.71-1.1 1.25-1.44 1.15-.5 1.86-.5 1.28.17 1.8.5.86.79 1.03 1.35h-.18l.18-1.7h1.92l-.09 1.01c-.03.34-.04.68-.04 1.01v6.06h-1.98l-.02-1.66h.19c-.17.55-.52 1-1.04 1.33s-1.12.5-1.78.5Zm.56-1.54c.63 0 1.14-.22 1.52-.66s.58-1.11.58-2.01-.19-1.56-.58-2c-.38-.44-.89-.66-1.52-.66s-1.14.22-1.52.66-.58 1.1-.58 2 .19 1.57.57 2.01q.57.66 1.53.66m10.79 1.38v-8.08h1.81v6.11h-.48l4.59-6.11h1.65v8.08h-1.81v-6.13h.5l-4.61 6.13zm12.81.16c-.72 0-1.41-.09-2.04-.26s-1.17-.42-1.59-.74l.56-1.31c.39.29.86.51 1.38.66.53.15 1.08.22 1.67.22.68 0 1.18-.09 1.5-.28s.47-.46.47-.82c0-.34-.12-.6-.37-.78s-.61-.26-1.09-.26h-2.1v-1.38h1.9c.44 0 .77-.08 1.01-.26s.35-.41.35-.72q0-.495-.42-.78c-.28-.19-.74-.29-1.38-.29-.55 0-1.06.07-1.52.2s-.89.33-1.3.58l-.54-1.25c.44-.31.97-.54 1.59-.7q.93-.24 2.04-.24c1.08 0 1.9.2 2.48.59s.86.96.86 1.68c0 .49-.17.91-.5 1.26q-.51.525-1.35.66v-.22c.66.04 1.18.24 1.57.59.38.35.58.83.58 1.42 0 .74-.33 1.32-.98 1.76s-1.58.66-2.78.66Zm9.22 0q-1.245 0-2.16-.51c-.61-.34-1.08-.83-1.42-1.46s-.5-1.38-.5-2.24.17-1.61.5-2.23.81-1.11 1.42-1.45q.915-.51 2.16-.51c1.245 0 1.55.17 2.17.51.61.34 1.09.82 1.42 1.45s.5 1.37.5 2.23-.17 1.61-.5 2.24c-.34.63-.81 1.12-1.42 1.46s-1.34.51-2.17.51m0-1.54q.945 0 1.5-.66c.37-.44.56-1.11.56-2.01s-.19-1.56-.56-2-.88-.66-1.5-.66-1.13.22-1.5.66-.56 1.1-.56 2 .19 1.57.56 2.01q.555.66 1.5.66m9.78 1.54c-1.27 0-2.28-.38-3.03-1.15s-1.13-1.89-1.13-3.38v-1.38c0-1.53.35-2.75 1.04-3.68s1.74-1.54 3.14-1.84l2.96-.67.54 1.57-3.33.74q-.825.18-1.38.66c-.36.33-.63.71-.82 1.16q-.27.675-.27 1.44v.85h-.27c.12-.48.32-.9.59-1.26s.63-.64 1.06-.84.91-.3 1.46-.3c.68 0 1.28.16 1.8.47s.93.77 1.22 1.36c.3.59.45 1.3.45 2.12s-.17 1.57-.5 2.19c-.34.62-.8 1.1-1.41 1.43-.6.34-1.31.5-2.12.5Zm-.06-1.52c.66 0 1.18-.21 1.54-.63.37-.42.55-1.05.55-1.9s-.19-1.45-.56-1.88-.89-.65-1.54-.65-1.16.21-1.54.64c-.37.43-.56 1.04-.56 1.82 0 .86.19 1.51.56 1.94s.88.65 1.54.65Zm6.04 4.82v-9.52c0-.33-.01-.67-.03-1.01s-.05-.68-.1-1.01h1.94l.18 1.7h-.18q.24-.855 1.02-1.35c.52-.34 1.12-.5 1.8-.5s1.34.17 1.87.5c.53.34.95.82 1.25 1.44s.45 1.37.45 2.25-.15 1.63-.45 2.26-.71 1.11-1.25 1.45c-.53.34-1.16.5-1.87.5-.67 0-1.26-.17-1.78-.5-.51-.33-.85-.77-1.02-1.33h.18v5.12h-2Zm4.06-4.83c.64 0 1.15-.22 1.54-.66.38-.44.58-1.11.58-2.01s-.19-1.56-.58-2c-.38-.44-.9-.66-1.54-.66s-1.14.22-1.52.66-.58 1.1-.58 2 .19 1.57.58 2.01c.38.44.89.66 1.52.66m9.21 1.53c-.7 0-1.32-.17-1.86-.5-.53-.34-.95-.82-1.25-1.45s-.45-1.38-.45-2.26.15-1.62.45-2.25c.3-.62.71-1.1 1.25-1.44s1.15-.5 1.86-.5 1.28.17 1.8.5c.52.34.86.79 1.03 1.35h-.18l.18-1.7h1.92l-.09 1.01c-.03.34-.04.68-.04 1.01v6.06h-1.98l-.02-1.66h.19c-.17.55-.52 1-1.04 1.33s-1.11.5-1.78.5Zm.56-1.54c.63 0 1.14-.22 1.52-.66s.58-1.11.58-2.01-.19-1.56-.58-2c-.38-.44-.89-.66-1.52-.66s-1.14.22-1.52.66-.58 1.1-.58 2 .19 1.57.57 2.01.89.66 1.53.66m5.18 1.38 1.7-3.02c.21-.35.42-.64.62-.87s.41-.41.65-.54.5-.21.8-.24l-.42.62-2.99-4.03h2.14l2.38 3.17h1.01v-3.17h1.98v3.17h.99l2.37-3.17h2.16l-3.01 4.03-.42-.62c.3.03.57.11.8.24s.46.31.66.54c.21.23.41.52.62.87l1.7 3.02h-2.13l-1.38-2.43c-.14-.25-.28-.44-.42-.58s-.29-.24-.46-.29-.38-.08-.62-.08h-.86v3.38h-1.98v-3.38h-.88c-.25 0-.45.03-.62.08s-.32.15-.46.29c-.13.14-.28.33-.42.58l-1.38 2.43zm18.77.16c-1.35 0-2.42-.37-3.18-1.12-.77-.75-1.15-1.77-1.15-3.07 0-.84.17-1.58.5-2.21q.495-.945 1.38-1.47c.59-.35 1.28-.53 2.07-.53s1.43.17 1.95.5.92.79 1.19 1.39.41 1.3.41 2.1v.53h-5.89v-1.06h4.46l-.27.22c0-.75-.16-1.32-.47-1.71s-.77-.59-1.37-.59c-.66 0-1.17.23-1.53.7s-.54 1.12-.54 1.97v.21c0 .88.22 1.53.65 1.96s1.04.65 1.83.65q.69 0 1.29-.18t1.14-.6l.59 1.34q-.57.465-1.38.72c-.53.17-1.1.26-1.7.26Zm5.02-.16v-8.08h1.98v3.17h3.65v-3.17h1.98v8.08h-1.98v-3.38h-3.65v3.38zm9.89 0v-8.08h1.81v6.11h-.48l4.59-6.11h1.65v8.08h-1.81v-6.13h.5l-4.61 6.13zm9.84 0v-8.08h1.81v6.11h-.48l4.59-6.11h1.65v8.08h-1.81v-6.13h.5l-4.61 6.13zm3.78-8.82c-.53 0-1-.09-1.41-.26s-.74-.43-1.01-.75-.46-.71-.58-1.16l1.02-.35q.27.735.75 1.08c.32.23.73.34 1.23.34s.91-.11 1.23-.34c.32-.22.58-.58.78-1.07l.98.34c-.22.71-.59 1.26-1.11 1.62s-1.15.55-1.9.55Zm10.44 8.82v-8.08h4.3c1.01 0 1.75.18 2.22.55s.7.89.7 1.56c0 .51-.17.94-.51 1.28s-.79.55-1.36.64v-.22c.69.04 1.23.25 1.6.61s.56.83.56 1.41c0 .69-.27 1.24-.8 1.65s-1.29.61-2.27.61h-4.45Zm1.86-4.74h2.21c.43 0 .76-.09.99-.28s.35-.45.35-.79-.12-.6-.35-.78q-.36-.27-.99-.27h-2.21v2.13Zm0 3.5h2.38c.47 0 .83-.1 1.08-.29s.38-.47.38-.85-.13-.66-.38-.85-.61-.29-1.08-.29h-2.38v2.27Zm11.79 1.24v-8.08h1.98v3.17h1.22l2.37-3.17h2.14l-2.98 4.03-.43-.62c.3.03.56.11.79.24q.345.195.66.54c.315.345.41.52.62.87l1.7 3.02h-2.13l-1.38-2.43c-.14-.25-.28-.44-.42-.58s-.29-.24-.46-.29-.38-.08-.62-.08h-1.07v3.38h-1.98Zm9.18 3.46v-9.52c0-.33-.01-.67-.03-1.01s-.05-.68-.1-1.01h1.94l.18 1.7h-.18q.24-.855 1.02-1.35c.52-.34 1.12-.5 1.8-.5s1.34.17 1.87.5c.53.34.95.82 1.25 1.44q.45.93.45 2.25c0 1.32-.15 1.63-.45 2.26s-.71 1.11-1.25 1.45c-.53.34-1.16.5-1.87.5-.67 0-1.26-.17-1.78-.5-.51-.33-.85-.77-1.02-1.33h.18v5.12h-2Zm4.06-4.83c.64 0 1.15-.22 1.54-.66s.58-1.11.58-2.01-.19-1.56-.58-2-.9-.66-1.54-.66-1.14.22-1.52.66-.58 1.1-.58 2 .19 1.57.58 2.01.89.66 1.52.66m9.21 1.53c-.7 0-1.32-.17-1.86-.5-.53-.34-.95-.82-1.25-1.45s-.45-1.38-.45-2.26.15-1.62.45-2.25.71-1.1 1.25-1.44 1.15-.5 1.86-.5 1.28.17 1.8.5.86.79 1.03 1.35h-.18l.18-1.7h1.92l-.09 1.01c-.03.34-.04.68-.04 1.01v6.06h-1.98l-.02-1.66h.19c-.17.55-.52 1-1.04 1.33s-1.11.5-1.78.5Zm.56-1.54c.63 0 1.14-.22 1.52-.66s.58-1.11.58-2.01-.19-1.56-.58-2c-.38-.44-.89-.66-1.52-.66s-1.14.22-1.52.66-.58 1.1-.58 2 .19 1.57.57 2.01q.57.66 1.53.66m6.4 1.38v-8.08h1.81v6.11h-.48l4.59-6.11h1.65v8.08h-1.81v-6.13h.5l-4.61 6.13zm3.78-8.82c-.53 0-1-.09-1.41-.26s-.74-.43-1.01-.75-.46-.71-.58-1.16l1.02-.35q.27.735.75 1.08c.32.23.73.34 1.23.34s.91-.11 1.23-.34c.32-.22.58-.58.78-1.07l.98.34c-.22.71-.59 1.26-1.11 1.62s-1.15.55-1.9.55Z" style="fill:#27625f;stroke-width:0"/></g></svg>