<svg xmlns="http://www.w3.org/2000/svg" id="_Слой_2" data-name="Слой 2" viewBox="0 0 938.93 506.33"><defs><style>.cls-1,.cls-3{font-family:Mulish-Bold,Mulish;font-weight:700;fill:#27625f;font-size:16px}.cls-3{font-family:Mulish-SemiBold,Mulish;font-weight:600}.cls-6{letter-spacing:-.06em}.cls-7{letter-spacing:-.01em}.cls-8{letter-spacing:-.07em}.cls-10,.cls-11,.cls-13,.cls-9{letter-spacing:0}.cls-14,.cls-15{letter-spacing:-.02em}.cls-16{letter-spacing:-.07em}</style></defs><g id="_Слой_1-2" data-name="Слой 1"><rect width="937.93" height="505.33" x=".5" y=".5" rx="10" ry="10" style="fill:#fff;stroke:#a0b6b5;stroke-miterlimit:10"/><path d="M938.43 46.44H.5m937.93 45.94h-651.5M938.43.5H761.2m177.23 137.82H.5m286.43 367.51V46.44m162.88 459.39V92.38m162.87 413.45V92.38m162.87 413.45V92.38m162.88 91.88H.5m937.93 45.94H.5m937.93 45.93H.5m937.93 45.94H.5m937.93 45.94H.5m937.93 45.94H.5m937.93 45.94H.5" style="stroke:#a0b6b5;stroke-miterlimit:10;fill:none"/><text class="cls-1" transform="translate(84.25 94.96)"><tspan x="0" y="0">Вид календаря</tspan></text><text class="cls-1" transform="translate(16.75 28.79)"><tspan x="0" y="0">Квартальные календари</tspan></text><path d="M27.84 159.31v-11.28h1.65v4.93h2.11l-.4.26 3.49-5.18h1.84l-3.78 5.47-.61-.48c.69.09 1.28.32 1.76.71.48.38.9.92 1.25 1.62l1.98 3.97h-1.79l-1.58-3.28c-.3-.62-.65-1.06-1.04-1.31-.39-.26-.89-.38-1.49-.38h-1.74v4.98h-1.65Zm10.75 0v-11.28h1.65v4.93h2.11l-.4.26 3.49-5.18h1.84l-3.78 5.47-.61-.48c.69.09 1.28.32 1.76.71.48.38.9.92 1.25 1.62l1.98 3.97h-1.79l-1.58-3.28c-.3-.62-.65-1.06-1.04-1.31-.39-.26-.89-.38-1.49-.38h-1.74v4.98h-1.65Zm13.86 0 5.02-11.28h1.42l5.1 11.28h-1.71l-1.39-3.2.7.45h-6.83l.75-.45-1.39 3.2h-1.68Zm5.71-9.46-2.43 5.74-.38-.37h5.68l-.32.37-2.48-5.74h-.06Zm11.95 9.46v-2.34h-5.22v-1.18l5.49-7.76h1.34v7.65h1.68v1.3h-1.68v2.34H70.1Zm0-3.63V150h.37l-4.29 6.08v-.4zm4.59 3.63v-1.9h1.9v1.9zm8.45 0v-11.28h7.81v1.31h-6.21v3.55h3.44c1.23 0 2.18.27 2.86.8s1.02 1.33 1.02 2.38-.34 1.86-1.02 2.41-1.63.82-2.86.82h-5.04Zm1.6-1.31h3.26c.83 0 1.45-.16 1.84-.47s.59-.79.59-1.43-.2-1.11-.59-1.42c-.4-.31-1.01-.46-1.84-.46h-3.26v3.79Zm12.99 1.46c-1.3 0-2.33-.37-3.07-1.1-.75-.74-1.12-1.75-1.12-3.06 0-.84.16-1.58.49-2.21s.78-1.12 1.36-1.46c.58-.35 1.26-.52 2.02-.52s1.39.16 1.9.48q.765.48 1.17 1.35c.27.58.4 1.27.4 2.06v.51h-6.08v-.93h4.98l-.27.21q0-1.2-.54-1.86c-.36-.44-.87-.66-1.54-.66-.75 0-1.32.26-1.73.78s-.61 1.23-.61 2.14v.16c0 .95.23 1.66.7 2.14q.69.72 1.98.72c.47 0 .91-.07 1.32-.2s.8-.35 1.18-.66l.53 1.1c-.37.33-.83.58-1.36.76s-1.1.26-1.7.26Zm7.94 0c-.7 0-1.37-.09-1.98-.26-.62-.18-1.13-.43-1.52-.76l.5-1.09c.39.31.85.54 1.36.7s1.06.23 1.65.23c.74 0 1.27-.11 1.61-.33s.5-.53.5-.94-.14-.69-.42-.9c-.28-.2-.68-.3-1.22-.3h-1.98v-1.15H106c.48 0 .85-.1 1.12-.3s.4-.48.4-.85c0-.38-.15-.68-.46-.9-.31-.21-.79-.32-1.44-.32-.55 0-1.06.07-1.52.21s-.9.35-1.31.62l-.48-1.04c.44-.33.95-.58 1.55-.74s1.24-.24 1.94-.24c1.05 0 1.84.2 2.38.58.54.39.82.95.82 1.67 0 .5-.17.93-.5 1.28-.34.35-.79.56-1.35.64v-.21c.65.03 1.17.23 1.56.58.39.36.58.83.58 1.42 0 .72-.31 1.3-.92 1.74-.61.43-1.51.65-2.68.65Zm9.82 3.31v-9.58c0-.31-.01-.63-.04-.95l-.09-.98h1.57l.16 1.82h-.18c.17-.61.51-1.09 1.03-1.44s1.13-.53 1.85-.53 1.34.17 1.87.5c.53.34.95.81 1.24 1.43s.44 1.37.44 2.24-.15 1.61-.44 2.24-.71 1.11-1.24 1.44-1.16.5-1.87.5-1.31-.17-1.83-.52-.86-.82-1.03-1.42h.18v5.25zm3.9-4.58c.7 0 1.27-.24 1.69-.74s.63-1.22.63-2.18-.21-1.68-.63-2.17c-.42-.48-.98-.73-1.69-.73s-1.27.24-1.69.73-.63 1.21-.63 2.17.21 1.69.63 2.18.98.74 1.69.74m9.77 1.27c-1.3 0-2.33-.37-3.07-1.1-.75-.74-1.12-1.75-1.12-3.06 0-.84.16-1.58.49-2.21s.78-1.12 1.36-1.46c.58-.35 1.26-.52 2.02-.52s1.39.16 1.9.48q.765.48 1.17 1.35c.27.58.4 1.27.4 2.06v.51h-6.08v-.93h4.98l-.27.21q0-1.2-.54-1.86c-.36-.44-.87-.66-1.54-.66-.75 0-1.32.26-1.73.78s-.61 1.23-.61 2.14v.16c0 .95.23 1.66.7 2.14q.69.72 1.98.72c.47 0 .91-.07 1.32-.2s.8-.35 1.18-.66l.53 1.1c-.37.33-.83.58-1.36.76s-1.1.26-1.7.26Zm5.13-.15v-8.06h1.6v3.3h1.39l2.51-3.3h1.76l-3.01 3.97-.4-.51c.31.03.58.11.8.23q.33.18.66.54.315.345.66.93l1.68 2.91h-1.73l-1.44-2.46c-.16-.28-.31-.49-.46-.65s-.32-.26-.51-.32-.43-.09-.7-.09h-1.2v3.52h-1.6Zm8.5.21-.54-1.28c.36-.15.67-.34.92-.57s.45-.53.59-.89.25-.81.31-1.34.1-1.18.1-1.94v-2.26h6.08v8.06h-1.6v-6.8h-2.99v1.04c0 1.21-.1 2.22-.29 3.02s-.5 1.43-.92 1.9c-.42.46-.97.81-1.66 1.05Zm13.04-.06c-.71 0-1.34-.17-1.87-.5s-.95-.81-1.24-1.44-.44-1.38-.44-2.24.15-1.62.44-2.24.71-1.1 1.24-1.43c.53-.34 1.16-.5 1.87-.5s1.32.18 1.84.53.87.83 1.04 1.44h-.18l.16-1.82h1.57l-.09.98c-.03.33-.04.64-.04.95v6.13h-1.62v-1.79h.18c-.17.6-.52 1.07-1.05 1.42s-1.13.52-1.82.52Zm.4-1.26c.69 0 1.25-.24 1.67-.74s.63-1.22.63-2.18-.21-1.68-.63-2.17c-.42-.48-.98-.73-1.67-.73s-1.27.24-1.69.73-.63 1.21-.63 2.17.21 1.69.62 2.18.98.74 1.7.74m6.38 1.11v-8.06h1.34l2.91 5.15 2.91-5.15h1.34v8.06h-1.42v-6.26h.35l-2.8 4.96h-.77l-2.8-4.96h.35v6.26h-1.42Zm10.95 0v-8.06h1.6v3.28h4.08v-3.28h1.6v8.06h-1.6v-3.52h-4.08v3.52zm13.23.15c-.8 0-1.49-.17-2.08-.5-.59-.34-1.04-.82-1.36-1.44s-.48-1.37-.48-2.23.16-1.61.48-2.23.77-1.1 1.36-1.44 1.28-.5 2.08-.5 1.5.17 2.09.5 1.05.82 1.38 1.44.49 1.37.49 2.23-.16 1.61-.49 2.23-.78 1.1-1.38 1.44-1.29.5-2.09.5m0-1.26c.7 0 1.26-.24 1.68-.74s.62-1.22.62-2.18-.21-1.68-.62-2.17c-.42-.48-.98-.73-1.68-.73s-1.25.24-1.66.73c-.42.49-.62 1.21-.62 2.17s.21 1.69.62 2.18.97.74 1.67.74Zm5.95 1.11v-8.06h5.81v1.3h-4.19v6.77h-1.62Zm10.8.15c-.8 0-1.49-.17-2.08-.5-.59-.34-1.04-.82-1.36-1.44s-.48-1.37-.48-2.23.16-1.61.48-2.23.77-1.1 1.36-1.44 1.28-.5 2.08-.5 1.5.17 2.09.5 1.05.82 1.38 1.44.49 1.37.49 2.23-.16 1.61-.49 2.23-.78 1.1-1.38 1.44-1.29.5-2.09.5m0-1.26c.7 0 1.26-.24 1.68-.74s.62-1.22.62-2.18-.21-1.68-.62-2.17c-.42-.48-.98-.73-1.68-.73s-1.25.24-1.66.73c-.42.49-.62 1.21-.62 2.17s.21 1.69.62 2.18.97.74 1.67.74Zm10.22 1.11v-8.06H221v8.06h-1.6v-6.8h-4.03v6.8zm13.19.15c-.8 0-1.49-.17-2.08-.5-.59-.34-1.04-.82-1.36-1.44s-.48-1.37-.48-2.23.16-1.61.48-2.23.77-1.1 1.36-1.44 1.28-.5 2.08-.5 1.5.17 2.09.5 1.05.82 1.38 1.44.49 1.37.49 2.23-.16 1.61-.49 2.23-.78 1.1-1.38 1.44-1.29.5-2.09.5m0-1.26c.7 0 1.26-.24 1.68-.74s.62-1.22.62-2.18-.21-1.68-.62-2.17c-.42-.48-.98-.73-1.68-.73s-1.25.24-1.66.73c-.42.49-.62 1.21-.62 2.17s.21 1.69.62 2.18.97.74 1.67.74Zm5.45 1.32-.54-1.28c.36-.15.67-.34.92-.57s.45-.53.59-.89.25-.81.31-1.34.1-1.18.1-1.94v-2.26h6.08v8.06h-1.6v-6.8h-2.99v1.04c0 1.21-.1 2.22-.29 3.02s-.5 1.43-.92 1.9c-.42.46-.97.81-1.66 1.05Zm9.24-.21 1.26-2.18c.2-.35.46-.64.78-.86.31-.22.64-.33.97-.33h.29l-.02.16c-.92 0-1.63-.21-2.14-.62-.51-.42-.77-1.01-.77-1.79s.26-1.38.77-1.81 1.26-.64 2.26-.64h3.78v8.06h-1.49v-2.99h-1.07c-.41 0-.75.1-1.03.3s-.51.47-.7.8l-1.09 1.89h-1.79Zm3.68-4.08h2v-2.9h-2c-.6 0-1.04.13-1.34.38-.29.26-.44.61-.44 1.05 0 .47.15.83.44 1.08s.74.38 1.34.38Zm6.46 6.05-.7-.54c.31-.33.52-.63.63-.91s.17-.57.17-.86l.35.35h-1.26v-1.9h1.9v1.3c0 .48-.08.92-.24 1.34-.16.41-.44.82-.85 1.24ZM84.97 174.46c-1.22 0-2.18-.38-2.9-1.14s-1.08-1.87-1.08-3.34v-1.39c0-1.5.32-2.71.97-3.63q.975-1.38 3-1.86l2.94-.7.46 1.29-3.3.77c-.58.13-1.05.37-1.42.72s-.65.77-.84 1.25-.28.99-.28 1.54v.74h-.24c.13-.49.33-.91.62-1.26.28-.35.63-.62 1.06-.82.42-.2.89-.3 1.42-.3.69 0 1.3.16 1.82.48s.93.78 1.22 1.38.44 1.32.44 2.14-.16 1.59-.48 2.21-.77 1.09-1.35 1.42-1.27.5-2.06.5m-.05-1.25c.73 0 1.29-.24 1.7-.71s.62-1.18.62-2.1-.21-1.62-.62-2.1c-.42-.48-.98-.72-1.7-.72s-1.28.24-1.7.71-.62 1.15-.62 2.02c0 .96.21 1.68.62 2.17.41.48.98.73 1.7.73m9.74 1.25c-1.3 0-2.33-.37-3.07-1.1-.75-.74-1.12-1.75-1.12-3.06 0-.84.16-1.58.49-2.21s.78-1.12 1.36-1.46c.58-.35 1.26-.52 2.02-.52s1.39.16 1.9.48q.765.48 1.17 1.35c.27.58.4 1.27.4 2.06v.51h-6.08v-.93h4.98l-.27.21q0-1.2-.54-1.86c-.36-.44-.87-.66-1.54-.66-.75 0-1.32.26-1.73.78s-.61 1.23-.61 2.14v.16c0 .95.23 1.66.7 2.14q.69.72 1.98.72c.47 0 .91-.07 1.32-.2s.8-.35 1.18-.66l.53 1.1c-.37.33-.83.58-1.36.76s-1.1.26-1.7.26Zm7.94 0c-.7 0-1.37-.09-1.98-.26-.62-.18-1.13-.43-1.52-.76l.5-1.09c.39.31.85.54 1.36.7s1.06.23 1.65.23c.74 0 1.27-.11 1.61-.33s.5-.53.5-.94-.14-.69-.42-.9c-.28-.2-.68-.3-1.22-.3h-1.98v-1.15h1.82c.48 0 .85-.1 1.12-.3s.4-.48.4-.85c0-.38-.15-.68-.46-.9-.31-.21-.79-.32-1.44-.32-.55 0-1.06.07-1.52.21s-.9.35-1.31.62l-.48-1.04c.44-.33.95-.58 1.55-.74s1.24-.24 1.94-.24c1.05 0 1.84.2 2.38.58.54.39.82.95.82 1.67 0 .5-.17.93-.5 1.28-.34.35-.79.56-1.35.64v-.21c.65.03 1.17.23 1.56.58.39.36.58.83.58 1.42 0 .72-.31 1.3-.92 1.74-.61.43-1.51.65-2.68.65Zm9.42.06-.54-1.28c.36-.15.67-.34.92-.57s.45-.53.59-.89.25-.81.31-1.34.1-1.18.1-1.94v-2.26h6.08v8.06h-1.6v-6.8h-2.99v1.04c0 1.21-.1 2.22-.29 3.02s-.5 1.43-.92 1.9c-.42.46-.97.81-1.66 1.05Zm13.04-.06c-.71 0-1.34-.17-1.87-.5s-.95-.81-1.24-1.44-.44-1.38-.44-2.24.15-1.62.44-2.24.71-1.1 1.24-1.43c.53-.34 1.16-.5 1.87-.5s1.32.18 1.84.53.87.83 1.04 1.44h-.18l.16-1.82h1.57l-.09.98c-.03.33-.04.64-.04.95v6.13h-1.62v-1.79h.18c-.17.6-.52 1.07-1.05 1.42s-1.13.52-1.82.52Zm.4-1.26c.69 0 1.25-.24 1.67-.74s.63-1.22.63-2.18-.21-1.68-.63-2.17c-.42-.48-.98-.73-1.67-.73s-1.27.24-1.69.73-.63 1.21-.63 2.17.21 1.69.62 2.18.98.74 1.7.74m6.39 1.11v-8.06h1.34l2.91 5.15 2.91-5.15h1.34v8.06h-1.42v-6.26h.35l-2.8 4.96h-.77l-2.8-4.96h.35v6.26h-1.42Zm10.94 0v-8.06h1.47v6.51h-.45l4.86-6.51h1.34v8.06h-1.46v-6.53h.46l-4.9 6.53h-1.34Zm9.66 0v-8.06h1.6v3.28h4.08v-3.28h1.6v8.06h-1.6v-3.52h-4.08v3.52zm12.87.15c-.71 0-1.34-.17-1.87-.5s-.95-.81-1.24-1.44-.44-1.38-.44-2.24.15-1.62.44-2.24.71-1.1 1.24-1.43 1.16-.5 1.87-.5 1.32.18 1.84.53.87.83 1.04 1.44h-.18l.16-1.82h1.57l-.09.98c-.03.33-.04.64-.04.95v6.13H168v-1.79h.18c-.17.6-.52 1.07-1.05 1.42s-1.13.52-1.82.52Zm.4-1.26c.69 0 1.25-.24 1.67-.74.42-.49.63-1.22.63-2.18s-.21-1.68-.63-2.17c-.42-.48-.98-.73-1.67-.73s-1.27.24-1.69.73-.63 1.21-.63 2.17.21 1.69.62 2.18.98.74 1.7.74m13.36 3.19v-2.08h-6.98v-8.06h1.6v6.8h3.86v-6.8h1.58v6.8h1.3v3.34zm2.97-2.08v-8.06h1.47v6.51h-.45l4.86-6.51h1.34v8.06h-1.46v-6.53h.46l-4.9 6.53h-1.34Zm9.67 0v-8.06h1.47v6.51h-.45l4.86-6.51h1.34v8.06h-1.46v-6.53h.46l-4.9 6.53h-1.34ZM27.84 204.05v-11.28h1.65v4.93h2.11l-.4.26 3.49-5.18h1.84l-3.78 5.47-.61-.48c.69.08 1.28.32 1.76.7s.9.92 1.25 1.62l1.98 3.97h-1.79l-1.58-3.28c-.3-.62-.65-1.06-1.04-1.31s-.89-.38-1.49-.38h-1.74v4.98h-1.65Zm10.75 0v-11.28h1.65v4.93h2.11l-.4.26 3.49-5.18h1.84l-3.78 5.47-.61-.48c.69.08 1.28.32 1.76.7s.9.92 1.25 1.62l1.98 3.97h-1.79l-1.58-3.28c-.3-.62-.65-1.06-1.04-1.31s-.89-.38-1.49-.38h-1.74v4.98h-1.65Zm13.86 0 5.02-11.28h1.42l5.1 11.28h-1.71l-1.39-3.2.7.45h-6.83l.75-.45-1.39 3.2h-1.68Zm5.71-9.46-2.43 5.74-.38-.37h5.68l-.32.37-2.48-5.74h-.06Zm11.95 9.46v-2.34h-5.22v-1.18l5.49-7.76h1.34v7.65h1.68v1.29h-1.68v2.34H70.1Zm0-3.63v-5.68h.37l-4.29 6.08v-.4zm4.59 3.63v-1.9h1.9v1.9zm8.45 0v-11.28h7.81v1.31h-6.21v3.55h3.44c1.23 0 2.18.27 2.86.8s1.02 1.33 1.02 2.38-.34 1.86-1.02 2.41-1.63.82-2.86.82h-5.04Zm1.6-1.31h3.26c.83 0 1.45-.16 1.84-.47s.59-.79.59-1.43-.2-1.12-.59-1.42c-.4-.31-1.01-.46-1.84-.46h-3.26v3.79Zm12.99 1.45c-1.3 0-2.33-.37-3.07-1.1-.75-.74-1.12-1.75-1.12-3.06 0-.84.16-1.58.49-2.21s.78-1.12 1.36-1.46c.58-.35 1.26-.52 2.02-.52s1.39.16 1.9.48q.765.48 1.17 1.35c.27.58.4 1.27.4 2.06v.51h-6.08v-.93h4.98l-.27.21q0-1.2-.54-1.86c-.54-.66-.87-.66-1.54-.66-.75 0-1.32.26-1.73.78s-.61 1.23-.61 2.14v.16c0 .95.23 1.66.7 2.14q.69.72 1.98.72c.47 0 .91-.07 1.32-.2s.8-.35 1.18-.66l.53 1.1c-.37.33-.83.58-1.36.76s-1.1.26-1.7.26Zm7.94 0c-.7 0-1.37-.09-1.98-.26-.62-.18-1.13-.43-1.52-.76l.5-1.09c.39.31.85.54 1.36.7.51.15 1.06.23 1.65.23.74 0 1.27-.11 1.61-.33s.5-.53.5-.94-.14-.69-.42-.9-.68-.3-1.22-.3h-1.98v-1.15H106c.48 0 .85-.1 1.12-.3s.4-.49.4-.85c0-.38-.15-.68-.46-.9-.31-.21-.79-.32-1.44-.32-.55 0-1.06.07-1.52.21s-.9.35-1.31.62l-.48-1.04c.44-.33.95-.58 1.55-.74s1.24-.24 1.94-.24c1.05 0 1.84.19 2.38.58s.82.95.82 1.67c0 .5-.17.93-.5 1.28-.34.35-.79.57-1.35.64v-.21c.65.03 1.17.23 1.56.58.39.36.58.83.58 1.42 0 .73-.31 1.3-.92 1.74-.61.43-1.51.65-2.68.65Zm9.82 3.32v-9.58c0-.31-.01-.63-.04-.95l-.09-.98h1.57l.16 1.82h-.18c.17-.61.51-1.09 1.03-1.44s1.13-.53 1.85-.53 1.34.17 1.87.5c.53.34.95.81 1.24 1.43s.44 1.37.44 2.24-.15 1.61-.44 2.24-.71 1.11-1.24 1.44-1.16.5-1.87.5-1.31-.17-1.83-.52-.86-.82-1.03-1.42h.18v5.25zm3.9-4.58c.7 0 1.27-.25 1.69-.74s.63-1.22.63-2.18-.21-1.68-.63-2.17-.98-.73-1.69-.73-1.27.24-1.69.73-.63 1.21-.63 2.17.21 1.69.63 2.18.98.74 1.69.74m9.77 1.26c-1.3 0-2.33-.37-3.07-1.1-.75-.74-1.12-1.75-1.12-3.06 0-.84.16-1.58.49-2.21s.78-1.12 1.36-1.46c.58-.35 1.26-.52 2.02-.52s1.39.16 1.9.48q.765.48 1.17 1.35c.27.58.4 1.27.4 2.06v.51h-6.08v-.93h4.98l-.27.21q0-1.2-.54-1.86c-.54-.66-.87-.66-1.54-.66-.75 0-1.32.26-1.73.78s-.61 1.23-.61 2.14v.16c0 .95.23 1.66.7 2.14q.69.72 1.98.72c.47 0 .91-.07 1.32-.2s.8-.35 1.18-.66l.53 1.1c-.37.33-.83.58-1.36.76s-1.1.26-1.7.26Zm5.13-.14v-8.06h1.6v3.3h1.39l2.51-3.3h1.76l-3.01 3.97-.4-.51c.31.03.58.11.8.23q.33.18.66.54c.33.36.43.54.66.93l1.68 2.91h-1.73l-1.44-2.46c-.16-.28-.31-.49-.46-.65s-.32-.26-.51-.32-.43-.09-.7-.09h-1.2v3.52h-1.6Zm8.5.21-.54-1.28c.36-.15.67-.34.92-.57s.45-.52.59-.89.25-.81.31-1.34.1-1.18.1-1.94v-2.26h6.08v8.06h-1.6v-6.8h-2.99v1.04c0 1.22-.1 2.22-.29 3.02s-.5 1.43-.92 1.9c-.42.46-.97.81-1.66 1.05Zm13.04-.07c-.71 0-1.34-.17-1.87-.5s-.95-.81-1.24-1.44-.44-1.38-.44-2.24.15-1.62.44-2.24.71-1.1 1.24-1.43c.53-.34 1.16-.5 1.87-.5s1.32.18 1.84.53.87.83 1.04 1.44h-.18l.16-1.82h1.57l-.09.98c-.03.33-.04.64-.04.95v6.13h-1.62v-1.79h.18c-.17.6-.52 1.07-1.05 1.42s-1.13.52-1.82.52Zm.4-1.26c.69 0 1.25-.25 1.67-.74s.63-1.22.63-2.18-.21-1.68-.63-2.17-.98-.73-1.67-.73-1.27.24-1.69.73-.63 1.21-.63 2.17.21 1.69.62 2.18.98.74 1.7.74m6.38 1.12v-8.06h1.34l2.91 5.15 2.91-5.15h1.34v8.06h-1.42v-6.26h.35l-2.8 4.96h-.77l-2.8-4.96h.35v6.26h-1.42Zm10.95 0v-8.06h1.6v3.28h4.08v-3.28h1.6v8.06h-1.6v-3.52h-4.08v3.52zm13.23.14c-.8 0-1.49-.17-2.08-.5-.59-.34-1.04-.82-1.36-1.44s-.48-1.37-.48-2.23.16-1.61.48-2.23.77-1.1 1.36-1.44 1.28-.5 2.08-.5 1.5.17 2.09.5 1.05.82 1.38 1.44.49 1.37.49 2.23-.16 1.61-.49 2.23-.78 1.1-1.38 1.44-1.29.5-2.09.5m0-1.26c.7 0 1.26-.25 1.68-.74s.62-1.22.62-2.18-.21-1.68-.62-2.17-.98-.73-1.68-.73-1.25.24-1.66.73-.62 1.21-.62 2.17.21 1.69.62 2.18.97.74 1.67.74Zm5.95 1.12v-8.06h5.81v1.3h-4.19v6.77h-1.62Zm10.8.14c-.8 0-1.49-.17-2.08-.5-.59-.34-1.04-.82-1.36-1.44s-.48-1.37-.48-2.23.16-1.61.48-2.23.77-1.1 1.36-1.44 1.28-.5 2.08-.5 1.5.17 2.09.5 1.05.82 1.38 1.44.49 1.37.49 2.23-.16 1.61-.49 2.23-.78 1.1-1.38 1.44-1.29.5-2.09.5m0-1.26c.7 0 1.26-.25 1.68-.74s.62-1.22.62-2.18-.21-1.68-.62-2.17-.98-.73-1.68-.73-1.25.24-1.66.73-.62 1.21-.62 2.17.21 1.69.62 2.18.97.74 1.67.74Zm10.22 1.12v-8.06H221v8.06h-1.6v-6.8h-4.03v6.8zm13.19.14c-.8 0-1.49-.17-2.08-.5-.59-.34-1.04-.82-1.36-1.44s-.48-1.37-.48-2.23.16-1.61.48-2.23.77-1.1 1.36-1.44 1.28-.5 2.08-.5 1.5.17 2.09.5 1.05.82 1.38 1.44.49 1.37.49 2.23-.16 1.61-.49 2.23-.78 1.1-1.38 1.44-1.29.5-2.09.5m0-1.26c.7 0 1.26-.25 1.68-.74s.62-1.22.62-2.18-.21-1.68-.62-2.17-.98-.73-1.68-.73-1.25.24-1.66.73-.62 1.21-.62 2.17.21 1.69.62 2.18.97.74 1.67.74Zm5.45 1.33-.54-1.28c.36-.15.67-.34.92-.57s.45-.52.59-.89c.14-.36.25-.81.31-1.34s.1-1.18.1-1.94v-2.26h6.08v8.06h-1.6v-6.8h-2.99v1.04c0 1.22-.1 2.22-.29 3.02s-.5 1.43-.92 1.9c-.42.46-.97.81-1.66 1.05Zm9.24-.21 1.26-2.18c.2-.35.46-.64.78-.86s.64-.33.97-.33h.29l-.02.16c-.92 0-1.63-.21-2.14-.62-.51-.42-.77-1.01-.77-1.79s.26-1.38.77-1.81 1.26-.64 2.26-.64h3.78v8.06h-1.49v-2.99h-1.07c-.41 0-.75.1-1.03.3s-.51.47-.7.8l-1.09 1.89h-1.79Zm3.68-4.08h2v-2.9h-2c-.6 0-1.04.13-1.34.38-.29.26-.44.61-.44 1.06s.15.83.44 1.08.74.38 1.34.38m6.46 6.05-.7-.54c.31-.33.52-.63.63-.91s.17-.57.17-.86l.35.35h-1.26v-1.9h1.9v1.3c0 .48-.08.93-.24 1.34s-.44.82-.85 1.24ZM89.78 219.19c-.81 0-1.52-.17-2.12-.5s-1.07-.82-1.39-1.46c-.33-.63-.49-1.39-.49-2.26s.17-1.6.5-2.22a3.4 3.4 0 0 1 1.39-1.42c.6-.33 1.3-.49 2.11-.49.52 0 1.03.09 1.52.26s.9.42 1.22.74l-.53 1.14a3.1 3.1 0 0 0-2.1-.87c-.77 0-1.37.25-1.81.74q-.66.735-.66 2.13c0 1.395.22 1.66.66 2.16s1.04.75 1.81.75c.34 0 .7-.07 1.07-.2s.71-.35 1.02-.65l.53 1.14c-.33.32-.74.57-1.24.74s-.99.26-1.5.26Zm8.52.07-.54-1.28c.36-.15.67-.34.92-.57s.45-.52.59-.89.25-.81.31-1.34.1-1.18.1-1.94v-2.26h6.08v8.06h-1.6v-6.8h-2.99v1.04c0 1.22-.1 2.22-.29 3.02s-.5 1.43-.92 1.9c-.42.46-.97.81-1.66 1.05Zm13.04-.07c-.71 0-1.34-.17-1.87-.5s-.95-.81-1.24-1.44-.44-1.38-.44-2.24.15-1.62.44-2.24.71-1.1 1.24-1.43c.53-.34 1.16-.5 1.87-.5s1.32.18 1.84.53.87.83 1.04 1.44h-.18l.16-1.82h1.57l-.09.98c-.03.33-.04.64-.04.95v6.13h-1.62v-1.79h.18c-.17.6-.52 1.07-1.05 1.42s-1.13.52-1.82.52Zm.4-1.26c.69 0 1.25-.25 1.67-.74s.63-1.22.63-2.18-.21-1.68-.63-2.17-.98-.73-1.67-.73-1.27.24-1.69.73-.63 1.21-.63 2.17.21 1.69.62 2.18.98.74 1.7.74m6.38 1.12v-8.06h1.34l2.91 5.15 2.91-5.15h1.34v8.06h-1.42v-6.26h.35l-2.8 4.96h-.77l-2.8-4.96h.35v6.26h-1.42Zm10.94 0v-8.06h1.47v6.51h-.45l4.86-6.51h1.34v8.06h-1.46v-6.53h.46l-4.9 6.53h-1.34Zm9.67 0v-8.06h1.6v3.28h4.08v-3.28h1.6v8.06h-1.6v-3.52h-4.08v3.52zm12.86.14c-.71 0-1.34-.17-1.87-.5s-.95-.81-1.24-1.44-.44-1.38-.44-2.24.15-1.62.44-2.24.71-1.1 1.24-1.43c.53-.34 1.16-.5 1.87-.5s1.32.18 1.84.53.87.83 1.04 1.44h-.18l.16-1.82h1.57l-.09.98c-.03.33-.04.64-.04.95v6.13h-1.62v-1.79h.18c-.17.6-.52 1.07-1.05 1.42s-1.13.52-1.82.52Zm.4-1.26c.69 0 1.25-.25 1.67-.74s.63-1.22.63-2.18-.21-1.68-.63-2.17-.98-.73-1.67-.73-1.27.24-1.69.73-.63 1.21-.63 2.17.21 1.69.62 2.18.98.74 1.7.74m13.36 3.2v-2.08h-6.98v-8.06h1.6v6.8h3.86v-6.8h1.58v6.8h1.3v3.34zm2.98-2.08v-8.06h1.47v6.51h-.45l4.86-6.51h1.34v8.06h-1.46v-6.53h.46l-4.9 6.53h-1.34Zm13.45.14c-1.3 0-2.33-.37-3.07-1.1-.75-.74-1.12-1.75-1.12-3.06 0-.84.16-1.58.49-2.21s.78-1.12 1.36-1.46c.58-.35 1.26-.52 2.02-.52s1.39.16 1.9.48.9.77 1.17 1.35.4 1.27.4 2.06v.51h-6.08v-.93h4.98l-.27.21q0-1.2-.54-1.86c-.54-.66-.87-.66-1.54-.66-.75 0-1.32.26-1.73.78s-.61 1.23-.61 2.14v.16c0 .95.23 1.66.7 2.14q.69.72 1.98.72c.47 0 .91-.07 1.32-.2s.8-.35 1.18-.66l.53 1.1c-.37.33-.83.58-1.36.76s-1.1.26-1.7.26Zm5.14-.14v-8.06h1.47v6.51h-.45l4.86-6.51h1.34v8.06h-1.46v-6.53h.46l-4.9 6.53h-1.34Zm3.62-8.8c-.49 0-.93-.08-1.31-.24s-.71-.4-.98-.71-.48-.7-.62-1.14l.9-.32c.18.5.44.87.77 1.11s.75.36 1.25.36.93-.11 1.26-.34c.33-.22.61-.6.84-1.12l.83.3q-.39 1.095-1.14 1.59c-.51.34-1.1.5-1.78.5ZM32.49 251.01v-11.28h1.65v4.93h2.11l-.4.26 3.49-5.18h1.84l-3.78 5.47-.61-.48c.69.09 1.28.32 1.76.71.48.38.9.92 1.25 1.62l1.98 3.97h-1.79l-1.58-3.28c-.3-.62-.65-1.06-1.04-1.31-.39-.26-.89-.38-1.49-.38h-1.74v4.98h-1.65Zm10.75 0v-11.28h1.65v4.93H47l-.4.26 3.49-5.18h1.84l-3.78 5.47-.61-.48c.69.09 1.28.32 1.76.71.48.38.9.92 1.25 1.62l1.98 3.97h-1.79l-1.58-3.28c-.3-.62-.65-1.06-1.04-1.31-.39-.26-.89-.38-1.49-.38h-1.74v4.98h-1.65Zm13.86 0 5.02-11.28h1.42l5.1 11.28h-1.71l-1.39-3.2.7.45h-6.83l.75-.45-1.39 3.2h-1.68Zm5.71-9.46-2.43 5.74-.38-.37h5.68l-.32.37-2.48-5.74h-.06Zm11.95 9.46v-2.34h-5.22v-1.18l5.49-7.76h1.34v7.65h1.68v1.3h-1.68v2.34h-1.62Zm0-3.63v-5.68h.37l-4.29 6.08v-.4zm4.59 3.63v-1.9h1.9v1.9zm13.52.14c-1.15 0-2.13-.23-2.94-.7a4.64 4.64 0 0 1-1.86-2.01c-.43-.87-.65-1.9-.65-3.08s.22-2.21.65-3.07 1.05-1.53 1.86-2 1.79-.7 2.94-.7c.8 0 1.51.12 2.14.35s1.18.58 1.65 1.02l-.58 1.33c-.51-.44-1.01-.75-1.5-.94s-1.05-.29-1.69-.29c-1.22 0-2.14.37-2.78 1.12q-.96 1.125-.96 3.18c0 2.055.32 2.44.96 3.19s1.57 1.13 2.78 1.13c.64 0 1.2-.1 1.69-.29s.98-.51 1.5-.96l.58 1.33c-.47.45-1.02.79-1.65 1.03s-1.34.36-2.14.36m10.11 3.31v-9.58c0-.31-.01-.63-.04-.95l-.09-.98h1.57l.16 1.82h-.18c.17-.61.51-1.09 1.03-1.44s1.13-.53 1.85-.53 1.34.17 1.87.5c.53.34.95.81 1.24 1.43s.44 1.37.44 2.24-.15 1.61-.44 2.24-.71 1.11-1.24 1.44-1.16.5-1.87.5-1.31-.17-1.83-.52-.86-.82-1.03-1.42h.18v5.25zm3.9-4.58c.7 0 1.27-.24 1.69-.74s.63-1.22.63-2.18-.21-1.68-.63-2.17c-.42-.48-.98-.73-1.69-.73s-1.27.24-1.69.73-.63 1.21-.63 2.17.21 1.69.63 2.18.98.74 1.69.74m9.77 1.27c-1.3 0-2.33-.37-3.07-1.1-.75-.74-1.12-1.75-1.12-3.06 0-.84.16-1.58.49-2.21s.78-1.12 1.36-1.46c.58-.35 1.26-.52 2.02-.52s1.39.16 1.9.48q.765.48 1.17 1.35c.27.58.4 1.27.4 2.06v.51h-6.08v-.93h4.98l-.27.21q0-1.2-.54-1.86c-.36-.44-.87-.66-1.54-.66-.75 0-1.32.26-1.73.78s-.61 1.23-.61 2.14v.16c0 .95.23 1.66.7 2.14q.69.72 1.98.72c.47 0 .91-.07 1.32-.2s.8-.35 1.18-.66l.53 1.1c-.37.33-.83.58-1.36.76s-1.1.26-1.7.26Zm5.13-.14v-8.06h1.6v3.3h1.39l2.51-3.3h1.76l-3.01 3.97-.4-.51c.31.03.58.11.8.23q.33.18.66.54.315.345.66.93l1.68 2.91h-1.73l-1.44-2.46c-.16-.28-.31-.49-.46-.65s-.32-.26-.51-.32-.43-.09-.7-.09h-1.2v3.52h-1.6Zm8.5.2-.54-1.28c.36-.15.67-.34.92-.57s.45-.53.59-.89.25-.81.31-1.34.1-1.18.1-1.94v-2.26h6.08v8.06h-1.6v-6.8h-2.99v1.04c0 1.21-.1 2.22-.29 3.02s-.5 1.43-.92 1.9c-.42.46-.97.81-1.66 1.05Zm13.04-.06c-.71 0-1.34-.17-1.87-.5s-.95-.81-1.24-1.44-.44-1.38-.44-2.24.15-1.62.44-2.24.71-1.1 1.24-1.43c.53-.34 1.16-.5 1.87-.5s1.32.18 1.84.53.87.83 1.04 1.44h-.18l.16-1.82h1.57l-.09.98c-.03.33-.04.64-.04.95v6.13H146v-1.79h.18c-.17.6-.52 1.07-1.05 1.42s-1.13.52-1.82.52Zm.4-1.26c.69 0 1.25-.24 1.67-.74s.63-1.22.63-2.18-.21-1.68-.63-2.17c-.42-.48-.98-.73-1.67-.73s-1.27.24-1.69.73-.63 1.21-.63 2.17.21 1.69.62 2.18.98.74 1.7.74m6.38 1.12v-8.06h1.34l2.91 5.15 2.91-5.15h1.34v8.06h-1.42v-6.26h.35l-2.8 4.96h-.77l-2.8-4.96h.35v6.26h-1.42Zm10.95 0v-8.06h1.6v3.28h4.08v-3.28h1.6v8.06h-1.6v-3.52h-4.08v3.52zm9.71 0v-8.06h1.6v2.82h2.29c1.06 0 1.85.22 2.38.66s.8 1.08.8 1.93c0 .54-.12 1.02-.37 1.42s-.61.71-1.08.92-1.05.32-1.74.32h-3.89Zm1.6-1.1h2.11c.61 0 1.07-.13 1.38-.38.32-.25.47-.64.47-1.16s-.16-.9-.47-1.14-.78-.36-1.38-.36h-2.11zm6.61 1.1v-8.06h1.6v8.06zm4.01 0v-8.06h1.34l2.91 5.15 2.91-5.15h1.34v8.06h-1.42v-6.26h.35l-2.8 4.96h-.77l-2.8-4.96h.35v6.26h-1.42Zm15.22 0v-8.06h7.23v8.06h-1.6v-6.8h-4.03v6.8zm13.18.14c-.8 0-1.49-.17-2.08-.5-.59-.34-1.04-.82-1.36-1.44s-.48-1.37-.48-2.23.16-1.61.48-2.23.77-1.1 1.36-1.44 1.28-.5 2.08-.5 1.5.17 2.09.5 1.05.82 1.38 1.44.49 1.37.49 2.23-.16 1.61-.49 2.23-.78 1.1-1.38 1.44-1.29.5-2.09.5m0-1.26c.7 0 1.26-.24 1.68-.74s.62-1.22.62-2.18-.21-1.68-.62-2.17c-.42-.48-.98-.73-1.68-.73s-1.25.24-1.66.73c-.42.49-.62 1.21-.62 2.17s.21 1.69.62 2.18.97.74 1.67.74Zm5.46 1.32-.54-1.28c.36-.15.67-.34.92-.57s.45-.53.59-.89.25-.81.31-1.34.1-1.18.1-1.94v-2.26h6.08v8.06h-1.6v-6.8h-2.99v1.04c0 1.21-.1 2.22-.29 3.02s-.5 1.43-.92 1.9c-.42.46-.97.81-1.66 1.05Zm13.68-.06c-1.3 0-2.33-.37-3.07-1.1-.75-.74-1.12-1.75-1.12-3.06 0-.84.16-1.58.49-2.21s.78-1.12 1.36-1.46c.58-.35 1.26-.52 2.02-.52s1.39.16 1.9.48.9.77 1.17 1.35.4 1.27.4 2.06v.51h-6.08v-.93h4.98l-.27.21q0-1.2-.54-1.86c-.36-.44-.87-.66-1.54-.66-.75 0-1.32.26-1.73.78s-.61 1.23-.61 2.14v.16c0 .95.23 1.66.7 2.14q.69.72 1.98.72c.47 0 .91-.07 1.32-.2s.8-.35 1.18-.66l.53 1.1c-.37.33-.83.58-1.36.76s-1.1.26-1.7.26Zm5.13-.14v-8.06h1.34l2.91 5.15 2.91-5.15h1.34v8.06h-1.42v-6.26h.35l-2.8 4.96h-.77l-2.8-4.96h.35v6.26h-1.42Zm11.49 1.96-.7-.54c.31-.33.52-.63.63-.91s.17-.57.17-.86l.35.35h-1.26v-1.9h1.9v1.3c0 .48-.08.92-.24 1.34-.16.41-.44.82-.85 1.24ZM84.97 266.15c-1.22 0-2.18-.38-2.9-1.14s-1.08-1.87-1.08-3.34v-1.39c0-1.5.32-2.71.97-3.63q.975-1.38 3-1.86l2.94-.7.46 1.29-3.3.77c-.58.13-1.05.37-1.42.72s-.65.77-.84 1.25-.28.99-.28 1.54v.74h-.24c.13-.49.33-.91.62-1.26.28-.35.63-.62 1.06-.82.42-.2.89-.3 1.42-.3.69 0 1.3.16 1.82.48s.93.78 1.22 1.38.44 1.32.44 2.14-.16 1.59-.48 2.21-.77 1.09-1.35 1.42-1.27.5-2.06.5m-.05-1.25c.73 0 1.29-.24 1.7-.71s.62-1.18.62-2.1-.21-1.62-.62-2.1c-.42-.48-.98-.72-1.7-.72s-1.28.24-1.7.71-.62 1.15-.62 2.02c0 .96.21 1.68.62 2.17.41.48.98.73 1.7.73m9.74 1.25c-1.3 0-2.33-.37-3.07-1.1-.75-.74-1.12-1.75-1.12-3.06 0-.84.16-1.58.49-2.21s.78-1.12 1.36-1.46c.58-.35 1.26-.52 2.02-.52s1.39.16 1.9.48q.765.48 1.17 1.35c.27.58.4 1.27.4 2.06v.51h-6.08v-.93h4.98l-.27.21q0-1.2-.54-1.86c-.36-.44-.87-.66-1.54-.66-.75 0-1.32.26-1.73.78s-.61 1.23-.61 2.14v.16c0 .95.23 1.66.7 2.14q.69.72 1.98.72c.47 0 .91-.07 1.32-.2s.8-.35 1.18-.66l.53 1.1c-.37.33-.83.58-1.36.76s-1.1.26-1.7.26Zm7.94 0c-.7 0-1.37-.09-1.98-.26-.62-.18-1.13-.43-1.52-.76l.5-1.09c.39.31.85.54 1.36.7s1.06.23 1.65.23c.74 0 1.27-.11 1.61-.33s.5-.53.5-.94-.14-.69-.42-.9c-.28-.2-.68-.3-1.22-.3h-1.98v-1.15h1.82c.48 0 .85-.1 1.12-.3s.4-.48.4-.85c0-.38-.15-.68-.46-.9-.31-.21-.79-.32-1.44-.32-.55 0-1.06.07-1.52.21s-.9.35-1.31.62l-.48-1.04c.44-.33.95-.58 1.55-.74s1.24-.24 1.94-.24c1.05 0 1.84.2 2.38.58.54.39.82.95.82 1.67 0 .5-.17.93-.5 1.28-.34.35-.79.56-1.35.64v-.21c.65.03 1.17.23 1.56.58.39.36.58.83.58 1.42 0 .72-.31 1.3-.92 1.74-.61.43-1.51.65-2.68.65Zm9.42.06-.54-1.28c.36-.15.67-.34.92-.57s.45-.53.59-.89.25-.81.31-1.34.1-1.18.1-1.94v-2.26h6.08v8.06h-1.6v-6.8h-2.99v1.04c0 1.21-.1 2.22-.29 3.02s-.5 1.43-.92 1.9c-.42.46-.97.81-1.66 1.05Zm13.04-.06c-.71 0-1.34-.17-1.87-.5s-.95-.81-1.24-1.44-.44-1.38-.44-2.24.15-1.62.44-2.24.71-1.1 1.24-1.43c.53-.34 1.16-.5 1.87-.5s1.32.18 1.84.53.87.83 1.04 1.44h-.18l.16-1.82h1.57l-.09.98c-.03.33-.04.64-.04.95v6.13h-1.62v-1.79h.18c-.17.6-.52 1.07-1.05 1.42s-1.13.52-1.82.52Zm.4-1.26c.69 0 1.25-.24 1.67-.74s.63-1.22.63-2.18-.21-1.68-.63-2.17c-.42-.48-.98-.73-1.67-.73s-1.27.24-1.69.73-.63 1.21-.63 2.17.21 1.69.62 2.18.98.74 1.7.74m6.39 1.12v-8.06h1.34l2.91 5.15 2.91-5.15h1.34v8.06h-1.42v-6.26h.35l-2.8 4.96h-.77l-2.8-4.96h.35v6.26h-1.42Zm10.94 0v-8.06h1.47v6.51h-.45l4.86-6.51h1.34v8.06h-1.46v-6.53h.46l-4.9 6.53h-1.34Zm9.66 0v-8.06h1.6v3.28h4.08v-3.28h1.6v8.06h-1.6v-3.52h-4.08v3.52zm12.87.14c-.71 0-1.34-.17-1.87-.5s-.95-.81-1.24-1.44-.44-1.38-.44-2.24.15-1.62.44-2.24.71-1.1 1.24-1.43 1.16-.5 1.87-.5 1.32.18 1.84.53.87.83 1.04 1.44h-.18l.16-1.82h1.57l-.09.98c-.03.33-.04.64-.04.95v6.13H168v-1.79h.18c-.17.6-.52 1.07-1.05 1.42s-1.13.52-1.82.52Zm.4-1.26c.69 0 1.25-.24 1.67-.74.42-.49.63-1.22.63-2.18s-.21-1.68-.63-2.17c-.42-.48-.98-.73-1.67-.73s-1.27.24-1.69.73-.63 1.21-.63 2.17.21 1.69.62 2.18.98.74 1.7.74m13.36 3.2v-2.08h-6.98v-8.06h1.6v6.8h3.86v-6.8h1.58v6.8h1.3v3.34zm2.97-2.08v-8.06h1.47v6.51h-.45l4.86-6.51h1.34v8.06h-1.46v-6.53h.46l-4.9 6.53h-1.34Zm9.67 0v-8.06h1.47v6.51h-.45l4.86-6.51h1.34v8.06h-1.46v-6.53h.46l-4.9 6.53h-1.34ZM32.49 296.79v-11.28h1.65v4.93h2.11l-.4.26 3.49-5.18h1.84l-3.78 5.47-.61-.48c.69.09 1.28.32 1.76.7s.9.92 1.25 1.62l1.98 3.97h-1.79l-1.58-3.28c-.3-.62-.65-1.06-1.04-1.31-.39-.26-.89-.38-1.49-.38h-1.74v4.98h-1.65Zm10.75 0v-11.28h1.65v4.93H47l-.4.26 3.49-5.18h1.84l-3.78 5.47-.61-.48c.69.09 1.28.32 1.76.7s.9.92 1.25 1.62l1.98 3.97h-1.79l-1.58-3.28c-.3-.62-.65-1.06-1.04-1.31-.39-.26-.89-.38-1.49-.38h-1.74v4.98h-1.65Zm13.86 0 5.02-11.28h1.42l5.1 11.28h-1.71l-1.39-3.2.7.45h-6.83l.75-.45-1.39 3.2h-1.68Zm5.71-9.46-2.43 5.74-.38-.37h5.68l-.32.37-2.48-5.74h-.06Zm11.95 9.46v-2.34h-5.22v-1.18l5.49-7.76h1.34v7.65h1.68v1.3h-1.68v2.34h-1.62Zm0-3.63v-5.68h.37l-4.29 6.08v-.4zm4.59 3.63v-1.9h1.9v1.9zm13.52.14c-1.15 0-2.13-.23-2.94-.7a4.64 4.64 0 0 1-1.86-2.01c-.43-.87-.65-1.9-.65-3.08s.22-2.21.65-3.07 1.05-1.53 1.86-2 1.79-.7 2.94-.7c.8 0 1.51.12 2.14.35s1.18.58 1.65 1.02l-.58 1.33c-.51-.44-1.01-.75-1.5-.94s-1.05-.29-1.69-.29c-1.22 0-2.14.37-2.78 1.12s-.96 1.81-.96 3.18.32 2.44.96 3.19 1.57 1.13 2.78 1.13c.64 0 1.2-.1 1.69-.29s.98-.51 1.5-.96l.58 1.33c-.47.45-1.02.79-1.65 1.03s-1.34.36-2.14.36m10.11 3.32v-9.58c0-.31-.01-.63-.04-.95l-.09-.98h1.57l.16 1.82h-.18c.17-.61.51-1.09 1.03-1.44s1.13-.53 1.85-.53 1.34.17 1.87.5c.53.34.95.81 1.24 1.43s.44 1.37.44 2.24-.15 1.61-.44 2.24-.71 1.11-1.24 1.44-1.16.5-1.87.5-1.31-.17-1.83-.52-.86-.82-1.03-1.42h.18v5.25zm3.9-4.58c.7 0 1.27-.25 1.69-.74s.63-1.21.63-2.18-.21-1.68-.63-2.17c-.42-.48-.98-.73-1.69-.73s-1.27.24-1.69.73-.63 1.21-.63 2.17.21 1.69.63 2.18.98.74 1.69.74m9.77 1.26c-1.3 0-2.33-.37-3.07-1.1s-1.12-1.75-1.12-3.06c0-.84.16-1.58.49-2.21s.78-1.12 1.36-1.46c.58-.35 1.26-.52 2.02-.52s1.39.16 1.9.48q.765.48 1.17 1.35c.27.58.4 1.27.4 2.06v.51h-6.08v-.93h4.98l-.27.21q0-1.2-.54-1.86c-.36-.44-.87-.66-1.54-.66-.75 0-1.32.26-1.73.78s-.61 1.23-.61 2.14v.16c0 .95.23 1.66.7 2.14s1.12.72 1.98.72c.47 0 .91-.07 1.32-.2s.8-.36 1.18-.66l.53 1.1c-.37.33-.83.58-1.36.76s-1.1.26-1.7.26Zm5.13-.14v-8.06h1.6v3.29h1.39l2.51-3.29h1.76l-3.01 3.97-.4-.51c.31.03.58.11.8.23s.44.3.66.54q.315.345.66.93l1.68 2.91h-1.73l-1.44-2.46c-.16-.28-.31-.49-.46-.65-.15-.15-.32-.26-.51-.32s-.43-.09-.7-.09h-1.2v3.52h-1.6Zm8.5.21-.54-1.28c.36-.15.67-.34.92-.57s.45-.53.59-.89.25-.81.31-1.34.1-1.18.1-1.94v-2.26h6.08v8.06h-1.6v-6.8h-2.99v1.04c0 1.22-.1 2.22-.29 3.02s-.5 1.43-.92 1.9c-.42.46-.97.81-1.66 1.05Zm13.04-.07c-.71 0-1.34-.17-1.87-.5s-.95-.81-1.24-1.44-.44-1.38-.44-2.24.15-1.62.44-2.24.71-1.1 1.24-1.43c.53-.34 1.16-.5 1.87-.5s1.32.18 1.84.53.87.83 1.04 1.44h-.18l.16-1.82h1.57l-.09.98c-.03.33-.04.64-.04.95v6.13H146V295h.18c-.17.6-.52 1.07-1.05 1.42s-1.13.52-1.82.52Zm.4-1.26c.69 0 1.25-.25 1.67-.74s.63-1.21.63-2.18-.21-1.68-.63-2.17c-.42-.48-.98-.73-1.67-.73s-1.27.24-1.69.73-.63 1.21-.63 2.17.21 1.69.62 2.18c.42.49.98.74 1.7.74m6.38 1.12v-8.06h1.34l2.91 5.15 2.91-5.15h1.34v8.06h-1.42v-6.26h.35l-2.8 4.96h-.77l-2.8-4.96h.35v6.26h-1.42Zm10.95 0v-8.06h1.6v3.28h4.08v-3.28h1.6v8.06h-1.6v-3.52h-4.08v3.52zm9.71 0v-8.06h1.6v2.82h2.29c1.06 0 1.85.22 2.38.66s.8 1.08.8 1.93c0 .54-.12 1.02-.37 1.42s-.61.71-1.08.92-1.05.32-1.74.32h-3.89Zm1.6-1.1h2.11c.61 0 1.07-.12 1.38-.38.32-.25.47-.64.47-1.16s-.16-.9-.47-1.14-.78-.36-1.38-.36h-2.11zm6.61 1.1v-8.06h1.6v8.06zm4.01 0v-8.06h1.34l2.91 5.15 2.91-5.15h1.34v8.06h-1.42v-6.26h.35l-2.8 4.96h-.77l-2.8-4.96h.35v6.26h-1.42Zm15.22 0v-8.06h7.23v8.06h-1.6v-6.8h-4.03v6.8zm13.18.14c-.8 0-1.49-.17-2.08-.5-.59-.34-1.04-.82-1.36-1.44s-.48-1.37-.48-2.23.16-1.61.48-2.23.77-1.1 1.36-1.44 1.28-.5 2.08-.5 1.5.17 2.09.5 1.05.82 1.38 1.44.49 1.37.49 2.23-.16 1.61-.49 2.23-.78 1.1-1.38 1.44-1.29.5-2.09.5m0-1.26c.7 0 1.26-.25 1.68-.74s.62-1.21.62-2.18-.21-1.68-.62-2.17c-.42-.48-.98-.73-1.68-.73s-1.25.24-1.66.73c-.42.49-.62 1.21-.62 2.17s.21 1.69.62 2.18.97.74 1.67.74Zm5.46 1.33-.54-1.28c.36-.15.67-.34.92-.57s.45-.53.59-.89.25-.81.31-1.34.1-1.18.1-1.94v-2.26h6.08v8.06h-1.6v-6.8h-2.99v1.04c0 1.22-.1 2.22-.29 3.02s-.5 1.43-.92 1.9c-.42.46-.97.81-1.66 1.05Zm13.68-.07c-1.3 0-2.33-.37-3.07-1.1-.75-.74-1.12-1.75-1.12-3.06 0-.84.16-1.58.49-2.21s.78-1.12 1.36-1.46c.58-.35 1.26-.52 2.02-.52s1.39.16 1.9.48q.765.48 1.17 1.35c.27.58.4 1.27.4 2.06v.51h-6.08v-.93h4.98l-.27.21q0-1.2-.54-1.86c-.36-.44-.87-.66-1.54-.66-.75 0-1.32.26-1.73.78s-.61 1.23-.61 2.14v.16c0 .95.23 1.66.7 2.14q.69.72 1.98.72c.47 0 .91-.07 1.32-.2s.8-.36 1.18-.66l.53 1.1c-.37.33-.83.58-1.36.76s-1.1.26-1.7.26Zm5.13-.14v-8.06h1.34l2.91 5.15 2.91-5.15h1.34v8.06h-1.42v-6.26h.35l-2.8 4.96h-.77l-2.8-4.96h.35v6.26h-1.42Zm11.49 1.97-.7-.54c.31-.33.52-.63.63-.91s.17-.57.17-.87l.35.35h-1.26v-1.9h1.9v1.29c0 .48-.08.93-.24 1.34s-.44.82-.85 1.24M89.78 311.93c-.81 0-1.52-.17-2.12-.5s-1.07-.82-1.39-1.46c-.33-.63-.49-1.39-.49-2.26s.17-1.6.5-2.22.79-1.09 1.39-1.42 1.3-.49 2.11-.49c.52 0 1.03.09 1.52.26s.9.42 1.22.74l-.53 1.14a3.1 3.1 0 0 0-2.1-.87c-.77 0-1.37.25-1.81.74q-.66.735-.66 2.13c0 1.395.22 1.66.66 2.16s1.04.75 1.81.75c.34 0 .7-.07 1.07-.2s.71-.35 1.02-.65l.53 1.14c-.33.32-.74.57-1.24.74s-.99.26-1.5.26Zm8.52.07-.54-1.28c.36-.15.67-.34.92-.57s.45-.53.59-.89.25-.81.31-1.34.1-1.18.1-1.94v-2.26h6.08v8.06h-1.6v-6.8h-2.99v1.04c0 1.22-.1 2.22-.29 3.02s-.5 1.43-.92 1.9c-.42.46-.97.81-1.66 1.05Zm13.04-.07c-.71 0-1.34-.17-1.87-.5s-.95-.81-1.24-1.44-.44-1.38-.44-2.24.15-1.62.44-2.24.71-1.1 1.24-1.43c.53-.34 1.16-.5 1.87-.5s1.32.18 1.84.53.87.83 1.04 1.44h-.18l.16-1.82h1.57l-.09.98c-.03.33-.04.64-.04.95v6.13h-1.62V310h.18c-.17.6-.52 1.07-1.05 1.42s-1.13.52-1.82.52Zm.4-1.26c.69 0 1.25-.25 1.67-.74s.63-1.21.63-2.18-.21-1.68-.63-2.17c-.42-.48-.98-.73-1.67-.73s-1.27.24-1.69.73-.63 1.21-.63 2.17.21 1.69.62 2.18c.42.49.98.74 1.7.74m6.38 1.12v-8.06h1.34l2.91 5.15 2.91-5.15h1.34v8.06h-1.42v-6.26h.35l-2.8 4.96h-.77l-2.8-4.96h.35v6.26h-1.42Zm10.94 0v-8.06h1.47v6.51h-.45l4.86-6.51h1.34v8.06h-1.46v-6.53h.46l-4.9 6.53h-1.34Zm9.67 0v-8.06h1.6v3.28h4.08v-3.28h1.6v8.06h-1.6v-3.52h-4.08v3.52zm12.86.14c-.71 0-1.34-.17-1.87-.5s-.95-.81-1.24-1.44-.44-1.38-.44-2.24.15-1.62.44-2.24.71-1.1 1.24-1.43c.53-.34 1.16-.5 1.87-.5s1.32.18 1.84.53.87.83 1.04 1.44h-.18l.16-1.82h1.57l-.09.98c-.03.32-.04.64-.04.95v6.13h-1.62V310h.18c-.17.6-.52 1.07-1.05 1.42s-1.13.52-1.82.52Zm.4-1.26c.69 0 1.25-.25 1.67-.74s.63-1.21.63-2.18-.21-1.68-.63-2.17c-.42-.48-.98-.73-1.67-.73s-1.27.24-1.69.73-.63 1.21-.63 2.17.21 1.69.62 2.18c.42.49.98.74 1.7.74m13.36 3.2v-2.08h-6.98v-8.06h1.6v6.8h3.86v-6.8h1.58v6.8h1.3v3.34zm2.98-2.08v-8.06h1.47v6.51h-.45l4.86-6.51h1.34v8.06h-1.46v-6.53h.46l-4.9 6.53h-1.34Zm13.45.14c-1.3 0-2.33-.37-3.07-1.1-.75-.74-1.12-1.75-1.12-3.06 0-.84.16-1.58.49-2.21s.78-1.12 1.36-1.46c.58-.35 1.26-.52 2.02-.52s1.39.16 1.9.48q.765.48 1.17 1.35c.27.58.4 1.27.4 2.06v.51h-6.08v-.93h4.98l-.27.21q0-1.2-.54-1.86c-.36-.44-.87-.66-1.54-.66-.75 0-1.32.26-1.73.78s-.61 1.23-.61 2.14v.16c0 .95.23 1.66.7 2.14q.69.72 1.98.72c.47 0 .91-.07 1.32-.2s.8-.36 1.18-.66l.53 1.1c-.37.33-.83.58-1.36.76s-1.1.26-1.7.26Zm5.14-.14v-8.06h1.47v6.51h-.45l4.86-6.51h1.34v8.06h-1.46v-6.53h.46l-4.9 6.53h-1.34Zm3.62-8.8c-.49 0-.93-.08-1.31-.24s-.71-.4-.98-.71-.48-.7-.62-1.14l.9-.32c.18.5.44.87.77 1.11s.75.36 1.25.36.93-.11 1.26-.34.61-.6.84-1.12l.83.3c-.26.72-.64 1.26-1.14 1.59-.51.34-1.1.5-1.78.5ZM15.88 342.96v-11.28h1.65v4.93h2.11l-.4.26 3.49-5.18h1.84l-3.78 5.47-.61-.48c.69.09 1.28.32 1.76.71.48.38.9.92 1.25 1.62l1.98 3.97h-1.79l-1.58-3.28c-.3-.62-.65-1.06-1.04-1.31-.39-.26-.89-.38-1.49-.38h-1.74v4.98h-1.65Zm10.75 0v-11.28h1.65v4.93h2.11l-.4.26 3.49-5.18h1.84l-3.78 5.47-.61-.48c.69.09 1.28.32 1.76.71.48.38.9.92 1.25 1.62l1.98 3.97h-1.79l-1.58-3.28c-.3-.62-.65-1.06-1.04-1.31-.39-.26-.89-.38-1.49-.38h-1.74v4.98h-1.65Zm13.86 0 5.02-11.28h1.42l5.1 11.28h-1.71l-1.39-3.2.7.45H42.8l.75-.45-1.39 3.2h-1.68Zm5.71-9.46-2.43 5.74-.38-.37h5.68l-.32.37-2.48-5.74h-.06Zm10.69 9.61c-.77 0-1.5-.11-2.21-.34-.7-.23-1.29-.56-1.76-.98l.58-1.26c.52.41 1.06.71 1.6.9s1.13.29 1.74.29c.79 0 1.39-.17 1.8-.5s.62-.81.62-1.42-.21-1.07-.62-1.38-1.02-.47-1.82-.47h-1.74v-1.34h1.62c.68 0 1.23-.17 1.63-.52s.61-.82.61-1.42c0-.54-.19-.96-.56-1.26-.37-.29-.91-.44-1.6-.44q-1.755 0-3.09 1.23l-.56-1.26c.44-.44.99-.78 1.66-1.02s1.38-.36 2.11-.36q1.695 0 2.67.78c.65.52.98 1.23.98 2.15 0 .69-.19 1.29-.58 1.78s-.92.82-1.59.98v-.18c.8.13 1.42.45 1.85.95.43.51.65 1.14.65 1.9 0 1-.35 1.79-1.06 2.36s-1.68.86-2.92.86Zm5.85-.15v-1.9h1.9v1.9zm13.52.15c-1.15 0-2.13-.23-2.94-.7a4.64 4.64 0 0 1-1.86-2.01c-.43-.87-.65-1.9-.65-3.08s.22-2.21.65-3.07 1.05-1.53 1.86-2 1.79-.7 2.94-.7c.8 0 1.51.12 2.14.35s1.18.58 1.65 1.02l-.58 1.33c-.51-.44-1.01-.75-1.5-.94s-1.05-.29-1.69-.29c-1.22 0-2.14.37-2.78 1.12q-.96 1.125-.96 3.18c0 2.055.32 2.44.96 3.19s1.57 1.13 2.78 1.13c.64 0 1.2-.1 1.69-.29s.98-.51 1.5-.96l.58 1.33c-.47.45-1.02.79-1.65 1.03s-1.34.36-2.14.36m13.52 0c-.77 0-1.5-.11-2.21-.34-.7-.23-1.29-.56-1.76-.98l.58-1.26c.52.41 1.06.71 1.6.9s1.13.29 1.74.29c.79 0 1.39-.17 1.8-.5s.62-.81.62-1.42-.21-1.07-.62-1.38-1.02-.47-1.82-.47h-1.74v-1.34h1.62c.68 0 1.23-.17 1.63-.52s.61-.82.61-1.42c0-.54-.19-.96-.56-1.26-.37-.29-.91-.44-1.6-.44q-1.755 0-3.09 1.23l-.56-1.26c.44-.44.99-.78 1.66-1.02s1.38-.36 2.11-.36q1.695 0 2.67.78c.65.52.98 1.23.98 2.15 0 .69-.19 1.29-.58 1.78s-.92.82-1.59.98v-.18c.8.13 1.42.45 1.85.95.43.51.65 1.14.65 1.9 0 1-.35 1.79-1.06 2.36s-1.68.86-2.92.86Zm10.47 3.31v-9.58c0-.31-.01-.63-.04-.95l-.09-.98h1.57l.16 1.82h-.18c.17-.61.51-1.09 1.03-1.44s1.13-.53 1.85-.53 1.34.17 1.87.5c.53.34.95.81 1.24 1.43s.44 1.37.44 2.24-.15 1.61-.44 2.24-.71 1.11-1.24 1.44-1.16.5-1.87.5-1.31-.17-1.83-.52-.86-.82-1.03-1.42h.18v5.25zm3.9-4.58c.7 0 1.27-.24 1.69-.74s.63-1.22.63-2.18-.21-1.68-.63-2.17c-.42-.48-.98-.73-1.69-.73s-1.27.24-1.69.73-.63 1.21-.63 2.17.21 1.69.63 2.18.98.74 1.69.74m9.76 1.27c-1.3 0-2.33-.37-3.07-1.1-.75-.74-1.12-1.75-1.12-3.06 0-.84.16-1.58.49-2.21s.78-1.12 1.36-1.46c.58-.35 1.26-.52 2.02-.52s1.39.16 1.9.48q.765.48 1.17 1.35c.27.58.4 1.27.4 2.06v.51h-6.08v-.93h4.98l-.27.21q0-1.2-.54-1.86c-.36-.44-.87-.66-1.54-.66-.75 0-1.32.26-1.73.78s-.61 1.23-.61 2.14v.16c0 .95.23 1.66.7 2.14q.69.72 1.98.72c.47 0 .91-.07 1.32-.2s.8-.35 1.18-.66l.53 1.1c-.37.33-.83.58-1.36.76s-1.1.26-1.7.26Zm5.14-.15v-8.06h1.6v3.3h1.39l2.51-3.3h1.76l-3.01 3.97-.4-.51c.31.03.58.11.8.23q.33.18.66.54.315.345.66.93l1.68 2.91h-1.73l-1.44-2.46c-.16-.28-.31-.49-.46-.65s-.32-.26-.51-.32-.43-.09-.7-.09h-1.2v3.52h-1.6Zm8.49.21-.54-1.28c.36-.15.67-.34.92-.57s.45-.53.59-.89.25-.81.31-1.34.1-1.18.1-1.94v-2.26H135v8.06h-1.6v-6.8h-2.99v1.04c0 1.21-.1 2.22-.29 3.02s-.5 1.43-.92 1.9c-.42.46-.97.81-1.66 1.05Zm13.04-.06c-.71 0-1.34-.17-1.87-.5s-.95-.81-1.24-1.44-.44-1.38-.44-2.24.15-1.62.44-2.24.71-1.1 1.24-1.43c.53-.34 1.16-.5 1.87-.5s1.32.18 1.84.53.87.83 1.04 1.44h-.18l.16-1.82h1.57l-.09.98c-.03.33-.04.64-.04.95v6.13h-1.62v-1.79h.18c-.17.6-.52 1.07-1.05 1.42s-1.13.52-1.82.52Zm.4-1.26c.69 0 1.25-.24 1.67-.74s.63-1.22.63-2.18-.21-1.68-.63-2.17c-.42-.48-.98-.73-1.67-.73s-1.27.24-1.69.73-.63 1.21-.63 2.17.21 1.69.62 2.18.98.74 1.7.74m6.39 1.11v-8.06h1.34l2.91 5.15 2.91-5.15h1.34v8.06h-1.42v-6.26h.35l-2.8 4.96h-.77l-2.8-4.96h.35v6.26h-1.42Zm10.94 0v-8.06h1.6v3.28h4.08v-3.28h1.6v8.06h-1.6v-3.52h-4.08v3.52zm9.71 0v-8.06h1.6v2.82h2.29c1.06 0 1.85.22 2.38.66s.8 1.08.8 1.93c0 .54-.12 1.02-.37 1.42s-.61.71-1.08.92-1.05.32-1.74.32h-3.89Zm1.6-1.1h2.11c.61 0 1.07-.13 1.38-.38.32-.25.47-.64.47-1.16s-.16-.9-.47-1.14-.78-.36-1.38-.36h-2.11zm6.61 1.1v-8.06h1.6v8.06zm4.02 0v-8.06h1.34l2.91 5.15 2.91-5.15h1.34v8.06h-1.42v-6.26h.35l-2.8 4.96h-.77l-2.8-4.96h.35v6.26h-1.42Zm10.94 0v-8.06h1.47v6.51h-.45l4.86-6.51h1.34v8.06h-1.46v-6.53h.46l-4.9 6.53h-1.34Zm13.94 0v-8.06h7.23v8.06h-1.6v-6.8h-4.03v6.8zm13.18.15c-.8 0-1.49-.17-2.08-.5-.59-.34-1.04-.82-1.36-1.44s-.48-1.37-.48-2.23.16-1.61.48-2.23.77-1.1 1.36-1.44 1.28-.5 2.08-.5 1.5.17 2.09.5 1.05.82 1.38 1.44.49 1.37.49 2.23-.16 1.61-.49 2.23-.78 1.1-1.38 1.44-1.29.5-2.09.5m0-1.26c.7 0 1.26-.24 1.68-.74s.62-1.22.62-2.18-.21-1.68-.62-2.17c-.42-.48-.98-.73-1.68-.73s-1.25.24-1.66.73c-.42.49-.62 1.21-.62 2.17s.21 1.69.62 2.18.97.74 1.67.74Zm5.46 1.32-.54-1.28c.36-.15.67-.34.92-.57s.45-.53.59-.89.25-.81.31-1.34.1-1.18.1-1.94v-2.26h6.08v8.06h-1.6v-6.8h-2.99v1.04c0 1.21-.1 2.22-.29 3.02s-.5 1.43-.92 1.9c-.42.46-.97.81-1.66 1.05Zm9.23-.21 1.26-2.18c.2-.35.46-.64.78-.86.31-.22.64-.33.97-.33h.29l-.02.16c-.92 0-1.63-.21-2.14-.62-.51-.42-.77-1.01-.77-1.79s.26-1.38.77-1.81 1.26-.64 2.26-.64h3.78v8.06h-1.49v-2.99h-1.07c-.41 0-.75.1-1.03.3s-.51.47-.7.8l-1.09 1.89h-1.79Zm3.68-4.08h2v-2.9h-2c-.6 0-1.04.13-1.34.38-.29.26-.44.61-.44 1.05 0 .47.15.83.44 1.08s.74.38 1.34.38Zm5.92 4.08v-8.06h1.34l2.91 5.15 2.91-5.15h1.34v8.06h-1.42v-6.26h.35l-2.8 4.96h-.77l-2.8-4.96h.35v6.26h-1.42Zm10.94 0v-8.06h1.47v6.51h-.45l4.86-6.51h1.34v8.06h-1.46v-6.53h.46l-4.9 6.53h-1.34Zm10.21 1.97-.7-.54c.31-.33.52-.63.63-.91s.17-.57.17-.86l.35.35h-1.26v-1.9h1.9v1.3c0 .48-.08.92-.24 1.34-.16.41-.44.82-.85 1.24ZM84.97 358.11c-1.22 0-2.18-.38-2.9-1.14s-1.08-1.87-1.08-3.34v-1.39c0-1.5.32-2.71.97-3.63q.975-1.38 3-1.86l2.94-.7.46 1.29-3.3.77c-.58.13-1.05.37-1.42.72s-.65.77-.84 1.25-.28.99-.28 1.54v.74h-.24c.13-.49.33-.91.62-1.26.28-.35.63-.62 1.06-.82.42-.2.89-.3 1.42-.3.69 0 1.3.16 1.82.48s.93.78 1.22 1.38.44 1.32.44 2.14-.16 1.59-.48 2.21-.77 1.09-1.35 1.42-1.27.5-2.06.5m-.05-1.25c.73 0 1.29-.24 1.7-.71s.62-1.18.62-2.1-.21-1.62-.62-2.1c-.42-.48-.98-.72-1.7-.72s-1.28.24-1.7.71-.62 1.15-.62 2.02c0 .96.21 1.68.62 2.17.41.48.98.73 1.7.73m9.74 1.25c-1.3 0-2.33-.37-3.07-1.1-.75-.74-1.12-1.75-1.12-3.06 0-.84.16-1.58.49-2.21s.78-1.12 1.36-1.46c.58-.35 1.26-.52 2.02-.52s1.39.16 1.9.48q.765.48 1.17 1.35c.27.58.4 1.27.4 2.06v.51h-6.08v-.93h4.98l-.27.21q0-1.2-.54-1.86c-.36-.44-.87-.66-1.54-.66-.75 0-1.32.26-1.73.78s-.61 1.23-.61 2.14v.16c0 .95.23 1.66.7 2.14q.69.72 1.98.72c.47 0 .91-.07 1.32-.2s.8-.35 1.18-.66l.53 1.1c-.37.33-.83.58-1.36.76s-1.1.26-1.7.26Zm7.94 0c-.7 0-1.37-.09-1.98-.26-.62-.18-1.13-.43-1.52-.76l.5-1.09c.39.31.85.54 1.36.7s1.06.23 1.65.23c.74 0 1.27-.11 1.61-.33s.5-.53.5-.94-.14-.69-.42-.9c-.28-.2-.68-.3-1.22-.3h-1.98v-1.15h1.82c.48 0 .85-.1 1.12-.3s.4-.48.4-.85c0-.38-.15-.68-.46-.9-.31-.21-.79-.32-1.44-.32-.55 0-1.06.07-1.52.21s-.9.35-1.31.62l-.48-1.04c.44-.33.95-.58 1.55-.74s1.24-.24 1.94-.24c1.05 0 1.84.2 2.38.58.54.39.82.95.82 1.67 0 .5-.17.93-.5 1.28-.34.35-.79.56-1.35.64v-.21c.65.03 1.17.23 1.56.58.39.36.58.83.58 1.42 0 .72-.31 1.3-.92 1.74-.61.43-1.51.65-2.68.65Zm9.42.06-.54-1.28c.36-.15.67-.34.92-.57s.45-.53.59-.89.25-.81.31-1.34.1-1.18.1-1.94v-2.26h6.08v8.06h-1.6v-6.8h-2.99v1.04c0 1.21-.1 2.22-.29 3.02s-.5 1.43-.92 1.9c-.42.46-.97.81-1.66 1.05Zm13.04-.06c-.71 0-1.34-.17-1.87-.5s-.95-.81-1.24-1.44-.44-1.38-.44-2.24.15-1.62.44-2.24.71-1.1 1.24-1.43c.53-.34 1.16-.5 1.87-.5s1.32.18 1.84.53.87.83 1.04 1.44h-.18l.16-1.82h1.57l-.09.98c-.03.33-.04.64-.04.95v6.13h-1.62v-1.79h.18c-.17.6-.52 1.07-1.05 1.42s-1.13.52-1.82.52Zm.4-1.26c.69 0 1.25-.24 1.67-.74s.63-1.22.63-2.18-.21-1.68-.63-2.17c-.42-.48-.98-.73-1.67-.73s-1.27.24-1.69.73-.63 1.21-.63 2.17.21 1.69.62 2.18.98.74 1.7.74m6.39 1.11v-8.06h1.34l2.91 5.15 2.91-5.15h1.34v8.06h-1.42v-6.26h.35l-2.8 4.96h-.77l-2.8-4.96h.35v6.26h-1.42Zm10.94 0v-8.06h1.47v6.51h-.45l4.86-6.51h1.34v8.06h-1.46v-6.53h.46l-4.9 6.53h-1.34Zm9.66 0v-8.06h1.6v3.28h4.08v-3.28h1.6v8.06h-1.6v-3.52h-4.08v3.52zm12.87.15c-.71 0-1.34-.17-1.87-.5s-.95-.81-1.24-1.44-.44-1.38-.44-2.24.15-1.62.44-2.24.71-1.1 1.24-1.43 1.16-.5 1.87-.5 1.32.18 1.84.53.87.83 1.04 1.44h-.18l.16-1.82h1.57l-.09.98c-.03.33-.04.64-.04.95v6.13H168v-1.79h.18c-.17.6-.52 1.07-1.05 1.42s-1.13.52-1.82.52Zm.4-1.26c.69 0 1.25-.24 1.67-.74.42-.49.63-1.22.63-2.18s-.21-1.68-.63-2.17c-.42-.48-.98-.73-1.67-.73s-1.27.24-1.69.73-.63 1.21-.63 2.17.21 1.69.62 2.18.98.74 1.7.74m13.36 3.19v-2.08h-6.98v-8.06h1.6v6.8h3.86v-6.8h1.58v6.8h1.3v3.34zm2.97-2.08v-8.06h1.47v6.51h-.45l4.86-6.51h1.34v8.06h-1.46v-6.53h.46l-4.9 6.53h-1.34Zm9.67 0v-8.06h1.47v6.51h-.45l4.86-6.51h1.34v8.06h-1.46v-6.53h.46l-4.9 6.53h-1.34ZM15.88 389.14v-11.28h1.65v4.93h2.11l-.4.26 3.49-5.18h1.84l-3.78 5.47-.61-.48c.69.09 1.28.32 1.76.71.48.38.9.92 1.25 1.62l1.98 3.97h-1.79l-1.58-3.28c-.3-.62-.65-1.06-1.04-1.31-.39-.26-.89-.38-1.49-.38h-1.74v4.98h-1.65Zm10.75 0v-11.28h1.65v4.93h2.11l-.4.26 3.49-5.18h1.84l-3.78 5.47-.61-.48c.69.09 1.28.32 1.76.71.48.38.9.92 1.25 1.62l1.98 3.97h-1.79l-1.58-3.28c-.3-.62-.65-1.06-1.04-1.31-.39-.26-.89-.38-1.49-.38h-1.74v4.98h-1.65Zm13.86 0 5.02-11.28h1.42l5.1 11.28h-1.71l-1.39-3.2.7.45H42.8l.75-.45-1.39 3.2h-1.68Zm5.71-9.46-2.43 5.74-.38-.37h5.68l-.32.37-2.48-5.74h-.06Zm10.69 9.6c-.77 0-1.5-.11-2.21-.34-.7-.23-1.29-.56-1.76-.98l.58-1.26c.52.41 1.06.71 1.6.9s1.13.29 1.74.29c.79 0 1.39-.17 1.8-.5s.62-.81.62-1.42-.21-1.07-.62-1.38-1.02-.47-1.82-.47h-1.74v-1.34h1.62c.68 0 1.23-.17 1.63-.52s.61-.82.61-1.42c0-.54-.19-.96-.56-1.26-.37-.29-.91-.44-1.6-.44q-1.755 0-3.09 1.23l-.56-1.26c.44-.44.99-.78 1.66-1.02s1.38-.36 2.11-.36q1.695 0 2.67.78c.65.52.98 1.23.98 2.15 0 .69-.19 1.29-.58 1.78s-.92.82-1.59.98v-.18c.8.13 1.42.45 1.85.95.43.51.65 1.14.65 1.9 0 1-.35 1.79-1.06 2.36s-1.68.86-2.92.86Zm5.85-.14v-1.9h1.9v1.9zm13.52.14c-1.15 0-2.13-.23-2.94-.7a4.64 4.64 0 0 1-1.86-2.01c-.43-.87-.65-1.9-.65-3.08s.22-2.21.65-3.07 1.05-1.53 1.86-2 1.79-.7 2.94-.7c.8 0 1.51.12 2.14.35s1.18.58 1.65 1.02l-.58 1.33c-.51-.44-1.01-.75-1.5-.94s-1.05-.29-1.69-.29c-1.22 0-2.14.37-2.78 1.12q-.96 1.125-.96 3.18c0 2.055.32 2.44.96 3.19s1.57 1.13 2.78 1.13c.64 0 1.2-.1 1.69-.29s.98-.51 1.5-.96l.58 1.33c-.47.45-1.02.79-1.65 1.03s-1.34.36-2.14.36m13.52 0c-.77 0-1.5-.11-2.21-.34-.7-.23-1.29-.56-1.76-.98l.58-1.26c.52.41 1.06.71 1.6.9s1.13.29 1.74.29c.79 0 1.39-.17 1.8-.5s.62-.81.62-1.42-.21-1.07-.62-1.38-1.02-.47-1.82-.47h-1.74v-1.34h1.62c.68 0 1.23-.17 1.63-.52s.61-.82.61-1.42c0-.54-.19-.96-.56-1.26-.37-.29-.91-.44-1.6-.44q-1.755 0-3.09 1.23l-.56-1.26c.44-.44.99-.78 1.66-1.02s1.38-.36 2.11-.36q1.695 0 2.67.78c.65.52.98 1.23.98 2.15 0 .69-.19 1.29-.58 1.78s-.92.82-1.59.98v-.18c.8.13 1.42.45 1.85.95.43.51.65 1.14.65 1.9 0 1-.35 1.79-1.06 2.36s-1.68.86-2.92.86Zm10.47 3.31v-9.58c0-.31-.01-.63-.04-.95l-.09-.98h1.57l.16 1.82h-.18c.17-.61.51-1.09 1.03-1.44s1.13-.53 1.85-.53 1.34.17 1.87.5c.53.34.95.81 1.24 1.43s.44 1.37.44 2.24-.15 1.61-.44 2.24-.71 1.11-1.24 1.44-1.16.5-1.87.5-1.31-.17-1.83-.52-.86-.82-1.03-1.42h.18v5.25zm3.9-4.58c.7 0 1.27-.24 1.69-.74s.63-1.22.63-2.18-.21-1.68-.63-2.17c-.42-.48-.98-.73-1.69-.73s-1.27.24-1.69.73-.63 1.21-.63 2.17.21 1.69.63 2.18.98.74 1.69.74m9.76 1.27c-1.3 0-2.33-.37-3.07-1.1-.75-.74-1.12-1.75-1.12-3.06 0-.84.16-1.58.49-2.21s.78-1.12 1.36-1.46c.58-.35 1.26-.52 2.02-.52s1.39.16 1.9.48q.765.48 1.17 1.35c.27.58.4 1.27.4 2.06v.51h-6.08v-.93h4.98l-.27.21q0-1.2-.54-1.86c-.36-.44-.87-.66-1.54-.66-.75 0-1.32.26-1.73.78s-.61 1.23-.61 2.14v.16c0 .95.23 1.66.7 2.14q.69.72 1.98.72c.47 0 .91-.07 1.32-.2s.8-.35 1.18-.66l.53 1.1c-.37.33-.83.58-1.36.76s-1.1.26-1.7.26Zm5.14-.14v-8.06h1.6v3.3h1.39l2.51-3.3h1.76l-3.01 3.97-.4-.51c.31.03.58.11.8.23q.33.18.66.54.315.345.66.93l1.68 2.91h-1.73l-1.44-2.46c-.16-.28-.31-.49-.46-.65s-.32-.26-.51-.32-.43-.09-.7-.09h-1.2v3.52h-1.6Zm8.49.2-.54-1.28c.36-.15.67-.34.92-.57s.45-.53.59-.89.25-.81.31-1.34.1-1.18.1-1.94v-2.26H135v8.06h-1.6v-6.8h-2.99v1.04c0 1.21-.1 2.22-.29 3.02s-.5 1.43-.92 1.9c-.42.46-.97.81-1.66 1.05Zm13.04-.06c-.71 0-1.34-.17-1.87-.5s-.95-.81-1.24-1.44-.44-1.38-.44-2.24.15-1.62.44-2.24.71-1.1 1.24-1.43c.53-.34 1.16-.5 1.87-.5s1.32.18 1.84.53.87.83 1.04 1.44h-.18l.16-1.82h1.57l-.09.98c-.03.33-.04.64-.04.95v6.13h-1.62v-1.79h.18c-.17.6-.52 1.07-1.05 1.42s-1.13.52-1.82.52Zm.4-1.26c.69 0 1.25-.24 1.67-.74s.63-1.22.63-2.18-.21-1.68-.63-2.17c-.42-.48-.98-.73-1.67-.73s-1.27.24-1.69.73-.63 1.21-.63 2.17.21 1.69.62 2.18.98.74 1.7.74m6.39 1.12v-8.06h1.34l2.91 5.15 2.91-5.15h1.34v8.06h-1.42v-6.26h.35l-2.8 4.96h-.77l-2.8-4.96h.35v6.26h-1.42Zm10.94 0v-8.06h1.6v3.28h4.08v-3.28h1.6v8.06h-1.6v-3.52h-4.08v3.52zm9.71 0v-8.06h1.6v2.82h2.29c1.06 0 1.85.22 2.38.66s.8 1.08.8 1.93c0 .54-.12 1.02-.37 1.42s-.61.71-1.08.92-1.05.32-1.74.32h-3.89Zm1.6-1.1h2.11c.61 0 1.07-.13 1.38-.38.32-.25.47-.64.47-1.16s-.16-.9-.47-1.14-.78-.36-1.38-.36h-2.11zm6.61 1.1v-8.06h1.6v8.06zm4.02 0v-8.06h1.34l2.91 5.15 2.91-5.15h1.34v8.06h-1.42v-6.26h.35l-2.8 4.96h-.77l-2.8-4.96h.35v6.26h-1.42Zm10.94 0v-8.06h1.47v6.51h-.45l4.86-6.51h1.34v8.06h-1.46v-6.53h.46l-4.9 6.53h-1.34Zm13.94 0v-8.06h7.23v8.06h-1.6v-6.8h-4.03v6.8zm13.18.14c-.8 0-1.49-.17-2.08-.5-.59-.34-1.04-.82-1.36-1.44s-.48-1.37-.48-2.23.16-1.61.48-2.23.77-1.1 1.36-1.44 1.28-.5 2.08-.5 1.5.17 2.09.5 1.05.82 1.38 1.44.49 1.37.49 2.23-.16 1.61-.49 2.23-.78 1.1-1.38 1.44-1.29.5-2.09.5m0-1.26c.7 0 1.26-.24 1.68-.74s.62-1.22.62-2.18-.21-1.68-.62-2.17c-.42-.48-.98-.73-1.68-.73s-1.25.24-1.66.73c-.42.49-.62 1.21-.62 2.17s.21 1.69.62 2.18.97.74 1.67.74Zm5.46 1.32-.54-1.28c.36-.15.67-.34.92-.57s.45-.53.59-.89.25-.81.31-1.34.1-1.18.1-1.94v-2.26h6.08v8.06h-1.6v-6.8h-2.99v1.04c0 1.21-.1 2.22-.29 3.02s-.5 1.43-.92 1.9c-.42.46-.97.81-1.66 1.05Zm9.23-.2 1.26-2.18c.2-.35.46-.64.78-.86.31-.22.64-.33.97-.33h.29l-.02.16c-.92 0-1.63-.21-2.14-.62-.51-.42-.77-1.01-.77-1.79s.26-1.38.77-1.81 1.26-.64 2.26-.64h3.78v8.06h-1.49v-2.99h-1.07c-.41 0-.75.1-1.03.3s-.51.47-.7.8l-1.09 1.89h-1.79Zm3.68-4.08h2v-2.9h-2c-.6 0-1.04.13-1.34.38-.29.26-.44.61-.44 1.05 0 .47.15.83.44 1.08s.74.38 1.34.38Zm5.92 4.08v-8.06h1.34l2.91 5.15 2.91-5.15h1.34v8.06h-1.42v-6.26h.35l-2.8 4.96h-.77l-2.8-4.96h.35v6.26h-1.42Zm10.94 0v-8.06h1.47v6.51h-.45l4.86-6.51h1.34v8.06h-1.46v-6.53h.46l-4.9 6.53h-1.34Zm10.21 1.96-.7-.54c.31-.33.52-.63.63-.91s.17-.57.17-.86l.35.35h-1.26v-1.9h1.9v1.3c0 .48-.08.92-.24 1.34-.16.41-.44.82-.85 1.24ZM89.78 404.28c-.81 0-1.52-.17-2.12-.5s-1.07-.82-1.39-1.46c-.33-.63-.49-1.39-.49-2.26s.17-1.61.5-2.22a3.4 3.4 0 0 1 1.39-1.42c.6-.33 1.3-.49 2.11-.49.52 0 1.03.09 1.52.26.49.18.9.42 1.22.74l-.53 1.14a3.1 3.1 0 0 0-2.1-.87c-.77 0-1.37.25-1.81.74q-.66.735-.66 2.13c0 1.395.22 1.66.66 2.16s1.04.75 1.81.75c.34 0 .7-.07 1.07-.2s.71-.35 1.02-.65l.53 1.14c-.33.32-.74.57-1.24.74-.5.18-.99.26-1.5.26Zm8.52.06-.54-1.28c.36-.15.67-.34.92-.57s.45-.53.59-.89.25-.81.31-1.34.1-1.18.1-1.94v-2.26h6.08v8.06h-1.6v-6.8h-2.99v1.04c0 1.21-.1 2.22-.29 3.02s-.5 1.43-.92 1.9c-.42.46-.97.81-1.66 1.05Zm13.04-.06c-.71 0-1.34-.17-1.87-.5s-.95-.81-1.24-1.44-.44-1.38-.44-2.24.15-1.62.44-2.24.71-1.1 1.24-1.43c.53-.34 1.16-.5 1.87-.5s1.32.18 1.84.53.87.83 1.04 1.44h-.18l.16-1.82h1.57l-.09.98c-.03.33-.04.64-.04.95v6.13h-1.62v-1.79h.18c-.17.6-.52 1.07-1.05 1.42s-1.13.52-1.82.52Zm.4-1.26c.69 0 1.25-.24 1.67-.74s.63-1.22.63-2.18-.21-1.68-.63-2.17c-.42-.48-.98-.73-1.67-.73s-1.27.24-1.69.73-.63 1.21-.63 2.17.21 1.69.62 2.18.98.74 1.7.74m6.38 1.12v-8.06h1.34l2.91 5.15 2.91-5.15h1.34v8.06h-1.42v-6.26h.35l-2.8 4.96h-.77l-2.8-4.96h.35v6.26h-1.42Zm10.94 0v-8.06h1.47v6.51h-.45l4.86-6.51h1.34v8.06h-1.46v-6.53h.46l-4.9 6.53h-1.34Zm9.67 0v-8.06h1.6v3.28h4.08v-3.28h1.6v8.06h-1.6v-3.52h-4.08v3.52zm12.86.14c-.71 0-1.34-.17-1.87-.5s-.95-.81-1.24-1.44-.44-1.38-.44-2.24.15-1.62.44-2.24.71-1.1 1.24-1.43c.53-.34 1.16-.5 1.87-.5s1.32.18 1.84.53.87.83 1.04 1.44h-.18l.16-1.82h1.57l-.09.98c-.03.33-.04.64-.04.95v6.13h-1.62v-1.79h.18c-.17.6-.52 1.07-1.05 1.42s-1.13.52-1.82.52Zm.4-1.26c.69 0 1.25-.24 1.67-.74.42-.49.63-1.22.63-2.18s-.21-1.68-.63-2.17c-.42-.48-.98-.73-1.67-.73s-1.27.24-1.69.73-.63 1.21-.63 2.17.21 1.69.62 2.18.98.74 1.7.74m13.36 3.2v-2.08h-6.98v-8.06h1.6v6.8h3.86v-6.8h1.58v6.8h1.3v3.34zm2.98-2.08v-8.06h1.47v6.51h-.45l4.86-6.51h1.34v8.06h-1.46v-6.53h.46l-4.9 6.53h-1.34Zm13.45.14c-1.3 0-2.33-.37-3.07-1.1-.75-.74-1.12-1.75-1.12-3.06 0-.84.16-1.58.49-2.21s.78-1.12 1.36-1.46c.58-.35 1.26-.52 2.02-.52s1.39.16 1.9.48.9.77 1.17 1.35.4 1.27.4 2.06v.51h-6.08v-.93h4.98l-.27.21q0-1.2-.54-1.86c-.36-.44-.87-.66-1.54-.66-.75 0-1.32.26-1.73.78s-.61 1.23-.61 2.14v.16c0 .95.23 1.66.7 2.14q.69.72 1.98.72c.47 0 .91-.07 1.32-.2s.8-.35 1.18-.66l.53 1.1c-.37.33-.83.58-1.36.76s-1.1.26-1.7.26Zm5.14-.14v-8.06h1.47v6.51h-.45l4.86-6.51h1.34v8.06h-1.46v-6.53h.46l-4.9 6.53h-1.34Zm3.62-8.8c-.49 0-.93-.08-1.31-.24s-.71-.4-.98-.71-.48-.7-.62-1.14l.9-.32c.18.5.44.87.77 1.11s.75.36 1.25.36.93-.11 1.26-.34c.33-.22.61-.6.84-1.12l.83.3q-.39 1.095-1.14 1.59c-.51.34-1.1.5-1.78.5Z" style="fill:#27625f;stroke-width:0"/><text class="cls-3" transform="translate(12.62 442.96)"><tspan x="0" y="0">КК А3. </tspan><tspan x="55.31" y="0" class="cls-9">С</tspan><tspan x="66.11" y="0" class="cls-10">етка А4, без ламинации</tspan></text><text class="cls-3" transform="translate(17.42 487.75)"><tspan x="0" y="0">КК А3. </tspan><tspan x="55.31" y="0" class="cls-9">С</tspan><tspan x="66.11" y="0" class="cls-10">етка А4, с ламинацией</tspan></text><text class="cls-1" transform="translate(586.5 72.66)"><tspan x="0" y="0" style="letter-spacing:-.08em">Т</tspan><tspan x="8.66" y="0">ираж</tspan></text><text class="cls-1" transform="translate(325.59 120.01)"><tspan x="0" y="0">1-10 ш</tspan><tspan x="53.76" y="0" class="cls-16">т</tspan><tspan x="60.38" y="0">. </tspan><tspan x="68.73" y="0" class="cls-6">/</tspan><tspan x="72.83" y="0" class="cls-15">р</tspan><tspan x="82.73" y="0" class="cls-13">.</tspan></text><text class="cls-3" transform="translate(345.67 166.79)"><tspan x="0" y="0">247 </tspan><tspan x="33.07" y="0" class="cls-14">р</tspan><tspan x="42.75" y="0" class="cls-11">.</tspan></text><text class="cls-3" transform="translate(345.67 212.92)"><tspan x="0" y="0">276 </tspan><tspan x="33.07" y="0" class="cls-14">р</tspan><tspan x="42.75" y="0" class="cls-11">.</tspan></text><text class="cls-3" transform="translate(345.67 258.14)"><tspan x="0" y="0">286 </tspan><tspan x="33.07" y="0" class="cls-14">р</tspan><tspan x="42.75" y="0" class="cls-11">.</tspan></text><text class="cls-3" transform="translate(345.67 303.79)"><tspan x="0" y="0">342 </tspan><tspan x="33.07" y="0" class="cls-14">р</tspan><tspan x="42.75" y="0" class="cls-11">.</tspan></text><text class="cls-3" transform="translate(345.67 350.05)"><tspan x="0" y="0">364 </tspan><tspan x="33.07" y="0" class="cls-14">р</tspan><tspan x="42.75" y="0" class="cls-11">.</tspan></text><text class="cls-3" transform="translate(345.67 396.09)"><tspan x="0" y="0">476 </tspan><tspan x="33.07" y="0" class="cls-14">р</tspan><tspan x="42.75" y="0" class="cls-11">.</tspan></text><text class="cls-3" transform="translate(345.67 440.96)"><tspan x="0" y="0">614 </tspan><tspan x="33.07" y="0" class="cls-14">р</tspan><tspan x="42.75" y="0" class="cls-11">.</tspan></text><text class="cls-3" transform="translate(345.67 487.75)"><tspan x="0" y="0">800 </tspan><tspan x="33.07" y="0" class="cls-14">р</tspan><tspan x="42.75" y="0" class="cls-11">.</tspan></text><text class="cls-1" transform="translate(481.44 120.01)"><tspan x="0" y="0">11-50 ш</tspan><tspan x="63.36" y="0" class="cls-8">т</tspan><tspan x="69.98" y="0">. </tspan><tspan x="78.33" y="0" class="cls-6">/</tspan><tspan x="82.43" y="0" class="cls-7">р</tspan><tspan x="92.33" y="0">.</tspan></text><text class="cls-3" transform="translate(506.32 166.79)"><tspan x="0" y="0">241 </tspan><tspan x="33.07" y="0" class="cls-14">р</tspan><tspan x="42.75" y="0" class="cls-11">.</tspan></text><text class="cls-3" transform="translate(506.32 212.92)"><tspan x="0" y="0">268 </tspan><tspan x="33.07" y="0" class="cls-14">р</tspan><tspan x="42.75" y="0" class="cls-11">.</tspan></text><text class="cls-3" transform="translate(506.32 258.14)"><tspan x="0" y="0">271 </tspan><tspan x="33.07" y="0" class="cls-14">р</tspan><tspan x="42.75" y="0" class="cls-11">.</tspan></text><text class="cls-3" transform="translate(506.32 303.79)"><tspan x="0" y="0">327 </tspan><tspan x="33.07" y="0" class="cls-14">р</tspan><tspan x="42.75" y="0" class="cls-11">.</tspan></text><text class="cls-3" transform="translate(506.32 350.05)"><tspan x="0" y="0">336 </tspan><tspan x="33.07" y="0" class="cls-14">р</tspan><tspan x="42.75" y="0" class="cls-11">.</tspan></text><text class="cls-3" transform="translate(506.32 396.09)"><tspan x="0" y="0">448 </tspan><tspan x="33.07" y="0" class="cls-14">р</tspan><tspan x="42.75" y="0" class="cls-11">.</tspan></text><text class="cls-3" transform="translate(506.32 440.96)"><tspan x="0" y="0">555 </tspan><tspan x="33.07" y="0" class="cls-14">р</tspan><tspan x="42.75" y="0" class="cls-11">.</tspan></text><text class="cls-3" transform="translate(506.32 487.75)"><tspan x="0" y="0">741 </tspan><tspan x="33.07" y="0" class="cls-14">р</tspan><tspan x="42.75" y="0" class="cls-11">.</tspan></text><text class="cls-1" transform="translate(640.99 120.01)"><tspan x="0" y="0">51-100 ш</tspan><tspan x="72.96" y="0" class="cls-8">т</tspan><tspan x="79.58" y="0">. </tspan><tspan x="87.93" y="0" class="cls-6">/</tspan><tspan x="92.03" y="0" class="cls-15">р</tspan><tspan x="101.93" y="0" class="cls-13">.</tspan></text><text class="cls-3" transform="translate(670.67 166.79)"><tspan x="0" y="0">237 </tspan><tspan x="33.07" y="0" class="cls-14">р</tspan><tspan x="42.75" y="0" class="cls-11">.</tspan></text><text class="cls-3" transform="translate(670.67 212.92)"><tspan x="0" y="0">264 </tspan><tspan x="33.07" y="0" class="cls-14">р</tspan><tspan x="42.75" y="0" class="cls-11">.</tspan></text><text class="cls-3" transform="translate(670.67 258.14)"><tspan x="0" y="0">264 </tspan><tspan x="33.07" y="0" class="cls-14">р</tspan><tspan x="42.75" y="0" class="cls-11">.</tspan></text><text class="cls-3" transform="translate(670.67 303.79)"><tspan x="0" y="0">320 </tspan><tspan x="33.07" y="0" class="cls-14">р</tspan><tspan x="42.75" y="0" class="cls-11">.</tspan></text><text class="cls-3" transform="translate(670.67 350.05)"><tspan x="0" y="0">320 </tspan><tspan x="33.07" y="0" class="cls-14">р</tspan><tspan x="42.75" y="0" class="cls-11">.</tspan></text><text class="cls-3" transform="translate(670.67 396.09)"><tspan x="0" y="0">432 </tspan><tspan x="33.07" y="0" class="cls-14">р</tspan><tspan x="42.75" y="0" class="cls-11">.</tspan></text><text class="cls-3" transform="translate(670.67 440.96)"><tspan x="0" y="0">527 </tspan><tspan x="33.07" y="0" class="cls-14">р</tspan><tspan x="42.75" y="0" class="cls-11">.</tspan></text><text class="cls-3" transform="translate(670.67 487.75)"><tspan x="0" y="0">713 </tspan><tspan x="33.07" y="0" class="cls-14">р</tspan><tspan x="42.75" y="0" class="cls-11">.</tspan></text><text class="cls-1" transform="translate(811.17 120.01)"><tspan x="0" y="0">&lt;101 ш</tspan><tspan x="56.35" y="0" class="cls-16">т</tspan><tspan x="62.98" y="0">. </tspan><tspan x="71.33" y="0" class="cls-6">/</tspan><tspan x="75.42" y="0" class="cls-7">р</tspan><tspan x="85.33" y="0">.</tspan></text><text class="cls-3" transform="translate(832.54 166.79)"><tspan x="0" y="0">209 </tspan><tspan x="33.07" y="0" class="cls-14">р</tspan><tspan x="42.75" y="0" class="cls-11">.</tspan></text><text class="cls-3" transform="translate(832.54 212.92)"><tspan x="0" y="0">262 </tspan><tspan x="33.07" y="0" class="cls-14">р</tspan><tspan x="42.75" y="0" class="cls-11">.</tspan></text><text class="cls-3" transform="translate(832.54 258.14)"><tspan x="0" y="0">258 </tspan><tspan x="33.07" y="0" class="cls-14">р</tspan><tspan x="42.75" y="0" class="cls-11">.</tspan></text><text class="cls-3" transform="translate(832.54 303.79)"><tspan x="0" y="0">314 </tspan><tspan x="33.07" y="0" class="cls-14">р</tspan><tspan x="42.75" y="0" class="cls-11">.</tspan></text><text class="cls-3" transform="translate(832.54 350.05)"><tspan x="0" y="0">305 </tspan><tspan x="33.07" y="0" class="cls-14">р</tspan><tspan x="42.75" y="0" class="cls-11">.</tspan></text><text class="cls-3" transform="translate(832.54 396.09)"><tspan x="0" y="0">416 </tspan><tspan x="33.07" y="0" class="cls-14">р</tspan><tspan x="42.75" y="0" class="cls-11">.</tspan></text><text class="cls-3" transform="translate(832.54 440.96)"><tspan x="0" y="0">365 </tspan><tspan x="33.07" y="0" class="cls-14">р</tspan><tspan x="42.75" y="0" class="cls-11">.</tspan></text><text class="cls-3" transform="translate(832.54 487.75)"><tspan x="0" y="0">681 </tspan><tspan x="33.07" y="0" class="cls-14">р</tspan><tspan x="42.75" y="0" class="cls-11">.</tspan></text></g></svg>