<svg xmlns="http://www.w3.org/2000/svg" id="_Слой_2" data-name="Слой 2" viewBox="0 0 938.93 294.82"><defs><style>.cls-1,.cls-2{font-family:Mulish-Bold,Mulish;font-weight:700;fill:#27625f;font-size:16px}.cls-2{font-family:Mulish-SemiBold,Mulish;font-weight:600}.cls-7{letter-spacing:-.06em}.cls-8{letter-spacing:.07em}.cls-9{letter-spacing:-.02em}.cls-10{letter-spacing:0}.cls-11{letter-spacing:-.02em}.cls-12{letter-spacing:0}.cls-13{letter-spacing:-.02em}</style></defs><g id="_Слой_1-2" data-name="Слой 1"><rect width="937.93" height="229.7" x=".5" y=".5" rx="10" ry="10" style="fill:#fff;stroke:#a0b6b5;stroke-miterlimit:10"/><path d="M.5 46.44h937.93M.5 92.38h937.93M158.2 46.44V230.2M314.18 46.44V230.2M470.16 46.44V230.2M626.14 46.44V230.2M782.12 46.44V230.2M.5 138.32h937.93M.5 184.26h937.93" style="stroke:#a0b6b5;stroke-miterlimit:10;fill:none"/><text class="cls-1" transform="translate(64.63 120.03)"><tspan x="0" y="0">Ч/Б</tspan></text><text class="cls-1" transform="translate(44.51 164.99)"><tspan x="0" y="0">Цветное</tspan></text><text class="cls-1" transform="translate(34.39 213.55)"><tspan x="0" y="0">Цв. 600 dpi</tspan></text><text class="cls-1" transform="translate(46.67 74.2)"><tspan x="0" y="0">Формат</tspan></text><text class="cls-1" transform="translate(226.44 74.2)"><tspan x="0" y="0">А4</tspan></text><text class="cls-2" transform="translate(223.57 120.07)"><tspan x="0" y="0">4 </tspan><tspan x="13.87" y="0" class="cls-9">р</tspan><tspan x="23.55" y="0">.</tspan></text><text class="cls-2" transform="translate(223.57 165.03)"><tspan x="0" y="0">8 </tspan><tspan x="13.87" y="0" class="cls-9">р</tspan><tspan x="23.55" y="0">.</tspan></text><text class="cls-2" transform="translate(218.77 211.94)"><tspan x="0" y="0">15 </tspan><tspan x="23.47" y="0" class="cls-9">р</tspan><tspan x="33.15" y="0">.</tspan></text><text class="cls-2" transform="translate(31.96 252.05)"><tspan x="0" y="0">Дырок</tspan><tspan x="53.44" y="0" style="letter-spacing:-.01em">о</tspan><tspan x="62.75" y="0">л - 50к</tspan><tspan x="115.81" y="0" class="cls-8">.</tspan><tspan x="120.65" y="0" class="cls-7">/</tspan><tspan x="124.49" y="0">шт</tspan><tspan x="0" y="19.2">Люверс - 1</tspan><tspan x="86.42" y="19.2" class="cls-11">р</tspan><tspan x="96.09" y="19.2" style="letter-spacing:.07em">.</tspan><tspan x="100.94" y="19.2" class="cls-7">/</tspan><tspan x="104.78" y="19.2" class="cls-10">шт</tspan><tspan x="0" y="38.4">Ск</tspan><tspan x="19.79" y="38.4" style="letter-spacing:0">р</tspan><tspan x="29.62" y="38.4" class="cls-12">у</tspan><tspan x="38.38" y="38.4" style="letter-spacing:-.02em">г</tspan><tspan x="45.34" y="38.4">ление - 2 </tspan><tspan x="121.47" y="38.4" class="cls-11">р</tspan><tspan x="131.15" y="38.4" class="cls-8">.</tspan><tspan x="136" y="38.4" class="cls-7">/</tspan><tspan x="139.84" y="38.4" class="cls-12">шт</tspan></text><text class="cls-1" transform="translate(382.05 74.2)"><tspan x="0" y="0">А3</tspan></text><text class="cls-2" transform="translate(379.18 120.07)"><tspan x="0" y="0">7 </tspan><tspan x="13.87" y="0" class="cls-9">р</tspan><tspan x="23.55" y="0">.</tspan></text><text class="cls-2" transform="translate(374.38 165.03)"><tspan x="0" y="0">15 </tspan><tspan x="23.47" y="0" class="cls-9">р</tspan><tspan x="33.15" y="0">.</tspan></text><text class="cls-2" transform="translate(374.38 211.94)"><tspan x="0" y="0">25 </tspan><tspan x="23.47" y="0" class="cls-9">р</tspan><tspan x="33.15" y="0">.</tspan></text><text class="cls-1" transform="translate(538.57 74.2)"><tspan x="0" y="0">А2</tspan></text><text class="cls-2" transform="translate(530.9 120.07)"><tspan x="0" y="0">25 </tspan><tspan x="23.47" y="0" class="cls-9">р</tspan><tspan x="33.15" y="0">.</tspan></text><text class="cls-2" transform="translate(530.9 165.03)"><tspan x="0" y="0">50 </tspan><tspan x="23.47" y="0" class="cls-9">р</tspan><tspan x="33.15" y="0">.</tspan></text><text class="cls-2" transform="translate(526.1 211.94)"><tspan x="0" y="0">100 </tspan><tspan x="33.07" y="0" class="cls-13">р</tspan><tspan x="42.75" y="0" class="cls-10">.</tspan></text><text class="cls-1" transform="translate(693.57 74.2)"><tspan x="0" y="0">А1</tspan></text><text class="cls-2" transform="translate(685.9 120.07)"><tspan x="0" y="0">50 </tspan><tspan x="23.47" y="0" class="cls-9">р</tspan><tspan x="33.15" y="0">.</tspan></text><text class="cls-2" transform="translate(681.1 165.03)"><tspan x="0" y="0">100 </tspan><tspan x="33.07" y="0" class="cls-13">р</tspan><tspan x="42.75" y="0" class="cls-10">.</tspan></text><text class="cls-2" transform="translate(681.1 211.94)"><tspan x="0" y="0">200 </tspan><tspan x="33.07" y="0" class="cls-13">р</tspan><tspan x="42.75" y="0" class="cls-10">.</tspan></text><text class="cls-1" transform="translate(849.57 74.2)"><tspan x="0" y="0">А0</tspan></text><text class="cls-2" transform="translate(841.9 120.07)"><tspan x="0" y="0">80 </tspan><tspan x="23.47" y="0" class="cls-9">р</tspan><tspan x="33.15" y="0">.</tspan></text><text class="cls-2" transform="translate(837.1 165.03)"><tspan x="0" y="0">200 </tspan><tspan x="33.07" y="0" class="cls-13">р</tspan><tspan x="42.75" y="0" class="cls-10">.</tspan></text><text class="cls-2" transform="translate(837.1 211.94)"><tspan x="0" y="0">400 </tspan><tspan x="33.07" y="0" class="cls-13">р</tspan><tspan x="42.75" y="0" class="cls-10">.</tspan></text><text class="cls-1" transform="translate(17.77 28.37)"><tspan x="0" y="0">Сканирование</tspan></text></g></svg>