<svg xmlns="http://www.w3.org/2000/svg" id="_Слой_2" data-name="Слой 2" viewBox="0 0 939.17 325.14"><defs><style>.cls-1{font-family:Mulish-Bold,Mulish;font-weight:700}.cls-1,.cls-2{fill:#27625f;font-size:16px}.cls-6,.cls-7{letter-spacing:0}.cls-2{font-family:Mulish-SemiBold,Mulish;font-weight:600}.cls-11,.cls-15,.cls-16{letter-spacing:0}.cls-18{letter-spacing:-.02em}.cls-19{letter-spacing:0}.cls-20{letter-spacing:-.02em}.cls-22{letter-spacing:-.01em}</style></defs><g id="_Слой_1-2" data-name="Слой 1"><rect width="938.17" height="183.66" x=".5" y=".5" rx="10" ry="10" style="fill:#fff;stroke:#a0b6b5;stroke-miterlimit:10"/><path d="M.5 92.28h938.17M.5 138.22h938.17M.5 46.44h938.17m-573.47-.1v137.82M508.41 46.34v137.82M651.63 46.34v137.82M794.85 46.34v137.82" style="stroke:#a0b6b5;stroke-miterlimit:10;fill:none"/><text class="cls-1" transform="translate(115.9 73.95)"><tspan x="0" y="0">Качество печати</tspan></text><text class="cls-1" transform="translate(407.57 73.95)"><tspan x="0" y="0">360 dpi</tspan></text><text class="cls-2" transform="translate(412.9 120.2)"><tspan x="0" y="0">598 </tspan><tspan x="33.07" y="0" class="cls-20">р</tspan><tspan x="42.75" y="0" class="cls-16">.</tspan></text><text class="cls-2" transform="translate(412.9 166.46)"><tspan x="0" y="0">936 </tspan><tspan x="33.07" y="0" class="cls-20">р</tspan><tspan x="42.75" y="0" class="cls-16">.</tspan></text><text class="cls-2" transform="translate(9.98 224.78)"><tspan x="0" y="0">Минимальная с</tspan><tspan x="123.23" y="0" style="letter-spacing:0">т</tspan><tspan x="130.67" y="0" class="cls-19">оимость заказа - 300 </tspan><tspan x="302.81" y="0" class="cls-7">р</tspan><tspan x="312.64" y="0">у</tspan><tspan x="321.4" y="0" style="letter-spacing:-.02em">б</tspan><tspan x="330.63" y="0" class="cls-19">.</tspan><tspan x="0" y="19.2">С</tspan><tspan x="10.96" y="19.2" class="cls-15">т</tspan><tspan x="18.4" y="19.2">оимость на го</tspan><tspan x="127.45" y="19.2" class="cls-15">т</tspan><tspan x="134.89" y="19.2">овой цветной виниловой плёнке может о</tspan><tspan x="458.76" y="19.2" class="cls-15">т</tspan><tspan x="466.2" y="19.2">личаться от прайса (</tspan><tspan x="630.46" y="19.2" style="letter-spacing:0">у</tspan><tspan x="639.32" y="19.2" style="letter-spacing:0">т</tspan><tspan x="646.76" y="19.2">очнять у менеджера).</tspan><tspan x="0" y="57.6" style="letter-spacing:-.08em">Т</tspan><tspan x="8.54" y="57.6" class="cls-11">ермоплёнка - 1400 </tspan><tspan x="162.59" y="57.6" class="cls-7">р</tspan><tspan x="172.41" y="57.6">у</tspan><tspan x="181.18" y="57.6" class="cls-18">б</tspan><tspan x="190.41" y="57.6" class="cls-16">. м</tspan></text><text class="cls-2" transform="matrix(.58 0 0 .58 219.4 277.05)"><tspan x="0" y="0">2</tspan></text><text class="cls-2" transform="translate(9.98 320.78)"><tspan x="0" y="0" style="letter-spacing:-.01em">Р</tspan><tspan x="10.34" y="0" class="cls-11">азмер х размер х 1400 х кличество (кон</tspan><tspan x="324.91" y="0" style="letter-spacing:0">т</tspan><tspan x="332.44" y="0">урная резка</tspan></text><text class="cls-1" transform="translate(551.08 73.95)"><tspan x="0" y="0">540 dpi</tspan></text><text class="cls-2" transform="translate(556.41 120.2)"><tspan x="0" y="0">690 </tspan><tspan x="33.07" y="0" class="cls-20">р</tspan><tspan x="42.75" y="0" class="cls-16">.</tspan></text><text class="cls-2" transform="translate(556.41 166.46)"><tspan x="0" y="0">950 </tspan><tspan x="33.07" y="0" class="cls-20">р</tspan><tspan x="42.75" y="0" class="cls-16">.</tspan></text><text class="cls-1" transform="translate(695.55 73.95)"><tspan x="0" y="0">720 dpi</tspan></text><text class="cls-2" transform="translate(696.08 120.2)"><tspan x="0" y="0">1200 </tspan><tspan x="42.67" y="0" class="cls-18">р</tspan><tspan x="52.35" y="0">.</tspan></text><text class="cls-2" transform="translate(696.08 166.46)"><tspan x="0" y="0">1400 </tspan><tspan x="42.67" y="0" class="cls-18">р</tspan><tspan x="52.35" y="0">.</tspan></text><text class="cls-1" transform="translate(834.19 73.95)"><tspan x="0" y="0">1440 dpi</tspan></text><text class="cls-2" transform="translate(839.52 120.2)"><tspan x="0" y="0">1240 </tspan><tspan x="42.67" y="0" class="cls-18">р</tspan><tspan x="52.35" y="0">.</tspan></text><text class="cls-2" transform="translate(839.52 166.46)"><tspan x="0" y="0">1440 </tspan><tspan x="42.67" y="0" class="cls-18">р</tspan><tspan x="52.35" y="0">.</tspan></text><text class="cls-1" transform="translate(88.06 120.04)"><tspan x="0" y="0" class="cls-22">С</tspan><tspan x="10.8" y="0" class="cls-6">амоклеящаяся плёнке</tspan></text><text class="cls-1" transform="translate(9.1 166.3)"><tspan x="0" y="0" class="cls-22">С</tspan><tspan x="10.8" y="0" class="cls-6">амоклеящаяся плёнке + резка по кон</tspan><tspan x="312.75" y="0" style="letter-spacing:0">т</tspan><tspan x="320.57" y="0" class="cls-16">у</tspan><tspan x="329.48" y="0" style="letter-spacing:0">р</tspan><tspan x="339.5" y="0" class="cls-16">у</tspan></text><text class="cls-1" transform="translate(20.93 29.62)"><tspan x="0" y="0">Печать на плёнке</tspan></text></g></svg>