<?xml version="1.0" encoding="UTF-8"?>
<svg id="_Слой_2" data-name="Слой 2" xmlns="http://www.w3.org/2000/svg" viewBox="0 0 938.93 255.39">
  <defs>
    <style>
      .cls-1 {
        fill: #fff;
      }

      .cls-1, .cls-2 {
        stroke: #a0b6b5;
        stroke-miterlimit: 10;
      }

      .cls-3 {
        fill: #27625f;
        stroke-width: 0px;
      }

      .cls-2 {
        fill: none;
      }
    </style>
  </defs>
  <g id="_Слой_1-2" data-name="Слой 1">
    <g>
      <g>
        <rect class="cls-1" x=".5" y=".5" width="937.93" height="229.7" rx="10" ry="10"/>
        <line class="cls-2" x1="938.43" y1="46.44" x2=".5" y2="46.44"/>
        <line class="cls-2" x1="938.43" y1="92.38" x2=".5" y2="92.38"/>
        <line class="cls-2" x1="938.43" y1="138.32" x2=".5" y2="138.32"/>
        <line class="cls-2" x1="938.43" y1="184.26" x2=".5" y2="184.26"/>
        <line class="cls-2" x1="423.52" y1="230.2" x2="423.52" y2="46.44"/>
        <line class="cls-2" x1="680.97" y1="230.2" x2="680.97" y2="46.44"/>
      </g>
      <g>
        <g>
          <path class="cls-3" d="m193.63,119.85v-9.58h-3.73v-1.7h9.52v1.7h-3.73v9.58h-2.06Z"/>
          <path class="cls-3" d="m203.48,120.01c-1.35,0-2.42-.37-3.18-1.12-.77-.75-1.15-1.77-1.15-3.07,0-.84.17-1.58.5-2.21.33-.63.79-1.12,1.38-1.47.59-.35,1.28-.53,2.07-.53s1.43.17,1.95.5c.52.33.92.79,1.19,1.39.27.6.41,1.3.41,2.1v.53h-5.89v-1.06h4.46l-.27.22c0-.75-.16-1.32-.47-1.71-.31-.39-.77-.59-1.37-.59-.66,0-1.17.23-1.53.7-.36.47-.54,1.13-.54,1.97v.21c0,.87.22,1.53.65,1.96.43.43,1.04.65,1.83.65.46,0,.89-.06,1.29-.18.4-.12.78-.32,1.14-.6l.59,1.34c-.38.31-.84.55-1.38.72-.53.17-1.1.26-1.7.26Z"/>
          <path class="cls-3" d="m208.51,119.85v-8.08h1.98v3.17h1.22l2.37-3.17h2.14l-2.98,4.03-.43-.62c.3.03.56.11.79.24s.45.31.66.54.41.52.62.87l1.7,3.02h-2.13l-1.38-2.43c-.14-.25-.28-.44-.42-.58s-.29-.23-.46-.29c-.17-.05-.38-.08-.62-.08h-1.07v3.38h-1.98Z"/>
          <path class="cls-3" d="m221.4,120.01c-.83,0-1.56-.17-2.18-.51s-1.11-.83-1.45-1.46-.51-1.39-.51-2.26.17-1.62.52-2.24c.35-.62.83-1.09,1.45-1.42.62-.33,1.34-.5,2.18-.5.53,0,1.05.08,1.56.25.51.17.92.4,1.24.71l-.61,1.39c-.29-.27-.61-.47-.97-.6-.36-.13-.71-.2-1.05-.2-.71,0-1.27.22-1.67.67-.4.45-.6,1.1-.6,1.95s.2,1.51.6,1.97.96.69,1.67.69c.33,0,.67-.06,1.03-.19.36-.13.69-.33.98-.59l.61,1.38c-.33.31-.75.55-1.26.72-.51.17-1.02.26-1.54.26Z"/>
          <path class="cls-3" d="m227.66,119.85v-6.51h-2.77v-1.57h7.54v1.57h-2.78v6.51h-1.98Z"/>
        </g>
        <g>
          <path class="cls-3" d="m185.64,75.16v-1.66l.51.38h-.45c-1.12,0-2.09-.19-2.9-.58-.81-.38-1.43-.94-1.86-1.66-.43-.72-.65-1.59-.65-2.62,0-1.56.47-2.75,1.42-3.59.94-.84,2.27-1.26,3.99-1.26h.45l-.51.38v-1.57h2.05v1.57l-.51-.38h.45c1.72,0,3.05.42,4,1.26.95.84,1.42,2.04,1.42,3.59,0,1.02-.22,1.9-.66,2.62-.44.72-1.06,1.27-1.86,1.66-.81.38-1.77.58-2.9.58h-.45l.51-.38v1.66h-2.05Zm.02-2.48v-7.3l.43.35h-.59c-.94,0-1.69.27-2.26.82-.57.55-.86,1.37-.86,2.47,0,.71.13,1.32.4,1.81.27.49.63.86,1.1,1.11.47.25,1.01.38,1.62.38h.59l-.43.35Zm2.03,0l-.45-.35h.61c.61,0,1.15-.12,1.62-.38.47-.25.83-.62,1.1-1.11.26-.49.39-1.09.39-1.81,0-1.1-.28-1.92-.85-2.47-.57-.55-1.32-.82-2.26-.82h-.61l.45-.35v7.3Z"/>
          <path class="cls-3" d="m198.78,74.92c-.83,0-1.55-.17-2.16-.51s-1.08-.83-1.42-1.46-.5-1.38-.5-2.24.17-1.61.5-2.23.81-1.11,1.42-1.45,1.33-.51,2.16-.51,1.55.17,2.17.51c.61.34,1.09.82,1.42,1.45s.5,1.37.5,2.23-.17,1.61-.5,2.24-.81,1.12-1.42,1.46c-.61.34-1.34.51-2.17.51Zm0-1.54c.63,0,1.13-.22,1.5-.66.37-.44.56-1.11.56-2.01s-.19-1.56-.56-2c-.37-.44-.88-.66-1.5-.66s-1.13.22-1.5.66c-.37.44-.56,1.1-.56,2s.19,1.57.56,2.01c.37.44.87.66,1.5.66Z"/>
          <path class="cls-3" d="m204.83,78.22v-9.52c0-.33-.01-.67-.03-1.01s-.05-.68-.1-1.01h1.94l.18,1.7h-.18c.16-.56.5-1.02,1.02-1.35.52-.34,1.12-.5,1.8-.5s1.34.17,1.87.5c.53.34.95.82,1.25,1.44.3.62.45,1.37.45,2.25s-.15,1.63-.45,2.26c-.3.63-.71,1.11-1.25,1.45-.53.34-1.16.5-1.87.5-.67,0-1.26-.17-1.78-.5-.51-.33-.85-.77-1.02-1.33h.18v5.12h-2Zm4.06-4.83c.64,0,1.15-.22,1.54-.66.38-.44.58-1.11.58-2.01s-.19-1.56-.58-2c-.38-.44-.9-.66-1.54-.66s-1.14.22-1.52.66c-.38.44-.58,1.1-.58,2s.19,1.57.58,2.01c.38.44.89.66,1.52.66Z"/>
          <path class="cls-3" d="m214.91,74.76v-8.08h1.66l2.78,4.83,2.78-4.83h1.66v8.08h-1.76v-5.84h.37l-2.59,4.53h-.93l-2.59-4.53h.37v5.84h-1.76Z"/>
          <path class="cls-3" d="m229.26,74.92c-.7,0-1.32-.17-1.86-.5-.53-.34-.95-.82-1.25-1.45-.3-.63-.45-1.38-.45-2.26s.15-1.62.45-2.25c.3-.62.71-1.1,1.25-1.44s1.15-.5,1.86-.5,1.28.17,1.8.5.86.79,1.03,1.35h-.18l.18-1.7h1.92c-.03.33-.06.67-.09,1.01-.03.34-.04.68-.04,1.01v6.06h-1.98l-.02-1.66h.19c-.17.55-.52,1-1.04,1.33-.52.33-1.11.5-1.78.5Zm.56-1.54c.63,0,1.14-.22,1.52-.66.38-.44.58-1.11.58-2.01s-.19-1.56-.58-2c-.38-.44-.89-.66-1.52-.66s-1.14.22-1.52.66c-.38.44-.58,1.1-.58,2s.19,1.57.57,2.01c.38.44.89.66,1.53.66Z"/>
          <path class="cls-3" d="m237.96,74.76v-6.51h-2.77v-1.57h7.54v1.57h-2.78v6.51h-1.98Z"/>
        </g>
        <g>
          <path class="cls-3" d="m27.24,28.33v-4.42c-.31.14-.7.25-1.17.34-.47.09-.94.13-1.41.13-1.51,0-2.67-.39-3.48-1.17-.81-.78-1.21-1.96-1.21-3.54v-2.62h2.05v2.53c0,1.07.24,1.84.71,2.33.47.49,1.19.73,2.15.73.41,0,.81-.04,1.21-.11.4-.07.78-.2,1.14-.37v-5.1h2.05v11.28h-2.05Z"/>
          <path class="cls-3" d="m35.62,28.49c-1.35,0-2.42-.37-3.18-1.12-.77-.75-1.15-1.77-1.15-3.07,0-.84.17-1.58.5-2.21.33-.63.79-1.12,1.38-1.47.59-.35,1.28-.53,2.07-.53s1.43.17,1.95.5c.52.33.92.79,1.19,1.39.27.6.41,1.3.41,2.1v.53h-5.89v-1.06h4.46l-.27.22c0-.75-.16-1.32-.47-1.71-.31-.39-.77-.59-1.37-.59-.66,0-1.17.23-1.53.7-.36.47-.54,1.13-.54,1.97v.21c0,.87.22,1.53.65,1.96.43.43,1.04.65,1.83.65.46,0,.89-.06,1.29-.18.4-.12.78-.32,1.14-.6l.59,1.34c-.38.31-.84.55-1.38.72-.53.17-1.1.26-1.7.26Z"/>
          <path class="cls-3" d="m40.71,31.78v-9.52c0-.33-.01-.67-.03-1.01s-.05-.68-.1-1.01h1.94l.18,1.7h-.18c.16-.57.5-1.02,1.02-1.35.52-.34,1.12-.5,1.8-.5s1.34.17,1.87.5c.53.34.95.82,1.25,1.44.3.62.45,1.37.45,2.25s-.15,1.63-.45,2.26c-.3.63-.71,1.11-1.25,1.45-.53.34-1.16.5-1.87.5-.67,0-1.26-.17-1.78-.5-.51-.33-.85-.77-1.02-1.33h.18v5.12h-2Zm4.06-4.83c.64,0,1.15-.22,1.54-.66.38-.44.58-1.11.58-2.01s-.19-1.56-.58-2-.9-.66-1.54-.66-1.14.22-1.52.66-.58,1.1-.58,2,.19,1.56.58,2.01c.38.44.89.66,1.52.66Z"/>
          <path class="cls-3" d="m50.79,28.33v-8.08h1.98v3.17h3.65v-3.17h1.98v8.08h-1.98v-3.38h-3.65v3.38h-1.98Z"/>
          <path class="cls-3" d="m64.39,28.49c-.83,0-1.55-.17-2.16-.51-.61-.34-1.08-.83-1.42-1.46-.34-.63-.5-1.38-.5-2.24s.17-1.61.5-2.23c.34-.62.81-1.11,1.42-1.45.61-.34,1.33-.51,2.16-.51s1.55.17,2.17.51,1.09.82,1.42,1.45c.34.62.5,1.37.5,2.23s-.17,1.61-.5,2.24c-.34.63-.81,1.11-1.42,1.46s-1.34.51-2.17.51Zm0-1.54c.63,0,1.13-.22,1.5-.66.37-.44.56-1.11.56-2.01s-.19-1.56-.56-2c-.37-.44-.87-.66-1.5-.66s-1.13.22-1.5.66-.56,1.1-.56,2,.19,1.56.56,2.01c.37.44.88.66,1.5.66Z"/>
          <path class="cls-3" d="m70.55,24.71v-1.58h4.86v1.58h-4.86Z"/>
          <path class="cls-3" d="m81.41,28.49c-1.27,0-2.28-.38-3.03-1.15-.75-.77-1.13-1.89-1.13-3.38v-1.38c0-1.52.35-2.75,1.04-3.68s1.74-1.54,3.14-1.84l2.96-.67.54,1.57-3.33.74c-.55.12-1.01.34-1.38.66-.36.32-.63.71-.82,1.16s-.27.93-.27,1.44v.85h-.27c.12-.48.31-.9.59-1.26s.63-.64,1.06-.84.91-.3,1.46-.3c.68,0,1.28.16,1.8.47s.92.77,1.22,1.36.45,1.3.45,2.12-.17,1.57-.5,2.19-.81,1.1-1.41,1.43-1.31.5-2.12.5Zm-.06-1.52c.66,0,1.18-.21,1.54-.63.37-.42.55-1.05.55-1.9s-.19-1.45-.56-1.88c-.37-.43-.89-.65-1.54-.65s-1.16.21-1.54.64c-.37.43-.56,1.04-.56,1.82,0,.86.19,1.51.56,1.94.37.43.88.65,1.54.65Z"/>
          <path class="cls-3" d="m91.3,28.49c-1.35,0-2.42-.37-3.18-1.12-.77-.75-1.15-1.77-1.15-3.07,0-.84.17-1.58.5-2.21.33-.63.79-1.12,1.38-1.47.59-.35,1.28-.53,2.07-.53s1.43.17,1.95.5c.52.33.92.79,1.19,1.39.27.6.41,1.3.41,2.1v.53h-5.89v-1.06h4.46l-.27.22c0-.75-.16-1.32-.47-1.71-.31-.39-.77-.59-1.37-.59-.66,0-1.17.23-1.53.7-.36.47-.54,1.13-.54,1.97v.21c0,.87.22,1.53.65,1.96.43.43,1.04.65,1.83.65.46,0,.89-.06,1.29-.18.4-.12.78-.32,1.14-.6l.59,1.34c-.38.31-.84.55-1.38.72-.53.17-1.1.26-1.7.26Z"/>
          <path class="cls-3" d="m96.11,28.55l-.62-1.57c.35-.13.65-.3.89-.5.24-.21.43-.47.58-.8.14-.33.25-.73.31-1.22.06-.49.1-1.06.1-1.74v-2.48h6.43v8.08h-1.98v-6.54h-2.62v1.01c0,1.16-.11,2.14-.32,2.92-.21.78-.54,1.41-.99,1.86-.45.46-1.04.79-1.76.98Z"/>
          <path class="cls-3" d="m109.25,28.49c-.7,0-1.32-.17-1.86-.5s-.95-.82-1.25-1.45c-.3-.63-.45-1.38-.45-2.26s.15-1.62.45-2.25c.3-.62.71-1.1,1.25-1.44s1.15-.5,1.86-.5,1.28.17,1.8.5.86.79,1.03,1.35h-.18l.18-1.7h1.92c-.03.33-.06.67-.09,1.01-.03.34-.04.68-.04,1.01v6.06h-1.98l-.02-1.66h.19c-.17.55-.52,1-1.04,1.33-.52.33-1.11.5-1.78.5Zm.56-1.54c.63,0,1.14-.22,1.52-.66.38-.44.58-1.11.58-2.01s-.19-1.56-.58-2c-.38-.44-.89-.66-1.52-.66s-1.14.22-1.52.66c-.38.44-.58,1.1-.58,2s.19,1.56.57,2.01c.38.44.89.66,1.53.66Z"/>
          <path class="cls-3" d="m115.54,28.33l1.23-2.13c.21-.36.48-.65.79-.87.31-.22.64-.33.98-.33h.35l-.02.18c-.95,0-1.68-.21-2.19-.62-.51-.42-.77-1.02-.77-1.82s.26-1.4.79-1.83c.53-.43,1.3-.65,2.33-.65h4.02v8.08h-1.82v-2.85h-.91c-.33,0-.62.09-.87.27-.25.18-.46.42-.63.71l-1.06,1.87h-2.22Zm3.89-4.14h1.81v-2.64h-1.81c-.54,0-.95.12-1.22.35-.27.23-.41.55-.41.96,0,.43.14.75.41.98.27.23.68.34,1.22.34Z"/>
          <path class="cls-3" d="m129.71,28.33v-8.08h7.57v8.08h-1.98v-6.54h-3.6v6.54h-1.98Z"/>
          <path class="cls-3" d="m143.52,28.49c-1.35,0-2.42-.37-3.18-1.12-.77-.75-1.15-1.77-1.15-3.07,0-.84.17-1.58.5-2.21.33-.63.79-1.12,1.38-1.47.59-.35,1.28-.53,2.07-.53s1.43.17,1.95.5c.52.33.92.79,1.19,1.39.27.6.41,1.3.41,2.1v.53h-5.89v-1.06h4.46l-.27.22c0-.75-.16-1.32-.47-1.71-.31-.39-.77-.59-1.37-.59-.66,0-1.17.23-1.53.7-.36.47-.54,1.13-.54,1.97v.21c0,.87.22,1.53.65,1.96.43.43,1.04.65,1.83.65.46,0,.89-.06,1.29-.18.4-.12.78-.32,1.14-.6l.59,1.34c-.38.31-.84.55-1.38.72-.53.17-1.1.26-1.7.26Z"/>
          <path class="cls-3" d="m153.68,28.33v-2.94c-.3.14-.61.25-.93.32-.32.07-.66.11-1.01.11-1.18,0-2.07-.28-2.65-.85-.58-.57-.87-1.41-.87-2.53v-2.19h1.98v2.02c0,.68.15,1.18.45,1.48.3.3.78.46,1.44.46.31,0,.59-.03.83-.1.25-.06.48-.17.7-.3v-3.55h1.98v8.08h-1.94Z"/>
          <path class="cls-3" d="m161.07,28.49c-.7,0-1.32-.17-1.86-.5s-.95-.82-1.25-1.45c-.3-.63-.45-1.38-.45-2.26s.15-1.62.45-2.25c.3-.62.71-1.1,1.25-1.44s1.15-.5,1.86-.5,1.28.17,1.8.5.86.79,1.03,1.35h-.18l.18-1.7h1.92c-.03.33-.06.67-.09,1.01-.03.34-.04.68-.04,1.01v6.06h-1.98l-.02-1.66h.19c-.17.55-.52,1-1.04,1.33-.52.33-1.11.5-1.78.5Zm.56-1.54c.63,0,1.14-.22,1.52-.66.38-.44.58-1.11.58-2.01s-.19-1.56-.58-2c-.38-.44-.89-.66-1.52-.66s-1.14.22-1.52.66c-.38.44-.58,1.1-.58,2s.19,1.56.57,2.01c.38.44.89.66,1.53.66Z"/>
          <path class="cls-3" d="m169.78,28.33v-6.51h-2.77v-1.57h7.54v1.57h-2.78v6.51h-1.98Z"/>
          <path class="cls-3" d="m175.78,28.33v-8.08h1.98v2.71h2.13c1.08,0,1.89.23,2.43.68s.82,1.11.82,1.96c0,.55-.13,1.04-.38,1.45-.26.41-.63.73-1.11.95-.49.22-1.07.34-1.75.34h-4.11Zm1.98-1.31h1.86c.54,0,.96-.11,1.25-.34s.43-.58.43-1.05-.14-.81-.42-1.03c-.28-.22-.7-.33-1.26-.33h-1.86v2.75Z"/>
          <path class="cls-3" d="m189.19,28.33v-8.08h1.98v3.17h3.65v-3.17h1.98v8.08h-1.98v-3.38h-3.65v3.38h-1.98Z"/>
          <path class="cls-3" d="m202.26,28.49c-.7,0-1.32-.17-1.86-.5s-.95-.82-1.25-1.45c-.3-.63-.45-1.38-.45-2.26s.15-1.62.45-2.25c.3-.62.71-1.1,1.25-1.44s1.15-.5,1.86-.5,1.28.17,1.8.5.86.79,1.03,1.35h-.18l.18-1.7h1.92c-.03.33-.06.67-.09,1.01-.03.34-.04.68-.04,1.01v6.06h-1.98l-.02-1.66h.19c-.17.55-.52,1-1.04,1.33-.52.33-1.11.5-1.78.5Zm.56-1.54c.63,0,1.14-.22,1.52-.66.38-.44.58-1.11.58-2.01s-.19-1.56-.58-2c-.38-.44-.89-.66-1.52-.66s-1.14.22-1.52.66c-.38.44-.58,1.1-.58,2s.19,1.56.57,2.01c.38.44.89.66,1.53.66Z"/>
          <path class="cls-3" d="m213.39,28.55l-.62-1.57c.35-.13.65-.3.89-.5.24-.21.43-.47.58-.8.14-.33.25-.73.31-1.22.06-.49.1-1.06.1-1.74v-2.48h6.43v8.08h-1.98v-6.54h-2.62v1.01c0,1.16-.11,2.14-.32,2.92-.21.78-.54,1.41-.99,1.86-.45.46-1.04.79-1.76.98Z"/>
          <path class="cls-3" d="m226.53,28.49c-.7,0-1.32-.17-1.86-.5s-.95-.82-1.25-1.45c-.3-.63-.45-1.38-.45-2.26s.15-1.62.45-2.25c.3-.62.71-1.1,1.25-1.44s1.15-.5,1.86-.5,1.28.17,1.8.5.86.79,1.03,1.35h-.18l.18-1.7h1.92c-.03.33-.06.67-.09,1.01-.03.34-.04.68-.04,1.01v6.06h-1.98l-.02-1.66h.19c-.17.55-.52,1-1.04,1.33-.52.33-1.11.5-1.78.5Zm.56-1.54c.63,0,1.14-.22,1.52-.66.38-.44.58-1.11.58-2.01s-.19-1.56-.58-2c-.38-.44-.89-.66-1.52-.66s-1.14.22-1.52.66c-.38.44-.58,1.1-.58,2s.19,1.56.57,2.01c.38.44.89.66,1.53.66Z"/>
          <path class="cls-3" d="m236.46,28.49c-.73,0-1.41-.08-2.04-.26-.63-.17-1.17-.42-1.59-.74l.56-1.31c.39.29.86.51,1.38.66.53.15,1.08.22,1.67.22.68,0,1.18-.09,1.5-.28.31-.19.47-.46.47-.82,0-.34-.12-.6-.37-.78-.25-.18-.61-.26-1.09-.26h-2.1v-1.38h1.9c.44,0,.77-.09,1.01-.26.23-.17.35-.41.35-.72,0-.33-.14-.59-.42-.78-.28-.19-.74-.29-1.38-.29-.55,0-1.06.07-1.52.2-.46.13-.89.33-1.3.58l-.54-1.25c.44-.31.97-.54,1.59-.71s1.3-.24,2.04-.24c1.08,0,1.9.2,2.48.59s.86.95.86,1.68c0,.49-.17.91-.5,1.26-.34.35-.79.57-1.35.66v-.22c.66.04,1.18.24,1.57.59s.58.83.58,1.42c0,.74-.33,1.32-.98,1.76-.65.44-1.58.66-2.78.66Z"/>
          <path class="cls-3" d="m245.94,28.49c-1.35,0-2.42-.37-3.18-1.12-.77-.75-1.15-1.77-1.15-3.07,0-.84.17-1.58.5-2.21.33-.63.79-1.12,1.38-1.47.59-.35,1.28-.53,2.07-.53s1.43.17,1.95.5c.52.33.92.79,1.19,1.39.27.6.41,1.3.41,2.1v.53h-5.89v-1.06h4.46l-.27.22c0-.75-.16-1.32-.47-1.71-.31-.39-.77-.59-1.37-.59-.66,0-1.17.23-1.53.7-.36.47-.54,1.13-.54,1.97v.21c0,.87.22,1.53.65,1.96.43.43,1.04.65,1.83.65.46,0,.89-.06,1.29-.18.4-.12.78-.32,1.14-.6l.59,1.34c-.38.31-.84.55-1.38.72-.53.17-1.1.26-1.7.26Z"/>
          <path class="cls-3" d="m251.03,31.78v-9.52c0-.33-.01-.67-.03-1.01s-.05-.68-.1-1.01h1.94l.18,1.7h-.18c.16-.57.5-1.02,1.02-1.35.52-.34,1.12-.5,1.8-.5s1.34.17,1.87.5c.53.34.95.82,1.25,1.44.3.62.45,1.37.45,2.25s-.15,1.63-.45,2.26c-.3.63-.71,1.11-1.25,1.45-.53.34-1.16.5-1.87.5-.67,0-1.26-.17-1.78-.5-.51-.33-.85-.77-1.02-1.33h.18v5.12h-2Zm4.06-4.83c.64,0,1.15-.22,1.54-.66.38-.44.58-1.11.58-2.01s-.19-1.56-.58-2-.9-.66-1.54-.66-1.14.22-1.52.66-.58,1.1-.58,2,.19,1.56.58,2.01c.38.44.89.66,1.52.66Z"/>
          <path class="cls-3" d="m261.1,28.33v-8.08h1.98v3.17h3.65v-3.17h1.98v8.08h-1.98v-3.38h-3.65v3.38h-1.98Z"/>
          <path class="cls-3" d="m274.7,28.49c-.83,0-1.55-.17-2.16-.51-.61-.34-1.08-.83-1.42-1.46-.34-.63-.5-1.38-.5-2.24s.17-1.61.5-2.23c.34-.62.81-1.11,1.42-1.45.61-.34,1.33-.51,2.16-.51s1.55.17,2.17.51,1.09.82,1.42,1.45c.34.62.5,1.37.5,2.23s-.17,1.61-.5,2.24c-.34.63-.81,1.11-1.42,1.46s-1.34.51-2.17.51Zm0-1.54c.63,0,1.13-.22,1.5-.66.37-.44.56-1.11.56-2.01s-.19-1.56-.56-2c-.37-.44-.87-.66-1.5-.66s-1.13.22-1.5.66-.56,1.1-.56,2,.19,1.56.56,2.01c.37.44.88.66,1.5.66Z"/>
          <path class="cls-3" d="m280.69,28.33v-8.08h1.66l2.78,4.83,2.78-4.83h1.66v8.08h-1.76v-5.84h.37l-2.59,4.53h-.93l-2.59-4.53h.37v5.84h-1.76Z"/>
          <path class="cls-3" d="m296.24,28.33v-8.08h7.57v8.08h-1.98v-6.54h-3.6v6.54h-1.98Z"/>
          <path class="cls-3" d="m306.14,31.78v-9.52c0-.33-.01-.67-.03-1.01s-.05-.68-.1-1.01h1.94l.18,1.7h-.18c.16-.57.5-1.02,1.02-1.35.52-.34,1.12-.5,1.8-.5s1.34.17,1.87.5c.53.34.95.82,1.25,1.44.3.62.45,1.37.45,2.25s-.15,1.63-.45,2.26c-.3.63-.71,1.11-1.25,1.45-.53.34-1.16.5-1.87.5-.67,0-1.26-.17-1.78-.5-.51-.33-.85-.77-1.02-1.33h.18v5.12h-2Zm4.06-4.83c.64,0,1.15-.22,1.54-.66.38-.44.58-1.11.58-2.01s-.19-1.56-.58-2-.9-.66-1.54-.66-1.14.22-1.52.66-.58,1.1-.58,2,.19,1.56.58,2.01c.38.44.89.66,1.52.66Z"/>
          <path class="cls-3" d="m316.22,28.33v-8.08h1.81v6.11h-.48l4.59-6.11h1.65v8.08h-1.81v-6.13h.5l-4.61,6.13h-1.65Z"/>
          <path class="cls-3" d="m326.06,28.33v-8.08h1.98v3.17h3.65v-3.17h1.98v8.08h-1.98v-3.38h-3.65v3.38h-1.98Z"/>
          <path class="cls-3" d="m337.7,28.33v-6.51h-2.77v-1.57h7.54v1.57h-2.78v6.51h-1.98Z"/>
          <path class="cls-3" d="m347.58,28.49c-1.35,0-2.42-.37-3.18-1.12-.77-.75-1.15-1.77-1.15-3.07,0-.84.17-1.58.5-2.21.33-.63.79-1.12,1.38-1.47.59-.35,1.28-.53,2.07-.53s1.43.17,1.95.5c.52.33.92.79,1.19,1.39.27.6.41,1.3.41,2.1v.53h-5.89v-1.06h4.46l-.27.22c0-.75-.16-1.32-.47-1.71-.31-.39-.77-.59-1.37-.59-.66,0-1.17.23-1.53.7-.36.47-.54,1.13-.54,1.97v.21c0,.87.22,1.53.65,1.96.43.43,1.04.65,1.83.65.46,0,.89-.06,1.29-.18.4-.12.78-.32,1.14-.6l.59,1.34c-.38.31-.84.55-1.38.72-.53.17-1.1.26-1.7.26Z"/>
          <path class="cls-3" d="m352.67,31.78v-9.52c0-.33-.01-.67-.03-1.01s-.05-.68-.1-1.01h1.94l.18,1.7h-.18c.16-.57.5-1.02,1.02-1.35.52-.34,1.12-.5,1.8-.5s1.34.17,1.87.5c.53.34.95.82,1.25,1.44.3.62.45,1.37.45,2.25s-.15,1.63-.45,2.26c-.3.63-.71,1.11-1.25,1.45-.53.34-1.16.5-1.87.5-.67,0-1.26-.17-1.78-.5-.51-.33-.85-.77-1.02-1.33h.18v5.12h-2Zm4.06-4.83c.64,0,1.15-.22,1.54-.66.38-.44.58-1.11.58-2.01s-.19-1.56-.58-2-.9-.66-1.54-.66-1.14.22-1.52.66-.58,1.1-.58,2,.19,1.56.58,2.01c.38.44.89.66,1.52.66Z"/>
          <path class="cls-3" d="m366.72,28.49c-1.35,0-2.42-.37-3.18-1.12-.77-.75-1.15-1.77-1.15-3.07,0-.84.17-1.58.5-2.21.33-.63.79-1.12,1.38-1.47.59-.35,1.28-.53,2.07-.53s1.43.17,1.95.5c.52.33.92.79,1.19,1.39.27.6.41,1.3.41,2.1v.53h-5.89v-1.06h4.46l-.27.22c0-.75-.16-1.32-.47-1.71-.31-.39-.77-.59-1.37-.59-.66,0-1.17.23-1.53.7-.36.47-.54,1.13-.54,1.97v.21c0,.87.22,1.53.65,1.96.43.43,1.04.65,1.83.65.46,0,.89-.06,1.29-.18.4-.12.78-.32,1.14-.6l.59,1.34c-.38.31-.84.55-1.38.72-.53.17-1.1.26-1.7.26Z"/>
        </g>
        <g>
          <path class="cls-3" d="m173.34,163.94v-11.28h2.03v4.8h1.92l-.42.27,3.33-5.07h2.27l-3.71,5.46-.78-.58c.73.11,1.33.35,1.82.74.49.39.91.94,1.27,1.64l2,4.02h-2.22l-1.55-3.25c-.27-.57-.58-.97-.95-1.2-.37-.23-.83-.35-1.4-.35h-1.57v4.8h-2.03Z"/>
          <path class="cls-3" d="m187.45,164.1c-.7,0-1.32-.17-1.86-.5-.53-.34-.95-.82-1.25-1.45-.3-.63-.45-1.38-.45-2.26s.15-1.62.45-2.25c.3-.62.71-1.1,1.25-1.44s1.15-.5,1.86-.5,1.28.17,1.8.5c.52.34.86.79,1.03,1.35h-.18l.18-1.7h1.92c-.03.33-.06.67-.09,1.01s-.04.68-.04,1.01v6.06h-1.98l-.02-1.66h.19c-.17.55-.52,1-1.04,1.33-.52.33-1.11.5-1.78.5Zm.56-1.54c.63,0,1.14-.22,1.52-.66.38-.44.58-1.11.58-2.01s-.19-1.56-.58-2c-.38-.44-.89-.66-1.52-.66s-1.14.22-1.52.66c-.38.44-.58,1.1-.58,2s.19,1.57.57,2.01c.38.44.89.66,1.53.66Z"/>
          <path class="cls-3" d="m194.48,167.39v-9.52c0-.33-.01-.67-.03-1.01s-.05-.68-.1-1.01h1.94l.18,1.7h-.18c.16-.56.5-1.02,1.02-1.35.52-.34,1.12-.5,1.8-.5s1.34.17,1.87.5c.53.34.95.82,1.25,1.44.3.62.45,1.37.45,2.25s-.15,1.63-.45,2.26c-.3.63-.71,1.11-1.25,1.45-.53.34-1.16.5-1.87.5-.67,0-1.26-.17-1.78-.5-.51-.33-.85-.77-1.02-1.33h.18v5.12h-2Zm4.06-4.83c.64,0,1.15-.22,1.54-.66.38-.44.58-1.11.58-2.01s-.19-1.56-.58-2c-.38-.44-.9-.66-1.54-.66s-1.14.22-1.52.66c-.38.44-.58,1.1-.58,2s.19,1.57.58,2.01c.38.44.89.66,1.52.66Z"/>
          <path class="cls-3" d="m206.3,163.94v-6.51h-2.77v-1.57h7.54v1.57h-2.78v6.51h-1.98Z"/>
          <path class="cls-3" d="m212.3,163.94v-8.08h1.81v6.11h-.48l4.59-6.11h1.65v8.08h-1.81v-6.13h.5l-4.61,6.13h-1.65Z"/>
          <path class="cls-3" d="m222.14,163.94v-8.08h1.98v3.17h3.65v-3.17h1.98v8.08h-1.98v-3.38h-3.65v3.38h-1.98Z"/>
          <path class="cls-3" d="m232.03,163.94v-8.08h1.98v3.17h1.22l2.37-3.17h2.14l-2.98,4.03-.43-.62c.3.03.56.11.79.24.23.13.45.31.66.54s.41.52.62.87l1.7,3.02h-2.13l-1.38-2.43c-.14-.25-.28-.44-.42-.58s-.29-.24-.46-.29c-.17-.05-.38-.08-.62-.08h-1.07v3.38h-1.98Z"/>
          <path class="cls-3" d="m244.33,164.1c-.7,0-1.32-.17-1.86-.5-.53-.34-.95-.82-1.25-1.45-.3-.63-.45-1.38-.45-2.26s.15-1.62.45-2.25c.3-.62.71-1.1,1.25-1.44s1.15-.5,1.86-.5,1.28.17,1.8.5.86.79,1.03,1.35h-.18l.18-1.7h1.92c-.03.33-.06.67-.09,1.01-.03.34-.04.68-.04,1.01v6.06h-1.98l-.02-1.66h.19c-.17.55-.52,1-1.04,1.33-.52.33-1.11.5-1.78.5Zm.56-1.54c.63,0,1.14-.22,1.52-.66.38-.44.58-1.11.58-2.01s-.19-1.56-.58-2c-.38-.44-.89-.66-1.52-.66s-1.14.22-1.52.66c-.38.44-.58,1.1-.58,2s.19,1.57.57,2.01c.38.44.89.66,1.53.66Z"/>
        </g>
        <g>
          <path class="cls-3" d="m188.83,210.02v-11.28h3.9c1.27,0,2.34.22,3.22.66s1.55,1.07,2,1.91c.45.84.68,1.86.68,3.06s-.23,2.21-.68,3.06c-.45.84-1.12,1.49-2,1.93-.88.44-1.95.66-3.22.66h-3.9Zm1.66-1.39h2.14c1.45,0,2.53-.35,3.24-1.06.71-.7,1.06-1.77,1.06-3.2s-.35-2.49-1.06-3.19c-.71-.7-1.79-1.05-3.24-1.05h-2.14v8.5Z"/>
          <path class="cls-3" d="m200.51,204.38c0-1.18.21-2.21.62-3.07s1.02-1.53,1.82-2c.79-.47,1.74-.7,2.84-.7s2.03.23,2.82.7c.79.47,1.4,1.14,1.83,2s.65,1.88.65,3.06-.22,2.21-.65,3.08c-.43.87-1.05,1.54-1.84,2.02-.79.47-1.73.71-2.81.71s-2.04-.24-2.83-.71c-.79-.47-1.4-1.15-1.82-2.02-.42-.87-.63-1.89-.63-3.06Zm1.74,0c0,1.37.3,2.43.9,3.2.6.77,1.48,1.15,2.64,1.15s2.01-.38,2.62-1.14c.62-.76.93-1.83.93-3.21s-.31-2.44-.92-3.2-1.49-1.14-2.63-1.14-2.04.38-2.64,1.14c-.6.76-.9,1.82-.9,3.2Z"/>
          <path class="cls-3" d="m218.43,210.17c-1.15,0-2.13-.23-2.94-.7-.81-.47-1.43-1.14-1.86-2.01-.43-.87-.65-1.9-.65-3.08s.22-2.21.65-3.07c.43-.86,1.05-1.53,1.86-2,.81-.47,1.79-.7,2.94-.7.8,0,1.51.12,2.14.35.63.23,1.18.58,1.65,1.02l-.58,1.33c-.51-.44-1.01-.75-1.5-.94-.49-.19-1.05-.29-1.69-.29-1.22,0-2.14.37-2.78,1.12-.64.75-.96,1.81-.96,3.18s.32,2.44.96,3.19,1.57,1.13,2.78,1.13c.64,0,1.2-.1,1.69-.29.49-.19.98-.51,1.5-.96l.58,1.33c-.47.45-1.02.79-1.65,1.03-.63.24-1.34.36-2.14.36Z"/>
          <path class="cls-3" d="m228.89,210.17c-1.57,0-2.73-.39-3.5-1.18-.76-.79-1.14-1.96-1.14-3.5v-6.74h1.66v6.7c0,1.09.24,1.91.71,2.46.47.55,1.23.82,2.26.82.98,0,1.72-.28,2.22-.82.5-.55.75-1.37.75-2.46v-6.7h1.63v6.74c0,1.55-.39,2.71-1.17,3.5-.78.79-1.92,1.18-3.44,1.18Z"/>
        </g>
        <g>
          <path class="cls-3" d="m544.41,119.99c-.49,0-.98-.05-1.46-.16s-.93-.26-1.34-.46c-.42-.2-.78-.43-1.09-.71l.58-1.26c.51.39,1.04.69,1.58.89.54.2,1.11.3,1.7.3.76,0,1.35-.2,1.78-.59s.65-.92.65-1.58-.21-1.23-.62-1.66c-.41-.42-.98-.63-1.7-.63-.5,0-.96.1-1.37.3-.41.2-.77.51-1.08.93h-1.15v-6.78h6.83v1.39h-5.25v4.06h-.42c.29-.4.67-.72,1.16-.94s1.03-.34,1.64-.34c.73,0,1.35.15,1.89.45.53.3.95.71,1.24,1.25.29.53.44,1.16.44,1.89s-.16,1.36-.49,1.91c-.33.55-.79.98-1.39,1.29-.6.31-1.31.46-2.14.46Z"/>
          <path class="cls-3" d="m554.6,123.31v-9.58c0-.31-.01-.63-.04-.95-.03-.32-.06-.65-.09-.98h1.57l.16,1.82h-.18c.17-.61.51-1.09,1.03-1.44s1.13-.53,1.85-.53,1.34.17,1.87.5c.53.34.95.81,1.24,1.43s.44,1.37.44,2.24-.15,1.61-.44,2.24c-.29.63-.71,1.11-1.24,1.44-.53.33-1.16.5-1.87.5s-1.31-.17-1.83-.52c-.52-.35-.86-.82-1.03-1.42h.18v5.25h-1.62Zm3.9-4.58c.7,0,1.27-.25,1.69-.74s.63-1.22.63-2.18-.21-1.68-.63-2.17-.98-.73-1.69-.73-1.27.24-1.69.73-.63,1.21-.63,2.17.21,1.69.63,2.18.98.74,1.69.74Z"/>
          <path class="cls-3" d="m563.95,119.85v-1.9h1.9v1.9h-1.9Z"/>
        </g>
        <g>
          <path class="cls-3" d="m542.32,74.76l5.1-11.28h1.73l5.17,11.28h-2.1l-1.38-3.17.83.56h-6.77l.86-.56-1.38,3.17h-2.08Zm5.95-9.07l-2.26,5.34-.42-.5h5.38l-.34.5-2.3-5.34h-.06Z"/>
          <path class="cls-3" d="m560.02,74.76v-2.21h-5.04v-1.44l5.36-7.63h1.66v7.5h1.62v1.57h-1.62v2.21h-1.98Zm0-3.78v-5.07h.38l-3.89,5.55v-.48h3.5Z"/>
        </g>
        <g>
          <path class="cls-3" d="m544.25,164.08c-1.3,0-2.31-.28-3.04-.83-.73-.55-1.09-1.33-1.09-2.32,0-.79.24-1.44.72-1.96s1.11-.83,1.89-.94v.29c-.7-.15-1.27-.47-1.69-.97-.42-.5-.63-1.11-.63-1.82,0-.94.34-1.67,1.02-2.21.68-.53,1.62-.8,2.82-.8s2.15.27,2.83.8c.68.53,1.02,1.27,1.02,2.21,0,.71-.2,1.33-.6,1.83-.4.51-.95.82-1.64.95v-.27c.77.11,1.38.42,1.84.94s.69,1.17.69,1.96c0,.99-.36,1.76-1.09,2.32-.73.55-1.74.83-3.06.83Zm0-1.31c.86,0,1.51-.16,1.94-.49.43-.33.64-.81.64-1.46s-.21-1.13-.64-1.46-1.07-.48-1.94-.48-1.51.16-1.94.48-.64.8-.64,1.46.22,1.14.65,1.46c.43.33,1.07.49,1.93.49Zm0-5.2c.75,0,1.31-.17,1.7-.5.39-.34.58-.8.58-1.38s-.19-1.03-.58-1.36c-.39-.33-.96-.5-1.7-.5s-1.3.17-1.7.5c-.39.33-.59.79-.59,1.36s.2,1.05.59,1.38.96.5,1.7.5Z"/>
          <path class="cls-3" d="m554.6,167.39v-9.58c0-.31-.01-.63-.04-.95-.03-.33-.06-.65-.09-.98h1.57l.16,1.82h-.18c.17-.61.51-1.09,1.03-1.44s1.13-.53,1.85-.53,1.34.17,1.87.5c.53.34.95.81,1.24,1.43s.44,1.37.44,2.24-.15,1.61-.44,2.24c-.29.63-.71,1.11-1.24,1.44-.53.33-1.16.5-1.87.5s-1.31-.17-1.83-.52c-.52-.35-.86-.82-1.03-1.42h.18v5.25h-1.62Zm3.9-4.58c.7,0,1.27-.24,1.69-.74s.63-1.22.63-2.18-.21-1.68-.63-2.17c-.42-.48-.98-.73-1.69-.73s-1.27.24-1.69.73c-.42.49-.63,1.21-.63,2.17s.21,1.69.63,2.18.98.74,1.69.74Z"/>
          <path class="cls-3" d="m563.95,163.94v-1.9h1.9v1.9h-1.9Z"/>
        </g>
        <g>
          <path class="cls-3" d="m535.98,210.02v-1.23l3.87-4.05c.5-.52.87-1.01,1.12-1.47.25-.46.37-.93.37-1.42,0-.61-.19-1.07-.57-1.38-.38-.31-.93-.46-1.64-.46-.57,0-1.1.1-1.59.3-.5.2-.97.51-1.43.93l-.58-1.26c.45-.42,1.01-.75,1.67-1,.67-.25,1.37-.38,2.12-.38,1.17,0,2.08.27,2.71.8s.95,1.29.95,2.29c0,.71-.17,1.38-.51,2.02-.34.65-.85,1.31-1.54,1.99l-3.34,3.38v-.45h5.86v1.39h-7.47Z"/>
          <path class="cls-3" d="m549.21,210.17c-.49,0-.98-.05-1.46-.16s-.93-.26-1.34-.46c-.42-.2-.78-.43-1.09-.71l.58-1.26c.51.39,1.04.69,1.58.89.54.2,1.11.3,1.7.3.76,0,1.35-.2,1.78-.59s.65-.92.65-1.58-.21-1.23-.62-1.66c-.41-.42-.98-.63-1.7-.63-.5,0-.96.1-1.37.3-.41.2-.77.51-1.08.93h-1.15v-6.78h6.83v1.39h-5.25v4.06h-.42c.29-.4.67-.72,1.16-.94s1.03-.34,1.64-.34c.73,0,1.35.15,1.89.45.53.3.95.71,1.24,1.25.29.53.44,1.16.44,1.89s-.16,1.36-.49,1.91c-.33.55-.79.98-1.39,1.29-.6.31-1.31.46-2.14.46Z"/>
          <path class="cls-3" d="m559.4,213.48v-9.58c0-.31-.01-.63-.04-.95-.03-.32-.06-.65-.09-.98h1.57l.16,1.82h-.18c.17-.61.51-1.09,1.03-1.44s1.13-.53,1.85-.53,1.34.17,1.87.5c.53.34.95.81,1.24,1.43.29.62.44,1.37.44,2.24s-.15,1.61-.44,2.24c-.29.63-.71,1.11-1.24,1.44-.53.33-1.16.5-1.87.5s-1.31-.17-1.83-.52c-.52-.35-.86-.82-1.03-1.42h.18v5.25h-1.62Zm3.9-4.58c.7,0,1.27-.25,1.69-.74s.63-1.22.63-2.18-.21-1.68-.63-2.17-.98-.73-1.69-.73-1.27.24-1.69.73-.63,1.21-.63,2.17.21,1.69.63,2.18.98.74,1.69.74Z"/>
          <path class="cls-3" d="m568.75,210.02v-1.9h1.9v1.9h-1.9Z"/>
        </g>
        <g>
          <path class="cls-3" d="m20.45,251.76v-11.28h7.81v1.31h-6.21v3.55h3.44c1.23,0,2.18.27,2.86.8.68.53,1.02,1.33,1.02,2.38s-.34,1.86-1.02,2.41c-.68.55-1.63.82-2.86.82h-5.04Zm1.6-1.31h3.26c.83,0,1.45-.16,1.84-.47.39-.31.59-.79.59-1.43s-.2-1.11-.59-1.42c-.4-.31-1.01-.46-1.84-.46h-3.26v3.79Z"/>
          <path class="cls-3" d="m31.08,255.39l-.38-1.31c.5-.11.92-.23,1.26-.38s.62-.34.84-.58.42-.55.58-.92l.4-.94-.03.66-3.5-8.21h1.73l2.72,6.72h-.43l2.72-6.72h1.66l-3.7,8.64c-.24.53-.49.98-.75,1.34-.27.36-.55.66-.86.88-.31.22-.65.4-1.02.53-.37.13-.78.23-1.22.3Z"/>
          <path class="cls-3" d="m40.02,251.76v-8.06h1.34l2.91,5.15,2.91-5.15h1.34v8.06h-1.42v-6.26h.35l-2.8,4.96h-.77l-2.8-4.96h.35v6.26h-1.42Z"/>
          <path class="cls-3" d="m54.12,251.91c-.71,0-1.34-.17-1.87-.5s-.95-.81-1.24-1.44c-.29-.63-.44-1.38-.44-2.24s.15-1.62.44-2.24.71-1.1,1.24-1.43,1.16-.5,1.87-.5,1.32.18,1.84.53.87.83,1.04,1.44h-.18l.16-1.82h1.57c-.03.33-.06.66-.09.98-.03.33-.04.64-.04.95v6.13h-1.62v-1.79h.18c-.17.6-.52,1.07-1.05,1.42-.53.35-1.13.52-1.82.52Zm.4-1.26c.69,0,1.25-.24,1.67-.74.42-.49.63-1.22.63-2.18s-.21-1.68-.63-2.17c-.42-.48-.98-.73-1.67-.73s-1.27.24-1.69.73c-.42.49-.63,1.21-.63,2.17s.21,1.69.62,2.18.98.74,1.7.74Z"/>
          <path class="cls-3" d="m60.9,251.76v-8.06h5.81v1.3h-4.19v6.77h-1.62Z"/>
          <path class="cls-3" d="m71.33,251.91c-.71,0-1.34-.17-1.87-.5s-.95-.81-1.24-1.44c-.29-.63-.44-1.38-.44-2.24s.15-1.62.44-2.24.71-1.1,1.24-1.43,1.16-.5,1.87-.5,1.32.18,1.84.53.87.83,1.04,1.44h-.18l.16-1.82h1.57c-.03.33-.06.66-.09.98-.03.33-.04.64-.04.95v6.13h-1.62v-1.79h.18c-.17.6-.52,1.07-1.05,1.42-.53.35-1.13.52-1.82.52Zm.4-1.26c.69,0,1.25-.24,1.67-.74.42-.49.63-1.22.63-2.18s-.21-1.68-.63-2.17c-.42-.48-.98-.73-1.67-.73s-1.27.24-1.69.73c-.42.49-.63,1.21-.63,2.17s.21,1.69.62,2.18.98.74,1.7.74Z"/>
          <path class="cls-3" d="m85.99,251.91c-.81,0-1.52-.17-2.12-.5-.6-.34-1.07-.82-1.39-1.46s-.49-1.39-.49-2.26.17-1.61.5-2.22c.33-.62.79-1.09,1.39-1.42.6-.33,1.3-.49,2.11-.49.52,0,1.03.09,1.52.26.49.18.9.42,1.22.74l-.53,1.14c-.3-.29-.63-.5-1.01-.65-.37-.14-.74-.22-1.09-.22-.77,0-1.37.25-1.81.74s-.66,1.2-.66,2.13.22,1.66.66,2.16,1.04.75,1.81.75c.34,0,.7-.07,1.07-.2s.71-.35,1.02-.65l.53,1.14c-.33.32-.74.57-1.24.74-.5.18-.99.26-1.5.26Z"/>
          <path class="cls-3" d="m90.56,251.76v-8.06h1.6v3.28h4.08v-3.28h1.6v8.06h-1.6v-3.52h-4.08v3.52h-1.6Z"/>
          <path class="cls-3" d="m104.07,251.91c-1.3,0-2.33-.37-3.07-1.1-.75-.74-1.12-1.75-1.12-3.06,0-.84.16-1.58.49-2.21s.78-1.12,1.36-1.46c.58-.35,1.26-.52,2.02-.52s1.39.16,1.9.48.9.77,1.17,1.35c.27.58.4,1.27.4,2.06v.51h-6.08v-.93h4.98l-.27.21c0-.8-.18-1.42-.54-1.86-.36-.44-.87-.66-1.54-.66-.75,0-1.32.26-1.73.78-.41.52-.61,1.23-.61,2.14v.16c0,.95.23,1.66.7,2.14.46.48,1.12.72,1.98.72.47,0,.91-.07,1.32-.2.41-.13.8-.35,1.18-.66l.53,1.1c-.37.33-.83.58-1.36.76-.53.18-1.1.26-1.7.26Z"/>
          <path class="cls-3" d="m109.2,251.76v-8.06h5.81v1.3h-4.19v6.77h-1.62Z"/>
          <path class="cls-3" d="m116.31,255.39l-.38-1.31c.5-.11.92-.23,1.26-.38s.62-.34.84-.58.42-.55.58-.92l.4-.94-.03.66-3.5-8.21h1.73l2.72,6.72h-.43l2.72-6.72h1.66l-3.7,8.64c-.24.53-.49.98-.75,1.34-.27.36-.55.66-.86.88-.31.22-.65.4-1.02.53-.37.13-.78.23-1.22.3Z"/>
          <path class="cls-3" d="m125.31,255.22v-9.58c0-.31-.01-.63-.04-.95-.03-.33-.06-.65-.09-.98h1.57l.16,1.82h-.18c.17-.61.51-1.09,1.03-1.44.52-.35,1.13-.53,1.85-.53s1.34.17,1.87.5.95.81,1.24,1.43c.29.62.44,1.37.44,2.24s-.15,1.61-.44,2.24c-.29.63-.71,1.11-1.24,1.44s-1.16.5-1.87.5-1.31-.17-1.83-.52c-.52-.35-.86-.82-1.03-1.42h.18v5.25h-1.62Zm3.9-4.58c.7,0,1.27-.24,1.69-.74.42-.49.63-1.22.63-2.18s-.21-1.68-.63-2.17c-.42-.48-.98-.73-1.69-.73s-1.27.24-1.69.73c-.42.49-.63,1.21-.63,2.17s.21,1.69.63,2.18c.42.49.98.74,1.69.74Z"/>
          <path class="cls-3" d="m138.71,251.91c-.8,0-1.49-.17-2.08-.5-.59-.34-1.04-.82-1.36-1.44-.32-.62-.48-1.37-.48-2.23s.16-1.61.48-2.23.77-1.1,1.36-1.44c.59-.34,1.28-.5,2.08-.5s1.5.17,2.09.5,1.05.82,1.38,1.44c.33.62.49,1.37.49,2.23s-.16,1.61-.49,2.23c-.33.62-.78,1.1-1.38,1.44s-1.29.5-2.09.5Zm0-1.26c.7,0,1.26-.24,1.68-.74s.62-1.22.62-2.18-.21-1.68-.62-2.17c-.42-.48-.98-.73-1.68-.73s-1.25.24-1.66.73c-.42.49-.62,1.21-.62,2.17s.21,1.69.62,2.18c.41.49.97.74,1.67.74Z"/>
          <path class="cls-3" d="m149.81,251.76v-3.12c-.3.16-.62.29-.96.38-.34.09-.7.14-1.09.14-1.16,0-2.02-.27-2.58-.82-.56-.55-.84-1.37-.84-2.47v-2.16h1.6v2.03c0,.74.17,1.27.5,1.6.33.33.85.5,1.57.5.36,0,.68-.04.96-.12s.55-.21.82-.38v-3.63h1.62v8.06h-1.58Z"/>
          <path class="cls-3" d="m153.81,251.76v-8.06h1.6v3.3h1.39l2.51-3.3h1.76l-3.01,3.97-.4-.51c.31.03.58.11.8.23.22.12.44.3.66.54.21.23.43.54.66.93l1.68,2.91h-1.73l-1.44-2.46c-.16-.28-.32-.49-.46-.65-.15-.16-.32-.26-.51-.32-.19-.06-.43-.09-.7-.09h-1.2v3.52h-1.6Z"/>
          <path class="cls-3" d="m165.79,251.91c-.71,0-1.34-.17-1.87-.5s-.95-.81-1.24-1.44c-.29-.63-.44-1.38-.44-2.24s.15-1.62.44-2.24.71-1.1,1.24-1.43,1.16-.5,1.87-.5,1.32.18,1.84.53.87.83,1.04,1.44h-.18l.16-1.82h1.57c-.03.33-.06.66-.09.98-.03.33-.04.64-.04.95v6.13h-1.62v-1.79h.18c-.17.6-.52,1.07-1.05,1.42-.53.35-1.13.52-1.82.52Zm.4-1.26c.69,0,1.25-.24,1.67-.74.42-.49.63-1.22.63-2.18s-.21-1.68-.63-2.17c-.42-.48-.98-.73-1.67-.73s-1.27.24-1.69.73c-.42.49-.63,1.21-.63,2.17s.21,1.69.62,2.18.98.74,1.7.74Z"/>
          <path class="cls-3" d="m180.43,251.91c-1.3,0-2.31-.28-3.04-.83s-1.09-1.33-1.09-2.32c0-.79.24-1.44.72-1.96.48-.52,1.11-.83,1.89-.94v.29c-.7-.15-1.27-.47-1.69-.97-.42-.5-.63-1.11-.63-1.82,0-.94.34-1.67,1.02-2.21.68-.53,1.62-.8,2.82-.8s2.15.27,2.83.8c.68.53,1.02,1.27,1.02,2.21,0,.71-.2,1.33-.6,1.83-.4.51-.95.82-1.64.95v-.27c.77.11,1.38.42,1.84.94s.69,1.17.69,1.96c0,.99-.36,1.76-1.09,2.32-.73.55-1.74.83-3.06.83Zm0-1.31c.86,0,1.51-.16,1.94-.49.43-.33.64-.81.64-1.46s-.21-1.13-.64-1.46c-.43-.32-1.07-.48-1.94-.48s-1.51.16-1.94.48c-.43.32-.64.8-.64,1.46s.22,1.14.65,1.46c.43.33,1.07.49,1.93.49Zm0-5.2c.75,0,1.31-.17,1.7-.5s.58-.8.58-1.38-.19-1.03-.58-1.36c-.39-.33-.96-.5-1.7-.5s-1.3.17-1.7.5c-.39.33-.59.79-.59,1.36s.2,1.05.59,1.38.96.5,1.7.5Z"/>
          <path class="cls-3" d="m190.03,251.91c-1.3,0-2.3-.5-3-1.5s-1.05-2.43-1.05-4.3.35-3.34,1.05-4.31c.7-.98,1.7-1.46,3-1.46s2.31.49,3.01,1.46c.69.98,1.04,2.41,1.04,4.3s-.35,3.31-1.05,4.31-1.7,1.5-3,1.5Zm0-1.39c.82,0,1.43-.36,1.83-1.07.4-.71.6-1.83.6-3.34s-.2-2.64-.6-3.34c-.4-.7-1.01-1.05-1.83-1.05s-1.42.35-1.82,1.05c-.41.7-.61,1.8-.61,3.32s.21,2.65.62,3.36c.41.71,1.02,1.07,1.82,1.07Z"/>
          <path class="cls-3" d="m200.32,251.76v-8.06h5.81v1.3h-4.19v6.77h-1.62Z"/>
          <path class="cls-3" d="m207.67,255.22v-9.58c0-.31-.01-.63-.04-.95-.03-.33-.06-.65-.09-.98h1.57l.16,1.82h-.18c.17-.61.51-1.09,1.03-1.44.52-.35,1.13-.53,1.85-.53s1.34.17,1.87.5.95.81,1.24,1.43c.29.62.44,1.37.44,2.24s-.15,1.61-.44,2.24c-.29.63-.71,1.11-1.24,1.44s-1.16.5-1.87.5-1.31-.17-1.83-.52c-.52-.35-.86-.82-1.03-1.42h.18v5.25h-1.62Zm3.9-4.58c.7,0,1.27-.24,1.69-.74.42-.49.63-1.22.63-2.18s-.21-1.68-.63-2.17c-.42-.48-.98-.73-1.69-.73s-1.27.24-1.69.73c-.42.49-.63,1.21-.63,2.17s.21,1.69.63,2.18c.42.49.98.74,1.69.74Z"/>
          <path class="cls-3" d="m217.01,251.76v-1.9h1.9v1.9h-1.9Z"/>
        </g>
        <g>
          <path class="cls-3" d="m791.7,119.85v-1.39h2.62v-8.48h.83l-3.2,1.95v-1.6l2.83-1.76h1.2v9.89h2.46v1.39h-6.75Z"/>
          <path class="cls-3" d="m804.18,119.99c-1.3,0-2.3-.5-3-1.5-.7-1-1.05-2.43-1.05-4.3s.35-3.34,1.05-4.31c.7-.98,1.7-1.46,3-1.46s2.31.49,3.01,1.46c.69.98,1.04,2.41,1.04,4.29s-.35,3.32-1.05,4.31c-.7,1-1.7,1.5-3,1.5Zm0-1.39c.82,0,1.43-.36,1.83-1.07.4-.71.6-1.83.6-3.34s-.2-2.64-.6-3.34c-.4-.7-1.01-1.05-1.83-1.05s-1.42.35-1.82,1.05c-.41.7-.61,1.81-.61,3.32s.21,2.65.62,3.36c.41.71,1.02,1.07,1.82,1.07Z"/>
          <path class="cls-3" d="m814.53,123.31v-9.58c0-.31-.01-.63-.04-.95-.03-.32-.06-.65-.09-.98h1.57l.16,1.82h-.18c.17-.61.51-1.09,1.03-1.44s1.13-.53,1.85-.53,1.34.17,1.87.5c.53.34.95.81,1.24,1.43.29.62.44,1.37.44,2.24s-.15,1.61-.44,2.24c-.29.63-.71,1.11-1.24,1.44-.53.33-1.16.5-1.87.5s-1.31-.17-1.83-.52c-.52-.35-.86-.82-1.03-1.42h.18v5.25h-1.62Zm3.9-4.58c.7,0,1.27-.25,1.69-.74s.63-1.22.63-2.18-.21-1.68-.63-2.17-.98-.73-1.69-.73-1.27.24-1.69.73-.63,1.21-.63,2.17.21,1.69.63,2.18.98.74,1.69.74Z"/>
          <path class="cls-3" d="m823.88,119.85v-1.9h1.9v1.9h-1.9Z"/>
        </g>
        <g>
          <path class="cls-3" d="m797.45,74.76l5.1-11.28h1.73l5.17,11.28h-2.1l-1.38-3.17.83.56h-6.77l.86-.56-1.38,3.17h-2.08Zm5.95-9.07l-2.26,5.34-.42-.5h5.38l-.34.5-2.3-5.34h-.06Z"/>
          <path class="cls-3" d="m814.08,74.92c-.78,0-1.53-.12-2.24-.34-.71-.23-1.3-.55-1.76-.95l.67-1.55c.5.38,1.02.67,1.56.85.54.18,1.11.27,1.7.27.73,0,1.27-.14,1.65-.43.37-.29.56-.71.56-1.26s-.18-.94-.55-1.21c-.37-.27-.9-.41-1.61-.41h-1.82v-1.65h1.65c.61,0,1.09-.15,1.46-.45.36-.3.54-.71.54-1.23,0-.49-.17-.86-.5-1.12-.34-.26-.82-.38-1.45-.38-1.13,0-2.13.38-2.99,1.15l-.67-1.54c.46-.43,1.03-.76,1.7-.99.68-.23,1.39-.35,2.14-.35,1.17,0,2.09.26,2.76.79.67.53,1,1.26,1,2.2,0,.67-.19,1.25-.57,1.74-.38.49-.9.81-1.56.97v-.19c.78.13,1.38.45,1.82.95s.65,1.14.65,1.9c0,1-.37,1.79-1.1,2.38-.74.58-1.74.87-3.02.87Z"/>
        </g>
        <g>
          <path class="cls-3" d="m791.7,163.94v-1.39h2.62v-8.48h.83l-3.2,1.95v-1.6l2.83-1.76h1.2v9.89h2.46v1.39h-6.75Z"/>
          <path class="cls-3" d="m804.57,164.08c-1.4,0-2.47-.49-3.22-1.46s-1.13-2.33-1.13-4.08c0-1.3.19-2.4.58-3.29.38-.89.93-1.57,1.64-2.04.71-.47,1.57-.7,2.57-.7.6,0,1.19.11,1.79.34.6.23,1.1.55,1.5.97l-.59,1.25c-.39-.38-.83-.67-1.3-.86s-.94-.29-1.42-.29c-1.03,0-1.82.36-2.37,1.08s-.82,1.79-.82,3.22v1.36h-.16c.07-.58.26-1.07.54-1.5.29-.42.66-.74,1.12-.97s.97-.34,1.54-.34c.67,0,1.27.15,1.78.46.52.31.92.73,1.22,1.27.3.54.45,1.15.45,1.85s-.16,1.35-.48,1.92c-.32.57-.76,1.01-1.32,1.32s-1.2.47-1.93.47Zm-.1-1.34c.45,0,.84-.1,1.18-.29.34-.19.6-.46.79-.81.19-.35.29-.75.29-1.21s-.1-.86-.29-1.2c-.19-.34-.46-.61-.79-.81-.34-.2-.73-.3-1.18-.3s-.84.1-1.18.3c-.34.2-.61.47-.8.81-.19.34-.29.74-.29,1.2s.1.86.29,1.21c.19.35.46.62.8.81.34.19.74.29,1.18.29Z"/>
          <path class="cls-3" d="m814.53,167.39v-9.58c0-.31-.01-.63-.04-.95-.03-.33-.06-.65-.09-.98h1.57l.16,1.82h-.18c.17-.61.51-1.09,1.03-1.44s1.13-.53,1.85-.53,1.34.17,1.87.5c.53.34.95.81,1.24,1.43.29.62.44,1.37.44,2.24s-.15,1.61-.44,2.24c-.29.63-.71,1.11-1.24,1.44-.53.33-1.16.5-1.87.5s-1.31-.17-1.83-.52c-.52-.35-.86-.82-1.03-1.42h.18v5.25h-1.62Zm3.9-4.58c.7,0,1.27-.24,1.69-.74s.63-1.22.63-2.18-.21-1.68-.63-2.17c-.42-.48-.98-.73-1.69-.73s-1.27.24-1.69.73c-.42.49-.63,1.21-.63,2.17s.21,1.69.63,2.18.98.74,1.69.74Z"/>
          <path class="cls-3" d="m823.88,163.94v-1.9h1.9v1.9h-1.9Z"/>
        </g>
        <g>
          <path class="cls-3" d="m794.74,210.17c-.49,0-.98-.05-1.46-.16s-.93-.26-1.34-.46c-.42-.2-.78-.43-1.09-.71l.58-1.26c.51.39,1.04.69,1.58.89.54.2,1.11.3,1.7.3.76,0,1.35-.2,1.78-.59s.65-.92.65-1.58-.21-1.23-.62-1.66c-.41-.42-.98-.63-1.7-.63-.5,0-.96.1-1.37.3-.41.2-.77.51-1.08.93h-1.15v-6.78h6.83v1.39h-5.25v4.06h-.42c.29-.4.67-.72,1.16-.94s1.03-.34,1.64-.34c.73,0,1.35.15,1.89.45.53.3.95.71,1.24,1.25.29.53.44,1.16.44,1.89s-.16,1.36-.49,1.91c-.33.55-.79.98-1.39,1.29-.6.31-1.31.46-2.14.46Z"/>
          <path class="cls-3" d="m804.18,210.17c-1.3,0-2.3-.5-3-1.5-.7-1-1.05-2.43-1.05-4.3s.35-3.34,1.05-4.31c.7-.98,1.7-1.46,3-1.46s2.31.49,3.01,1.46c.69.98,1.04,2.41,1.04,4.29s-.35,3.32-1.05,4.31c-.7,1-1.7,1.5-3,1.5Zm0-1.39c.82,0,1.43-.36,1.83-1.07.4-.71.6-1.83.6-3.34s-.2-2.64-.6-3.34c-.4-.7-1.01-1.05-1.83-1.05s-1.42.35-1.82,1.05c-.41.7-.61,1.81-.61,3.32s.21,2.65.62,3.36c.41.71,1.02,1.07,1.82,1.07Z"/>
          <path class="cls-3" d="m814.53,213.48v-9.58c0-.31-.01-.63-.04-.95-.03-.32-.06-.65-.09-.98h1.57l.16,1.82h-.18c.17-.61.51-1.09,1.03-1.44s1.13-.53,1.85-.53,1.34.17,1.87.5c.53.34.95.81,1.24,1.43.29.62.44,1.37.44,2.24s-.15,1.61-.44,2.24c-.29.63-.71,1.11-1.24,1.44-.53.33-1.16.5-1.87.5s-1.31-.17-1.83-.52c-.52-.35-.86-.82-1.03-1.42h.18v5.25h-1.62Zm3.9-4.58c.7,0,1.27-.25,1.69-.74s.63-1.22.63-2.18-.21-1.68-.63-2.17-.98-.73-1.69-.73-1.27.24-1.69.73-.63,1.21-.63,2.17.21,1.69.63,2.18.98.74,1.69.74Z"/>
          <path class="cls-3" d="m823.88,210.02v-1.9h1.9v1.9h-1.9Z"/>
        </g>
      </g>
    </g>
  </g>
</svg>