<?xml version="1.0" encoding="UTF-8"?>
<svg id="_Слой_2" data-name="Слой 2" xmlns="http://www.w3.org/2000/svg" viewBox="0 0 938.92 780.74">
  <defs>
    <style>
      .cls-1 {
        font-family: Mulish-Bold, Mulish;
        font-weight: 700;
      }

      .cls-1, .cls-2 {
        fill: #27625f;
        font-size: 16px;
      }

      .cls-3 {
        fill: #fff;
      }

      .cls-3, .cls-4 {
        stroke: #a0b6b5;
        stroke-miterlimit: 10;
      }

      .cls-5 {
        letter-spacing: 0em;
      }

      .cls-6 {
        letter-spacing: 0em;
      }

      .cls-2 {
        font-family: Mulish-SemiBold, Mulish;
        font-weight: 600;
      }

      .cls-7 {
        letter-spacing: -.06em;
      }

      .cls-8 {
        letter-spacing: -.02em;
      }

      .cls-9 {
        letter-spacing: 0em;
      }

      .cls-10 {
        letter-spacing: 0em;
      }

      .cls-11 {
        letter-spacing: .02em;
      }

      .cls-12 {
        letter-spacing: -.02em;
      }

      .cls-13 {
        letter-spacing: 0em;
      }

      .cls-14 {
        letter-spacing: -.01em;
      }

      .cls-15 {
        letter-spacing: 0em;
      }

      .cls-16 {
        letter-spacing: -.02em;
      }

      .cls-17 {
        letter-spacing: 0em;
      }

      .cls-18 {
        letter-spacing: -.02em;
      }

      .cls-19 {
        letter-spacing: 0em;
      }

      .cls-20 {
        letter-spacing: -.01em;
      }

      .cls-21 {
        letter-spacing: -.02em;
      }

      .cls-4 {
        fill: none;
      }
    </style>
  </defs>
  <g id="_Слой_1-2" data-name="Слой 1">
    <g>
      <g>
        <g>
          <rect class="cls-3" x=".5" y="488.09" width="937.92" height="226.38" rx="10" ry="10"/>
          <line class="cls-4" x1="938.42" y1="535.3" x2=".5" y2="535.3"/>
          <line class="cls-4" x1="714.31" y1="580.48" x2=".5" y2="580.48"/>
          <line class="cls-4" x1="884.39" y1="580.48" x2="769.87" y2="580.48"/>
          <line class="cls-4" x1="586.94" y1="714.47" x2="586.94" y2="488.09"/>
          <line class="cls-4" x1="769.79" y1="714.47" x2="769.79" y2="488.09"/>
          <line class="cls-4" x1="938.42" y1="624.47" x2=".5" y2="624.47"/>
          <line class="cls-4" x1="938.42" y1="669.65" x2=".5" y2="669.65"/>
        </g>
        <text class="cls-2" transform="translate(17.62 737.97)"><tspan class="cls-14" x="0" y="0">Р</tspan><tspan class="cls-13" x="10.34" y="0">азрем х разрем х сумма на м</tspan></text>
        <text class="cls-2" transform="translate(256.64 732.65) scale(.58)"><tspan x="0" y="0">2 </tspan></text>
        <text class="cls-2" transform="translate(264.73 737.97)"><tspan class="cls-17" x="0" y="0">+ 20% резка (резка в край)</tspan><tspan class="cls-8" x="-247.11" y="19.2">Р</tspan><tspan class="cls-13" x="-236.85" y="19.2">езка + размер х 2 х (люверсы и проклейку)</tspan><tspan class="cls-8" x="-247.11" y="38.4">С</tspan><tspan class="cls-5" x="-236.42" y="38.4">умма печати + сумма проклейки и люверсов = и</tspan><tspan class="cls-19" x="142.2" y="38.4">т</tspan><tspan x="149.64" y="38.4">оговая цена</tspan></text>
        <g>
          <text class="cls-1" transform="translate(17.62 517.9)"><tspan x="0" y="0">Прочие работы</tspan></text>
          <text class="cls-1" transform="translate(17.62 564.36)"><tspan x="0" y="0">Люверсовка</tspan></text>
          <text class="cls-1" transform="translate(17.62 608.46)"><tspan x="0" y="0">Проклейка края</tspan></text>
          <text class="cls-1" transform="translate(17.62 652.37)"><tspan x="0" y="0">Люверс</tspan></text>
          <text class="cls-1" transform="translate(17.62 696.89)"><tspan x="0" y="0">Проклейка края «карман»</tspan></text>
          <text class="cls-2" transform="translate(649.35 563.35)"><tspan x="0" y="0">43 </tspan><tspan class="cls-12" x="23.47" y="0">р</tspan><tspan x="33.15" y="0">. п.м</tspan></text>
          <text class="cls-2" transform="translate(649.35 610.03)"><tspan x="0" y="0">60 </tspan><tspan class="cls-12" x="23.47" y="0">р</tspan><tspan x="33.15" y="0">. п.м</tspan></text>
          <text class="cls-2" transform="translate(719.4 585.43)"><tspan x="0" y="0">103 </tspan><tspan class="cls-18" x="33.07" y="0">р</tspan><tspan class="cls-15" x="42.75" y="0">.</tspan></text>
          <text class="cls-2" transform="translate(887.4 585.43)"><tspan x="0" y="0">124 </tspan><tspan class="cls-18" x="33.07" y="0">р</tspan><tspan class="cls-15" x="42.75" y="0">.</tspan></text>
          <text class="cls-2" transform="translate(649.35 654.14)"><tspan x="0" y="0">26 </tspan><tspan class="cls-12" x="23.47" y="0">р</tspan><tspan x="33.15" y="0">. п.м</tspan></text>
          <text class="cls-2" transform="translate(644.55 700.05)"><tspan x="0" y="0">110 </tspan><tspan class="cls-16" x="33.07" y="0">р</tspan><tspan x="42.75" y="0">. п.м</tspan></text>
          <text class="cls-1" transform="translate(653.86 518.06)"><tspan x="0" y="0">до 1,5м</tspan></text>
          <text class="cls-2" transform="translate(825.43 563.35)"><tspan x="0" y="0">60 </tspan><tspan class="cls-12" x="23.47" y="0">р</tspan><tspan x="33.15" y="0">. п.м</tspan></text>
          <text class="cls-2" transform="translate(825.43 610.03)"><tspan x="0" y="0">64 </tspan><tspan class="cls-12" x="23.47" y="0">р</tspan><tspan x="33.15" y="0">. п.м</tspan></text>
          <text class="cls-2" transform="translate(825.43 654.14)"><tspan x="0" y="0">26 </tspan><tspan class="cls-12" x="23.47" y="0">р</tspan><tspan x="33.15" y="0">. п.м</tspan></text>
          <text class="cls-2" transform="translate(820.63 700.05)"><tspan x="0" y="0">110 </tspan><tspan class="cls-16" x="33.07" y="0">р</tspan><tspan x="42.75" y="0">. п.м</tspan></text>
          <text class="cls-1" transform="translate(837.12 518.06)"><tspan x="0" y="0">до 3м</tspan></text>
        </g>
      </g>
      <g>
        <g>
          <g>
            <rect class="cls-3" x=".5" y=".5" width="937.92" height="401.67" rx="10" ry="10"/>
            <line class="cls-4" x1="938.42" y1="88.95" x2="442.93" y2="88.95"/>
            <line class="cls-4" x1="938.42" y1="134.13" x2=".5" y2="134.13"/>
            <line class="cls-4" x1="938.42" y1="44.92" x2=".5" y2="44.92"/>
            <line class="cls-4" x1="938.42" y1="179.32" x2=".5" y2="179.32"/>
            <line class="cls-4" x1="938.42" y1="224.5" x2=".5" y2="224.5"/>
            <line class="cls-4" x1="442.93" y1="224.5" x2="442.93" y2="44.92"/>
            <line class="cls-4" x1="442.93" y1="402.17" x2="442.93" y2="269.08"/>
            <line class="cls-4" x1="563.98" y1="224.5" x2="563.98" y2="88.95"/>
            <line class="cls-4" x1="682.15" y1="224.5" x2="682.15" y2="88.95"/>
            <line class="cls-4" x1="805.02" y1="224.5" x2="805.02" y2="88.95"/>
            <line class="cls-4" x1="682.15" y1="402.17" x2="682.15" y2="268.6"/>
            <line class="cls-4" x1="938.42" y1="268.92" x2=".5" y2="268.92"/>
            <line class="cls-4" x1="938.42" y1="313.34" x2=".5" y2="313.34"/>
            <line class="cls-4" x1="938.42" y1="357.76" x2=".5" y2="357.76"/>
          </g>
          <g>
            <text class="cls-1" transform="translate(17.27 28.51)"><tspan x="0" y="0">Эк</tspan><tspan class="cls-11" x="20.27" y="0">о-</tspan><tspan x="37.46" y="0">с</tspan><tspan class="cls-20" x="45.74" y="0">о</tspan><tspan x="55.28" y="0">львентная печать до 1,5м</tspan></text>
            <text class="cls-1" transform="translate(17.27 251.13)"><tspan class="cls-20" x="0" y="0">Со</tspan><tspan x="20.34" y="0">львентная печать до 3 м</tspan></text>
            <text class="cls-2" transform="translate(17.27 341.32)"><tspan x="0" y="0">Банне</tspan><tspan class="cls-16" x="49.2" y="0">р</tspan><tspan class="cls-17" x="58.88" y="0">, Китай 440 г</tspan><tspan class="cls-7" x="159.07" y="0">/</tspan><tspan class="cls-15" x="162.91" y="0">м2</tspan></text>
            <text class="cls-2" transform="translate(17.27 386.35)"><tspan x="0" y="0">Банне</tspan><tspan class="cls-16" x="49.2" y="0">р</tspan><tspan class="cls-17" x="58.88" y="0">, ли</tspan><tspan class="cls-19" x="86.16" y="0">т</tspan><tspan x="93.6" y="0">ой 510 г</tspan><tspan class="cls-7" x="157.36" y="0">/</tspan><tspan x="161.2" y="0">м2</tspan></text>
            <text class="cls-2" transform="translate(537.52 341.32)"><tspan x="0" y="0">556</tspan><tspan class="cls-16" x="28.8" y="0">р</tspan><tspan x="38.48" y="0">.</tspan></text>
            <text class="cls-2" transform="translate(537.52 386.8)"><tspan x="0" y="0">763</tspan><tspan class="cls-16" x="28.8" y="0">р</tspan><tspan x="38.48" y="0">.</tspan></text>
            <text class="cls-2" transform="translate(790.22 341.32)"><tspan x="0" y="0">948</tspan><tspan class="cls-16" x="28.8" y="0">р</tspan><tspan x="38.48" y="0">.</tspan></text>
            <text class="cls-2" transform="translate(785.42 386.8)"><tspan x="0" y="0">1143</tspan><tspan class="cls-16" x="38.4" y="0">р</tspan><tspan x="48.08" y="0">.</tspan></text>
            <text class="cls-1" transform="translate(183.31 97.19)"><tspan x="0" y="0">Ма</tspan><tspan class="cls-10" x="24.06" y="0">т</tspan><tspan x="31.73" y="0">ериал</tspan></text>
            <text class="cls-2" transform="translate(17.96 162.18)"><tspan x="0" y="0">Банне</tspan><tspan class="cls-16" x="49.2" y="0">р</tspan><tspan class="cls-17" x="58.88" y="0">, </tspan><tspan class="cls-6" x="66.94" y="0">К</tspan><tspan x="77.58" y="0">орея 440 г</tspan><tspan class="cls-7" x="159.49" y="0">/</tspan><tspan class="cls-15" x="163.33" y="0">м2</tspan></text>
            <text class="cls-2" transform="translate(475.45 118.49)"><tspan x="0" y="0">360 dpi</tspan></text>
            <text class="cls-2" transform="translate(530.39 297.71)"><tspan x="0" y="0">360 dpi</tspan></text>
            <text class="cls-2" transform="translate(482.58 162.54)"><tspan x="0" y="0">331</tspan><tspan class="cls-16" x="28.8" y="0">р</tspan><tspan x="38.48" y="0">.</tspan></text>
            <text class="cls-2" transform="translate(482.58 207.66)"><tspan x="0" y="0">397</tspan><tspan class="cls-16" x="28.8" y="0">р</tspan><tspan x="38.48" y="0">.</tspan></text>
            <text class="cls-2" transform="translate(601.93 162.54)"><tspan x="0" y="0">375</tspan><tspan class="cls-16" x="28.8" y="0">р</tspan><tspan x="38.48" y="0">.</tspan></text>
            <text class="cls-2" transform="translate(601.93 207.66)"><tspan x="0" y="0">462</tspan><tspan class="cls-16" x="28.8" y="0">р</tspan><tspan x="38.48" y="0">.</tspan></text>
            <text class="cls-2" transform="translate(722.45 162.54)"><tspan x="0" y="0">638</tspan><tspan class="cls-16" x="28.8" y="0">р</tspan><tspan x="38.48" y="0">.</tspan></text>
            <text class="cls-2" transform="translate(722.45 207.66)"><tspan x="0" y="0">660</tspan><tspan class="cls-16" x="28.8" y="0">р</tspan><tspan x="38.48" y="0">.</tspan></text>
            <text class="cls-2" transform="translate(850.59 162.54)"><tspan x="0" y="0">770</tspan><tspan class="cls-16" x="28.8" y="0">р</tspan><tspan x="38.48" y="0">.</tspan></text>
            <text class="cls-2" transform="translate(850.59 207.66)"><tspan x="0" y="0">845</tspan><tspan class="cls-16" x="28.8" y="0">р</tspan><tspan x="38.48" y="0">.</tspan></text>
            <text class="cls-2" transform="translate(595.97 118.49)"><tspan x="0" y="0">540 dpi</tspan></text>
            <text class="cls-2" transform="translate(715.75 118.49)"><tspan x="0" y="0">720 dpi</tspan></text>
            <text class="cls-2" transform="translate(783.08 297.71)"><tspan x="0" y="0">720 dpi</tspan></text>
            <text class="cls-2" transform="translate(842.65 118.49)"><tspan x="0" y="0">1440 dpi</tspan></text>
            <text class="cls-2" transform="translate(17.96 206.78)"><tspan x="0" y="0">Банне</tspan><tspan class="cls-16" x="49.2" y="0">р</tspan><tspan class="cls-17" x="58.88" y="0">, ли</tspan><tspan class="cls-19" x="86.16" y="0">т</tspan><tspan x="93.6" y="0">ой 510 г</tspan><tspan class="cls-7" x="157.36" y="0">/</tspan><tspan x="161.2" y="0">м2</tspan></text>
            <text class="cls-1" transform="translate(611.62 73.15)"><tspan x="0" y="0">Цена за кв.м (</tspan><tspan class="cls-9" x="113.15" y="0">р</tspan><tspan x="123.17" y="0">у</tspan><tspan class="cls-21" x="132.08" y="0">б</tspan><tspan x="141.55" y="0">.)</tspan></text>
          </g>
        </g>
        <text class="cls-2" transform="translate(17.27 430.8)"><tspan x="0" y="0">При размере макета менее 1 кв.м. оптала, как за 1 кв.м.</tspan></text>
      </g>
    </g>
  </g>
</svg>