<?xml version="1.0" encoding="UTF-8"?>
<svg id="_Слой_2" data-name="Слой 2" xmlns="http://www.w3.org/2000/svg" viewBox="0 0 938.93 368.51">
  <defs>
    <style>
      .cls-1 {
        font-family: Mulish-Bold, Mulish;
        font-weight: 700;
      }

      .cls-1, .cls-2, .cls-3 {
        fill: #27625f;
      }

      .cls-1, .cls-3 {
        font-size: 16px;
      }

      .cls-4 {
        fill: #fff;
      }

      .cls-4, .cls-5 {
        stroke: #a0b6b5;
        stroke-miterlimit: 10;
      }

      .cls-2 {
        stroke-width: 0px;
      }

      .cls-3 {
        font-family: Mulish-SemiBold, Mulish;
        font-weight: 600;
      }

      .cls-6 {
        letter-spacing: -.07em;
      }

      .cls-7 {
        letter-spacing: -.01em;
      }

      .cls-8 {
        letter-spacing: -.01em;
      }

      .cls-9 {
        letter-spacing: 0em;
      }

      .cls-10 {
        letter-spacing: -.02em;
      }

      .cls-5 {
        fill: none;
      }
    </style>
  </defs>
  <g id="_Слой_1-2" data-name="Слой 1">
    <g>
      <g>
        <rect class="cls-4" x=".5" y=".5" width="937.93" height="367.51" rx="10.69" ry="10.69"/>
        <line class="cls-5" x1=".5" y1="46.44" x2="938.43" y2="46.44"/>
        <line class="cls-5" x1="354.85" y1="46.44" x2="354.85" y2="368.01"/>
        <line class="cls-5" x1="555.26" y1="46.44" x2="555.26" y2="368.01"/>
        <line class="cls-5" x1="755.67" y1="46.44" x2="755.67" y2="368.01"/>
        <line class="cls-5" x1=".5" y1="92.38" x2="938.43" y2="92.38"/>
        <line class="cls-5" x1=".5" y1="138.32" x2="938.43" y2="138.32"/>
        <line class="cls-5" x1=".5" y1="184.26" x2="938.43" y2="184.26"/>
        <line class="cls-5" x1=".5" y1="230.2" x2="938.43" y2="230.2"/>
        <line class="cls-5" x1=".5" y1="276.13" x2="938.43" y2="276.13"/>
        <line class="cls-5" x1=".5" y1="322.07" x2="938.43" y2="322.07"/>
      </g>
      <g>
        <text class="cls-1" transform="translate(24.2 29.88)"><tspan x="0" y="0">Буклеты</tspan></text>
        <text class="cls-1" transform="translate(137.18 76.05)"><tspan x="0" y="0">Формат</tspan></text>
        <text class="cls-1" transform="translate(418.42 76.05)"><tspan x="0" y="0">1000 ш</tspan><tspan class="cls-6" x="56.35" y="0">т</tspan><tspan class="cls-9" x="62.98" y="0">.</tspan></text>
        <g>
          <path class="cls-2" d="m428.78,112.74c-.49,0-.98-.05-1.46-.16s-.93-.26-1.34-.46c-.42-.2-.78-.43-1.09-.71l.58-1.26c.51.39,1.04.69,1.58.89.54.2,1.11.3,1.7.3.76,0,1.35-.2,1.78-.59s.65-.92.65-1.58-.21-1.23-.62-1.66c-.41-.42-.98-.63-1.7-.63-.5,0-.96.1-1.37.3-.41.2-.77.51-1.08.93h-1.15v-6.78h6.83v1.39h-5.25v4.06h-.42c.29-.4.67-.72,1.16-.94s1.03-.34,1.64-.34c.73,0,1.35.15,1.89.45.53.3.95.71,1.24,1.25.29.53.44,1.16.44,1.89s-.16,1.36-.49,1.91c-.33.55-.79.98-1.39,1.29-.6.31-1.31.46-2.14.46Z"/>
          <path class="cls-2" d="m438.38,112.74c-.49,0-.98-.05-1.46-.16s-.93-.26-1.34-.46c-.42-.2-.78-.43-1.09-.71l.58-1.26c.51.39,1.04.69,1.58.89.54.2,1.11.3,1.7.3.76,0,1.35-.2,1.78-.59s.65-.92.65-1.58-.21-1.23-.62-1.66c-.41-.42-.98-.63-1.7-.63-.5,0-.96.1-1.37.3-.41.2-.77.51-1.08.93h-1.15v-6.78h6.83v1.39h-5.25v4.06h-.42c.29-.4.67-.72,1.16-.94s1.03-.34,1.64-.34c.73,0,1.35.15,1.89.45.53.3.95.71,1.24,1.25.29.53.44,1.16.44,1.89s-.16,1.36-.49,1.91c-.33.55-.79.98-1.39,1.29-.6.31-1.31.46-2.14.46Z"/>
          <path class="cls-2" d="m447.02,112.74c-.6,0-1.19-.12-1.79-.36-.6-.24-1.1-.56-1.5-.95l.59-1.26c.39.38.83.67,1.3.87.47.2.94.3,1.42.3,1.02,0,1.81-.36,2.36-1.08.55-.72.82-1.79.82-3.22v-1.36h.16c-.06.57-.25,1.06-.54,1.49-.3.43-.67.75-1.13.98-.45.22-.96.34-1.53.34-.66,0-1.26-.16-1.78-.46-.53-.31-.94-.74-1.23-1.28-.29-.54-.44-1.16-.44-1.84,0-.73.16-1.37.48-1.93.32-.56.76-1,1.31-1.31.55-.31,1.19-.47,1.92-.47,1.41,0,2.49.48,3.24,1.45.75.97,1.13,2.33,1.13,4.09,0,1.29-.19,2.38-.57,3.28-.38.9-.93,1.58-1.64,2.05-.71.47-1.57.7-2.58.7Zm.53-5.63c.45,0,.84-.1,1.18-.29s.61-.46.8-.81c.19-.35.29-.74.29-1.19s-.1-.86-.29-1.21c-.19-.35-.46-.62-.8-.82s-.74-.3-1.18-.3-.84.1-1.18.3-.6.47-.79.82-.29.75-.29,1.21.1.85.29,1.19c.19.35.46.62.79.81s.73.29,1.18.29Z"/>
          <path class="cls-2" d="m457.42,112.74c-1.3,0-2.3-.5-3-1.5-.7-1-1.05-2.43-1.05-4.3s.35-3.34,1.05-4.31c.7-.98,1.7-1.46,3-1.46s2.31.49,3.01,1.46c.69.98,1.04,2.41,1.04,4.29s-.35,3.32-1.05,4.31c-.7,1-1.7,1.5-3,1.5Zm0-1.39c.82,0,1.43-.36,1.83-1.07.4-.71.6-1.83.6-3.34s-.2-2.64-.6-3.34c-.4-.7-1.01-1.05-1.83-1.05s-1.42.35-1.82,1.05c-.41.7-.61,1.81-.61,3.32s.21,2.65.62,3.36c.41.71,1.02,1.07,1.82,1.07Z"/>
          <path class="cls-2" d="m467.77,116.06v-9.58c0-.31-.01-.63-.04-.95-.03-.32-.06-.65-.09-.98h1.57l.16,1.82h-.18c.17-.61.51-1.09,1.03-1.44.52-.35,1.13-.53,1.85-.53s1.34.17,1.87.5.95.81,1.24,1.43c.29.62.44,1.37.44,2.24s-.15,1.61-.44,2.24c-.29.63-.71,1.11-1.24,1.44s-1.16.5-1.87.5-1.31-.17-1.83-.52c-.52-.35-.86-.82-1.03-1.42h.18v5.25h-1.62Zm3.9-4.58c.7,0,1.27-.25,1.69-.74.42-.49.63-1.22.63-2.18s-.21-1.68-.63-2.17c-.42-.49-.98-.73-1.69-.73s-1.27.24-1.69.73c-.42.49-.63,1.21-.63,2.17s.21,1.69.63,2.18c.42.49.98.74,1.69.74Z"/>
          <path class="cls-2" d="m477.12,112.6v-1.9h1.9v1.9h-1.9Z"/>
          <path class="cls-2" d="m410.84,130.48c-.47-.79-.85-1.57-1.15-2.33-.3-.76-.52-1.54-.66-2.32-.14-.78-.21-1.6-.21-2.44s.07-1.67.21-2.45.36-1.55.66-2.3c.3-.76.68-1.53,1.15-2.32h1.31c-.55,1.21-.97,2.39-1.24,3.56-.27,1.17-.41,2.34-.41,3.51s.14,2.34.41,3.51.69,2.36,1.24,3.58h-1.31Z"/>
          <path class="cls-2" d="m417.51,127.74c-.49,0-.98-.05-1.46-.16s-.93-.26-1.34-.46c-.42-.2-.78-.43-1.09-.71l.58-1.26c.51.39,1.04.69,1.58.89.54.2,1.11.3,1.7.3.76,0,1.35-.2,1.78-.59s.65-.92.65-1.58-.21-1.23-.62-1.66c-.41-.42-.98-.63-1.7-.63-.5,0-.96.1-1.37.3-.41.2-.77.51-1.08.93h-1.15v-6.78h6.83v1.39h-5.25v4.06h-.42c.29-.4.67-.72,1.16-.94s1.03-.34,1.64-.34c.73,0,1.35.15,1.89.45.53.3.95.71,1.24,1.25.29.53.44,1.16.44,1.89s-.16,1.36-.49,1.91c-.33.55-.79.98-1.39,1.29-.6.31-1.31.46-2.14.46Z"/>
          <path class="cls-2" d="m423.91,129.57l-.7-.54c.31-.33.52-.63.63-.91.11-.28.17-.57.17-.86l.35.35h-1.26v-1.9h1.9v1.3c0,.48-.08.93-.24,1.34-.16.41-.44.82-.85,1.24Z"/>
          <path class="cls-2" d="m430.9,127.74c-.49,0-.98-.05-1.46-.16s-.93-.26-1.34-.46c-.42-.2-.78-.43-1.09-.71l.58-1.26c.51.39,1.04.69,1.58.89.54.2,1.11.3,1.7.3.76,0,1.35-.2,1.78-.59s.65-.92.65-1.58-.21-1.23-.62-1.66c-.41-.42-.98-.63-1.7-.63-.5,0-.96.1-1.37.3-.41.2-.77.51-1.08.93h-1.15v-6.78h6.83v1.39h-5.25v4.06h-.42c.29-.4.67-.72,1.16-.94s1.03-.34,1.64-.34c.73,0,1.35.15,1.89.45.53.3.95.71,1.24,1.25.29.53.44,1.16.44,1.89s-.16,1.36-.49,1.91c-.33.55-.79.98-1.39,1.29-.6.31-1.31.46-2.14.46Z"/>
          <path class="cls-2" d="m439.54,127.74c-.6,0-1.19-.12-1.79-.36-.6-.24-1.1-.56-1.5-.95l.59-1.26c.39.38.83.67,1.3.87.47.2.94.3,1.42.3,1.02,0,1.81-.36,2.36-1.08.55-.72.82-1.79.82-3.22v-1.36h.16c-.06.57-.25,1.06-.54,1.49-.3.43-.67.75-1.13.98-.45.22-.96.34-1.53.34-.66,0-1.26-.16-1.78-.46-.53-.31-.94-.74-1.23-1.28-.29-.54-.44-1.16-.44-1.84,0-.73.16-1.37.48-1.93.32-.56.76-1,1.31-1.31.55-.31,1.19-.47,1.92-.47,1.41,0,2.49.48,3.24,1.45.75.97,1.13,2.33,1.13,4.09,0,1.29-.19,2.38-.57,3.28-.38.9-.93,1.58-1.64,2.05-.71.47-1.57.7-2.58.7Zm.53-5.63c.45,0,.84-.1,1.18-.29s.61-.46.8-.81c.19-.35.29-.74.29-1.19s-.1-.86-.29-1.21c-.19-.35-.46-.62-.8-.82s-.74-.3-1.18-.3-.84.1-1.18.3-.6.47-.79.82-.29.75-.29,1.21.1.85.29,1.19c.19.35.46.62.79.81s.73.29,1.18.29Z"/>
          <path class="cls-2" d="m450.69,131.06v-9.58c0-.31-.01-.63-.04-.95-.03-.32-.06-.65-.09-.98h1.57l.16,1.82h-.18c.17-.61.51-1.09,1.03-1.44s1.13-.53,1.85-.53,1.34.17,1.87.5c.53.34.95.81,1.24,1.43s.44,1.37.44,2.24-.15,1.61-.44,2.24c-.29.63-.71,1.11-1.24,1.44-.53.33-1.16.5-1.87.5s-1.31-.17-1.83-.52c-.52-.35-.86-.82-1.03-1.42h.18v5.25h-1.62Zm3.9-4.58c.7,0,1.27-.25,1.69-.74s.63-1.22.63-2.18-.21-1.68-.63-2.17-.98-.73-1.69-.73-1.27.24-1.69.73-.63,1.21-.63,2.17.21,1.69.63,2.18.98.74,1.69.74Z"/>
          <path class="cls-2" d="m460.04,127.6v-1.9h1.9v1.9h-1.9Z"/>
          <path class="cls-2" d="m464.92,128.51h-1.36l4.19-12.91h1.36l-4.19,12.91Z"/>
          <path class="cls-2" d="m469,127.6v-8.06h1.52v6.8h3.15v-6.8h1.52v6.8h3.14v-6.8h1.54v8.06h-10.86Z"/>
          <path class="cls-2" d="m484.02,127.6v-6.77h-2.85v-1.3h7.31v1.3h-2.86v6.77h-1.6Z"/>
          <path class="cls-2" d="m488.39,127.6v-1.9h1.9v1.9h-1.9Z"/>
          <path class="cls-2" d="m492.95,130.48h-1.31c.55-1.21.97-2.39,1.25-3.57.28-1.17.42-2.35.42-3.52s-.14-2.33-.42-3.5c-.28-1.17-.69-2.36-1.25-3.57h1.31c.48.79.87,1.56,1.17,2.32.3.76.51,1.53.65,2.31.13.78.2,1.6.2,2.44s-.07,1.67-.2,2.46c-.13.79-.35,1.55-.65,2.31s-.69,1.53-1.17,2.32Z"/>
        </g>
        <g>
          <path class="cls-2" d="m425.15,158.34v-1.23l3.87-4.05c.5-.52.87-1.01,1.12-1.47.25-.46.37-.93.37-1.42,0-.61-.19-1.07-.57-1.38-.38-.31-.93-.46-1.64-.46-.57,0-1.1.1-1.59.3-.5.2-.97.51-1.43.93l-.58-1.26c.45-.42,1.01-.75,1.67-1s1.37-.38,2.12-.38c1.17,0,2.08.27,2.71.8.63.53.95,1.3.95,2.29,0,.7-.17,1.38-.51,2.02-.34.65-.85,1.31-1.54,1.99l-3.34,3.38v-.45h5.86v1.39h-7.47Z"/>
          <path class="cls-2" d="m437.42,158.49c-.6,0-1.19-.12-1.79-.36-.6-.24-1.1-.56-1.5-.95l.59-1.26c.39.38.83.67,1.3.87.47.2.94.3,1.42.3,1.02,0,1.81-.36,2.36-1.08.55-.72.82-1.79.82-3.22v-1.36h.16c-.06.57-.25,1.06-.54,1.49-.3.43-.67.75-1.13.98-.45.22-.96.34-1.53.34-.66,0-1.26-.16-1.78-.46-.53-.31-.94-.74-1.23-1.28-.29-.54-.44-1.16-.44-1.84,0-.73.16-1.37.48-1.93.32-.56.76-1,1.31-1.31.55-.31,1.19-.47,1.92-.47,1.41,0,2.49.48,3.24,1.45.75.97,1.13,2.33,1.13,4.09,0,1.29-.19,2.38-.57,3.28-.38.9-.93,1.58-1.64,2.05-.71.47-1.57.71-2.58.71Zm.53-5.63c.45,0,.84-.1,1.18-.29.34-.19.61-.46.8-.81.19-.35.29-.74.29-1.19s-.1-.86-.29-1.21c-.19-.35-.46-.62-.8-.82s-.74-.3-1.18-.3-.84.1-1.18.3-.6.47-.79.82c-.19.35-.29.75-.29,1.21s.1.84.29,1.19.46.62.79.81c.34.19.73.29,1.18.29Z"/>
          <path class="cls-2" d="m447.02,158.49c-.6,0-1.19-.12-1.79-.36-.6-.24-1.1-.56-1.5-.95l.59-1.26c.39.38.83.67,1.3.87.47.2.94.3,1.42.3,1.02,0,1.81-.36,2.36-1.08.55-.72.82-1.79.82-3.22v-1.36h.16c-.06.57-.25,1.06-.54,1.49-.3.43-.67.75-1.13.98-.45.22-.96.34-1.53.34-.66,0-1.26-.16-1.78-.46-.53-.31-.94-.74-1.23-1.28-.29-.54-.44-1.16-.44-1.84,0-.73.16-1.37.48-1.93.32-.56.76-1,1.31-1.31.55-.31,1.19-.47,1.92-.47,1.41,0,2.49.48,3.24,1.45.75.97,1.13,2.33,1.13,4.09,0,1.29-.19,2.38-.57,3.28-.38.9-.93,1.58-1.64,2.05-.71.47-1.57.71-2.58.71Zm.53-5.63c.45,0,.84-.1,1.18-.29.34-.19.61-.46.8-.81.19-.35.29-.74.29-1.19s-.1-.86-.29-1.21c-.19-.35-.46-.62-.8-.82s-.74-.3-1.18-.3-.84.1-1.18.3-.6.47-.79.82c-.19.35-.29.75-.29,1.21s.1.84.29,1.19.46.62.79.81c.34.19.73.29,1.18.29Z"/>
          <path class="cls-2" d="m457.42,158.49c-1.3,0-2.3-.5-3-1.5-.7-1-1.05-2.43-1.05-4.3s.35-3.34,1.05-4.31,1.7-1.46,3-1.46,2.31.49,3.01,1.46c.69.98,1.04,2.41,1.04,4.3s-.35,3.31-1.05,4.31c-.7,1-1.7,1.5-3,1.5Zm0-1.39c.82,0,1.43-.36,1.83-1.07.4-.71.6-1.83.6-3.34s-.2-2.64-.6-3.34c-.4-.7-1.01-1.05-1.83-1.05s-1.42.35-1.82,1.05c-.41.7-.61,1.81-.61,3.32s.21,2.64.62,3.36,1.02,1.07,1.82,1.07Z"/>
          <path class="cls-2" d="m467.77,161.8v-9.58c0-.31-.01-.63-.04-.95-.03-.33-.06-.65-.09-.98h1.57l.16,1.82h-.18c.17-.61.51-1.09,1.03-1.44.52-.35,1.13-.53,1.85-.53s1.34.17,1.87.5.95.81,1.24,1.43c.29.62.44,1.37.44,2.24s-.15,1.61-.44,2.24c-.29.63-.71,1.11-1.24,1.44-.53.33-1.16.5-1.87.5s-1.31-.17-1.83-.52-.86-.82-1.03-1.42h.18v5.25h-1.62Zm3.9-4.58c.7,0,1.27-.25,1.69-.74.42-.49.63-1.22.63-2.18s-.21-1.68-.63-2.17c-.42-.49-.98-.73-1.69-.73s-1.27.24-1.69.73c-.42.49-.63,1.21-.63,2.17s.21,1.69.63,2.18c.42.49.98.74,1.69.74Z"/>
          <path class="cls-2" d="m477.12,158.34v-1.9h1.9v1.9h-1.9Z"/>
          <path class="cls-2" d="m410.84,176.22c-.47-.79-.85-1.57-1.15-2.33-.3-.76-.52-1.54-.66-2.32-.14-.78-.21-1.6-.21-2.44s.07-1.67.21-2.45c.14-.78.36-1.55.66-2.3.3-.76.68-1.53,1.15-2.32h1.31c-.55,1.21-.97,2.39-1.24,3.56-.27,1.17-.41,2.34-.41,3.51s.14,2.34.41,3.51.69,2.36,1.24,3.58h-1.31Z"/>
          <path class="cls-2" d="m413.88,173.34v-1.23l3.87-4.05c.5-.52.87-1.01,1.12-1.47.25-.46.37-.93.37-1.42,0-.61-.19-1.07-.57-1.38-.38-.31-.93-.46-1.64-.46-.57,0-1.1.1-1.59.3-.5.2-.97.51-1.43.93l-.58-1.26c.45-.42,1.01-.75,1.67-1s1.37-.38,2.12-.38c1.17,0,2.08.27,2.71.8.63.53.95,1.3.95,2.29,0,.7-.17,1.38-.51,2.02-.34.65-.85,1.31-1.54,1.99l-3.34,3.38v-.45h5.86v1.39h-7.47Z"/>
          <path class="cls-2" d="m423.91,175.31l-.7-.54c.31-.33.52-.63.63-.91s.17-.56.17-.86l.35.35h-1.26v-1.9h1.9v1.3c0,.48-.08.92-.24,1.34-.16.41-.44.82-.85,1.24Z"/>
          <path class="cls-2" d="m429.94,173.49c-.6,0-1.19-.12-1.79-.36-.6-.24-1.1-.56-1.5-.95l.59-1.26c.39.38.83.67,1.3.87.47.2.94.3,1.42.3,1.02,0,1.81-.36,2.36-1.08.55-.72.82-1.79.82-3.22v-1.36h.16c-.06.57-.25,1.06-.54,1.49-.3.43-.67.75-1.13.98-.45.22-.96.34-1.53.34-.66,0-1.26-.16-1.78-.46-.53-.31-.94-.74-1.23-1.28-.29-.54-.44-1.16-.44-1.84,0-.73.16-1.37.48-1.93.32-.56.76-1,1.31-1.31.55-.31,1.19-.47,1.92-.47,1.41,0,2.49.48,3.24,1.45.75.97,1.13,2.33,1.13,4.09,0,1.29-.19,2.38-.57,3.28-.38.9-.93,1.58-1.64,2.05-.71.47-1.57.71-2.58.71Zm.53-5.63c.45,0,.84-.1,1.18-.29.34-.19.61-.46.8-.81.19-.35.29-.74.29-1.19s-.1-.86-.29-1.21c-.19-.35-.46-.62-.8-.82s-.74-.3-1.18-.3-.84.1-1.18.3-.6.47-.79.82c-.19.35-.29.75-.29,1.21s.1.84.29,1.19.46.62.79.81c.34.19.73.29,1.18.29Z"/>
          <path class="cls-2" d="m439.54,173.49c-.6,0-1.19-.12-1.79-.36-.6-.24-1.1-.56-1.5-.95l.59-1.26c.39.38.83.67,1.3.87.47.2.94.3,1.42.3,1.02,0,1.81-.36,2.36-1.08.55-.72.82-1.79.82-3.22v-1.36h.16c-.06.57-.25,1.06-.54,1.49-.3.43-.67.75-1.13.98-.45.22-.96.34-1.53.34-.66,0-1.26-.16-1.78-.46-.53-.31-.94-.74-1.23-1.28-.29-.54-.44-1.16-.44-1.84,0-.73.16-1.37.48-1.93.32-.56.76-1,1.31-1.31.55-.31,1.19-.47,1.92-.47,1.41,0,2.49.48,3.24,1.45.75.97,1.13,2.33,1.13,4.09,0,1.29-.19,2.38-.57,3.28-.38.9-.93,1.58-1.64,2.05-.71.47-1.57.71-2.58.71Zm.53-5.63c.45,0,.84-.1,1.18-.29.34-.19.61-.46.8-.81.19-.35.29-.74.29-1.19s-.1-.86-.29-1.21c-.19-.35-.46-.62-.8-.82s-.74-.3-1.18-.3-.84.1-1.18.3-.6.47-.79.82c-.19.35-.29.75-.29,1.21s.1.84.29,1.19.46.62.79.81c.34.19.73.29,1.18.29Z"/>
          <path class="cls-2" d="m450.69,176.8v-9.58c0-.31-.01-.63-.04-.95-.03-.33-.06-.65-.09-.98h1.57l.16,1.82h-.18c.17-.61.51-1.09,1.03-1.44.52-.35,1.13-.53,1.85-.53s1.34.17,1.87.5c.53.34.95.81,1.24,1.43.29.62.44,1.37.44,2.24s-.15,1.61-.44,2.24-.71,1.11-1.24,1.44c-.53.33-1.16.5-1.87.5s-1.31-.17-1.83-.52c-.52-.35-.86-.82-1.03-1.42h.18v5.25h-1.62Zm3.9-4.58c.7,0,1.27-.25,1.69-.74.42-.49.63-1.22.63-2.18s-.21-1.68-.63-2.17-.98-.73-1.69-.73-1.27.24-1.69.73-.63,1.21-.63,2.17.21,1.69.63,2.18c.42.49.98.74,1.69.74Z"/>
          <path class="cls-2" d="m460.04,173.34v-1.9h1.9v1.9h-1.9Z"/>
          <path class="cls-2" d="m464.92,174.25h-1.36l4.19-12.91h1.36l-4.19,12.91Z"/>
          <path class="cls-2" d="m469,173.34v-8.06h1.52v6.8h3.15v-6.8h1.52v6.8h3.14v-6.8h1.54v8.06h-10.86Z"/>
          <path class="cls-2" d="m484.02,173.34v-6.77h-2.85v-1.3h7.31v1.3h-2.86v6.77h-1.6Z"/>
          <path class="cls-2" d="m488.39,173.34v-1.9h1.9v1.9h-1.9Z"/>
          <path class="cls-2" d="m492.95,176.22h-1.31c.55-1.21.97-2.39,1.25-3.57.28-1.17.42-2.35.42-3.52s-.14-2.33-.42-3.5c-.28-1.17-.69-2.36-1.25-3.57h1.31c.48.79.87,1.56,1.17,2.32s.51,1.53.65,2.31c.13.79.2,1.6.2,2.44s-.07,1.67-.2,2.46c-.13.78-.35,1.55-.65,2.31-.3.76-.69,1.53-1.17,2.32Z"/>
        </g>
        <g>
          <path class="cls-2" d="m429.77,204.17v-2.34h-5.22v-1.18l5.49-7.76h1.34v7.65h1.68v1.3h-1.68v2.34h-1.62Zm0-3.63v-5.68h.37l-4.29,6.08v-.4h3.92Z"/>
          <path class="cls-2" d="m438.38,204.31c-.49,0-.98-.05-1.46-.16s-.93-.26-1.34-.46-.78-.43-1.09-.71l.58-1.26c.51.4,1.04.69,1.58.89.54.2,1.11.3,1.7.3.76,0,1.35-.2,1.78-.59s.65-.92.65-1.58-.21-1.23-.62-1.66c-.41-.42-.98-.63-1.7-.63-.5,0-.96.1-1.37.3-.41.2-.77.51-1.08.93h-1.15v-6.78h6.83v1.39h-5.25v4.06h-.42c.29-.41.67-.72,1.16-.94s1.03-.34,1.64-.34c.73,0,1.35.15,1.89.45s.95.71,1.24,1.25c.29.53.44,1.16.44,1.89s-.16,1.36-.49,1.91c-.33.55-.79.98-1.39,1.29-.6.31-1.31.46-2.14.46Z"/>
          <path class="cls-2" d="m447.82,204.31c-1.3,0-2.3-.5-3-1.5s-1.05-2.43-1.05-4.3.35-3.34,1.05-4.31c.7-.98,1.7-1.46,3-1.46s2.31.49,3.01,1.46c.69.98,1.04,2.41,1.04,4.3s-.35,3.31-1.05,4.31-1.7,1.5-3,1.5Zm0-1.39c.82,0,1.43-.36,1.83-1.07.4-.71.6-1.83.6-3.34s-.2-2.64-.6-3.34c-.4-.7-1.01-1.05-1.83-1.05s-1.42.35-1.82,1.05c-.41.7-.61,1.8-.61,3.32s.21,2.65.62,3.36,1.02,1.07,1.82,1.07Z"/>
          <path class="cls-2" d="m457.42,204.31c-1.3,0-2.3-.5-3-1.5s-1.05-2.43-1.05-4.3.35-3.34,1.05-4.31c.7-.98,1.7-1.46,3-1.46s2.31.49,3.01,1.46c.69.98,1.04,2.41,1.04,4.3s-.35,3.31-1.05,4.31-1.7,1.5-3,1.5Zm0-1.39c.82,0,1.43-.36,1.83-1.07.4-.71.6-1.83.6-3.34s-.2-2.64-.6-3.34c-.4-.7-1.01-1.05-1.83-1.05s-1.42.35-1.82,1.05c-.41.7-.61,1.8-.61,3.32s.21,2.65.62,3.36,1.02,1.07,1.82,1.07Z"/>
          <path class="cls-2" d="m467.77,207.62v-9.58c0-.31-.01-.63-.04-.95-.03-.33-.06-.65-.09-.98h1.57l.16,1.82h-.18c.17-.61.51-1.09,1.03-1.44.52-.35,1.13-.53,1.85-.53s1.34.17,1.87.5.95.81,1.24,1.43c.29.62.44,1.37.44,2.24s-.15,1.61-.44,2.24c-.29.63-.71,1.11-1.24,1.44s-1.16.5-1.87.5-1.31-.17-1.83-.52c-.52-.35-.86-.82-1.03-1.42h.18v5.25h-1.62Zm3.9-4.58c.7,0,1.27-.24,1.69-.74.42-.49.63-1.22.63-2.18s-.21-1.68-.63-2.17c-.42-.48-.98-.73-1.69-.73s-1.27.24-1.69.73c-.42.49-.63,1.21-.63,2.17s.21,1.69.63,2.18c.42.49.98.74,1.69.74Z"/>
          <path class="cls-2" d="m477.12,204.17v-1.9h1.9v1.9h-1.9Z"/>
          <path class="cls-2" d="m415.64,222.05c-.47-.79-.85-1.56-1.15-2.33-.3-.76-.52-1.54-.66-2.32s-.21-1.6-.21-2.44.07-1.67.21-2.45c.14-.78.36-1.55.66-2.3.3-.76.68-1.53,1.15-2.32h1.31c-.55,1.21-.97,2.39-1.24,3.56s-.41,2.34-.41,3.51.14,2.34.41,3.51.69,2.36,1.24,3.58h-1.31Z"/>
          <path class="cls-2" d="m423.3,219.17v-2.34h-5.22v-1.18l5.49-7.76h1.34v7.65h1.68v1.3h-1.68v2.34h-1.62Zm0-3.63v-5.68h.37l-4.29,6.08v-.4h3.92Z"/>
          <path class="cls-2" d="m428.71,221.13l-.7-.54c.31-.33.52-.63.63-.91s.17-.57.17-.86l.35.35h-1.26v-1.9h1.9v1.3c0,.48-.08.92-.24,1.34-.16.41-.44.82-.85,1.24Z"/>
          <path class="cls-2" d="m435.7,219.31c-.49,0-.98-.05-1.46-.16s-.93-.26-1.34-.46-.78-.43-1.09-.71l.58-1.26c.51.4,1.04.69,1.58.89.54.2,1.11.3,1.7.3.76,0,1.35-.2,1.78-.59s.65-.92.65-1.58-.21-1.23-.62-1.66c-.41-.42-.98-.63-1.7-.63-.5,0-.96.1-1.37.3-.41.2-.77.51-1.08.93h-1.15v-6.78h6.83v1.39h-5.25v4.06h-.42c.29-.41.67-.72,1.16-.94s1.03-.34,1.64-.34c.73,0,1.35.15,1.89.45s.95.71,1.24,1.25c.29.53.44,1.16.44,1.89s-.16,1.36-.49,1.91c-.33.55-.79.98-1.39,1.29-.6.31-1.31.46-2.14.46Z"/>
          <path class="cls-2" d="m445.89,222.62v-9.58c0-.31-.01-.63-.04-.95-.03-.33-.06-.65-.09-.98h1.57l.16,1.82h-.18c.17-.61.51-1.09,1.03-1.44s1.13-.53,1.85-.53,1.34.17,1.87.5c.53.34.95.81,1.24,1.43s.44,1.37.44,2.24-.15,1.61-.44,2.24c-.29.63-.71,1.11-1.24,1.44-.53.33-1.16.5-1.87.5s-1.31-.17-1.83-.52c-.52-.35-.86-.82-1.03-1.42h.18v5.25h-1.62Zm3.9-4.58c.7,0,1.27-.24,1.69-.74s.63-1.22.63-2.18-.21-1.68-.63-2.17c-.42-.48-.98-.73-1.69-.73s-1.27.24-1.69.73c-.42.49-.63,1.21-.63,2.17s.21,1.69.63,2.18.98.74,1.69.74Z"/>
          <path class="cls-2" d="m455.24,219.17v-1.9h1.9v1.9h-1.9Z"/>
          <path class="cls-2" d="m460.12,220.08h-1.36l4.19-12.91h1.36l-4.19,12.91Z"/>
          <path class="cls-2" d="m464.2,219.17v-8.06h1.52v6.8h3.15v-6.8h1.52v6.8h3.14v-6.8h1.54v8.06h-10.86Z"/>
          <path class="cls-2" d="m479.22,219.17v-6.77h-2.85v-1.3h7.31v1.3h-2.86v6.77h-1.6Z"/>
          <path class="cls-2" d="m483.59,219.17v-1.9h1.9v1.9h-1.9Z"/>
          <path class="cls-2" d="m488.15,222.05h-1.31c.55-1.21.97-2.39,1.25-3.57.28-1.17.42-2.35.42-3.52s-.14-2.33-.42-3.5c-.28-1.17-.69-2.36-1.25-3.57h1.31c.48.79.87,1.56,1.17,2.32.3.76.51,1.53.65,2.31.13.78.2,1.6.2,2.44s-.07,1.67-.2,2.46c-.13.78-.35,1.55-.65,2.31s-.69,1.53-1.17,2.32Z"/>
        </g>
        <g>
          <path class="cls-2" d="m420.94,250.12v-1.39h2.62v-8.48h.83l-3.2,1.95v-1.6l2.83-1.76h1.2v9.89h2.46v1.39h-6.75Z"/>
          <path class="cls-2" d="m430.54,250.12v-1.39h2.62v-8.48h.83l-3.2,1.95v-1.6l2.83-1.76h1.2v9.89h2.46v1.39h-6.75Z"/>
          <path class="cls-2" d="m443.02,250.27c-1.3,0-2.3-.5-3-1.5-.7-1-1.05-2.43-1.05-4.3s.35-3.34,1.05-4.31c.7-.98,1.7-1.46,3-1.46s2.31.49,3.01,1.46c.69.98,1.04,2.41,1.04,4.29s-.35,3.32-1.05,4.31c-.7,1-1.7,1.5-3,1.5Zm0-1.39c.82,0,1.43-.36,1.83-1.07.4-.71.6-1.83.6-3.34s-.2-2.64-.6-3.34c-.4-.7-1.01-1.05-1.83-1.05s-1.42.35-1.82,1.05c-.41.7-.61,1.81-.61,3.32s.21,2.65.62,3.36c.41.71,1.02,1.07,1.82,1.07Z"/>
          <path class="cls-2" d="m452.78,250.27c-.49,0-.98-.05-1.46-.16s-.93-.26-1.34-.46c-.42-.2-.78-.43-1.09-.71l.58-1.26c.51.39,1.04.69,1.58.89.54.2,1.11.3,1.7.3.76,0,1.35-.2,1.78-.59s.65-.92.65-1.58-.21-1.23-.62-1.66c-.41-.42-.98-.63-1.7-.63-.5,0-.96.1-1.37.3-.41.2-.77.51-1.08.93h-1.15v-6.78h6.83v1.39h-5.25v4.06h-.42c.29-.4.67-.72,1.16-.94s1.03-.34,1.64-.34c.73,0,1.35.15,1.89.45.53.3.95.71,1.24,1.25.29.53.44,1.16.44,1.89s-.16,1.36-.49,1.91c-.33.55-.79.98-1.39,1.29-.6.31-1.31.46-2.14.46Z"/>
          <path class="cls-2" d="m462.22,250.27c-1.3,0-2.3-.5-3-1.5-.7-1-1.05-2.43-1.05-4.3s.35-3.34,1.05-4.31c.7-.98,1.7-1.46,3-1.46s2.31.49,3.01,1.46c.69.98,1.04,2.41,1.04,4.29s-.35,3.32-1.05,4.31c-.7,1-1.7,1.5-3,1.5Zm0-1.39c.82,0,1.43-.36,1.83-1.07.4-.71.6-1.83.6-3.34s-.2-2.64-.6-3.34c-.4-.7-1.01-1.05-1.83-1.05s-1.42.35-1.82,1.05c-.41.7-.61,1.81-.61,3.32s.21,2.65.62,3.36c.41.71,1.02,1.07,1.82,1.07Z"/>
          <path class="cls-2" d="m472.57,253.58v-9.58c0-.31-.01-.63-.04-.95-.03-.32-.06-.65-.09-.98h1.57l.16,1.82h-.18c.17-.61.51-1.09,1.03-1.44.52-.35,1.13-.53,1.85-.53s1.34.17,1.87.5.95.81,1.24,1.43c.29.62.44,1.37.44,2.24s-.15,1.61-.44,2.24c-.29.63-.71,1.11-1.24,1.44s-1.16.5-1.87.5-1.31-.17-1.83-.52c-.52-.35-.86-.82-1.03-1.42h.18v5.25h-1.62Zm3.9-4.58c.7,0,1.27-.25,1.69-.74.42-.49.63-1.22.63-2.18s-.21-1.68-.63-2.17c-.42-.49-.98-.73-1.69-.73s-1.27.24-1.69.73c-.42.49-.63,1.21-.63,2.17s.21,1.69.63,2.18c.42.49.98.74,1.69.74Z"/>
          <path class="cls-2" d="m481.92,250.12v-1.9h1.9v1.9h-1.9Z"/>
          <path class="cls-2" d="m406.04,268c-.47-.79-.85-1.57-1.15-2.33-.3-.76-.52-1.54-.66-2.32-.14-.78-.21-1.6-.21-2.44s.07-1.67.21-2.45.36-1.55.66-2.3c.3-.76.68-1.53,1.15-2.32h1.31c-.55,1.21-.97,2.39-1.24,3.56-.27,1.17-.41,2.34-.41,3.51s.14,2.34.41,3.51.69,2.36,1.24,3.58h-1.31Z"/>
          <path class="cls-2" d="m409.67,265.12v-1.39h2.62v-8.48h.83l-3.2,1.95v-1.6l2.83-1.76h1.2v9.89h2.46v1.39h-6.75Z"/>
          <path class="cls-2" d="m419.27,265.12v-1.39h2.62v-8.48h.83l-3.2,1.95v-1.6l2.83-1.76h1.2v9.89h2.46v1.39h-6.75Z"/>
          <path class="cls-2" d="m428.71,267.09l-.7-.54c.31-.33.52-.63.63-.91.11-.28.17-.57.17-.86l.35.35h-1.26v-1.9h1.9v1.3c0,.48-.08.93-.24,1.34-.16.41-.44.82-.85,1.24Z"/>
          <path class="cls-2" d="m435.54,265.27c-1.3,0-2.3-.5-3-1.5-.7-1-1.05-2.43-1.05-4.3s.35-3.34,1.05-4.31c.7-.98,1.7-1.46,3-1.46s2.31.49,3.01,1.46c.69.98,1.04,2.41,1.04,4.29s-.35,3.32-1.05,4.31c-.7,1-1.7,1.5-3,1.5Zm0-1.39c.82,0,1.43-.36,1.83-1.07.4-.71.6-1.83.6-3.34s-.2-2.64-.6-3.34c-.4-.7-1.01-1.05-1.83-1.05s-1.42.35-1.82,1.05c-.41.7-.61,1.81-.61,3.32s.21,2.65.62,3.36c.41.71,1.02,1.07,1.82,1.07Z"/>
          <path class="cls-2" d="m445.3,265.27c-.49,0-.98-.05-1.46-.16s-.93-.26-1.34-.46c-.42-.2-.78-.43-1.09-.71l.58-1.26c.51.39,1.04.69,1.58.89.54.2,1.11.3,1.7.3.76,0,1.35-.2,1.78-.59s.65-.92.65-1.58-.21-1.23-.62-1.66c-.41-.42-.98-.63-1.7-.63-.5,0-.96.1-1.37.3-.41.2-.77.51-1.08.93h-1.15v-6.78h6.83v1.39h-5.25v4.06h-.42c.29-.4.67-.72,1.16-.94s1.03-.34,1.64-.34c.73,0,1.35.15,1.89.45.53.3.95.71,1.24,1.25.29.53.44,1.16.44,1.89s-.16,1.36-.49,1.91c-.33.55-.79.98-1.39,1.29-.6.31-1.31.46-2.14.46Z"/>
          <path class="cls-2" d="m455.49,268.58v-9.58c0-.31-.01-.63-.04-.95-.03-.32-.06-.65-.09-.98h1.57l.16,1.82h-.18c.17-.61.51-1.09,1.03-1.44s1.13-.53,1.85-.53,1.34.17,1.87.5c.53.34.95.81,1.24,1.43s.44,1.37.44,2.24-.15,1.61-.44,2.24c-.29.63-.71,1.11-1.24,1.44-.53.33-1.16.5-1.87.5s-1.31-.17-1.83-.52c-.52-.35-.86-.82-1.03-1.42h.18v5.25h-1.62Zm3.9-4.58c.7,0,1.27-.25,1.69-.74s.63-1.22.63-2.18-.21-1.68-.63-2.17-.98-.73-1.69-.73-1.27.24-1.69.73-.63,1.21-.63,2.17.21,1.69.63,2.18.98.74,1.69.74Z"/>
          <path class="cls-2" d="m464.84,265.12v-1.9h1.9v1.9h-1.9Z"/>
          <path class="cls-2" d="m469.72,266.03h-1.36l4.19-12.91h1.36l-4.19,12.91Z"/>
          <path class="cls-2" d="m473.8,265.12v-8.06h1.52v6.8h3.15v-6.8h1.52v6.8h3.14v-6.8h1.54v8.06h-10.86Z"/>
          <path class="cls-2" d="m488.82,265.12v-6.77h-2.85v-1.3h7.31v1.3h-2.86v6.77h-1.6Z"/>
          <path class="cls-2" d="m493.19,265.12v-1.9h1.9v1.9h-1.9Z"/>
          <path class="cls-2" d="m497.75,268h-1.31c.55-1.21.97-2.39,1.25-3.57.28-1.17.42-2.35.42-3.52s-.14-2.33-.42-3.5c-.28-1.17-.69-2.36-1.25-3.57h1.31c.48.79.87,1.56,1.17,2.32.3.76.51,1.53.65,2.31.13.78.2,1.6.2,2.44s-.07,1.67-.2,2.46c-.13.79-.35,1.55-.65,2.31s-.69,1.53-1.17,2.32Z"/>
        </g>
        <text class="cls-3" transform="translate(448.43 306.08)"><tspan x="0" y="0">-</tspan></text>
        <text class="cls-3" transform="translate(448.43 351.25)"><tspan x="0" y="0">-</tspan></text>
        <text class="cls-1" transform="translate(621.47 76.05)"><tspan x="0" y="0">3000 ш</tspan><tspan class="cls-6" x="56.35" y="0">т</tspan><tspan class="cls-9" x="62.98" y="0">.</tspan></text>
        <g>
          <path class="cls-2" d="m623.99,112.6v-1.39h2.62v-8.48h.83l-3.2,1.95v-1.6l2.83-1.76h1.2v9.89h2.46v1.39h-6.75Z"/>
          <path class="cls-2" d="m636.85,112.74c-1.4,0-2.47-.49-3.22-1.46s-1.13-2.33-1.13-4.08c0-1.3.19-2.4.58-3.29.38-.89.93-1.57,1.64-2.04s1.57-.7,2.57-.7c.6,0,1.19.12,1.79.34.6.23,1.1.55,1.5.97l-.59,1.25c-.39-.38-.83-.67-1.3-.86s-.94-.29-1.42-.29c-1.03,0-1.82.36-2.37,1.08-.54.72-.82,1.79-.82,3.22v1.36h-.16c.07-.58.26-1.07.54-1.5.29-.42.66-.74,1.12-.97s.97-.34,1.54-.34c.67,0,1.27.16,1.78.46.52.31.92.73,1.22,1.27.3.54.45,1.16.45,1.85s-.16,1.35-.48,1.92c-.32.57-.76,1-1.32,1.32-.56.32-1.2.47-1.93.47Zm-.1-1.34c.45,0,.84-.1,1.18-.29s.6-.46.79-.81c.19-.35.29-.75.29-1.21s-.1-.86-.29-1.2c-.19-.34-.46-.61-.79-.81s-.73-.3-1.18-.3-.84.1-1.18.3-.61.47-.8.81-.29.74-.29,1.2.1.86.29,1.21c.19.35.46.62.8.81s.74.29,1.18.29Z"/>
          <path class="cls-2" d="m646.45,112.74c-1.4,0-2.47-.49-3.22-1.46s-1.13-2.33-1.13-4.08c0-1.3.19-2.4.58-3.29.38-.89.93-1.57,1.64-2.04s1.57-.7,2.57-.7c.6,0,1.19.12,1.79.34.6.23,1.1.55,1.5.97l-.59,1.25c-.39-.38-.83-.67-1.3-.86s-.94-.29-1.42-.29c-1.03,0-1.82.36-2.37,1.08-.54.72-.82,1.79-.82,3.22v1.36h-.16c.07-.58.26-1.07.54-1.5.29-.42.66-.74,1.12-.97s.97-.34,1.54-.34c.67,0,1.27.16,1.78.46.52.31.92.73,1.22,1.27.3.54.45,1.16.45,1.85s-.16,1.35-.48,1.92c-.32.57-.76,1-1.32,1.32-.56.32-1.2.47-1.93.47Zm-.1-1.34c.45,0,.84-.1,1.18-.29s.6-.46.79-.81c.19-.35.29-.75.29-1.21s-.1-.86-.29-1.2c-.19-.34-.46-.61-.79-.81s-.73-.3-1.18-.3-.84.1-1.18.3-.61.47-.8.81-.29.74-.29,1.2.1.86.29,1.21c.19.35.46.62.8.81s.74.29,1.18.29Z"/>
          <path class="cls-2" d="m652.47,112.6l5.54-10.51v.64h-6.18v-1.41h7.68v1.23l-5.22,10.05h-1.82Z"/>
          <path class="cls-2" d="m665.27,112.74c-1.3,0-2.3-.5-3-1.5-.7-1-1.05-2.43-1.05-4.3s.35-3.34,1.05-4.31c.7-.98,1.7-1.46,3-1.46s2.31.49,3.01,1.46c.69.98,1.04,2.41,1.04,4.29s-.35,3.32-1.05,4.31c-.7,1-1.7,1.5-3,1.5Zm0-1.39c.82,0,1.43-.36,1.83-1.07.4-.71.6-1.83.6-3.34s-.2-2.64-.6-3.34c-.4-.7-1.01-1.05-1.83-1.05s-1.42.35-1.82,1.05c-.41.7-.61,1.81-.61,3.32s.21,2.65.62,3.36c.41.71,1.02,1.07,1.82,1.07Z"/>
          <path class="cls-2" d="m675.62,116.06v-9.58c0-.31-.01-.63-.04-.95-.03-.32-.06-.65-.09-.98h1.57l.16,1.82h-.18c.17-.61.51-1.09,1.03-1.44.52-.35,1.13-.53,1.85-.53s1.34.17,1.87.5.95.81,1.24,1.43c.29.62.44,1.37.44,2.24s-.15,1.61-.44,2.24c-.29.63-.71,1.11-1.24,1.44s-1.16.5-1.87.5-1.31-.17-1.83-.52c-.52-.35-.86-.82-1.03-1.42h.18v5.25h-1.62Zm3.9-4.58c.7,0,1.27-.25,1.69-.74.42-.49.63-1.22.63-2.18s-.21-1.68-.63-2.17c-.42-.49-.98-.73-1.69-.73s-1.27.24-1.69.73c-.42.49-.63,1.21-.63,2.17s.21,1.69.63,2.18c.42.49.98.74,1.69.74Z"/>
          <path class="cls-2" d="m684.96,112.6v-1.9h1.9v1.9h-1.9Z"/>
          <path class="cls-2" d="m613.88,130.48c-.47-.79-.85-1.57-1.15-2.33-.3-.76-.52-1.54-.66-2.32-.14-.78-.21-1.6-.21-2.44s.07-1.67.21-2.45.36-1.55.66-2.3c.3-.76.68-1.53,1.15-2.32h1.31c-.55,1.21-.97,2.39-1.24,3.56-.27,1.17-.41,2.34-.41,3.51s.14,2.34.41,3.51.69,2.36,1.24,3.58h-1.31Z"/>
          <path class="cls-2" d="m620.55,127.74c-.49,0-.98-.05-1.46-.16s-.93-.26-1.34-.46c-.42-.2-.78-.43-1.09-.71l.58-1.26c.51.39,1.04.69,1.58.89.54.2,1.11.3,1.7.3.76,0,1.35-.2,1.78-.59s.65-.92.65-1.58-.21-1.23-.62-1.66c-.41-.42-.98-.63-1.7-.63-.5,0-.96.1-1.37.3-.41.2-.77.51-1.08.93h-1.15v-6.78h6.83v1.39h-5.25v4.06h-.42c.29-.4.67-.72,1.16-.94s1.03-.34,1.64-.34c.73,0,1.35.15,1.89.45.53.3.95.71,1.24,1.25.29.53.44,1.16.44,1.89s-.16,1.36-.49,1.91c-.33.55-.79.98-1.39,1.29-.6.31-1.31.46-2.14.46Z"/>
          <path class="cls-2" d="m626.95,129.57l-.7-.54c.31-.33.52-.63.63-.91.11-.28.17-.57.17-.86l.35.35h-1.26v-1.9h1.9v1.3c0,.48-.08.93-.24,1.34-.16.41-.44.82-.85,1.24Z"/>
          <path class="cls-2" d="m633.95,127.74c-.49,0-.98-.05-1.46-.16s-.93-.26-1.34-.46c-.42-.2-.78-.43-1.09-.71l.58-1.26c.51.39,1.04.69,1.58.89.54.2,1.11.3,1.7.3.76,0,1.35-.2,1.78-.59s.65-.92.65-1.58-.21-1.23-.62-1.66c-.41-.42-.98-.63-1.7-.63-.5,0-.96.1-1.37.3-.41.2-.77.51-1.08.93h-1.15v-6.78h6.83v1.39h-5.25v4.06h-.42c.29-.4.67-.72,1.16-.94s1.03-.34,1.64-.34c.73,0,1.35.15,1.89.45.53.3.95.71,1.24,1.25.29.53.44,1.16.44,1.89s-.16,1.36-.49,1.91c-.33.55-.79.98-1.39,1.29-.6.31-1.31.46-2.14.46Z"/>
          <path class="cls-2" d="m642.59,127.74c-.6,0-1.19-.12-1.79-.36-.6-.24-1.1-.56-1.5-.95l.59-1.26c.39.38.83.67,1.3.87.47.2.94.3,1.42.3,1.02,0,1.81-.36,2.36-1.08.55-.72.82-1.79.82-3.22v-1.36h.16c-.06.57-.25,1.06-.54,1.49-.3.43-.67.75-1.13.98-.45.22-.96.34-1.53.34-.66,0-1.26-.16-1.78-.46-.53-.31-.94-.74-1.23-1.28-.29-.54-.44-1.16-.44-1.84,0-.73.16-1.37.48-1.93.32-.56.76-1,1.31-1.31.55-.31,1.19-.47,1.92-.47,1.41,0,2.49.48,3.24,1.45.75.97,1.13,2.33,1.13,4.09,0,1.29-.19,2.38-.57,3.28-.38.9-.93,1.58-1.64,2.05-.71.47-1.57.7-2.58.7Zm.53-5.63c.45,0,.84-.1,1.18-.29s.61-.46.8-.81c.19-.35.29-.74.29-1.19s-.1-.86-.29-1.21c-.19-.35-.46-.62-.8-.82s-.74-.3-1.18-.3-.84.1-1.18.3-.6.47-.79.82-.29.75-.29,1.21.1.85.29,1.19c.19.35.46.62.79.81s.73.29,1.18.29Z"/>
          <path class="cls-2" d="m653.74,131.06v-9.58c0-.31-.01-.63-.04-.95-.03-.32-.06-.65-.09-.98h1.57l.16,1.82h-.18c.17-.61.51-1.09,1.03-1.44s1.13-.53,1.85-.53,1.34.17,1.87.5c.53.34.95.81,1.24,1.43s.44,1.37.44,2.24-.15,1.61-.44,2.24c-.29.63-.71,1.11-1.24,1.44-.53.33-1.16.5-1.87.5s-1.31-.17-1.83-.52c-.52-.35-.86-.82-1.03-1.42h.18v5.25h-1.62Zm3.9-4.58c.7,0,1.27-.25,1.69-.74s.63-1.22.63-2.18-.21-1.68-.63-2.17-.98-.73-1.69-.73-1.27.24-1.69.73-.63,1.21-.63,2.17.21,1.69.63,2.18.98.74,1.69.74Z"/>
          <path class="cls-2" d="m663.08,127.6v-1.9h1.9v1.9h-1.9Z"/>
          <path class="cls-2" d="m667.96,128.51h-1.36l4.19-12.91h1.36l-4.19,12.91Z"/>
          <path class="cls-2" d="m672.04,127.6v-8.06h1.52v6.8h3.15v-6.8h1.52v6.8h3.14v-6.8h1.54v8.06h-10.86Z"/>
          <path class="cls-2" d="m687.07,127.6v-6.77h-2.85v-1.3h7.31v1.3h-2.86v6.77h-1.6Z"/>
          <path class="cls-2" d="m691.43,127.6v-1.9h1.9v1.9h-1.9Z"/>
          <path class="cls-2" d="m695.99,130.48h-1.31c.55-1.21.97-2.39,1.25-3.57.28-1.17.42-2.35.42-3.52s-.14-2.33-.42-3.5c-.28-1.17-.69-2.36-1.25-3.57h1.31c.48.79.87,1.56,1.17,2.32.3.76.51,1.53.65,2.31.13.78.2,1.6.2,2.44s-.07,1.67-.2,2.46c-.13.79-.35,1.55-.65,2.31s-.69,1.53-1.17,2.32Z"/>
        </g>
        <g>
          <path class="cls-2" d="m631.67,158.49c-1.3,0-2.31-.28-3.04-.83-.73-.55-1.09-1.33-1.09-2.32,0-.79.24-1.44.72-1.96.48-.52,1.11-.83,1.89-.94v.29c-.7-.15-1.27-.47-1.69-.98s-.63-1.11-.63-1.82c0-.94.34-1.67,1.02-2.21.68-.53,1.62-.8,2.82-.8s2.15.27,2.83.8c.68.53,1.02,1.27,1.02,2.21,0,.71-.2,1.33-.6,1.83-.4.51-.95.82-1.64.95v-.27c.77.11,1.38.42,1.84.94.46.52.69,1.17.69,1.96,0,.99-.36,1.77-1.09,2.32-.73.55-1.74.83-3.06.83Zm0-1.31c.86,0,1.51-.16,1.94-.49.43-.33.64-.81.64-1.46s-.21-1.14-.64-1.46-1.07-.48-1.94-.48-1.51.16-1.94.48-.64.81-.64,1.46.22,1.14.65,1.46c.43.33,1.07.49,1.93.49Zm0-5.2c.75,0,1.31-.17,1.7-.5.39-.34.58-.8.58-1.38s-.19-1.03-.58-1.36c-.39-.33-.96-.5-1.7-.5s-1.3.17-1.7.5c-.39.33-.59.78-.59,1.36s.2,1.05.59,1.38.96.5,1.7.5Z"/>
          <path class="cls-2" d="m640.47,158.49c-.6,0-1.19-.12-1.79-.36-.6-.24-1.1-.56-1.5-.95l.59-1.26c.39.38.83.67,1.3.87.47.2.94.3,1.42.3,1.02,0,1.81-.36,2.36-1.08.55-.72.82-1.79.82-3.22v-1.36h.16c-.06.57-.25,1.06-.54,1.49-.3.43-.67.75-1.13.98-.45.22-.96.34-1.53.34-.66,0-1.26-.16-1.78-.46-.53-.31-.94-.74-1.23-1.28-.29-.54-.44-1.16-.44-1.84,0-.73.16-1.37.48-1.93.32-.56.76-1,1.31-1.31.55-.31,1.19-.47,1.92-.47,1.41,0,2.49.48,3.24,1.45.75.97,1.13,2.33,1.13,4.09,0,1.29-.19,2.38-.57,3.28-.38.9-.93,1.58-1.64,2.05-.71.47-1.57.71-2.58.71Zm.53-5.63c.45,0,.84-.1,1.18-.29.34-.19.61-.46.8-.81.19-.35.29-.74.29-1.19s-.1-.86-.29-1.21c-.19-.35-.46-.62-.8-.82s-.74-.3-1.18-.3-.84.1-1.18.3-.6.47-.79.82c-.19.35-.29.75-.29,1.21s.1.84.29,1.19.46.62.79.81c.34.19.73.29,1.18.29Z"/>
          <path class="cls-2" d="m647.67,158.34l5.54-10.51v.64h-6.18v-1.41h7.68v1.23l-5.22,10.05h-1.82Z"/>
          <path class="cls-2" d="m660.47,158.49c-1.3,0-2.3-.5-3-1.5-.7-1-1.05-2.43-1.05-4.3s.35-3.34,1.05-4.31,1.7-1.46,3-1.46,2.31.49,3.01,1.46c.69.98,1.04,2.41,1.04,4.3s-.35,3.31-1.05,4.31c-.7,1-1.7,1.5-3,1.5Zm0-1.39c.82,0,1.43-.36,1.83-1.07.4-.71.6-1.83.6-3.34s-.2-2.64-.6-3.34c-.4-.7-1.01-1.05-1.83-1.05s-1.42.35-1.82,1.05c-.41.7-.61,1.81-.61,3.32s.21,2.64.62,3.36,1.02,1.07,1.82,1.07Z"/>
          <path class="cls-2" d="m670.82,161.8v-9.58c0-.31-.01-.63-.04-.95-.03-.33-.06-.65-.09-.98h1.57l.16,1.82h-.18c.17-.61.51-1.09,1.03-1.44.52-.35,1.13-.53,1.85-.53s1.34.17,1.87.5.95.81,1.24,1.43c.29.62.44,1.37.44,2.24s-.15,1.61-.44,2.24c-.29.63-.71,1.11-1.24,1.44-.53.33-1.16.5-1.87.5s-1.31-.17-1.83-.52-.86-.82-1.03-1.42h.18v5.25h-1.62Zm3.9-4.58c.7,0,1.27-.25,1.69-.74.42-.49.63-1.22.63-2.18s-.21-1.68-.63-2.17c-.42-.49-.98-.73-1.69-.73s-1.27.24-1.69.73c-.42.49-.63,1.21-.63,2.17s.21,1.69.63,2.18c.42.49.98.74,1.69.74Z"/>
          <path class="cls-2" d="m680.16,158.34v-1.9h1.9v1.9h-1.9Z"/>
          <path class="cls-2" d="m613.88,176.22c-.47-.79-.85-1.57-1.15-2.33-.3-.76-.52-1.54-.66-2.32-.14-.78-.21-1.6-.21-2.44s.07-1.67.21-2.45c.14-.78.36-1.55.66-2.3.3-.76.68-1.53,1.15-2.32h1.31c-.55,1.21-.97,2.39-1.24,3.56-.27,1.17-.41,2.34-.41,3.51s.14,2.34.41,3.51.69,2.36,1.24,3.58h-1.31Z"/>
          <path class="cls-2" d="m616.92,173.34v-1.23l3.87-4.05c.5-.52.87-1.01,1.12-1.47.25-.46.37-.93.37-1.42,0-.61-.19-1.07-.57-1.38-.38-.31-.93-.46-1.64-.46-.57,0-1.1.1-1.59.3-.5.2-.97.51-1.43.93l-.58-1.26c.45-.42,1.01-.75,1.67-1s1.37-.38,2.12-.38c1.17,0,2.08.27,2.71.8.63.53.95,1.3.95,2.29,0,.7-.17,1.38-.51,2.02-.34.65-.85,1.31-1.54,1.99l-3.34,3.38v-.45h5.86v1.39h-7.47Z"/>
          <path class="cls-2" d="m626.95,175.31l-.7-.54c.31-.33.52-.63.63-.91s.17-.56.17-.86l.35.35h-1.26v-1.9h1.9v1.3c0,.48-.08.92-.24,1.34-.16.41-.44.82-.85,1.24Z"/>
          <path class="cls-2" d="m632.99,173.49c-.6,0-1.19-.12-1.79-.36-.6-.24-1.1-.56-1.5-.95l.59-1.26c.39.38.83.67,1.3.87.47.2.94.3,1.42.3,1.02,0,1.81-.36,2.36-1.08.55-.72.82-1.79.82-3.22v-1.36h.16c-.06.57-.25,1.06-.54,1.49-.3.43-.67.75-1.13.98-.45.22-.96.34-1.53.34-.66,0-1.26-.16-1.78-.46-.53-.31-.94-.74-1.23-1.28-.29-.54-.44-1.16-.44-1.84,0-.73.16-1.37.48-1.93.32-.56.76-1,1.31-1.31.55-.31,1.19-.47,1.92-.47,1.41,0,2.49.48,3.24,1.45.75.97,1.13,2.33,1.13,4.09,0,1.29-.19,2.38-.57,3.28-.38.9-.93,1.58-1.64,2.05-.71.47-1.57.71-2.58.71Zm.53-5.63c.45,0,.84-.1,1.18-.29.34-.19.61-.46.8-.81.19-.35.29-.74.29-1.19s-.1-.86-.29-1.21c-.19-.35-.46-.62-.8-.82s-.74-.3-1.18-.3-.84.1-1.18.3-.6.47-.79.82c-.19.35-.29.75-.29,1.21s.1.84.29,1.19.46.62.79.81c.34.19.73.29,1.18.29Z"/>
          <path class="cls-2" d="m642.59,173.49c-.6,0-1.19-.12-1.79-.36-.6-.24-1.1-.56-1.5-.95l.59-1.26c.39.38.83.67,1.3.87.47.2.94.3,1.42.3,1.02,0,1.81-.36,2.36-1.08.55-.72.82-1.79.82-3.22v-1.36h.16c-.06.57-.25,1.06-.54,1.49-.3.43-.67.75-1.13.98-.45.22-.96.34-1.53.34-.66,0-1.26-.16-1.78-.46-.53-.31-.94-.74-1.23-1.28-.29-.54-.44-1.16-.44-1.84,0-.73.16-1.37.48-1.93.32-.56.76-1,1.31-1.31.55-.31,1.19-.47,1.92-.47,1.41,0,2.49.48,3.24,1.45.75.97,1.13,2.33,1.13,4.09,0,1.29-.19,2.38-.57,3.28-.38.9-.93,1.58-1.64,2.05-.71.47-1.57.71-2.58.71Zm.53-5.63c.45,0,.84-.1,1.18-.29.34-.19.61-.46.8-.81.19-.35.29-.74.29-1.19s-.1-.86-.29-1.21c-.19-.35-.46-.62-.8-.82s-.74-.3-1.18-.3-.84.1-1.18.3-.6.47-.79.82c-.19.35-.29.75-.29,1.21s.1.84.29,1.19.46.62.79.81c.34.19.73.29,1.18.29Z"/>
          <path class="cls-2" d="m653.74,176.8v-9.58c0-.31-.01-.63-.04-.95-.03-.33-.06-.65-.09-.98h1.57l.16,1.82h-.18c.17-.61.51-1.09,1.03-1.44.52-.35,1.13-.53,1.85-.53s1.34.17,1.87.5c.53.34.95.81,1.24,1.43.29.62.44,1.37.44,2.24s-.15,1.61-.44,2.24-.71,1.11-1.24,1.44c-.53.33-1.16.5-1.87.5s-1.31-.17-1.83-.52c-.52-.35-.86-.82-1.03-1.42h.18v5.25h-1.62Zm3.9-4.58c.7,0,1.27-.25,1.69-.74.42-.49.63-1.22.63-2.18s-.21-1.68-.63-2.17-.98-.73-1.69-.73-1.27.24-1.69.73-.63,1.21-.63,2.17.21,1.69.63,2.18c.42.49.98.74,1.69.74Z"/>
          <path class="cls-2" d="m663.08,173.34v-1.9h1.9v1.9h-1.9Z"/>
          <path class="cls-2" d="m667.96,174.25h-1.36l4.19-12.91h1.36l-4.19,12.91Z"/>
          <path class="cls-2" d="m672.04,173.34v-8.06h1.52v6.8h3.15v-6.8h1.52v6.8h3.14v-6.8h1.54v8.06h-10.86Z"/>
          <path class="cls-2" d="m687.07,173.34v-6.77h-2.85v-1.3h7.31v1.3h-2.86v6.77h-1.6Z"/>
          <path class="cls-2" d="m691.43,173.34v-1.9h1.9v1.9h-1.9Z"/>
          <path class="cls-2" d="m695.99,176.22h-1.31c.55-1.21.97-2.39,1.25-3.57.28-1.17.42-2.35.42-3.52s-.14-2.33-.42-3.5c-.28-1.17-.69-2.36-1.25-3.57h1.31c.48.79.87,1.56,1.17,2.32s.51,1.53.65,2.31c.13.79.2,1.6.2,2.44s-.07,1.67-.2,2.46c-.13.78-.35,1.55-.65,2.31-.3.76-.69,1.53-1.17,2.32Z"/>
        </g>
        <text class="cls-3" transform="translate(651.47 204.17)"><tspan x="0" y="0">-</tspan></text>
        <text class="cls-3" transform="translate(651.47 250.12)"><tspan x="0" y="0">-</tspan></text>
        <text class="cls-3" transform="translate(651.47 306.08)"><tspan x="0" y="0">-</tspan></text>
        <text class="cls-3" transform="translate(651.47 351.25)"><tspan x="0" y="0">-</tspan></text>
        <text class="cls-1" transform="translate(812.33 76.05)"><tspan x="0" y="0">5000 ш</tspan><tspan class="cls-6" x="56.35" y="0">т</tspan><tspan class="cls-9" x="62.98" y="0">.</tspan></text>
        <g>
          <path class="cls-2" d="m814.26,112.6v-1.23l3.87-4.05c.5-.52.87-1.01,1.12-1.47.25-.46.37-.93.37-1.42,0-.61-.19-1.07-.57-1.38-.38-.31-.93-.46-1.64-.46-.57,0-1.1.1-1.59.3-.5.2-.97.51-1.43.93l-.58-1.26c.45-.42,1.01-.75,1.67-1,.67-.25,1.37-.38,2.12-.38,1.17,0,2.08.27,2.71.8s.95,1.29.95,2.29c0,.71-.17,1.38-.51,2.02-.34.65-.85,1.31-1.54,1.99l-3.34,3.38v-.45h5.86v1.39h-7.47Z"/>
          <path class="cls-2" d="m824.13,112.6l5.54-10.51v.64h-6.18v-1.41h7.68v1.23l-5.22,10.05h-1.82Z"/>
          <path class="cls-2" d="m836.13,112.74c-.6,0-1.19-.12-1.79-.36-.6-.24-1.1-.56-1.5-.95l.59-1.26c.39.38.83.67,1.3.87.47.2.94.3,1.42.3,1.02,0,1.81-.36,2.36-1.08.55-.72.82-1.79.82-3.22v-1.36h.16c-.06.57-.25,1.06-.54,1.49-.3.43-.67.75-1.13.98-.45.22-.96.34-1.53.34-.66,0-1.26-.16-1.78-.46-.53-.31-.94-.74-1.23-1.28-.29-.54-.44-1.16-.44-1.84,0-.73.16-1.37.48-1.93.32-.56.76-1,1.31-1.31.55-.31,1.19-.47,1.92-.47,1.41,0,2.49.48,3.24,1.45.75.97,1.13,2.33,1.13,4.09,0,1.29-.19,2.38-.57,3.28-.38.9-.93,1.58-1.64,2.05-.71.47-1.57.7-2.58.7Zm.53-5.63c.45,0,.84-.1,1.18-.29s.61-.46.8-.81c.19-.35.29-.74.29-1.19s-.1-.86-.29-1.21c-.19-.35-.46-.62-.8-.82s-.74-.3-1.18-.3-.84.1-1.18.3-.6.47-.79.82-.29.75-.29,1.21.1.85.29,1.19c.19.35.46.62.79.81s.73.29,1.18.29Z"/>
          <path class="cls-2" d="m846.69,112.74c-.49,0-.98-.05-1.46-.16s-.93-.26-1.34-.46c-.42-.2-.78-.43-1.09-.71l.58-1.26c.51.39,1.04.69,1.58.89.54.2,1.11.3,1.7.3.76,0,1.35-.2,1.78-.59s.65-.92.65-1.58-.21-1.23-.62-1.66c-.41-.42-.98-.63-1.7-.63-.5,0-.96.1-1.37.3-.41.2-.77.51-1.08.93h-1.15v-6.78h6.83v1.39h-5.25v4.06h-.42c.29-.4.67-.72,1.16-.94s1.03-.34,1.64-.34c.73,0,1.35.15,1.89.45.53.3.95.71,1.24,1.25.29.53.44,1.16.44,1.89s-.16,1.36-.49,1.91c-.33.55-.79.98-1.39,1.29-.6.31-1.31.46-2.14.46Z"/>
          <path class="cls-2" d="m856.13,112.74c-1.3,0-2.3-.5-3-1.5-.7-1-1.05-2.43-1.05-4.3s.35-3.34,1.05-4.31c.7-.98,1.7-1.46,3-1.46s2.31.49,3.01,1.46c.69.98,1.04,2.41,1.04,4.29s-.35,3.32-1.05,4.31c-.7,1-1.7,1.5-3,1.5Zm0-1.39c.82,0,1.43-.36,1.83-1.07.4-.71.6-1.83.6-3.34s-.2-2.64-.6-3.34c-.4-.7-1.01-1.05-1.83-1.05s-1.42.35-1.82,1.05c-.41.7-.61,1.81-.61,3.32s.21,2.65.62,3.36c.41.71,1.02,1.07,1.82,1.07Z"/>
          <path class="cls-2" d="m866.49,116.06v-9.58c0-.31-.01-.63-.04-.95-.03-.32-.06-.65-.09-.98h1.57l.16,1.82h-.18c.17-.61.51-1.09,1.03-1.44.52-.35,1.13-.53,1.85-.53s1.34.17,1.87.5.95.81,1.24,1.43c.29.62.44,1.37.44,2.24s-.15,1.61-.44,2.24c-.29.63-.71,1.11-1.24,1.44s-1.16.5-1.87.5-1.31-.17-1.83-.52c-.52-.35-.86-.82-1.03-1.42h.18v5.25h-1.62Zm3.9-4.58c.7,0,1.27-.25,1.69-.74.42-.49.63-1.22.63-2.18s-.21-1.68-.63-2.17c-.42-.49-.98-.73-1.69-.73s-1.27.24-1.69.73c-.42.49-.63,1.21-.63,2.17s.21,1.69.63,2.18c.42.49.98.74,1.69.74Z"/>
          <path class="cls-2" d="m875.83,112.6v-1.9h1.9v1.9h-1.9Z"/>
          <path class="cls-2" d="m804.75,130.48c-.47-.79-.85-1.57-1.15-2.33-.3-.76-.52-1.54-.66-2.32-.14-.78-.21-1.6-.21-2.44s.07-1.67.21-2.45.36-1.55.66-2.3c.3-.76.68-1.53,1.15-2.32h1.31c-.55,1.21-.97,2.39-1.24,3.56-.27,1.17-.41,2.34-.41,3.51s.14,2.34.41,3.51.69,2.36,1.24,3.58h-1.31Z"/>
          <path class="cls-2" d="m811.42,127.74c-.49,0-.98-.05-1.46-.16s-.93-.26-1.34-.46c-.42-.2-.78-.43-1.09-.71l.58-1.26c.51.39,1.04.69,1.58.89.54.2,1.11.3,1.7.3.76,0,1.35-.2,1.78-.59s.65-.92.65-1.58-.21-1.23-.62-1.66c-.41-.42-.98-.63-1.7-.63-.5,0-.96.1-1.37.3-.41.2-.77.51-1.08.93h-1.15v-6.78h6.83v1.39h-5.25v4.06h-.42c.29-.4.67-.72,1.16-.94s1.03-.34,1.64-.34c.73,0,1.35.15,1.89.45.53.3.95.71,1.24,1.25.29.53.44,1.16.44,1.89s-.16,1.36-.49,1.91c-.33.55-.79.98-1.39,1.29-.6.31-1.31.46-2.14.46Z"/>
          <path class="cls-2" d="m817.82,129.57l-.7-.54c.31-.33.52-.63.63-.91.11-.28.17-.57.17-.86l.35.35h-1.26v-1.9h1.9v1.3c0,.48-.08.93-.24,1.34-.16.41-.44.82-.85,1.24Z"/>
          <path class="cls-2" d="m824.81,127.74c-.49,0-.98-.05-1.46-.16s-.93-.26-1.34-.46c-.42-.2-.78-.43-1.09-.71l.58-1.26c.51.39,1.04.69,1.58.89.54.2,1.11.3,1.7.3.76,0,1.35-.2,1.78-.59s.65-.92.65-1.58-.21-1.23-.62-1.66c-.41-.42-.98-.63-1.7-.63-.5,0-.96.1-1.37.3-.41.2-.77.51-1.08.93h-1.15v-6.78h6.83v1.39h-5.25v4.06h-.42c.29-.4.67-.72,1.16-.94s1.03-.34,1.64-.34c.73,0,1.35.15,1.89.45.53.3.95.71,1.24,1.25.29.53.44,1.16.44,1.89s-.16,1.36-.49,1.91c-.33.55-.79.98-1.39,1.29-.6.31-1.31.46-2.14.46Z"/>
          <path class="cls-2" d="m833.45,127.74c-.6,0-1.19-.12-1.79-.36-.6-.24-1.1-.56-1.5-.95l.59-1.26c.39.38.83.67,1.3.87.47.2.94.3,1.42.3,1.02,0,1.81-.36,2.36-1.08.55-.72.82-1.79.82-3.22v-1.36h.16c-.06.57-.25,1.06-.54,1.49-.3.43-.67.75-1.13.98-.45.22-.96.34-1.53.34-.66,0-1.26-.16-1.78-.46-.53-.31-.94-.74-1.23-1.28-.29-.54-.44-1.16-.44-1.84,0-.73.16-1.37.48-1.93.32-.56.76-1,1.31-1.31.55-.31,1.19-.47,1.92-.47,1.41,0,2.49.48,3.24,1.45.75.97,1.13,2.33,1.13,4.09,0,1.29-.19,2.38-.57,3.28-.38.9-.93,1.58-1.64,2.05-.71.47-1.57.7-2.58.7Zm.53-5.63c.45,0,.84-.1,1.18-.29s.61-.46.8-.81c.19-.35.29-.74.29-1.19s-.1-.86-.29-1.21c-.19-.35-.46-.62-.8-.82s-.74-.3-1.18-.3-.84.1-1.18.3-.6.47-.79.82-.29.75-.29,1.21.1.85.29,1.19c.19.35.46.62.79.81s.73.29,1.18.29Z"/>
          <path class="cls-2" d="m844.61,131.06v-9.58c0-.31-.01-.63-.04-.95-.03-.32-.06-.65-.09-.98h1.57l.16,1.82h-.18c.17-.61.51-1.09,1.03-1.44s1.13-.53,1.85-.53,1.34.17,1.87.5c.53.34.95.81,1.24,1.43s.44,1.37.44,2.24-.15,1.61-.44,2.24c-.29.63-.71,1.11-1.24,1.44-.53.33-1.16.5-1.87.5s-1.31-.17-1.83-.52c-.52-.35-.86-.82-1.03-1.42h.18v5.25h-1.62Zm3.9-4.58c.7,0,1.27-.25,1.69-.74s.63-1.22.63-2.18-.21-1.68-.63-2.17-.98-.73-1.69-.73-1.27.24-1.69.73-.63,1.21-.63,2.17.21,1.69.63,2.18.98.74,1.69.74Z"/>
          <path class="cls-2" d="m853.95,127.6v-1.9h1.9v1.9h-1.9Z"/>
          <path class="cls-2" d="m858.83,128.51h-1.36l4.19-12.91h1.36l-4.19,12.91Z"/>
          <path class="cls-2" d="m862.91,127.6v-8.06h1.52v6.8h3.15v-6.8h1.52v6.8h3.14v-6.8h1.54v8.06h-10.86Z"/>
          <path class="cls-2" d="m877.93,127.6v-6.77h-2.85v-1.3h7.31v1.3h-2.86v6.77h-1.6Z"/>
          <path class="cls-2" d="m882.3,127.6v-1.9h1.9v1.9h-1.9Z"/>
          <path class="cls-2" d="m886.86,130.48h-1.31c.55-1.21.97-2.39,1.25-3.57.28-1.17.42-2.35.42-3.52s-.14-2.33-.42-3.5c-.28-1.17-.69-2.36-1.25-3.57h1.31c.48.79.87,1.56,1.17,2.32.3.76.51,1.53.65,2.31.13.78.2,1.6.2,2.44s-.07,1.67-.2,2.46c-.13.79-.35,1.55-.65,2.31s-.69,1.53-1.17,2.32Z"/>
        </g>
        <g>
          <path class="cls-2" d="m814.85,158.34v-1.39h2.62v-8.48h.83l-3.2,1.95v-1.6l2.83-1.76h1.2v9.89h2.46v1.39h-6.75Z"/>
          <path class="cls-2" d="m828.49,158.34v-2.34h-5.22v-1.18l5.49-7.76h1.34v7.65h1.68v1.3h-1.68v2.34h-1.62Zm0-3.63v-5.68h.37l-4.29,6.08v-.4h3.92Z"/>
          <path class="cls-2" d="m836.13,158.49c-.6,0-1.19-.12-1.79-.36-.6-.24-1.1-.56-1.5-.95l.59-1.26c.39.38.83.67,1.3.87.47.2.94.3,1.42.3,1.02,0,1.81-.36,2.36-1.08.55-.72.82-1.79.82-3.22v-1.36h.16c-.06.57-.25,1.06-.54,1.49-.3.43-.67.75-1.13.98-.45.22-.96.34-1.53.34-.66,0-1.26-.16-1.78-.46-.53-.31-.94-.74-1.23-1.28-.29-.54-.44-1.16-.44-1.84,0-.73.16-1.37.48-1.93.32-.56.76-1,1.31-1.31.55-.31,1.19-.47,1.92-.47,1.41,0,2.49.48,3.24,1.45.75.97,1.13,2.33,1.13,4.09,0,1.29-.19,2.38-.57,3.28-.38.9-.93,1.58-1.64,2.05-.71.47-1.57.71-2.58.71Zm.53-5.63c.45,0,.84-.1,1.18-.29.34-.19.61-.46.8-.81.19-.35.29-.74.29-1.19s-.1-.86-.29-1.21c-.19-.35-.46-.62-.8-.82s-.74-.3-1.18-.3-.84.1-1.18.3-.6.47-.79.82c-.19.35-.29.75-.29,1.21s.1.84.29,1.19.46.62.79.81c.34.19.73.29,1.18.29Z"/>
          <path class="cls-2" d="m846.69,158.49c-.49,0-.98-.05-1.46-.16-.48-.11-.93-.26-1.34-.46-.42-.2-.78-.43-1.09-.71l.58-1.26c.51.4,1.04.69,1.58.89.54.2,1.11.3,1.7.3.76,0,1.35-.2,1.78-.59s.65-.92.65-1.58-.21-1.23-.62-1.66c-.41-.42-.98-.63-1.7-.63-.5,0-.96.1-1.37.3s-.77.51-1.08.93h-1.15v-6.78h6.83v1.39h-5.25v4.06h-.42c.29-.41.67-.72,1.16-.94.49-.22,1.03-.34,1.64-.34.73,0,1.35.15,1.89.45s.95.71,1.24,1.25c.29.53.44,1.16.44,1.89s-.16,1.36-.49,1.91c-.33.55-.79.98-1.39,1.29-.6.31-1.31.46-2.14.46Z"/>
          <path class="cls-2" d="m856.13,158.49c-1.3,0-2.3-.5-3-1.5-.7-1-1.05-2.43-1.05-4.3s.35-3.34,1.05-4.31,1.7-1.46,3-1.46,2.31.49,3.01,1.46c.69.98,1.04,2.41,1.04,4.3s-.35,3.31-1.05,4.31c-.7,1-1.7,1.5-3,1.5Zm0-1.39c.82,0,1.43-.36,1.83-1.07.4-.71.6-1.83.6-3.34s-.2-2.64-.6-3.34c-.4-.7-1.01-1.05-1.83-1.05s-1.42.35-1.82,1.05c-.41.7-.61,1.81-.61,3.32s.21,2.64.62,3.36,1.02,1.07,1.82,1.07Z"/>
          <path class="cls-2" d="m866.49,161.8v-9.58c0-.31-.01-.63-.04-.95-.03-.33-.06-.65-.09-.98h1.57l.16,1.82h-.18c.17-.61.51-1.09,1.03-1.44.52-.35,1.13-.53,1.85-.53s1.34.17,1.87.5.95.81,1.24,1.43c.29.62.44,1.37.44,2.24s-.15,1.61-.44,2.24c-.29.63-.71,1.11-1.24,1.44-.53.33-1.16.5-1.87.5s-1.31-.17-1.83-.52-.86-.82-1.03-1.42h.18v5.25h-1.62Zm3.9-4.58c.7,0,1.27-.25,1.69-.74.42-.49.63-1.22.63-2.18s-.21-1.68-.63-2.17c-.42-.49-.98-.73-1.69-.73s-1.27.24-1.69.73c-.42.49-.63,1.21-.63,2.17s.21,1.69.63,2.18c.42.49.98.74,1.69.74Z"/>
          <path class="cls-2" d="m875.83,158.34v-1.9h1.9v1.9h-1.9Z"/>
          <path class="cls-2" d="m804.75,176.22c-.47-.79-.85-1.57-1.15-2.33-.3-.76-.52-1.54-.66-2.32-.14-.78-.21-1.6-.21-2.44s.07-1.67.21-2.45c.14-.78.36-1.55.66-2.3.3-.76.68-1.53,1.15-2.32h1.31c-.55,1.21-.97,2.39-1.24,3.56-.27,1.17-.41,2.34-.41,3.51s.14,2.34.41,3.51.69,2.36,1.24,3.58h-1.31Z"/>
          <path class="cls-2" d="m807.79,173.34v-1.23l3.87-4.05c.5-.52.87-1.01,1.12-1.47.25-.46.37-.93.37-1.42,0-.61-.19-1.07-.57-1.38-.38-.31-.93-.46-1.64-.46-.57,0-1.1.1-1.59.3-.5.2-.97.51-1.43.93l-.58-1.26c.45-.42,1.01-.75,1.67-1s1.37-.38,2.12-.38c1.17,0,2.08.27,2.71.8.63.53.95,1.3.95,2.29,0,.7-.17,1.38-.51,2.02-.34.65-.85,1.31-1.54,1.99l-3.34,3.38v-.45h5.86v1.39h-7.47Z"/>
          <path class="cls-2" d="m817.82,175.31l-.7-.54c.31-.33.52-.63.63-.91s.17-.56.17-.86l.35.35h-1.26v-1.9h1.9v1.3c0,.48-.08.92-.24,1.34-.16.41-.44.82-.85,1.24Z"/>
          <path class="cls-2" d="m823.85,173.49c-.6,0-1.19-.12-1.79-.36-.6-.24-1.1-.56-1.5-.95l.59-1.26c.39.38.83.67,1.3.87.47.2.94.3,1.42.3,1.02,0,1.81-.36,2.36-1.08.55-.72.82-1.79.82-3.22v-1.36h.16c-.06.57-.25,1.06-.54,1.49-.3.43-.67.75-1.13.98-.45.22-.96.34-1.53.34-.66,0-1.26-.16-1.78-.46-.53-.31-.94-.74-1.23-1.28-.29-.54-.44-1.16-.44-1.84,0-.73.16-1.37.48-1.93.32-.56.76-1,1.31-1.31.55-.31,1.19-.47,1.92-.47,1.41,0,2.49.48,3.24,1.45.75.97,1.13,2.33,1.13,4.09,0,1.29-.19,2.38-.57,3.28-.38.9-.93,1.58-1.64,2.05-.71.47-1.57.71-2.58.71Zm.53-5.63c.45,0,.84-.1,1.18-.29.34-.19.61-.46.8-.81.19-.35.29-.74.29-1.19s-.1-.86-.29-1.21c-.19-.35-.46-.62-.8-.82s-.74-.3-1.18-.3-.84.1-1.18.3-.6.47-.79.82c-.19.35-.29.75-.29,1.21s.1.84.29,1.19.46.62.79.81c.34.19.73.29,1.18.29Z"/>
          <path class="cls-2" d="m833.45,173.49c-.6,0-1.19-.12-1.79-.36-.6-.24-1.1-.56-1.5-.95l.59-1.26c.39.38.83.67,1.3.87.47.2.94.3,1.42.3,1.02,0,1.81-.36,2.36-1.08.55-.72.82-1.79.82-3.22v-1.36h.16c-.06.57-.25,1.06-.54,1.49-.3.43-.67.75-1.13.98-.45.22-.96.34-1.53.34-.66,0-1.26-.16-1.78-.46-.53-.31-.94-.74-1.23-1.28-.29-.54-.44-1.16-.44-1.84,0-.73.16-1.37.48-1.93.32-.56.76-1,1.31-1.31.55-.31,1.19-.47,1.92-.47,1.41,0,2.49.48,3.24,1.45.75.97,1.13,2.33,1.13,4.09,0,1.29-.19,2.38-.57,3.28-.38.9-.93,1.58-1.64,2.05-.71.47-1.57.71-2.58.71Zm.53-5.63c.45,0,.84-.1,1.18-.29.34-.19.61-.46.8-.81.19-.35.29-.74.29-1.19s-.1-.86-.29-1.21c-.19-.35-.46-.62-.8-.82s-.74-.3-1.18-.3-.84.1-1.18.3-.6.47-.79.82c-.19.35-.29.75-.29,1.21s.1.84.29,1.19.46.62.79.81c.34.19.73.29,1.18.29Z"/>
          <path class="cls-2" d="m844.61,176.8v-9.58c0-.31-.01-.63-.04-.95-.03-.33-.06-.65-.09-.98h1.57l.16,1.82h-.18c.17-.61.51-1.09,1.03-1.44.52-.35,1.13-.53,1.85-.53s1.34.17,1.87.5c.53.34.95.81,1.24,1.43.29.62.44,1.37.44,2.24s-.15,1.61-.44,2.24-.71,1.11-1.24,1.44c-.53.33-1.16.5-1.87.5s-1.31-.17-1.83-.52c-.52-.35-.86-.82-1.03-1.42h.18v5.25h-1.62Zm3.9-4.58c.7,0,1.27-.25,1.69-.74.42-.49.63-1.22.63-2.18s-.21-1.68-.63-2.17-.98-.73-1.69-.73-1.27.24-1.69.73-.63,1.21-.63,2.17.21,1.69.63,2.18c.42.49.98.74,1.69.74Z"/>
          <path class="cls-2" d="m853.95,173.34v-1.9h1.9v1.9h-1.9Z"/>
          <path class="cls-2" d="m858.83,174.25h-1.36l4.19-12.91h1.36l-4.19,12.91Z"/>
          <path class="cls-2" d="m862.91,173.34v-8.06h1.52v6.8h3.15v-6.8h1.52v6.8h3.14v-6.8h1.54v8.06h-10.86Z"/>
          <path class="cls-2" d="m877.93,173.34v-6.77h-2.85v-1.3h7.31v1.3h-2.86v6.77h-1.6Z"/>
          <path class="cls-2" d="m882.3,173.34v-1.9h1.9v1.9h-1.9Z"/>
          <path class="cls-2" d="m886.86,176.22h-1.31c.55-1.21.97-2.39,1.25-3.57.28-1.17.42-2.35.42-3.52s-.14-2.33-.42-3.5c-.28-1.17-.69-2.36-1.25-3.57h1.31c.48.79.87,1.56,1.17,2.32s.51,1.53.65,2.31c.13.79.2,1.6.2,2.44s-.07,1.67-.2,2.46c-.13.78-.35,1.55-.65,2.31-.3.76-.69,1.53-1.17,2.32Z"/>
        </g>
        <text class="cls-3" transform="translate(842.34 204.17)"><tspan x="0" y="0">-</tspan></text>
        <text class="cls-3" transform="translate(842.34 250.12)"><tspan x="0" y="0">-</tspan></text>
        <text class="cls-3" transform="translate(842.34 306.08)"><tspan x="0" y="0">-</tspan></text>
        <text class="cls-3" transform="translate(842.34 351.25)"><tspan x="0" y="0">-</tspan></text>
        <g>
          <path class="cls-2" d="m77.41,111.6v-11.28h8.05v1.6h-6.08v3.12h3.28c1.24,0,2.2.27,2.9.82s1.04,1.36,1.04,2.44-.35,1.88-1.04,2.45c-.69.57-1.66.85-2.9.85h-5.25Zm1.97-1.58h3.04c.76,0,1.31-.14,1.66-.42.35-.28.53-.71.53-1.29s-.18-.99-.53-1.26-.91-.42-1.66-.42h-3.04v3.39Z"/>
          <path class="cls-2" d="m88.22,115.23l-.46-1.58c.5-.11.92-.23,1.26-.37.34-.14.62-.32.85-.54.22-.22.41-.51.56-.86l.4-.94-.05.78-3.52-8.19h2.13l2.53,6.3h-.46l2.54-6.3h2.02l-3.68,8.53c-.25.58-.51,1.05-.8,1.43-.29.38-.6.68-.93.91-.33.23-.69.41-1.09.54-.39.13-.83.23-1.3.3Z"/>
          <path class="cls-2" d="m97.23,111.6v-8.08h1.98v3.17h1.22l2.37-3.17h2.14l-2.98,4.03-.43-.62c.3.03.56.11.79.24s.45.31.66.54.41.52.62.87l1.7,3.02h-2.13l-1.38-2.43c-.14-.25-.28-.44-.42-.58s-.29-.23-.46-.29c-.17-.05-.38-.08-.62-.08h-1.07v3.38h-1.98Z"/>
          <path class="cls-2" d="m106.14,111.82l-.62-1.57c.35-.13.65-.3.89-.5.24-.21.43-.47.58-.8s.25-.73.31-1.22.1-1.06.1-1.74v-2.48h6.43v8.08h-1.98v-6.54h-2.62v1.01c0,1.16-.11,2.14-.32,2.92-.21.78-.54,1.41-.99,1.86-.45.46-1.03.79-1.76.98Z"/>
          <path class="cls-2" d="m120.06,111.76c-1.35,0-2.42-.37-3.18-1.12-.77-.75-1.15-1.77-1.15-3.07,0-.84.17-1.58.5-2.21.33-.63.79-1.12,1.38-1.47.59-.35,1.28-.53,2.07-.53s1.43.17,1.95.5c.52.33.92.79,1.19,1.39.27.6.41,1.3.41,2.1v.53h-5.89v-1.06h4.46l-.27.22c0-.75-.16-1.32-.47-1.71-.31-.39-.77-.59-1.37-.59-.66,0-1.17.23-1.53.7-.36.47-.54,1.13-.54,1.97v.21c0,.87.22,1.53.65,1.96.43.43,1.04.65,1.83.65.46,0,.89-.06,1.29-.18.4-.12.78-.32,1.14-.6l.59,1.34c-.38.31-.84.55-1.38.72-.53.17-1.1.26-1.7.26Z"/>
          <path class="cls-2" d="m126.83,111.6v-6.51h-2.77v-1.57h7.54v1.57h-2.78v6.51h-1.98Z"/>
          <path class="cls-2" d="m136.08,111.6l5.1-11.28h1.73l5.17,11.28h-2.1l-1.38-3.17.83.56h-6.77l.86-.56-1.38,3.17h-2.08Zm5.95-9.07l-2.26,5.34-.42-.5h5.38l-.34.5-2.3-5.34h-.06Z"/>
          <path class="cls-2" d="m153.77,111.6v-2.21h-5.04v-1.44l5.36-7.63h1.66v7.5h1.62v1.57h-1.62v2.21h-1.98Zm0-3.78v-5.07h.38l-3.89,5.55v-.48h3.5Z"/>
          <path class="cls-2" d="m159.52,113.73l-.82-.64c.34-.35.58-.68.71-.98.13-.3.2-.63.2-.97l.43.46h-1.5v-2.22h2.24v1.47c0,.54-.09,1.04-.28,1.5-.19.45-.52.92-.98,1.38Z"/>
          <path class="cls-2" d="m167.8,111.6v-1.71h2.59v-7.84h.99l-3.33,1.98v-1.95l2.93-1.76h1.47v9.57h2.43v1.71h-7.09Z"/>
          <path class="cls-2" d="m176.88,112.54h-1.65l4.21-12.98h1.65l-4.21,12.98Z"/>
          <path class="cls-2" d="m181.93,111.6v-1.52l3.74-3.9c.47-.49.82-.94,1.04-1.36.22-.42.34-.84.34-1.28,0-.54-.17-.95-.51-1.23-.34-.28-.84-.42-1.49-.42-.52,0-1.02.09-1.5.28-.48.19-.95.48-1.41.87l-.67-1.54c.46-.41,1.03-.73,1.7-.98.68-.25,1.39-.37,2.14-.37,1.22,0,2.15.27,2.8.82.65.54.98,1.32.98,2.34,0,.7-.17,1.37-.5,2.01-.33.63-.84,1.3-1.54,1.99l-3.12,3.12v-.54h5.6v1.71h-7.6Z"/>
          <path class="cls-2" d="m200.56,115.06v-5.02h.18c-.17.55-.46.98-.86,1.28s-.88.45-1.45.45-1.11-.17-1.56-.52c-.45-.35-.81-.83-1.06-1.46-.26-.63-.38-1.37-.38-2.22s.12-1.61.38-2.23.6-1.11,1.06-1.45c.45-.34.98-.51,1.58-.51.57,0,1.05.15,1.45.45s.69.72.86,1.26h-.18v-5.25h1.98v5.25h-.18c.17-.54.46-.96.86-1.26.4-.3.88-.45,1.45-.45.6,0,1.12.17,1.58.51.45.34.8.82,1.06,1.45s.38,1.37.38,2.23-.12,1.59-.38,2.22c-.25.63-.6,1.12-1.06,1.46-.45.35-.98.52-1.58.52-.55,0-1.03-.15-1.43-.45-.4-.3-.69-.73-.87-1.28h.18v5.02h-1.98Zm-1.55-4.8c.49,0,.88-.22,1.16-.67.28-.45.42-1.12.42-2.03s-.14-1.57-.43-2.02c-.29-.45-.67-.68-1.15-.68s-.88.23-1.17.68c-.29.45-.43,1.13-.43,2.02s.14,1.58.43,2.03c.29.45.68.67,1.17.67Zm5.09,0c.49,0,.88-.22,1.17-.67.29-.45.43-1.12.43-2.03s-.15-1.57-.44-2.02c-.29-.45-.68-.68-1.16-.68s-.88.23-1.16.68c-.28.45-.42,1.13-.42,2.02s.14,1.58.42,2.03c.28.45.67.67,1.16.67Z"/>
          <path class="cls-2" d="m212.75,111.76c-.7,0-1.32-.17-1.86-.5s-.95-.82-1.25-1.45c-.3-.63-.45-1.38-.45-2.26s.15-1.62.45-2.25c.3-.62.71-1.1,1.25-1.44s1.15-.5,1.86-.5,1.28.17,1.8.5.86.79,1.03,1.35h-.18l.18-1.7h1.92c-.03.33-.06.67-.09,1.01-.03.34-.04.68-.04,1.01v6.06h-1.98l-.02-1.66h.19c-.17.55-.52,1-1.04,1.33-.52.33-1.11.5-1.78.5Zm.56-1.54c.63,0,1.14-.22,1.52-.66.38-.44.58-1.11.58-2.01s-.19-1.56-.58-2c-.38-.44-.89-.66-1.52-.66s-1.14.22-1.52.66c-.38.44-.58,1.1-.58,2s.19,1.56.57,2.01c.38.44.89.66,1.53.66Z"/>
          <path class="cls-2" d="m219.5,111.82l-.62-1.57c.35-.13.65-.3.89-.5.24-.21.43-.47.58-.8.14-.33.25-.73.31-1.22.06-.49.1-1.06.1-1.74v-2.48h6.43v8.08h-1.98v-6.54h-2.62v1.01c0,1.16-.11,2.14-.32,2.92-.21.78-.54,1.41-.99,1.86-.45.46-1.04.79-1.76.98Z"/>
          <path class="cls-2" d="m229.45,111.6v-8.08h1.98v2.71h2.13c1.08,0,1.89.23,2.43.68s.82,1.11.82,1.96c0,.55-.13,1.04-.38,1.45-.26.41-.63.73-1.11.95-.49.22-1.07.34-1.75.34h-4.11Zm1.98-1.31h1.86c.54,0,.96-.11,1.25-.34s.43-.58.43-1.05-.14-.81-.42-1.03c-.28-.22-.7-.33-1.26-.33h-1.86v2.75Z"/>
          <path class="cls-2" d="m245.48,113.68v-2.08h-7.01v-8.08h1.98v6.54h3.42v-6.54h1.97v6.54h1.31v3.62h-1.68Z"/>
          <path class="cls-2" d="m251.82,111.76c-.7,0-1.32-.17-1.86-.5s-.95-.82-1.25-1.45c-.3-.63-.45-1.38-.45-2.26s.15-1.62.45-2.25c.3-.62.71-1.1,1.25-1.44s1.15-.5,1.86-.5,1.28.17,1.8.5.86.79,1.03,1.35h-.18l.18-1.7h1.92c-.03.33-.06.67-.09,1.01-.03.34-.04.68-.04,1.01v6.06h-1.98l-.02-1.66h.19c-.17.55-.52,1-1.04,1.33-.52.33-1.11.5-1.78.5Zm.56-1.54c.63,0,1.14-.22,1.52-.66.38-.44.58-1.11.58-2.01s-.19-1.56-.58-2c-.38-.44-.89-.66-1.52-.66s-1.14.22-1.52.66c-.38.44-.58,1.1-.58,2s.19,1.56.57,2.01c.38.44.89.66,1.53.66Z"/>
          <path class="cls-2" d="m259.48,113.73l-.82-.64c.34-.35.58-.68.71-.98.13-.3.2-.63.2-.97l.43.46h-1.5v-2.22h2.24v1.47c0,.54-.09,1.04-.28,1.5s-.51.92-.98,1.38Z"/>
          <path class="cls-2" d="m128.74,127.6v-2.21h-5.04v-1.44l5.36-7.63h1.66v7.5h1.62v1.57h-1.62v2.21h-1.98Zm0-3.78v-5.07h.38l-3.89,5.55v-.48h3.5Z"/>
          <path class="cls-2" d="m136.73,126.98v-3.26h-3.22v-1.41h3.22v-3.18h1.46v3.18h3.2v1.41h-3.2v3.26h-1.46Z"/>
          <path class="cls-2" d="m147.94,127.6v-2.21h-5.04v-1.44l5.36-7.63h1.66v7.5h1.62v1.57h-1.62v2.21h-1.98Zm0-3.78v-5.07h.38l-3.89,5.55v-.48h3.5Z"/>
          <path class="cls-2" d="m153.69,129.73l-.82-.64c.34-.35.58-.68.71-.98.13-.3.2-.63.2-.97l.43.46h-1.5v-2.22h2.24v1.47c0,.54-.09,1.04-.28,1.5-.19.45-.52.92-.98,1.38Z"/>
          <path class="cls-2" d="m161.97,127.6v-1.71h2.59v-7.84h.99l-3.33,1.98v-1.95l2.93-1.76h1.47v9.57h2.43v1.71h-7.09Z"/>
          <path class="cls-2" d="m174.6,127.76c-1.32,0-2.34-.5-3.06-1.51-.71-1.01-1.07-2.45-1.07-4.31s.36-3.32,1.07-4.3c.71-.98,1.73-1.47,3.06-1.47s2.35.49,3.06,1.47c.71.98,1.06,2.41,1.06,4.29s-.35,3.32-1.06,4.33-1.73,1.51-3.06,1.51Zm0-1.7c.73,0,1.26-.33,1.62-1,.35-.67.53-1.71.53-3.14s-.18-2.47-.53-3.11c-.35-.65-.89-.97-1.62-.97s-1.25.32-1.61.97c-.36.64-.54,1.68-.54,3.11s.18,2.48.54,3.14c.36.67.89,1,1.61,1Z"/>
          <path class="cls-2" d="m184.28,127.76c-.49,0-.98-.05-1.46-.16-.49-.11-.94-.26-1.36-.45-.42-.19-.78-.42-1.08-.69l.67-1.55c.5.37,1.02.65,1.54.84.53.19,1.08.28,1.66.28.69,0,1.23-.17,1.62-.52.39-.35.58-.81.58-1.4s-.19-1.08-.56-1.45c-.37-.37-.89-.55-1.54-.55-.46,0-.88.09-1.26.26-.38.18-.72.45-1.02.81h-1.36v-6.86h7.01v1.7h-5.06v3.58h-.5c.28-.37.65-.66,1.11-.86.46-.2.98-.3,1.56-.3.73,0,1.35.15,1.89.45.53.3.95.72,1.25,1.26.3.54.45,1.17.45,1.9s-.17,1.38-.5,1.94c-.34.56-.82,1-1.44,1.31s-1.36.47-2.22.47Z"/>
          <path class="cls-2" d="m194.52,127.6v-8.08h6.06v1.57h-4.06v6.51h-2Z"/>
          <path class="cls-2" d="m202.05,131.06v-9.52c0-.33-.01-.67-.03-1.01s-.05-.68-.1-1.01h1.94l.18,1.7h-.18c.16-.57.5-1.02,1.02-1.35.52-.34,1.12-.5,1.8-.5s1.34.17,1.87.5c.53.34.95.82,1.25,1.44.3.62.45,1.37.45,2.25s-.15,1.63-.45,2.26c-.3.63-.71,1.11-1.25,1.45-.53.34-1.16.5-1.87.5-.67,0-1.26-.17-1.78-.5-.51-.33-.85-.77-1.02-1.33h.18v5.12h-2Zm4.06-4.83c.64,0,1.15-.22,1.54-.66.38-.44.58-1.11.58-2.01s-.19-1.56-.58-2-.9-.66-1.54-.66-1.14.22-1.52.66-.58,1.1-.58,2,.19,1.56.58,2.01c.38.44.89.66,1.52.66Z"/>
          <path class="cls-2" d="m211.62,127.6v-2.22h2.24v2.22h-2.24Z"/>
        </g>
        <g>
          <path class="cls-2" d="m89.81,158.34v-11.28h8.05v1.6h-6.08v3.12h3.28c1.24,0,2.2.28,2.9.82s1.04,1.36,1.04,2.44-.35,1.88-1.04,2.45-1.66.85-2.9.85h-5.25Zm1.97-1.58h3.04c.76,0,1.31-.14,1.66-.42.35-.28.53-.71.53-1.29s-.18-.99-.53-1.26-.91-.42-1.66-.42h-3.04v3.39Z"/>
          <path class="cls-2" d="m100.62,161.97l-.46-1.58c.5-.11.92-.23,1.26-.37s.62-.32.85-.54.41-.51.56-.86l.4-.94-.05.78-3.52-8.19h2.13l2.53,6.3h-.46l2.54-6.3h2.02l-3.68,8.53c-.25.58-.51,1.05-.8,1.43-.29.38-.6.68-.93.91-.33.23-.69.41-1.09.54-.39.13-.83.23-1.3.3Z"/>
          <path class="cls-2" d="m109.63,158.34v-8.08h1.98v3.17h1.22l2.37-3.17h2.14l-2.98,4.03-.43-.62c.3.03.56.11.79.24s.45.31.66.54.41.52.62.87l1.7,3.02h-2.13l-1.38-2.43c-.14-.25-.28-.44-.42-.58s-.29-.24-.46-.29c-.17-.05-.38-.08-.62-.08h-1.07v3.38h-1.98Z"/>
          <path class="cls-2" d="m118.54,158.56l-.62-1.57c.35-.13.65-.3.89-.5.24-.21.43-.47.58-.8.14-.33.25-.73.31-1.22s.1-1.06.1-1.74v-2.48h6.43v8.08h-1.98v-6.54h-2.62v1.01c0,1.16-.11,2.14-.32,2.92-.21.79-.54,1.41-.99,1.87-.45.46-1.03.78-1.76.98Z"/>
          <path class="cls-2" d="m132.46,158.5c-1.35,0-2.42-.37-3.18-1.12-.77-.75-1.15-1.77-1.15-3.07,0-.84.17-1.58.5-2.21.33-.63.79-1.12,1.38-1.47.59-.35,1.28-.53,2.07-.53s1.43.17,1.95.5c.52.33.92.79,1.19,1.39.27.6.41,1.3.41,2.1v.53h-5.89v-1.06h4.46l-.27.22c0-.75-.16-1.32-.47-1.71-.31-.39-.77-.59-1.37-.59-.66,0-1.17.23-1.53.7-.36.47-.54,1.12-.54,1.97v.21c0,.88.22,1.53.65,1.96.43.43,1.04.65,1.83.65.46,0,.89-.06,1.29-.18s.78-.32,1.14-.6l.59,1.34c-.38.31-.84.55-1.38.72s-1.1.26-1.7.26Z"/>
          <path class="cls-2" d="m139.23,158.34v-6.51h-2.77v-1.57h7.54v1.57h-2.78v6.51h-1.98Z"/>
          <path class="cls-2" d="m148.48,158.34l5.1-11.28h1.73l5.17,11.28h-2.1l-1.38-3.17.83.56h-6.77l.86-.56-1.38,3.17h-2.08Zm5.95-9.07l-2.26,5.34-.42-.5h5.38l-.34.5-2.3-5.34h-.06Z"/>
          <path class="cls-2" d="m165.36,158.5c-.49,0-.98-.05-1.46-.16-.49-.11-.94-.26-1.36-.45-.42-.19-.78-.42-1.08-.69l.67-1.55c.5.37,1.02.65,1.54.84.53.19,1.08.28,1.66.28.69,0,1.23-.17,1.62-.52.39-.35.58-.81.58-1.4s-.19-1.08-.56-1.45c-.37-.37-.89-.55-1.54-.55-.46,0-.88.09-1.26.26-.38.18-.72.45-1.02.81h-1.36v-6.86h7.01v1.7h-5.06v3.58h-.5c.28-.37.65-.66,1.11-.86s.98-.3,1.56-.3c.73,0,1.35.15,1.89.45.53.3.95.72,1.25,1.26.3.54.45,1.17.45,1.9s-.17,1.38-.5,1.94c-.34.56-.82,1-1.44,1.31s-1.36.47-2.22.47Z"/>
          <path class="cls-2" d="m171.92,160.47l-.82-.64c.34-.35.58-.68.71-.98.13-.3.2-.63.2-.97l.43.46h-1.5v-2.22h2.24v1.47c0,.54-.09,1.04-.28,1.5-.19.45-.52.91-.98,1.38Z"/>
          <path class="cls-2" d="m180.2,158.34v-1.71h2.59v-7.84h.99l-3.33,1.98v-1.95l2.93-1.76h1.47v9.57h2.43v1.71h-7.09Z"/>
          <path class="cls-2" d="m198.3,161.8v-5.02h.18c-.17.55-.46.98-.86,1.28-.4.3-.88.45-1.45.45s-1.11-.17-1.56-.52c-.45-.35-.81-.83-1.06-1.46s-.38-1.37-.38-2.22.12-1.61.38-2.23.6-1.11,1.06-1.45c.45-.34.98-.51,1.58-.51.57,0,1.05.15,1.45.45.4.3.69.72.86,1.26h-.18v-5.25h1.98v5.25h-.18c.17-.54.46-.97.86-1.26.4-.3.88-.45,1.45-.45.6,0,1.12.17,1.58.51.45.34.8.82,1.06,1.45s.38,1.37.38,2.23-.12,1.6-.38,2.22-.6,1.12-1.06,1.46c-.45.35-.98.52-1.58.52-.55,0-1.03-.15-1.43-.45-.4-.3-.69-.72-.87-1.28h.18v5.02h-1.98Zm-1.55-4.8c.49,0,.88-.22,1.16-.67.28-.45.42-1.12.42-2.03s-.14-1.57-.43-2.02-.67-.68-1.15-.68-.88.23-1.17.68-.43,1.13-.43,2.02.14,1.58.43,2.03.68.67,1.17.67Zm5.09,0c.49,0,.88-.22,1.17-.67s.43-1.12.43-2.03-.15-1.57-.44-2.02c-.29-.45-.68-.68-1.16-.68s-.88.23-1.16.68c-.28.45-.42,1.13-.42,2.02s.14,1.58.42,2.03c.28.45.67.67,1.16.67Z"/>
          <path class="cls-2" d="m210.49,158.5c-.7,0-1.32-.17-1.86-.5-.53-.34-.95-.82-1.25-1.45-.3-.63-.45-1.38-.45-2.26s.15-1.62.45-2.25c.3-.62.71-1.1,1.25-1.44s1.15-.5,1.86-.5,1.28.17,1.8.5.86.79,1.03,1.35h-.18l.18-1.7h1.92c-.03.33-.06.67-.09,1.01-.03.34-.04.68-.04,1.01v6.06h-1.98l-.02-1.66h.19c-.17.55-.52,1-1.04,1.33-.52.33-1.11.5-1.78.5Zm.56-1.54c.63,0,1.14-.22,1.52-.66.38-.44.58-1.11.58-2.01s-.19-1.56-.58-2c-.38-.44-.89-.66-1.52-.66s-1.14.22-1.52.66c-.38.44-.58,1.1-.58,2s.19,1.57.57,2.01c.38.44.89.66,1.53.66Z"/>
          <path class="cls-2" d="m217.24,158.56l-.62-1.57c.35-.13.65-.3.89-.5.24-.21.43-.47.58-.8.14-.33.25-.73.31-1.22.06-.49.1-1.06.1-1.74v-2.48h6.43v8.08h-1.98v-6.54h-2.62v1.01c0,1.16-.11,2.14-.32,2.92-.21.79-.54,1.41-.99,1.87-.45.46-1.04.78-1.76.98Z"/>
          <path class="cls-2" d="m227.2,158.34v-8.08h1.98v2.7h2.13c1.08,0,1.89.23,2.43.68.54.45.82,1.11.82,1.96,0,.55-.13,1.04-.38,1.45-.26.41-.63.73-1.11.95-.49.22-1.07.34-1.75.34h-4.11Zm1.98-1.31h1.86c.54,0,.96-.11,1.25-.34s.43-.58.43-1.05-.14-.81-.42-1.03c-.28-.22-.7-.33-1.26-.33h-1.86v2.75Z"/>
          <path class="cls-2" d="m243.23,160.42v-2.08h-7.01v-8.08h1.98v6.54h3.42v-6.54h1.97v6.54h1.31v3.62h-1.68Z"/>
          <path class="cls-2" d="m247.08,160.47l-.82-.64c.34-.35.58-.68.71-.98.13-.3.2-.63.2-.97l.43.46h-1.5v-2.22h2.24v1.47c0,.54-.09,1.04-.28,1.5-.19.45-.51.91-.98,1.38Z"/>
          <path class="cls-2" d="m128.74,174.34v-2.21h-5.04v-1.44l5.36-7.63h1.66v7.5h1.62v1.57h-1.62v2.21h-1.98Zm0-3.78v-5.07h.38l-3.89,5.55v-.48h3.5Z"/>
          <path class="cls-2" d="m136.73,173.72v-3.26h-3.22v-1.41h3.22v-3.18h1.46v3.18h3.2v1.41h-3.2v3.26h-1.46Z"/>
          <path class="cls-2" d="m147.94,174.34v-2.21h-5.04v-1.44l5.36-7.63h1.66v7.5h1.62v1.57h-1.62v2.21h-1.98Zm0-3.78v-5.07h.38l-3.89,5.55v-.48h3.5Z"/>
          <path class="cls-2" d="m153.69,176.47l-.82-.64c.34-.35.58-.68.71-.98.13-.3.2-.63.2-.97l.43.46h-1.5v-2.22h2.24v1.47c0,.54-.09,1.04-.28,1.5-.19.45-.52.91-.98,1.38Z"/>
          <path class="cls-2" d="m161.97,174.34v-1.71h2.59v-7.84h.99l-3.33,1.98v-1.95l2.93-1.76h1.47v9.57h2.43v1.71h-7.09Z"/>
          <path class="cls-2" d="m174.6,174.5c-1.32,0-2.34-.5-3.06-1.51-.71-1.01-1.07-2.45-1.07-4.31s.36-3.32,1.07-4.3c.71-.98,1.73-1.47,3.06-1.47s2.35.49,3.06,1.47c.71.98,1.06,2.41,1.06,4.29s-.35,3.32-1.06,4.33-1.73,1.51-3.06,1.51Zm0-1.7c.73,0,1.26-.33,1.62-1,.35-.67.53-1.71.53-3.14s-.18-2.47-.53-3.11c-.35-.64-.89-.97-1.62-.97s-1.25.32-1.61.97c-.36.65-.54,1.68-.54,3.11s.18,2.48.54,3.14c.36.67.89,1,1.61,1Z"/>
          <path class="cls-2" d="m184.28,174.5c-.49,0-.98-.05-1.46-.16-.49-.11-.94-.26-1.36-.45-.42-.19-.78-.42-1.08-.69l.67-1.55c.5.37,1.02.65,1.54.84.53.19,1.08.28,1.66.28.69,0,1.23-.17,1.62-.52.39-.35.58-.81.58-1.4s-.19-1.08-.56-1.45c-.37-.37-.89-.55-1.54-.55-.46,0-.88.09-1.26.26-.38.18-.72.45-1.02.81h-1.36v-6.86h7.01v1.7h-5.06v3.58h-.5c.28-.37.65-.66,1.11-.86.46-.2.98-.3,1.56-.3.73,0,1.35.15,1.89.45s.95.72,1.25,1.26c.3.54.45,1.17.45,1.9s-.17,1.38-.5,1.94c-.34.56-.82,1-1.44,1.31s-1.36.47-2.22.47Z"/>
          <path class="cls-2" d="m194.52,174.34v-8.08h6.06v1.57h-4.06v6.51h-2Z"/>
          <path class="cls-2" d="m202.05,177.8v-9.52c0-.33-.01-.67-.03-1.01s-.05-.68-.1-1.01h1.94l.18,1.7h-.18c.16-.56.5-1.02,1.02-1.35.52-.34,1.12-.5,1.8-.5s1.34.17,1.87.5c.53.34.95.82,1.25,1.44.3.62.45,1.37.45,2.25s-.15,1.63-.45,2.26c-.3.63-.71,1.11-1.25,1.45-.53.34-1.16.5-1.87.5-.67,0-1.26-.17-1.78-.5-.51-.33-.85-.77-1.02-1.33h.18v5.12h-2Zm4.06-4.83c.64,0,1.15-.22,1.54-.66.38-.44.58-1.11.58-2.01s-.19-1.56-.58-2-.9-.66-1.54-.66-1.14.22-1.52.66-.58,1.1-.58,2,.19,1.57.58,2.01c.38.44.89.66,1.52.66Z"/>
          <path class="cls-2" d="m211.62,174.34v-2.22h2.24v2.22h-2.24Z"/>
        </g>
        <g>
          <path class="cls-2" d="m89.81,204.17v-11.28h8.05v1.6h-6.08v3.12h3.28c1.24,0,2.2.28,2.9.82s1.04,1.36,1.04,2.44-.35,1.88-1.04,2.45-1.66.85-2.9.85h-5.25Zm1.97-1.58h3.04c.76,0,1.31-.14,1.66-.42.35-.28.53-.71.53-1.29s-.18-.99-.53-1.26-.91-.42-1.66-.42h-3.04v3.39Z"/>
          <path class="cls-2" d="m100.62,207.8l-.46-1.58c.5-.11.92-.23,1.26-.37s.62-.32.85-.54.41-.51.56-.86l.4-.94-.05.78-3.52-8.19h2.13l2.53,6.3h-.46l2.54-6.3h2.02l-3.68,8.53c-.25.58-.51,1.05-.8,1.43-.29.38-.6.68-.93.91-.33.23-.69.41-1.09.54-.39.13-.83.23-1.3.3Z"/>
          <path class="cls-2" d="m109.63,204.17v-8.08h1.98v3.17h1.22l2.37-3.17h2.14l-2.98,4.03-.43-.62c.3.03.56.11.79.24s.45.31.66.54.41.52.62.87l1.7,3.02h-2.13l-1.38-2.43c-.14-.25-.28-.44-.42-.58s-.29-.24-.46-.29c-.17-.05-.38-.08-.62-.08h-1.07v3.38h-1.98Z"/>
          <path class="cls-2" d="m118.54,204.39l-.62-1.57c.35-.13.65-.3.89-.5.24-.21.43-.47.58-.8.14-.33.25-.73.31-1.22s.1-1.06.1-1.74v-2.48h6.43v8.08h-1.98v-6.54h-2.62v1.01c0,1.16-.11,2.14-.32,2.92-.21.79-.54,1.41-.99,1.87-.45.46-1.03.78-1.76.98Z"/>
          <path class="cls-2" d="m132.46,204.33c-1.35,0-2.42-.37-3.18-1.12-.77-.75-1.15-1.77-1.15-3.07,0-.84.17-1.58.5-2.21.33-.63.79-1.12,1.38-1.47.59-.35,1.28-.53,2.07-.53s1.43.17,1.95.5c.52.33.92.79,1.19,1.39.27.6.41,1.3.41,2.1v.53h-5.89v-1.06h4.46l-.27.22c0-.75-.16-1.32-.47-1.71-.31-.39-.77-.59-1.37-.59-.66,0-1.17.23-1.53.7-.36.47-.54,1.12-.54,1.97v.21c0,.88.22,1.53.65,1.96.43.43,1.04.65,1.83.65.46,0,.89-.06,1.29-.18s.78-.32,1.14-.6l.59,1.34c-.38.31-.84.55-1.38.72s-1.1.26-1.7.26Z"/>
          <path class="cls-2" d="m139.23,204.17v-6.51h-2.77v-1.57h7.54v1.57h-2.78v6.51h-1.98Z"/>
          <path class="cls-2" d="m148.48,204.17l5.1-11.28h1.73l5.17,11.28h-2.1l-1.38-3.17.83.56h-6.77l.86-.56-1.38,3.17h-2.08Zm5.95-9.07l-2.26,5.34-.42-.5h5.38l-.34.5-2.3-5.34h-.06Z"/>
          <path class="cls-2" d="m165.68,204.33c-1.42,0-2.52-.49-3.29-1.47-.77-.98-1.16-2.36-1.16-4.13,0-1.28.2-2.37.59-3.26.39-.89.96-1.57,1.69-2.04.73-.47,1.61-.7,2.63-.7.61,0,1.21.11,1.81.33.6.22,1.11.53,1.54.94l-.69,1.54c-.39-.36-.82-.63-1.28-.81-.46-.18-.92-.26-1.39-.26-.96,0-1.69.33-2.19.98-.5.65-.75,1.62-.75,2.91v1.2h-.19c.08-.54.27-1.01.54-1.4.28-.39.63-.69,1.07-.9.44-.21.92-.31,1.46-.31.66,0,1.25.15,1.76.46.51.31.91.74,1.21,1.28.29.54.44,1.17.44,1.87s-.16,1.37-.49,1.95c-.33.57-.77,1.02-1.34,1.34-.57.33-1.22.49-1.97.49Zm-.11-1.63c.39,0,.74-.08,1.04-.26.3-.17.53-.41.7-.73.17-.31.25-.67.25-1.08s-.08-.78-.25-1.09c-.17-.31-.4-.55-.7-.73-.3-.18-.65-.26-1.04-.26s-.74.09-1.04.26c-.3.18-.53.42-.7.73-.17.31-.26.67-.26,1.09s.09.77.26,1.08c.17.32.4.56.7.73.3.17.65.26,1.04.26Z"/>
          <path class="cls-2" d="m171.92,206.29l-.82-.64c.34-.35.58-.68.71-.98.13-.3.2-.63.2-.97l.43.46h-1.5v-2.22h2.24v1.47c0,.54-.09,1.04-.28,1.5-.19.45-.52.91-.98,1.38Z"/>
          <path class="cls-2" d="m180.2,204.17v-1.71h2.59v-7.84h.99l-3.33,1.98v-1.95l2.93-1.76h1.47v9.57h2.43v1.71h-7.09Z"/>
          <path class="cls-2" d="m198.3,207.62v-5.02h.18c-.17.55-.46.98-.86,1.28-.4.3-.88.45-1.45.45s-1.11-.17-1.56-.52c-.45-.35-.81-.83-1.06-1.46s-.38-1.37-.38-2.22.12-1.61.38-2.23.6-1.11,1.06-1.45c.45-.34.98-.51,1.58-.51.57,0,1.05.15,1.45.45.4.3.69.72.86,1.26h-.18v-5.25h1.98v5.25h-.18c.17-.54.46-.97.86-1.26.4-.3.88-.45,1.45-.45.6,0,1.12.17,1.58.51.45.34.8.82,1.06,1.45s.38,1.37.38,2.23-.12,1.6-.38,2.22-.6,1.12-1.06,1.46c-.45.35-.98.52-1.58.52-.55,0-1.03-.15-1.43-.45-.4-.3-.69-.72-.87-1.28h.18v5.02h-1.98Zm-1.55-4.8c.49,0,.88-.22,1.16-.67.28-.45.42-1.12.42-2.03s-.14-1.57-.43-2.02-.67-.68-1.15-.68-.88.23-1.17.68-.43,1.13-.43,2.02.14,1.58.43,2.03.68.67,1.17.67Zm5.09,0c.49,0,.88-.22,1.17-.67s.43-1.12.43-2.03-.15-1.57-.44-2.02c-.29-.45-.68-.68-1.16-.68s-.88.23-1.16.68c-.28.45-.42,1.13-.42,2.02s.14,1.58.42,2.03c.28.45.67.67,1.16.67Z"/>
          <path class="cls-2" d="m210.49,204.33c-.7,0-1.32-.17-1.86-.5-.53-.34-.95-.82-1.25-1.45-.3-.63-.45-1.38-.45-2.26s.15-1.62.45-2.25c.3-.62.71-1.1,1.25-1.44s1.15-.5,1.86-.5,1.28.17,1.8.5.86.79,1.03,1.35h-.18l.18-1.7h1.92c-.03.33-.06.67-.09,1.01-.03.34-.04.68-.04,1.01v6.06h-1.98l-.02-1.66h.19c-.17.55-.52,1-1.04,1.33-.52.33-1.11.5-1.78.5Zm.56-1.54c.63,0,1.14-.22,1.52-.66.38-.44.58-1.11.58-2.01s-.19-1.56-.58-2c-.38-.44-.89-.66-1.52-.66s-1.14.22-1.52.66c-.38.44-.58,1.1-.58,2s.19,1.57.57,2.01c.38.44.89.66,1.53.66Z"/>
          <path class="cls-2" d="m217.24,204.39l-.62-1.57c.35-.13.65-.3.89-.5.24-.21.43-.47.58-.8.14-.33.25-.73.31-1.22.06-.49.1-1.06.1-1.74v-2.48h6.43v8.08h-1.98v-6.54h-2.62v1.01c0,1.16-.11,2.14-.32,2.92-.21.79-.54,1.41-.99,1.87-.45.46-1.04.78-1.76.98Z"/>
          <path class="cls-2" d="m227.2,204.17v-8.08h1.98v2.7h2.13c1.08,0,1.89.23,2.43.68.54.45.82,1.11.82,1.96,0,.55-.13,1.04-.38,1.45-.26.41-.63.73-1.11.95-.49.22-1.07.34-1.75.34h-4.11Zm1.98-1.31h1.86c.54,0,.96-.11,1.25-.34s.43-.58.43-1.05-.14-.81-.42-1.03c-.28-.22-.7-.33-1.26-.33h-1.86v2.75Z"/>
          <path class="cls-2" d="m243.23,206.25v-2.08h-7.01v-8.08h1.98v6.54h3.42v-6.54h1.97v6.54h1.31v3.62h-1.68Z"/>
          <path class="cls-2" d="m247.08,206.29l-.82-.64c.34-.35.58-.68.71-.98.13-.3.2-.63.2-.97l.43.46h-1.5v-2.22h2.24v1.47c0,.54-.09,1.04-.28,1.5-.19.45-.51.91-.98,1.38Z"/>
          <path class="cls-2" d="m128.74,220.17v-2.21h-5.04v-1.44l5.36-7.63h1.66v7.5h1.62v1.57h-1.62v2.21h-1.98Zm0-3.78v-5.07h.38l-3.89,5.55v-.48h3.5Z"/>
          <path class="cls-2" d="m136.73,219.54v-3.26h-3.22v-1.41h3.22v-3.18h1.46v3.18h3.2v1.41h-3.2v3.26h-1.46Z"/>
          <path class="cls-2" d="m147.94,220.17v-2.21h-5.04v-1.44l5.36-7.63h1.66v7.5h1.62v1.57h-1.62v2.21h-1.98Zm0-3.78v-5.07h.38l-3.89,5.55v-.48h3.5Z"/>
          <path class="cls-2" d="m153.69,222.29l-.82-.64c.34-.35.58-.68.71-.98.13-.3.2-.63.2-.97l.43.46h-1.5v-2.22h2.24v1.47c0,.54-.09,1.04-.28,1.5-.19.45-.52.91-.98,1.38Z"/>
          <path class="cls-2" d="m161.97,220.17v-1.71h2.59v-7.84h.99l-3.33,1.98v-1.95l2.93-1.76h1.47v9.57h2.43v1.71h-7.09Z"/>
          <path class="cls-2" d="m174.6,220.33c-1.32,0-2.34-.5-3.06-1.51-.71-1.01-1.07-2.45-1.07-4.31s.36-3.32,1.07-4.3c.71-.98,1.73-1.47,3.06-1.47s2.35.49,3.06,1.47c.71.98,1.06,2.41,1.06,4.29s-.35,3.32-1.06,4.33-1.73,1.51-3.06,1.51Zm0-1.7c.73,0,1.26-.33,1.62-1,.35-.67.53-1.71.53-3.14s-.18-2.47-.53-3.11c-.35-.64-.89-.97-1.62-.97s-1.25.32-1.61.97c-.36.65-.54,1.68-.54,3.11s.18,2.48.54,3.14c.36.67.89,1,1.61,1Z"/>
          <path class="cls-2" d="m184.28,220.33c-.49,0-.98-.05-1.46-.16-.49-.11-.94-.26-1.36-.45-.42-.19-.78-.42-1.08-.69l.67-1.55c.5.37,1.02.65,1.54.84.53.19,1.08.28,1.66.28.69,0,1.23-.17,1.62-.52.39-.35.58-.81.58-1.4s-.19-1.08-.56-1.45c-.37-.37-.89-.55-1.54-.55-.46,0-.88.09-1.26.26-.38.18-.72.45-1.02.81h-1.36v-6.86h7.01v1.7h-5.06v3.58h-.5c.28-.37.65-.66,1.11-.86.46-.2.98-.3,1.56-.3.73,0,1.35.15,1.89.45s.95.72,1.25,1.26c.3.54.45,1.17.45,1.9s-.17,1.38-.5,1.94c-.34.56-.82,1-1.44,1.31s-1.36.47-2.22.47Z"/>
          <path class="cls-2" d="m194.52,220.17v-8.08h6.06v1.57h-4.06v6.51h-2Z"/>
          <path class="cls-2" d="m202.05,223.62v-9.52c0-.33-.01-.67-.03-1.01s-.05-.68-.1-1.01h1.94l.18,1.7h-.18c.16-.56.5-1.02,1.02-1.35.52-.34,1.12-.5,1.8-.5s1.34.17,1.87.5c.53.34.95.82,1.25,1.44.3.62.45,1.37.45,2.25s-.15,1.63-.45,2.26c-.3.63-.71,1.11-1.25,1.45-.53.34-1.16.5-1.87.5-.67,0-1.26-.17-1.78-.5-.51-.33-.85-.77-1.02-1.33h.18v5.12h-2Zm4.06-4.83c.64,0,1.15-.22,1.54-.66.38-.44.58-1.11.58-2.01s-.19-1.56-.58-2-.9-.66-1.54-.66-1.14.22-1.52.66-.58,1.1-.58,2,.19,1.57.58,2.01c.38.44.89.66,1.52.66Z"/>
          <path class="cls-2" d="m211.62,220.17v-2.22h2.24v2.22h-2.24Z"/>
        </g>
        <g>
          <path class="cls-2" d="m84.73,250.12v-11.28h8.05v1.6h-6.08v3.12h3.28c1.24,0,2.2.27,2.9.82.69.55,1.04,1.36,1.04,2.44s-.35,1.88-1.04,2.45c-.69.57-1.66.85-2.9.85h-5.25Zm1.97-1.58h3.04c.76,0,1.31-.14,1.66-.42s.53-.71.53-1.29-.18-.99-.53-1.26-.91-.42-1.66-.42h-3.04v3.39Z"/>
          <path class="cls-2" d="m95.55,253.75l-.46-1.58c.5-.11.92-.23,1.26-.37.34-.14.62-.32.85-.54.22-.22.41-.51.56-.86l.4-.94-.05.78-3.52-8.19h2.13l2.53,6.3h-.46l2.54-6.3h2.02l-3.68,8.53c-.25.58-.51,1.05-.8,1.43s-.6.68-.93.91-.69.41-1.09.54-.83.23-1.3.3Z"/>
          <path class="cls-2" d="m104.56,250.12v-8.08h1.98v3.17h1.22l2.37-3.17h2.14l-2.98,4.03-.43-.62c.3.03.56.11.79.24.23.13.45.31.66.54.21.23.41.52.62.87l1.7,3.02h-2.13l-1.38-2.43c-.14-.24-.28-.44-.42-.58s-.29-.24-.46-.29c-.17-.05-.38-.08-.62-.08h-1.07v3.38h-1.98Z"/>
          <path class="cls-2" d="m113.47,250.35l-.62-1.57c.35-.13.65-.29.89-.5.24-.21.43-.47.58-.8.14-.33.25-.73.31-1.22.06-.48.1-1.06.1-1.74v-2.48h6.43v8.08h-1.98v-6.54h-2.62v1.01c0,1.16-.11,2.14-.32,2.92-.21.78-.54,1.41-.99,1.86-.45.46-1.03.78-1.76.98Z"/>
          <path class="cls-2" d="m127.39,250.28c-1.35,0-2.42-.37-3.18-1.12s-1.15-1.77-1.15-3.07c0-.84.17-1.58.5-2.21.33-.63.79-1.12,1.38-1.47.59-.35,1.28-.53,2.07-.53s1.43.17,1.95.5.92.79,1.19,1.39c.27.6.41,1.3.41,2.1v.53h-5.89v-1.06h4.46l-.27.22c0-.75-.16-1.32-.47-1.71-.31-.39-.77-.59-1.37-.59-.66,0-1.17.23-1.53.7s-.54,1.13-.54,1.97v.21c0,.87.22,1.53.65,1.96.43.43,1.04.65,1.83.65.46,0,.89-.06,1.29-.18s.78-.32,1.14-.6l.59,1.34c-.38.31-.84.55-1.38.72-.53.17-1.1.26-1.7.26Z"/>
          <path class="cls-2" d="m134.16,250.12v-6.51h-2.77v-1.57h7.54v1.57h-2.78v6.51h-1.98Z"/>
          <path class="cls-2" d="m143.41,250.12l5.1-11.28h1.73l5.17,11.28h-2.1l-1.38-3.17.83.56h-6.77l.86-.56-1.38,3.17h-2.08Zm5.95-9.07l-2.26,5.34-.42-.5h5.38l-.34.5-2.3-5.34h-.06Z"/>
          <path class="cls-2" d="m160.03,250.28c-.78,0-1.53-.11-2.24-.34-.71-.23-1.3-.55-1.76-.95l.67-1.55c.5.38,1.02.67,1.56.85.54.18,1.11.27,1.7.27.73,0,1.27-.14,1.65-.43.37-.29.56-.71.56-1.26s-.18-.94-.55-1.21c-.37-.27-.9-.41-1.61-.41h-1.82v-1.65h1.65c.61,0,1.09-.15,1.46-.45.36-.3.54-.71.54-1.23,0-.49-.17-.86-.5-1.12-.34-.26-.82-.38-1.45-.38-1.13,0-2.13.38-2.99,1.15l-.67-1.54c.46-.43,1.03-.76,1.7-.99.68-.23,1.39-.35,2.14-.35,1.17,0,2.09.26,2.76.79.67.53,1,1.26,1,2.2,0,.67-.19,1.25-.57,1.74-.38.49-.9.81-1.56.97v-.19c.78.13,1.38.45,1.82.95.43.51.65,1.14.65,1.9,0,1-.37,1.79-1.1,2.38s-1.74.87-3.02.87Z"/>
          <path class="cls-2" d="m166.85,252.25l-.82-.64c.34-.35.58-.68.71-.98s.2-.63.2-.97l.43.46h-1.5v-2.22h2.24v1.47c0,.54-.09,1.04-.28,1.5-.19.45-.52.92-.98,1.38Z"/>
          <path class="cls-2" d="m174.6,250.12v-1.52l3.74-3.9c.47-.49.82-.94,1.04-1.36.22-.42.34-.84.34-1.28,0-.54-.17-.96-.51-1.23s-.84-.42-1.49-.42c-.52,0-1.02.09-1.5.28-.48.19-.95.48-1.41.87l-.67-1.54c.46-.4,1.03-.73,1.7-.97.68-.25,1.39-.37,2.14-.37,1.22,0,2.15.27,2.8.82.65.54.98,1.32.98,2.34,0,.7-.17,1.37-.5,2.01s-.84,1.3-1.54,1.99l-3.12,3.12v-.54h5.6v1.71h-7.6Z"/>
          <path class="cls-2" d="m193.23,253.58v-5.02h.18c-.17.55-.46.98-.86,1.28s-.88.45-1.45.45-1.11-.17-1.56-.52c-.45-.35-.81-.83-1.06-1.46-.26-.63-.38-1.37-.38-2.22s.12-1.61.38-2.23c.25-.62.6-1.11,1.06-1.45.45-.34.98-.51,1.58-.51.57,0,1.05.15,1.45.45s.69.72.86,1.26h-.18v-5.25h1.98v5.25h-.18c.17-.54.46-.96.86-1.26.4-.3.88-.45,1.45-.45.6,0,1.12.17,1.58.51.45.34.8.82,1.06,1.45.25.62.38,1.37.38,2.23s-.12,1.59-.38,2.22c-.25.63-.6,1.12-1.06,1.46-.45.35-.98.52-1.58.52-.55,0-1.03-.15-1.43-.45-.4-.3-.69-.72-.87-1.28h.18v5.02h-1.98Zm-1.55-4.8c.49,0,.88-.22,1.16-.67.28-.45.42-1.12.42-2.03s-.14-1.57-.43-2.02c-.29-.45-.67-.68-1.15-.68s-.88.23-1.17.68c-.29.45-.43,1.13-.43,2.02s.14,1.58.43,2.03c.29.45.68.67,1.17.67Zm5.09,0c.49,0,.88-.22,1.17-.67.29-.45.43-1.12.43-2.03s-.15-1.57-.44-2.02c-.29-.45-.68-.68-1.16-.68s-.88.23-1.16.68c-.28.45-.42,1.13-.42,2.02s.14,1.58.42,2.03c.28.45.67.67,1.16.67Z"/>
          <path class="cls-2" d="m205.42,250.28c-.7,0-1.32-.17-1.86-.5-.53-.34-.95-.82-1.25-1.45s-.45-1.38-.45-2.26.15-1.62.45-2.25.71-1.1,1.25-1.44,1.15-.5,1.86-.5,1.28.17,1.8.5.86.79,1.03,1.35h-.18l.18-1.7h1.92c-.03.33-.06.67-.09,1.01-.03.34-.04.68-.04,1.01v6.06h-1.98l-.02-1.66h.19c-.17.55-.52,1-1.04,1.33s-1.11.5-1.78.5Zm.56-1.54c.63,0,1.14-.22,1.52-.66.38-.44.58-1.11.58-2.01s-.19-1.56-.58-2c-.38-.44-.89-.66-1.52-.66s-1.14.22-1.52.66c-.38.44-.58,1.1-.58,2s.19,1.57.57,2.01c.38.44.89.66,1.53.66Z"/>
          <path class="cls-2" d="m212.17,250.35l-.62-1.57c.35-.13.65-.29.89-.5.24-.21.43-.47.58-.8.14-.33.25-.73.31-1.22.06-.48.1-1.06.1-1.74v-2.48h6.43v8.08h-1.98v-6.54h-2.62v1.01c0,1.16-.11,2.14-.32,2.92-.21.78-.54,1.41-.99,1.86-.45.46-1.04.78-1.76.98Z"/>
          <path class="cls-2" d="m222.12,250.12v-8.08h1.98v2.7h2.13c1.08,0,1.89.23,2.43.68s.82,1.11.82,1.96c0,.55-.13,1.04-.38,1.45s-.63.73-1.11.95-1.07.34-1.75.34h-4.11Zm1.98-1.31h1.86c.54,0,.96-.12,1.25-.34.29-.23.43-.58.43-1.05s-.14-.81-.42-1.03c-.28-.22-.7-.33-1.26-.33h-1.86v2.75Z"/>
          <path class="cls-2" d="m238.16,252.2v-2.08h-7.01v-8.08h1.98v6.54h3.42v-6.54h1.97v6.54h1.31v3.62h-1.68Z"/>
          <path class="cls-2" d="m244.49,250.28c-.7,0-1.32-.17-1.86-.5-.53-.34-.95-.82-1.25-1.45s-.45-1.38-.45-2.26.15-1.62.45-2.25.71-1.1,1.25-1.44,1.15-.5,1.86-.5,1.28.17,1.8.5.86.79,1.03,1.35h-.18l.18-1.7h1.92c-.03.33-.06.67-.09,1.01-.03.34-.04.68-.04,1.01v6.06h-1.98l-.02-1.66h.19c-.17.55-.52,1-1.04,1.33s-1.11.5-1.78.5Zm.56-1.54c.63,0,1.14-.22,1.52-.66.38-.44.58-1.11.58-2.01s-.19-1.56-.58-2c-.38-.44-.89-.66-1.52-.66s-1.14.22-1.52.66c-.38.44-.58,1.1-.58,2s.19,1.57.57,2.01c.38.44.89.66,1.53.66Z"/>
          <path class="cls-2" d="m252.16,252.25l-.82-.64c.34-.35.58-.68.71-.98.13-.3.2-.63.2-.97l.43.46h-1.5v-2.22h2.24v1.47c0,.54-.09,1.04-.28,1.5-.19.45-.51.92-.98,1.38Z"/>
          <path class="cls-2" d="m128.74,266.12v-2.21h-5.04v-1.44l5.36-7.63h1.66v7.5h1.62v1.57h-1.62v2.21h-1.98Zm0-3.78v-5.07h.38l-3.89,5.55v-.48h3.5Z"/>
          <path class="cls-2" d="m136.73,265.5v-3.26h-3.22v-1.41h3.22v-3.18h1.46v3.18h3.2v1.41h-3.2v3.26h-1.46Z"/>
          <path class="cls-2" d="m147.94,266.12v-2.21h-5.04v-1.44l5.36-7.63h1.66v7.5h1.62v1.57h-1.62v2.21h-1.98Zm0-3.78v-5.07h.38l-3.89,5.55v-.48h3.5Z"/>
          <path class="cls-2" d="m153.69,268.25l-.82-.64c.34-.35.58-.68.71-.98s.2-.63.2-.97l.43.46h-1.5v-2.22h2.24v1.47c0,.54-.09,1.04-.28,1.5-.19.45-.52.92-.98,1.38Z"/>
          <path class="cls-2" d="m161.97,266.12v-1.71h2.59v-7.84h.99l-3.33,1.98v-1.95l2.93-1.76h1.47v9.57h2.43v1.71h-7.09Z"/>
          <path class="cls-2" d="m174.6,266.28c-1.32,0-2.34-.5-3.06-1.51-.71-1.01-1.07-2.45-1.07-4.31s.36-3.32,1.07-4.3c.71-.98,1.73-1.47,3.06-1.47s2.35.49,3.06,1.47,1.06,2.41,1.06,4.29-.35,3.32-1.06,4.33-1.73,1.51-3.06,1.51Zm0-1.7c.73,0,1.26-.33,1.62-1,.35-.67.53-1.71.53-3.14s-.18-2.47-.53-3.11c-.35-.64-.89-.97-1.62-.97s-1.25.32-1.61.97c-.36.65-.54,1.68-.54,3.11s.18,2.48.54,3.14c.36.67.89,1,1.61,1Z"/>
          <path class="cls-2" d="m184.28,266.28c-.49,0-.98-.05-1.46-.16s-.94-.26-1.36-.45c-.42-.19-.78-.42-1.08-.69l.67-1.55c.5.37,1.02.65,1.54.84.53.19,1.08.28,1.66.28.69,0,1.23-.17,1.62-.52s.58-.81.58-1.4-.19-1.08-.56-1.45c-.37-.37-.89-.55-1.54-.55-.46,0-.88.09-1.26.26-.38.18-.72.45-1.02.81h-1.36v-6.86h7.01v1.7h-5.06v3.58h-.5c.28-.37.65-.66,1.11-.86.46-.2.98-.3,1.56-.3.73,0,1.35.15,1.89.45s.95.72,1.25,1.26.45,1.17.45,1.9-.17,1.38-.5,1.94-.82,1-1.44,1.31-1.36.47-2.22.47Z"/>
          <path class="cls-2" d="m194.52,266.12v-8.08h6.06v1.57h-4.06v6.51h-2Z"/>
          <path class="cls-2" d="m202.05,269.58v-9.52c0-.33-.01-.67-.03-1.01-.02-.34-.05-.68-.1-1.01h1.94l.18,1.7h-.18c.16-.57.5-1.02,1.02-1.35.52-.34,1.12-.5,1.8-.5s1.34.17,1.87.5c.53.34.95.82,1.25,1.44.3.62.45,1.37.45,2.25s-.15,1.63-.45,2.26c-.3.63-.71,1.11-1.25,1.45-.53.34-1.16.5-1.87.5-.67,0-1.26-.17-1.78-.5s-.85-.77-1.02-1.33h.18v5.12h-2Zm4.06-4.83c.64,0,1.15-.22,1.54-.66.38-.44.58-1.11.58-2.01s-.19-1.56-.58-2-.9-.66-1.54-.66-1.14.22-1.52.66-.58,1.1-.58,2,.19,1.57.58,2.01c.38.44.89.66,1.52.66Z"/>
          <path class="cls-2" d="m211.62,266.12v-2.22h2.24v2.22h-2.24Z"/>
        </g>
        <g>
          <path class="cls-2" d="m68.1,296.08v-11.28h8.05v1.6h-6.08v3.12h3.28c1.24,0,2.2.27,2.9.82s1.04,1.36,1.04,2.44-.35,1.88-1.04,2.45c-.69.57-1.66.85-2.9.85h-5.25Zm1.97-1.58h3.04c.76,0,1.31-.14,1.66-.42.35-.28.53-.71.53-1.29s-.18-.99-.53-1.26-.91-.42-1.66-.42h-3.04v3.39Z"/>
          <path class="cls-2" d="m78.92,299.71l-.46-1.58c.5-.11.92-.23,1.26-.37.34-.14.62-.32.85-.54.22-.22.41-.51.56-.86l.4-.94-.05.78-3.52-8.19h2.13l2.53,6.3h-.46l2.54-6.3h2.02l-3.68,8.53c-.25.58-.51,1.05-.8,1.43-.29.38-.6.68-.93.91-.33.23-.69.41-1.09.54-.39.13-.83.23-1.3.3Z"/>
          <path class="cls-2" d="m87.93,296.08v-8.08h1.98v3.17h1.22l2.37-3.17h2.14l-2.98,4.03-.43-.62c.3.03.56.11.79.24s.45.31.66.54.41.52.62.87l1.7,3.02h-2.13l-1.38-2.43c-.14-.25-.28-.44-.42-.58s-.29-.23-.46-.29c-.17-.05-.38-.08-.62-.08h-1.07v3.38h-1.98Z"/>
          <path class="cls-2" d="m96.84,296.3l-.62-1.57c.35-.13.65-.3.89-.5.24-.21.43-.47.58-.8s.25-.73.31-1.22.1-1.06.1-1.74v-2.48h6.43v8.08h-1.98v-6.54h-2.62v1.01c0,1.16-.11,2.14-.32,2.92-.21.78-.54,1.41-.99,1.86-.45.46-1.03.79-1.76.98Z"/>
          <path class="cls-2" d="m110.76,296.24c-1.35,0-2.42-.37-3.18-1.12-.77-.75-1.15-1.77-1.15-3.07,0-.84.17-1.58.5-2.21.33-.63.79-1.12,1.38-1.47.59-.35,1.28-.53,2.07-.53s1.43.17,1.95.5c.52.33.92.79,1.19,1.39.27.6.41,1.3.41,2.1v.53h-5.89v-1.06h4.46l-.27.22c0-.75-.16-1.32-.47-1.71-.31-.39-.77-.59-1.37-.59-.66,0-1.17.23-1.53.7-.36.47-.54,1.13-.54,1.97v.21c0,.87.22,1.53.65,1.96.43.43,1.04.65,1.83.65.46,0,.89-.06,1.29-.18.4-.12.78-.32,1.14-.6l.59,1.34c-.38.31-.84.55-1.38.72-.53.17-1.1.26-1.7.26Z"/>
          <path class="cls-2" d="m117.53,296.08v-6.51h-2.77v-1.57h7.54v1.57h-2.78v6.51h-1.98Z"/>
          <path class="cls-2" d="m131.4,296.24c-.78,0-1.53-.11-2.24-.34-.71-.23-1.3-.55-1.76-.95l.67-1.55c.5.38,1.02.67,1.56.85s1.11.27,1.7.27c.73,0,1.27-.14,1.65-.43.37-.29.56-.71.56-1.26s-.18-.94-.55-1.21c-.37-.27-.9-.41-1.61-.41h-1.82v-1.65h1.65c.61,0,1.09-.15,1.46-.45.36-.3.54-.71.54-1.23,0-.49-.17-.86-.5-1.12-.34-.26-.82-.38-1.45-.38-1.13,0-2.13.38-2.99,1.15l-.67-1.54c.46-.43,1.03-.76,1.7-.99.68-.23,1.39-.35,2.14-.35,1.17,0,2.09.26,2.76.79.67.53,1,1.26,1,2.2,0,.67-.19,1.25-.57,1.74-.38.48-.9.81-1.56.97v-.19c.78.13,1.38.45,1.82.95s.65,1.14.65,1.9c0,1-.37,1.79-1.1,2.38-.74.58-1.74.87-3.02.87Z"/>
          <path class="cls-2" d="m136.33,296.08l3.76-4.62v.91l-3.55-4.37h2.37l2.32,2.99h-.72l2.32-2.99h2.35l-3.52,4.37v-.91l3.74,4.62h-2.38l-2.51-3.21h.72l-2.53,3.21h-2.37Z"/>
          <path class="cls-2" d="m145.38,296.08l5.1-11.28h1.73l5.17,11.28h-2.1l-1.38-3.17.83.56h-6.77l.86-.56-1.38,3.17h-2.08Zm5.95-9.07l-2.26,5.34-.42-.5h5.38l-.34.5-2.3-5.34h-.06Z"/>
          <path class="cls-2" d="m162.26,296.24c-.49,0-.98-.05-1.46-.16-.49-.11-.94-.26-1.36-.45-.42-.19-.78-.42-1.08-.69l.67-1.55c.5.37,1.02.65,1.54.84.53.19,1.08.28,1.66.28.69,0,1.23-.17,1.62-.52.39-.35.58-.81.58-1.4s-.19-1.08-.56-1.45c-.37-.37-.89-.55-1.54-.55-.46,0-.88.09-1.26.26-.38.18-.72.45-1.02.81h-1.36v-6.86h7.01v1.7h-5.06v3.58h-.5c.28-.37.65-.66,1.11-.86s.98-.3,1.56-.3c.73,0,1.35.15,1.89.45.53.3.95.72,1.25,1.26.3.54.45,1.17.45,1.9s-.17,1.38-.5,1.94c-.34.56-.82,1-1.44,1.31s-1.36.47-2.22.47Z"/>
          <path class="cls-2" d="m168.82,298.21l-.82-.64c.34-.35.58-.68.71-.98.13-.3.2-.63.2-.97l.43.46h-1.5v-2.22h2.24v1.47c0,.54-.09,1.04-.28,1.5-.19.45-.52.92-.98,1.38Z"/>
          <path class="cls-2" d="m177.11,296.08v-1.71h2.59v-7.84h.99l-3.33,1.98v-1.95l2.93-1.76h1.47v9.57h2.43v1.71h-7.09Z"/>
          <path class="cls-2" d="m186.18,297.02h-1.65l4.21-12.98h1.65l-4.21,12.98Z"/>
          <path class="cls-2" d="m191.24,296.08v-1.52l3.74-3.9c.47-.49.82-.94,1.04-1.36.22-.42.34-.84.34-1.28,0-.54-.17-.95-.51-1.23-.34-.28-.84-.42-1.49-.42-.52,0-1.02.09-1.5.28-.48.19-.95.48-1.41.87l-.67-1.54c.46-.41,1.03-.73,1.7-.98.68-.25,1.39-.37,2.14-.37,1.22,0,2.15.27,2.8.82.65.54.98,1.32.98,2.34,0,.7-.17,1.37-.5,2.01-.33.63-.84,1.3-1.54,1.99l-3.12,3.12v-.54h5.6v1.71h-7.6Z"/>
          <path class="cls-2" d="m209.86,299.54v-5.02h.18c-.17.55-.46.98-.86,1.28s-.88.45-1.45.45-1.11-.17-1.56-.52c-.45-.35-.81-.83-1.06-1.46-.26-.63-.38-1.37-.38-2.22s.12-1.61.38-2.23.6-1.11,1.06-1.45c.45-.34.98-.51,1.58-.51.57,0,1.05.15,1.45.45s.69.72.86,1.26h-.18v-5.25h1.98v5.25h-.18c.17-.54.46-.96.86-1.26.4-.3.88-.45,1.45-.45.6,0,1.12.17,1.58.51.45.34.8.82,1.06,1.45s.38,1.37.38,2.23-.12,1.59-.38,2.22c-.25.63-.6,1.12-1.06,1.46-.45.35-.98.52-1.58.52-.55,0-1.03-.15-1.43-.45-.4-.3-.69-.73-.87-1.28h.18v5.02h-1.98Zm-1.55-4.8c.49,0,.88-.22,1.16-.67.28-.45.42-1.12.42-2.03s-.14-1.57-.43-2.02c-.29-.45-.67-.68-1.15-.68s-.88.23-1.17.68c-.29.45-.43,1.13-.43,2.02s.14,1.58.43,2.03c.29.45.68.67,1.17.67Zm5.09,0c.49,0,.88-.22,1.17-.67.29-.45.43-1.12.43-2.03s-.15-1.57-.44-2.02c-.29-.45-.68-.68-1.16-.68s-.88.23-1.16.68c-.28.45-.42,1.13-.42,2.02s.14,1.58.42,2.03c.28.45.67.67,1.16.67Z"/>
          <path class="cls-2" d="m222.05,296.24c-.7,0-1.32-.17-1.86-.5s-.95-.82-1.25-1.45c-.3-.63-.45-1.38-.45-2.26s.15-1.62.45-2.25c.3-.62.71-1.1,1.25-1.44s1.15-.5,1.86-.5,1.28.17,1.8.5.86.79,1.03,1.35h-.18l.18-1.7h1.92c-.03.33-.06.67-.09,1.01-.03.34-.04.68-.04,1.01v6.06h-1.98l-.02-1.66h.19c-.17.55-.52,1-1.04,1.33-.52.33-1.11.5-1.78.5Zm.56-1.54c.63,0,1.14-.22,1.52-.66.38-.44.58-1.11.58-2.01s-.19-1.56-.58-2c-.38-.44-.89-.66-1.52-.66s-1.14.22-1.52.66c-.38.44-.58,1.1-.58,2s.19,1.56.57,2.01c.38.44.89.66,1.53.66Z"/>
          <path class="cls-2" d="m228.8,296.3l-.62-1.57c.35-.13.65-.3.89-.5.24-.21.43-.47.58-.8.14-.33.25-.73.31-1.22.06-.49.1-1.06.1-1.74v-2.48h6.43v8.08h-1.98v-6.54h-2.62v1.01c0,1.16-.11,2.14-.32,2.92-.21.78-.54,1.41-.99,1.86-.45.46-1.04.79-1.76.98Z"/>
          <path class="cls-2" d="m238.75,296.08v-8.08h1.98v2.71h2.13c1.08,0,1.89.23,2.43.68s.82,1.11.82,1.96c0,.55-.13,1.04-.38,1.45-.26.41-.63.73-1.11.95-.49.22-1.07.34-1.75.34h-4.11Zm1.98-1.31h1.86c.54,0,.96-.11,1.25-.34s.43-.58.43-1.05-.14-.81-.42-1.03c-.28-.22-.7-.33-1.26-.33h-1.86v2.75Z"/>
          <path class="cls-2" d="m254.79,298.16v-2.08h-7.01v-8.08h1.98v6.54h3.42v-6.54h1.97v6.54h1.31v3.62h-1.68Z"/>
          <path class="cls-2" d="m261.12,296.24c-.7,0-1.32-.17-1.86-.5s-.95-.82-1.25-1.45c-.3-.63-.45-1.38-.45-2.26s.15-1.62.45-2.25c.3-.62.71-1.1,1.25-1.44s1.15-.5,1.86-.5,1.28.17,1.8.5.86.79,1.03,1.35h-.18l.18-1.7h1.92c-.03.33-.06.67-.09,1.01-.03.34-.04.68-.04,1.01v6.06h-1.98l-.02-1.66h.19c-.17.55-.52,1-1.04,1.33-.52.33-1.11.5-1.78.5Zm.56-1.54c.63,0,1.14-.22,1.52-.66.38-.44.58-1.11.58-2.01s-.19-1.56-.58-2c-.38-.44-.89-.66-1.52-.66s-1.14.22-1.52.66c-.38.44-.58,1.1-.58,2s.19,1.56.57,2.01c.38.44.89.66,1.53.66Z"/>
          <path class="cls-2" d="m268.79,298.21l-.82-.64c.34-.35.58-.68.71-.98.13-.3.2-.63.2-.97l.43.46h-1.5v-2.22h2.24v1.47c0,.54-.09,1.04-.28,1.5s-.51.92-.98,1.38Z"/>
          <path class="cls-2" d="m128.74,312.08v-2.21h-5.04v-1.44l5.36-7.63h1.66v7.5h1.62v1.57h-1.62v2.21h-1.98Zm0-3.78v-5.07h.38l-3.89,5.55v-.48h3.5Z"/>
          <path class="cls-2" d="m136.73,311.46v-3.26h-3.22v-1.41h3.22v-3.18h1.46v3.18h3.2v1.41h-3.2v3.26h-1.46Z"/>
          <path class="cls-2" d="m147.94,312.08v-2.21h-5.04v-1.44l5.36-7.63h1.66v7.5h1.62v1.57h-1.62v2.21h-1.98Zm0-3.78v-5.07h.38l-3.89,5.55v-.48h3.5Z"/>
          <path class="cls-2" d="m153.69,314.21l-.82-.64c.34-.35.58-.68.71-.98.13-.3.2-.63.2-.97l.43.46h-1.5v-2.22h2.24v1.47c0,.54-.09,1.04-.28,1.5-.19.45-.52.92-.98,1.38Z"/>
          <path class="cls-2" d="m161.97,312.08v-1.71h2.59v-7.84h.99l-3.33,1.98v-1.95l2.93-1.76h1.47v9.57h2.43v1.71h-7.09Z"/>
          <path class="cls-2" d="m174.6,312.24c-1.32,0-2.34-.5-3.06-1.51-.71-1.01-1.07-2.45-1.07-4.31s.36-3.32,1.07-4.3c.71-.98,1.73-1.47,3.06-1.47s2.35.49,3.06,1.47c.71.98,1.06,2.41,1.06,4.29s-.35,3.32-1.06,4.33-1.73,1.51-3.06,1.51Zm0-1.7c.73,0,1.26-.33,1.62-1,.35-.67.53-1.71.53-3.14s-.18-2.47-.53-3.11c-.35-.65-.89-.97-1.62-.97s-1.25.32-1.61.97c-.36.64-.54,1.68-.54,3.11s.18,2.48.54,3.14c.36.67.89,1,1.61,1Z"/>
          <path class="cls-2" d="m184.28,312.24c-.49,0-.98-.05-1.46-.16-.49-.11-.94-.26-1.36-.45-.42-.19-.78-.42-1.08-.69l.67-1.55c.5.37,1.02.65,1.54.84.53.19,1.08.28,1.66.28.69,0,1.23-.17,1.62-.52.39-.35.58-.81.58-1.4s-.19-1.08-.56-1.45c-.37-.37-.89-.55-1.54-.55-.46,0-.88.09-1.26.26-.38.18-.72.45-1.02.81h-1.36v-6.86h7.01v1.7h-5.06v3.58h-.5c.28-.37.65-.66,1.11-.86.46-.2.98-.3,1.56-.3.73,0,1.35.15,1.89.45.53.3.95.72,1.25,1.26.3.54.45,1.17.45,1.9s-.17,1.38-.5,1.94c-.34.56-.82,1-1.44,1.31s-1.36.47-2.22.47Z"/>
          <path class="cls-2" d="m194.52,312.08v-8.08h6.06v1.57h-4.06v6.51h-2Z"/>
          <path class="cls-2" d="m202.05,315.54v-9.52c0-.33-.01-.67-.03-1.01s-.05-.68-.1-1.01h1.94l.18,1.7h-.18c.16-.57.5-1.02,1.02-1.35.52-.34,1.12-.5,1.8-.5s1.34.17,1.87.5c.53.34.95.82,1.25,1.44.3.62.45,1.37.45,2.25s-.15,1.63-.45,2.26c-.3.63-.71,1.11-1.25,1.45-.53.34-1.16.5-1.87.5-.67,0-1.26-.17-1.78-.5-.51-.33-.85-.77-1.02-1.33h.18v5.12h-2Zm4.06-4.83c.64,0,1.15-.22,1.54-.66.38-.44.58-1.11.58-2.01s-.19-1.56-.58-2-.9-.66-1.54-.66-1.14.22-1.52.66-.58,1.1-.58,2,.19,1.56.58,2.01c.38.44.89.66,1.52.66Z"/>
          <path class="cls-2" d="m211.62,312.08v-2.22h2.24v2.22h-2.24Z"/>
        </g>
        <text class="cls-1" transform="translate(20.85 341.25)"><tspan x="0" y="0">Буклет 2хЕвр</tspan><tspan class="cls-8" x="107.45" y="0">о</tspan><tspan x="116.91" y="0">, 1 фальц, 4+4, 105 г</tspan><tspan class="cls-7" x="278.23" y="0">р</tspan><tspan x="288.14" y="0">.,</tspan><tspan x="-10.2" y="16">4+0/4+4, 270 г</tspan><tspan class="cls-10" x="101.46" y="16">р</tspan><tspan x="111.37" y="16">., 4+0/4+4, 270 г</tspan><tspan class="cls-7" x="235.35" y="16">р</tspan><tspan class="cls-9" x="245.25" y="16">. (1 бит)</tspan></text>
      </g>
    </g>
  </g>
</svg>