<?xml version="1.0" encoding="UTF-8"?>
<svg id="_Слой_2" data-name="Слой 2" xmlns="http://www.w3.org/2000/svg" viewBox="0 0 938.93 774.35">
  <defs>
    <style>
      .cls-1 {
        font-family: Mulish-Bold, Mulish;
        font-weight: 700;
      }

      .cls-1, .cls-2, .cls-3 {
        fill: #27625f;
      }

      .cls-1, .cls-3 {
        font-size: 16px;
      }

      .cls-4 {
        fill: #fff;
      }

      .cls-4, .cls-5 {
        stroke: #a0b6b5;
        stroke-miterlimit: 10;
      }

      .cls-2 {
        stroke-width: 0px;
      }

      .cls-6 {
        letter-spacing: 0em;
      }

      .cls-7 {
        letter-spacing: 0em;
      }

      .cls-3 {
        font-family: Mulish-SemiBold, Mulish;
        font-weight: 600;
      }

      .cls-8 {
        letter-spacing: -.06em;
      }

      .cls-9 {
        letter-spacing: 0em;
      }

      .cls-10 {
        letter-spacing: 0em;
      }

      .cls-11 {
        letter-spacing: -.02em;
      }

      .cls-12 {
        letter-spacing: -.02em;
      }

      .cls-13 {
        letter-spacing: 0em;
      }

      .cls-14 {
        letter-spacing: -.02em;
      }

      .cls-15 {
        letter-spacing: 0em;
      }

      .cls-16 {
        letter-spacing: -.07em;
      }

      .cls-17 {
        letter-spacing: -.02em;
      }

      .cls-18 {
        letter-spacing: -.08em;
      }

      .cls-19 {
        letter-spacing: 0em;
      }

      .cls-20 {
        letter-spacing: 0em;
      }

      .cls-21 {
        letter-spacing: -.01em;
      }

      .cls-22 {
        letter-spacing: -.02em;
      }

      .cls-23 {
        letter-spacing: -.02em;
      }

      .cls-5 {
        fill: none;
      }
    </style>
  </defs>
  <g id="_Слой_1-2" data-name="Слой 1">
    <g>
      <g>
        <g>
          <rect class="cls-4" x=".5" y="449.48" width="937.92" height="275.63" rx="9" ry="9"/>
          <line class="cls-5" x1=".5" y1="495.42" x2="938.42" y2="495.42"/>
          <line class="cls-5" x1=".5" y1="541.36" x2="938.42" y2="541.36"/>
          <line class="cls-5" x1=".5" y1="587.3" x2="938.42" y2="587.3"/>
          <line class="cls-5" x1="373.8" y1="541.36" x2="373.8" y2="725.11"/>
          <line class="cls-5" x1=".5" y1="633.24" x2="938.42" y2="633.24"/>
          <line class="cls-5" x1=".5" y1="679.18" x2="938.42" y2="679.18"/>
        </g>
        <text class="cls-3" transform="translate(18.99 750.79)"><tspan x="0" y="0">С</tspan><tspan class="cls-13" x="10.96" y="0">т</tspan><tspan x="18.4" y="0">оимость указана с учё</tspan><tspan class="cls-20" x="195.76" y="0">т</tspan><tspan x="203.2" y="0">ом </tspan><tspan class="cls-7" x="227.88" y="0">б</tspan><tspan x="237.26" y="0">умаги.</tspan><tspan x="0" y="19.2">Ск</tspan><tspan class="cls-7" x="19.79" y="19.2">р</tspan><tspan class="cls-19" x="29.62" y="19.2">у</tspan><tspan class="cls-23" x="38.38" y="19.2">г</tspan><tspan x="45.34" y="19.2">ление у</tspan><tspan class="cls-14" x="105.17" y="19.2">г</tspan><tspan x="112.13" y="19.2">лов штампов у визи</tspan><tspan class="cls-13" x="268.41" y="19.2">т</tspan><tspan x="275.85" y="19.2">ок и календарей - 2 </tspan><tspan class="cls-7" x="437.03" y="19.2">р</tspan><tspan class="cls-19" x="446.86" y="19.2">у</tspan><tspan class="cls-11" x="455.63" y="19.2">б</tspan><tspan x="464.86" y="19.2">.</tspan></text>
        <g>
          <text class="cls-1" transform="translate(18.99 477.66)"><tspan x="0" y="0">Офсетная печать визитных кар</tspan><tspan class="cls-10" x="254.86" y="0">т</tspan><tspan x="262.52" y="0">очек</tspan></text>
          <text class="cls-3" transform="translate(264.41 524.09)"><tspan x="0" y="0">(4+0/4+4), 50*90/50*85, мелованый кар</tspan><tspan class="cls-20" x="307.93" y="0">т</tspan><tspan x="315.37" y="0">он 270 г</tspan><tspan class="cls-8" x="379.18" y="0">/</tspan><tspan class="cls-15" x="383.02" y="0">м</tspan></text>
          <text class="cls-1" transform="translate(135.16 570.71)"><tspan class="cls-9" x="0" y="0">К</tspan><tspan class="cls-21" x="10.91" y="0">о</tspan><tspan x="20.45" y="0">личество</tspan></text>
          <text class="cls-3" transform="translate(148.78 616.9)"><tspan x="0" y="0">1000 ш</tspan><tspan class="cls-16" x="55.97" y="0">т</tspan><tspan x="62.33" y="0">.</tspan></text>
          <text class="cls-3" transform="translate(148.78 663.08)"><tspan x="0" y="0">2000 ш</tspan><tspan class="cls-16" x="55.97" y="0">т</tspan><tspan x="62.33" y="0">.</tspan></text>
          <text class="cls-3" transform="translate(148.78 708.26)"><tspan x="0" y="0">3000 ш</tspan><tspan class="cls-16" x="55.97" y="0">т</tspan><tspan x="62.33" y="0">.</tspan></text>
          <text class="cls-1" transform="translate(644.71 570.71)"><tspan x="0" y="0">Цена</tspan></text>
          <text class="cls-3" transform="translate(597.34 616.9)"><tspan x="0" y="0">1200 </tspan><tspan class="cls-7" x="42.67" y="0">р</tspan><tspan class="cls-6" x="52.5" y="0">у</tspan><tspan class="cls-17" x="61.26" y="0">б</tspan><tspan x="70.5" y="0">. (1,2</tspan><tspan class="cls-8" x="106.91" y="0">/</tspan><tspan class="cls-19" x="110.75" y="0">шт)</tspan></text>
          <text class="cls-3" transform="translate(597.34 663.08)"><tspan x="0" y="0">2400 </tspan><tspan class="cls-7" x="42.67" y="0">р</tspan><tspan class="cls-6" x="52.5" y="0">у</tspan><tspan class="cls-17" x="61.26" y="0">б</tspan><tspan x="70.5" y="0">. (1,2</tspan><tspan class="cls-8" x="106.91" y="0">/</tspan><tspan class="cls-19" x="110.75" y="0">шт)</tspan></text>
          <text class="cls-3" transform="translate(597.34 708.26)"><tspan x="0" y="0">3600 </tspan><tspan class="cls-7" x="42.67" y="0">р</tspan><tspan class="cls-6" x="52.5" y="0">у</tspan><tspan class="cls-17" x="61.26" y="0">б</tspan><tspan x="70.5" y="0">. (1,2</tspan><tspan class="cls-8" x="106.91" y="0">/</tspan><tspan class="cls-19" x="110.75" y="0">шт)</tspan></text>
        </g>
      </g>
      <g>
        <g>
          <rect class="cls-4" x=".5" y=".5" width="937.93" height="367.51" rx="10" ry="10"/>
          <line class="cls-5" x1=".5" y1="46.44" x2="938.43" y2="46.44"/>
          <line class="cls-5" x1="189.11" y1="46.44" x2="189.11" y2="368.01"/>
          <line class="cls-5" x1="376.15" y1="92.38" x2="376.15" y2="368.01"/>
          <line class="cls-5" x1="563.77" y1="92.38" x2="563.77" y2="368.01"/>
          <line class="cls-5" x1="751.1" y1="92.38" x2="751.1" y2="368.01"/>
          <line class="cls-5" x1="189.11" y1="92.38" x2="938.43" y2="92.38"/>
          <line class="cls-5" x1=".5" y1="138.32" x2="938.43" y2="138.32"/>
          <line class="cls-5" x1=".5" y1="184.26" x2="938.43" y2="184.26"/>
          <line class="cls-5" x1=".5" y1="230.2" x2="938.43" y2="230.2"/>
          <line class="cls-5" x1=".5" y1="276.13" x2="938.43" y2="276.13"/>
          <line class="cls-5" x1=".5" y1="322.07" x2="938.43" y2="322.07"/>
        </g>
        <g>
          <text class="cls-1" transform="translate(20.02 28.37)"><tspan x="0" y="0">Цифровая печать. Бумага 300 г</tspan><tspan class="cls-22" x="256.83" y="0">р</tspan><tspan x="266.73" y="0">. (ма</tspan><tspan class="cls-10" x="302.09" y="0">т</tspan><tspan x="309.75" y="0">овая) , 50х90 мм</tspan></text>
          <text class="cls-1" transform="translate(75.92 95.58)"><tspan x="0" y="0">Цвет</tspan></text>
          <text class="cls-1" transform="translate(537.58 72.89)"><tspan class="cls-18" x="0" y="0">Т</tspan><tspan x="8.66" y="0">ираж</tspan></text>
          <text class="cls-1" transform="translate(242.2 119.84)"><tspan x="0" y="0">48-192 шт</tspan></text>
          <text class="cls-3" transform="translate(268.88 166.41)"><tspan x="0" y="0">9 </tspan><tspan class="cls-12" x="13.87" y="0">р</tspan><tspan x="23.55" y="0">.</tspan></text>
          <text class="cls-3" transform="translate(264.08 213.15)"><tspan x="0" y="0">11 </tspan><tspan class="cls-12" x="23.47" y="0">р</tspan><tspan x="33.15" y="0">.</tspan></text>
          <text class="cls-3" transform="translate(264.08 257.89)"><tspan x="0" y="0">10 </tspan><tspan class="cls-12" x="23.47" y="0">р</tspan><tspan x="33.15" y="0">.</tspan></text>
          <text class="cls-3" transform="translate(268.88 304.45)"><tspan x="0" y="0">7 </tspan><tspan class="cls-12" x="13.87" y="0">р</tspan><tspan x="23.55" y="0">.</tspan></text>
          <text class="cls-3" transform="translate(268.88 350.32)"><tspan x="0" y="0">6 </tspan><tspan class="cls-12" x="13.87" y="0">р</tspan><tspan x="23.55" y="0">.</tspan></text>
          <g>
            <path class="cls-2" d="m21.35,388.44v-11.28h9.63v11.28h-1.65v-9.9h-6.34v9.9h-1.65Z"/>
            <path class="cls-2" d="m33.59,391.89v-9.58c0-.31-.01-.63-.04-.95-.03-.33-.06-.65-.09-.98h1.57l.16,1.82h-.18c.17-.61.51-1.09,1.03-1.44.52-.35,1.13-.53,1.85-.53s1.34.17,1.87.5.95.81,1.24,1.43c.29.62.44,1.37.44,2.24s-.15,1.61-.44,2.24c-.29.63-.71,1.11-1.24,1.44-.53.33-1.16.5-1.87.5s-1.31-.17-1.83-.52-.86-.82-1.03-1.42h.18v5.25h-1.62Zm3.9-4.58c.7,0,1.27-.25,1.69-.74.42-.49.63-1.22.63-2.18s-.21-1.68-.63-2.17c-.42-.49-.98-.73-1.69-.73s-1.27.24-1.69.73c-.42.49-.63,1.21-.63,2.17s.21,1.69.63,2.18c.42.49.98.74,1.69.74Z"/>
            <path class="cls-2" d="m43.46,388.44v-8.06h1.47v6.51h-.45l4.86-6.51h1.34v8.06h-1.46v-6.53h.46l-4.9,6.53h-1.34Z"/>
            <path class="cls-2" d="m57.4,388.44v-8.06h7.23v8.06h-1.6v-6.8h-4.03v6.8h-1.6Z"/>
            <path class="cls-2" d="m70.85,388.58c-1.3,0-2.33-.37-3.07-1.1-.75-.74-1.12-1.75-1.12-3.06,0-.84.16-1.58.49-2.21.33-.63.78-1.12,1.36-1.46.58-.35,1.26-.52,2.02-.52s1.39.16,1.9.48c.51.32.9.77,1.17,1.35s.4,1.27.4,2.06v.51h-6.08v-.93h4.98l-.27.21c0-.8-.18-1.42-.54-1.86-.36-.44-.87-.66-1.54-.66-.75,0-1.32.26-1.73.78s-.61,1.23-.61,2.14v.16c0,.95.23,1.66.7,2.14.46.48,1.12.72,1.98.72.47,0,.91-.07,1.32-.2.41-.13.8-.35,1.18-.66l.53,1.1c-.37.33-.83.58-1.36.76s-1.1.26-1.7.26Z"/>
            <path class="cls-2" d="m81.14,388.44v-3.12c-.3.16-.62.29-.96.38-.34.09-.7.14-1.09.14-1.16,0-2.02-.27-2.58-.82-.56-.55-.84-1.37-.84-2.47v-2.16h1.6v2.03c0,.74.17,1.27.5,1.6.33.33.85.5,1.57.5.36,0,.68-.04.96-.12s.55-.21.82-.38v-3.63h1.62v8.06h-1.58Z"/>
            <path class="cls-2" d="m88.29,388.58c-.71,0-1.34-.17-1.87-.5-.53-.33-.95-.81-1.24-1.44-.29-.63-.44-1.38-.44-2.24s.15-1.62.44-2.24c.29-.62.71-1.1,1.24-1.43s1.16-.5,1.87-.5,1.32.18,1.84.53c.52.35.87.83,1.04,1.44h-.18l.16-1.82h1.57c-.03.33-.06.66-.09.98s-.04.64-.04.95v6.13h-1.62v-1.79h.18c-.17.6-.52,1.07-1.05,1.42-.53.35-1.13.52-1.82.52Zm.4-1.26c.69,0,1.25-.25,1.67-.74.42-.49.63-1.22.63-2.18s-.21-1.68-.63-2.17c-.42-.49-.98-.73-1.67-.73s-1.27.24-1.69.73c-.42.49-.63,1.21-.63,2.17s.21,1.69.62,2.18c.42.49.98.74,1.7.74Z"/>
            <path class="cls-2" d="m96.8,388.44v-6.77h-2.85v-1.3h7.31v1.3h-2.86v6.77h-1.6Z"/>
            <path class="cls-2" d="m102.56,388.44v-8.06h1.47v6.51h-.45l4.86-6.51h1.34v8.06h-1.46v-6.53h.46l-4.9,6.53h-1.34Z"/>
            <path class="cls-2" d="m116.5,388.44v-8.06h1.6v3.28h4.08v-3.28h1.6v8.06h-1.6v-3.52h-4.08v3.52h-1.6Z"/>
            <path class="cls-2" d="m129.36,388.58c-.71,0-1.34-.17-1.87-.5-.53-.33-.95-.81-1.24-1.44-.29-.63-.44-1.38-.44-2.24s.15-1.62.44-2.24c.29-.62.71-1.1,1.24-1.43s1.16-.5,1.87-.5,1.32.18,1.84.53c.52.35.87.83,1.04,1.44h-.18l.16-1.82h1.57c-.03.33-.06.66-.09.98s-.04.64-.04.95v6.13h-1.62v-1.79h.18c-.17.6-.52,1.07-1.05,1.42-.53.35-1.13.52-1.82.52Zm.4-1.26c.69,0,1.25-.25,1.67-.74.42-.49.63-1.22.63-2.18s-.21-1.68-.63-2.17c-.42-.49-.98-.73-1.67-.73s-1.27.24-1.69.73c-.42.49-.63,1.21-.63,2.17s.21,1.69.62,2.18c.42.49.98.74,1.7.74Z"/>
            <path class="cls-2" d="m139.62,390.52v-3.33h.9c.35-.53.61-1.16.77-1.87s.24-1.58.24-2.59v-2.35h5.9v6.82h1.3v3.33h-1.39v-2.08h-6.32v2.08h-1.39Zm2.38-3.31h3.9v-5.58h-2.99v1.42c0,.78-.08,1.54-.23,2.28-.16.74-.38,1.37-.68,1.88Z"/>
            <path class="cls-2" d="m150.32,388.44v-8.06h1.47v6.51h-.45l4.86-6.51h1.34v8.06h-1.46v-6.53h.46l-4.9,6.53h-1.34Z"/>
            <path class="cls-2" d="m162.79,388.58c-.7,0-1.37-.09-1.98-.26-.62-.18-1.13-.43-1.52-.76l.5-1.09c.39.31.85.54,1.36.7.51.16,1.06.23,1.65.23.74,0,1.27-.11,1.61-.33s.5-.53.5-.94-.14-.69-.42-.9c-.28-.2-.68-.3-1.22-.3h-1.98v-1.15h1.82c.48,0,.85-.1,1.12-.3.27-.2.4-.49.4-.85,0-.38-.16-.68-.46-.9-.31-.21-.79-.32-1.44-.32-.55,0-1.06.07-1.52.21-.46.14-.9.35-1.31.62l-.48-1.04c.44-.33.96-.58,1.55-.74.6-.16,1.24-.24,1.94-.24,1.04,0,1.84.19,2.38.58s.82.95.82,1.67c0,.5-.17.93-.5,1.28-.34.35-.79.57-1.35.64v-.21c.65.03,1.17.23,1.56.58.39.36.58.83.58,1.42,0,.73-.31,1.3-.92,1.74-.61.43-1.51.65-2.68.65Z"/>
            <path class="cls-2" d="m171.43,388.58c-.71,0-1.34-.17-1.87-.5-.53-.33-.95-.81-1.24-1.44-.29-.63-.44-1.38-.44-2.24s.15-1.62.44-2.24c.29-.62.71-1.1,1.24-1.43s1.16-.5,1.87-.5,1.32.18,1.84.53c.52.35.87.83,1.04,1.44h-.18l.16-1.82h1.57c-.03.33-.06.66-.09.98s-.04.64-.04.95v6.13h-1.62v-1.79h.18c-.17.6-.52,1.07-1.05,1.42-.53.35-1.13.52-1.82.52Zm.4-1.26c.69,0,1.25-.25,1.67-.74.42-.49.63-1.22.63-2.18s-.21-1.68-.63-2.17c-.42-.49-.98-.73-1.67-.73s-1.27.24-1.69.73c-.42.49-.63,1.21-.63,2.17s.21,1.69.62,2.18c.42.49.98.74,1.7.74Z"/>
            <path class="cls-2" d="m178.21,388.44v-8.06h1.47v6.51h-.45l4.86-6.51h1.34v8.06h-1.46v-6.53h.46l-4.9,6.53h-1.34Zm3.62-8.8c-.49,0-.93-.08-1.31-.24-.38-.16-.71-.4-.98-.71-.27-.31-.48-.7-.62-1.14l.9-.32c.18.5.44.87.77,1.11.33.24.75.36,1.25.36s.93-.11,1.26-.34c.33-.22.61-.6.84-1.12l.83.3c-.26.73-.64,1.26-1.14,1.59-.51.34-1.1.5-1.78.5Z"/>
            <path class="cls-2" d="m187.87,388.44v-8.06h1.6v3.28h4.08v-3.28h1.6v8.06h-1.6v-3.52h-4.08v3.52h-1.6Z"/>
            <path class="cls-2" d="m201.38,388.58c-1.3,0-2.33-.37-3.07-1.1-.75-.74-1.12-1.75-1.12-3.06,0-.84.16-1.58.49-2.21.33-.63.78-1.12,1.36-1.46.58-.35,1.26-.52,2.02-.52s1.39.16,1.9.48c.51.32.9.77,1.17,1.35s.4,1.27.4,2.06v.51h-6.08v-.93h4.98l-.27.21c0-.8-.18-1.42-.54-1.86-.36-.44-.87-.66-1.54-.66-.75,0-1.32.26-1.73.78s-.61,1.23-.61,2.14v.16c0,.95.23,1.66.7,2.14.46.48,1.12.72,1.98.72.47,0,.91-.07,1.32-.2.41-.13.8-.35,1.18-.66l.53,1.1c-.37.33-.83.58-1.36.76s-1.1.26-1.7.26Z"/>
            <path class="cls-2" d="m206.58,391.89v-9.58c0-.31-.01-.63-.04-.95-.03-.33-.06-.65-.09-.98h1.57l.16,1.82h-.18c.17-.61.51-1.09,1.03-1.44.52-.35,1.13-.53,1.85-.53s1.34.17,1.87.5.95.81,1.24,1.43c.29.62.44,1.37.44,2.24s-.15,1.61-.44,2.24c-.29.63-.71,1.11-1.24,1.44-.53.33-1.16.5-1.87.5s-1.31-.17-1.83-.52-.86-.82-1.03-1.42h.18v5.25h-1.62Zm3.9-4.58c.7,0,1.27-.25,1.69-.74.42-.49.63-1.22.63-2.18s-.21-1.68-.63-2.17c-.42-.49-.98-.73-1.69-.73s-1.27.24-1.69.73c-.42.49-.63,1.21-.63,2.17s.21,1.69.63,2.18c.42.49.98.74,1.69.74Z"/>
            <path class="cls-2" d="m220.05,388.58c-.81,0-1.52-.17-2.12-.5-.6-.34-1.07-.82-1.39-1.46s-.49-1.39-.49-2.26.17-1.61.5-2.22c.33-.62.79-1.09,1.39-1.42.6-.33,1.3-.49,2.11-.49.52,0,1.03.09,1.52.26s.9.42,1.22.74l-.53,1.14c-.3-.29-.63-.5-1.01-.65-.37-.14-.74-.22-1.09-.22-.77,0-1.37.25-1.81.74-.44.49-.66,1.2-.66,2.13s.22,1.66.66,2.16c.44.5,1.04.75,1.81.75.34,0,.7-.07,1.07-.2.37-.13.71-.35,1.02-.65l.53,1.14c-.33.32-.74.57-1.24.74-.5.18-.99.26-1.5.26Z"/>
            <path class="cls-2" d="m224.63,388.44v-8.06h1.6v3.3h1.39l2.51-3.3h1.76l-3.01,3.97-.4-.51c.31.03.58.11.8.23.22.12.44.3.66.54.21.23.43.54.66.93l1.68,2.91h-1.73l-1.44-2.46c-.16-.28-.32-.49-.46-.65-.15-.15-.32-.26-.51-.32-.19-.06-.43-.09-.7-.09h-1.2v3.52h-1.6Z"/>
            <path class="cls-2" d="m236.98,388.58c-.8,0-1.49-.17-2.08-.5-.59-.34-1.04-.82-1.36-1.44s-.48-1.37-.48-2.23.16-1.61.48-2.23.77-1.1,1.36-1.44c.59-.34,1.28-.5,2.08-.5s1.5.17,2.09.5,1.05.82,1.38,1.44c.33.62.49,1.37.49,2.23s-.16,1.61-.49,2.23c-.33.62-.78,1.1-1.38,1.44s-1.29.5-2.09.5Zm0-1.26c.7,0,1.26-.25,1.68-.74.42-.49.62-1.22.62-2.18s-.21-1.68-.62-2.17-.98-.73-1.68-.73-1.25.24-1.66.73-.62,1.21-.62,2.17.21,1.69.62,2.18c.41.49.97.74,1.67.74Z"/>
            <path class="cls-2" d="m242.93,388.44v-8.06h1.47v6.51h-.45l4.86-6.51h1.34v8.06h-1.46v-6.53h.46l-4.9,6.53h-1.34Zm3.62-8.8c-.49,0-.93-.08-1.31-.24-.38-.16-.71-.4-.98-.71-.27-.31-.48-.7-.62-1.14l.9-.32c.18.5.44.87.77,1.11.33.24.75.36,1.25.36s.93-.11,1.26-.34c.33-.22.61-.6.84-1.12l.83.3c-.26.73-.64,1.26-1.14,1.59-.51.34-1.1.5-1.78.5Z"/>
            <path class="cls-2" d="m260.45,388.58c-1.22,0-2.18-.38-2.9-1.14-.72-.76-1.08-1.87-1.08-3.34v-1.39c0-1.5.32-2.71.97-3.63.65-.92,1.65-1.54,3-1.86l2.94-.7.46,1.3-3.3.77c-.58.13-1.05.37-1.42.72-.37.35-.65.77-.84,1.25-.19.48-.28.99-.28,1.54v.74h-.24c.13-.49.33-.91.62-1.26.28-.35.63-.62,1.06-.82.42-.2.89-.3,1.42-.3.69,0,1.3.16,1.82.48.52.32.93.78,1.22,1.38.29.6.44,1.31.44,2.14s-.16,1.59-.48,2.21c-.32.62-.77,1.09-1.35,1.42-.58.33-1.27.5-2.06.5Zm-.05-1.25c.73,0,1.29-.24,1.7-.71.41-.47.62-1.18.62-2.1s-.21-1.62-.62-2.1c-.42-.48-.98-.72-1.7-.72s-1.28.24-1.7.71-.62,1.15-.62,2.02c0,.96.21,1.68.62,2.17.41.49.98.73,1.7.73Z"/>
            <path class="cls-2" d="m266.06,392.07l-.38-1.31c.5-.11.92-.23,1.26-.38s.62-.34.84-.58.42-.55.58-.92l.4-.94-.03.66-3.5-8.21h1.73l2.72,6.72h-.43l2.72-6.72h1.66l-3.7,8.64c-.24.53-.49.98-.75,1.34-.27.36-.55.66-.86.88-.31.22-.65.4-1.02.53s-.78.23-1.22.3Z"/>
            <path class="cls-2" d="m275.01,388.44v-8.06h1.34l2.91,5.15,2.91-5.15h1.34v8.06h-1.42v-6.26h.35l-2.8,4.96h-.77l-2.8-4.96h.35v6.26h-1.42Z"/>
            <path class="cls-2" d="m289.1,388.58c-.71,0-1.34-.17-1.87-.5-.53-.33-.95-.81-1.24-1.44-.29-.63-.44-1.38-.44-2.24s.15-1.62.44-2.24c.29-.62.71-1.1,1.24-1.43s1.16-.5,1.87-.5,1.32.18,1.84.53c.52.35.87.83,1.04,1.44h-.18l.16-1.82h1.57c-.03.33-.06.66-.09.98s-.04.64-.04.95v6.13h-1.62v-1.79h.18c-.17.6-.52,1.07-1.05,1.42-.53.35-1.13.52-1.82.52Zm.4-1.26c.69,0,1.25-.25,1.67-.74.42-.49.63-1.22.63-2.18s-.21-1.68-.63-2.17c-.42-.49-.98-.73-1.67-.73s-1.27.24-1.69.73c-.42.49-.63,1.21-.63,2.17s.21,1.69.62,2.18c.42.49.98.74,1.7.74Z"/>
            <path class="cls-2" d="m295.89,388.44v-8.06h5.81v1.3h-4.19v6.77h-1.62Z"/>
            <path class="cls-2" d="m306.96,388.58c-1.3,0-2.33-.37-3.07-1.1-.75-.74-1.12-1.75-1.12-3.06,0-.84.16-1.58.49-2.21.33-.63.78-1.12,1.36-1.46.58-.35,1.26-.52,2.02-.52s1.39.16,1.9.48c.51.32.9.77,1.17,1.35s.4,1.27.4,2.06v.51h-6.08v-.93h4.98l-.27.21c0-.8-.18-1.42-.54-1.86-.36-.44-.87-.66-1.54-.66-.75,0-1.32.26-1.73.78s-.61,1.23-.61,2.14v.16c0,.95.23,1.66.7,2.14.46.48,1.12.72,1.98.72.47,0,.91-.07,1.32-.2.41-.13.8-.35,1.18-.66l.53,1.1c-.37.33-.83.58-1.36.76s-1.1.26-1.7.26Z"/>
            <path class="cls-2" d="m316.37,388.44v-8.06h1.6v3.28h4.08v-3.28h1.6v8.06h-1.6v-3.52h-4.08v3.52h-1.6Z"/>
            <path class="cls-2" d="m329.23,388.58c-.71,0-1.34-.17-1.87-.5-.53-.33-.95-.81-1.24-1.44-.29-.63-.44-1.38-.44-2.24s.15-1.62.44-2.24c.29-.62.71-1.1,1.24-1.43s1.16-.5,1.87-.5,1.32.18,1.84.53c.52.35.87.83,1.04,1.44h-.18l.16-1.82h1.57c-.03.33-.06.66-.09.98s-.04.64-.04.95v6.13h-1.62v-1.79h.18c-.17.6-.52,1.07-1.05,1.42-.53.35-1.13.52-1.82.52Zm.4-1.26c.69,0,1.25-.25,1.67-.74.42-.49.63-1.22.63-2.18s-.21-1.68-.63-2.17c-.42-.49-.98-.73-1.67-.73s-1.27.24-1.69.73c-.42.49-.63,1.21-.63,2.17s.21,1.69.62,2.18c.42.49.98.74,1.7.74Z"/>
            <path class="cls-2" d="m342.99,390.52v-2.08h-6.98v-8.06h1.6v6.8h3.86v-6.8h1.58v6.8h1.3v3.34h-1.36Z"/>
            <path class="cls-2" d="m349.76,388.58c-1.3,0-2.33-.37-3.07-1.1-.75-.74-1.12-1.75-1.12-3.06,0-.84.16-1.58.49-2.21.33-.63.78-1.12,1.36-1.46.58-.35,1.26-.52,2.02-.52s1.39.16,1.9.48c.51.32.9.77,1.17,1.35s.4,1.27.4,2.06v.51h-6.08v-.93h4.98l-.27.21c0-.8-.18-1.42-.54-1.86-.36-.44-.87-.66-1.54-.66-.75,0-1.32.26-1.73.78s-.61,1.23-.61,2.14v.16c0,.95.23,1.66.7,2.14.46.48,1.12.72,1.98.72.47,0,.91-.07,1.32-.2.41-.13.8-.35,1.18-.66l.53,1.1c-.37.33-.83.58-1.36.76s-1.1.26-1.7.26Z"/>
            <path class="cls-2" d="m354.9,388.44v-8.06h1.6v3.28h4.08v-3.28h1.6v8.06h-1.6v-3.52h-4.08v3.52h-1.6Z"/>
            <path class="cls-2" d="m364.61,388.44v-8.06h1.6v3.3h1.39l2.51-3.3h1.76l-3.01,3.97-.4-.51c.31.03.58.11.8.23.22.12.44.3.66.54.21.23.43.54.66.93l1.68,2.91h-1.73l-1.44-2.46c-.16-.28-.32-.49-.46-.65-.15-.15-.32-.26-.51-.32-.19-.06-.43-.09-.7-.09h-1.2v3.52h-1.6Z"/>
            <path class="cls-2" d="m376.59,388.58c-.71,0-1.34-.17-1.87-.5-.53-.33-.95-.81-1.24-1.44-.29-.63-.44-1.38-.44-2.24s.15-1.62.44-2.24c.29-.62.71-1.1,1.24-1.43s1.16-.5,1.87-.5,1.32.18,1.84.53c.52.35.87.83,1.04,1.44h-.18l.16-1.82h1.57c-.03.33-.06.66-.09.98s-.04.64-.04.95v6.13h-1.62v-1.79h.18c-.17.6-.52,1.07-1.05,1.42-.53.35-1.13.52-1.82.52Zm.4-1.26c.69,0,1.25-.25,1.67-.74.42-.49.63-1.22.63-2.18s-.21-1.68-.63-2.17c-.42-.49-.98-.73-1.67-.73s-1.27.24-1.69.73c-.42.49-.63,1.21-.63,2.17s.21,1.69.62,2.18c.42.49.98.74,1.7.74Z"/>
            <path class="cls-2" d="m390.43,388.58c-.6,0-1.19-.12-1.79-.36-.6-.24-1.1-.56-1.5-.95l.59-1.26c.39.38.83.67,1.3.87.47.2.94.3,1.42.3,1.02,0,1.81-.36,2.36-1.08.55-.72.82-1.79.82-3.22v-1.36h.16c-.06.57-.25,1.06-.54,1.49-.3.43-.67.75-1.13.98-.45.22-.96.34-1.53.34-.66,0-1.26-.16-1.78-.46-.53-.31-.94-.74-1.23-1.28-.29-.54-.44-1.16-.44-1.84,0-.73.16-1.37.48-1.93.32-.56.76-1,1.31-1.31s1.19-.47,1.92-.47c1.41,0,2.49.48,3.24,1.45.75.97,1.13,2.33,1.13,4.09,0,1.29-.19,2.38-.57,3.28-.38.9-.93,1.58-1.64,2.05-.71.47-1.57.7-2.58.7Zm.53-5.63c.45,0,.84-.1,1.18-.29.34-.19.61-.46.8-.81.19-.35.29-.74.29-1.19s-.1-.86-.29-1.21c-.19-.35-.46-.62-.8-.82s-.74-.3-1.18-.3-.84.1-1.18.3c-.34.2-.6.47-.79.82-.19.35-.29.75-.29,1.21s.1.85.29,1.19c.19.35.46.62.79.81.34.19.73.29,1.18.29Z"/>
            <path class="cls-2" d="m397.79,390.41l-.7-.54c.31-.33.52-.63.63-.91.11-.28.17-.57.17-.86l.35.35h-1.26v-1.9h1.9v1.3c0,.48-.08.93-.24,1.34-.16.41-.44.82-.85,1.24Z"/>
            <path class="cls-2" d="m405.78,388.44v-2.34h-5.22v-1.18l5.49-7.76h1.34v7.65h1.68v1.3h-1.68v2.34h-1.62Zm0-3.63v-5.68h.37l-4.29,6.08v-.4h3.92Z"/>
            <path class="cls-2" d="m414.97,391.89v-9.58c0-.31-.01-.63-.04-.95-.03-.33-.06-.65-.09-.98h1.57l.16,1.82h-.18c.17-.61.51-1.09,1.03-1.44.52-.35,1.13-.53,1.85-.53s1.34.17,1.87.5.95.81,1.24,1.43c.29.62.44,1.37.44,2.24s-.15,1.61-.44,2.24c-.29.63-.71,1.11-1.24,1.44-.53.33-1.16.5-1.87.5s-1.31-.17-1.83-.52-.86-.82-1.03-1.42h.18v5.25h-1.62Zm3.9-4.58c.7,0,1.27-.25,1.69-.74.42-.49.63-1.22.63-2.18s-.21-1.68-.63-2.17c-.42-.49-.98-.73-1.69-.73s-1.27.24-1.69.73c-.42.49-.63,1.21-.63,2.17s.21,1.69.63,2.18c.42.49.98.74,1.69.74Z"/>
            <path class="cls-2" d="m424.32,388.44v-1.9h1.9v1.9h-1.9Z"/>
            <path class="cls-2" d="m21.35,407.64v-11.28h7.81v1.31h-6.21v3.55h3.44c1.23,0,2.18.27,2.86.8.68.53,1.02,1.33,1.02,2.38s-.34,1.86-1.02,2.41c-.68.55-1.63.82-2.86.82h-5.04Zm1.6-1.31h3.26c.83,0,1.45-.16,1.84-.47.39-.31.59-.79.59-1.43s-.2-1.12-.59-1.42c-.4-.31-1.01-.46-1.84-.46h-3.26v3.79Z"/>
            <path class="cls-2" d="m31.97,411.27l-.38-1.31c.5-.11.92-.23,1.26-.38s.62-.34.84-.58.42-.55.58-.92l.4-.94-.03.66-3.5-8.21h1.73l2.72,6.72h-.43l2.72-6.72h1.66l-3.7,8.64c-.24.53-.49.98-.75,1.34-.27.36-.55.66-.86.88-.31.22-.65.4-1.02.53-.37.13-.78.23-1.22.3Z"/>
            <path class="cls-2" d="m40.92,407.64v-8.06h1.34l2.91,5.15,2.91-5.15h1.34v8.06h-1.42v-6.26h.35l-2.8,4.96h-.77l-2.8-4.96h.35v6.26h-1.42Z"/>
            <path class="cls-2" d="m55.01,407.78c-.71,0-1.34-.17-1.87-.5-.53-.33-.95-.81-1.24-1.44-.29-.63-.44-1.38-.44-2.24s.15-1.62.44-2.24c.29-.62.71-1.1,1.24-1.43s1.16-.5,1.87-.5,1.32.18,1.84.53c.52.35.87.83,1.04,1.44h-.18l.16-1.82h1.57c-.03.33-.06.66-.09.98s-.04.64-.04.95v6.13h-1.62v-1.79h.18c-.17.6-.52,1.07-1.05,1.42-.53.35-1.13.52-1.82.52Zm.4-1.26c.69,0,1.25-.25,1.67-.74.42-.49.63-1.22.63-2.18s-.21-1.68-.63-2.17c-.42-.49-.98-.73-1.67-.73s-1.27.24-1.69.73c-.42.49-.63,1.21-.63,2.17s.21,1.69.62,2.18c.42.49.98.74,1.7.74Z"/>
            <path class="cls-2" d="m61.8,407.64v-8.06h5.81v1.3h-4.19v6.77h-1.62Z"/>
            <path class="cls-2" d="m72.23,407.78c-.71,0-1.34-.17-1.87-.5-.53-.33-.95-.81-1.24-1.44-.29-.63-.44-1.38-.44-2.24s.15-1.62.44-2.24c.29-.62.71-1.1,1.24-1.43s1.16-.5,1.87-.5,1.32.18,1.84.53c.52.35.87.83,1.04,1.44h-.18l.16-1.82h1.57c-.03.33-.06.66-.09.98s-.04.64-.04.95v6.13h-1.62v-1.79h.18c-.17.6-.52,1.07-1.05,1.42-.53.35-1.13.52-1.82.52Zm.4-1.26c.69,0,1.25-.25,1.67-.74.42-.49.63-1.22.63-2.18s-.21-1.68-.63-2.17c-.42-.49-.98-.73-1.67-.73s-1.27.24-1.69.73c-.42.49-.63,1.21-.63,2.17s.21,1.69.62,2.18c.42.49.98.74,1.7.74Z"/>
            <path class="cls-2" d="m86.39,407.78c-.88,0-1.54-.24-1.98-.71s-.67-1.19-.67-2.14v-4.11h-1.57v-1.25h1.57v-2.13l1.62-.43v2.56h2.24v1.25h-2.24v3.97c0,.6.11,1.02.32,1.28.21.26.52.38.93.38.2,0,.38-.02.54-.06.15-.04.3-.08.42-.14v1.31c-.16.06-.35.11-.56.15-.21.04-.42.06-.61.06Z"/>
            <path class="cls-2" d="m92.44,407.78c-.8,0-1.49-.17-2.08-.5-.59-.34-1.04-.82-1.36-1.44-.32-.62-.48-1.37-.48-2.23s.16-1.61.48-2.23c.32-.62.77-1.1,1.36-1.44.59-.34,1.28-.5,2.08-.5s1.5.17,2.09.5c.59.34,1.05.82,1.38,1.44.33.62.49,1.37.49,2.23s-.16,1.61-.49,2.23c-.33.62-.78,1.1-1.38,1.44-.59.34-1.29.5-2.09.5Zm0-1.26c.7,0,1.26-.25,1.68-.74.42-.49.62-1.22.62-2.18s-.21-1.68-.62-2.17-.98-.73-1.68-.73-1.25.24-1.66.73-.62,1.21-.62,2.17.21,1.69.62,2.18c.41.49.97.74,1.67.74Z"/>
            <path class="cls-2" d="m101.14,407.78c-.97,0-1.7-.26-2.18-.79-.49-.53-.73-1.34-.73-2.44v-4.98h1.62v4.94c0,.67.14,1.17.42,1.49.28.32.7.48,1.26.48.64,0,1.16-.21,1.55-.64.39-.43.59-.99.59-1.7v-4.58h1.62v8.06h-1.57v-1.73h.21c-.22.6-.58,1.06-1.07,1.38-.49.33-1.06.49-1.71.49Z"/>
            <path class="cls-2" d="m111.19,407.78c-.81,0-1.52-.17-2.12-.5s-1.07-.82-1.39-1.46-.49-1.39-.49-2.26.17-1.61.5-2.22c.33-.62.79-1.09,1.39-1.42.6-.33,1.3-.49,2.11-.49.52,0,1.03.09,1.52.26.49.18.9.42,1.22.74l-.53,1.14c-.3-.29-.63-.5-1.01-.65-.37-.14-.74-.22-1.09-.22-.77,0-1.37.25-1.81.74-.44.49-.66,1.2-.66,2.13s.22,1.66.66,2.16c.44.5,1.04.75,1.81.75.34,0,.7-.07,1.07-.2.37-.13.71-.35,1.02-.65l.53,1.14c-.33.32-.74.57-1.24.74s-.99.26-1.5.26Z"/>
            <path class="cls-2" d="m115.63,407.64v-11.78h1.62v5.42h-.22c.23-.61.61-1.07,1.14-1.38s1.12-.47,1.81-.47c.96,0,1.67.26,2.14.79.47.53.7,1.33.7,2.39v5.02h-1.62v-4.93c0-.69-.14-1.2-.41-1.51-.27-.31-.7-.47-1.29-.47-.68,0-1.23.21-1.64.63-.41.42-.62.98-.62,1.67v4.61h-1.62Z"/>
            <path class="cls-2" d="m128.85,407.78c-1.3,0-2.33-.37-3.07-1.1-.75-.74-1.12-1.75-1.12-3.06,0-.84.16-1.58.49-2.21.33-.63.78-1.12,1.36-1.46.58-.35,1.26-.52,2.02-.52s1.39.16,1.9.48c.51.32.9.77,1.17,1.35s.4,1.27.4,2.06v.51h-6.08v-.93h4.98l-.27.21c0-.8-.18-1.42-.54-1.86-.36-.44-.87-.66-1.54-.66-.75,0-1.32.26-1.73.78s-.61,1.23-.61,2.14v.16c0,.95.23,1.66.7,2.14.46.48,1.12.72,1.98.72.47,0,.91-.07,1.32-.2.41-.13.8-.35,1.18-.66l.53,1.1c-.37.33-.83.58-1.36.76-.53.18-1.1.26-1.7.26Z"/>
            <path class="cls-2" d="m141.67,407.78c-.81,0-1.52-.17-2.12-.5s-1.07-.82-1.39-1.46-.49-1.39-.49-2.26.17-1.61.5-2.22c.33-.62.79-1.09,1.39-1.42.6-.33,1.3-.49,2.11-.49.52,0,1.03.09,1.52.26.49.18.9.42,1.22.74l-.53,1.14c-.3-.29-.63-.5-1.01-.65-.37-.14-.74-.22-1.09-.22-.77,0-1.37.25-1.81.74-.44.49-.66,1.2-.66,2.13s.22,1.66.66,2.16c.44.5,1.04.75,1.81.75.34,0,.7-.07,1.07-.2.37-.13.71-.35,1.02-.65l.53,1.14c-.33.32-.74.57-1.24.74s-.99.26-1.5.26Z"/>
            <path class="cls-2" d="m149.41,407.78c-.8,0-1.49-.17-2.08-.5-.59-.34-1.04-.82-1.36-1.44-.32-.62-.48-1.37-.48-2.23s.16-1.61.48-2.23c.32-.62.77-1.1,1.36-1.44.59-.34,1.28-.5,2.08-.5s1.5.17,2.09.5c.59.34,1.05.82,1.38,1.44.33.62.49,1.37.49,2.23s-.16,1.61-.49,2.23c-.33.62-.78,1.1-1.38,1.44-.59.34-1.29.5-2.09.5Zm0-1.26c.7,0,1.26-.25,1.68-.74.42-.49.62-1.22.62-2.18s-.21-1.68-.62-2.17-.98-.73-1.68-.73-1.25.24-1.66.73-.62,1.21-.62,2.17.21,1.69.62,2.18c.41.49.97.74,1.67.74Z"/>
            <path class="cls-2" d="m157.47,407.64l-3.46-8.06h1.73l2.72,6.74h-.46l2.77-6.74h1.65l-3.47,8.06h-1.47Z"/>
            <path class="cls-2" d="m167.28,407.78c-1.3,0-2.33-.37-3.07-1.1-.75-.74-1.12-1.75-1.12-3.06,0-.84.16-1.58.49-2.21.33-.63.78-1.12,1.36-1.46.58-.35,1.26-.52,2.02-.52s1.39.16,1.9.48c.51.32.9.77,1.17,1.35s.4,1.27.4,2.06v.51h-6.08v-.93h4.98l-.27.21c0-.8-.18-1.42-.54-1.86-.36-.44-.87-.66-1.54-.66-.75,0-1.32.26-1.73.78s-.61,1.23-.61,2.14v.16c0,.95.23,1.66.7,2.14.46.48,1.12.72,1.98.72.47,0,.91-.07,1.32-.2.41-.13.8-.35,1.18-.66l.53,1.1c-.37.33-.83.58-1.36.76-.53.18-1.1.26-1.7.26Z"/>
            <path class="cls-2" d="m172.26,407.64v-6.06c0-.33,0-.66-.02-1s-.04-.67-.07-1h1.57l.18,2.08h-.26c.11-.5.29-.92.54-1.25.26-.33.57-.58.94-.74.37-.16.75-.24,1.16-.24.17,0,.31,0,.43.02.12.02.23.04.35.07l-.02,1.44c-.18-.08-.34-.12-.47-.14-.13-.02-.3-.02-.49-.02-.47,0-.87.1-1.2.31-.33.21-.58.49-.75.84-.17.35-.26.73-.26,1.14v4.54h-1.63Z"/>
            <path class="cls-2" d="m183.33,407.64v-1.39h2.62v-8.48h.83l-3.2,1.95v-1.6l2.83-1.76h1.2v9.89h2.46v1.39h-6.75Z"/>
            <path class="cls-2" d="m192.34,407.64v-1.23l3.87-4.05c.5-.52.87-1.01,1.12-1.47.25-.46.37-.93.37-1.42,0-.61-.19-1.07-.57-1.38-.38-.31-.93-.46-1.64-.46-.57,0-1.1.1-1.59.3-.5.2-.97.51-1.43.93l-.58-1.26c.45-.42,1-.75,1.67-1,.67-.25,1.37-.38,2.12-.38,1.17,0,2.08.27,2.71.8s.95,1.3.95,2.29c0,.7-.17,1.38-.51,2.02-.34.65-.85,1.31-1.54,1.99l-3.34,3.38v-.45h5.86v1.39h-7.47Z"/>
            <path class="cls-2" d="m202.37,409.61l-.7-.54c.31-.33.52-.63.63-.91.11-.28.17-.57.17-.86l.35.35h-1.26v-1.9h1.9v1.3c0,.48-.08.93-.24,1.34-.16.41-.44.82-.85,1.24Z"/>
            <path class="cls-2" d="m209.36,407.78c-.49,0-.98-.05-1.46-.16-.48-.11-.93-.26-1.34-.46-.42-.2-.78-.43-1.09-.71l.58-1.26c.51.39,1.04.69,1.58.89.54.2,1.11.3,1.7.3.76,0,1.35-.2,1.78-.59s.65-.92.65-1.58-.21-1.23-.62-1.66c-.41-.42-.98-.63-1.7-.63-.5,0-.96.1-1.37.3-.41.2-.77.51-1.08.93h-1.15v-6.78h6.83v1.39h-5.25v4.06h-.42c.29-.41.67-.72,1.16-.94.49-.22,1.03-.34,1.64-.34.72,0,1.35.15,1.89.45s.95.71,1.24,1.25c.29.53.44,1.16.44,1.89s-.16,1.36-.49,1.91c-.33.55-.79.98-1.39,1.29s-1.31.46-2.14.46Z"/>
            <path class="cls-2" d="m219.55,411.1v-9.58c0-.31-.01-.63-.04-.95-.03-.33-.06-.65-.09-.98h1.57l.16,1.82h-.18c.17-.61.51-1.09,1.03-1.44.52-.35,1.13-.53,1.85-.53s1.34.17,1.87.5.95.81,1.24,1.43c.29.62.44,1.37.44,2.24s-.15,1.61-.44,2.24c-.29.63-.71,1.11-1.24,1.44-.53.33-1.16.5-1.87.5s-1.31-.17-1.83-.52-.86-.82-1.03-1.42h.18v5.25h-1.62Zm3.9-4.58c.7,0,1.27-.25,1.69-.74.42-.49.63-1.22.63-2.18s-.21-1.68-.63-2.17c-.42-.49-.98-.73-1.69-.73s-1.27.24-1.69.73c-.42.49-.63,1.21-.63,2.17s.21,1.69.63,2.18c.42.49.98.74,1.69.74Z"/>
            <path class="cls-2" d="m228.9,407.64v-1.9h1.9v1.9h-1.9Z"/>
            <path class="cls-2" d="m233.78,408.55h-1.36l4.19-12.91h1.36l-4.19,12.91Z"/>
            <path class="cls-2" d="m243.2,407.64v-11.28h7.81v1.31h-6.21v3.55h3.44c1.23,0,2.18.27,2.86.8.68.53,1.02,1.33,1.02,2.38s-.34,1.86-1.02,2.41c-.68.55-1.63.82-2.86.82h-5.04Zm1.6-1.31h3.26c.83,0,1.45-.16,1.84-.47s.59-.79.59-1.43-.2-1.12-.59-1.42c-.39-.31-1.01-.46-1.84-.46h-3.26v3.79Z"/>
            <path class="cls-2" d="m253.83,411.27l-.38-1.31c.5-.11.92-.23,1.26-.38s.62-.34.84-.58.42-.55.58-.92l.4-.94-.03.66-3.5-8.21h1.73l2.72,6.72h-.43l2.72-6.72h1.66l-3.7,8.64c-.24.53-.49.98-.75,1.34-.27.36-.55.66-.86.88-.31.22-.65.4-1.02.53s-.78.23-1.22.3Z"/>
            <path class="cls-2" d="m262.77,407.64v-8.06h1.34l2.91,5.15,2.91-5.15h1.34v8.06h-1.42v-6.26h.35l-2.8,4.96h-.77l-2.8-4.96h.35v6.26h-1.42Z"/>
            <path class="cls-2" d="m273.71,407.64v-8.06h5.81v1.3h-4.19v6.77h-1.62Z"/>
            <path class="cls-2" d="m284.15,407.78c-.71,0-1.34-.17-1.87-.5-.53-.33-.95-.81-1.24-1.44-.29-.63-.44-1.38-.44-2.24s.15-1.62.44-2.24c.29-.62.71-1.1,1.24-1.43s1.16-.5,1.87-.5,1.32.18,1.84.53c.52.35.87.83,1.04,1.44h-.18l.16-1.82h1.57c-.03.33-.06.66-.09.98s-.04.64-.04.95v6.13h-1.62v-1.79h.18c-.17.6-.52,1.07-1.05,1.42-.53.35-1.13.52-1.82.52Zm.4-1.26c.69,0,1.25-.25,1.67-.74.42-.49.63-1.22.63-2.18s-.21-1.68-.63-2.17c-.42-.49-.98-.73-1.67-.73s-1.27.24-1.69.73c-.42.49-.63,1.21-.63,2.17s.21,1.69.62,2.18c.42.49.98.74,1.7.74Z"/>
            <path class="cls-2" d="m294.08,407.78c-.71,0-1.34-.17-1.87-.5-.53-.33-.95-.81-1.24-1.44-.29-.63-.44-1.38-.44-2.24s.15-1.62.44-2.24c.29-.62.71-1.1,1.24-1.43s1.16-.5,1.87-.5,1.32.18,1.84.53c.52.35.87.83,1.04,1.44h-.18l.16-1.82h1.57c-.03.33-.06.66-.09.98s-.04.64-.04.95v6.13h-1.62v-1.79h.18c-.17.6-.52,1.07-1.05,1.42-.53.35-1.13.52-1.82.52Zm.4-1.26c.69,0,1.25-.25,1.67-.74.42-.49.63-1.22.63-2.18s-.21-1.68-.63-2.17c-.42-.49-.98-.73-1.67-.73s-1.27.24-1.69.73c-.42.49-.63,1.21-.63,2.17s.21,1.69.62,2.18c.42.49.98.74,1.7.74Z"/>
            <path class="cls-2" d="m304.8,407.85l-.54-1.28c.36-.15.67-.34.92-.57.25-.23.45-.52.59-.89.14-.36.25-.81.31-1.34.06-.53.1-1.18.1-1.94v-2.26h6.08v8.06h-1.6v-6.8h-2.99v1.04c0,1.22-.1,2.22-.29,3.02s-.5,1.43-.92,1.9c-.42.46-.97.81-1.66,1.05Z"/>
            <path class="cls-2" d="m318.48,407.78c-1.3,0-2.33-.37-3.07-1.1-.75-.74-1.12-1.75-1.12-3.06,0-.84.16-1.58.49-2.21.33-.63.78-1.12,1.36-1.46.58-.35,1.26-.52,2.02-.52s1.39.16,1.9.48c.51.32.9.77,1.17,1.35s.4,1.27.4,2.06v.51h-6.08v-.93h4.98l-.27.21c0-.8-.18-1.42-.54-1.86-.36-.44-.87-.66-1.54-.66-.75,0-1.32.26-1.73.78s-.61,1.23-.61,2.14v.16c0,.95.23,1.66.7,2.14.46.48,1.12.72,1.98.72.47,0,.91-.07,1.32-.2.41-.13.8-.35,1.18-.66l.53,1.1c-.37.33-.83.58-1.36.76s-1.1.26-1.7.26Zm-2.56-9.81v-1.58h1.58v1.58h-1.58Zm2.9,0v-1.58h1.58v1.58h-1.58Z"/>
            <path class="cls-2" d="m323.62,407.64v-8.06h1.6v3.28h4.08v-3.28h1.6v8.06h-1.6v-3.52h-4.08v3.52h-1.6Z"/>
            <path class="cls-2" d="m342.34,407.64v-2.34h-5.22v-1.18l5.49-7.76h1.34v7.65h1.68v1.3h-1.68v2.34h-1.62Zm0-3.63v-5.68h.37l-4.29,6.08v-.4h3.92Z"/>
            <path class="cls-2" d="m351.54,411.1v-9.58c0-.31-.01-.63-.04-.95-.03-.33-.06-.65-.09-.98h1.57l.16,1.82h-.18c.17-.61.51-1.09,1.03-1.44.52-.35,1.13-.53,1.85-.53s1.34.17,1.87.5.95.81,1.24,1.43c.29.62.44,1.37.44,2.24s-.15,1.61-.44,2.24c-.29.63-.71,1.11-1.24,1.44-.53.33-1.16.5-1.87.5s-1.31-.17-1.83-.52-.86-.82-1.03-1.42h.18v5.25h-1.62Zm3.9-4.58c.7,0,1.27-.25,1.69-.74.42-.49.63-1.22.63-2.18s-.21-1.68-.63-2.17c-.42-.49-.98-.73-1.69-.73s-1.27.24-1.69.73c-.42.49-.63,1.21-.63,2.17s.21,1.69.63,2.18c.42.49.98.74,1.69.74Z"/>
            <path class="cls-2" d="m360.88,407.64v-1.9h1.9v1.9h-1.9Z"/>
          </g>
          <text class="cls-1" transform="translate(424.4 119.84)"><tspan x="0" y="0">192-384 шт</tspan></text>
          <text class="cls-3" transform="translate(444.38 166.41)"><tspan x="0" y="0">8,50 </tspan><tspan class="cls-12" x="36.86" y="0">р</tspan><tspan class="cls-19" x="46.54" y="0">.</tspan></text>
          <text class="cls-3" transform="translate(451.08 213.15)"><tspan x="0" y="0">10 </tspan><tspan class="cls-12" x="23.47" y="0">р</tspan><tspan x="33.15" y="0">.</tspan></text>
          <text class="cls-3" transform="translate(455.88 257.89)"><tspan x="0" y="0">9 </tspan><tspan class="cls-12" x="13.87" y="0">р</tspan><tspan x="23.55" y="0">.</tspan></text>
          <text class="cls-3" transform="translate(444.38 304.45)"><tspan x="0" y="0">6,50 </tspan><tspan class="cls-12" x="36.86" y="0">р</tspan><tspan class="cls-19" x="46.54" y="0">.</tspan></text>
          <text class="cls-3" transform="translate(444.38 350.32)"><tspan x="0" y="0">5,50 </tspan><tspan class="cls-12" x="36.86" y="0">р</tspan><tspan class="cls-19" x="46.54" y="0">.</tspan></text>
          <text class="cls-1" transform="translate(612.44 119.84)"><tspan x="0" y="0">408-480 шт</tspan></text>
          <text class="cls-3" transform="translate(643.92 166.41)"><tspan x="0" y="0">8 </tspan><tspan class="cls-12" x="13.87" y="0">р</tspan><tspan x="23.55" y="0">.</tspan></text>
          <text class="cls-3" transform="translate(643.92 213.15)"><tspan x="0" y="0">9 </tspan><tspan class="cls-12" x="13.87" y="0">р</tspan><tspan x="23.55" y="0">.</tspan></text>
          <text class="cls-3" transform="translate(643.92 257.89)"><tspan x="0" y="0">8 </tspan><tspan class="cls-12" x="13.87" y="0">р</tspan><tspan x="23.55" y="0">.</tspan></text>
          <text class="cls-3" transform="translate(632.42 304.45)"><tspan x="0" y="0">5,50 </tspan><tspan class="cls-12" x="36.86" y="0">р</tspan><tspan class="cls-19" x="46.54" y="0">.</tspan></text>
          <text class="cls-3" transform="translate(632.42 350.32)"><tspan x="0" y="0">4,80 </tspan><tspan class="cls-12" x="36.86" y="0">р</tspan><tspan class="cls-19" x="46.54" y="0">.</tspan></text>
          <text class="cls-1" transform="translate(812.94 119.84)"><tspan x="0" y="0">&lt;504 шт</tspan></text>
          <text class="cls-3" transform="translate(831.31 166.41)"><tspan x="0" y="0">7 </tspan><tspan class="cls-12" x="13.87" y="0">р</tspan><tspan x="23.55" y="0">.</tspan></text>
          <text class="cls-3" transform="translate(831.31 213.15)"><tspan x="0" y="0">8 </tspan><tspan class="cls-12" x="13.87" y="0">р</tspan><tspan x="23.55" y="0">.</tspan></text>
          <text class="cls-3" transform="translate(831.31 257.89)"><tspan x="0" y="0">7 </tspan><tspan class="cls-12" x="13.87" y="0">р</tspan><tspan x="23.55" y="0">.</tspan></text>
          <text class="cls-3" transform="translate(819.82 304.45)"><tspan x="0" y="0">5,50 </tspan><tspan class="cls-12" x="36.86" y="0">р</tspan><tspan class="cls-19" x="46.54" y="0">.</tspan></text>
          <text class="cls-3" transform="translate(819.82 350.32)"><tspan x="0" y="0">4,50 </tspan><tspan class="cls-12" x="36.86" y="0">р</tspan><tspan class="cls-19" x="46.54" y="0">.</tspan></text>
          <text class="cls-1" transform="translate(81.09 166.41)"><tspan x="0" y="0">4+0</tspan></text>
          <text class="cls-1" transform="translate(81.09 257.89)"><tspan x="0" y="0">4+1</tspan></text>
          <text class="cls-1" transform="translate(81.09 213.15)"><tspan x="0" y="0">4+4</tspan></text>
          <text class="cls-1" transform="translate(81.09 304.45)"><tspan x="0" y="0">1+1</tspan></text>
          <text class="cls-1" transform="translate(81.09 350.32)"><tspan x="0" y="0">1+0</tspan></text>
        </g>
      </g>
    </g>
  </g>
</svg>