<?xml version="1.0" encoding="UTF-8"?>
<svg id="_Слой_2" data-name="Слой 2" xmlns="http://www.w3.org/2000/svg" viewBox="0 0 938.93 256.37">
  <defs>
    <style>
      .cls-1 {
        font-family: Mulish-Bold, Mulish;
        font-weight: 700;
      }

      .cls-1, .cls-2 {
        fill: #27625f;
        font-size: 16px;
      }

      .cls-3 {
        fill: #fff;
      }

      .cls-3, .cls-4 {
        stroke: #a0b6b5;
        stroke-miterlimit: 10;
      }

      .cls-5 {
        letter-spacing: 0em;
      }

      .cls-2 {
        font-family: Mulish-SemiBold, Mulish;
        font-weight: 600;
      }

      .cls-6 {
        letter-spacing: -.06em;
      }

      .cls-7 {
        letter-spacing: 0em;
      }

      .cls-8 {
        letter-spacing: .07em;
      }

      .cls-9 {
        letter-spacing: 0em;
      }

      .cls-10 {
        letter-spacing: 0em;
      }

      .cls-11 {
        letter-spacing: 0em;
      }

      .cls-12 {
        letter-spacing: -.01em;
      }

      .cls-13 {
        letter-spacing: 0em;
      }

      .cls-14 {
        letter-spacing: -.02em;
      }

      .cls-15 {
        letter-spacing: 0em;
      }

      .cls-16 {
        letter-spacing: -.02em;
      }

      .cls-17 {
        letter-spacing: -.01em;
      }

      .cls-18 {
        letter-spacing: -.01em;
      }

      .cls-4 {
        fill: none;
      }
    </style>
  </defs>
  <g id="_Слой_1-2" data-name="Слой 1">
    <g>
      <g>
        <rect class="cls-3" x=".5" y=".5" width="937.93" height="229.7" rx="10" ry="10"/>
        <line class="cls-4" x1=".5" y1="46.44" x2="938.43" y2="46.44"/>
        <line class="cls-4" x1=".5" y1="92.38" x2="938.43" y2="92.38"/>
        <line class="cls-4" x1="211.02" y1="46.44" x2="211.02" y2="230.2"/>
        <line class="cls-4" x1=".5" y1="46.44" x2="211.02" y2="92.38"/>
        <line class="cls-4" x1="314.93" y1="46.44" x2="314.93" y2="230.2"/>
        <line class="cls-4" x1="418.83" y1="46.44" x2="418.83" y2="230.2"/>
        <line class="cls-4" x1="522.73" y1="46.44" x2="522.73" y2="230.2"/>
        <line class="cls-4" x1="626.64" y1="46.44" x2="626.64" y2="230.2"/>
        <line class="cls-4" x1="730.54" y1="46.44" x2="730.54" y2="230.2"/>
        <line class="cls-4" x1=".5" y1="138.32" x2="938.43" y2="138.32"/>
        <line class="cls-4" x1="211.02" y1="184.26" x2="938.43" y2="184.26"/>
      </g>
      <g>
        <text class="cls-1" transform="translate(19.51 29.18)"><tspan class="cls-9" x="0" y="0">Х</tspan><tspan class="cls-17" x="10.61" y="0">о</tspan><tspan x="20.14" y="0">лсты</tspan></text>
        <text class="cls-1" transform="translate(12.43 81.79)"><tspan x="0" y="0">С</tspan><tspan class="cls-5" x="10.96" y="0">т</tspan><tspan x="18.62" y="0">оимость</tspan></text>
        <text class="cls-1" transform="translate(34.02 120.92)"><tspan class="cls-9" x="0" y="0">Х</tspan><tspan class="cls-17" x="10.61" y="0">о</tspan><tspan x="20.14" y="0">лст+подрамник</tspan></text>
        <text class="cls-1" transform="translate(141.44 68.41)"><tspan class="cls-18" x="0" y="0">Р</tspan><tspan class="cls-11" x="10.45" y="0">азмер</tspan></text>
        <text class="cls-1" transform="translate(238.67 74.63)"><tspan x="0" y="0">20х30</tspan></text>
        <text class="cls-2" transform="translate(239.1 120.92)"><tspan x="0" y="0">910 </tspan><tspan class="cls-16" x="33.07" y="0">р</tspan><tspan class="cls-13" x="42.75" y="0">.</tspan></text>
        <text class="cls-2" transform="translate(234.3 212.74)"><tspan x="0" y="0">2795 </tspan><tspan class="cls-14" x="42.67" y="0">р</tspan><tspan x="52.35" y="0">.</tspan></text>
        <text class="cls-1" transform="translate(238.67 168.26)"><tspan x="0" y="0">80х80</tspan></text>
        <text class="cls-1" transform="translate(342.49 74.63)"><tspan x="0" y="0">30х40</tspan></text>
        <text class="cls-2" transform="translate(338.12 120.92)"><tspan x="0" y="0">1100 </tspan><tspan class="cls-14" x="42.67" y="0">р</tspan><tspan x="52.35" y="0">.</tspan></text>
        <text class="cls-2" transform="translate(338.12 212.74)"><tspan x="0" y="0">2535 </tspan><tspan class="cls-14" x="42.67" y="0">р</tspan><tspan x="52.35" y="0">.</tspan></text>
        <text class="cls-1" transform="translate(342.49 168.26)"><tspan x="0" y="0">80х60</tspan></text>
        <text class="cls-1" transform="translate(446.76 74.63)"><tspan x="0" y="0">40х50</tspan></text>
        <text class="cls-2" transform="translate(442.39 120.92)"><tspan x="0" y="0">1430 </tspan><tspan class="cls-14" x="42.67" y="0">р</tspan><tspan x="52.35" y="0">.</tspan></text>
        <text class="cls-2" transform="translate(442.39 212.74)"><tspan x="0" y="0">1100 </tspan><tspan class="cls-14" x="42.67" y="0">р</tspan><tspan x="52.35" y="0">.</tspan></text>
        <text class="cls-1" transform="translate(446.76 168.26)"><tspan x="0" y="0">30х30</tspan></text>
        <text class="cls-1" transform="translate(550.5 74.63)"><tspan x="0" y="0">50х70</tspan></text>
        <text class="cls-2" transform="translate(546.13 120.92)"><tspan x="0" y="0">1950 </tspan><tspan class="cls-14" x="42.67" y="0">р</tspan><tspan x="52.35" y="0">.</tspan></text>
        <text class="cls-2" transform="translate(546.13 212.74)"><tspan x="0" y="0">1625 </tspan><tspan class="cls-14" x="42.67" y="0">р</tspan><tspan x="52.35" y="0">.</tspan></text>
        <text class="cls-2" transform="translate(19.51 252)"><tspan class="cls-12" x="0" y="0">Р</tspan><tspan class="cls-11" x="10.34" y="0">азмер х размер х 1800</tspan><tspan class="cls-14" x="189.52" y="0">р</tspan><tspan x="199.2" y="0">. (печать без </tspan><tspan class="cls-7" x="301.93" y="0">р</tspan><tspan x="311.71" y="0">лдрамника)</tspan></text>
        <text class="cls-1" transform="translate(550.5 168.26)"><tspan x="0" y="0">40х60</tspan></text>
        <text class="cls-1" transform="translate(648.96 74.63)"><tspan x="0" y="0">80х100</tspan></text>
        <text class="cls-2" transform="translate(649.39 120.92)"><tspan x="0" y="0">3120 </tspan><tspan class="cls-14" x="42.67" y="0">р</tspan><tspan x="52.35" y="0">.</tspan></text>
        <text class="cls-2" transform="translate(649.39 212.74)"><tspan x="0" y="0">2730 </tspan><tspan class="cls-14" x="42.67" y="0">р</tspan><tspan x="52.35" y="0">.</tspan></text>
        <text class="cls-1" transform="translate(653.76 168.26)"><tspan x="0" y="0">60х90</tspan></text>
        <text class="cls-1" transform="translate(764.71 74.63)"><tspan x="0" y="0">Печать на </tspan><tspan class="cls-7" x="86.4" y="0">хо</tspan><tspan x="104.78" y="0">лс</tspan><tspan class="cls-10" x="122.81" y="0">т</tspan><tspan class="cls-13" x="130.48" y="0">е</tspan></text>
        <text class="cls-2" transform="translate(806.37 212.74)"><tspan x="0" y="0">1885 </tspan><tspan class="cls-14" x="42.67" y="0">р</tspan><tspan x="52.35" y="0">.</tspan></text>
        <text class="cls-1" transform="translate(810.74 168.26)"><tspan x="0" y="0">60х60</tspan></text>
        <text class="cls-2" transform="translate(795.65 120.92)"><tspan x="0" y="0">1800 </tspan><tspan class="cls-14" x="42.67" y="0">р</tspan><tspan class="cls-8" x="52.35" y="0">.</tspan><tspan class="cls-6" x="57.2" y="0">/</tspan><tspan class="cls-15" x="61.04" y="0">м</tspan></text>
        <text class="cls-2" transform="translate(867.64 115.59) scale(.58)"><tspan x="0" y="0">2</tspan></text>
      </g>
    </g>
  </g>
</svg>