<?xml version="1.0" encoding="UTF-8"?>
<svg id="_Слой_2" data-name="Слой 2" xmlns="http://www.w3.org/2000/svg" viewBox="0 0 938.93 255.46">
  <defs>
    <style>
      .cls-1 {
        fill: #fff;
      }

      .cls-1, .cls-2 {
        stroke: #a0b6b5;
        stroke-miterlimit: 10;
      }

      .cls-3 {
        fill: #27625f;
        stroke-width: 0px;
      }

      .cls-2 {
        fill: none;
      }
    </style>
  </defs>
  <g id="_Слой_1-2" data-name="Слой 1">
    <g>
      <g>
        <rect class="cls-1" x=".5" y=".5" width="937.93" height="229.7" rx="10" ry="10"/>
        <line class="cls-2" x1=".5" y1="46.44" x2="938.43" y2="46.44"/>
        <line class="cls-2" x1=".5" y1="92.38" x2="938.43" y2="92.38"/>
        <line class="cls-2" x1="211.02" y1="46.44" x2="211.02" y2="230.2"/>
        <line class="cls-2" x1=".5" y1="46.44" x2="211.02" y2="92.38"/>
        <line class="cls-2" x1="314.93" y1="46.44" x2="314.93" y2="230.2"/>
        <line class="cls-2" x1="418.83" y1="46.44" x2="418.83" y2="230.2"/>
        <line class="cls-2" x1="522.73" y1="46.44" x2="522.73" y2="230.2"/>
        <line class="cls-2" x1="626.64" y1="46.44" x2="626.64" y2="230.2"/>
        <line class="cls-2" x1="730.54" y1="46.44" x2="730.54" y2="230.2"/>
        <line class="cls-2" x1=".5" y1="138.32" x2="938.43" y2="138.32"/>
        <line class="cls-2" x1="211.02" y1="184.26" x2="938.43" y2="184.26"/>
      </g>
      <g>
        <g>
          <path class="cls-3" d="m19.38,29.18l4.64-6.18v.88l-4.48-5.98h2.42l3.25,4.5h-.66l3.23-4.5h2.43l-4.5,5.98v-.88l4.66,6.18h-2.43l-3.42-4.7h.7l-3.42,4.7h-2.42Z"/>
          <path class="cls-3" d="m34.97,29.34c-.83,0-1.55-.17-2.16-.51-.61-.34-1.08-.83-1.42-1.46-.34-.63-.5-1.38-.5-2.24s.17-1.61.5-2.23c.34-.62.81-1.11,1.42-1.45.61-.34,1.33-.51,2.16-.51s1.55.17,2.17.51c.61.34,1.09.82,1.43,1.45.34.62.5,1.37.5,2.23s-.17,1.61-.5,2.24c-.34.63-.81,1.12-1.43,1.46-.61.34-1.34.51-2.17.51Zm0-1.54c.63,0,1.13-.22,1.5-.66.38-.44.56-1.11.56-2.01s-.19-1.56-.56-2c-.37-.44-.87-.66-1.5-.66s-1.13.22-1.5.66-.56,1.1-.56,2,.19,1.57.56,2.01.88.66,1.5.66Z"/>
          <path class="cls-3" d="m40.58,29.4l-.62-1.57c.35-.13.65-.3.89-.5.24-.21.43-.47.58-.8.14-.32.25-.73.31-1.21.06-.49.1-1.06.1-1.74v-2.48h6.43v8.08h-1.98v-6.54h-2.62v1.01c0,1.16-.11,2.14-.32,2.92-.21.78-.54,1.41-.99,1.86-.45.46-1.04.78-1.76.98Z"/>
          <path class="cls-3" d="m54.31,29.34c-.83,0-1.56-.17-2.18-.51-.62-.34-1.11-.83-1.45-1.46-.34-.63-.51-1.39-.51-2.26s.17-1.62.52-2.24c.35-.62.83-1.09,1.45-1.42.62-.33,1.34-.5,2.18-.5.53,0,1.05.08,1.56.25.51.17.92.4,1.24.71l-.61,1.39c-.29-.27-.61-.47-.97-.6-.36-.13-.71-.2-1.05-.2-.71,0-1.27.22-1.67.67-.4.45-.6,1.1-.6,1.95s.2,1.51.6,1.97.96.69,1.67.69c.33,0,.67-.06,1.03-.19.36-.13.69-.33.98-.59l.61,1.38c-.33.31-.75.55-1.26.72-.51.17-1.02.26-1.54.26Z"/>
          <path class="cls-3" d="m60.57,29.18v-6.51h-2.77v-1.57h7.54v1.57h-2.78v6.51h-1.98Z"/>
          <path class="cls-3" d="m66.57,29.18v-8.08h1.98v2.7h2.13c1.08,0,1.89.23,2.43.68.54.45.82,1.11.82,1.96,0,.55-.13,1.04-.38,1.45s-.63.73-1.11.95-1.07.34-1.75.34h-4.11Zm1.98-1.31h1.86c.54,0,.96-.11,1.25-.34.29-.23.43-.58.43-1.05s-.14-.81-.42-1.03c-.28-.22-.7-.33-1.26-.33h-1.86v2.75Zm6.38,1.31v-8.08h1.98v8.08h-1.98Z"/>
        </g>
        <g>
          <path class="cls-3" d="m18.93,81.95c-1.17,0-2.18-.24-3.02-.71s-1.48-1.15-1.93-2.02c-.45-.87-.67-1.9-.67-3.08s.22-2.21.67-3.07c.45-.86,1.09-1.53,1.93-2.01s1.84-.71,3.02-.71c.79,0,1.5.11,2.14.34.63.22,1.18.55,1.64.99l-.67,1.63c-.5-.41-.98-.7-1.45-.87-.46-.18-.99-.26-1.59-.26-1.14,0-2.01.34-2.62,1.03s-.9,1.67-.9,2.94.3,2.25.9,2.94,1.47,1.04,2.62,1.04c.6,0,1.13-.09,1.59-.26.46-.18.95-.47,1.45-.89l.67,1.63c-.46.43-1.01.76-1.64.99s-1.35.35-2.14.35Z"/>
          <path class="cls-3" d="m26.27,81.79v-6.51h-2.77v-1.57h7.54v1.57h-2.78v6.51h-1.98Z"/>
          <path class="cls-3" d="m35.9,81.95c-.83,0-1.55-.17-2.16-.51-.61-.34-1.08-.83-1.42-1.46s-.5-1.38-.5-2.24.17-1.61.5-2.23c.34-.62.81-1.11,1.42-1.45.61-.34,1.33-.51,2.16-.51s1.55.17,2.17.51c.61.34,1.09.82,1.42,1.45.34.62.5,1.37.5,2.23s-.17,1.61-.5,2.24-.81,1.11-1.42,1.46c-.61.34-1.34.51-2.17.51Zm0-1.54c.63,0,1.13-.22,1.5-.66.37-.44.56-1.11.56-2.01s-.19-1.56-.56-2c-.37-.44-.88-.66-1.5-.66s-1.13.22-1.5.66c-.37.44-.56,1.1-.56,2s.19,1.57.56,2.01c.37.44.87.66,1.5.66Z"/>
          <path class="cls-3" d="m41.89,81.79v-8.08h1.81v6.11h-.48l4.59-6.11h1.65v8.08h-1.81v-6.13h.5l-4.61,6.13h-1.65Z"/>
          <path class="cls-3" d="m51.73,81.79v-8.08h1.66l2.78,4.83,2.78-4.83h1.66v8.08h-1.76v-5.84h.37l-2.59,4.53h-.93l-2.59-4.53h.37v5.84h-1.76Z"/>
          <path class="cls-3" d="m66.61,81.95c-.83,0-1.55-.17-2.16-.51-.61-.34-1.08-.83-1.42-1.46s-.5-1.38-.5-2.24.17-1.61.5-2.23c.34-.62.81-1.11,1.42-1.45.61-.34,1.33-.51,2.16-.51s1.55.17,2.17.51c.61.34,1.09.82,1.42,1.45.34.62.5,1.37.5,2.23s-.17,1.61-.5,2.24c-.34.63-.81,1.11-1.42,1.46-.61.34-1.33.51-2.17.51Zm0-1.54c.63,0,1.13-.22,1.5-.66.37-.44.56-1.11.56-2.01s-.19-1.56-.56-2c-.37-.44-.87-.66-1.5-.66s-1.13.22-1.5.66c-.37.44-.56,1.1-.56,2s.19,1.57.56,2.01c.37.44.87.66,1.5.66Z"/>
          <path class="cls-3" d="m76.37,81.95c-.83,0-1.56-.17-2.18-.51-.62-.34-1.11-.83-1.45-1.46-.34-.63-.51-1.39-.51-2.26s.17-1.62.52-2.24c.35-.62.83-1.09,1.45-1.42.62-.33,1.34-.5,2.18-.5.53,0,1.05.08,1.56.25s.92.4,1.24.71l-.61,1.39c-.29-.27-.61-.47-.97-.6-.36-.13-.71-.2-1.05-.2-.71,0-1.27.22-1.67.67-.4.45-.6,1.1-.6,1.95s.2,1.51.6,1.97c.4.46.96.69,1.67.69.33,0,.67-.06,1.03-.19.36-.13.69-.32.98-.59l.61,1.38c-.33.31-.75.55-1.26.72-.51.17-1.02.26-1.54.26Z"/>
          <path class="cls-3" d="m82.62,81.79v-6.51h-2.77v-1.57h7.54v1.57h-2.78v6.51h-1.98Z"/>
          <path class="cls-3" d="m88.62,81.79v-8.08h1.98v2.7h2.13c1.08,0,1.89.23,2.43.68s.82,1.11.82,1.96c0,.55-.13,1.04-.38,1.45s-.63.73-1.11.95-1.07.34-1.75.34h-4.11Zm1.98-1.31h1.86c.54,0,.96-.12,1.25-.34.29-.23.43-.58.43-1.05s-.14-.81-.42-1.03c-.28-.22-.7-.33-1.26-.33h-1.86v2.75Z"/>
        </g>
        <g>
          <path class="cls-3" d="m33.89,120.92l4.64-6.18v.88l-4.48-5.98h2.42l3.25,4.5h-.66l3.23-4.5h2.43l-4.5,5.98v-.88l4.66,6.18h-2.43l-3.42-4.7h.7l-3.42,4.7h-2.42Z"/>
          <path class="cls-3" d="m49.47,121.08c-.83,0-1.55-.17-2.16-.51-.61-.34-1.08-.83-1.42-1.46-.34-.63-.5-1.38-.5-2.24s.17-1.61.5-2.23c.34-.62.81-1.11,1.42-1.45.61-.34,1.33-.51,2.16-.51s1.55.17,2.17.51c.61.34,1.09.82,1.42,1.45.34.62.5,1.37.5,2.23s-.17,1.61-.5,2.24c-.34.63-.81,1.12-1.42,1.46-.61.34-1.34.51-2.17.51Zm0-1.54c.63,0,1.13-.22,1.5-.66.37-.44.56-1.11.56-2.01s-.19-1.56-.56-2c-.37-.44-.88-.66-1.5-.66s-1.13.22-1.5.66c-.37.44-.56,1.1-.56,2s.19,1.57.56,2.01c.37.44.87.66,1.5.66Z"/>
          <path class="cls-3" d="m55.09,121.14l-.62-1.57c.35-.13.65-.3.89-.5.24-.21.43-.47.58-.8.14-.32.25-.73.31-1.21.06-.49.1-1.06.1-1.74v-2.48h6.43v8.08h-1.98v-6.54h-2.62v1.01c0,1.16-.11,2.14-.32,2.92-.21.78-.54,1.41-.99,1.86-.45.46-1.03.78-1.76.98Z"/>
          <path class="cls-3" d="m68.82,121.08c-.83,0-1.56-.17-2.18-.51-.62-.34-1.11-.83-1.45-1.46s-.51-1.39-.51-2.26.17-1.62.52-2.24c.35-.62.83-1.09,1.45-1.42.62-.33,1.34-.5,2.18-.5.53,0,1.05.08,1.56.25.51.17.92.4,1.24.71l-.61,1.39c-.29-.27-.61-.47-.97-.6-.36-.13-.71-.2-1.05-.2-.71,0-1.27.22-1.67.67-.4.45-.6,1.1-.6,1.95s.2,1.51.6,1.97.96.69,1.67.69c.33,0,.67-.06,1.03-.19.36-.13.69-.33.98-.59l.61,1.38c-.33.31-.75.55-1.26.72-.51.17-1.02.26-1.54.26Z"/>
          <path class="cls-3" d="m75.07,120.92v-6.51h-2.77v-1.57h7.54v1.57h-2.78v6.51h-1.98Z"/>
          <path class="cls-3" d="m84.02,120.29v-3.26h-3.22v-1.41h3.22v-3.18h1.46v3.18h3.2v1.41h-3.2v3.26h-1.46Z"/>
          <path class="cls-3" d="m90.67,120.92v-8.08h7.57v8.08h-1.98v-6.54h-3.6v6.54h-1.98Z"/>
          <path class="cls-3" d="m104.23,121.08c-.83,0-1.55-.17-2.16-.51-.61-.34-1.08-.83-1.42-1.46-.34-.63-.5-1.38-.5-2.24s.17-1.61.5-2.23c.34-.62.81-1.11,1.42-1.45.61-.34,1.33-.51,2.16-.51s1.55.17,2.17.51c.61.34,1.09.82,1.42,1.45.34.62.5,1.37.5,2.23s-.17,1.61-.5,2.24c-.34.63-.81,1.12-1.42,1.46-.61.34-1.34.51-2.17.51Zm0-1.54c.63,0,1.13-.22,1.5-.66.37-.44.56-1.11.56-2.01s-.19-1.56-.56-2c-.37-.44-.88-.66-1.5-.66s-1.13.22-1.5.66c-.37.44-.56,1.1-.56,2s.19,1.57.56,2.01c.37.44.87.66,1.5.66Z"/>
          <path class="cls-3" d="m109.49,123v-3.6h.93c.32-.5.55-1.09.7-1.77.14-.68.22-1.51.22-2.49v-2.3h6.22v6.56h1.31v3.6h-1.7v-2.08h-5.98v2.08h-1.7Zm2.72-3.58h3.47v-5.07h-2.66v1.25c0,.71-.07,1.41-.21,2.1-.14.68-.34,1.26-.61,1.73Z"/>
          <path class="cls-3" d="m120.4,124.37v-9.52c0-.33-.01-.67-.03-1.01-.02-.34-.05-.68-.1-1.01h1.94l.18,1.7h-.18c.16-.57.5-1.02,1.02-1.35.52-.34,1.12-.5,1.8-.5s1.34.17,1.87.5c.53.34.95.82,1.25,1.44.3.62.45,1.37.45,2.25s-.15,1.63-.45,2.26c-.3.63-.71,1.11-1.25,1.45-.53.34-1.16.5-1.87.5-.67,0-1.26-.17-1.78-.5s-.85-.77-1.02-1.33h.18v5.12h-2Zm4.06-4.83c.64,0,1.15-.22,1.54-.66s.58-1.11.58-2.01-.19-1.56-.58-2-.9-.66-1.54-.66-1.14.22-1.52.66-.58,1.1-.58,2,.19,1.57.58,2.01.89.66,1.52.66Z"/>
          <path class="cls-3" d="m133.66,121.08c-.7,0-1.32-.17-1.86-.5s-.95-.82-1.25-1.45-.45-1.38-.45-2.26.15-1.62.45-2.25.71-1.1,1.25-1.44,1.15-.5,1.86-.5,1.28.17,1.8.5.86.79,1.03,1.35h-.18l.18-1.7h1.92c-.03.33-.06.67-.09,1.01-.03.34-.04.68-.04,1.01v6.06h-1.98l-.02-1.66h.19c-.17.55-.52,1-1.04,1.33s-1.11.5-1.78.5Zm.56-1.54c.63,0,1.14-.22,1.52-.66.38-.44.58-1.11.58-2.01s-.19-1.56-.58-2c-.38-.44-.89-.66-1.52-.66s-1.14.22-1.52.66c-.38.44-.58,1.1-.58,2s.19,1.57.57,2.01c.38.44.89.66,1.53.66Z"/>
          <path class="cls-3" d="m140.62,120.92v-8.08h1.66l2.78,4.83,2.78-4.83h1.66v8.08h-1.76v-5.84h.37l-2.59,4.53h-.93l-2.59-4.53h.37v5.84h-1.76Z"/>
          <path class="cls-3" d="m151.79,120.92v-8.08h1.98v3.17h3.65v-3.17h1.98v8.08h-1.98v-3.38h-3.65v3.38h-1.98Z"/>
          <path class="cls-3" d="m161.68,120.92v-8.08h1.81v6.11h-.48l4.59-6.11h1.65v8.08h-1.81v-6.13h.5l-4.61,6.13h-1.65Z"/>
          <path class="cls-3" d="m171.52,120.92v-8.08h1.98v3.17h1.22l2.37-3.17h2.14l-2.98,4.03-.43-.62c.3.03.56.11.79.24.23.13.45.31.66.54.21.23.41.52.62.87l1.7,3.02h-2.13l-1.38-2.43c-.14-.25-.28-.44-.42-.58s-.29-.23-.46-.29c-.17-.05-.38-.08-.62-.08h-1.07v3.38h-1.98Z"/>
        </g>
        <g>
          <path class="cls-3" d="m142.68,68.41v-11.28h5.01c1.24,0,2.18.3,2.83.9.65.6.98,1.42.98,2.46s-.33,1.86-.98,2.46c-.65.61-1.59.91-2.83.91h-2.94v4.54h-2.06Zm2.06-6.18h2.7c.68,0,1.19-.15,1.54-.46.34-.3.51-.73.51-1.29s-.17-.98-.51-1.29c-.34-.3-.85-.46-1.54-.46h-2.7v3.49Z"/>
          <path class="cls-3" d="m156.2,68.57c-.7,0-1.32-.17-1.86-.5s-.95-.82-1.25-1.45c-.3-.63-.45-1.38-.45-2.26s.15-1.62.45-2.25c.3-.62.71-1.1,1.25-1.44s1.15-.5,1.86-.5,1.28.17,1.8.5.86.79,1.03,1.35h-.18l.18-1.7h1.92c-.03.33-.06.67-.09,1.01-.03.34-.04.68-.04,1.01v6.06h-1.98l-.02-1.66h.19c-.17.55-.52,1-1.04,1.33-.52.33-1.12.5-1.78.5Zm.56-1.54c.63,0,1.14-.22,1.52-.66.38-.44.58-1.11.58-2.01s-.19-1.56-.58-2-.89-.66-1.52-.66-1.14.22-1.52.66-.58,1.1-.58,2,.19,1.56.57,2.01c.38.44.89.66,1.53.66Z"/>
          <path class="cls-3" d="m166.14,68.57c-.73,0-1.41-.08-2.04-.26-.63-.17-1.17-.42-1.59-.74l.56-1.31c.39.29.86.51,1.38.66.53.15,1.09.22,1.67.22.68,0,1.18-.09,1.5-.28.32-.19.47-.46.47-.82,0-.34-.12-.6-.37-.78-.25-.18-.61-.26-1.09-.26h-2.1v-1.38h1.9c.44,0,.77-.09,1.01-.26.24-.17.35-.41.35-.72,0-.33-.14-.59-.42-.78-.28-.19-.74-.29-1.38-.29-.55,0-1.06.07-1.52.2-.46.13-.89.33-1.3.58l-.54-1.25c.44-.31.97-.54,1.59-.71s1.3-.24,2.04-.24c1.08,0,1.9.2,2.48.59.58.39.86.95.86,1.68,0,.49-.17.91-.5,1.26-.34.35-.79.57-1.35.66v-.22c.66.04,1.18.24,1.57.59.38.35.58.83.58,1.42,0,.74-.33,1.32-.98,1.76-.65.44-1.58.66-2.78.66Z"/>
          <path class="cls-3" d="m171.64,68.41v-8.08h1.66l2.78,4.83,2.78-4.83h1.66v8.08h-1.76v-5.84h.37l-2.59,4.53h-.93l-2.59-4.53h.37v5.84h-1.76Z"/>
          <path class="cls-3" d="m186.78,68.57c-1.36,0-2.42-.37-3.18-1.12-.77-.75-1.15-1.77-1.15-3.07,0-.84.17-1.58.5-2.21.33-.63.79-1.12,1.38-1.47.59-.35,1.28-.53,2.07-.53s1.43.17,1.95.5c.52.33.92.79,1.19,1.39s.41,1.3.41,2.1v.53h-5.89v-1.06h4.46l-.27.22c0-.75-.16-1.32-.47-1.71s-.77-.59-1.37-.59c-.66,0-1.17.23-1.53.7-.36.47-.54,1.13-.54,1.97v.21c0,.87.22,1.53.65,1.96.43.43,1.04.65,1.83.65.46,0,.89-.06,1.29-.18.4-.12.78-.32,1.14-.6l.59,1.34c-.38.31-.84.55-1.38.72-.53.17-1.1.26-1.7.26Z"/>
          <path class="cls-3" d="m191.87,71.87v-9.52c0-.33-.01-.67-.03-1.01s-.05-.68-.1-1.01h1.94l.18,1.7h-.18c.16-.57.5-1.02,1.02-1.35.52-.34,1.12-.5,1.8-.5s1.34.17,1.87.5c.53.34.95.82,1.25,1.44.3.62.45,1.37.45,2.25s-.15,1.63-.45,2.26c-.3.63-.71,1.11-1.25,1.45-.53.34-1.16.5-1.87.5-.67,0-1.26-.17-1.78-.5-.51-.33-.85-.77-1.02-1.33h.18v5.12h-2Zm4.06-4.83c.64,0,1.15-.22,1.54-.66.38-.44.58-1.11.58-2.01s-.19-1.56-.58-2-.9-.66-1.54-.66-1.14.22-1.52.66-.58,1.1-.58,2,.19,1.56.58,2.01c.38.44.89.66,1.52.66Z"/>
        </g>
        <g>
          <path class="cls-3" d="m239.91,74.63v-1.52l3.74-3.9c.47-.49.82-.95,1.04-1.36.22-.42.34-.84.34-1.28,0-.54-.17-.96-.51-1.23s-.84-.42-1.49-.42c-.52,0-1.02.09-1.5.28-.48.19-.95.48-1.41.87l-.67-1.54c.46-.41,1.03-.73,1.7-.98.68-.25,1.39-.37,2.14-.37,1.21,0,2.15.27,2.8.82.65.54.98,1.32.98,2.34,0,.71-.17,1.37-.5,2.01s-.84,1.3-1.54,1.99l-3.12,3.12v-.54h5.6v1.71h-7.6Z"/>
          <path class="cls-3" d="m253.07,74.79c-1.32,0-2.34-.5-3.06-1.51-.71-1.01-1.07-2.45-1.07-4.31s.36-3.32,1.07-4.3c.71-.98,1.73-1.47,3.06-1.47s2.35.49,3.06,1.47c.71.98,1.06,2.41,1.06,4.29s-.36,3.32-1.06,4.33c-.71,1.01-1.73,1.51-3.06,1.51Zm0-1.7c.73,0,1.26-.33,1.62-1,.35-.67.53-1.71.53-3.14s-.18-2.47-.53-3.11c-.35-.64-.89-.97-1.62-.97s-1.25.32-1.61.97c-.36.65-.54,1.68-.54,3.11s.18,2.48.54,3.14c.36.67.89,1,1.61,1Z"/>
          <path class="cls-3" d="m257.82,74.63l3.76-4.62v.91l-3.55-4.37h2.37l2.32,2.99h-.72l2.32-2.99h2.35l-3.52,4.37v-.91l3.74,4.62h-2.38l-2.51-3.22h.72l-2.53,3.22h-2.37Z"/>
          <path class="cls-3" d="m271.5,74.79c-.78,0-1.53-.12-2.24-.34s-1.3-.55-1.76-.95l.67-1.55c.5.38,1.02.67,1.56.85.54.18,1.11.27,1.7.27.73,0,1.28-.14,1.65-.43.37-.29.56-.71.56-1.26s-.18-.94-.55-1.21c-.37-.27-.9-.41-1.61-.41h-1.82v-1.65h1.65c.61,0,1.09-.15,1.46-.45.36-.3.54-.71.54-1.23,0-.49-.17-.86-.5-1.12-.34-.26-.82-.38-1.45-.38-1.13,0-2.13.38-2.99,1.15l-.67-1.54c.46-.43,1.03-.76,1.71-.99.68-.23,1.39-.35,2.13-.35,1.17,0,2.09.26,2.76.79s1,1.26,1,2.2c0,.67-.19,1.25-.57,1.74-.38.49-.9.81-1.56.97v-.19c.78.13,1.38.45,1.82.95.43.51.65,1.14.65,1.9,0,1-.37,1.79-1.1,2.38-.74.58-1.74.87-3.02.87Z"/>
          <path class="cls-3" d="m281.27,74.79c-1.32,0-2.34-.5-3.06-1.51s-1.07-2.45-1.07-4.31.36-3.32,1.07-4.3c.71-.98,1.73-1.47,3.06-1.47s2.35.49,3.06,1.47c.71.98,1.06,2.41,1.06,4.29s-.35,3.32-1.06,4.33c-.71,1.01-1.73,1.51-3.06,1.51Zm0-1.7c.73,0,1.26-.33,1.62-1,.35-.67.53-1.71.53-3.14s-.18-2.47-.53-3.11c-.35-.64-.89-.97-1.62-.97s-1.25.32-1.61.97c-.36.65-.54,1.68-.54,3.11s.18,2.48.54,3.14c.36.67.89,1,1.61,1Z"/>
        </g>
        <g>
          <path class="cls-3" d="m243.1,121.06c-.6,0-1.19-.12-1.79-.36-.6-.24-1.1-.56-1.5-.95l.59-1.26c.39.38.83.67,1.3.87.47.2.94.3,1.42.3,1.02,0,1.81-.36,2.36-1.08.55-.72.82-1.79.82-3.22v-1.36h.16c-.06.57-.25,1.06-.54,1.49-.3.43-.67.75-1.13.98-.45.22-.96.34-1.53.34-.66,0-1.26-.16-1.78-.46-.53-.31-.94-.74-1.23-1.28s-.44-1.16-.44-1.84c0-.73.16-1.37.48-1.93.32-.56.76-1,1.31-1.31.55-.31,1.19-.47,1.92-.47,1.41,0,2.49.48,3.24,1.45.75.97,1.13,2.33,1.13,4.09,0,1.29-.19,2.38-.57,3.28-.38.9-.93,1.58-1.64,2.05-.71.47-1.57.71-2.58.71Zm.53-5.63c.45,0,.84-.1,1.18-.29.34-.19.61-.46.8-.81.19-.35.29-.74.29-1.19s-.1-.86-.29-1.21c-.19-.35-.46-.62-.8-.82s-.74-.3-1.18-.3-.84.1-1.18.3-.6.47-.79.82c-.19.35-.29.75-.29,1.21s.1.84.29,1.19c.19.35.46.62.79.81.34.19.73.29,1.18.29Z"/>
          <path class="cls-3" d="m250.62,120.92v-1.39h2.62v-8.48h.83l-3.2,1.95v-1.6l2.83-1.76h1.2v9.89h2.46v1.39h-6.75Z"/>
          <path class="cls-3" d="m263.1,121.06c-1.3,0-2.3-.5-3-1.5-.7-1-1.05-2.43-1.05-4.3s.35-3.34,1.05-4.31c.7-.98,1.7-1.46,3-1.46s2.31.49,3.01,1.46c.69.98,1.04,2.41,1.04,4.3s-.35,3.31-1.05,4.31c-.7,1-1.7,1.5-3,1.5Zm0-1.39c.82,0,1.43-.36,1.83-1.07.4-.71.6-1.83.6-3.34s-.2-2.64-.6-3.34c-.4-.7-1.01-1.05-1.83-1.05s-1.42.35-1.82,1.05-.61,1.81-.61,3.32.21,2.64.62,3.36,1.02,1.07,1.82,1.07Z"/>
          <path class="cls-3" d="m273.45,124.37v-9.58c0-.31-.01-.63-.04-.95-.03-.33-.06-.65-.09-.98h1.57l.16,1.82h-.18c.17-.61.51-1.09,1.03-1.44.52-.35,1.13-.53,1.85-.53s1.34.17,1.87.5.95.81,1.24,1.43c.29.62.44,1.37.44,2.24s-.15,1.61-.44,2.24c-.29.63-.71,1.11-1.24,1.44-.53.33-1.16.5-1.87.5s-1.31-.17-1.83-.52-.86-.82-1.03-1.42h.18v5.25h-1.62Zm3.9-4.58c.7,0,1.27-.25,1.69-.74.42-.49.63-1.22.63-2.18s-.21-1.68-.63-2.17c-.42-.49-.98-.73-1.69-.73s-1.27.24-1.69.73c-.42.49-.63,1.21-.63,2.17s.21,1.69.63,2.18c.42.49.98.74,1.69.74Z"/>
          <path class="cls-3" d="m282.79,120.92v-1.9h1.9v1.9h-1.9Z"/>
        </g>
        <g>
          <path class="cls-3" d="m235.63,212.74v-1.23l3.87-4.05c.5-.52.88-1.01,1.12-1.47.25-.46.37-.93.37-1.42,0-.61-.19-1.07-.57-1.38-.38-.31-.93-.46-1.64-.46-.57,0-1.1.1-1.59.3-.5.2-.97.51-1.43.93l-.58-1.26c.45-.42,1.01-.75,1.67-1,.67-.25,1.37-.38,2.12-.38,1.17,0,2.08.27,2.71.8.63.53.95,1.3.95,2.29,0,.7-.17,1.38-.51,2.02-.34.65-.85,1.31-1.54,1.99l-3.34,3.38v-.45h5.86v1.39h-7.47Z"/>
          <path class="cls-3" d="m245.5,212.74l5.54-10.51v.64h-6.18v-1.41h7.68v1.23l-5.22,10.05h-1.82Z"/>
          <path class="cls-3" d="m257.5,212.89c-.6,0-1.2-.12-1.79-.36-.6-.24-1.1-.56-1.5-.95l.59-1.26c.39.38.83.67,1.3.87s.94.3,1.42.3c1.02,0,1.81-.36,2.36-1.08s.82-1.79.82-3.22v-1.36h.16c-.06.57-.25,1.06-.54,1.49-.3.43-.68.75-1.13.98-.45.22-.96.34-1.53.34-.66,0-1.26-.15-1.78-.46-.53-.31-.94-.74-1.23-1.28-.29-.54-.44-1.16-.44-1.84,0-.72.16-1.37.48-1.93s.76-1,1.31-1.31c.55-.31,1.19-.47,1.92-.47,1.41,0,2.49.48,3.24,1.45s1.13,2.33,1.13,4.09c0,1.29-.19,2.38-.57,3.28-.38.9-.92,1.58-1.64,2.05-.71.47-1.57.7-2.58.7Zm.53-5.63c.45,0,.84-.1,1.18-.29s.61-.46.8-.81c.19-.35.29-.74.29-1.19s-.1-.86-.29-1.21c-.19-.35-.46-.62-.8-.82s-.74-.3-1.18-.3-.84.1-1.18.3-.6.47-.79.82c-.19.35-.29.75-.29,1.21s.1.84.29,1.19c.19.35.46.62.79.81s.73.29,1.18.29Z"/>
          <path class="cls-3" d="m268.06,212.89c-.49,0-.98-.05-1.46-.16s-.93-.26-1.34-.46-.78-.43-1.09-.71l.58-1.26c.51.4,1.04.69,1.58.89.54.2,1.11.3,1.7.3.76,0,1.35-.2,1.78-.59s.65-.92.65-1.58-.21-1.23-.62-1.66c-.41-.42-.98-.63-1.7-.63-.5,0-.96.1-1.37.3-.41.2-.77.51-1.08.93h-1.15v-6.78h6.83v1.39h-5.25v4.06h-.42c.29-.41.68-.72,1.16-.94.49-.22,1.03-.34,1.64-.34.72,0,1.35.15,1.89.45s.95.71,1.24,1.25c.29.53.44,1.16.44,1.89s-.16,1.36-.49,1.91c-.33.55-.79.98-1.39,1.29-.6.31-1.31.46-2.14.46Z"/>
          <path class="cls-3" d="m278.25,216.2v-9.58c0-.31-.01-.63-.04-.95-.03-.33-.06-.65-.09-.98h1.57l.16,1.82h-.18c.17-.61.51-1.09,1.03-1.44.52-.35,1.13-.53,1.85-.53s1.34.17,1.87.5.95.81,1.24,1.43c.29.62.44,1.37.44,2.24s-.15,1.61-.44,2.24c-.29.63-.71,1.11-1.24,1.44s-1.16.5-1.87.5-1.31-.17-1.83-.52c-.52-.35-.86-.82-1.03-1.42h.18v5.25h-1.62Zm3.9-4.58c.7,0,1.27-.24,1.69-.74.42-.49.63-1.22.63-2.18s-.21-1.68-.63-2.17c-.42-.48-.98-.73-1.69-.73s-1.27.24-1.69.73c-.42.49-.63,1.21-.63,2.17s.21,1.69.63,2.18c.42.49.98.74,1.69.74Z"/>
          <path class="cls-3" d="m287.59,212.74v-1.9h1.9v1.9h-1.9Z"/>
        </g>
        <g>
          <path class="cls-3" d="m243.47,168.42c-1.32,0-2.36-.28-3.1-.85-.74-.56-1.11-1.35-1.11-2.35,0-.79.24-1.45.72-1.97s1.1-.83,1.87-.93v.34c-.69-.15-1.25-.47-1.67-.98-.42-.5-.63-1.11-.63-1.82,0-.95.35-1.69,1.05-2.23s1.66-.81,2.87-.81,2.19.27,2.89.81,1.05,1.28,1.05,2.23c0,.71-.2,1.33-.6,1.84s-.94.83-1.62.94v-.32c.76.11,1.37.42,1.82.94.46.52.69,1.17.69,1.96,0,1-.37,1.79-1.11,2.35-.74.57-1.78.85-3.11.85Zm0-1.6c.78,0,1.36-.15,1.74-.44.38-.29.58-.73.58-1.3s-.19-1.01-.58-1.29c-.38-.29-.97-.43-1.74-.43s-1.35.14-1.74.43c-.39.29-.58.72-.58,1.29s.19,1.01.58,1.3c.39.29.97.44,1.74.44Zm0-5.07c.66,0,1.17-.15,1.51-.45s.52-.71.52-1.23-.17-.91-.52-1.21c-.35-.29-.85-.44-1.51-.44s-1.15.15-1.5.44c-.35.29-.52.7-.52,1.21s.17.93.52,1.23c.35.3.85.45,1.5.45Z"/>
          <path class="cls-3" d="m253.07,168.42c-1.32,0-2.34-.5-3.06-1.51-.71-1.01-1.07-2.45-1.07-4.31s.36-3.32,1.07-4.3c.71-.98,1.73-1.47,3.06-1.47s2.35.49,3.06,1.47c.71.98,1.06,2.41,1.06,4.29s-.36,3.32-1.06,4.33c-.71,1.01-1.73,1.51-3.06,1.51Zm0-1.7c.73,0,1.26-.33,1.62-1,.35-.67.53-1.71.53-3.14s-.18-2.47-.53-3.11c-.35-.64-.89-.97-1.62-.97s-1.25.32-1.61.97c-.36.65-.54,1.68-.54,3.11s.18,2.48.54,3.14c.36.67.89,1,1.61,1Z"/>
          <path class="cls-3" d="m257.82,168.26l3.76-4.62v.91l-3.55-4.37h2.37l2.32,2.99h-.72l2.32-2.99h2.35l-3.52,4.37v-.91l3.74,4.62h-2.38l-2.51-3.22h.72l-2.53,3.22h-2.37Z"/>
          <path class="cls-3" d="m271.67,168.42c-1.32,0-2.35-.28-3.1-.85-.74-.56-1.11-1.35-1.11-2.35,0-.79.24-1.45.72-1.97.48-.52,1.1-.83,1.87-.93v.34c-.69-.15-1.25-.47-1.67-.98-.42-.5-.63-1.11-.63-1.82,0-.95.35-1.69,1.05-2.23.7-.54,1.66-.81,2.87-.81s2.19.27,2.89.81c.7.54,1.05,1.28,1.05,2.23,0,.71-.2,1.33-.6,1.84s-.94.83-1.62.94v-.32c.76.11,1.37.42,1.82.94.46.52.69,1.17.69,1.96,0,1-.37,1.79-1.11,2.35-.74.57-1.78.85-3.11.85Zm0-1.6c.78,0,1.36-.15,1.74-.44.38-.29.58-.73.58-1.3s-.19-1.01-.58-1.29c-.38-.29-.96-.43-1.74-.43s-1.35.14-1.74.43c-.39.29-.58.72-.58,1.29s.2,1.01.58,1.3c.39.29.97.44,1.74.44Zm0-5.07c.66,0,1.17-.15,1.51-.45.35-.3.52-.71.52-1.23s-.17-.91-.52-1.21c-.35-.29-.85-.44-1.51-.44s-1.15.15-1.5.44c-.35.29-.52.7-.52,1.21s.17.93.52,1.23.85.45,1.5.45Z"/>
          <path class="cls-3" d="m281.27,168.42c-1.32,0-2.34-.5-3.06-1.51s-1.07-2.45-1.07-4.31.36-3.32,1.07-4.3,1.73-1.47,3.06-1.47,2.35.49,3.06,1.47c.71.98,1.06,2.41,1.06,4.29s-.35,3.32-1.06,4.33c-.71,1.01-1.73,1.51-3.06,1.51Zm0-1.7c.73,0,1.26-.33,1.62-1,.35-.67.53-1.71.53-3.14s-.18-2.47-.53-3.11c-.35-.64-.89-.97-1.62-.97s-1.25.32-1.61.97c-.36.65-.54,1.68-.54,3.11s.18,2.48.54,3.14c.36.67.89,1,1.61,1Z"/>
        </g>
        <g>
          <path class="cls-3" d="m347.12,74.79c-.78,0-1.53-.12-2.24-.34s-1.3-.55-1.76-.95l.67-1.55c.5.38,1.02.67,1.56.85.54.18,1.11.27,1.7.27.72,0,1.27-.14,1.65-.43.37-.29.56-.71.56-1.26s-.18-.94-.55-1.21c-.37-.27-.9-.41-1.61-.41h-1.82v-1.65h1.65c.61,0,1.09-.15,1.46-.45.36-.3.54-.71.54-1.23,0-.49-.17-.86-.5-1.12-.34-.26-.82-.38-1.45-.38-1.13,0-2.13.38-2.99,1.15l-.67-1.54c.46-.43,1.03-.76,1.7-.99.68-.23,1.39-.35,2.14-.35,1.17,0,2.09.26,2.76.79.67.53,1,1.26,1,2.2,0,.67-.19,1.25-.57,1.74-.38.49-.9.81-1.56.97v-.19c.78.13,1.38.45,1.82.95s.65,1.14.65,1.9c0,1-.37,1.79-1.1,2.38-.74.58-1.74.87-3.02.87Z"/>
          <path class="cls-3" d="m356.89,74.79c-1.32,0-2.34-.5-3.06-1.51-.71-1.01-1.07-2.45-1.07-4.31s.36-3.32,1.07-4.3c.71-.98,1.73-1.47,3.06-1.47s2.35.49,3.06,1.47c.71.98,1.06,2.41,1.06,4.29s-.36,3.32-1.06,4.33c-.71,1.01-1.73,1.51-3.06,1.51Zm0-1.7c.73,0,1.26-.33,1.62-1,.35-.67.53-1.71.53-3.14s-.18-2.47-.53-3.11c-.35-.64-.89-.97-1.62-.97s-1.25.32-1.61.97c-.36.65-.54,1.68-.54,3.11s.18,2.48.54,3.14c.36.67.89,1,1.61,1Z"/>
          <path class="cls-3" d="m361.64,74.63l3.76-4.62v.91l-3.55-4.37h2.37l2.32,2.99h-.72l2.32-2.99h2.35l-3.52,4.37v-.91l3.74,4.62h-2.38l-2.51-3.22h.72l-2.53,3.22h-2.37Z"/>
          <path class="cls-3" d="m376.4,74.63v-2.21h-5.04v-1.44l5.36-7.63h1.66v7.5h1.62v1.57h-1.62v2.21h-1.98Zm0-3.78v-5.07h.38l-3.89,5.55v-.48h3.5Z"/>
          <path class="cls-3" d="m385.1,74.79c-1.32,0-2.34-.5-3.06-1.51s-1.07-2.45-1.07-4.31.36-3.32,1.07-4.3c.71-.98,1.73-1.47,3.06-1.47s2.35.49,3.06,1.47c.71.98,1.06,2.41,1.06,4.29s-.35,3.32-1.06,4.33c-.71,1.01-1.73,1.51-3.06,1.51Zm0-1.7c.73,0,1.26-.33,1.62-1,.35-.67.53-1.71.53-3.14s-.18-2.47-.53-3.11c-.35-.64-.89-.97-1.62-.97s-1.25.32-1.61.97c-.36.65-.54,1.68-.54,3.11s.18,2.48.54,3.14c.36.67.89,1,1.61,1Z"/>
        </g>
        <g>
          <path class="cls-3" d="m340.04,120.92v-1.39h2.62v-8.48h.83l-3.2,1.95v-1.6l2.83-1.76h1.2v9.89h2.46v1.39h-6.75Z"/>
          <path class="cls-3" d="m349.64,120.92v-1.39h2.62v-8.48h.83l-3.2,1.95v-1.6l2.83-1.76h1.2v9.89h2.46v1.39h-6.75Z"/>
          <path class="cls-3" d="m362.12,121.06c-1.3,0-2.3-.5-3-1.5-.7-1-1.05-2.43-1.05-4.3s.35-3.34,1.05-4.31,1.7-1.46,3-1.46,2.31.49,3.01,1.46c.69.98,1.04,2.41,1.04,4.3s-.35,3.31-1.05,4.31c-.7,1-1.7,1.5-3,1.5Zm0-1.39c.82,0,1.43-.36,1.83-1.07.4-.71.6-1.83.6-3.34s-.2-2.64-.6-3.34c-.4-.7-1.01-1.05-1.83-1.05s-1.42.35-1.82,1.05c-.41.7-.61,1.81-.61,3.32s.21,2.64.62,3.36c.41.71,1.02,1.07,1.82,1.07Z"/>
          <path class="cls-3" d="m371.72,121.06c-1.3,0-2.3-.5-3-1.5-.7-1-1.05-2.43-1.05-4.3s.35-3.34,1.05-4.31,1.7-1.46,3-1.46,2.31.49,3.01,1.46c.69.98,1.04,2.41,1.04,4.3s-.35,3.31-1.05,4.31c-.7,1-1.7,1.5-3,1.5Zm0-1.39c.82,0,1.43-.36,1.83-1.07.4-.71.6-1.83.6-3.34s-.2-2.64-.6-3.34c-.4-.7-1.01-1.05-1.83-1.05s-1.42.35-1.82,1.05c-.41.7-.61,1.81-.61,3.32s.21,2.64.62,3.36c.41.71,1.02,1.07,1.82,1.07Z"/>
          <path class="cls-3" d="m382.08,124.37v-9.58c0-.31-.01-.63-.04-.95-.03-.33-.06-.65-.09-.98h1.57l.16,1.82h-.18c.17-.61.51-1.09,1.03-1.44.52-.35,1.13-.53,1.85-.53s1.34.17,1.87.5.95.81,1.24,1.43c.29.62.44,1.37.44,2.24s-.15,1.61-.44,2.24c-.29.63-.71,1.11-1.24,1.44-.53.33-1.16.5-1.87.5s-1.31-.17-1.83-.52-.86-.82-1.03-1.42h.18v5.25h-1.62Zm3.9-4.58c.7,0,1.27-.25,1.69-.74.42-.49.63-1.22.63-2.18s-.21-1.68-.63-2.17c-.42-.49-.98-.73-1.69-.73s-1.27.24-1.69.73c-.42.49-.63,1.21-.63,2.17s.21,1.69.63,2.18c.42.49.98.74,1.69.74Z"/>
          <path class="cls-3" d="m391.42,120.92v-1.9h1.9v1.9h-1.9Z"/>
        </g>
        <g>
          <path class="cls-3" d="m339.45,212.74v-1.23l3.87-4.05c.5-.52.88-1.01,1.12-1.47.25-.46.37-.93.37-1.42,0-.61-.19-1.07-.57-1.38-.38-.31-.93-.46-1.64-.46-.57,0-1.1.1-1.59.3-.5.2-.97.51-1.43.93l-.58-1.26c.45-.42,1.01-.75,1.67-1,.67-.25,1.37-.38,2.12-.38,1.17,0,2.08.27,2.71.8.63.53.95,1.3.95,2.29,0,.7-.17,1.38-.51,2.02-.34.65-.85,1.31-1.54,1.99l-3.34,3.38v-.45h5.86v1.39h-7.47Z"/>
          <path class="cls-3" d="m352.68,212.89c-.49,0-.98-.05-1.46-.16s-.93-.26-1.34-.46-.78-.43-1.09-.71l.58-1.26c.51.4,1.04.69,1.58.89.54.2,1.11.3,1.7.3.76,0,1.35-.2,1.78-.59s.65-.92.65-1.58-.21-1.23-.62-1.66c-.41-.42-.98-.63-1.7-.63-.5,0-.96.1-1.37.3-.41.2-.77.51-1.08.93h-1.15v-6.78h6.83v1.39h-5.25v4.06h-.42c.29-.41.68-.72,1.16-.94.49-.22,1.03-.34,1.64-.34.72,0,1.35.15,1.89.45s.95.71,1.24,1.25c.29.53.44,1.16.44,1.89s-.16,1.36-.49,1.91c-.33.55-.79.98-1.39,1.29-.6.31-1.31.46-2.14.46Z"/>
          <path class="cls-3" d="m362.01,212.89c-.77,0-1.5-.11-2.21-.34-.71-.23-1.29-.56-1.76-.98l.58-1.26c.52.41,1.06.71,1.6.9.54.19,1.12.29,1.74.29.79,0,1.39-.17,1.8-.5.41-.33.62-.81.62-1.42s-.21-1.07-.62-1.38c-.41-.31-1.02-.47-1.82-.47h-1.74v-1.34h1.62c.68,0,1.23-.17,1.63-.52s.61-.82.61-1.42c0-.54-.19-.96-.56-1.26s-.91-.44-1.6-.44c-1.17,0-2.2.41-3.09,1.23l-.56-1.26c.44-.44.99-.78,1.66-1.02s1.38-.36,2.11-.36c1.13,0,2.02.26,2.67.78.65.52.98,1.23.98,2.15,0,.69-.19,1.29-.58,1.78-.39.49-.92.82-1.59.98v-.18c.8.13,1.42.45,1.85.95.43.51.65,1.14.65,1.9,0,1-.35,1.79-1.06,2.36-.71.57-1.68.86-2.92.86Z"/>
          <path class="cls-3" d="m371.88,212.89c-.49,0-.98-.05-1.46-.16s-.93-.26-1.34-.46-.78-.43-1.09-.71l.58-1.26c.51.4,1.04.69,1.58.89.54.2,1.11.3,1.7.3.76,0,1.35-.2,1.78-.59s.65-.92.65-1.58-.21-1.23-.62-1.66c-.41-.42-.98-.63-1.7-.63-.5,0-.96.1-1.37.3-.41.2-.77.51-1.08.93h-1.15v-6.78h6.83v1.39h-5.25v4.06h-.42c.29-.41.68-.72,1.16-.94.49-.22,1.03-.34,1.64-.34.72,0,1.35.15,1.89.45s.95.71,1.24,1.25c.29.53.44,1.16.44,1.89s-.16,1.36-.49,1.91c-.33.55-.79.98-1.39,1.29-.6.31-1.31.46-2.14.46Z"/>
          <path class="cls-3" d="m382.08,216.2v-9.58c0-.31-.01-.63-.04-.95-.03-.33-.06-.65-.09-.98h1.57l.16,1.82h-.18c.17-.61.51-1.09,1.03-1.44.52-.35,1.13-.53,1.85-.53s1.34.17,1.87.5.95.81,1.24,1.43c.29.62.44,1.37.44,2.24s-.15,1.61-.44,2.24c-.29.63-.71,1.11-1.24,1.44s-1.16.5-1.87.5-1.31-.17-1.83-.52c-.52-.35-.86-.82-1.03-1.42h.18v5.25h-1.62Zm3.9-4.58c.7,0,1.27-.24,1.69-.74.42-.49.63-1.22.63-2.18s-.21-1.68-.63-2.17c-.42-.48-.98-.73-1.69-.73s-1.27.24-1.69.73c-.42.49-.63,1.21-.63,2.17s.21,1.69.63,2.18c.42.49.98.74,1.69.74Z"/>
          <path class="cls-3" d="m391.42,212.74v-1.9h1.9v1.9h-1.9Z"/>
        </g>
        <g>
          <path class="cls-3" d="m347.29,168.42c-1.32,0-2.36-.28-3.1-.85-.74-.56-1.11-1.35-1.11-2.35,0-.79.24-1.45.72-1.97s1.1-.83,1.87-.93v.34c-.69-.15-1.25-.47-1.67-.98-.42-.5-.63-1.11-.63-1.82,0-.95.35-1.69,1.05-2.23s1.66-.81,2.87-.81,2.19.27,2.89.81,1.05,1.28,1.05,2.23c0,.71-.2,1.33-.6,1.84s-.94.83-1.62.94v-.32c.76.11,1.37.42,1.82.94.46.52.69,1.17.69,1.96,0,1-.37,1.79-1.11,2.35-.74.57-1.78.85-3.11.85Zm0-1.6c.78,0,1.36-.15,1.74-.44.38-.29.58-.73.58-1.3s-.19-1.01-.58-1.29c-.38-.29-.97-.43-1.74-.43s-1.35.14-1.74.43c-.39.29-.58.72-.58,1.29s.19,1.01.58,1.3c.39.29.97.44,1.74.44Zm0-5.07c.66,0,1.17-.15,1.51-.45s.52-.71.52-1.23-.17-.91-.52-1.21c-.35-.29-.85-.44-1.51-.44s-1.15.15-1.5.44c-.35.29-.52.7-.52,1.21s.17.93.52,1.23c.35.3.85.45,1.5.45Z"/>
          <path class="cls-3" d="m356.89,168.42c-1.32,0-2.34-.5-3.06-1.51-.71-1.01-1.07-2.45-1.07-4.31s.36-3.32,1.07-4.3c.71-.98,1.73-1.47,3.06-1.47s2.35.49,3.06,1.47c.71.98,1.06,2.41,1.06,4.29s-.36,3.32-1.06,4.33c-.71,1.01-1.73,1.51-3.06,1.51Zm0-1.7c.73,0,1.26-.33,1.62-1,.35-.67.53-1.71.53-3.14s-.18-2.47-.53-3.11c-.35-.64-.89-.97-1.62-.97s-1.25.32-1.61.97c-.36.65-.54,1.68-.54,3.11s.18,2.48.54,3.14c.36.67.89,1,1.61,1Z"/>
          <path class="cls-3" d="m361.64,168.26l3.76-4.62v.91l-3.55-4.37h2.37l2.32,2.99h-.72l2.32-2.99h2.35l-3.52,4.37v-.91l3.74,4.62h-2.38l-2.51-3.22h.72l-2.53,3.22h-2.37Z"/>
          <path class="cls-3" d="m375.9,168.42c-1.42,0-2.52-.49-3.29-1.47-.77-.98-1.16-2.36-1.16-4.13,0-1.28.2-2.37.59-3.26.39-.89.96-1.57,1.69-2.04.73-.47,1.61-.71,2.63-.71.61,0,1.21.11,1.81.33s1.11.53,1.54.94l-.69,1.54c-.39-.36-.82-.63-1.28-.81s-.92-.26-1.39-.26c-.96,0-1.69.33-2.19.98-.5.65-.75,1.62-.75,2.91v1.2h-.19c.08-.54.27-1.01.54-1.4.28-.39.63-.69,1.07-.9s.92-.31,1.46-.31c.66,0,1.25.15,1.76.46.51.31.91.74,1.21,1.28.29.54.44,1.17.44,1.87s-.16,1.37-.49,1.94-.77,1.02-1.34,1.34-1.22.49-1.97.49Zm-.11-1.63c.39,0,.74-.09,1.04-.26.3-.17.53-.41.7-.73s.25-.67.25-1.08-.08-.78-.25-1.09c-.17-.31-.4-.55-.7-.73-.3-.18-.65-.26-1.04-.26s-.74.09-1.04.26c-.3.18-.53.42-.7.73-.17.31-.26.67-.26,1.09s.08.77.26,1.08c.17.31.4.56.7.73.3.17.65.26,1.04.26Z"/>
          <path class="cls-3" d="m385.1,168.42c-1.32,0-2.34-.5-3.06-1.51s-1.07-2.45-1.07-4.31.36-3.32,1.07-4.3,1.73-1.47,3.06-1.47,2.35.49,3.06,1.47c.71.98,1.06,2.41,1.06,4.29s-.35,3.32-1.06,4.33c-.71,1.01-1.73,1.51-3.06,1.51Zm0-1.7c.73,0,1.26-.33,1.62-1,.35-.67.53-1.71.53-3.14s-.18-2.47-.53-3.11c-.35-.64-.89-.97-1.62-.97s-1.25.32-1.61.97c-.36.65-.54,1.68-.54,3.11s.18,2.48.54,3.14c.36.67.89,1,1.61,1Z"/>
        </g>
        <g>
          <path class="cls-3" d="m452.45,74.63v-2.21h-5.04v-1.44l5.36-7.63h1.66v7.5h1.62v1.57h-1.62v2.21h-1.98Zm0-3.78v-5.07h.38l-3.89,5.55v-.48h3.5Z"/>
          <path class="cls-3" d="m461.16,74.79c-1.32,0-2.34-.5-3.06-1.51s-1.07-2.45-1.07-4.31.36-3.32,1.07-4.3c.71-.98,1.73-1.47,3.06-1.47s2.35.49,3.06,1.47c.71.98,1.06,2.41,1.06,4.29s-.36,3.32-1.06,4.33c-.71,1.01-1.73,1.51-3.06,1.51Zm0-1.7c.73,0,1.26-.33,1.62-1,.35-.67.53-1.71.53-3.14s-.18-2.47-.53-3.11c-.35-.64-.89-.97-1.62-.97s-1.25.32-1.61.97c-.36.65-.54,1.68-.54,3.11s.18,2.48.54,3.14c.36.67.89,1,1.61,1Z"/>
          <path class="cls-3" d="m465.91,74.63l3.76-4.62v.91l-3.55-4.37h2.37l2.32,2.99h-.72l2.32-2.99h2.35l-3.52,4.37v-.91l3.74,4.62h-2.38l-2.51-3.22h.72l-2.53,3.22h-2.37Z"/>
          <path class="cls-3" d="m479.85,74.79c-.49,0-.98-.05-1.46-.16-.49-.11-.94-.26-1.36-.45-.42-.19-.78-.42-1.08-.69l.67-1.55c.5.37,1.02.65,1.54.84s1.08.28,1.66.28c.69,0,1.23-.17,1.62-.52.39-.35.58-.81.58-1.4s-.19-1.08-.56-1.45-.89-.55-1.54-.55c-.46,0-.88.09-1.26.26s-.72.45-1.02.81h-1.36v-6.86h7.01v1.7h-5.06v3.58h-.5c.28-.37.65-.66,1.11-.86s.98-.3,1.56-.3c.73,0,1.35.15,1.89.45.53.3.95.72,1.25,1.26.3.54.45,1.17.45,1.9s-.17,1.38-.5,1.94c-.34.56-.82,1-1.44,1.31s-1.36.47-2.22.47Z"/>
          <path class="cls-3" d="m489.37,74.79c-1.32,0-2.34-.5-3.06-1.51s-1.07-2.45-1.07-4.31.36-3.32,1.07-4.3c.71-.98,1.73-1.47,3.06-1.47s2.35.49,3.06,1.47c.71.98,1.06,2.41,1.06,4.29s-.35,3.32-1.06,4.33c-.71,1.01-1.73,1.51-3.06,1.51Zm0-1.7c.73,0,1.26-.33,1.62-1,.35-.67.53-1.71.53-3.14s-.18-2.47-.53-3.11c-.35-.64-.89-.97-1.62-.97s-1.25.32-1.61.97c-.36.65-.54,1.68-.54,3.11s.18,2.48.54,3.14c.36.67.89,1,1.61,1Z"/>
        </g>
        <g>
          <path class="cls-3" d="m444.31,120.92v-1.39h2.62v-8.48h.83l-3.2,1.95v-1.6l2.83-1.76h1.2v9.89h2.46v1.39h-6.75Z"/>
          <path class="cls-3" d="m457.94,120.92v-2.34h-5.22v-1.18l5.49-7.76h1.34v7.65h1.68v1.3h-1.68v2.34h-1.62Zm0-3.63v-5.68h.37l-4.29,6.08v-.4h3.92Z"/>
          <path class="cls-3" d="m466.28,121.06c-.77,0-1.5-.12-2.21-.34s-1.29-.56-1.76-.98l.58-1.26c.52.41,1.06.7,1.6.9s1.12.29,1.74.29c.79,0,1.39-.17,1.8-.5.41-.33.62-.81.62-1.42s-.21-1.07-.62-1.38c-.41-.31-1.02-.47-1.82-.47h-1.74v-1.34h1.62c.68,0,1.23-.17,1.63-.52.41-.35.61-.82.61-1.42,0-.54-.19-.96-.56-1.26-.37-.29-.91-.44-1.6-.44-1.17,0-2.2.41-3.09,1.23l-.56-1.26c.44-.44.99-.78,1.66-1.02.67-.24,1.38-.36,2.11-.36,1.13,0,2.02.26,2.67.78.65.52.98,1.24.98,2.15,0,.69-.2,1.29-.58,1.78-.39.49-.92.82-1.59.98v-.18c.8.13,1.42.45,1.85.95.43.51.65,1.14.65,1.9,0,1-.35,1.79-1.06,2.36-.71.57-1.68.86-2.92.86Z"/>
          <path class="cls-3" d="m475.99,121.06c-1.3,0-2.3-.5-3-1.5-.7-1-1.05-2.43-1.05-4.3s.35-3.34,1.05-4.31c.7-.98,1.7-1.46,3-1.46s2.31.49,3.01,1.46c.69.98,1.04,2.41,1.04,4.3s-.35,3.31-1.05,4.31c-.7,1-1.7,1.5-3,1.5Zm0-1.39c.82,0,1.43-.36,1.83-1.07.4-.71.6-1.83.6-3.34s-.2-2.64-.6-3.34c-.4-.7-1.01-1.05-1.83-1.05s-1.42.35-1.82,1.05c-.41.7-.61,1.81-.61,3.32s.21,2.64.62,3.36c.41.71,1.02,1.07,1.82,1.07Z"/>
          <path class="cls-3" d="m486.34,124.37v-9.58c0-.31-.01-.63-.04-.95-.03-.33-.06-.65-.09-.98h1.57l.16,1.82h-.18c.17-.61.51-1.09,1.03-1.44.52-.35,1.13-.53,1.85-.53s1.34.17,1.87.5.95.81,1.24,1.43c.29.62.44,1.37.44,2.24s-.15,1.61-.44,2.24c-.29.63-.71,1.11-1.24,1.44-.53.33-1.16.5-1.87.5s-1.31-.17-1.83-.52-.86-.82-1.03-1.42h.18v5.25h-1.62Zm3.9-4.58c.7,0,1.27-.25,1.69-.74.42-.49.63-1.22.63-2.18s-.21-1.68-.63-2.17c-.42-.49-.98-.73-1.69-.73s-1.27.24-1.69.73c-.42.49-.63,1.21-.63,2.17s.21,1.69.63,2.18c.42.49.98.74,1.69.74Z"/>
          <path class="cls-3" d="m495.69,120.92v-1.9h1.9v1.9h-1.9Z"/>
        </g>
        <g>
          <path class="cls-3" d="m444.31,212.74v-1.39h2.62v-8.48h.83l-3.2,1.95v-1.6l2.83-1.76h1.2v9.89h2.46v1.39h-6.75Z"/>
          <path class="cls-3" d="m453.91,212.74v-1.39h2.62v-8.48h.83l-3.2,1.95v-1.6l2.83-1.76h1.2v9.89h2.46v1.39h-6.75Z"/>
          <path class="cls-3" d="m466.39,212.89c-1.3,0-2.3-.5-3-1.5-.7-1-1.05-2.43-1.05-4.3s.35-3.34,1.05-4.31c.7-.98,1.7-1.46,3-1.46s2.31.49,3.01,1.46c.69.98,1.04,2.41,1.04,4.3s-.35,3.31-1.05,4.31c-.7,1-1.7,1.5-3,1.5Zm0-1.39c.82,0,1.43-.36,1.83-1.07.4-.71.6-1.83.6-3.34s-.2-2.64-.6-3.34c-.4-.7-1.01-1.05-1.83-1.05s-1.42.35-1.82,1.05c-.41.7-.61,1.8-.61,3.32s.21,2.65.62,3.36c.41.71,1.02,1.07,1.82,1.07Z"/>
          <path class="cls-3" d="m475.99,212.89c-1.3,0-2.3-.5-3-1.5-.7-1-1.05-2.43-1.05-4.3s.35-3.34,1.05-4.31c.7-.98,1.7-1.46,3-1.46s2.31.49,3.01,1.46c.69.98,1.04,2.41,1.04,4.3s-.35,3.31-1.05,4.31c-.7,1-1.7,1.5-3,1.5Zm0-1.39c.82,0,1.43-.36,1.83-1.07.4-.71.6-1.83.6-3.34s-.2-2.64-.6-3.34c-.4-.7-1.01-1.05-1.83-1.05s-1.42.35-1.82,1.05c-.41.7-.61,1.8-.61,3.32s.21,2.65.62,3.36c.41.71,1.02,1.07,1.82,1.07Z"/>
          <path class="cls-3" d="m486.34,216.2v-9.58c0-.31-.01-.63-.04-.95-.03-.33-.06-.65-.09-.98h1.57l.16,1.82h-.18c.17-.61.51-1.09,1.03-1.44.52-.35,1.13-.53,1.85-.53s1.34.17,1.87.5.95.81,1.24,1.43c.29.62.44,1.37.44,2.24s-.15,1.61-.44,2.24c-.29.63-.71,1.11-1.24,1.44s-1.16.5-1.87.5-1.31-.17-1.83-.52c-.52-.35-.86-.82-1.03-1.42h.18v5.25h-1.62Zm3.9-4.58c.7,0,1.27-.24,1.69-.74.42-.49.63-1.22.63-2.18s-.21-1.68-.63-2.17c-.42-.48-.98-.73-1.69-.73s-1.27.24-1.69.73c-.42.49-.63,1.21-.63,2.17s.21,1.69.63,2.18c.42.49.98.74,1.69.74Z"/>
          <path class="cls-3" d="m495.69,212.74v-1.9h1.9v1.9h-1.9Z"/>
        </g>
        <g>
          <path class="cls-3" d="m451.38,168.42c-.78,0-1.53-.11-2.24-.34-.71-.23-1.3-.55-1.76-.95l.67-1.55c.5.38,1.02.67,1.56.85.54.18,1.11.27,1.7.27.73,0,1.27-.14,1.65-.43.37-.29.56-.71.56-1.26s-.18-.94-.55-1.21c-.37-.27-.9-.41-1.61-.41h-1.82v-1.65h1.65c.61,0,1.09-.15,1.46-.45s.54-.71.54-1.23c0-.49-.17-.86-.5-1.12-.34-.26-.82-.38-1.45-.38-1.13,0-2.13.38-2.99,1.15l-.67-1.54c.46-.43,1.03-.76,1.7-.99.68-.23,1.39-.35,2.14-.35,1.17,0,2.09.26,2.76.79.67.53,1,1.26,1,2.2,0,.67-.19,1.25-.57,1.74s-.9.81-1.56.97v-.19c.78.13,1.38.45,1.82.95.43.51.65,1.14.65,1.9,0,1-.37,1.79-1.1,2.38-.74.58-1.74.87-3.02.87Z"/>
          <path class="cls-3" d="m461.16,168.42c-1.32,0-2.34-.5-3.06-1.51s-1.07-2.45-1.07-4.31.36-3.32,1.07-4.3,1.73-1.47,3.06-1.47,2.35.49,3.06,1.47c.71.98,1.06,2.41,1.06,4.29s-.36,3.32-1.06,4.33c-.71,1.01-1.73,1.51-3.06,1.51Zm0-1.7c.73,0,1.26-.33,1.62-1,.35-.67.53-1.71.53-3.14s-.18-2.47-.53-3.11c-.35-.64-.89-.97-1.62-.97s-1.25.32-1.61.97c-.36.65-.54,1.68-.54,3.11s.18,2.48.54,3.14c.36.67.89,1,1.61,1Z"/>
          <path class="cls-3" d="m465.91,168.26l3.76-4.62v.91l-3.55-4.37h2.37l2.32,2.99h-.72l2.32-2.99h2.35l-3.52,4.37v-.91l3.74,4.62h-2.38l-2.51-3.22h.72l-2.53,3.22h-2.37Z"/>
          <path class="cls-3" d="m479.59,168.42c-.78,0-1.53-.11-2.24-.34-.71-.23-1.3-.55-1.76-.95l.67-1.55c.5.38,1.02.67,1.56.85.54.18,1.11.27,1.7.27.72,0,1.27-.14,1.65-.43s.56-.71.56-1.26-.18-.94-.55-1.21c-.37-.27-.9-.41-1.61-.41h-1.82v-1.65h1.65c.61,0,1.09-.15,1.46-.45.36-.3.54-.71.54-1.23,0-.49-.17-.86-.5-1.12-.34-.26-.82-.38-1.45-.38-1.13,0-2.13.38-2.99,1.15l-.67-1.54c.46-.43,1.03-.76,1.7-.99.68-.23,1.39-.35,2.14-.35,1.17,0,2.09.26,2.76.79.67.53,1,1.26,1,2.2,0,.67-.19,1.25-.57,1.74-.38.49-.9.81-1.56.97v-.19c.78.13,1.38.45,1.82.95.43.51.65,1.14.65,1.9,0,1-.37,1.79-1.1,2.38-.74.58-1.74.87-3.02.87Z"/>
          <path class="cls-3" d="m489.37,168.42c-1.32,0-2.34-.5-3.06-1.51s-1.07-2.45-1.07-4.31.36-3.32,1.07-4.3,1.73-1.47,3.06-1.47,2.35.49,3.06,1.47c.71.98,1.06,2.41,1.06,4.29s-.35,3.32-1.06,4.33c-.71,1.01-1.73,1.51-3.06,1.51Zm0-1.7c.73,0,1.26-.33,1.62-1,.35-.67.53-1.71.53-3.14s-.18-2.47-.53-3.11c-.35-.64-.89-.97-1.62-.97s-1.25.32-1.61.97c-.36.65-.54,1.68-.54,3.11s.18,2.48.54,3.14c.36.67.89,1,1.61,1Z"/>
        </g>
        <g>
          <path class="cls-3" d="m555.38,74.79c-.49,0-.98-.05-1.46-.16-.49-.11-.94-.26-1.36-.45-.42-.19-.78-.42-1.08-.69l.67-1.55c.5.37,1.02.65,1.54.84.53.19,1.08.28,1.66.28.69,0,1.23-.17,1.62-.52.39-.35.58-.81.58-1.4s-.19-1.08-.56-1.45c-.37-.37-.89-.55-1.54-.55-.46,0-.88.09-1.26.26-.38.18-.72.45-1.02.81h-1.36v-6.86h7.01v1.7h-5.06v3.58h-.5c.28-.37.65-.66,1.11-.86s.98-.3,1.56-.3c.72,0,1.35.15,1.89.45s.95.72,1.25,1.26c.3.54.45,1.17.45,1.9s-.17,1.38-.5,1.94c-.34.56-.82,1-1.44,1.31s-1.36.47-2.22.47Z"/>
          <path class="cls-3" d="m564.9,74.79c-1.32,0-2.34-.5-3.06-1.51s-1.07-2.45-1.07-4.31.36-3.32,1.07-4.3c.71-.98,1.73-1.47,3.06-1.47s2.35.49,3.06,1.47c.71.98,1.06,2.41,1.06,4.29s-.36,3.32-1.06,4.33c-.71,1.01-1.73,1.51-3.06,1.51Zm0-1.7c.73,0,1.26-.33,1.62-1,.35-.67.53-1.71.53-3.14s-.18-2.47-.53-3.11c-.35-.64-.89-.97-1.62-.97s-1.25.32-1.61.97c-.36.65-.54,1.68-.54,3.11s.18,2.48.54,3.14c.36.67.89,1,1.61,1Z"/>
          <path class="cls-3" d="m569.65,74.63l3.76-4.62v.91l-3.55-4.37h2.37l2.32,2.99h-.72l2.32-2.99h2.35l-3.52,4.37v-.91l3.74,4.62h-2.38l-2.51-3.22h.72l-2.53,3.22h-2.37Z"/>
          <path class="cls-3" d="m580.08,74.63l5.47-10.27v.72h-5.98v-1.73h7.89v1.54l-5.12,9.74h-2.26Z"/>
          <path class="cls-3" d="m593.1,74.79c-1.32,0-2.34-.5-3.06-1.51s-1.07-2.45-1.07-4.31.36-3.32,1.07-4.3c.71-.98,1.73-1.47,3.06-1.47s2.35.49,3.06,1.47c.71.98,1.06,2.41,1.06,4.29s-.35,3.32-1.06,4.33c-.71,1.01-1.73,1.51-3.06,1.51Zm0-1.7c.73,0,1.26-.33,1.62-1,.35-.67.53-1.71.53-3.14s-.18-2.47-.53-3.11c-.35-.64-.89-.97-1.62-.97s-1.25.32-1.61.97c-.36.65-.54,1.68-.54,3.11s.18,2.48.54,3.14c.36.67.89,1,1.61,1Z"/>
        </g>
        <g>
          <path class="cls-3" d="m548.05,120.92v-1.39h2.62v-8.48h.83l-3.2,1.95v-1.6l2.83-1.76h1.2v9.89h2.46v1.39h-6.75Z"/>
          <path class="cls-3" d="m559.73,121.06c-.6,0-1.19-.12-1.79-.36-.6-.24-1.1-.56-1.5-.95l.59-1.26c.39.38.83.67,1.3.87.47.2.94.3,1.42.3,1.02,0,1.81-.36,2.36-1.08.55-.72.82-1.79.82-3.22v-1.36h.16c-.06.57-.25,1.06-.54,1.49-.3.43-.67.75-1.13.98-.45.22-.96.34-1.53.34-.66,0-1.26-.16-1.78-.46-.53-.31-.94-.74-1.23-1.28-.29-.54-.44-1.16-.44-1.84,0-.73.16-1.37.48-1.93.32-.56.76-1,1.31-1.31.55-.31,1.19-.47,1.92-.47,1.41,0,2.49.48,3.24,1.45.75.97,1.13,2.33,1.13,4.09,0,1.29-.19,2.38-.57,3.28-.38.9-.92,1.58-1.64,2.05-.71.47-1.57.71-2.58.71Zm.53-5.63c.45,0,.84-.1,1.18-.29.34-.19.61-.46.8-.81.19-.35.29-.74.29-1.19s-.1-.86-.29-1.21c-.19-.35-.46-.62-.8-.82-.34-.2-.74-.3-1.18-.3s-.84.1-1.18.3-.6.47-.79.82c-.19.35-.29.75-.29,1.21s.1.84.29,1.19c.19.35.46.62.79.81.34.19.73.29,1.18.29Z"/>
          <path class="cls-3" d="m570.29,121.06c-.49,0-.98-.05-1.46-.16-.48-.11-.93-.26-1.34-.46-.42-.2-.78-.43-1.09-.71l.58-1.26c.51.4,1.04.69,1.58.89.54.2,1.11.3,1.7.3.76,0,1.35-.2,1.78-.59.43-.39.65-.92.65-1.58s-.21-1.23-.62-1.66c-.41-.42-.98-.63-1.7-.63-.5,0-.96.1-1.37.3-.41.2-.77.51-1.08.93h-1.15v-6.78h6.83v1.39h-5.25v4.06h-.42c.29-.41.67-.72,1.16-.94.49-.22,1.03-.34,1.64-.34.73,0,1.35.15,1.89.45s.95.71,1.24,1.25.44,1.16.44,1.89-.16,1.36-.49,1.91c-.33.55-.79.98-1.39,1.29-.6.31-1.32.46-2.14.46Z"/>
          <path class="cls-3" d="m579.73,121.06c-1.3,0-2.3-.5-3-1.5-.7-1-1.05-2.43-1.05-4.3s.35-3.34,1.05-4.31c.7-.98,1.7-1.46,3-1.46s2.31.49,3.01,1.46c.69.98,1.04,2.41,1.04,4.3s-.35,3.31-1.05,4.31c-.7,1-1.7,1.5-3,1.5Zm0-1.39c.82,0,1.43-.36,1.83-1.07.4-.71.6-1.83.6-3.34s-.2-2.64-.6-3.34c-.4-.7-1.01-1.05-1.83-1.05s-1.42.35-1.82,1.05c-.41.7-.61,1.81-.61,3.32s.21,2.64.62,3.36c.41.71,1.02,1.07,1.82,1.07Z"/>
          <path class="cls-3" d="m590.08,124.37v-9.58c0-.31-.01-.63-.04-.95-.03-.33-.06-.65-.09-.98h1.57l.16,1.82h-.18c.17-.61.51-1.09,1.03-1.44.52-.35,1.13-.53,1.85-.53s1.34.17,1.87.5.95.81,1.24,1.43c.29.62.44,1.37.44,2.24s-.15,1.61-.44,2.24c-.29.63-.71,1.11-1.24,1.44-.53.33-1.16.5-1.87.5s-1.31-.17-1.83-.52-.86-.82-1.03-1.42h.18v5.25h-1.62Zm3.9-4.58c.7,0,1.27-.25,1.69-.74.42-.49.63-1.22.63-2.18s-.21-1.68-.63-2.17c-.42-.49-.98-.73-1.69-.73s-1.27.24-1.69.73c-.42.49-.63,1.21-.63,2.17s.21,1.69.63,2.18c.42.49.98.74,1.69.74Z"/>
          <path class="cls-3" d="m599.43,120.92v-1.9h1.9v1.9h-1.9Z"/>
        </g>
        <g>
          <path class="cls-3" d="m548.05,212.74v-1.39h2.62v-8.48h.83l-3.2,1.95v-1.6l2.83-1.76h1.2v9.89h2.46v1.39h-6.75Z"/>
          <path class="cls-3" d="m560.91,212.89c-1.4,0-2.47-.49-3.22-1.46s-1.13-2.33-1.13-4.08c0-1.3.19-2.4.58-3.29.38-.89.93-1.57,1.64-2.04.71-.47,1.57-.7,2.57-.7.6,0,1.19.11,1.79.34.6.23,1.1.55,1.5.97l-.59,1.25c-.39-.38-.83-.67-1.3-.86-.47-.19-.94-.29-1.42-.29-1.04,0-1.82.36-2.37,1.08s-.82,1.79-.82,3.22v1.36h-.16c.08-.58.26-1.07.54-1.5.29-.42.66-.74,1.12-.97.46-.22.97-.34,1.54-.34.67,0,1.27.15,1.78.46s.92.73,1.22,1.27c.3.54.45,1.15.45,1.85s-.16,1.35-.48,1.92c-.32.57-.76,1.01-1.32,1.32-.56.31-1.2.47-1.93.47Zm-.1-1.34c.45,0,.84-.1,1.18-.29.34-.19.6-.46.79-.81.19-.35.29-.75.29-1.21s-.1-.86-.29-1.2c-.19-.34-.46-.61-.79-.81-.34-.2-.73-.3-1.18-.3s-.84.1-1.18.3c-.34.2-.61.47-.8.81-.19.34-.29.74-.29,1.2s.1.86.29,1.21c.19.35.46.62.8.81.34.19.74.29,1.18.29Z"/>
          <path class="cls-3" d="m566.66,212.74v-1.23l3.87-4.05c.5-.52.88-1.01,1.12-1.47.25-.46.37-.93.37-1.42,0-.61-.19-1.07-.57-1.38-.38-.31-.93-.46-1.64-.46-.57,0-1.1.1-1.59.3-.5.2-.97.51-1.43.93l-.58-1.26c.45-.42,1.01-.75,1.67-1,.67-.25,1.37-.38,2.12-.38,1.17,0,2.08.27,2.71.8.63.53.95,1.3.95,2.29,0,.7-.17,1.38-.51,2.02-.34.65-.85,1.31-1.54,1.99l-3.34,3.38v-.45h5.86v1.39h-7.47Z"/>
          <path class="cls-3" d="m579.89,212.89c-.49,0-.98-.05-1.46-.16-.48-.11-.93-.26-1.34-.46s-.78-.43-1.09-.71l.58-1.26c.51.4,1.04.69,1.58.89.54.2,1.11.3,1.7.3.76,0,1.35-.2,1.78-.59.43-.39.65-.92.65-1.58s-.21-1.23-.62-1.66c-.41-.42-.98-.63-1.7-.63-.5,0-.96.1-1.37.3-.41.2-.77.51-1.08.93h-1.15v-6.78h6.83v1.39h-5.25v4.06h-.42c.29-.41.67-.72,1.16-.94s1.03-.34,1.64-.34c.73,0,1.35.15,1.89.45s.95.71,1.24,1.25.44,1.16.44,1.89-.16,1.36-.49,1.91-.79.98-1.39,1.29c-.6.31-1.32.46-2.14.46Z"/>
          <path class="cls-3" d="m590.08,216.2v-9.58c0-.31-.01-.63-.04-.95-.03-.33-.06-.65-.09-.98h1.57l.16,1.82h-.18c.17-.61.51-1.09,1.03-1.44.52-.35,1.13-.53,1.85-.53s1.34.17,1.87.5.95.81,1.24,1.43c.29.62.44,1.37.44,2.24s-.15,1.61-.44,2.24c-.29.63-.71,1.11-1.24,1.44s-1.16.5-1.87.5-1.31-.17-1.83-.52c-.52-.35-.86-.82-1.03-1.42h.18v5.25h-1.62Zm3.9-4.58c.7,0,1.27-.24,1.69-.74.42-.49.63-1.22.63-2.18s-.21-1.68-.63-2.17c-.42-.48-.98-.73-1.69-.73s-1.27.24-1.69.73c-.42.49-.63,1.21-.63,2.17s.21,1.69.63,2.18c.42.49.98.74,1.69.74Z"/>
          <path class="cls-3" d="m599.43,212.74v-1.9h1.9v1.9h-1.9Z"/>
        </g>
        <g>
          <path class="cls-3" d="m20.84,252v-11.28h4.78c1.21,0,2.13.29,2.78.87.65.58.97,1.38.97,2.41s-.32,1.83-.97,2.42c-.65.59-1.57.88-2.78.88h-3.12v4.7h-1.66Zm1.66-6.03h2.94c.76,0,1.33-.17,1.71-.51.38-.34.58-.83.58-1.46s-.19-1.1-.58-1.44c-.38-.34-.95-.51-1.71-.51h-2.94v3.92Z"/>
          <path class="cls-3" d="m34.22,252.15c-.71,0-1.34-.17-1.87-.5-.53-.33-.95-.81-1.24-1.44-.29-.63-.44-1.38-.44-2.24s.15-1.62.44-2.24c.29-.62.71-1.1,1.24-1.43.53-.34,1.16-.5,1.87-.5s1.32.18,1.84.53c.52.35.87.83,1.04,1.44h-.18l.16-1.82h1.57c-.03.33-.06.66-.09.98-.03.33-.04.64-.04.95v6.13h-1.62v-1.79h.18c-.17.6-.52,1.07-1.05,1.42-.53.35-1.13.52-1.82.52Zm.4-1.26c.69,0,1.25-.25,1.67-.74.42-.49.63-1.22.63-2.18s-.21-1.68-.63-2.17c-.42-.48-.98-.73-1.67-.73s-1.27.24-1.69.73c-.42.49-.63,1.21-.63,2.17s.21,1.69.62,2.18c.42.49.98.74,1.7.74Z"/>
          <path class="cls-3" d="m43.8,252.15c-.7,0-1.37-.09-1.98-.26-.62-.18-1.13-.43-1.52-.76l.5-1.09c.39.31.85.54,1.36.7s1.06.23,1.65.23c.74,0,1.27-.11,1.61-.33.34-.22.5-.53.5-.94s-.14-.69-.42-.9c-.28-.2-.68-.3-1.22-.3h-1.98v-1.15h1.82c.48,0,.85-.1,1.12-.3.27-.2.4-.49.4-.85,0-.38-.16-.68-.46-.9-.31-.21-.79-.32-1.44-.32-.55,0-1.06.07-1.52.21-.46.14-.9.35-1.31.62l-.48-1.04c.44-.33.96-.58,1.55-.74.6-.16,1.24-.24,1.94-.24,1.04,0,1.84.2,2.38.58.54.39.82.95.82,1.67,0,.5-.17.93-.5,1.28-.34.35-.79.57-1.35.64v-.21c.65.03,1.17.23,1.56.58.39.36.58.83.58,1.42,0,.73-.31,1.3-.92,1.74-.61.43-1.51.65-2.68.65Z"/>
          <path class="cls-3" d="m49.29,252v-8.06h1.34l2.91,5.15,2.91-5.15h1.34v8.06h-1.42v-6.26h.35l-2.8,4.96h-.77l-2.8-4.96h.35v6.26h-1.42Z"/>
          <path class="cls-3" d="m64.02,252.15c-1.3,0-2.33-.37-3.07-1.1-.75-.74-1.12-1.75-1.12-3.06,0-.84.16-1.58.49-2.21s.78-1.12,1.36-1.46c.58-.35,1.26-.52,2.02-.52s1.39.16,1.9.48c.51.32.9.77,1.17,1.35.27.58.4,1.27.4,2.06v.51h-6.08v-.93h4.98l-.27.21c0-.8-.18-1.42-.54-1.86s-.87-.66-1.54-.66c-.75,0-1.32.26-1.73.78-.41.52-.61,1.23-.61,2.14v.16c0,.95.23,1.66.7,2.14.46.48,1.12.72,1.98.72.47,0,.91-.07,1.32-.2.41-.13.8-.35,1.18-.66l.53,1.1c-.37.33-.83.58-1.36.76-.53.18-1.1.26-1.7.26Z"/>
          <path class="cls-3" d="m69.22,255.46v-9.58c0-.31-.01-.63-.04-.95-.03-.33-.06-.65-.09-.98h1.57l.16,1.82h-.18c.17-.61.51-1.09,1.03-1.44.52-.35,1.13-.53,1.85-.53s1.34.17,1.87.5.95.81,1.24,1.43c.29.62.44,1.37.44,2.24s-.15,1.61-.44,2.24c-.29.63-.71,1.11-1.24,1.44-.53.33-1.16.5-1.87.5s-1.31-.17-1.83-.52-.86-.82-1.03-1.42h.18v5.25h-1.62Zm3.9-4.58c.7,0,1.27-.25,1.69-.74.42-.49.63-1.22.63-2.18s-.21-1.68-.63-2.17c-.42-.48-.98-.73-1.69-.73s-1.27.24-1.69.73c-.42.49-.63,1.21-.63,2.17s.21,1.69.63,2.18c.42.49.98.74,1.69.74Z"/>
          <path class="cls-3" d="m82.28,252l3.66-4.54v.77l-3.47-4.29h1.94l2.45,3.15h-.58l2.45-3.15h1.92l-3.44,4.27v-.74l3.65,4.53h-1.94l-2.64-3.38h.58l-2.66,3.38h-1.92Z"/>
          <path class="cls-3" d="m96.55,255.46v-9.58c0-.31-.01-.63-.04-.95-.03-.33-.06-.65-.09-.98h1.57l.16,1.82h-.18c.17-.61.51-1.09,1.03-1.44.52-.35,1.13-.53,1.85-.53s1.34.17,1.87.5.95.81,1.24,1.43c.29.62.44,1.37.44,2.24s-.15,1.61-.44,2.24c-.29.63-.71,1.11-1.24,1.44-.53.33-1.16.5-1.87.5s-1.31-.17-1.83-.52-.86-.82-1.03-1.42h.18v5.25h-1.62Zm3.9-4.58c.7,0,1.27-.25,1.69-.74.42-.49.63-1.22.63-2.18s-.21-1.68-.63-2.17c-.42-.48-.98-.73-1.69-.73s-1.27.24-1.69.73c-.42.49-.63,1.21-.63,2.17s.21,1.69.63,2.18c.42.49.98.74,1.69.74Z"/>
          <path class="cls-3" d="m109.57,252.15c-.71,0-1.34-.17-1.87-.5-.53-.33-.95-.81-1.24-1.44-.29-.63-.44-1.38-.44-2.24s.15-1.62.44-2.24c.29-.62.71-1.1,1.24-1.43s1.16-.5,1.87-.5,1.32.18,1.84.53c.52.35.87.83,1.04,1.44h-.18l.16-1.82h1.57c-.03.33-.06.66-.09.98-.03.33-.04.64-.04.95v6.13h-1.62v-1.79h.18c-.17.6-.52,1.07-1.05,1.42-.53.35-1.13.52-1.82.52Zm.4-1.26c.69,0,1.25-.25,1.67-.74.42-.49.63-1.22.63-2.18s-.21-1.68-.63-2.17c-.42-.48-.98-.73-1.67-.73s-1.27.24-1.69.73c-.42.49-.63,1.21-.63,2.17s.21,1.69.62,2.18c.42.49.98.74,1.7.74Z"/>
          <path class="cls-3" d="m119.16,252.15c-.7,0-1.37-.09-1.98-.26-.62-.18-1.13-.43-1.52-.76l.5-1.09c.39.31.85.54,1.36.7s1.06.23,1.65.23c.74,0,1.27-.11,1.61-.33.34-.22.5-.53.5-.94s-.14-.69-.42-.9c-.28-.2-.68-.3-1.22-.3h-1.98v-1.15h1.82c.48,0,.85-.1,1.12-.3.27-.2.4-.49.4-.85,0-.38-.16-.68-.46-.9-.31-.21-.79-.32-1.44-.32-.55,0-1.06.07-1.52.21-.46.14-.9.35-1.31.62l-.48-1.04c.44-.33.96-.58,1.55-.74.6-.16,1.24-.24,1.94-.24,1.04,0,1.84.2,2.38.58.54.39.82.95.82,1.67,0,.5-.17.93-.5,1.28-.34.35-.79.57-1.35.64v-.21c.65.03,1.17.23,1.56.58.39.36.58.83.58,1.42,0,.73-.31,1.3-.92,1.74-.61.43-1.51.65-2.68.65Z"/>
          <path class="cls-3" d="m124.64,252v-8.06h1.34l2.91,5.15,2.91-5.15h1.34v8.06h-1.42v-6.26h.35l-2.8,4.96h-.77l-2.8-4.96h.35v6.26h-1.42Z"/>
          <path class="cls-3" d="m139.38,252.15c-1.3,0-2.33-.37-3.07-1.1-.75-.74-1.12-1.75-1.12-3.06,0-.84.16-1.58.49-2.21s.78-1.12,1.36-1.46c.58-.35,1.26-.52,2.02-.52s1.39.16,1.9.48c.51.32.9.77,1.17,1.35.27.58.4,1.27.4,2.06v.51h-6.08v-.93h4.98l-.27.21c0-.8-.18-1.42-.54-1.86s-.87-.66-1.54-.66c-.75,0-1.32.26-1.73.78-.41.52-.61,1.23-.61,2.14v.16c0,.95.23,1.66.7,2.14.46.48,1.12.72,1.98.72.47,0,.91-.07,1.32-.2.41-.13.8-.35,1.18-.66l.53,1.1c-.37.33-.83.58-1.36.76-.53.18-1.1.26-1.7.26Z"/>
          <path class="cls-3" d="m144.58,255.46v-9.58c0-.31-.01-.63-.04-.95-.03-.33-.06-.65-.09-.98h1.57l.16,1.82h-.18c.17-.61.51-1.09,1.03-1.44.52-.35,1.13-.53,1.85-.53s1.34.17,1.87.5.95.81,1.24,1.43c.29.62.44,1.37.44,2.24s-.15,1.61-.44,2.24c-.29.63-.71,1.11-1.24,1.44-.53.33-1.16.5-1.87.5s-1.31-.17-1.83-.52-.86-.82-1.03-1.42h.18v5.25h-1.62Zm3.9-4.58c.7,0,1.27-.25,1.69-.74.42-.49.63-1.22.63-2.18s-.21-1.68-.63-2.17c-.42-.48-.98-.73-1.69-.73s-1.27.24-1.69.73c-.42.49-.63,1.21-.63,2.17s.21,1.69.63,2.18c.42.49.98.74,1.69.74Z"/>
          <path class="cls-3" d="m157.64,252l3.66-4.54v.77l-3.47-4.29h1.94l2.45,3.15h-.58l2.45-3.15h1.92l-3.44,4.27v-.74l3.65,4.53h-1.94l-2.64-3.38h.58l-2.66,3.38h-1.92Z"/>
          <path class="cls-3" d="m172.55,252v-1.39h2.62v-8.48h.83l-3.2,1.95v-1.6l2.83-1.76h1.2v9.89h2.46v1.39h-6.75Z"/>
          <path class="cls-3" d="m185.03,252.15c-1.3,0-2.31-.28-3.04-.83s-1.09-1.33-1.09-2.32c0-.79.24-1.44.72-1.96.48-.52,1.11-.83,1.89-.94v.29c-.7-.15-1.27-.47-1.69-.98-.42-.5-.63-1.11-.63-1.82,0-.94.34-1.67,1.02-2.21.68-.53,1.62-.8,2.82-.8s2.15.27,2.83.8c.68.53,1.02,1.27,1.02,2.21,0,.71-.2,1.33-.6,1.83-.4.51-.95.82-1.64.95v-.27c.77.11,1.38.42,1.84.94s.69,1.17.69,1.96c0,.99-.36,1.77-1.09,2.32-.73.55-1.74.83-3.06.83Zm0-1.31c.86,0,1.51-.16,1.94-.49.43-.33.64-.81.64-1.46s-.21-1.14-.64-1.46c-.43-.32-1.07-.48-1.94-.48s-1.51.16-1.94.48c-.43.32-.64.81-.64,1.46s.22,1.14.65,1.46c.43.33,1.07.49,1.93.49Zm0-5.2c.75,0,1.31-.17,1.7-.5s.58-.8.58-1.38-.19-1.03-.58-1.36c-.39-.33-.96-.5-1.7-.5s-1.3.17-1.7.5c-.39.33-.59.78-.59,1.36s.2,1.05.59,1.38.96.5,1.7.5Z"/>
          <path class="cls-3" d="m194.63,252.15c-1.3,0-2.3-.5-3-1.5s-1.05-2.43-1.05-4.3.35-3.34,1.05-4.31c.7-.98,1.7-1.46,3-1.46s2.31.49,3.01,1.46c.69.98,1.04,2.41,1.04,4.3s-.35,3.32-1.05,4.31-1.7,1.5-3,1.5Zm0-1.39c.82,0,1.43-.36,1.83-1.07.4-.71.6-1.83.6-3.34s-.2-2.64-.6-3.34c-.4-.7-1.01-1.05-1.83-1.05s-1.42.35-1.82,1.05c-.41.7-.61,1.81-.61,3.32s.21,2.65.62,3.36c.41.71,1.02,1.07,1.82,1.07Z"/>
          <path class="cls-3" d="m204.23,252.15c-1.3,0-2.3-.5-3-1.5s-1.05-2.43-1.05-4.3.35-3.34,1.05-4.31c.7-.98,1.7-1.46,3-1.46s2.31.49,3.01,1.46c.69.98,1.04,2.41,1.04,4.3s-.35,3.32-1.05,4.31-1.7,1.5-3,1.5Zm0-1.39c.82,0,1.43-.36,1.83-1.07.4-.71.6-1.83.6-3.34s-.2-2.64-.6-3.34c-.4-.7-1.01-1.05-1.83-1.05s-1.42.35-1.82,1.05c-.41.7-.61,1.81-.61,3.32s.21,2.65.62,3.36c.41.71,1.02,1.07,1.82,1.07Z"/>
          <path class="cls-3" d="m210.31,255.46v-9.58c0-.31-.01-.63-.04-.95-.03-.33-.06-.65-.09-.98h1.57l.16,1.82h-.18c.17-.61.51-1.09,1.03-1.44.52-.35,1.13-.53,1.85-.53s1.34.17,1.87.5.95.81,1.24,1.43c.29.62.44,1.37.44,2.24s-.15,1.61-.44,2.24c-.29.63-.71,1.11-1.24,1.44-.53.33-1.16.5-1.87.5s-1.31-.17-1.83-.52-.86-.82-1.03-1.42h.18v5.25h-1.62Zm3.9-4.58c.7,0,1.27-.25,1.69-.74.42-.49.63-1.22.63-2.18s-.21-1.68-.63-2.17c-.42-.48-.98-.73-1.69-.73s-1.27.24-1.69.73c-.42.49-.63,1.21-.63,2.17s.21,1.69.63,2.18c.42.49.98.74,1.69.74Z"/>
          <path class="cls-3" d="m219.65,252v-1.9h1.9v1.9h-1.9Z"/>
          <path class="cls-3" d="m230.42,254.88c-.47-.79-.85-1.57-1.15-2.33-.3-.76-.52-1.54-.66-2.32s-.21-1.6-.21-2.44.07-1.67.21-2.45c.14-.78.36-1.55.66-2.3.3-.76.68-1.53,1.15-2.32h1.31c-.55,1.21-.97,2.39-1.24,3.56-.27,1.17-.41,2.34-.41,3.51s.14,2.34.41,3.51c.27,1.17.69,2.36,1.24,3.58h-1.31Z"/>
          <path class="cls-3" d="m233.35,252v-8.06h7.23v8.06h-1.6v-6.8h-4.03v6.8h-1.6Z"/>
          <path class="cls-3" d="m246.8,252.15c-1.3,0-2.33-.37-3.07-1.1-.75-.74-1.12-1.75-1.12-3.06,0-.84.16-1.58.49-2.21s.78-1.12,1.36-1.46c.58-.35,1.26-.52,2.02-.52s1.39.16,1.9.48c.51.32.9.77,1.17,1.35.27.58.4,1.27.4,2.06v.51h-6.08v-.93h4.98l-.27.21c0-.8-.18-1.42-.54-1.86s-.87-.66-1.54-.66c-.75,0-1.32.26-1.73.78-.41.52-.61,1.23-.61,2.14v.16c0,.95.23,1.66.7,2.14.46.48,1.12.72,1.98.72.47,0,.91-.07,1.32-.2.41-.13.8-.35,1.18-.66l.53,1.1c-.37.33-.83.58-1.36.76-.53.18-1.1.26-1.7.26Z"/>
          <path class="cls-3" d="m257.09,252v-3.12c-.3.16-.62.29-.96.38-.34.09-.7.14-1.09.14-1.16,0-2.02-.27-2.58-.82-.56-.55-.84-1.37-.84-2.47v-2.16h1.6v2.03c0,.74.17,1.27.5,1.6.33.33.85.5,1.57.5.36,0,.68-.04.96-.12s.55-.21.82-.38v-3.63h1.62v8.06h-1.58Z"/>
          <path class="cls-3" d="m264.24,252.15c-.71,0-1.34-.17-1.87-.5-.53-.33-.95-.81-1.24-1.44-.29-.63-.44-1.38-.44-2.24s.15-1.62.44-2.24c.29-.62.71-1.1,1.24-1.43s1.16-.5,1.87-.5,1.32.18,1.84.53c.52.35.87.83,1.04,1.44h-.18l.16-1.82h1.57c-.03.33-.06.66-.09.98-.03.33-.04.64-.04.95v6.13h-1.62v-1.79h.18c-.17.6-.52,1.07-1.05,1.42-.53.35-1.13.52-1.82.52Zm.4-1.26c.69,0,1.25-.25,1.67-.74.42-.49.63-1.22.63-2.18s-.21-1.68-.63-2.17c-.42-.48-.98-.73-1.67-.73s-1.27.24-1.69.73c-.42.49-.63,1.21-.63,2.17s.21,1.69.62,2.18c.42.49.98.74,1.7.74Z"/>
          <path class="cls-3" d="m272.76,252v-6.77h-2.85v-1.3h7.31v1.3h-2.86v6.77h-1.6Z"/>
          <path class="cls-3" d="m278.52,252v-8.06h1.6v2.82h2.29c1.06,0,1.85.22,2.38.66.53.44.8,1.09.8,1.93,0,.54-.12,1.02-.37,1.42-.25.4-.61.71-1.08.92-.47.21-1.05.32-1.74.32h-3.89Zm1.6-1.1h2.11c.6,0,1.06-.13,1.38-.38.32-.25.48-.64.48-1.16s-.16-.9-.47-1.14c-.31-.24-.78-.36-1.38-.36h-2.11v3.04Z"/>
          <path class="cls-3" d="m295.27,252.15c-1.22,0-2.18-.38-2.9-1.14-.72-.76-1.08-1.87-1.08-3.34v-1.39c0-1.5.32-2.71.97-3.63.65-.92,1.65-1.54,3-1.86l2.94-.7.46,1.3-3.3.77c-.58.13-1.05.37-1.42.72-.37.35-.65.77-.84,1.25-.19.48-.28.99-.28,1.54v.74h-.24c.13-.49.33-.91.62-1.26.28-.35.63-.62,1.06-.82.42-.2.89-.3,1.42-.3.69,0,1.3.16,1.82.48.52.32.93.78,1.22,1.38.29.6.44,1.32.44,2.14s-.16,1.59-.48,2.21c-.32.62-.77,1.09-1.35,1.42-.58.33-1.27.5-2.06.5Zm-.05-1.25c.73,0,1.29-.24,1.7-.71.41-.47.62-1.18.62-2.1s-.21-1.62-.62-2.1c-.42-.48-.98-.72-1.7-.72s-1.28.24-1.7.71-.62,1.15-.62,2.02c0,.96.21,1.68.62,2.17.41.49.98.73,1.7.73Z"/>
          <path class="cls-3" d="m304.96,252.15c-1.3,0-2.33-.37-3.07-1.1-.75-.74-1.12-1.75-1.12-3.06,0-.84.16-1.58.49-2.21s.78-1.12,1.36-1.46c.58-.35,1.26-.52,2.02-.52s1.39.16,1.9.48c.51.32.9.77,1.17,1.35.27.58.4,1.27.4,2.06v.51h-6.08v-.93h4.98l-.27.21c0-.8-.18-1.42-.54-1.86s-.87-.66-1.54-.66c-.75,0-1.32.26-1.73.78-.41.52-.61,1.23-.61,2.14v.16c0,.95.23,1.66.7,2.14.46.48,1.12.72,1.98.72.47,0,.91-.07,1.32-.2.41-.13.8-.35,1.18-.66l.53,1.1c-.37.33-.83.58-1.36.76-.53.18-1.1.26-1.7.26Z"/>
          <path class="cls-3" d="m312.9,252.15c-.7,0-1.37-.09-1.98-.26-.62-.18-1.13-.43-1.52-.76l.5-1.09c.39.31.85.54,1.36.7s1.06.23,1.65.23c.74,0,1.27-.11,1.61-.33.34-.22.5-.53.5-.94s-.14-.69-.42-.9c-.28-.2-.68-.3-1.22-.3h-1.98v-1.15h1.82c.48,0,.85-.1,1.12-.3.27-.2.4-.49.4-.85,0-.38-.16-.68-.46-.9-.31-.21-.79-.32-1.44-.32-.55,0-1.06.07-1.52.21-.46.14-.9.35-1.31.62l-.48-1.04c.44-.33.96-.58,1.55-.74.6-.16,1.24-.24,1.94-.24,1.04,0,1.84.2,2.38.58.54.39.82.95.82,1.67,0,.5-.17.93-.5,1.28-.34.35-.79.57-1.35.64v-.21c.65.03,1.17.23,1.56.58.39.36.58.83.58,1.42,0,.73-.31,1.3-.92,1.74-.61.43-1.51.65-2.68.65Z"/>
          <path class="cls-3" d="m322.72,255.46v-9.58c0-.31-.01-.63-.04-.95-.03-.33-.06-.65-.09-.98h1.57l.16,1.82h-.18c.17-.61.51-1.09,1.03-1.44.52-.35,1.13-.53,1.85-.53s1.34.17,1.87.5.95.81,1.24,1.43c.29.62.44,1.37.44,2.24s-.15,1.61-.44,2.24c-.29.63-.71,1.11-1.24,1.44-.53.33-1.16.5-1.87.5s-1.31-.17-1.83-.52-.86-.82-1.03-1.42h.18v5.25h-1.62Zm3.9-4.58c.7,0,1.27-.25,1.69-.74.42-.49.63-1.22.63-2.18s-.21-1.68-.63-2.17c-.42-.48-.98-.73-1.69-.73s-1.27.24-1.69.73c-.42.49-.63,1.21-.63,2.17s.21,1.69.63,2.18c.42.49.98.74,1.69.74Z"/>
          <path class="cls-3" d="m332.1,252.21l-.54-1.28c.36-.15.67-.34.92-.57s.45-.53.59-.89c.14-.36.25-.81.31-1.34.06-.53.1-1.18.1-1.94v-2.26h6.08v8.06h-1.6v-6.8h-2.99v1.04c0,1.22-.1,2.22-.29,3.02-.19.8-.5,1.43-.92,1.9-.42.46-.97.81-1.66,1.05Z"/>
          <path class="cls-3" d="m341.19,254.08v-3.33h.9c.35-.53.61-1.16.77-1.87.16-.71.24-1.58.24-2.59v-2.35h5.9v6.82h1.3v3.33h-1.39v-2.08h-6.32v2.08h-1.39Zm2.38-3.31h3.9v-5.58h-2.99v1.42c0,.78-.08,1.54-.23,2.28-.16.74-.38,1.37-.68,1.88Z"/>
          <path class="cls-3" d="m351.95,255.46v-9.58c0-.31-.01-.63-.04-.95-.03-.33-.06-.65-.09-.98h1.57l.16,1.82h-.18c.17-.61.51-1.09,1.03-1.44.52-.35,1.13-.53,1.85-.53s1.34.17,1.87.5.95.81,1.24,1.43c.29.62.44,1.37.44,2.24s-.15,1.61-.44,2.24c-.29.63-.71,1.11-1.24,1.44-.53.33-1.16.5-1.87.5s-1.31-.17-1.83-.52-.86-.82-1.03-1.42h.18v5.25h-1.62Zm3.9-4.58c.7,0,1.27-.25,1.69-.74.42-.49.63-1.22.63-2.18s-.21-1.68-.63-2.17c-.42-.48-.98-.73-1.69-.73s-1.27.24-1.69.73c-.42.49-.63,1.21-.63,2.17s.21,1.69.63,2.18c.42.49.98.74,1.69.74Z"/>
          <path class="cls-3" d="m364.98,252.15c-.71,0-1.34-.17-1.87-.5-.53-.33-.95-.81-1.24-1.44-.29-.63-.44-1.38-.44-2.24s.15-1.62.44-2.24c.29-.62.71-1.1,1.24-1.43s1.16-.5,1.87-.5,1.32.18,1.84.53c.52.35.87.83,1.04,1.44h-.18l.16-1.82h1.57c-.03.33-.06.66-.09.98-.03.33-.04.64-.04.95v6.13h-1.62v-1.79h.18c-.17.6-.52,1.07-1.05,1.42-.53.35-1.13.52-1.82.52Zm.4-1.26c.69,0,1.25-.25,1.67-.74.42-.49.63-1.22.63-2.18s-.21-1.68-.63-2.17c-.42-.48-.98-.73-1.67-.73s-1.27.24-1.69.73c-.42.49-.63,1.21-.63,2.17s.21,1.69.62,2.18c.42.49.98.74,1.7.74Z"/>
          <path class="cls-3" d="m371.76,252v-8.06h1.34l2.91,5.15,2.91-5.15h1.34v8.06h-1.42v-6.26h.35l-2.8,4.96h-.77l-2.8-4.96h.35v6.26h-1.42Z"/>
          <path class="cls-3" d="m382.71,252v-8.06h1.6v3.28h4.08v-3.28h1.6v8.06h-1.6v-3.52h-4.08v3.52h-1.6Z"/>
          <path class="cls-3" d="m392.42,252v-8.06h1.47v6.51h-.45l4.86-6.51h1.34v8.06h-1.46v-6.53h.46l-4.9,6.53h-1.34Z"/>
          <path class="cls-3" d="m402.08,252v-8.06h1.6v3.3h1.39l2.51-3.3h1.76l-3.01,3.97-.4-.51c.31.03.58.11.8.23.22.12.44.3.66.54.21.23.43.54.66.93l1.68,2.91h-1.73l-1.44-2.46c-.16-.28-.32-.49-.46-.65-.15-.16-.32-.26-.51-.32-.19-.06-.43-.09-.7-.09h-1.2v3.52h-1.6Z"/>
          <path class="cls-3" d="m414.07,252.15c-.71,0-1.34-.17-1.87-.5-.53-.33-.95-.81-1.24-1.44-.29-.63-.44-1.38-.44-2.24s.15-1.62.44-2.24c.29-.62.71-1.1,1.24-1.43s1.16-.5,1.87-.5,1.32.18,1.84.53c.52.35.87.83,1.04,1.44h-.18l.16-1.82h1.57c-.03.33-.06.66-.09.98-.03.33-.04.64-.04.95v6.13h-1.62v-1.79h.18c-.17.6-.52,1.07-1.05,1.42-.53.35-1.13.52-1.82.52Zm.4-1.26c.69,0,1.25-.25,1.67-.74.42-.49.63-1.22.63-2.18s-.21-1.68-.63-2.17c-.42-.48-.98-.73-1.67-.73s-1.27.24-1.69.73c-.42.49-.63,1.21-.63,2.17s.21,1.69.62,2.18c.42.49.98.74,1.7.74Z"/>
          <path class="cls-3" d="m421.35,254.88h-1.31c.55-1.21.97-2.39,1.25-3.57.28-1.17.42-2.35.42-3.52s-.14-2.33-.42-3.5c-.28-1.17-.69-2.36-1.25-3.57h1.31c.48.79.87,1.56,1.17,2.32.3.76.51,1.53.65,2.31.13.78.2,1.6.2,2.44s-.07,1.67-.2,2.46c-.13.78-.35,1.55-.65,2.31-.3.76-.69,1.53-1.17,2.32Z"/>
        </g>
        <g>
          <path class="cls-3" d="m556.19,168.26v-2.21h-5.04v-1.44l5.36-7.63h1.66v7.5h1.62v1.57h-1.62v2.21h-1.98Zm0-3.78v-5.07h.38l-3.89,5.55v-.48h3.5Z"/>
          <path class="cls-3" d="m564.9,168.42c-1.32,0-2.34-.5-3.06-1.51s-1.07-2.45-1.07-4.31.36-3.32,1.07-4.3,1.73-1.47,3.06-1.47,2.35.49,3.06,1.47c.71.98,1.06,2.41,1.06,4.29s-.36,3.32-1.06,4.33c-.71,1.01-1.73,1.51-3.06,1.51Zm0-1.7c.73,0,1.26-.33,1.62-1,.35-.67.53-1.71.53-3.14s-.18-2.47-.53-3.11c-.35-.64-.89-.97-1.62-.97s-1.25.32-1.61.97c-.36.65-.54,1.68-.54,3.11s.18,2.48.54,3.14c.36.67.89,1,1.61,1Z"/>
          <path class="cls-3" d="m569.65,168.26l3.76-4.62v.91l-3.55-4.37h2.37l2.32,2.99h-.72l2.32-2.99h2.35l-3.52,4.37v-.91l3.74,4.62h-2.38l-2.51-3.22h.72l-2.53,3.22h-2.37Z"/>
          <path class="cls-3" d="m583.91,168.42c-1.42,0-2.51-.49-3.29-1.47-.77-.98-1.16-2.36-1.16-4.13,0-1.28.2-2.37.59-3.26.39-.89.96-1.57,1.69-2.04.73-.47,1.61-.71,2.63-.71.61,0,1.21.11,1.81.33.6.22,1.11.53,1.54.94l-.69,1.54c-.39-.36-.82-.63-1.28-.81s-.92-.26-1.39-.26c-.96,0-1.69.33-2.19.98-.5.65-.75,1.62-.75,2.91v1.2h-.19c.08-.54.27-1.01.54-1.4.28-.39.63-.69,1.07-.9s.92-.31,1.46-.31c.66,0,1.25.15,1.76.46.51.31.91.74,1.21,1.28.29.54.44,1.17.44,1.87s-.16,1.37-.49,1.94-.77,1.02-1.34,1.34-1.22.49-1.97.49Zm-.11-1.63c.39,0,.74-.09,1.04-.26.3-.17.53-.41.7-.73s.25-.67.25-1.08-.08-.78-.25-1.09c-.17-.31-.4-.55-.7-.73-.3-.18-.65-.26-1.04-.26s-.74.09-1.04.26c-.3.18-.53.42-.7.73-.17.31-.26.67-.26,1.09s.09.77.26,1.08c.17.31.4.56.7.73.3.17.65.26,1.04.26Z"/>
          <path class="cls-3" d="m593.1,168.42c-1.32,0-2.34-.5-3.06-1.51s-1.07-2.45-1.07-4.31.36-3.32,1.07-4.3,1.73-1.47,3.06-1.47,2.35.49,3.06,1.47c.71.98,1.06,2.41,1.06,4.29s-.35,3.32-1.06,4.33c-.71,1.01-1.73,1.51-3.06,1.51Zm0-1.7c.73,0,1.26-.33,1.62-1,.35-.67.53-1.71.53-3.14s-.18-2.47-.53-3.11c-.35-.64-.89-.97-1.62-.97s-1.25.32-1.61.97c-.36.65-.54,1.68-.54,3.11s.18,2.48.54,3.14c.36.67.89,1,1.61,1Z"/>
        </g>
        <g>
          <path class="cls-3" d="m653.76,74.79c-1.32,0-2.35-.28-3.1-.85s-1.11-1.35-1.11-2.35c0-.79.24-1.45.72-1.97.48-.52,1.1-.83,1.87-.93v.34c-.69-.15-1.25-.47-1.67-.98-.42-.5-.63-1.11-.63-1.82,0-.95.35-1.69,1.05-2.23.7-.54,1.66-.81,2.87-.81s2.19.27,2.89.81c.7.54,1.05,1.28,1.05,2.23,0,.71-.2,1.33-.6,1.84-.4.51-.94.83-1.62.94v-.32c.76.11,1.37.42,1.82.94.46.52.69,1.17.69,1.96,0,1-.37,1.79-1.11,2.35s-1.78.85-3.11.85Zm0-1.6c.78,0,1.36-.15,1.74-.44.38-.29.58-.73.58-1.3s-.19-1.01-.58-1.3c-.38-.29-.96-.43-1.74-.43s-1.35.14-1.74.43c-.39.29-.58.72-.58,1.3s.19,1.01.58,1.3c.39.29.97.44,1.74.44Zm0-5.07c.66,0,1.17-.15,1.51-.45.35-.3.52-.71.52-1.23s-.17-.92-.52-1.21-.85-.44-1.51-.44-1.15.15-1.5.44c-.35.29-.52.7-.52,1.21s.17.93.52,1.23c.35.3.84.45,1.5.45Z"/>
          <path class="cls-3" d="m663.36,74.79c-1.32,0-2.34-.5-3.06-1.51-.71-1.01-1.07-2.45-1.07-4.31s.36-3.32,1.07-4.3c.71-.98,1.73-1.47,3.06-1.47s2.35.49,3.06,1.47c.71.98,1.06,2.41,1.06,4.29s-.35,3.32-1.06,4.33c-.71,1.01-1.73,1.51-3.06,1.51Zm0-1.7c.73,0,1.26-.33,1.62-1,.35-.67.53-1.71.53-3.14s-.18-2.47-.53-3.11c-.35-.64-.89-.97-1.62-.97s-1.25.32-1.61.97c-.36.65-.54,1.68-.54,3.11s.18,2.48.54,3.14c.36.67.89,1,1.61,1Z"/>
          <path class="cls-3" d="m668.11,74.63l3.76-4.62v.91l-3.55-4.37h2.37l2.32,2.99h-.72l2.32-2.99h2.35l-3.52,4.37v-.91l3.74,4.62h-2.38l-2.51-3.22h.72l-2.53,3.22h-2.37Z"/>
          <path class="cls-3" d="m678.94,74.63v-1.71h2.59v-7.84h.99l-3.33,1.98v-1.95l2.93-1.76h1.47v9.57h2.43v1.71h-7.09Z"/>
          <path class="cls-3" d="m691.57,74.79c-1.32,0-2.34-.5-3.06-1.51-.71-1.01-1.07-2.45-1.07-4.31s.36-3.32,1.07-4.3c.71-.98,1.73-1.47,3.06-1.47s2.35.49,3.06,1.47c.71.98,1.06,2.41,1.06,4.29s-.35,3.32-1.06,4.33c-.71,1.01-1.73,1.51-3.06,1.51Zm0-1.7c.73,0,1.26-.33,1.62-1,.35-.67.53-1.71.53-3.14s-.18-2.47-.53-3.11c-.35-.64-.89-.97-1.62-.97s-1.25.32-1.61.97c-.36.65-.54,1.68-.54,3.11s.18,2.48.54,3.14c.36.67.89,1,1.61,1Z"/>
          <path class="cls-3" d="m701.17,74.79c-1.32,0-2.34-.5-3.06-1.51s-1.07-2.45-1.07-4.31.36-3.32,1.07-4.3c.71-.98,1.73-1.47,3.06-1.47s2.35.49,3.06,1.47c.71.98,1.06,2.41,1.06,4.29s-.35,3.32-1.06,4.33c-.71,1.01-1.73,1.51-3.06,1.51Zm0-1.7c.73,0,1.26-.33,1.62-1,.35-.67.53-1.71.53-3.14s-.18-2.47-.53-3.11c-.35-.64-.89-.97-1.62-.97s-1.25.32-1.61.97c-.36.65-.54,1.68-.54,3.11s.18,2.48.54,3.14c.36.67.89,1,1.61,1Z"/>
        </g>
        <g>
          <path class="cls-3" d="m654.08,121.06c-.77,0-1.5-.12-2.21-.34s-1.29-.56-1.76-.98l.58-1.26c.52.41,1.06.7,1.6.9s1.12.29,1.74.29c.79,0,1.39-.17,1.8-.5.41-.33.62-.81.62-1.42s-.21-1.07-.62-1.38c-.41-.31-1.02-.47-1.82-.47h-1.74v-1.34h1.62c.68,0,1.23-.17,1.63-.52.41-.35.61-.82.61-1.42,0-.54-.19-.96-.56-1.26-.37-.29-.91-.44-1.6-.44-1.17,0-2.2.41-3.09,1.23l-.56-1.26c.44-.44.99-.78,1.66-1.02.67-.24,1.38-.36,2.11-.36,1.13,0,2.02.26,2.67.78.65.52.98,1.24.98,2.15,0,.69-.2,1.29-.58,1.78-.39.49-.92.82-1.59.98v-.18c.8.13,1.42.45,1.85.95.43.51.65,1.14.65,1.9,0,1-.35,1.79-1.06,2.36-.71.57-1.68.86-2.92.86Z"/>
          <path class="cls-3" d="m660.91,120.92v-1.39h2.62v-8.48h.83l-3.2,1.95v-1.6l2.83-1.76h1.2v9.89h2.46v1.39h-6.75Z"/>
          <path class="cls-3" d="m669.92,120.92v-1.23l3.87-4.05c.5-.52.87-1.01,1.12-1.47.25-.46.37-.93.37-1.42,0-.61-.19-1.07-.57-1.38-.38-.31-.93-.46-1.64-.46-.57,0-1.1.1-1.59.3s-.97.51-1.43.93l-.58-1.26c.45-.42,1-.75,1.67-1,.67-.25,1.37-.38,2.12-.38,1.17,0,2.08.27,2.71.8.63.53.95,1.3.95,2.29,0,.7-.17,1.38-.51,2.02-.34.65-.85,1.31-1.54,1.99l-3.34,3.38v-.45h5.86v1.39h-7.47Z"/>
          <path class="cls-3" d="m682.99,121.06c-1.3,0-2.3-.5-3-1.5-.7-1-1.05-2.43-1.05-4.3s.35-3.34,1.05-4.31c.7-.98,1.7-1.46,3-1.46s2.31.49,3.01,1.46,1.04,2.41,1.04,4.3-.35,3.31-1.05,4.31c-.7,1-1.7,1.5-3,1.5Zm0-1.39c.82,0,1.43-.36,1.83-1.07s.6-1.83.6-3.34-.2-2.64-.6-3.34-1.01-1.05-1.83-1.05-1.42.35-1.82,1.05-.61,1.81-.61,3.32.21,2.64.62,3.36c.41.71,1.02,1.07,1.82,1.07Z"/>
          <path class="cls-3" d="m693.34,124.37v-9.58c0-.31-.01-.63-.04-.95-.03-.33-.06-.65-.09-.98h1.57l.16,1.82h-.18c.17-.61.51-1.09,1.03-1.44.52-.35,1.13-.53,1.85-.53s1.34.17,1.87.5.95.81,1.24,1.43c.29.62.44,1.37.44,2.24s-.15,1.61-.44,2.24c-.29.63-.71,1.11-1.24,1.44-.53.33-1.16.5-1.87.5s-1.31-.17-1.83-.52-.86-.82-1.03-1.42h.18v5.25h-1.62Zm3.9-4.58c.7,0,1.27-.25,1.69-.74.42-.49.63-1.22.63-2.18s-.21-1.68-.63-2.17c-.42-.49-.98-.73-1.69-.73s-1.27.24-1.69.73c-.42.49-.63,1.21-.63,2.17s.21,1.69.63,2.18c.42.49.98.74,1.69.74Z"/>
          <path class="cls-3" d="m702.69,120.92v-1.9h1.9v1.9h-1.9Z"/>
        </g>
        <g>
          <path class="cls-3" d="m650.72,212.74v-1.23l3.87-4.05c.5-.52.88-1.01,1.12-1.47.25-.46.37-.93.37-1.42,0-.61-.19-1.07-.57-1.38-.38-.31-.93-.46-1.64-.46-.57,0-1.1.1-1.59.3-.5.2-.97.51-1.43.93l-.58-1.26c.45-.42,1.01-.75,1.67-1,.67-.25,1.37-.38,2.12-.38,1.17,0,2.08.27,2.71.8.63.53.95,1.3.95,2.29,0,.7-.17,1.38-.51,2.02-.34.65-.85,1.31-1.54,1.99l-3.34,3.38v-.45h5.86v1.39h-7.47Z"/>
          <path class="cls-3" d="m660.59,212.74l5.54-10.51v.64h-6.18v-1.41h7.68v1.23l-5.22,10.05h-1.82Z"/>
          <path class="cls-3" d="m673.28,212.89c-.77,0-1.5-.11-2.21-.34-.7-.23-1.29-.56-1.76-.98l.58-1.26c.52.41,1.06.71,1.6.9.54.19,1.13.29,1.74.29.79,0,1.39-.17,1.8-.5.41-.33.62-.81.62-1.42s-.21-1.07-.62-1.38c-.41-.31-1.02-.47-1.82-.47h-1.74v-1.34h1.62c.68,0,1.23-.17,1.63-.52s.61-.82.61-1.42c0-.54-.19-.96-.56-1.26s-.91-.44-1.6-.44c-1.17,0-2.2.41-3.09,1.23l-.56-1.26c.44-.44.99-.78,1.66-1.02s1.38-.36,2.11-.36c1.13,0,2.02.26,2.67.78.65.52.98,1.23.98,2.15,0,.69-.19,1.29-.58,1.78s-.92.82-1.59.98v-.18c.8.13,1.42.45,1.85.95.43.51.65,1.14.65,1.9,0,1-.35,1.79-1.06,2.36-.71.57-1.68.86-2.92.86Z"/>
          <path class="cls-3" d="m682.99,212.89c-1.3,0-2.3-.5-3-1.5-.7-1-1.05-2.43-1.05-4.3s.35-3.34,1.05-4.31c.7-.98,1.7-1.46,3-1.46s2.31.49,3.01,1.46c.69.98,1.04,2.41,1.04,4.3s-.35,3.31-1.05,4.31c-.7,1-1.7,1.5-3,1.5Zm0-1.39c.82,0,1.43-.36,1.83-1.07s.6-1.83.6-3.34-.2-2.64-.6-3.34c-.4-.7-1.01-1.05-1.83-1.05s-1.42.35-1.82,1.05c-.41.7-.61,1.8-.61,3.32s.21,2.65.62,3.36c.41.71,1.02,1.07,1.82,1.07Z"/>
          <path class="cls-3" d="m693.34,216.2v-9.58c0-.31-.01-.63-.04-.95-.03-.33-.06-.65-.09-.98h1.57l.16,1.82h-.18c.17-.61.51-1.09,1.03-1.44.52-.35,1.13-.53,1.85-.53s1.34.17,1.87.5.95.81,1.24,1.43c.29.62.44,1.37.44,2.24s-.15,1.61-.44,2.24c-.29.63-.71,1.11-1.24,1.44s-1.16.5-1.87.5-1.31-.17-1.83-.52c-.52-.35-.86-.82-1.03-1.42h.18v5.25h-1.62Zm3.9-4.58c.7,0,1.27-.24,1.69-.74.42-.49.63-1.22.63-2.18s-.21-1.68-.63-2.17c-.42-.48-.98-.73-1.69-.73s-1.27.24-1.69.73c-.42.49-.63,1.21-.63,2.17s.21,1.69.63,2.18c.42.49.98.74,1.69.74Z"/>
          <path class="cls-3" d="m702.69,212.74v-1.9h1.9v1.9h-1.9Z"/>
        </g>
        <g>
          <path class="cls-3" d="m658.96,168.42c-1.42,0-2.51-.49-3.29-1.47-.77-.98-1.16-2.36-1.16-4.13,0-1.28.2-2.37.59-3.26.39-.89.96-1.57,1.69-2.04.73-.47,1.61-.71,2.63-.71.61,0,1.21.11,1.81.33.6.22,1.11.53,1.54.94l-.69,1.54c-.39-.36-.82-.63-1.28-.81s-.92-.26-1.39-.26c-.96,0-1.69.33-2.19.98-.5.65-.75,1.62-.75,2.91v1.2h-.19c.08-.54.27-1.01.54-1.4.28-.39.63-.69,1.07-.9s.92-.31,1.46-.31c.66,0,1.25.15,1.76.46.51.31.91.74,1.21,1.28.29.54.44,1.17.44,1.87s-.16,1.37-.49,1.94-.77,1.02-1.34,1.34-1.22.49-1.97.49Zm-.11-1.63c.39,0,.74-.09,1.04-.26.3-.17.53-.41.7-.73s.25-.67.25-1.08-.08-.78-.25-1.09c-.17-.31-.4-.55-.7-.73-.3-.18-.65-.26-1.04-.26s-.74.09-1.04.26c-.3.18-.53.42-.7.73-.17.31-.26.67-.26,1.09s.09.77.26,1.08c.17.31.4.56.7.73.3.17.65.26,1.04.26Z"/>
          <path class="cls-3" d="m668.16,168.42c-1.32,0-2.34-.5-3.06-1.51-.71-1.01-1.07-2.45-1.07-4.31s.36-3.32,1.07-4.3c.71-.98,1.73-1.47,3.06-1.47s2.35.49,3.06,1.47c.71.98,1.06,2.41,1.06,4.29s-.35,3.32-1.06,4.33c-.71,1.01-1.73,1.51-3.06,1.51Zm0-1.7c.73,0,1.26-.33,1.62-1,.35-.67.53-1.71.53-3.14s-.18-2.47-.53-3.11c-.35-.64-.89-.97-1.62-.97s-1.25.32-1.61.97c-.36.65-.54,1.68-.54,3.11s.18,2.48.54,3.14c.36.67.89,1,1.61,1Z"/>
          <path class="cls-3" d="m672.91,168.26l3.76-4.62v.91l-3.55-4.37h2.37l2.32,2.99h-.72l2.32-2.99h2.35l-3.52,4.37v-.91l3.74,4.62h-2.38l-2.51-3.22h.72l-2.53,3.22h-2.37Z"/>
          <path class="cls-3" d="m685.92,168.42c-.61,0-1.21-.11-1.81-.34-.6-.23-1.11-.54-1.54-.94l.69-1.54c.39.36.82.63,1.28.82.46.18.92.27,1.39.27.95,0,1.68-.33,2.18-.98s.76-1.62.76-2.91v-1.2h.19c-.07.53-.26,1-.54,1.39-.29.4-.65.7-1.08.9-.43.21-.91.31-1.45.31-.65,0-1.24-.15-1.75-.46-.52-.31-.92-.74-1.22-1.29-.29-.55-.44-1.17-.44-1.86,0-.74.16-1.39.49-1.95.33-.56.77-1.01,1.34-1.34.56-.33,1.22-.49,1.95-.49,1.43,0,2.53.49,3.3,1.46.77.98,1.16,2.35,1.16,4.14,0,1.27-.19,2.35-.58,3.25-.39.9-.95,1.58-1.69,2.05s-1.62.7-2.64.7Zm.58-5.84c.39,0,.74-.08,1.04-.26.3-.17.53-.41.7-.73.17-.31.26-.67.26-1.08s-.08-.78-.26-1.09-.41-.55-.7-.73-.65-.26-1.04-.26-.74.09-1.04.26c-.3.18-.53.42-.7.73-.17.31-.25.67-.25,1.09s.08.77.25,1.08c.17.32.4.56.7.73.3.17.65.26,1.04.26Z"/>
          <path class="cls-3" d="m696.37,168.42c-1.32,0-2.34-.5-3.06-1.51s-1.07-2.45-1.07-4.31.36-3.32,1.07-4.3,1.73-1.47,3.06-1.47,2.35.49,3.06,1.47c.71.98,1.06,2.41,1.06,4.29s-.35,3.32-1.06,4.33c-.71,1.01-1.73,1.51-3.06,1.51Zm0-1.7c.73,0,1.26-.33,1.62-1,.35-.67.53-1.71.53-3.14s-.18-2.47-.53-3.11c-.35-.64-.89-.97-1.62-.97s-1.25.32-1.61.97c-.36.65-.54,1.68-.54,3.11s.18,2.48.54,3.14c.36.67.89,1,1.61,1Z"/>
        </g>
        <g>
          <path class="cls-3" d="m765.96,74.63v-11.28h9.87v11.28h-2.05v-9.6h-5.79v9.6h-2.03Z"/>
          <path class="cls-3" d="m782.16,74.79c-1.35,0-2.42-.37-3.18-1.12-.77-.75-1.15-1.77-1.15-3.07,0-.84.17-1.58.5-2.21s.79-1.12,1.38-1.47c.59-.35,1.28-.53,2.07-.53s1.43.17,1.95.5c.52.33.92.79,1.19,1.39.27.6.41,1.3.41,2.1v.53h-5.89v-1.06h4.46l-.27.22c0-.75-.16-1.32-.47-1.71s-.77-.59-1.37-.59c-.66,0-1.17.23-1.53.7-.36.47-.54,1.12-.54,1.97v.21c0,.88.22,1.53.65,1.96.43.43,1.04.65,1.83.65.46,0,.89-.06,1.29-.18.4-.12.78-.32,1.14-.6l.59,1.34c-.38.31-.84.55-1.38.72s-1.1.26-1.7.26Z"/>
          <path class="cls-3" d="m792.32,74.63v-2.94c-.3.14-.61.25-.93.32-.32.08-.66.11-1.01.11-1.18,0-2.07-.28-2.65-.85s-.87-1.41-.87-2.53v-2.19h1.98v2.02c0,.68.15,1.18.45,1.48.3.3.78.46,1.44.46.31,0,.59-.03.83-.1s.48-.17.7-.3v-3.55h1.98v8.08h-1.94Z"/>
          <path class="cls-3" d="m799.72,74.79c-.7,0-1.32-.17-1.86-.5-.53-.34-.95-.82-1.25-1.45-.3-.63-.45-1.38-.45-2.26s.15-1.62.45-2.25c.3-.62.71-1.1,1.25-1.44s1.15-.5,1.86-.5,1.28.17,1.8.5c.52.34.86.79,1.03,1.35h-.18l.18-1.7h1.92c-.03.33-.06.67-.09,1.01-.03.34-.04.68-.04,1.01v6.06h-1.98l-.02-1.66h.19c-.17.55-.52,1-1.04,1.33-.52.33-1.11.5-1.78.5Zm.56-1.54c.63,0,1.14-.22,1.52-.66.38-.44.58-1.11.58-2.01s-.19-1.56-.58-2c-.38-.44-.89-.66-1.52-.66s-1.14.22-1.52.66c-.38.44-.58,1.1-.58,2s.19,1.57.57,2.01c.38.44.89.66,1.53.66Z"/>
          <path class="cls-3" d="m808.42,74.63v-6.51h-2.77v-1.57h7.54v1.57h-2.78v6.51h-1.98Z"/>
          <path class="cls-3" d="m814.42,74.63v-8.08h1.98v2.7h2.13c1.08,0,1.89.23,2.43.68.54.45.82,1.11.82,1.96,0,.55-.13,1.04-.38,1.45-.26.41-.63.73-1.11.95-.49.22-1.07.34-1.75.34h-4.11Zm1.98-1.31h1.86c.54,0,.96-.11,1.25-.34s.43-.58.43-1.05-.14-.81-.42-1.03c-.28-.22-.7-.33-1.26-.33h-1.86v2.75Z"/>
          <path class="cls-3" d="m827.83,74.63v-8.08h1.98v3.17h3.65v-3.17h1.98v8.08h-1.98v-3.38h-3.65v3.38h-1.98Z"/>
          <path class="cls-3" d="m840.9,74.79c-.7,0-1.32-.17-1.86-.5-.53-.34-.95-.82-1.25-1.45-.3-.63-.45-1.38-.45-2.26s.15-1.62.45-2.25c.3-.62.71-1.1,1.25-1.44s1.15-.5,1.86-.5,1.28.17,1.8.5c.52.34.86.79,1.03,1.35h-.18l.18-1.7h1.92c-.03.33-.06.67-.09,1.01-.03.34-.04.68-.04,1.01v6.06h-1.98l-.02-1.66h.19c-.17.55-.52,1-1.04,1.33-.52.33-1.11.5-1.78.5Zm.56-1.54c.63,0,1.14-.22,1.52-.66.38-.44.58-1.11.58-2.01s-.19-1.56-.58-2c-.38-.44-.89-.66-1.52-.66s-1.14.22-1.52.66c-.38.44-.58,1.1-.58,2s.19,1.57.57,2.01c.38.44.89.66,1.53.66Z"/>
          <path class="cls-3" d="m851.06,74.63l3.76-4.62v.91l-3.55-4.37h2.37l2.32,2.99h-.72l2.32-2.99h2.35l-3.52,4.37v-.91l3.74,4.62h-2.38l-2.51-3.22h.72l-2.53,3.22h-2.37Z"/>
          <path class="cls-3" d="m864.8,74.79c-.83,0-1.55-.17-2.16-.51-.61-.34-1.08-.83-1.42-1.46-.34-.63-.5-1.38-.5-2.24s.17-1.61.5-2.23c.34-.62.81-1.11,1.42-1.45.61-.34,1.33-.51,2.16-.51s1.55.17,2.17.51,1.09.82,1.42,1.45c.34.62.5,1.37.5,2.23s-.17,1.61-.5,2.24c-.34.63-.81,1.12-1.42,1.46s-1.34.51-2.17.51Zm0-1.54c.63,0,1.13-.22,1.5-.66.37-.44.56-1.11.56-2.01s-.19-1.56-.56-2c-.37-.44-.87-.66-1.5-.66s-1.13.22-1.5.66-.56,1.1-.56,2,.19,1.57.56,2.01c.37.44.88.66,1.5.66Z"/>
          <path class="cls-3" d="m870.42,74.85l-.62-1.57c.35-.13.65-.3.89-.5.24-.21.43-.47.58-.8.14-.33.25-.73.31-1.22.06-.49.1-1.06.1-1.74v-2.48h6.43v8.08h-1.98v-6.54h-2.62v1.01c0,1.16-.11,2.14-.32,2.92-.21.79-.54,1.41-.99,1.87-.45.46-1.04.78-1.76.98Z"/>
          <path class="cls-3" d="m884.15,74.79c-.83,0-1.56-.17-2.18-.51s-1.11-.83-1.45-1.46c-.34-.63-.51-1.39-.51-2.26s.17-1.62.52-2.24.83-1.09,1.45-1.42c.62-.33,1.34-.5,2.18-.5.53,0,1.05.08,1.56.25.51.17.92.4,1.24.71l-.61,1.39c-.29-.27-.61-.47-.97-.6s-.71-.2-1.05-.2c-.71,0-1.27.22-1.67.67s-.6,1.1-.6,1.95.2,1.51.6,1.97c.4.46.96.69,1.67.69.33,0,.67-.06,1.03-.19s.69-.33.98-.59l.61,1.38c-.33.31-.75.55-1.26.72s-1.02.26-1.54.26Z"/>
          <path class="cls-3" d="m890.4,74.63v-6.51h-2.77v-1.57h7.54v1.57h-2.78v6.51h-1.98Z"/>
          <path class="cls-3" d="m900.29,74.79c-1.35,0-2.42-.37-3.18-1.12-.77-.75-1.15-1.77-1.15-3.07,0-.84.17-1.58.5-2.21.33-.63.79-1.12,1.38-1.47.59-.35,1.28-.53,2.07-.53s1.43.17,1.95.5c.52.33.92.79,1.19,1.39.27.6.41,1.3.41,2.1v.53h-5.89v-1.06h4.46l-.27.22c0-.75-.16-1.32-.47-1.71-.31-.39-.77-.59-1.37-.59-.66,0-1.17.23-1.53.7-.36.47-.54,1.12-.54,1.97v.21c0,.88.22,1.53.65,1.96.43.43,1.04.65,1.83.65.46,0,.89-.06,1.29-.18.4-.12.78-.32,1.14-.6l.59,1.34c-.38.31-.84.55-1.38.72s-1.1.26-1.7.26Z"/>
        </g>
        <g>
          <path class="cls-3" d="m808.29,212.74v-1.39h2.62v-8.48h.83l-3.2,1.95v-1.6l2.83-1.76h1.2v9.89h2.46v1.39h-6.75Z"/>
          <path class="cls-3" d="m820.77,212.89c-1.3,0-2.31-.28-3.04-.83s-1.09-1.33-1.09-2.32c0-.79.24-1.44.72-1.96.48-.52,1.11-.83,1.89-.94v.29c-.7-.15-1.27-.47-1.69-.97-.42-.5-.63-1.11-.63-1.82,0-.94.34-1.67,1.02-2.21.68-.53,1.62-.8,2.82-.8s2.15.27,2.83.8c.68.53,1.02,1.27,1.02,2.21,0,.71-.2,1.33-.6,1.83-.4.51-.95.82-1.64.95v-.27c.77.11,1.38.42,1.84.94.46.52.69,1.17.69,1.96,0,.99-.36,1.76-1.09,2.32s-1.74.83-3.06.83Zm0-1.31c.86,0,1.51-.16,1.94-.49.43-.33.64-.81.64-1.46s-.21-1.13-.64-1.46-1.07-.48-1.94-.48-1.51.16-1.94.48-.64.8-.64,1.46.22,1.14.65,1.46c.43.33,1.07.49,1.93.49Zm0-5.2c.75,0,1.31-.17,1.7-.5.39-.34.58-.8.58-1.38s-.2-1.03-.58-1.36c-.39-.33-.96-.5-1.7-.5s-1.3.17-1.7.5c-.39.33-.59.79-.59,1.36s.2,1.05.59,1.38.96.5,1.7.5Z"/>
          <path class="cls-3" d="m830.37,212.89c-1.3,0-2.31-.28-3.04-.83s-1.09-1.33-1.09-2.32c0-.79.24-1.44.72-1.96.48-.52,1.11-.83,1.89-.94v.29c-.7-.15-1.27-.47-1.69-.97-.42-.5-.63-1.11-.63-1.82,0-.94.34-1.67,1.02-2.21.68-.53,1.62-.8,2.82-.8s2.15.27,2.83.8c.68.53,1.02,1.27,1.02,2.21,0,.71-.2,1.33-.6,1.83-.4.51-.95.82-1.64.95v-.27c.77.11,1.38.42,1.84.94.46.52.69,1.17.69,1.96,0,.99-.36,1.76-1.09,2.32s-1.74.83-3.06.83Zm0-1.31c.86,0,1.51-.16,1.94-.49.43-.33.64-.81.64-1.46s-.21-1.13-.64-1.46-1.07-.48-1.94-.48-1.51.16-1.94.48-.64.8-.64,1.46.22,1.14.65,1.46c.43.33,1.07.49,1.93.49Zm0-5.2c.75,0,1.31-.17,1.7-.5.39-.34.58-.8.58-1.38s-.2-1.03-.58-1.36c-.39-.33-.96-.5-1.7-.5s-1.3.17-1.7.5c-.39.33-.59.79-.59,1.36s.2,1.05.59,1.38.96.5,1.7.5Z"/>
          <path class="cls-3" d="m840.13,212.89c-.49,0-.98-.05-1.46-.16-.48-.11-.93-.26-1.34-.46s-.78-.43-1.09-.71l.58-1.26c.51.4,1.04.69,1.58.89s1.11.3,1.7.3c.76,0,1.35-.2,1.78-.59.43-.39.65-.92.65-1.58s-.21-1.23-.62-1.66c-.41-.42-.98-.63-1.7-.63-.5,0-.96.1-1.37.3-.41.2-.77.51-1.08.93h-1.15v-6.78h6.83v1.39h-5.25v4.06h-.42c.29-.41.67-.72,1.16-.94s1.03-.34,1.64-.34c.72,0,1.35.15,1.89.45s.95.71,1.24,1.25c.29.53.44,1.16.44,1.89s-.16,1.36-.49,1.91c-.33.55-.79.98-1.39,1.29-.6.31-1.31.46-2.14.46Z"/>
          <path class="cls-3" d="m850.32,216.2v-9.58c0-.31-.01-.63-.04-.95-.03-.33-.06-.65-.09-.98h1.57l.16,1.82h-.18c.17-.61.51-1.09,1.03-1.44.52-.35,1.13-.53,1.85-.53s1.34.17,1.87.5.95.81,1.24,1.43c.29.62.44,1.37.44,2.24s-.15,1.61-.44,2.24c-.29.63-.71,1.11-1.24,1.44s-1.16.5-1.87.5-1.31-.17-1.83-.52c-.52-.35-.86-.82-1.03-1.42h.18v5.25h-1.62Zm3.9-4.58c.7,0,1.27-.24,1.69-.74.42-.49.63-1.22.63-2.18s-.21-1.68-.63-2.17c-.42-.48-.98-.73-1.69-.73s-1.27.24-1.69.73c-.42.49-.63,1.21-.63,2.17s.21,1.69.63,2.18c.42.49.98.74,1.69.74Z"/>
          <path class="cls-3" d="m859.67,212.74v-1.9h1.9v1.9h-1.9Z"/>
        </g>
        <g>
          <path class="cls-3" d="m815.94,168.42c-1.42,0-2.51-.49-3.29-1.47-.77-.98-1.16-2.36-1.16-4.13,0-1.28.2-2.37.59-3.26.39-.89.96-1.57,1.69-2.04.73-.47,1.61-.71,2.63-.71.61,0,1.21.11,1.81.33.6.22,1.11.53,1.54.94l-.69,1.54c-.39-.36-.82-.63-1.28-.81s-.92-.26-1.39-.26c-.96,0-1.69.33-2.19.98-.5.65-.75,1.62-.75,2.91v1.2h-.19c.08-.54.27-1.01.54-1.4.28-.39.63-.69,1.07-.9s.92-.31,1.46-.31c.66,0,1.25.15,1.76.46.51.31.91.74,1.21,1.28.29.54.44,1.17.44,1.87s-.16,1.37-.49,1.94-.77,1.02-1.34,1.34-1.22.49-1.97.49Zm-.11-1.63c.39,0,.74-.09,1.04-.26.3-.17.53-.41.7-.73s.25-.67.25-1.08-.08-.78-.25-1.09c-.17-.31-.4-.55-.7-.73-.3-.18-.65-.26-1.04-.26s-.74.09-1.04.26c-.3.18-.53.42-.7.73-.17.31-.26.67-.26,1.09s.09.77.26,1.08c.17.31.4.56.7.73.3.17.65.26,1.04.26Z"/>
          <path class="cls-3" d="m825.14,168.42c-1.32,0-2.34-.5-3.06-1.51-.71-1.01-1.07-2.45-1.07-4.31s.36-3.32,1.07-4.3c.71-.98,1.73-1.47,3.06-1.47s2.35.49,3.06,1.47c.71.98,1.06,2.41,1.06,4.29s-.35,3.32-1.06,4.33c-.71,1.01-1.73,1.51-3.06,1.51Zm0-1.7c.73,0,1.26-.33,1.62-1,.35-.67.53-1.71.53-3.14s-.18-2.47-.53-3.11c-.35-.64-.89-.97-1.62-.97s-1.25.32-1.61.97c-.36.65-.54,1.68-.54,3.11s.18,2.48.54,3.14c.36.67.89,1,1.61,1Z"/>
          <path class="cls-3" d="m829.89,168.26l3.76-4.62v.91l-3.55-4.37h2.37l2.32,2.99h-.72l2.32-2.99h2.35l-3.52,4.37v-.91l3.74,4.62h-2.38l-2.51-3.22h.72l-2.53,3.22h-2.37Z"/>
          <path class="cls-3" d="m844.15,168.42c-1.42,0-2.52-.49-3.29-1.47-.77-.98-1.16-2.36-1.16-4.13,0-1.28.2-2.37.59-3.26s.96-1.57,1.69-2.04c.73-.47,1.61-.71,2.63-.71.61,0,1.21.11,1.81.33s1.11.53,1.54.94l-.69,1.54c-.39-.36-.82-.63-1.28-.81-.46-.18-.92-.26-1.39-.26-.96,0-1.69.33-2.19.98-.5.65-.75,1.62-.75,2.91v1.2h-.19c.08-.54.27-1.01.54-1.4.28-.39.63-.69,1.07-.9s.92-.31,1.46-.31c.66,0,1.25.15,1.76.46.51.31.91.74,1.21,1.28.29.54.44,1.17.44,1.87s-.16,1.37-.49,1.94-.77,1.02-1.34,1.34-1.22.49-1.97.49Zm-.11-1.63c.39,0,.74-.09,1.04-.26.3-.17.53-.41.7-.73.17-.31.25-.67.25-1.08s-.08-.78-.25-1.09c-.17-.31-.4-.55-.7-.73-.3-.18-.65-.26-1.04-.26s-.74.09-1.04.26c-.3.18-.53.42-.7.73-.17.31-.26.67-.26,1.09s.08.77.26,1.08.41.56.7.73c.3.17.65.26,1.04.26Z"/>
          <path class="cls-3" d="m853.35,168.42c-1.32,0-2.34-.5-3.06-1.51s-1.07-2.45-1.07-4.31.36-3.32,1.07-4.3,1.73-1.47,3.06-1.47,2.35.49,3.06,1.47c.71.98,1.06,2.41,1.06,4.29s-.35,3.32-1.06,4.33c-.71,1.01-1.73,1.51-3.06,1.51Zm0-1.7c.73,0,1.26-.33,1.62-1,.35-.67.53-1.71.53-3.14s-.18-2.47-.53-3.11c-.35-.64-.89-.97-1.62-.97s-1.25.32-1.61.97c-.36.65-.54,1.68-.54,3.11s.18,2.48.54,3.14c.36.67.89,1,1.61,1Z"/>
        </g>
        <g>
          <path class="cls-3" d="m797.57,120.92v-1.39h2.62v-8.48h.83l-3.2,1.95v-1.6l2.83-1.76h1.2v9.89h2.46v1.39h-6.75Z"/>
          <path class="cls-3" d="m810.05,121.06c-1.3,0-2.31-.28-3.04-.83s-1.09-1.33-1.09-2.32c0-.79.24-1.44.72-1.96.48-.52,1.11-.83,1.89-.94v.29c-.7-.15-1.27-.47-1.69-.98-.42-.5-.63-1.11-.63-1.82,0-.94.34-1.67,1.02-2.21.68-.53,1.62-.8,2.82-.8s2.15.27,2.83.8c.68.53,1.02,1.27,1.02,2.21,0,.71-.2,1.33-.6,1.83-.4.51-.95.82-1.64.95v-.27c.77.11,1.38.42,1.84.94.46.52.69,1.17.69,1.96,0,.99-.36,1.77-1.09,2.32s-1.74.83-3.06.83Zm0-1.31c.86,0,1.51-.16,1.94-.49.43-.33.64-.81.64-1.46s-.21-1.14-.64-1.46-1.07-.48-1.94-.48-1.51.16-1.94.48-.64.81-.64,1.46.22,1.14.65,1.46c.43.33,1.07.49,1.93.49Zm0-5.2c.75,0,1.31-.17,1.7-.5.39-.34.58-.8.58-1.38s-.2-1.03-.58-1.36c-.39-.33-.96-.5-1.7-.5s-1.3.17-1.7.5c-.39.33-.59.78-.59,1.36s.2,1.05.59,1.38.96.5,1.7.5Z"/>
          <path class="cls-3" d="m819.65,121.06c-1.3,0-2.3-.5-3-1.5-.7-1-1.05-2.43-1.05-4.3s.35-3.34,1.05-4.31c.7-.98,1.7-1.46,3-1.46s2.31.49,3.01,1.46c.69.98,1.04,2.41,1.04,4.3s-.35,3.31-1.05,4.31c-.7,1-1.7,1.5-3,1.5Zm0-1.39c.82,0,1.43-.36,1.83-1.07.4-.71.6-1.83.6-3.34s-.2-2.64-.6-3.34c-.4-.7-1.01-1.05-1.83-1.05s-1.42.35-1.82,1.05c-.41.7-.61,1.81-.61,3.32s.21,2.64.62,3.36c.41.71,1.02,1.07,1.82,1.07Z"/>
          <path class="cls-3" d="m829.25,121.06c-1.3,0-2.3-.5-3-1.5-.7-1-1.05-2.43-1.05-4.3s.35-3.34,1.05-4.31c.7-.98,1.7-1.46,3-1.46s2.31.49,3.01,1.46,1.04,2.41,1.04,4.3-.35,3.31-1.05,4.31c-.7,1-1.7,1.5-3,1.5Zm0-1.39c.82,0,1.43-.36,1.83-1.07s.6-1.83.6-3.34-.2-2.64-.6-3.34-1.01-1.05-1.83-1.05-1.42.35-1.82,1.05-.61,1.81-.61,3.32.21,2.64.62,3.36c.41.71,1.02,1.07,1.82,1.07Z"/>
          <path class="cls-3" d="m839.61,124.37v-9.58c0-.31-.01-.63-.04-.95-.03-.33-.06-.65-.09-.98h1.57l.16,1.82h-.18c.17-.61.51-1.09,1.03-1.44.52-.35,1.13-.53,1.85-.53s1.34.17,1.87.5.95.81,1.24,1.43c.29.62.44,1.37.44,2.24s-.15,1.61-.44,2.24c-.29.63-.71,1.11-1.24,1.44-.53.33-1.16.5-1.87.5s-1.31-.17-1.83-.52-.86-.82-1.03-1.42h.18v5.25h-1.62Zm3.9-4.58c.7,0,1.27-.25,1.69-.74.42-.49.63-1.22.63-2.18s-.21-1.68-.63-2.17c-.42-.49-.98-.73-1.69-.73s-1.27.24-1.69.73c-.42.49-.63,1.21-.63,2.17s.21,1.69.63,2.18c.42.49.98.74,1.69.74Z"/>
          <path class="cls-3" d="m848.95,120.92v-1.9h1.9v1.9h-1.9Z"/>
          <path class="cls-3" d="m853.83,121.83h-1.36l4.19-12.91h1.36l-4.19,12.91Z"/>
          <path class="cls-3" d="m857.91,120.92v-8.06h1.34l2.91,5.15,2.91-5.15h1.34v8.06h-1.42v-6.26h.35l-2.8,4.96h-.77l-2.8-4.96h.35v6.26h-1.42Z"/>
          <path class="cls-3" d="m868.41,115.59v-.72l2.26-2.36c.29-.3.51-.59.65-.86.14-.27.21-.54.21-.83,0-.35-.11-.62-.33-.8-.22-.18-.54-.27-.96-.27-.33,0-.64.06-.93.18s-.57.3-.83.54l-.34-.74c.26-.24.59-.44.98-.58.39-.15.8-.22,1.24-.22.68,0,1.21.16,1.58.47.37.31.56.76.56,1.33,0,.41-.1.8-.3,1.18-.2.38-.5.76-.9,1.16l-1.95,1.97v-.26h3.41v.81h-4.36Z"/>
        </g>
      </g>
    </g>
  </g>
</svg>