<?xml version="1.0" encoding="UTF-8"?>
<svg id="_Слой_2" data-name="Слой 2" xmlns="http://www.w3.org/2000/svg" viewBox="0 0 938.93 230.7">
  <defs>
    <style>
      .cls-1 {
        font-family: Mulish-Bold, Mulish;
        font-weight: 700;
      }

      .cls-1, .cls-2 {
        fill: #27625f;
        font-size: 16px;
      }

      .cls-3 {
        fill: #fff;
      }

      .cls-3, .cls-4 {
        stroke: #a0b6b5;
        stroke-miterlimit: 10;
      }

      .cls-5 {
        letter-spacing: .06em;
      }

      .cls-2 {
        font-family: Mulish-SemiBold, Mulish;
        font-weight: 600;
      }

      .cls-6 {
        letter-spacing: -.06em;
      }

      .cls-7 {
        letter-spacing: -.01em;
      }

      .cls-8 {
        letter-spacing: -.07em;
      }

      .cls-9 {
        letter-spacing: 0em;
      }

      .cls-10 {
        letter-spacing: -.02em;
      }

      .cls-11 {
        letter-spacing: -.08em;
      }

      .cls-12 {
        letter-spacing: -.02em;
      }

      .cls-13 {
        letter-spacing: -.02em;
      }

      .cls-14 {
        letter-spacing: .07em;
      }

      .cls-15 {
        letter-spacing: -.06em;
      }

      .cls-16 {
        letter-spacing: -.07em;
      }

      .cls-4 {
        fill: none;
      }
    </style>
  </defs>
  <g id="_Слой_1-2" data-name="Слой 1">
    <g>
      <g>
        <rect class="cls-3" x=".5" y=".5" width="937.93" height="229.7" rx="10" ry="10"/>
        <line class="cls-4" x1=".5" y1="46.44" x2="938.43" y2="46.44"/>
        <line class="cls-4" x1="313.93" y1="46.44" x2="313.93" y2="230.2"/>
        <line class="cls-4" x1=".5" y1="46.44" x2="313.93" y2="92.38"/>
        <line class="cls-4" x1="625.54" y1="46.44" x2="625.54" y2="230.2"/>
        <line class="cls-4" x1=".5" y1="92.38" x2="938.43" y2="92.38"/>
        <line class="cls-4" x1=".5" y1="138.32" x2="938.43" y2="138.32"/>
        <line class="cls-4" x1=".5" y1="184.26" x2="938.43" y2="184.26"/>
      </g>
      <g>
        <text class="cls-1" transform="translate(181.59 68.13)"><tspan x="0" y="0">Вид календаря</tspan></text>
        <text class="cls-1" transform="translate(12.86 77.13)"><tspan class="cls-11" x="0" y="0">Т</tspan><tspan x="8.66" y="0">ираж</tspan></text>
        <text class="cls-1" transform="translate(113.19 120.44)"><tspan x="0" y="0">1-10 ш</tspan><tspan class="cls-16" x="53.76" y="0">т</tspan><tspan class="cls-5" x="60.38" y="0">.</tspan><tspan class="cls-15" x="65.39" y="0">/</tspan><tspan class="cls-13" x="69.49" y="0">р</tspan><tspan x="79.39" y="0">.</tspan></text>
        <text class="cls-1" transform="translate(444.78 74.48)"><tspan x="0" y="0">ПК А4</tspan></text>
        <text class="cls-2" transform="translate(446.19 119.44)"><tspan x="0" y="0">523 </tspan><tspan class="cls-12" x="33.07" y="0">р</tspan><tspan class="cls-9" x="42.75" y="0">.</tspan></text>
        <text class="cls-2" transform="translate(446.19 165.39)"><tspan x="0" y="0">423 </tspan><tspan class="cls-12" x="33.07" y="0">р</tspan><tspan class="cls-9" x="42.75" y="0">.</tspan></text>
        <text class="cls-2" transform="translate(446.19 210.26)"><tspan x="0" y="0">349 </tspan><tspan class="cls-12" x="33.07" y="0">р</tspan><tspan class="cls-9" x="42.75" y="0">.</tspan></text>
        <text class="cls-1" transform="translate(757.82 74.48)"><tspan x="0" y="0">ПК А3</tspan></text>
        <text class="cls-2" transform="translate(754.43 119.44)"><tspan x="0" y="0">1031 </tspan><tspan class="cls-10" x="42.67" y="0">р</tspan><tspan x="52.35" y="0">.</tspan></text>
        <text class="cls-2" transform="translate(759.23 165.39)"><tspan x="0" y="0">832 </tspan><tspan class="cls-12" x="33.07" y="0">р</tspan><tspan class="cls-9" x="42.75" y="0">.</tspan></text>
        <text class="cls-2" transform="translate(759.23 210.26)"><tspan x="0" y="0">687 </tspan><tspan class="cls-12" x="33.07" y="0">р</tspan><tspan class="cls-9" x="42.75" y="0">.</tspan></text>
        <text class="cls-1" transform="translate(108.39 166.39)"><tspan x="0" y="0">11-50 ш</tspan><tspan class="cls-8" x="63.36" y="0">т</tspan><tspan class="cls-14" x="69.98" y="0">.</tspan><tspan class="cls-6" x="74.99" y="0">/</tspan><tspan class="cls-7" x="79.09" y="0">р</tspan><tspan class="cls-9" x="88.99" y="0">.</tspan></text>
        <text class="cls-1" transform="translate(103.59 211.26)"><tspan x="0" y="0">51-150 ш</tspan><tspan class="cls-8" x="72.96" y="0">т</tspan><tspan class="cls-14" x="79.58" y="0">.</tspan><tspan class="cls-6" x="84.59" y="0">/</tspan><tspan class="cls-7" x="88.69" y="0">р</tspan><tspan x="98.59" y="0">.</tspan></text>
        <text class="cls-1" transform="translate(18.9 26.94)"><tspan x="0" y="0">Календари домики</tspan></text>
      </g>
    </g>
  </g>
</svg>