<?xml version="1.0" encoding="UTF-8"?>
<svg id="_Слой_2" data-name="Слой 2" xmlns="http://www.w3.org/2000/svg" viewBox="0 0 938.93 230.7">
  <defs>
    <style>
      .cls-1, .cls-2, .cls-3, .cls-4 {
        fill: #27625f;
      }

      .cls-1, .cls-3 {
        font-size: 16px;
      }

      .cls-1, .cls-4 {
        font-family: Mulish-Bold, Mulish;
        font-weight: 700;
      }

      .cls-5 {
        fill: #fff;
      }

      .cls-5, .cls-6 {
        stroke: #a0b6b5;
        stroke-miterlimit: 10;
      }

      .cls-2 {
        stroke-width: 0px;
      }

      .cls-7 {
        letter-spacing: .06em;
      }

      .cls-3 {
        font-family: Mulish-SemiBold, Mulish;
        font-weight: 600;
      }

      .cls-8 {
        letter-spacing: -.06em;
      }

      .cls-9 {
        letter-spacing: -.07em;
      }

      .cls-10 {
        letter-spacing: -.01em;
      }

      .cls-11 {
        letter-spacing: 0em;
      }

      .cls-12 {
        letter-spacing: -.07em;
      }

      .cls-13 {
        letter-spacing: 0em;
      }

      .cls-14 {
        letter-spacing: -.02em;
      }

      .cls-4 {
        font-size: 12px;
      }

      .cls-15 {
        letter-spacing: 0em;
      }

      .cls-16 {
        letter-spacing: -.02em;
      }

      .cls-17 {
        letter-spacing: -.08em;
      }

      .cls-18 {
        letter-spacing: 0em;
      }

      .cls-19 {
        letter-spacing: -.03em;
      }

      .cls-20 {
        letter-spacing: -.02em;
      }

      .cls-21 {
        letter-spacing: -.01em;
      }

      .cls-22 {
        letter-spacing: -.02em;
      }

      .cls-23 {
        letter-spacing: .07em;
      }

      .cls-24 {
        letter-spacing: 0em;
      }

      .cls-25 {
        letter-spacing: -.06em;
      }

      .cls-26 {
        letter-spacing: -.07em;
      }

      .cls-6 {
        fill: none;
      }
    </style>
  </defs>
  <g id="_Слой_1-2" data-name="Слой 1">
    <g>
      <g>
        <rect class="cls-5" x=".5" y=".5" width="937.93" height="229.7" rx="10" ry="10"/>
        <line class="cls-6" x1=".5" y1="92.38" x2="938.43" y2="92.38"/>
        <line class="cls-6" x1=".5" y1="138.32" x2="938.43" y2="138.32"/>
        <line class="cls-6" x1=".5" y1="46.44" x2="938.43" y2="46.44"/>
        <line class="cls-6" x1="155.46" y1="46.44" x2="155.46" y2="230.2"/>
        <line class="cls-6" x1=".5" y1="46.44" x2="155.46" y2="92.38"/>
        <line class="cls-6" x1="311.98" y1="46.44" x2="311.98" y2="230.2"/>
        <line class="cls-6" x1="470.26" y1="46.44" x2="470.26" y2="230.2"/>
        <line class="cls-6" x1="625.2" y1="46.44" x2="625.2" y2="230.2"/>
        <line class="cls-6" x1="781.81" y1="92.38" x2="781.81" y2="230.2"/>
        <line class="cls-6" x1=".5" y1="184.26" x2="938.43" y2="184.26"/>
      </g>
      <g>
        <text class="cls-1" transform="translate(15.21 27.97)"><tspan x="0" y="0">Календарь</tspan><tspan class="cls-19" x="89.25" y="0">-</tspan><tspan x="95.85" y="0">домик</tspan></text>
        <g>
          <path class="cls-2" d="m104.62,58.45v-8.46h3.71c.92,0,1.63.19,2.12.58.5.39.74.93.74,1.61,0,.51-.15.94-.46,1.3-.3.35-.72.59-1.26.71v-.18c.62.09,1.09.31,1.43.67.34.36.51.83.51,1.41,0,.75-.26,1.33-.78,1.75s-1.24.62-2.17.62h-3.85Zm1.49-4.87h1.96c.55,0,.96-.1,1.23-.31.27-.2.4-.51.4-.91s-.13-.7-.4-.91c-.27-.2-.68-.3-1.23-.3h-1.96v2.42Zm0,3.7h2.18c.52,0,.92-.1,1.21-.29.29-.2.43-.52.43-.97s-.14-.78-.43-.98c-.29-.2-.69-.29-1.21-.29h-2.18v2.53Z"/>
          <path class="cls-2" d="m112.82,58.45v-6.06h1.36v4.58h-.36l3.44-4.58h1.24v6.06h-1.36v-4.6h.37l-3.46,4.6h-1.24Z"/>
          <path class="cls-2" d="m119.66,60.01v-2.7h.7c.24-.38.41-.82.52-1.33.11-.51.16-1.13.16-1.87v-1.73h4.67v4.92h.98v2.7h-1.27v-1.56h-4.49v1.56h-1.27Zm2.04-2.69h2.6v-3.8h-1.99v.94c0,.54-.05,1.06-.16,1.57s-.26.94-.46,1.3Z"/>
          <path class="cls-2" d="m83.38,67.45v-6.06h1.49v2.38h.91l1.78-2.38h1.61l-2.23,3.02-.32-.47c.22.02.42.08.59.18.17.1.34.23.49.4.16.17.31.39.46.65l1.27,2.27h-1.6l-1.03-1.82c-.1-.18-.21-.33-.31-.43-.1-.1-.22-.18-.35-.22s-.28-.06-.47-.06h-.8v2.53h-1.49Z"/>
          <path class="cls-2" d="m92.61,67.57c-.53,0-.99-.13-1.39-.38-.4-.25-.71-.61-.94-1.09-.22-.47-.34-1.04-.34-1.69s.11-1.22.34-1.69c.22-.47.54-.83.94-1.08.4-.25.86-.38,1.39-.38s.96.13,1.35.38c.39.25.65.59.77,1.01h-.13l.13-1.27h1.44c-.02.25-.05.5-.07.76-.02.26-.03.51-.03.76v4.55h-1.49v-1.25s.13,0,.13,0c-.13.42-.39.75-.78,1-.39.25-.84.37-1.33.37Zm.42-1.15c.47,0,.85-.17,1.14-.5.29-.33.43-.83.43-1.51s-.14-1.17-.43-1.5c-.29-.33-.67-.49-1.14-.49s-.85.16-1.14.49-.43.83-.43,1.5.14,1.17.43,1.51c.28.33.67.5,1.15.5Z"/>
          <path class="cls-2" d="m97.67,67.62l-.47-1.18c.26-.1.49-.22.67-.38.18-.16.32-.36.43-.6.11-.24.19-.55.23-.91s.07-.8.07-1.3v-1.86h4.82v6.06h-1.49v-4.91h-1.97v.76c0,.87-.08,1.6-.24,2.19-.16.59-.41,1.05-.74,1.4-.34.34-.78.59-1.32.73Z"/>
          <path class="cls-2" d="m108.11,67.57c-1.02,0-1.81-.28-2.39-.84s-.86-1.33-.86-2.3c0-.63.12-1.18.37-1.66.25-.47.59-.84,1.04-1.1.44-.26.96-.4,1.55-.4s1.07.12,1.46.37c.39.25.69.6.89,1.04.2.45.31.97.31,1.57v.4h-4.42v-.79h3.35l-.2.17c0-.56-.12-.99-.35-1.28-.24-.3-.58-.44-1.03-.44-.5,0-.88.18-1.15.53-.27.35-.4.84-.4,1.48v.16c0,.66.16,1.15.49,1.47.32.32.78.49,1.37.49.34,0,.67-.05.97-.14.3-.09.59-.24.86-.45l.44,1.01c-.29.23-.63.41-1.03.54-.4.13-.82.19-1.27.19Z"/>
          <path class="cls-2" d="m111.88,67.45v-6.06h1.49v2.38h2.74v-2.38h1.49v6.06h-1.49v-2.53h-2.74v2.53h-1.49Z"/>
          <path class="cls-2" d="m118.76,69.01v-2.7h.7c.24-.38.41-.82.52-1.33.11-.51.16-1.13.16-1.87v-1.73h4.67v4.92h.98v2.7h-1.27v-1.56h-4.49v1.56h-1.27Zm2.04-2.69h2.6v-3.8h-1.99v.94c0,.54-.05,1.06-.16,1.57s-.26.94-.46,1.3Z"/>
          <path class="cls-2" d="m129.28,67.57c-.53,0-.99-.13-1.39-.38s-.71-.61-.94-1.09c-.22-.47-.34-1.04-.34-1.69s.11-1.22.34-1.69c.22-.47.54-.83.94-1.08.4-.25.86-.38,1.39-.38s.96.13,1.35.38c.39.25.65.59.77,1.01h-.13l.13-1.27h1.44c-.02.25-.04.5-.06.76-.02.26-.03.51-.03.76v4.55h-1.49v-1.25s.13,0,.13,0c-.13.42-.39.75-.78,1-.39.25-.84.37-1.33.37Zm.42-1.15c.47,0,.85-.17,1.14-.5.29-.33.43-.83.43-1.51s-.14-1.17-.43-1.5c-.29-.33-.67-.49-1.14-.49s-.85.16-1.14.49-.43.83-.43,1.5.14,1.17.43,1.51c.28.33.67.5,1.15.5Z"/>
          <path class="cls-2" d="m134.55,70.04v-7.14c0-.25,0-.5-.02-.76-.02-.26-.04-.51-.07-.76h1.45l.13,1.27h-.13c.12-.42.37-.76.76-1.01.39-.25.84-.38,1.35-.38s1,.13,1.4.38c.4.25.71.61.94,1.08s.34,1.03.34,1.69-.11,1.22-.34,1.69c-.22.47-.54.83-.94,1.09-.4.25-.87.38-1.4.38-.5,0-.95-.12-1.33-.37s-.64-.58-.77-1h.13v3.84h-1.5Zm3.05-3.62c.48,0,.86-.17,1.15-.5s.43-.83.43-1.51-.14-1.17-.43-1.5-.67-.49-1.15-.49-.85.16-1.14.49-.43.83-.43,1.5.14,1.17.43,1.51.67.5,1.14.5Z"/>
          <path class="cls-2" d="m141.6,67.45l.92-1.6c.16-.27.36-.49.59-.65.24-.16.48-.25.74-.25h.26v.13c-.72,0-1.27-.16-1.66-.47-.38-.31-.58-.77-.58-1.37s.2-1.05.59-1.38c.4-.32.98-.49,1.75-.49h3.01v6.06h-1.37v-2.14h-.68c-.25,0-.47.07-.65.2-.19.14-.35.31-.47.53l-.79,1.4h-1.67Zm2.92-3.11h1.36v-1.98h-1.36c-.41,0-.71.09-.92.26-.2.18-.31.42-.31.72,0,.32.1.57.31.74s.51.26.92.26Z"/>
        </g>
        <text class="cls-1" transform="translate(8.36 81.58)"><tspan class="cls-17" x="0" y="0">Т</tspan><tspan x="8.66" y="0">ираж</tspan></text>
        <text class="cls-1" transform="translate(30.5 165.32)"><tspan x="0" y="0">11-50 ш</tspan><tspan class="cls-12" x="63.36" y="0">т</tspan><tspan class="cls-23" x="69.98" y="0">.</tspan><tspan class="cls-8" x="74.99" y="0">/</tspan><tspan class="cls-10" x="79.09" y="0">р</tspan><tspan class="cls-15" x="88.99" y="0">.</tspan></text>
        <text class="cls-1" transform="translate(35.3 120.32)"><tspan x="0" y="0">1-10 ш</tspan><tspan class="cls-26" x="53.76" y="0">т</tspan><tspan class="cls-7" x="60.38" y="0">.</tspan><tspan class="cls-25" x="65.39" y="0">/</tspan><tspan class="cls-22" x="69.49" y="0">р</tspan><tspan x="79.39" y="0">.</tspan></text>
        <g>
          <path class="cls-2" d="m187.74,68.41v-11.28h2.03v4.8h1.92l-.42.27,3.33-5.07h2.27l-3.71,5.46-.78-.58c.73.11,1.33.35,1.82.74.49.39.91.94,1.27,1.64l2,4.02h-2.22l-1.55-3.25c-.27-.57-.58-.97-.95-1.2-.37-.23-.83-.35-1.4-.35h-1.57v4.8h-2.03Z"/>
          <path class="cls-2" d="m198.78,68.41v-11.28h2.06v4.7h5.78v-4.7h2.06v11.28h-2.06v-4.86h-5.78v4.86h-2.06Z"/>
          <path class="cls-2" d="m216.78,67.03l-2.1-2.91,2.1-2.91h1.66l-1.97,2.91,1.97,2.91h-1.66Zm3.33,0l-2.1-2.91,2.1-2.91h1.66l-1.97,2.91,1.97,2.91h-1.66Z"/>
          <path class="cls-2" d="m222.49,71.05v-4.26h1.17c.53-.64.93-1.51,1.18-2.62.26-1.11.38-2.47.38-4.1v-2.94h8.18v9.66h1.65v4.26h-1.79v-2.64h-8.96v2.64h-1.81Zm3.23-4.26h5.63v-8.06h-4.24v1.54c0,1.55-.11,2.85-.34,3.9-.23,1.06-.58,1.93-1.05,2.62Z"/>
          <path class="cls-2" d="m240.26,68.57c-.83,0-1.55-.17-2.16-.51s-1.08-.83-1.42-1.46-.5-1.38-.5-2.24.17-1.61.5-2.23.81-1.11,1.42-1.45,1.33-.51,2.16-.51,1.55.17,2.17.51c.61.34,1.09.82,1.42,1.45s.5,1.37.5,2.23-.17,1.61-.5,2.24-.81,1.12-1.42,1.46c-.61.34-1.34.51-2.17.51Zm0-1.54c.63,0,1.13-.22,1.5-.66.37-.44.56-1.11.56-2.01s-.19-1.56-.56-2c-.37-.44-.88-.66-1.5-.66s-1.13.22-1.5.66c-.37.44-.56,1.1-.56,2s.19,1.57.56,2.01c.37.44.87.66,1.5.66Z"/>
          <path class="cls-2" d="m246.25,68.41v-8.08h1.66l2.78,4.83,2.78-4.83h1.66v8.08h-1.76v-5.84h.37l-2.59,4.53h-.93l-2.59-4.53h.37v5.84h-1.76Z"/>
          <path class="cls-2" d="m257.42,68.41v-8.08h1.81v6.11h-.48l4.59-6.11h1.65v8.08h-1.81v-6.13h.5l-4.61,6.13h-1.65Z"/>
          <path class="cls-2" d="m267.25,68.41v-8.08h1.98v3.17h1.22l2.37-3.17h2.14l-2.98,4.03-.43-.62c.3.03.56.11.79.24.23.13.45.31.66.54s.41.52.62.87l1.7,3.02h-2.13l-1.38-2.43c-.14-.25-.28-.44-.42-.58s-.29-.24-.46-.29c-.17-.05-.38-.08-.62-.08h-1.07v3.38h-1.98Z"/>
          <path class="cls-2" d="m277.4,67.03h-1.66l1.97-2.91-1.97-2.91h1.68l2.08,2.91-2.1,2.91Zm3.33,0h-1.66l1.97-2.91-1.97-2.91h1.68l2.08,2.91-2.1,2.91Z"/>
          <path class="cls-2" d="m209.75,81.57c-.78,0-1.53-.12-2.24-.34-.71-.23-1.3-.55-1.76-.95l.67-1.55c.5.38,1.02.67,1.56.85.54.18,1.11.27,1.7.27.73,0,1.27-.14,1.65-.43.37-.29.56-.71.56-1.26s-.18-.94-.55-1.21c-.37-.27-.9-.41-1.61-.41h-1.82v-1.65h1.65c.61,0,1.09-.15,1.46-.45.36-.3.54-.71.54-1.23,0-.49-.17-.86-.5-1.12-.34-.26-.82-.38-1.45-.38-1.13,0-2.13.38-2.99,1.15l-.67-1.54c.46-.43,1.03-.76,1.7-.99.68-.23,1.39-.35,2.14-.35,1.17,0,2.09.26,2.76.79.67.53,1,1.26,1,2.2,0,.67-.19,1.25-.57,1.74-.38.49-.9.81-1.56.97v-.19c.78.13,1.38.45,1.82.95s.65,1.14.65,1.9c0,1-.37,1.79-1.1,2.38-.74.58-1.74.87-3.02.87Z"/>
          <path class="cls-2" d="m224.02,81.57c-.83,0-1.56-.17-2.18-.51s-1.11-.83-1.45-1.46-.51-1.39-.51-2.26.17-1.62.52-2.24c.35-.62.83-1.09,1.45-1.42.62-.33,1.34-.5,2.18-.5.53,0,1.05.08,1.56.25.51.17.92.4,1.24.71l-.61,1.39c-.29-.27-.61-.47-.97-.6-.36-.13-.71-.2-1.05-.2-.71,0-1.27.22-1.67.67s-.6,1.1-.6,1.95.2,1.51.6,1.97c.4.46.96.69,1.67.69.33,0,.67-.06,1.03-.19.36-.13.69-.33.98-.59l.61,1.38c-.33.31-.75.55-1.26.72-.51.17-1.02.26-1.54.26Z"/>
          <path class="cls-2" d="m228.54,81.41v-8.08h6.06v1.57h-4.06v6.51h-2Z"/>
          <path class="cls-2" d="m236.01,81.41v-8.08h1.81v6.11h-.48l4.59-6.11h1.65v8.08h-1.81v-6.13h.5l-4.61,6.13h-1.65Z"/>
          <path class="cls-2" d="m249.64,81.57c-1.27,0-2.28-.38-3.03-1.15s-1.13-1.89-1.13-3.38v-1.38c0-1.53.35-2.75,1.04-3.68.69-.93,1.74-1.54,3.14-1.84l2.96-.67.54,1.57-3.33.74c-.55.12-1.01.34-1.38.66-.36.33-.63.71-.82,1.16-.18.45-.27.93-.27,1.44v.85h-.27c.12-.48.31-.9.59-1.26.28-.36.63-.64,1.06-.84.43-.2.91-.3,1.46-.3.68,0,1.28.16,1.8.47.52.32.92.77,1.22,1.36.3.59.45,1.3.45,2.12s-.17,1.57-.5,2.19-.81,1.1-1.41,1.43c-.6.34-1.31.5-2.12.5Zm-.06-1.52c.66,0,1.18-.21,1.54-.63s.55-1.05.55-1.9-.19-1.45-.56-1.88c-.37-.43-.89-.65-1.54-.65s-1.16.21-1.54.64c-.37.43-.56,1.03-.56,1.82,0,.87.19,1.51.56,1.95.37.43.88.65,1.54.65Z"/>
          <path class="cls-2" d="m258.74,81.57c-.7,0-1.32-.17-1.86-.5-.53-.34-.95-.82-1.25-1.45-.3-.63-.45-1.38-.45-2.26s.15-1.62.45-2.25c.3-.62.71-1.1,1.25-1.44s1.15-.5,1.86-.5,1.28.17,1.8.5.86.79,1.03,1.35h-.18l.18-1.7h1.92c-.03.33-.06.67-.09,1.01-.03.34-.04.68-.04,1.01v6.06h-1.98l-.02-1.66h.19c-.17.55-.52,1-1.04,1.33-.52.33-1.11.5-1.78.5Zm.56-1.54c.63,0,1.14-.22,1.52-.66.38-.44.58-1.11.58-2.01s-.19-1.56-.58-2c-.38-.44-.89-.66-1.52-.66s-1.14.22-1.52.66c-.38.44-.58,1.1-.58,2s.19,1.57.57,2.01c.38.44.89.66,1.53.66Z"/>
        </g>
        <text class="cls-3" transform="translate(216.38 118.93)"><tspan x="0" y="0">38 </tspan><tspan class="cls-14" x="23.47" y="0">р</tspan><tspan x="33.15" y="0">.</tspan></text>
        <text class="cls-3" transform="translate(209.68 166.32)"><tspan x="0" y="0">36,5 </tspan><tspan class="cls-14" x="36.86" y="0">р</tspan><tspan class="cls-18" x="46.54" y="0">.</tspan></text>
        <text class="cls-3" transform="translate(216.38 211.32)"><tspan x="0" y="0">31 </tspan><tspan class="cls-14" x="23.47" y="0">р</tspan><tspan x="33.15" y="0">.</tspan></text>
        <text class="cls-4" transform="translate(316.93 67.41)"><tspan x="0" y="0">КН «Домик» перекидной</tspan><tspan x="16.39" y="13">сетка:6 лис</tspan><tspan class="cls-13" x="83.97" y="13">т</tspan><tspan x="89.72" y="13">ов, 4+4</tspan></text>
        <text class="cls-4" transform="translate(472.84 67.41)"><tspan x="0" y="0">КН «Домик» перекидной</tspan><tspan x="12.79" y="13">сетка:12 лис</tspan><tspan class="cls-24" x="87.57" y="13">т</tspan><tspan x="93.32" y="13">ов, 4+0</tspan></text>
        <text class="cls-3" transform="translate(367.75 118.93)"><tspan x="0" y="0">177 </tspan><tspan class="cls-20" x="33.07" y="0">р</tspan><tspan class="cls-15" x="42.75" y="0">.</tspan></text>
        <text class="cls-3" transform="translate(367.75 166.32)"><tspan x="0" y="0">152 </tspan><tspan class="cls-20" x="33.07" y="0">р</tspan><tspan class="cls-15" x="42.75" y="0">.</tspan></text>
        <text class="cls-3" transform="translate(367.75 211.32)"><tspan x="0" y="0">143 </tspan><tspan class="cls-20" x="33.07" y="0">р</tspan><tspan class="cls-15" x="42.75" y="0">.</tspan></text>
        <text class="cls-3" transform="translate(523.66 118.93)"><tspan x="0" y="0">298 </tspan><tspan class="cls-20" x="33.07" y="0">р</tspan><tspan class="cls-15" x="42.75" y="0">.</tspan></text>
        <text class="cls-3" transform="translate(516.97 166.32)"><tspan x="0" y="0">270,5 </tspan><tspan class="cls-16" x="46.46" y="0">р</tspan><tspan x="56.14" y="0">.</tspan></text>
        <text class="cls-3" transform="translate(523.66 211.32)"><tspan x="0" y="0">237 </tspan><tspan class="cls-20" x="33.07" y="0">р</tspan><tspan class="cls-15" x="42.75" y="0">.</tspan></text>
        <text class="cls-1" transform="translate(650.06 73.1)"><tspan x="0" y="0">Офсе</tspan><tspan class="cls-12" x="43.63" y="0">т</tspan><tspan x="50.26" y="0">, «Домик» с замком, 270 гр</tspan></text>
        <text class="cls-1" transform="translate(657.3 118.93)"><tspan class="cls-11" x="0" y="0">К</tspan><tspan class="cls-21" x="10.91" y="0">о</tspan><tspan x="20.45" y="0">личество</tspan></text>
        <text class="cls-1" transform="translate(682.9 166.32)"><tspan x="0" y="0">Цена</tspan></text>
        <text class="cls-3" transform="translate(700.51 211.32)"><tspan x="0" y="0">-</tspan></text>
        <text class="cls-1" transform="translate(827.03 118.93)"><tspan x="0" y="0">1000 ш</tspan><tspan class="cls-9" x="56.35" y="0">т</tspan><tspan class="cls-15" x="62.98" y="0">.</tspan></text>
        <text class="cls-3" transform="translate(857.04 211.32)"><tspan x="0" y="0">-</tspan></text>
        <text class="cls-1" transform="translate(25.7 212.11)"><tspan x="0" y="0">51-150 ш</tspan><tspan class="cls-12" x="72.96" y="0">т</tspan><tspan class="cls-23" x="79.58" y="0">.</tspan><tspan class="cls-8" x="84.59" y="0">/</tspan><tspan class="cls-10" x="88.69" y="0">р</tspan><tspan x="98.59" y="0">.</tspan></text>
      </g>
    </g>
  </g>
</svg>