<?xml version="1.0" encoding="UTF-8"?>
<svg id="_Слой_2" data-name="Слой 2" xmlns="http://www.w3.org/2000/svg" viewBox="0 0 938.93 230.7">
  <defs>
    <style>
      .cls-1 {
        fill: #fff;
      }

      .cls-1, .cls-2 {
        stroke: #a0b6b5;
        stroke-miterlimit: 10;
      }

      .cls-3 {
        fill: #27625f;
        stroke-width: 0px;
      }

      .cls-2 {
        fill: none;
      }
    </style>
  </defs>
  <g id="_Слой_1-2" data-name="Слой 1">
    <g>
      <g>
        <rect class="cls-1" x=".5" y=".5" width="937.93" height="229.7" rx="10" ry="10"/>
        <line class="cls-2" x1=".5" y1="92.38" x2="938.43" y2="92.38"/>
        <line class="cls-2" x1=".5" y1="138.32" x2="938.43" y2="138.32"/>
        <line class="cls-2" x1=".5" y1="46.44" x2="938.43" y2="46.44"/>
        <line class="cls-2" x1="155.46" y1="46.44" x2="155.46" y2="230.2"/>
        <line class="cls-2" x1=".5" y1="46.44" x2="155.46" y2="92.38"/>
        <line class="cls-2" x1="311.98" y1="46.44" x2="311.98" y2="230.2"/>
        <line class="cls-2" x1="470.26" y1="46.44" x2="470.26" y2="230.2"/>
        <line class="cls-2" x1="625.2" y1="46.44" x2="625.2" y2="230.2"/>
        <line class="cls-2" x1="781.81" y1="92.38" x2="781.81" y2="230.2"/>
        <line class="cls-2" x1=".5" y1="184.26" x2="938.43" y2="184.26"/>
      </g>
      <g>
        <g>
          <path class="cls-3" d="m16.46,27.97v-11.28h2.03v4.8h1.92l-.42.27,3.33-5.07h2.27l-3.71,5.46-.78-.58c.73.11,1.33.35,1.82.74.49.39.91.94,1.27,1.64l2,4.02h-2.22l-1.55-3.25c-.27-.57-.58-.96-.95-1.2-.37-.23-.83-.35-1.4-.35h-1.57v4.8h-2.03Z"/>
          <path class="cls-3" d="m30.57,28.13c-.7,0-1.32-.17-1.86-.5s-.95-.82-1.25-1.45c-.3-.63-.45-1.38-.45-2.26s.15-1.62.45-2.25c.3-.62.71-1.1,1.25-1.44s1.15-.5,1.86-.5,1.28.17,1.8.5.86.79,1.03,1.35h-.18l.18-1.7h1.92c-.03.33-.06.67-.09,1.01-.03.34-.04.68-.04,1.01v6.06h-1.98l-.02-1.66h.19c-.17.55-.52,1-1.04,1.33-.52.33-1.11.5-1.78.5Zm.56-1.54c.63,0,1.14-.22,1.52-.66.38-.44.58-1.11.58-2.01s-.19-1.56-.58-2c-.38-.44-.89-.66-1.52-.66s-1.14.22-1.52.66c-.38.44-.58,1.1-.58,2s.19,1.57.57,2.01c.38.44.89.66,1.53.66Z"/>
          <path class="cls-3" d="m37.32,28.2l-.62-1.57c.35-.13.65-.3.89-.5.24-.21.43-.47.58-.8.14-.33.25-.73.31-1.22.06-.49.1-1.06.1-1.74v-2.48h6.43v8.08h-1.98v-6.54h-2.62v1.01c0,1.16-.11,2.14-.32,2.92-.21.78-.54,1.41-.99,1.86-.45.46-1.04.78-1.76.98Z"/>
          <path class="cls-3" d="m51.24,28.13c-1.35,0-2.42-.37-3.18-1.12-.77-.75-1.15-1.77-1.15-3.07,0-.84.17-1.58.5-2.21.33-.63.79-1.12,1.38-1.47.59-.35,1.28-.53,2.07-.53s1.43.17,1.95.5c.52.33.92.79,1.19,1.39.27.6.41,1.3.41,2.1v.53h-5.89v-1.06h4.46l-.27.22c0-.75-.16-1.32-.47-1.71-.31-.39-.77-.59-1.37-.59-.66,0-1.17.23-1.53.7-.36.47-.54,1.13-.54,1.97v.21c0,.87.22,1.53.65,1.96s1.04.65,1.83.65c.46,0,.89-.06,1.29-.18.4-.12.78-.32,1.14-.6l.59,1.34c-.38.31-.84.55-1.38.72s-1.1.26-1.7.26Z"/>
          <path class="cls-3" d="m56.26,27.97v-8.08h1.98v3.17h3.65v-3.17h1.98v8.08h-1.98v-3.38h-3.65v3.38h-1.98Z"/>
          <path class="cls-3" d="m65.43,30.05v-3.6h.93c.32-.5.55-1.09.7-1.77.14-.68.22-1.51.22-2.49v-2.3h6.22v6.56h1.31v3.6h-1.7v-2.08h-5.98v2.08h-1.7Zm2.72-3.58h3.47v-5.07h-2.66v1.25c0,.71-.07,1.41-.21,2.1s-.34,1.26-.61,1.73Z"/>
          <path class="cls-3" d="m79.46,28.13c-.7,0-1.32-.17-1.86-.5s-.95-.82-1.25-1.45c-.3-.63-.45-1.38-.45-2.26s.15-1.62.45-2.25.71-1.1,1.25-1.44,1.15-.5,1.86-.5,1.28.17,1.8.5.86.79,1.03,1.35h-.18l.18-1.7h1.92c-.03.33-.06.67-.09,1.01-.03.34-.04.68-.04,1.01v6.06h-1.98l-.02-1.66h.19c-.17.55-.52,1-1.04,1.33-.52.33-1.11.5-1.78.5Zm.56-1.54c.63,0,1.14-.22,1.52-.66.38-.44.58-1.11.58-2.01s-.19-1.56-.58-2c-.38-.44-.89-.66-1.52-.66s-1.14.22-1.52.66c-.38.44-.58,1.1-.58,2s.19,1.57.57,2.01c.38.44.89.66,1.53.66Z"/>
          <path class="cls-3" d="m86.49,31.43v-9.52c0-.33-.01-.67-.03-1.01-.02-.34-.05-.68-.1-1.01h1.94l.18,1.7h-.18c.16-.57.5-1.02,1.02-1.35.52-.34,1.12-.5,1.8-.5s1.34.17,1.87.5c.53.34.95.82,1.25,1.44.3.62.45,1.37.45,2.25s-.15,1.63-.45,2.26c-.3.63-.71,1.11-1.25,1.45-.53.34-1.16.5-1.87.5-.67,0-1.26-.17-1.78-.5-.51-.33-.85-.77-1.02-1.33h.18v5.12h-2Zm4.06-4.83c.64,0,1.15-.22,1.54-.66.38-.44.58-1.11.58-2.01s-.19-1.56-.58-2-.9-.66-1.54-.66-1.14.22-1.52.66-.58,1.1-.58,2,.19,1.57.58,2.01c.38.44.89.66,1.52.66Z"/>
          <path class="cls-3" d="m96.57,27.97v-8.08h1.98v2.7h2.13c1.08,0,1.89.23,2.43.68.54.45.82,1.11.82,1.96,0,.55-.13,1.04-.38,1.45-.26.41-.63.73-1.11.95-.49.22-1.07.34-1.75.34h-4.11Zm1.98-1.31h1.86c.54,0,.96-.11,1.25-.34s.43-.58.43-1.05-.14-.81-.42-1.03c-.28-.22-.7-.33-1.26-.33h-1.86v2.75Z"/>
          <path class="cls-3" d="m105.53,24.36v-1.58h4.86v1.58h-4.86Z"/>
          <path class="cls-3" d="m111.48,30.05v-3.6h.93c.32-.5.55-1.09.7-1.77.14-.68.22-1.51.22-2.49v-2.3h6.22v6.56h1.31v3.6h-1.7v-2.08h-5.98v2.08h-1.7Zm2.72-3.58h3.47v-5.07h-2.66v1.25c0,.71-.07,1.41-.21,2.1s-.34,1.26-.61,1.73Z"/>
          <path class="cls-3" d="m126.04,28.13c-.83,0-1.55-.17-2.16-.51-.61-.34-1.08-.83-1.42-1.46-.34-.63-.5-1.38-.5-2.24s.17-1.61.5-2.23c.34-.62.81-1.11,1.42-1.45.61-.34,1.33-.51,2.16-.51s1.55.17,2.17.51c.61.34,1.09.82,1.42,1.45.34.62.5,1.37.5,2.23s-.17,1.61-.5,2.24c-.34.63-.81,1.11-1.42,1.46-.61.34-1.34.51-2.17.51Zm0-1.54c.63,0,1.13-.22,1.5-.66.37-.44.56-1.11.56-2.01s-.19-1.56-.56-2c-.37-.44-.87-.66-1.5-.66s-1.13.22-1.5.66-.56,1.1-.56,2,.19,1.57.56,2.01c.37.44.88.66,1.5.66Z"/>
          <path class="cls-3" d="m132.02,27.97v-8.08h1.66l2.78,4.83,2.78-4.83h1.66v8.08h-1.76v-5.84h.37l-2.59,4.53h-.93l-2.59-4.53h.37v5.84h-1.76Z"/>
          <path class="cls-3" d="m143.19,27.97v-8.08h1.81v6.11h-.48l4.59-6.11h1.65v8.08h-1.81v-6.13h.5l-4.61,6.13h-1.65Z"/>
          <path class="cls-3" d="m153.03,27.97v-8.08h1.98v3.17h1.22l2.37-3.17h2.14l-2.98,4.03-.43-.62c.3.03.56.11.79.24.23.13.45.31.66.54s.41.52.62.87l1.7,3.02h-2.13l-1.38-2.43c-.14-.25-.28-.44-.42-.58s-.29-.23-.46-.29c-.17-.05-.38-.08-.62-.08h-1.07v3.38h-1.98Z"/>
        </g>
        <g>
          <path class="cls-3" d="m104.62,58.45v-8.46h3.71c.92,0,1.63.19,2.12.58.5.39.74.93.74,1.61,0,.51-.15.94-.46,1.3-.3.35-.72.59-1.26.71v-.18c.62.09,1.09.31,1.43.67.34.36.51.83.51,1.41,0,.75-.26,1.33-.78,1.75-.52.41-1.24.62-2.17.62h-3.85Zm1.49-4.87h1.96c.55,0,.96-.1,1.23-.31s.4-.51.4-.91-.13-.7-.4-.91c-.27-.2-.68-.31-1.23-.31h-1.96v2.42Zm0,3.7h2.18c.52,0,.92-.1,1.21-.29.29-.2.43-.52.43-.97s-.14-.78-.43-.98c-.29-.2-.69-.29-1.21-.29h-2.18v2.53Z"/>
          <path class="cls-3" d="m112.82,58.45v-6.06h1.36v4.58h-.36l3.44-4.58h1.24v6.06h-1.36v-4.6h.37l-3.46,4.6h-1.24Z"/>
          <path class="cls-3" d="m119.66,60.01v-2.7h.7c.24-.38.41-.82.52-1.33.11-.51.16-1.13.16-1.87v-1.73h4.67v4.92h.98v2.7h-1.27v-1.56h-4.49v1.56h-1.27Zm2.04-2.69h2.6v-3.8h-1.99v.94c0,.54-.05,1.06-.16,1.57s-.26.94-.46,1.3Z"/>
          <path class="cls-3" d="m83.38,67.45v-6.06h1.49v2.38h.91l1.78-2.38h1.61l-2.23,3.02-.32-.47c.22.02.42.08.59.18.17.1.34.23.49.4.16.17.31.39.46.65l1.27,2.27h-1.6l-1.03-1.82c-.1-.18-.21-.33-.31-.43-.1-.1-.22-.18-.35-.22s-.28-.06-.47-.06h-.8v2.53h-1.49Z"/>
          <path class="cls-3" d="m92.61,67.57c-.53,0-.99-.13-1.39-.38-.4-.25-.71-.61-.94-1.09-.22-.47-.34-1.04-.34-1.69s.11-1.22.34-1.69c.22-.47.54-.83.94-1.08.4-.25.86-.38,1.39-.38s.96.13,1.35.38.65.59.77,1.01h-.13l.13-1.27h1.44c-.02.25-.05.5-.07.76s-.03.51-.03.76v4.55h-1.49v-1.25s.13,0,.13,0c-.13.42-.39.75-.78,1-.39.25-.84.37-1.33.37Zm.42-1.15c.47,0,.85-.17,1.14-.5.29-.33.43-.83.43-1.51s-.14-1.17-.43-1.5c-.29-.33-.67-.49-1.14-.49s-.85.16-1.14.49c-.29.33-.43.83-.43,1.5s.14,1.17.43,1.51c.28.33.67.5,1.15.5Z"/>
          <path class="cls-3" d="m97.67,67.62l-.47-1.18c.26-.1.49-.22.67-.38s.32-.36.43-.6c.11-.24.19-.55.23-.91s.07-.8.07-1.3v-1.86h4.82v6.06h-1.49v-4.91h-1.97v.76c0,.87-.08,1.6-.24,2.19-.16.59-.41,1.05-.74,1.4s-.78.59-1.32.73Z"/>
          <path class="cls-3" d="m108.11,67.57c-1.02,0-1.81-.28-2.39-.84s-.86-1.33-.86-2.3c0-.63.12-1.18.37-1.66.25-.47.59-.84,1.04-1.1.44-.26.96-.4,1.55-.4s1.07.12,1.46.37.69.6.89,1.04.31.97.31,1.57v.4h-4.42v-.79h3.35l-.2.17c0-.56-.12-.99-.35-1.28-.24-.3-.58-.44-1.03-.44-.5,0-.88.18-1.15.53-.27.35-.4.84-.4,1.48v.16c0,.66.16,1.15.49,1.47.32.32.78.49,1.37.49.34,0,.67-.05.97-.14.3-.09.59-.24.86-.45l.44,1.01c-.29.23-.63.41-1.03.54-.4.13-.82.19-1.27.19Z"/>
          <path class="cls-3" d="m111.88,67.45v-6.06h1.49v2.38h2.74v-2.38h1.49v6.06h-1.49v-2.53h-2.74v2.53h-1.49Z"/>
          <path class="cls-3" d="m118.76,69.01v-2.7h.7c.24-.38.41-.82.52-1.33.11-.51.16-1.13.16-1.87v-1.73h4.67v4.92h.98v2.7h-1.27v-1.56h-4.49v1.56h-1.27Zm2.04-2.69h2.6v-3.8h-1.99v.94c0,.54-.05,1.06-.16,1.57s-.26.94-.46,1.3Z"/>
          <path class="cls-3" d="m129.28,67.57c-.53,0-.99-.13-1.39-.38s-.71-.61-.94-1.09c-.22-.47-.34-1.04-.34-1.69s.11-1.22.34-1.69c.22-.47.54-.83.94-1.08s.86-.38,1.39-.38.96.13,1.35.38c.39.25.65.59.77,1.01h-.13l.13-1.27h1.44c-.02.25-.04.5-.06.76-.02.26-.03.51-.03.76v4.55h-1.49v-1.25s.13,0,.13,0c-.13.42-.39.75-.78,1-.39.25-.84.37-1.33.37Zm.42-1.15c.47,0,.85-.17,1.14-.5.29-.33.43-.83.43-1.51s-.14-1.17-.43-1.5c-.29-.33-.67-.49-1.14-.49s-.85.16-1.14.49c-.29.33-.43.83-.43,1.5s.14,1.17.43,1.51c.28.33.67.5,1.15.5Z"/>
          <path class="cls-3" d="m134.55,70.04v-7.14c0-.25,0-.5-.02-.76s-.04-.51-.07-.76h1.45l.13,1.27h-.13c.12-.42.37-.76.76-1.01.39-.25.84-.38,1.35-.38s1,.13,1.4.38c.4.25.71.61.94,1.08s.34,1.03.34,1.69-.11,1.22-.34,1.69-.54.83-.94,1.09c-.4.25-.87.38-1.4.38-.5,0-.95-.12-1.33-.37s-.64-.58-.77-1h.13v3.84h-1.5Zm3.05-3.62c.48,0,.86-.17,1.15-.5s.43-.83.43-1.51-.14-1.17-.43-1.5c-.29-.33-.67-.49-1.15-.49s-.85.16-1.14.49c-.29.33-.43.83-.43,1.5s.14,1.17.43,1.51.67.5,1.14.5Z"/>
          <path class="cls-3" d="m141.6,67.45l.92-1.6c.16-.27.36-.49.59-.65.24-.16.48-.25.74-.25h.26v.13c-.72,0-1.27-.16-1.66-.47-.38-.31-.58-.77-.58-1.37s.2-1.05.59-1.37c.4-.32.98-.49,1.75-.49h3.01v6.06h-1.37v-2.14h-.68c-.25,0-.47.07-.65.2-.19.14-.35.31-.47.53l-.79,1.4h-1.67Zm2.92-3.11h1.36v-1.98h-1.36c-.41,0-.71.09-.92.26-.2.18-.31.42-.31.72,0,.32.1.57.31.74.2.17.51.26.92.26Z"/>
        </g>
        <g>
          <path class="cls-3" d="m12.26,81.58v-9.58h-3.73v-1.7h9.52v1.7h-3.73v9.58h-2.06Z"/>
          <path class="cls-3" d="m18.15,81.58v-8.08h1.81v6.11h-.48l4.59-6.11h1.65v8.08h-1.81v-6.13h.5l-4.61,6.13h-1.65Z"/>
          <path class="cls-3" d="m28.06,85.04v-9.52c0-.33-.01-.67-.03-1.01-.02-.34-.05-.68-.1-1.01h1.94l.18,1.7h-.18c.16-.57.5-1.02,1.02-1.35.52-.34,1.12-.5,1.8-.5s1.34.17,1.87.5c.53.34.95.82,1.25,1.44s.45,1.37.45,2.25-.15,1.63-.45,2.26c-.3.63-.71,1.11-1.25,1.45-.53.34-1.16.5-1.87.5-.67,0-1.26-.17-1.78-.5-.51-.33-.85-.77-1.02-1.33h.18v5.12h-2Zm4.06-4.83c.64,0,1.15-.22,1.54-.66.38-.44.58-1.11.58-2.01s-.19-1.56-.58-2c-.38-.44-.9-.66-1.54-.66s-1.14.22-1.52.66c-.38.44-.58,1.1-.58,2s.19,1.57.58,2.01c.38.44.89.66,1.52.66Z"/>
          <path class="cls-3" d="m41.32,81.74c-.7,0-1.32-.17-1.86-.5-.53-.34-.95-.82-1.25-1.45-.3-.63-.45-1.38-.45-2.26s.15-1.62.45-2.25c.3-.62.71-1.1,1.25-1.44s1.15-.5,1.86-.5,1.28.17,1.8.5c.52.34.86.79,1.03,1.35h-.18l.18-1.7h1.92c-.03.33-.06.67-.09,1.01-.03.34-.04.68-.04,1.01v6.06h-1.98l-.02-1.66h.19c-.17.55-.52,1-1.04,1.33-.52.33-1.11.5-1.78.5Zm.56-1.54c.63,0,1.14-.22,1.52-.66.38-.44.58-1.11.58-2.01s-.19-1.56-.58-2c-.38-.44-.89-.66-1.52-.66s-1.14.22-1.52.66c-.38.44-.58,1.1-.58,2s.19,1.57.57,2.01c.38.44.89.66,1.53.66Z"/>
          <path class="cls-3" d="m47.06,81.58l1.7-3.02c.21-.35.42-.64.62-.87.2-.23.41-.41.65-.54s.5-.21.8-.24l-.42.62-2.99-4.03h2.14l2.38,3.17h1.01v-3.17h1.98v3.17h.99l2.37-3.17h2.16l-3.01,4.03-.42-.62c.3.03.57.11.8.24.23.13.46.31.66.54s.41.52.62.87l1.7,3.02h-2.13l-1.38-2.43c-.14-.25-.28-.44-.42-.58s-.29-.24-.46-.29c-.17-.05-.38-.08-.62-.08h-.86v3.38h-1.98v-3.38h-.88c-.25,0-.45.03-.62.08-.17.05-.32.15-.46.29-.13.14-.27.33-.42.58l-1.38,2.43h-2.13Z"/>
        </g>
        <g>
          <path class="cls-3" d="m32.28,165.32v-1.71h2.59v-7.84h.99l-3.33,1.98v-1.95l2.93-1.76h1.47v9.57h2.43v1.71h-7.09Z"/>
          <path class="cls-3" d="m41.88,165.32v-1.71h2.59v-7.84h.99l-3.33,1.98v-1.95l2.93-1.76h1.47v9.57h2.43v1.71h-7.09Z"/>
          <path class="cls-3" d="m50.77,161.71v-1.58h4.86v1.58h-4.86Z"/>
          <path class="cls-3" d="m61.59,165.48c-.49,0-.98-.05-1.46-.16s-.94-.26-1.36-.45c-.42-.19-.78-.42-1.08-.69l.67-1.55c.5.37,1.02.65,1.54.84.53.19,1.08.28,1.66.28.69,0,1.23-.17,1.62-.52.39-.35.58-.81.58-1.4s-.19-1.08-.56-1.45c-.37-.37-.89-.55-1.54-.55-.46,0-.88.09-1.26.26-.38.18-.72.45-1.02.81h-1.36v-6.86h7.01v1.7h-5.06v3.58h-.5c.28-.37.65-.66,1.11-.86.46-.2.98-.3,1.56-.3.73,0,1.35.15,1.89.45.53.3.95.72,1.25,1.26.3.54.45,1.17.45,1.9s-.17,1.38-.5,1.94c-.34.56-.82,1-1.44,1.31s-1.36.47-2.22.47Z"/>
          <path class="cls-3" d="m71.11,165.48c-1.32,0-2.34-.5-3.06-1.51-.71-1.01-1.07-2.45-1.07-4.31s.36-3.32,1.07-4.3c.71-.98,1.73-1.47,3.06-1.47s2.35.49,3.06,1.47,1.06,2.41,1.06,4.29-.35,3.32-1.06,4.33-1.73,1.51-3.06,1.51Zm0-1.7c.73,0,1.26-.33,1.62-1s.53-1.71.53-3.14-.18-2.47-.53-3.11-.89-.97-1.62-.97-1.25.32-1.61.97-.54,1.68-.54,3.11.18,2.48.54,3.14.89,1,1.61,1Z"/>
          <path class="cls-3" d="m81.43,165.32v-8.08h1.87v6.54h2.85v-6.54h1.86v6.54h2.85v-6.54h1.87v8.08h-11.3Z"/>
          <path class="cls-3" d="m96.74,165.32v-6.51h-2.77v-1.57h7.54v1.57h-2.78v6.51h-1.98Z"/>
          <path class="cls-3" d="m101.35,165.32v-2.22h2.24v2.22h-2.24Z"/>
          <path class="cls-3" d="m106.74,166.27h-1.65l4.21-12.98h1.65l-4.21,12.98Z"/>
          <path class="cls-3" d="m110.79,168.78v-9.52c0-.33-.01-.67-.03-1.01-.02-.34-.05-.68-.1-1.01h1.94l.18,1.7h-.18c.16-.57.5-1.02,1.02-1.35.52-.34,1.12-.5,1.8-.5s1.34.17,1.87.5c.53.34.95.82,1.25,1.44.3.62.45,1.37.45,2.25s-.15,1.63-.45,2.26c-.3.63-.71,1.11-1.25,1.45-.53.34-1.16.5-1.87.5-.67,0-1.26-.17-1.78-.5-.51-.33-.85-.77-1.02-1.33h.18v5.12h-2Zm4.06-4.83c.64,0,1.15-.22,1.54-.66s.58-1.11.58-2.01-.19-1.56-.58-2-.9-.66-1.54-.66-1.14.22-1.52.66-.58,1.1-.58,2,.19,1.57.58,2.01.89.66,1.52.66Z"/>
          <path class="cls-3" d="m120.35,165.32v-2.22h2.24v2.22h-2.24Z"/>
        </g>
        <g>
          <path class="cls-3" d="m37.08,120.32v-1.71h2.59v-7.84h.99l-3.33,1.98v-1.95l2.93-1.76h1.47v9.57h2.43v1.71h-7.09Z"/>
          <path class="cls-3" d="m45.97,116.71v-1.58h4.86v1.58h-4.86Z"/>
          <path class="cls-3" d="m53.68,120.32v-1.71h2.59v-7.84h.99l-3.33,1.98v-1.95l2.93-1.76h1.47v9.57h2.43v1.71h-7.09Z"/>
          <path class="cls-3" d="m66.31,120.48c-1.32,0-2.34-.5-3.06-1.51-.71-1.01-1.07-2.45-1.07-4.31s.36-3.32,1.07-4.3c.71-.98,1.73-1.47,3.06-1.47s2.35.49,3.06,1.47,1.06,2.41,1.06,4.29-.35,3.32-1.06,4.33-1.73,1.51-3.06,1.51Zm0-1.7c.73,0,1.26-.33,1.62-1s.53-1.71.53-3.14-.18-2.47-.53-3.11-.89-.97-1.62-.97-1.25.32-1.61.97-.54,1.68-.54,3.11.18,2.48.54,3.14.89,1,1.61,1Z"/>
          <path class="cls-3" d="m76.63,120.32v-8.08h1.87v6.54h2.85v-6.54h1.86v6.54h2.85v-6.54h1.87v8.08h-11.3Z"/>
          <path class="cls-3" d="m91.94,120.32v-6.51h-2.77v-1.57h7.54v1.57h-2.78v6.51h-1.98Z"/>
          <path class="cls-3" d="m96.55,120.32v-2.22h2.24v2.22h-2.24Z"/>
          <path class="cls-3" d="m101.94,121.27h-1.65l4.21-12.98h1.65l-4.21,12.98Z"/>
          <path class="cls-3" d="m105.99,123.78v-9.52c0-.33-.01-.67-.03-1.01-.02-.34-.05-.68-.1-1.01h1.94l.18,1.7h-.18c.16-.57.5-1.02,1.02-1.35.52-.34,1.12-.5,1.8-.5s1.34.17,1.87.5c.53.34.95.82,1.25,1.44.3.62.45,1.37.45,2.25s-.15,1.63-.45,2.26c-.3.63-.71,1.11-1.25,1.45-.53.34-1.16.5-1.87.5-.67,0-1.26-.17-1.78-.5-.51-.33-.85-.77-1.02-1.33h.18v5.12h-2Zm4.06-4.83c.64,0,1.15-.22,1.54-.66s.58-1.11.58-2.01-.19-1.56-.58-2-.9-.66-1.54-.66-1.14.22-1.52.66-.58,1.1-.58,2,.19,1.57.58,2.01.89.66,1.52.66Z"/>
          <path class="cls-3" d="m115.55,120.32v-2.22h2.24v2.22h-2.24Z"/>
        </g>
        <g>
          <path class="cls-3" d="m187.74,68.41v-11.28h2.03v4.8h1.92l-.42.27,3.33-5.07h2.27l-3.71,5.46-.78-.58c.73.11,1.33.35,1.82.74.49.39.91.94,1.27,1.64l2,4.02h-2.22l-1.55-3.25c-.27-.57-.58-.96-.95-1.2-.37-.23-.83-.35-1.4-.35h-1.57v4.8h-2.03Z"/>
          <path class="cls-3" d="m198.78,68.41v-11.28h2.06v4.7h5.78v-4.7h2.06v11.28h-2.06v-4.86h-5.78v4.86h-2.06Z"/>
          <path class="cls-3" d="m216.78,67.03l-2.1-2.91,2.1-2.91h1.66l-1.97,2.91,1.97,2.91h-1.66Zm3.33,0l-2.1-2.91,2.1-2.91h1.66l-1.97,2.91,1.97,2.91h-1.66Z"/>
          <path class="cls-3" d="m222.49,71.05v-4.26h1.17c.53-.64.93-1.51,1.18-2.62.26-1.11.38-2.47.38-4.1v-2.94h8.18v9.66h1.65v4.26h-1.79v-2.64h-8.96v2.64h-1.81Zm3.23-4.26h5.63v-8.06h-4.24v1.54c0,1.55-.11,2.85-.34,3.9-.23,1.06-.58,1.93-1.05,2.62Z"/>
          <path class="cls-3" d="m240.26,68.57c-.83,0-1.55-.17-2.16-.51-.61-.34-1.08-.83-1.42-1.46s-.5-1.38-.5-2.24.17-1.61.5-2.23.81-1.11,1.42-1.45c.61-.34,1.33-.51,2.16-.51s1.55.17,2.17.51c.61.34,1.09.82,1.42,1.45s.5,1.37.5,2.23-.17,1.61-.5,2.24-.81,1.11-1.42,1.46c-.61.34-1.34.51-2.17.51Zm0-1.54c.63,0,1.13-.22,1.5-.66.37-.44.56-1.11.56-2.01s-.19-1.56-.56-2c-.37-.44-.88-.66-1.5-.66s-1.13.22-1.5.66c-.37.44-.56,1.1-.56,2s.19,1.57.56,2.01c.37.44.87.66,1.5.66Z"/>
          <path class="cls-3" d="m246.25,68.41v-8.08h1.66l2.78,4.83,2.78-4.83h1.66v8.08h-1.76v-5.84h.37l-2.59,4.53h-.93l-2.59-4.53h.37v5.84h-1.76Z"/>
          <path class="cls-3" d="m257.42,68.41v-8.08h1.81v6.11h-.48l4.59-6.11h1.65v8.08h-1.81v-6.13h.5l-4.61,6.13h-1.65Z"/>
          <path class="cls-3" d="m267.25,68.41v-8.08h1.98v3.17h1.22l2.37-3.17h2.14l-2.98,4.03-.43-.62c.3.03.56.11.79.24.23.13.45.31.66.54s.41.52.62.87l1.7,3.02h-2.13l-1.38-2.43c-.14-.25-.28-.44-.42-.58s-.29-.23-.46-.29c-.17-.05-.38-.08-.62-.08h-1.07v3.38h-1.98Z"/>
          <path class="cls-3" d="m277.4,67.03h-1.66l1.97-2.91-1.97-2.91h1.68l2.08,2.91-2.1,2.91Zm3.33,0h-1.66l1.97-2.91-1.97-2.91h1.68l2.08,2.91-2.1,2.91Z"/>
          <path class="cls-3" d="m209.75,81.57c-.78,0-1.53-.11-2.24-.34-.71-.23-1.3-.55-1.76-.95l.67-1.55c.5.38,1.02.67,1.56.85s1.11.27,1.7.27c.73,0,1.27-.14,1.65-.43.37-.29.56-.71.56-1.26s-.18-.94-.55-1.21c-.37-.27-.9-.41-1.61-.41h-1.82v-1.65h1.65c.61,0,1.09-.15,1.46-.45.36-.3.54-.71.54-1.23,0-.49-.17-.86-.5-1.12-.34-.26-.82-.38-1.45-.38-1.13,0-2.13.38-2.99,1.15l-.67-1.54c.46-.43,1.03-.76,1.7-.99.68-.23,1.39-.35,2.14-.35,1.17,0,2.09.26,2.76.79.67.53,1,1.26,1,2.2,0,.67-.19,1.25-.57,1.74-.38.49-.9.81-1.56.97v-.19c.78.13,1.38.45,1.82.95s.65,1.14.65,1.9c0,1-.37,1.79-1.1,2.38-.74.58-1.74.87-3.02.87Z"/>
          <path class="cls-3" d="m224.02,81.57c-.83,0-1.56-.17-2.18-.51-.62-.34-1.11-.83-1.45-1.46s-.51-1.39-.51-2.26.17-1.62.52-2.24c.35-.62.83-1.09,1.45-1.42.62-.33,1.34-.5,2.18-.5.53,0,1.05.08,1.56.25.51.17.92.4,1.24.71l-.61,1.39c-.29-.27-.61-.47-.97-.6-.36-.13-.71-.2-1.05-.2-.71,0-1.27.22-1.67.67s-.6,1.1-.6,1.95.2,1.51.6,1.97.96.69,1.67.69c.33,0,.67-.06,1.03-.19.36-.13.69-.33.98-.59l.61,1.38c-.33.31-.75.55-1.26.72-.51.17-1.02.26-1.54.26Z"/>
          <path class="cls-3" d="m228.54,81.41v-8.08h6.06v1.57h-4.06v6.51h-2Z"/>
          <path class="cls-3" d="m236.01,81.41v-8.08h1.81v6.11h-.48l4.59-6.11h1.65v8.08h-1.81v-6.13h.5l-4.61,6.13h-1.65Z"/>
          <path class="cls-3" d="m249.64,81.57c-1.27,0-2.28-.38-3.03-1.15-.75-.77-1.13-1.89-1.13-3.38v-1.38c0-1.52.35-2.75,1.04-3.68.69-.93,1.74-1.54,3.14-1.84l2.96-.67.54,1.57-3.33.74c-.55.12-1.01.34-1.38.66-.36.33-.63.71-.82,1.16-.18.45-.27.93-.27,1.44v.85h-.27c.12-.48.31-.9.59-1.26.28-.36.63-.64,1.06-.84.43-.2.91-.3,1.46-.3.68,0,1.28.16,1.8.47.52.32.92.77,1.22,1.36s.45,1.3.45,2.12-.17,1.57-.5,2.19c-.34.62-.81,1.1-1.41,1.43s-1.31.5-2.12.5Zm-.06-1.52c.66,0,1.18-.21,1.54-.63.37-.42.55-1.05.55-1.9s-.19-1.45-.56-1.88c-.37-.43-.89-.65-1.54-.65s-1.16.21-1.54.64c-.37.43-.56,1.03-.56,1.82,0,.86.19,1.51.56,1.94.37.43.88.65,1.54.65Z"/>
          <path class="cls-3" d="m258.74,81.57c-.7,0-1.32-.17-1.86-.5s-.95-.82-1.25-1.45c-.3-.63-.45-1.38-.45-2.26s.15-1.62.45-2.25.71-1.1,1.25-1.44,1.15-.5,1.86-.5,1.28.17,1.8.5.86.79,1.03,1.35h-.18l.18-1.7h1.92c-.03.33-.06.67-.09,1.01-.03.34-.04.68-.04,1.01v6.06h-1.98l-.02-1.66h.19c-.17.55-.52,1-1.04,1.33-.52.33-1.11.5-1.78.5Zm.56-1.54c.63,0,1.14-.22,1.52-.66.38-.44.58-1.11.58-2.01s-.19-1.56-.58-2c-.38-.44-.89-.66-1.52-.66s-1.14.22-1.52.66c-.38.44-.58,1.1-.58,2s.19,1.57.57,2.01c.38.44.89.66,1.53.66Z"/>
        </g>
        <g>
          <path class="cls-3" d="m221.06,119.07c-.77,0-1.5-.11-2.21-.34s-1.29-.56-1.76-.98l.58-1.26c.52.41,1.06.7,1.6.9.54.19,1.13.29,1.74.29.79,0,1.39-.17,1.8-.5.41-.33.62-.81.62-1.42s-.21-1.07-.62-1.38-1.02-.47-1.82-.47h-1.74v-1.34h1.62c.68,0,1.23-.17,1.63-.52s.61-.82.61-1.42c0-.54-.19-.96-.56-1.26-.37-.29-.91-.44-1.6-.44-1.17,0-2.2.41-3.09,1.23l-.56-1.26c.44-.44.99-.78,1.66-1.02.67-.24,1.38-.36,2.11-.36,1.13,0,2.02.26,2.67.78.65.52.98,1.24.98,2.15,0,.69-.19,1.29-.58,1.78-.39.49-.92.82-1.59.98v-.18c.8.13,1.42.45,1.85.95.43.51.65,1.14.65,1.9,0,1-.35,1.79-1.06,2.36-.71.57-1.68.86-2.92.86Z"/>
          <path class="cls-3" d="m230.78,119.07c-1.3,0-2.31-.28-3.04-.83-.73-.55-1.09-1.33-1.09-2.32,0-.79.24-1.44.72-1.96.48-.52,1.11-.83,1.89-.94v.29c-.7-.15-1.27-.47-1.69-.98-.42-.5-.63-1.11-.63-1.82,0-.94.34-1.67,1.02-2.21s1.62-.8,2.82-.8,2.15.27,2.83.8,1.02,1.27,1.02,2.21c0,.71-.2,1.33-.6,1.83-.4.51-.95.82-1.64.95v-.27c.77.11,1.38.42,1.84.94.46.52.69,1.17.69,1.96,0,.99-.36,1.76-1.09,2.32-.73.55-1.74.83-3.06.83Zm0-1.31c.86,0,1.51-.16,1.94-.49s.64-.81.64-1.46-.21-1.14-.64-1.46-1.07-.48-1.94-.48-1.51.16-1.94.48-.64.81-.64,1.46.22,1.14.65,1.46,1.07.49,1.93.49Zm0-5.2c.75,0,1.31-.17,1.7-.5.39-.34.58-.8.58-1.38s-.19-1.03-.58-1.36c-.39-.33-.96-.5-1.7-.5s-1.3.17-1.7.5c-.39.33-.59.78-.59,1.36s.2,1.05.59,1.38.96.5,1.7.5Z"/>
          <path class="cls-3" d="m241.13,122.39v-9.58c0-.31-.01-.63-.04-.95-.03-.33-.06-.65-.09-.98h1.57l.16,1.82h-.18c.17-.61.51-1.09,1.03-1.44.52-.35,1.13-.53,1.85-.53s1.34.17,1.87.5c.53.34.95.81,1.24,1.43.29.62.44,1.37.44,2.24s-.15,1.61-.44,2.24c-.29.63-.71,1.11-1.24,1.44-.53.33-1.16.5-1.87.5s-1.31-.17-1.83-.52c-.52-.35-.86-.82-1.03-1.42h.18v5.25h-1.62Zm3.9-4.58c.7,0,1.27-.25,1.69-.74.42-.49.63-1.22.63-2.18s-.21-1.68-.63-2.17-.98-.73-1.69-.73-1.27.24-1.69.73-.63,1.21-.63,2.17.21,1.69.63,2.18c.42.49.98.74,1.69.74Z"/>
          <path class="cls-3" d="m250.47,118.93v-1.9h1.9v1.9h-1.9Z"/>
        </g>
        <g>
          <path class="cls-3" d="m214.37,166.47c-.77,0-1.5-.11-2.21-.34s-1.29-.56-1.76-.98l.58-1.26c.52.41,1.06.7,1.6.9.54.19,1.13.29,1.74.29.79,0,1.39-.17,1.8-.5.41-.33.62-.81.62-1.42s-.21-1.07-.62-1.38-1.02-.47-1.82-.47h-1.74v-1.34h1.62c.68,0,1.23-.17,1.63-.52s.61-.82.61-1.42c0-.54-.19-.96-.56-1.26-.37-.29-.91-.44-1.6-.44-1.17,0-2.2.41-3.09,1.23l-.56-1.26c.44-.44.99-.78,1.66-1.02.67-.24,1.38-.36,2.11-.36,1.13,0,2.02.26,2.67.78.65.52.98,1.24.98,2.15,0,.69-.19,1.29-.58,1.78-.39.49-.92.82-1.59.98v-.18c.8.13,1.42.45,1.85.95.43.51.65,1.14.65,1.9,0,1-.35,1.79-1.06,2.36-.71.57-1.68.86-2.92.86Z"/>
          <path class="cls-3" d="m224.46,166.47c-1.4,0-2.47-.49-3.22-1.46s-1.13-2.33-1.13-4.08c0-1.3.19-2.4.58-3.29.38-.89.93-1.57,1.64-2.04.71-.47,1.57-.7,2.57-.7.6,0,1.19.11,1.79.34.6.23,1.1.55,1.5.97l-.59,1.25c-.39-.38-.83-.67-1.3-.86-.47-.19-.94-.29-1.42-.29-1.03,0-1.82.36-2.37,1.08-.54.72-.82,1.79-.82,3.22v1.36h-.16c.07-.58.26-1.07.54-1.5.29-.42.66-.74,1.12-.97.46-.22.97-.34,1.54-.34.67,0,1.27.16,1.78.46.52.31.92.73,1.22,1.27.3.54.45,1.15.45,1.85s-.16,1.35-.48,1.92c-.32.57-.76,1.01-1.32,1.32s-1.2.47-1.93.47Zm-.1-1.34c.45,0,.84-.1,1.18-.29s.6-.46.79-.81c.19-.35.29-.75.29-1.21s-.1-.86-.29-1.2c-.19-.34-.46-.61-.79-.81-.34-.2-.73-.3-1.18-.3s-.84.1-1.18.3c-.34.2-.61.47-.8.81s-.29.74-.29,1.2.1.86.29,1.21.46.62.8.81.74.29,1.18.29Z"/>
          <path class="cls-3" d="m230.64,168.29l-.7-.54c.31-.33.52-.63.63-.91s.17-.57.17-.86l.35.35h-1.26v-1.9h1.9v1.3c0,.48-.08.93-.24,1.34-.16.41-.44.82-.85,1.24Z"/>
          <path class="cls-3" d="m237.63,166.47c-.49,0-.98-.05-1.46-.16s-.93-.26-1.34-.46c-.42-.2-.78-.43-1.09-.71l.58-1.26c.51.39,1.04.69,1.58.89.54.2,1.11.3,1.7.3.76,0,1.35-.2,1.78-.59s.65-.92.65-1.58-.21-1.23-.62-1.66c-.41-.42-.98-.63-1.7-.63-.5,0-.96.1-1.37.3-.41.2-.77.51-1.08.93h-1.15v-6.78h6.83v1.39h-5.25v4.06h-.42c.29-.41.67-.72,1.16-.94.49-.22,1.03-.34,1.64-.34.73,0,1.35.15,1.89.45s.95.71,1.24,1.25c.29.53.44,1.16.44,1.89s-.16,1.36-.49,1.91c-.33.55-.79.98-1.39,1.29-.6.31-1.31.46-2.14.46Z"/>
          <path class="cls-3" d="m247.82,169.78v-9.58c0-.31-.01-.63-.04-.95-.03-.33-.06-.65-.09-.98h1.57l.16,1.82h-.18c.17-.61.51-1.09,1.03-1.44.52-.35,1.13-.53,1.85-.53s1.34.17,1.87.5.95.81,1.24,1.43c.29.62.44,1.37.44,2.24s-.15,1.61-.44,2.24c-.29.63-.71,1.11-1.24,1.44-.53.33-1.16.5-1.87.5s-1.31-.17-1.83-.52-.86-.82-1.03-1.42h.18v5.25h-1.62Zm3.9-4.58c.7,0,1.27-.25,1.69-.74.42-.49.63-1.22.63-2.18s-.21-1.68-.63-2.17c-.42-.49-.98-.73-1.69-.73s-1.27.24-1.69.73c-.42.49-.63,1.21-.63,2.17s.21,1.69.63,2.18c.42.49.98.74,1.69.74Z"/>
          <path class="cls-3" d="m257.17,166.32v-1.9h1.9v1.9h-1.9Z"/>
        </g>
        <g>
          <path class="cls-3" d="m221.06,211.47c-.77,0-1.5-.11-2.21-.34s-1.29-.56-1.76-.98l.58-1.26c.52.41,1.06.7,1.6.9.54.19,1.13.29,1.74.29.79,0,1.39-.17,1.8-.5.41-.33.62-.81.62-1.42s-.21-1.07-.62-1.38-1.02-.47-1.82-.47h-1.74v-1.34h1.62c.68,0,1.23-.17,1.63-.52s.61-.82.61-1.42c0-.54-.19-.96-.56-1.26-.37-.29-.91-.44-1.6-.44-1.17,0-2.2.41-3.09,1.23l-.56-1.26c.44-.44.99-.78,1.66-1.02.67-.24,1.38-.36,2.11-.36,1.13,0,2.02.26,2.67.78.65.52.98,1.24.98,2.15,0,.69-.19,1.29-.58,1.78-.39.49-.92.82-1.59.98v-.18c.8.13,1.42.45,1.85.95.43.51.65,1.14.65,1.9,0,1-.35,1.79-1.06,2.36-.71.57-1.68.86-2.92.86Z"/>
          <path class="cls-3" d="m227.9,211.32v-1.39h2.62v-8.48h.83l-3.2,1.95v-1.6l2.83-1.76h1.2v9.89h2.46v1.39h-6.75Z"/>
          <path class="cls-3" d="m241.13,214.78v-9.58c0-.31-.01-.63-.04-.95-.03-.33-.06-.65-.09-.98h1.57l.16,1.82h-.18c.17-.61.51-1.09,1.03-1.44.52-.35,1.13-.53,1.85-.53s1.34.17,1.87.5c.53.34.95.81,1.24,1.43.29.62.44,1.37.44,2.24s-.15,1.61-.44,2.24c-.29.63-.71,1.11-1.24,1.44-.53.33-1.16.5-1.87.5s-1.31-.17-1.83-.52c-.52-.35-.86-.82-1.03-1.42h.18v5.25h-1.62Zm3.9-4.58c.7,0,1.27-.25,1.69-.74.42-.49.63-1.22.63-2.18s-.21-1.68-.63-2.17-.98-.73-1.69-.73-1.27.24-1.69.73-.63,1.21-.63,2.17.21,1.69.63,2.18c.42.49.98.74,1.69.74Z"/>
          <path class="cls-3" d="m250.47,211.32v-1.9h1.9v1.9h-1.9Z"/>
        </g>
        <g>
          <path class="cls-3" d="m317.86,67.41v-8.46h1.52v3.6h1.44l-.31.2,2.5-3.8h1.7l-2.78,4.09-.59-.43c.54.08,1,.27,1.36.56.36.29.68.7.95,1.23l1.5,3.01h-1.67l-1.16-2.44c-.2-.42-.44-.72-.71-.9s-.63-.26-1.05-.26h-1.18v3.6h-1.52Z"/>
          <path class="cls-3" d="m326.14,67.41v-8.46h1.55v3.53h4.33v-3.53h1.55v8.46h-1.55v-3.65h-4.33v3.65h-1.55Z"/>
          <path class="cls-3" d="m339.64,66.38l-1.57-2.18,1.57-2.18h1.25l-1.48,2.18,1.48,2.18h-1.25Zm2.5,0l-1.57-2.18,1.57-2.18h1.25l-1.48,2.18,1.48,2.18h-1.25Z"/>
          <path class="cls-3" d="m343.93,69.39v-3.19h.88c.4-.48.7-1.14.89-1.97s.29-1.86.29-3.07v-2.21h6.13v7.25h1.24v3.19h-1.34v-1.98h-6.72v1.98h-1.36Zm2.42-3.19h4.22v-6.05h-3.18v1.15c0,1.16-.09,2.14-.26,2.93s-.43,1.45-.79,1.97Z"/>
          <path class="cls-3" d="m357.26,67.53c-.62,0-1.16-.13-1.62-.38s-.81-.62-1.06-1.09c-.25-.47-.38-1.03-.38-1.68s.13-1.21.38-1.67.61-.83,1.06-1.09,1-.38,1.62-.38,1.17.13,1.63.38c.46.26.82.62,1.07,1.09s.38,1.03.38,1.67-.13,1.21-.38,1.68c-.25.47-.61.84-1.07,1.09-.46.26-1,.38-1.63.38Zm0-1.15c.47,0,.85-.17,1.13-.5.28-.33.42-.83.42-1.51s-.14-1.17-.42-1.5c-.28-.33-.66-.49-1.13-.49s-.85.16-1.13.49c-.28.33-.42.83-.42,1.5s.14,1.17.42,1.51c.28.33.66.5,1.13.5Z"/>
          <path class="cls-3" d="m361.75,67.41v-6.06h1.25l2.09,3.62,2.09-3.62h1.25v6.06h-1.32v-4.38h.28l-1.94,3.4h-.7l-1.94-3.4h.28v4.38h-1.32Z"/>
          <path class="cls-3" d="m370.12,67.41v-6.06h1.36v4.58h-.36l3.44-4.58h1.24v6.06h-1.36v-4.6h.37l-3.46,4.6h-1.24Z"/>
          <path class="cls-3" d="m377.5,67.41v-6.06h1.49v2.38h.91l1.78-2.38h1.61l-2.23,3.02-.32-.47c.22.02.42.08.59.18.17.1.34.23.49.4.16.17.31.39.46.65l1.27,2.27h-1.6l-1.03-1.82c-.1-.18-.21-.33-.31-.43-.1-.1-.22-.18-.35-.22s-.28-.06-.47-.06h-.8v2.53h-1.49Z"/>
          <path class="cls-3" d="m385.11,66.38h-1.25l1.48-2.18-1.48-2.18h1.26l1.56,2.18-1.57,2.18Zm2.5,0h-1.25l1.48-2.18-1.48-2.18h1.26l1.56,2.18-1.57,2.18Z"/>
          <path class="cls-3" d="m393.61,67.41v-6.06h5.68v6.06h-1.49v-4.91h-2.7v4.91h-1.49Z"/>
          <path class="cls-3" d="m403.96,67.53c-1.02,0-1.81-.28-2.39-.84s-.86-1.33-.86-2.3c0-.63.12-1.18.37-1.66.25-.47.59-.84,1.04-1.1.44-.26.96-.4,1.55-.4s1.07.12,1.46.37c.39.25.69.6.89,1.04s.31.97.31,1.57v.4h-4.42v-.79h3.35l-.21.17c0-.56-.12-.99-.35-1.28-.24-.3-.58-.44-1.03-.44-.5,0-.88.18-1.15.53-.27.35-.4.84-.4,1.48v.16c0,.66.16,1.15.49,1.47.32.32.78.49,1.37.49.34,0,.67-.05.97-.14.3-.09.59-.24.86-.45l.44,1.01c-.29.23-.63.41-1.03.54-.4.13-.82.19-1.27.19Z"/>
          <path class="cls-3" d="m407.78,70v-7.14c0-.25,0-.5-.02-.76s-.04-.51-.07-.76h1.45l.13,1.27h-.13c.12-.42.37-.76.76-1.01.39-.25.84-.38,1.35-.38s1,.13,1.4.38c.4.25.71.61.94,1.08s.34,1.03.34,1.69-.11,1.22-.34,1.69-.54.83-.94,1.09c-.4.25-.87.38-1.4.38-.5,0-.95-.12-1.33-.37s-.64-.58-.77-1h.13v3.84h-1.5Zm3.05-3.62c.48,0,.86-.17,1.15-.5s.43-.83.43-1.51-.14-1.17-.43-1.5c-.29-.33-.67-.49-1.15-.49s-.85.16-1.14.49c-.29.33-.43.83-.43,1.5s.14,1.17.43,1.51.67.5,1.14.5Z"/>
          <path class="cls-3" d="m418.31,67.53c-1.02,0-1.81-.28-2.39-.84-.58-.56-.86-1.33-.86-2.3,0-.63.12-1.18.37-1.66s.59-.84,1.04-1.1c.44-.26.96-.4,1.55-.4s1.07.12,1.46.37.69.6.89,1.04c.2.45.31.97.31,1.57v.4h-4.42v-.79h3.35l-.2.17c0-.56-.12-.99-.35-1.28-.24-.3-.58-.44-1.03-.44-.5,0-.88.18-1.15.53-.27.35-.4.84-.4,1.48v.16c0,.66.16,1.15.49,1.47s.78.49,1.37.49c.34,0,.67-.05.97-.14s.59-.24.86-.45l.44,1.01c-.29.23-.63.41-1.03.54-.4.13-.82.19-1.27.19Z"/>
          <path class="cls-3" d="m422.08,67.41v-6.06h1.49v2.38h.91l1.78-2.38h1.61l-2.23,3.02-.32-.47c.22.02.42.08.59.18.17.1.34.23.49.4s.31.39.46.65l1.27,2.27h-1.6l-1.03-1.82c-.1-.18-.21-.33-.31-.43-.1-.1-.22-.18-.35-.22s-.28-.06-.47-.06h-.8v2.53h-1.49Z"/>
          <path class="cls-3" d="m428.92,67.41v-6.06h1.36v4.58h-.36l3.44-4.58h1.24v6.06h-1.36v-4.6h.37l-3.46,4.6h-1.24Z"/>
          <path class="cls-3" d="m435.76,68.97v-2.7h.7c.24-.38.41-.82.52-1.33.11-.51.16-1.13.16-1.87v-1.73h4.67v4.92h.98v2.7h-1.27v-1.56h-4.49v1.56h-1.27Zm2.04-2.69h2.6v-3.8h-1.99v.94c0,.54-.05,1.06-.16,1.57-.1.51-.26.94-.46,1.3Z"/>
          <path class="cls-3" d="m443.9,67.41v-6.06h1.49v2.38h2.74v-2.38h1.49v6.06h-1.49v-2.53h-2.74v2.53h-1.49Z"/>
          <path class="cls-3" d="m454.1,67.53c-.62,0-1.16-.13-1.62-.38s-.81-.62-1.06-1.09c-.25-.47-.38-1.03-.38-1.68s.13-1.21.38-1.67.61-.83,1.06-1.09,1-.38,1.62-.38,1.17.13,1.63.38.82.62,1.07,1.09.38,1.03.38,1.67-.13,1.21-.38,1.68c-.25.47-.61.84-1.07,1.09s-1,.38-1.63.38Zm0-1.15c.47,0,.85-.17,1.13-.5s.42-.83.42-1.51-.14-1.17-.42-1.5c-.28-.33-.66-.49-1.13-.49s-.85.16-1.13.49c-.28.33-.42.83-.42,1.5s.14,1.17.42,1.51.66.5,1.13.5Z"/>
          <path class="cls-3" d="m458.59,67.41v-6.06h1.36v4.58h-.36l3.44-4.58h1.24v6.06h-1.36v-4.6h.37l-3.46,4.6h-1.24Zm2.83-6.61c-.4,0-.75-.07-1.06-.2s-.56-.32-.76-.56-.34-.53-.43-.87l.77-.26c.14.37.32.64.56.81.24.17.55.26.92.26s.68-.08.92-.25.44-.44.59-.8l.73.25c-.17.54-.45.94-.83,1.22-.39.28-.86.41-1.42.41Z"/>
          <path class="cls-3" d="m337,80.53c-.62,0-1.17-.13-1.64-.38-.47-.26-.83-.62-1.09-1.1-.26-.48-.38-1.04-.38-1.7s.13-1.22.39-1.68c.26-.46.62-.82,1.09-1.07.46-.25,1.01-.37,1.63-.37.4,0,.79.06,1.17.19s.69.3.93.53l-.46,1.04c-.22-.2-.46-.35-.73-.45-.27-.1-.53-.15-.79-.15-.54,0-.95.17-1.25.5s-.45.82-.45,1.46.15,1.13.45,1.48c.3.34.72.52,1.25.52.25,0,.51-.05.77-.14.27-.1.51-.24.74-.44l.46,1.03c-.25.23-.56.41-.94.54-.38.13-.77.19-1.16.19Z"/>
          <path class="cls-3" d="m343.36,80.53c-1.02,0-1.81-.28-2.39-.84s-.86-1.33-.86-2.3c0-.63.12-1.18.37-1.66.25-.47.59-.84,1.04-1.1.44-.26.96-.4,1.55-.4s1.07.12,1.46.37.69.6.89,1.04.31.97.31,1.57v.4h-4.42v-.79h3.35l-.2.17c0-.56-.12-.99-.35-1.28-.24-.3-.58-.44-1.03-.44-.5,0-.88.18-1.15.53-.27.35-.4.84-.4,1.48v.16c0,.66.16,1.15.49,1.47.32.32.78.49,1.37.49.34,0,.67-.05.97-.14.3-.09.59-.24.86-.45l.44,1.01c-.29.23-.63.41-1.03.54-.4.13-.82.19-1.27.19Z"/>
          <path class="cls-3" d="m348.43,80.41v-4.88h-2.08v-1.18h5.65v1.18h-2.09v4.88h-1.49Z"/>
          <path class="cls-3" d="m352.93,80.41v-6.06h1.49v2.38h.91l1.78-2.38h1.61l-2.23,3.02-.32-.47c.22.02.42.08.59.18.17.1.34.23.49.4.16.17.31.39.46.65l1.27,2.27h-1.6l-1.03-1.82c-.1-.18-.21-.33-.31-.43-.1-.1-.22-.18-.35-.22s-.28-.06-.47-.06h-.8v2.53h-1.49Z"/>
          <path class="cls-3" d="m362.16,80.53c-.53,0-.99-.13-1.39-.38-.4-.25-.71-.61-.94-1.09-.22-.47-.34-1.04-.34-1.69s.11-1.22.34-1.69c.22-.47.54-.83.94-1.08.4-.25.86-.38,1.39-.38s.96.13,1.35.38.65.59.77,1.01h-.13l.13-1.27h1.44c-.02.25-.05.5-.07.76s-.03.51-.03.76v4.55h-1.49v-1.25s.13,0,.13,0c-.13.42-.39.75-.78,1-.39.25-.84.37-1.33.37Zm.42-1.15c.47,0,.85-.17,1.14-.5.29-.33.43-.83.43-1.51s-.14-1.17-.43-1.5c-.29-.33-.67-.49-1.14-.49s-.85.16-1.14.49c-.29.33-.43.83-.43,1.5s.14,1.17.43,1.51c.28.33.67.5,1.15.5Z"/>
          <path class="cls-3" d="m367.18,76v-1.66h1.68v1.66h-1.68Zm0,4.4v-1.67h1.68v1.67h-1.68Z"/>
          <path class="cls-3" d="m373.41,80.53c-1.06,0-1.89-.37-2.47-1.1-.58-.74-.87-1.77-.87-3.1,0-.96.15-1.77.44-2.44s.72-1.18,1.27-1.53c.55-.35,1.21-.53,1.97-.53.46,0,.91.08,1.36.25.45.16.83.4,1.15.7l-.52,1.15c-.3-.27-.62-.47-.96-.61-.34-.13-.69-.2-1.04-.2-.72,0-1.27.24-1.64.73s-.56,1.22-.56,2.18v.9h-.14c.06-.41.2-.76.41-1.05s.48-.52.8-.67c.33-.16.69-.23,1.09-.23.5,0,.94.12,1.32.35.38.23.69.55.91.96.22.41.33.88.33,1.4s-.12,1.03-.37,1.46-.58.76-1,1.01c-.42.24-.92.37-1.48.37Zm-.08-1.22c.3,0,.56-.06.78-.19.22-.13.4-.31.52-.55.12-.24.19-.51.19-.81s-.06-.58-.19-.82c-.12-.23-.3-.41-.52-.55-.22-.13-.48-.2-.78-.2s-.56.07-.78.2c-.22.13-.4.31-.53.55-.13.23-.19.5-.19.82s.06.57.19.81c.13.24.3.42.53.55.22.13.48.19.78.19Z"/>
          <path class="cls-3" d="m380.69,80.58l-.47-1.18c.26-.1.49-.22.67-.38s.32-.36.43-.6c.11-.24.19-.55.23-.91s.07-.8.07-1.3v-1.86h4.82v6.06h-1.49v-4.91h-1.97v.76c0,.87-.08,1.6-.24,2.19-.16.59-.41,1.05-.74,1.4s-.78.59-1.32.73Z"/>
          <path class="cls-3" d="m388.15,80.41v-6.06h1.36v4.58h-.36l3.44-4.58h1.24v6.06h-1.36v-4.6h.37l-3.46,4.6h-1.24Z"/>
          <path class="cls-3" d="m398.36,80.53c-.62,0-1.17-.13-1.64-.38-.47-.26-.83-.62-1.09-1.1-.26-.48-.38-1.04-.38-1.7s.13-1.22.39-1.68c.26-.46.62-.82,1.09-1.07.46-.25,1.01-.37,1.63-.37.4,0,.79.06,1.17.19s.69.3.93.53l-.46,1.04c-.22-.2-.46-.35-.73-.45-.27-.1-.53-.15-.79-.15-.54,0-.95.17-1.25.5s-.45.82-.45,1.46.15,1.13.45,1.48c.3.34.72.52,1.25.52.25,0,.51-.05.77-.14.27-.1.51-.24.74-.44l.46,1.03c-.25.23-.56.41-.94.54-.38.13-.77.19-1.16.19Z"/>
          <path class="cls-3" d="m403.06,80.41v-4.88h-2.08v-1.18h5.65v1.18h-2.09v4.88h-1.49Z"/>
          <path class="cls-3" d="m410.28,80.53c-.62,0-1.16-.13-1.62-.38s-.81-.62-1.06-1.09c-.25-.47-.38-1.03-.38-1.68s.13-1.21.38-1.67.61-.83,1.06-1.09,1-.38,1.62-.38,1.17.13,1.63.38.82.62,1.07,1.09.38,1.03.38,1.67-.13,1.21-.38,1.68c-.25.47-.61.84-1.07,1.09s-1,.38-1.63.38Zm0-1.15c.47,0,.85-.17,1.13-.5s.42-.83.42-1.51-.14-1.17-.42-1.5c-.28-.33-.66-.49-1.13-.49s-.85.16-1.13.49c-.28.33-.42.83-.42,1.5s.14,1.17.42,1.51.66.5,1.13.5Z"/>
          <path class="cls-3" d="m414.77,80.41v-6.06h3.23c.76,0,1.32.14,1.67.41.35.28.53.67.53,1.17,0,.38-.13.7-.38.96s-.6.42-1.02.48v-.17c.52.03.92.18,1.2.46.28.27.42.62.42,1.06,0,.52-.2.93-.6,1.24-.4.3-.97.46-1.7.46h-3.34Zm1.39-3.55h1.66c.32,0,.57-.07.74-.21.18-.14.26-.34.26-.59s-.09-.45-.26-.59c-.18-.14-.42-.2-.74-.2h-1.66v1.6Zm0,2.63h1.79c.35,0,.62-.07.81-.22.19-.14.28-.36.28-.64s-.09-.49-.28-.64c-.19-.14-.46-.22-.81-.22h-1.79v1.7Z"/>
          <path class="cls-3" d="m422.24,82l-.61-.48c.26-.26.43-.51.53-.74.1-.23.15-.47.15-.73l.32.35h-1.13v-1.67h1.68v1.1c0,.41-.07.78-.21,1.12-.14.34-.39.69-.74,1.04Z"/>
          <path class="cls-3" d="m431.4,80.41v-1.66h-3.78v-1.08l4.02-5.72h1.25v5.63h1.21v1.18h-1.21v1.66h-1.49Zm0-2.83v-3.8h.29l-2.92,4.16v-.36h2.63Z"/>
          <path class="cls-3" d="m437.39,79.94v-2.45h-2.41v-1.06h2.41v-2.39h1.09v2.39h2.4v1.06h-2.4v2.45h-1.09Z"/>
          <path class="cls-3" d="m445.8,80.41v-1.66h-3.78v-1.08l4.02-5.72h1.25v5.63h1.21v1.18h-1.21v1.66h-1.49Zm0-2.83v-3.8h.29l-2.92,4.16v-.36h2.63Z"/>
        </g>
        <g>
          <path class="cls-3" d="m473.78,67.41v-8.46h1.52v3.6h1.44l-.31.2,2.5-3.8h1.7l-2.78,4.09-.59-.43c.54.08,1,.27,1.36.56.36.29.68.7.95,1.23l1.5,3.01h-1.67l-1.16-2.44c-.2-.42-.44-.72-.71-.9s-.63-.26-1.05-.26h-1.18v3.6h-1.52Z"/>
          <path class="cls-3" d="m482.06,67.41v-8.46h1.55v3.53h4.33v-3.53h1.55v8.46h-1.55v-3.65h-4.33v3.65h-1.55Z"/>
          <path class="cls-3" d="m495.56,66.38l-1.57-2.18,1.57-2.18h1.25l-1.48,2.18,1.48,2.18h-1.25Zm2.5,0l-1.57-2.18,1.57-2.18h1.25l-1.48,2.18,1.48,2.18h-1.25Z"/>
          <path class="cls-3" d="m499.84,69.39v-3.19h.88c.4-.48.7-1.14.89-1.97s.29-1.86.29-3.07v-2.21h6.13v7.25h1.24v3.19h-1.34v-1.98h-6.72v1.98h-1.36Zm2.42-3.19h4.22v-6.05h-3.18v1.15c0,1.16-.09,2.14-.26,2.93s-.43,1.45-.79,1.97Z"/>
          <path class="cls-3" d="m513.17,67.53c-.62,0-1.16-.13-1.62-.38s-.81-.62-1.06-1.09c-.25-.47-.38-1.03-.38-1.68s.13-1.21.38-1.67.61-.83,1.06-1.09,1-.38,1.62-.38,1.17.13,1.63.38c.46.26.82.62,1.07,1.09s.38,1.03.38,1.67-.13,1.21-.38,1.68c-.25.47-.61.84-1.07,1.09-.46.26-1,.38-1.63.38Zm0-1.15c.47,0,.85-.17,1.13-.5.28-.33.42-.83.42-1.51s-.14-1.17-.42-1.5c-.28-.33-.66-.49-1.13-.49s-.85.16-1.13.49c-.28.33-.42.83-.42,1.5s.14,1.17.42,1.51c.28.33.66.5,1.13.5Z"/>
          <path class="cls-3" d="m517.66,67.41v-6.06h1.25l2.09,3.62,2.09-3.62h1.25v6.06h-1.32v-4.38h.28l-1.94,3.4h-.7l-1.94-3.4h.28v4.38h-1.32Z"/>
          <path class="cls-3" d="m526.04,67.41v-6.06h1.36v4.58h-.36l3.44-4.58h1.24v6.06h-1.36v-4.6h.37l-3.46,4.6h-1.24Z"/>
          <path class="cls-3" d="m533.42,67.41v-6.06h1.49v2.38h.91l1.78-2.38h1.61l-2.23,3.02-.32-.47c.22.02.42.08.59.18.17.1.34.23.49.4.16.17.31.39.46.65l1.27,2.27h-1.6l-1.03-1.82c-.1-.18-.21-.33-.31-.43-.1-.1-.22-.18-.35-.22s-.28-.06-.47-.06h-.8v2.53h-1.49Z"/>
          <path class="cls-3" d="m541.02,66.38h-1.25l1.48-2.18-1.48-2.18h1.26l1.56,2.18-1.57,2.18Zm2.5,0h-1.25l1.48-2.18-1.48-2.18h1.26l1.56,2.18-1.57,2.18Z"/>
          <path class="cls-3" d="m549.52,67.41v-6.06h5.68v6.06h-1.49v-4.91h-2.7v4.91h-1.49Z"/>
          <path class="cls-3" d="m559.88,67.53c-1.02,0-1.81-.28-2.39-.84s-.86-1.33-.86-2.3c0-.63.12-1.18.37-1.66.25-.47.59-.84,1.04-1.1.44-.26.96-.4,1.55-.4s1.07.12,1.46.37c.39.25.69.6.89,1.04s.31.97.31,1.57v.4h-4.42v-.79h3.35l-.21.17c0-.56-.12-.99-.35-1.28-.24-.3-.58-.44-1.03-.44-.5,0-.88.18-1.15.53-.27.35-.4.84-.4,1.48v.16c0,.66.16,1.15.49,1.47.32.32.78.49,1.37.49.34,0,.67-.05.97-.14.3-.09.59-.24.86-.45l.44,1.01c-.29.23-.63.41-1.03.54-.4.13-.82.19-1.27.19Z"/>
          <path class="cls-3" d="m563.69,70v-7.14c0-.25,0-.5-.02-.76s-.04-.51-.07-.76h1.45l.13,1.27h-.13c.12-.42.37-.76.76-1.01.39-.25.84-.38,1.35-.38s1,.13,1.4.38c.4.25.71.61.94,1.08s.34,1.03.34,1.69-.11,1.22-.34,1.69-.54.83-.94,1.09c-.4.25-.87.38-1.4.38-.5,0-.95-.12-1.33-.37s-.64-.58-.77-1h.13v3.84h-1.5Zm3.05-3.62c.48,0,.86-.17,1.15-.5s.43-.83.43-1.51-.14-1.17-.43-1.5c-.29-.33-.67-.49-1.15-.49s-.85.16-1.14.49c-.29.33-.43.83-.43,1.5s.14,1.17.43,1.51.67.5,1.14.5Z"/>
          <path class="cls-3" d="m574.23,67.53c-1.02,0-1.81-.28-2.39-.84-.58-.56-.86-1.33-.86-2.3,0-.63.12-1.18.37-1.66s.59-.84,1.04-1.1c.44-.26.96-.4,1.55-.4s1.07.12,1.46.37.69.6.89,1.04c.2.45.31.97.31,1.57v.4h-4.42v-.79h3.35l-.2.17c0-.56-.12-.99-.35-1.28-.24-.3-.58-.44-1.03-.44-.5,0-.88.18-1.15.53-.27.35-.4.84-.4,1.48v.16c0,.66.16,1.15.49,1.47s.78.49,1.37.49c.34,0,.67-.05.97-.14s.59-.24.86-.45l.44,1.01c-.29.23-.63.41-1.03.54-.4.13-.82.19-1.27.19Z"/>
          <path class="cls-3" d="m577.99,67.41v-6.06h1.49v2.38h.91l1.78-2.38h1.61l-2.23,3.02-.32-.47c.22.02.42.08.59.18.17.1.34.23.49.4s.31.39.46.65l1.27,2.27h-1.6l-1.03-1.82c-.1-.18-.21-.33-.31-.43-.1-.1-.22-.18-.35-.22s-.28-.06-.47-.06h-.8v2.53h-1.49Z"/>
          <path class="cls-3" d="m584.83,67.41v-6.06h1.36v4.58h-.36l3.44-4.58h1.24v6.06h-1.36v-4.6h.37l-3.46,4.6h-1.24Z"/>
          <path class="cls-3" d="m591.68,68.97v-2.7h.7c.24-.38.41-.82.52-1.33.11-.51.16-1.13.16-1.87v-1.73h4.67v4.92h.98v2.7h-1.27v-1.56h-4.49v1.56h-1.27Zm2.04-2.69h2.6v-3.8h-1.99v.94c0,.54-.05,1.06-.16,1.57-.1.51-.26.94-.46,1.3Z"/>
          <path class="cls-3" d="m599.81,67.41v-6.06h1.49v2.38h2.74v-2.38h1.49v6.06h-1.49v-2.53h-2.74v2.53h-1.49Z"/>
          <path class="cls-3" d="m610.01,67.53c-.62,0-1.16-.13-1.62-.38s-.81-.62-1.06-1.09c-.25-.47-.38-1.03-.38-1.68s.13-1.21.38-1.67.61-.83,1.06-1.09,1-.38,1.62-.38,1.17.13,1.63.38.82.62,1.07,1.09.38,1.03.38,1.67-.13,1.21-.38,1.68c-.25.47-.61.84-1.07,1.09s-1,.38-1.63.38Zm0-1.15c.47,0,.85-.17,1.13-.5s.42-.83.42-1.51-.14-1.17-.42-1.5c-.28-.33-.66-.49-1.13-.49s-.85.16-1.13.49c-.28.33-.42.83-.42,1.5s.14,1.17.42,1.51.66.5,1.13.5Z"/>
          <path class="cls-3" d="m614.5,67.41v-6.06h1.36v4.58h-.36l3.44-4.58h1.24v6.06h-1.36v-4.6h.37l-3.46,4.6h-1.24Zm2.83-6.61c-.4,0-.75-.07-1.06-.2s-.56-.32-.76-.56-.34-.53-.43-.87l.77-.26c.14.37.32.64.56.81.24.17.55.26.92.26s.68-.08.92-.25.44-.44.59-.8l.73.25c-.17.54-.45.94-.83,1.22-.39.28-.86.41-1.42.41Z"/>
          <path class="cls-3" d="m489.31,80.53c-.62,0-1.17-.13-1.64-.38-.47-.26-.83-.62-1.09-1.1-.26-.48-.38-1.04-.38-1.7s.13-1.22.39-1.68c.26-.46.62-.82,1.09-1.07.46-.25,1.01-.37,1.63-.37.4,0,.79.06,1.17.19s.69.3.93.53l-.46,1.04c-.22-.2-.46-.35-.73-.45-.27-.1-.53-.15-.79-.15-.54,0-.95.17-1.25.5s-.45.82-.45,1.46.15,1.13.45,1.48c.3.34.72.52,1.25.52.25,0,.51-.05.77-.14.27-.1.51-.24.74-.44l.46,1.03c-.25.23-.56.41-.94.54-.38.13-.77.19-1.16.19Z"/>
          <path class="cls-3" d="m495.67,80.53c-1.02,0-1.81-.28-2.39-.84s-.86-1.33-.86-2.3c0-.63.12-1.18.37-1.66.25-.47.59-.84,1.04-1.1.44-.26.96-.4,1.55-.4s1.07.12,1.46.37.69.6.89,1.04.31.97.31,1.57v.4h-4.42v-.79h3.35l-.2.17c0-.56-.12-.99-.35-1.28-.24-.3-.58-.44-1.03-.44-.5,0-.88.18-1.15.53-.27.35-.4.84-.4,1.48v.16c0,.66.16,1.15.49,1.47.32.32.78.49,1.37.49.34,0,.67-.05.97-.14.3-.09.59-.24.86-.45l.44,1.01c-.29.23-.63.41-1.03.54-.4.13-.82.19-1.27.19Z"/>
          <path class="cls-3" d="m500.75,80.41v-4.88h-2.08v-1.18h5.65v1.18h-2.09v4.88h-1.49Z"/>
          <path class="cls-3" d="m505.25,80.41v-6.06h1.49v2.38h.91l1.78-2.38h1.61l-2.23,3.02-.32-.47c.22.02.42.08.59.18.17.1.34.23.49.4.16.17.31.39.46.65l1.27,2.27h-1.6l-1.03-1.82c-.1-.18-.21-.33-.31-.43-.1-.1-.22-.18-.35-.22s-.28-.06-.47-.06h-.8v2.53h-1.49Z"/>
          <path class="cls-3" d="m514.48,80.53c-.53,0-.99-.13-1.39-.38-.4-.25-.71-.61-.94-1.09-.22-.47-.34-1.04-.34-1.69s.11-1.22.34-1.69c.22-.47.54-.83.94-1.08.4-.25.86-.38,1.39-.38s.96.13,1.35.38.65.59.77,1.01h-.13l.13-1.27h1.44c-.02.25-.05.5-.07.76s-.03.51-.03.76v4.55h-1.49v-1.25s.13,0,.13,0c-.13.42-.39.75-.78,1-.39.25-.84.37-1.33.37Zm.42-1.15c.47,0,.85-.17,1.14-.5.29-.33.43-.83.43-1.51s-.14-1.17-.43-1.5c-.29-.33-.67-.49-1.14-.49s-.85.16-1.14.49c-.29.33-.43.83-.43,1.5s.14,1.17.43,1.51c.28.33.67.5,1.15.5Z"/>
          <path class="cls-3" d="m519.49,76v-1.66h1.68v1.66h-1.68Zm0,4.4v-1.67h1.68v1.67h-1.68Z"/>
          <path class="cls-3" d="m523.15,80.41v-1.28h1.94v-5.88h.74l-2.5,1.49v-1.46l2.2-1.32h1.1v7.18h1.82v1.28h-5.32Z"/>
          <path class="cls-3" d="m529.95,80.41v-1.14l2.81-2.93c.35-.37.61-.71.78-1.02.17-.31.25-.63.25-.96,0-.41-.13-.72-.38-.92-.26-.21-.63-.31-1.12-.31-.39,0-.77.07-1.13.21-.36.14-.71.36-1.06.65l-.5-1.15c.34-.3.77-.55,1.28-.73.51-.18,1.04-.28,1.6-.28.91,0,1.61.2,2.1.61s.73.99.73,1.75c0,.53-.12,1.03-.37,1.51-.25.48-.63.97-1.15,1.49l-2.34,2.34v-.41h4.2v1.28h-5.7Z"/>
          <path class="cls-3" d="m540.2,80.58l-.47-1.18c.26-.1.49-.22.67-.38s.32-.36.43-.6c.11-.24.19-.55.23-.91s.07-.8.07-1.3v-1.86h4.82v6.06h-1.49v-4.91h-1.97v.76c0,.87-.08,1.6-.24,2.19-.16.59-.41,1.05-.74,1.4s-.78.59-1.32.73Z"/>
          <path class="cls-3" d="m547.67,80.41v-6.06h1.36v4.58h-.36l3.44-4.58h1.24v6.06h-1.36v-4.6h.37l-3.46,4.6h-1.24Z"/>
          <path class="cls-3" d="m557.88,80.53c-.62,0-1.17-.13-1.64-.38-.47-.26-.83-.62-1.09-1.1-.26-.48-.38-1.04-.38-1.7s.13-1.22.39-1.68c.26-.46.62-.82,1.09-1.07.46-.25,1.01-.37,1.63-.37.4,0,.79.06,1.17.19s.69.3.93.53l-.46,1.04c-.22-.2-.46-.35-.73-.45-.27-.1-.53-.15-.79-.15-.54,0-.95.17-1.25.5s-.45.82-.45,1.46.15,1.13.45,1.48c.3.34.72.52,1.25.52.25,0,.51-.05.77-.14.27-.1.51-.24.74-.44l.46,1.03c-.25.23-.56.41-.94.54-.38.13-.77.19-1.16.19Z"/>
          <path class="cls-3" d="m562.57,80.41v-4.88h-2.08v-1.18h5.65v1.18h-2.09v4.88h-1.49Z"/>
          <path class="cls-3" d="m569.79,80.53c-.62,0-1.16-.13-1.62-.38s-.81-.62-1.06-1.09c-.25-.47-.38-1.03-.38-1.68s.13-1.21.38-1.67.61-.83,1.06-1.09,1-.38,1.62-.38,1.17.13,1.63.38.82.62,1.07,1.09.38,1.03.38,1.67-.13,1.21-.38,1.68c-.25.47-.61.84-1.07,1.09s-1,.38-1.63.38Zm0-1.15c.47,0,.85-.17,1.13-.5s.42-.83.42-1.51-.14-1.17-.42-1.5c-.28-.33-.66-.49-1.13-.49s-.85.16-1.13.49c-.28.33-.42.83-.42,1.5s.14,1.17.42,1.51.66.5,1.13.5Z"/>
          <path class="cls-3" d="m574.28,80.41v-6.06h3.23c.76,0,1.32.14,1.67.41.35.28.53.67.53,1.17,0,.38-.13.7-.38.96s-.6.42-1.02.48v-.17c.52.03.92.18,1.2.46.28.27.42.62.42,1.06,0,.52-.2.93-.6,1.24-.4.3-.97.46-1.7.46h-3.34Zm1.39-3.55h1.66c.32,0,.57-.07.74-.21.18-.14.26-.34.26-.59s-.09-.45-.26-.59c-.18-.14-.42-.2-.74-.2h-1.66v1.6Zm0,2.63h1.79c.35,0,.62-.07.81-.22.19-.14.28-.36.28-.64s-.09-.49-.28-.64c-.19-.14-.46-.22-.81-.22h-1.79v1.7Z"/>
          <path class="cls-3" d="m581.76,82l-.61-.48c.26-.26.43-.51.53-.74.1-.23.15-.47.15-.73l.32.35h-1.13v-1.67h1.68v1.1c0,.41-.07.78-.21,1.12-.14.34-.39.69-.74,1.04Z"/>
          <path class="cls-3" d="m590.91,80.41v-1.66h-3.78v-1.08l4.02-5.72h1.25v5.63h1.21v1.18h-1.21v1.66h-1.49Zm0-2.83v-3.8h.29l-2.92,4.16v-.36h2.63Z"/>
          <path class="cls-3" d="m596.9,79.94v-2.45h-2.41v-1.06h2.41v-2.39h1.09v2.39h2.4v1.06h-2.4v2.45h-1.09Z"/>
          <path class="cls-3" d="m604.64,80.53c-.99,0-1.76-.38-2.29-1.13s-.8-1.83-.8-3.23.27-2.49.8-3.23,1.3-1.1,2.29-1.1,1.77.37,2.3,1.1c.53.74.8,1.81.8,3.22s-.27,2.49-.8,3.25c-.53.76-1.3,1.13-2.3,1.13Zm0-1.27c.54,0,.95-.25,1.21-.75.26-.5.4-1.29.4-2.36s-.13-1.85-.4-2.33c-.26-.48-.67-.73-1.21-.73s-.94.24-1.21.73c-.27.48-.4,1.26-.4,2.33s.13,1.86.4,2.36c.27.5.67.75,1.21.75Z"/>
        </g>
        <g>
          <path class="cls-3" d="m369.67,118.93v-1.39h2.62v-8.48h.83l-3.2,1.95v-1.6l2.83-1.76h1.2v9.89h2.46v1.39h-6.75Z"/>
          <path class="cls-3" d="m378.95,118.93l5.54-10.51v.64h-6.18v-1.41h7.68v1.23l-5.22,10.05h-1.82Z"/>
          <path class="cls-3" d="m388.55,118.93l5.54-10.51v.64h-6.18v-1.41h7.68v1.23l-5.22,10.05h-1.82Z"/>
          <path class="cls-3" d="m402.1,122.39v-9.58c0-.31-.01-.63-.04-.95-.03-.33-.06-.65-.09-.98h1.57l.16,1.82h-.18c.17-.61.51-1.09,1.03-1.44.52-.35,1.13-.53,1.85-.53s1.34.17,1.87.5.95.81,1.24,1.43c.29.62.44,1.37.44,2.24s-.15,1.61-.44,2.24c-.29.63-.71,1.11-1.24,1.44-.53.33-1.16.5-1.87.5s-1.31-.17-1.83-.52-.86-.82-1.03-1.42h.18v5.25h-1.62Zm3.9-4.58c.7,0,1.27-.25,1.69-.74.42-.49.63-1.22.63-2.18s-.21-1.68-.63-2.17c-.42-.49-.98-.73-1.69-.73s-1.27.24-1.69.73c-.42.49-.63,1.21-.63,2.17s.21,1.69.63,2.18c.42.49.98.74,1.69.74Z"/>
          <path class="cls-3" d="m411.45,118.93v-1.9h1.9v1.9h-1.9Z"/>
        </g>
        <g>
          <path class="cls-3" d="m369.67,166.32v-1.39h2.62v-8.48h.83l-3.2,1.95v-1.6l2.83-1.76h1.2v9.89h2.46v1.39h-6.75Z"/>
          <path class="cls-3" d="m382.31,166.47c-.49,0-.98-.05-1.46-.16s-.93-.26-1.34-.46c-.42-.2-.78-.43-1.09-.71l.58-1.26c.51.39,1.04.69,1.58.89.54.2,1.11.3,1.7.3.76,0,1.35-.2,1.78-.59s.65-.92.65-1.58-.21-1.23-.62-1.66c-.41-.42-.98-.63-1.7-.63-.5,0-.96.1-1.37.3-.41.2-.77.51-1.08.93h-1.15v-6.78h6.83v1.39h-5.25v4.06h-.42c.29-.41.67-.72,1.16-.94.49-.22,1.03-.34,1.64-.34.73,0,1.35.15,1.89.45s.95.71,1.24,1.25c.29.53.44,1.16.44,1.89s-.16,1.36-.49,1.91c-.33.55-.79.98-1.39,1.29-.6.31-1.31.46-2.14.46Z"/>
          <path class="cls-3" d="m388.28,166.32v-1.23l3.87-4.05c.5-.52.87-1.01,1.12-1.47.25-.46.37-.93.37-1.42,0-.61-.19-1.07-.57-1.38-.38-.31-.93-.46-1.64-.46-.57,0-1.1.1-1.59.3-.5.2-.97.51-1.43.93l-.58-1.26c.45-.42,1.01-.75,1.67-1,.67-.25,1.37-.38,2.12-.38,1.17,0,2.08.27,2.71.8s.95,1.3.95,2.29c0,.7-.17,1.38-.51,2.02-.34.65-.85,1.31-1.54,1.99l-3.34,3.38v-.45h5.86v1.39h-7.47Z"/>
          <path class="cls-3" d="m402.1,169.78v-9.58c0-.31-.01-.63-.04-.95-.03-.33-.06-.65-.09-.98h1.57l.16,1.82h-.18c.17-.61.51-1.09,1.03-1.44.52-.35,1.13-.53,1.85-.53s1.34.17,1.87.5.95.81,1.24,1.43c.29.62.44,1.37.44,2.24s-.15,1.61-.44,2.24c-.29.63-.71,1.11-1.24,1.44-.53.33-1.16.5-1.87.5s-1.31-.17-1.83-.52-.86-.82-1.03-1.42h.18v5.25h-1.62Zm3.9-4.58c.7,0,1.27-.25,1.69-.74.42-.49.63-1.22.63-2.18s-.21-1.68-.63-2.17c-.42-.49-.98-.73-1.69-.73s-1.27.24-1.69.73c-.42.49-.63,1.21-.63,2.17s.21,1.69.63,2.18c.42.49.98.74,1.69.74Z"/>
          <path class="cls-3" d="m411.45,166.32v-1.9h1.9v1.9h-1.9Z"/>
        </g>
        <g>
          <path class="cls-3" d="m369.67,211.32v-1.39h2.62v-8.48h.83l-3.2,1.95v-1.6l2.83-1.76h1.2v9.89h2.46v1.39h-6.75Z"/>
          <path class="cls-3" d="m383.3,211.32v-2.34h-5.22v-1.18l5.49-7.76h1.34v7.65h1.68v1.3h-1.68v2.34h-1.62Zm0-3.63v-5.68h.37l-4.29,6.08v-.4h3.92Z"/>
          <path class="cls-3" d="m391.64,211.47c-.77,0-1.5-.11-2.21-.34s-1.29-.56-1.76-.98l.58-1.26c.52.41,1.06.7,1.6.9.54.19,1.13.29,1.74.29.79,0,1.39-.17,1.8-.5.41-.33.62-.81.62-1.42s-.21-1.07-.62-1.38-1.02-.47-1.82-.47h-1.74v-1.34h1.62c.68,0,1.23-.17,1.63-.52s.61-.82.61-1.42c0-.54-.19-.96-.56-1.26-.37-.29-.91-.44-1.6-.44-1.17,0-2.2.41-3.09,1.23l-.56-1.26c.44-.44.99-.78,1.66-1.02.67-.24,1.38-.36,2.11-.36,1.13,0,2.02.26,2.67.78.65.52.98,1.24.98,2.15,0,.69-.19,1.29-.58,1.78-.39.49-.92.82-1.59.98v-.18c.8.13,1.42.45,1.85.95.43.51.65,1.14.65,1.9,0,1-.35,1.79-1.06,2.36-.71.57-1.68.86-2.92.86Z"/>
          <path class="cls-3" d="m402.1,214.78v-9.58c0-.31-.01-.63-.04-.95-.03-.33-.06-.65-.09-.98h1.57l.16,1.82h-.18c.17-.61.51-1.09,1.03-1.44.52-.35,1.13-.53,1.85-.53s1.34.17,1.87.5.95.81,1.24,1.43c.29.62.44,1.37.44,2.24s-.15,1.61-.44,2.24c-.29.63-.71,1.11-1.24,1.44-.53.33-1.16.5-1.87.5s-1.31-.17-1.83-.52-.86-.82-1.03-1.42h.18v5.25h-1.62Zm3.9-4.58c.7,0,1.27-.25,1.69-.74.42-.49.63-1.22.63-2.18s-.21-1.68-.63-2.17c-.42-.49-.98-.73-1.69-.73s-1.27.24-1.69.73c-.42.49-.63,1.21-.63,2.17s.21,1.69.63,2.18c.42.49.98.74,1.69.74Z"/>
          <path class="cls-3" d="m411.45,211.32v-1.9h1.9v1.9h-1.9Z"/>
        </g>
        <g>
          <path class="cls-3" d="m524.99,118.93v-1.23l3.87-4.05c.5-.52.87-1.01,1.12-1.47.25-.46.37-.93.37-1.42,0-.61-.19-1.07-.57-1.38-.38-.31-.93-.46-1.64-.46-.57,0-1.1.1-1.59.3-.5.2-.97.51-1.43.93l-.58-1.26c.45-.42,1.01-.75,1.67-1,.67-.25,1.37-.38,2.12-.38,1.17,0,2.08.27,2.71.8s.95,1.3.95,2.29c0,.7-.17,1.38-.51,2.02-.34.65-.85,1.31-1.54,1.99l-3.34,3.38v-.45h5.86v1.39h-7.47Z"/>
          <path class="cls-3" d="m537.26,119.07c-.6,0-1.19-.12-1.79-.36-.6-.24-1.1-.56-1.5-.95l.59-1.26c.39.38.83.67,1.3.87.47.2.94.3,1.42.3,1.02,0,1.81-.36,2.36-1.08.55-.72.82-1.79.82-3.22v-1.36h.16c-.06.57-.25,1.06-.54,1.49-.3.43-.67.75-1.13.98-.45.22-.96.34-1.53.34-.66,0-1.26-.16-1.78-.46-.53-.31-.94-.74-1.23-1.28-.29-.54-.44-1.16-.44-1.84,0-.73.16-1.37.48-1.93.32-.56.76-1,1.31-1.31.55-.31,1.19-.47,1.92-.47,1.41,0,2.49.48,3.24,1.45.75.97,1.13,2.33,1.13,4.09,0,1.29-.19,2.38-.57,3.28-.38.9-.93,1.58-1.64,2.05-.71.47-1.57.7-2.58.7Zm.53-5.63c.45,0,.84-.1,1.18-.29.34-.19.61-.46.8-.81.19-.35.29-.74.29-1.19s-.1-.86-.29-1.21c-.19-.35-.46-.62-.8-.82s-.74-.3-1.18-.3-.84.1-1.18.3-.6.47-.79.82-.29.75-.29,1.21.1.85.29,1.19.46.62.79.81c.34.19.73.29,1.18.29Z"/>
          <path class="cls-3" d="m547.66,119.07c-1.3,0-2.31-.28-3.04-.83-.73-.55-1.09-1.33-1.09-2.32,0-.79.24-1.44.72-1.96.48-.52,1.11-.83,1.89-.94v.29c-.7-.15-1.27-.47-1.69-.98-.42-.5-.63-1.11-.63-1.82,0-.94.34-1.67,1.02-2.21s1.62-.8,2.82-.8,2.15.27,2.83.8,1.02,1.27,1.02,2.21c0,.71-.2,1.33-.6,1.83-.4.51-.95.82-1.64.95v-.27c.77.11,1.38.42,1.84.94.46.52.69,1.17.69,1.96,0,.99-.36,1.76-1.09,2.32-.73.55-1.74.83-3.06.83Zm0-1.31c.86,0,1.51-.16,1.94-.49s.64-.81.64-1.46-.21-1.14-.64-1.46-1.07-.48-1.94-.48-1.51.16-1.94.48-.64.81-.64,1.46.22,1.14.65,1.46,1.07.49,1.93.49Zm0-5.2c.75,0,1.31-.17,1.7-.5.39-.34.58-.8.58-1.38s-.19-1.03-.58-1.36c-.39-.33-.96-.5-1.7-.5s-1.3.17-1.7.5c-.39.33-.59.78-.59,1.36s.2,1.05.59,1.38.96.5,1.7.5Z"/>
          <path class="cls-3" d="m558.01,122.39v-9.58c0-.31-.01-.63-.04-.95-.03-.33-.06-.65-.09-.98h1.57l.16,1.82h-.18c.17-.61.51-1.09,1.03-1.44.52-.35,1.13-.53,1.85-.53s1.34.17,1.87.5.95.81,1.24,1.43c.29.62.44,1.37.44,2.24s-.15,1.61-.44,2.24c-.29.63-.71,1.11-1.24,1.44-.53.33-1.16.5-1.87.5s-1.31-.17-1.83-.52-.86-.82-1.03-1.42h.18v5.25h-1.62Zm3.9-4.58c.7,0,1.27-.25,1.69-.74.42-.49.63-1.22.63-2.18s-.21-1.68-.63-2.17c-.42-.49-.98-.73-1.69-.73s-1.27.24-1.69.73c-.42.49-.63,1.21-.63,2.17s.21,1.69.63,2.18c.42.49.98.74,1.69.74Z"/>
          <path class="cls-3" d="m567.36,118.93v-1.9h1.9v1.9h-1.9Z"/>
        </g>
        <g>
          <path class="cls-3" d="m518.29,166.32v-1.23l3.87-4.05c.5-.52.87-1.01,1.12-1.47.25-.46.37-.93.37-1.42,0-.61-.19-1.07-.57-1.38-.38-.31-.93-.46-1.64-.46-.57,0-1.1.1-1.59.3-.5.2-.97.51-1.43.93l-.58-1.26c.45-.42,1.01-.75,1.67-1,.67-.25,1.37-.38,2.12-.38,1.17,0,2.08.27,2.71.8s.95,1.3.95,2.29c0,.7-.17,1.38-.51,2.02-.34.65-.85,1.31-1.54,1.99l-3.34,3.38v-.45h5.86v1.39h-7.47Z"/>
          <path class="cls-3" d="m528.17,166.32l5.54-10.51v.64h-6.18v-1.41h7.68v1.23l-5.22,10.05h-1.82Z"/>
          <path class="cls-3" d="m540.97,166.47c-1.3,0-2.3-.5-3-1.5-.7-1-1.05-2.43-1.05-4.3s.35-3.34,1.05-4.31c.7-.98,1.7-1.46,3-1.46s2.31.49,3.01,1.46c.69.98,1.04,2.41,1.04,4.3s-.35,3.31-1.05,4.31c-.7,1-1.7,1.5-3,1.5Zm0-1.39c.82,0,1.43-.36,1.83-1.07.4-.71.6-1.83.6-3.34s-.2-2.64-.6-3.34c-.4-.7-1.01-1.05-1.83-1.05s-1.42.35-1.82,1.05c-.41.7-.61,1.81-.61,3.32s.21,2.65.62,3.36,1.02,1.07,1.82,1.07Z"/>
          <path class="cls-3" d="m547.53,168.29l-.7-.54c.31-.33.52-.63.63-.91s.17-.57.17-.86l.35.35h-1.26v-1.9h1.9v1.3c0,.48-.08.93-.24,1.34-.16.41-.44.82-.85,1.24Z"/>
          <path class="cls-3" d="m554.52,166.47c-.49,0-.98-.05-1.46-.16s-.93-.26-1.34-.46c-.42-.2-.78-.43-1.09-.71l.58-1.26c.51.39,1.04.69,1.58.89.54.2,1.11.3,1.7.3.76,0,1.35-.2,1.78-.59s.65-.92.65-1.58-.21-1.23-.62-1.66c-.41-.42-.98-.63-1.7-.63-.5,0-.96.1-1.37.3-.41.2-.77.51-1.08.93h-1.15v-6.78h6.83v1.39h-5.25v4.06h-.42c.29-.41.67-.72,1.16-.94.49-.22,1.03-.34,1.64-.34.73,0,1.35.15,1.89.45s.95.71,1.24,1.25c.29.53.44,1.16.44,1.89s-.16,1.36-.49,1.91c-.33.55-.79.98-1.39,1.29-.6.31-1.31.46-2.14.46Z"/>
          <path class="cls-3" d="m564.71,169.78v-9.58c0-.31-.01-.63-.04-.95-.03-.33-.06-.65-.09-.98h1.57l.16,1.82h-.18c.17-.61.51-1.09,1.03-1.44.52-.35,1.13-.53,1.85-.53s1.34.17,1.87.5.95.81,1.24,1.43c.29.62.44,1.37.44,2.24s-.15,1.61-.44,2.24c-.29.63-.71,1.11-1.24,1.44-.53.33-1.16.5-1.87.5s-1.31-.17-1.83-.52-.86-.82-1.03-1.42h.18v5.25h-1.62Zm3.9-4.58c.7,0,1.27-.25,1.69-.74.42-.49.63-1.22.63-2.18s-.21-1.68-.63-2.17c-.42-.49-.98-.73-1.69-.73s-1.27.24-1.69.73c-.42.49-.63,1.21-.63,2.17s.21,1.69.63,2.18c.42.49.98.74,1.69.74Z"/>
          <path class="cls-3" d="m574.05,166.32v-1.9h1.9v1.9h-1.9Z"/>
        </g>
        <g>
          <path class="cls-3" d="m524.99,211.32v-1.23l3.87-4.05c.5-.52.87-1.01,1.12-1.47.25-.46.37-.93.37-1.42,0-.61-.19-1.07-.57-1.38-.38-.31-.93-.46-1.64-.46-.57,0-1.1.1-1.59.3-.5.2-.97.51-1.43.93l-.58-1.26c.45-.42,1.01-.75,1.67-1,.67-.25,1.37-.38,2.12-.38,1.17,0,2.08.27,2.71.8s.95,1.3.95,2.29c0,.7-.17,1.38-.51,2.02-.34.65-.85,1.31-1.54,1.99l-3.34,3.38v-.45h5.86v1.39h-7.47Z"/>
          <path class="cls-3" d="m537.95,211.47c-.77,0-1.5-.11-2.21-.34s-1.29-.56-1.76-.98l.58-1.26c.52.41,1.06.7,1.6.9.54.19,1.13.29,1.74.29.79,0,1.39-.17,1.8-.5.41-.33.62-.81.62-1.42s-.21-1.07-.62-1.38-1.02-.47-1.82-.47h-1.74v-1.34h1.62c.68,0,1.23-.17,1.63-.52s.61-.82.61-1.42c0-.54-.19-.96-.56-1.26-.37-.29-.91-.44-1.6-.44-1.17,0-2.2.41-3.09,1.23l-.56-1.26c.44-.44.99-.78,1.66-1.02.67-.24,1.38-.36,2.11-.36,1.13,0,2.02.26,2.67.78.65.52.98,1.24.98,2.15,0,.69-.19,1.29-.58,1.78-.39.49-.92.82-1.59.98v-.18c.8.13,1.42.45,1.85.95.43.51.65,1.14.65,1.9,0,1-.35,1.79-1.06,2.36-.71.57-1.68.86-2.92.86Z"/>
          <path class="cls-3" d="m544.46,211.32l5.54-10.51v.64h-6.18v-1.41h7.68v1.23l-5.22,10.05h-1.82Z"/>
          <path class="cls-3" d="m558.01,214.78v-9.58c0-.31-.01-.63-.04-.95-.03-.33-.06-.65-.09-.98h1.57l.16,1.82h-.18c.17-.61.51-1.09,1.03-1.44.52-.35,1.13-.53,1.85-.53s1.34.17,1.87.5.95.81,1.24,1.43c.29.62.44,1.37.44,2.24s-.15,1.61-.44,2.24c-.29.63-.71,1.11-1.24,1.44-.53.33-1.16.5-1.87.5s-1.31-.17-1.83-.52-.86-.82-1.03-1.42h.18v5.25h-1.62Zm3.9-4.58c.7,0,1.27-.25,1.69-.74.42-.49.63-1.22.63-2.18s-.21-1.68-.63-2.17c-.42-.49-.98-.73-1.69-.73s-1.27.24-1.69.73c-.42.49-.63,1.21-.63,2.17s.21,1.69.63,2.18c.42.49.98.74,1.69.74Z"/>
          <path class="cls-3" d="m567.36,211.32v-1.9h1.9v1.9h-1.9Z"/>
        </g>
        <g>
          <path class="cls-3" d="m650.94,67.46c0-1.18.22-2.21.65-3.07.43-.86,1.05-1.53,1.86-2.01.81-.47,1.78-.71,2.9-.71s2.07.24,2.88.71,1.44,1.14,1.88,2.01c.44.86.66,1.88.66,3.06s-.22,2.21-.66,3.08c-.44.87-1.07,1.54-1.88,2.02-.81.48-1.77.72-2.88.72s-2.08-.24-2.89-.72c-.81-.48-1.43-1.15-1.86-2.02-.44-.87-.66-1.89-.66-3.06Zm2.16,0c0,1.27.27,2.26.82,2.98s1.35,1.07,2.43,1.07,1.85-.36,2.42-1.07c.56-.71.85-1.71.85-2.98s-.28-2.27-.84-2.98-1.37-1.06-2.42-1.06-1.89.35-2.43,1.06-.82,1.7-.82,2.98Z"/>
          <path class="cls-3" d="m668.54,76.56v-5.02h.18c-.17.55-.46.98-.86,1.28s-.88.45-1.45.45-1.11-.17-1.56-.52c-.45-.35-.81-.83-1.06-1.46-.26-.63-.38-1.37-.38-2.22s.13-1.61.38-2.23.6-1.11,1.06-1.45c.45-.34.98-.51,1.58-.51.57,0,1.05.15,1.45.45s.69.72.86,1.26h-.18v-5.25h1.98v5.25h-.18c.17-.54.46-.96.86-1.26.4-.3.88-.45,1.45-.45.6,0,1.12.17,1.58.51.45.34.81.82,1.06,1.45s.38,1.37.38,2.23-.13,1.59-.38,2.22c-.25.63-.6,1.12-1.06,1.46-.45.35-.98.52-1.58.52-.55,0-1.03-.15-1.43-.45s-.69-.73-.87-1.28h.18v5.02h-1.98Zm-1.55-4.8c.49,0,.88-.22,1.16-.67.28-.45.42-1.12.42-2.03s-.14-1.57-.43-2.02c-.29-.45-.67-.68-1.15-.68s-.88.23-1.17.68-.43,1.13-.43,2.02.14,1.58.43,2.03c.29.45.68.67,1.17.67Zm5.09,0c.49,0,.88-.22,1.17-.67.29-.45.43-1.12.43-2.03s-.15-1.57-.44-2.02-.68-.68-1.16-.68-.88.23-1.16.68c-.28.45-.42,1.13-.42,2.02s.14,1.58.42,2.03c.28.45.67.67,1.16.67Z"/>
          <path class="cls-3" d="m681.33,73.26c-.83,0-1.56-.17-2.18-.51-.62-.34-1.11-.83-1.45-1.46s-.51-1.39-.51-2.26.17-1.62.52-2.24c.35-.62.83-1.09,1.45-1.42s1.34-.5,2.18-.5c.53,0,1.05.08,1.56.25.51.17.92.4,1.24.71l-.61,1.39c-.29-.27-.61-.47-.97-.6-.36-.13-.71-.2-1.05-.2-.71,0-1.27.22-1.67.67-.4.45-.6,1.1-.6,1.95s.2,1.51.6,1.97c.4.46.96.69,1.67.69.33,0,.67-.06,1.03-.19.36-.13.69-.33.98-.59l.61,1.38c-.33.31-.75.55-1.26.72-.51.17-1.02.26-1.54.26Z"/>
          <path class="cls-3" d="m689.81,73.26c-1.35,0-2.42-.37-3.18-1.12-.77-.75-1.15-1.77-1.15-3.07,0-.84.17-1.58.5-2.21.33-.63.79-1.12,1.38-1.47.59-.35,1.28-.53,2.07-.53s1.43.17,1.95.5.92.79,1.19,1.39c.27.6.41,1.3.41,2.1v.53h-5.89v-1.06h4.46l-.27.22c0-.75-.16-1.32-.47-1.71-.31-.39-.77-.59-1.37-.59-.66,0-1.17.23-1.53.7s-.54,1.12-.54,1.97v.21c0,.88.22,1.53.65,1.96.43.43,1.04.65,1.83.65.46,0,.89-.06,1.29-.18.4-.12.78-.32,1.14-.6l.59,1.34c-.38.31-.84.55-1.38.72-.53.17-1.1.26-1.7.26Z"/>
          <path class="cls-3" d="m696.58,73.1v-6.51h-2.77v-1.57h7.54v1.57h-2.78v6.51h-1.98Z"/>
          <path class="cls-3" d="m702.16,75.23l-.82-.64c.34-.35.58-.68.71-.98s.2-.63.2-.97l.43.46h-1.5v-2.22h2.24v1.47c0,.54-.09,1.04-.28,1.5-.19.45-.52.91-.98,1.38Z"/>
          <path class="cls-3" d="m711.15,71.73l-2.1-2.91,2.1-2.91h1.66l-1.97,2.91,1.97,2.91h-1.66Zm3.33,0l-2.1-2.91,2.1-2.91h1.66l-1.97,2.91,1.97,2.91h-1.66Z"/>
          <path class="cls-3" d="m716.86,75.74v-4.26h1.17c.53-.64.93-1.51,1.18-2.62.26-1.11.38-2.47.38-4.1v-2.94h8.18v9.66h1.65v4.26h-1.79v-2.64h-8.96v2.64h-1.81Zm3.23-4.26h5.63v-8.06h-4.24v1.54c0,1.55-.11,2.85-.34,3.9s-.58,1.93-1.05,2.62Z"/>
          <path class="cls-3" d="m734.64,73.26c-.83,0-1.55-.17-2.16-.51-.61-.34-1.08-.83-1.42-1.46-.34-.63-.5-1.38-.5-2.24s.17-1.61.5-2.23.81-1.11,1.42-1.45c.61-.34,1.33-.51,2.16-.51s1.55.17,2.17.51c.61.34,1.09.82,1.42,1.45s.5,1.37.5,2.23-.17,1.61-.5,2.24c-.34.63-.81,1.12-1.42,1.46-.61.34-1.34.51-2.17.51Zm0-1.54c.63,0,1.13-.22,1.5-.66.37-.44.56-1.11.56-2.01s-.19-1.56-.56-2c-.37-.44-.88-.66-1.5-.66s-1.13.22-1.5.66c-.37.44-.56,1.1-.56,2s.19,1.57.56,2.01c.37.44.87.66,1.5.66Z"/>
          <path class="cls-3" d="m740.62,73.1v-8.08h1.66l2.78,4.83,2.78-4.83h1.66v8.08h-1.76v-5.84h.37l-2.59,4.53h-.93l-2.59-4.53h.37v5.84h-1.76Z"/>
          <path class="cls-3" d="m751.79,73.1v-8.08h1.81v6.11h-.48l4.59-6.11h1.65v8.08h-1.81v-6.13h.5l-4.61,6.13h-1.65Z"/>
          <path class="cls-3" d="m761.63,73.1v-8.08h1.98v3.17h1.22l2.37-3.17h2.14l-2.98,4.03-.43-.62c.3.03.56.11.79.24s.45.31.66.54.41.52.62.87l1.7,3.02h-2.13l-1.38-2.43c-.14-.25-.28-.44-.42-.58s-.29-.24-.46-.29c-.17-.05-.38-.08-.62-.08h-1.07v3.38h-1.98Z"/>
          <path class="cls-3" d="m771.77,71.73h-1.66l1.97-2.91-1.97-2.91h1.68l2.08,2.91-2.1,2.91Zm3.33,0h-1.66l1.97-2.91-1.97-2.91h1.68l2.08,2.91-2.1,2.91Z"/>
          <path class="cls-3" d="m786.88,73.26c-.83,0-1.56-.17-2.18-.51-.62-.34-1.11-.83-1.45-1.46s-.51-1.39-.51-2.26.17-1.62.52-2.24c.35-.62.83-1.09,1.45-1.42s1.34-.5,2.18-.5c.53,0,1.05.08,1.56.25.51.17.92.4,1.24.71l-.61,1.39c-.29-.27-.61-.47-.97-.6-.36-.13-.71-.2-1.05-.2-.71,0-1.27.22-1.67.67-.4.45-.6,1.1-.6,1.95s.2,1.51.6,1.97c.4.46.96.69,1.67.69.33,0,.67-.06,1.03-.19.36-.13.69-.33.98-.59l.61,1.38c-.33.31-.75.55-1.26.72-.51.17-1.02.26-1.54.26Z"/>
          <path class="cls-3" d="m798.75,73.26c-.72,0-1.41-.09-2.04-.26-.63-.17-1.17-.42-1.59-.74l.56-1.31c.39.29.86.51,1.38.66s1.08.22,1.67.22c.68,0,1.18-.09,1.5-.28s.47-.46.47-.82c0-.34-.12-.6-.37-.78-.25-.18-.61-.26-1.09-.26h-2.1v-1.38h1.9c.44,0,.77-.08,1.01-.26s.35-.41.35-.72c0-.33-.14-.59-.42-.78-.28-.19-.74-.29-1.38-.29-.55,0-1.06.07-1.52.2-.46.13-.89.33-1.29.58l-.54-1.25c.44-.31.97-.54,1.59-.7.62-.16,1.3-.24,2.04-.24,1.08,0,1.9.2,2.48.59s.87.96.87,1.68c0,.49-.17.91-.5,1.26-.34.35-.79.57-1.35.66v-.22c.66.04,1.19.24,1.57.59.38.35.58.83.58,1.42,0,.74-.32,1.32-.97,1.76-.65.44-1.58.66-2.79.66Z"/>
          <path class="cls-3" d="m807.44,73.26c-.7,0-1.32-.17-1.86-.5-.53-.34-.95-.82-1.25-1.45-.3-.63-.45-1.38-.45-2.26s.15-1.62.45-2.25.71-1.1,1.25-1.44,1.15-.5,1.86-.5,1.28.17,1.8.5.86.79,1.03,1.35h-.18l.18-1.7h1.92c-.03.33-.06.67-.09,1.01-.03.34-.04.68-.04,1.01v6.06h-1.98l-.02-1.66h.19c-.17.55-.52,1-1.04,1.33-.52.33-1.11.5-1.78.5Zm.56-1.54c.63,0,1.14-.22,1.52-.66.38-.44.58-1.11.58-2.01s-.19-1.56-.58-2c-.38-.44-.89-.66-1.52-.66s-1.14.22-1.52.66c-.38.44-.58,1.1-.58,2s.19,1.57.57,2.01c.38.44.89.66,1.53.66Z"/>
          <path class="cls-3" d="m814.4,73.1v-8.08h1.66l2.78,4.83,2.78-4.83h1.66v8.08h-1.76v-5.84h.37l-2.59,4.53h-.93l-2.59-4.53h.37v5.84h-1.76Z"/>
          <path class="cls-3" d="m825.56,73.1v-8.08h1.98v3.17h1.22l2.37-3.17h2.14l-2.98,4.03-.43-.62c.3.03.56.11.79.24.23.13.45.31.66.54s.41.52.62.87l1.7,3.02h-2.13l-1.38-2.43c-.14-.25-.28-.44-.42-.58s-.29-.24-.46-.29c-.17-.05-.38-.08-.62-.08h-1.07v3.38h-1.98Z"/>
          <path class="cls-3" d="m838.4,73.26c-.83,0-1.55-.17-2.16-.51-.61-.34-1.08-.83-1.42-1.46-.34-.63-.5-1.38-.5-2.24s.17-1.61.5-2.23c.34-.62.81-1.11,1.42-1.45.61-.34,1.33-.51,2.16-.51s1.55.17,2.17.51c.61.34,1.09.82,1.42,1.45.34.62.5,1.37.5,2.23s-.17,1.61-.5,2.24c-.34.63-.81,1.12-1.42,1.46-.61.34-1.34.51-2.17.51Zm0-1.54c.63,0,1.13-.22,1.5-.66.37-.44.56-1.11.56-2.01s-.19-1.56-.56-2c-.37-.44-.87-.66-1.5-.66s-1.13.22-1.5.66-.56,1.1-.56,2,.19,1.57.56,2.01.88.66,1.5.66Z"/>
          <path class="cls-3" d="m844.38,73.1v-8.08h1.66l2.78,4.83,2.78-4.83h1.66v8.08h-1.76v-5.84h.37l-2.59,4.53h-.93l-2.59-4.53h.37v5.84h-1.76Z"/>
          <path class="cls-3" d="m856.25,75.23l-.82-.64c.34-.35.58-.68.71-.98.13-.3.2-.63.2-.97l.43.46h-1.5v-2.22h2.24v1.47c0,.54-.09,1.04-.28,1.5-.19.45-.51.91-.98,1.38Z"/>
          <path class="cls-3" d="m864.01,73.1v-1.52l3.74-3.9c.47-.49.82-.94,1.04-1.36.22-.42.34-.84.34-1.28,0-.54-.17-.95-.51-1.23-.34-.28-.84-.42-1.49-.42-.52,0-1.02.09-1.5.28-.48.19-.95.48-1.41.87l-.67-1.54c.46-.41,1.03-.73,1.7-.98.68-.25,1.39-.37,2.14-.37,1.22,0,2.15.27,2.8.82s.98,1.32.98,2.34c0,.7-.17,1.37-.5,2.01-.33.63-.84,1.3-1.54,1.99l-3.12,3.12v-.54h5.6v1.71h-7.6Z"/>
          <path class="cls-3" d="m873.74,73.1l5.47-10.27v.72h-5.98v-1.73h7.89v1.54l-5.12,9.74h-2.26Z"/>
          <path class="cls-3" d="m886.76,73.26c-1.32,0-2.34-.5-3.06-1.51s-1.07-2.45-1.07-4.31.36-3.32,1.07-4.3,1.73-1.47,3.06-1.47,2.35.49,3.06,1.47c.71.98,1.06,2.41,1.06,4.29s-.35,3.32-1.06,4.33c-.71,1.01-1.73,1.51-3.06,1.51Zm0-1.7c.73,0,1.26-.33,1.62-1s.53-1.71.53-3.14-.18-2.47-.53-3.11-.89-.97-1.62-.97-1.25.32-1.61.97c-.36.65-.54,1.68-.54,3.11s.18,2.48.54,3.14c.36.67.89,1,1.61,1Z"/>
          <path class="cls-3" d="m897.08,73.1v-8.08h6.06v1.57h-4.06v6.51h-2Z"/>
          <path class="cls-3" d="m904.62,76.56v-9.52c0-.33-.01-.67-.03-1.01-.02-.34-.05-.68-.1-1.01h1.94l.18,1.7h-.18c.16-.57.5-1.02,1.02-1.35.52-.34,1.12-.5,1.8-.5s1.34.17,1.87.5c.53.34.95.82,1.25,1.44.3.62.45,1.37.45,2.25s-.15,1.63-.45,2.26c-.3.63-.71,1.11-1.25,1.45-.53.34-1.16.5-1.87.5-.67,0-1.26-.17-1.78-.5-.51-.33-.85-.77-1.02-1.33h.18v5.12h-2Zm4.06-4.83c.64,0,1.15-.22,1.54-.66s.58-1.11.58-2.01-.19-1.56-.58-2-.9-.66-1.54-.66-1.14.22-1.52.66-.58,1.1-.58,2,.19,1.57.58,2.01.89.66,1.52.66Z"/>
        </g>
        <g>
          <path class="cls-3" d="m658.55,118.93v-11.28h2.03v4.8h1.92l-.42.27,3.33-5.07h2.27l-3.71,5.46-.78-.58c.73.11,1.33.35,1.82.74.49.39.91.94,1.27,1.64l2,4.02h-2.22l-1.55-3.25c-.27-.57-.58-.97-.95-1.2s-.83-.35-1.4-.35h-1.57v4.8h-2.03Z"/>
          <path class="cls-3" d="m673.06,119.09c-.83,0-1.55-.17-2.16-.51-.61-.34-1.08-.83-1.42-1.46-.34-.63-.5-1.38-.5-2.24s.17-1.61.5-2.23.81-1.11,1.42-1.45c.61-.34,1.33-.51,2.16-.51s1.55.17,2.17.51c.61.34,1.09.82,1.42,1.45s.5,1.37.5,2.23-.17,1.61-.5,2.24c-.34.63-.81,1.12-1.42,1.46-.61.34-1.34.51-2.17.51Zm0-1.54c.63,0,1.13-.22,1.5-.66.37-.44.56-1.11.56-2.01s-.19-1.56-.56-2c-.37-.44-.88-.66-1.5-.66s-1.13.22-1.5.66c-.37.44-.56,1.1-.56,2s.19,1.57.56,2.01c.37.44.87.66,1.5.66Z"/>
          <path class="cls-3" d="m678.67,119.15l-.62-1.57c.35-.13.65-.3.89-.5.24-.21.43-.47.58-.8.14-.33.25-.73.31-1.22s.1-1.06.1-1.74v-2.48h6.43v8.08h-1.98v-6.54h-2.62v1.01c0,1.16-.11,2.14-.32,2.92-.21.78-.54,1.41-.99,1.86-.45.46-1.03.78-1.76.98Z"/>
          <path class="cls-3" d="m688.63,118.93v-8.08h1.81v6.11h-.48l4.59-6.11h1.65v8.08h-1.81v-6.13h.5l-4.61,6.13h-1.65Z"/>
          <path class="cls-3" d="m703.6,118.93v-2.94c-.3.14-.61.25-.93.32-.32.07-.66.11-1.01.11-1.18,0-2.07-.28-2.65-.85-.58-.57-.87-1.41-.87-2.53v-2.19h1.98v2.02c0,.68.15,1.18.45,1.48.3.3.78.46,1.44.46.31,0,.59-.03.83-.1.25-.06.48-.17.7-.3v-3.55h1.98v8.08h-1.94Z"/>
          <path class="cls-3" d="m711.78,119.09c-1.35,0-2.42-.37-3.18-1.12-.77-.75-1.15-1.77-1.15-3.07,0-.84.17-1.58.5-2.21.33-.63.79-1.12,1.38-1.47.59-.35,1.28-.53,2.07-.53s1.43.17,1.95.5.92.79,1.19,1.39c.27.6.41,1.3.41,2.1v.53h-5.89v-1.06h4.46l-.27.22c0-.75-.16-1.32-.47-1.71-.31-.39-.77-.59-1.37-.59-.66,0-1.17.23-1.53.7s-.54,1.12-.54,1.97v.21c0,.88.22,1.53.65,1.96.43.43,1.04.65,1.83.65.46,0,.89-.06,1.29-.18.4-.12.78-.32,1.14-.6l.59,1.34c-.38.31-.84.55-1.38.72-.53.17-1.1.26-1.7.26Z"/>
          <path class="cls-3" d="m720.58,119.09c-.83,0-1.56-.17-2.18-.51-.62-.34-1.11-.83-1.45-1.46-.34-.63-.51-1.39-.51-2.26s.17-1.62.52-2.24c.35-.62.83-1.09,1.45-1.42.62-.33,1.34-.5,2.18-.5.53,0,1.05.08,1.56.25s.92.4,1.24.71l-.61,1.39c-.29-.27-.61-.47-.97-.6-.36-.13-.71-.2-1.05-.2-.71,0-1.27.22-1.67.67-.4.45-.6,1.1-.6,1.95s.2,1.51.6,1.97c.4.46.96.69,1.67.69.33,0,.67-.06,1.03-.19s.69-.33.98-.59l.61,1.38c-.33.31-.75.55-1.26.72-.51.17-1.02.26-1.54.26Z"/>
          <path class="cls-3" d="m726.83,118.93v-6.51h-2.77v-1.57h7.54v1.57h-2.78v6.51h-1.98Z"/>
          <path class="cls-3" d="m732.83,118.93v-8.08h4.3c1.01,0,1.75.18,2.22.55.47.37.7.89.7,1.56,0,.51-.17.94-.51,1.28s-.79.55-1.36.64v-.22c.69.04,1.23.25,1.6.61.37.36.56.83.56,1.41,0,.69-.27,1.24-.8,1.65-.53.41-1.29.61-2.27.61h-4.45Zm1.86-4.74h2.21c.43,0,.76-.09.99-.28.23-.19.35-.45.35-.79s-.12-.6-.35-.78c-.24-.18-.57-.27-.99-.27h-2.21v2.13Zm0,3.5h2.38c.47,0,.83-.1,1.08-.29.25-.19.38-.47.38-.85s-.13-.66-.38-.85c-.25-.19-.61-.29-1.08-.29h-2.38v2.27Z"/>
          <path class="cls-3" d="m745.81,119.09c-.83,0-1.55-.17-2.16-.51-.61-.34-1.08-.83-1.42-1.46-.34-.63-.5-1.38-.5-2.24s.17-1.61.5-2.23c.34-.62.81-1.11,1.42-1.45.61-.34,1.33-.51,2.16-.51s1.55.17,2.17.51c.61.34,1.09.82,1.42,1.45.34.62.5,1.37.5,2.23s-.17,1.61-.5,2.24c-.34.63-.81,1.12-1.42,1.46-.61.34-1.34.51-2.17.51Zm0-1.54c.63,0,1.13-.22,1.5-.66.37-.44.56-1.11.56-2.01s-.19-1.56-.56-2c-.37-.44-.87-.66-1.5-.66s-1.13.22-1.5.66-.56,1.1-.56,2,.19,1.57.56,2.01.88.66,1.5.66Z"/>
        </g>
        <g>
          <path class="cls-3" d="m693.86,168.96v-2.64h-9.71v-11.28h2.03v9.58h5.79v-9.58h2.05v9.58h1.65v4.34h-1.81Z"/>
          <path class="cls-3" d="m701.14,166.48c-1.35,0-2.42-.37-3.18-1.12-.77-.75-1.15-1.77-1.15-3.07,0-.84.17-1.58.5-2.21.33-.63.79-1.12,1.38-1.47.59-.35,1.28-.53,2.07-.53s1.43.17,1.95.5.92.79,1.19,1.39c.27.6.41,1.3.41,2.1v.53h-5.89v-1.06h4.46l-.27.22c0-.75-.16-1.32-.47-1.71-.31-.39-.77-.59-1.37-.59-.66,0-1.17.23-1.53.7s-.54,1.12-.54,1.97v.21c0,.88.22,1.53.65,1.96.43.43,1.04.65,1.83.65.46,0,.89-.06,1.29-.18.4-.12.78-.32,1.14-.6l.59,1.34c-.38.31-.84.55-1.38.72-.53.17-1.1.26-1.7.26Z"/>
          <path class="cls-3" d="m706.16,166.32v-8.08h1.98v3.17h3.65v-3.17h1.98v8.08h-1.98v-3.38h-3.65v3.38h-1.98Z"/>
          <path class="cls-3" d="m719.23,166.48c-.7,0-1.32-.17-1.86-.5-.53-.34-.95-.82-1.25-1.45-.3-.63-.45-1.38-.45-2.26s.15-1.62.45-2.25c.3-.62.71-1.1,1.25-1.44s1.15-.5,1.86-.5,1.28.17,1.8.5.86.79,1.03,1.35h-.18l.18-1.7h1.92c-.03.33-.06.67-.09,1.01-.03.34-.04.68-.04,1.01v6.06h-1.98l-.02-1.66h.19c-.17.55-.52,1-1.04,1.33-.52.33-1.11.5-1.78.5Zm.56-1.54c.63,0,1.14-.22,1.52-.66.38-.44.58-1.11.58-2.01s-.19-1.56-.58-2c-.38-.44-.89-.66-1.52-.66s-1.14.22-1.52.66-.58,1.1-.58,2,.19,1.57.57,2.01.89.66,1.53.66Z"/>
        </g>
        <path class="cls-3" d="m701.63,207.58v-1.3h4.69v1.3h-4.69Z"/>
        <g>
          <path class="cls-3" d="m828.8,118.93v-1.71h2.59v-7.84h.99l-3.33,1.98v-1.95l2.93-1.76h1.47v9.57h2.43v1.71h-7.09Z"/>
          <path class="cls-3" d="m841.43,119.09c-1.32,0-2.34-.5-3.06-1.51-.71-1.01-1.07-2.45-1.07-4.31s.36-3.32,1.07-4.3c.71-.98,1.73-1.47,3.06-1.47s2.35.49,3.06,1.47,1.06,2.41,1.06,4.29-.35,3.32-1.06,4.33-1.73,1.51-3.06,1.51Zm0-1.7c.73,0,1.26-.33,1.62-1s.53-1.71.53-3.14-.18-2.47-.53-3.11-.89-.97-1.62-.97-1.25.32-1.61.97-.54,1.68-.54,3.11.18,2.48.54,3.14.89,1,1.61,1Z"/>
          <path class="cls-3" d="m851.03,119.09c-1.32,0-2.34-.5-3.06-1.51-.71-1.01-1.07-2.45-1.07-4.31s.36-3.32,1.07-4.3c.71-.98,1.73-1.47,3.06-1.47s2.35.49,3.06,1.47,1.06,2.41,1.06,4.29-.35,3.32-1.06,4.33-1.73,1.51-3.06,1.51Zm0-1.7c.73,0,1.26-.33,1.62-1s.53-1.71.53-3.14-.18-2.47-.53-3.11-.89-.97-1.62-.97-1.25.32-1.61.97-.54,1.68-.54,3.11.18,2.48.54,3.14.89,1,1.61,1Z"/>
          <path class="cls-3" d="m860.63,119.09c-1.32,0-2.34-.5-3.06-1.51-.71-1.01-1.07-2.45-1.07-4.31s.36-3.32,1.07-4.3c.71-.98,1.73-1.47,3.06-1.47s2.35.49,3.06,1.47,1.06,2.41,1.06,4.29-.35,3.32-1.06,4.33-1.73,1.51-3.06,1.51Zm0-1.7c.73,0,1.26-.33,1.62-1s.53-1.71.53-3.14-.18-2.47-.53-3.11-.89-.97-1.62-.97-1.25.32-1.61.97-.54,1.68-.54,3.11.18,2.48.54,3.14.89,1,1.61,1Z"/>
          <path class="cls-3" d="m870.95,118.93v-8.08h1.87v6.54h2.85v-6.54h1.86v6.54h2.85v-6.54h1.87v8.08h-11.3Z"/>
          <path class="cls-3" d="m886.26,118.93v-6.51h-2.77v-1.57h7.54v1.57h-2.78v6.51h-1.98Z"/>
          <path class="cls-3" d="m890.87,118.93v-2.22h2.24v2.22h-2.24Z"/>
        </g>
        <path class="cls-3" d="m858.16,207.58v-1.3h4.69v1.3h-4.69Z"/>
        <g>
          <path class="cls-3" d="m30.58,212.27c-.49,0-.98-.05-1.46-.16s-.94-.26-1.36-.45c-.42-.19-.78-.42-1.08-.69l.67-1.55c.5.37,1.02.65,1.54.84.53.19,1.08.28,1.66.28.69,0,1.23-.17,1.62-.52.39-.35.58-.81.58-1.4s-.19-1.08-.56-1.45c-.37-.37-.89-.55-1.54-.55-.46,0-.88.09-1.26.26-.38.18-.72.45-1.02.81h-1.36v-6.86h7.01v1.7h-5.06v3.58h-.5c.28-.37.65-.66,1.11-.86.46-.2.98-.3,1.56-.3.73,0,1.35.15,1.89.45.53.3.95.72,1.25,1.26.3.54.45,1.17.45,1.9s-.17,1.38-.5,1.94c-.34.56-.82,1-1.44,1.31s-1.36.47-2.22.47Z"/>
          <path class="cls-3" d="m37.08,212.11v-1.71h2.59v-7.84h.99l-3.33,1.98v-1.95l2.93-1.76h1.47v9.57h2.43v1.71h-7.09Z"/>
          <path class="cls-3" d="m45.97,208.49v-1.58h4.86v1.58h-4.86Z"/>
          <path class="cls-3" d="m53.68,212.11v-1.71h2.59v-7.84h.99l-3.33,1.98v-1.95l2.93-1.76h1.47v9.57h2.43v1.71h-7.09Z"/>
          <path class="cls-3" d="m66.39,212.27c-.49,0-.98-.05-1.46-.16s-.94-.26-1.36-.45c-.42-.19-.78-.42-1.08-.69l.67-1.55c.5.37,1.02.65,1.54.84.53.19,1.08.28,1.66.28.69,0,1.23-.17,1.62-.52.39-.35.58-.81.58-1.4s-.19-1.08-.56-1.45c-.37-.37-.89-.55-1.54-.55-.46,0-.88.09-1.26.26-.38.18-.72.45-1.02.81h-1.36v-6.86h7.01v1.7h-5.06v3.58h-.5c.28-.37.65-.66,1.11-.86.46-.2.98-.3,1.56-.3.73,0,1.35.15,1.89.45.53.3.95.72,1.25,1.26.3.54.45,1.17.45,1.9s-.17,1.38-.5,1.94c-.34.56-.82,1-1.44,1.31s-1.36.47-2.22.47Z"/>
          <path class="cls-3" d="m75.91,212.27c-1.32,0-2.34-.5-3.06-1.51-.71-1.01-1.07-2.45-1.07-4.31s.36-3.32,1.07-4.3c.71-.98,1.73-1.47,3.06-1.47s2.35.49,3.06,1.47,1.06,2.41,1.06,4.29-.35,3.32-1.06,4.33-1.73,1.51-3.06,1.51Zm0-1.7c.73,0,1.26-.33,1.62-1,.35-.67.53-1.71.53-3.14s-.18-2.47-.53-3.11c-.35-.64-.89-.97-1.62-.97s-1.25.32-1.61.97c-.36.65-.54,1.68-.54,3.11s.18,2.48.54,3.14c.36.67.89,1,1.61,1Z"/>
          <path class="cls-3" d="m86.23,212.11v-8.08h1.87v6.54h2.85v-6.54h1.86v6.54h2.85v-6.54h1.87v8.08h-11.3Z"/>
          <path class="cls-3" d="m101.54,212.11v-6.51h-2.77v-1.57h7.54v1.57h-2.78v6.51h-1.98Z"/>
          <path class="cls-3" d="m106.15,212.11v-2.22h2.24v2.22h-2.24Z"/>
          <path class="cls-3" d="m111.54,213.05h-1.65l4.21-12.98h1.65l-4.21,12.98Z"/>
          <path class="cls-3" d="m115.59,215.56v-9.52c0-.33-.01-.67-.03-1.01-.02-.34-.05-.68-.1-1.01h1.94l.18,1.7h-.18c.16-.57.5-1.02,1.02-1.35.52-.34,1.12-.5,1.8-.5s1.34.17,1.87.5c.53.34.95.82,1.25,1.44.3.62.45,1.37.45,2.25s-.15,1.63-.45,2.26c-.3.63-.71,1.11-1.25,1.45-.53.34-1.16.5-1.87.5-.67,0-1.26-.17-1.78-.5-.51-.33-.85-.77-1.02-1.33h.18v5.12h-2Zm4.06-4.83c.64,0,1.15-.22,1.54-.66.38-.44.58-1.11.58-2.01s-.19-1.56-.58-2-.9-.66-1.54-.66-1.14.22-1.52.66-.58,1.1-.58,2,.19,1.57.58,2.01c.38.44.89.66,1.52.66Z"/>
          <path class="cls-3" d="m125.15,212.11v-2.22h2.24v2.22h-2.24Z"/>
        </g>
      </g>
    </g>
  </g>
</svg>