<?xml version="1.0" encoding="UTF-8"?>
<svg id="_Слой_2" data-name="Слой 2" xmlns="http://www.w3.org/2000/svg" viewBox="0 0 939.04 213.64">
  <defs>
    <style>
      .cls-1 {
        fill: #fff;
      }

      .cls-1, .cls-2 {
        stroke: #a0b6b5;
        stroke-miterlimit: 10;
      }

      .cls-3 {
        letter-spacing: -.01em;
      }

      .cls-4 {
        letter-spacing: 0em;
      }

      .cls-5 {
        letter-spacing: 0em;
      }

      .cls-6 {
        font-family: Mulish-SemiBold, Mulish;
        font-weight: 600;
      }

      .cls-6, .cls-7 {
        fill: #27625f;
        font-size: 16.18px;
      }

      .cls-7 {
        font-family: Mulish-Bold, Mulish;
        font-weight: 700;
      }

      .cls-8 {
        letter-spacing: -.08em;
      }

      .cls-9 {
        letter-spacing: -.02em;
      }

      .cls-2 {
        fill: none;
      }
    </style>
  </defs>
  <g id="_Слой_1-2" data-name="Слой 1">
    <g>
      <g>
        <rect class="cls-1" x=".5" y=".5" width="938.04" height="183.76" rx="10" ry="10"/>
        <line class="cls-2" x1=".5" y1="46.44" x2="938.54" y2="46.44"/>
        <line class="cls-2" x1="286.41" y1="92.38" x2="938.54" y2="92.38"/>
        <line class="cls-2" x1="286.41" y1="46.44" x2="286.41" y2="184.26"/>
        <line class="cls-2" x1="417.89" y1="92.38" x2="417.89" y2="184.26"/>
        <line class="cls-2" x1="548.02" y1="92.38" x2="548.02" y2="184.26"/>
        <line class="cls-2" x1="678.16" y1="92.38" x2="678.16" y2="184.26"/>
        <line class="cls-2" x1="808.29" y1="92.38" x2="808.29" y2="184.26"/>
        <line class="cls-2" x1=".5" y1="138.32" x2="938.54" y2="138.32"/>
      </g>
      <g>
        <text class="cls-7" transform="translate(78.38 96.53) scale(.99 1)"><tspan class="cls-8" x="0" y="0">Т</tspan><tspan class="cls-3" x="8.75" y="0">о</tspan><tspan x="18.4" y="0">лщина плёнки</tspan></text>
        <text class="cls-7" transform="translate(19.17 29.01) scale(.99 1)"><tspan x="0" y="0">Ламинирование</tspan></text>
        <text class="cls-7" transform="translate(557.16 73.05) scale(.99 1)"><tspan x="0" y="0">Формат/Цена</tspan></text>
        <text class="cls-7" transform="translate(341.07 122.61) scale(.99 1)"><tspan x="0" y="0">А4</tspan></text>
        <text class="cls-6" transform="translate(333.39 167.48) scale(.99 1)"><tspan x="0" y="0">30 </tspan><tspan class="cls-9" x="23.74" y="0">р</tspan><tspan x="33.52" y="0">.</tspan></text>
        <text class="cls-7" transform="translate(472.28 122.61) scale(.99 1)"><tspan x="0" y="0">А3</tspan></text>
        <text class="cls-6" transform="translate(464.61 167.48) scale(.99 1)"><tspan x="0" y="0">40 </tspan><tspan class="cls-9" x="23.74" y="0">р</tspan><tspan x="33.52" y="0">.</tspan></text>
        <text class="cls-7" transform="translate(601.67 122.61) scale(.99 1)"><tspan x="0" y="0">А2</tspan></text>
        <text class="cls-6" transform="translate(594 167.48) scale(.99 1)"><tspan x="0" y="0">82 </tspan><tspan class="cls-9" x="23.74" y="0">р</tspan><tspan x="33.52" y="0">.</tspan></text>
        <text class="cls-7" transform="translate(732.37 122.61) scale(.99 1)"><tspan x="0" y="0">А1</tspan></text>
        <text class="cls-6" transform="translate(719.9 167.48) scale(.99 1)"><tspan x="0" y="0">200 </tspan><tspan class="cls-9" x="33.44" y="0">р</tspan><tspan x="43.23" y="0">.</tspan></text>
        <text class="cls-6" transform="translate(16.52 209.22) scale(.99 1)"><tspan x="0" y="0">Опера</tspan><tspan class="cls-4" x="51.5" y="0">т</tspan><tspan x="59.02" y="0">о</tspan><tspan class="cls-5" x="68.6" y="0">р</tspan><tspan x="78.54" y="0">у - 200 мк</tspan><tspan class="cls-9" x="156.49" y="0">р</tspan><tspan x="166.28" y="0">, производство - 75 мкр</tspan></text>
        <text class="cls-7" transform="translate(863.85 122.61) scale(.99 1)"><tspan x="0" y="0">А0</tspan></text>
        <text class="cls-6" transform="translate(851.38 167.48) scale(.99 1)"><tspan x="0" y="0">400 </tspan><tspan class="cls-9" x="33.44" y="0">р</tspan><tspan x="43.23" y="0">.</tspan></text>
      </g>
    </g>
  </g>
</svg>