<?xml version="1.0" encoding="UTF-8"?>
<svg id="_Слой_2" data-name="Слой 2" xmlns="http://www.w3.org/2000/svg" viewBox="0 0 939.04 212.9">
  <defs>
    <style>
      .cls-1 {
        fill: #fff;
      }

      .cls-1, .cls-2 {
        stroke: #a0b6b5;
        stroke-miterlimit: 10;
      }

      .cls-3 {
        fill: #27625f;
        stroke-width: 0px;
      }

      .cls-2 {
        fill: none;
      }
    </style>
  </defs>
  <g id="_Слой_1-2" data-name="Слой 1">
    <g>
      <g>
        <rect class="cls-1" x=".5" y=".5" width="938.04" height="183.76" rx="10" ry="10"/>
        <line class="cls-2" x1=".5" y1="46.44" x2="938.54" y2="46.44"/>
        <line class="cls-2" x1="286.41" y1="92.38" x2="938.54" y2="92.38"/>
        <line class="cls-2" x1="286.41" y1="46.44" x2="286.41" y2="184.26"/>
        <line class="cls-2" x1="417.89" y1="92.38" x2="417.89" y2="184.26"/>
        <line class="cls-2" x1="548.02" y1="92.38" x2="548.02" y2="184.26"/>
        <line class="cls-2" x1="678.16" y1="92.38" x2="678.16" y2="184.26"/>
        <line class="cls-2" x1="808.29" y1="92.38" x2="808.29" y2="184.26"/>
        <line class="cls-2" x1=".5" y1="138.32" x2="938.54" y2="138.32"/>
      </g>
      <g>
        <g>
          <path class="cls-3" d="m82.28,96.53v-9.69h-3.73v-1.72h9.52v1.72h-3.73v9.69h-2.06Z"/>
          <path class="cls-3" d="m91.88,96.69c-.83,0-1.55-.17-2.16-.52-.61-.34-1.08-.84-1.42-1.47-.34-.64-.5-1.39-.5-2.26s.17-1.63.5-2.26c.34-.63.81-1.12,1.42-1.46.61-.34,1.33-.52,2.16-.52s1.55.17,2.17.52c.61.35,1.09.83,1.42,1.46.34.63.5,1.38.5,2.26s-.17,1.63-.5,2.26c-.34.64-.81,1.13-1.42,1.47-.61.35-1.34.52-2.17.52Zm0-1.55c.63,0,1.13-.22,1.5-.67.37-.45.56-1.12.56-2.03s-.19-1.58-.56-2.02c-.37-.44-.87-.66-1.5-.66s-1.13.22-1.5.66c-.37.44-.56,1.12-.56,2.02s.19,1.58.56,2.03c.37.45.88.67,1.5.67Z"/>
          <path class="cls-3" d="m97.49,96.75l-.62-1.58c.35-.13.65-.3.89-.51.24-.21.43-.48.58-.81.14-.33.25-.74.31-1.23.06-.49.1-1.08.1-1.76v-2.51h6.43v8.17h-1.98v-6.62h-2.62v1.02c0,1.18-.11,2.16-.32,2.95-.21.79-.54,1.42-.99,1.88-.45.46-1.03.79-1.76.99Z"/>
          <path class="cls-3" d="m118.37,98.63v-2.1h-10.93v-8.17h1.87v6.62h2.85v-6.62h1.86v6.62h2.85v-6.62h1.87v6.62h1.31v3.66h-1.68Z"/>
          <path class="cls-3" d="m121.53,96.53v-8.17h1.81v6.18h-.48l4.59-6.18h1.65v8.17h-1.81v-6.2h.5l-4.61,6.2h-1.65Z"/>
          <path class="cls-3" d="m131.37,96.53v-8.17h1.98v3.2h3.65v-3.2h1.98v8.17h-1.98v-3.41h-3.65v3.41h-1.98Z"/>
          <path class="cls-3" d="m144.44,96.69c-.7,0-1.32-.17-1.86-.51-.53-.34-.95-.83-1.25-1.46-.3-.64-.45-1.4-.45-2.28s.15-1.64.45-2.27.71-1.12,1.25-1.46,1.15-.51,1.86-.51,1.28.17,1.8.51.86.8,1.03,1.37h-.18l.18-1.71h1.92c-.03.33-.06.67-.09,1.02-.03.35-.04.69-.04,1.02v6.13h-1.98l-.02-1.68h.19c-.17.56-.52,1.01-1.04,1.34-.52.33-1.11.5-1.78.5Zm.56-1.55c.63,0,1.14-.22,1.52-.67.38-.45.58-1.12.58-2.03s-.19-1.58-.58-2.02c-.38-.44-.89-.66-1.52-.66s-1.14.22-1.52.66c-.38.44-.58,1.12-.58,2.02s.19,1.58.57,2.03c.38.45.89.67,1.53.67Z"/>
          <path class="cls-3" d="m155.78,96.53v-8.17h7.57v8.17h-1.98v-6.62h-3.6v6.62h-1.98Z"/>
          <path class="cls-3" d="m165.41,96.75l-.62-1.58c.35-.13.65-.3.89-.51.24-.21.43-.48.58-.81.14-.33.25-.74.31-1.23.06-.49.1-1.08.1-1.76v-2.51h6.43v8.17h-1.98v-6.62h-2.62v1.02c0,1.18-.11,2.16-.32,2.95-.21.79-.54,1.42-.99,1.88-.45.46-1.03.79-1.76.99Z"/>
          <path class="cls-3" d="m179.33,96.69c-1.35,0-2.42-.38-3.18-1.13s-1.15-1.79-1.15-3.11c0-.85.17-1.6.5-2.23.33-.64.79-1.13,1.38-1.49.59-.36,1.28-.53,2.07-.53s1.43.17,1.95.5.92.8,1.19,1.41c.27.6.41,1.31.41,2.12v.53h-5.89v-1.07h4.46l-.27.23c0-.75-.16-1.33-.47-1.73-.31-.4-.77-.6-1.37-.6-.66,0-1.17.24-1.53.71s-.54,1.14-.54,1.99v.21c0,.88.22,1.54.65,1.98.43.44,1.04.66,1.83.66.46,0,.89-.06,1.29-.19.4-.12.78-.33,1.14-.61l.59,1.36c-.38.31-.84.56-1.38.73-.53.17-1.1.26-1.7.26Zm-2.82-9.82v-1.86h1.84v1.86h-1.84Zm3.02,0v-1.86h1.84v1.86h-1.84Z"/>
          <path class="cls-3" d="m184.36,96.53v-8.17h1.98v3.2h3.65v-3.2h1.98v8.17h-1.98v-3.41h-3.65v3.41h-1.98Z"/>
          <path class="cls-3" d="m194.25,96.53v-8.17h1.98v3.2h1.22l2.37-3.2h2.14l-2.98,4.08-.43-.63c.3.03.56.11.79.24.23.13.45.31.66.54.21.23.41.53.62.88l1.7,3.06h-2.13l-1.38-2.46c-.14-.25-.28-.44-.42-.58-.14-.14-.29-.24-.46-.29-.17-.05-.38-.08-.62-.08h-1.07v3.41h-1.98Z"/>
          <path class="cls-3" d="m203.36,96.53v-8.17h1.81v6.18h-.48l4.59-6.18h1.65v8.17h-1.81v-6.2h.5l-4.61,6.2h-1.65Z"/>
        </g>
        <g>
          <path class="cls-3" d="m20.4,29.28l-1.01-1.54c.45-.25.84-.54,1.18-.87.34-.33.62-.75.85-1.25.22-.5.39-1.12.5-1.86.11-.74.17-1.63.17-2.68v-3.48h8.19v11.41h-2.05v-9.71h-4.24v2.3c0,1.09-.08,2.05-.24,2.88s-.39,1.56-.7,2.18c-.31.62-.69,1.14-1.13,1.57-.44.43-.95.78-1.53,1.06Z"/>
          <path class="cls-3" d="m35.84,29.17c-.7,0-1.32-.17-1.86-.51-.53-.34-.95-.83-1.25-1.46-.3-.64-.45-1.4-.45-2.28s.15-1.64.45-2.27.71-1.12,1.25-1.46,1.15-.51,1.86-.51,1.28.17,1.8.51.86.8,1.03,1.37h-.18l.18-1.71h1.92c-.03.33-.06.67-.09,1.02-.03.35-.04.69-.04,1.02v6.13h-1.98l-.02-1.68h.19c-.17.56-.52,1.01-1.04,1.34-.52.33-1.11.5-1.78.5Zm.56-1.55c.63,0,1.14-.22,1.52-.67.38-.45.58-1.12.58-2.03s-.19-1.58-.58-2.02c-.38-.44-.89-.66-1.52-.66s-1.14.22-1.52.66c-.38.44-.58,1.12-.58,2.02s.19,1.58.57,2.03c.38.45.89.67,1.53.67Z"/>
          <path class="cls-3" d="m42.8,29.01v-8.17h1.66l2.78,4.89,2.78-4.89h1.66v8.17h-1.76v-5.91h.37l-2.59,4.58h-.93l-2.59-4.58h.37v5.91h-1.76Z"/>
          <path class="cls-3" d="m53.97,29.01v-8.17h1.81v6.18h-.48l4.59-6.18h1.65v8.17h-1.81v-6.2h.5l-4.61,6.2h-1.65Z"/>
          <path class="cls-3" d="m63.81,29.01v-8.17h1.98v3.2h3.65v-3.2h1.98v8.17h-1.98v-3.41h-3.65v3.41h-1.98Z"/>
          <path class="cls-3" d="m73.7,29.01v-8.17h1.81v6.18h-.48l4.59-6.18h1.65v8.17h-1.81v-6.2h.5l-4.61,6.2h-1.65Z"/>
          <path class="cls-3" d="m83.6,32.5v-9.63c0-.33-.01-.67-.03-1.02s-.05-.69-.1-1.02h1.94l.18,1.71h-.18c.16-.57.5-1.03,1.02-1.37.52-.34,1.12-.51,1.8-.51s1.34.17,1.87.51c.53.34.95.83,1.25,1.46.3.63.45,1.39.45,2.27s-.15,1.64-.45,2.28c-.3.64-.71,1.12-1.25,1.46-.53.34-1.16.51-1.87.51-.67,0-1.26-.17-1.78-.5-.51-.33-.85-.78-1.02-1.34h.18v5.18h-2Zm4.06-4.89c.64,0,1.15-.22,1.54-.67.38-.45.58-1.12.58-2.03s-.19-1.58-.58-2.02c-.38-.44-.9-.66-1.54-.66s-1.14.22-1.52.66c-.38.44-.58,1.12-.58,2.02s.19,1.58.58,2.03c.38.45.89.67,1.52.67Z"/>
          <path class="cls-3" d="m97.39,29.17c-.83,0-1.55-.17-2.16-.52-.61-.34-1.08-.84-1.42-1.47-.34-.64-.5-1.39-.5-2.26s.17-1.63.5-2.26c.34-.63.81-1.12,1.42-1.46.61-.34,1.33-.52,2.16-.52s1.55.17,2.17.52c.61.35,1.09.83,1.42,1.46.34.63.5,1.38.5,2.26s-.17,1.63-.5,2.26c-.34.64-.81,1.13-1.42,1.47-.61.35-1.34.52-2.17.52Zm0-1.55c.63,0,1.13-.22,1.5-.67.37-.45.56-1.12.56-2.03s-.19-1.58-.56-2.02c-.37-.44-.87-.66-1.5-.66s-1.13.22-1.5.66c-.37.44-.56,1.12-.56,2.02s.19,1.58.56,2.03c.37.45.88.67,1.5.67Z"/>
          <path class="cls-3" d="m103.38,29.01v-8.17h4.3c1.01,0,1.75.19,2.22.56.47.37.7.9.7,1.58,0,.52-.17.95-.51,1.29-.34.35-.79.56-1.36.65v-.23c.69.04,1.23.25,1.6.61s.56.84.56,1.42c0,.7-.27,1.26-.8,1.67-.53.41-1.29.61-2.27.61h-4.45Zm1.86-4.79h2.21c.43,0,.76-.09.99-.28.23-.19.35-.46.35-.8s-.12-.61-.35-.79c-.24-.18-.57-.27-.99-.27h-2.21v2.15Zm0,3.54h2.38c.47,0,.83-.1,1.08-.29.25-.19.38-.48.38-.86s-.13-.66-.38-.86c-.25-.19-.61-.29-1.08-.29h-2.38v2.3Z"/>
          <path class="cls-3" d="m115.83,29.17c-.7,0-1.32-.17-1.86-.51-.53-.34-.95-.83-1.25-1.46-.3-.64-.45-1.4-.45-2.28s.15-1.64.45-2.27.71-1.12,1.25-1.46,1.15-.51,1.86-.51,1.28.17,1.8.51.86.8,1.03,1.37h-.18l.18-1.71h1.92c-.03.33-.06.67-.09,1.02-.03.35-.04.69-.04,1.02v6.13h-1.98l-.02-1.68h.19c-.17.56-.52,1.01-1.04,1.34-.52.33-1.11.5-1.78.5Zm.56-1.55c.63,0,1.14-.22,1.52-.67.38-.45.58-1.12.58-2.03s-.19-1.58-.58-2.02c-.38-.44-.89-.66-1.52-.66s-1.14.22-1.52.66c-.38.44-.58,1.12-.58,2.02s.19,1.58.57,2.03c.38.45.89.67,1.53.67Z"/>
          <path class="cls-3" d="m122.79,29.01v-8.17h1.98v3.2h3.65v-3.2h1.98v8.17h-1.98v-3.41h-3.65v3.41h-1.98Z"/>
          <path class="cls-3" d="m132.67,29.01v-8.17h1.81v6.18h-.48l4.59-6.18h1.65v8.17h-1.81v-6.2h.5l-4.61,6.2h-1.65Z"/>
          <path class="cls-3" d="m146.48,29.17c-1.35,0-2.42-.38-3.18-1.13s-1.15-1.79-1.15-3.11c0-.85.17-1.6.5-2.23.33-.64.79-1.13,1.38-1.49.59-.36,1.28-.53,2.07-.53s1.43.17,1.95.5.92.8,1.19,1.41c.27.6.41,1.31.41,2.12v.53h-5.89v-1.07h4.46l-.27.23c0-.75-.16-1.33-.47-1.73-.31-.4-.77-.6-1.37-.6-.66,0-1.17.24-1.53.71s-.54,1.14-.54,1.99v.21c0,.88.22,1.54.65,1.98.43.44,1.04.66,1.83.66.46,0,.89-.06,1.29-.19.4-.12.78-.33,1.14-.61l.59,1.36c-.38.31-.84.56-1.38.73-.53.17-1.1.26-1.7.26Z"/>
        </g>
        <g>
          <path class="cls-3" d="m563.39,73.45v-1.68l.51.39h-.45c-1.12,0-2.09-.19-2.9-.58s-1.43-.95-1.86-1.67c-.43-.73-.65-1.61-.65-2.65,0-1.57.47-2.79,1.42-3.63s2.27-1.27,3.99-1.27h.45l-.51.39v-1.59h2.05v1.59l-.51-.39h.45c1.72,0,3.05.42,4,1.27s1.42,2.06,1.42,3.63c0,1.04-.22,1.92-.66,2.65-.44.73-1.06,1.29-1.86,1.67-.81.39-1.77.58-2.9.58h-.45l.51-.39v1.68h-2.05Zm.02-2.51v-7.38l.43.36h-.59c-.94,0-1.69.28-2.26.83-.57.56-.86,1.39-.86,2.5,0,.72.13,1.33.4,1.83.27.5.63.87,1.1,1.12.47.25,1.01.38,1.62.38h.59l-.43.36Zm2.03,0l-.45-.36h.61c.61,0,1.15-.13,1.62-.38.47-.25.83-.63,1.1-1.12.26-.5.39-1.11.39-1.83,0-1.11-.28-1.94-.85-2.5s-1.32-.83-2.26-.83h-.61l.45-.36v7.38Z"/>
          <path class="cls-3" d="m576.52,73.21c-.83,0-1.55-.17-2.16-.52-.61-.35-1.08-.84-1.42-1.47-.34-.64-.5-1.39-.5-2.27s.17-1.63.5-2.26c.34-.63.81-1.12,1.42-1.46.61-.35,1.33-.52,2.16-.52s1.55.17,2.17.52,1.09.83,1.42,1.46c.34.63.5,1.38.5,2.26s-.17,1.63-.5,2.27c-.34.64-.81,1.13-1.42,1.47-.61.34-1.34.52-2.17.52Zm0-1.55c.63,0,1.13-.22,1.5-.67.37-.45.56-1.12.56-2.03s-.19-1.58-.56-2.02c-.37-.44-.87-.66-1.5-.66s-1.13.22-1.5.66c-.37.44-.56,1.12-.56,2.02s.19,1.58.56,2.03.88.67,1.5.67Z"/>
          <path class="cls-3" d="m582.57,76.54v-9.63c0-.33-.01-.67-.03-1.02s-.05-.68-.1-1.02h1.94l.18,1.72h-.18c.16-.57.5-1.03,1.02-1.37.52-.34,1.12-.51,1.8-.51s1.34.17,1.87.51c.53.34.95.82,1.25,1.46.3.63.45,1.39.45,2.27s-.15,1.65-.45,2.28c-.3.64-.71,1.12-1.25,1.46-.53.34-1.16.51-1.87.51-.67,0-1.26-.17-1.78-.5s-.85-.78-1.02-1.34h.18v5.18h-2Zm4.06-4.89c.64,0,1.15-.22,1.54-.67s.58-1.12.58-2.03-.19-1.58-.58-2.02c-.38-.44-.9-.66-1.54-.66s-1.14.22-1.52.66c-.38.44-.58,1.12-.58,2.02s.19,1.58.58,2.03.89.67,1.52.67Z"/>
          <path class="cls-3" d="m592.65,73.05v-8.17h1.66l2.78,4.89,2.78-4.89h1.66v8.17h-1.76v-5.91h.37l-2.59,4.58h-.93l-2.59-4.58h.37v5.91h-1.76Z"/>
          <path class="cls-3" d="m607,73.21c-.7,0-1.32-.17-1.86-.51s-.95-.83-1.25-1.46c-.3-.64-.45-1.4-.45-2.28s.15-1.64.45-2.27.71-1.12,1.25-1.46,1.15-.51,1.86-.51,1.28.17,1.8.51.86.79,1.03,1.37h-.18l.18-1.72h1.92c-.03.33-.06.67-.09,1.02-.03.34-.04.68-.04,1.02v6.13h-1.98l-.02-1.68h.19c-.17.56-.52,1.01-1.04,1.34s-1.11.5-1.78.5Zm.56-1.55c.63,0,1.14-.22,1.52-.67.38-.45.58-1.12.58-2.03s-.19-1.58-.58-2.02c-.38-.44-.89-.66-1.52-.66s-1.14.22-1.52.66c-.38.44-.58,1.12-.58,2.02s.19,1.58.57,2.03c.38.45.89.67,1.53.67Z"/>
          <path class="cls-3" d="m615.71,73.05v-6.58h-2.77v-1.59h7.54v1.59h-2.78v6.58h-1.98Z"/>
          <path class="cls-3" d="m621.82,74h-1.65l4.21-13.12h1.65l-4.21,13.12Z"/>
          <path class="cls-3" d="m636.59,75.72v-2.67h-9.71v-11.41h2.03v9.69h5.79v-9.69h2.05v9.69h1.65v4.38h-1.81Z"/>
          <path class="cls-3" d="m643.87,73.21c-1.35,0-2.42-.38-3.18-1.13s-1.15-1.79-1.15-3.11c0-.85.17-1.6.5-2.23.33-.64.79-1.13,1.38-1.49.59-.36,1.28-.53,2.07-.53s1.43.17,1.95.5c.52.33.92.8,1.19,1.41.27.6.41,1.31.41,2.12v.53h-5.89v-1.07h4.46l-.27.23c0-.75-.16-1.33-.47-1.73-.31-.4-.77-.6-1.37-.6-.66,0-1.17.24-1.53.71s-.54,1.14-.54,1.99v.21c0,.88.22,1.55.65,1.98.43.44,1.04.66,1.83.66.46,0,.89-.06,1.29-.19.4-.12.78-.33,1.14-.61l.59,1.36c-.38.31-.84.56-1.38.73-.53.17-1.1.26-1.7.26Z"/>
          <path class="cls-3" d="m648.89,73.05v-8.17h1.98v3.2h3.65v-3.2h1.98v8.17h-1.98v-3.41h-3.65v3.41h-1.98Z"/>
          <path class="cls-3" d="m661.96,73.21c-.7,0-1.32-.17-1.86-.51s-.95-.83-1.25-1.46c-.3-.64-.45-1.4-.45-2.28s.15-1.64.45-2.27.71-1.12,1.25-1.46,1.15-.51,1.86-.51,1.28.17,1.8.51.86.79,1.03,1.37h-.18l.18-1.72h1.92c-.03.33-.06.67-.09,1.02-.03.34-.04.68-.04,1.02v6.13h-1.98l-.02-1.68h.19c-.17.56-.52,1.01-1.04,1.34s-1.11.5-1.78.5Zm.56-1.55c.63,0,1.14-.22,1.52-.67.38-.45.58-1.12.58-2.03s-.19-1.58-.58-2.02c-.38-.44-.89-.66-1.52-.66s-1.14.22-1.52.66c-.38.44-.58,1.12-.58,2.02s.19,1.58.57,2.03c.38.45.89.67,1.53.67Z"/>
        </g>
        <g>
          <path class="cls-3" d="m341.07,122.61l5.1-11.41h1.73l5.17,11.41h-2.1l-1.38-3.2.83.57h-6.77l.86-.57-1.38,3.2h-2.08Zm5.95-9.17l-2.26,5.4-.42-.5h5.38l-.34.5-2.3-5.4h-.06Z"/>
          <path class="cls-3" d="m358.76,122.61v-2.23h-5.04v-1.46l5.36-7.72h1.66v7.59h1.62v1.59h-1.62v2.23h-1.98Zm0-3.82v-5.13h.38l-3.89,5.61v-.49h3.5Z"/>
        </g>
        <g>
          <path class="cls-3" d="m338.08,167.63c-.77,0-1.5-.12-2.21-.35-.7-.23-1.29-.56-1.76-1l.58-1.28c.52.41,1.06.71,1.6.91.54.19,1.13.29,1.74.29.79,0,1.39-.17,1.8-.5.41-.33.62-.81.62-1.44s-.21-1.08-.62-1.4c-.41-.32-1.02-.48-1.82-.48h-1.74v-1.36h1.62c.68,0,1.23-.17,1.63-.53s.61-.83.61-1.43c0-.55-.19-.97-.56-1.27-.37-.3-.91-.44-1.6-.44-1.17,0-2.2.42-3.09,1.25l-.56-1.28c.44-.44.99-.78,1.66-1.03.67-.24,1.38-.36,2.11-.36,1.13,0,2.02.26,2.67.78.65.52.98,1.25.98,2.18,0,.7-.19,1.3-.58,1.79-.39.5-.92.83-1.59.99v-.18c.8.13,1.42.45,1.85.96.43.51.65,1.15.65,1.92,0,1.01-.35,1.81-1.06,2.39-.71.58-1.68.87-2.92.87Z"/>
          <path class="cls-3" d="m347.79,167.63c-1.3,0-2.3-.5-3-1.51s-1.05-2.46-1.05-4.34.35-3.37,1.05-4.36c.7-.99,1.7-1.48,3-1.48s2.31.49,3.01,1.48c.69.99,1.04,2.43,1.04,4.34s-.35,3.35-1.05,4.36-1.7,1.51-3,1.51Zm0-1.41c.82,0,1.43-.36,1.83-1.08.4-.72.6-1.85.6-3.38s-.2-2.67-.6-3.37c-.4-.71-1.01-1.06-1.83-1.06s-1.42.35-1.82,1.06c-.41.71-.61,1.83-.61,3.36s.21,2.67.62,3.4c.41.72,1.02,1.08,1.82,1.08Z"/>
          <path class="cls-3" d="m358.15,170.98v-9.69c0-.31-.01-.63-.04-.96-.03-.33-.06-.66-.09-1h1.57l.16,1.85h-.18c.17-.62.51-1.1,1.03-1.46.52-.36,1.13-.53,1.85-.53s1.34.17,1.87.51.95.82,1.24,1.45c.29.63.44,1.38.44,2.27s-.15,1.63-.44,2.27c-.29.64-.71,1.12-1.24,1.46-.53.33-1.16.5-1.87.5s-1.31-.18-1.83-.53c-.52-.35-.86-.83-1.03-1.43h.18v5.31h-1.62Zm3.9-4.63c.7,0,1.27-.25,1.69-.74.42-.5.63-1.23.63-2.2s-.21-1.7-.63-2.19c-.42-.49-.98-.74-1.69-.74s-1.27.25-1.69.74c-.42.49-.63,1.22-.63,2.19s.21,1.7.63,2.2c.42.5.98.74,1.69.74Z"/>
          <path class="cls-3" d="m367.49,167.48v-1.92h1.9v1.92h-1.9Z"/>
        </g>
        <g>
          <path class="cls-3" d="m472.28,122.61l5.1-11.41h1.73l5.17,11.41h-2.1l-1.38-3.2.83.57h-6.77l.86-.57-1.38,3.2h-2.08Zm5.95-9.17l-2.26,5.4-.42-.5h5.38l-.34.5-2.3-5.4h-.06Z"/>
          <path class="cls-3" d="m488.91,122.78c-.78,0-1.53-.12-2.24-.35-.71-.23-1.3-.55-1.76-.96l.67-1.57c.5.39,1.02.67,1.56.86.54.18,1.11.28,1.7.28.73,0,1.27-.15,1.65-.44.37-.29.56-.72.56-1.28s-.18-.95-.55-1.22c-.37-.27-.9-.41-1.61-.41h-1.82v-1.67h1.65c.61,0,1.09-.15,1.46-.45.36-.3.54-.72.54-1.25,0-.5-.17-.87-.5-1.13s-.82-.39-1.45-.39c-1.13,0-2.13.39-2.99,1.17l-.67-1.55c.46-.43,1.03-.77,1.7-1,.68-.24,1.39-.36,2.14-.36,1.17,0,2.09.27,2.76.8.67.53,1,1.28,1,2.22,0,.68-.19,1.27-.57,1.76s-.9.82-1.56.98v-.19c.78.13,1.38.45,1.82.96.43.51.65,1.15.65,1.92,0,1.01-.37,1.82-1.1,2.4-.74.59-1.74.88-3.02.88Z"/>
        </g>
        <g>
          <path class="cls-3" d="m470.56,167.48v-2.36h-5.22v-1.2l5.49-7.85h1.34v7.73h1.68v1.31h-1.68v2.36h-1.62Zm0-3.67v-5.74h.37l-4.29,6.15v-.4h3.92Z"/>
          <path class="cls-3" d="m479.01,167.63c-1.3,0-2.3-.5-3-1.51s-1.05-2.46-1.05-4.34.35-3.37,1.05-4.36c.7-.99,1.7-1.48,3-1.48s2.31.49,3.01,1.48c.69.99,1.04,2.43,1.04,4.34s-.35,3.35-1.05,4.36-1.7,1.51-3,1.51Zm0-1.41c.82,0,1.43-.36,1.83-1.08.4-.72.6-1.85.6-3.38s-.2-2.67-.6-3.37c-.4-.71-1.01-1.06-1.83-1.06s-1.42.35-1.82,1.06c-.41.71-.61,1.83-.61,3.36s.21,2.67.62,3.4c.41.72,1.02,1.08,1.82,1.08Z"/>
          <path class="cls-3" d="m489.36,170.98v-9.69c0-.31-.01-.63-.04-.96-.03-.33-.06-.66-.09-1h1.57l.16,1.85h-.18c.17-.62.51-1.1,1.03-1.46.52-.36,1.13-.53,1.85-.53s1.34.17,1.87.51.95.82,1.24,1.45c.29.63.44,1.38.44,2.27s-.15,1.63-.44,2.27c-.29.64-.71,1.12-1.24,1.46-.53.33-1.16.5-1.87.5s-1.31-.18-1.83-.53c-.52-.35-.86-.83-1.03-1.43h.18v5.31h-1.62Zm3.9-4.63c.7,0,1.27-.25,1.69-.74.42-.5.63-1.23.63-2.2s-.21-1.7-.63-2.19c-.42-.49-.98-.74-1.69-.74s-1.27.25-1.69.74c-.42.49-.63,1.22-.63,2.19s.21,1.7.63,2.2c.42.5.98.74,1.69.74Z"/>
          <path class="cls-3" d="m498.71,167.48v-1.92h1.9v1.92h-1.9Z"/>
        </g>
        <g>
          <path class="cls-3" d="m601.67,122.61l5.1-11.41h1.73l5.17,11.41h-2.1l-1.38-3.2.83.57h-6.77l.86-.57-1.38,3.2h-2.08Zm5.95-9.17l-2.26,5.4-.42-.5h5.38l-.34.5-2.3-5.4h-.06Z"/>
          <path class="cls-3" d="m614.92,122.61v-1.54l3.74-3.95c.47-.5.82-.96,1.04-1.38.22-.42.34-.85.34-1.29,0-.55-.17-.96-.51-1.25-.34-.28-.84-.42-1.49-.42-.52,0-1.02.09-1.5.28-.48.19-.95.48-1.41.88l-.67-1.55c.46-.41,1.03-.74,1.7-.99.68-.25,1.39-.37,2.14-.37,1.22,0,2.15.28,2.8.83s.98,1.34.98,2.36c0,.71-.17,1.39-.5,2.03-.33.64-.84,1.31-1.54,2.01l-3.12,3.15v-.55h5.6v1.73h-7.6Z"/>
        </g>
        <g>
          <path class="cls-3" d="m598.8,167.63c-1.3,0-2.31-.28-3.04-.84-.73-.56-1.09-1.34-1.09-2.35,0-.8.24-1.46.72-1.98.48-.52,1.11-.84,1.89-.95v.29c-.7-.15-1.27-.48-1.69-.99-.42-.51-.63-1.12-.63-1.84,0-.95.34-1.69,1.02-2.23.68-.54,1.62-.81,2.82-.81s2.15.27,2.83.81,1.02,1.28,1.02,2.23c0,.72-.2,1.34-.6,1.85-.4.51-.95.83-1.64.96v-.27c.77.11,1.38.42,1.84.95.46.52.69,1.18.69,1.98,0,1-.36,1.79-1.09,2.35-.73.56-1.74.84-3.06.84Zm0-1.33c.86,0,1.51-.16,1.94-.49.43-.33.64-.82.64-1.48s-.21-1.15-.64-1.47c-.43-.32-1.07-.48-1.94-.48s-1.51.16-1.94.48c-.43.32-.64.81-.64,1.47s.22,1.15.65,1.48c.43.33,1.07.49,1.93.49Zm0-5.26c.75,0,1.31-.17,1.7-.51s.58-.81.58-1.4-.19-1.04-.58-1.38-.96-.5-1.7-.5-1.3.17-1.7.5-.59.79-.59,1.38.2,1.06.59,1.4.96.51,1.7.51Z"/>
          <path class="cls-3" d="m604.93,167.48v-1.25l3.87-4.09c.5-.53.87-1.03,1.12-1.49.25-.46.37-.94.37-1.44,0-.62-.19-1.08-.57-1.39-.38-.31-.93-.47-1.64-.47-.57,0-1.1.1-1.59.31s-.97.52-1.43.94l-.58-1.28c.45-.42,1-.76,1.67-1.01s1.37-.38,2.12-.38c1.17,0,2.08.27,2.71.81s.95,1.31.95,2.31c0,.71-.17,1.39-.51,2.05-.34.65-.85,1.32-1.54,2.01l-3.34,3.41v-.45h5.86v1.41h-7.47Z"/>
          <path class="cls-3" d="m618.75,170.98v-9.69c0-.31-.01-.63-.04-.96-.03-.33-.06-.66-.09-1h1.57l.16,1.85h-.18c.17-.62.51-1.1,1.03-1.46.52-.36,1.13-.53,1.85-.53s1.34.17,1.87.51.95.82,1.24,1.45c.29.63.44,1.38.44,2.27s-.15,1.63-.44,2.27c-.29.64-.71,1.12-1.24,1.46-.53.33-1.16.5-1.87.5s-1.31-.18-1.83-.53c-.52-.35-.86-.83-1.03-1.43h.18v5.31h-1.62Zm3.9-4.63c.7,0,1.27-.25,1.69-.74.42-.5.63-1.23.63-2.2s-.21-1.7-.63-2.19c-.42-.49-.98-.74-1.69-.74s-1.27.25-1.69.74c-.42.49-.63,1.22-.63,2.19s.21,1.7.63,2.2c.42.5.98.74,1.69.74Z"/>
          <path class="cls-3" d="m628.1,167.48v-1.92h1.9v1.92h-1.9Z"/>
        </g>
        <g>
          <path class="cls-3" d="m732.37,122.61l5.1-11.41h1.73l5.17,11.41h-2.1l-1.38-3.2.83.57h-6.77l.86-.57-1.38,3.2h-2.08Zm5.95-9.17l-2.26,5.4-.42-.5h5.38l-.34.5-2.3-5.4h-.06Z"/>
          <path class="cls-3" d="m746.15,122.61v-1.73h2.59v-7.93h.99l-3.33,2.01v-1.97l2.93-1.78h1.47v9.67h2.43v1.73h-7.09Z"/>
        </g>
        <g>
          <path class="cls-3" d="m721.23,167.48v-1.25l3.87-4.09c.5-.53.87-1.03,1.12-1.49.25-.46.37-.94.37-1.44,0-.62-.19-1.08-.57-1.39-.38-.31-.93-.47-1.64-.47-.57,0-1.1.1-1.59.31s-.97.52-1.43.94l-.58-1.28c.45-.42,1-.76,1.67-1.01s1.37-.38,2.12-.38c1.17,0,2.08.27,2.71.81s.95,1.31.95,2.31c0,.71-.17,1.39-.51,2.05-.34.65-.85,1.32-1.54,2.01l-3.34,3.41v-.45h5.86v1.41h-7.47Z"/>
          <path class="cls-3" d="m734.3,167.63c-1.3,0-2.3-.5-3-1.51s-1.05-2.46-1.05-4.34.35-3.37,1.05-4.36c.7-.99,1.7-1.48,3-1.48s2.31.49,3.01,1.48c.69.99,1.04,2.43,1.04,4.34s-.35,3.35-1.05,4.36-1.7,1.51-3,1.51Zm0-1.41c.82,0,1.43-.36,1.83-1.08.4-.72.6-1.85.6-3.38s-.2-2.67-.6-3.37c-.4-.71-1.01-1.06-1.83-1.06s-1.42.35-1.82,1.06c-.41.71-.61,1.83-.61,3.36s.21,2.67.62,3.4c.41.72,1.02,1.08,1.82,1.08Z"/>
          <path class="cls-3" d="m743.9,167.63c-1.3,0-2.3-.5-3-1.51s-1.05-2.46-1.05-4.34.35-3.37,1.05-4.36c.7-.99,1.7-1.48,3-1.48s2.31.49,3.01,1.48c.69.99,1.04,2.43,1.04,4.34s-.35,3.35-1.05,4.36-1.7,1.51-3,1.51Zm0-1.41c.82,0,1.43-.36,1.83-1.08.4-.72.6-1.85.6-3.38s-.2-2.67-.6-3.37c-.4-.71-1.01-1.06-1.83-1.06s-1.42.35-1.82,1.06c-.41.71-.61,1.83-.61,3.36s.21,2.67.62,3.4c.41.72,1.02,1.08,1.82,1.08Z"/>
          <path class="cls-3" d="m754.25,170.98v-9.69c0-.31-.01-.63-.04-.96-.03-.33-.06-.66-.09-1h1.57l.16,1.85h-.18c.17-.62.51-1.1,1.03-1.46.52-.36,1.13-.53,1.85-.53s1.34.17,1.87.51.95.82,1.24,1.45c.29.63.44,1.38.44,2.27s-.15,1.63-.44,2.27c-.29.64-.71,1.12-1.24,1.46-.53.33-1.16.5-1.87.5s-1.31-.18-1.83-.53c-.52-.35-.86-.83-1.03-1.43h.18v5.31h-1.62Zm3.9-4.63c.7,0,1.27-.25,1.69-.74.42-.5.63-1.23.63-2.2s-.21-1.7-.63-2.19c-.42-.49-.98-.74-1.69-.74s-1.27.25-1.69.74c-.42.49-.63,1.22-.63,2.19s.21,1.7.63,2.2c.42.5.98.74,1.69.74Z"/>
          <path class="cls-3" d="m763.59,167.48v-1.92h1.9v1.92h-1.9Z"/>
        </g>
        <g>
          <path class="cls-3" d="m17.47,203.51c0-1.2.21-2.23.62-3.11.42-.87,1.02-1.55,1.82-2.02s1.74-.71,2.84-.71,2.03.24,2.82.71c.79.47,1.4,1.15,1.83,2.02.43.87.65,1.9.65,3.09s-.22,2.24-.65,3.11-1.05,1.56-1.84,2.04c-.79.48-1.73.72-2.81.72s-2.04-.24-2.83-.72c-.79-.48-1.39-1.16-1.82-2.04-.42-.88-.63-1.91-.63-3.1Zm1.74,0c0,1.38.3,2.46.9,3.24s1.48,1.17,2.64,1.17,2.01-.39,2.62-1.16c.62-.77.93-1.85.93-3.24s-.31-2.47-.92-3.24c-.61-.77-1.49-1.15-2.63-1.15s-2.04.38-2.64,1.15-.9,1.84-.9,3.24Z"/>
          <path class="cls-3" d="m30.2,209.22v-8.15h7.23v8.15h-1.6v-6.88h-4.03v6.88h-1.6Z"/>
          <path class="cls-3" d="m43.66,209.37c-1.3,0-2.33-.37-3.07-1.12-.75-.74-1.12-1.77-1.12-3.09,0-.85.16-1.6.49-2.23.33-.64.78-1.13,1.36-1.48.58-.35,1.26-.53,2.02-.53s1.39.16,1.9.49c.51.32.9.78,1.17,1.37s.4,1.28.4,2.08v.52h-6.08v-.94h4.98l-.27.21c0-.81-.18-1.44-.54-1.89-.36-.45-.87-.67-1.54-.67-.75,0-1.32.26-1.73.78-.41.52-.61,1.24-.61,2.16v.16c0,.96.23,1.68.7,2.17.46.49,1.12.73,1.98.73.47,0,.91-.07,1.32-.2.41-.13.8-.36,1.18-.67l.53,1.12c-.37.33-.83.59-1.36.77s-1.1.27-1.7.27Z"/>
          <path class="cls-3" d="m48.86,212.72v-9.69c0-.31-.01-.63-.04-.96-.03-.33-.06-.66-.09-.99h1.57l.16,1.84h-.18c.17-.61.51-1.1,1.03-1.46.52-.36,1.13-.54,1.85-.54s1.34.17,1.87.51.95.82,1.24,1.45c.29.62.44,1.38.44,2.26s-.15,1.63-.44,2.26c-.29.64-.71,1.12-1.24,1.46s-1.16.5-1.87.5-1.31-.17-1.83-.53c-.52-.35-.86-.83-1.03-1.43h.18v5.31h-1.62Zm3.9-4.63c.7,0,1.27-.25,1.69-.74.42-.5.63-1.23.63-2.2s-.21-1.7-.63-2.19c-.42-.49-.98-.74-1.69-.74s-1.27.25-1.69.74c-.42.49-.63,1.22-.63,2.19s.21,1.7.63,2.2c.42.5.98.74,1.69.74Z"/>
          <path class="cls-3" d="m61.88,209.37c-.71,0-1.34-.17-1.87-.5s-.95-.82-1.24-1.46c-.29-.64-.44-1.39-.44-2.26s.15-1.64.44-2.26c.29-.63.71-1.11,1.24-1.45s1.16-.51,1.87-.51,1.32.18,1.84.54c.52.36.87.84,1.04,1.46h-.18l.16-1.84h1.57c-.03.33-.06.67-.09.99-.03.33-.04.65-.04.96v6.2h-1.62v-1.81h.18c-.17.6-.52,1.08-1.05,1.43-.53.35-1.13.53-1.82.53Zm.4-1.28c.69,0,1.25-.25,1.67-.74.42-.5.63-1.23.63-2.2s-.21-1.7-.63-2.19c-.42-.49-.98-.74-1.67-.74s-1.27.25-1.69.74c-.42.49-.63,1.22-.63,2.19s.21,1.7.62,2.2.98.74,1.7.74Z"/>
          <path class="cls-3" d="m70.4,209.22v-6.84h-2.85v-1.31h7.31v1.31h-2.86v6.84h-1.6Z"/>
          <path class="cls-3" d="m79.63,209.37c-.8,0-1.49-.17-2.08-.51-.59-.34-1.04-.83-1.36-1.46s-.48-1.38-.48-2.26.16-1.63.48-2.26.77-1.12,1.36-1.46c.59-.34,1.28-.51,2.08-.51s1.5.17,2.09.51,1.05.83,1.38,1.46c.33.63.49,1.38.49,2.26s-.16,1.63-.49,2.26c-.33.63-.78,1.12-1.38,1.46-.59.34-1.29.51-2.09.51Zm0-1.28c.7,0,1.26-.25,1.68-.74s.62-1.23.62-2.2-.21-1.7-.62-2.19-.98-.74-1.68-.74-1.25.25-1.66.74-.62,1.22-.62,2.19.21,1.7.62,2.2c.41.5.97.74,1.67.74Z"/>
          <path class="cls-3" d="m85.64,212.72v-9.69c0-.31-.01-.63-.04-.96-.03-.33-.06-.66-.09-.99h1.57l.16,1.84h-.18c.17-.61.51-1.1,1.03-1.46.52-.36,1.13-.54,1.85-.54s1.34.17,1.87.51.95.82,1.24,1.45c.29.62.44,1.38.44,2.26s-.15,1.63-.44,2.26c-.29.64-.71,1.12-1.24,1.46s-1.16.5-1.87.5-1.31-.17-1.83-.53c-.52-.35-.86-.83-1.03-1.43h.18v5.31h-1.62Zm3.9-4.63c.7,0,1.27-.25,1.69-.74.42-.5.63-1.23.63-2.2s-.21-1.7-.63-2.19c-.42-.49-.98-.74-1.69-.74s-1.27.25-1.69.74c-.42.49-.63,1.22-.63,2.19s.21,1.7.63,2.2c.42.5.98.74,1.69.74Z"/>
          <path class="cls-3" d="m95.23,212.9l-.38-1.33c.5-.11.92-.24,1.26-.39.34-.15.62-.35.84-.59s.42-.55.58-.93l.4-.96-.03.66-3.5-8.3h1.73l2.72,6.79h-.43l2.72-6.79h1.66l-3.7,8.74c-.23.54-.49.99-.75,1.36s-.55.66-.86.89c-.31.23-.65.4-1.02.53s-.78.23-1.22.31Z"/>
          <path class="cls-3" d="m108.35,205.44v-1.31h4.69v1.31h-4.69Z"/>
          <path class="cls-3" d="m119.75,209.22v-1.25l3.87-4.09c.5-.53.87-1.02,1.12-1.49.25-.46.37-.94.37-1.44,0-.62-.19-1.08-.57-1.39-.38-.31-.93-.47-1.64-.47-.57,0-1.1.1-1.59.31-.5.21-.97.52-1.43.94l-.58-1.28c.45-.42,1-.76,1.67-1.01s1.37-.38,2.12-.38c1.17,0,2.08.27,2.71.81s.95,1.31.95,2.31c0,.71-.17,1.39-.51,2.05-.34.65-.85,1.32-1.54,2.01l-3.34,3.41v-.45h5.86v1.41h-7.47Z"/>
          <path class="cls-3" d="m132.83,209.37c-1.3,0-2.3-.5-3-1.51-.7-1.01-1.05-2.46-1.05-4.34s.35-3.37,1.05-4.36c.7-.99,1.7-1.48,3-1.48s2.31.49,3.01,1.48c.69.99,1.04,2.44,1.04,4.34s-.35,3.35-1.05,4.36c-.7,1.01-1.7,1.51-3,1.51Zm0-1.41c.82,0,1.43-.36,1.83-1.08.4-.72.6-1.85.6-3.38s-.2-2.67-.6-3.37c-.4-.71-1.01-1.06-1.83-1.06s-1.42.35-1.82,1.06c-.41.71-.61,1.83-.61,3.36s.21,2.68.62,3.4c.41.72,1.02,1.08,1.82,1.08Z"/>
          <path class="cls-3" d="m142.43,209.37c-1.3,0-2.3-.5-3-1.51-.7-1.01-1.05-2.46-1.05-4.34s.35-3.37,1.05-4.36c.7-.99,1.7-1.48,3-1.48s2.31.49,3.01,1.48c.69.99,1.04,2.44,1.04,4.34s-.35,3.35-1.05,4.36c-.7,1.01-1.7,1.51-3,1.51Zm0-1.41c.82,0,1.43-.36,1.83-1.08.4-.72.6-1.85.6-3.38s-.2-2.67-.6-3.37c-.4-.71-1.01-1.06-1.83-1.06s-1.42.35-1.82,1.06c-.41.71-.61,1.83-.61,3.36s.21,2.68.62,3.4c.41.72,1.02,1.08,1.82,1.08Z"/>
          <path class="cls-3" d="m152.71,209.22v-8.15h1.34l2.91,5.21,2.91-5.21h1.34v8.15h-1.42v-6.33h.35l-2.8,5.02h-.77l-2.8-5.02h.35v6.33h-1.42Z"/>
          <path class="cls-3" d="m163.66,209.22v-8.15h1.6v3.33h1.39l2.51-3.33h1.76l-3.01,4.01-.4-.52c.31.03.58.11.8.23.22.12.44.31.66.54.21.24.43.55.66.94l1.68,2.95h-1.73l-1.44-2.49c-.16-.28-.32-.5-.46-.65-.15-.16-.32-.26-.51-.32-.19-.06-.43-.09-.7-.09h-1.2v3.56h-1.6Z"/>
          <path class="cls-3" d="m172.55,212.72v-9.69c0-.31-.01-.63-.04-.96-.03-.33-.06-.66-.09-.99h1.57l.16,1.84h-.18c.17-.61.51-1.1,1.03-1.46.52-.36,1.13-.54,1.85-.54s1.34.17,1.87.51.95.82,1.24,1.45c.29.62.44,1.38.44,2.26s-.15,1.63-.44,2.26c-.29.64-.71,1.12-1.24,1.46s-1.16.5-1.87.5-1.31-.17-1.83-.53c-.52-.35-.86-.83-1.03-1.43h.18v5.31h-1.62Zm3.9-4.63c.7,0,1.27-.25,1.69-.74.42-.5.63-1.23.63-2.2s-.21-1.7-.63-2.19c-.42-.49-.98-.74-1.69-.74s-1.27.25-1.69.74c-.42.49-.63,1.22-.63,2.19s.21,1.7.63,2.2c.42.5.98.74,1.69.74Z"/>
          <path class="cls-3" d="m182.71,211.21l-.7-.55c.31-.33.52-.64.63-.92.11-.28.17-.57.17-.87l.35.36h-1.26v-1.93h1.9v1.31c0,.49-.08.94-.24,1.35-.16.42-.44.83-.85,1.25Z"/>
          <path class="cls-3" d="m190.23,209.22v-8.15h7.23v8.15h-1.6v-6.88h-4.03v6.88h-1.6Z"/>
          <path class="cls-3" d="m199.96,212.72v-9.69c0-.31-.01-.63-.04-.96-.03-.33-.06-.66-.09-.99h1.57l.16,1.84h-.18c.17-.61.51-1.1,1.03-1.46.52-.36,1.13-.54,1.85-.54s1.34.17,1.87.51.95.82,1.24,1.45c.29.62.44,1.38.44,2.26s-.15,1.63-.44,2.26c-.29.64-.71,1.12-1.24,1.46s-1.16.5-1.87.5-1.31-.17-1.83-.53c-.52-.35-.86-.83-1.03-1.43h.18v5.31h-1.62Zm3.9-4.63c.7,0,1.27-.25,1.69-.74.42-.5.63-1.23.63-2.2s-.21-1.7-.63-2.19c-.42-.49-.98-.74-1.69-.74s-1.27.25-1.69.74c-.42.49-.63,1.22-.63,2.19s.21,1.7.63,2.2c.42.5.98.74,1.69.74Z"/>
          <path class="cls-3" d="m213.35,209.37c-.8,0-1.49-.17-2.08-.51-.59-.34-1.04-.83-1.36-1.46s-.48-1.38-.48-2.26.16-1.63.48-2.26.77-1.12,1.36-1.46c.59-.34,1.28-.51,2.08-.51s1.5.17,2.09.51,1.05.83,1.38,1.46c.33.63.49,1.38.49,2.26s-.16,1.63-.49,2.26c-.33.63-.78,1.12-1.38,1.46-.59.34-1.29.51-2.09.51Zm0-1.28c.7,0,1.26-.25,1.68-.74s.62-1.23.62-2.2-.21-1.7-.62-2.19-.98-.74-1.68-.74-1.25.25-1.66.74-.62,1.22-.62,2.19.21,1.7.62,2.2c.41.5.97.74,1.67.74Z"/>
          <path class="cls-3" d="m219.3,209.22v-8.15h1.47v6.58h-.45l4.86-6.58h1.34v8.15h-1.46v-6.6h.46l-4.9,6.6h-1.34Z"/>
          <path class="cls-3" d="m231.77,209.37c-.7,0-1.37-.09-1.98-.27-.62-.18-1.13-.43-1.52-.77l.5-1.1c.39.31.85.55,1.36.7s1.06.23,1.65.23c.74,0,1.27-.11,1.61-.33.34-.22.5-.54.5-.95s-.14-.7-.42-.91-.68-.31-1.22-.31h-1.98v-1.17h1.82c.48,0,.85-.1,1.12-.31s.4-.49.4-.86c0-.39-.16-.69-.46-.91s-.79-.32-1.44-.32c-.55,0-1.06.07-1.52.21-.46.14-.9.35-1.31.63l-.48-1.05c.44-.33.96-.58,1.55-.75.6-.16,1.24-.24,1.94-.24,1.04,0,1.84.2,2.38.59.54.39.82.96.82,1.69,0,.51-.17.94-.5,1.29s-.79.57-1.35.65v-.21c.65.03,1.17.23,1.56.59.39.36.58.84.58,1.43,0,.73-.31,1.32-.92,1.76-.61.44-1.51.66-2.68.66Z"/>
          <path class="cls-3" d="m237.26,209.22v-8.15h4.06c.97,0,1.69.19,2.15.56.46.37.7.9.7,1.58,0,.53-.17.97-.52,1.31-.35.35-.8.56-1.37.63v-.21c.67.03,1.2.23,1.58.6.38.37.58.84.58,1.42,0,.7-.26,1.25-.78,1.66-.52.41-1.25.61-2.2.61h-4.21Zm1.52-4.68h2.38c.48,0,.85-.11,1.12-.32.27-.21.4-.51.4-.89s-.13-.69-.4-.9c-.27-.21-.64-.32-1.12-.32h-2.38v2.43Zm0,3.62h2.56c.52,0,.92-.11,1.2-.33.28-.22.42-.54.42-.96s-.14-.74-.42-.96c-.28-.21-.68-.32-1.2-.32h-2.56v2.57Z"/>
          <path class="cls-3" d="m249.86,209.37c-.8,0-1.49-.17-2.08-.51-.59-.34-1.04-.83-1.36-1.46s-.48-1.38-.48-2.26.16-1.63.48-2.26.77-1.12,1.36-1.46c.59-.34,1.28-.51,2.08-.51s1.5.17,2.09.51,1.05.83,1.38,1.46c.33.63.49,1.38.49,2.26s-.16,1.63-.49,2.26c-.33.63-.78,1.12-1.38,1.46-.59.34-1.29.51-2.09.51Zm0-1.28c.7,0,1.26-.25,1.68-.74s.62-1.23.62-2.2-.21-1.7-.62-2.19-.98-.74-1.68-.74-1.25.25-1.66.74-.62,1.22-.62,2.19.21,1.7.62,2.2c.41.5.97.74,1.67.74Z"/>
          <path class="cls-3" d="m255.02,211.33v-3.37h.9c.35-.54.61-1.17.77-1.89.16-.72.24-1.6.24-2.62v-2.38h5.9v6.89h1.3v3.37h-1.39v-2.1h-6.32v2.1h-1.39Zm2.38-3.35h3.9v-5.65h-2.99v1.44c0,.79-.08,1.56-.23,2.31-.16.75-.38,1.38-.68,1.9Z"/>
          <path class="cls-3" d="m269.32,209.37c-.81,0-1.52-.17-2.12-.51-.6-.34-1.07-.83-1.39-1.47-.33-.64-.49-1.41-.49-2.29s.17-1.62.5-2.25c.33-.62.79-1.1,1.39-1.43.6-.33,1.3-.49,2.11-.49.52,0,1.03.09,1.52.27s.9.43,1.22.75l-.53,1.15c-.3-.29-.63-.51-1.01-.65-.37-.15-.74-.22-1.09-.22-.77,0-1.37.25-1.81.74s-.66,1.21-.66,2.15.22,1.68.66,2.18c.44.51,1.04.76,1.81.76.34,0,.7-.07,1.07-.2s.71-.35,1.02-.66l.53,1.15c-.33.32-.74.57-1.24.75-.5.18-.99.27-1.5.27Z"/>
          <path class="cls-3" d="m275.62,209.22v-6.84h-2.85v-1.31h7.31v1.31h-2.86v6.84h-1.6Z"/>
          <path class="cls-3" d="m281.38,209.22v-8.15h4.06c.97,0,1.69.19,2.15.56.46.37.7.9.7,1.58,0,.53-.17.97-.52,1.31-.35.35-.8.56-1.37.63v-.21c.67.03,1.2.23,1.58.6.38.37.58.84.58,1.42,0,.7-.26,1.25-.78,1.66-.52.41-1.25.61-2.2.61h-4.21Zm1.52-4.68h2.38c.48,0,.85-.11,1.12-.32.27-.21.4-.51.4-.89s-.13-.69-.4-.9c-.27-.21-.64-.32-1.12-.32h-2.38v2.43Zm0,3.62h2.56c.52,0,.92-.11,1.2-.33.28-.22.42-.54.42-.96s-.14-.74-.42-.96c-.28-.21-.68-.32-1.2-.32h-2.56v2.57Z"/>
          <path class="cls-3" d="m293.99,209.37c-.8,0-1.49-.17-2.08-.51-.59-.34-1.04-.83-1.36-1.46s-.48-1.38-.48-2.26.16-1.63.48-2.26.77-1.12,1.36-1.46c.59-.34,1.28-.51,2.08-.51s1.5.17,2.09.51,1.05.83,1.38,1.46c.33.63.49,1.38.49,2.26s-.16,1.63-.49,2.26c-.33.63-.78,1.12-1.38,1.46-.59.34-1.29.51-2.09.51Zm0-1.28c.7,0,1.26-.25,1.68-.74s.62-1.23.62-2.2-.21-1.7-.62-2.19-.98-.74-1.68-.74-1.25.25-1.66.74-.62,1.22-.62,2.19.21,1.7.62,2.2c.41.5.97.74,1.67.74Z"/>
          <path class="cls-3" d="m304.12,205.44v-1.31h4.69v1.31h-4.69Z"/>
          <path class="cls-3" d="m315.8,209.22l5.54-10.63v.65h-6.18v-1.42h7.68v1.25l-5.22,10.16h-1.82Z"/>
          <path class="cls-3" d="m328.76,209.37c-.49,0-.98-.05-1.46-.16-.48-.11-.93-.26-1.34-.46-.42-.2-.78-.44-1.09-.72l.58-1.28c.51.4,1.04.7,1.58.9.54.2,1.11.3,1.7.3.76,0,1.35-.2,1.78-.6.43-.4.65-.93.65-1.6s-.21-1.25-.62-1.67c-.41-.43-.98-.64-1.7-.64-.5,0-.96.1-1.37.31s-.77.52-1.08.94h-1.15v-6.86h6.83v1.41h-5.25v4.11h-.42c.29-.41.67-.73,1.16-.96s1.03-.34,1.64-.34c.72,0,1.35.15,1.89.45.53.3.95.72,1.24,1.26.29.54.44,1.18.44,1.91s-.16,1.38-.49,1.93c-.33.56-.79.99-1.39,1.3-.6.31-1.31.47-2.14.47Z"/>
          <path class="cls-3" d="m338.89,209.22v-8.15h1.34l2.91,5.21,2.91-5.21h1.34v8.15h-1.42v-6.33h.35l-2.8,5.02h-.77l-2.8-5.02h.35v6.33h-1.42Z"/>
          <path class="cls-3" d="m349.83,209.22v-8.15h1.6v3.33h1.39l2.51-3.33h1.76l-3.01,4.01-.4-.52c.31.03.58.11.8.23.22.12.44.31.66.54.21.24.43.55.66.94l1.68,2.95h-1.73l-1.44-2.49c-.16-.28-.32-.5-.46-.65-.15-.16-.32-.26-.51-.32-.19-.06-.43-.09-.7-.09h-1.2v3.56h-1.6Z"/>
          <path class="cls-3" d="m358.73,212.72v-9.69c0-.31-.01-.63-.04-.96-.03-.33-.06-.66-.09-.99h1.57l.16,1.84h-.18c.17-.61.51-1.1,1.03-1.46.52-.36,1.13-.54,1.85-.54s1.34.17,1.87.51.95.82,1.24,1.45c.29.62.44,1.38.44,2.26s-.15,1.63-.44,2.26c-.29.64-.71,1.12-1.24,1.46s-1.16.5-1.87.5-1.31-.17-1.83-.53c-.52-.35-.86-.83-1.03-1.43h.18v5.31h-1.62Zm3.9-4.63c.7,0,1.27-.25,1.69-.74.42-.5.63-1.23.63-2.2s-.21-1.7-.63-2.19c-.42-.49-.98-.74-1.69-.74s-1.27.25-1.69.74c-.42.49-.63,1.22-.63,2.19s.21,1.7.63,2.2c.42.5.98.74,1.69.74Z"/>
        </g>
        <g>
          <path class="cls-3" d="m863.85,122.61l5.1-11.41h1.73l5.17,11.41h-2.1l-1.38-3.2.83.57h-6.77l.86-.57-1.38,3.2h-2.08Zm5.95-9.17l-2.26,5.4-.42-.5h5.38l-.34.5-2.3-5.4h-.06Z"/>
          <path class="cls-3" d="m880.65,122.78c-1.32,0-2.34-.51-3.06-1.53-.71-1.02-1.07-2.47-1.07-4.36s.36-3.36,1.07-4.35c.71-.99,1.73-1.49,3.06-1.49s2.35.5,3.06,1.49c.71.99,1.06,2.44,1.06,4.34s-.35,3.36-1.06,4.38c-.71,1.02-1.73,1.53-3.06,1.53Zm0-1.71c.73,0,1.26-.34,1.62-1.01s.53-1.73.53-3.18-.18-2.49-.53-3.15-.89-.98-1.62-.98-1.25.33-1.61.98c-.36.65-.54,1.7-.54,3.15s.18,2.51.54,3.18c.36.67.89,1.01,1.61,1.01Z"/>
        </g>
        <g>
          <path class="cls-3" d="m857.33,167.48v-2.36h-5.22v-1.2l5.49-7.85h1.34v7.73h1.68v1.31h-1.68v2.36h-1.62Zm0-3.67v-5.74h.37l-4.29,6.15v-.4h3.92Z"/>
          <path class="cls-3" d="m865.78,167.63c-1.3,0-2.3-.5-3-1.51s-1.05-2.46-1.05-4.34.35-3.37,1.05-4.36c.7-.99,1.7-1.48,3-1.48s2.31.49,3.01,1.48c.69.99,1.04,2.43,1.04,4.34s-.35,3.35-1.05,4.36-1.7,1.51-3,1.51Zm0-1.41c.82,0,1.43-.36,1.83-1.08.4-.72.6-1.85.6-3.38s-.2-2.67-.6-3.37c-.4-.71-1.01-1.06-1.83-1.06s-1.42.35-1.82,1.06c-.41.71-.61,1.83-.61,3.36s.21,2.67.62,3.4c.41.72,1.02,1.08,1.82,1.08Z"/>
          <path class="cls-3" d="m875.38,167.63c-1.3,0-2.3-.5-3-1.51s-1.05-2.46-1.05-4.34.35-3.37,1.05-4.36c.7-.99,1.7-1.48,3-1.48s2.31.49,3.01,1.48c.69.99,1.04,2.43,1.04,4.34s-.35,3.35-1.05,4.36-1.7,1.51-3,1.51Zm0-1.41c.82,0,1.43-.36,1.83-1.08.4-.72.6-1.85.6-3.38s-.2-2.67-.6-3.37c-.4-.71-1.01-1.06-1.83-1.06s-1.42.35-1.82,1.06c-.41.71-.61,1.83-.61,3.36s.21,2.67.62,3.4c.41.72,1.02,1.08,1.82,1.08Z"/>
          <path class="cls-3" d="m885.73,170.98v-9.69c0-.31-.01-.63-.04-.96-.03-.33-.06-.66-.09-1h1.57l.16,1.85h-.18c.17-.62.51-1.1,1.03-1.46.52-.36,1.13-.53,1.85-.53s1.34.17,1.87.51.95.82,1.24,1.45c.29.63.44,1.38.44,2.27s-.15,1.63-.44,2.27c-.29.64-.71,1.12-1.24,1.46-.53.33-1.16.5-1.87.5s-1.31-.18-1.83-.53c-.52-.35-.86-.83-1.03-1.43h.18v5.31h-1.62Zm3.9-4.63c.7,0,1.27-.25,1.69-.74.42-.5.63-1.23.63-2.2s-.21-1.7-.63-2.19c-.42-.49-.98-.74-1.69-.74s-1.27.25-1.69.74c-.42.49-.63,1.22-.63,2.19s.21,1.7.63,2.2c.42.5.98.74,1.69.74Z"/>
          <path class="cls-3" d="m895.07,167.48v-1.92h1.9v1.92h-1.9Z"/>
        </g>
      </g>
    </g>
  </g>
</svg>