<?xml version="1.0" encoding="UTF-8"?>
<svg id="_Слой_2" data-name="Слой 2" xmlns="http://www.w3.org/2000/svg" viewBox="0 0 938.93 2376.9">
  <defs>
    <style>
      .cls-1 {
        font-family: Mulish-Bold, Mulish;
        font-weight: 700;
      }

      .cls-1, .cls-2 {
        fill: #27625f;
        font-size: 16px;
      }

      .cls-3 {
        fill: #fff;
      }

      .cls-3, .cls-4 {
        stroke: #a0b6b5;
        stroke-miterlimit: 10;
      }

      .cls-5 {
        letter-spacing: .01em;
      }

      .cls-2 {
        font-family: Mulish-SemiBold, Mulish;
        font-weight: 600;
      }

      .cls-6 {
        letter-spacing: .07em;
      }

      .cls-7 {
        letter-spacing: -.06em;
      }

      .cls-8 {
        letter-spacing: -.07em;
      }

      .cls-9 {
        letter-spacing: -.01em;
      }

      .cls-10 {
        letter-spacing: .07em;
      }

      .cls-11 {
        letter-spacing: 0em;
      }

      .cls-12 {
        letter-spacing: -.07em;
      }

      .cls-13 {
        letter-spacing: 0em;
      }

      .cls-14 {
        letter-spacing: -.02em;
      }

      .cls-15 {
        letter-spacing: 0em;
      }

      .cls-16 {
        letter-spacing: 0em;
      }

      .cls-17 {
        letter-spacing: -.07em;
      }

      .cls-18 {
        letter-spacing: -.02em;
      }

      .cls-19 {
        letter-spacing: 0em;
      }

      .cls-20 {
        letter-spacing: 0em;
      }

      .cls-21 {
        letter-spacing: -.01em;
      }

      .cls-22 {
        letter-spacing: -.02em;
      }

      .cls-4 {
        fill: none;
      }
    </style>
  </defs>
  <g id="_Слой_1-2" data-name="Слой 1">
    <g>
      <g>
        <g>
          <rect class="cls-3" x=".5" y="811.18" width="937.93" height="275.05" rx="8.65" ry="8.65"/>
          <line class="cls-4" x1=".5" y1="857.12" x2="938.43" y2="857.12"/>
          <line class="cls-4" x1="236.46" y1="903.06" x2="236.46" y2="994.94"/>
          <line class="cls-4" x1="236.46" y1="1040.88" x2="236.46" y2="1086.82"/>
          <line class="cls-4" x1="705.37" y1="1040.88" x2="705.37" y2="1086.82"/>
          <line class="cls-4" x1="705.37" y1="903.06" x2="705.37" y2="994.94"/>
          <line class="cls-4" x1="470.92" y1="857.12" x2="470.92" y2="1086.23"/>
          <line class="cls-4" x1=".5" y1="903.06" x2="938.43" y2="903.06"/>
          <line class="cls-4" x1=".5" y1="949" x2="938.43" y2="949"/>
          <line class="cls-4" x1=".5" y1="994.94" x2="938.43" y2="994.94"/>
          <line class="cls-4" x1=".5" y1="994.94" x2="938.43" y2="994.94"/>
          <line class="cls-4" x1=".5" y1="1040.88" x2="938.43" y2="1040.88"/>
        </g>
        <g>
          <text class="cls-1" transform="translate(128.51 884.51)"><tspan x="0" y="0">4+4, мелованная </tspan><tspan class="cls-22" x="139.58" y="0">б</tspan><tspan x="149.05" y="0">., 105 г</tspan><tspan class="cls-9" x="202.03" y="0">р</tspan><tspan class="cls-16" x="211.93" y="0">.</tspan></text>
          <text class="cls-1" transform="translate(71.86 930.95)"><tspan class="cls-11" x="0" y="0">К</tspan><tspan class="cls-21" x="10.91" y="0">о</tspan><tspan x="20.45" y="0">личество</tspan></text>
          <text class="cls-2" transform="translate(85.48 976.82)"><tspan x="0" y="0">1000 ш</tspan><tspan class="cls-17" x="55.97" y="0">т</tspan><tspan x="62.33" y="0">.</tspan></text>
          <text class="cls-1" transform="translate(331.2 930.95)"><tspan x="0" y="0">Цена</tspan></text>
          <text class="cls-2" transform="translate(277.37 976.82)"><tspan x="0" y="0">1560 </tspan><tspan class="cls-18" x="42.67" y="0">р</tspan><tspan x="52.35" y="0">. (1,56 </tspan><tspan class="cls-18" x="102.64" y="0">р</tspan><tspan class="cls-6" x="112.32" y="0">.</tspan><tspan class="cls-7" x="117.17" y="0">/</tspan><tspan class="cls-16" x="121.01" y="0">ш</tspan><tspan class="cls-8" x="134.3" y="0">т</tspan><tspan x="140.67" y="0">.)</tspan></text>
          <text class="cls-2" transform="translate(282.17 1068.63)"><tspan x="0" y="0">4200 </tspan><tspan class="cls-18" x="42.67" y="0">р</tspan><tspan x="52.35" y="0">. (4,2 </tspan><tspan class="cls-18" x="93.04" y="0">р</tspan><tspan class="cls-10" x="102.72" y="0">.</tspan><tspan class="cls-7" x="107.57" y="0">/</tspan><tspan x="111.41" y="0">ш</tspan><tspan class="cls-8" x="124.7" y="0">т</tspan><tspan x="131.07" y="0">.)</tspan></text>
          <text class="cls-2" transform="translate(85.48 1068.63)"><tspan x="0" y="0">1000 ш</tspan><tspan class="cls-17" x="55.97" y="0">т</tspan><tspan x="62.33" y="0">.</tspan></text>
          <text class="cls-1" transform="translate(142.79 1022.72)"><tspan x="0" y="0">4+0/4+4, </tspan><tspan class="cls-11" x="71.01" y="0">б</tspan><tspan x="80.59" y="0">умага 270 г</tspan><tspan class="cls-22" x="173.47" y="0">р</tspan><tspan x="183.37" y="0">.</tspan></text>
          <text class="cls-1" transform="translate(602.26 884.51)"><tspan x="0" y="0">4+4, мелованная </tspan><tspan class="cls-9" x="139.58" y="0">б</tspan><tspan class="cls-16" x="149.05" y="0">., 80 г</tspan><tspan class="cls-9" x="192.43" y="0">р</tspan><tspan x="202.33" y="0">.</tspan></text>
          <text class="cls-1" transform="translate(540.82 930.95)"><tspan class="cls-11" x="0" y="0">К</tspan><tspan class="cls-21" x="10.91" y="0">о</tspan><tspan x="20.45" y="0">личество</tspan></text>
          <text class="cls-2" transform="translate(554.44 976.82)"><tspan x="0" y="0">1000 ш</tspan><tspan class="cls-17" x="55.97" y="0">т</tspan><tspan x="62.33" y="0">.</tspan></text>
          <text class="cls-1" transform="translate(800.16 930.95)"><tspan x="0" y="0">Цена</tspan></text>
          <text class="cls-2" transform="translate(751.13 976.82)"><tspan x="0" y="0">1100 </tspan><tspan class="cls-18" x="42.67" y="0">р</tspan><tspan x="52.35" y="0">. (1,1 </tspan><tspan class="cls-18" x="93.04" y="0">р</tspan><tspan class="cls-10" x="102.72" y="0">.</tspan><tspan class="cls-7" x="107.57" y="0">/</tspan><tspan x="111.41" y="0">ш</tspan><tspan class="cls-8" x="124.7" y="0">т</tspan><tspan x="131.07" y="0">.)</tspan></text>
          <text class="cls-2" transform="translate(554.44 1068.63)"><tspan x="0" y="0">1000 ш</tspan><tspan class="cls-17" x="55.97" y="0">т</tspan><tspan x="62.33" y="0">.</tspan></text>
          <text class="cls-2" transform="translate(817.78 1068.63)"><tspan x="0" y="0">-</tspan></text>
          <text class="cls-1" transform="translate(583.35 1022.72)"><tspan x="0" y="0">4+0/4+4, </tspan><tspan class="cls-11" x="71.01" y="0">б</tspan><tspan class="cls-15" x="80.59" y="0">умага 270 г</tspan><tspan class="cls-9" x="173.47" y="0">р</tspan><tspan x="183.37" y="0">. (1 биг)</tspan></text>
          <text class="cls-1" transform="translate(16.51 839.43)"><tspan x="0" y="0">Лис</tspan><tspan class="cls-13" x="30.48" y="0">т</tspan><tspan x="38.14" y="0">овка А6 (105х148 мм)</tspan></text>
        </g>
      </g>
      <g>
        <g>
          <rect class="cls-3" x=".5" y="1138.34" width="937.93" height="275.05" rx="8.65" ry="8.65"/>
          <line class="cls-4" x1=".5" y1="1184.28" x2="938.43" y2="1184.28"/>
          <line class="cls-4" x1="236.46" y1="1230.22" x2="236.46" y2="1322.1"/>
          <line class="cls-4" x1="236.46" y1="1368.03" x2="236.46" y2="1413.97"/>
          <line class="cls-4" x1="705.37" y1="1368.03" x2="705.37" y2="1413.97"/>
          <line class="cls-4" x1="705.37" y1="1230.22" x2="705.37" y2="1322.1"/>
          <line class="cls-4" x1="470.92" y1="1184.28" x2="470.92" y2="1413.39"/>
          <line class="cls-4" x1=".5" y1="1230.22" x2="938.43" y2="1230.22"/>
          <line class="cls-4" x1=".5" y1="1276.16" x2="938.43" y2="1276.16"/>
          <line class="cls-4" x1=".5" y1="1322.1" x2="938.43" y2="1322.1"/>
          <line class="cls-4" x1=".5" y1="1322.1" x2="938.43" y2="1322.1"/>
          <line class="cls-4" x1=".5" y1="1368.03" x2="938.43" y2="1368.03"/>
        </g>
        <g>
          <text class="cls-1" transform="translate(128.51 1211.67)"><tspan x="0" y="0">4+4, мелованная </tspan><tspan class="cls-22" x="139.58" y="0">б</tspan><tspan x="149.05" y="0">., 105 г</tspan><tspan class="cls-9" x="202.03" y="0">р</tspan><tspan class="cls-16" x="211.93" y="0">.</tspan></text>
          <text class="cls-1" transform="translate(71.86 1258.1)"><tspan class="cls-11" x="0" y="0">К</tspan><tspan class="cls-21" x="10.91" y="0">о</tspan><tspan x="20.45" y="0">личество</tspan></text>
          <text class="cls-2" transform="translate(85.48 1303.97)"><tspan x="0" y="0">1000 ш</tspan><tspan class="cls-17" x="55.97" y="0">т</tspan><tspan x="62.33" y="0">.</tspan></text>
          <text class="cls-1" transform="translate(331.2 1258.1)"><tspan x="0" y="0">Цена</tspan></text>
          <text class="cls-2" transform="translate(277.37 1303.97)"><tspan x="0" y="0">2210 </tspan><tspan class="cls-18" x="42.67" y="0">р</tspan><tspan x="52.35" y="0">. (2,21 </tspan><tspan class="cls-18" x="102.64" y="0">р</tspan><tspan class="cls-6" x="112.32" y="0">.</tspan><tspan class="cls-7" x="117.17" y="0">/</tspan><tspan class="cls-16" x="121.01" y="0">ш</tspan><tspan class="cls-8" x="134.3" y="0">т</tspan><tspan x="140.67" y="0">.)</tspan></text>
          <text class="cls-2" transform="translate(282.17 1395.79)"><tspan x="0" y="0">6100 </tspan><tspan class="cls-18" x="42.67" y="0">р</tspan><tspan x="52.35" y="0">. (6,1 </tspan><tspan class="cls-18" x="93.04" y="0">р</tspan><tspan class="cls-10" x="102.72" y="0">.</tspan><tspan class="cls-7" x="107.57" y="0">/</tspan><tspan x="111.41" y="0">ш</tspan><tspan class="cls-8" x="124.7" y="0">т</tspan><tspan x="131.07" y="0">.)</tspan></text>
          <text class="cls-2" transform="translate(85.48 1395.79)"><tspan x="0" y="0">1000 ш</tspan><tspan class="cls-17" x="55.97" y="0">т</tspan><tspan x="62.33" y="0">.</tspan></text>
          <text class="cls-1" transform="translate(142.79 1349.88)"><tspan x="0" y="0">4+0/4+4, </tspan><tspan class="cls-11" x="71.01" y="0">б</tspan><tspan x="80.59" y="0">умага 270 г</tspan><tspan class="cls-22" x="173.47" y="0">р</tspan><tspan x="183.37" y="0">.</tspan></text>
          <text class="cls-1" transform="translate(602.26 1211.67)"><tspan x="0" y="0">4+4, мелованная </tspan><tspan class="cls-9" x="139.58" y="0">б</tspan><tspan class="cls-16" x="149.05" y="0">., 80 г</tspan><tspan class="cls-9" x="192.43" y="0">р</tspan><tspan x="202.33" y="0">.</tspan></text>
          <text class="cls-1" transform="translate(540.82 1258.1)"><tspan class="cls-11" x="0" y="0">К</tspan><tspan class="cls-21" x="10.91" y="0">о</tspan><tspan x="20.45" y="0">личество</tspan></text>
          <text class="cls-2" transform="translate(554.44 1303.97)"><tspan x="0" y="0">1000 ш</tspan><tspan class="cls-17" x="55.97" y="0">т</tspan><tspan x="62.33" y="0">.</tspan></text>
          <text class="cls-1" transform="translate(800.16 1258.1)"><tspan x="0" y="0">Цена</tspan></text>
          <text class="cls-2" transform="translate(746.33 1303.97)"><tspan x="0" y="0">1560 </tspan><tspan class="cls-18" x="42.67" y="0">р</tspan><tspan x="52.35" y="0">. (1,56 </tspan><tspan class="cls-18" x="102.64" y="0">р</tspan><tspan class="cls-6" x="112.32" y="0">.</tspan><tspan class="cls-7" x="117.17" y="0">/</tspan><tspan class="cls-16" x="121.01" y="0">ш</tspan><tspan class="cls-8" x="134.3" y="0">т</tspan><tspan x="140.67" y="0">.)</tspan></text>
          <text class="cls-2" transform="translate(554.44 1395.79)"><tspan x="0" y="0">1000 ш</tspan><tspan class="cls-17" x="55.97" y="0">т</tspan><tspan x="62.33" y="0">.</tspan></text>
          <text class="cls-2" transform="translate(817.78 1395.79)"><tspan x="0" y="0">-</tspan></text>
          <text class="cls-1" transform="translate(583.35 1349.88)"><tspan x="0" y="0">4+0/4+4, </tspan><tspan class="cls-11" x="71.01" y="0">б</tspan><tspan class="cls-15" x="80.59" y="0">умага 270 г</tspan><tspan class="cls-9" x="173.47" y="0">р</tspan><tspan x="183.37" y="0">. (1 биг)</tspan></text>
          <text class="cls-1" transform="translate(16.51 1166.58)"><tspan x="0" y="0">Лис</tspan><tspan class="cls-13" x="30.48" y="0">т</tspan><tspan x="38.14" y="0">овка </tspan><tspan class="cls-5" x="80.75" y="0">«</tspan><tspan class="cls-16" x="88.88" y="0">евр</tspan><tspan class="cls-20" x="117.28" y="0">о</tspan><tspan x="127.13" y="0">» (210х97 мм)</tspan></text>
        </g>
      </g>
      <g>
        <g>
          <rect class="cls-3" x=".5" y="1465.5" width="937.93" height="275.05" rx="8.65" ry="8.65"/>
          <line class="cls-4" x1=".5" y1="1511.44" x2="938.43" y2="1511.44"/>
          <line class="cls-4" x1="236.46" y1="1557.37" x2="236.46" y2="1649.25"/>
          <line class="cls-4" x1="236.46" y1="1695.19" x2="236.46" y2="1741.13"/>
          <line class="cls-4" x1="705.37" y1="1695.19" x2="705.37" y2="1741.13"/>
          <line class="cls-4" x1="705.37" y1="1557.37" x2="705.37" y2="1649.25"/>
          <line class="cls-4" x1="470.92" y1="1511.44" x2="470.92" y2="1740.55"/>
          <line class="cls-4" x1=".5" y1="1557.37" x2="938.43" y2="1557.37"/>
          <line class="cls-4" x1=".5" y1="1603.31" x2="938.43" y2="1603.31"/>
          <line class="cls-4" x1=".5" y1="1649.25" x2="938.43" y2="1649.25"/>
          <line class="cls-4" x1=".5" y1="1649.25" x2="938.43" y2="1649.25"/>
          <line class="cls-4" x1=".5" y1="1695.19" x2="938.43" y2="1695.19"/>
        </g>
        <g>
          <text class="cls-1" transform="translate(128.51 1538.82)"><tspan x="0" y="0">4+4, мелованная </tspan><tspan class="cls-22" x="139.58" y="0">б</tspan><tspan x="149.05" y="0">., 105 г</tspan><tspan class="cls-9" x="202.03" y="0">р</tspan><tspan class="cls-16" x="211.93" y="0">.</tspan></text>
          <text class="cls-1" transform="translate(71.86 1585.26)"><tspan class="cls-11" x="0" y="0">К</tspan><tspan class="cls-21" x="10.91" y="0">о</tspan><tspan x="20.45" y="0">личество</tspan></text>
          <text class="cls-2" transform="translate(85.48 1631.13)"><tspan x="0" y="0">1000 ш</tspan><tspan class="cls-17" x="55.97" y="0">т</tspan><tspan x="62.33" y="0">.</tspan></text>
          <text class="cls-1" transform="translate(331.2 1585.26)"><tspan x="0" y="0">Цена</tspan></text>
          <text class="cls-2" transform="translate(277.37 1631.13)"><tspan x="0" y="0">1820 </tspan><tspan class="cls-18" x="42.67" y="0">р</tspan><tspan x="52.35" y="0">. (0,91 </tspan><tspan class="cls-18" x="102.64" y="0">р</tspan><tspan class="cls-6" x="112.32" y="0">.</tspan><tspan class="cls-7" x="117.17" y="0">/</tspan><tspan class="cls-16" x="121.01" y="0">ш</tspan><tspan class="cls-8" x="134.3" y="0">т</tspan><tspan x="140.67" y="0">.)</tspan></text>
          <text class="cls-2" transform="translate(277.37 1722.95)"><tspan x="0" y="0">2240 </tspan><tspan class="cls-18" x="42.67" y="0">р</tspan><tspan x="52.35" y="0">. (2,24 </tspan><tspan class="cls-18" x="102.64" y="0">р</tspan><tspan class="cls-6" x="112.32" y="0">.</tspan><tspan class="cls-7" x="117.17" y="0">/</tspan><tspan class="cls-16" x="121.01" y="0">ш</tspan><tspan class="cls-8" x="134.3" y="0">т</tspan><tspan x="140.67" y="0">.)</tspan></text>
          <text class="cls-2" transform="translate(85.48 1722.95)"><tspan x="0" y="0">1000 ш</tspan><tspan class="cls-17" x="55.97" y="0">т</tspan><tspan x="62.33" y="0">.</tspan></text>
          <text class="cls-1" transform="translate(142.79 1677.03)"><tspan x="0" y="0">4+0/4+4, </tspan><tspan class="cls-11" x="71.01" y="0">б</tspan><tspan x="80.59" y="0">умага 270 г</tspan><tspan class="cls-22" x="173.47" y="0">р</tspan><tspan x="183.37" y="0">.</tspan></text>
          <text class="cls-1" transform="translate(602.26 1538.82)"><tspan x="0" y="0">4+4, мелованная </tspan><tspan class="cls-9" x="139.58" y="0">б</tspan><tspan class="cls-16" x="149.05" y="0">., 80 г</tspan><tspan class="cls-9" x="192.43" y="0">р</tspan><tspan x="202.33" y="0">.</tspan></text>
          <text class="cls-1" transform="translate(540.82 1585.26)"><tspan class="cls-11" x="0" y="0">К</tspan><tspan class="cls-21" x="10.91" y="0">о</tspan><tspan x="20.45" y="0">личество</tspan></text>
          <text class="cls-2" transform="translate(554.44 1631.13)"><tspan x="0" y="0">1000 ш</tspan><tspan class="cls-17" x="55.97" y="0">т</tspan><tspan x="62.33" y="0">.</tspan></text>
          <text class="cls-1" transform="translate(800.16 1585.26)"><tspan x="0" y="0">Цена</tspan></text>
          <text class="cls-2" transform="translate(746.33 1631.13)"><tspan x="0" y="0">1240 </tspan><tspan class="cls-18" x="42.67" y="0">р</tspan><tspan x="52.35" y="0">. (1,24 </tspan><tspan class="cls-18" x="102.64" y="0">р</tspan><tspan class="cls-6" x="112.32" y="0">.</tspan><tspan class="cls-7" x="117.17" y="0">/</tspan><tspan class="cls-16" x="121.01" y="0">ш</tspan><tspan class="cls-8" x="134.3" y="0">т</tspan><tspan x="140.67" y="0">.)</tspan></text>
          <text class="cls-2" transform="translate(554.44 1722.95)"><tspan x="0" y="0">1000 ш</tspan><tspan class="cls-17" x="55.97" y="0">т</tspan><tspan x="62.33" y="0">.</tspan></text>
          <text class="cls-2" transform="translate(817.78 1722.95)"><tspan x="0" y="0">-</tspan></text>
          <text class="cls-1" transform="translate(583.35 1677.03)"><tspan x="0" y="0">4+0/4+4, </tspan><tspan class="cls-11" x="71.01" y="0">б</tspan><tspan class="cls-15" x="80.59" y="0">умага 270 г</tspan><tspan class="cls-9" x="173.47" y="0">р</tspan><tspan x="183.37" y="0">. (1 биг)</tspan></text>
          <text class="cls-1" transform="translate(16.51 1493.74)"><tspan x="0" y="0">Лис</tspan><tspan class="cls-13" x="30.48" y="0">т</tspan><tspan x="38.14" y="0">овка А7 (74х105 мм)</tspan></text>
        </g>
      </g>
      <g>
        <g>
          <rect class="cls-3" x=".5" y="1792.65" width="937.93" height="275.05" rx="8.65" ry="8.65"/>
          <line class="cls-4" x1=".5" y1="1838.59" x2="938.43" y2="1838.59"/>
          <line class="cls-4" x1="236.46" y1="1884.53" x2="236.46" y2="1976.41"/>
          <line class="cls-4" x1="236.46" y1="2022.35" x2="236.46" y2="2068.29"/>
          <line class="cls-4" x1="705.37" y1="2022.35" x2="705.37" y2="2068.29"/>
          <line class="cls-4" x1="705.37" y1="1884.53" x2="705.37" y2="1976.41"/>
          <line class="cls-4" x1="470.92" y1="1838.59" x2="470.92" y2="2067.71"/>
          <line class="cls-4" x1=".5" y1="1884.53" x2="938.43" y2="1884.53"/>
          <line class="cls-4" x1=".5" y1="1930.47" x2="938.43" y2="1930.47"/>
          <line class="cls-4" x1=".5" y1="1976.41" x2="938.43" y2="1976.41"/>
          <line class="cls-4" x1=".5" y1="1976.41" x2="938.43" y2="1976.41"/>
          <line class="cls-4" x1=".5" y1="2022.35" x2="938.43" y2="2022.35"/>
        </g>
        <g>
          <text class="cls-1" transform="translate(128.51 1865.98)"><tspan x="0" y="0">4+4, мелованная </tspan><tspan class="cls-22" x="139.58" y="0">б</tspan><tspan x="149.05" y="0">., 105 г</tspan><tspan class="cls-9" x="202.03" y="0">р</tspan><tspan class="cls-16" x="211.93" y="0">.</tspan></text>
          <text class="cls-1" transform="translate(71.86 1912.42)"><tspan class="cls-11" x="0" y="0">К</tspan><tspan class="cls-21" x="10.91" y="0">о</tspan><tspan x="20.45" y="0">личество</tspan></text>
          <text class="cls-2" transform="translate(85.48 1958.29)"><tspan x="0" y="0">1000 ш</tspan><tspan class="cls-17" x="55.97" y="0">т</tspan><tspan x="62.33" y="0">.</tspan></text>
          <text class="cls-1" transform="translate(331.2 1912.42)"><tspan x="0" y="0">Цена</tspan></text>
          <text class="cls-2" transform="translate(277.37 1958.29)"><tspan x="0" y="0">1820 </tspan><tspan class="cls-18" x="42.67" y="0">р</tspan><tspan x="52.35" y="0">. (0,91 </tspan><tspan class="cls-18" x="102.64" y="0">р</tspan><tspan class="cls-6" x="112.32" y="0">.</tspan><tspan class="cls-7" x="117.17" y="0">/</tspan><tspan class="cls-16" x="121.01" y="0">ш</tspan><tspan class="cls-8" x="134.3" y="0">т</tspan><tspan x="140.67" y="0">.)</tspan></text>
          <text class="cls-2" transform="translate(277.37 2050.1)"><tspan x="0" y="0">2240 </tspan><tspan class="cls-18" x="42.67" y="0">р</tspan><tspan x="52.35" y="0">. (2,24 </tspan><tspan class="cls-18" x="102.64" y="0">р</tspan><tspan class="cls-6" x="112.32" y="0">.</tspan><tspan class="cls-7" x="117.17" y="0">/</tspan><tspan class="cls-16" x="121.01" y="0">ш</tspan><tspan class="cls-8" x="134.3" y="0">т</tspan><tspan x="140.67" y="0">.)</tspan></text>
          <text class="cls-2" transform="translate(85.48 2050.1)"><tspan x="0" y="0">1000 ш</tspan><tspan class="cls-17" x="55.97" y="0">т</tspan><tspan x="62.33" y="0">.</tspan></text>
          <text class="cls-1" transform="translate(142.79 2004.19)"><tspan x="0" y="0">4+0/4+4, </tspan><tspan class="cls-11" x="71.01" y="0">б</tspan><tspan x="80.59" y="0">умага 270 г</tspan><tspan class="cls-22" x="173.47" y="0">р</tspan><tspan x="183.37" y="0">.</tspan></text>
          <text class="cls-1" transform="translate(602.26 1865.98)"><tspan x="0" y="0">4+4, мелованная </tspan><tspan class="cls-9" x="139.58" y="0">б</tspan><tspan class="cls-16" x="149.05" y="0">., 80 г</tspan><tspan class="cls-9" x="192.43" y="0">р</tspan><tspan x="202.33" y="0">.</tspan></text>
          <text class="cls-1" transform="translate(540.82 1912.42)"><tspan class="cls-11" x="0" y="0">К</tspan><tspan class="cls-21" x="10.91" y="0">о</tspan><tspan x="20.45" y="0">личество</tspan></text>
          <text class="cls-2" transform="translate(554.44 1958.29)"><tspan x="0" y="0">1000 ш</tspan><tspan class="cls-17" x="55.97" y="0">т</tspan><tspan x="62.33" y="0">.</tspan></text>
          <text class="cls-1" transform="translate(800.16 1912.42)"><tspan x="0" y="0">Цена</tspan></text>
          <text class="cls-2" transform="translate(746.33 1958.29)"><tspan x="0" y="0">1240 </tspan><tspan class="cls-18" x="42.67" y="0">р</tspan><tspan x="52.35" y="0">. (1,24 </tspan><tspan class="cls-18" x="102.64" y="0">р</tspan><tspan class="cls-6" x="112.32" y="0">.</tspan><tspan class="cls-7" x="117.17" y="0">/</tspan><tspan class="cls-16" x="121.01" y="0">ш</tspan><tspan class="cls-8" x="134.3" y="0">т</tspan><tspan x="140.67" y="0">.)</tspan></text>
          <text class="cls-2" transform="translate(554.44 2050.1)"><tspan x="0" y="0">1000 ш</tspan><tspan class="cls-17" x="55.97" y="0">т</tspan><tspan x="62.33" y="0">.</tspan></text>
          <text class="cls-2" transform="translate(817.78 2050.1)"><tspan x="0" y="0">-</tspan></text>
          <text class="cls-1" transform="translate(583.35 2004.19)"><tspan x="0" y="0">4+0/4+4, </tspan><tspan class="cls-11" x="71.01" y="0">б</tspan><tspan class="cls-15" x="80.59" y="0">умага 270 г</tspan><tspan class="cls-9" x="173.47" y="0">р</tspan><tspan x="183.37" y="0">. (1 биг)</tspan></text>
          <text class="cls-1" transform="translate(16.51 1820.9)"><tspan x="0" y="0">Лис</tspan><tspan class="cls-13" x="30.48" y="0">т</tspan><tspan x="38.14" y="0">овка А7 (74х105 мм)</tspan></text>
        </g>
      </g>
      <g>
        <g>
          <rect class="cls-3" x=".5" y="2101.26" width="937.93" height="275.05" rx="8.65" ry="8.65"/>
          <line class="cls-4" x1=".5" y1="2147.2" x2="938.43" y2="2147.2"/>
          <line class="cls-4" x1="236.46" y1="2193.14" x2="236.46" y2="2285.02"/>
          <line class="cls-4" x1="236.46" y1="2330.96" x2="236.46" y2="2376.9"/>
          <line class="cls-4" x1="705.37" y1="2330.96" x2="705.37" y2="2376.9"/>
          <line class="cls-4" x1="705.37" y1="2193.14" x2="705.37" y2="2285.02"/>
          <line class="cls-4" x1="470.92" y1="2147.2" x2="470.92" y2="2376.31"/>
          <line class="cls-4" x1=".5" y1="2193.14" x2="938.43" y2="2193.14"/>
          <line class="cls-4" x1=".5" y1="2239.08" x2="938.43" y2="2239.08"/>
          <line class="cls-4" x1=".5" y1="2285.02" x2="938.43" y2="2285.02"/>
          <line class="cls-4" x1=".5" y1="2285.02" x2="938.43" y2="2285.02"/>
          <line class="cls-4" x1=".5" y1="2330.96" x2="938.43" y2="2330.96"/>
        </g>
        <g>
          <text class="cls-1" transform="translate(128.51 2174.59)"><tspan x="0" y="0">4+4, мелованная </tspan><tspan class="cls-22" x="139.58" y="0">б</tspan><tspan x="149.05" y="0">., 105 г</tspan><tspan class="cls-9" x="202.03" y="0">р</tspan><tspan class="cls-16" x="211.93" y="0">.</tspan></text>
          <text class="cls-1" transform="translate(71.86 2221.03)"><tspan class="cls-11" x="0" y="0">К</tspan><tspan class="cls-21" x="10.91" y="0">о</tspan><tspan x="20.45" y="0">личество</tspan></text>
          <text class="cls-2" transform="translate(85.48 2266.9)"><tspan x="0" y="0">1000 ш</tspan><tspan class="cls-17" x="55.97" y="0">т</tspan><tspan x="62.33" y="0">.</tspan></text>
          <text class="cls-1" transform="translate(331.2 2221.03)"><tspan x="0" y="0">Цена</tspan></text>
          <text class="cls-2" transform="translate(267.77 2266.9)"><tspan x="0" y="0">11050 </tspan><tspan class="cls-14" x="52.27" y="0">р</tspan><tspan x="61.95" y="0">. (11,05 </tspan><tspan class="cls-18" x="121.84" y="0">р</tspan><tspan class="cls-10" x="131.52" y="0">.</tspan><tspan class="cls-7" x="136.37" y="0">/</tspan><tspan x="140.21" y="0">ш</tspan><tspan class="cls-8" x="153.5" y="0">т</tspan><tspan x="159.87" y="0">.)</tspan></text>
          <text class="cls-2" transform="translate(348.82 2358.71)"><tspan x="0" y="0">-</tspan></text>
          <text class="cls-2" transform="translate(115.08 2358.71)"><tspan x="0" y="0">-</tspan></text>
          <text class="cls-1" transform="translate(142.79 2312.8)"><tspan x="0" y="0">4+0/4+4, </tspan><tspan class="cls-11" x="71.01" y="0">б</tspan><tspan x="80.59" y="0">умага 270 г</tspan><tspan class="cls-22" x="173.47" y="0">р</tspan><tspan x="183.37" y="0">.</tspan></text>
          <text class="cls-1" transform="translate(602.26 2174.59)"><tspan x="0" y="0">4+4, мелованная </tspan><tspan class="cls-9" x="139.58" y="0">б</tspan><tspan class="cls-16" x="149.05" y="0">., 80 г</tspan><tspan class="cls-9" x="192.43" y="0">р</tspan><tspan x="202.33" y="0">.</tspan></text>
          <text class="cls-1" transform="translate(540.82 2221.03)"><tspan class="cls-11" x="0" y="0">К</tspan><tspan class="cls-21" x="10.91" y="0">о</tspan><tspan x="20.45" y="0">личество</tspan></text>
          <text class="cls-2" transform="translate(554.44 2266.9)"><tspan x="0" y="0">1000 ш</tspan><tspan class="cls-17" x="55.97" y="0">т</tspan><tspan x="62.33" y="0">.</tspan></text>
          <text class="cls-1" transform="translate(800.16 2221.03)"><tspan x="0" y="0">Цена</tspan></text>
          <text class="cls-2" transform="translate(746.33 2266.9)"><tspan x="0" y="0">6760 </tspan><tspan class="cls-18" x="42.67" y="0">р</tspan><tspan x="52.35" y="0">. (6,76 </tspan><tspan class="cls-18" x="102.64" y="0">р</tspan><tspan class="cls-6" x="112.32" y="0">.</tspan><tspan class="cls-7" x="117.17" y="0">/</tspan><tspan class="cls-16" x="121.01" y="0">ш</tspan><tspan class="cls-8" x="134.3" y="0">т</tspan><tspan x="140.67" y="0">.)</tspan></text>
          <text class="cls-2" transform="translate(584.04 2358.71)"><tspan x="0" y="0">-</tspan></text>
          <text class="cls-2" transform="translate(817.78 2358.71)"><tspan x="0" y="0">-</tspan></text>
          <text class="cls-1" transform="translate(583.35 2312.8)"><tspan x="0" y="0">4+0/4+4, </tspan><tspan class="cls-11" x="71.01" y="0">б</tspan><tspan class="cls-15" x="80.59" y="0">умага 270 г</tspan><tspan class="cls-9" x="173.47" y="0">р</tspan><tspan x="183.37" y="0">. (1 биг)</tspan></text>
          <text class="cls-1" transform="translate(16.51 2129.51)"><tspan x="0" y="0">Лис</tspan><tspan class="cls-13" x="30.48" y="0">т</tspan><tspan x="38.14" y="0">овка А3</tspan></text>
        </g>
      </g>
      <g>
        <g>
          <rect class="cls-3" x=".5" y="407.17" width="937.93" height="367.4" rx="10" ry="10"/>
          <line class="cls-4" x1=".5" y1="453.11" x2="938.43" y2="453.11"/>
          <line class="cls-4" x1="236.46" y1="499.05" x2="236.46" y2="682.81"/>
          <line class="cls-4" x1="236.46" y1="728.75" x2="236.46" y2="774.69"/>
          <line class="cls-4" x1="705.37" y1="728.75" x2="705.37" y2="774.69"/>
          <line class="cls-4" x1="705.37" y1="499.05" x2="705.37" y2="682.81"/>
          <line class="cls-4" x1="470.92" y1="453.11" x2="470.92" y2="774.57"/>
          <line class="cls-4" x1=".5" y1="499.05" x2="938.43" y2="499.05"/>
          <line class="cls-4" x1=".5" y1="544.99" x2="938.43" y2="544.99"/>
          <line class="cls-4" x1=".5" y1="590.93" x2="938.43" y2="590.93"/>
          <line class="cls-4" x1=".5" y1="636.87" x2="938.43" y2="636.87"/>
          <line class="cls-4" x1=".5" y1="682.81" x2="938.43" y2="682.81"/>
          <line class="cls-4" x1=".5" y1="728.75" x2="938.43" y2="728.75"/>
        </g>
        <g>
          <text class="cls-1" transform="translate(128.51 480.5)"><tspan x="0" y="0">4+4, мелованная </tspan><tspan class="cls-22" x="139.58" y="0">б</tspan><tspan x="149.05" y="0">., 105 г</tspan><tspan class="cls-9" x="202.03" y="0">р</tspan><tspan class="cls-16" x="211.93" y="0">.</tspan></text>
          <text class="cls-1" transform="translate(71.86 526.94)"><tspan class="cls-11" x="0" y="0">К</tspan><tspan class="cls-21" x="10.91" y="0">о</tspan><tspan x="20.45" y="0">личество</tspan></text>
          <text class="cls-2" transform="translate(85.48 572.81)"><tspan x="0" y="0">1000 ш</tspan><tspan class="cls-17" x="55.97" y="0">т</tspan><tspan x="62.33" y="0">.</tspan></text>
          <text class="cls-2" transform="translate(85.48 618.24)"><tspan x="0" y="0">3000 ш</tspan><tspan class="cls-17" x="55.97" y="0">т</tspan><tspan x="62.33" y="0">.</tspan></text>
          <text class="cls-2" transform="translate(85.48 665.2)"><tspan x="0" y="0">5000 ш</tspan><tspan class="cls-17" x="55.97" y="0">т</tspan><tspan x="62.33" y="0">.</tspan></text>
          <text class="cls-1" transform="translate(331.2 526.94)"><tspan x="0" y="0">Цена</tspan></text>
          <text class="cls-2" transform="translate(277.37 572.81)"><tspan x="0" y="0">2990 </tspan><tspan class="cls-18" x="42.67" y="0">р</tspan><tspan x="52.35" y="0">. (2,99 </tspan><tspan class="cls-18" x="102.64" y="0">р</tspan><tspan class="cls-6" x="112.32" y="0">.</tspan><tspan class="cls-7" x="117.17" y="0">/</tspan><tspan class="cls-16" x="121.01" y="0">ш</tspan><tspan class="cls-8" x="134.3" y="0">т</tspan><tspan x="140.67" y="0">.)</tspan></text>
          <text class="cls-2" transform="translate(277.37 618.24)"><tspan x="0" y="0">8970 </tspan><tspan class="cls-18" x="42.67" y="0">р</tspan><tspan x="52.35" y="0">. (2,99 </tspan><tspan class="cls-18" x="102.64" y="0">р</tspan><tspan class="cls-6" x="112.32" y="0">.</tspan><tspan class="cls-7" x="117.17" y="0">/</tspan><tspan class="cls-16" x="121.01" y="0">ш</tspan><tspan class="cls-8" x="134.3" y="0">т</tspan><tspan x="140.67" y="0">.)</tspan></text>
          <text class="cls-2" transform="translate(272.57 665.2)"><tspan x="0" y="0">14950 </tspan><tspan class="cls-14" x="52.27" y="0">р</tspan><tspan x="61.95" y="0">. (2,99 </tspan><tspan class="cls-18" x="112.24" y="0">р</tspan><tspan class="cls-6" x="121.92" y="0">.</tspan><tspan class="cls-7" x="126.77" y="0">/</tspan><tspan x="130.61" y="0">ш</tspan><tspan class="cls-12" x="143.9" y="0">т</tspan><tspan class="cls-19" x="150.27" y="0">.)</tspan></text>
          <text class="cls-2" transform="translate(277.37 756.5)"><tspan x="0" y="0">8400 </tspan><tspan class="cls-18" x="42.67" y="0">р</tspan><tspan x="52.35" y="0">. (16,7 </tspan><tspan class="cls-18" x="102.64" y="0">р</tspan><tspan class="cls-6" x="112.32" y="0">.</tspan><tspan class="cls-7" x="117.17" y="0">/</tspan><tspan class="cls-16" x="121.01" y="0">ш</tspan><tspan class="cls-8" x="134.3" y="0">т</tspan><tspan x="140.67" y="0">.)</tspan></text>
          <text class="cls-2" transform="translate(85.48 756.5)"><tspan x="0" y="0">1000 ш</tspan><tspan class="cls-17" x="55.97" y="0">т</tspan><tspan x="62.33" y="0">.</tspan></text>
          <text class="cls-1" transform="translate(142.79 710.59)"><tspan x="0" y="0">4+0/4+4, </tspan><tspan class="cls-11" x="71.01" y="0">б</tspan><tspan x="80.59" y="0">умага 270 г</tspan><tspan class="cls-22" x="173.47" y="0">р</tspan><tspan x="183.37" y="0">.</tspan></text>
          <text class="cls-1" transform="translate(602.26 480.5)"><tspan x="0" y="0">4+4, мелованная </tspan><tspan class="cls-9" x="139.58" y="0">б</tspan><tspan class="cls-16" x="149.05" y="0">., 80 г</tspan><tspan class="cls-9" x="192.43" y="0">р</tspan><tspan x="202.33" y="0">.</tspan></text>
          <text class="cls-1" transform="translate(540.82 526.94)"><tspan class="cls-11" x="0" y="0">К</tspan><tspan class="cls-21" x="10.91" y="0">о</tspan><tspan x="20.45" y="0">личество</tspan></text>
          <text class="cls-2" transform="translate(554.44 572.81)"><tspan x="0" y="0">1000 ш</tspan><tspan class="cls-17" x="55.97" y="0">т</tspan><tspan x="62.33" y="0">.</tspan></text>
          <text class="cls-2" transform="translate(554.44 618.24)"><tspan x="0" y="0">3000 ш</tspan><tspan class="cls-17" x="55.97" y="0">т</tspan><tspan x="62.33" y="0">.</tspan></text>
          <text class="cls-2" transform="translate(554.44 665.2)"><tspan x="0" y="0">5000 ш</tspan><tspan class="cls-17" x="55.97" y="0">т</tspan><tspan x="62.33" y="0">.</tspan></text>
          <text class="cls-1" transform="translate(800.16 526.94)"><tspan x="0" y="0">Цена</tspan></text>
          <text class="cls-2" transform="translate(746.33 572.81)"><tspan x="0" y="0">1950 </tspan><tspan class="cls-18" x="42.67" y="0">р</tspan><tspan x="52.35" y="0">. (1,95 </tspan><tspan class="cls-18" x="102.64" y="0">р</tspan><tspan class="cls-6" x="112.32" y="0">.</tspan><tspan class="cls-7" x="117.17" y="0">/</tspan><tspan class="cls-16" x="121.01" y="0">ш</tspan><tspan class="cls-8" x="134.3" y="0">т</tspan><tspan x="140.67" y="0">.)</tspan></text>
          <text class="cls-2" transform="translate(746.33 618.24)"><tspan x="0" y="0">5850 </tspan><tspan class="cls-18" x="42.67" y="0">р</tspan><tspan x="52.35" y="0">. (1,95 </tspan><tspan class="cls-18" x="102.64" y="0">р</tspan><tspan class="cls-6" x="112.32" y="0">.</tspan><tspan class="cls-7" x="117.17" y="0">/</tspan><tspan class="cls-16" x="121.01" y="0">ш</tspan><tspan class="cls-8" x="134.3" y="0">т</tspan><tspan x="140.67" y="0">.)</tspan></text>
          <text class="cls-2" transform="translate(746.33 665.2)"><tspan x="0" y="0">9750 </tspan><tspan class="cls-18" x="42.67" y="0">р</tspan><tspan x="52.35" y="0">. (1,95 </tspan><tspan class="cls-18" x="102.64" y="0">р</tspan><tspan class="cls-6" x="112.32" y="0">.</tspan><tspan class="cls-7" x="117.17" y="0">/</tspan><tspan class="cls-16" x="121.01" y="0">ш</tspan><tspan class="cls-8" x="134.3" y="0">т</tspan><tspan x="140.67" y="0">.)</tspan></text>
          <text class="cls-2" transform="translate(554.44 756.5)"><tspan x="0" y="0">1000 ш</tspan><tspan class="cls-17" x="55.97" y="0">т</tspan><tspan x="62.33" y="0">.</tspan></text>
          <text class="cls-1" transform="translate(583.35 710.59)"><tspan x="0" y="0">4+0/4+4, </tspan><tspan class="cls-11" x="71.01" y="0">б</tspan><tspan class="cls-15" x="80.59" y="0">умага 270 г</tspan><tspan class="cls-9" x="173.47" y="0">р</tspan><tspan x="183.37" y="0">. (1 биг)</tspan></text>
          <text class="cls-1" transform="translate(16.51 435.42)"><tspan x="0" y="0">Лис</tspan><tspan class="cls-13" x="30.48" y="0">т</tspan><tspan x="38.14" y="0">овка А5 (148х210 мм)</tspan></text>
        </g>
      </g>
      <g>
        <g>
          <rect class="cls-3" x=".5" y=".5" width="937.93" height="367.4" rx="10" ry="10"/>
          <line class="cls-4" x1=".5" y1="46.44" x2="938.43" y2="46.44"/>
          <line class="cls-4" x1="236.46" y1="92.38" x2="236.46" y2="276.13"/>
          <line class="cls-4" x1="236.46" y1="322.07" x2="236.46" y2="368.01"/>
          <line class="cls-4" x1="705.37" y1="322.07" x2="705.37" y2="368.01"/>
          <line class="cls-4" x1="705.37" y1="92.38" x2="705.37" y2="276.13"/>
          <line class="cls-4" x1="470.92" y1="46.44" x2="470.92" y2="367.9"/>
          <line class="cls-4" x1=".5" y1="92.38" x2="938.43" y2="92.38"/>
          <line class="cls-4" x1=".5" y1="138.32" x2="938.43" y2="138.32"/>
          <line class="cls-4" x1=".5" y1="184.26" x2="938.43" y2="184.26"/>
          <line class="cls-4" x1=".5" y1="230.2" x2="938.43" y2="230.2"/>
          <line class="cls-4" x1=".5" y1="276.13" x2="938.43" y2="276.13"/>
          <line class="cls-4" x1=".5" y1="322.07" x2="938.43" y2="322.07"/>
        </g>
        <g>
          <text class="cls-1" transform="translate(128.51 73.83)"><tspan x="0" y="0">4+4, мелованная </tspan><tspan class="cls-22" x="139.58" y="0">б</tspan><tspan x="149.05" y="0">., 105 г</tspan><tspan class="cls-9" x="202.03" y="0">р</tspan><tspan class="cls-16" x="211.93" y="0">.</tspan></text>
          <text class="cls-1" transform="translate(71.86 120.26)"><tspan class="cls-11" x="0" y="0">К</tspan><tspan class="cls-21" x="10.91" y="0">о</tspan><tspan x="20.45" y="0">личество</tspan></text>
          <text class="cls-2" transform="translate(85.48 166.13)"><tspan x="0" y="0">1000 ш</tspan><tspan class="cls-17" x="55.97" y="0">т</tspan><tspan x="62.33" y="0">.</tspan></text>
          <text class="cls-2" transform="translate(85.48 211.57)"><tspan x="0" y="0">3000 ш</tspan><tspan class="cls-17" x="55.97" y="0">т</tspan><tspan x="62.33" y="0">.</tspan></text>
          <text class="cls-2" transform="translate(85.48 258.52)"><tspan x="0" y="0">5000 ш</tspan><tspan class="cls-17" x="55.97" y="0">т</tspan><tspan x="62.33" y="0">.</tspan></text>
          <text class="cls-1" transform="translate(331.2 120.26)"><tspan x="0" y="0">Цена</tspan></text>
          <text class="cls-2" transform="translate(277.37 166.13)"><tspan x="0" y="0">5590 </tspan><tspan class="cls-18" x="42.67" y="0">р</tspan><tspan x="52.35" y="0">. (5,59 </tspan><tspan class="cls-18" x="102.64" y="0">р</tspan><tspan class="cls-6" x="112.32" y="0">.</tspan><tspan class="cls-7" x="117.17" y="0">/</tspan><tspan class="cls-16" x="121.01" y="0">ш</tspan><tspan class="cls-8" x="134.3" y="0">т</tspan><tspan x="140.67" y="0">.)</tspan></text>
          <text class="cls-2" transform="translate(272.57 211.57)"><tspan x="0" y="0">16770 </tspan><tspan class="cls-14" x="52.27" y="0">р</tspan><tspan x="61.95" y="0">. (5,59 </tspan><tspan class="cls-18" x="112.24" y="0">р</tspan><tspan class="cls-6" x="121.92" y="0">.</tspan><tspan class="cls-7" x="126.77" y="0">/</tspan><tspan x="130.61" y="0">ш</tspan><tspan class="cls-12" x="143.9" y="0">т</tspan><tspan class="cls-19" x="150.27" y="0">.)</tspan></text>
          <text class="cls-2" transform="translate(272.57 258.52)"><tspan x="0" y="0">27950 </tspan><tspan class="cls-14" x="52.27" y="0">р</tspan><tspan x="61.95" y="0">. (5,59 </tspan><tspan class="cls-18" x="112.24" y="0">р</tspan><tspan class="cls-6" x="121.92" y="0">.</tspan><tspan class="cls-7" x="126.77" y="0">/</tspan><tspan x="130.61" y="0">ш</tspan><tspan class="cls-12" x="143.9" y="0">т</tspan><tspan class="cls-19" x="150.27" y="0">.)</tspan></text>
          <text class="cls-2" transform="translate(272.57 349.83)"><tspan x="0" y="0">16700 </tspan><tspan class="cls-14" x="52.27" y="0">р</tspan><tspan x="61.95" y="0">. (16,7 </tspan><tspan class="cls-18" x="112.24" y="0">р</tspan><tspan class="cls-6" x="121.92" y="0">.</tspan><tspan class="cls-7" x="126.77" y="0">/</tspan><tspan x="130.61" y="0">ш</tspan><tspan class="cls-12" x="143.9" y="0">т</tspan><tspan class="cls-19" x="150.27" y="0">.)</tspan></text>
          <text class="cls-2" transform="translate(85.48 349.83)"><tspan x="0" y="0">1000 ш</tspan><tspan class="cls-17" x="55.97" y="0">т</tspan><tspan x="62.33" y="0">.</tspan></text>
          <text class="cls-1" transform="translate(142.79 303.91)"><tspan x="0" y="0">4+0/4+4, </tspan><tspan class="cls-11" x="71.01" y="0">б</tspan><tspan x="80.59" y="0">умага 270 г</tspan><tspan class="cls-22" x="173.47" y="0">р</tspan><tspan x="183.37" y="0">.</tspan></text>
          <text class="cls-1" transform="translate(602.26 73.83)"><tspan x="0" y="0">4+4, мелованная </tspan><tspan class="cls-9" x="139.58" y="0">б</tspan><tspan class="cls-16" x="149.05" y="0">., 80 г</tspan><tspan class="cls-9" x="192.43" y="0">р</tspan><tspan x="202.33" y="0">.</tspan></text>
          <text class="cls-1" transform="translate(540.82 120.26)"><tspan class="cls-11" x="0" y="0">К</tspan><tspan class="cls-21" x="10.91" y="0">о</tspan><tspan x="20.45" y="0">личество</tspan></text>
          <text class="cls-2" transform="translate(554.44 166.13)"><tspan x="0" y="0">1000 ш</tspan><tspan class="cls-17" x="55.97" y="0">т</tspan><tspan x="62.33" y="0">.</tspan></text>
          <text class="cls-2" transform="translate(554.44 211.57)"><tspan x="0" y="0">3000 ш</tspan><tspan class="cls-17" x="55.97" y="0">т</tspan><tspan x="62.33" y="0">.</tspan></text>
          <text class="cls-2" transform="translate(554.44 258.52)"><tspan x="0" y="0">5000 ш</tspan><tspan class="cls-17" x="55.97" y="0">т</tspan><tspan x="62.33" y="0">.</tspan></text>
          <text class="cls-1" transform="translate(800.16 120.26)"><tspan x="0" y="0">Цена</tspan></text>
          <text class="cls-2" transform="translate(746.33 166.13)"><tspan x="0" y="0">3380 </tspan><tspan class="cls-18" x="42.67" y="0">р</tspan><tspan x="52.35" y="0">. (3,38 </tspan><tspan class="cls-18" x="102.64" y="0">р</tspan><tspan class="cls-6" x="112.32" y="0">.</tspan><tspan class="cls-7" x="117.17" y="0">/</tspan><tspan class="cls-16" x="121.01" y="0">ш</tspan><tspan class="cls-8" x="134.3" y="0">т</tspan><tspan x="140.67" y="0">.)</tspan></text>
          <text class="cls-2" transform="translate(741.53 211.57)"><tspan x="0" y="0">10140 </tspan><tspan class="cls-14" x="52.27" y="0">р</tspan><tspan x="61.95" y="0">. (3,38 </tspan><tspan class="cls-18" x="112.24" y="0">р</tspan><tspan class="cls-6" x="121.92" y="0">.</tspan><tspan class="cls-7" x="126.77" y="0">/</tspan><tspan x="130.61" y="0">ш</tspan><tspan class="cls-12" x="143.9" y="0">т</tspan><tspan class="cls-19" x="150.27" y="0">.)</tspan></text>
          <text class="cls-2" transform="translate(741.53 258.52)"><tspan x="0" y="0">16900 </tspan><tspan class="cls-14" x="52.27" y="0">р</tspan><tspan x="61.95" y="0">. (3,38 </tspan><tspan class="cls-18" x="112.24" y="0">р</tspan><tspan class="cls-6" x="121.92" y="0">.</tspan><tspan class="cls-7" x="126.77" y="0">/</tspan><tspan x="130.61" y="0">ш</tspan><tspan class="cls-12" x="143.9" y="0">т</tspan><tspan class="cls-19" x="150.27" y="0">.)</tspan></text>
          <text class="cls-2" transform="translate(554.44 349.83)"><tspan x="0" y="0">1000 ш</tspan><tspan class="cls-17" x="55.97" y="0">т</tspan><tspan x="62.33" y="0">.</tspan></text>
          <text class="cls-1" transform="translate(583.35 303.91)"><tspan x="0" y="0">4+0/4+4, </tspan><tspan class="cls-11" x="71.01" y="0">б</tspan><tspan class="cls-15" x="80.59" y="0">умага 270 г</tspan><tspan class="cls-9" x="173.47" y="0">р</tspan><tspan x="183.37" y="0">. (1 биг)</tspan></text>
          <text class="cls-1" transform="translate(16.51 28.74)"><tspan x="0" y="0">Лис</tspan><tspan class="cls-13" x="30.48" y="0">т</tspan><tspan x="38.14" y="0">овка А4 (210х297 мм)</tspan></text>
        </g>
      </g>
    </g>
  </g>
</svg>