<?xml version="1.0" encoding="UTF-8"?>
<svg id="_Слой_2" data-name="Слой 2" xmlns="http://www.w3.org/2000/svg" viewBox="0 0 938.57 368.51">
  <defs>
    <style>
      .cls-1 {
        font-family: Mulish-Bold, Mulish;
        font-weight: 700;
      }

      .cls-1, .cls-2 {
        fill: #27625f;
        font-size: 16px;
      }

      .cls-3 {
        fill: #fff;
      }

      .cls-3, .cls-4 {
        stroke: #a0b6b5;
        stroke-miterlimit: 10;
      }

      .cls-2 {
        font-family: Mulish-SemiBold, Mulish;
        font-weight: 600;
      }

      .cls-5 {
        letter-spacing: -.07em;
      }

      .cls-6 {
        letter-spacing: -.07em;
      }

      .cls-7 {
        letter-spacing: -.02em;
      }

      .cls-8 {
        letter-spacing: 0em;
      }

      .cls-9 {
        letter-spacing: 0em;
      }

      .cls-10 {
        letter-spacing: -.07em;
      }

      .cls-11 {
        letter-spacing: -.02em;
      }

      .cls-12 {
        letter-spacing: 0em;
      }

      .cls-13 {
        letter-spacing: -.02em;
      }

      .cls-14 {
        letter-spacing: -.01em;
      }

      .cls-4 {
        fill: none;
      }
    </style>
  </defs>
  <g id="_Слой_1-2" data-name="Слой 1">
    <g>
      <g>
        <rect class="cls-3" x=".5" y=".5" width="937.57" height="367.51" rx="10" ry="10"/>
        <line class="cls-4" x1=".5" y1="46.44" x2="938.07" y2="46.44"/>
        <line class="cls-4" x1="131.2" y1="46.44" x2="131.2" y2="368.01"/>
        <line class="cls-4" x1="246.46" y1="46.44" x2="246.46" y2="368.01"/>
        <line class="cls-4" x1="361.72" y1="46.44" x2="361.72" y2="368.01"/>
        <line class="cls-4" x1="476.98" y1="46.44" x2="476.98" y2="368.01"/>
        <line class="cls-4" x1="592.24" y1="46.44" x2="592.24" y2="368.01"/>
        <line class="cls-4" x1="707.5" y1="46.44" x2="707.5" y2="368.01"/>
        <line class="cls-4" x1="822.76" y1="46.44" x2="822.76" y2="368.01"/>
        <line class="cls-4" x1=".5" y1="92.38" x2="938.07" y2="92.38"/>
        <line class="cls-4" x1=".5" y1="138.32" x2="938.07" y2="138.32"/>
        <line class="cls-4" x1=".5" y1="184.26" x2="938.07" y2="184.26"/>
        <line class="cls-4" x1=".5" y1="230.2" x2="938.07" y2="230.2"/>
        <line class="cls-4" x1=".5" y1="276.13" x2="938.07" y2="276.13"/>
        <line class="cls-4" x1=".5" y1="322.07" x2="938.07" y2="322.07"/>
      </g>
      <g>
        <text class="cls-1" transform="translate(36.84 74.63)"><tspan class="cls-14" x="0" y="0">Р</tspan><tspan class="cls-8" x="10.45" y="0">азмер</tspan></text>
        <text class="cls-1" transform="translate(29.47 119.67)"><tspan x="0" y="0">55х55 мм</tspan></text>
        <text class="cls-1" transform="translate(29.47 164.48)"><tspan x="0" y="0">50х80 мм</tspan></text>
        <text class="cls-1" transform="translate(24.67 211)"><tspan x="0" y="0">70х100 мм</tspan></text>
        <text class="cls-1" transform="translate(19.87 257.74)"><tspan x="0" y="0">100х150 мм</tspan></text>
        <text class="cls-1" transform="translate(19.87 304.18)"><tspan x="0" y="0">150х200 мм</tspan></text>
        <text class="cls-1" transform="translate(19.87 349.61)"><tspan x="0" y="0">200х300 мм</tspan></text>
        <text class="cls-1" transform="translate(156.44 74.63)"><tspan x="0" y="0">1-49 ш</tspan><tspan class="cls-6" x="53.76" y="0">т</tspan><tspan x="60.38" y="0">.</tspan></text>
        <text class="cls-2" transform="translate(170.14 119.67)"><tspan x="0" y="0">34 </tspan><tspan class="cls-7" x="23.47" y="0">р</tspan><tspan x="33.15" y="0">.</tspan></text>
        <text class="cls-2" transform="translate(170.14 164.48)"><tspan x="0" y="0">43 </tspan><tspan class="cls-7" x="23.47" y="0">р</tspan><tspan x="33.15" y="0">.</tspan></text>
        <text class="cls-2" transform="translate(170.14 211)"><tspan x="0" y="0">51 </tspan><tspan class="cls-7" x="23.47" y="0">р</tspan><tspan x="33.15" y="0">.</tspan></text>
        <text class="cls-2" transform="translate(170.14 257.74)"><tspan x="0" y="0">85 </tspan><tspan class="cls-7" x="23.47" y="0">р</tspan><tspan x="33.15" y="0">.</tspan></text>
        <text class="cls-2" transform="translate(165.34 304.18)"><tspan x="0" y="0">169 </tspan><tspan class="cls-13" x="33.07" y="0">р</tspan><tspan class="cls-9" x="42.75" y="0">.</tspan></text>
        <text class="cls-2" transform="translate(165.34 349.61)"><tspan x="0" y="0">338 </tspan><tspan class="cls-13" x="33.07" y="0">р</tspan><tspan class="cls-9" x="42.75" y="0">.</tspan></text>
        <text class="cls-1" transform="translate(267.99 74.63)"><tspan x="0" y="0">50-90 ш</tspan><tspan class="cls-5" x="63.36" y="0">т</tspan><tspan class="cls-9" x="69.98" y="0">.</tspan></text>
        <text class="cls-2" transform="translate(286.49 119.67)"><tspan x="0" y="0">20 </tspan><tspan class="cls-7" x="23.47" y="0">р</tspan><tspan x="33.15" y="0">.</tspan></text>
        <text class="cls-2" transform="translate(286.49 164.48)"><tspan x="0" y="0">27 </tspan><tspan class="cls-7" x="23.47" y="0">р</tspan><tspan x="33.15" y="0">.</tspan></text>
        <text class="cls-2" transform="translate(286.49 211)"><tspan x="0" y="0">38 </tspan><tspan class="cls-7" x="23.47" y="0">р</tspan><tspan x="33.15" y="0">.</tspan></text>
        <text class="cls-2" transform="translate(286.49 257.74)"><tspan x="0" y="0">66 </tspan><tspan class="cls-7" x="23.47" y="0">р</tspan><tspan x="33.15" y="0">.</tspan></text>
        <text class="cls-2" transform="translate(275 304.18)"><tspan x="0" y="0">127,5 </tspan><tspan class="cls-11" x="46.46" y="0">р</tspan><tspan x="56.14" y="0">.</tspan></text>
        <text class="cls-2" transform="translate(275 349.61)"><tspan x="0" y="0">253,5 </tspan><tspan class="cls-11" x="46.46" y="0">р</tspan><tspan x="56.14" y="0">.</tspan></text>
        <text class="cls-1" transform="translate(372.08 74.63)"><tspan x="0" y="0">100-199 ш</tspan><tspan class="cls-6" x="82.56" y="0">т</tspan><tspan x="89.18" y="0">.</tspan></text>
        <text class="cls-2" transform="translate(393.49 119.67)"><tspan x="0" y="0">15,6 </tspan><tspan class="cls-7" x="36.86" y="0">р</tspan><tspan class="cls-12" x="46.54" y="0">.</tspan></text>
        <text class="cls-2" transform="translate(393.49 164.48)"><tspan x="0" y="0">21,5 </tspan><tspan class="cls-7" x="36.86" y="0">р</tspan><tspan class="cls-12" x="46.54" y="0">.</tspan></text>
        <text class="cls-2" transform="translate(400.19 211)"><tspan x="0" y="0">30 </tspan><tspan class="cls-7" x="23.47" y="0">р</tspan><tspan x="33.15" y="0">.</tspan></text>
        <text class="cls-2" transform="translate(400.19 257.74)"><tspan x="0" y="0">60 </tspan><tspan class="cls-7" x="23.47" y="0">р</tspan><tspan x="33.15" y="0">.</tspan></text>
        <text class="cls-2" transform="translate(388.69 304.18)"><tspan x="0" y="0">110,5 </tspan><tspan class="cls-11" x="46.46" y="0">р</tspan><tspan x="56.14" y="0">.</tspan></text>
        <text class="cls-2" transform="translate(395.39 349.61)"><tspan x="0" y="0">212 </tspan><tspan class="cls-13" x="33.07" y="0">р</tspan><tspan class="cls-9" x="42.75" y="0">.</tspan></text>
        <text class="cls-1" transform="translate(488.43 74.63)"><tspan x="0" y="0">200-499 ш</tspan><tspan class="cls-6" x="82.56" y="0">т</tspan><tspan x="89.18" y="0">.</tspan></text>
        <text class="cls-2" transform="translate(509.84 119.67)"><tspan x="0" y="0">14,5 </tspan><tspan class="cls-7" x="36.86" y="0">р</tspan><tspan class="cls-12" x="46.54" y="0">.</tspan></text>
        <text class="cls-2" transform="translate(509.84 164.48)"><tspan x="0" y="0">18,5 </tspan><tspan class="cls-7" x="36.86" y="0">р</tspan><tspan class="cls-12" x="46.54" y="0">.</tspan></text>
        <text class="cls-2" transform="translate(509.84 211)"><tspan x="0" y="0">27,5 </tspan><tspan class="cls-7" x="36.86" y="0">р</tspan><tspan class="cls-12" x="46.54" y="0">.</tspan></text>
        <text class="cls-2" transform="translate(516.54 257.74)"><tspan x="0" y="0">49 </tspan><tspan class="cls-7" x="23.47" y="0">р</tspan><tspan x="33.15" y="0">.</tspan></text>
        <text class="cls-2" transform="translate(505.04 304.18)"><tspan x="0" y="0">101,5 </tspan><tspan class="cls-11" x="46.46" y="0">р</tspan><tspan x="56.14" y="0">.</tspan></text>
        <text class="cls-2" transform="translate(511.74 349.61)"><tspan x="0" y="0">169 </tspan><tspan class="cls-13" x="33.07" y="0">р</tspan><tspan class="cls-9" x="42.75" y="0">.</tspan></text>
        <text class="cls-1" transform="translate(603.78 74.63)"><tspan x="0" y="0">500-999 ш</tspan><tspan class="cls-6" x="82.56" y="0">т</tspan><tspan x="89.18" y="0">.</tspan></text>
        <text class="cls-2" transform="translate(631.88 119.67)"><tspan x="0" y="0">11 </tspan><tspan class="cls-7" x="23.47" y="0">р</tspan><tspan x="33.15" y="0">.</tspan></text>
        <text class="cls-2" transform="translate(625.19 164.48)"><tspan x="0" y="0">15,5 </tspan><tspan class="cls-7" x="36.86" y="0">р</tspan><tspan class="cls-12" x="46.54" y="0">.</tspan></text>
        <text class="cls-2" transform="translate(631.88 211)"><tspan x="0" y="0">22 </tspan><tspan class="cls-7" x="23.47" y="0">р</tspan><tspan x="33.15" y="0">.</tspan></text>
        <text class="cls-2" transform="translate(631.88 257.74)"><tspan x="0" y="0">36 </tspan><tspan class="cls-7" x="23.47" y="0">р</tspan><tspan x="33.15" y="0">.</tspan></text>
        <text class="cls-2" transform="translate(631.88 304.18)"><tspan x="0" y="0">93 </tspan><tspan class="cls-7" x="23.47" y="0">р</tspan><tspan x="33.15" y="0">.</tspan></text>
        <text class="cls-2" transform="translate(627.08 349.61)"><tspan x="0" y="0">161 </tspan><tspan class="cls-13" x="33.07" y="0">р</tspan><tspan class="cls-9" x="42.75" y="0">.</tspan></text>
        <text class="cls-1" transform="translate(709.48 74.63)"><tspan x="0" y="0">1000-2499 ш</tspan><tspan class="cls-10" x="101.76" y="0">т</tspan><tspan class="cls-12" x="108.38" y="0">.</tspan></text>
        <text class="cls-2" transform="translate(745.29 119.67)"><tspan x="0" y="0">7,8 </tspan><tspan class="cls-11" x="27.26" y="0">р</tspan><tspan x="36.94" y="0">.</tspan></text>
        <text class="cls-2" transform="translate(740.49 164.48)"><tspan x="0" y="0">12,5 </tspan><tspan class="cls-7" x="36.86" y="0">р</tspan><tspan class="cls-12" x="46.54" y="0">.</tspan></text>
        <text class="cls-2" transform="translate(740.49 211)"><tspan x="0" y="0">16,5 </tspan><tspan class="cls-7" x="36.86" y="0">р</tspan><tspan class="cls-12" x="46.54" y="0">.</tspan></text>
        <text class="cls-2" transform="translate(747.19 257.74)"><tspan x="0" y="0">30 </tspan><tspan class="cls-7" x="23.47" y="0">р</tspan><tspan x="33.15" y="0">.</tspan></text>
        <text class="cls-2" transform="translate(747.19 304.18)"><tspan x="0" y="0">85 </tspan><tspan class="cls-7" x="23.47" y="0">р</tspan><tspan x="33.15" y="0">.</tspan></text>
        <text class="cls-2" transform="translate(742.39 349.61)"><tspan x="0" y="0">152 </tspan><tspan class="cls-13" x="33.07" y="0">р</tspan><tspan class="cls-9" x="42.75" y="0">.</tspan></text>
        <text class="cls-1" transform="translate(842.69 74.63)"><tspan x="0" y="0">&lt;2500 ш</tspan><tspan class="cls-6" x="65.95" y="0">т</tspan><tspan x="72.58" y="0">.</tspan></text>
        <text class="cls-2" transform="translate(860.6 119.67)"><tspan x="0" y="0">6,8 </tspan><tspan class="cls-11" x="27.26" y="0">р</tspan><tspan x="36.94" y="0">.</tspan></text>
        <text class="cls-2" transform="translate(862.49 164.48)"><tspan x="0" y="0">10 </tspan><tspan class="cls-7" x="23.47" y="0">р</tspan><tspan x="33.15" y="0">.</tspan></text>
        <text class="cls-2" transform="translate(855.8 211)"><tspan x="0" y="0">13,7 </tspan><tspan class="cls-7" x="36.86" y="0">р</tspan><tspan class="cls-12" x="46.54" y="0">.</tspan></text>
        <text class="cls-2" transform="translate(855.8 257.74)"><tspan x="0" y="0">27,5 </tspan><tspan class="cls-7" x="36.86" y="0">р</tspan><tspan class="cls-12" x="46.54" y="0">.</tspan></text>
        <text class="cls-2" transform="translate(862.49 304.18)"><tspan x="0" y="0">76 </tspan><tspan class="cls-7" x="23.47" y="0">р</tspan><tspan x="33.15" y="0">.</tspan></text>
        <text class="cls-2" transform="translate(851 349.61)"><tspan x="0" y="0">143,5 </tspan><tspan class="cls-11" x="46.46" y="0">р</tspan><tspan x="56.14" y="0">.</tspan></text>
        <text class="cls-1" transform="translate(17.56 29.19)"><tspan x="0" y="0">Магнитный винил</tspan></text>
      </g>
    </g>
  </g>
</svg>