<?xml version="1.0" encoding="UTF-8"?>
<svg id="_Слой_2" data-name="Слой 2" xmlns="http://www.w3.org/2000/svg" viewBox="0 0 938.93 230.7">
  <defs>
    <style>
      .cls-1 {
        fill: #fff;
      }

      .cls-1, .cls-2 {
        stroke: #a0b6b5;
        stroke-miterlimit: 10;
      }

      .cls-3 {
        fill: #27625f;
        stroke-width: 0px;
      }

      .cls-2 {
        fill: none;
      }
    </style>
  </defs>
  <g id="_Слой_1-2" data-name="Слой 1">
    <g>
      <g>
        <rect class="cls-1" x=".5" y=".5" width="937.93" height="229.7" rx="10" ry="10"/>
        <line class="cls-2" x1="938.43" y1="92.38" x2=".5" y2="92.38"/>
        <line class="cls-2" x1="199.89" y1="230.2" x2="199.89" y2="46.44"/>
        <line class="cls-2" x1="381.63" y1="230.2" x2="381.63" y2="46.44"/>
        <line class="cls-2" x1="557.33" y1="230.2" x2="557.33" y2="46.44"/>
        <line class="cls-2" x1="469.46" y1="138.32" x2="469.46" y2="92.38"/>
        <line class="cls-2" x1="652.6" y1="230.2" x2="652.6" y2="92.38"/>
        <line class="cls-2" x1="747.88" y1="230.2" x2="747.88" y2="92.38"/>
        <line class="cls-2" x1="843.15" y1="230.2" x2="843.15" y2="92.38"/>
        <line class="cls-2" x1="938.43" y1="138.32" x2=".5" y2="138.32"/>
        <line class="cls-2" x1="938.43" y1="46.44" x2=".5" y2="46.44"/>
        <line class="cls-2" x1="938.43" y1="184.26" x2=".5" y2="184.26"/>
        <line class="cls-2" x1="938.43" y1="184.26" x2=".5" y2="184.26"/>
      </g>
      <g>
        <g>
          <path class="cls-3" d="m38.97,73.17v-11.28h4.94c1.23,0,2.17.26,2.83.78.66.52.99,1.23.99,2.15,0,.68-.2,1.26-.61,1.73-.41.47-.97.79-1.68.94v-.24c.82.12,1.46.41,1.91.89.45.48.68,1.1.68,1.88,0,1-.35,1.78-1.04,2.33s-1.66.82-2.9.82h-5.14Zm1.98-6.5h2.61c.74,0,1.28-.14,1.64-.41s.54-.67.54-1.21-.18-.94-.54-1.21-.9-.41-1.64-.41h-2.61v3.23Zm0,4.93h2.91c.69,0,1.23-.13,1.62-.39.38-.26.58-.69.58-1.29s-.19-1.04-.58-1.3c-.38-.26-.92-.39-1.62-.39h-2.91v3.38Z"/>
          <path class="cls-3" d="m49.9,73.17v-8.08h1.81v6.11h-.48l4.59-6.11h1.65v8.08h-1.81v-6.13h.5l-4.61,6.13h-1.65Z"/>
          <path class="cls-3" d="m59.02,75.25v-3.6h.93c.32-.5.55-1.09.7-1.77.14-.68.22-1.51.22-2.49v-2.3h6.22v6.56h1.31v3.6h-1.7v-2.08h-5.98v2.08h-1.7Zm2.72-3.58h3.47v-5.07h-2.66v1.25c0,.71-.07,1.41-.21,2.1-.14.68-.34,1.26-.61,1.73Z"/>
          <path class="cls-3" d="m74.25,73.17v-8.08h1.66l2.78,4.83,2.78-4.83h1.66v8.08h-1.76v-5.84h.37l-2.59,4.53h-.93l-2.59-4.53h.37v5.84h-1.76Z"/>
          <path class="cls-3" d="m88.6,73.33c-.7,0-1.32-.17-1.86-.5-.53-.34-.95-.82-1.25-1.45-.3-.63-.45-1.38-.45-2.26s.15-1.62.45-2.25c.3-.62.71-1.1,1.25-1.44s1.15-.5,1.86-.5,1.28.17,1.8.5c.52.34.86.79,1.03,1.35h-.18l.18-1.7h1.92c-.03.33-.06.67-.09,1.01-.03.34-.04.68-.04,1.01v6.06h-1.98l-.02-1.66h.19c-.17.55-.52,1-1.04,1.33-.52.33-1.11.5-1.78.5Zm.56-1.54c.63,0,1.14-.22,1.52-.66.38-.44.58-1.11.58-2.01s-.19-1.56-.58-2c-.38-.44-.89-.66-1.52-.66s-1.14.22-1.52.66c-.38.44-.58,1.1-.58,2s.19,1.57.57,2.01c.38.44.89.66,1.53.66Z"/>
          <path class="cls-3" d="m97.31,73.17v-6.51h-2.77v-1.57h7.54v1.57h-2.78v6.51h-1.98Z"/>
          <path class="cls-3" d="m107.2,73.33c-1.36,0-2.42-.37-3.18-1.12-.77-.75-1.15-1.77-1.15-3.07,0-.84.17-1.58.5-2.21.33-.63.79-1.12,1.38-1.47.59-.35,1.28-.53,2.07-.53s1.43.17,1.95.5c.52.33.92.79,1.19,1.39.27.6.41,1.3.41,2.1v.53h-5.89v-1.06h4.46l-.27.22c0-.75-.16-1.32-.47-1.71-.32-.39-.77-.59-1.37-.59-.66,0-1.17.23-1.53.7-.36.47-.54,1.12-.54,1.97v.21c0,.88.22,1.53.65,1.96s1.04.65,1.83.65c.46,0,.89-.06,1.29-.18.4-.12.78-.32,1.14-.6l.59,1.34c-.38.31-.84.55-1.38.72s-1.1.26-1.7.26Z"/>
          <path class="cls-3" d="m112.28,76.62v-9.52c0-.33-.01-.67-.03-1.01s-.05-.68-.1-1.01h1.94l.18,1.7h-.18c.16-.56.5-1.02,1.02-1.35.52-.34,1.12-.5,1.8-.5s1.34.17,1.87.5c.53.34.95.82,1.25,1.44.3.62.45,1.37.45,2.25s-.15,1.63-.45,2.26c-.3.63-.71,1.11-1.25,1.45-.53.34-1.16.5-1.87.5-.67,0-1.26-.17-1.78-.5-.51-.33-.85-.77-1.02-1.33h.18v5.12h-2Zm4.06-4.83c.64,0,1.15-.22,1.54-.66.38-.44.58-1.11.58-2.01s-.19-1.56-.58-2-.9-.66-1.54-.66-1.14.22-1.52.66-.58,1.1-.58,2,.19,1.57.58,2.01c.38.44.89.66,1.52.66Z"/>
          <path class="cls-3" d="m122.36,73.17v-8.08h1.81v6.11h-.48l4.59-6.11h1.65v8.08h-1.81v-6.13h.5l-4.61,6.13h-1.65Z"/>
          <path class="cls-3" d="m135.39,73.33c-.7,0-1.32-.17-1.86-.5-.53-.34-.95-.82-1.25-1.45-.3-.63-.45-1.38-.45-2.26s.15-1.62.45-2.25c.3-.62.71-1.1,1.25-1.44s1.15-.5,1.86-.5,1.28.17,1.8.5.86.79,1.03,1.35h-.18l.18-1.7h1.92c-.03.33-.06.67-.09,1.01-.03.34-.04.68-.04,1.01v6.06h-1.98l-.02-1.66h.19c-.17.55-.52,1-1.04,1.33-.52.33-1.11.5-1.78.5Zm.56-1.54c.63,0,1.14-.22,1.52-.66.38-.44.58-1.11.58-2.01s-.19-1.56-.58-2c-.38-.44-.89-.66-1.52-.66s-1.14.22-1.52.66c-.38.44-.58,1.1-.58,2s.19,1.57.57,2.01c.38.44.89.66,1.53.66Z"/>
          <path class="cls-3" d="m142.14,73.39l-.62-1.57c.35-.13.65-.3.89-.5.24-.21.43-.47.58-.8.14-.33.25-.73.31-1.22.06-.49.1-1.06.1-1.74v-2.48h6.43v8.08h-1.98v-6.54h-2.62v1.01c0,1.16-.11,2.14-.32,2.92-.21.79-.54,1.41-.99,1.87-.45.46-1.04.78-1.76.98Z"/>
          <path class="cls-3" d="m155.28,73.33c-.7,0-1.32-.17-1.86-.5-.53-.34-.95-.82-1.25-1.45-.3-.63-.45-1.38-.45-2.26s.15-1.62.45-2.25c.3-.62.71-1.1,1.25-1.44s1.15-.5,1.86-.5,1.28.17,1.8.5.86.79,1.03,1.35h-.18l.18-1.7h1.92c-.03.33-.06.67-.09,1.01-.03.34-.04.68-.04,1.01v6.06h-1.98l-.02-1.66h.19c-.17.55-.52,1-1.04,1.33-.52.33-1.11.5-1.78.5Zm.56-1.54c.63,0,1.14-.22,1.52-.66.38-.44.58-1.11.58-2.01s-.19-1.56-.58-2c-.38-.44-.89-.66-1.52-.66s-1.14.22-1.52.66c-.38.44-.58,1.1-.58,2s.19,1.57.57,2.01c.38.44.89.66,1.53.66Z"/>
        </g>
        <g>
          <path class="cls-3" d="m18.58,28.61v-11.28h9.87v11.28h-2.05v-9.6h-5.79v9.6h-2.03Z"/>
          <path class="cls-3" d="m30.62,28.83l-.62-1.57c.35-.13.65-.29.89-.5.24-.21.43-.47.58-.8.14-.33.25-.73.31-1.22.06-.48.1-1.06.1-1.74v-2.48h6.43v8.08h-1.98v-6.54h-2.62v1.01c0,1.16-.11,2.14-.32,2.92-.21.78-.54,1.41-.99,1.86-.45.46-1.03.78-1.76.98Z"/>
          <path class="cls-3" d="m43.75,28.77c-.7,0-1.32-.17-1.86-.5-.53-.34-.95-.82-1.25-1.45-.3-.63-.45-1.38-.45-2.26s.15-1.62.45-2.25c.3-.62.71-1.1,1.25-1.44s1.15-.5,1.86-.5,1.28.17,1.8.5c.52.34.86.79,1.03,1.35h-.18l.18-1.7h1.92c-.03.33-.06.67-.09,1.01-.03.34-.04.68-.04,1.01v6.06h-1.98l-.02-1.66h.19c-.17.55-.52,1-1.04,1.33-.52.33-1.11.5-1.78.5Zm.56-1.54c.63,0,1.14-.22,1.52-.66.38-.44.58-1.11.58-2.01s-.19-1.56-.58-2c-.38-.44-.89-.66-1.52-.66s-1.14.22-1.52.66c-.38.44-.58,1.1-.58,2s.19,1.57.57,2.01c.38.44.89.66,1.53.66Z"/>
          <path class="cls-3" d="m50.71,28.61v-8.08h1.98v3.17h3.65v-3.17h1.98v8.08h-1.98v-3.38h-3.65v3.38h-1.98Z"/>
          <path class="cls-3" d="m60.6,28.61v-8.08h1.87v6.54h2.85v-6.54h1.86v6.54h2.85v-6.54h1.87v8.08h-11.3Z"/>
          <path class="cls-3" d="m78.14,28.77c-1.35,0-2.42-.37-3.18-1.12s-1.15-1.77-1.15-3.07c0-.84.17-1.58.5-2.21.33-.63.79-1.12,1.38-1.47.59-.35,1.28-.53,2.07-.53s1.43.17,1.95.5.92.79,1.19,1.39c.27.6.41,1.3.41,2.1v.53h-5.89v-1.06h4.46l-.27.22c0-.75-.16-1.32-.47-1.71-.31-.39-.77-.59-1.37-.59-.66,0-1.17.23-1.53.7s-.54,1.13-.54,1.97v.21c0,.87.22,1.53.65,1.96.43.43,1.04.65,1.83.65.46,0,.89-.06,1.29-.18s.78-.32,1.14-.6l.59,1.34c-.38.31-.84.55-1.38.72-.53.17-1.1.26-1.7.26Z"/>
          <path class="cls-3" d="m84.9,28.61v-6.51h-2.77v-1.57h7.54v1.57h-2.78v6.51h-1.98Z"/>
          <path class="cls-3" d="m90.9,28.61v-8.08h1.98v2.7h2.13c1.08,0,1.89.23,2.43.68s.82,1.11.82,1.96c0,.55-.13,1.04-.38,1.45s-.63.73-1.11.95-1.07.34-1.75.34h-4.11Zm1.98-1.31h1.86c.54,0,.96-.12,1.25-.34.29-.23.43-.58.43-1.05s-.14-.81-.42-1.03c-.28-.22-.7-.33-1.26-.33h-1.86v2.75Zm6.38,1.31v-8.08h1.98v8.08h-1.98Z"/>
          <path class="cls-3" d="m104.23,30.74l-.82-.64c.34-.35.58-.68.71-.98.13-.3.2-.63.2-.97l.43.46h-1.5v-2.22h2.24v1.47c0,.54-.09,1.04-.28,1.5-.19.45-.51.92-.98,1.38Z"/>
          <path class="cls-3" d="m113.62,28.61v-6.51h-2.77v-1.57h7.54v1.57h-2.78v6.51h-1.98Z"/>
          <path class="cls-3" d="m122.81,28.77c-.7,0-1.32-.17-1.86-.5-.53-.34-.95-.82-1.25-1.45s-.45-1.38-.45-2.26.15-1.62.45-2.25.71-1.1,1.25-1.44,1.15-.5,1.86-.5,1.28.17,1.8.5c.52.34.86.79,1.03,1.35h-.18l.18-1.7h1.92c-.03.33-.06.67-.09,1.01-.03.34-.04.68-.04,1.01v6.06h-1.98l-.02-1.66h.19c-.17.55-.52,1-1.04,1.33s-1.11.5-1.78.5Zm.56-1.54c.63,0,1.14-.22,1.52-.66.38-.44.58-1.11.58-2.01s-.19-1.56-.58-2c-.38-.44-.89-.66-1.52-.66s-1.14.22-1.52.66c-.38.44-.58,1.1-.58,2s.19,1.57.57,2.01c.38.44.89.66,1.53.66Z"/>
          <path class="cls-3" d="m133.56,28.77c-1.27,0-2.28-.38-3.03-1.15-.75-.77-1.13-1.89-1.13-3.38v-1.38c0-1.52.35-2.75,1.04-3.68.69-.93,1.74-1.54,3.14-1.84l2.96-.67.54,1.57-3.33.74c-.55.12-1.01.34-1.38.66-.36.33-.63.71-.82,1.16-.18.45-.27.93-.27,1.44v.85h-.27c.12-.48.32-.9.59-1.26s.63-.64,1.06-.84c.43-.2.91-.3,1.46-.3.68,0,1.28.16,1.8.47s.93.77,1.22,1.36c.3.59.45,1.3.45,2.12s-.17,1.57-.5,2.19c-.34.62-.81,1.1-1.41,1.43-.6.34-1.31.5-2.12.5Zm-.06-1.52c.66,0,1.18-.21,1.54-.63.37-.42.55-1.05.55-1.9s-.19-1.45-.56-1.88c-.37-.43-.89-.65-1.54-.65s-1.16.21-1.54.64c-.37.43-.56,1.04-.56,1.82,0,.86.19,1.51.56,1.94.37.43.89.65,1.54.65Z"/>
          <path class="cls-3" d="m139.11,28.83l-.62-1.57c.35-.13.65-.29.89-.5.24-.21.43-.47.58-.8.14-.33.25-.73.31-1.22.06-.48.1-1.06.1-1.74v-2.48h6.43v8.08h-1.98v-6.54h-2.62v1.01c0,1.16-.11,2.14-.32,2.92-.21.78-.54,1.41-.99,1.86s-1.04.78-1.76.98Z"/>
          <path class="cls-3" d="m149.06,28.61v-8.08h1.81v6.11h-.48l4.59-6.11h1.65v8.08h-1.81v-6.13h.5l-4.61,6.13h-1.65Z"/>
          <path class="cls-3" d="m164.04,28.61v-2.94c-.3.14-.61.25-.93.32-.32.07-.66.11-1.01.11-1.18,0-2.07-.28-2.65-.85-.58-.56-.87-1.41-.87-2.53v-2.19h1.98v2.02c0,.68.15,1.18.45,1.48s.78.46,1.44.46c.31,0,.59-.03.83-.1.25-.06.48-.17.7-.3v-3.55h1.98v8.08h-1.94Z"/>
          <path class="cls-3" d="m168.25,28.61v-8.08h1.98v3.17h1.22l2.37-3.17h2.14l-2.98,4.03-.43-.62c.3.03.56.11.79.24.23.13.45.31.66.54.21.23.41.52.62.87l1.7,3.02h-2.13l-1.38-2.43c-.14-.24-.28-.44-.42-.58s-.29-.24-.46-.29c-.17-.05-.38-.08-.62-.08h-1.07v3.38h-1.98Z"/>
          <path class="cls-3" d="m177.37,28.61v-8.08h1.81v6.11h-.48l4.59-6.11h1.65v8.08h-1.81v-6.13h.5l-4.61,6.13h-1.65Z"/>
          <path class="cls-3" d="m187.91,30.74l-.82-.64c.34-.35.58-.68.71-.98.13-.3.2-.63.2-.97l.43.46h-1.5v-2.22h2.24v1.47c0,.54-.09,1.04-.28,1.5-.19.45-.51.92-.98,1.38Z"/>
          <path class="cls-3" d="m199.33,28.77c-.83,0-1.56-.17-2.18-.51-.62-.34-1.11-.83-1.45-1.46-.34-.63-.51-1.39-.51-2.26s.17-1.62.52-2.24c.35-.62.83-1.09,1.45-1.42.62-.33,1.34-.5,2.18-.5.53,0,1.05.08,1.56.25s.92.4,1.24.71l-.61,1.39c-.29-.27-.61-.47-.97-.6-.36-.13-.71-.2-1.05-.2-.71,0-1.27.22-1.67.67-.4.45-.6,1.1-.6,1.95s.2,1.51.6,1.97c.4.46.96.69,1.67.69.33,0,.67-.06,1.03-.19.36-.13.69-.32.98-.59l.61,1.38c-.33.31-.75.55-1.26.72-.51.17-1.02.26-1.54.26Z"/>
          <path class="cls-3" d="m205.59,28.61v-6.51h-2.77v-1.57h7.54v1.57h-2.78v6.51h-1.98Z"/>
          <path class="cls-3" d="m215.48,28.77c-1.35,0-2.42-.37-3.18-1.12-.77-.75-1.15-1.77-1.15-3.07,0-.84.17-1.58.5-2.21.33-.63.79-1.12,1.38-1.47.59-.35,1.28-.53,2.07-.53s1.43.17,1.95.5.92.79,1.19,1.39c.27.6.41,1.3.41,2.1v.53h-5.89v-1.06h4.46l-.27.22c0-.75-.16-1.32-.47-1.71-.31-.39-.77-.59-1.37-.59-.66,0-1.17.23-1.53.7s-.54,1.13-.54,1.97v.21c0,.87.22,1.53.65,1.96.43.43,1.04.65,1.83.65.46,0,.89-.06,1.29-.18.4-.12.78-.32,1.14-.6l.59,1.34c-.38.31-.84.55-1.38.72-.53.17-1.1.26-1.7.26Z"/>
          <path class="cls-3" d="m220.5,28.61v-8.08h1.98v3.17h3.65v-3.17h1.98v8.08h-1.98v-3.38h-3.65v3.38h-1.98Z"/>
          <path class="cls-3" d="m229.67,30.69v-3.6h.93c.32-.5.55-1.09.7-1.77s.22-1.51.22-2.49v-2.3h6.22v6.56h1.31v3.6h-1.7v-2.08h-5.98v2.08h-1.7Zm2.72-3.58h3.47v-5.07h-2.66v1.25c0,.71-.07,1.41-.21,2.1-.14.68-.34,1.26-.61,1.73Z"/>
          <path class="cls-3" d="m240.52,28.61v-8.08h1.98v2.7h2.13c1.08,0,1.89.23,2.43.68s.82,1.11.82,1.96c0,.55-.13,1.04-.38,1.45s-.63.73-1.11.95-1.07.34-1.75.34h-4.11Zm1.98-1.31h1.86c.54,0,.96-.12,1.25-.34.29-.23.43-.58.43-1.05s-.14-.81-.42-1.03c-.28-.22-.7-.33-1.26-.33h-1.86v2.75Zm6.38,1.31v-8.08h1.98v8.08h-1.98Z"/>
        </g>
        <g>
          <path class="cls-3" d="m21.19,118.95v-9.58h-3.73v-1.7h9.52v1.7h-3.73v9.58h-2.06Z"/>
          <path class="cls-3" d="m30.79,119.11c-.83,0-1.55-.17-2.16-.51s-1.08-.83-1.42-1.46-.5-1.38-.5-2.24.17-1.61.5-2.23.81-1.11,1.42-1.45,1.33-.51,2.16-.51,1.55.17,2.17.51c.61.34,1.09.82,1.42,1.45s.5,1.37.5,2.23-.17,1.61-.5,2.24-.81,1.12-1.42,1.46c-.61.34-1.34.51-2.17.51Zm0-1.54c.63,0,1.13-.22,1.5-.66.37-.44.56-1.11.56-2.01s-.19-1.56-.56-2c-.37-.44-.88-.66-1.5-.66s-1.13.22-1.5.66c-.37.44-.56,1.1-.56,2s.19,1.57.56,2.01c.37.44.87.66,1.5.66Z"/>
          <path class="cls-3" d="m36.41,119.18l-.62-1.57c.35-.13.65-.3.89-.5.24-.21.43-.47.58-.8.14-.33.25-.73.31-1.22s.1-1.06.1-1.74v-2.48h6.43v8.08h-1.98v-6.54h-2.62v1.01c0,1.16-.11,2.14-.32,2.92-.21.79-.54,1.41-.99,1.87-.45.46-1.03.78-1.76.98Z"/>
          <path class="cls-3" d="m57.29,121.03v-2.08h-10.93v-8.08h1.87v6.54h2.85v-6.54h1.86v6.54h2.85v-6.54h1.87v6.54h1.31v3.62h-1.68Z"/>
          <path class="cls-3" d="m60.44,118.95v-8.08h1.81v6.11h-.48l4.59-6.11h1.65v8.08h-1.81v-6.13h.5l-4.61,6.13h-1.65Z"/>
          <path class="cls-3" d="m70.28,118.95v-8.08h1.98v3.17h3.65v-3.17h1.98v8.08h-1.98v-3.38h-3.65v3.38h-1.98Z"/>
          <path class="cls-3" d="m83.35,119.11c-.7,0-1.32-.17-1.86-.5-.53-.34-.95-.82-1.25-1.45-.3-.63-.45-1.38-.45-2.26s.15-1.62.45-2.25c.3-.62.71-1.1,1.25-1.44s1.15-.5,1.86-.5,1.28.17,1.8.5c.52.34.86.79,1.03,1.35h-.18l.18-1.7h1.92c-.03.33-.06.67-.09,1.01s-.04.68-.04,1.01v6.06h-1.98l-.02-1.66h.19c-.17.55-.52,1-1.04,1.33-.52.33-1.11.5-1.78.5Zm.56-1.54c.63,0,1.14-.22,1.52-.66.38-.44.58-1.11.58-2.01s-.19-1.56-.58-2c-.38-.44-.89-.66-1.52-.66s-1.14.22-1.52.66c-.38.44-.58,1.1-.58,2s.19,1.57.57,2.01c.38.44.89.66,1.53.66Z"/>
          <path class="cls-3" d="m94.69,118.95v-8.08h1.66l2.78,4.83,2.78-4.83h1.66v8.08h-1.76v-5.84h.37l-2.59,4.53h-.93l-2.59-4.53h.37v5.84h-1.76Z"/>
          <path class="cls-3" d="m109.04,119.11c-.7,0-1.32-.17-1.86-.5-.53-.34-.95-.82-1.25-1.45-.3-.63-.45-1.38-.45-2.26s.15-1.62.45-2.25c.3-.62.71-1.1,1.25-1.44s1.15-.5,1.86-.5,1.28.17,1.8.5.86.79,1.03,1.35h-.18l.18-1.7h1.92c-.03.33-.06.67-.09,1.01-.03.34-.04.68-.04,1.01v6.06h-1.98l-.02-1.66h.19c-.17.55-.52,1-1.04,1.33-.52.33-1.12.5-1.78.5Zm.56-1.54c.63,0,1.14-.22,1.52-.66.38-.44.58-1.11.58-2.01s-.19-1.56-.58-2-.89-.66-1.52-.66-1.14.22-1.52.66-.58,1.1-.58,2,.19,1.57.57,2.01c.38.44.89.66,1.53.66Z"/>
          <path class="cls-3" d="m117.75,118.95v-6.51h-2.77v-1.57h7.54v1.57h-2.78v6.51h-1.98Z"/>
          <path class="cls-3" d="m127.64,119.11c-1.35,0-2.42-.37-3.18-1.12-.77-.75-1.15-1.77-1.15-3.07,0-.84.17-1.58.5-2.21.33-.63.79-1.12,1.38-1.47.59-.35,1.28-.53,2.07-.53s1.43.17,1.95.5c.52.33.92.79,1.19,1.39.27.6.41,1.3.41,2.1v.53h-5.89v-1.06h4.46l-.27.22c0-.75-.16-1.32-.47-1.71-.31-.39-.77-.59-1.37-.59-.66,0-1.17.23-1.53.7-.36.47-.54,1.12-.54,1.97v.21c0,.88.22,1.53.65,1.96.43.43,1.04.65,1.83.65.46,0,.89-.06,1.29-.18.4-.12.78-.32,1.14-.6l.59,1.34c-.38.31-.84.55-1.38.72s-1.1.26-1.7.26Z"/>
          <path class="cls-3" d="m132.72,122.41v-9.52c0-.33-.01-.67-.03-1.01s-.05-.68-.1-1.01h1.94l.18,1.7h-.18c.16-.56.5-1.02,1.02-1.35.52-.34,1.12-.5,1.8-.5s1.34.17,1.87.5c.53.34.95.82,1.25,1.44.3.62.45,1.37.45,2.25s-.15,1.63-.45,2.26c-.3.63-.71,1.11-1.25,1.45-.53.34-1.16.5-1.87.5-.67,0-1.26-.17-1.78-.5-.51-.33-.85-.77-1.02-1.33h.18v5.12h-2Zm4.06-4.83c.64,0,1.15-.22,1.54-.66.38-.44.58-1.11.58-2.01s-.19-1.56-.58-2-.9-.66-1.54-.66-1.14.22-1.52.66-.58,1.1-.58,2,.19,1.57.58,2.01c.38.44.89.66,1.52.66Z"/>
          <path class="cls-3" d="m142.8,118.95v-8.08h1.81v6.11h-.48l4.59-6.11h1.65v8.08h-1.81v-6.13h.5l-4.61,6.13h-1.65Z"/>
          <path class="cls-3" d="m155.83,119.11c-.7,0-1.32-.17-1.86-.5-.53-.34-.95-.82-1.25-1.45-.3-.63-.45-1.38-.45-2.26s.15-1.62.45-2.25c.3-.62.71-1.1,1.25-1.44s1.15-.5,1.86-.5,1.28.17,1.8.5.86.79,1.03,1.35h-.18l.18-1.7h1.92c-.03.33-.06.67-.09,1.01-.03.34-.04.68-.04,1.01v6.06h-1.98l-.02-1.66h.19c-.17.55-.52,1-1.04,1.33-.52.33-1.11.5-1.78.5Zm.56-1.54c.63,0,1.14-.22,1.52-.66.38-.44.58-1.11.58-2.01s-.19-1.56-.58-2c-.38-.44-.89-.66-1.52-.66s-1.14.22-1.52.66c-.38.44-.58,1.1-.58,2s.19,1.57.57,2.01c.38.44.89.66,1.53.66Z"/>
          <path class="cls-3" d="m162.58,119.18l-.62-1.57c.35-.13.65-.3.89-.5.24-.21.43-.47.58-.8.14-.33.25-.73.31-1.22.06-.49.1-1.06.1-1.74v-2.48h6.43v8.08h-1.98v-6.54h-2.62v1.01c0,1.16-.11,2.14-.32,2.92-.21.79-.54,1.41-.99,1.87-.45.46-1.04.78-1.76.98Z"/>
          <path class="cls-3" d="m175.72,119.11c-.7,0-1.32-.17-1.86-.5-.53-.34-.95-.82-1.25-1.45-.3-.63-.45-1.38-.45-2.26s.15-1.62.45-2.25c.3-.62.71-1.1,1.25-1.44s1.15-.5,1.86-.5,1.28.17,1.8.5.86.79,1.03,1.35h-.18l.18-1.7h1.92c-.03.33-.06.67-.09,1.01-.03.34-.04.68-.04,1.01v6.06h-1.98l-.02-1.66h.19c-.17.55-.52,1-1.04,1.33-.52.33-1.11.5-1.78.5Zm.56-1.54c.63,0,1.14-.22,1.52-.66.38-.44.58-1.11.58-2.01s-.19-1.56-.58-2c-.38-.44-.89-.66-1.52-.66s-1.14.22-1.52.66c-.38.44-.58,1.1-.58,2s.19,1.57.57,2.01c.38.44.89.66,1.53.66Z"/>
        </g>
        <g>
          <path class="cls-3" d="m53.44,170.05v-2.64h-9.71v-11.28h2.03v9.58h5.79v-9.58h2.05v9.58h1.65v4.34h-1.81Z"/>
          <path class="cls-3" d="m60.72,167.57c-1.35,0-2.42-.37-3.18-1.12s-1.15-1.77-1.15-3.07c0-.84.17-1.58.5-2.21.33-.63.79-1.12,1.38-1.47.59-.35,1.28-.53,2.07-.53s1.43.17,1.95.5.92.79,1.19,1.39c.27.6.41,1.3.41,2.1v.53h-5.89v-1.06h4.46l-.27.22c0-.75-.16-1.32-.47-1.71-.31-.39-.77-.59-1.37-.59-.66,0-1.17.23-1.53.7s-.54,1.13-.54,1.97v.21c0,.87.22,1.53.65,1.96.43.43,1.04.65,1.83.65.46,0,.89-.06,1.29-.18s.78-.32,1.14-.6l.59,1.34c-.38.31-.84.55-1.38.72-.53.17-1.1.26-1.7.26Z"/>
          <path class="cls-3" d="m65.74,167.41v-8.08h1.98v3.17h3.65v-3.17h1.98v8.08h-1.98v-3.38h-3.65v3.38h-1.98Z"/>
          <path class="cls-3" d="m78.81,167.57c-.7,0-1.32-.17-1.86-.5-.53-.34-.95-.82-1.25-1.45-.3-.63-.45-1.38-.45-2.26s.15-1.62.45-2.25c.3-.62.71-1.1,1.25-1.44s1.15-.5,1.86-.5,1.28.17,1.8.5c.52.34.86.79,1.03,1.35h-.18l.18-1.7h1.92c-.03.33-.06.67-.09,1.01-.03.34-.04.68-.04,1.01v6.06h-1.98l-.02-1.66h.19c-.17.55-.52,1-1.04,1.33-.52.33-1.11.5-1.78.5Zm.56-1.54c.63,0,1.14-.22,1.52-.66.38-.44.58-1.11.58-2.01s-.19-1.56-.58-2c-.38-.44-.89-.66-1.52-.66s-1.14.22-1.52.66c-.38.44-.58,1.1-.58,2s.19,1.57.57,2.01c.38.44.89.66,1.53.66Z"/>
          <path class="cls-3" d="m93.13,167.57c-.73,0-1.41-.08-2.04-.26-.63-.17-1.17-.42-1.59-.74l.56-1.31c.39.29.86.51,1.38.66.53.15,1.09.22,1.67.22.68,0,1.18-.09,1.5-.28.32-.19.47-.46.47-.82,0-.34-.12-.6-.37-.78s-.61-.26-1.09-.26h-2.1v-1.38h1.9c.44,0,.77-.08,1.01-.26.24-.17.35-.41.35-.72,0-.33-.14-.59-.42-.78-.28-.19-.74-.29-1.38-.29-.55,0-1.06.07-1.52.2s-.89.33-1.3.58l-.54-1.25c.44-.31.97-.54,1.59-.7s1.3-.24,2.04-.24c1.08,0,1.9.2,2.48.59.58.39.86.95.86,1.68,0,.49-.17.91-.5,1.26s-.79.57-1.35.66v-.22c.66.04,1.18.24,1.57.59.38.35.58.83.58,1.42,0,.74-.33,1.32-.98,1.76-.65.44-1.58.66-2.78.66Z"/>
          <path class="cls-3" d="m101.82,167.57c-.7,0-1.32-.17-1.86-.5-.53-.34-.95-.82-1.25-1.45s-.45-1.38-.45-2.26.15-1.62.45-2.25.71-1.1,1.25-1.44,1.15-.5,1.86-.5,1.28.17,1.8.5c.52.34.86.79,1.03,1.35h-.18l.18-1.7h1.92c-.03.33-.06.67-.09,1.01-.03.34-.04.68-.04,1.01v6.06h-1.98l-.02-1.66h.19c-.17.55-.52,1-1.04,1.33s-1.11.5-1.78.5Zm.56-1.54c.63,0,1.14-.22,1.52-.66.38-.44.58-1.11.58-2.01s-.19-1.56-.58-2c-.38-.44-.89-.66-1.52-.66s-1.14.22-1.52.66c-.38.44-.58,1.1-.58,2s.19,1.57.57,2.01c.38.44.89.66,1.53.66Z"/>
          <path class="cls-3" d="m116.83,167.57c-1.32,0-2.34-.5-3.06-1.51s-1.07-2.45-1.07-4.31.36-3.32,1.07-4.3,1.73-1.47,3.06-1.47,2.35.49,3.06,1.47c.71.98,1.06,2.41,1.06,4.29s-.35,3.32-1.06,4.33c-.71,1.01-1.73,1.51-3.06,1.51Zm0-1.7c.73,0,1.26-.33,1.62-1,.35-.67.53-1.71.53-3.14s-.18-2.47-.53-3.11c-.35-.64-.89-.97-1.62-.97s-1.25.32-1.61.97c-.36.65-.54,1.68-.54,3.11s.18,2.48.54,3.14c.36.67.89,1,1.61,1Z"/>
          <path class="cls-3" d="m123.47,169.53l-.82-.64c.34-.35.58-.68.71-.98.13-.3.2-.63.2-.97l.43.46h-1.5v-2.22h2.24v1.47c0,.54-.09,1.04-.28,1.5-.19.45-.51.92-.98,1.38Z"/>
          <path class="cls-3" d="m130.48,167.57c-.49,0-.98-.05-1.46-.16s-.94-.26-1.36-.45c-.42-.19-.78-.42-1.08-.69l.67-1.55c.5.37,1.02.65,1.54.84.53.19,1.08.28,1.66.28.69,0,1.23-.17,1.62-.52s.58-.81.58-1.4-.19-1.08-.56-1.45c-.37-.37-.89-.55-1.54-.55-.46,0-.88.09-1.26.26-.38.18-.72.45-1.02.81h-1.36v-6.86h7.01v1.7h-5.06v3.58h-.5c.28-.37.65-.66,1.11-.86.46-.2.98-.3,1.56-.3.73,0,1.35.15,1.89.45s.95.72,1.25,1.26.45,1.17.45,1.9-.17,1.38-.5,1.94-.82,1-1.44,1.31-1.36.47-2.22.47Z"/>
          <path class="cls-3" d="m140.72,167.41v-8.08h1.66l2.78,4.83,2.78-4.83h1.66v8.08h-1.76v-5.84h.37l-2.59,4.53h-.93l-2.59-4.53h.37v5.84h-1.76Z"/>
          <path class="cls-3" d="m151.48,162.08v-.89l2.18-2.28c.27-.29.48-.55.61-.79s.2-.49.2-.75c0-.32-.1-.56-.3-.72-.2-.16-.49-.24-.87-.24-.3,0-.6.05-.88.16-.28.11-.55.28-.82.51l-.39-.89c.27-.24.6-.43.99-.57.4-.14.81-.21,1.25-.21.71,0,1.25.16,1.63.47.38.32.57.77.57,1.36,0,.41-.1.8-.29,1.17-.19.37-.49.76-.9,1.16l-1.82,1.82v-.32h3.26v1h-4.43Z"/>
        </g>
        <g>
          <path class="cls-3" d="m60.22,215.84v-2.64h-9.71v-11.28h2.03v9.58h5.79v-9.58h2.05v9.58h1.65v4.34h-1.81Z"/>
          <path class="cls-3" d="m67.5,213.36c-1.35,0-2.42-.37-3.18-1.12-.77-.75-1.15-1.77-1.15-3.07,0-.84.17-1.58.5-2.21.33-.63.79-1.12,1.38-1.47.59-.35,1.28-.53,2.07-.53s1.43.17,1.95.5c.52.33.92.79,1.19,1.39.27.6.41,1.3.41,2.1v.53h-5.89v-1.06h4.46l-.27.22c0-.75-.16-1.32-.47-1.71-.31-.39-.77-.59-1.37-.59-.66,0-1.17.23-1.53.7-.36.47-.54,1.12-.54,1.97v.21c0,.88.22,1.53.65,1.96.43.43,1.04.65,1.83.65.46,0,.89-.06,1.29-.18s.78-.32,1.14-.6l.59,1.34c-.38.31-.84.55-1.38.72s-1.1.26-1.7.26Z"/>
          <path class="cls-3" d="m72.53,213.2v-8.08h1.98v3.17h3.65v-3.17h1.98v8.08h-1.98v-3.38h-3.65v3.38h-1.98Z"/>
          <path class="cls-3" d="m85.6,213.36c-.7,0-1.32-.17-1.86-.5-.53-.34-.95-.82-1.25-1.45-.3-.63-.45-1.38-.45-2.26s.15-1.62.45-2.25c.3-.62.71-1.1,1.25-1.44s1.15-.5,1.86-.5,1.28.17,1.8.5c.52.34.86.79,1.03,1.35h-.18l.18-1.7h1.92c-.03.33-.06.67-.09,1.01-.03.34-.04.68-.04,1.01v6.06h-1.98l-.02-1.66h.19c-.17.55-.52,1-1.04,1.33-.52.33-1.11.5-1.78.5Zm.56-1.54c.63,0,1.14-.22,1.52-.66.38-.44.58-1.11.58-2.01s-.19-1.56-.58-2c-.38-.44-.89-.66-1.52-.66s-1.14.22-1.52.66c-.38.44-.58,1.1-.58,2s.19,1.57.57,2.01c.38.44.89.66,1.53.66Z"/>
          <path class="cls-3" d="m99.92,213.36c-.72,0-1.41-.09-2.04-.26s-1.17-.42-1.59-.74l.56-1.31c.39.29.86.51,1.38.66s1.08.22,1.67.22c.68,0,1.18-.09,1.5-.28.31-.19.47-.46.47-.82,0-.34-.12-.6-.37-.78-.25-.18-.61-.26-1.09-.26h-2.1v-1.38h1.9c.44,0,.77-.08,1.01-.26.23-.17.35-.41.35-.72,0-.33-.14-.59-.42-.79-.28-.19-.74-.29-1.38-.29-.55,0-1.06.07-1.52.2-.46.13-.89.33-1.3.58l-.54-1.25c.44-.31.97-.54,1.59-.7s1.3-.24,2.04-.24c1.08,0,1.9.2,2.48.59s.86.96.86,1.68c0,.49-.17.91-.5,1.26-.34.35-.79.57-1.35.66v-.22c.66.04,1.18.24,1.57.59s.58.83.58,1.42c0,.74-.33,1.32-.98,1.76s-1.58.66-2.78.66Z"/>
          <path class="cls-3" d="m108.61,213.36c-.7,0-1.32-.17-1.86-.5-.53-.34-.95-.82-1.25-1.45-.3-.63-.45-1.38-.45-2.26s.15-1.62.45-2.25c.3-.62.71-1.1,1.25-1.44s1.15-.5,1.86-.5,1.28.17,1.8.5.86.79,1.03,1.35h-.18l.18-1.7h1.92c-.03.33-.06.67-.09,1.01s-.04.68-.04,1.01v6.06h-1.98l-.02-1.66h.19c-.17.55-.52,1-1.04,1.33-.52.33-1.12.5-1.78.5Zm.56-1.54c.63,0,1.14-.22,1.52-.66.38-.44.58-1.11.58-2.01s-.19-1.56-.58-2-.89-.66-1.52-.66-1.14.22-1.52.66-.58,1.1-.58,2,.19,1.57.57,2.01c.38.44.89.66,1.53.66Z"/>
          <path class="cls-3" d="m120.59,213.2v-1.71h2.59v-7.84h.99l-3.33,1.98v-1.95l2.93-1.76h1.47v9.57h2.43v1.71h-7.09Z"/>
          <path class="cls-3" d="m133.93,213.2v-8.08h1.66l2.78,4.83,2.78-4.83h1.66v8.08h-1.76v-5.84h.37l-2.59,4.53h-.93l-2.59-4.53h.37v5.84h-1.76Z"/>
          <path class="cls-3" d="m144.69,207.87v-.89l2.18-2.28c.27-.29.48-.55.61-.79.13-.24.2-.49.2-.75,0-.32-.1-.56-.3-.72s-.49-.24-.87-.24c-.3,0-.6.05-.88.16-.28.11-.55.28-.82.51l-.39-.9c.27-.24.6-.43.99-.57.4-.14.81-.21,1.25-.21.71,0,1.25.16,1.63.48s.57.77.57,1.36c0,.41-.1.8-.29,1.17-.19.37-.49.76-.9,1.16l-1.82,1.82v-.32h3.26v1h-4.43Z"/>
        </g>
        <g>
          <path class="cls-3" d="m209.47,73.17v-11.28h9.87v11.28h-2.05v-9.6h-5.79v9.6h-2.03Z"/>
          <path class="cls-3" d="m221.5,73.39l-.62-1.57c.35-.13.65-.3.89-.5.24-.21.43-.47.58-.8.14-.33.25-.73.31-1.22.06-.49.1-1.06.1-1.74v-2.48h6.43v8.08h-1.98v-6.54h-2.62v1.01c0,1.16-.11,2.14-.32,2.92-.21.79-.54,1.41-.99,1.87-.45.46-1.03.78-1.76.98Z"/>
          <path class="cls-3" d="m234.63,73.33c-.7,0-1.32-.17-1.86-.5-.53-.34-.95-.82-1.25-1.45-.3-.63-.45-1.38-.45-2.26s.15-1.62.45-2.25c.3-.62.71-1.1,1.25-1.44s1.15-.5,1.86-.5,1.28.17,1.8.5c.52.34.86.79,1.03,1.35h-.18l.18-1.7h1.92c-.03.33-.06.67-.09,1.01s-.04.68-.04,1.01v6.06h-1.98l-.02-1.66h.19c-.17.55-.52,1-1.04,1.33-.52.33-1.11.5-1.78.5Zm.56-1.54c.63,0,1.14-.22,1.52-.66.38-.44.58-1.11.58-2.01s-.19-1.56-.58-2c-.38-.44-.89-.66-1.52-.66s-1.14.22-1.52.66-.58,1.1-.58,2,.19,1.57.57,2.01c.38.44.89.66,1.53.66Z"/>
          <path class="cls-3" d="m245.37,73.33c-.83,0-1.56-.17-2.18-.51s-1.11-.83-1.45-1.46-.51-1.39-.51-2.26.17-1.62.52-2.24c.35-.62.83-1.09,1.45-1.42.62-.33,1.34-.5,2.18-.5.53,0,1.05.08,1.56.25.51.17.92.4,1.24.71l-.61,1.39c-.29-.27-.61-.47-.97-.6-.36-.13-.71-.2-1.05-.2-.71,0-1.27.22-1.67.67-.4.45-.6,1.1-.6,1.95s.2,1.51.6,1.97c.4.46.96.69,1.67.69.33,0,.67-.06,1.03-.19s.69-.33.98-.59l.61,1.38c-.33.31-.75.55-1.26.72-.51.17-1.02.26-1.54.26Z"/>
          <path class="cls-3" d="m251.63,73.17v-6.51h-2.77v-1.57h7.54v1.57h-2.78v6.51h-1.98Z"/>
          <path class="cls-3" d="m257.63,73.17v-8.08h1.81v6.11h-.48l4.59-6.11h1.65v8.08h-1.81v-6.13h.5l-4.61,6.13h-1.65Z"/>
          <path class="cls-3" d="m267.47,73.17v-8.08h1.98v3.17h1.21l2.37-3.17h2.14l-2.98,4.03-.43-.62c.3.03.56.11.79.24s.45.31.66.54.41.52.62.87l1.7,3.02h-2.13l-1.38-2.43c-.14-.25-.28-.44-.42-.58s-.29-.24-.46-.29c-.17-.05-.38-.08-.62-.08h-1.07v3.38h-1.98Z"/>
          <path class="cls-3" d="m281.08,73.17v-11.28h9.87v11.28h-2.05v-9.6h-5.79v9.6h-2.03Z"/>
          <path class="cls-3" d="m293.43,73.17v-11.28h4.94c1.23,0,2.17.26,2.83.78s.99,1.23.99,2.15c0,.68-.2,1.26-.61,1.73-.41.47-.96.79-1.68.94v-.24c.82.12,1.46.41,1.91.89.45.48.68,1.1.68,1.88,0,1-.35,1.78-1.04,2.33s-1.66.82-2.9.82h-5.14Zm1.98-6.5h2.61c.74,0,1.28-.14,1.64-.41s.54-.67.54-1.21-.18-.94-.54-1.21-.9-.41-1.64-.41h-2.61v3.23Zm0,4.93h2.91c.69,0,1.23-.13,1.62-.39.38-.26.58-.69.58-1.29s-.19-1.04-.58-1.3c-.38-.26-.92-.39-1.62-.39h-2.91v3.38Z"/>
          <path class="cls-3" d="m302.94,73.17l4.64-6.18v.88l-4.48-5.98h2.42l3.25,4.5h-.66l3.23-4.5h2.43l-4.5,5.98v-.88l4.66,6.18h-2.43l-3.42-4.71h.7l-3.42,4.71h-2.42Z"/>
          <path class="cls-3" d="m321.91,76.04c-.5-.79-.91-1.56-1.22-2.32s-.54-1.53-.68-2.31c-.14-.79-.21-1.6-.21-2.46s.07-1.68.21-2.46c.14-.78.37-1.55.68-2.3s.72-1.53,1.22-2.3h1.6c-.55,1.23-.97,2.42-1.24,3.58-.27,1.16-.41,2.32-.41,3.5s.14,2.33.41,3.49.69,2.36,1.24,3.6h-1.6Z"/>
          <path class="cls-3" d="m325.13,73.17v-1.52l3.74-3.9c.47-.49.82-.95,1.04-1.36.22-.42.34-.84.34-1.28,0-.54-.17-.96-.51-1.23-.34-.28-.84-.42-1.49-.42-.52,0-1.03.09-1.5.28-.48.19-.95.48-1.41.87l-.67-1.54c.46-.41,1.03-.73,1.7-.98.68-.25,1.39-.37,2.14-.37,1.21,0,2.15.27,2.8.82.65.54.98,1.32.98,2.34,0,.71-.17,1.37-.5,2.01s-.84,1.3-1.54,1.99l-3.12,3.12v-.54h5.6v1.71h-7.6Z"/>
          <path class="cls-3" d="m333.43,73.17l3.76-4.62v.91l-3.55-4.37h2.37l2.32,2.99h-.72l2.32-2.99h2.35l-3.52,4.37v-.91l3.74,4.62h-2.38l-2.51-3.22h.72l-2.53,3.22h-2.37Z"/>
          <path class="cls-3" d="m347.11,73.33c-.78,0-1.53-.12-2.24-.34s-1.3-.55-1.76-.95l.67-1.55c.5.38,1.02.67,1.56.85.54.18,1.11.27,1.7.27.72,0,1.28-.14,1.65-.43.37-.29.56-.71.56-1.26s-.18-.94-.55-1.21c-.37-.27-.9-.41-1.61-.41h-1.82v-1.65h1.65c.61,0,1.09-.15,1.46-.45s.54-.71.54-1.23c0-.49-.17-.86-.5-1.12s-.82-.38-1.45-.38c-1.13,0-2.13.38-2.99,1.15l-.67-1.54c.46-.43,1.03-.76,1.7-.99.68-.23,1.39-.35,2.14-.35,1.17,0,2.09.26,2.76.79s1,1.26,1,2.2c0,.67-.19,1.25-.57,1.74-.38.49-.9.81-1.56.97v-.19c.78.13,1.38.45,1.81.95.43.51.65,1.14.65,1.9,0,1-.37,1.79-1.1,2.38-.74.58-1.74.87-3.02.87Z"/>
          <path class="cls-3" d="m357.61,73.17v-8.08h1.66l2.79,4.83,2.78-4.83h1.66v8.08h-1.76v-5.84h.37l-2.59,4.53h-.93l-2.59-4.53h.37v5.84h-1.76Z"/>
          <path class="cls-3" d="m369.61,76.04h-1.6c.55-1.23.97-2.42,1.24-3.59s.41-2.33.41-3.5-.14-2.32-.41-3.49-.69-2.36-1.24-3.58h1.6c.51.78.92,1.55,1.23,2.3s.53,1.53.67,2.31c.14.78.21,1.6.21,2.46s-.07,1.68-.21,2.46-.36,1.56-.67,2.32c-.31.76-.72,1.52-1.23,2.3Z"/>
        </g>
        <g>
          <path class="cls-3" d="m270.39,119.1c-.77,0-1.5-.11-2.21-.34-.7-.23-1.29-.56-1.76-.98l.58-1.26c.52.41,1.06.71,1.6.9.54.19,1.13.29,1.74.29.79,0,1.39-.17,1.8-.5.41-.33.62-.81.62-1.42s-.21-1.07-.62-1.38c-.41-.31-1.02-.47-1.82-.47h-1.74v-1.34h1.62c.68,0,1.23-.17,1.63-.52s.61-.82.61-1.42c0-.54-.19-.96-.56-1.26-.37-.29-.91-.44-1.6-.44-1.17,0-2.2.41-3.09,1.23l-.56-1.26c.44-.44.99-.78,1.66-1.02.67-.24,1.38-.36,2.11-.36,1.13,0,2.02.26,2.67.78s.98,1.23.98,2.15c0,.69-.2,1.29-.58,1.78-.39.49-.92.82-1.59.98v-.18c.8.13,1.42.45,1.85.95.43.51.65,1.14.65,1.9,0,1-.35,1.79-1.06,2.36-.71.57-1.68.86-2.92.86Z"/>
          <path class="cls-3" d="m276.27,119.87h-1.36l4.19-12.91h1.36l-4.19,12.91Z"/>
          <path class="cls-3" d="m285.06,119.1c-.49,0-.98-.05-1.46-.16-.48-.11-.93-.26-1.34-.46s-.78-.43-1.09-.71l.58-1.26c.51.4,1.04.69,1.58.89s1.11.3,1.7.3c.76,0,1.35-.2,1.78-.59.43-.39.65-.92.65-1.58s-.21-1.23-.62-1.66c-.41-.42-.98-.63-1.7-.63-.5,0-.96.1-1.37.3-.41.2-.77.51-1.08.93h-1.15v-6.78h6.83v1.39h-5.25v4.06h-.42c.29-.41.67-.72,1.16-.94s1.03-.34,1.64-.34c.73,0,1.36.15,1.89.45s.95.71,1.24,1.25c.29.53.44,1.16.44,1.89s-.16,1.36-.49,1.91c-.33.55-.79.98-1.39,1.29-.6.31-1.32.46-2.14.46Z"/>
          <path class="cls-3" d="m295.19,118.95v-8.06h1.34l2.91,5.15,2.91-5.15h1.34v8.06h-1.42v-6.26h.35l-2.8,4.96h-.77l-2.8-4.96h.35v6.26h-1.42Z"/>
          <path class="cls-3" d="m306.13,118.95v-8.06h1.34l2.91,5.15,2.91-5.15h1.34v8.06h-1.42v-6.26h.35l-2.8,4.96h-.77l-2.8-4.96h.35v6.26h-1.42Z"/>
        </g>
        <g>
          <path class="cls-3" d="m245.85,167.98v-2.58h-9.81v-11.28h1.65v9.89h6.34v-9.89h1.65v9.89h1.65v3.97h-1.47Z"/>
          <path class="cls-3" d="m252.7,165.55c-1.3,0-2.32-.37-3.07-1.1-.75-.74-1.12-1.75-1.12-3.06,0-.84.16-1.58.49-2.21.33-.63.78-1.12,1.36-1.46.58-.35,1.26-.52,2.02-.52s1.39.16,1.9.48c.51.32.9.77,1.17,1.35.27.58.4,1.27.4,2.06v.51h-6.08v-.93h4.98l-.27.21c0-.8-.18-1.42-.54-1.86s-.87-.66-1.54-.66c-.75,0-1.32.26-1.73.78-.41.52-.61,1.23-.61,2.14v.16c0,.95.23,1.66.7,2.14.46.48,1.12.72,1.98.72.47,0,.91-.07,1.32-.2s.8-.35,1.18-.66l.53,1.1c-.37.33-.83.58-1.36.76-.53.18-1.1.26-1.7.26Z"/>
          <path class="cls-3" d="m257.84,165.41v-8.06h1.6v3.28h4.08v-3.28h1.6v8.06h-1.6v-3.52h-4.08v3.52h-1.6Z"/>
          <path class="cls-3" d="m270.7,165.55c-.71,0-1.34-.17-1.87-.5s-.95-.81-1.24-1.44c-.29-.63-.44-1.38-.44-2.24s.15-1.62.44-2.24.71-1.1,1.24-1.43,1.16-.5,1.87-.5,1.32.18,1.84.53.87.83,1.04,1.44h-.18l.16-1.82h1.57c-.03.33-.06.66-.09.98-.03.33-.04.64-.04.95v6.13h-1.62v-1.79h.18c-.17.6-.52,1.07-1.05,1.42-.53.35-1.13.52-1.82.52Zm.4-1.26c.69,0,1.25-.25,1.67-.74.42-.49.63-1.22.63-2.18s-.21-1.68-.63-2.17c-.42-.49-.98-.73-1.67-.73s-1.27.24-1.69.73-.63,1.21-.63,2.17.21,1.69.62,2.18.98.74,1.7.74Z"/>
          <path class="cls-3" d="m284.56,165.55c-.7,0-1.37-.09-1.98-.26-.62-.18-1.13-.43-1.52-.76l.5-1.09c.39.31.85.54,1.36.7.51.15,1.06.23,1.65.23.74,0,1.27-.11,1.61-.33s.5-.53.5-.94-.14-.69-.42-.9-.68-.3-1.22-.3h-1.98v-1.15h1.82c.48,0,.85-.1,1.12-.3.27-.2.4-.49.4-.85,0-.38-.16-.68-.46-.9-.31-.21-.79-.32-1.44-.32-.55,0-1.06.07-1.52.21-.46.14-.9.35-1.31.62l-.48-1.04c.44-.33.96-.58,1.55-.74.6-.16,1.24-.24,1.94-.24,1.04,0,1.84.19,2.38.58.54.39.82.95.82,1.67,0,.5-.17.93-.5,1.28-.34.35-.79.57-1.35.64v-.21c.65.03,1.17.23,1.56.58.39.36.58.83.58,1.42,0,.73-.31,1.3-.92,1.74-.61.43-1.51.65-2.68.65Z"/>
          <path class="cls-3" d="m293.19,165.55c-.71,0-1.34-.17-1.87-.5-.53-.33-.95-.81-1.24-1.44-.29-.63-.44-1.38-.44-2.24s.15-1.62.44-2.24c.29-.62.71-1.1,1.24-1.43.53-.34,1.16-.5,1.87-.5s1.32.18,1.84.53c.52.35.87.83,1.04,1.44h-.18l.16-1.82h1.57c-.03.33-.06.66-.09.98-.03.33-.04.64-.04.95v6.13h-1.62v-1.79h.18c-.17.6-.52,1.07-1.05,1.42-.53.35-1.13.52-1.82.52Zm.4-1.26c.69,0,1.25-.25,1.67-.74s.63-1.22.63-2.18-.21-1.68-.63-2.17-.98-.73-1.67-.73-1.27.24-1.69.73c-.42.49-.63,1.21-.63,2.17s.21,1.69.62,2.18.98.74,1.7.74Z"/>
          <path class="cls-3" d="m307.84,165.55c-1.3,0-2.3-.5-3-1.5-.7-1-1.05-2.43-1.05-4.3s.35-3.34,1.05-4.31c.7-.98,1.7-1.46,3-1.46s2.31.49,3.01,1.46c.69.98,1.04,2.41,1.04,4.29s-.35,3.32-1.05,4.31c-.7,1-1.7,1.5-3,1.5Zm0-1.39c.82,0,1.43-.36,1.83-1.07.4-.71.6-1.83.6-3.34s-.2-2.64-.6-3.34c-.4-.7-1.01-1.05-1.83-1.05s-1.42.35-1.82,1.05c-.41.7-.61,1.81-.61,3.32s.21,2.65.62,3.36c.41.71,1.02,1.07,1.82,1.07Z"/>
          <path class="cls-3" d="m314.39,167.37l-.7-.54c.31-.33.52-.63.63-.91.11-.28.17-.57.17-.86l.35.35h-1.26v-1.9h1.9v1.3c0,.48-.08.93-.24,1.34-.16.41-.44.82-.85,1.24Z"/>
          <path class="cls-3" d="m321.39,165.55c-.49,0-.97-.05-1.46-.16s-.93-.26-1.34-.46c-.42-.2-.78-.43-1.09-.71l.58-1.26c.51.39,1.04.69,1.57.89.54.2,1.11.3,1.71.3.76,0,1.35-.2,1.78-.59s.65-.92.65-1.58-.21-1.23-.62-1.66c-.41-.42-.98-.63-1.71-.63-.5,0-.96.1-1.37.3-.41.2-.77.51-1.08.93h-1.15v-6.78h6.83v1.39h-5.25v4.06h-.42c.29-.4.67-.72,1.16-.94.48-.22,1.03-.34,1.64-.34.72,0,1.35.15,1.89.45.53.3.95.71,1.24,1.25.29.53.44,1.16.44,1.89s-.16,1.36-.49,1.91c-.33.55-.79.98-1.39,1.29-.6.31-1.31.46-2.14.46Z"/>
          <path class="cls-3" d="m331.52,165.41v-8.06h1.34l2.91,5.15,2.91-5.15h1.34v8.06h-1.42v-6.26h.35l-2.8,4.96h-.77l-2.8-4.96h.35v6.26h-1.42Z"/>
          <path class="cls-3" d="m342.02,160.08v-.72l2.26-2.36c.29-.3.51-.59.65-.86.14-.27.21-.54.21-.83,0-.36-.11-.62-.33-.8-.22-.18-.54-.27-.96-.27-.33,0-.64.06-.93.18-.29.12-.57.3-.83.54l-.34-.74c.26-.24.59-.44.97-.58s.8-.22,1.24-.22c.68,0,1.21.16,1.58.47.37.31.56.76.56,1.33,0,.41-.1.8-.3,1.18-.2.38-.5.76-.9,1.16l-1.95,1.97v-.26h3.41v.81h-4.36Z"/>
        </g>
        <g>
          <path class="cls-3" d="m252.55,213.77v-2.58h-9.81v-11.28h1.65v9.89h6.34v-9.89h1.65v9.89h1.65v3.97h-1.47Z"/>
          <path class="cls-3" d="m259.4,211.34c-1.3,0-2.33-.37-3.07-1.1s-1.12-1.75-1.12-3.06c0-.84.16-1.58.49-2.21s.78-1.12,1.36-1.46c.58-.35,1.26-.52,2.02-.52s1.39.16,1.9.48c.51.32.9.77,1.17,1.35.27.58.4,1.27.4,2.06v.51h-6.08v-.93h4.98l-.27.21c0-.8-.18-1.42-.54-1.86-.36-.44-.87-.66-1.54-.66-.75,0-1.32.26-1.73.78s-.61,1.23-.61,2.14v.16c0,.95.23,1.66.7,2.14s1.12.72,1.98.72c.47,0,.91-.07,1.32-.2.41-.13.8-.36,1.18-.66l.53,1.1c-.37.33-.83.58-1.36.76s-1.1.26-1.7.26Z"/>
          <path class="cls-3" d="m264.53,211.2v-8.06h1.6v3.28h4.08v-3.28h1.6v8.06h-1.6v-3.52h-4.08v3.52h-1.6Z"/>
          <path class="cls-3" d="m277.4,211.34c-.71,0-1.34-.17-1.87-.5-.53-.33-.95-.81-1.24-1.44-.29-.63-.44-1.38-.44-2.24s.15-1.62.44-2.24c.29-.62.71-1.1,1.24-1.43s1.16-.5,1.87-.5,1.32.18,1.84.53c.52.35.87.83,1.04,1.44h-.18l.16-1.82h1.57c-.03.33-.06.66-.09.98-.03.33-.04.64-.04.95v6.13h-1.62v-1.79h.18c-.17.6-.52,1.07-1.05,1.42s-1.13.52-1.82.52Zm.4-1.26c.69,0,1.25-.25,1.67-.74.42-.49.63-1.21.63-2.18s-.21-1.68-.63-2.17c-.42-.48-.98-.73-1.67-.73s-1.27.24-1.69.73c-.42.49-.63,1.21-.63,2.17s.21,1.69.62,2.18c.42.49.98.74,1.7.74Z"/>
          <path class="cls-3" d="m291.25,211.34c-.7,0-1.37-.09-1.98-.26s-1.12-.43-1.52-.76l.5-1.09c.39.31.85.54,1.36.7.51.16,1.06.23,1.65.23.74,0,1.27-.11,1.61-.33s.5-.53.5-.94-.14-.69-.42-.9c-.28-.2-.68-.3-1.21-.3h-1.98v-1.15h1.82c.48,0,.85-.1,1.12-.3.27-.2.4-.49.4-.85,0-.38-.15-.68-.46-.9s-.79-.32-1.44-.32c-.55,0-1.06.07-1.52.21s-.9.35-1.31.62l-.48-1.04c.44-.33.95-.58,1.55-.74s1.24-.24,1.94-.24c1.05,0,1.84.2,2.38.58.54.39.82.95.82,1.67,0,.5-.17.93-.5,1.28-.34.35-.79.57-1.35.64v-.21c.65.03,1.17.23,1.56.58.39.36.58.83.58,1.42,0,.73-.31,1.3-.92,1.74s-1.51.65-2.68.65Z"/>
          <path class="cls-3" d="m299.89,211.34c-.71,0-1.34-.17-1.87-.5-.53-.33-.95-.81-1.24-1.44s-.44-1.38-.44-2.24.15-1.62.44-2.24c.29-.62.71-1.1,1.24-1.43s1.16-.5,1.87-.5,1.32.18,1.84.53c.52.35.87.83,1.04,1.44h-.18l.16-1.82h1.57c-.03.33-.06.66-.09.98-.03.33-.04.64-.04.95v6.13h-1.62v-1.79h.18c-.17.6-.52,1.07-1.05,1.42-.53.35-1.13.52-1.82.52Zm.4-1.26c.69,0,1.25-.25,1.67-.74.42-.49.63-1.21.63-2.18s-.21-1.68-.63-2.17c-.42-.48-.98-.73-1.67-.73s-1.27.24-1.69.73c-.42.49-.63,1.21-.63,2.17s.21,1.69.62,2.18c.42.49.98.74,1.7.74Z"/>
          <path class="cls-3" d="m311.65,211.2v-1.39h2.62v-8.48h.83l-3.2,1.95v-1.6l2.83-1.76h1.2v9.89h2.46v1.39h-6.75Z"/>
          <path class="cls-3" d="m324.82,211.2v-8.06h1.34l2.91,5.15,2.91-5.15h1.34v8.06h-1.42v-6.26h.35l-2.8,4.96h-.77l-2.8-4.96h.35v6.26h-1.42Z"/>
          <path class="cls-3" d="m335.32,205.87v-.72l2.26-2.36c.29-.3.51-.59.65-.86.14-.27.21-.54.21-.83,0-.35-.11-.62-.33-.8-.22-.18-.54-.27-.96-.27-.33,0-.64.06-.93.18s-.57.3-.83.54l-.34-.74c.26-.24.59-.44.97-.58.39-.15.8-.22,1.24-.22.68,0,1.21.16,1.58.47.37.31.56.76.56,1.33,0,.41-.1.8-.3,1.18s-.5.76-.9,1.16l-1.95,1.97v-.26h3.41v.81h-4.36Z"/>
        </g>
        <g>
          <path class="cls-3" d="m388.15,73.17v-11.28h9.87v11.28h-2.05v-9.6h-5.79v9.6h-2.03Z"/>
          <path class="cls-3" d="m400.18,73.39l-.62-1.57c.35-.13.65-.3.89-.5s.43-.47.58-.8c.14-.33.25-.73.31-1.22.06-.49.1-1.06.1-1.74v-2.48h6.43v8.08h-1.98v-6.54h-2.62v1.01c0,1.16-.11,2.14-.32,2.92-.21.79-.54,1.41-.99,1.87-.45.46-1.04.78-1.76.98Z"/>
          <path class="cls-3" d="m413.32,73.33c-.7,0-1.32-.17-1.86-.5-.53-.34-.95-.82-1.25-1.45-.3-.63-.45-1.38-.45-2.26s.15-1.62.45-2.25c.3-.62.71-1.1,1.25-1.44s1.15-.5,1.86-.5,1.28.17,1.8.5.86.79,1.03,1.35h-.18l.18-1.7h1.92c-.03.33-.06.67-.09,1.01-.03.34-.04.68-.04,1.01v6.06h-1.98l-.02-1.66h.19c-.17.55-.52,1-1.04,1.33-.52.33-1.12.5-1.78.5Zm.56-1.54c.63,0,1.14-.22,1.52-.66.38-.44.58-1.11.58-2.01s-.19-1.56-.58-2-.89-.66-1.52-.66-1.14.22-1.52.66-.58,1.1-.58,2,.19,1.57.57,2.01c.38.44.89.66,1.53.66Z"/>
          <path class="cls-3" d="m424.06,73.33c-.83,0-1.56-.17-2.18-.51s-1.11-.83-1.45-1.46c-.34-.63-.51-1.39-.51-2.26s.17-1.62.52-2.24.83-1.09,1.45-1.42c.62-.33,1.34-.5,2.18-.5.53,0,1.05.08,1.56.25.51.17.92.4,1.24.71l-.61,1.39c-.29-.27-.61-.47-.97-.6-.36-.13-.71-.2-1.05-.2-.71,0-1.27.22-1.67.67-.4.45-.6,1.1-.6,1.95s.2,1.51.6,1.97c.4.46.96.69,1.67.69.33,0,.67-.06,1.03-.19s.69-.33.98-.59l.61,1.38c-.33.31-.75.55-1.26.72s-1.02.26-1.54.26Z"/>
          <path class="cls-3" d="m430.31,73.17v-6.51h-2.77v-1.57h7.54v1.57h-2.78v6.51h-1.98Z"/>
          <path class="cls-3" d="m436.31,73.17v-8.08h1.81v6.11h-.48l4.59-6.11h1.65v8.08h-1.81v-6.13h.5l-4.61,6.13h-1.65Z"/>
          <path class="cls-3" d="m446.15,73.17v-8.08h1.98v3.17h1.22l2.37-3.17h2.14l-2.98,4.03-.43-.62c.3.03.56.11.79.24s.45.31.66.54.41.52.62.87l1.7,3.02h-2.13l-1.38-2.43c-.14-.25-.28-.44-.42-.58s-.29-.24-.46-.29c-.17-.05-.38-.08-.62-.08h-1.07v3.38h-1.98Z"/>
          <path class="cls-3" d="m459.77,73.17v-11.28h9.87v11.28h-2.05v-9.6h-5.79v9.6h-2.03Z"/>
          <path class="cls-3" d="m472.12,73.17v-11.28h4.94c1.23,0,2.17.26,2.83.78.66.52.99,1.23.99,2.15,0,.68-.2,1.26-.61,1.73-.41.47-.97.79-1.68.94v-.24c.82.12,1.46.41,1.91.89.45.48.68,1.1.68,1.88,0,1-.35,1.78-1.04,2.33s-1.66.82-2.9.82h-5.14Zm1.98-6.5h2.61c.74,0,1.28-.14,1.64-.41s.54-.67.54-1.21-.18-.94-.54-1.21-.9-.41-1.64-.41h-2.61v3.23Zm0,4.93h2.91c.69,0,1.23-.13,1.62-.39.38-.26.58-.69.58-1.29s-.19-1.04-.58-1.3c-.38-.26-.92-.39-1.62-.39h-2.91v3.38Z"/>
          <path class="cls-3" d="m481.62,73.17l4.64-6.18v.88l-4.48-5.98h2.42l3.25,4.5h-.66l3.23-4.5h2.43l-4.5,5.98v-.88l4.66,6.18h-2.43l-3.42-4.71h.7l-3.42,4.71h-2.42Z"/>
          <path class="cls-3" d="m500.6,76.04c-.5-.79-.91-1.56-1.22-2.32s-.54-1.53-.68-2.31c-.14-.79-.21-1.6-.21-2.46s.07-1.68.21-2.46c.14-.78.37-1.55.68-2.3s.72-1.53,1.22-2.3h1.6c-.55,1.23-.97,2.42-1.24,3.58-.27,1.16-.41,2.32-.41,3.5s.14,2.33.41,3.49c.27,1.16.69,2.36,1.24,3.6h-1.6Z"/>
          <path class="cls-3" d="m503.81,73.17v-1.52l3.74-3.9c.47-.49.82-.95,1.04-1.36.22-.42.34-.84.34-1.28,0-.54-.17-.96-.51-1.23-.34-.28-.84-.42-1.49-.42-.52,0-1.02.09-1.5.28-.48.19-.95.48-1.41.87l-.67-1.54c.46-.41,1.03-.73,1.7-.98.68-.25,1.39-.37,2.14-.37,1.22,0,2.15.27,2.8.82.65.54.98,1.32.98,2.34,0,.71-.17,1.37-.5,2.01-.33.63-.84,1.3-1.54,1.99l-3.12,3.12v-.54h5.6v1.71h-7.6Z"/>
          <path class="cls-3" d="m512.12,73.17l3.76-4.62v.91l-3.55-4.37h2.37l2.32,2.99h-.72l2.32-2.99h2.35l-3.52,4.37v-.91l3.74,4.62h-2.38l-2.51-3.22h.72l-2.53,3.22h-2.37Z"/>
          <path class="cls-3" d="m525.8,73.33c-.78,0-1.53-.12-2.24-.34s-1.3-.55-1.76-.95l.67-1.55c.5.38,1.02.67,1.56.85.54.18,1.11.27,1.7.27.73,0,1.28-.14,1.65-.43.37-.29.56-.71.56-1.26s-.18-.94-.55-1.21-.9-.41-1.61-.41h-1.82v-1.65h1.65c.61,0,1.09-.15,1.46-.45.36-.3.54-.71.54-1.23,0-.49-.17-.86-.5-1.12s-.82-.38-1.45-.38c-1.13,0-2.13.38-2.99,1.15l-.67-1.54c.46-.43,1.03-.76,1.7-.99.68-.23,1.39-.35,2.14-.35,1.17,0,2.09.26,2.76.79.67.53,1,1.26,1,2.2,0,.67-.19,1.25-.57,1.74-.38.49-.9.81-1.56.97v-.19c.78.13,1.38.45,1.82.95.43.51.65,1.14.65,1.9,0,1-.37,1.79-1.1,2.38-.74.58-1.74.87-3.02.87Z"/>
          <path class="cls-3" d="m536.29,73.17v-8.08h1.66l2.78,4.83,2.78-4.83h1.66v8.08h-1.76v-5.84h.37l-2.59,4.53h-.93l-2.59-4.53h.37v5.84h-1.76Z"/>
          <path class="cls-3" d="m548.29,76.04h-1.6c.55-1.23.97-2.42,1.24-3.59.27-1.17.41-2.33.41-3.5s-.14-2.32-.41-3.49c-.27-1.16-.69-2.36-1.24-3.58h1.6c.51.78.92,1.55,1.23,2.3.31.76.53,1.53.67,2.31.14.78.21,1.6.21,2.46s-.07,1.68-.21,2.46-.36,1.56-.67,2.32c-.31.76-.72,1.52-1.23,2.3Z"/>
        </g>
        <g>
          <path class="cls-3" d="m602.52,73.17v-11.28h2.03v4.8h1.92l-.42.27,3.33-5.07h2.27l-3.71,5.46-.78-.58c.73.11,1.33.35,1.82.74.49.39.91.94,1.27,1.64l2,4.02h-2.22l-1.55-3.25c-.27-.57-.58-.97-.95-1.2-.37-.23-.83-.35-1.4-.35h-1.57v4.8h-2.03Z"/>
          <path class="cls-3" d="m616.64,73.33c-.7,0-1.32-.17-1.86-.5-.53-.34-.95-.82-1.25-1.45-.3-.63-.45-1.38-.45-2.26s.15-1.62.45-2.25c.3-.62.71-1.1,1.25-1.44s1.15-.5,1.86-.5,1.28.17,1.8.5c.52.34.86.79,1.03,1.35h-.18l.18-1.7h1.92c-.03.33-.06.67-.09,1.01-.03.34-.04.68-.04,1.01v6.06h-1.98l-.02-1.66h.19c-.17.55-.52,1-1.04,1.33-.52.33-1.11.5-1.78.5Zm.56-1.54c.63,0,1.14-.22,1.52-.66.38-.44.58-1.11.58-2.01s-.19-1.56-.58-2c-.38-.44-.89-.66-1.52-.66s-1.14.22-1.52.66c-.38.44-.58,1.1-.58,2s.19,1.57.57,2.01c.38.44.89.66,1.53.66Z"/>
          <path class="cls-3" d="m623.66,76.62v-9.52c0-.33-.01-.67-.03-1.01s-.05-.68-.1-1.01h1.94l.18,1.7h-.18c.16-.56.5-1.02,1.02-1.35s1.12-.5,1.8-.5,1.34.17,1.87.5c.53.34.95.82,1.25,1.44.3.62.45,1.37.45,2.25s-.15,1.63-.45,2.26c-.3.63-.71,1.11-1.25,1.45-.53.34-1.16.5-1.87.5-.67,0-1.26-.17-1.78-.5-.51-.33-.85-.77-1.02-1.33h.18v5.12h-2Zm4.06-4.83c.64,0,1.15-.22,1.54-.66.38-.44.58-1.11.58-2.01s-.19-1.56-.58-2-.9-.66-1.54-.66-1.14.22-1.52.66c-.38.44-.58,1.1-.58,2s.19,1.57.58,2.01c.38.44.89.66,1.52.66Z"/>
          <path class="cls-3" d="m633.74,73.17v-8.08h1.66l2.78,4.83,2.78-4.83h1.66v8.08h-1.76v-5.84h.37l-2.59,4.53h-.93l-2.59-4.53h.37v5.84h-1.76Z"/>
          <path class="cls-3" d="m648.09,73.33c-.7,0-1.32-.17-1.86-.5-.53-.34-.95-.82-1.25-1.45-.3-.63-.45-1.38-.45-2.26s.15-1.62.45-2.25c.3-.62.71-1.1,1.25-1.44s1.15-.5,1.86-.5,1.28.17,1.8.5c.52.34.86.79,1.03,1.35h-.18l.18-1.7h1.92c-.03.33-.06.67-.09,1.01-.03.34-.04.68-.04,1.01v6.06h-1.98l-.02-1.66h.19c-.17.55-.52,1-1.04,1.33-.52.33-1.11.5-1.78.5Zm.56-1.54c.63,0,1.14-.22,1.52-.66.38-.44.58-1.11.58-2.01s-.19-1.56-.58-2c-.38-.44-.89-.66-1.52-.66s-1.14.22-1.52.66c-.38.44-.58,1.1-.58,2s.19,1.57.57,2.01c.38.44.89.66,1.53.66Z"/>
          <path class="cls-3" d="m655.05,73.17v-8.08h1.87v6.54h2.85v-6.54h1.86v6.54h2.85v-6.54h1.87v8.08h-11.3Z"/>
          <path class="cls-3" d="m668.62,73.17v-8.08h1.98v3.17h1.22l2.37-3.17h2.14l-2.98,4.03-.43-.62c.3.03.56.11.79.24s.45.31.66.54.41.52.62.87l1.7,3.02h-2.13l-1.38-2.43c-.14-.25-.28-.44-.42-.58s-.29-.24-.46-.29c-.17-.05-.38-.08-.62-.08h-1.07v3.38h-1.98Z"/>
          <path class="cls-3" d="m677.74,73.17v-8.08h1.81v6.11h-.48l4.59-6.11h1.65v8.08h-1.81v-6.13h.5l-4.61,6.13h-1.65Z"/>
          <path class="cls-3" d="m694.55,76.04c-.5-.79-.91-1.56-1.22-2.32s-.54-1.53-.68-2.31c-.14-.79-.21-1.6-.21-2.46s.07-1.68.21-2.46c.14-.78.37-1.55.68-2.3s.72-1.53,1.22-2.3h1.6c-.55,1.23-.97,2.42-1.24,3.58-.27,1.16-.41,2.32-.41,3.5s.14,2.33.41,3.49c.27,1.16.69,2.36,1.24,3.6h-1.6Z"/>
          <path class="cls-3" d="m697.66,73.17v-8.08h7.57v8.08h-1.98v-6.54h-3.6v6.54h-1.98Z"/>
          <path class="cls-3" d="m707.56,76.62v-9.52c0-.33-.01-.67-.03-1.01s-.05-.68-.1-1.01h1.94l.18,1.7h-.18c.16-.56.5-1.02,1.02-1.35s1.12-.5,1.8-.5,1.34.17,1.87.5c.53.34.95.82,1.25,1.44.3.62.45,1.37.45,2.25s-.15,1.63-.45,2.26c-.3.63-.71,1.11-1.25,1.45-.53.34-1.16.5-1.87.5-.67,0-1.26-.17-1.78-.5-.51-.33-.85-.77-1.02-1.33h.18v5.12h-2Zm4.06-4.83c.64,0,1.15-.22,1.54-.66.38-.44.58-1.11.58-2.01s-.19-1.56-.58-2-.9-.66-1.54-.66-1.14.22-1.52.66c-.38.44-.58,1.1-.58,2s.19,1.57.58,2.01c.38.44.89.66,1.52.66Z"/>
          <path class="cls-3" d="m721.35,73.33c-.83,0-1.55-.17-2.16-.51-.61-.34-1.08-.83-1.42-1.46s-.5-1.38-.5-2.24.17-1.61.5-2.23.81-1.11,1.42-1.45c.61-.34,1.33-.51,2.16-.51s1.55.17,2.17.51c.61.34,1.09.82,1.42,1.45s.5,1.37.5,2.23-.17,1.61-.5,2.24-.81,1.12-1.42,1.46c-.61.34-1.34.51-2.17.51Zm0-1.54c.63,0,1.13-.22,1.5-.66.37-.44.56-1.11.56-2.01s-.19-1.56-.56-2c-.37-.44-.88-.66-1.5-.66s-1.13.22-1.5.66c-.37.44-.56,1.1-.56,2s.19,1.57.56,2.01c.37.44.87.66,1.5.66Z"/>
          <path class="cls-3" d="m730.31,73.33c-.72,0-1.41-.09-2.04-.26s-1.17-.42-1.59-.74l.56-1.31c.39.29.86.51,1.38.66s1.08.22,1.67.22c.68,0,1.18-.09,1.5-.28.31-.19.47-.46.47-.82,0-.34-.12-.6-.37-.78-.25-.18-.61-.26-1.09-.26h-2.1v-1.38h1.9c.44,0,.77-.08,1.01-.26.23-.17.35-.41.35-.72,0-.33-.14-.59-.42-.79-.28-.19-.74-.29-1.38-.29-.55,0-1.06.07-1.52.2-.46.13-.89.33-1.3.58l-.54-1.25c.44-.31.97-.54,1.59-.7s1.3-.24,2.04-.24c1.08,0,1.9.2,2.48.59s.86.96.86,1.68c0,.49-.17.91-.5,1.26-.34.35-.79.57-1.35.66v-.22c.66.04,1.18.24,1.57.59s.58.83.58,1.42c0,.74-.33,1.32-.98,1.76s-1.58.66-2.78.66Z"/>
          <path class="cls-3" d="m735.88,76.62v-9.52c0-.33-.01-.67-.03-1.01s-.05-.68-.1-1.01h1.94l.18,1.7h-.18c.16-.56.5-1.02,1.02-1.35.52-.34,1.12-.5,1.8-.5s1.34.17,1.87.5.95.82,1.25,1.44c.3.62.45,1.37.45,2.25s-.15,1.63-.45,2.26c-.3.63-.71,1.11-1.25,1.45-.53.34-1.16.5-1.87.5-.67,0-1.26-.17-1.78-.5-.51-.33-.85-.77-1.02-1.33h.18v5.12h-2Zm4.06-4.83c.64,0,1.15-.22,1.54-.66.38-.44.58-1.11.58-2.01s-.19-1.56-.58-2c-.38-.44-.9-.66-1.54-.66s-1.14.22-1.52.66-.58,1.1-.58,2,.19,1.57.58,2.01c.38.44.89.66,1.52.66Z"/>
          <path class="cls-3" d="m749.14,73.33c-.7,0-1.32-.17-1.86-.5-.53-.34-.95-.82-1.25-1.45-.3-.63-.45-1.38-.45-2.26s.15-1.62.45-2.25c.3-.62.71-1.1,1.25-1.44s1.15-.5,1.86-.5,1.28.17,1.8.5.86.79,1.03,1.35h-.18l.18-1.7h1.92c-.03.33-.06.67-.09,1.01-.03.34-.04.68-.04,1.01v6.06h-1.98l-.02-1.66h.19c-.17.55-.52,1-1.04,1.33-.52.33-1.11.5-1.78.5Zm.56-1.54c.63,0,1.14-.22,1.52-.66.38-.44.58-1.11.58-2.01s-.19-1.56-.58-2c-.38-.44-.89-.66-1.52-.66s-1.14.22-1.52.66c-.38.44-.58,1.1-.58,2s.19,1.57.57,2.01c.38.44.89.66,1.53.66Z"/>
          <path class="cls-3" d="m761.24,73.17v-2.94c-.3.14-.61.25-.93.32-.32.08-.66.11-1.01.11-1.18,0-2.07-.28-2.65-.85-.58-.57-.87-1.41-.87-2.53v-2.19h1.98v2.02c0,.68.15,1.18.45,1.48.3.3.78.46,1.44.46.31,0,.59-.03.83-.1.25-.06.48-.17.7-.3v-3.55h1.98v8.08h-1.94Z"/>
          <path class="cls-3" d="m765.45,73.17v-8.08h1.98v3.17h3.65v-3.17h1.98v8.08h-1.98v-3.38h-3.65v3.38h-1.98Z"/>
          <path class="cls-3" d="m775.34,73.17v-8.08h1.98v2.7h2.13c1.08,0,1.89.23,2.43.68.54.45.82,1.11.82,1.96,0,.55-.13,1.04-.38,1.45-.26.41-.63.73-1.11.95-.49.22-1.07.34-1.75.34h-4.11Zm1.98-1.31h1.86c.54,0,.96-.11,1.25-.34s.43-.58.43-1.05-.14-.81-.42-1.03c-.28-.22-.7-.33-1.26-.33h-1.86v2.75Zm6.38,1.31v-8.08h1.98v8.08h-1.98Z"/>
          <path class="cls-3" d="m787.96,73.17v-8.08h1.81v6.11h-.48l4.59-6.11h1.65v8.08h-1.81v-6.13h.5l-4.61,6.13h-1.65Zm3.78-8.82c-.53,0-1-.09-1.41-.26s-.74-.43-1.01-.75c-.27-.33-.46-.71-.58-1.16l1.02-.35c.18.49.43.85.75,1.08.32.23.73.34,1.23.34s.91-.11,1.23-.34c.32-.22.58-.58.78-1.07l.98.34c-.22.71-.59,1.26-1.11,1.62-.52.37-1.15.55-1.9.55Z"/>
          <path class="cls-3" d="m802.18,73.17v-8.08h7.57v8.08h-1.98v-6.54h-3.6v6.54h-1.98Z"/>
          <path class="cls-3" d="m811.82,73.39l-.62-1.57c.35-.13.65-.3.89-.5.24-.21.43-.47.58-.8.14-.33.25-.73.31-1.22.06-.49.1-1.06.1-1.74v-2.48h6.43v8.08h-1.98v-6.54h-2.62v1.01c0,1.16-.11,2.14-.32,2.92-.21.79-.54,1.41-.99,1.87-.45.46-1.04.78-1.76.98Z"/>
          <path class="cls-3" d="m824.95,73.33c-.7,0-1.32-.17-1.86-.5-.53-.34-.95-.82-1.25-1.45-.3-.63-.45-1.38-.45-2.26s.15-1.62.45-2.25c.3-.62.71-1.1,1.25-1.44s1.15-.5,1.86-.5,1.28.17,1.8.5.86.79,1.03,1.35h-.18l.18-1.7h1.92c-.03.33-.06.67-.09,1.01-.03.34-.04.68-.04,1.01v6.06h-1.98l-.02-1.66h.19c-.17.55-.52,1-1.04,1.33-.52.33-1.11.5-1.78.5Zm.56-1.54c.63,0,1.14-.22,1.52-.66.38-.44.58-1.11.58-2.01s-.19-1.56-.58-2c-.38-.44-.89-.66-1.52-.66s-1.14.22-1.52.66c-.38.44-.58,1.1-.58,2s.19,1.57.57,2.01c.38.44.89.66,1.53.66Z"/>
          <path class="cls-3" d="m835.69,73.33c-.83,0-1.56-.17-2.18-.51s-1.11-.83-1.45-1.46c-.34-.63-.51-1.39-.51-2.26s.17-1.62.52-2.24.83-1.09,1.45-1.42c.62-.33,1.34-.5,2.18-.5.53,0,1.05.08,1.56.25.51.17.92.4,1.24.71l-.61,1.39c-.29-.27-.61-.47-.97-.6s-.71-.2-1.05-.2c-.71,0-1.27.22-1.67.67s-.6,1.1-.6,1.95.2,1.51.6,1.97c.4.46.96.69,1.67.69.33,0,.67-.06,1.03-.19s.69-.33.98-.59l.61,1.38c-.33.31-.75.55-1.26.72s-1.02.26-1.54.26Z"/>
          <path class="cls-3" d="m841.94,73.17v-6.51h-2.77v-1.57h7.54v1.57h-2.78v6.51h-1.98Z"/>
          <path class="cls-3" d="m847.94,73.17v-8.08h1.81v6.11h-.48l4.59-6.11h1.65v8.08h-1.81v-6.13h.5l-4.61,6.13h-1.65Z"/>
          <path class="cls-3" d="m857.78,73.17v-8.08h1.98v3.17h1.22l2.37-3.17h2.14l-2.98,4.03-.43-.62c.3.03.56.11.79.24.23.13.45.31.66.54s.41.52.62.87l1.7,3.02h-2.13l-1.38-2.43c-.14-.25-.28-.44-.42-.58s-.29-.24-.46-.29c-.17-.05-.38-.08-.62-.08h-1.07v3.38h-1.98Z"/>
          <path class="cls-3" d="m867.74,76.04h-1.6c.55-1.23.97-2.42,1.24-3.59.27-1.17.41-2.33.41-3.5s-.14-2.32-.41-3.49c-.27-1.16-.69-2.36-1.24-3.58h1.6c.51.78.92,1.55,1.23,2.3.31.76.53,1.53.67,2.31.14.78.21,1.6.21,2.46s-.07,1.68-.21,2.46-.36,1.56-.67,2.32c-.31.76-.72,1.52-1.23,2.3Z"/>
        </g>
        <g>
          <path class="cls-3" d="m412.97,119.1c-.77,0-1.5-.11-2.21-.34-.7-.23-1.29-.56-1.76-.98l.58-1.26c.52.41,1.06.71,1.6.9.54.19,1.12.29,1.74.29.79,0,1.39-.17,1.8-.5.41-.33.62-.81.62-1.42s-.21-1.07-.62-1.38c-.41-.31-1.02-.47-1.82-.47h-1.74v-1.34h1.62c.68,0,1.23-.17,1.63-.52s.61-.82.61-1.42c0-.54-.19-.96-.56-1.26-.37-.29-.91-.44-1.6-.44-1.17,0-2.2.41-3.09,1.23l-.56-1.26c.44-.44.99-.78,1.66-1.02.67-.24,1.38-.36,2.11-.36,1.13,0,2.02.26,2.67.78s.98,1.23.98,2.15c0,.69-.2,1.29-.58,1.78-.39.49-.92.82-1.59.98v-.18c.8.13,1.42.45,1.85.95.43.51.65,1.14.65,1.9,0,1-.35,1.79-1.06,2.36-.71.57-1.68.86-2.92.86Z"/>
          <path class="cls-3" d="m423.37,118.95v-8.06h1.34l2.91,5.15,2.91-5.15h1.34v8.06h-1.42v-6.26h.35l-2.8,4.96h-.77l-2.8-4.96h.35v6.26h-1.42Z"/>
          <path class="cls-3" d="m434.31,118.95v-8.06h1.34l2.91,5.15,2.91-5.15h1.34v8.06h-1.42v-6.26h.35l-2.8,4.96h-.77l-2.8-4.96h.35v6.26h-1.42Z"/>
        </g>
        <g>
          <path class="cls-3" d="m499.51,119.1c-.49,0-.98-.05-1.46-.16-.48-.11-.93-.26-1.34-.46s-.78-.43-1.09-.71l.58-1.26c.51.4,1.04.69,1.58.89s1.11.3,1.7.3c.76,0,1.35-.2,1.78-.59.43-.39.65-.92.65-1.58s-.21-1.23-.62-1.66c-.41-.42-.98-.63-1.7-.63-.5,0-.96.1-1.37.3-.41.2-.77.51-1.08.93h-1.15v-6.78h6.83v1.39h-5.25v4.06h-.42c.29-.41.67-.72,1.16-.94s1.03-.34,1.64-.34c.72,0,1.35.15,1.89.45s.95.71,1.24,1.25c.29.53.44,1.16.44,1.89s-.16,1.36-.49,1.91c-.33.55-.79.98-1.39,1.29-.6.31-1.31.46-2.14.46Z"/>
          <path class="cls-3" d="m509.64,118.95v-8.06h1.34l2.91,5.15,2.91-5.15h1.34v8.06h-1.42v-6.26h.35l-2.8,4.96h-.77l-2.8-4.96h.35v6.26h-1.42Z"/>
          <path class="cls-3" d="m520.58,118.95v-8.06h1.34l2.91,5.15,2.91-5.15h1.34v8.06h-1.42v-6.26h.35l-2.8,4.96h-.77l-2.8-4.96h.35v6.26h-1.42Z"/>
        </g>
        <g>
          <path class="cls-3" d="m594.94,119.2l5.02-11.28h1.42l5.1,11.28h-1.71l-1.39-3.2.7.45h-6.83l.75-.45-1.39,3.2h-1.68Zm5.71-9.46l-2.43,5.74-.38-.37h5.68l-.32.37-2.48-5.74h-.06Z"/>
          <path class="cls-3" d="m611.34,119.35c-.77,0-1.5-.11-2.21-.34-.7-.23-1.29-.56-1.76-.98l.58-1.26c.52.41,1.06.71,1.6.9.54.19,1.13.29,1.74.29.79,0,1.39-.17,1.8-.5.41-.33.62-.81.62-1.42s-.21-1.07-.62-1.38c-.41-.31-1.02-.47-1.82-.47h-1.74v-1.34h1.62c.68,0,1.23-.17,1.63-.52s.61-.82.61-1.42c0-.54-.19-.96-.56-1.26-.37-.29-.91-.44-1.6-.44-1.17,0-2.2.41-3.09,1.23l-.56-1.26c.44-.44.99-.78,1.66-1.02.67-.24,1.38-.36,2.11-.36,1.13,0,2.02.26,2.67.78s.98,1.23.98,2.15c0,.69-.2,1.29-.58,1.78-.39.49-.92.82-1.59.98v-.18c.8.13,1.42.45,1.85.95.43.51.65,1.14.65,1.9,0,1-.35,1.79-1.06,2.36-.71.57-1.68.86-2.92.86Z"/>
        </g>
        <g>
          <path class="cls-3" d="m689.81,119.2l5.02-11.28h1.42l5.1,11.28h-1.71l-1.39-3.2.7.45h-6.83l.75-.45-1.39,3.2h-1.68Zm5.71-9.46l-2.43,5.74-.38-.37h5.68l-.32.37-2.48-5.74h-.06Z"/>
          <path class="cls-3" d="m707.48,119.2v-2.34h-5.22v-1.18l5.49-7.76h1.34v7.65h1.68v1.3h-1.68v2.34h-1.62Zm0-3.63v-5.68h.37l-4.29,6.08v-.4h3.92Z"/>
        </g>
        <g>
          <path class="cls-3" d="m784.67,119.2l5.02-11.28h1.42l5.1,11.28h-1.71l-1.39-3.2.7.45h-6.83l.75-.45-1.39,3.2h-1.68Zm5.71-9.46l-2.43,5.74-.38-.37h5.68l-.32.37-2.48-5.74h-.06Z"/>
          <path class="cls-3" d="m801.34,119.35c-.49,0-.98-.05-1.46-.16-.48-.11-.93-.26-1.34-.46s-.78-.43-1.09-.71l.58-1.26c.51.4,1.04.69,1.58.89s1.11.3,1.7.3c.76,0,1.35-.2,1.78-.59.43-.39.65-.92.65-1.58s-.21-1.23-.62-1.66c-.41-.42-.98-.63-1.7-.63-.5,0-.96.1-1.37.3-.41.2-.77.51-1.08.93h-1.15v-6.78h6.83v1.39h-5.25v4.06h-.42c.29-.41.67-.72,1.16-.94s1.03-.34,1.64-.34c.72,0,1.35.15,1.89.45s.95.71,1.24,1.25c.29.53.44,1.16.44,1.89s-.16,1.36-.49,1.91c-.33.55-.79.98-1.39,1.29-.6.31-1.31.46-2.14.46Z"/>
        </g>
        <g>
          <path class="cls-3" d="m876.6,112.2v-11.28h9.63v11.28h-1.65v-9.9h-6.34v9.9h-1.65Z"/>
          <path class="cls-3" d="m892.3,112.35c-.8,0-1.49-.17-2.08-.5-.59-.34-1.04-.82-1.36-1.44s-.48-1.37-.48-2.23.16-1.61.48-2.23c.32-.62.77-1.1,1.36-1.44.59-.34,1.28-.5,2.08-.5s1.5.17,2.09.5c.59.34,1.05.82,1.38,1.44.33.62.49,1.37.49,2.23s-.16,1.61-.49,2.23c-.33.62-.78,1.1-1.38,1.44-.59.34-1.29.5-2.09.5Zm0-1.26c.7,0,1.26-.25,1.68-.74.42-.49.62-1.22.62-2.18s-.21-1.68-.62-2.17-.98-.73-1.68-.73-1.25.24-1.66.73-.62,1.21-.62,2.17.21,1.69.62,2.18c.41.49.97.74,1.67.74Z"/>
          <path class="cls-3" d="m897.45,114.28v-3.33h.9c.35-.53.61-1.16.77-1.87.16-.71.24-1.58.24-2.59v-2.35h5.9v6.82h1.3v3.33h-1.39v-2.08h-6.32v2.08h-1.39Zm2.38-3.31h3.9v-5.58h-2.99v1.42c0,.78-.08,1.54-.23,2.28-.15.74-.38,1.37-.68,1.88Z"/>
          <path class="cls-3" d="m860.98,126.2v-8.06h4.06c.97,0,1.69.18,2.15.55.46.37.7.89.7,1.56,0,.52-.17.96-.52,1.3-.35.34-.8.55-1.37.62v-.21c.67.03,1.2.23,1.58.59.38.36.58.83.58,1.41,0,.69-.26,1.24-.78,1.64-.52.4-1.25.6-2.2.6h-4.21Zm1.52-4.62h2.38c.48,0,.85-.11,1.12-.32.27-.21.4-.51.4-.88s-.13-.68-.4-.89-.64-.31-1.12-.31h-2.38v2.4Zm0,3.58h2.56c.52,0,.92-.11,1.2-.33.28-.22.42-.54.42-.95s-.14-.73-.42-.94-.68-.32-1.2-.32h-2.56v2.54Z"/>
          <path class="cls-3" d="m870.07,126.2v-8.06h1.47v6.51h-.45l4.86-6.51h1.34v8.06h-1.46v-6.53h.46l-4.9,6.53h-1.34Z"/>
          <path class="cls-3" d="m882.53,126.35c-.7,0-1.37-.09-1.98-.26-.62-.18-1.13-.43-1.52-.76l.5-1.09c.39.31.85.54,1.36.7.51.15,1.06.23,1.65.23.74,0,1.27-.11,1.61-.33.34-.22.5-.53.5-.94s-.14-.69-.42-.9c-.28-.2-.68-.3-1.22-.3h-1.98v-1.15h1.82c.48,0,.85-.1,1.12-.3s.4-.49.4-.85c0-.38-.15-.68-.46-.9s-.79-.32-1.44-.32c-.55,0-1.06.07-1.52.21s-.9.35-1.31.62l-.48-1.04c.44-.33.96-.58,1.55-.74.6-.16,1.24-.24,1.94-.24,1.04,0,1.84.19,2.38.58s.82.95.82,1.67c0,.5-.17.93-.5,1.28-.34.35-.79.57-1.35.64v-.21c.65.03,1.17.23,1.56.58.39.36.58.83.58,1.42,0,.73-.31,1.3-.92,1.74s-1.51.65-2.68.65Z"/>
          <path class="cls-3" d="m888.02,126.2v-8.06h1.47v6.51h-.45l4.86-6.51h1.34v8.06h-1.46v-6.53h.46l-4.9,6.53h-1.34Z"/>
          <path class="cls-3" d="m899.41,126.2v-6.77h-2.85v-1.3h7.31v1.3h-2.86v6.77h-1.6Z"/>
          <path class="cls-3" d="m905.17,126.2v-8.06h1.6v3.3h1.39l2.51-3.3h1.76l-3.01,3.97-.4-.51c.31.03.58.11.8.23s.44.3.66.54c.21.23.43.54.66.93l1.68,2.91h-1.73l-1.44-2.46c-.16-.28-.32-.49-.46-.65-.15-.16-.32-.26-.51-.32-.19-.06-.43-.09-.7-.09h-1.2v3.52h-1.6Z"/>
          <path class="cls-3" d="m914,126.2v-8.06h1.47v6.51h-.45l4.86-6.51h1.34v8.06h-1.46v-6.53h.46l-4.9,6.53h-1.34Z"/>
        </g>
        <g>
          <path class="cls-3" d="m573.03,164.93c-.49,0-.98-.05-1.46-.16-.48-.11-.93-.26-1.34-.46-.42-.2-.78-.43-1.09-.71l.58-1.26c.51.4,1.04.69,1.58.89.54.2,1.11.3,1.7.3.76,0,1.35-.2,1.78-.59s.65-.92.65-1.58-.21-1.23-.62-1.66c-.41-.42-.98-.63-1.7-.63-.5,0-.96.1-1.37.3s-.77.51-1.08.93h-1.15v-6.78h6.83v1.39h-5.25v4.06h-.42c.29-.41.68-.72,1.16-.94.49-.22,1.03-.34,1.64-.34.72,0,1.35.15,1.89.45s.95.71,1.24,1.25c.29.53.44,1.16.44,1.89s-.16,1.36-.49,1.91c-.33.55-.79.98-1.39,1.29-.6.31-1.31.46-2.14.46Z"/>
          <path class="cls-3" d="m582.47,164.93c-1.3,0-2.3-.5-3-1.5-.7-1-1.05-2.43-1.05-4.3s.35-3.34,1.05-4.31,1.7-1.46,3-1.46,2.31.49,3.01,1.46c.69.98,1.04,2.41,1.04,4.3s-.35,3.31-1.05,4.31c-.7,1-1.7,1.5-3,1.5Zm0-1.39c.82,0,1.43-.36,1.83-1.07.4-.71.6-1.83.6-3.34s-.2-2.64-.6-3.34c-.4-.7-1.01-1.05-1.83-1.05s-1.42.35-1.82,1.05c-.41.7-.61,1.81-.61,3.32s.21,2.64.62,3.36c.41.71,1.02,1.07,1.82,1.07Z"/>
          <path class="cls-3" d="m588.87,164.79l5.54-10.51v.64h-6.18v-1.41h7.68v1.23l-5.22,10.05h-1.82Z"/>
          <path class="cls-3" d="m602.42,168.24v-9.58c0-.31-.01-.63-.04-.95-.03-.33-.06-.65-.09-.98h1.57l.16,1.82h-.18c.17-.61.51-1.09,1.03-1.44.52-.35,1.13-.53,1.85-.53s1.34.17,1.87.5.95.81,1.24,1.43c.29.62.44,1.37.44,2.24s-.15,1.61-.44,2.24c-.29.63-.71,1.11-1.24,1.44-.53.33-1.16.5-1.87.5s-1.32-.17-1.83-.52c-.52-.35-.86-.82-1.03-1.42h.18v5.25h-1.62Zm3.9-4.58c.7,0,1.27-.25,1.69-.74.42-.49.63-1.22.63-2.18s-.21-1.68-.63-2.17-.98-.73-1.69-.73-1.27.24-1.69.73-.63,1.21-.63,2.17.21,1.69.63,2.18c.42.49.98.74,1.69.74Z"/>
          <path class="cls-3" d="m611.76,164.79v-1.9h1.9v1.9h-1.9Z"/>
          <path class="cls-3" d="m616.64,165.7h-1.36l4.19-12.91h1.36l-4.19,12.91Z"/>
          <path class="cls-3" d="m620.72,164.79v-8.06h1.52v6.8h3.15v-6.8h1.52v6.8h3.14v-6.8h1.54v8.06h-10.86Z"/>
          <path class="cls-3" d="m635.75,164.79v-6.77h-2.85v-1.3h7.31v1.3h-2.86v6.77h-1.6Z"/>
          <path class="cls-3" d="m640.12,164.79v-1.9h1.9v1.9h-1.9Z"/>
        </g>
        <path class="cls-3" d="m603.17,207.6v-1.3h4.69v1.3h-4.69Z"/>
        <path class="cls-3" d="m698.04,207.6v-1.3h4.69v1.3h-4.69Z"/>
        <path class="cls-3" d="m792.9,207.6v-1.3h4.69v1.3h-4.69Z"/>
        <path class="cls-3" d="m888.76,207.6v-1.3h4.69v1.3h-4.69Z"/>
        <g>
          <path class="cls-3" d="m664.27,164.79v-1.23l3.87-4.05c.5-.52.88-1.01,1.12-1.47s.37-.93.37-1.42c0-.61-.19-1.07-.57-1.38s-.93-.46-1.64-.46c-.57,0-1.1.1-1.59.3-.5.2-.97.51-1.43.93l-.58-1.26c.45-.42,1.01-.75,1.67-1,.67-.25,1.37-.38,2.12-.38,1.17,0,2.08.27,2.71.8.63.53.95,1.3.95,2.29,0,.7-.17,1.38-.51,2.02-.34.65-.85,1.31-1.54,1.99l-3.34,3.38v-.45h5.86v1.39h-7.47Z"/>
          <path class="cls-3" d="m677.5,164.93c-.49,0-.98-.05-1.46-.16-.48-.11-.93-.26-1.34-.46-.42-.2-.78-.43-1.09-.71l.58-1.26c.51.4,1.04.69,1.58.89.54.2,1.11.3,1.7.3.76,0,1.35-.2,1.78-.59.43-.39.65-.92.65-1.58s-.21-1.23-.62-1.66c-.41-.42-.98-.63-1.7-.63-.5,0-.96.1-1.37.3-.41.2-.77.51-1.08.93h-1.15v-6.78h6.83v1.39h-5.25v4.06h-.42c.29-.41.67-.72,1.16-.94.49-.22,1.03-.34,1.64-.34.73,0,1.35.15,1.89.45s.95.71,1.24,1.25.44,1.16.44,1.89-.16,1.36-.49,1.91c-.33.55-.79.98-1.39,1.29-.6.31-1.32.46-2.14.46Z"/>
          <path class="cls-3" d="m686.83,164.93c-.77,0-1.5-.12-2.21-.34s-1.29-.56-1.76-.98l.58-1.26c.52.41,1.06.7,1.6.9s1.13.29,1.74.29c.79,0,1.39-.17,1.8-.5.41-.33.62-.81.62-1.42s-.21-1.07-.62-1.38c-.41-.31-1.02-.47-1.82-.47h-1.74v-1.34h1.62c.68,0,1.23-.17,1.63-.52.41-.35.61-.82.61-1.42,0-.54-.19-.96-.56-1.26s-.91-.44-1.6-.44c-1.17,0-2.2.41-3.09,1.23l-.56-1.26c.44-.44.99-.78,1.66-1.02s1.38-.36,2.11-.36c1.13,0,2.02.26,2.67.78.65.52.98,1.24.98,2.15,0,.69-.19,1.29-.58,1.78-.39.49-.92.82-1.59.98v-.18c.8.13,1.42.45,1.85.95.43.51.65,1.14.65,1.9,0,1-.35,1.79-1.06,2.36-.71.57-1.68.86-2.92.86Z"/>
          <path class="cls-3" d="m697.29,168.24v-9.58c0-.31-.01-.63-.04-.95-.03-.33-.06-.65-.09-.98h1.57l.16,1.82h-.18c.17-.61.51-1.09,1.03-1.44.52-.35,1.13-.53,1.85-.53s1.34.17,1.87.5.95.81,1.24,1.43c.29.62.44,1.37.44,2.24s-.15,1.61-.44,2.24c-.29.63-.71,1.11-1.24,1.44-.53.33-1.16.5-1.87.5s-1.31-.17-1.83-.52-.86-.82-1.03-1.42h.18v5.25h-1.62Zm3.9-4.58c.7,0,1.27-.25,1.69-.74.42-.49.63-1.22.63-2.18s-.21-1.68-.63-2.17c-.42-.49-.98-.73-1.69-.73s-1.27.24-1.69.73c-.42.49-.63,1.21-.63,2.17s.21,1.69.63,2.18c.42.49.98.74,1.69.74Z"/>
          <path class="cls-3" d="m706.64,164.79v-1.9h1.9v1.9h-1.9Z"/>
          <path class="cls-3" d="m711.52,165.7h-1.36l4.19-12.91h1.36l-4.19,12.91Z"/>
          <path class="cls-3" d="m715.6,164.79v-8.06h1.52v6.8h3.15v-6.8h1.52v6.8h3.14v-6.8h1.54v8.06h-10.86Z"/>
          <path class="cls-3" d="m730.62,164.79v-6.77h-2.85v-1.3h7.31v1.3h-2.86v6.77h-1.6Z"/>
          <path class="cls-3" d="m734.99,164.79v-1.9h1.9v1.9h-1.9Z"/>
        </g>
        <g>
          <path class="cls-3" d="m759.72,164.79v-1.39h2.62v-8.48h.83l-3.2,1.95v-1.6l2.83-1.76h1.2v9.89h2.46v1.39h-6.75Z"/>
          <path class="cls-3" d="m772.58,164.93c-1.4,0-2.47-.49-3.22-1.46s-1.13-2.33-1.13-4.08c0-1.3.19-2.4.58-3.29.38-.89.93-1.57,1.64-2.04.71-.47,1.57-.7,2.57-.7.6,0,1.19.12,1.79.34.6.23,1.1.55,1.5.97l-.59,1.25c-.39-.38-.83-.67-1.3-.87-.47-.19-.94-.29-1.42-.29-1.03,0-1.82.36-2.37,1.08-.54.72-.82,1.79-.82,3.22v1.36h-.16c.07-.58.26-1.07.54-1.5s.66-.74,1.12-.97c.46-.22.97-.34,1.54-.34.67,0,1.27.16,1.78.46.52.31.92.73,1.22,1.27s.45,1.15.45,1.85-.16,1.36-.48,1.92c-.32.57-.76,1.01-1.32,1.32-.56.31-1.2.47-1.93.47Zm-.1-1.34c.45,0,.84-.1,1.18-.29.34-.19.6-.46.79-.81s.29-.75.29-1.21-.1-.86-.29-1.2c-.19-.34-.46-.61-.79-.81s-.73-.3-1.18-.3-.84.1-1.18.3c-.34.2-.61.47-.8.81-.19.34-.29.74-.29,1.2s.1.86.29,1.21c.19.35.46.62.8.81.34.19.74.29,1.18.29Z"/>
          <path class="cls-3" d="m781,164.93c-.6,0-1.19-.12-1.79-.36-.6-.24-1.1-.56-1.5-.95l.59-1.26c.39.38.83.67,1.3.87.47.2.94.3,1.42.3,1.02,0,1.81-.36,2.36-1.08.55-.72.82-1.79.82-3.22v-1.36h.16c-.06.57-.25,1.06-.54,1.49-.3.43-.67.75-1.13.98-.45.22-.96.34-1.53.34-.66,0-1.26-.16-1.78-.46-.53-.31-.94-.74-1.23-1.28-.29-.54-.44-1.16-.44-1.84,0-.73.16-1.37.48-1.93.32-.56.76-1,1.31-1.31.55-.31,1.19-.47,1.92-.47,1.41,0,2.49.48,3.24,1.45.75.97,1.13,2.33,1.13,4.09,0,1.29-.19,2.38-.57,3.28-.38.9-.92,1.58-1.64,2.05-.71.47-1.57.71-2.58.71Zm.53-5.63c.45,0,.84-.1,1.18-.29.34-.19.61-.46.8-.81.19-.35.29-.74.29-1.19s-.1-.86-.29-1.21c-.19-.35-.46-.62-.8-.82-.34-.2-.74-.3-1.18-.3s-.84.1-1.18.3-.6.47-.79.82c-.19.35-.29.75-.29,1.21s.1.84.29,1.19c.19.35.46.62.79.81.34.19.73.29,1.18.29Z"/>
          <path class="cls-3" d="m792.15,168.24v-9.58c0-.31-.01-.63-.04-.95-.03-.33-.06-.65-.09-.98h1.57l.16,1.82h-.18c.17-.61.51-1.09,1.03-1.44.52-.35,1.13-.53,1.85-.53s1.34.17,1.87.5c.53.34.95.81,1.24,1.43.29.62.44,1.37.44,2.24s-.15,1.61-.44,2.24c-.29.63-.71,1.11-1.24,1.44-.53.33-1.16.5-1.87.5s-1.32-.17-1.83-.52c-.52-.35-.86-.82-1.03-1.42h.18v5.25h-1.62Zm3.9-4.58c.7,0,1.27-.25,1.69-.74.42-.49.63-1.22.63-2.18s-.21-1.68-.63-2.17c-.42-.49-.98-.73-1.69-.73s-1.27.24-1.69.73c-.42.49-.63,1.21-.63,2.17s.21,1.69.63,2.18c.42.49.98.74,1.69.74Z"/>
          <path class="cls-3" d="m801.5,164.79v-1.9h1.9v1.9h-1.9Z"/>
          <path class="cls-3" d="m806.38,165.7h-1.36l4.19-12.91h1.36l-4.19,12.91Z"/>
          <path class="cls-3" d="m810.46,164.79v-8.06h1.52v6.8h3.15v-6.8h1.52v6.8h3.14v-6.8h1.54v8.06h-10.86Z"/>
          <path class="cls-3" d="m825.48,164.79v-6.77h-2.85v-1.3h7.31v1.3h-2.86v6.77h-1.6Z"/>
          <path class="cls-3" d="m829.85,164.79v-1.9h1.9v1.9h-1.9Z"/>
        </g>
        <g>
          <path class="cls-3" d="m858.35,164.93c-.77,0-1.5-.12-2.21-.34s-1.29-.56-1.76-.98l.58-1.26c.52.41,1.06.7,1.6.9s1.12.29,1.74.29c.79,0,1.39-.17,1.8-.5.41-.33.62-.81.62-1.42s-.21-1.07-.62-1.38c-.41-.31-1.02-.47-1.82-.47h-1.74v-1.34h1.62c.68,0,1.23-.17,1.63-.52.41-.35.61-.82.61-1.42,0-.54-.19-.96-.56-1.26-.37-.29-.91-.44-1.6-.44-1.17,0-2.2.41-3.09,1.23l-.56-1.26c.44-.44.99-.78,1.66-1.02.67-.24,1.38-.36,2.11-.36,1.13,0,2.02.26,2.67.78.65.52.98,1.24.98,2.15,0,.69-.2,1.29-.58,1.78-.39.49-.92.82-1.59.98v-.18c.8.13,1.42.45,1.85.95.43.51.65,1.14.65,1.9,0,1-.35,1.79-1.06,2.36-.71.57-1.68.86-2.92.86Z"/>
          <path class="cls-3" d="m864.59,164.79v-1.23l3.87-4.05c.5-.52.88-1.01,1.12-1.47s.37-.93.37-1.42c0-.61-.19-1.07-.57-1.38s-.93-.46-1.64-.46c-.57,0-1.1.1-1.59.3-.5.2-.97.51-1.43.93l-.58-1.26c.45-.42,1.01-.75,1.67-1,.67-.25,1.37-.38,2.12-.38,1.17,0,2.08.27,2.71.8.63.53.95,1.3.95,2.29,0,.7-.17,1.38-.51,2.02-.34.65-.85,1.31-1.54,1.99l-3.34,3.38v-.45h5.86v1.39h-7.47Z"/>
          <path class="cls-3" d="m877.82,164.93c-.49,0-.98-.05-1.46-.16-.48-.11-.93-.26-1.34-.46-.42-.2-.78-.43-1.09-.71l.58-1.26c.51.4,1.04.69,1.58.89.54.2,1.11.3,1.7.3.76,0,1.35-.2,1.78-.59.43-.39.65-.92.65-1.58s-.21-1.23-.62-1.66c-.41-.42-.98-.63-1.7-.63-.5,0-.96.1-1.37.3-.41.2-.77.51-1.08.93h-1.15v-6.78h6.83v1.39h-5.25v4.06h-.42c.29-.41.67-.72,1.16-.94.49-.22,1.03-.34,1.64-.34.72,0,1.35.15,1.89.45s.95.71,1.24,1.25c.29.53.44,1.16.44,1.89s-.16,1.36-.49,1.91c-.33.55-.79.98-1.39,1.29-.6.31-1.31.46-2.14.46Z"/>
          <path class="cls-3" d="m888.01,168.24v-9.58c0-.31-.01-.63-.04-.95-.03-.33-.06-.65-.09-.98h1.57l.16,1.82h-.18c.17-.61.51-1.09,1.03-1.44.52-.35,1.13-.53,1.85-.53s1.34.17,1.87.5.95.81,1.24,1.43c.29.62.44,1.37.44,2.24s-.15,1.61-.44,2.24c-.29.63-.71,1.11-1.24,1.44-.53.33-1.16.5-1.87.5s-1.31-.17-1.83-.52-.86-.82-1.03-1.42h.18v5.25h-1.62Zm3.9-4.58c.7,0,1.27-.25,1.69-.74.42-.49.63-1.22.63-2.18s-.21-1.68-.63-2.17c-.42-.49-.98-.73-1.69-.73s-1.27.24-1.69.73c-.42.49-.63,1.21-.63,2.17s.21,1.69.63,2.18c.42.49.98.74,1.69.74Z"/>
          <path class="cls-3" d="m897.35,164.79v-1.9h1.9v1.9h-1.9Z"/>
          <path class="cls-3" d="m902.23,165.7h-1.36l4.19-12.91h1.36l-4.19,12.91Z"/>
          <path class="cls-3" d="m906.31,164.79v-8.06h1.52v6.8h3.15v-6.8h1.52v6.8h3.14v-6.8h1.54v8.06h-10.86Z"/>
          <path class="cls-3" d="m921.34,164.79v-6.77h-2.85v-1.3h7.31v1.3h-2.86v6.77h-1.6Z"/>
          <path class="cls-3" d="m925.71,164.79v-1.9h1.9v1.9h-1.9Z"/>
        </g>
        <g>
          <path class="cls-3" d="m446.57,165.55c-1.4,0-2.47-.49-3.22-1.46s-1.13-2.33-1.13-4.08c0-1.3.19-2.4.58-3.29.38-.89.93-1.57,1.64-2.04.71-.47,1.57-.7,2.57-.7.6,0,1.19.12,1.79.34.6.23,1.1.55,1.5.97l-.59,1.25c-.39-.38-.83-.67-1.3-.86-.47-.19-.94-.29-1.42-.29-1.03,0-1.82.36-2.37,1.08-.54.72-.82,1.79-.82,3.22v1.36h-.16c.07-.58.26-1.07.54-1.5.29-.42.66-.74,1.12-.97.46-.22.97-.34,1.54-.34.67,0,1.27.16,1.78.46.52.31.92.73,1.22,1.27.3.54.45,1.16.45,1.85s-.16,1.35-.48,1.92-.76,1-1.32,1.32c-.56.32-1.2.47-1.93.47Zm-.1-1.34c.45,0,.84-.1,1.18-.29s.6-.46.79-.81c.19-.35.29-.75.29-1.21s-.1-.86-.29-1.2-.46-.61-.79-.81-.73-.3-1.18-.3-.84.1-1.18.3c-.34.2-.61.47-.8.81-.19.34-.29.74-.29,1.2s.1.86.29,1.21c.19.35.46.62.8.81.34.19.74.29,1.18.29Z"/>
          <path class="cls-3" d="m452.59,165.41l5.54-10.51v.64h-6.18v-1.41h7.68v1.23l-5.22,10.05h-1.82Z"/>
          <path class="cls-3" d="m465.77,165.55c-1.4,0-2.47-.49-3.22-1.46s-1.13-2.33-1.13-4.08c0-1.3.19-2.4.58-3.29s.93-1.57,1.64-2.04c.71-.47,1.57-.7,2.57-.7.6,0,1.19.12,1.79.34.6.23,1.1.55,1.5.97l-.59,1.25c-.39-.38-.83-.67-1.3-.86-.47-.19-.94-.29-1.42-.29-1.04,0-1.82.36-2.37,1.08-.54.72-.82,1.79-.82,3.22v1.36h-.16c.08-.58.26-1.07.54-1.5.29-.42.66-.74,1.12-.97.46-.22.97-.34,1.54-.34.67,0,1.27.16,1.78.46.52.31.92.73,1.22,1.27.3.54.45,1.16.45,1.85s-.16,1.35-.48,1.92c-.32.57-.76,1-1.32,1.32-.56.32-1.2.47-1.93.47Zm-.1-1.34c.45,0,.84-.1,1.18-.29s.6-.46.79-.81c.19-.35.29-.75.29-1.21s-.1-.86-.29-1.2c-.19-.34-.46-.61-.79-.81s-.73-.3-1.18-.3-.84.1-1.18.3c-.34.2-.61.47-.8.81-.19.34-.29.74-.29,1.2s.1.86.29,1.21c.19.35.46.62.8.81.34.19.74.29,1.18.29Z"/>
          <path class="cls-3" d="m474.99,165.55c-1.3,0-2.3-.5-3-1.5-.7-1-1.05-2.43-1.05-4.3s.35-3.34,1.05-4.31c.7-.98,1.7-1.46,3-1.46s2.31.49,3.01,1.46c.69.98,1.04,2.41,1.04,4.29s-.35,3.32-1.05,4.31c-.7,1-1.7,1.5-3,1.5Zm0-1.39c.82,0,1.43-.36,1.83-1.07.4-.71.6-1.83.6-3.34s-.2-2.64-.6-3.34c-.4-.7-1.01-1.05-1.83-1.05s-1.42.35-1.82,1.05c-.41.7-.61,1.81-.61,3.32s.21,2.65.62,3.36c.41.71,1.02,1.07,1.82,1.07Z"/>
          <path class="cls-3" d="m485.34,168.86v-9.58c0-.31-.01-.63-.04-.95-.03-.32-.06-.65-.09-.98h1.57l.16,1.82h-.18c.17-.61.51-1.09,1.03-1.44.52-.35,1.13-.53,1.85-.53s1.34.17,1.87.5.95.81,1.24,1.43c.29.62.44,1.37.44,2.24s-.15,1.61-.44,2.24c-.29.63-.71,1.11-1.24,1.44s-1.16.5-1.87.5-1.31-.17-1.83-.52c-.52-.35-.86-.82-1.03-1.42h.18v5.25h-1.62Zm3.9-4.58c.7,0,1.27-.25,1.69-.74.42-.49.63-1.22.63-2.18s-.21-1.68-.63-2.17c-.42-.49-.98-.73-1.69-.73s-1.27.24-1.69.73c-.42.49-.63,1.21-.63,2.17s.21,1.69.63,2.18c.42.49.98.74,1.69.74Z"/>
          <path class="cls-3" d="m494.69,165.41v-1.9h1.9v1.9h-1.9Z"/>
        </g>
        <g>
          <path class="cls-3" d="m446.35,211.34c-.49,0-.98-.05-1.46-.16-.48-.11-.93-.26-1.34-.46s-.78-.44-1.09-.71l.58-1.26c.51.39,1.04.69,1.58.89s1.11.29,1.7.29c.76,0,1.35-.2,1.78-.59.43-.39.65-.92.65-1.58s-.21-1.23-.62-1.66c-.41-.42-.98-.63-1.7-.63-.5,0-.96.1-1.37.3-.41.2-.77.51-1.08.93h-1.15v-6.78h6.83v1.39h-5.25v4.06h-.42c.29-.41.67-.72,1.16-.94.49-.22,1.03-.34,1.64-.34.72,0,1.35.15,1.89.45.53.3.95.71,1.24,1.25.29.53.44,1.16.44,1.89s-.16,1.36-.49,1.91c-.33.55-.79.98-1.39,1.29-.6.31-1.31.46-2.14.46Z"/>
          <path class="cls-3" d="m455.79,211.34c-1.3,0-2.3-.5-3-1.5-.7-1-1.05-2.43-1.05-4.29s.35-3.34,1.05-4.31c.7-.98,1.7-1.46,3-1.46s2.31.49,3.01,1.46c.69.98,1.04,2.41,1.04,4.3s-.35,3.32-1.05,4.31c-.7,1-1.7,1.5-3,1.5Zm0-1.39c.82,0,1.43-.36,1.83-1.07.4-.71.6-1.83.6-3.34s-.2-2.64-.6-3.34c-.4-.7-1.01-1.05-1.83-1.05s-1.42.35-1.82,1.05c-.41.7-.61,1.81-.61,3.32s.21,2.65.62,3.36c.41.71,1.02,1.07,1.82,1.07Z"/>
          <path class="cls-3" d="m462.19,211.2l5.54-10.51v.64h-6.18v-1.41h7.68v1.23l-5.22,10.05h-1.82Z"/>
          <path class="cls-3" d="m474.99,211.34c-1.3,0-2.3-.5-3-1.5-.7-1-1.05-2.43-1.05-4.29s.35-3.34,1.05-4.31c.7-.98,1.7-1.46,3-1.46s2.31.49,3.01,1.46c.69.98,1.04,2.41,1.04,4.3s-.35,3.32-1.05,4.31c-.7,1-1.7,1.5-3,1.5Zm0-1.39c.82,0,1.43-.36,1.83-1.07.4-.71.6-1.83.6-3.34s-.2-2.64-.6-3.34c-.4-.7-1.01-1.05-1.83-1.05s-1.42.35-1.82,1.05c-.41.7-.61,1.81-.61,3.32s.21,2.65.62,3.36c.41.71,1.02,1.07,1.82,1.07Z"/>
          <path class="cls-3" d="m485.34,214.65v-9.58c0-.31-.01-.63-.04-.95-.03-.33-.06-.65-.09-.98h1.57l.16,1.82h-.18c.17-.61.51-1.09,1.03-1.44.52-.35,1.13-.53,1.85-.53s1.34.17,1.87.5.95.81,1.24,1.43c.29.62.44,1.37.44,2.24s-.15,1.61-.44,2.24c-.29.63-.71,1.11-1.24,1.44-.53.33-1.16.5-1.87.5s-1.31-.17-1.83-.52-.86-.82-1.03-1.42h.18v5.25h-1.62Zm3.9-4.58c.7,0,1.27-.25,1.69-.74.42-.49.63-1.21.63-2.18s-.21-1.68-.63-2.17c-.42-.48-.98-.73-1.69-.73s-1.27.24-1.69.73c-.42.49-.63,1.21-.63,2.17s.21,1.69.63,2.18c.42.49.98.74,1.69.74Z"/>
          <path class="cls-3" d="m494.69,211.2v-1.9h1.9v1.9h-1.9Z"/>
        </g>
      </g>
    </g>
  </g>
</svg>