<?xml version="1.0" encoding="UTF-8"?>
<svg id="_Слой_2" data-name="Слой 2" xmlns="http://www.w3.org/2000/svg" viewBox="0 0 938.93 230.7">
  <defs>
    <style>
      .cls-1 {
        font-family: Mulish-Bold, Mulish;
        font-weight: 700;
      }

      .cls-1, .cls-2, .cls-3 {
        fill: #27625f;
      }

      .cls-1, .cls-3 {
        font-size: 16px;
      }

      .cls-4 {
        fill: #fff;
      }

      .cls-4, .cls-5 {
        stroke: #a0b6b5;
        stroke-miterlimit: 10;
      }

      .cls-2 {
        stroke-width: 0px;
      }

      .cls-3 {
        font-family: Mulish-SemiBold, Mulish;
        font-weight: 600;
      }

      .cls-6 {
        letter-spacing: -.06em;
      }

      .cls-7 {
        letter-spacing: .07em;
      }

      .cls-8 {
        letter-spacing: -.07em;
      }

      .cls-9 {
        letter-spacing: 0em;
      }

      .cls-10 {
        letter-spacing: 0em;
      }

      .cls-11 {
        letter-spacing: 0em;
      }

      .cls-12 {
        letter-spacing: -.02em;
      }

      .cls-13 {
        letter-spacing: -.08em;
      }

      .cls-14 {
        letter-spacing: -.01em;
      }

      .cls-5 {
        fill: none;
      }
    </style>
  </defs>
  <g id="_Слой_1-2" data-name="Слой 1">
    <g>
      <g>
        <rect class="cls-4" x=".5" y=".5" width="937.93" height="229.7" rx="10" ry="10"/>
        <line class="cls-5" x1="938.43" y1="92.38" x2=".5" y2="92.38"/>
        <line class="cls-5" x1="199.89" y1="230.2" x2="199.89" y2="46.44"/>
        <line class="cls-5" x1="381.63" y1="230.2" x2="381.63" y2="46.44"/>
        <line class="cls-5" x1="557.33" y1="230.2" x2="557.33" y2="46.44"/>
        <line class="cls-5" x1="469.46" y1="138.32" x2="469.46" y2="92.38"/>
        <line class="cls-5" x1="652.6" y1="230.2" x2="652.6" y2="92.38"/>
        <line class="cls-5" x1="747.88" y1="230.2" x2="747.88" y2="92.38"/>
        <line class="cls-5" x1="843.15" y1="230.2" x2="843.15" y2="92.38"/>
        <line class="cls-5" x1="938.43" y1="138.32" x2=".5" y2="138.32"/>
        <line class="cls-5" x1="938.43" y1="46.44" x2=".5" y2="46.44"/>
        <line class="cls-5" x1="938.43" y1="184.26" x2=".5" y2="184.26"/>
        <line class="cls-5" x1="938.43" y1="184.26" x2=".5" y2="184.26"/>
      </g>
      <g>
        <text class="cls-1" transform="translate(37.73 73.17)"><tspan x="0" y="0">Вид ма</tspan><tspan class="cls-9" x="56.7" y="0">т</tspan><tspan class="cls-10" x="64.37" y="0">ериала</tspan></text>
        <text class="cls-1" transform="translate(17.34 28.61)"><tspan x="0" y="0">Планшеты, та</tspan><tspan class="cls-14" x="111.29" y="0">б</tspan><tspan x="120.85" y="0">лички, с</tspan><tspan class="cls-9" x="185.37" y="0">т</tspan><tspan class="cls-11" x="193.04" y="0">енды</tspan></text>
        <text class="cls-1" transform="translate(17.29 118.95)"><tspan class="cls-13" x="0" y="0">Т</tspan><tspan class="cls-14" x="8.66" y="0">о</tspan><tspan class="cls-10" x="18.19" y="0">лщина ма</tspan><tspan class="cls-9" x="97.58" y="0">т</tspan><tspan class="cls-11" x="105.25" y="0">ериала</tspan></text>
        <text class="cls-1" transform="translate(42.48 167.41)"><tspan x="0" y="0">Цена за 0,5 м</tspan></text>
        <text class="cls-1" transform="translate(150.75 162.08) scale(.58)"><tspan x="0" y="0">2</tspan></text>
        <text class="cls-1" transform="translate(49.26 213.2)"><tspan x="0" y="0">Цена за 1 м</tspan></text>
        <text class="cls-1" transform="translate(143.97 207.87) scale(.58)"><tspan x="0" y="0">2</tspan></text>
        <text class="cls-1" transform="translate(208.22 73.17)"><tspan x="0" y="0">Пластик П</tspan><tspan class="cls-14" x="83.97" y="0">В</tspan><tspan x="94.85" y="0">Х (2х3 м)</tspan></text>
        <text class="cls-3" transform="translate(265.7 118.95)"><tspan x="0" y="0">3/5 мм</tspan></text>
        <text class="cls-3" transform="translate(234.72 165.41)"><tspan x="0" y="0">Цена за 0,5 м</tspan></text>
        <text class="cls-3" transform="translate(341.24 160.08) scale(.58)"><tspan x="0" y="0">2</tspan></text>
        <text class="cls-3" transform="translate(241.41 211.2)"><tspan x="0" y="0">Цена за 1 м</tspan></text>
        <text class="cls-3" transform="translate(334.55 205.87) scale(.58)"><tspan x="0" y="0">2</tspan></text>
        <text class="cls-1" transform="translate(386.9 73.17)"><tspan x="0" y="0">Пластик П</tspan><tspan class="cls-14" x="83.97" y="0">В</tspan><tspan x="94.85" y="0">Х (2х3 м)</tspan></text>
        <text class="cls-1" transform="translate(601.28 73.17)"><tspan x="0" y="0">Кармашки (прозрачный пластик)</tspan></text>
        <text class="cls-3" transform="translate(408.28 118.95)"><tspan x="0" y="0">3 мм</tspan></text>
        <text class="cls-3" transform="translate(494.55 118.95)"><tspan x="0" y="0">5 мм</tspan></text>
        <text class="cls-3" transform="translate(594.78 119.2)"><tspan x="0" y="0">А3</tspan></text>
        <text class="cls-3" transform="translate(689.65 119.2)"><tspan x="0" y="0">А4</tspan></text>
        <text class="cls-3" transform="translate(784.51 119.2)"><tspan x="0" y="0">А5</tspan></text>
        <g>
          <path class="cls-2" d="m876.6,112.2v-11.28h9.63v11.28h-1.65v-9.9h-6.34v9.9h-1.65Z"/>
          <path class="cls-2" d="m892.3,112.35c-.8,0-1.49-.17-2.08-.5-.59-.34-1.04-.82-1.36-1.44s-.48-1.37-.48-2.23.16-1.61.48-2.23c.32-.62.77-1.1,1.36-1.44.59-.34,1.28-.5,2.08-.5s1.5.17,2.09.5c.59.34,1.05.82,1.38,1.44.33.62.49,1.37.49,2.23s-.16,1.61-.49,2.23c-.33.62-.78,1.1-1.38,1.44-.59.34-1.29.5-2.09.5Zm0-1.26c.7,0,1.26-.25,1.68-.74.42-.49.62-1.21.62-2.18s-.21-1.68-.62-2.17c-.42-.48-.98-.73-1.68-.73s-1.25.24-1.66.73c-.42.49-.62,1.21-.62,2.17s.21,1.69.62,2.18c.41.49.97.74,1.67.74Z"/>
          <path class="cls-2" d="m897.45,114.29v-3.33h.9c.35-.53.61-1.16.77-1.87s.24-1.58.24-2.59v-2.35h5.9v6.82h1.3v3.33h-1.39v-2.08h-6.32v2.08h-1.39Zm2.38-3.31h3.9v-5.58h-2.99v1.42c0,.78-.08,1.54-.23,2.28-.15.74-.38,1.37-.68,1.88Z"/>
          <path class="cls-2" d="m860.98,126.2v-8.06h4.06c.97,0,1.69.18,2.15.55.46.37.7.89.7,1.56,0,.52-.17.96-.52,1.3-.35.34-.8.55-1.37.62v-.21c.67.03,1.2.23,1.58.59.38.36.58.83.58,1.41,0,.69-.26,1.24-.78,1.64-.52.4-1.25.6-2.2.6h-4.21Zm1.52-4.62h2.38c.48,0,.85-.11,1.12-.32.27-.21.4-.51.4-.88s-.13-.68-.4-.89-.64-.31-1.12-.31h-2.38v2.4Zm0,3.58h2.56c.52,0,.92-.11,1.2-.33s.42-.54.42-.95-.14-.73-.42-.95c-.28-.21-.68-.32-1.2-.32h-2.56v2.54Z"/>
          <path class="cls-2" d="m870.07,126.2v-8.06h1.47v6.51h-.45l4.86-6.51h1.34v8.06h-1.46v-6.53h.46l-4.9,6.53h-1.34Z"/>
          <path class="cls-2" d="m882.53,126.35c-.7,0-1.37-.09-1.98-.26-.62-.18-1.13-.43-1.52-.76l.5-1.09c.39.31.85.54,1.36.7.51.16,1.06.23,1.65.23.74,0,1.27-.11,1.61-.33s.5-.53.5-.94-.14-.69-.42-.9c-.28-.2-.68-.3-1.22-.3h-1.98v-1.15h1.82c.48,0,.85-.1,1.12-.3s.4-.49.4-.85c0-.38-.15-.68-.46-.9s-.79-.32-1.44-.32c-.55,0-1.06.07-1.52.21s-.9.35-1.31.62l-.48-1.04c.44-.33.96-.58,1.55-.74.6-.16,1.24-.24,1.94-.24,1.04,0,1.84.2,2.38.58.54.39.82.95.82,1.67,0,.5-.17.93-.5,1.28-.34.35-.79.57-1.35.64v-.21c.65.03,1.17.23,1.56.58.39.36.58.83.58,1.42,0,.73-.31,1.3-.92,1.74s-1.51.65-2.68.65Z"/>
          <path class="cls-2" d="m888.02,126.2v-8.06h1.47v6.51h-.45l4.86-6.51h1.34v8.06h-1.46v-6.53h.46l-4.9,6.53h-1.34Z"/>
          <path class="cls-2" d="m899.41,126.2v-6.77h-2.85v-1.29h7.31v1.29h-2.86v6.77h-1.6Z"/>
          <path class="cls-2" d="m905.17,126.2v-8.06h1.6v3.29h1.39l2.51-3.29h1.76l-3.01,3.97-.4-.51c.31.03.58.11.8.23s.44.3.66.54c.21.23.43.54.66.93l1.68,2.91h-1.73l-1.44-2.46c-.16-.28-.32-.49-.46-.65-.15-.15-.32-.26-.51-.32-.19-.06-.43-.09-.7-.09h-1.2v3.52h-1.6Z"/>
          <path class="cls-2" d="m914,126.2v-8.06h1.47v6.51h-.45l4.86-6.51h1.34v8.06h-1.46v-6.53h.46l-4.9,6.53h-1.34Z"/>
        </g>
        <text class="cls-3" transform="translate(568.07 164.79)"><tspan x="0" y="0">507 </tspan><tspan class="cls-12" x="33.07" y="0">р</tspan><tspan class="cls-7" x="42.75" y="0">.</tspan><tspan class="cls-6" x="47.6" y="0">/</tspan><tspan x="51.44" y="0">ш</tspan><tspan class="cls-8" x="64.74" y="0">т</tspan><tspan class="cls-11" x="71.1" y="0">.</tspan></text>
        <text class="cls-3" transform="translate(602.05 211.34)"><tspan x="0" y="0">-</tspan></text>
        <text class="cls-3" transform="translate(696.92 211.34)"><tspan x="0" y="0">-</tspan></text>
        <text class="cls-3" transform="translate(791.78 211.34)"><tspan x="0" y="0">-</tspan></text>
        <text class="cls-3" transform="translate(887.64 211.34)"><tspan x="0" y="0">-</tspan></text>
        <text class="cls-3" transform="translate(662.94 164.79)"><tspan x="0" y="0">253 </tspan><tspan class="cls-12" x="33.07" y="0">р</tspan><tspan class="cls-7" x="42.75" y="0">.</tspan><tspan class="cls-6" x="47.6" y="0">/</tspan><tspan x="51.44" y="0">ш</tspan><tspan class="cls-8" x="64.74" y="0">т</tspan><tspan class="cls-11" x="71.1" y="0">.</tspan></text>
        <text class="cls-3" transform="translate(757.8 164.79)"><tspan x="0" y="0">169 </tspan><tspan class="cls-12" x="33.07" y="0">р</tspan><tspan class="cls-7" x="42.75" y="0">.</tspan><tspan class="cls-6" x="47.6" y="0">/</tspan><tspan x="51.44" y="0">ш</tspan><tspan class="cls-8" x="64.74" y="0">т</tspan><tspan class="cls-11" x="71.1" y="0">.</tspan></text>
        <text class="cls-3" transform="translate(853.66 164.79)"><tspan x="0" y="0">325 </tspan><tspan class="cls-12" x="33.07" y="0">р</tspan><tspan class="cls-7" x="42.75" y="0">.</tspan><tspan class="cls-6" x="47.6" y="0">/</tspan><tspan x="51.44" y="0">ш</tspan><tspan class="cls-8" x="64.74" y="0">т</tspan><tspan class="cls-11" x="71.1" y="0">.</tspan></text>
        <text class="cls-3" transform="translate(441.39 165.41)"><tspan x="0" y="0">6760 </tspan><tspan class="cls-12" x="42.67" y="0">р</tspan><tspan x="52.35" y="0">.</tspan></text>
        <text class="cls-3" transform="translate(441.39 211.2)"><tspan x="0" y="0">5070 </tspan><tspan class="cls-12" x="42.67" y="0">р</tspan><tspan x="52.35" y="0">.</tspan></text>
      </g>
    </g>
  </g>
</svg>