<?xml version="1.0" encoding="UTF-8"?>
<svg id="_Слой_2" data-name="Слой 2" xmlns="http://www.w3.org/2000/svg" viewBox="0 0 938.93 597.95">
  <defs>
    <style>
      .cls-1 {
        font-family: Mulish-Bold, Mulish;
        font-weight: 700;
      }

      .cls-1, .cls-2 {
        fill: #27625f;
        font-size: 16px;
      }

      .cls-3 {
        fill: #fff;
      }

      .cls-3, .cls-4 {
        stroke: #a0b6b5;
        stroke-miterlimit: 10;
      }

      .cls-5 {
        letter-spacing: 0em;
      }

      .cls-6 {
        letter-spacing: .01em;
      }

      .cls-7 {
        letter-spacing: 0em;
      }

      .cls-2 {
        font-family: Mulish-SemiBold, Mulish;
        font-weight: 600;
      }

      .cls-8 {
        letter-spacing: -.01em;
      }

      .cls-9 {
        letter-spacing: 0em;
      }

      .cls-10 {
        letter-spacing: 0em;
      }

      .cls-11 {
        letter-spacing: -.07em;
      }

      .cls-12 {
        letter-spacing: 0em;
      }

      .cls-13 {
        letter-spacing: 0em;
      }

      .cls-14 {
        letter-spacing: 0em;
      }

      .cls-15 {
        letter-spacing: 0em;
      }

      .cls-16 {
        letter-spacing: -.08em;
      }

      .cls-17 {
        letter-spacing: -.03em;
      }

      .cls-18 {
        letter-spacing: -.02em;
      }

      .cls-4 {
        fill: none;
      }
    </style>
  </defs>
  <g id="_Слой_1-2" data-name="Слой 1">
    <g>
      <g>
        <rect class="cls-3" x=".5" y=".5" width="937.93" height="596.95" rx="10" ry="10"/>
        <line class="cls-4" x1=".5" y1="46.44" x2="938.43" y2="46.44"/>
        <line class="cls-4" x1="444.5" y1="46.44" x2="444.5" y2="597.45"/>
        <line class="cls-4" x1="609.37" y1="46.44" x2="609.37" y2="597.45"/>
        <line class="cls-4" x1="773.9" y1="46.44" x2="773.9" y2="597.45"/>
        <line class="cls-4" x1=".5" y1="92.38" x2="938.43" y2="92.38"/>
        <line class="cls-4" x1=".5" y1="138.32" x2="938.43" y2="138.32"/>
        <line class="cls-4" x1=".5" y1="184.26" x2="938.43" y2="184.26"/>
        <line class="cls-4" x1=".5" y1="230.2" x2="938.43" y2="230.2"/>
        <line class="cls-4" x1=".5" y1="276.13" x2="938.43" y2="276.13"/>
        <line class="cls-4" x1=".5" y1="322.07" x2="938.43" y2="322.07"/>
        <line class="cls-4" x1=".5" y1="368.01" x2="938.43" y2="368.01"/>
        <line class="cls-4" x1=".5" y1="413.95" x2="938.43" y2="413.95"/>
        <line class="cls-4" x1=".5" y1="459.89" x2="938.43" y2="459.89"/>
        <line class="cls-4" x1=".5" y1="505.83" x2="938.43" y2="505.83"/>
        <line class="cls-4" x1=".5" y1="551.77" x2="938.43" y2="551.77"/>
      </g>
      <g>
        <text class="cls-1" transform="translate(162.28 75.13)"><tspan x="0" y="0">Наименование</tspan></text>
        <text class="cls-1" transform="translate(497.63 75.13)"><tspan x="0" y="0">от 1 ш</tspan><tspan class="cls-11" x="49.38" y="0">т</tspan><tspan x="56" y="0">.</tspan></text>
        <text class="cls-2" transform="translate(504.35 118.95)"><tspan x="0" y="0">300 </tspan><tspan class="cls-18" x="33.07" y="0">р</tspan><tspan class="cls-13" x="42.75" y="0">.</tspan></text>
        <text class="cls-2" transform="translate(504.35 165.48)"><tspan x="0" y="0">400 </tspan><tspan class="cls-18" x="33.07" y="0">р</tspan><tspan class="cls-13" x="42.75" y="0">.</tspan></text>
        <text class="cls-2" transform="translate(504.35 210.87)"><tspan x="0" y="0">400 </tspan><tspan class="cls-18" x="33.07" y="0">р</tspan><tspan class="cls-13" x="42.75" y="0">.</tspan></text>
        <text class="cls-2" transform="translate(504.35 257.3)"><tspan x="0" y="0">400 </tspan><tspan class="cls-18" x="33.07" y="0">р</tspan><tspan class="cls-13" x="42.75" y="0">.</tspan></text>
        <text class="cls-2" transform="translate(504.35 303.74)"><tspan x="0" y="0">500 </tspan><tspan class="cls-18" x="33.07" y="0">р</tspan><tspan class="cls-13" x="42.75" y="0">.</tspan></text>
        <text class="cls-2" transform="translate(504.35 348.69)"><tspan x="0" y="0">500 </tspan><tspan class="cls-18" x="33.07" y="0">р</tspan><tspan class="cls-13" x="42.75" y="0">.</tspan></text>
        <text class="cls-2" transform="translate(504.35 441.52)"><tspan x="0" y="0">650 </tspan><tspan class="cls-18" x="33.07" y="0">р</tspan><tspan class="cls-13" x="42.75" y="0">.</tspan></text>
        <text class="cls-2" transform="translate(504.35 487.95)"><tspan x="0" y="0">600 </tspan><tspan class="cls-18" x="33.07" y="0">р</tspan><tspan class="cls-13" x="42.75" y="0">.</tspan></text>
        <text class="cls-2" transform="translate(504.35 533.87)"><tspan x="0" y="0">830 </tspan><tspan class="cls-18" x="33.07" y="0">р</tspan><tspan class="cls-13" x="42.75" y="0">.</tspan></text>
        <text class="cls-2" transform="translate(504.35 579.26)"><tspan x="0" y="0">400 </tspan><tspan class="cls-18" x="33.07" y="0">р</tspan><tspan class="cls-13" x="42.75" y="0">.</tspan></text>
        <text class="cls-1" transform="translate(656.7 75.13)"><tspan x="0" y="0">от 10 ш</tspan><tspan class="cls-11" x="58.97" y="0">т</tspan><tspan x="65.6" y="0">.</tspan></text>
        <text class="cls-2" transform="translate(668.21 118.95)"><tspan x="0" y="0">250 </tspan><tspan class="cls-18" x="33.07" y="0">р</tspan><tspan class="cls-13" x="42.75" y="0">.</tspan></text>
        <text class="cls-2" transform="translate(668.21 165.48)"><tspan x="0" y="0">350 </tspan><tspan class="cls-18" x="33.07" y="0">р</tspan><tspan class="cls-13" x="42.75" y="0">.</tspan></text>
        <text class="cls-2" transform="translate(668.21 210.87)"><tspan x="0" y="0">350 </tspan><tspan class="cls-18" x="33.07" y="0">р</tspan><tspan class="cls-13" x="42.75" y="0">.</tspan></text>
        <text class="cls-2" transform="translate(668.21 257.3)"><tspan x="0" y="0">350 </tspan><tspan class="cls-18" x="33.07" y="0">р</tspan><tspan class="cls-13" x="42.75" y="0">.</tspan></text>
        <text class="cls-2" transform="translate(668.21 303.74)"><tspan x="0" y="0">450 </tspan><tspan class="cls-18" x="33.07" y="0">р</tspan><tspan class="cls-13" x="42.75" y="0">.</tspan></text>
        <text class="cls-2" transform="translate(668.21 348.69)"><tspan x="0" y="0">450 </tspan><tspan class="cls-18" x="33.07" y="0">р</tspan><tspan class="cls-13" x="42.75" y="0">.</tspan></text>
        <text class="cls-2" transform="translate(668.21 441.52)"><tspan x="0" y="0">600 </tspan><tspan class="cls-18" x="33.07" y="0">р</tspan><tspan class="cls-13" x="42.75" y="0">.</tspan></text>
        <text class="cls-2" transform="translate(668.21 487.95)"><tspan x="0" y="0">550 </tspan><tspan class="cls-18" x="33.07" y="0">р</tspan><tspan class="cls-13" x="42.75" y="0">.</tspan></text>
        <text class="cls-2" transform="translate(668.21 579.26)"><tspan x="0" y="0">350 </tspan><tspan class="cls-18" x="33.07" y="0">р</tspan><tspan class="cls-13" x="42.75" y="0">.</tspan></text>
        <text class="cls-1" transform="translate(821.83 75.13)"><tspan x="0" y="0">от 20 ш</tspan><tspan class="cls-11" x="58.97" y="0">т</tspan><tspan x="65.6" y="0">.</tspan></text>
        <text class="cls-2" transform="translate(833.35 118.95)"><tspan x="0" y="0">220 </tspan><tspan class="cls-18" x="33.07" y="0">р</tspan><tspan class="cls-13" x="42.75" y="0">.</tspan></text>
        <text class="cls-2" transform="translate(833.35 165.48)"><tspan x="0" y="0">320 </tspan><tspan class="cls-18" x="33.07" y="0">р</tspan><tspan class="cls-13" x="42.75" y="0">.</tspan></text>
        <text class="cls-2" transform="translate(833.35 210.87)"><tspan x="0" y="0">320 </tspan><tspan class="cls-18" x="33.07" y="0">р</tspan><tspan class="cls-13" x="42.75" y="0">.</tspan></text>
        <text class="cls-2" transform="translate(833.35 257.3)"><tspan x="0" y="0">320 </tspan><tspan class="cls-18" x="33.07" y="0">р</tspan><tspan class="cls-13" x="42.75" y="0">.</tspan></text>
        <text class="cls-2" transform="translate(833.35 303.74)"><tspan x="0" y="0">420 </tspan><tspan class="cls-18" x="33.07" y="0">р</tspan><tspan class="cls-13" x="42.75" y="0">.</tspan></text>
        <text class="cls-2" transform="translate(833.35 348.69)"><tspan x="0" y="0">420 </tspan><tspan class="cls-18" x="33.07" y="0">р</tspan><tspan class="cls-13" x="42.75" y="0">.</tspan></text>
        <text class="cls-2" transform="translate(833.35 441.52)"><tspan x="0" y="0">570 </tspan><tspan class="cls-18" x="33.07" y="0">р</tspan><tspan class="cls-13" x="42.75" y="0">.</tspan></text>
        <text class="cls-2" transform="translate(833.35 487.95)"><tspan x="0" y="0">520 </tspan><tspan class="cls-18" x="33.07" y="0">р</tspan><tspan class="cls-13" x="42.75" y="0">.</tspan></text>
        <text class="cls-2" transform="translate(833.35 579.26)"><tspan x="0" y="0">320 </tspan><tspan class="cls-18" x="33.07" y="0">р</tspan><tspan class="cls-13" x="42.75" y="0">.</tspan></text>
        <text class="cls-1" transform="translate(15.99 27.78)"><tspan x="0" y="0">К</tspan><tspan class="cls-10" x="11.04" y="0">р</tspan><tspan x="21.06" y="0">ужки</tspan></text>
        <text class="cls-1" transform="translate(15.99 120.13)"><tspan x="0" y="0">К</tspan><tspan class="cls-10" x="11.04" y="0">р</tspan><tspan x="21.06" y="0">ужка стандартная (белая вн</tspan><tspan class="cls-14" x="251.9" y="0">у</tspan><tspan class="cls-13" x="260.96" y="0">три и сна</tspan><tspan class="cls-10" x="335.61" y="0">р</tspan><tspan x="345.63" y="0">ужи)</tspan></text>
        <text class="cls-1" transform="translate(15.99 164.48)"><tspan x="0" y="0">К</tspan><tspan class="cls-10" x="11.04" y="0">р</tspan><tspan x="21.06" y="0">ужка цветная вн</tspan><tspan class="cls-14" x="156.05" y="0">у</tspan><tspan x="165.1" y="0">три</tspan></text>
        <text class="cls-1" transform="translate(15.99 213.52)"><tspan x="0" y="0">К</tspan><tspan class="cls-10" x="11.04" y="0">р</tspan><tspan x="21.06" y="0">ужка цветная вн</tspan><tspan class="cls-14" x="156.05" y="0">у</tspan><tspan x="165.1" y="0">три + </tspan><tspan class="cls-7" x="211.2" y="0">р</tspan><tspan class="cls-13" x="221.21" y="0">учка</tspan></text>
        <text class="cls-1" transform="translate(15.99 256.3)"><tspan x="0" y="0">К</tspan><tspan class="cls-10" x="11.04" y="0">р</tspan><tspan x="21.06" y="0">ужка цветная </tspan><tspan class="cls-10" x="136.89" y="0">р</tspan><tspan x="146.91" y="0">учка + каёмка</tspan></text>
        <text class="cls-1" transform="translate(15.99 302.74)"><tspan x="0" y="0">К</tspan><tspan class="cls-10" x="11.04" y="0">р</tspan><tspan x="21.06" y="0">ужка цветная с ложкой</tspan></text>
        <text class="cls-1" transform="translate(15.99 349.69)"><tspan x="0" y="0">К</tspan><tspan class="cls-10" x="11.04" y="0">р</tspan><tspan x="21.06" y="0">ужка цветная сна</tspan><tspan class="cls-10" x="165.21" y="0">р</tspan><tspan x="175.23" y="0">ужи (розовая, серебр</tspan><tspan class="cls-8" x="348.81" y="0">о</tspan><tspan x="358.27" y="0">, з</tspan><tspan class="cls-9" x="375.1" y="0">о</tspan><tspan x="384.63" y="0">ло</tspan><tspan class="cls-12" x="404.07" y="0">т</tspan><tspan class="cls-9" x="411.74" y="0">о</tspan><tspan x="421.27" y="0">)</tspan></text>
        <text class="cls-1" transform="translate(15.99 441.52)"><tspan x="0" y="0">К</tspan><tspan class="cls-10" x="11.04" y="0">р</tspan><tspan x="21.06" y="0">ужка кофейная + ложка и </tspan><tspan class="cls-9" x="237.02" y="0">б</tspan><tspan x="246.57" y="0">людце</tspan></text>
        <text class="cls-1" transform="translate(15.99 487.95)"><tspan x="0" y="0">К</tspan><tspan class="cls-10" x="11.04" y="0">р</tspan><tspan x="21.06" y="0">ужка</tspan><tspan class="cls-17" x="62.82" y="0">-</tspan><tspan class="cls-15" x="69.42" y="0">х</tspan><tspan x="78.35" y="0">амелеон</tspan></text>
        <text class="cls-1" transform="translate(15.99 533.87)"><tspan class="cls-16" x="0" y="0">Т</tspan><tspan class="cls-5" x="8.66" y="0">ермо а</tspan><tspan class="cls-6" x="63.18" y="0">в</tspan><tspan class="cls-12" x="72.61" y="0">т</tspan><tspan x="80.27" y="0">омобильная к</tspan><tspan class="cls-10" x="191.81" y="0">р</tspan><tspan x="201.82" y="0">ужка</tspan></text>
        <text class="cls-1" transform="translate(15.99 579.26)"><tspan class="cls-16" x="0" y="0">Т</tspan><tspan class="cls-5" x="8.66" y="0">ермостакан с п</tspan><tspan class="cls-9" x="130.88" y="0">о</tspan><tspan x="140.41" y="0">лиграфической вставкой</tspan></text>
      </g>
    </g>
  </g>
</svg>