<?xml version="1.0" encoding="UTF-8"?>
<svg id="_Слой_2" data-name="Слой 2" xmlns="http://www.w3.org/2000/svg" viewBox="0 0 938.93 320.14">
  <defs>
    <style>
      .cls-1 {
        font-family: Mulish-Bold, Mulish;
        font-weight: 700;
      }

      .cls-1, .cls-2, .cls-3, .cls-4 {
        fill: #27625f;
      }

      .cls-1, .cls-3 {
        font-size: 16px;
      }

      .cls-5 {
        fill: #fff;
      }

      .cls-5, .cls-6 {
        stroke: #a0b6b5;
        stroke-miterlimit: 10;
      }

      .cls-7 {
        letter-spacing: -.02em;
      }

      .cls-2 {
        stroke-width: 0px;
      }

      .cls-8 {
        letter-spacing: 0em;
      }

      .cls-3, .cls-4 {
        font-family: Mulish-SemiBold, Mulish;
        font-weight: 600;
      }

      .cls-9 {
        letter-spacing: -.07em;
      }

      .cls-10 {
        letter-spacing: .07em;
      }

      .cls-4 {
        font-size: 13px;
      }

      .cls-11 {
        letter-spacing: 0em;
      }

      .cls-12 {
        letter-spacing: -.07em;
      }

      .cls-13 {
        letter-spacing: -.02em;
      }

      .cls-14 {
        letter-spacing: -.02em;
      }

      .cls-15 {
        letter-spacing: 0em;
      }

      .cls-16 {
        letter-spacing: -.02em;
      }

      .cls-17 {
        letter-spacing: 0em;
      }

      .cls-18 {
        letter-spacing: -.02em;
      }

      .cls-19 {
        letter-spacing: 0em;
      }

      .cls-20 {
        letter-spacing: -.01em;
      }

      .cls-6 {
        fill: none;
      }
    </style>
  </defs>
  <g id="_Слой_1-2" data-name="Слой 1">
    <g>
      <g>
        <rect class="cls-5" x=".5" y=".5" width="937.93" height="319.14" rx="10" ry="10"/>
        <line class="cls-6" x1="938.43" y1="91.68" x2=".5" y2="91.68"/>
        <line class="cls-6" x1="938.43" y1="137.27" x2=".5" y2="137.27"/>
        <line class="cls-6" x1="938.43" y1="46.09" x2=".5" y2="46.09"/>
        <line class="cls-6" x1="938.43" y1="91.68" x2=".5" y2="91.68"/>
        <line class="cls-6" x1="938.43" y1="182.86" x2=".5" y2="182.86"/>
        <line class="cls-6" x1="938.43" y1="228.46" x2=".5" y2="228.46"/>
        <line class="cls-6" x1="938.43" y1="274.05" x2=".5" y2="274.05"/>
        <line class="cls-6" x1="128.85" y1="46.09" x2="128.85" y2="274.05"/>
        <line class="cls-6" x1="230.3" y1="46.09" x2="230.3" y2="274.05"/>
        <line class="cls-6" x1="331.8" y1="46.09" x2="331.8" y2="274.05"/>
        <line class="cls-6" x1="432.5" y1="46.09" x2="432.5" y2="274.05"/>
        <line class="cls-6" x1="533.2" y1="46.09" x2="533.2" y2="274.05"/>
        <line class="cls-6" x1="634.41" y1="46.09" x2="634.41" y2="274.05"/>
        <line class="cls-6" x1="667.15" y1="274.05" x2="667.15" y2="319.64"/>
        <line class="cls-6" x1="541.98" y1="274.05" x2="541.98" y2="319.64"/>
        <line class="cls-6" x1="409.11" y1="274.05" x2="409.11" y2="319.64"/>
        <line class="cls-6" x1="156.37" y1="274.05" x2="156.37" y2="319.64"/>
        <line class="cls-6" x1="799.28" y1="274.05" x2="799.28" y2="319.64"/>
        <line class="cls-6" x1="736.15" y1="46.09" x2="736.15" y2="274.05"/>
        <line class="cls-6" x1="837.29" y1="46.09" x2="837.29" y2="274.05"/>
      </g>
      <g>
        <text class="cls-1" transform="translate(13.5 27.82)"><tspan x="0" y="0">Пакеты (вы</tspan><tspan class="cls-11" x="92.94" y="0">р</tspan><tspan x="102.96" y="0">убная укреплённая </tspan><tspan class="cls-11" x="264.28" y="0">р</tspan><tspan x="274.3" y="0">учка, донная складка. Белый, 300х400 мм, 70 мк</tspan><tspan class="cls-20" x="664.58" y="0">р</tspan><tspan x="674.56" y="0">)м</tspan></text>
        <text class="cls-1" transform="translate(50.27 121.3)"><tspan x="0" y="0">1+0</tspan></text>
        <text class="cls-1" transform="translate(33.89 166.08)"><tspan x="0" y="0">2+0,1+1</tspan></text>
        <text class="cls-1" transform="translate(33.89 210.85)"><tspan x="0" y="0">3+0,2+1</tspan></text>
        <text class="cls-1" transform="translate(33.89 255.63)"><tspan x="0" y="0">4+0,2+2</tspan></text>
        <text class="cls-3" transform="translate(160.4 121.3)"><tspan x="0" y="0">76 </tspan><tspan class="cls-13" x="23.47" y="0">р</tspan><tspan x="33.15" y="0">.</tspan></text>
        <text class="cls-1" transform="translate(155 75.91)"><tspan x="0" y="0">50 ш</tspan><tspan class="cls-9" x="37.15" y="0">т</tspan><tspan class="cls-15" x="43.78" y="0">.</tspan></text>
        <text class="cls-3" transform="translate(155.6 166.08)"><tspan x="0" y="0">127 </tspan><tspan class="cls-18" x="33.07" y="0">р</tspan><tspan class="cls-15" x="42.75" y="0">.</tspan></text>
        <text class="cls-3" transform="translate(148.9 210.85)"><tspan x="0" y="0">179,5 </tspan><tspan class="cls-16" x="46.46" y="0">р</tspan><tspan x="56.14" y="0">.</tspan></text>
        <g>
          <path class="cls-2" d="m164.25,251.88v-1.29h4.69v1.29h-4.69Z"/>
          <path class="cls-2" d="m182.42,259.08v-9.58c0-.31-.01-.63-.04-.95-.03-.32-.06-.65-.09-.98h1.57l.16,1.82h-.18c.17-.61.51-1.09,1.03-1.44s1.13-.53,1.85-.53,1.34.17,1.87.5.95.81,1.24,1.43c.29.62.44,1.37.44,2.24s-.15,1.61-.44,2.24c-.29.63-.71,1.11-1.24,1.44s-1.16.5-1.87.5-1.31-.17-1.83-.52c-.52-.35-.86-.82-1.03-1.42h.18v5.25h-1.62Zm3.9-4.58c.7,0,1.27-.25,1.69-.74.42-.49.63-1.22.63-2.18s-.21-1.68-.63-2.17c-.42-.49-.98-.73-1.69-.73s-1.27.24-1.69.73c-.42.49-.63,1.21-.63,2.17s.21,1.69.63,2.18c.42.49.98.74,1.69.74Z"/>
          <path class="cls-2" d="m191.76,255.63v-1.9h1.9v1.9h-1.9Z"/>
        </g>
        <text class="cls-3" transform="translate(257.01 121.3)"><tspan x="0" y="0">58,5 </tspan><tspan class="cls-13" x="36.86" y="0">р</tspan><tspan class="cls-17" x="46.54" y="0">.</tspan></text>
        <text class="cls-1" transform="translate(253.5 75.91)"><tspan x="0" y="0">100 ш</tspan><tspan class="cls-12" x="46.75" y="0">т</tspan><tspan x="53.38" y="0">.</tspan></text>
        <text class="cls-3" transform="translate(263.7 166.08)"><tspan x="0" y="0">91 </tspan><tspan class="cls-13" x="23.47" y="0">р</tspan><tspan x="33.15" y="0">.</tspan></text>
        <text class="cls-3" transform="translate(252.21 210.85)"><tspan x="0" y="0">123,5 </tspan><tspan class="cls-16" x="46.46" y="0">р</tspan><tspan x="56.14" y="0">.</tspan></text>
        <text class="cls-3" transform="translate(259.41 255.63)"><tspan x="0" y="0">156 </tspan><tspan class="cls-18" x="33.07" y="0">р</tspan><tspan class="cls-15" x="42.75" y="0">.</tspan></text>
        <text class="cls-3" transform="translate(12.61 291.98)"><tspan x="0" y="0">Цветной/з</tspan><tspan class="cls-20" x="80.42" y="0">о</tspan><tspan x="89.73" y="0">ло</tspan><tspan class="cls-19" x="108.75" y="0">т</tspan><tspan x="116.19" y="0">ой</tspan></text>
        <text class="cls-3" transform="translate(28.38 312.48)"><tspan x="0" y="0">+3,6 </tspan><tspan class="cls-16" x="36.86" y="0">р</tspan><tspan class="cls-10" x="46.54" y="0">.</tspan><tspan x="51.39" y="0">/+18 </tspan><tspan class="cls-16" x="89.26" y="0">р</tspan><tspan x="98.94" y="0">.</tspan></text>
        <text class="cls-3" transform="translate(209.79 293.56)"><tspan x="0" y="0">200х300 мм -1,2 </tspan><tspan class="cls-7" x="131.07" y="0">р</tspan><tspan x="140.75" y="0">.</tspan></text>
        <g>
          <path class="cls-2" d="m437.08,295.69v-2.34h-5.22v-1.18l5.49-7.76h1.34v7.65h1.68v1.3h-1.68v2.34h-1.62Zm0-3.63v-5.68h.37l-4.29,6.08v-.4h3.92Z"/>
          <path class="cls-2" d="m445.53,295.84c-1.3,0-2.3-.5-3-1.5-.7-1-1.05-2.43-1.05-4.29s.35-3.34,1.05-4.31c.7-.98,1.7-1.46,3-1.46s2.31.49,3.01,1.46c.69.98,1.04,2.41,1.04,4.3s-.35,3.32-1.05,4.31c-.7,1-1.7,1.5-3,1.5Zm0-1.39c.82,0,1.43-.36,1.83-1.07.4-.71.6-1.83.6-3.34s-.2-2.64-.6-3.34c-.4-.7-1.01-1.05-1.83-1.05s-1.42.35-1.82,1.05c-.41.7-.61,1.81-.61,3.32s.21,2.65.62,3.36c.41.71,1.02,1.07,1.82,1.07Z"/>
          <path class="cls-2" d="m455.13,295.84c-1.3,0-2.3-.5-3-1.5-.7-1-1.05-2.43-1.05-4.29s.35-3.34,1.05-4.31c.7-.98,1.7-1.46,3-1.46s2.31.49,3.01,1.46c.69.98,1.04,2.41,1.04,4.3s-.35,3.32-1.05,4.31c-.7,1-1.7,1.5-3,1.5Zm0-1.39c.82,0,1.43-.36,1.83-1.07.4-.71.6-1.83.6-3.34s-.2-2.64-.6-3.34c-.4-.7-1.01-1.05-1.83-1.05s-1.42.35-1.82,1.05c-.41.7-.61,1.81-.61,3.32s.21,2.65.62,3.36c.41.71,1.02,1.07,1.82,1.07Z"/>
          <path class="cls-2" d="m460.06,295.69l3.66-4.54v.77l-3.47-4.29h1.94l2.45,3.15h-.58l2.45-3.15h1.92l-3.44,4.27v-.74l3.65,4.53h-1.94l-2.64-3.38h.58l-2.66,3.38h-1.92Z"/>
          <path class="cls-2" d="m473.74,295.84c-.49,0-.98-.05-1.46-.16-.48-.11-.93-.26-1.34-.46s-.78-.44-1.09-.71l.58-1.26c.51.39,1.04.69,1.58.89s1.11.29,1.7.29c.76,0,1.35-.2,1.78-.59.43-.39.65-.92.65-1.58s-.21-1.23-.62-1.66c-.41-.42-.98-.63-1.7-.63-.5,0-.96.1-1.37.3-.41.2-.77.51-1.08.93h-1.15v-6.78h6.83v1.39h-5.25v4.06h-.42c.29-.41.67-.72,1.16-.94.49-.22,1.03-.34,1.64-.34.72,0,1.35.15,1.89.45.53.3.95.71,1.24,1.25.29.53.44,1.16.44,1.89s-.16,1.36-.49,1.91c-.33.55-.79.98-1.39,1.29-.6.31-1.31.46-2.14.46Z"/>
          <path class="cls-2" d="m483.18,295.84c-1.3,0-2.3-.5-3-1.5-.7-1-1.05-2.43-1.05-4.29s.35-3.34,1.05-4.31c.7-.98,1.7-1.46,3-1.46s2.31.49,3.01,1.46c.69.98,1.04,2.41,1.04,4.3s-.35,3.32-1.05,4.31c-.7,1-1.7,1.5-3,1.5Zm0-1.39c.82,0,1.43-.36,1.83-1.07.4-.71.6-1.83.6-3.34s-.2-2.64-.6-3.34c-.4-.7-1.01-1.05-1.83-1.05s-1.42.35-1.82,1.05c-.41.7-.61,1.81-.61,3.32s.21,2.65.62,3.36c.41.71,1.02,1.07,1.82,1.07Z"/>
          <path class="cls-2" d="m492.78,295.84c-1.3,0-2.3-.5-3-1.5-.7-1-1.05-2.43-1.05-4.29s.35-3.34,1.05-4.31c.7-.98,1.7-1.46,3-1.46s2.31.49,3.01,1.46,1.04,2.41,1.04,4.3-.35,3.32-1.05,4.31c-.7,1-1.7,1.5-3,1.5Zm0-1.39c.82,0,1.43-.36,1.83-1.07.4-.71.6-1.83.6-3.34s-.2-2.64-.6-3.34c-.4-.7-1.01-1.05-1.83-1.05s-1.42.35-1.82,1.05-.61,1.81-.61,3.32.21,2.65.62,3.36c.41.71,1.02,1.07,1.82,1.07Z"/>
          <path class="cls-2" d="m503.07,295.69v-8.06h1.34l2.91,5.15,2.91-5.15h1.34v8.06h-1.42v-6.26h.35l-2.8,4.96h-.77l-2.8-4.96h.35v6.26h-1.42Z"/>
          <path class="cls-2" d="m514.01,295.69v-8.06h1.34l2.91,5.15,2.91-5.15h1.34v8.06h-1.42v-6.26h.35l-2.8,4.96h-.77l-2.8-4.96h.35v6.26h-1.42Z"/>
          <path class="cls-2" d="m463.16,309.08v-3.39h-3.34v-1.18h3.34v-3.31h1.22v3.31h3.34v1.18h-3.34v3.39h-1.22Z"/>
          <path class="cls-2" d="m473.36,309.84c-1.3,0-2.31-.28-3.04-.83-.72-.55-1.09-1.33-1.09-2.32,0-.79.24-1.44.72-1.96.48-.52,1.11-.83,1.89-.94v.29c-.7-.15-1.27-.47-1.69-.98-.42-.5-.63-1.11-.63-1.82,0-.94.34-1.67,1.02-2.21s1.62-.8,2.82-.8,2.15.27,2.83.8,1.02,1.27,1.02,2.21c0,.71-.2,1.33-.6,1.83-.4.51-.95.82-1.64.95v-.27c.77.11,1.38.42,1.84.94.46.52.69,1.17.69,1.96,0,.99-.36,1.76-1.09,2.32-.73.55-1.74.83-3.06.83Zm0-1.31c.86,0,1.51-.16,1.94-.49.43-.33.64-.81.64-1.46s-.21-1.14-.64-1.46c-.43-.32-1.07-.48-1.94-.48s-1.51.16-1.94.48c-.43.32-.64.81-.64,1.46s.22,1.14.65,1.46c.43.32,1.07.49,1.93.49Zm0-5.2c.75,0,1.31-.17,1.7-.5s.58-.8.58-1.38-.19-1.03-.58-1.36c-.39-.33-.96-.5-1.7-.5s-1.3.17-1.7.5c-.39.33-.59.78-.59,1.36s.2,1.05.59,1.38.96.5,1.7.5Z"/>
          <path class="cls-2" d="m483.71,313.15v-9.58c0-.31-.01-.63-.04-.95s-.06-.65-.09-.98h1.57l.16,1.82h-.18c.17-.61.51-1.09,1.03-1.44.52-.35,1.13-.53,1.85-.53s1.34.17,1.87.5.95.81,1.24,1.43c.29.62.44,1.37.44,2.24s-.15,1.61-.44,2.24c-.29.63-.71,1.11-1.24,1.44-.53.33-1.16.5-1.87.5s-1.31-.17-1.83-.52-.86-.82-1.03-1.42h.18v5.25h-1.62Zm3.9-4.58c.7,0,1.27-.25,1.69-.74.42-.49.63-1.21.63-2.18s-.21-1.68-.63-2.17c-.42-.48-.98-.73-1.69-.73s-1.27.24-1.69.73c-.42.49-.63,1.21-.63,2.17s.21,1.69.63,2.18c.42.49.98.74,1.69.74Z"/>
          <path class="cls-2" d="m493.06,309.69v-1.9h1.9v1.9h-1.9Z"/>
        </g>
        <g>
          <path class="cls-2" d="m566.71,295.69c-.49,0-.98-.05-1.46-.16s-.93-.26-1.34-.46-.78-.43-1.09-.71l.58-1.26c.51.4,1.04.69,1.58.89s1.11.3,1.71.3c.76,0,1.35-.2,1.78-.59s.65-.92.65-1.58-.21-1.23-.62-1.66c-.41-.42-.98-.63-1.7-.63-.5,0-.96.1-1.37.3-.41.2-.77.51-1.08.93h-1.15v-6.78h6.83v1.39h-5.25v4.06h-.42c.29-.41.67-.72,1.16-.94.48-.22,1.03-.34,1.64-.34.73,0,1.35.15,1.89.45s.95.71,1.24,1.25.44,1.16.44,1.89-.16,1.36-.49,1.91c-.32.55-.79.98-1.39,1.29-.6.31-1.32.46-2.14.46Z"/>
          <path class="cls-2" d="m576.15,295.69c-1.3,0-2.3-.5-3-1.5-.7-1-1.05-2.43-1.05-4.3s.35-3.34,1.05-4.31c.7-.98,1.7-1.46,3-1.46s2.31.49,3.01,1.46c.69.98,1.04,2.41,1.04,4.3s-.35,3.31-1.05,4.31c-.7,1-1.7,1.5-3,1.5Zm0-1.39c.82,0,1.43-.36,1.83-1.07.4-.71.6-1.83.6-3.34s-.2-2.64-.6-3.34c-.4-.7-1.01-1.05-1.83-1.05s-1.42.35-1.82,1.05c-.41.7-.61,1.8-.61,3.32s.21,2.65.62,3.36,1.02,1.07,1.82,1.07Z"/>
          <path class="cls-2" d="m585.75,295.69c-1.3,0-2.3-.5-3-1.5-.7-1-1.05-2.43-1.05-4.3s.35-3.34,1.05-4.31c.7-.98,1.7-1.46,3-1.46s2.31.49,3.01,1.46c.69.98,1.04,2.41,1.04,4.3s-.35,3.31-1.05,4.31c-.7,1-1.7,1.5-3,1.5Zm0-1.39c.82,0,1.43-.36,1.83-1.07.4-.71.6-1.83.6-3.34s-.2-2.64-.6-3.34c-.4-.7-1.01-1.05-1.83-1.05s-1.42.35-1.82,1.05c-.41.7-.61,1.8-.61,3.32s.21,2.65.62,3.36,1.02,1.07,1.82,1.07Z"/>
          <path class="cls-2" d="m590.68,295.55l3.66-4.54v.77l-3.47-4.29h1.94l2.45,3.15h-.58l2.45-3.15h1.92l-3.44,4.27v-.74l3.65,4.53h-1.94l-2.64-3.38h.58l-2.66,3.38h-1.92Z"/>
          <path class="cls-2" d="m604.59,295.69c-1.4,0-2.47-.49-3.22-1.46s-1.13-2.33-1.13-4.08c0-1.3.19-2.4.58-3.29.38-.89.93-1.57,1.64-2.04.71-.47,1.57-.7,2.57-.7.6,0,1.19.11,1.79.34.6.23,1.1.55,1.5.97l-.59,1.25c-.39-.38-.83-.67-1.3-.86-.47-.19-.94-.29-1.42-.29-1.03,0-1.82.36-2.37,1.08-.54.72-.82,1.79-.82,3.22v1.36h-.16c.07-.58.26-1.07.54-1.5.29-.42.66-.74,1.12-.97s.97-.34,1.54-.34c.67,0,1.27.15,1.78.46s.92.73,1.22,1.27c.3.54.45,1.15.45,1.85s-.16,1.35-.48,1.92-.76,1.01-1.32,1.32c-.56.31-1.2.47-1.93.47Zm-.1-1.34c.45,0,.84-.1,1.18-.29.34-.19.6-.46.79-.81.19-.35.29-.75.29-1.21s-.1-.86-.29-1.2c-.19-.34-.46-.61-.79-.81-.34-.2-.73-.3-1.18-.3s-.84.1-1.18.3c-.34.2-.61.47-.8.81-.19.34-.29.74-.29,1.2s.1.86.29,1.21c.19.35.46.62.8.81.34.19.74.29,1.18.29Z"/>
          <path class="cls-2" d="m613.8,295.69c-1.3,0-2.3-.5-3-1.5-.7-1-1.05-2.43-1.05-4.3s.35-3.34,1.05-4.31c.7-.98,1.7-1.46,3-1.46s2.31.49,3.01,1.46c.69.98,1.04,2.41,1.04,4.3s-.35,3.31-1.05,4.31c-.7,1-1.7,1.5-3,1.5Zm0-1.39c.82,0,1.43-.36,1.83-1.07s.6-1.83.6-3.34-.2-2.64-.6-3.34c-.4-.7-1.01-1.05-1.83-1.05s-1.42.35-1.82,1.05c-.41.7-.61,1.8-.61,3.32s.21,2.65.62,3.36,1.02,1.07,1.82,1.07Z"/>
          <path class="cls-2" d="m623.4,295.69c-1.3,0-2.3-.5-3-1.5s-1.05-2.43-1.05-4.3.35-3.34,1.05-4.31c.7-.98,1.7-1.46,3-1.46s2.31.49,3.01,1.46c.69.98,1.04,2.41,1.04,4.3s-.35,3.31-1.05,4.31c-.7,1-1.7,1.5-3,1.5Zm0-1.39c.82,0,1.43-.36,1.83-1.07s.6-1.83.6-3.34-.2-2.64-.6-3.34c-.4-.7-1.01-1.05-1.83-1.05s-1.42.35-1.82,1.05c-.41.7-.61,1.8-.61,3.32s.21,2.65.62,3.36,1.02,1.07,1.82,1.07Z"/>
          <path class="cls-2" d="m633.69,295.55v-8.06h1.34l2.91,5.15,2.91-5.15h1.34v8.06h-1.42v-6.26h.35l-2.8,4.96h-.77l-2.8-4.96h.35v6.26h-1.42Z"/>
          <path class="cls-2" d="m644.63,295.55v-8.06h1.34l2.91,5.15,2.91-5.15h1.34v8.06h-1.42v-6.26h.35l-2.8,4.96h-.77l-2.8-4.96h.35v6.26h-1.42Z"/>
          <path class="cls-2" d="m582.28,308.94v-3.39h-3.34v-1.18h3.34v-3.31h1.22v3.31h3.34v1.18h-3.34v3.39h-1.22Z"/>
          <path class="cls-2" d="m589.61,309.55v-1.39h2.62v-8.48h.83l-3.2,1.95v-1.6l2.83-1.76h1.2v9.89h2.46v1.39h-6.75Z"/>
          <path class="cls-2" d="m602.25,309.69c-.49,0-.98-.05-1.46-.16s-.93-.26-1.34-.46-.78-.43-1.09-.71l.58-1.26c.51.4,1.04.69,1.58.89s1.11.3,1.71.3c.76,0,1.35-.2,1.78-.59s.65-.92.65-1.58-.21-1.23-.62-1.66c-.41-.42-.98-.63-1.7-.63-.5,0-.96.1-1.37.3-.41.2-.77.51-1.08.93h-1.15v-6.78h6.83v1.39h-5.25v4.06h-.42c.29-.41.67-.72,1.16-.94.48-.22,1.03-.34,1.64-.34.73,0,1.35.15,1.89.45s.95.71,1.24,1.25.44,1.16.44,1.89-.16,1.36-.49,1.91c-.32.55-.79.98-1.39,1.29-.6.31-1.32.46-2.14.46Z"/>
          <path class="cls-2" d="m608.65,311.52l-.7-.54c.31-.33.52-.63.63-.91s.17-.57.17-.86l.35.35h-1.26v-1.9h1.9v1.3c0,.48-.08.92-.24,1.34s-.44.82-.85,1.24Z"/>
          <path class="cls-2" d="m615.37,309.69c-.77,0-1.5-.11-2.21-.34-.7-.23-1.29-.56-1.76-.98l.58-1.26c.52.41,1.06.71,1.6.9.54.19,1.12.29,1.74.29.79,0,1.39-.17,1.8-.5.41-.33.62-.81.62-1.42s-.21-1.07-.62-1.38-1.02-.47-1.82-.47h-1.74v-1.34h1.62c.68,0,1.23-.17,1.63-.52.4-.35.61-.82.61-1.42,0-.54-.19-.96-.56-1.26-.37-.29-.91-.44-1.6-.44-1.17,0-2.2.41-3.09,1.23l-.56-1.26c.44-.44.99-.78,1.66-1.02.67-.24,1.38-.36,2.11-.36,1.13,0,2.02.26,2.67.78.65.52.98,1.23.98,2.15,0,.69-.19,1.29-.58,1.78s-.92.82-1.59.98v-.18c.8.13,1.42.45,1.85.95.43.51.65,1.14.65,1.9,0,1-.35,1.79-1.06,2.36-.71.57-1.68.86-2.92.86Z"/>
          <path class="cls-2" d="m625.83,313v-9.58c0-.31-.01-.63-.04-.95-.03-.33-.06-.65-.09-.98h1.57l.16,1.82h-.18c.17-.61.52-1.09,1.03-1.44.52-.35,1.13-.53,1.85-.53s1.34.17,1.87.5.95.81,1.24,1.43.44,1.37.44,2.24-.15,1.61-.44,2.24c-.29.63-.71,1.11-1.24,1.44s-1.16.5-1.87.5-1.31-.17-1.83-.52c-.52-.35-.86-.82-1.03-1.42h.18v5.25h-1.62Zm3.9-4.58c.7,0,1.27-.24,1.69-.74s.63-1.22.63-2.18-.21-1.68-.63-2.17c-.42-.48-.98-.73-1.69-.73s-1.27.24-1.69.73c-.42.49-.63,1.21-.63,2.17s.21,1.69.63,2.18c.42.49.98.74,1.69.74Z"/>
          <path class="cls-2" d="m635.18,309.55v-1.9h1.9v1.9h-1.9Z"/>
        </g>
        <g>
          <path class="cls-2" d="m695.03,295.69c-1.4,0-2.47-.49-3.22-1.46s-1.13-2.33-1.13-4.08c0-1.3.19-2.4.58-3.29.38-.89.93-1.57,1.64-2.04.71-.47,1.57-.7,2.57-.7.6,0,1.19.11,1.79.34.6.23,1.1.55,1.5.97l-.59,1.25c-.39-.38-.83-.67-1.3-.86-.47-.19-.94-.29-1.42-.29-1.03,0-1.82.36-2.37,1.08s-.82,1.79-.82,3.22v1.36h-.16c.07-.58.26-1.07.54-1.5.29-.42.66-.74,1.12-.97.46-.22.97-.34,1.54-.34.67,0,1.27.15,1.78.46.52.31.92.73,1.22,1.27.3.54.45,1.15.45,1.85s-.16,1.35-.48,1.92-.76,1.01-1.32,1.32c-.56.31-1.2.47-1.93.47Zm-.1-1.34c.45,0,.84-.1,1.18-.29.34-.19.6-.46.79-.81.19-.35.29-.75.29-1.21s-.1-.86-.29-1.2c-.19-.34-.46-.61-.79-.81-.34-.2-.73-.3-1.18-.3s-.84.1-1.18.3c-.34.2-.61.47-.8.81-.19.34-.29.74-.29,1.2s.1.86.29,1.21c.19.35.46.62.8.81.34.19.74.29,1.18.29Z"/>
          <path class="cls-2" d="m704.25,295.69c-1.3,0-2.3-.5-3-1.5-.7-1-1.05-2.43-1.05-4.3s.35-3.34,1.05-4.31c.7-.98,1.7-1.46,3-1.46s2.31.49,3.01,1.46c.69.98,1.04,2.41,1.04,4.3s-.35,3.31-1.05,4.31c-.7,1-1.7,1.5-3,1.5Zm0-1.39c.82,0,1.43-.36,1.83-1.07.4-.71.6-1.83.6-3.34s-.2-2.64-.6-3.34c-.4-.7-1.01-1.05-1.83-1.05s-1.42.35-1.82,1.05c-.41.7-.61,1.8-.61,3.32s.21,2.65.62,3.36c.41.71,1.02,1.07,1.82,1.07Z"/>
          <path class="cls-2" d="m713.85,295.69c-1.3,0-2.3-.5-3-1.5-.7-1-1.05-2.43-1.05-4.3s.35-3.34,1.05-4.31c.7-.98,1.7-1.46,3-1.46s2.31.49,3.01,1.46c.69.98,1.04,2.41,1.04,4.3s-.35,3.31-1.05,4.31c-.7,1-1.7,1.5-3,1.5Zm0-1.39c.82,0,1.43-.36,1.83-1.07.4-.71.6-1.83.6-3.34s-.2-2.64-.6-3.34c-.4-.7-1.01-1.05-1.83-1.05s-1.42.35-1.82,1.05c-.41.7-.61,1.8-.61,3.32s.21,2.65.62,3.36c.41.71,1.02,1.07,1.82,1.07Z"/>
          <path class="cls-2" d="m718.78,295.55l3.66-4.54v.77l-3.47-4.29h1.94l2.45,3.15h-.58l2.45-3.15h1.92l-3.44,4.27v-.74l3.65,4.53h-1.94l-2.64-3.38h.58l-2.66,3.38h-1.92Z"/>
          <path class="cls-2" d="m732.46,295.69c-.49,0-.98-.05-1.46-.16-.48-.11-.93-.26-1.34-.46s-.78-.43-1.09-.71l.58-1.26c.51.4,1.04.69,1.58.89s1.11.3,1.7.3c.76,0,1.35-.2,1.78-.59.43-.39.65-.92.65-1.58s-.21-1.23-.62-1.66c-.41-.42-.98-.63-1.7-.63-.5,0-.96.1-1.37.3-.41.2-.77.51-1.08.93h-1.15v-6.78h6.83v1.39h-5.25v4.06h-.42c.29-.41.67-.72,1.16-.94s1.03-.34,1.64-.34c.72,0,1.35.15,1.89.45s.95.71,1.24,1.25c.29.53.44,1.16.44,1.89s-.16,1.36-.49,1.91c-.33.55-.79.98-1.39,1.29-.6.31-1.31.46-2.14.46Z"/>
          <path class="cls-2" d="m741.9,295.69c-1.3,0-2.3-.5-3-1.5-.7-1-1.05-2.43-1.05-4.3s.35-3.34,1.05-4.31c.7-.98,1.7-1.46,3-1.46s2.31.49,3.01,1.46c.69.98,1.04,2.41,1.04,4.3s-.35,3.31-1.05,4.31c-.7,1-1.7,1.5-3,1.5Zm0-1.39c.82,0,1.43-.36,1.83-1.07.4-.71.6-1.83.6-3.34s-.2-2.64-.6-3.34c-.4-.7-1.01-1.05-1.83-1.05s-1.42.35-1.82,1.05c-.41.7-.61,1.8-.61,3.32s.21,2.65.62,3.36c.41.71,1.02,1.07,1.82,1.07Z"/>
          <path class="cls-2" d="m751.5,295.69c-1.3,0-2.3-.5-3-1.5-.7-1-1.05-2.43-1.05-4.3s.35-3.34,1.05-4.31c.7-.98,1.7-1.46,3-1.46s2.31.49,3.01,1.46c.69.98,1.04,2.41,1.04,4.3s-.35,3.31-1.05,4.31-1.7,1.5-3,1.5Zm0-1.39c.82,0,1.43-.36,1.83-1.07.4-.71.6-1.83.6-3.34s-.2-2.64-.6-3.34c-.4-.7-1.01-1.05-1.83-1.05s-1.42.35-1.82,1.05c-.41.7-.61,1.8-.61,3.32s.21,2.65.62,3.36c.41.71,1.02,1.07,1.82,1.07Z"/>
          <path class="cls-2" d="m761.78,295.55v-8.06h1.34l2.91,5.15,2.91-5.15h1.34v8.06h-1.42v-6.26h.35l-2.8,4.96h-.77l-2.8-4.96h.35v6.26h-1.42Z"/>
          <path class="cls-2" d="m772.73,295.55v-8.06h1.34l2.91,5.15,2.91-5.15h1.34v8.06h-1.42v-6.26h.35l-2.8,4.96h-.77l-2.8-4.96h.35v6.26h-1.42Z"/>
          <path class="cls-2" d="m710.38,308.94v-3.39h-3.34v-1.18h3.34v-3.31h1.22v3.31h3.34v1.18h-3.34v3.39h-1.22Z"/>
          <path class="cls-2" d="m717.7,309.55v-1.39h2.62v-8.48h.83l-3.2,1.95v-1.6l2.83-1.76h1.2v9.89h2.46v1.39h-6.75Z"/>
          <path class="cls-2" d="m730.18,309.69c-1.3,0-2.3-.5-3-1.5-.7-1-1.05-2.43-1.05-4.3s.35-3.34,1.05-4.31c.7-.98,1.7-1.46,3-1.46s2.31.49,3.01,1.46c.69.98,1.04,2.41,1.04,4.3s-.35,3.31-1.05,4.31c-.7,1-1.7,1.5-3,1.5Zm0-1.39c.82,0,1.43-.36,1.83-1.07s.6-1.83.6-3.34-.2-2.64-.6-3.34c-.4-.7-1.01-1.05-1.83-1.05s-1.42.35-1.82,1.05c-.41.7-.61,1.8-.61,3.32s.21,2.65.62,3.36c.41.71,1.02,1.07,1.82,1.07Z"/>
          <path class="cls-2" d="m736.74,311.52l-.7-.54c.31-.33.52-.63.63-.91.11-.28.17-.57.17-.86l.35.35h-1.26v-1.9h1.9v1.3c0,.48-.08.92-.24,1.34s-.44.82-.85,1.24Z"/>
          <path class="cls-2" d="m743.96,309.69c-1.4,0-2.47-.49-3.22-1.46s-1.13-2.33-1.13-4.08c0-1.3.19-2.4.58-3.29.38-.89.93-1.57,1.64-2.04.71-.47,1.57-.7,2.57-.7.6,0,1.19.11,1.79.34.6.23,1.1.55,1.5.97l-.59,1.25c-.39-.38-.83-.67-1.3-.86-.47-.19-.94-.29-1.42-.29-1.04,0-1.82.36-2.37,1.08s-.82,1.79-.82,3.22v1.36h-.16c.08-.58.26-1.07.54-1.5.29-.42.66-.74,1.12-.97.46-.22.97-.34,1.54-.34.67,0,1.27.15,1.78.46s.92.73,1.22,1.27c.3.54.45,1.15.45,1.85s-.16,1.35-.48,1.92c-.32.57-.76,1.01-1.32,1.32-.56.31-1.2.47-1.93.47Zm-.1-1.34c.45,0,.84-.1,1.18-.29.34-.19.6-.46.79-.81.19-.35.29-.75.29-1.21s-.1-.86-.29-1.2c-.19-.34-.46-.61-.79-.81-.34-.2-.73-.3-1.18-.3s-.84.1-1.18.3c-.34.2-.61.47-.8.81-.19.34-.29.74-.29,1.2s.1.86.29,1.21c.19.35.46.62.8.81.34.19.74.29,1.18.29Z"/>
          <path class="cls-2" d="m753.93,313v-9.58c0-.31-.01-.63-.04-.95-.03-.33-.06-.65-.09-.98h1.57l.16,1.82h-.18c.17-.61.51-1.09,1.03-1.44.52-.35,1.13-.53,1.85-.53s1.34.17,1.87.5.95.81,1.24,1.43c.29.62.44,1.37.44,2.24s-.15,1.61-.44,2.24c-.29.63-.71,1.11-1.24,1.44s-1.16.5-1.87.5-1.31-.17-1.83-.52c-.52-.35-.86-.82-1.03-1.42h.18v5.25h-1.62Zm3.9-4.58c.7,0,1.27-.24,1.69-.74.42-.49.63-1.22.63-2.18s-.21-1.68-.63-2.17c-.42-.48-.98-.73-1.69-.73s-1.27.24-1.69.73c-.42.49-.63,1.21-.63,2.17s.21,1.69.63,2.18c.42.49.98.74,1.69.74Z"/>
          <path class="cls-2" d="m763.27,309.55v-1.9h1.9v1.9h-1.9Z"/>
        </g>
        <g>
          <path class="cls-2" d="m823.76,295.55l5.54-10.51v.64h-6.18v-1.41h7.68v1.23l-5.22,10.05h-1.82Z"/>
          <path class="cls-2" d="m836.56,295.69c-1.3,0-2.3-.5-3-1.5-.7-1-1.05-2.43-1.05-4.3s.35-3.34,1.05-4.31c.7-.98,1.7-1.46,3-1.46s2.31.49,3.01,1.46c.69.98,1.04,2.41,1.04,4.3s-.35,3.31-1.05,4.31c-.7,1-1.7,1.5-3,1.5Zm0-1.39c.82,0,1.43-.36,1.83-1.07.4-.71.6-1.83.6-3.34s-.2-2.64-.6-3.34c-.4-.7-1.01-1.05-1.83-1.05s-1.42.35-1.82,1.05c-.41.7-.61,1.8-.61,3.32s.21,2.65.62,3.36c.41.71,1.02,1.07,1.82,1.07Z"/>
          <path class="cls-2" d="m846.16,295.69c-1.3,0-2.3-.5-3-1.5-.7-1-1.05-2.43-1.05-4.3s.35-3.34,1.05-4.31c.7-.98,1.7-1.46,3-1.46s2.31.49,3.01,1.46c.69.98,1.04,2.41,1.04,4.3s-.35,3.31-1.05,4.31c-.7,1-1.7,1.5-3,1.5Zm0-1.39c.82,0,1.43-.36,1.83-1.07.4-.71.6-1.83.6-3.34s-.2-2.64-.6-3.34c-.4-.7-1.01-1.05-1.83-1.05s-1.42.35-1.82,1.05c-.41.7-.61,1.8-.61,3.32s.21,2.65.62,3.36c.41.71,1.02,1.07,1.82,1.07Z"/>
          <path class="cls-2" d="m851.09,295.55l3.66-4.54v.77l-3.47-4.29h1.94l2.45,3.15h-.58l2.45-3.15h1.92l-3.44,4.27v-.74l3.65,4.53h-1.94l-2.64-3.38h.58l-2.66,3.38h-1.92Z"/>
          <path class="cls-2" d="m864.99,295.69c-1.4,0-2.47-.49-3.22-1.46s-1.13-2.33-1.13-4.08c0-1.3.19-2.4.58-3.29.38-.89.93-1.57,1.64-2.04.71-.47,1.57-.7,2.57-.7.6,0,1.19.11,1.79.34.6.23,1.1.55,1.5.97l-.59,1.25c-.39-.38-.83-.67-1.3-.86-.47-.19-.94-.29-1.42-.29-1.03,0-1.82.36-2.37,1.08s-.82,1.79-.82,3.22v1.36h-.16c.07-.58.26-1.07.54-1.5.29-.42.66-.74,1.12-.97.46-.22.97-.34,1.54-.34.67,0,1.27.15,1.78.46.52.31.92.73,1.22,1.27.3.54.45,1.15.45,1.85s-.16,1.35-.48,1.92-.76,1.01-1.32,1.32c-.56.31-1.2.47-1.93.47Zm-.1-1.34c.45,0,.84-.1,1.18-.29.34-.19.6-.46.79-.81.19-.35.29-.75.29-1.21s-.1-.86-.29-1.2c-.19-.34-.46-.61-.79-.81-.34-.2-.73-.3-1.18-.3s-.84.1-1.18.3c-.34.2-.61.47-.8.81-.19.34-.29.74-.29,1.2s.1.86.29,1.21c.19.35.46.62.8.81.34.19.74.29,1.18.29Z"/>
          <path class="cls-2" d="m874.21,295.69c-1.3,0-2.3-.5-3-1.5-.7-1-1.05-2.43-1.05-4.3s.35-3.34,1.05-4.31c.7-.98,1.7-1.46,3-1.46s2.31.49,3.01,1.46c.69.98,1.04,2.41,1.04,4.3s-.35,3.31-1.05,4.31c-.7,1-1.7,1.5-3,1.5Zm0-1.39c.82,0,1.43-.36,1.83-1.07.4-.71.6-1.83.6-3.34s-.2-2.64-.6-3.34c-.4-.7-1.01-1.05-1.83-1.05s-1.42.35-1.82,1.05c-.41.7-.61,1.8-.61,3.32s.21,2.65.62,3.36c.41.71,1.02,1.07,1.82,1.07Z"/>
          <path class="cls-2" d="m883.81,295.69c-1.3,0-2.3-.5-3-1.5-.7-1-1.05-2.43-1.05-4.3s.35-3.34,1.05-4.31c.7-.98,1.7-1.46,3-1.46s2.31.49,3.01,1.46c.69.98,1.04,2.41,1.04,4.3s-.35,3.31-1.05,4.31-1.7,1.5-3,1.5Zm0-1.39c.82,0,1.43-.36,1.83-1.07.4-.71.6-1.83.6-3.34s-.2-2.64-.6-3.34c-.4-.7-1.01-1.05-1.83-1.05s-1.42.35-1.82,1.05c-.41.7-.61,1.8-.61,3.32s.21,2.65.62,3.36c.41.71,1.02,1.07,1.82,1.07Z"/>
          <path class="cls-2" d="m894.09,295.55v-8.06h1.34l2.91,5.15,2.91-5.15h1.34v8.06h-1.42v-6.26h.35l-2.8,4.96h-.77l-2.8-4.96h.35v6.26h-1.42Z"/>
          <path class="cls-2" d="m905.04,295.55v-8.06h1.34l2.91,5.15,2.91-5.15h1.34v8.06h-1.42v-6.26h.35l-2.8,4.96h-.77l-2.8-4.96h.35v6.26h-1.42Z"/>
          <path class="cls-2" d="m842.69,308.94v-3.39h-3.34v-1.18h3.34v-3.31h1.22v3.31h3.34v1.18h-3.34v3.39h-1.22Z"/>
          <path class="cls-2" d="m849.42,309.55v-1.23l3.87-4.05c.5-.52.88-1.01,1.12-1.47.25-.46.37-.93.37-1.42,0-.61-.19-1.07-.57-1.38-.38-.31-.93-.46-1.64-.46-.57,0-1.1.1-1.59.3-.5.2-.97.51-1.43.93l-.58-1.26c.45-.42,1.01-.75,1.67-1,.67-.25,1.37-.38,2.12-.38,1.17,0,2.08.27,2.71.8.63.53.95,1.3.95,2.29,0,.7-.17,1.38-.51,2.02-.34.65-.85,1.31-1.54,1.99l-3.34,3.38v-.45h5.86v1.39h-7.47Z"/>
          <path class="cls-2" d="m862.88,309.69c-1.4,0-2.47-.49-3.22-1.46s-1.13-2.33-1.13-4.08c0-1.3.19-2.4.58-3.29.38-.89.93-1.57,1.64-2.04.71-.47,1.57-.7,2.57-.7.6,0,1.19.11,1.79.34.6.23,1.1.55,1.5.97l-.59,1.25c-.39-.38-.83-.67-1.3-.86-.47-.19-.94-.29-1.42-.29-1.03,0-1.82.36-2.37,1.08s-.82,1.79-.82,3.22v1.36h-.16c.07-.58.26-1.07.54-1.5.29-.42.66-.74,1.12-.97.46-.22.97-.34,1.54-.34.67,0,1.27.15,1.78.46.52.31.92.73,1.22,1.27.3.54.45,1.15.45,1.85s-.16,1.35-.48,1.92-.76,1.01-1.32,1.32c-.56.31-1.2.47-1.93.47Zm-.1-1.34c.45,0,.84-.1,1.18-.29.34-.19.6-.46.79-.81.19-.35.29-.75.29-1.21s-.1-.86-.29-1.2c-.19-.34-.46-.61-.79-.81-.34-.2-.73-.3-1.18-.3s-.84.1-1.18.3c-.34.2-.61.47-.8.81-.19.34-.29.74-.29,1.2s.1.86.29,1.21c.19.35.46.62.8.81.34.19.74.29,1.18.29Z"/>
          <path class="cls-2" d="m869.05,311.52l-.7-.54c.31-.33.52-.63.63-.91.11-.28.17-.57.17-.86l.35.35h-1.26v-1.9h1.9v1.3c0,.48-.08.92-.24,1.34s-.44.82-.85,1.24Z"/>
          <path class="cls-2" d="m875.09,309.69c-.6,0-1.19-.12-1.79-.36s-1.1-.56-1.5-.95l.59-1.26c.39.38.83.67,1.3.87.47.2.94.3,1.42.3,1.02,0,1.81-.36,2.36-1.08.55-.72.82-1.79.82-3.22v-1.36h.16c-.06.57-.25,1.06-.54,1.49-.3.43-.67.75-1.13.98-.45.22-.96.34-1.53.34-.66,0-1.26-.15-1.78-.46-.53-.31-.94-.74-1.23-1.28-.29-.54-.44-1.16-.44-1.84,0-.72.16-1.37.48-1.93.32-.56.76-1,1.31-1.31.55-.31,1.19-.47,1.92-.47,1.41,0,2.49.48,3.24,1.45s1.13,2.33,1.13,4.09c0,1.29-.19,2.38-.57,3.28-.38.9-.92,1.58-1.64,2.05-.71.47-1.57.7-2.58.7Zm.53-5.63c.45,0,.84-.1,1.18-.29.34-.19.61-.46.8-.81.19-.35.29-.74.29-1.19s-.1-.86-.29-1.21c-.19-.35-.46-.62-.8-.82-.34-.2-.74-.3-1.18-.3s-.84.1-1.18.3-.6.47-.79.82c-.19.35-.29.75-.29,1.21s.1.84.29,1.19c.19.35.46.62.79.81s.73.29,1.18.29Z"/>
          <path class="cls-2" d="m886.24,313v-9.58c0-.31-.01-.63-.04-.95-.03-.33-.06-.65-.09-.98h1.57l.16,1.82h-.18c.17-.61.51-1.09,1.03-1.44.52-.35,1.13-.53,1.85-.53s1.34.17,1.87.5.95.81,1.24,1.43c.29.62.44,1.37.44,2.24s-.15,1.61-.44,2.24c-.29.63-.71,1.11-1.24,1.44s-1.16.5-1.87.5-1.31-.17-1.83-.52c-.52-.35-.86-.82-1.03-1.42h.18v5.25h-1.62Zm3.9-4.58c.7,0,1.27-.24,1.69-.74.42-.49.63-1.22.63-2.18s-.21-1.68-.63-2.17c-.42-.48-.98-.73-1.69-.73s-1.27.24-1.69.73c-.42.49-.63,1.21-.63,2.17s.21,1.69.63,2.18c.42.49.98.74,1.69.74Z"/>
          <path class="cls-2" d="m895.58,309.55v-1.9h1.9v1.9h-1.9Z"/>
        </g>
        <text class="cls-4" transform="translate(179.9 309)"><tspan x="0" y="0">(80 мк</tspan><tspan class="cls-14" x="39.49" y="0">р</tspan><tspan x="47.36" y="0">, </tspan><tspan class="cls-8" x="53.91" y="0">р</tspan><tspan x="61.89" y="0">учка НЕ укреплённая)</tspan></text>
        <text class="cls-3" transform="translate(353.43 254.73)"><tspan x="0" y="0">132,5 </tspan><tspan class="cls-16" x="46.46" y="0">р</tspan><tspan x="56.14" y="0">.</tspan></text>
        <text class="cls-3" transform="translate(458.7 254.73)"><tspan x="0" y="0">121 </tspan><tspan class="cls-18" x="33.07" y="0">р</tspan><tspan class="cls-15" x="42.75" y="0">.</tspan></text>
        <text class="cls-3" transform="translate(558.76 254.73)"><tspan x="0" y="0">108 </tspan><tspan class="cls-18" x="33.07" y="0">р</tspan><tspan class="cls-15" x="42.75" y="0">.</tspan></text>
        <text class="cls-3" transform="translate(654.56 254.73)"><tspan x="0" y="0">101,4 </tspan><tspan class="cls-16" x="46.46" y="0">р</tspan><tspan x="56.14" y="0">.</tspan></text>
        <text class="cls-3" transform="translate(762.99 254.73)"><tspan x="0" y="0">100 </tspan><tspan class="cls-18" x="33.07" y="0">р</tspan><tspan class="cls-15" x="42.75" y="0">.</tspan></text>
        <text class="cls-3" transform="translate(866.49 254.73)"><tspan x="0" y="0">91 </tspan><tspan class="cls-13" x="23.47" y="0">р</tspan><tspan x="33.15" y="0">.</tspan></text>
        <text class="cls-3" transform="translate(362.83 121.3)"><tspan x="0" y="0">52 </tspan><tspan class="cls-13" x="23.47" y="0">р</tspan><tspan x="33.15" y="0">.</tspan></text>
        <text class="cls-1" transform="translate(352.63 75.91)"><tspan x="0" y="0">150 ш</tspan><tspan class="cls-12" x="46.75" y="0">т</tspan><tspan x="53.38" y="0">.</tspan></text>
        <text class="cls-3" transform="translate(362.83 166.08)"><tspan x="0" y="0">83 </tspan><tspan class="cls-13" x="23.47" y="0">р</tspan><tspan x="33.15" y="0">.</tspan></text>
        <text class="cls-3" transform="translate(358.03 210.85)"><tspan x="0" y="0">105 </tspan><tspan class="cls-18" x="33.07" y="0">р</tspan><tspan class="cls-15" x="42.75" y="0">.</tspan></text>
        <text class="cls-3" transform="translate(457.59 121.3)"><tspan x="0" y="0">49,4 </tspan><tspan class="cls-13" x="36.86" y="0">р</tspan><tspan class="cls-17" x="46.54" y="0">.</tspan></text>
        <text class="cls-1" transform="translate(454.09 75.91)"><tspan x="0" y="0">200 ш</tspan><tspan class="cls-12" x="46.75" y="0">т</tspan><tspan x="53.38" y="0">.</tspan></text>
        <text class="cls-3" transform="translate(457.59 166.08)"><tspan x="0" y="0">72,8 </tspan><tspan class="cls-13" x="36.86" y="0">р</tspan><tspan class="cls-17" x="46.54" y="0">.</tspan></text>
        <text class="cls-3" transform="translate(457.59 210.85)"><tspan x="0" y="0">97,5 </tspan><tspan class="cls-13" x="36.86" y="0">р</tspan><tspan class="cls-17" x="46.54" y="0">.</tspan></text>
        <text class="cls-3" transform="translate(558.67 121.3)"><tspan x="0" y="0">45,5 </tspan><tspan class="cls-13" x="36.86" y="0">р</tspan><tspan class="cls-17" x="46.54" y="0">.</tspan></text>
        <text class="cls-1" transform="translate(555.16 75.91)"><tspan x="0" y="0">300 ш</tspan><tspan class="cls-12" x="46.75" y="0">т</tspan><tspan x="53.38" y="0">.</tspan></text>
        <text class="cls-3" transform="translate(558.67 166.08)"><tspan x="0" y="0">66,3 </tspan><tspan class="cls-13" x="36.86" y="0">р</tspan><tspan class="cls-17" x="46.54" y="0">.</tspan></text>
        <text class="cls-3" transform="translate(558.67 210.85)"><tspan x="0" y="0">88,4 </tspan><tspan class="cls-13" x="36.86" y="0">р</tspan><tspan class="cls-17" x="46.54" y="0">.</tspan></text>
        <text class="cls-3" transform="translate(666.41 121.3)"><tspan x="0" y="0">43 </tspan><tspan class="cls-13" x="23.47" y="0">р</tspan><tspan x="33.15" y="0">.</tspan></text>
        <text class="cls-1" transform="translate(656.21 75.91)"><tspan x="0" y="0">400 ш</tspan><tspan class="cls-12" x="46.75" y="0">т</tspan><tspan x="53.38" y="0">.</tspan></text>
        <text class="cls-3" transform="translate(659.72 166.08)"><tspan x="0" y="0">62,4 </tspan><tspan class="cls-13" x="36.86" y="0">р</tspan><tspan class="cls-17" x="46.54" y="0">.</tspan></text>
        <text class="cls-3" transform="translate(666.41 210.85)"><tspan x="0" y="0">82 </tspan><tspan class="cls-13" x="23.47" y="0">р</tspan><tspan x="33.15" y="0">.</tspan></text>
        <text class="cls-3" transform="translate(767.61 121.3)"><tspan x="0" y="0">42 </tspan><tspan class="cls-13" x="23.47" y="0">р</tspan><tspan x="33.15" y="0">.</tspan></text>
        <text class="cls-1" transform="translate(757.41 75.91)"><tspan x="0" y="0">500 ш</tspan><tspan class="cls-12" x="46.75" y="0">т</tspan><tspan x="53.38" y="0">.</tspan></text>
        <text class="cls-3" transform="translate(767.61 166.08)"><tspan x="0" y="0">61 </tspan><tspan class="cls-13" x="23.47" y="0">р</tspan><tspan x="33.15" y="0">.</tspan></text>
        <text class="cls-3" transform="translate(760.91 210.85)"><tspan x="0" y="0">80,5 </tspan><tspan class="cls-13" x="36.86" y="0">р</tspan><tspan class="cls-17" x="46.54" y="0">.</tspan></text>
        <text class="cls-3" transform="translate(860.81 121.3)"><tspan x="0" y="0">40,3 </tspan><tspan class="cls-13" x="36.86" y="0">р</tspan><tspan class="cls-17" x="46.54" y="0">.</tspan></text>
        <text class="cls-1" transform="translate(852.5 75.91)"><tspan x="0" y="0">1000 ш</tspan><tspan class="cls-9" x="56.35" y="0">т</tspan><tspan class="cls-15" x="62.98" y="0">.</tspan></text>
        <text class="cls-3" transform="translate(860.81 166.08)"><tspan x="0" y="0">57,2 </tspan><tspan class="cls-13" x="36.86" y="0">р</tspan><tspan class="cls-17" x="46.54" y="0">.</tspan></text>
        <text class="cls-3" transform="translate(867.5 210.85)"><tspan x="0" y="0">74 </tspan><tspan class="cls-13" x="23.47" y="0">р</tspan><tspan x="33.15" y="0">.</tspan></text>
      </g>
    </g>
  </g>
</svg>