<?xml version="1.0" encoding="UTF-8"?>
<svg id="_Слой_2" data-name="Слой 2" xmlns="http://www.w3.org/2000/svg" viewBox="0 0 938.93 434.06">
  <defs>
    <style>
      .cls-1, .cls-2, .cls-3, .cls-4, .cls-5 {
        fill: #27625f;
      }

      .cls-1, .cls-3 {
        font-size: 16px;
      }

      .cls-1, .cls-4, .cls-5 {
        font-family: Mulish-Bold, Mulish;
        font-weight: 700;
      }

      .cls-6 {
        fill: #fff;
      }

      .cls-6, .cls-7 {
        stroke: #a0b6b5;
        stroke-miterlimit: 10;
      }

      .cls-2 {
        stroke-width: 0px;
      }

      .cls-3 {
        font-family: Mulish-SemiBold, Mulish;
        font-weight: 600;
      }

      .cls-8 {
        letter-spacing: -.01em;
      }

      .cls-9 {
        letter-spacing: -.07em;
      }

      .cls-10 {
        letter-spacing: 0em;
      }

      .cls-11 {
        letter-spacing: 0em;
      }

      .cls-12 {
        letter-spacing: -.07em;
      }

      .cls-13 {
        letter-spacing: 0em;
      }

      .cls-14 {
        letter-spacing: -.02em;
      }

      .cls-15 {
        letter-spacing: 0em;
      }

      .cls-16 {
        letter-spacing: -.07em;
      }

      .cls-17 {
        letter-spacing: -.02em;
      }

      .cls-18 {
        letter-spacing: -.08em;
      }

      .cls-19 {
        letter-spacing: 0em;
      }

      .cls-4 {
        font-size: 13px;
      }

      .cls-5 {
        font-size: 15px;
      }

      .cls-7 {
        fill: none;
      }
    </style>
  </defs>
  <g id="_Слой_1-2" data-name="Слой 1">
    <g>
      <g>
        <g>
          <rect class="cls-6" x=".5" y=".5" width="937.93" height="137.82" rx="10" ry="10"/>
          <line class="cls-7" x1=".5" y1="92.38" x2="938.42" y2="92.38"/>
          <line class="cls-7" x1=".5" y1="46.44" x2="938.42" y2="46.44"/>
          <line class="cls-7" x1="106.83" y1="46.44" x2="106.83" y2="138.32"/>
          <line class="cls-7" x1="226.55" y1="46.44" x2="226.55" y2="138.32"/>
          <line class="cls-7" x1="346.27" y1="46.44" x2="346.27" y2="138.32"/>
          <line class="cls-7" x1="465.99" y1="46.44" x2="465.99" y2="138.32"/>
          <line class="cls-7" x1="585.71" y1="46.44" x2="585.71" y2="138.32"/>
          <line class="cls-7" x1="705.44" y1="46.44" x2="705.44" y2="138.32"/>
          <line class="cls-7" x1="825.16" y1="46.44" x2="825.16" y2="138.32"/>
        </g>
        <g>
          <text class="cls-1" transform="translate(27.48 73.43)"><tspan class="cls-18" x="0" y="0">Т</tspan><tspan x="8.66" y="0">ираж</tspan></text>
          <text class="cls-1" transform="translate(14.5 28.43)"><tspan x="0" y="0">Пластиковые карты</tspan></text>
          <text class="cls-1" transform="translate(129.71 73.59)"><tspan x="0" y="0">50-99 ш</tspan><tspan class="cls-9" x="63.36" y="0">т</tspan><tspan class="cls-15" x="69.98" y="0">.</tspan></text>
          <text class="cls-3" transform="translate(148.22 119.08)"><tspan x="0" y="0">25 </tspan><tspan class="cls-14" x="23.47" y="0">р</tspan><tspan x="33.15" y="0">.</tspan></text>
          <text class="cls-1" transform="translate(239.84 73.59)"><tspan x="0" y="0">100-299 ш</tspan><tspan class="cls-12" x="82.56" y="0">т</tspan><tspan x="89.18" y="0">.</tspan></text>
          <text class="cls-3" transform="translate(267.94 119.08)"><tspan x="0" y="0">20 </tspan><tspan class="cls-14" x="23.47" y="0">р</tspan><tspan x="33.15" y="0">.</tspan></text>
          <text class="cls-1" transform="translate(359.56 73.59)"><tspan x="0" y="0">300-499 ш</tspan><tspan class="cls-12" x="82.56" y="0">т</tspan><tspan x="89.18" y="0">.</tspan></text>
          <text class="cls-3" transform="translate(387.66 119.08)"><tspan x="0" y="0">18 </tspan><tspan class="cls-14" x="23.47" y="0">р</tspan><tspan x="33.15" y="0">.</tspan></text>
          <text class="cls-1" transform="translate(479.28 73.59)"><tspan x="0" y="0">300-499 ш</tspan><tspan class="cls-12" x="82.56" y="0">т</tspan><tspan x="89.18" y="0">.</tspan></text>
          <text class="cls-3" transform="translate(507.38 119.08)"><tspan x="0" y="0">16 </tspan><tspan class="cls-14" x="23.47" y="0">р</tspan><tspan x="33.15" y="0">.</tspan></text>
          <text class="cls-1" transform="translate(709.12 73.59)"><tspan x="0" y="0">3000-4999 ш</tspan><tspan class="cls-16" x="101.76" y="0">т</tspan><tspan class="cls-19" x="108.38" y="0">.</tspan></text>
          <text class="cls-1" transform="translate(589.4 73.59)"><tspan x="0" y="0">1000-2999 ш</tspan><tspan class="cls-16" x="101.76" y="0">т</tspan><tspan class="cls-19" x="108.38" y="0">.</tspan></text>
          <text class="cls-3" transform="translate(627.1 119.08)"><tspan x="0" y="0">13 </tspan><tspan class="cls-14" x="23.47" y="0">р</tspan><tspan x="33.15" y="0">.</tspan></text>
          <text class="cls-1" transform="translate(840.64 73.59)"><tspan x="0" y="0">от 5000 ш</tspan><tspan class="cls-12" x="78.17" y="0">т</tspan><tspan x="84.8" y="0">.</tspan></text>
          <text class="cls-3" transform="translate(866.55 119.08)"><tspan x="0" y="0">12 </tspan><tspan class="cls-14" x="23.47" y="0">р</tspan><tspan x="33.15" y="0">.</tspan></text>
          <text class="cls-1" transform="translate(32.58 118.92)"><tspan x="0" y="0">Цена</tspan></text>
        </g>
      </g>
      <g>
        <g>
          <rect class="cls-6" x=".5" y="203.86" width="937.93" height="229.7" rx="10" ry="10"/>
          <line class="cls-7" x1=".5" y1="341.68" x2="938.43" y2="341.68"/>
          <line class="cls-7" x1="736.15" y1="387.62" x2="938.43" y2="387.62"/>
          <line class="cls-7" x1=".5" y1="387.62" x2="352.33" y2="387.62"/>
          <line class="cls-7" x1=".5" y1="249.8" x2="938.43" y2="249.8"/>
          <line class="cls-7" x1="127.63" y1="249.8" x2="127.63" y2="433.56"/>
          <line class="cls-7" x1="231.63" y1="249.8" x2="231.63" y2="433.56"/>
          <line class="cls-7" x1="352.33" y1="249.8" x2="352.33" y2="433.56"/>
          <line class="cls-7" x1="489.9" y1="249.8" x2="489.9" y2="433.56"/>
          <line class="cls-7" x1="585.24" y1="249.8" x2="585.24" y2="433.56"/>
          <line class="cls-7" x1="674.2" y1="249.8" x2="674.2" y2="433.56"/>
          <line class="cls-7" x1="736.15" y1="249.8" x2="736.15" y2="433.56"/>
          <line class="cls-7" x1="837.29" y1="249.8" x2="837.29" y2="433.56"/>
        </g>
        <g>
          <text class="cls-5" transform="translate(7.96 299.98)"><tspan x="0" y="0">Наименование</tspan></text>
          <text class="cls-1" transform="translate(14.5 232.08)"><tspan x="0" y="0">Доп</tspan><tspan class="cls-10" x="32.69" y="0">о</tspan><tspan class="cls-15" x="42.22" y="0">лни</tspan><tspan class="cls-13" x="71.7" y="0">т</tspan><tspan x="79.36" y="0">ельные </tspan><tspan class="cls-11" x="143.01" y="0">у</tspan><tspan x="151.79" y="0">слуги</tspan></text>
          <text class="cls-1" transform="translate(22.55 370.94)"><tspan x="0" y="0">50-499 ш</tspan><tspan class="cls-12" x="72.96" y="0">т</tspan><tspan x="79.58" y="0">.</tspan></text>
          <text class="cls-4" transform="translate(144.79 285.41)"><tspan x="0" y="0">Магнитная</tspan><tspan x="12.56" y="14">п</tspan><tspan class="cls-8" x="20.55" y="14">о</tspan><tspan x="28.3" y="14">лоса</tspan><tspan x="-11.45" y="28">+кодирование</tspan></text>
          <g>
            <path class="cls-2" d="m238.1,285.54c-.63,0-1.22-.1-1.77-.3s-1.01-.47-1.38-.82l.55-1.33c.41.34.81.59,1.22.74.41.16.86.23,1.35.23.91,0,1.62-.26,2.12-.79.51-.53.78-1.29.81-2.28l.46.4h-4.82v-1.31h4.8l-.44.44c-.04-.94-.31-1.66-.81-2.18-.49-.52-1.18-.77-2.07-.77-.49,0-.95.07-1.36.22-.41.15-.83.39-1.27.74l-.55-1.31c.4-.36.88-.63,1.43-.83.55-.2,1.15-.29,1.79-.29.95,0,1.77.19,2.45.58.68.39,1.2.93,1.57,1.63s.55,1.53.55,2.5-.18,1.8-.55,2.5c-.36.71-.89,1.25-1.58,1.64-.69.39-1.52.58-2.5.58Z"/>
            <path class="cls-2" d="m244.37,285.41v-6.56h1.35l2.26,3.93,2.26-3.93h1.35v6.56h-1.43v-4.75h.3l-2.11,3.68h-.75l-2.11-3.68h.3v4.75h-1.43Z"/>
            <path class="cls-2" d="m256.52,285.54c-1.03,0-1.85-.31-2.46-.94-.61-.62-.92-1.54-.92-2.74v-1.12c0-1.24.28-2.24.84-2.99.56-.75,1.41-1.25,2.55-1.5l2.4-.55.44,1.27-2.7.6c-.45.1-.82.28-1.12.54-.29.27-.52.58-.66.94-.15.36-.22.75-.22,1.17v.69h-.22c.09-.39.25-.73.48-1.02.22-.29.51-.52.86-.68.35-.17.74-.25,1.18-.25.55,0,1.04.13,1.46.38.42.25.75.62.99,1.1s.36,1.06.36,1.72-.14,1.28-.41,1.78c-.27.5-.66.89-1.14,1.16-.49.27-1.06.41-1.72.41Zm-.05-1.24c.54,0,.96-.17,1.25-.51.3-.34.45-.86.45-1.54s-.15-1.18-.45-1.53-.72-.53-1.25-.53-.94.17-1.25.52c-.3.35-.46.84-.46,1.48,0,.7.15,1.23.46,1.58.3.35.72.53,1.25.53Z"/>
            <path class="cls-2" d="m264.35,285.54c-.68,0-1.26-.14-1.75-.42-.49-.28-.88-.67-1.15-1.18s-.41-1.12-.41-1.82.14-1.31.41-1.81.66-.9,1.15-1.18,1.08-.42,1.75-.42,1.26.14,1.76.42.88.67,1.16,1.18c.27.51.41,1.11.41,1.81s-.14,1.31-.41,1.82c-.27.51-.66.91-1.16,1.18-.5.28-1.09.42-1.76.42Zm0-1.25c.51,0,.92-.18,1.22-.54.3-.36.46-.9.46-1.63s-.15-1.27-.46-1.62c-.3-.36-.71-.53-1.22-.53s-.92.18-1.22.53c-.3.36-.45.9-.45,1.62s.15,1.27.45,1.63c.3.36.71.54,1.22.54Z"/>
            <path class="cls-2" d="m272.28,285.54c-.68,0-1.27-.14-1.77-.42-.51-.28-.9-.67-1.18-1.19s-.42-1.13-.42-1.84.14-1.32.42-1.82c.28-.5.67-.89,1.18-1.16.5-.27,1.09-.4,1.77-.4.43,0,.86.07,1.27.2.41.13.75.33,1.01.58l-.49,1.13c-.23-.22-.5-.38-.79-.49-.29-.11-.57-.16-.85-.16-.58,0-1.03.18-1.36.54-.33.37-.49.89-.49,1.59s.16,1.23.49,1.6c.32.37.78.56,1.36.56.27,0,.55-.05.84-.16.29-.1.56-.26.8-.48l.49,1.12c-.27.25-.61.45-1.02.58s-.83.21-1.25.21Z"/>
            <path class="cls-2" d="m275.94,285.41v-6.56h1.47v4.96h-.39l3.73-4.96h1.34v6.56h-1.47v-4.98h.4l-3.74,4.98h-1.34Z"/>
            <path class="cls-2" d="m283.99,288.22v-7.74c0-.27,0-.54-.03-.82-.02-.28-.04-.55-.08-.82h1.57l.14,1.38h-.14c.13-.46.41-.83.83-1.1.42-.27.91-.41,1.46-.41s1.09.14,1.52.41c.43.27.77.66,1.01,1.17.24.51.36,1.12.36,1.83s-.12,1.32-.36,1.83c-.24.51-.58.9-1.01,1.18s-.94.41-1.52.41c-.55,0-1.03-.13-1.44-.4-.42-.27-.69-.63-.83-1.08h.14v4.16h-1.62Zm3.3-3.93c.52,0,.94-.18,1.25-.54.31-.36.47-.9.47-1.63s-.16-1.27-.47-1.62-.73-.53-1.25-.53-.92.18-1.24.53c-.31.36-.47.9-.47,1.62s.16,1.27.47,1.63c.31.36.72.54,1.24.54Z"/>
            <path class="cls-2" d="m295.2,285.54c-.68,0-1.26-.14-1.75-.42-.49-.28-.88-.67-1.15-1.18-.27-.51-.41-1.12-.41-1.82s.14-1.31.41-1.81c.27-.51.66-.9,1.15-1.18s1.08-.42,1.75-.42,1.26.14,1.76.42.88.67,1.16,1.18.41,1.11.41,1.81-.14,1.31-.41,1.82-.66.91-1.16,1.18c-.5.28-1.08.42-1.76.42Zm0-1.25c.51,0,.92-.18,1.22-.54.3-.36.46-.9.46-1.63s-.15-1.27-.46-1.62c-.3-.36-.71-.53-1.22-.53s-.92.18-1.22.53-.45.9-.45,1.62.15,1.27.45,1.63c.3.36.71.54,1.22.54Z"/>
            <path class="cls-2" d="m300.06,285.41v-6.56h3.5c.82,0,1.43.15,1.81.45.38.3.57.72.57,1.27,0,.42-.14.76-.42,1.04s-.65.45-1.11.52v-.18c.56.04,1,.2,1.3.49s.46.68.46,1.14c0,.56-.22,1.01-.65,1.34-.43.33-1.05.49-1.85.49h-3.61Zm1.51-3.85h1.79c.35,0,.62-.08.81-.23.19-.15.29-.37.29-.64s-.09-.49-.29-.64c-.19-.15-.46-.22-.81-.22h-1.79v1.73Zm0,2.85h1.94c.38,0,.67-.08.88-.23.2-.16.3-.39.3-.69s-.1-.53-.3-.69c-.2-.16-.5-.23-.88-.23h-1.94v1.85Z"/>
            <path class="cls-2" d="m310.17,285.54c-.57,0-1.07-.14-1.51-.41s-.77-.67-1.01-1.18c-.24-.51-.37-1.12-.37-1.83s.12-1.32.37-1.83c.24-.51.58-.9,1.01-1.17.43-.27.94-.41,1.51-.41s1.04.14,1.46.41c.42.27.7.64.84,1.1h-.14l.14-1.38h1.56c-.03.27-.05.54-.07.82s-.03.55-.03.82v4.93h-1.61v-1.35s.14,0,.14,0c-.14.45-.42.81-.84,1.08-.43.27-.91.4-1.44.4Zm.46-1.25c.51,0,.92-.18,1.23-.54.31-.36.47-.9.47-1.63s-.16-1.27-.47-1.62-.72-.53-1.23-.53-.92.18-1.23.53c-.31.36-.47.9-.47,1.62s.15,1.27.46,1.63c.31.36.72.54,1.24.54Z"/>
            <path class="cls-2" d="m315.83,285.41v-6.56h1.61v2.57h2.96v-2.57h1.61v6.56h-1.61v-2.74h-2.96v2.74h-1.61Z"/>
            <path class="cls-2" d="m323.86,285.41v-6.56h1.47v4.96h-.39l3.73-4.96h1.34v6.56h-1.47v-4.98h.4l-3.74,4.98h-1.34Z"/>
            <path class="cls-2" d="m335.08,285.54c-1.1,0-1.96-.3-2.59-.91-.62-.61-.94-1.44-.94-2.5,0-.69.13-1.28.4-1.79.27-.51.64-.91,1.12-1.2.48-.29,1.04-.43,1.68-.43s1.16.13,1.59.4c.42.27.75.65.97,1.13s.33,1.05.33,1.7v.43h-4.78v-.86h3.63l-.22.18c0-.61-.13-1.07-.38-1.39-.26-.32-.63-.48-1.11-.48-.54,0-.95.19-1.24.57-.29.38-.44.92-.44,1.6v.17c0,.71.18,1.24.53,1.59.35.35.85.53,1.49.53.37,0,.72-.05,1.05-.15.33-.1.63-.26.93-.49l.48,1.09c-.31.25-.68.45-1.12.58s-.89.21-1.38.21Z"/>
            <path class="cls-2" d="m345.12,284.9v-2.65h-2.61v-1.14h2.61v-2.59h1.18v2.59h2.6v1.14h-2.6v2.65h-1.18Z"/>
            <path class="cls-2" d="m251.58,299.41v-5.29h-2.25v-1.27h6.12v1.27h-2.26v5.29h-1.61Z"/>
            <path class="cls-2" d="m256.46,299.41v-6.56h1.47v4.96h-.39l3.73-4.96h1.34v6.56h-1.47v-4.98h.4l-3.74,4.98h-1.34Z"/>
            <path class="cls-2" d="m264.45,299.41v-6.56h6.15v6.56h-1.61v-5.32h-2.92v5.32h-1.61Z"/>
            <path class="cls-2" d="m272.45,299.41v-6.56h1.47v4.96h-.39l3.73-4.96h1.34v6.56h-1.47v-4.98h.4l-3.74,4.98h-1.34Z"/>
            <path class="cls-2" d="m280.49,302.22v-7.74c0-.27,0-.54-.03-.82s-.04-.55-.08-.82h1.57l.14,1.38h-.14c.13-.46.41-.83.83-1.1.42-.27.91-.41,1.46-.41s1.09.14,1.52.41c.43.27.77.66,1.01,1.17.24.51.36,1.12.36,1.83s-.12,1.32-.36,1.83c-.24.51-.58.9-1.01,1.18-.43.27-.94.41-1.52.41-.55,0-1.03-.13-1.44-.4-.42-.27-.69-.63-.83-1.08h.14v4.16h-1.62Zm3.3-3.93c.52,0,.94-.18,1.25-.54.31-.36.47-.9.47-1.63s-.16-1.27-.47-1.62-.73-.53-1.25-.53-.92.18-1.23.53c-.31.36-.47.9-.47,1.62s.16,1.27.47,1.63c.31.36.72.54,1.23.54Z"/>
            <path class="cls-2" d="m291.7,299.54c-.68,0-1.26-.14-1.75-.42-.49-.28-.88-.67-1.15-1.18s-.41-1.12-.41-1.82.14-1.31.41-1.81.66-.9,1.15-1.18,1.08-.42,1.75-.42,1.26.14,1.76.42.88.67,1.16,1.18c.27.51.41,1.11.41,1.81s-.14,1.31-.41,1.82c-.27.51-.66.91-1.16,1.18-.5.28-1.09.42-1.76.42Zm0-1.25c.51,0,.92-.18,1.22-.54.3-.36.46-.9.46-1.63s-.15-1.27-.46-1.62c-.3-.36-.71-.53-1.22-.53s-.92.18-1.22.53c-.3.36-.45.9-.45,1.62s.15,1.27.45,1.63c.3.36.71.54,1.22.54Z"/>
            <path class="cls-2" d="m296.56,299.41v-6.56h3.5c.82,0,1.43.15,1.81.45.38.3.57.72.57,1.27,0,.42-.14.76-.42,1.04s-.65.45-1.1.52v-.18c.56.04,1,.2,1.3.49s.46.68.46,1.14c0,.56-.22,1.01-.65,1.34-.43.33-1.05.49-1.85.49h-3.61Zm1.51-3.85h1.79c.35,0,.62-.08.8-.23.19-.15.29-.37.29-.64s-.1-.49-.29-.64c-.19-.15-.46-.22-.8-.22h-1.79v1.73Zm0,2.85h1.94c.38,0,.67-.08.88-.23.2-.16.31-.39.31-.69s-.1-.53-.31-.69c-.2-.16-.5-.23-.88-.23h-1.94v1.85Z"/>
            <path class="cls-2" d="m306.68,299.54c-.57,0-1.07-.14-1.51-.41-.43-.27-.77-.67-1.02-1.18-.24-.51-.36-1.12-.36-1.83s.12-1.32.36-1.83c.24-.51.58-.9,1.02-1.17.43-.27.94-.41,1.51-.41s1.04.14,1.46.41c.42.27.7.64.84,1.1h-.14l.14-1.38h1.56c-.03.27-.05.54-.07.82s-.03.55-.03.82v4.93h-1.61v-1.35s.14,0,.14,0c-.14.45-.42.81-.84,1.08-.43.27-.91.4-1.44.4Zm.46-1.25c.51,0,.92-.18,1.23-.54.31-.36.47-.9.47-1.63s-.16-1.27-.47-1.62-.72-.53-1.23-.53-.92.18-1.23.53c-.31.36-.47.9-.47,1.62s.15,1.27.46,1.63c.31.36.72.54,1.24.54Z"/>
            <path class="cls-2" d="m312.33,299.41v-6.56h1.61v2.57h2.96v-2.57h1.61v6.56h-1.61v-2.74h-2.96v2.74h-1.61Z"/>
            <path class="cls-2" d="m320.36,299.41v-6.56h1.47v4.96h-.39l3.73-4.96h1.34v6.56h-1.47v-4.98h.4l-3.74,4.98h-1.34Z"/>
            <path class="cls-2" d="m331.58,299.54c-1.1,0-1.96-.3-2.59-.91-.62-.61-.94-1.44-.94-2.5,0-.69.13-1.28.4-1.79.27-.51.64-.91,1.12-1.2.48-.29,1.04-.43,1.68-.43s1.16.13,1.59.4c.43.27.75.65.97,1.13s.33,1.05.33,1.7v.43h-4.79v-.86h3.63l-.22.18c0-.61-.13-1.07-.38-1.39s-.63-.48-1.11-.48c-.54,0-.95.19-1.24.57-.29.38-.44.92-.44,1.6v.17c0,.71.18,1.24.53,1.59s.85.53,1.49.53c.37,0,.72-.05,1.05-.15.32-.1.63-.26.93-.49l.48,1.09c-.31.25-.69.45-1.12.58-.43.14-.89.21-1.38.21Z"/>
            <path class="cls-2" d="m253.77,315.75c-.41-.64-.74-1.27-.99-1.88s-.44-1.24-.55-1.88-.17-1.3-.17-2,.06-1.37.17-2,.3-1.26.55-1.87.59-1.24.99-1.87h1.3c-.45,1-.79,1.97-1.01,2.91-.22.94-.33,1.89-.33,2.84s.11,1.89.33,2.83.56,1.92,1.01,2.92h-1.3Z"/>
            <path class="cls-2" d="m258.71,313.54c-.59,0-1.14-.07-1.66-.21s-.95-.34-1.29-.6l.46-1.07c.32.23.7.41,1.12.53.43.12.88.18,1.36.18.55,0,.96-.08,1.21-.23.26-.15.38-.38.38-.67,0-.28-.1-.49-.3-.63s-.49-.21-.88-.21h-1.7v-1.12h1.55c.36,0,.63-.07.82-.21.19-.14.29-.33.29-.58,0-.27-.11-.48-.34-.64-.23-.16-.6-.23-1.12-.23-.45,0-.86.05-1.24.16-.37.11-.72.27-1.05.47l-.44-1.01c.35-.25.79-.44,1.29-.57.51-.13,1.06-.2,1.66-.2.88,0,1.55.16,2.01.48.47.32.7.78.7,1.36,0,.4-.14.74-.41,1.03-.27.29-.64.46-1.1.53v-.18c.54.04.96.2,1.27.48.31.29.47.67.47,1.16,0,.6-.26,1.08-.79,1.43s-1.28.53-2.26.53Z"/>
            <path class="cls-2" d="m265.77,313.54c-.57,0-1.07-.14-1.51-.41s-.77-.67-1.01-1.18c-.24-.51-.36-1.12-.36-1.83s.12-1.32.36-1.83c.24-.51.58-.9,1.01-1.17.43-.27.94-.41,1.51-.41s1.04.14,1.46.41c.42.27.7.64.84,1.1h-.14l.14-1.38h1.56c-.03.27-.05.54-.07.82s-.03.55-.03.82v4.93h-1.61v-1.35s.14,0,.14,0c-.14.45-.42.81-.85,1.08-.42.27-.91.4-1.44.4Zm.46-1.25c.51,0,.92-.18,1.24-.54.31-.36.47-.9.47-1.63s-.16-1.27-.47-1.62c-.31-.36-.72-.53-1.24-.53s-.92.18-1.23.53-.47.9-.47,1.62.15,1.27.46,1.63c.31.36.72.54,1.24.54Z"/>
            <path class="cls-2" d="m274.98,313.41v-6.56h1.61v2.57h2.96v-2.57h1.61v6.56h-1.61v-2.74h-2.96v2.74h-1.61Z"/>
            <path class="cls-2" d="m285.6,313.54c-.57,0-1.07-.14-1.51-.41s-.77-.67-1.01-1.18c-.24-.51-.36-1.12-.36-1.83s.12-1.32.36-1.83c.24-.51.58-.9,1.01-1.17.43-.27.94-.41,1.51-.41s1.04.14,1.46.41c.42.27.7.64.84,1.1h-.14l.14-1.38h1.56c-.03.27-.05.54-.07.82s-.03.55-.03.82v4.93h-1.61v-1.35s.14,0,.14,0c-.14.45-.42.81-.85,1.08-.42.27-.91.4-1.44.4Zm.46-1.25c.51,0,.92-.18,1.24-.54.31-.36.47-.9.47-1.63s-.16-1.27-.47-1.62c-.31-.36-.72-.53-1.24-.53s-.92.18-1.23.53-.47.9-.47,1.62.15,1.27.46,1.63c.31.36.72.54,1.24.54Z"/>
            <path class="cls-2" d="m290.67,315.1v-2.92h.75c.26-.41.45-.89.57-1.44.12-.55.17-1.22.17-2.02v-1.87h5.06v5.33h1.07v2.92h-1.38v-1.69h-4.86v1.69h-1.38Zm2.21-2.91h2.82v-4.12h-2.16v1.01c0,.58-.06,1.15-.17,1.7s-.28,1.02-.49,1.4Z"/>
            <path class="cls-2" d="m299.49,313.41v-6.56h6.15v6.56h-1.61v-5.32h-2.93v5.32h-1.61Z"/>
            <path class="cls-2" d="m307.48,313.41v-6.56h1.47v4.96h-.39l3.73-4.96h1.34v6.56h-1.47v-4.98h.4l-3.74,4.98h-1.34Z"/>
            <path class="cls-2" d="m318.55,313.54c-.68,0-1.27-.14-1.78-.42-.51-.28-.9-.67-1.18-1.19s-.42-1.13-.42-1.84.14-1.32.42-1.82c.28-.5.67-.89,1.18-1.16.5-.27,1.09-.4,1.77-.4.43,0,.86.07,1.27.2.41.13.75.33,1.01.58l-.49,1.13c-.23-.22-.5-.38-.79-.49-.29-.11-.57-.16-.85-.16-.58,0-1.03.18-1.36.54-.32.37-.49.89-.49,1.59s.16,1.23.49,1.6c.33.37.78.56,1.36.56.27,0,.55-.05.84-.16s.56-.26.8-.48l.49,1.12c-.27.25-.61.45-1.02.58s-.83.21-1.25.21Z"/>
            <path class="cls-2" d="m322.21,313.41v-6.56h1.61v2.2h1.73c.88,0,1.53.18,1.98.55.44.37.66.9.66,1.59,0,.45-.1.84-.31,1.18-.21.33-.51.59-.9.77-.39.18-.87.27-1.42.27h-3.34Zm1.61-1.07h1.51c.44,0,.78-.09,1.01-.28.23-.19.35-.47.35-.85s-.12-.66-.35-.84c-.23-.18-.57-.27-1.02-.27h-1.51v2.24Z"/>
            <path class="cls-2" d="m330.22,315.75h-1.3c.45-1,.79-1.97,1.01-2.92s.33-1.9.33-2.84-.11-1.89-.33-2.83-.56-1.92-1.01-2.91h1.3c.42.63.75,1.26,1,1.87s.43,1.24.55,1.88c.11.64.17,1.3.17,2s-.06,1.36-.17,2c-.11.64-.29,1.27-.55,1.88-.25.62-.59,1.24-1,1.87Z"/>
          </g>
          <g>
            <path class="cls-2" d="m368.35,287.55v-2.15h-7.89v-9.17h1.65v7.79h4.71v-7.79h1.66v7.79h1.34v3.52h-1.47Z"/>
            <path class="cls-2" d="m371.04,285.41v-6.57h3.5c.82,0,1.43.15,1.81.45.38.3.57.72.57,1.27,0,.42-.14.76-.42,1.04s-.65.45-1.1.52v-.18c.56.04,1,.2,1.3.49.3.29.46.68.46,1.14,0,.56-.22,1.01-.65,1.34-.43.33-1.05.49-1.85.49h-3.61Zm1.51-3.85h1.79c.35,0,.62-.08.81-.23.19-.15.29-.37.29-.64s-.1-.49-.29-.64c-.19-.15-.46-.22-.81-.22h-1.79v1.73Zm0,2.85h1.94c.38,0,.67-.08.88-.23.2-.16.3-.38.3-.69s-.1-.53-.3-.69c-.2-.16-.5-.23-.88-.23h-1.94v1.85Z"/>
            <path class="cls-2" d="m381.79,285.54c-1.1,0-1.96-.3-2.59-.91-.62-.61-.94-1.44-.94-2.5,0-.68.13-1.28.4-1.79.27-.51.64-.91,1.12-1.2.48-.29,1.04-.43,1.68-.43s1.16.13,1.59.4.75.65.97,1.13c.22.49.33,1.05.33,1.7v.43h-4.78v-.86h3.63l-.22.18c0-.61-.13-1.07-.38-1.39-.26-.32-.63-.48-1.11-.48-.54,0-.95.19-1.24.57-.29.38-.44.91-.44,1.6v.17c0,.71.18,1.24.53,1.59s.85.53,1.49.53c.37,0,.72-.05,1.05-.15s.63-.26.93-.49l.48,1.09c-.31.25-.68.45-1.12.58-.43.14-.89.21-1.38.21Z"/>
            <path class="cls-2" d="m387.29,285.41v-5.29h-2.25v-1.27h6.12v1.27h-2.26v5.29h-1.61Z"/>
            <path class="cls-2" d="m392.16,285.41v-6.57h1.61v2.57h2.96v-2.57h1.61v6.57h-1.61v-2.74h-2.96v2.74h-1.61Z"/>
            <path class="cls-2" d="m403.21,285.54c-.68,0-1.26-.14-1.75-.42s-.88-.67-1.15-1.18c-.27-.51-.41-1.12-.41-1.82s.14-1.31.41-1.81c.27-.51.66-.9,1.15-1.18s1.08-.42,1.75-.42,1.26.14,1.76.42.88.67,1.16,1.18c.27.51.41,1.11.41,1.81s-.14,1.31-.41,1.82c-.27.51-.66.91-1.16,1.18s-1.08.42-1.76.42Zm0-1.25c.51,0,.92-.18,1.22-.54.3-.36.46-.9.46-1.63s-.15-1.27-.46-1.62c-.3-.35-.71-.53-1.22-.53s-.92.18-1.22.53c-.3.36-.46.9-.46,1.62s.15,1.27.46,1.63.71.54,1.22.54Z"/>
            <path class="cls-2" d="m408.08,285.41v-6.57h1.47v4.97h-.39l3.73-4.97h1.34v6.57h-1.47v-4.98h.4l-3.74,4.98h-1.34Zm3.07-7.16c-.43,0-.82-.07-1.14-.21-.33-.14-.6-.35-.82-.61s-.37-.58-.47-.94l.83-.29c.15.4.35.69.61.88.26.19.59.28,1,.28s.74-.09,1-.27.47-.47.64-.87l.79.27c-.18.58-.48,1.02-.9,1.32-.42.3-.93.45-1.54.45Z"/>
            <path class="cls-2" d="m419.63,285.41v-6.57h6.15v6.57h-1.61v-5.32h-2.92v5.32h-1.61Z"/>
            <path class="cls-2" d="m427.46,285.59l-.51-1.27c.29-.1.53-.24.72-.41.2-.17.35-.39.47-.65s.2-.59.25-.99c.05-.39.08-.86.08-1.41v-2.02h5.23v6.57h-1.61v-5.32h-2.13v.82c0,.94-.09,1.74-.26,2.37-.17.64-.44,1.14-.81,1.52-.36.37-.84.64-1.43.79Z"/>
            <path class="cls-2" d="m438.13,285.54c-.57,0-1.07-.14-1.51-.41-.43-.27-.77-.67-1.01-1.18-.24-.51-.36-1.12-.36-1.83s.12-1.32.36-1.83c.24-.51.58-.9,1.01-1.17.43-.27.94-.41,1.51-.41s1.04.14,1.46.41c.42.27.7.64.84,1.1h-.14l.14-1.38h1.56c-.03.27-.05.54-.07.82-.02.28-.03.55-.03.82v4.93h-1.61v-1.35s.14,0,.14,0c-.14.45-.42.81-.84,1.08-.42.27-.91.4-1.44.4Zm.46-1.25c.51,0,.92-.18,1.24-.54.31-.36.47-.9.47-1.63s-.16-1.27-.47-1.62c-.31-.35-.72-.53-1.24-.53s-.92.18-1.23.53c-.31.36-.47.9-.47,1.62s.15,1.27.46,1.63.72.54,1.24.54Z"/>
            <path class="cls-2" d="m446.85,285.54c-.68,0-1.27-.14-1.77-.42s-.9-.67-1.18-1.19-.42-1.13-.42-1.84.14-1.32.42-1.82c.28-.5.67-.89,1.18-1.16.5-.27,1.09-.4,1.77-.4.43,0,.86.07,1.27.2.41.13.75.33,1.01.58l-.49,1.13c-.23-.22-.5-.38-.79-.49s-.57-.16-.85-.16c-.58,0-1.03.18-1.36.55-.33.36-.49.89-.49,1.59s.16,1.23.49,1.6c.33.37.78.56,1.36.56.27,0,.55-.05.84-.16.29-.1.56-.26.8-.48l.49,1.12c-.27.25-.61.45-1.02.58-.41.14-.83.21-1.25.21Z"/>
            <path class="cls-2" d="m451.94,285.41v-5.29h-2.25v-1.27h6.12v1.27h-2.26v5.29h-1.61Z"/>
            <path class="cls-2" d="m456.81,285.41v-6.57h1.47v4.97h-.39l3.73-4.97h1.34v6.57h-1.47v-4.98h.4l-3.74,4.98h-1.34Z"/>
            <path class="cls-2" d="m464.81,285.41v-6.57h1.61v2.57h.99l1.92-2.57h1.74l-2.42,3.28-.35-.51c.24.03.46.09.64.2.19.1.36.25.53.44.17.19.34.42.5.71l1.38,2.46h-1.73l-1.12-1.98c-.11-.2-.23-.36-.34-.47-.11-.11-.24-.19-.38-.23-.14-.04-.31-.06-.51-.06h-.87v2.74h-1.61Z"/>
            <path class="cls-2" d="m478.17,284.9v-2.65h-2.61v-1.14h2.61v-2.59h1.18v2.59h2.6v1.14h-2.6v2.65h-1.18Z"/>
            <path class="cls-2" d="m367.89,301.75c-.41-.64-.74-1.27-.99-1.88s-.44-1.24-.55-1.88c-.11-.64-.17-1.3-.17-2s.06-1.37.17-2c.11-.63.3-1.26.55-1.87s.59-1.24.99-1.87h1.3c-.45,1-.79,1.96-1.01,2.91-.22.94-.33,1.89-.33,2.84s.11,1.89.33,2.83.56,1.92,1.01,2.92h-1.3Z"/>
            <path class="cls-2" d="m372.83,299.54c-.59,0-1.14-.07-1.66-.21-.52-.14-.95-.34-1.29-.6l.46-1.07c.32.23.7.41,1.12.53.43.12.88.18,1.36.18.55,0,.96-.08,1.21-.23.26-.15.38-.38.38-.67,0-.28-.1-.49-.3-.63-.2-.14-.49-.21-.88-.21h-1.7v-1.12h1.55c.36,0,.63-.07.82-.21.19-.14.29-.33.29-.59,0-.27-.11-.48-.34-.64-.23-.16-.6-.23-1.12-.23-.45,0-.86.05-1.24.16-.37.11-.72.27-1.05.47l-.44-1.01c.35-.25.79-.44,1.29-.57s1.06-.19,1.66-.19c.88,0,1.55.16,2.02.48s.7.78.7,1.37c0,.4-.14.74-.41,1.03-.27.29-.64.46-1.1.53v-.18c.54.04.96.2,1.27.48.31.29.47.67.47,1.16,0,.6-.26,1.07-.79,1.43s-1.28.53-2.26.53Z"/>
            <path class="cls-2" d="m380.31,299.54c-.68,0-1.26-.14-1.75-.42s-.88-.67-1.15-1.18c-.27-.51-.41-1.12-.41-1.82s.14-1.31.41-1.81c.27-.51.66-.9,1.15-1.18s1.08-.42,1.75-.42,1.26.14,1.76.42.88.67,1.16,1.18c.27.51.41,1.11.41,1.81s-.14,1.31-.41,1.82c-.27.51-.66.91-1.16,1.18s-1.08.42-1.76.42Zm0-1.25c.51,0,.92-.18,1.22-.54.3-.36.46-.9.46-1.63s-.15-1.27-.46-1.62c-.3-.35-.71-.53-1.22-.53s-.92.18-1.22.53c-.3.36-.46.9-.46,1.62s.15,1.27.46,1.63.71.54,1.22.54Z"/>
            <path class="cls-2" d="m384.88,299.59l-.51-1.27c.29-.1.53-.24.72-.41.2-.17.35-.39.47-.65s.2-.59.25-.99c.05-.39.08-.86.08-1.41v-2.02h5.23v6.57h-1.61v-5.32h-2.13v.82c0,.94-.09,1.74-.26,2.37-.17.64-.44,1.14-.81,1.52-.36.37-.84.64-1.43.79Z"/>
            <path class="cls-2" d="m395.98,299.54c-.68,0-1.26-.14-1.75-.42s-.88-.67-1.15-1.18c-.27-.51-.41-1.12-.41-1.82s.14-1.31.41-1.81c.27-.51.66-.9,1.15-1.18s1.08-.42,1.75-.42,1.26.14,1.76.42.88.67,1.16,1.18c.27.51.41,1.11.41,1.81s-.14,1.31-.41,1.82c-.27.51-.66.91-1.16,1.18s-1.08.42-1.76.42Zm0-1.25c.51,0,.92-.18,1.22-.54.3-.36.46-.9.46-1.63s-.15-1.27-.46-1.62c-.3-.35-.71-.53-1.22-.53s-.92.18-1.22.53c-.3.36-.46.9-.46,1.62s.15,1.27.46,1.63.71.54,1.22.54Z"/>
            <path class="cls-2" d="m402.26,299.41v-5.29h-2.25v-1.27h6.12v1.27h-2.26v5.29h-1.61Z"/>
            <path class="cls-2" d="m410.08,299.54c-.68,0-1.26-.14-1.75-.42s-.88-.67-1.15-1.18c-.27-.51-.41-1.12-.41-1.82s.14-1.31.41-1.81c.27-.51.66-.9,1.15-1.18s1.08-.42,1.75-.42,1.26.14,1.76.42c.5.28.88.67,1.16,1.18.27.51.41,1.11.41,1.81s-.14,1.31-.41,1.82c-.27.51-.66.91-1.16,1.18-.5.28-1.09.42-1.76.42Zm0-1.25c.51,0,.92-.18,1.22-.54s.46-.9.46-1.63-.15-1.27-.46-1.62c-.3-.35-.71-.53-1.22-.53s-.92.18-1.22.53c-.3.36-.45.9-.45,1.62s.15,1.27.45,1.63c.3.36.71.54,1.22.54Z"/>
            <path class="cls-2" d="m415.32,301.14l-.66-.52c.28-.29.47-.55.58-.8.11-.25.16-.51.16-.79l.35.38h-1.22v-1.81h1.82v1.2c0,.44-.08.85-.23,1.21-.15.37-.42.74-.8,1.12Z"/>
            <path class="cls-2" d="m424.6,299.54c-.68,0-1.27-.14-1.78-.42-.51-.28-.9-.67-1.18-1.19s-.42-1.13-.42-1.84.14-1.32.42-1.82c.28-.5.67-.89,1.18-1.16s1.09-.4,1.77-.4c.43,0,.86.07,1.27.2.41.13.75.33,1.01.58l-.49,1.13c-.23-.22-.5-.38-.79-.49-.29-.11-.57-.16-.85-.16-.58,0-1.03.18-1.36.55-.33.36-.49.89-.49,1.59s.16,1.23.49,1.6c.33.37.78.56,1.36.56.27,0,.55-.05.84-.16.29-.1.56-.26.8-.48l.49,1.12c-.27.25-.61.45-1.02.58-.41.14-.83.21-1.25.21Z"/>
            <path class="cls-2" d="m431.49,299.54c-1.1,0-1.96-.3-2.59-.91-.62-.61-.94-1.44-.94-2.5,0-.68.13-1.28.4-1.79.27-.51.64-.91,1.12-1.2.48-.29,1.04-.43,1.68-.43s1.16.13,1.59.4.75.65.97,1.13c.22.49.33,1.05.33,1.7v.43h-4.78v-.86h3.63l-.22.18c0-.61-.13-1.07-.38-1.39-.26-.32-.63-.48-1.11-.48-.54,0-.95.19-1.24.57-.29.38-.44.91-.44,1.6v.17c0,.71.18,1.24.53,1.59.35.35.85.53,1.49.53.37,0,.72-.05,1.05-.15.33-.1.63-.26.93-.49l.48,1.09c-.31.25-.68.45-1.12.58-.43.14-.89.21-1.38.21Z"/>
            <path class="cls-2" d="m435.63,302.21v-7.73c0-.27,0-.54-.03-.82-.02-.28-.04-.55-.08-.82h1.57l.14,1.38h-.14c.13-.46.4-.83.83-1.1.42-.27.91-.41,1.46-.41s1.09.14,1.52.41c.43.27.77.66,1.01,1.17.24.51.36,1.12.36,1.83s-.12,1.32-.36,1.83c-.24.51-.58.9-1.01,1.18-.43.27-.94.41-1.52.41-.55,0-1.03-.13-1.44-.4-.42-.27-.69-.63-.83-1.08h.14v4.16h-1.62Zm3.3-3.93c.52,0,.94-.18,1.25-.54.31-.36.47-.9.47-1.63s-.16-1.27-.47-1.62c-.31-.35-.73-.53-1.25-.53s-.92.18-1.24.53c-.31.36-.47.9-.47,1.62s.16,1.27.47,1.63.72.54,1.24.54Z"/>
            <path class="cls-2" d="m447.04,299.54c-1.1,0-1.96-.3-2.59-.91-.62-.61-.94-1.44-.94-2.5,0-.68.13-1.28.4-1.79.27-.51.64-.91,1.12-1.2.48-.29,1.04-.43,1.68-.43s1.16.13,1.59.4.75.65.97,1.13c.22.49.33,1.05.33,1.7v.43h-4.78v-.86h3.63l-.22.18c0-.61-.13-1.07-.38-1.39-.26-.32-.63-.48-1.11-.48-.54,0-.95.19-1.24.57s-.44.91-.44,1.6v.17c0,.71.18,1.24.53,1.59.35.35.85.53,1.49.53.37,0,.72-.05,1.05-.15s.63-.26.93-.49l.48,1.09c-.31.25-.68.45-1.12.58-.43.14-.89.21-1.38.21Z"/>
            <path class="cls-2" d="m454.21,299.54c-1.03,0-1.85-.31-2.46-.94-.61-.62-.92-1.54-.92-2.74v-1.12c0-1.24.28-2.24.84-2.99s1.41-1.25,2.55-1.49l2.41-.55.44,1.27-2.7.6c-.45.1-.82.28-1.12.54-.29.26-.52.58-.66.94-.15.37-.22.75-.22,1.17v.69h-.22c.1-.39.26-.73.48-1.02.23-.29.51-.52.86-.68.35-.16.74-.25,1.18-.25.55,0,1.04.13,1.46.38.42.26.75.62.99,1.11.24.48.36,1.05.36,1.72s-.14,1.28-.41,1.78c-.27.5-.65.89-1.14,1.16-.49.27-1.06.41-1.72.41Zm-.05-1.23c.54,0,.96-.17,1.25-.51.3-.34.45-.86.45-1.54s-.15-1.18-.46-1.53c-.3-.35-.72-.53-1.25-.53s-.95.17-1.25.52c-.3.35-.46.84-.46,1.48,0,.7.15,1.23.46,1.58.3.35.72.53,1.25.53Z"/>
            <path class="cls-2" d="m459.07,302.21v-7.73c0-.27,0-.54-.03-.82-.02-.28-.04-.55-.08-.82h1.57l.14,1.38h-.14c.13-.46.4-.83.83-1.1.42-.27.91-.41,1.46-.41s1.09.14,1.52.41c.43.27.77.66,1.01,1.17.24.51.36,1.12.36,1.83s-.12,1.32-.36,1.83c-.24.51-.58.9-1.01,1.18-.43.27-.94.41-1.52.41-.55,0-1.03-.13-1.44-.4-.42-.27-.69-.63-.83-1.08h.14v4.16h-1.62Zm3.3-3.93c.52,0,.94-.18,1.25-.54.31-.36.47-.9.47-1.63s-.16-1.27-.47-1.62c-.31-.35-.73-.53-1.25-.53s-.92.18-1.24.53c-.31.36-.47.9-.47,1.62s.16,1.27.47,1.63.72.54,1.24.54Z"/>
            <path class="cls-2" d="m470.27,299.54c-.68,0-1.26-.14-1.76-.42-.49-.28-.88-.67-1.15-1.18-.27-.51-.41-1.12-.41-1.82s.14-1.31.41-1.81c.27-.51.66-.9,1.15-1.18.49-.28,1.08-.42,1.76-.42s1.26.14,1.76.42c.5.28.88.67,1.16,1.18.27.51.41,1.11.41,1.81s-.14,1.31-.41,1.82c-.27.51-.66.91-1.16,1.18-.5.28-1.08.42-1.76.42Zm0-1.25c.51,0,.92-.18,1.22-.54.3-.36.46-.9.46-1.63s-.15-1.27-.46-1.62c-.3-.35-.71-.53-1.22-.53s-.92.18-1.22.53c-.3.36-.46.9-.46,1.62s.15,1.27.46,1.63.71.54,1.22.54Z"/>
            <path class="cls-2" d="m475.51,301.14l-.66-.52c.28-.29.47-.55.58-.8.11-.25.16-.51.16-.79l.35.38h-1.22v-1.81h1.82v1.2c0,.44-.08.85-.23,1.21-.15.37-.42.74-.8,1.12Z"/>
            <path class="cls-2" d="m384.45,313.41v-6.57h6.15v6.57h-1.61v-5.32h-2.92v5.32h-1.61Z"/>
            <path class="cls-2" d="m395.67,313.54c-1.1,0-1.96-.3-2.59-.91-.62-.61-.94-1.44-.94-2.5,0-.68.13-1.28.4-1.79.27-.51.64-.91,1.12-1.2.48-.29,1.04-.43,1.68-.43s1.16.13,1.59.4.75.65.97,1.13c.22.49.33,1.05.33,1.7v.43h-4.78v-.86h3.63l-.22.18c0-.61-.13-1.07-.38-1.39-.26-.32-.63-.48-1.11-.48-.54,0-.95.19-1.24.57-.29.38-.44.91-.44,1.6v.17c0,.71.18,1.24.53,1.59s.85.53,1.49.53c.37,0,.72-.05,1.05-.15s.63-.26.93-.49l.48,1.09c-.31.25-.68.45-1.12.58-.43.14-.89.21-1.38.21Z"/>
            <path class="cls-2" d="m399.81,316.21v-7.73c0-.27,0-.54-.03-.82-.02-.28-.04-.55-.08-.82h1.57l.14,1.38h-.14c.13-.46.41-.83.83-1.1.42-.27.91-.41,1.46-.41s1.09.14,1.52.41c.43.27.77.66,1.01,1.17.24.51.36,1.12.36,1.83s-.12,1.32-.36,1.83c-.24.51-.58.9-1.01,1.18-.43.27-.94.41-1.52.41-.55,0-1.03-.13-1.44-.4-.42-.27-.69-.63-.83-1.08h.14v4.16h-1.62Zm3.3-3.93c.52,0,.94-.18,1.25-.54.31-.36.47-.9.47-1.63s-.16-1.27-.47-1.62c-.31-.35-.73-.53-1.25-.53s-.92.18-1.23.53c-.31.36-.47.9-.47,1.62s.16,1.27.47,1.63c.31.36.72.54,1.23.54Z"/>
            <path class="cls-2" d="m407.7,313.59l-.51-1.27c.29-.1.53-.24.72-.41.2-.17.35-.39.47-.65s.2-.59.25-.99.08-.86.08-1.41v-2.02h5.23v6.57h-1.61v-5.32h-2.13v.82c0,.94-.09,1.74-.26,2.37-.17.64-.44,1.14-.81,1.52-.36.37-.84.64-1.43.79Z"/>
            <path class="cls-2" d="m418.37,313.54c-.57,0-1.07-.14-1.51-.41-.43-.27-.77-.67-1.01-1.18-.24-.51-.36-1.12-.36-1.83s.12-1.32.36-1.83c.24-.51.58-.9,1.01-1.17.43-.27.94-.41,1.51-.41s1.04.14,1.46.41c.42.27.7.64.84,1.1h-.14l.14-1.38h1.56c-.03.27-.05.54-.07.82s-.03.55-.03.82v4.93h-1.61v-1.35s.14,0,.14,0c-.14.45-.42.81-.84,1.08-.42.27-.91.4-1.44.4Zm.46-1.25c.51,0,.92-.18,1.24-.54.31-.36.47-.9.47-1.63s-.16-1.27-.47-1.62c-.31-.35-.72-.53-1.24-.53s-.92.18-1.23.53c-.31.36-.47.9-.47,1.62s.15,1.27.46,1.63.72.54,1.24.54Z"/>
            <path class="cls-2" d="m424.03,313.41v-6.57h1.35l2.26,3.93,2.26-3.93h1.35v6.57h-1.43v-4.75h.3l-2.11,3.68h-.75l-2.11-3.68h.3v4.75h-1.43Z"/>
            <path class="cls-2" d="m433.02,316.36l-.38-1.29c.41-.09.75-.19,1.03-.3s.51-.26.69-.44c.18-.18.33-.42.46-.7l.33-.77-.04.64-2.86-6.66h1.73l2.05,5.12h-.38l2.07-5.12h1.64l-2.99,6.93c-.2.47-.42.86-.65,1.16-.23.31-.49.55-.75.74-.27.19-.56.33-.88.44-.32.1-.67.19-1.05.25Z"/>
            <path class="cls-2" d="m441.87,313.41v-5.29h-2.25v-1.27h6.12v1.27h-2.26v5.29h-1.61Z"/>
            <path class="cls-2" d="m446.8,316.21v-7.73c0-.27,0-.54-.03-.82-.02-.28-.04-.55-.08-.82h1.57l.14,1.38h-.14c.13-.46.4-.83.83-1.1.42-.27.91-.41,1.46-.41s1.09.14,1.52.41c.43.27.77.66,1.01,1.17.24.51.36,1.12.36,1.83s-.12,1.32-.36,1.83c-.24.51-.58.9-1.01,1.18-.43.27-.94.41-1.52.41-.55,0-1.03-.13-1.44-.4-.42-.27-.69-.63-.83-1.08h.14v4.16h-1.62Zm3.3-3.93c.52,0,.94-.18,1.25-.54.31-.36.47-.9.47-1.63s-.16-1.27-.47-1.62c-.31-.35-.73-.53-1.25-.53s-.92.18-1.24.53c-.31.36-.47.9-.47,1.62s.16,1.27.47,1.63.72.54,1.24.54Z"/>
            <path class="cls-2" d="m455.54,315.75h-1.3c.45-1,.79-1.97,1.01-2.92.22-.95.33-1.89.33-2.84s-.11-1.89-.33-2.83-.56-1.92-1.01-2.91h1.3c.42.63.75,1.26,1,1.87.25.62.43,1.24.55,1.88.11.64.17,1.3.17,2s-.06,1.36-.17,2c-.11.64-.29,1.27-.55,1.88-.25.62-.58,1.24-1,1.87Z"/>
          </g>
          <g>
            <path class="cls-2" d="m495.87,292.41v-9.17h8.02v9.17h-1.66v-7.8h-4.71v7.8h-1.65Z"/>
            <path class="cls-2" d="m505.86,295.21v-7.74c0-.27,0-.54-.03-.82s-.04-.55-.08-.82h1.57l.14,1.38h-.14c.13-.46.41-.83.83-1.1.42-.27.91-.41,1.46-.41s1.09.14,1.52.41.77.66,1.01,1.17c.24.51.36,1.12.36,1.83s-.12,1.32-.36,1.83c-.24.51-.58.9-1.01,1.18-.43.27-.94.41-1.52.41-.55,0-1.03-.13-1.44-.4s-.69-.63-.83-1.08h.14v4.16h-1.62Zm3.3-3.93c.52,0,.94-.18,1.25-.54.31-.36.47-.9.47-1.63s-.16-1.27-.47-1.62c-.31-.36-.73-.53-1.25-.53s-.92.18-1.24.53c-.31.36-.47.9-.47,1.62s.16,1.27.47,1.63c.31.36.72.54,1.24.54Z"/>
            <path class="cls-2" d="m517.07,292.54c-.68,0-1.26-.14-1.75-.42-.49-.28-.88-.67-1.15-1.18-.27-.51-.41-1.12-.41-1.82s.14-1.31.41-1.81c.27-.51.66-.9,1.15-1.18s1.08-.42,1.75-.42,1.26.14,1.76.42c.5.28.88.67,1.16,1.18.27.51.41,1.11.41,1.81s-.14,1.31-.41,1.82c-.27.51-.66.91-1.16,1.18-.5.28-1.09.42-1.76.42Zm0-1.25c.51,0,.92-.18,1.22-.54s.46-.9.46-1.63-.15-1.27-.46-1.62-.71-.53-1.22-.53-.92.18-1.22.53c-.3.36-.45.9-.45,1.62s.15,1.27.45,1.63c.3.36.71.54,1.22.54Z"/>
            <path class="cls-2" d="m524.35,292.54c-.59,0-1.14-.07-1.66-.21s-.95-.34-1.29-.6l.46-1.07c.32.23.7.41,1.12.53s.88.18,1.36.18c.55,0,.96-.08,1.22-.23.25-.15.38-.38.38-.67,0-.28-.1-.49-.3-.63s-.49-.21-.88-.21h-1.7v-1.12h1.55c.36,0,.63-.07.82-.21s.29-.33.29-.58c0-.27-.12-.48-.34-.64-.23-.16-.6-.23-1.12-.23-.45,0-.86.05-1.24.16-.37.11-.72.27-1.05.47l-.44-1.01c.36-.25.79-.44,1.29-.57.51-.13,1.06-.2,1.66-.2.88,0,1.55.16,2.01.48.47.32.7.78.7,1.37,0,.4-.14.74-.41,1.03-.27.29-.64.46-1.1.53v-.18c.54.04.96.2,1.27.48.31.29.47.67.47,1.16,0,.6-.26,1.08-.79,1.43-.53.36-1.28.53-2.26.53Z"/>
            <path class="cls-2" d="m528.87,295.21v-7.74c0-.27,0-.54-.03-.82s-.04-.55-.08-.82h1.57l.14,1.38h-.14c.13-.46.41-.83.83-1.1.42-.27.91-.41,1.46-.41s1.09.14,1.52.41.77.66,1.01,1.17c.24.51.36,1.12.36,1.83s-.12,1.32-.36,1.83c-.24.51-.58.9-1.01,1.18-.43.27-.94.41-1.52.41-.55,0-1.03-.13-1.44-.4s-.69-.63-.83-1.08h.14v4.16h-1.62Zm3.3-3.93c.52,0,.94-.18,1.25-.54.31-.36.47-.9.47-1.63s-.16-1.27-.47-1.62c-.31-.36-.73-.53-1.25-.53s-.92.18-1.24.53c-.31.36-.47.9-.47,1.62s.16,1.27.47,1.63c.31.36.72.54,1.24.54Z"/>
            <path class="cls-2" d="m539.65,292.54c-.57,0-1.08-.14-1.51-.41-.43-.27-.77-.67-1.01-1.18-.24-.51-.36-1.12-.36-1.83s.12-1.32.36-1.83c.24-.51.58-.9,1.01-1.17.43-.27.94-.41,1.51-.41s1.04.14,1.46.41c.42.27.7.64.84,1.1h-.14l.14-1.38h1.56c-.03.27-.05.54-.07.82s-.03.55-.03.82v4.93h-1.61v-1.35s.14,0,.14,0c-.14.45-.42.81-.84,1.08-.42.27-.91.4-1.44.4Zm.46-1.25c.51,0,.92-.18,1.24-.54.31-.36.47-.9.47-1.63s-.16-1.27-.47-1.62c-.31-.36-.72-.53-1.24-.53s-.92.18-1.24.53c-.31.36-.47.9-.47,1.62s.15,1.27.46,1.63c.31.36.72.54,1.24.54Z"/>
            <path class="cls-2" d="m549.48,292.41v-2.39c-.24.11-.49.2-.75.26s-.53.09-.82.09c-.96,0-1.68-.23-2.15-.69s-.71-1.14-.71-2.05v-1.78h1.61v1.64c0,.55.12.96.36,1.2.24.25.63.37,1.17.37.25,0,.48-.03.68-.08s.39-.13.57-.25v-2.89h1.61v6.57h-1.57Z"/>
            <path class="cls-2" d="m552.9,292.41v-6.57h1.61v2.57h2.96v-2.57h1.61v6.57h-1.61v-2.74h-2.96v2.74h-1.61Z"/>
            <path class="cls-2" d="m560.93,292.41v-6.57h1.61v2.2h1.73c.88,0,1.53.19,1.98.55.44.37.66.9.66,1.59,0,.45-.1.84-.31,1.18s-.51.59-.9.77-.87.27-1.42.27h-3.34Zm1.61-1.07h1.51c.44,0,.78-.09,1.01-.28.23-.19.35-.47.35-.85s-.12-.66-.34-.84c-.23-.18-.57-.27-1.02-.27h-1.51v2.24Zm5.19,1.07v-6.57h1.61v6.57h-1.61Z"/>
            <path class="cls-2" d="m571.19,292.41v-6.57h1.47v4.97h-.39l3.73-4.97h1.34v6.57h-1.47v-4.98h.4l-3.74,4.98h-1.34Zm3.07-7.16c-.43,0-.82-.07-1.14-.21s-.6-.35-.82-.61c-.22-.27-.37-.58-.47-.94l.83-.29c.15.4.35.69.61.88s.59.28,1,.28.74-.09,1-.27c.26-.18.47-.47.64-.87l.79.27c-.18.58-.48,1.02-.9,1.32-.42.3-.93.45-1.54.45Z"/>
            <path class="cls-2" d="m511.19,306.41v-6.57h6.15v6.57h-1.61v-5.32h-2.92v5.32h-1.61Z"/>
            <path class="cls-2" d="m519.01,306.59l-.51-1.27c.29-.1.53-.24.72-.41s.35-.39.47-.65c.12-.26.2-.59.25-.99.05-.39.08-.86.08-1.41v-2.01h5.23v6.57h-1.61v-5.32h-2.13v.82c0,.94-.09,1.73-.26,2.37-.17.64-.44,1.14-.81,1.51-.36.37-.84.64-1.43.79Z"/>
            <path class="cls-2" d="m529.69,306.54c-.57,0-1.08-.14-1.51-.41-.43-.27-.77-.67-1.01-1.18-.24-.51-.36-1.12-.36-1.83s.12-1.32.36-1.83c.24-.51.58-.9,1.01-1.17.43-.27.94-.41,1.51-.41s1.04.14,1.46.41c.42.27.7.64.84,1.1h-.14l.14-1.38h1.56c-.03.27-.05.54-.07.82s-.03.55-.03.82v4.93h-1.61v-1.35s.14,0,.14,0c-.14.45-.42.81-.84,1.08-.42.27-.91.4-1.44.4Zm.46-1.25c.51,0,.92-.18,1.24-.54.31-.36.47-.9.47-1.63s-.16-1.27-.47-1.62c-.31-.36-.72-.53-1.24-.53s-.92.18-1.24.53c-.31.36-.47.9-.47,1.62s.15,1.27.46,1.63c.31.36.72.54,1.24.54Z"/>
            <path class="cls-2" d="m538.41,306.54c-.68,0-1.27-.14-1.78-.42-.51-.28-.9-.67-1.18-1.19s-.42-1.13-.42-1.84.14-1.32.42-1.82c.28-.5.67-.89,1.18-1.16.5-.27,1.09-.4,1.77-.4.43,0,.86.07,1.27.2.41.13.75.33,1.01.58l-.49,1.13c-.23-.22-.5-.38-.79-.49-.29-.11-.57-.16-.85-.16-.58,0-1.03.18-1.36.55-.33.36-.49.89-.49,1.59s.16,1.23.49,1.6.78.56,1.36.56c.27,0,.55-.05.84-.16.29-.1.56-.26.8-.48l.49,1.12c-.27.25-.61.45-1.02.59-.41.14-.83.21-1.25.21Z"/>
            <path class="cls-2" d="m543.49,306.41v-5.29h-2.25v-1.27h6.12v1.27h-2.26v5.29h-1.61Z"/>
            <path class="cls-2" d="m548.37,306.41v-6.57h1.47v4.97h-.39l3.73-4.97h1.34v6.57h-1.47v-4.98h.4l-3.74,4.98h-1.34Z"/>
            <path class="cls-2" d="m556.36,306.41v-6.57h1.61v2.57h.99l1.92-2.57h1.74l-2.42,3.28-.35-.51c.24.03.46.09.64.2s.36.25.53.44c.17.19.34.42.5.71l1.38,2.46h-1.73l-1.12-1.98c-.11-.2-.23-.36-.34-.47s-.24-.19-.38-.23c-.14-.04-.31-.07-.51-.07h-.87v2.74h-1.61Z"/>
          </g>
          <g>
            <path class="cls-2" d="m596.16,292.73v-1.35l.42.31h-.36c-.91,0-1.69-.16-2.35-.47-.66-.31-1.16-.76-1.51-1.35s-.53-1.29-.53-2.12c0-1.27.38-2.24,1.15-2.92s1.85-1.02,3.24-1.02h.36l-.42.31v-1.28h1.66v1.28l-.42-.31h.36c1.4,0,2.48.34,3.25,1.02s1.16,1.65,1.16,2.92c0,.83-.18,1.54-.53,2.12s-.86,1.03-1.51,1.35c-.65.31-1.44.47-2.36.47h-.36l.42-.31v1.35h-1.66Zm.01-2.02v-5.93l.35.29h-.48c-.76,0-1.38.22-1.84.67-.46.45-.7,1.12-.7,2.01,0,.58.11,1.07.33,1.47s.52.7.9.9c.38.21.82.31,1.31.31h.48l-.35.29Zm1.65,0l-.36-.29h.49c.49,0,.93-.1,1.31-.31.38-.2.68-.5.89-.9.21-.4.32-.89.32-1.47,0-.89-.23-1.56-.69-2.01-.46-.45-1.07-.67-1.83-.67h-.49l.36-.29v5.93Z"/>
            <path class="cls-2" d="m606.41,292.54c-.57,0-1.08-.14-1.51-.41-.43-.27-.77-.67-1.01-1.18-.24-.51-.36-1.12-.36-1.83s.12-1.32.36-1.83c.24-.51.58-.9,1.01-1.17.43-.27.94-.41,1.51-.41s1.04.14,1.46.41c.42.27.7.64.84,1.1h-.14l.14-1.38h1.56c-.03.27-.05.54-.07.82s-.03.55-.03.82v4.93h-1.61v-1.35s.14,0,.14,0c-.14.45-.42.81-.84,1.08-.42.27-.91.4-1.44.4Zm.46-1.25c.51,0,.92-.18,1.24-.54.31-.36.47-.9.47-1.63s-.16-1.27-.47-1.62c-.31-.35-.72-.53-1.24-.53s-.92.18-1.24.53c-.31.36-.47.9-.47,1.62s.15,1.27.46,1.63c.31.36.72.54,1.24.54Z"/>
            <path class="cls-2" d="m612.06,292.41v-6.57h1.61v2.57h.99l1.92-2.57h1.74l-2.42,3.28-.35-.51c.24.03.46.09.64.2.19.1.36.25.53.44.17.19.34.42.5.71l1.38,2.46h-1.73l-1.12-1.98c-.11-.2-.23-.36-.34-.47-.11-.11-.24-.19-.38-.23-.14-.04-.31-.06-.51-.06h-.87v2.74h-1.61Z"/>
            <path class="cls-2" d="m620.89,292.41v-5.29h-2.25v-1.27h6.12v1.27h-2.26v5.29h-1.61Z"/>
            <path class="cls-2" d="m625.75,295.36l-.38-1.29c.41-.09.75-.19,1.03-.3s.51-.26.69-.44c.18-.18.33-.42.46-.7l.32-.77-.04.64-2.86-6.66h1.73l2.05,5.12h-.38l2.07-5.12h1.64l-2.99,6.93c-.2.47-.42.86-.65,1.16s-.49.55-.75.74c-.27.19-.56.33-.88.44-.32.1-.67.19-1.05.25Z"/>
            <path class="cls-2" d="m633.12,295.21v-7.73c0-.27,0-.54-.03-.82s-.04-.55-.08-.82h1.57l.14,1.38h-.14c.13-.46.41-.83.83-1.1.42-.27.91-.41,1.46-.41s1.09.14,1.52.41c.43.27.77.66,1.01,1.17.24.51.36,1.12.36,1.83s-.12,1.32-.36,1.83c-.24.51-.58.9-1.01,1.18-.43.27-.94.41-1.52.41-.55,0-1.03-.13-1.44-.4-.42-.27-.69-.63-.83-1.08h.14v4.16h-1.62Zm3.3-3.93c.52,0,.94-.18,1.25-.54.31-.36.47-.9.47-1.63s-.16-1.27-.47-1.62c-.31-.35-.73-.53-1.25-.53s-.92.18-1.24.53c-.31.36-.47.9-.47,1.62s.16,1.27.47,1.63c.31.36.72.54,1.24.54Z"/>
            <path class="cls-2" d="m641.31,292.41v-6.57h1.61v2.57h2.96v-2.57h1.61v6.57h-1.61v-2.74h-2.96v2.74h-1.61Z"/>
            <path class="cls-2" d="m649.35,292.41v-6.57h1.61v2.2h1.73c.88,0,1.53.18,1.98.55.44.37.66.9.66,1.59,0,.45-.1.84-.31,1.18-.21.33-.51.59-.9.77-.39.18-.87.27-1.42.27h-3.34Zm1.61-1.07h1.51c.44,0,.78-.09,1.01-.28.23-.19.35-.47.35-.85s-.12-.66-.34-.84c-.23-.18-.57-.27-1.02-.27h-1.51v2.24Zm5.19,1.07v-6.57h1.61v6.57h-1.61Z"/>
            <path class="cls-2" d="m662.83,292.54c-1.1,0-1.96-.3-2.59-.91-.62-.61-.94-1.44-.94-2.5,0-.68.13-1.28.4-1.79.27-.51.64-.91,1.12-1.2.48-.29,1.04-.43,1.68-.43s1.16.13,1.59.4.75.65.97,1.13c.22.49.33,1.05.33,1.7v.43h-4.78v-.86h3.63l-.22.18c0-.61-.13-1.07-.38-1.39-.26-.32-.63-.48-1.11-.48-.54,0-.95.19-1.24.57s-.44.91-.44,1.6v.17c0,.71.18,1.24.53,1.59.35.35.85.53,1.49.53.37,0,.72-.05,1.05-.15s.63-.26.93-.49l.48,1.09c-.31.25-.68.45-1.12.58-.43.14-.89.21-1.38.21Z"/>
            <path class="cls-2" d="m609.25,306.41v-6.57h1.61v2.57h.99l1.92-2.57h1.74l-2.42,3.28-.35-.51c.24.03.46.09.64.2.19.1.36.25.53.44.17.19.34.42.5.71l1.38,2.46h-1.73l-1.12-1.98c-.11-.2-.23-.36-.34-.47-.11-.11-.24-.19-.38-.23-.14-.04-.31-.06-.51-.06h-.87v2.74h-1.61Z"/>
            <path class="cls-2" d="m619.24,306.54c-.57,0-1.08-.14-1.51-.41-.43-.27-.77-.67-1.01-1.18-.24-.51-.36-1.12-.36-1.83s.12-1.32.36-1.83c.24-.51.58-.9,1.01-1.17.43-.27.94-.41,1.51-.41s1.04.14,1.46.41c.42.27.7.64.84,1.1h-.14l.14-1.38h1.56c-.03.27-.05.54-.07.82s-.03.55-.03.82v4.93h-1.61v-1.35s.14,0,.14,0c-.14.45-.42.81-.84,1.08-.42.27-.91.4-1.44.4Zm.46-1.25c.51,0,.92-.18,1.24-.54.31-.36.47-.9.47-1.63s-.16-1.27-.47-1.62c-.31-.35-.72-.53-1.24-.53s-.92.18-1.24.53c-.31.36-.47.9-.47,1.62s.15,1.27.46,1.63c.31.36.72.54,1.24.54Z"/>
            <path class="cls-2" d="m624.95,309.21v-7.73c0-.27,0-.54-.03-.82-.02-.28-.04-.55-.08-.82h1.57l.14,1.38h-.14c.13-.46.41-.83.83-1.1.42-.27.91-.41,1.46-.41s1.09.14,1.52.41c.43.27.77.66,1.01,1.17.24.51.36,1.12.36,1.83s-.12,1.32-.36,1.83c-.24.51-.58.9-1.01,1.18-.43.27-.94.41-1.52.41-.55,0-1.03-.13-1.44-.4-.42-.27-.69-.63-.83-1.08h.14v4.16h-1.62Zm3.3-3.93c.52,0,.94-.18,1.25-.54.31-.36.47-.9.47-1.63s-.16-1.27-.47-1.62c-.31-.35-.73-.53-1.25-.53s-.92.18-1.23.53c-.31.36-.47.9-.47,1.62s.16,1.27.47,1.63c.31.36.72.54,1.23.54Z"/>
            <path class="cls-2" d="m634.56,306.41v-5.29h-2.25v-1.27h6.12v1.27h-2.26v5.29h-1.61Z"/>
            <path class="cls-2" d="m639.43,306.41v-6.57h1.61v2.2h1.73c.88,0,1.53.18,1.98.55.44.37.66.9.66,1.59,0,.45-.1.84-.31,1.18-.21.33-.51.59-.9.77-.39.18-.87.27-1.42.27h-3.34Zm1.61-1.07h1.51c.44,0,.78-.09,1.01-.28s.35-.47.35-.85-.12-.66-.35-.84c-.23-.18-.57-.27-1.02-.27h-1.51v2.24Zm5.19,1.07v-6.57h1.61v6.57h-1.61Z"/>
          </g>
          <g>
            <path class="cls-2" d="m681.91,292.41v-9.17h4.07c1.01,0,1.77.24,2.3.73.53.49.79,1.15.79,2s-.26,1.51-.79,2c-.53.49-1.29.74-2.3.74h-2.39v3.69h-1.68Zm1.68-5.02h2.2c.55,0,.97-.12,1.25-.37.28-.25.42-.6.42-1.05s-.14-.8-.42-1.05c-.28-.25-.69-.37-1.25-.37h-2.2v2.83Z"/>
            <path class="cls-2" d="m693.47,292.54c-1.1,0-1.96-.3-2.59-.91-.62-.61-.94-1.44-.94-2.5,0-.69.13-1.28.4-1.79.27-.51.64-.91,1.12-1.2.48-.29,1.04-.43,1.68-.43s1.16.13,1.59.4.75.65.97,1.13.33,1.05.33,1.7v.43h-4.78v-.86h3.63l-.22.18c0-.61-.13-1.07-.38-1.39-.26-.32-.63-.48-1.11-.48-.54,0-.95.19-1.24.57-.29.38-.44.92-.44,1.6v.17c0,.71.18,1.24.53,1.59.35.35.85.53,1.49.53.37,0,.72-.05,1.05-.15.33-.1.63-.26.93-.49l.48,1.09c-.31.25-.68.45-1.12.58s-.89.21-1.38.21Z"/>
            <path class="cls-2" d="m699.97,292.54c-.59,0-1.14-.07-1.66-.21s-.95-.34-1.29-.6l.46-1.07c.32.23.7.41,1.12.53.43.12.88.18,1.36.18.55,0,.96-.08,1.21-.23.26-.15.38-.38.38-.67,0-.28-.1-.49-.3-.63s-.49-.21-.88-.21h-1.7v-1.12h1.55c.36,0,.63-.07.82-.21.19-.14.29-.33.29-.58,0-.27-.11-.48-.34-.64-.23-.16-.6-.23-1.12-.23-.45,0-.86.05-1.24.16-.37.11-.72.27-1.05.47l-.44-1.01c.35-.25.79-.44,1.29-.57s1.06-.2,1.66-.2c.88,0,1.55.16,2.02.48s.7.78.7,1.36c0,.4-.14.74-.41,1.03-.27.29-.64.46-1.1.53v-.18c.54.04.96.2,1.27.48.31.29.47.67.47,1.16,0,.6-.26,1.08-.79,1.43s-1.28.53-2.26.53Z"/>
            <path class="cls-2" d="m704.44,292.41v-6.56h1.61v2.57h2.96v-2.57h1.61v6.56h-1.61v-2.74h-2.96v2.74h-1.61Z"/>
            <path class="cls-2" d="m712.47,292.41v-6.56h1.61v2.2h1.73c.88,0,1.53.18,1.98.55.44.37.66.9.66,1.59,0,.45-.1.84-.31,1.18-.21.33-.51.59-.9.77-.39.18-.87.27-1.42.27h-3.34Zm1.61-1.07h1.51c.44,0,.78-.09,1.01-.28.23-.19.35-.47.35-.85s-.12-.66-.34-.84-.57-.27-1.02-.27h-1.51v2.24Zm5.19,1.07v-6.56h1.61v6.56h-1.61Z"/>
            <path class="cls-2" d="m725.96,292.54c-1.1,0-1.96-.3-2.59-.91-.62-.61-.94-1.44-.94-2.5,0-.69.13-1.28.4-1.79.27-.51.64-.91,1.12-1.2.48-.29,1.04-.43,1.68-.43s1.16.13,1.59.4.75.65.97,1.13.33,1.05.33,1.7v.43h-4.78v-.86h3.63l-.22.18c0-.61-.13-1.07-.38-1.39-.26-.32-.63-.48-1.11-.48-.54,0-.95.19-1.24.57s-.44.92-.44,1.6v.17c0,.71.18,1.24.53,1.59.35.35.85.53,1.49.53.37,0,.72-.05,1.05-.15s.63-.26.93-.49l.48,1.09c-.31.25-.68.45-1.12.58-.43.14-.89.21-1.38.21Z"/>
            <path class="cls-2" d="m685.71,306.41v-6.56h1.61v2.57h.99l1.92-2.57h1.74l-2.42,3.28-.35-.51c.24.03.46.09.64.19.19.1.36.25.53.44.17.19.33.42.5.71l1.38,2.46h-1.73l-1.12-1.98c-.11-.2-.23-.35-.34-.47s-.24-.19-.38-.23-.31-.07-.51-.07h-.87v2.74h-1.61Z"/>
            <path class="cls-2" d="m695.7,306.54c-.57,0-1.07-.14-1.51-.41s-.77-.67-1.01-1.18c-.24-.51-.36-1.12-.36-1.83s.12-1.32.36-1.83c.24-.51.58-.9,1.01-1.17.43-.27.94-.41,1.51-.41s1.04.14,1.46.41c.42.27.7.64.84,1.1h-.14l.14-1.38h1.56c-.03.27-.05.54-.07.82s-.03.55-.03.82v4.93h-1.61v-1.35s.14,0,.14,0c-.14.45-.42.81-.84,1.08-.42.27-.91.4-1.44.4Zm.46-1.25c.51,0,.92-.18,1.24-.54.31-.36.47-.9.47-1.63s-.16-1.27-.47-1.62c-.31-.36-.72-.53-1.24-.53s-.92.18-1.23.53c-.31.36-.47.9-.47,1.62s.15,1.27.46,1.63c.31.36.72.54,1.24.54Z"/>
            <path class="cls-2" d="m701.41,309.22v-7.74c0-.27,0-.54-.03-.82s-.04-.55-.08-.82h1.57l.14,1.38h-.14c.13-.46.41-.83.83-1.1.42-.27.91-.41,1.46-.41s1.09.14,1.52.41c.43.27.77.66,1.01,1.17.24.51.36,1.12.36,1.83s-.12,1.32-.36,1.83c-.24.51-.58.9-1.01,1.18s-.94.41-1.52.41c-.55,0-1.03-.13-1.44-.4-.42-.27-.69-.63-.83-1.08h.14v4.16h-1.62Zm3.3-3.93c.52,0,.94-.18,1.25-.54.31-.36.47-.9.47-1.63s-.16-1.27-.47-1.62c-.31-.36-.73-.53-1.25-.53s-.92.18-1.24.53c-.31.36-.47.9-.47,1.62s.16,1.27.47,1.63c.31.36.72.54,1.24.54Z"/>
            <path class="cls-2" d="m711.02,306.41v-5.29h-2.25v-1.27h6.12v1.27h-2.26v5.29h-1.61Z"/>
            <path class="cls-2" d="m715.89,306.41v-6.56h1.61v2.2h1.73c.88,0,1.53.18,1.98.55.44.37.66.9.66,1.59,0,.45-.1.84-.31,1.18-.21.33-.51.59-.9.77-.39.18-.87.27-1.42.27h-3.34Zm1.61-1.07h1.51c.44,0,.78-.09,1.01-.28.23-.19.35-.47.35-.85s-.12-.66-.35-.84c-.23-.18-.57-.27-1.02-.27h-1.51v2.24Zm5.19,1.07v-6.56h1.61v6.56h-1.61Z"/>
          </g>
          <text class="cls-4" transform="translate(742.54 299.41)"><tspan x="0" y="0">Скетч-панель</tspan></text>
          <g>
            <path class="cls-2" d="m865.2,292.41v-9.17h8.02v9.17h-1.66v-7.8h-4.71v7.8h-1.65Z"/>
            <path class="cls-2" d="m878.16,292.54c-.68,0-1.26-.14-1.75-.42-.49-.28-.88-.67-1.15-1.18-.27-.51-.41-1.12-.41-1.82s.14-1.31.41-1.81c.27-.51.66-.9,1.15-1.18s1.08-.42,1.75-.42,1.26.14,1.76.42.88.67,1.16,1.18c.27.51.41,1.11.41,1.81s-.14,1.31-.41,1.82c-.27.51-.66.91-1.16,1.18-.5.28-1.08.42-1.76.42Zm0-1.25c.51,0,.92-.18,1.22-.54.3-.36.46-.9.46-1.63s-.15-1.27-.46-1.62c-.3-.36-.71-.53-1.22-.53s-.92.18-1.22.53-.46.9-.46,1.62.15,1.27.46,1.63.71.54,1.22.54Z"/>
            <path class="cls-2" d="m882.72,292.59l-.51-1.27c.29-.1.53-.24.72-.41.2-.17.35-.39.47-.65.12-.26.2-.59.25-.99.05-.39.08-.86.08-1.41v-2.01h5.23v6.57h-1.61v-5.32h-2.13v.82c0,.94-.09,1.73-.26,2.37-.17.64-.44,1.14-.81,1.51s-.84.64-1.43.79Z"/>
            <path class="cls-2" d="m893.82,292.54c-.68,0-1.26-.14-1.75-.42-.49-.28-.88-.67-1.15-1.18-.27-.51-.41-1.12-.41-1.82s.14-1.31.41-1.81c.27-.51.66-.9,1.15-1.18s1.08-.42,1.75-.42,1.26.14,1.76.42.88.67,1.16,1.18c.27.51.41,1.11.41,1.81s-.14,1.31-.41,1.82c-.27.51-.66.91-1.16,1.18-.5.28-1.08.42-1.76.42Zm0-1.25c.51,0,.92-.18,1.22-.54.3-.36.46-.9.46-1.63s-.15-1.27-.46-1.62c-.3-.36-.71-.53-1.22-.53s-.92.18-1.22.53-.46.9-.46,1.62.15,1.27.46,1.63.71.54,1.22.54Z"/>
            <path class="cls-2" d="m901.76,292.54c-.68,0-1.27-.14-1.78-.42-.51-.28-.9-.67-1.18-1.19s-.42-1.13-.42-1.84.14-1.32.42-1.82c.28-.5.67-.89,1.18-1.16.5-.27,1.09-.4,1.77-.4.43,0,.86.07,1.27.2.41.13.75.33,1.01.58l-.49,1.13c-.23-.22-.5-.38-.79-.49-.29-.11-.57-.16-.85-.16-.58,0-1.03.18-1.36.55-.33.36-.49.89-.49,1.59s.16,1.23.49,1.6.78.56,1.36.56c.27,0,.55-.05.84-.16.29-.1.56-.26.8-.48l.49,1.12c-.27.25-.61.45-1.02.59s-.83.21-1.25.21Z"/>
            <path class="cls-2" d="m908.01,292.54c-.57,0-1.07-.14-1.51-.41-.43-.27-.77-.67-1.01-1.18-.24-.51-.36-1.12-.36-1.83s.12-1.32.36-1.83c.24-.51.58-.9,1.01-1.17s.94-.41,1.51-.41,1.04.14,1.46.41c.42.27.7.64.84,1.1h-.14l.14-1.38h1.56c-.03.27-.05.54-.07.82-.02.28-.03.55-.03.82v4.93h-1.61v-1.35s.14,0,.14,0c-.14.45-.42.81-.84,1.08s-.91.4-1.44.4Zm.46-1.25c.51,0,.92-.18,1.24-.54.31-.36.47-.9.47-1.63s-.16-1.27-.47-1.62c-.31-.36-.72-.53-1.24-.53s-.92.18-1.23.53c-.31.36-.47.9-.47,1.62s.15,1.27.46,1.63.72.54,1.24.54Z"/>
            <path class="cls-2" d="m847.83,308.1v-2.92h.75c.26-.41.45-.89.57-1.44.12-.55.17-1.22.17-2.02v-1.87h5.06v5.33h1.07v2.92h-1.38v-1.69h-4.86v1.69h-1.38Zm2.21-2.91h2.82v-4.12h-2.16v1.01c0,.58-.06,1.15-.17,1.7s-.28,1.02-.49,1.4Z"/>
            <path class="cls-2" d="m856.48,306.59l-.51-1.27c.29-.1.53-.24.72-.41.2-.17.35-.39.47-.65.12-.26.2-.59.25-.99.05-.39.08-.86.08-1.41v-2.01h5.23v6.57h-1.61v-5.32h-2.13v.82c0,.94-.09,1.73-.26,2.37-.17.64-.44,1.14-.81,1.51s-.84.64-1.43.79Z"/>
            <path class="cls-2" d="m864.02,306.41l1-1.73c.17-.29.39-.53.64-.71.25-.18.52-.27.8-.27h.29v.14c-.78,0-1.38-.17-1.79-.51s-.62-.83-.62-1.48.21-1.14.64-1.49c.43-.35,1.06-.53,1.89-.53h3.26v6.57h-1.48v-2.31h-.74c-.27,0-.5.07-.71.22-.2.15-.38.34-.51.57l-.86,1.52h-1.81Zm3.16-3.37h1.47v-2.15h-1.47c-.44,0-.77.1-1,.29-.22.19-.33.45-.33.78,0,.35.11.61.33.8.22.19.55.28,1,.28Z"/>
            <path class="cls-2" d="m875.53,306.41v-6.57h6.15v6.57h-1.61v-5.32h-2.92v5.32h-1.61Z"/>
            <path class="cls-2" d="m886.55,306.54c-.68,0-1.26-.14-1.75-.42-.49-.28-.88-.67-1.15-1.18-.27-.51-.41-1.12-.41-1.82s.14-1.31.41-1.81c.27-.51.66-.9,1.15-1.18s1.08-.42,1.75-.42,1.26.14,1.76.42c.5.28.88.67,1.16,1.18.27.51.41,1.11.41,1.81s-.14,1.31-.41,1.82c-.27.51-.66.91-1.16,1.18-.5.28-1.09.42-1.76.42Zm0-1.25c.51,0,.92-.18,1.22-.54s.46-.9.46-1.63-.15-1.27-.46-1.62-.71-.53-1.22-.53-.92.18-1.22.53c-.3.36-.45.9-.45,1.62s.15,1.27.45,1.63c.3.36.71.54,1.22.54Z"/>
            <path class="cls-2" d="m890.82,308.1v-2.92h.75c.26-.41.45-.89.57-1.44.12-.55.17-1.22.17-2.02v-1.87h5.06v5.33h1.07v2.92h-1.38v-1.69h-4.86v1.69h-1.38Zm2.21-2.91h2.82v-4.12h-2.16v1.01c0,.58-.06,1.15-.17,1.7s-.28,1.02-.49,1.4Z"/>
            <path class="cls-2" d="m899.64,306.41v-6.57h6.15v6.57h-1.61v-5.32h-2.92v5.32h-1.61Z"/>
            <path class="cls-2" d="m907.63,306.41v-6.57h1.47v4.97h-.39l3.73-4.97h1.34v6.57h-1.47v-4.98h.4l-3.74,4.98h-1.34Z"/>
            <path class="cls-2" d="m918.69,306.54c-.68,0-1.27-.14-1.77-.42-.51-.28-.9-.67-1.18-1.19s-.42-1.13-.42-1.84.14-1.32.42-1.82c.28-.5.67-.89,1.18-1.16.5-.27,1.09-.4,1.77-.4.43,0,.86.07,1.27.2.41.13.75.33,1.01.58l-.49,1.13c-.23-.22-.5-.38-.79-.49-.29-.11-.57-.16-.85-.16-.58,0-1.03.18-1.36.55-.33.36-.49.89-.49,1.59s.16,1.23.49,1.6.78.56,1.36.56c.27,0,.55-.05.84-.16.29-.1.56-.26.8-.48l.49,1.12c-.27.25-.61.45-1.02.59-.41.14-.83.21-1.25.21Z"/>
            <path class="cls-2" d="m922.36,306.41v-6.57h1.47v4.97h-.39l3.73-4.97h1.34v6.57h-1.47v-4.98h.4l-3.74,4.98h-1.34Z"/>
          </g>
          <text class="cls-3" transform="translate(164.94 370.94)"><tspan x="0" y="0">5 </tspan><tspan class="cls-14" x="13.87" y="0">р</tspan><tspan x="23.55" y="0">.</tspan></text>
          <text class="cls-3" transform="translate(279.31 370.94)"><tspan x="0" y="0">5 </tspan><tspan class="cls-14" x="13.87" y="0">р</tspan><tspan x="23.55" y="0">.</tspan></text>
          <text class="cls-3" transform="translate(408.22 391.23)"><tspan x="0" y="0">5 </tspan><tspan class="cls-14" x="13.87" y="0">р</tspan><tspan x="23.55" y="0">.</tspan></text>
          <text class="cls-3" transform="translate(515.76 391.23)"><tspan x="0" y="0">7,5 </tspan><tspan class="cls-17" x="27.26" y="0">р</tspan><tspan x="36.94" y="0">.</tspan></text>
          <text class="cls-3" transform="translate(612.73 391.23)"><tspan x="0" y="0">3,4 </tspan><tspan class="cls-17" x="27.26" y="0">р</tspan><tspan x="36.94" y="0">.</tspan></text>
          <text class="cls-3" transform="translate(769.59 369.56)"><tspan x="0" y="0">4,3 </tspan><tspan class="cls-17" x="27.26" y="0">р</tspan><tspan x="36.94" y="0">.</tspan></text>
          <text class="cls-3" transform="translate(866.65 369.56)"><tspan x="0" y="0">4,3 </tspan><tspan class="cls-17" x="27.26" y="0">р</tspan><tspan x="36.94" y="0">.</tspan></text>
          <text class="cls-1" transform="translate(12.95 414.86)"><tspan x="0" y="0">500-4999 ш</tspan><tspan class="cls-12" x="92.16" y="0">т</tspan><tspan x="98.78" y="0">.</tspan></text>
        </g>
      </g>
    </g>
  </g>
</svg>