<?xml version="1.0" encoding="UTF-8"?>
<svg id="_Слой_2" data-name="Слой 2" xmlns="http://www.w3.org/2000/svg" viewBox="0 0 938.93 209.59">
  <defs>
    <style>
      .cls-1 {
        fill: #fff;
      }

      .cls-1, .cls-2 {
        stroke: #a0b6b5;
        stroke-miterlimit: 10;
      }

      .cls-3 {
        fill: #27625f;
        stroke-width: 0px;
      }

      .cls-2 {
        fill: none;
      }
    </style>
  </defs>
  <g id="_Слой_1-2" data-name="Слой 1">
    <g>
      <g>
        <rect class="cls-1" x=".5" y=".5" width="937.93" height="183.76" rx="10" ry="10"/>
        <line class="cls-2" x1=".5" y1="46.44" x2="938.43" y2="46.44"/>
        <line class="cls-2" x1="462.24" y1="46.44" x2="462.24" y2="184.26"/>
        <line class="cls-2" x1="620.33" y1="92.38" x2="620.33" y2="184.26"/>
        <line class="cls-2" x1="779.38" y1="92.38" x2="779.38" y2="184.26"/>
        <line class="cls-2" x1=".5" y1="92.38" x2="938.43" y2="92.38"/>
        <line class="cls-2" x1=".5" y1="138.32" x2="938.43" y2="138.32"/>
      </g>
      <g>
        <g>
          <path class="cls-3" d="m21.15,28.38v-11.28h9.87v11.28h-2.05v-9.6h-5.79v9.6h-2.03Z"/>
          <path class="cls-3" d="m33.18,28.61l-.62-1.57c.35-.13.65-.3.89-.5.24-.21.43-.47.58-.8.14-.33.25-.73.31-1.22.06-.49.1-1.06.1-1.74v-2.48h6.43v8.08h-1.98v-6.54h-2.62v1.01c0,1.16-.11,2.14-.32,2.92-.21.78-.54,1.41-.99,1.86-.45.46-1.04.78-1.76.98Z"/>
          <path class="cls-3" d="m46.85,28.54c-.83,0-1.55-.17-2.16-.51-.61-.34-1.08-.83-1.42-1.46-.34-.63-.5-1.38-.5-2.24s.17-1.61.5-2.23c.34-.62.81-1.11,1.42-1.45.61-.34,1.33-.51,2.16-.51s1.55.17,2.17.51,1.09.82,1.42,1.45c.34.62.5,1.37.5,2.23s-.17,1.61-.5,2.24c-.34.63-.81,1.11-1.42,1.46s-1.34.51-2.17.51Zm0-1.54c.63,0,1.13-.22,1.5-.66.37-.44.56-1.11.56-2.01s-.19-1.56-.56-2c-.37-.44-.87-.66-1.5-.66s-1.13.22-1.5.66-.56,1.1-.56,2,.19,1.57.56,2.01c.37.44.88.66,1.5.66Z"/>
          <path class="cls-3" d="m54.57,28.38v-6.51h-2.77v-1.57h7.54v1.57h-2.78v6.51h-1.98Z"/>
          <path class="cls-3" d="m62.48,28.38v-6.51h-2.77v-1.57h7.54v1.57h-2.78v6.51h-1.98Z"/>
          <path class="cls-3" d="m72.37,28.54c-1.35,0-2.42-.37-3.18-1.12-.77-.75-1.15-1.77-1.15-3.07,0-.84.17-1.58.5-2.21.33-.63.79-1.12,1.38-1.47.59-.35,1.28-.53,2.07-.53s1.43.17,1.95.5c.52.33.92.79,1.19,1.39.27.6.41,1.3.41,2.1v.53h-5.89v-1.06h4.46l-.27.22c0-.75-.16-1.32-.47-1.71-.31-.39-.77-.59-1.37-.59-.66,0-1.17.23-1.53.7-.36.47-.54,1.13-.54,1.97v.21c0,.87.22,1.53.65,1.96.43.43,1.04.65,1.83.65.46,0,.89-.06,1.29-.18.4-.12.78-.32,1.14-.6l.59,1.34c-.38.31-.84.55-1.38.72-.53.17-1.1.26-1.7.26Z"/>
          <path class="cls-3" d="m77.45,31.84v-9.52c0-.33-.01-.67-.03-1.01s-.05-.68-.1-1.01h1.94l.18,1.7h-.18c.16-.57.5-1.02,1.02-1.35.52-.34,1.12-.5,1.8-.5s1.34.17,1.87.5c.53.34.95.82,1.25,1.44.3.62.45,1.37.45,2.25s-.15,1.63-.45,2.26c-.3.63-.71,1.11-1.25,1.45-.53.34-1.16.5-1.87.5-.67,0-1.26-.17-1.78-.5s-.85-.77-1.02-1.33h.18v5.12h-2Zm4.06-4.83c.64,0,1.15-.22,1.54-.66.38-.44.58-1.11.58-2.01s-.19-1.56-.58-2-.9-.66-1.54-.66-1.14.22-1.52.66-.58,1.1-.58,2,.19,1.57.58,2.01c.38.44.89.66,1.52.66Z"/>
          <path class="cls-3" d="m87.53,28.38v-8.08h1.98v3.17h3.65v-3.17h1.98v8.08h-1.98v-3.38h-3.65v3.38h-1.98Z"/>
          <path class="cls-3" d="m100.61,28.54c-.7,0-1.32-.17-1.86-.5-.53-.34-.95-.82-1.25-1.45s-.45-1.38-.45-2.26.15-1.62.45-2.25.71-1.1,1.25-1.44,1.15-.5,1.86-.5,1.28.17,1.8.5.86.79,1.03,1.35h-.18l.18-1.7h1.92c-.03.33-.06.67-.09,1.01-.03.34-.04.68-.04,1.01v6.06h-1.98l-.02-1.66h.19c-.17.55-.52,1-1.04,1.33s-1.11.5-1.78.5Zm.56-1.54c.63,0,1.14-.22,1.52-.66.38-.44.58-1.11.58-2.01s-.19-1.56-.58-2c-.38-.44-.89-.66-1.52-.66s-1.14.22-1.52.66c-.38.44-.58,1.1-.58,2s.19,1.57.57,2.01c.38.44.89.66,1.53.66Z"/>
          <path class="cls-3" d="m106.89,28.38l1.23-2.13c.21-.36.48-.65.79-.87.31-.22.64-.33.98-.33h.35l-.02.18c-.95,0-1.68-.21-2.19-.62-.51-.42-.77-1.02-.77-1.82s.26-1.4.79-1.83c.53-.43,1.3-.65,2.33-.65h4.02v8.08h-1.82v-2.85h-.91c-.33,0-.62.09-.87.27-.25.18-.46.42-.63.7l-1.06,1.87h-2.22Zm3.89-4.14h1.81v-2.64h-1.81c-.54,0-.95.12-1.22.35-.27.23-.41.55-.41.96,0,.43.14.75.41.98.27.23.68.34,1.22.34Z"/>
          <path class="cls-3" d="m121.13,31.84v-9.52c0-.33-.01-.67-.03-1.01s-.05-.68-.1-1.01h1.94l.18,1.7h-.18c.16-.57.5-1.02,1.02-1.35.52-.34,1.12-.5,1.8-.5s1.34.17,1.87.5c.53.34.95.82,1.25,1.44.3.62.45,1.37.45,2.25s-.15,1.63-.45,2.26c-.3.63-.71,1.11-1.25,1.45-.53.34-1.16.5-1.87.5-.67,0-1.26-.17-1.78-.5s-.85-.77-1.02-1.33h.18v5.12h-2Zm4.06-4.83c.64,0,1.15-.22,1.54-.66.38-.44.58-1.11.58-2.01s-.19-1.56-.58-2-.9-.66-1.54-.66-1.14.22-1.52.66-.58,1.1-.58,2,.19,1.57.58,2.01c.38.44.89.66,1.52.66Z"/>
          <path class="cls-3" d="m135.18,28.54c-1.35,0-2.42-.37-3.18-1.12-.77-.75-1.15-1.77-1.15-3.07,0-.84.17-1.58.5-2.21.33-.63.79-1.12,1.38-1.47.59-.35,1.28-.53,2.07-.53s1.43.17,1.95.5c.52.33.92.79,1.19,1.39.27.6.41,1.3.41,2.1v.53h-5.89v-1.06h4.46l-.27.22c0-.75-.16-1.32-.47-1.71-.31-.39-.77-.59-1.37-.59-.66,0-1.17.23-1.53.7-.36.47-.54,1.13-.54,1.97v.21c0,.87.22,1.53.65,1.96.43.43,1.04.65,1.83.65.46,0,.89-.06,1.29-.18.4-.12.78-.32,1.14-.6l.59,1.34c-.38.31-.84.55-1.38.72-.53.17-1.1.26-1.7.26Z"/>
          <path class="cls-3" d="m143.18,28.54c-.73,0-1.41-.09-2.04-.26-.63-.17-1.17-.42-1.59-.74l.56-1.31c.39.29.86.51,1.38.66.53.15,1.08.22,1.67.22.68,0,1.18-.09,1.5-.28s.47-.46.47-.82c0-.34-.12-.6-.37-.78-.25-.18-.61-.26-1.09-.26h-2.1v-1.38h1.9c.44,0,.77-.08,1.01-.26.23-.17.35-.41.35-.72,0-.33-.14-.59-.42-.78-.28-.19-.74-.29-1.38-.29-.55,0-1.06.07-1.52.2-.46.13-.89.33-1.3.58l-.54-1.25c.44-.31.97-.54,1.59-.7s1.3-.24,2.04-.24c1.08,0,1.9.2,2.48.59s.86.95.86,1.68c0,.49-.17.91-.5,1.26s-.79.57-1.35.66v-.22c.66.04,1.18.24,1.57.59s.58.83.58,1.42c0,.74-.33,1.32-.98,1.76-.65.44-1.58.66-2.78.66Z"/>
          <path class="cls-3" d="m148.69,28.38v-8.08h1.98v3.17h1.22l2.37-3.17h2.14l-2.98,4.03-.43-.62c.3.03.56.11.79.24.23.13.45.31.66.54s.41.52.62.87l1.7,3.02h-2.13l-1.38-2.43c-.14-.25-.28-.44-.42-.58s-.29-.23-.46-.29c-.17-.05-.38-.08-.62-.08h-1.07v3.38h-1.98Z"/>
          <path class="cls-3" d="m160.99,28.54c-.7,0-1.32-.17-1.86-.5-.53-.34-.95-.82-1.25-1.45s-.45-1.38-.45-2.26.15-1.62.45-2.25.71-1.1,1.25-1.44,1.15-.5,1.86-.5,1.28.17,1.8.5.86.79,1.03,1.35h-.18l.18-1.7h1.92c-.03.33-.06.67-.09,1.01-.03.34-.04.68-.04,1.01v6.06h-1.98l-.02-1.66h.19c-.17.55-.52,1-1.04,1.33s-1.11.5-1.78.5Zm.56-1.54c.63,0,1.14-.22,1.52-.66.38-.44.58-1.11.58-2.01s-.19-1.56-.58-2c-.38-.44-.89-.66-1.52-.66s-1.14.22-1.52.66c-.38.44-.58,1.1-.58,2s.19,1.57.57,2.01c.38.44.89.66,1.53.66Z"/>
        </g>
        <g>
          <path class="cls-3" d="m174.68,75.12v-11.28h2.06v4.7h5.78v-4.7h2.06v11.28h-2.06v-4.86h-5.78v4.86h-2.06Z"/>
          <path class="cls-3" d="m190.14,75.28c-.7,0-1.32-.17-1.86-.5-.53-.34-.95-.82-1.25-1.45-.3-.63-.45-1.38-.45-2.26s.15-1.62.45-2.25c.3-.62.71-1.1,1.25-1.44s1.15-.5,1.86-.5,1.28.17,1.8.5c.52.34.86.79,1.03,1.35h-.18l.18-1.7h1.92c-.03.33-.06.67-.09,1.01-.03.34-.04.68-.04,1.01v6.06h-1.98l-.02-1.66h.19c-.17.55-.52,1-1.04,1.33-.52.33-1.11.5-1.78.5Zm.56-1.54c.63,0,1.14-.22,1.52-.66.38-.44.58-1.11.58-2.01s-.19-1.56-.58-2c-.38-.44-.89-.66-1.52-.66s-1.14.22-1.52.66c-.38.44-.58,1.1-.58,2s.19,1.57.57,2.01c.38.44.89.66,1.53.66Z"/>
          <path class="cls-3" d="m197.1,75.12v-8.08h1.81v6.11h-.48l4.59-6.11h1.65v8.08h-1.81v-6.13h.5l-4.61,6.13h-1.65Z"/>
          <path class="cls-3" d="m206.94,75.12v-8.08h1.66l2.78,4.83,2.78-4.83h1.66v8.08h-1.76v-5.84h.37l-2.59,4.53h-.93l-2.59-4.53h.37v5.84h-1.76Z"/>
          <path class="cls-3" d="m222.08,75.28c-1.36,0-2.42-.37-3.18-1.12s-1.15-1.77-1.15-3.07c0-.84.16-1.58.5-2.21.33-.63.79-1.12,1.38-1.47.59-.35,1.28-.53,2.07-.53s1.43.17,1.95.5c.52.33.92.79,1.19,1.39.27.6.41,1.3.41,2.1v.53h-5.89v-1.06h4.46l-.27.22c0-.75-.16-1.32-.47-1.71-.32-.39-.77-.59-1.37-.59-.66,0-1.17.23-1.53.7-.36.47-.54,1.13-.54,1.97v.21c0,.87.22,1.53.65,1.96.43.43,1.04.65,1.83.65.46,0,.89-.06,1.29-.18.4-.12.78-.32,1.14-.6l.59,1.34c-.38.31-.84.55-1.38.72-.53.17-1.1.26-1.7.26Z"/>
          <path class="cls-3" d="m227.1,75.12v-8.08h1.98v3.17h3.65v-3.17h1.98v8.08h-1.98v-3.38h-3.65v3.38h-1.98Z"/>
          <path class="cls-3" d="m240.7,75.28c-.83,0-1.55-.17-2.16-.51-.61-.34-1.08-.83-1.42-1.46-.34-.63-.5-1.38-.5-2.24s.17-1.61.5-2.23.81-1.11,1.42-1.45c.61-.34,1.33-.51,2.16-.51s1.55.17,2.17.51,1.09.82,1.42,1.45.5,1.37.5,2.23-.17,1.61-.5,2.24c-.34.63-.81,1.11-1.42,1.46s-1.34.51-2.17.51Zm0-1.54c.63,0,1.13-.22,1.5-.66.37-.44.56-1.11.56-2.01s-.19-1.56-.56-2-.88-.66-1.5-.66-1.13.22-1.5.66-.56,1.1-.56,2,.19,1.57.56,2.01c.37.44.88.66,1.5.66Z"/>
          <path class="cls-3" d="m246.68,75.12v-8.08h4.3c1.01,0,1.75.18,2.22.55.47.37.7.89.7,1.56,0,.51-.17.94-.51,1.28-.34.34-.79.55-1.36.64v-.22c.69.04,1.23.25,1.6.61.37.36.56.83.56,1.41,0,.69-.27,1.24-.8,1.65-.53.41-1.29.61-2.27.61h-4.45Zm1.86-4.74h2.21c.43,0,.76-.09.99-.28.23-.19.35-.45.35-.79s-.12-.6-.35-.78c-.24-.18-.57-.27-.99-.27h-2.21v2.13Zm0,3.5h2.38c.47,0,.83-.1,1.08-.29.25-.19.38-.47.38-.85s-.13-.66-.38-.85c-.25-.19-.61-.29-1.08-.29h-2.38v2.27Z"/>
          <path class="cls-3" d="m259.13,75.28c-.7,0-1.32-.17-1.86-.5-.53-.34-.95-.82-1.25-1.45s-.45-1.38-.45-2.26.15-1.62.45-2.25.71-1.1,1.25-1.44,1.15-.5,1.86-.5,1.28.17,1.8.5.86.79,1.03,1.35h-.18l.18-1.7h1.92c-.03.33-.06.67-.09,1.01-.03.34-.04.68-.04,1.01v6.06h-1.98l-.02-1.66h.19c-.17.55-.52,1-1.04,1.33s-1.11.5-1.78.5Zm.56-1.54c.63,0,1.14-.22,1.52-.66.38-.44.58-1.11.58-2.01s-.19-1.56-.58-2c-.38-.44-.89-.66-1.52-.66s-1.14.22-1.52.66c-.38.44-.58,1.1-.58,2s.19,1.57.57,2.01c.38.44.89.66,1.53.66Z"/>
          <path class="cls-3" d="m266.09,75.12v-8.08h1.98v3.17h3.65v-3.17h1.98v8.08h-1.98v-3.38h-3.65v3.38h-1.98Z"/>
          <path class="cls-3" d="m275.98,75.12v-8.08h1.81v6.11h-.48l4.59-6.11h1.65v8.08h-1.81v-6.13h.5l-4.61,6.13h-1.65Z"/>
          <path class="cls-3" d="m289.79,75.28c-1.35,0-2.42-.37-3.18-1.12-.77-.75-1.15-1.77-1.15-3.07,0-.84.17-1.58.5-2.21.33-.63.79-1.12,1.38-1.47.59-.35,1.28-.53,2.07-.53s1.43.17,1.95.5c.52.33.92.79,1.19,1.39.27.6.41,1.3.41,2.1v.53h-5.89v-1.06h4.46l-.27.22c0-.75-.16-1.32-.47-1.71-.31-.39-.77-.59-1.37-.59-.66,0-1.17.23-1.53.7-.36.47-.54,1.13-.54,1.97v.21c0,.87.22,1.53.65,1.96.43.43,1.04.65,1.83.65.46,0,.89-.06,1.29-.18.4-.12.78-.32,1.14-.6l.59,1.34c-.38.31-.84.55-1.38.72-.53.17-1.1.26-1.7.26Z"/>
        </g>
        <g>
          <path class="cls-3" d="m643.8,65.95v-11.28h9.87v11.28h-2.05v-9.6h-5.79v9.6h-2.03Z"/>
          <path class="cls-3" d="m659.76,66.11c-.83,0-1.55-.17-2.16-.51-.61-.34-1.08-.83-1.42-1.46-.34-.63-.5-1.38-.5-2.24s.17-1.61.5-2.23.81-1.11,1.42-1.45c.61-.34,1.33-.51,2.16-.51s1.55.17,2.17.51c.61.34,1.09.82,1.42,1.45s.5,1.37.5,2.23-.17,1.61-.5,2.24c-.34.63-.81,1.11-1.42,1.46-.61.34-1.34.51-2.17.51Zm0-1.54c.63,0,1.13-.22,1.5-.66.37-.44.56-1.11.56-2.01s-.19-1.56-.56-2c-.37-.44-.88-.66-1.5-.66s-1.13.22-1.5.66c-.37.44-.56,1.1-.56,2s.19,1.57.56,2.01c.37.44.87.66,1.5.66Z"/>
          <path class="cls-3" d="m665.37,66.17l-.62-1.57c.35-.13.65-.3.89-.5.24-.21.43-.47.58-.8.14-.33.25-.73.31-1.22.06-.49.1-1.06.1-1.74v-2.48h6.43v8.08h-1.98v-6.54h-2.62v1.01c0,1.16-.11,2.14-.32,2.92-.21.78-.54,1.41-.99,1.86-.45.46-1.03.78-1.76.98Z"/>
          <path class="cls-3" d="m675.32,65.95v-8.08h1.98v3.17h3.65v-3.17h1.98v8.08h-1.98v-3.38h-3.65v3.38h-1.98Z"/>
          <path class="cls-3" d="m685.21,65.95v-8.08h1.98v2.7h2.13c1.08,0,1.89.23,2.43.68.54.45.82,1.11.82,1.96,0,.55-.13,1.04-.38,1.45-.26.41-.63.73-1.11.95s-1.07.34-1.75.34h-4.11Zm1.98-1.31h1.86c.54,0,.96-.11,1.25-.34s.43-.58.43-1.05-.14-.81-.42-1.03c-.28-.22-.7-.33-1.26-.33h-1.86v2.75Zm6.38,1.31v-8.08h1.98v8.08h-1.98Z"/>
          <path class="cls-3" d="m697.83,65.95v-8.08h1.81v6.11h-.48l4.59-6.11h1.65v8.08h-1.81v-6.13h.5l-4.61,6.13h-1.65Zm3.78-8.82c-.53,0-1-.09-1.41-.26-.41-.18-.74-.43-1.01-.75-.27-.33-.46-.71-.58-1.16l1.02-.35c.18.49.43.85.75,1.08.32.23.73.34,1.23.34s.91-.11,1.23-.34c.32-.22.58-.58.78-1.07l.98.34c-.22.71-.59,1.26-1.11,1.62-.52.37-1.15.55-1.9.55Z"/>
          <path class="cls-3" d="m713.8,65.95v-6.51h-2.77v-1.57h7.54v1.57h-2.78v6.51h-1.98Z"/>
          <path class="cls-3" d="m723.69,66.11c-1.35,0-2.42-.37-3.18-1.12-.77-.75-1.15-1.77-1.15-3.07,0-.84.17-1.58.5-2.21.33-.63.79-1.12,1.38-1.47.59-.35,1.28-.53,2.07-.53s1.43.17,1.95.5c.52.33.92.79,1.19,1.39.27.6.41,1.3.41,2.1v.53h-5.89v-1.06h4.46l-.27.22c0-.75-.16-1.32-.47-1.71-.31-.39-.77-.59-1.37-.59-.66,0-1.17.23-1.53.7-.36.47-.54,1.13-.54,1.97v.21c0,.87.22,1.53.65,1.96.43.43,1.04.65,1.83.65.46,0,.89-.06,1.29-.18.4-.12.78-.32,1.14-.6l.59,1.34c-.38.31-.84.55-1.38.72-.53.17-1.1.26-1.7.26Z"/>
          <path class="cls-3" d="m728.71,65.95v-8.08h1.98v3.17h1.22l2.37-3.17h2.14l-2.98,4.03-.43-.62c.3.03.56.11.79.24.23.13.45.31.66.54s.41.52.62.87l1.7,3.02h-2.13l-1.38-2.43c-.14-.25-.28-.44-.42-.58s-.29-.23-.46-.29c-.17-.05-.38-.08-.62-.08h-1.07v3.38h-1.98Z"/>
          <path class="cls-3" d="m741.61,66.11c-.83,0-1.56-.17-2.18-.51s-1.11-.83-1.45-1.46c-.34-.63-.51-1.39-.51-2.26s.17-1.62.52-2.24.83-1.09,1.45-1.42c.62-.33,1.34-.5,2.18-.5.53,0,1.05.08,1.56.25.51.17.92.4,1.24.71l-.61,1.39c-.29-.27-.61-.47-.97-.6s-.71-.2-1.05-.2c-.71,0-1.27.22-1.67.67-.4.45-.6,1.1-.6,1.95s.2,1.51.6,1.97c.4.46.96.69,1.67.69.33,0,.67-.06,1.03-.19s.69-.33.98-.59l.61,1.38c-.33.31-.75.55-1.26.72-.51.17-1.02.26-1.54.26Z"/>
          <path class="cls-3" d="m747.87,65.95v-6.51h-2.77v-1.57h7.54v1.57h-2.78v6.51h-1.98Z"/>
          <path class="cls-3" d="m560.62,83.83c-.5-.79-.91-1.56-1.22-2.32s-.54-1.53-.68-2.31-.21-1.6-.21-2.46.07-1.69.21-2.46.37-1.55.68-2.3c.31-.76.72-1.53,1.22-2.3h1.6c-.55,1.23-.97,2.42-1.24,3.58-.27,1.16-.41,2.32-.41,3.5s.14,2.33.41,3.49c.27,1.16.69,2.36,1.24,3.6h-1.6Z"/>
          <path class="cls-3" d="m563.72,80.95v-8.08h7.57v8.08h-1.98v-6.54h-3.6v6.54h-1.98Z"/>
          <path class="cls-3" d="m573.36,81.17l-.62-1.57c.35-.13.65-.3.89-.5.24-.21.43-.47.58-.8.14-.33.25-.73.31-1.22.06-.49.1-1.06.1-1.74v-2.48h6.43v8.08h-1.98v-6.54h-2.62v1.01c0,1.16-.11,2.14-.32,2.92-.21.78-.54,1.41-.99,1.86-.45.46-1.03.78-1.76.98Z"/>
          <path class="cls-3" d="m587.28,81.11c-1.36,0-2.42-.37-3.18-1.12-.77-.75-1.15-1.77-1.15-3.07,0-.84.17-1.58.5-2.21.33-.63.79-1.12,1.38-1.47s1.28-.53,2.07-.53,1.43.17,1.95.5c.52.33.92.79,1.19,1.39.27.6.41,1.3.41,2.1v.53h-5.89v-1.06h4.46l-.27.22c0-.75-.16-1.32-.47-1.71-.32-.39-.77-.59-1.37-.59-.66,0-1.17.23-1.53.7-.36.47-.54,1.13-.54,1.97v.21c0,.87.22,1.53.65,1.96s1.04.65,1.83.65c.46,0,.89-.06,1.29-.18.4-.12.78-.32,1.14-.6l.59,1.34c-.38.31-.84.55-1.38.72-.53.17-1.1.26-1.7.26Zm-2.82-9.71v-1.84h1.84v1.84h-1.84Zm3.02,0v-1.84h1.84v1.84h-1.84Z"/>
          <path class="cls-3" d="m592.3,80.95v-8.08h1.98v3.17h3.65v-3.17h1.98v8.08h-1.98v-3.38h-3.65v3.38h-1.98Z"/>
          <path class="cls-3" d="m602.19,80.95v-8.08h1.98v3.17h1.22l2.37-3.17h2.14l-2.98,4.03-.43-.62c.3.03.56.11.79.24s.45.31.66.54.41.52.62.87l1.7,3.02h-2.13l-1.38-2.43c-.14-.25-.28-.44-.42-.58s-.29-.23-.46-.29c-.17-.05-.38-.08-.62-.08h-1.07v3.38h-1.98Z"/>
          <path class="cls-3" d="m614.49,81.11c-.7,0-1.32-.17-1.86-.5-.53-.34-.95-.82-1.25-1.45-.3-.63-.45-1.38-.45-2.26s.15-1.62.45-2.25c.3-.62.71-1.1,1.25-1.44s1.15-.5,1.86-.5,1.28.17,1.8.5.86.79,1.03,1.35h-.18l.18-1.7h1.92c-.03.33-.06.67-.09,1.01-.03.34-.04.68-.04,1.01v6.06h-1.98l-.02-1.66h.19c-.17.55-.52,1-1.04,1.33-.52.33-1.12.5-1.78.5Zm.56-1.54c.63,0,1.14-.22,1.52-.66.38-.44.58-1.11.58-2.01s-.19-1.56-.58-2-.89-.66-1.52-.66-1.14.22-1.52.66-.58,1.1-.58,2,.19,1.57.57,2.01c.38.44.89.66,1.53.66Z"/>
          <path class="cls-3" d="m624.39,80.32v-3.26h-3.22v-1.41h3.22v-3.18h1.46v3.18h3.2v1.41h-3.2v3.26h-1.46Z"/>
          <path class="cls-3" d="m631.12,84.4v-9.52c0-.33-.01-.67-.03-1.01s-.05-.68-.1-1.01h1.94l.18,1.7h-.18c.16-.57.5-1.02,1.02-1.35s1.12-.5,1.8-.5,1.34.17,1.87.5c.53.34.95.82,1.25,1.44s.45,1.37.45,2.25-.15,1.63-.45,2.26-.71,1.11-1.25,1.45c-.53.34-1.16.5-1.87.5-.67,0-1.26-.17-1.78-.5s-.85-.77-1.02-1.33h.18v5.12h-2Zm4.06-4.83c.64,0,1.15-.22,1.54-.66.38-.44.58-1.11.58-2.01s-.19-1.56-.58-2-.9-.66-1.54-.66-1.14.22-1.52.66c-.38.44-.58,1.1-.58,2s.19,1.57.58,2.01c.38.44.89.66,1.52.66Z"/>
          <path class="cls-3" d="m645.16,81.11c-1.36,0-2.42-.37-3.18-1.12-.77-.75-1.15-1.77-1.15-3.07,0-.84.17-1.58.5-2.21.33-.63.79-1.12,1.38-1.47s1.28-.53,2.07-.53,1.43.17,1.95.5c.52.33.92.79,1.19,1.39.27.6.41,1.3.41,2.1v.53h-5.89v-1.06h4.46l-.27.22c0-.75-.16-1.32-.47-1.71-.32-.39-.77-.59-1.37-.59-.66,0-1.17.23-1.53.7-.36.47-.54,1.13-.54,1.97v.21c0,.87.22,1.53.65,1.96s1.04.65,1.83.65c.46,0,.89-.06,1.29-.18.4-.12.78-.32,1.14-.6l.59,1.34c-.38.31-.84.55-1.38.72-.53.17-1.1.26-1.7.26Z"/>
          <path class="cls-3" d="m653.16,81.11c-.72,0-1.41-.09-2.04-.26-.63-.17-1.17-.42-1.59-.74l.56-1.31c.39.29.86.51,1.38.66s1.08.22,1.67.22c.68,0,1.18-.09,1.5-.28s.47-.46.47-.82c0-.34-.12-.6-.37-.78-.25-.18-.61-.26-1.09-.26h-2.1v-1.38h1.9c.44,0,.77-.08,1.01-.26.23-.17.35-.41.35-.72,0-.33-.14-.59-.42-.78s-.74-.29-1.38-.29c-.55,0-1.06.07-1.52.2-.46.13-.89.33-1.3.58l-.54-1.25c.44-.31.97-.54,1.59-.7s1.3-.24,2.04-.24c1.08,0,1.9.2,2.48.59s.86.95.86,1.68c0,.49-.17.91-.5,1.26s-.79.57-1.35.66v-.22c.66.04,1.18.24,1.57.59s.58.83.58,1.42c0,.74-.33,1.32-.98,1.76-.65.44-1.58.66-2.78.66Z"/>
          <path class="cls-3" d="m658.67,80.95v-8.08h1.98v3.17h1.22l2.37-3.17h2.14l-2.98,4.03-.43-.62c.3.03.56.11.79.24s.45.31.66.54.41.52.62.87l1.7,3.02h-2.13l-1.38-2.43c-.14-.25-.28-.44-.42-.58s-.29-.23-.46-.29c-.17-.05-.38-.08-.62-.08h-1.07v3.38h-1.98Z"/>
          <path class="cls-3" d="m670.97,81.11c-.7,0-1.32-.17-1.86-.5-.53-.34-.95-.82-1.25-1.45-.3-.63-.45-1.38-.45-2.26s.15-1.62.45-2.25c.3-.62.71-1.1,1.25-1.44s1.15-.5,1.86-.5,1.28.17,1.8.5.86.79,1.03,1.35h-.18l.18-1.7h1.92c-.03.33-.06.67-.09,1.01-.03.34-.04.68-.04,1.01v6.06h-1.98l-.02-1.66h.19c-.17.55-.52,1-1.04,1.33-.52.33-1.12.5-1.78.5Zm.56-1.54c.63,0,1.14-.22,1.52-.66.38-.44.58-1.11.58-2.01s-.19-1.56-.58-2-.89-.66-1.52-.66-1.14.22-1.52.66-.58,1.1-.58,2,.19,1.57.57,2.01c.38.44.89.66,1.53.66Z"/>
          <path class="cls-3" d="m680.87,80.32v-3.26h-3.22v-1.41h3.22v-3.18h1.46v3.18h3.2v1.41h-3.2v3.26h-1.46Z"/>
          <path class="cls-3" d="m687.53,80.95v-8.08h4.3c1.01,0,1.75.18,2.22.55.47.37.7.89.7,1.56,0,.51-.17.94-.51,1.28-.34.34-.79.55-1.36.64v-.22c.69.04,1.23.25,1.6.61.37.36.56.83.56,1.41,0,.69-.27,1.24-.8,1.65-.53.41-1.29.61-2.27.61h-4.45Zm1.86-4.74h2.21c.43,0,.76-.09.99-.28.23-.19.35-.45.35-.79s-.12-.6-.35-.78c-.24-.18-.57-.27-.99-.27h-2.21v2.13Zm0,3.5h2.38c.47,0,.83-.1,1.08-.29s.38-.47.38-.85-.12-.66-.38-.85c-.25-.19-.61-.29-1.08-.29h-2.38v2.27Z"/>
          <path class="cls-3" d="m696.79,80.95v-8.08h1.98v2.7h2.13c1.08,0,1.89.23,2.43.68.54.45.82,1.11.82,1.96,0,.55-.13,1.04-.38,1.45-.26.41-.63.73-1.11.95s-1.07.34-1.75.34h-4.11Zm1.98-1.31h1.86c.54,0,.96-.11,1.25-.34s.43-.58.43-1.05-.14-.81-.42-1.03c-.28-.22-.7-.33-1.26-.33h-1.86v2.75Zm6.38,1.31v-8.08h1.98v8.08h-1.98Z"/>
          <path class="cls-3" d="m713.21,81.11c-1.27,0-2.28-.38-3.03-1.15-.75-.77-1.13-1.89-1.13-3.38v-1.38c0-1.52.35-2.75,1.04-3.68.69-.93,1.74-1.54,3.14-1.84l2.96-.67.54,1.57-3.33.74c-.55.12-1.01.34-1.38.66-.36.33-.63.71-.82,1.16-.18.45-.27.93-.27,1.44v.85h-.27c.12-.48.31-.9.59-1.26s.63-.64,1.06-.84c.43-.2.91-.3,1.46-.3.68,0,1.28.16,1.8.47.52.31.92.77,1.22,1.36.3.59.45,1.3.45,2.12s-.17,1.57-.5,2.19-.81,1.1-1.41,1.43c-.6.34-1.31.5-2.12.5Zm-.06-1.52c.66,0,1.18-.21,1.54-.63.37-.42.55-1.05.55-1.9s-.19-1.45-.56-1.88c-.37-.43-.89-.65-1.54-.65s-1.16.21-1.54.64c-.37.43-.56,1.03-.56,1.82,0,.86.19,1.51.56,1.94.37.43.88.65,1.54.65Z"/>
          <path class="cls-3" d="m722.84,81.11c-.83,0-1.55-.17-2.16-.51-.61-.34-1.08-.83-1.42-1.46-.34-.63-.5-1.38-.5-2.24s.17-1.61.5-2.23c.34-.62.81-1.11,1.42-1.45.61-.34,1.33-.51,2.16-.51s1.55.17,2.17.51,1.09.82,1.42,1.45c.34.62.5,1.37.5,2.23s-.17,1.61-.5,2.24c-.34.63-.81,1.11-1.42,1.46s-1.34.51-2.17.51Zm0-1.54c.63,0,1.13-.22,1.5-.66.37-.44.56-1.11.56-2.01s-.19-1.56-.56-2c-.37-.44-.87-.66-1.5-.66s-1.13.22-1.5.66-.56,1.1-.56,2,.19,1.57.56,2.01c.37.44.88.66,1.5.66Z"/>
          <path class="cls-3" d="m728.89,84.4v-9.52c0-.33-.01-.67-.03-1.01s-.05-.68-.1-1.01h1.94l.18,1.7h-.18c.16-.57.5-1.02,1.02-1.35.52-.34,1.12-.5,1.8-.5s1.34.17,1.87.5c.53.34.95.82,1.25,1.44.3.62.45,1.37.45,2.25s-.15,1.63-.45,2.26c-.3.63-.71,1.11-1.25,1.45-.53.34-1.16.5-1.87.5-.67,0-1.26-.17-1.78-.5s-.85-.77-1.02-1.33h.18v5.12h-2Zm4.06-4.83c.64,0,1.15-.22,1.54-.66.38-.44.58-1.11.58-2.01s-.19-1.56-.58-2-.9-.66-1.54-.66-1.14.22-1.52.66-.58,1.1-.58,2,.19,1.57.58,2.01c.38.44.89.66,1.52.66Z"/>
          <path class="cls-3" d="m738.97,80.95v-8.08h1.98v3.17h1.22l2.37-3.17h2.14l-2.98,4.03-.43-.62c.3.03.56.11.79.24.23.13.45.31.66.54s.41.52.62.87l1.7,3.02h-2.13l-1.38-2.43c-.14-.25-.28-.44-.42-.58s-.29-.23-.46-.29c-.17-.05-.38-.08-.62-.08h-1.07v3.38h-1.98Z"/>
          <path class="cls-3" d="m751.27,81.11c-.7,0-1.32-.17-1.86-.5-.53-.34-.95-.82-1.25-1.45s-.45-1.38-.45-2.26.15-1.62.45-2.25.71-1.1,1.25-1.44,1.15-.5,1.86-.5,1.28.17,1.8.5.86.79,1.03,1.35h-.18l.18-1.7h1.92c-.03.33-.06.67-.09,1.01-.03.34-.04.68-.04,1.01v6.06h-1.98l-.02-1.66h.19c-.17.55-.52,1-1.04,1.33s-1.11.5-1.78.5Zm.56-1.54c.63,0,1.14-.22,1.52-.66.38-.44.58-1.11.58-2.01s-.19-1.56-.58-2c-.38-.44-.89-.66-1.52-.66s-1.14.22-1.52.66c-.38.44-.58,1.1-.58,2s.19,1.57.57,2.01c.38.44.89.66,1.53.66Z"/>
          <path class="cls-3" d="m761.18,80.32v-3.26h-3.22v-1.41h3.22v-3.18h1.46v3.18h3.2v1.41h-3.2v3.26h-1.46Z"/>
          <path class="cls-3" d="m767.83,80.95v-8.08h7.57v8.08h-1.98v-6.54h-3.6v6.54h-1.98Z"/>
          <path class="cls-3" d="m781.64,81.11c-1.35,0-2.42-.37-3.18-1.12-.77-.75-1.15-1.77-1.15-3.07,0-.84.17-1.58.5-2.21.33-.63.79-1.12,1.38-1.47.59-.35,1.28-.53,2.07-.53s1.43.17,1.95.5c.52.33.92.79,1.19,1.39.27.6.41,1.3.41,2.1v.53h-5.89v-1.06h4.46l-.27.22c0-.75-.16-1.32-.47-1.71-.31-.39-.77-.59-1.37-.59-.66,0-1.17.23-1.53.7-.36.47-.54,1.13-.54,1.97v.21c0,.87.22,1.53.65,1.96.43.43,1.04.65,1.83.65.46,0,.89-.06,1.29-.18.4-.12.78-.32,1.14-.6l.59,1.34c-.38.31-.84.55-1.38.72-.53.17-1.1.26-1.7.26Z"/>
          <path class="cls-3" d="m786.73,84.4v-9.52c0-.33-.01-.67-.03-1.01s-.05-.68-.1-1.01h1.94l.18,1.7h-.18c.16-.57.5-1.02,1.02-1.35.52-.34,1.12-.5,1.8-.5s1.34.17,1.87.5c.53.34.95.82,1.25,1.44.3.62.45,1.37.45,2.25s-.15,1.63-.45,2.26c-.3.63-.71,1.11-1.25,1.45-.53.34-1.16.5-1.87.5-.67,0-1.26-.17-1.78-.5s-.85-.77-1.02-1.33h.18v5.12h-2Zm4.06-4.83c.64,0,1.15-.22,1.54-.66.38-.44.58-1.11.58-2.01s-.19-1.56-.58-2-.9-.66-1.54-.66-1.14.22-1.52.66-.58,1.1-.58,2,.19,1.57.58,2.01c.38.44.89.66,1.52.66Z"/>
          <path class="cls-3" d="m800.78,81.11c-1.35,0-2.42-.37-3.18-1.12-.77-.75-1.15-1.77-1.15-3.07,0-.84.17-1.58.5-2.21.33-.63.79-1.12,1.38-1.47.59-.35,1.28-.53,2.07-.53s1.43.17,1.95.5c.52.33.92.79,1.19,1.39.27.6.41,1.3.41,2.1v.53h-5.89v-1.06h4.46l-.27.22c0-.75-.16-1.32-.47-1.71-.31-.39-.77-.59-1.37-.59-.66,0-1.17.23-1.53.7-.36.47-.54,1.13-.54,1.97v.21c0,.87.22,1.53.65,1.96.43.43,1.04.65,1.83.65.46,0,.89-.06,1.29-.18.4-.12.78-.32,1.14-.6l.59,1.34c-.38.31-.84.55-1.38.72-.53.17-1.1.26-1.7.26Z"/>
          <path class="cls-3" d="m805.8,80.95v-8.08h1.98v3.17h3.65v-3.17h1.98v8.08h-1.98v-3.38h-3.65v3.38h-1.98Z"/>
          <path class="cls-3" d="m819.4,81.11c-.83,0-1.55-.17-2.16-.51-.61-.34-1.08-.83-1.42-1.46-.34-.63-.5-1.38-.5-2.24s.17-1.61.5-2.23c.34-.62.81-1.11,1.42-1.45.61-.34,1.33-.51,2.16-.51s1.55.17,2.17.51,1.09.82,1.42,1.45c.34.62.5,1.37.5,2.23s-.17,1.61-.5,2.24c-.34.63-.81,1.11-1.42,1.46s-1.34.51-2.17.51Zm0-1.54c.63,0,1.13-.22,1.5-.66.37-.44.56-1.11.56-2.01s-.19-1.56-.56-2c-.37-.44-.87-.66-1.5-.66s-1.13.22-1.5.66-.56,1.1-.56,2,.19,1.57.56,2.01c.37.44.88.66,1.5.66Z"/>
          <path class="cls-3" d="m829.16,81.11c-.83,0-1.56-.17-2.18-.51s-1.11-.83-1.45-1.46c-.34-.63-.51-1.39-.51-2.26s.17-1.62.52-2.24.83-1.09,1.45-1.42c.62-.33,1.34-.5,2.18-.5.53,0,1.05.08,1.56.25.51.17.92.4,1.24.71l-.61,1.39c-.29-.27-.61-.47-.97-.6s-.71-.2-1.05-.2c-.71,0-1.27.22-1.67.67-.4.45-.6,1.1-.6,1.95s.2,1.51.6,1.97c.4.46.96.69,1.67.69.33,0,.67-.06,1.03-.19s.69-.33.98-.59l.61,1.38c-.33.31-.75.55-1.26.72-.51.17-1.02.26-1.54.26Z"/>
          <path class="cls-3" d="m834.66,83.83h-1.6c.55-1.23.97-2.42,1.24-3.59.27-1.17.41-2.33.41-3.5s-.14-2.33-.41-3.49c-.27-1.16-.69-2.36-1.24-3.58h1.6c.51.78.92,1.55,1.23,2.3.31.76.53,1.53.67,2.31s.21,1.6.21,2.46-.07,1.67-.21,2.46c-.14.79-.36,1.56-.67,2.32-.31.76-.72,1.52-1.23,2.3Z"/>
        </g>
        <g>
          <path class="cls-3" d="m519.08,120.62v-1.55l7.25-3.02v.99l-7.25-3.02v-1.55l7.86,3.31v1.52l-7.86,3.33Z"/>
          <path class="cls-3" d="m529.57,121.13v-1.71h2.59v-7.84h.99l-3.33,1.98v-1.95l2.93-1.76h1.47v9.57h2.43v1.71h-7.09Z"/>
          <path class="cls-3" d="m546.69,121.29c-.83,0-1.56-.17-2.18-.51s-1.11-.83-1.45-1.46c-.34-.63-.51-1.39-.51-2.26s.17-1.62.52-2.24.83-1.09,1.45-1.42c.62-.33,1.34-.5,2.18-.5.53,0,1.05.08,1.56.25.51.17.92.4,1.24.71l-.61,1.39c-.29-.27-.61-.47-.97-.6-.36-.13-.71-.2-1.05-.2-.71,0-1.27.22-1.67.67-.4.45-.6,1.1-.6,1.95s.2,1.51.6,1.97c.4.46.96.69,1.67.69.33,0,.67-.06,1.03-.19s.69-.33.98-.59l.61,1.38c-.33.31-.75.55-1.26.72-.51.17-1.02.26-1.54.26Z"/>
          <path class="cls-3" d="m551.2,121.13v-8.08h1.66l2.78,4.83,2.78-4.83h1.66v8.08h-1.76v-5.84h.37l-2.59,4.53h-.93l-2.59-4.53h.37v5.84h-1.76Z"/>
        </g>
        <g>
          <path class="cls-3" d="m516.33,166.38c-.77,0-1.5-.11-2.21-.34-.7-.23-1.29-.56-1.76-.98l.58-1.26c.52.41,1.06.7,1.6.9.54.19,1.12.29,1.74.29.79,0,1.39-.17,1.8-.5.41-.33.62-.81.62-1.42s-.21-1.07-.62-1.38c-.41-.31-1.02-.47-1.82-.47h-1.74v-1.34h1.62c.68,0,1.23-.17,1.63-.52s.61-.82.61-1.42c0-.54-.19-.96-.56-1.26-.37-.29-.91-.44-1.6-.44-1.17,0-2.2.41-3.09,1.23l-.56-1.26c.44-.44.99-.78,1.66-1.02.67-.24,1.38-.36,2.11-.36,1.13,0,2.02.26,2.67.78.65.52.98,1.23.98,2.15,0,.69-.2,1.29-.58,1.78-.39.49-.92.82-1.59.98v-.18c.8.13,1.42.45,1.85.95.43.51.65,1.14.65,1.9,0,1-.35,1.79-1.06,2.36-.71.57-1.68.86-2.92.86Z"/>
          <path class="cls-3" d="m525.93,166.38c-.77,0-1.5-.11-2.21-.34-.7-.23-1.29-.56-1.76-.98l.58-1.26c.52.41,1.06.7,1.6.9.54.19,1.13.29,1.74.29.79,0,1.39-.17,1.8-.5.41-.33.62-.81.62-1.42s-.21-1.07-.62-1.38c-.41-.31-1.02-.47-1.82-.47h-1.74v-1.34h1.62c.68,0,1.23-.17,1.63-.52s.61-.82.61-1.42c0-.54-.19-.96-.56-1.26-.37-.29-.91-.44-1.6-.44-1.17,0-2.2.41-3.09,1.23l-.56-1.26c.44-.44.99-.78,1.66-1.02.67-.24,1.38-.36,2.11-.36,1.13,0,2.02.26,2.67.78.65.52.98,1.23.98,2.15,0,.69-.19,1.29-.58,1.78-.39.49-.92.82-1.59.98v-.18c.8.13,1.42.45,1.85.95.43.51.65,1.14.65,1.9,0,1-.35,1.79-1.06,2.36-.71.57-1.68.86-2.92.86Z"/>
          <path class="cls-3" d="m532.77,166.23v-1.39h2.62v-8.48h.83l-3.2,1.95v-1.6l2.83-1.76h1.2v9.89h2.46v1.39h-6.75Z"/>
          <path class="cls-3" d="m545.4,166.38c-.49,0-.98-.05-1.46-.16-.48-.11-.93-.26-1.34-.46-.42-.2-.78-.43-1.09-.71l.58-1.26c.51.4,1.04.69,1.58.89.54.2,1.11.3,1.7.3.76,0,1.35-.2,1.78-.59.43-.39.65-.92.65-1.58s-.21-1.23-.62-1.66c-.41-.42-.98-.63-1.7-.63-.5,0-.96.1-1.37.3-.41.2-.77.51-1.08.93h-1.15v-6.78h6.83v1.39h-5.25v4.06h-.42c.29-.41.67-.72,1.16-.94s1.03-.34,1.64-.34c.72,0,1.35.15,1.89.45.53.3.95.71,1.24,1.25.29.53.44,1.16.44,1.89s-.16,1.36-.49,1.91c-.33.55-.79.98-1.39,1.29-.6.31-1.31.46-2.14.46Z"/>
          <path class="cls-3" d="m555.6,169.69v-9.58c0-.31-.01-.63-.04-.95-.03-.33-.06-.65-.09-.98h1.57l.16,1.82h-.18c.17-.61.51-1.09,1.03-1.44.52-.35,1.13-.53,1.85-.53s1.34.17,1.87.5.95.81,1.24,1.43c.29.62.44,1.37.44,2.24s-.15,1.61-.44,2.24c-.29.63-.71,1.11-1.24,1.44s-1.16.5-1.87.5-1.31-.17-1.83-.52-.86-.82-1.03-1.42h.18v5.25h-1.62Zm3.9-4.58c.7,0,1.27-.25,1.69-.74.42-.49.63-1.22.63-2.18s-.21-1.68-.63-2.17c-.42-.48-.98-.73-1.69-.73s-1.27.24-1.69.73c-.42.49-.63,1.21-.63,2.17s.21,1.69.63,2.18c.42.49.98.74,1.69.74Z"/>
          <path class="cls-3" d="m564.94,166.23v-1.9h1.9v1.9h-1.9Z"/>
        </g>
        <g>
          <path class="cls-3" d="m675.39,121.13v-1.71h2.59v-7.84h.99l-3.33,1.98v-1.95l2.93-1.76h1.47v9.57h2.43v1.71h-7.09Z"/>
          <path class="cls-3" d="m684.29,117.52v-1.58h4.86v1.58h-4.86Z"/>
          <path class="cls-3" d="m695.11,121.29c-.49,0-.98-.05-1.46-.16s-.94-.26-1.36-.45c-.42-.19-.78-.42-1.08-.69l.67-1.55c.5.37,1.02.65,1.54.84.53.19,1.08.28,1.66.28.69,0,1.23-.17,1.62-.52.39-.35.58-.81.58-1.4s-.19-1.08-.56-1.45-.89-.55-1.54-.55c-.46,0-.88.09-1.26.26-.38.18-.72.45-1.02.81h-1.36v-6.86h7.01v1.7h-5.06v3.58h-.5c.28-.37.65-.66,1.11-.86s.98-.3,1.56-.3c.73,0,1.35.15,1.89.45.53.3.95.72,1.25,1.26.3.54.45,1.17.45,1.9s-.17,1.38-.5,1.94-.82,1-1.44,1.31-1.36.47-2.22.47Z"/>
          <path class="cls-3" d="m709.12,121.29c-.83,0-1.56-.17-2.18-.51s-1.11-.83-1.45-1.46c-.34-.63-.51-1.39-.51-2.26s.17-1.62.52-2.24c.35-.62.83-1.09,1.45-1.42.62-.33,1.34-.5,2.18-.5.53,0,1.05.08,1.56.25.51.17.92.4,1.24.71l-.61,1.39c-.29-.27-.61-.47-.97-.6s-.71-.2-1.05-.2c-.71,0-1.27.22-1.67.67-.4.45-.6,1.1-.6,1.95s.2,1.51.6,1.97c.4.46.96.69,1.67.69.33,0,.67-.06,1.03-.19.36-.13.68-.33.98-.59l.61,1.38c-.33.31-.75.55-1.25.72-.51.17-1.02.26-1.54.26Z"/>
          <path class="cls-3" d="m713.63,121.13v-8.08h1.66l2.78,4.83,2.78-4.83h1.66v8.08h-1.76v-5.84h.37l-2.59,4.53h-.93l-2.59-4.53h.37v5.84h-1.76Z"/>
        </g>
        <g>
          <path class="cls-3" d="m671.9,166.23v-1.23l3.87-4.05c.5-.52.87-1.01,1.12-1.47.25-.46.37-.93.37-1.42,0-.61-.19-1.07-.57-1.38-.38-.31-.93-.46-1.64-.46-.57,0-1.1.1-1.59.3s-.97.51-1.43.93l-.58-1.26c.45-.42,1-.75,1.67-1,.67-.25,1.37-.38,2.12-.38,1.17,0,2.08.27,2.71.8.63.53.95,1.3.95,2.29,0,.7-.17,1.38-.51,2.02-.34.65-.85,1.31-1.54,1.99l-3.34,3.38v-.45h5.86v1.39h-7.47Z"/>
          <path class="cls-3" d="m685.35,166.38c-1.4,0-2.47-.49-3.22-1.46s-1.13-2.33-1.13-4.08c0-1.3.19-2.4.58-3.29.38-.89.93-1.57,1.64-2.04.71-.47,1.57-.7,2.57-.7.6,0,1.19.11,1.79.34.6.23,1.1.55,1.5.97l-.59,1.25c-.39-.38-.83-.67-1.3-.86-.47-.19-.94-.29-1.42-.29-1.04,0-1.82.36-2.37,1.08-.54.72-.82,1.79-.82,3.22v1.36h-.16c.08-.58.26-1.07.54-1.5.29-.42.66-.74,1.12-.97.46-.22.97-.34,1.54-.34.67,0,1.27.15,1.78.46.52.31.92.73,1.22,1.27s.45,1.15.45,1.85-.16,1.35-.48,1.92c-.32.57-.76,1.01-1.32,1.32-.56.31-1.2.47-1.93.47Zm-.1-1.34c.45,0,.84-.1,1.18-.29.34-.19.6-.46.79-.81.19-.35.29-.75.29-1.21s-.1-.86-.29-1.2c-.19-.34-.46-.61-.79-.81-.34-.2-.73-.3-1.18-.3s-.84.1-1.18.3c-.34.2-.61.47-.8.81-.19.34-.29.74-.29,1.2s.1.86.29,1.21c.19.35.46.62.8.81.34.19.74.29,1.18.29Z"/>
          <path class="cls-3" d="m694.95,166.38c-1.4,0-2.47-.49-3.22-1.46s-1.13-2.33-1.13-4.08c0-1.3.19-2.4.58-3.29.38-.89.93-1.57,1.64-2.04.71-.47,1.57-.7,2.57-.7.6,0,1.19.11,1.79.34.6.23,1.1.55,1.5.97l-.59,1.25c-.39-.38-.83-.67-1.3-.86-.47-.19-.94-.29-1.42-.29-1.04,0-1.82.36-2.37,1.08-.54.72-.82,1.79-.82,3.22v1.36h-.16c.08-.58.26-1.07.54-1.5.29-.42.66-.74,1.12-.97.46-.22.97-.34,1.54-.34.67,0,1.27.15,1.78.46.52.31.92.73,1.22,1.27s.45,1.15.45,1.85-.16,1.35-.48,1.92c-.32.57-.76,1.01-1.32,1.32-.56.31-1.2.47-1.93.47Zm-.1-1.34c.45,0,.84-.1,1.18-.29.34-.19.6-.46.79-.81.19-.35.29-.75.29-1.21s-.1-.86-.29-1.2c-.19-.34-.46-.61-.79-.81-.34-.2-.73-.3-1.18-.3s-.84.1-1.18.3c-.34.2-.61.47-.8.81-.19.34-.29.74-.29,1.2s.1.86.29,1.21c.19.35.46.62.8.81.34.19.74.29,1.18.29Z"/>
          <path class="cls-3" d="m704.33,166.38c-.49,0-.98-.05-1.46-.16-.48-.11-.93-.26-1.34-.46-.42-.2-.78-.43-1.09-.71l.58-1.26c.51.4,1.04.69,1.58.89.54.2,1.11.3,1.7.3.76,0,1.35-.2,1.78-.59.43-.39.65-.92.65-1.58s-.21-1.23-.62-1.66c-.41-.42-.98-.63-1.7-.63-.5,0-.96.1-1.37.3-.41.2-.77.51-1.08.93h-1.15v-6.78h6.83v1.39h-5.25v4.06h-.42c.29-.41.67-.72,1.16-.94s1.03-.34,1.64-.34c.73,0,1.35.15,1.89.45.53.3.95.71,1.24,1.25.29.53.44,1.16.44,1.89s-.16,1.36-.49,1.91-.79.98-1.39,1.29c-.6.31-1.32.46-2.14.46Z"/>
          <path class="cls-3" d="m714.52,169.69v-9.58c0-.31-.01-.63-.04-.95-.03-.33-.06-.65-.09-.98h1.57l.16,1.82h-.18c.17-.61.51-1.09,1.03-1.44.52-.35,1.13-.53,1.85-.53s1.34.17,1.87.5.95.81,1.24,1.43c.29.62.44,1.37.44,2.24s-.15,1.61-.44,2.24c-.29.63-.71,1.11-1.24,1.44s-1.16.5-1.87.5-1.31-.17-1.83-.52-.86-.82-1.03-1.42h.18v5.25h-1.62Zm3.9-4.58c.7,0,1.27-.25,1.69-.74.42-.49.63-1.22.63-2.18s-.21-1.68-.63-2.17c-.42-.48-.98-.73-1.69-.73s-1.27.24-1.69.73c-.42.49-.63,1.21-.63,2.17s.21,1.69.63,2.18c.42.49.98.74,1.69.74Z"/>
          <path class="cls-3" d="m723.87,166.23v-1.9h1.9v1.9h-1.9Z"/>
        </g>
        <g>
          <path class="cls-3" d="m21.25,205.96v-11.28h1.46l4.35,9.81h-.48l4.35-9.81h1.44v11.28h-1.5v-9.02h.53l-4.06,9.02h-1.04l-4.06-9.02h.54v9.02h-1.52Z"/>
          <path class="cls-3" d="m34.94,205.96v-8.06h1.47v6.51h-.45l4.86-6.51h1.34v8.06h-1.46v-6.53h.46l-4.9,6.53h-1.34Z"/>
          <path class="cls-3" d="m44.61,205.96v-8.06h1.6v3.28h4.08v-3.28h1.6v8.06h-1.6v-3.52h-4.08v3.52h-1.6Z"/>
          <path class="cls-3" d="m54.32,205.96v-8.06h1.47v6.51h-.45l4.86-6.51h1.34v8.06h-1.46v-6.53h.46l-4.9,6.53h-1.34Z"/>
          <path class="cls-3" d="m63.98,205.96v-8.06h1.34l2.91,5.15,2.91-5.15h1.34v8.06h-1.42v-6.26h.35l-2.8,4.96h-.77l-2.8-4.96h.35v6.26h-1.42Z"/>
          <path class="cls-3" d="m78.08,206.1c-.71,0-1.34-.17-1.87-.5s-.95-.81-1.24-1.44-.44-1.38-.44-2.24.15-1.62.44-2.24.71-1.1,1.24-1.43,1.16-.5,1.87-.5,1.32.18,1.84.53.87.83,1.04,1.44h-.18l.16-1.82h1.57c-.03.33-.06.66-.09.98-.03.33-.04.64-.04.95v6.13h-1.62v-1.79h.18c-.17.6-.52,1.07-1.05,1.42-.53.35-1.13.52-1.82.52Zm.4-1.26c.69,0,1.25-.25,1.67-.74.42-.49.63-1.22.63-2.18s-.21-1.68-.63-2.17c-.42-.48-.98-.73-1.67-.73s-1.27.24-1.69.73c-.42.49-.63,1.21-.63,2.17s.21,1.69.62,2.18.98.74,1.7.74Z"/>
          <path class="cls-3" d="m84.53,206.17l-.54-1.28c.36-.15.67-.34.92-.57.25-.23.45-.52.59-.89.14-.36.25-.81.31-1.34.06-.53.1-1.18.1-1.94v-2.26h6.08v8.06h-1.6v-6.8h-2.99v1.04c0,1.22-.1,2.22-.29,3.02-.19.8-.5,1.43-.92,1.9-.42.46-.97.81-1.66,1.05Z"/>
          <path class="cls-3" d="m94.41,205.96v-8.06h1.6v2.82h2.29c1.06,0,1.85.22,2.38.66.53.44.8,1.09.8,1.93,0,.54-.12,1.02-.37,1.42-.25.4-.61.71-1.08.92s-1.05.32-1.74.32h-3.89Zm1.6-1.1h2.11c.6,0,1.06-.13,1.38-.38.32-.25.48-.64.48-1.16s-.16-.9-.47-1.14c-.31-.24-.78-.36-1.38-.36h-2.11v3.04Z"/>
          <path class="cls-3" d="m103.31,205.96v-8.06h1.6v3.28h4.08v-3.28h1.6v8.06h-1.6v-3.52h-4.08v3.52h-1.6Z"/>
          <path class="cls-3" d="m116.17,206.1c-.71,0-1.34-.17-1.87-.5s-.95-.81-1.24-1.44-.44-1.38-.44-2.24.15-1.62.44-2.24.71-1.1,1.24-1.43,1.16-.5,1.87-.5,1.32.18,1.84.53.87.83,1.04,1.44h-.18l.16-1.82h1.57c-.03.33-.06.66-.09.98-.03.33-.04.64-.04.95v6.13h-1.62v-1.79h.18c-.17.6-.52,1.07-1.05,1.42-.53.35-1.13.52-1.82.52Zm.4-1.26c.69,0,1.25-.25,1.67-.74.42-.49.63-1.22.63-2.18s-.21-1.68-.63-2.17c-.42-.48-.98-.73-1.67-.73s-1.27.24-1.69.73c-.42.49-.63,1.21-.63,2.17s.21,1.69.62,2.18.98.74,1.7.74Z"/>
          <path class="cls-3" d="m122.3,205.96l1.26-2.18c.2-.35.46-.64.78-.86.31-.22.64-.33.97-.33h.29l-.02.16c-.92,0-1.63-.21-2.14-.62-.51-.42-.77-1.01-.77-1.79s.26-1.38.77-1.81c.51-.43,1.26-.64,2.26-.64h3.78v8.06h-1.49v-2.99h-1.07c-.41,0-.75.1-1.03.3-.28.2-.51.47-.7.8l-1.09,1.89h-1.79Zm3.68-4.08h2v-2.9h-2c-.6,0-1.04.13-1.34.38-.29.26-.44.61-.44,1.06,0,.47.15.83.44,1.08.29.25.74.38,1.34.38Z"/>
          <path class="cls-3" d="m139.77,206.1c-.81,0-1.52-.17-2.12-.5-.6-.34-1.07-.82-1.39-1.46s-.49-1.39-.49-2.26.17-1.6.5-2.22c.33-.62.79-1.09,1.39-1.42.6-.33,1.3-.49,2.11-.49.52,0,1.03.09,1.52.26.49.18.9.42,1.22.74l-.53,1.14c-.3-.29-.63-.5-1.01-.65-.37-.14-.74-.22-1.09-.22-.77,0-1.37.25-1.81.74s-.66,1.2-.66,2.13.22,1.66.66,2.16,1.04.75,1.81.75c.34,0,.7-.07,1.07-.2.37-.13.71-.35,1.02-.65l.53,1.14c-.33.32-.74.57-1.24.74-.5.18-.99.26-1.5.26Z"/>
          <path class="cls-3" d="m146.08,205.96v-6.77h-2.85v-1.3h7.31v1.3h-2.86v6.77h-1.6Z"/>
          <path class="cls-3" d="m155.31,206.1c-.8,0-1.49-.17-2.08-.5-.59-.34-1.04-.82-1.36-1.44s-.48-1.37-.48-2.23.16-1.61.48-2.23.77-1.1,1.36-1.44c.59-.34,1.28-.5,2.08-.5s1.5.17,2.09.5,1.05.82,1.38,1.44c.33.62.49,1.37.49,2.23s-.16,1.61-.49,2.23c-.33.62-.78,1.1-1.38,1.44s-1.29.5-2.09.5Zm0-1.26c.7,0,1.26-.25,1.68-.74s.62-1.22.62-2.18-.21-1.68-.62-2.17c-.42-.48-.98-.73-1.68-.73s-1.25.24-1.66.73c-.42.49-.62,1.21-.62,2.17s.21,1.69.62,2.18c.41.49.97.74,1.67.74Z"/>
          <path class="cls-3" d="m161.26,205.96v-8.06h1.47v6.51h-.45l4.86-6.51h1.34v8.06h-1.46v-6.53h.46l-4.9,6.53h-1.34Z"/>
          <path class="cls-3" d="m170.92,205.96v-8.06h1.34l2.91,5.15,2.91-5.15h1.34v8.06h-1.42v-6.26h.35l-2.8,4.96h-.77l-2.8-4.96h.35v6.26h-1.42Z"/>
          <path class="cls-3" d="m185.39,206.1c-.8,0-1.49-.17-2.08-.5-.59-.34-1.04-.82-1.36-1.44s-.48-1.37-.48-2.23.16-1.61.48-2.23.77-1.1,1.36-1.44c.59-.34,1.28-.5,2.08-.5s1.5.17,2.09.5,1.05.82,1.38,1.44c.33.62.49,1.37.49,2.23s-.16,1.61-.49,2.23c-.33.62-.78,1.1-1.38,1.44s-1.29.5-2.09.5Zm0-1.26c.7,0,1.26-.25,1.68-.74s.62-1.22.62-2.18-.21-1.68-.62-2.17c-.42-.48-.98-.73-1.68-.73s-1.25.24-1.66.73c-.42.49-.62,1.21-.62,2.17s.21,1.69.62,2.18c.41.49.97.74,1.67.74Z"/>
          <path class="cls-3" d="m194.94,206.1c-.81,0-1.52-.17-2.12-.5-.6-.34-1.07-.82-1.39-1.46s-.49-1.39-.49-2.26.17-1.6.5-2.22c.33-.62.79-1.09,1.39-1.42.6-.33,1.3-.49,2.11-.49.52,0,1.03.09,1.52.26.49.18.9.42,1.22.74l-.53,1.14c-.3-.29-.63-.5-1.01-.65-.37-.14-.74-.22-1.09-.22-.77,0-1.37.25-1.81.74s-.66,1.2-.66,2.13.22,1.66.66,2.16,1.04.75,1.81.75c.34,0,.7-.07,1.07-.2.37-.13.71-.35,1.02-.65l.53,1.14c-.33.32-.74.57-1.24.74-.5.18-.99.26-1.5.26Z"/>
          <path class="cls-3" d="m201.24,205.96v-6.77h-2.85v-1.3h7.31v1.3h-2.86v6.77h-1.6Z"/>
          <path class="cls-3" d="m207,205.96v-8.06h1.6v2.82h2.29c1.06,0,1.85.22,2.38.66.53.44.8,1.09.8,1.93,0,.54-.12,1.02-.37,1.42-.25.4-.61.71-1.08.92s-1.05.32-1.74.32h-3.89Zm1.6-1.1h2.11c.6,0,1.06-.13,1.38-.38.32-.25.48-.64.48-1.16s-.16-.9-.47-1.14c-.31-.24-.78-.36-1.38-.36h-2.11v3.04Z"/>
          <path class="cls-3" d="m220.17,205.96v-8.06h7.23v8.06h-1.6v-6.8h-4.03v6.8h-1.6Z"/>
          <path class="cls-3" d="m229.5,206.17l-.54-1.28c.36-.15.67-.34.92-.57.25-.23.45-.52.59-.89.14-.36.25-.81.31-1.34.06-.53.1-1.18.1-1.94v-2.26h6.08v8.06h-1.6v-6.8h-2.99v1.04c0,1.22-.1,2.22-.29,3.02-.19.8-.5,1.43-.92,1.9-.42.46-.97.81-1.66,1.05Z"/>
          <path class="cls-3" d="m242.91,206.1c-.8,0-1.49-.17-2.08-.5-.59-.34-1.04-.82-1.36-1.44s-.48-1.37-.48-2.23.16-1.61.48-2.23.77-1.1,1.36-1.44c.59-.34,1.28-.5,2.08-.5s1.5.17,2.09.5,1.05.82,1.38,1.44c.33.62.49,1.37.49,2.23s-.16,1.61-.49,2.23c-.33.62-.78,1.1-1.38,1.44s-1.29.5-2.09.5Zm0-1.26c.7,0,1.26-.25,1.68-.74s.62-1.22.62-2.18-.21-1.68-.62-2.17c-.42-.48-.98-.73-1.68-.73s-1.25.24-1.66.73c-.42.49-.62,1.21-.62,2.17s.21,1.69.62,2.18c.41.49.97.74,1.67.74Z"/>
          <path class="cls-3" d="m250.59,205.96v-6.77h-2.85v-1.3h7.31v1.3h-2.86v6.77h-1.6Z"/>
          <path class="cls-3" d="m258.25,205.96v-6.77h-2.85v-1.3h7.31v1.3h-2.86v6.77h-1.6Z"/>
          <path class="cls-3" d="m267.75,206.1c-1.3,0-2.33-.37-3.07-1.1-.75-.74-1.12-1.75-1.12-3.06,0-.84.16-1.58.49-2.21.33-.63.78-1.12,1.36-1.46.58-.35,1.26-.52,2.02-.52s1.39.16,1.9.48.9.77,1.17,1.35c.27.58.4,1.27.4,2.06v.51h-6.08v-.93h4.98l-.27.21c0-.8-.18-1.42-.54-1.86-.36-.44-.87-.66-1.54-.66-.75,0-1.32.26-1.73.78-.41.52-.61,1.23-.61,2.14v.16c0,.95.23,1.66.7,2.14.46.48,1.12.72,1.98.72.47,0,.91-.07,1.32-.2.41-.13.8-.35,1.18-.66l.53,1.1c-.37.33-.83.58-1.36.76-.53.18-1.1.26-1.7.26Z"/>
          <path class="cls-3" d="m272.96,209.42v-9.58c0-.31-.01-.63-.04-.95-.03-.33-.06-.65-.09-.98h1.57l.16,1.82h-.18c.17-.61.51-1.09,1.03-1.44.52-.35,1.13-.53,1.85-.53s1.34.17,1.87.5.95.81,1.24,1.43c.29.62.44,1.37.44,2.24s-.15,1.61-.44,2.24c-.29.63-.71,1.11-1.24,1.44s-1.16.5-1.87.5-1.31-.17-1.83-.52-.86-.82-1.03-1.42h.18v5.25h-1.62Zm3.9-4.58c.7,0,1.27-.25,1.69-.74.42-.49.63-1.22.63-2.18s-.21-1.68-.63-2.17c-.42-.48-.98-.73-1.69-.73s-1.27.24-1.69.73c-.42.49-.63,1.21-.63,2.17s.21,1.69.63,2.18c.42.49.98.74,1.69.74Z"/>
          <path class="cls-3" d="m282.83,205.96v-8.06h1.6v3.28h4.08v-3.28h1.6v8.06h-1.6v-3.52h-4.08v3.52h-1.6Z"/>
          <path class="cls-3" d="m296.06,206.1c-.8,0-1.49-.17-2.08-.5-.59-.34-1.04-.82-1.36-1.44s-.48-1.37-.48-2.23.16-1.61.48-2.23.77-1.1,1.36-1.44c.59-.34,1.28-.5,2.08-.5s1.5.17,2.09.5,1.05.82,1.38,1.44c.33.62.49,1.37.49,2.23s-.16,1.61-.49,2.23c-.33.62-.78,1.1-1.38,1.44s-1.29.5-2.09.5Zm0-1.26c.7,0,1.26-.25,1.68-.74s.62-1.22.62-2.18-.21-1.68-.62-2.17c-.42-.48-.98-.73-1.68-.73s-1.25.24-1.66.73c-.42.49-.62,1.21-.62,2.17s.21,1.69.62,2.18c.41.49.97.74,1.67.74Z"/>
          <path class="cls-3" d="m302.01,205.96v-8.06h1.47v6.51h-.45l4.86-6.51h1.34v8.06h-1.46v-6.53h.46l-4.9,6.53h-1.34Zm3.62-8.8c-.49,0-.93-.08-1.31-.24-.38-.16-.71-.4-.98-.71-.27-.31-.48-.7-.62-1.14l.9-.32c.18.5.44.87.77,1.11.33.24.75.36,1.25.36s.93-.11,1.26-.34.61-.6.84-1.12l.83.3c-.26.73-.64,1.26-1.14,1.59-.51.34-1.1.5-1.78.5Z"/>
          <path class="cls-3" d="m316.01,209.42v-9.58c0-.31-.01-.63-.04-.95-.03-.33-.06-.65-.09-.98h1.57l.16,1.82h-.18c.17-.61.51-1.09,1.03-1.44.52-.35,1.13-.53,1.85-.53s1.34.17,1.87.5.95.81,1.24,1.43c.29.62.44,1.37.44,2.24s-.15,1.61-.44,2.24c-.29.63-.71,1.11-1.24,1.44s-1.16.5-1.87.5-1.31-.17-1.83-.52-.86-.82-1.03-1.42h.18v5.25h-1.62Zm3.9-4.58c.7,0,1.27-.25,1.69-.74.42-.49.63-1.22.63-2.18s-.21-1.68-.63-2.17c-.42-.48-.98-.73-1.69-.73s-1.27.24-1.69.73c-.42.49-.63,1.21-.63,2.17s.21,1.69.63,2.18c.42.49.98.74,1.69.74Z"/>
          <path class="cls-3" d="m329.67,206.1c-1.3,0-2.33-.37-3.07-1.1-.75-.74-1.12-1.75-1.12-3.06,0-.84.16-1.58.49-2.21.33-.63.78-1.12,1.36-1.46.58-.35,1.26-.52,2.02-.52s1.39.16,1.9.48.9.77,1.17,1.35c.27.58.4,1.27.4,2.06v.51h-6.08v-.93h4.98l-.27.21c0-.8-.18-1.42-.54-1.86-.36-.44-.87-.66-1.54-.66-.75,0-1.32.26-1.73.78-.41.52-.61,1.23-.61,2.14v.16c0,.95.23,1.66.7,2.14.46.48,1.12.72,1.98.72.47,0,.91-.07,1.32-.2.41-.13.8-.35,1.18-.66l.53,1.1c-.37.33-.83.58-1.36.76-.53.18-1.1.26-1.7.26Z"/>
          <path class="cls-3" d="m337.61,206.1c-.7,0-1.37-.09-1.98-.26-.62-.18-1.13-.43-1.52-.76l.5-1.09c.39.31.85.54,1.36.7.51.15,1.06.23,1.65.23.74,0,1.27-.11,1.61-.33.34-.22.5-.53.5-.94s-.14-.69-.42-.9c-.28-.2-.68-.3-1.22-.3h-1.98v-1.15h1.82c.48,0,.85-.1,1.12-.3s.4-.49.4-.85c0-.38-.16-.68-.46-.9s-.79-.32-1.44-.32c-.55,0-1.06.07-1.52.21-.46.14-.9.35-1.31.62l-.48-1.04c.44-.33.96-.58,1.55-.74.6-.16,1.24-.24,1.94-.24,1.04,0,1.84.19,2.38.58.54.39.82.95.82,1.67,0,.5-.17.93-.5,1.28s-.79.57-1.35.64v-.21c.65.03,1.17.23,1.56.58.39.36.58.83.58,1.42,0,.73-.31,1.3-.92,1.74-.61.43-1.51.65-2.68.65Z"/>
          <path class="cls-3" d="m343.1,205.96v-8.06h1.6v3.3h1.39l2.51-3.3h1.76l-3.01,3.97-.4-.51c.31.03.58.11.8.23s.44.3.66.54c.21.23.43.54.66.93l1.68,2.91h-1.73l-1.44-2.46c-.16-.28-.32-.49-.46-.65-.15-.15-.32-.26-.51-.32-.19-.06-.43-.09-.7-.09h-1.2v3.52h-1.6Z"/>
          <path class="cls-3" d="m351.93,205.96v-8.06h1.47v6.51h-.45l4.86-6.51h1.34v8.06h-1.46v-6.53h.46l-4.9,6.53h-1.34Z"/>
          <path class="cls-3" d="m365.77,202.22v-1.3h4.69v1.3h-4.69Z"/>
          <path class="cls-3" d="m380.54,206.1c-.77,0-1.5-.11-2.21-.34-.7-.23-1.29-.56-1.76-.98l.58-1.26c.52.41,1.06.7,1.6.9.54.19,1.12.29,1.74.29.79,0,1.39-.17,1.8-.5.41-.33.62-.81.62-1.42s-.21-1.07-.62-1.38c-.41-.31-1.02-.47-1.82-.47h-1.74v-1.34h1.62c.68,0,1.23-.17,1.63-.52s.61-.82.61-1.42c0-.54-.19-.96-.56-1.26-.37-.29-.91-.44-1.6-.44-1.17,0-2.2.41-3.09,1.23l-.56-1.26c.44-.44.99-.78,1.66-1.02.67-.24,1.38-.36,2.11-.36,1.13,0,2.02.26,2.67.78.65.52.98,1.23.98,2.15,0,.69-.19,1.29-.58,1.78-.39.49-.92.82-1.59.98v-.18c.8.13,1.42.45,1.85.95.43.51.65,1.14.65,1.9,0,1-.35,1.79-1.06,2.36-.71.57-1.68.86-2.92.86Z"/>
          <path class="cls-3" d="m390.25,206.1c-1.3,0-2.3-.5-3-1.5-.7-1-1.05-2.43-1.05-4.3s.35-3.34,1.05-4.31,1.7-1.46,3-1.46,2.31.49,3.01,1.46,1.04,2.41,1.04,4.3-.35,3.31-1.05,4.31c-.7,1-1.7,1.5-3,1.5Zm0-1.39c.82,0,1.43-.36,1.83-1.07.4-.71.6-1.83.6-3.34s-.2-2.64-.6-3.34c-.4-.7-1.01-1.05-1.83-1.05s-1.42.35-1.82,1.05-.61,1.81-.61,3.32.21,2.65.62,3.36c.41.71,1.02,1.07,1.82,1.07Z"/>
          <path class="cls-3" d="m399.85,206.1c-1.3,0-2.3-.5-3-1.5-.7-1-1.05-2.43-1.05-4.3s.35-3.34,1.05-4.31,1.7-1.46,3-1.46,2.31.49,3.01,1.46,1.04,2.41,1.04,4.3-.35,3.31-1.05,4.31c-.7,1-1.7,1.5-3,1.5Zm0-1.39c.82,0,1.43-.36,1.83-1.07.4-.71.6-1.83.6-3.34s-.2-2.64-.6-3.34c-.4-.7-1.01-1.05-1.83-1.05s-1.42.35-1.82,1.05-.61,1.81-.61,3.32.21,2.65.62,3.36c.41.71,1.02,1.07,1.82,1.07Z"/>
          <path class="cls-3" d="m410.2,209.42v-9.58c0-.31-.01-.63-.04-.95-.03-.33-.06-.65-.09-.98h1.57l.16,1.82h-.18c.17-.61.51-1.09,1.03-1.44.52-.35,1.13-.53,1.85-.53s1.34.17,1.87.5.95.81,1.24,1.43c.29.62.44,1.37.44,2.24s-.15,1.61-.44,2.24c-.29.63-.71,1.11-1.24,1.44s-1.16.5-1.87.5-1.31-.17-1.83-.52-.86-.82-1.03-1.42h.18v5.25h-1.62Zm3.9-4.58c.7,0,1.27-.25,1.69-.74.42-.49.63-1.22.63-2.18s-.21-1.68-.63-2.17c-.42-.48-.98-.73-1.69-.73s-1.27.24-1.69.73c-.42.49-.63,1.21-.63,2.17s.21,1.69.63,2.18c.42.49.98.74,1.69.74Z"/>
          <path class="cls-3" d="m419.78,209.59l-.38-1.31c.5-.11.92-.23,1.26-.38s.62-.34.84-.58c.22-.24.42-.55.58-.92l.4-.94-.03.66-3.5-8.21h1.73l2.72,6.72h-.43l2.72-6.72h1.66l-3.7,8.64c-.24.53-.49.98-.75,1.34s-.55.66-.86.88c-.31.22-.65.4-1.02.53s-.78.23-1.22.3Z"/>
          <path class="cls-3" d="m432.31,206.1c-1.22,0-2.18-.38-2.9-1.14-.72-.76-1.08-1.87-1.08-3.34v-1.39c0-1.5.32-2.71.97-3.63s1.65-1.54,3-1.86l2.94-.7.46,1.3-3.3.77c-.58.13-1.05.37-1.42.72-.37.35-.65.77-.84,1.25s-.28.99-.28,1.54v.74h-.24c.13-.49.33-.91.62-1.26.28-.35.63-.62,1.06-.82.42-.2.89-.3,1.42-.3.69,0,1.3.16,1.82.48.52.32.93.78,1.22,1.38.29.6.44,1.31.44,2.14s-.16,1.59-.48,2.21-.77,1.09-1.35,1.42c-.58.33-1.27.5-2.06.5Zm-.05-1.25c.73,0,1.29-.24,1.7-.71.41-.47.62-1.18.62-2.1s-.21-1.62-.62-2.1-.98-.72-1.7-.72-1.28.24-1.7.71-.62,1.15-.62,2.02c0,.96.21,1.68.62,2.17.41.49.98.73,1.7.73Z"/>
          <path class="cls-3" d="m437.69,205.96v-1.9h1.9v1.9h-1.9Z"/>
        </g>
        <g>
          <path class="cls-3" d="m844.46,120.62l-7.87-3.33v-1.52l7.87-3.31v1.55l-7.26,3.02v-.99l7.26,3.02v1.55Z"/>
          <path class="cls-3" d="m850.2,121.29c-.49,0-.98-.05-1.46-.16s-.94-.26-1.36-.45c-.42-.19-.78-.42-1.08-.69l.67-1.55c.5.37,1.02.65,1.54.84.53.19,1.08.28,1.66.28.69,0,1.23-.17,1.62-.52.39-.35.58-.81.58-1.4s-.19-1.08-.56-1.45-.89-.55-1.54-.55c-.46,0-.88.09-1.26.26-.38.18-.72.45-1.02.81h-1.36v-6.86h7.01v1.7h-5.06v3.58h-.5c.28-.37.65-.66,1.11-.86s.98-.3,1.56-.3c.73,0,1.35.15,1.89.45.53.3.95.72,1.25,1.26.3.54.45,1.17.45,1.9s-.17,1.38-.5,1.94-.82,1-1.44,1.31-1.36.47-2.22.47Z"/>
          <path class="cls-3" d="m864.22,121.29c-.83,0-1.56-.17-2.18-.51s-1.11-.83-1.45-1.46c-.34-.63-.51-1.39-.51-2.26s.17-1.62.52-2.24c.35-.62.83-1.09,1.45-1.42.62-.33,1.34-.5,2.18-.5.53,0,1.05.08,1.56.25.51.17.92.4,1.24.71l-.61,1.39c-.29-.27-.61-.47-.97-.6s-.71-.2-1.05-.2c-.71,0-1.27.22-1.67.67-.4.45-.6,1.1-.6,1.95s.2,1.51.6,1.97c.4.46.96.69,1.67.69.33,0,.67-.06,1.03-.19.36-.13.68-.33.98-.59l.61,1.38c-.33.31-.75.55-1.26.72-.51.17-1.02.26-1.54.26Z"/>
          <path class="cls-3" d="m868.73,121.13v-8.08h1.66l2.78,4.83,2.78-4.83h1.66v8.08h-1.76v-5.84h.37l-2.59,4.53h-.93l-2.59-4.53h.37v5.84h-1.76Z"/>
        </g>
        <g>
          <path class="cls-3" d="m830.5,166.23v-1.23l3.87-4.05c.5-.52.87-1.01,1.12-1.47.25-.46.37-.93.37-1.42,0-.61-.19-1.07-.57-1.38-.38-.31-.93-.46-1.64-.46-.57,0-1.1.1-1.59.3s-.97.51-1.43.93l-.58-1.26c.45-.42,1-.75,1.67-1,.67-.25,1.37-.38,2.12-.38,1.17,0,2.08.27,2.71.8.63.53.95,1.3.95,2.29,0,.7-.17,1.38-.51,2.02-.34.65-.85,1.31-1.54,1.99l-3.34,3.38v-.45h5.86v1.39h-7.47Z"/>
          <path class="cls-3" d="m843.57,166.38c-1.3,0-2.3-.5-3-1.5-.7-1-1.05-2.43-1.05-4.3s.35-3.34,1.05-4.31c.7-.98,1.7-1.46,3-1.46s2.31.49,3.01,1.46c.69.98,1.04,2.41,1.04,4.3s-.35,3.31-1.05,4.31c-.7,1-1.7,1.5-3,1.5Zm0-1.39c.82,0,1.43-.36,1.83-1.07.4-.71.6-1.83.6-3.34s-.2-2.64-.6-3.34c-.4-.7-1.01-1.05-1.83-1.05s-1.42.35-1.82,1.05c-.41.7-.61,1.81-.61,3.32s.21,2.65.62,3.36c.41.71,1.02,1.07,1.82,1.07Z"/>
          <path class="cls-3" d="m850.29,166.23v-1.39h2.62v-8.48h.83l-3.2,1.95v-1.6l2.83-1.76h1.2v9.89h2.46v1.39h-6.75Z"/>
          <path class="cls-3" d="m862.93,166.38c-.49,0-.98-.05-1.46-.16-.48-.11-.93-.26-1.34-.46-.42-.2-.78-.43-1.09-.71l.58-1.26c.51.4,1.04.69,1.58.89.54.2,1.11.3,1.7.3.76,0,1.35-.2,1.78-.59.43-.39.65-.92.65-1.58s-.21-1.23-.62-1.66c-.41-.42-.98-.63-1.7-.63-.5,0-.96.1-1.37.3-.41.2-.77.51-1.08.93h-1.15v-6.78h6.83v1.39h-5.25v4.06h-.42c.29-.41.67-.72,1.16-.94s1.03-.34,1.64-.34c.73,0,1.35.15,1.89.45.53.3.95.71,1.24,1.25.29.53.44,1.16.44,1.89s-.16,1.36-.49,1.91-.79.98-1.39,1.29c-.6.31-1.32.46-2.14.46Z"/>
          <path class="cls-3" d="m873.12,169.69v-9.58c0-.31-.01-.63-.04-.95-.03-.33-.06-.65-.09-.98h1.57l.16,1.82h-.18c.17-.61.51-1.09,1.03-1.44.52-.35,1.13-.53,1.85-.53s1.34.17,1.87.5.95.81,1.24,1.43c.29.62.44,1.37.44,2.24s-.15,1.61-.44,2.24c-.29.63-.71,1.11-1.24,1.44s-1.16.5-1.87.5-1.31-.17-1.83-.52-.86-.82-1.03-1.42h.18v5.25h-1.62Zm3.9-4.58c.7,0,1.27-.25,1.69-.74.42-.49.63-1.22.63-2.18s-.21-1.68-.63-2.17c-.42-.48-.98-.73-1.69-.73s-1.27.24-1.69.73c-.42.49-.63,1.21-.63,2.17s.21,1.69.63,2.18c.42.49.98.74,1.69.74Z"/>
          <path class="cls-3" d="m882.46,166.23v-1.9h1.9v1.9h-1.9Z"/>
        </g>
        <g>
          <path class="cls-3" d="m208.08,112.07v-1.66l.51.38h-.45c-1.12,0-2.09-.19-2.9-.58-.81-.38-1.43-.94-1.86-1.66-.43-.72-.65-1.59-.65-2.62,0-1.56.47-2.75,1.42-3.59.94-.84,2.27-1.26,3.99-1.26h.45l-.51.38v-1.57h2.05v1.57l-.51-.38h.45c1.72,0,3.05.42,4,1.26.95.84,1.42,2.03,1.42,3.59,0,1.02-.22,1.9-.66,2.62-.44.72-1.06,1.27-1.86,1.66-.81.38-1.77.58-2.9.58h-.45l.51-.38v1.66h-2.05Zm.02-2.48v-7.3l.43.35h-.59c-.94,0-1.69.27-2.26.82-.57.55-.86,1.37-.86,2.47,0,.71.13,1.32.4,1.81s.63.86,1.1,1.11c.47.25,1.01.38,1.62.38h.59l-.43.35Zm2.03,0l-.45-.35h.61c.61,0,1.15-.12,1.62-.38.47-.25.83-.62,1.1-1.11s.39-1.09.39-1.81c0-1.1-.28-1.92-.85-2.47-.57-.55-1.32-.82-2.26-.82h-.61l.45-.35v7.3Z"/>
          <path class="cls-3" d="m221.21,111.83c-.83,0-1.55-.17-2.16-.51-.61-.34-1.08-.83-1.42-1.46-.34-.63-.5-1.38-.5-2.24s.17-1.61.5-2.23.81-1.11,1.42-1.45c.61-.34,1.33-.51,2.16-.51s1.55.17,2.17.51c.61.34,1.09.82,1.42,1.45s.5,1.37.5,2.23-.17,1.61-.5,2.24c-.34.63-.81,1.11-1.42,1.46-.61.34-1.34.51-2.17.51Zm0-1.54c.63,0,1.13-.22,1.5-.66.37-.44.56-1.11.56-2.01s-.19-1.56-.56-2c-.37-.44-.88-.66-1.5-.66s-1.13.22-1.5.66c-.37.44-.56,1.1-.56,2s.19,1.57.56,2.01c.37.44.87.66,1.5.66Z"/>
          <path class="cls-3" d="m227.26,115.12v-9.52c0-.33-.01-.67-.03-1.01s-.05-.68-.1-1.01h1.94l.18,1.7h-.18c.16-.57.5-1.02,1.02-1.35.52-.34,1.12-.5,1.8-.5s1.34.17,1.87.5.95.82,1.25,1.44.45,1.37.45,2.25-.15,1.63-.45,2.26-.71,1.11-1.25,1.45c-.53.34-1.16.5-1.87.5-.67,0-1.26-.17-1.78-.5s-.85-.77-1.02-1.33h.18v5.12h-2Zm4.06-4.83c.64,0,1.15-.22,1.54-.66.38-.44.58-1.11.58-2.01s-.19-1.56-.58-2c-.38-.44-.9-.66-1.54-.66s-1.14.22-1.52.66-.58,1.1-.58,2,.19,1.57.58,2.01c.38.44.89.66,1.52.66Z"/>
          <path class="cls-3" d="m237.34,111.67v-8.08h1.66l2.78,4.83,2.79-4.83h1.66v8.08h-1.76v-5.84h.37l-2.59,4.53h-.93l-2.59-4.53h.37v5.84h-1.76Z"/>
          <path class="cls-3" d="m251.69,111.83c-.7,0-1.32-.17-1.86-.5-.53-.34-.95-.82-1.25-1.45s-.45-1.38-.45-2.26.15-1.62.45-2.25.71-1.1,1.25-1.44,1.15-.5,1.86-.5,1.28.17,1.8.5.86.79,1.03,1.35h-.18l.18-1.7h1.92c-.03.33-.06.67-.09,1.01-.03.34-.04.68-.04,1.01v6.06h-1.98l-.02-1.66h.19c-.17.55-.52,1-1.04,1.33s-1.11.5-1.78.5Zm.56-1.54c.63,0,1.14-.22,1.52-.66.38-.44.58-1.11.58-2.01s-.19-1.56-.58-2c-.38-.44-.89-.66-1.52-.66s-1.14.22-1.52.66c-.38.44-.58,1.1-.58,2s.19,1.57.57,2.01c.38.44.89.66,1.53.66Z"/>
          <path class="cls-3" d="m260.39,111.67v-6.51h-2.77v-1.57h7.54v1.57h-2.78v6.51h-1.98Z"/>
          <path class="cls-3" d="m131.52,129.55c-.5-.79-.91-1.56-1.22-2.32s-.54-1.53-.68-2.31-.21-1.6-.21-2.46.07-1.69.21-2.46.37-1.55.68-2.3c.31-.76.72-1.53,1.22-2.3h1.6c-.55,1.23-.97,2.42-1.24,3.58-.27,1.16-.41,2.32-.41,3.5s.14,2.33.41,3.49c.27,1.16.69,2.36,1.24,3.6h-1.6Z"/>
          <path class="cls-3" d="m138.35,126.83c-.83,0-1.56-.17-2.18-.51s-1.11-.83-1.45-1.46-.51-1.39-.51-2.26.17-1.62.52-2.24c.35-.62.83-1.09,1.45-1.42.62-.33,1.34-.5,2.18-.5.53,0,1.05.08,1.56.25.51.17.92.4,1.24.71l-.61,1.39c-.29-.27-.61-.47-.97-.6-.36-.13-.71-.2-1.05-.2-.71,0-1.27.22-1.67.67-.4.45-.6,1.1-.6,1.95s.2,1.51.6,1.97c.4.46.96.69,1.67.69.33,0,.67-.06,1.03-.19s.69-.33.98-.59l.61,1.38c-.33.31-.75.55-1.26.72-.51.17-1.02.26-1.54.26Z"/>
          <path class="cls-3" d="m142.92,130.12v-9.52c0-.33-.01-.67-.03-1.01s-.05-.68-.1-1.01h1.94l.18,1.7h-.18c.16-.57.5-1.02,1.02-1.35s1.12-.5,1.8-.5,1.34.17,1.87.5c.53.34.95.82,1.25,1.44s.45,1.37.45,2.25-.15,1.63-.45,2.26-.71,1.11-1.25,1.45c-.53.34-1.16.5-1.87.5-.67,0-1.26-.17-1.78-.5-.51-.33-.85-.77-1.02-1.33h.18v5.12h-2Zm4.06-4.83c.64,0,1.15-.22,1.54-.66.38-.44.58-1.11.58-2.01s-.19-1.56-.58-2-.9-.66-1.54-.66-1.14.22-1.52.66c-.38.44-.58,1.1-.58,2s.19,1.57.58,2.01c.38.44.89.66,1.52.66Z"/>
          <path class="cls-3" d="m156.97,126.83c-1.36,0-2.42-.37-3.18-1.12-.77-.75-1.15-1.77-1.15-3.07,0-.84.17-1.58.5-2.21.33-.63.79-1.12,1.38-1.47.59-.35,1.28-.53,2.07-.53s1.43.17,1.95.5c.52.33.92.79,1.19,1.39.27.6.41,1.3.41,2.1v.53h-5.89v-1.06h4.46l-.27.22c0-.75-.16-1.32-.47-1.71s-.77-.59-1.37-.59c-.66,0-1.17.23-1.53.7-.36.47-.54,1.13-.54,1.97v.21c0,.87.22,1.53.65,1.96.43.43,1.04.65,1.83.65.46,0,.89-.06,1.29-.18.4-.12.78-.32,1.14-.6l.59,1.34c-.38.31-.84.55-1.38.72-.53.17-1.1.26-1.7.26Z"/>
          <path class="cls-3" d="m161.28,128.75v-3.6h.93c.32-.5.55-1.09.7-1.77.14-.68.22-1.51.22-2.49v-2.3h6.22v6.56h1.31v3.6h-1.7v-2.08h-5.98v2.08h-1.7Zm2.72-3.58h3.47v-5.07h-2.66v1.25c0,.71-.07,1.41-.21,2.1-.14.68-.34,1.26-.61,1.73Z"/>
          <path class="cls-3" d="m172.12,126.67v-8.08h1.98v3.17h3.65v-3.17h1.98v8.08h-1.98v-3.38h-3.65v3.38h-1.98Z"/>
          <path class="cls-3" d="m181.34,126.67l1.23-2.13c.21-.36.48-.65.79-.87.32-.22.64-.33.98-.33h.35l-.02.18c-.95,0-1.68-.21-2.19-.62s-.77-1.02-.77-1.82.26-1.4.79-1.83c.53-.43,1.3-.65,2.33-.65h4.02v8.08h-1.82v-2.85h-.91c-.33,0-.62.09-.87.27-.25.18-.46.42-.63.7l-1.06,1.87h-2.22Zm3.89-4.14h1.81v-2.64h-1.81c-.54,0-.95.12-1.22.35-.27.23-.41.55-.41.96,0,.43.14.75.41.98.27.23.68.34,1.22.34Z"/>
          <path class="cls-3" d="m190.46,126.67l1.23-2.13c.21-.36.48-.65.79-.87.31-.22.64-.33.98-.33h.35l-.02.18c-.95,0-1.68-.21-2.19-.62-.51-.42-.77-1.02-.77-1.82s.26-1.4.79-1.83c.53-.43,1.3-.65,2.33-.65h4.02v8.08h-1.82v-2.85h-.91c-.33,0-.62.09-.87.27-.25.18-.46.42-.63.7l-1.06,1.87h-2.22Zm3.89-4.14h1.81v-2.64h-1.81c-.54,0-.95.12-1.22.35-.27.23-.41.55-.41.96,0,.43.13.75.41.98s.68.34,1.22.34Z"/>
          <path class="cls-3" d="m204.64,126.67v-8.08h4.3c1.01,0,1.75.18,2.22.55.47.37.7.89.7,1.56,0,.51-.17.94-.51,1.28-.34.34-.79.55-1.36.64v-.22c.69.04,1.23.25,1.6.61.37.36.56.83.56,1.41,0,.69-.27,1.24-.8,1.65s-1.29.61-2.27.61h-4.45Zm1.86-4.74h2.21c.43,0,.76-.09.99-.28.23-.19.35-.45.35-.79s-.12-.6-.35-.78c-.23-.18-.56-.27-.99-.27h-2.21v2.13Zm0,3.5h2.38c.47,0,.83-.1,1.08-.29s.38-.47.38-.85-.12-.66-.38-.85c-.25-.19-.61-.29-1.08-.29h-2.38v2.27Z"/>
          <path class="cls-3" d="m213.9,126.67v-8.08h1.98v2.7h2.13c1.08,0,1.89.23,2.43.68.54.45.82,1.11.82,1.96,0,.55-.13,1.04-.38,1.45-.26.41-.63.73-1.11.95s-1.07.34-1.75.34h-4.11Zm1.98-1.31h1.86c.54,0,.96-.11,1.25-.34.29-.23.43-.58.43-1.05s-.14-.81-.42-1.03c-.28-.22-.7-.33-1.26-.33h-1.86v2.75Zm6.38,1.31v-8.08h1.98v8.08h-1.98Z"/>
          <path class="cls-3" d="m230.3,126.83c-.83,0-1.56-.17-2.18-.51-.62-.34-1.11-.83-1.45-1.46-.34-.63-.51-1.39-.51-2.26s.17-1.62.52-2.24c.35-.62.83-1.09,1.45-1.42.62-.33,1.34-.5,2.18-.5.53,0,1.05.08,1.56.25.51.17.92.4,1.24.71l-.61,1.39c-.29-.27-.61-.47-.97-.6s-.71-.2-1.05-.2c-.71,0-1.27.22-1.67.67-.4.45-.6,1.1-.6,1.95s.2,1.51.6,1.97c.4.46.96.69,1.67.69.33,0,.67-.06,1.03-.19s.69-.33.98-.59l.61,1.38c-.33.31-.75.55-1.26.72-.51.17-1.02.26-1.54.26Z"/>
          <path class="cls-3" d="m238.52,126.83c-.83,0-1.55-.17-2.16-.51-.61-.34-1.08-.83-1.42-1.46-.34-.63-.5-1.38-.5-2.24s.17-1.61.5-2.23.81-1.11,1.42-1.45c.61-.34,1.33-.51,2.16-.51s1.55.17,2.17.51,1.09.82,1.42,1.45.5,1.37.5,2.23-.17,1.61-.5,2.24c-.34.63-.81,1.11-1.42,1.46s-1.34.51-2.17.51Zm0-1.54c.63,0,1.13-.22,1.5-.66.37-.44.56-1.11.56-2.01s-.19-1.56-.56-2-.88-.66-1.5-.66-1.13.22-1.5.66-.56,1.1-.56,2,.19,1.57.56,2.01c.37.44.88.66,1.5.66Z"/>
          <path class="cls-3" d="m246.25,126.67v-6.51h-2.77v-1.57h7.54v1.57h-2.78v6.51h-1.98Z"/>
          <path class="cls-3" d="m255.44,126.83c-.7,0-1.32-.17-1.86-.5-.53-.34-.95-.82-1.25-1.45s-.45-1.38-.45-2.26.15-1.62.45-2.25.71-1.1,1.25-1.44,1.15-.5,1.86-.5,1.28.17,1.8.5.86.79,1.03,1.35h-.18l.18-1.7h1.92c-.03.33-.06.67-.09,1.01-.03.34-.04.68-.04,1.01v6.06h-1.98l-.02-1.66h.19c-.17.55-.52,1-1.04,1.33s-1.11.5-1.78.5Zm.56-1.54c.63,0,1.14-.22,1.52-.66.38-.44.58-1.11.58-2.01s-.19-1.56-.58-2c-.38-.44-.89-.66-1.52-.66s-1.14.22-1.52.66c-.38.44-.58,1.1-.58,2s.19,1.57.57,2.01c.38.44.89.66,1.53.66Z"/>
          <path class="cls-3" d="m270.55,126.83c-.83,0-1.56-.17-2.18-.51s-1.11-.83-1.45-1.46c-.34-.63-.51-1.39-.51-2.26s.17-1.62.52-2.24.83-1.09,1.45-1.42c.62-.33,1.34-.5,2.18-.5.53,0,1.05.08,1.56.25.51.17.92.4,1.24.71l-.61,1.39c-.29-.27-.61-.47-.97-.6s-.71-.2-1.05-.2c-.71,0-1.27.22-1.67.67-.4.45-.6,1.1-.6,1.95s.2,1.51.6,1.97c.4.46.96.69,1.67.69.33,0,.67-.06,1.03-.19s.69-.33.98-.59l.61,1.38c-.33.31-.75.55-1.26.72-.51.17-1.02.26-1.54.26Z"/>
          <path class="cls-3" d="m275.07,126.67v-8.08h1.81v6.11h-.48l4.59-6.11h1.65v8.08h-1.81v-6.13h.5l-4.61,6.13h-1.65Z"/>
          <path class="cls-3" d="m284.91,126.67v-8.08h1.66l2.78,4.83,2.78-4.83h1.66v8.08h-1.76v-5.84h.37l-2.59,4.53h-.93l-2.59-4.53h.37v5.84h-1.76Z"/>
          <path class="cls-3" d="m296.07,126.67v-8.08h4.3c1.01,0,1.75.18,2.22.55.47.37.7.89.7,1.56,0,.51-.17.94-.51,1.28-.34.34-.79.55-1.36.64v-.22c.69.04,1.23.25,1.6.61.37.36.56.83.56,1.41,0,.69-.27,1.24-.8,1.65-.53.41-1.29.61-2.27.61h-4.45Zm1.86-4.74h2.21c.43,0,.76-.09.99-.28.23-.19.35-.45.35-.79s-.12-.6-.35-.78c-.24-.18-.57-.27-.99-.27h-2.21v2.13Zm0,3.5h2.38c.47,0,.83-.1,1.08-.29.25-.19.38-.47.38-.85s-.13-.66-.38-.85c-.25-.19-.61-.29-1.08-.29h-2.38v2.27Z"/>
          <path class="cls-3" d="m309.05,126.83c-.83,0-1.55-.17-2.16-.51-.61-.34-1.08-.83-1.42-1.46-.34-.63-.5-1.38-.5-2.24s.17-1.61.5-2.23c.34-.62.81-1.11,1.42-1.45.61-.34,1.33-.51,2.16-.51s1.55.17,2.17.51,1.09.82,1.42,1.45c.34.62.5,1.37.5,2.23s-.17,1.61-.5,2.24c-.34.63-.81,1.11-1.42,1.46s-1.34.51-2.17.51Zm0-1.54c.63,0,1.13-.22,1.5-.66.37-.44.56-1.11.56-2.01s-.19-1.56-.56-2c-.37-.44-.87-.66-1.5-.66s-1.13.22-1.5.66-.56,1.1-.56,2,.19,1.57.56,2.01c.37.44.88.66,1.5.66Z"/>
          <path class="cls-3" d="m314.67,126.89l-.62-1.57c.35-.13.65-.3.89-.5.24-.21.43-.47.58-.8.14-.33.25-.73.31-1.22.06-.49.1-1.06.1-1.74v-2.48h6.43v8.08h-1.98v-6.54h-2.62v1.01c0,1.16-.11,2.14-.32,2.92-.21.78-.54,1.41-.99,1.86-.45.46-1.04.78-1.76.98Z"/>
          <path class="cls-3" d="m327.8,126.83c-.7,0-1.32-.17-1.86-.5-.53-.34-.95-.82-1.25-1.45s-.45-1.38-.45-2.26.15-1.62.45-2.25.71-1.1,1.25-1.44,1.15-.5,1.86-.5,1.28.17,1.8.5.86.79,1.03,1.35h-.18l.18-1.7h1.92c-.03.33-.06.67-.09,1.01-.03.34-.04.68-.04,1.01v6.06h-1.98l-.02-1.66h.19c-.17.55-.52,1-1.04,1.33s-1.11.5-1.78.5Zm.56-1.54c.63,0,1.14-.22,1.52-.66.38-.44.58-1.11.58-2.01s-.19-1.56-.58-2c-.38-.44-.89-.66-1.52-.66s-1.14.22-1.52.66c-.38.44-.58,1.1-.58,2s.19,1.57.57,2.01c.38.44.89.66,1.53.66Z"/>
          <path class="cls-3" d="m335.59,129.55h-1.6c.55-1.23.97-2.42,1.24-3.59.27-1.17.41-2.33.41-3.5s-.14-2.33-.41-3.49c-.27-1.16-.69-2.36-1.24-3.58h1.6c.51.78.92,1.55,1.23,2.3.31.76.53,1.53.67,2.31s.21,1.6.21,2.46-.07,1.67-.21,2.46c-.14.79-.36,1.56-.67,2.32-.31.76-.72,1.52-1.23,2.3Z"/>
        </g>
        <g>
          <path class="cls-3" d="m194.36,169.87v-2.64h-9.71v-11.28h2.03v9.58h5.79v-9.58h2.05v9.58h1.65v4.34h-1.81Z"/>
          <path class="cls-3" d="m201.65,167.39c-1.36,0-2.42-.37-3.18-1.12s-1.15-1.77-1.15-3.07c0-.84.16-1.58.5-2.21.33-.63.79-1.12,1.38-1.47.59-.35,1.28-.53,2.07-.53s1.43.17,1.95.5c.52.33.92.79,1.19,1.39.27.6.41,1.3.41,2.1v.53h-5.89v-1.06h4.46l-.27.22c0-.75-.16-1.32-.47-1.71-.32-.39-.77-.59-1.37-.59-.66,0-1.17.23-1.53.7-.36.47-.54,1.13-.54,1.97v.21c0,.87.22,1.53.65,1.96.43.43,1.04.65,1.83.65.46,0,.89-.06,1.29-.18.4-.12.78-.32,1.14-.6l.59,1.34c-.38.31-.84.55-1.38.72-.53.17-1.1.26-1.7.26Z"/>
          <path class="cls-3" d="m206.67,167.23v-8.08h1.98v3.17h3.65v-3.17h1.98v8.08h-1.98v-3.38h-3.65v3.38h-1.98Z"/>
          <path class="cls-3" d="m219.74,167.39c-.7,0-1.32-.17-1.86-.5-.53-.34-.95-.82-1.25-1.45-.3-.63-.45-1.38-.45-2.26s.15-1.62.45-2.25c.3-.62.71-1.1,1.25-1.44s1.15-.5,1.86-.5,1.28.17,1.8.5c.52.34.86.79,1.03,1.35h-.18l.18-1.7h1.92c-.03.33-.06.67-.09,1.01-.03.34-.04.68-.04,1.01v6.06h-1.98l-.02-1.66h.19c-.17.55-.52,1-1.04,1.33-.52.33-1.11.5-1.78.5Zm.56-1.54c.63,0,1.14-.22,1.52-.66.38-.44.58-1.11.58-2.01s-.19-1.56-.58-2c-.38-.44-.89-.66-1.52-.66s-1.14.22-1.52.66c-.38.44-.58,1.1-.58,2s.19,1.57.57,2.01c.38.44.89.66,1.53.66Z"/>
          <path class="cls-3" d="m234.06,167.39c-.72,0-1.4-.09-2.04-.26-.63-.17-1.17-.42-1.59-.74l.56-1.31c.39.29.86.51,1.38.66.53.15,1.09.22,1.67.22.68,0,1.18-.09,1.5-.28s.47-.46.47-.82c0-.34-.12-.6-.37-.78-.24-.18-.61-.26-1.09-.26h-2.1v-1.38h1.9c.44,0,.77-.08,1.01-.26.23-.17.35-.41.35-.72,0-.33-.14-.59-.42-.78-.28-.19-.74-.29-1.38-.29-.55,0-1.06.07-1.52.2-.46.13-.89.33-1.3.58l-.54-1.25c.44-.31.97-.54,1.59-.7s1.3-.24,2.04-.24c1.08,0,1.9.2,2.48.59.58.39.86.95.86,1.68,0,.49-.17.91-.5,1.26s-.79.57-1.35.66v-.22c.66.04,1.18.24,1.57.59s.58.83.58,1.42c0,.74-.33,1.32-.98,1.76-.65.44-1.58.66-2.79.66Z"/>
          <path class="cls-3" d="m242.75,167.39c-.7,0-1.32-.17-1.86-.5-.53-.34-.95-.82-1.25-1.45-.3-.63-.45-1.38-.45-2.26s.15-1.62.45-2.25c.3-.62.71-1.1,1.25-1.44s1.15-.5,1.86-.5,1.28.17,1.8.5.86.79,1.03,1.35h-.18l.18-1.7h1.92c-.03.33-.06.67-.09,1.01s-.04.68-.04,1.01v6.06h-1.98l-.02-1.66h.19c-.17.55-.52,1-1.04,1.33-.52.33-1.12.5-1.78.5Zm.56-1.54c.63,0,1.14-.22,1.52-.66.38-.44.58-1.11.58-2.01s-.19-1.56-.58-2-.89-.66-1.52-.66-1.13.22-1.52.66c-.38.44-.58,1.1-.58,2s.19,1.57.57,2.01c.38.44.89.66,1.53.66Z"/>
          <path class="cls-3" d="m254.73,167.23v-1.71h2.59v-7.84h.99l-3.33,1.98v-1.95l2.93-1.76h1.47v9.57h2.43v1.71h-7.09Z"/>
          <path class="cls-3" d="m268.08,167.23v-8.08h1.66l2.78,4.83,2.78-4.83h1.66v8.08h-1.76v-5.84h.37l-2.59,4.53h-.93l-2.59-4.53h.37v5.84h-1.76Z"/>
          <path class="cls-3" d="m278.84,161.9v-.89l2.18-2.28c.27-.29.48-.55.61-.79s.2-.49.2-.75c0-.32-.1-.56-.3-.72s-.49-.24-.87-.24c-.3,0-.6.05-.88.16-.28.11-.55.28-.82.51l-.39-.9c.27-.24.6-.43.99-.57.4-.14.81-.21,1.25-.21.71,0,1.25.16,1.63.48.38.32.57.77.57,1.36,0,.41-.1.8-.29,1.17-.19.37-.49.76-.9,1.16l-1.82,1.82v-.32h3.26v1h-4.43Z"/>
        </g>
      </g>
    </g>
  </g>
</svg>