<?xml version="1.0" encoding="UTF-8"?>
<svg id="_Слой_2" data-name="Слой 2" xmlns="http://www.w3.org/2000/svg" viewBox="0 0 938.93 395.22">
  <defs>
    <style>
      .cls-1 {
        font-family: Mulish-Bold, Mulish;
        font-weight: 700;
      }

      .cls-1, .cls-2, .cls-3, .cls-4 {
        fill: #27625f;
      }

      .cls-1, .cls-2, .cls-4 {
        font-size: 16px;
      }

      .cls-5 {
        fill: #fff;
      }

      .cls-5, .cls-6 {
        stroke: #a0b6b5;
        stroke-miterlimit: 10;
      }

      .cls-2 {
        letter-spacing: 0em;
      }

      .cls-2, .cls-4 {
        font-family: Mulish-SemiBold, Mulish;
        font-weight: 600;
      }

      .cls-3 {
        stroke-width: 0px;
      }

      .cls-7 {
        letter-spacing: 0em;
      }

      .cls-8 {
        letter-spacing: -.06em;
      }

      .cls-9 {
        letter-spacing: 0em;
      }

      .cls-10 {
        letter-spacing: -.02em;
      }

      .cls-11 {
        letter-spacing: -.02em;
      }

      .cls-12 {
        letter-spacing: 0em;
      }

      .cls-13 {
        letter-spacing: -.07em;
      }

      .cls-14 {
        letter-spacing: -.02em;
      }

      .cls-15 {
        letter-spacing: -.08em;
      }

      .cls-16 {
        letter-spacing: 0em;
      }

      .cls-17 {
        letter-spacing: -.01em;
      }

      .cls-18 {
        letter-spacing: 0em;
      }

      .cls-6 {
        fill: none;
      }
    </style>
  </defs>
  <g id="_Слой_1-2" data-name="Слой 1">
    <g>
      <g>
        <g>
          <rect class="cls-5" x=".5" y=".5" width="937.93" height="183.76" rx="10" ry="10"/>
          <line class="cls-6" x1=".5" y1="46.44" x2="938.43" y2="46.44"/>
          <line class="cls-6" x1="207.89" y1="92.38" x2="938.43" y2="92.38"/>
          <line class="cls-6" x1="207.89" y1="46.44" x2="207.89" y2="184.26"/>
          <line class="cls-6" x1="331.15" y1="92.2" x2="331.15" y2="138.23"/>
          <line class="cls-6" x1="461.07" y1="92.2" x2="461.07" y2="138.23"/>
          <line class="cls-6" x1="596.07" y1="92.2" x2="596.07" y2="184.26"/>
          <line class="cls-6" x1="766.67" y1="92.2" x2="766.67" y2="138.23"/>
          <line class="cls-6" x1="207.89" y1="138.32" x2="938.43" y2="138.32"/>
        </g>
        <g>
          <text class="cls-1" transform="translate(18.56 28.84)"><tspan x="0" y="0">Календарная продукция</tspan></text>
          <text class="cls-1" transform="translate(35.06 121.43)"><tspan x="0" y="0">Вид календарей</tspan></text>
          <text class="cls-1" transform="translate(546.97 75.5)"><tspan class="cls-15" x="0" y="0">Т</tspan><tspan x="8.66" y="0">ираж</tspan></text>
          <g>
            <path class="cls-3" d="m242.96,113.36v-1.71h2.59v-7.84h.99l-3.33,1.98v-1.95l2.93-1.76h1.47v9.57h2.43v1.71h-7.09Z"/>
            <path class="cls-3" d="m255.58,115.44v-3.6h.93c.32-.5.55-1.09.7-1.77s.22-1.51.22-2.49v-2.3h6.22v6.56h1.31v3.6h-1.7v-2.08h-5.98v2.08h-1.7Zm2.72-3.58h3.47v-5.07h-2.66v1.25c0,.71-.07,1.41-.21,2.1-.14.68-.34,1.26-.61,1.73Z"/>
            <path class="cls-3" d="m270.15,113.52c-.83,0-1.55-.17-2.16-.51-.61-.34-1.08-.83-1.42-1.46-.34-.63-.5-1.38-.5-2.24s.17-1.61.5-2.23.81-1.11,1.42-1.45c.61-.34,1.33-.51,2.16-.51s1.55.17,2.17.51c.61.34,1.09.82,1.42,1.45s.5,1.37.5,2.23-.17,1.61-.5,2.24c-.34.63-.81,1.12-1.42,1.46-.61.34-1.34.51-2.17.51Zm0-1.54c.63,0,1.13-.22,1.5-.66.37-.44.56-1.11.56-2.01s-.19-1.56-.56-2c-.37-.44-.88-.66-1.5-.66s-1.13.22-1.5.66c-.37.44-.56,1.1-.56,2s.19,1.57.56,2.01c.37.44.87.66,1.5.66Z"/>
            <path class="cls-3" d="m281.15,113.36v-1.71h2.59v-7.84h.99l-3.33,1.98v-1.95l2.93-1.76h1.47v9.57h2.43v1.71h-7.09Z"/>
            <path class="cls-3" d="m293.78,113.52c-1.32,0-2.34-.5-3.06-1.51s-1.07-2.45-1.07-4.31.36-3.32,1.07-4.3,1.73-1.47,3.06-1.47,2.35.49,3.06,1.47c.71.98,1.06,2.41,1.06,4.29s-.35,3.32-1.06,4.33c-.71,1.01-1.73,1.51-3.06,1.51Zm0-1.7c.73,0,1.26-.33,1.62-1s.53-1.71.53-3.14-.18-2.47-.53-3.11-.89-.97-1.62-.97-1.25.32-1.61.97c-.36.65-.54,1.68-.54,3.11s.18,2.48.54,3.14c.36.67.89,1,1.61,1Z"/>
            <path class="cls-3" d="m243.99,128.36v-8.08h1.87v6.54h2.85v-6.54h1.86v6.54h2.85v-6.54h1.87v8.08h-11.3Z"/>
            <path class="cls-3" d="m259.31,128.36v-6.51h-2.77v-1.57h7.54v1.57h-2.78v6.51h-1.98Z"/>
            <path class="cls-3" d="m265.42,129.3h-1.65l4.21-12.98h1.65l-4.21,12.98Z"/>
            <path class="cls-3" d="m269.47,131.81v-9.52c0-.33-.01-.67-.03-1.01-.02-.34-.05-.68-.1-1.01h1.94l.18,1.7h-.18c.16-.57.5-1.02,1.02-1.35.52-.34,1.12-.5,1.8-.5s1.34.17,1.87.5c.53.34.95.82,1.25,1.44s.45,1.37.45,2.25-.15,1.63-.45,2.26c-.3.63-.71,1.11-1.25,1.45-.53.34-1.16.5-1.87.5-.67,0-1.26-.17-1.78-.5-.51-.33-.85-.77-1.02-1.33h.18v5.12h-2Zm4.06-4.83c.64,0,1.15-.22,1.54-.66.38-.44.58-1.11.58-2.01s-.19-1.56-.58-2c-.38-.44-.9-.66-1.54-.66s-1.14.22-1.52.66c-.38.44-.58,1.1-.58,2s.19,1.57.58,2.01c.38.44.89.66,1.52.66Z"/>
            <path class="cls-3" d="m279.32,131.99l-.46-1.58c.5-.11.92-.23,1.26-.37s.62-.32.85-.54.41-.51.56-.86l.4-.94-.05.78-3.52-8.19h2.13l2.53,6.3h-.46l2.54-6.3h2.02l-3.68,8.53c-.25.58-.51,1.05-.8,1.43-.29.38-.6.68-.93.91s-.69.41-1.09.54-.83.23-1.3.3Z"/>
            <path class="cls-3" d="m292.12,128.52c-1.27,0-2.28-.38-3.03-1.15-.75-.77-1.13-1.89-1.13-3.38v-1.38c0-1.53.35-2.75,1.04-3.68.69-.93,1.74-1.54,3.14-1.84l2.96-.67.54,1.57-3.33.74c-.55.12-1.01.34-1.38.66-.36.33-.63.71-.82,1.16-.18.45-.27.93-.27,1.44v.85h-.27c.12-.48.31-.9.59-1.26s.63-.64,1.06-.84c.43-.2.91-.3,1.46-.3.68,0,1.28.16,1.8.47s.92.77,1.22,1.36c.3.59.45,1.3.45,2.12s-.17,1.57-.5,2.19c-.34.62-.81,1.1-1.41,1.43-.6.34-1.31.5-2.12.5Zm-.06-1.52c.66,0,1.18-.21,1.54-.63.37-.42.55-1.05.55-1.9s-.19-1.45-.56-1.88c-.37-.43-.89-.65-1.54-.65s-1.16.21-1.54.64c-.37.43-.56,1.04-.56,1.82,0,.86.19,1.51.56,1.94.37.43.88.65,1.54.65Z"/>
          </g>
          <g>
            <path class="cls-3" d="m367.07,113.36v-1.71h2.59v-7.84h.99l-3.33,1.98v-1.95l2.93-1.76h1.47v9.57h2.43v1.71h-7.09Z"/>
            <path class="cls-3" d="m376.67,113.36v-1.71h2.59v-7.84h.99l-3.33,1.98v-1.95l2.93-1.76h1.47v9.57h2.43v1.71h-7.09Z"/>
            <path class="cls-3" d="m389.3,115.44v-3.6h.93c.32-.5.55-1.09.7-1.77s.22-1.51.22-2.49v-2.3h6.22v6.56h1.31v3.6h-1.7v-2.08h-5.98v2.08h-1.7Zm2.72-3.58h3.47v-5.07h-2.66v1.25c0,.71-.07,1.41-.21,2.1-.14.68-.34,1.26-.61,1.73Z"/>
            <path class="cls-3" d="m403.86,113.52c-.83,0-1.55-.17-2.16-.51-.61-.34-1.08-.83-1.42-1.46-.34-.63-.5-1.38-.5-2.24s.17-1.61.5-2.23.81-1.11,1.42-1.45c.61-.34,1.33-.51,2.16-.51s1.55.17,2.17.51c.61.34,1.09.82,1.42,1.45s.5,1.37.5,2.23-.17,1.61-.5,2.24c-.34.63-.81,1.12-1.42,1.46-.61.34-1.34.51-2.17.51Zm0-1.54c.63,0,1.13-.22,1.5-.66.37-.44.56-1.11.56-2.01s-.19-1.56-.56-2c-.37-.44-.88-.66-1.5-.66s-1.13.22-1.5.66c-.37.44-.56,1.1-.56,2s.19,1.57.56,2.01c.37.44.87.66,1.5.66Z"/>
            <path class="cls-3" d="m417.97,113.52c-.49,0-.98-.05-1.46-.16s-.94-.26-1.36-.45c-.42-.19-.78-.42-1.08-.69l.67-1.55c.5.37,1.02.65,1.54.84.53.19,1.08.28,1.66.28.69,0,1.23-.17,1.62-.52s.58-.81.58-1.4-.19-1.08-.56-1.45c-.37-.37-.89-.55-1.54-.55-.46,0-.88.09-1.26.26-.38.18-.72.45-1.02.81h-1.36v-6.86h7.01v1.7h-5.06v3.58h-.5c.28-.37.65-.66,1.11-.86.46-.2.98-.3,1.56-.3.73,0,1.35.15,1.89.45.53.3.95.72,1.25,1.26.3.54.45,1.17.45,1.9s-.17,1.38-.5,1.94c-.34.56-.82,1-1.44,1.31s-1.36.47-2.22.47Z"/>
            <path class="cls-3" d="m427.49,113.52c-1.32,0-2.34-.5-3.06-1.51s-1.07-2.45-1.07-4.31.36-3.32,1.07-4.3,1.73-1.47,3.06-1.47,2.35.49,3.06,1.47c.71.98,1.06,2.41,1.06,4.29s-.35,3.32-1.06,4.33c-.71,1.01-1.73,1.51-3.06,1.51Zm0-1.7c.73,0,1.26-.33,1.62-1s.53-1.71.53-3.14-.18-2.47-.53-3.11-.89-.97-1.62-.97-1.25.32-1.61.97c-.36.65-.54,1.68-.54,3.11s.18,2.48.54,3.14c.36.67.89,1,1.61,1Z"/>
            <path class="cls-3" d="m372.91,128.36v-8.08h1.87v6.54h2.85v-6.54h1.86v6.54h2.85v-6.54h1.87v8.08h-11.3Z"/>
            <path class="cls-3" d="m388.22,128.36v-6.51h-2.77v-1.57h7.54v1.57h-2.78v6.51h-1.98Z"/>
            <path class="cls-3" d="m394.33,129.3h-1.65l4.21-12.98h1.65l-4.21,12.98Z"/>
            <path class="cls-3" d="m398.38,131.81v-9.52c0-.33-.01-.67-.03-1.01-.02-.34-.05-.68-.1-1.01h1.94l.18,1.7h-.18c.16-.57.5-1.02,1.02-1.35.52-.34,1.12-.5,1.8-.5s1.34.17,1.87.5c.53.34.95.82,1.25,1.44s.45,1.37.45,2.25-.15,1.63-.45,2.26c-.3.63-.71,1.11-1.25,1.45-.53.34-1.16.5-1.87.5-.67,0-1.26-.17-1.78-.5-.51-.33-.85-.77-1.02-1.33h.18v5.12h-2Zm4.06-4.83c.64,0,1.15-.22,1.54-.66.38-.44.58-1.11.58-2.01s-.19-1.56-.58-2c-.38-.44-.9-.66-1.54-.66s-1.14.22-1.52.66c-.38.44-.58,1.1-.58,2s.19,1.57.58,2.01c.38.44.89.66,1.52.66Z"/>
            <path class="cls-3" d="m408.23,131.99l-.46-1.58c.5-.11.92-.23,1.26-.37s.62-.32.85-.54.41-.51.56-.86l.4-.94-.05.78-3.52-8.19h2.13l2.53,6.3h-.46l2.54-6.3h2.02l-3.68,8.53c-.25.58-.51,1.05-.8,1.43-.29.38-.6.68-.93.91s-.69.41-1.09.54-.83.23-1.3.3Z"/>
            <path class="cls-3" d="m421.03,128.52c-1.27,0-2.28-.38-3.03-1.15-.75-.77-1.13-1.89-1.13-3.38v-1.38c0-1.53.35-2.75,1.04-3.68.69-.93,1.74-1.54,3.14-1.84l2.96-.67.54,1.57-3.33.74c-.55.12-1.01.34-1.38.66-.36.33-.63.71-.82,1.16-.18.45-.27.93-.27,1.44v.85h-.27c.12-.48.31-.9.59-1.26s.63-.64,1.06-.84c.43-.2.91-.3,1.46-.3.68,0,1.28.16,1.8.47s.92.77,1.22,1.36c.3.59.45,1.3.45,2.12s-.17,1.57-.5,2.19c-.34.62-.81,1.1-1.41,1.43-.6.34-1.31.5-2.12.5Zm-.06-1.52c.66,0,1.18-.21,1.54-.63.37-.42.55-1.05.55-1.9s-.19-1.45-.56-1.88c-.37-.43-.89-.65-1.54-.65s-1.16.21-1.54.64c-.37.43-.56,1.04-.56,1.82,0,.86.19,1.51.56,1.94.37.43.88.65,1.54.65Z"/>
          </g>
          <text class="cls-4" transform="translate(380.32 165.42)"><tspan x="0" y="0">12 </tspan><tspan class="cls-11" x="23.47" y="0">р</tspan><tspan x="33.15" y="0">.</tspan></text>
          <text class="cls-4" transform="translate(741.51 165.42)"><tspan x="0" y="0">10,5 </tspan><tspan class="cls-11" x="36.86" y="0">р</tspan><tspan class="cls-16" x="46.54" y="0">.</tspan></text>
          <g>
            <path class="cls-3" d="m495,113.52c-.49,0-.98-.05-1.46-.16s-.94-.26-1.36-.45c-.42-.19-.78-.42-1.08-.69l.67-1.55c.5.37,1.02.65,1.54.84.53.19,1.08.28,1.66.28.69,0,1.23-.17,1.62-.52.39-.35.58-.81.58-1.4s-.19-1.08-.56-1.45c-.37-.37-.89-.55-1.54-.55-.46,0-.88.09-1.26.26-.38.18-.72.45-1.02.81h-1.36v-6.86h7.01v1.7h-5.06v3.58h-.5c.28-.37.65-.66,1.11-.86.46-.2.98-.3,1.56-.3.73,0,1.35.15,1.89.45.53.3.95.72,1.25,1.26.3.54.45,1.17.45,1.9s-.17,1.38-.5,1.94c-.34.56-.82,1-1.44,1.31s-1.36.47-2.22.47Z"/>
            <path class="cls-3" d="m501.49,113.36v-1.71h2.59v-7.84h.99l-3.33,1.98v-1.95l2.93-1.76h1.47v9.57h2.43v1.71h-7.09Z"/>
            <path class="cls-3" d="m514.12,115.44v-3.6h.93c.32-.5.55-1.09.7-1.77s.22-1.51.22-2.49v-2.3h6.22v6.56h1.31v3.6h-1.7v-2.08h-5.98v2.08h-1.7Zm2.72-3.58h3.47v-5.07h-2.66v1.25c0,.71-.07,1.41-.21,2.1-.14.68-.34,1.26-.61,1.73Z"/>
            <path class="cls-3" d="m528.68,113.52c-.83,0-1.55-.17-2.16-.51-.61-.34-1.08-.83-1.42-1.46-.34-.63-.5-1.38-.5-2.24s.17-1.61.5-2.23.81-1.11,1.42-1.45c.61-.34,1.33-.51,2.16-.51s1.55.17,2.17.51c.61.34,1.09.82,1.42,1.45s.5,1.37.5,2.23-.17,1.61-.5,2.24c-.34.63-.81,1.12-1.42,1.46-.61.34-1.34.51-2.17.51Zm0-1.54c.63,0,1.13-.22,1.5-.66.37-.44.56-1.11.56-2.01s-.19-1.56-.56-2c-.37-.44-.88-.66-1.5-.66s-1.13.22-1.5.66c-.37.44-.56,1.1-.56,2s.19,1.57.56,2.01c.37.44.87.66,1.5.66Z"/>
            <path class="cls-3" d="m539.69,113.36v-1.71h2.59v-7.84h.99l-3.33,1.98v-1.95l2.93-1.76h1.47v9.57h2.43v1.71h-7.09Z"/>
            <path class="cls-3" d="m552.39,113.52c-.49,0-.98-.05-1.46-.16s-.94-.26-1.36-.45c-.42-.19-.78-.42-1.08-.69l.67-1.55c.5.37,1.02.65,1.54.84.53.19,1.08.28,1.66.28.69,0,1.23-.17,1.62-.52s.58-.81.58-1.4-.19-1.08-.56-1.45c-.37-.37-.89-.55-1.54-.55-.46,0-.88.09-1.26.26-.38.18-.72.45-1.02.81h-1.36v-6.86h7.01v1.7h-5.06v3.58h-.5c.28-.37.65-.66,1.11-.86.46-.2.98-.3,1.56-.3.73,0,1.35.15,1.89.45.53.3.95.72,1.25,1.26.3.54.45,1.17.45,1.9s-.17,1.38-.5,1.94c-.34.56-.82,1-1.44,1.31s-1.36.47-2.22.47Z"/>
            <path class="cls-3" d="m561.91,113.52c-1.32,0-2.34-.5-3.06-1.51s-1.07-2.45-1.07-4.31.36-3.32,1.07-4.3,1.73-1.47,3.06-1.47,2.35.49,3.06,1.47c.71.98,1.06,2.41,1.06,4.29s-.35,3.32-1.06,4.33c-.71,1.01-1.73,1.51-3.06,1.51Zm0-1.7c.73,0,1.26-.33,1.62-1s.53-1.71.53-3.14-.18-2.47-.53-3.11-.89-.97-1.62-.97-1.25.32-1.61.97c-.36.65-.54,1.68-.54,3.11s.18,2.48.54,3.14c.36.67.89,1,1.61,1Z"/>
            <path class="cls-3" d="m502.53,128.36v-8.08h1.87v6.54h2.85v-6.54h1.86v6.54h2.85v-6.54h1.87v8.08h-11.3Z"/>
            <path class="cls-3" d="m517.84,128.36v-6.51h-2.77v-1.57h7.54v1.57h-2.78v6.51h-1.98Z"/>
            <path class="cls-3" d="m523.95,129.3h-1.65l4.21-12.98h1.65l-4.21,12.98Z"/>
            <path class="cls-3" d="m528,131.81v-9.52c0-.33-.01-.67-.03-1.01-.02-.34-.05-.68-.1-1.01h1.94l.18,1.7h-.18c.16-.57.5-1.02,1.02-1.35.52-.34,1.12-.5,1.8-.5s1.34.17,1.87.5c.53.34.95.82,1.25,1.44s.45,1.37.45,2.25-.15,1.63-.45,2.26c-.3.63-.71,1.11-1.25,1.45-.53.34-1.16.5-1.87.5-.67,0-1.26-.17-1.78-.5-.51-.33-.85-.77-1.02-1.33h.18v5.12h-2Zm4.06-4.83c.64,0,1.15-.22,1.54-.66.38-.44.58-1.11.58-2.01s-.19-1.56-.58-2c-.38-.44-.9-.66-1.54-.66s-1.14.22-1.52.66c-.38.44-.58,1.1-.58,2s.19,1.57.58,2.01c.38.44.89.66,1.52.66Z"/>
            <path class="cls-3" d="m537.85,131.99l-.46-1.58c.5-.11.92-.23,1.26-.37s.62-.32.85-.54.41-.51.56-.86l.4-.94-.05.78-3.52-8.19h2.13l2.53,6.3h-.46l2.54-6.3h2.02l-3.68,8.53c-.25.58-.51,1.05-.8,1.43-.29.38-.6.68-.93.91s-.69.41-1.09.54-.83.23-1.3.3Z"/>
            <path class="cls-3" d="m550.65,128.52c-1.27,0-2.28-.38-3.03-1.15-.75-.77-1.13-1.89-1.13-3.38v-1.38c0-1.53.35-2.75,1.04-3.68.69-.93,1.74-1.54,3.14-1.84l2.96-.67.54,1.57-3.33.74c-.55.12-1.01.34-1.38.66-.36.33-.63.71-.82,1.16-.18.45-.27.93-.27,1.44v.85h-.27c.12-.48.31-.9.59-1.26s.63-.64,1.06-.84c.43-.2.91-.3,1.46-.3.68,0,1.28.16,1.8.47s.92.77,1.22,1.36c.3.59.45,1.3.45,2.12s-.17,1.57-.5,2.19c-.34.62-.81,1.1-1.41,1.43-.6.34-1.31.5-2.12.5Zm-.06-1.52c.66,0,1.18-.21,1.54-.63.37-.42.55-1.05.55-1.9s-.19-1.45-.56-1.88c-.37-.43-.89-.65-1.54-.65s-1.16.21-1.54.64c-.37.43-.56,1.04-.56,1.82,0,.86.19,1.51.56,1.94.37.43.88.65,1.54.65Z"/>
          </g>
          <g>
            <path class="cls-3" d="m639.24,113.52c-1.27,0-2.28-.38-3.03-1.15s-1.13-1.89-1.13-3.38v-1.38c0-1.53.35-2.75,1.04-3.68.69-.93,1.74-1.54,3.14-1.84l2.96-.67.54,1.57-3.33.74c-.55.12-1.01.34-1.38.66-.36.33-.63.71-.82,1.16-.18.45-.27.93-.27,1.44v.85h-.27c.12-.48.31-.9.59-1.26s.63-.64,1.06-.84c.43-.2.91-.3,1.46-.3.68,0,1.28.16,1.8.47.52.31.93.77,1.22,1.36.3.59.45,1.3.45,2.12s-.17,1.57-.5,2.19c-.34.62-.81,1.1-1.41,1.43-.6.34-1.31.5-2.12.5Zm-.06-1.52c.66,0,1.18-.21,1.54-.63.37-.42.55-1.05.55-1.9s-.19-1.45-.56-1.88c-.37-.43-.89-.65-1.54-.65s-1.16.21-1.54.64c-.37.43-.56,1.04-.56,1.82,0,.86.19,1.51.56,1.94.37.43.89.65,1.54.65Z"/>
            <path class="cls-3" d="m648.88,113.52c-.83,0-1.55-.17-2.16-.51-.61-.34-1.08-.83-1.42-1.46-.34-.63-.5-1.38-.5-2.24s.17-1.61.5-2.23.81-1.11,1.42-1.45c.61-.34,1.33-.51,2.16-.51s1.55.17,2.17.51c.61.34,1.09.82,1.42,1.45s.5,1.37.5,2.23-.17,1.61-.5,2.24c-.34.63-.81,1.12-1.42,1.46-.61.34-1.34.51-2.17.51Zm0-1.54c.63,0,1.13-.22,1.5-.66.37-.44.56-1.11.56-2.01s-.19-1.56-.56-2c-.37-.44-.88-.66-1.5-.66s-1.13.22-1.5.66c-.37.44-.56,1.1-.56,2s.19,1.57.56,2.01c.37.44.87.66,1.5.66Z"/>
            <path class="cls-3" d="m654.49,113.58l-.62-1.57c.35-.13.65-.3.89-.5.24-.21.43-.47.58-.8.14-.33.25-.73.31-1.22s.1-1.06.1-1.74v-2.48h6.43v8.08h-1.98v-6.54h-2.62v1.01c0,1.16-.11,2.14-.32,2.92-.21.78-.54,1.41-.99,1.86-.45.46-1.03.78-1.76.98Z"/>
            <path class="cls-3" d="m664.44,113.36v-8.08h1.98v2.7h2.13c1.08,0,1.89.23,2.43.68s.82,1.11.82,1.96c0,.55-.13,1.04-.38,1.45-.26.41-.63.73-1.11.95-.49.22-1.07.34-1.75.34h-4.11Zm1.98-1.31h1.86c.54,0,.96-.11,1.25-.34s.43-.58.43-1.05-.14-.81-.42-1.03-.7-.33-1.26-.33h-1.86v2.75Z"/>
            <path class="cls-3" d="m673.47,113.36v-8.08h1.87v6.54h2.85v-6.54h1.86v6.54h2.85v-6.54h1.87v8.08h-11.3Z"/>
            <path class="cls-3" d="m691,113.52c-1.35,0-2.42-.37-3.18-1.12-.77-.75-1.15-1.77-1.15-3.07,0-.84.17-1.58.5-2.21.33-.63.79-1.12,1.38-1.47.59-.35,1.28-.53,2.07-.53s1.43.17,1.95.5.92.79,1.19,1.39c.27.6.41,1.3.41,2.1v.53h-5.89v-1.06h4.46l-.27.22c0-.75-.16-1.32-.47-1.71-.31-.39-.77-.59-1.37-.59-.66,0-1.17.23-1.53.7s-.54,1.12-.54,1.97v.21c0,.88.22,1.53.65,1.96.43.43,1.04.65,1.83.65.46,0,.89-.06,1.29-.18.4-.12.78-.32,1.14-.6l.59,1.34c-.38.31-.84.55-1.38.72-.53.17-1.1.26-1.7.26Z"/>
            <path class="cls-3" d="m701.05,113.36v-1.71h2.59v-7.84h.99l-3.33,1.98v-1.95l2.93-1.76h1.47v9.57h2.43v1.71h-7.09Z"/>
            <path class="cls-3" d="m710.12,113.36v-1.52l3.74-3.9c.47-.49.82-.94,1.04-1.36.22-.42.34-.84.34-1.28,0-.54-.17-.95-.51-1.23-.34-.28-.84-.42-1.49-.42-.52,0-1.02.09-1.5.28-.48.19-.95.48-1.41.87l-.67-1.54c.46-.41,1.03-.73,1.7-.98.68-.25,1.39-.37,2.14-.37,1.22,0,2.15.27,2.8.82s.98,1.32.98,2.34c0,.7-.17,1.37-.5,2.01-.33.63-.84,1.3-1.54,1.99l-3.12,3.12v-.54h5.6v1.71h-7.6Z"/>
            <path class="cls-3" d="m723.35,113.52c-.49,0-.98-.05-1.46-.16s-.94-.26-1.36-.45c-.42-.19-.78-.42-1.08-.69l.67-1.55c.5.37,1.02.65,1.54.84.53.19,1.08.28,1.66.28.69,0,1.23-.17,1.62-.52s.58-.81.58-1.4-.19-1.08-.56-1.45c-.37-.37-.89-.55-1.54-.55-.46,0-.88.09-1.26.26-.38.18-.72.45-1.02.81h-1.36v-6.86h7.01v1.7h-5.06v3.58h-.5c.28-.37.65-.66,1.11-.86.46-.2.98-.3,1.56-.3.73,0,1.35.15,1.89.45.53.3.95.72,1.25,1.26.3.54.45,1.17.45,1.9s-.17,1.38-.5,1.94c-.34.56-.82,1-1.44,1.31s-1.36.47-2.22.47Z"/>
            <path class="cls-3" d="m655.31,128.36v-8.08h1.87v6.54h2.85v-6.54h1.86v6.54h2.85v-6.54h1.87v8.08h-11.3Z"/>
            <path class="cls-3" d="m670.62,128.36v-6.51h-2.77v-1.57h7.54v1.57h-2.78v6.51h-1.98Z"/>
            <path class="cls-3" d="m676.73,129.3h-1.65l4.21-12.98h1.65l-4.21,12.98Z"/>
            <path class="cls-3" d="m680.78,131.81v-9.52c0-.33-.01-.67-.03-1.01-.02-.34-.05-.68-.1-1.01h1.94l.18,1.7h-.18c.16-.57.5-1.02,1.02-1.35.52-.34,1.12-.5,1.8-.5s1.34.17,1.87.5c.53.34.95.82,1.25,1.44s.45,1.37.45,2.25-.15,1.63-.45,2.26c-.3.63-.71,1.11-1.25,1.45-.53.34-1.16.5-1.87.5-.67,0-1.26-.17-1.78-.5-.51-.33-.85-.77-1.02-1.33h.18v5.12h-2Zm4.06-4.83c.64,0,1.15-.22,1.54-.66.38-.44.58-1.11.58-2.01s-.19-1.56-.58-2c-.38-.44-.9-.66-1.54-.66s-1.14.22-1.52.66c-.38.44-.58,1.1-.58,2s.19,1.57.58,2.01c.38.44.89.66,1.52.66Z"/>
            <path class="cls-3" d="m690.64,131.99l-.46-1.58c.5-.11.92-.23,1.26-.37s.62-.32.85-.54.41-.51.56-.86l.4-.94-.05.78-3.52-8.19h2.13l2.53,6.3h-.46l2.54-6.3h2.02l-3.68,8.53c-.25.58-.51,1.05-.8,1.43-.29.38-.6.68-.93.91s-.69.41-1.09.54-.83.23-1.3.3Z"/>
            <path class="cls-3" d="m703.44,128.52c-1.27,0-2.28-.38-3.03-1.15-.75-.77-1.13-1.89-1.13-3.38v-1.38c0-1.53.35-2.75,1.04-3.68.69-.93,1.74-1.54,3.14-1.84l2.96-.67.54,1.57-3.33.74c-.55.12-1.01.34-1.38.66-.36.33-.63.71-.82,1.16-.18.45-.27.93-.27,1.44v.85h-.27c.12-.48.31-.9.59-1.26s.63-.64,1.06-.84c.43-.2.91-.3,1.46-.3.68,0,1.28.16,1.8.47s.92.77,1.22,1.36c.3.59.45,1.3.45,2.12s-.17,1.57-.5,2.19c-.34.62-.81,1.1-1.41,1.43-.6.34-1.31.5-2.12.5Zm-.06-1.52c.66,0,1.18-.21,1.54-.63.37-.42.55-1.05.55-1.9s-.19-1.45-.56-1.88c-.37-.43-.89-.65-1.54-.65s-1.16.21-1.54.64c-.37.43-.56,1.04-.56,1.82,0,.86.19,1.51.56,1.94.37.43.88.65,1.54.65Z"/>
          </g>
          <g>
            <path class="cls-3" d="m810.05,113.52c-1.27,0-2.28-.38-3.03-1.15s-1.13-1.89-1.13-3.38v-1.38c0-1.53.35-2.75,1.04-3.68.69-.93,1.74-1.54,3.14-1.84l2.96-.67.54,1.57-3.33.74c-.55.12-1.01.34-1.38.66-.36.33-.63.71-.82,1.16-.18.45-.27.93-.27,1.44v.85h-.27c.12-.48.31-.9.59-1.26s.63-.64,1.06-.84c.43-.2.91-.3,1.46-.3.68,0,1.28.16,1.8.47.52.31.93.77,1.22,1.36.3.59.45,1.3.45,2.12s-.17,1.57-.5,2.19c-.34.62-.81,1.1-1.41,1.43-.6.34-1.31.5-2.12.5Zm-.06-1.52c.66,0,1.18-.21,1.54-.63.37-.42.55-1.05.55-1.9s-.19-1.45-.56-1.88c-.37-.43-.89-.65-1.54-.65s-1.16.21-1.54.64c-.37.43-.56,1.04-.56,1.82,0,.86.19,1.51.56,1.94.37.43.89.65,1.54.65Z"/>
            <path class="cls-3" d="m819.68,113.52c-.83,0-1.55-.17-2.16-.51-.61-.34-1.08-.83-1.42-1.46-.34-.63-.5-1.38-.5-2.24s.17-1.61.5-2.23.81-1.11,1.42-1.45c.61-.34,1.33-.51,2.16-.51s1.55.17,2.17.51c.61.34,1.09.82,1.42,1.45s.5,1.37.5,2.23-.17,1.61-.5,2.24c-.34.63-.81,1.12-1.42,1.46-.61.34-1.34.51-2.17.51Zm0-1.54c.63,0,1.13-.22,1.5-.66.37-.44.56-1.11.56-2.01s-.19-1.56-.56-2c-.37-.44-.88-.66-1.5-.66s-1.13.22-1.5.66c-.37.44-.56,1.1-.56,2s.19,1.57.56,2.01c.37.44.87.66,1.5.66Z"/>
            <path class="cls-3" d="m825.3,113.58l-.62-1.57c.35-.13.65-.3.89-.5.24-.21.43-.47.58-.8.14-.33.25-.73.31-1.22s.1-1.06.1-1.74v-2.48h6.43v8.08h-1.98v-6.54h-2.62v1.01c0,1.16-.11,2.14-.32,2.92-.21.78-.54,1.41-.99,1.86-.45.46-1.03.78-1.76.98Z"/>
            <path class="cls-3" d="m835.25,113.36v-8.08h1.98v2.7h2.13c1.08,0,1.89.23,2.43.68s.82,1.11.82,1.96c0,.55-.13,1.04-.38,1.45-.26.41-.63.73-1.11.95-.49.22-1.07.34-1.75.34h-4.11Zm1.98-1.31h1.86c.54,0,.96-.11,1.25-.34s.43-.58.43-1.05-.14-.81-.42-1.03-.7-.33-1.26-.33h-1.86v2.75Z"/>
            <path class="cls-3" d="m844.27,113.36v-8.08h1.87v6.54h2.85v-6.54h1.86v6.54h2.85v-6.54h1.87v8.08h-11.3Z"/>
            <path class="cls-3" d="m861.81,113.52c-1.35,0-2.42-.37-3.18-1.12-.77-.75-1.15-1.77-1.15-3.07,0-.84.17-1.58.5-2.21.33-.63.79-1.12,1.38-1.47.59-.35,1.28-.53,2.07-.53s1.43.17,1.95.5.92.79,1.19,1.39c.27.6.41,1.3.41,2.1v.53h-5.89v-1.06h4.46l-.27.22c0-.75-.16-1.32-.47-1.71-.31-.39-.77-.59-1.37-.59-.66,0-1.17.23-1.53.7s-.54,1.12-.54,1.97v.21c0,.88.22,1.53.65,1.96.43.43,1.04.65,1.83.65.46,0,.89-.06,1.29-.18.4-.12.78-.32,1.14-.6l.59,1.34c-.38.31-.84.55-1.38.72-.53.17-1.1.26-1.7.26Z"/>
            <path class="cls-3" d="m871.33,113.36v-1.52l3.74-3.9c.47-.49.82-.94,1.04-1.36.22-.42.34-.84.34-1.28,0-.54-.17-.95-.51-1.23-.34-.28-.84-.42-1.49-.42-.52,0-1.02.09-1.5.28-.48.19-.95.48-1.41.87l-.67-1.54c.46-.41,1.03-.73,1.7-.98.68-.25,1.39-.37,2.14-.37,1.22,0,2.15.27,2.8.82s.98,1.32.98,2.34c0,.7-.17,1.37-.5,2.01-.33.63-.84,1.3-1.54,1.99l-3.12,3.12v-.54h5.6v1.71h-7.6Z"/>
            <path class="cls-3" d="m884.56,113.52c-.49,0-.98-.05-1.46-.16s-.94-.26-1.36-.45c-.42-.19-.78-.42-1.08-.69l.67-1.55c.5.37,1.02.65,1.54.84.53.19,1.08.28,1.66.28.69,0,1.23-.17,1.62-.52s.58-.81.58-1.4-.19-1.08-.56-1.45c-.37-.37-.89-.55-1.54-.55-.46,0-.88.09-1.26.26-.38.18-.72.45-1.02.81h-1.36v-6.86h7.01v1.7h-5.06v3.58h-.5c.28-.37.65-.66,1.11-.86.46-.2.98-.3,1.56-.3.73,0,1.35.15,1.89.45.53.3.95.72,1.25,1.26.3.54.45,1.17.45,1.9s-.17,1.38-.5,1.94c-.34.56-.82,1-1.44,1.31s-1.36.47-2.22.47Z"/>
            <path class="cls-3" d="m894.08,113.52c-1.32,0-2.34-.5-3.06-1.51s-1.07-2.45-1.07-4.31.36-3.32,1.07-4.3,1.73-1.47,3.06-1.47,2.35.49,3.06,1.47c.71.98,1.06,2.41,1.06,4.29s-.35,3.32-1.06,4.33c-.71,1.01-1.73,1.51-3.06,1.51Zm0-1.7c.73,0,1.26-.33,1.62-1s.53-1.71.53-3.14-.18-2.47-.53-3.11-.89-.97-1.62-.97-1.25.32-1.61.97c-.36.65-.54,1.68-.54,3.11s.18,2.48.54,3.14c.36.67.89,1,1.61,1Z"/>
            <path class="cls-3" d="m826.11,128.36v-8.08h1.87v6.54h2.85v-6.54h1.86v6.54h2.85v-6.54h1.87v8.08h-11.3Z"/>
            <path class="cls-3" d="m841.42,128.36v-6.51h-2.77v-1.57h7.54v1.57h-2.78v6.51h-1.98Z"/>
            <path class="cls-3" d="m847.54,129.3h-1.65l4.21-12.98h1.65l-4.21,12.98Z"/>
            <path class="cls-3" d="m851.58,131.81v-9.52c0-.33-.01-.67-.03-1.01-.02-.34-.05-.68-.1-1.01h1.94l.18,1.7h-.18c.16-.57.5-1.02,1.02-1.35.52-.34,1.12-.5,1.8-.5s1.34.17,1.87.5c.53.34.95.82,1.25,1.44s.45,1.37.45,2.25-.15,1.63-.45,2.26c-.3.63-.71,1.11-1.25,1.45-.53.34-1.16.5-1.87.5-.67,0-1.26-.17-1.78-.5-.51-.33-.85-.77-1.02-1.33h.18v5.12h-2Zm4.06-4.83c.64,0,1.15-.22,1.54-.66.38-.44.58-1.11.58-2.01s-.19-1.56-.58-2c-.38-.44-.9-.66-1.54-.66s-1.14.22-1.52.66c-.38.44-.58,1.1-.58,2s.19,1.57.58,2.01c.38.44.89.66,1.52.66Z"/>
            <path class="cls-3" d="m861.44,131.99l-.46-1.58c.5-.11.92-.23,1.26-.37s.62-.32.85-.54.41-.51.56-.86l.4-.94-.05.78-3.52-8.19h2.13l2.53,6.3h-.46l2.54-6.3h2.02l-3.68,8.53c-.25.58-.51,1.05-.8,1.43-.29.38-.6.68-.93.91s-.69.41-1.09.54-.83.23-1.3.3Z"/>
            <path class="cls-3" d="m874.24,128.52c-1.27,0-2.28-.38-3.03-1.15-.75-.77-1.13-1.89-1.13-3.38v-1.38c0-1.53.35-2.75,1.04-3.68.69-.93,1.74-1.54,3.14-1.84l2.96-.67.54,1.57-3.33.74c-.55.12-1.01.34-1.38.66-.36.33-.63.71-.82,1.16-.18.45-.27.93-.27,1.44v.85h-.27c.12-.48.31-.9.59-1.26s.63-.64,1.06-.84c.43-.2.91-.3,1.46-.3.68,0,1.28.16,1.8.47s.92.77,1.22,1.36c.3.59.45,1.3.45,2.12s-.17,1.57-.5,2.19c-.34.62-.81,1.1-1.41,1.43-.6.34-1.31.5-2.12.5Zm-.06-1.52c.66,0,1.18-.21,1.54-.63.37-.42.55-1.05.55-1.9s-.19-1.45-.56-1.88c-.37-.43-.89-.65-1.54-.65s-1.16.21-1.54.64c-.37.43-.56,1.04-.56,1.82,0,.86.19,1.51.56,1.94.37.43.88.65,1.54.65Z"/>
          </g>
        </g>
      </g>
      <g>
        <g>
          <rect class="cls-5" x=".5" y="210.97" width="937.93" height="183.76" rx="10" ry="10"/>
          <line class="cls-6" x1=".5" y1="256.91" x2="938.43" y2="256.91"/>
          <line class="cls-6" x1=".5" y1="302.85" x2="938.43" y2="302.85"/>
          <line class="cls-6" x1="361.28" y1="302.54" x2="361.28" y2="394.72"/>
          <line class="cls-6" x1=".5" y1="348.78" x2="938.43" y2="348.78"/>
        </g>
        <g>
          <text class="cls-1" transform="translate(16.26 240.44)"><tspan x="0" y="0">Офсетная печать карманных календарей</tspan></text>
          <text class="cls-4" transform="translate(360.18 286.71)"><tspan x="0" y="0">100х70 мм, 4+4, 115-130 г</tspan><tspan class="cls-8" x="204.01" y="0">/</tspan><tspan class="cls-12" x="207.85" y="0">м</tspan></text>
          <text class="cls-2" transform="translate(578.98 281.38) scale(.58)"><tspan x="0" y="0">2</tspan></text>
          <text class="cls-1" transform="translate(132.09 332.28)"><tspan class="cls-9" x="0" y="0">К</tspan><tspan class="cls-17" x="10.91" y="0">о</tspan><tspan x="20.45" y="0">личество</tspan></text>
          <text class="cls-4" transform="translate(145.71 377.75)"><tspan x="0" y="0">1000 ш</tspan><tspan class="cls-13" x="55.97" y="0">т</tspan><tspan x="62.33" y="0">.</tspan></text>
          <text class="cls-1" transform="translate(633.06 332.28)"><tspan x="0" y="0">Цена</tspan></text>
          <text class="cls-4" transform="translate(562.74 377.75)"><tspan x="0" y="0">2240 </tspan><tspan class="cls-18" x="42.67" y="0">р</tspan><tspan x="52.5" y="0">у</tspan><tspan class="cls-14" x="61.26" y="0">б</tspan><tspan x="70.5" y="0">. (2,24 </tspan><tspan class="cls-7" x="120.78" y="0">р</tspan><tspan class="cls-16" x="130.61" y="0">у</tspan><tspan class="cls-10" x="139.37" y="0">б</tspan><tspan x="148.61" y="0">. шт)</tspan></text>
        </g>
      </g>
    </g>
  </g>
</svg>