<?xml version="1.0" encoding="UTF-8"?>
<svg id="_Слой_2" data-name="Слой 2" xmlns="http://www.w3.org/2000/svg" viewBox="0 0 938.93 395.22">
  <defs>
    <style>
      .cls-1 {
        fill: #fff;
      }

      .cls-1, .cls-2 {
        stroke: #a0b6b5;
        stroke-miterlimit: 10;
      }

      .cls-3 {
        fill: #27625f;
        stroke-width: 0px;
      }

      .cls-2 {
        fill: none;
      }
    </style>
  </defs>
  <g id="_Слой_1-2" data-name="Слой 1">
    <g>
      <g>
        <g>
          <rect class="cls-1" x=".5" y=".5" width="937.93" height="183.76" rx="10" ry="10"/>
          <line class="cls-2" x1=".5" y1="46.44" x2="938.43" y2="46.44"/>
          <line class="cls-2" x1="207.89" y1="92.38" x2="938.43" y2="92.38"/>
          <line class="cls-2" x1="207.89" y1="46.44" x2="207.89" y2="184.26"/>
          <line class="cls-2" x1="331.15" y1="92.2" x2="331.15" y2="138.23"/>
          <line class="cls-2" x1="461.07" y1="92.2" x2="461.07" y2="138.23"/>
          <line class="cls-2" x1="596.07" y1="92.2" x2="596.07" y2="184.26"/>
          <line class="cls-2" x1="766.67" y1="92.2" x2="766.67" y2="138.23"/>
          <line class="cls-2" x1="207.89" y1="138.32" x2="938.43" y2="138.32"/>
        </g>
        <g>
          <g>
            <path class="cls-3" d="m19.81,28.84v-11.28h2.03v4.8h1.92l-.42.27,3.33-5.07h2.27l-3.71,5.46-.78-.58c.73.11,1.33.35,1.82.74.49.39.91.94,1.27,1.64l2,4.02h-2.22l-1.55-3.25c-.27-.57-.58-.97-.95-1.2s-.83-.35-1.4-.35h-1.57v4.8h-2.03Z"/>
            <path class="cls-3" d="m33.92,29c-.7,0-1.32-.17-1.86-.5-.53-.34-.95-.82-1.25-1.45-.3-.63-.45-1.38-.45-2.26s.15-1.62.45-2.25c.3-.62.71-1.1,1.25-1.44s1.15-.5,1.86-.5,1.28.17,1.8.5.86.79,1.03,1.35h-.18l.18-1.7h1.92c-.03.33-.06.67-.09,1.01-.03.34-.04.68-.04,1.01v6.06h-1.98l-.02-1.66h.19c-.17.55-.52,1-1.04,1.33s-1.11.5-1.78.5Zm.56-1.54c.63,0,1.14-.22,1.52-.66.38-.44.58-1.11.58-2.01s-.19-1.56-.58-2c-.38-.44-.89-.66-1.52-.66s-1.14.22-1.52.66c-.38.44-.58,1.1-.58,2s.19,1.57.57,2.01c.38.44.89.66,1.53.66Z"/>
            <path class="cls-3" d="m40.67,29.06l-.62-1.57c.35-.13.65-.29.89-.5.24-.21.43-.47.58-.8.14-.33.25-.73.31-1.22.06-.48.1-1.06.1-1.74v-2.48h6.43v8.08h-1.98v-6.54h-2.62v1.01c0,1.16-.11,2.14-.32,2.92-.21.78-.54,1.41-.99,1.86-.45.46-1.04.78-1.76.98Z"/>
            <path class="cls-3" d="m54.59,29c-1.35,0-2.42-.37-3.18-1.12-.77-.75-1.15-1.77-1.15-3.07,0-.84.17-1.58.5-2.21.33-.63.79-1.12,1.38-1.47.59-.35,1.28-.53,2.07-.53s1.43.17,1.95.5.92.79,1.19,1.39c.27.6.41,1.3.41,2.1v.53h-5.89v-1.06h4.46l-.27.22c0-.75-.16-1.32-.47-1.71-.31-.39-.77-.59-1.37-.59-.66,0-1.17.23-1.53.7s-.54,1.13-.54,1.97v.21c0,.87.22,1.53.65,1.96.43.43,1.04.65,1.83.65.46,0,.89-.06,1.29-.18.4-.12.78-.32,1.14-.6l.59,1.34c-.38.31-.84.55-1.38.72-.53.17-1.1.26-1.7.26Z"/>
            <path class="cls-3" d="m59.62,28.84v-8.08h1.98v3.17h3.65v-3.17h1.98v8.08h-1.98v-3.38h-3.65v3.38h-1.98Z"/>
            <path class="cls-3" d="m68.79,30.92v-3.6h.93c.32-.5.55-1.09.7-1.77s.22-1.51.22-2.49v-2.3h6.22v6.56h1.31v3.6h-1.7v-2.08h-5.98v2.08h-1.7Zm2.72-3.58h3.47v-5.07h-2.66v1.25c0,.71-.07,1.41-.21,2.1-.14.68-.34,1.26-.61,1.73Z"/>
            <path class="cls-3" d="m82.82,29c-.7,0-1.32-.17-1.86-.5-.53-.34-.95-.82-1.25-1.45s-.45-1.38-.45-2.26.15-1.62.45-2.25.71-1.1,1.25-1.44,1.15-.5,1.86-.5,1.28.17,1.8.5.86.79,1.03,1.35h-.18l.18-1.7h1.92c-.03.33-.06.67-.09,1.01-.03.34-.04.68-.04,1.01v6.06h-1.98l-.02-1.66h.19c-.17.55-.52,1-1.04,1.33s-1.11.5-1.78.5Zm.56-1.54c.63,0,1.14-.22,1.52-.66.38-.44.58-1.11.58-2.01s-.19-1.56-.58-2c-.38-.44-.89-.66-1.52-.66s-1.14.22-1.52.66c-.38.44-.58,1.1-.58,2s.19,1.57.57,2.01c.38.44.89.66,1.53.66Z"/>
            <path class="cls-3" d="m89.84,32.29v-9.52c0-.33-.01-.67-.03-1.01-.02-.34-.05-.68-.1-1.01h1.94l.18,1.7h-.18c.16-.57.5-1.02,1.02-1.35.52-.34,1.12-.5,1.8-.5s1.34.17,1.87.5c.53.34.95.82,1.25,1.44.3.62.45,1.37.45,2.25s-.15,1.63-.45,2.26c-.3.63-.71,1.11-1.25,1.45-.53.34-1.16.5-1.87.5-.67,0-1.26-.17-1.78-.5s-.85-.77-1.02-1.33h.18v5.12h-2Zm4.06-4.83c.64,0,1.15-.22,1.54-.66.38-.44.58-1.11.58-2.01s-.19-1.56-.58-2-.9-.66-1.54-.66-1.14.22-1.52.66-.58,1.1-.58,2,.19,1.57.58,2.01c.38.44.89.66,1.52.66Z"/>
            <path class="cls-3" d="m99.92,28.84v-8.08h1.98v3.17h3.65v-3.17h1.98v8.08h-1.98v-3.38h-3.65v3.38h-1.98Z"/>
            <path class="cls-3" d="m112.99,29c-.7,0-1.32-.17-1.86-.5-.53-.34-.95-.82-1.25-1.45s-.45-1.38-.45-2.26.15-1.62.45-2.25.71-1.1,1.25-1.44,1.15-.5,1.86-.5,1.28.17,1.8.5.86.79,1.03,1.35h-.18l.18-1.7h1.92c-.03.33-.06.67-.09,1.01-.03.34-.04.68-.04,1.01v6.06h-1.98l-.02-1.66h.19c-.17.55-.52,1-1.04,1.33s-1.11.5-1.78.5Zm.56-1.54c.63,0,1.14-.22,1.52-.66.38-.44.58-1.11.58-2.01s-.19-1.56-.58-2c-.38-.44-.89-.66-1.52-.66s-1.14.22-1.52.66c-.38.44-.58,1.1-.58,2s.19,1.57.57,2.01c.38.44.89.66,1.53.66Z"/>
            <path class="cls-3" d="m119.28,28.84l1.23-2.13c.21-.36.48-.65.79-.87.31-.22.64-.33.98-.33h.35l-.02.18c-.95,0-1.68-.21-2.19-.62-.51-.42-.77-1.02-.77-1.82s.26-1.4.79-1.83c.53-.43,1.3-.65,2.33-.65h4.02v8.08h-1.82v-2.85h-.91c-.33,0-.62.09-.87.27-.25.18-.46.42-.63.7l-1.06,1.87h-2.22Zm3.89-4.14h1.81v-2.64h-1.81c-.54,0-.95.12-1.22.35-.27.24-.41.55-.41.96s.14.75.41.98c.27.23.68.34,1.22.34Z"/>
            <path class="cls-3" d="m133.46,28.84v-8.08h7.57v8.08h-1.98v-6.54h-3.6v6.54h-1.98Z"/>
            <path class="cls-3" d="m143.36,32.29v-9.52c0-.33-.01-.67-.03-1.01-.02-.34-.05-.68-.1-1.01h1.94l.18,1.7h-.18c.16-.57.5-1.02,1.02-1.35.52-.34,1.12-.5,1.8-.5s1.34.17,1.87.5c.53.34.95.82,1.25,1.44.3.62.45,1.37.45,2.25s-.15,1.63-.45,2.26c-.3.63-.71,1.11-1.25,1.45-.53.34-1.16.5-1.87.5-.67,0-1.26-.17-1.78-.5s-.85-.77-1.02-1.33h.18v5.12h-2Zm4.06-4.83c.64,0,1.15-.22,1.54-.66.38-.44.58-1.11.58-2.01s-.19-1.56-.58-2-.9-.66-1.54-.66-1.14.22-1.52.66-.58,1.1-.58,2,.19,1.57.58,2.01c.38.44.89.66,1.52.66Z"/>
            <path class="cls-3" d="m157.15,29c-.83,0-1.55-.17-2.16-.51-.61-.34-1.08-.83-1.42-1.46-.34-.63-.5-1.38-.5-2.24s.17-1.61.5-2.23c.34-.62.81-1.11,1.42-1.45.61-.34,1.33-.51,2.16-.51s1.55.17,2.17.51c.61.34,1.09.82,1.42,1.45.34.62.5,1.37.5,2.23s-.17,1.61-.5,2.24c-.34.63-.81,1.11-1.42,1.46-.61.34-1.34.51-2.17.51Zm0-1.54c.63,0,1.13-.22,1.5-.66.37-.44.56-1.11.56-2.01s-.19-1.56-.56-2c-.37-.44-.87-.66-1.5-.66s-1.13.22-1.5.66-.56,1.1-.56,2,.19,1.57.56,2.01c.37.44.88.66,1.5.66Z"/>
            <path class="cls-3" d="m162.42,30.92v-3.6h.93c.32-.5.55-1.09.7-1.77s.22-1.51.22-2.49v-2.3h6.22v6.56h1.31v3.6h-1.7v-2.08h-5.98v2.08h-1.7Zm2.72-3.58h3.47v-5.07h-2.66v1.25c0,.71-.07,1.41-.21,2.1-.14.68-.34,1.26-.61,1.73Z"/>
            <path class="cls-3" d="m173.17,32.47l-.46-1.58c.5-.11.92-.23,1.26-.37.34-.14.62-.32.85-.54s.41-.51.56-.86l.4-.94-.05.78-3.52-8.19h2.13l2.53,6.3h-.46l2.54-6.3h2.02l-3.68,8.53c-.25.58-.51,1.05-.8,1.43-.29.38-.6.68-.93.91s-.69.41-1.09.54-.83.23-1.3.3Z"/>
            <path class="cls-3" d="m182.18,28.84v-8.08h1.98v3.17h1.22l2.37-3.17h2.14l-2.98,4.03-.43-.62c.3.03.56.11.79.24.23.13.45.31.66.54.21.23.41.52.62.87l1.7,3.02h-2.13l-1.38-2.43c-.14-.24-.28-.44-.42-.58s-.29-.24-.46-.29c-.17-.05-.38-.08-.62-.08h-1.07v3.38h-1.98Z"/>
            <path class="cls-3" d="m198.3,30.92v-2.08h-7.01v-8.08h1.98v6.54h3.42v-6.54h1.97v6.54h1.31v3.62h-1.68Z"/>
            <path class="cls-3" d="m201.46,28.84v-8.08h1.81v6.11h-.48l4.59-6.11h1.65v8.08h-1.81v-6.13h.5l-4.61,6.13h-1.65Z"/>
            <path class="cls-3" d="m210.62,28.84l1.23-2.13c.21-.36.48-.65.79-.87.31-.22.64-.33.98-.33h.35l-.02.18c-.95,0-1.68-.21-2.19-.62-.51-.42-.77-1.02-.77-1.82s.26-1.4.79-1.83c.53-.43,1.3-.65,2.33-.65h4.02v8.08h-1.82v-2.85h-.91c-.33,0-.62.09-.87.27-.25.18-.46.42-.63.7l-1.06,1.87h-2.22Zm3.89-4.14h1.81v-2.64h-1.81c-.54,0-.95.12-1.22.35-.27.24-.41.55-.41.96s.14.75.41.98c.27.23.68.34,1.22.34Z"/>
          </g>
          <g>
            <path class="cls-3" d="m36.31,121.43v-11.28h4.94c1.23,0,2.17.26,2.83.78.66.52.99,1.23.99,2.15,0,.68-.2,1.26-.61,1.73-.41.47-.97.78-1.68.94v-.24c.82.12,1.46.41,1.91.89.45.48.68,1.1.68,1.88,0,1-.35,1.78-1.04,2.33-.69.55-1.66.82-2.9.82h-5.14Zm1.98-6.5h2.61c.74,0,1.28-.14,1.64-.41.36-.27.54-.67.54-1.21s-.18-.94-.54-1.21c-.36-.27-.9-.41-1.64-.41h-2.61v3.23Zm0,4.93h2.91c.69,0,1.23-.13,1.62-.39.38-.26.58-.69.58-1.29s-.19-1.04-.58-1.3c-.38-.26-.92-.39-1.62-.39h-2.91v3.38Z"/>
            <path class="cls-3" d="m47.24,121.43v-8.08h1.81v6.11h-.48l4.59-6.11h1.65v8.08h-1.81v-6.13h.5l-4.61,6.13h-1.65Z"/>
            <path class="cls-3" d="m56.36,123.51v-3.6h.93c.32-.5.55-1.09.7-1.77.14-.68.22-1.51.22-2.49v-2.3h6.22v6.56h1.31v3.6h-1.7v-2.08h-5.98v2.08h-1.7Zm2.72-3.58h3.47v-5.07h-2.66v1.25c0,.71-.07,1.41-.21,2.1-.14.68-.34,1.26-.61,1.73Z"/>
            <path class="cls-3" d="m71.59,121.43v-8.08h1.98v3.17h1.22l2.37-3.17h2.14l-2.98,4.03-.43-.62c.3.03.56.11.79.24.23.13.45.31.66.54.21.23.41.52.62.87l1.7,3.02h-2.13l-1.38-2.43c-.14-.25-.28-.44-.42-.58s-.29-.23-.46-.29c-.17-.05-.38-.08-.62-.08h-1.07v3.38h-1.98Z"/>
            <path class="cls-3" d="m83.89,121.59c-.7,0-1.32-.17-1.86-.5s-.95-.82-1.25-1.45c-.3-.63-.45-1.38-.45-2.26s.15-1.62.45-2.25c.3-.62.71-1.1,1.25-1.44s1.15-.5,1.86-.5,1.28.17,1.8.5c.52.34.86.79,1.03,1.35h-.18l.18-1.7h1.92c-.03.33-.06.67-.09,1.01-.03.34-.04.68-.04,1.01v6.06h-1.98l-.02-1.66h.19c-.17.55-.52,1-1.04,1.33-.52.33-1.11.5-1.78.5Zm.56-1.54c.63,0,1.14-.22,1.52-.66.38-.44.58-1.11.58-2.01s-.19-1.56-.58-2c-.38-.44-.89-.66-1.52-.66s-1.14.22-1.52.66c-.38.44-.58,1.1-.58,2s.19,1.57.57,2.01c.38.44.89.66,1.53.66Z"/>
            <path class="cls-3" d="m90.65,121.66l-.62-1.57c.35-.13.65-.3.89-.5.24-.21.43-.47.58-.8.14-.32.25-.73.31-1.21.06-.49.1-1.06.1-1.74v-2.48h6.43v8.08h-1.98v-6.54h-2.62v1.01c0,1.16-.11,2.14-.32,2.92-.21.78-.54,1.41-.99,1.86-.45.46-1.03.78-1.76.98Z"/>
            <path class="cls-3" d="m104.56,121.59c-1.35,0-2.42-.37-3.18-1.12s-1.15-1.77-1.15-3.07c0-.84.17-1.58.5-2.21.33-.63.79-1.12,1.38-1.47.59-.35,1.28-.53,2.07-.53s1.43.17,1.95.5c.52.33.92.79,1.19,1.39.27.6.41,1.29.41,2.1v.53h-5.89v-1.06h4.46l-.27.22c0-.75-.16-1.32-.47-1.71-.31-.39-.77-.59-1.37-.59-.66,0-1.17.23-1.53.7-.36.47-.54,1.12-.54,1.97v.21c0,.88.22,1.53.65,1.96.43.43,1.04.65,1.83.65.46,0,.89-.06,1.29-.18.4-.12.78-.32,1.14-.6l.59,1.34c-.38.31-.84.55-1.38.72-.53.17-1.1.26-1.7.26Z"/>
            <path class="cls-3" d="m109.59,121.43v-8.08h1.98v3.17h3.65v-3.17h1.98v8.08h-1.98v-3.38h-3.65v3.38h-1.98Z"/>
            <path class="cls-3" d="m118.76,123.51v-3.6h.93c.32-.5.55-1.09.7-1.77.14-.68.22-1.51.22-2.49v-2.3h6.22v6.56h1.31v3.6h-1.7v-2.08h-5.98v2.08h-1.7Zm2.72-3.58h3.47v-5.07h-2.66v1.25c0,.71-.07,1.41-.21,2.1-.14.68-.34,1.26-.61,1.73Z"/>
            <path class="cls-3" d="m132.79,121.59c-.7,0-1.32-.17-1.86-.5s-.95-.82-1.25-1.45-.45-1.38-.45-2.26.15-1.62.45-2.25.71-1.1,1.25-1.44,1.15-.5,1.86-.5,1.28.17,1.8.5.86.79,1.03,1.35h-.18l.18-1.7h1.92c-.03.33-.06.67-.09,1.01-.03.34-.04.68-.04,1.01v6.06h-1.98l-.02-1.66h.19c-.17.55-.52,1-1.04,1.33s-1.11.5-1.78.5Zm.56-1.54c.63,0,1.14-.22,1.52-.66.38-.44.58-1.11.58-2.01s-.19-1.56-.58-2c-.38-.44-.89-.66-1.52-.66s-1.14.22-1.52.66c-.38.44-.58,1.1-.58,2s.19,1.57.57,2.01c.38.44.89.66,1.53.66Z"/>
            <path class="cls-3" d="m139.81,124.89v-9.52c0-.33-.01-.67-.03-1.01-.02-.34-.05-.68-.1-1.01h1.94l.18,1.7h-.18c.16-.57.5-1.02,1.02-1.35.52-.34,1.12-.5,1.8-.5s1.34.17,1.87.5c.53.34.95.82,1.25,1.44.3.62.45,1.37.45,2.25s-.15,1.63-.45,2.26c-.3.63-.71,1.11-1.25,1.45-.53.34-1.16.5-1.87.5-.67,0-1.26-.17-1.78-.5s-.85-.77-1.02-1.33h.18v5.12h-2Zm4.06-4.83c.64,0,1.15-.22,1.54-.66s.58-1.11.58-2.01-.19-1.56-.58-2-.9-.66-1.54-.66-1.14.22-1.52.66-.58,1.1-.58,2,.19,1.57.58,2.01.89.66,1.52.66Z"/>
            <path class="cls-3" d="m153.86,121.59c-1.35,0-2.42-.37-3.18-1.12-.77-.75-1.15-1.77-1.15-3.07,0-.84.17-1.58.5-2.21.33-.63.79-1.12,1.38-1.47.59-.35,1.28-.53,2.07-.53s1.43.17,1.95.5c.52.33.92.79,1.19,1.39.27.6.41,1.29.41,2.1v.53h-5.89v-1.06h4.46l-.27.22c0-.75-.16-1.32-.47-1.71-.31-.39-.77-.59-1.37-.59-.66,0-1.17.23-1.53.7-.36.47-.54,1.12-.54,1.97v.21c0,.88.22,1.53.65,1.96s1.04.65,1.83.65c.46,0,.89-.06,1.29-.18.4-.12.78-.32,1.14-.6l.59,1.34c-.38.31-.84.55-1.38.72-.53.17-1.1.26-1.7.26Z"/>
            <path class="cls-3" d="m158.88,121.43v-8.08h1.81v6.11h-.48l4.59-6.11h1.65v8.08h-1.81v-6.13h.5l-4.61,6.13h-1.65Zm3.78-8.82c-.53,0-1-.09-1.41-.26s-.74-.43-1.01-.75c-.27-.33-.46-.71-.58-1.16l1.02-.35c.18.49.43.85.75,1.08.32.23.73.34,1.23.34s.91-.11,1.23-.34c.32-.22.58-.58.78-1.07l.98.34c-.22.71-.59,1.26-1.11,1.62s-1.15.55-1.9.55Z"/>
          </g>
          <g>
            <path class="cls-3" d="m550.88,75.5v-9.58h-3.73v-1.7h9.52v1.7h-3.73v9.58h-2.06Z"/>
            <path class="cls-3" d="m556.77,75.5v-8.08h1.81v6.11h-.48l4.59-6.11h1.65v8.08h-1.81v-6.13h.5l-4.61,6.13h-1.65Z"/>
            <path class="cls-3" d="m566.67,78.96v-9.52c0-.33-.01-.67-.03-1.01s-.05-.68-.1-1.01h1.94l.18,1.7h-.18c.16-.56.5-1.02,1.02-1.35.52-.34,1.12-.5,1.8-.5s1.34.17,1.87.5c.53.34.95.82,1.25,1.44.3.62.45,1.37.45,2.25s-.15,1.63-.45,2.26c-.3.63-.71,1.11-1.25,1.45-.53.34-1.16.5-1.87.5-.67,0-1.26-.17-1.78-.5-.51-.33-.85-.77-1.02-1.33h.18v5.12h-2Zm4.06-4.83c.64,0,1.15-.22,1.54-.66.38-.44.58-1.11.58-2.01s-.19-1.56-.58-2c-.38-.44-.9-.66-1.54-.66s-1.14.22-1.52.66c-.38.44-.58,1.1-.58,2s.19,1.57.58,2.01c.38.44.89.66,1.52.66Z"/>
            <path class="cls-3" d="m579.93,75.67c-.7,0-1.32-.17-1.86-.5-.53-.34-.95-.82-1.25-1.45-.3-.63-.45-1.38-.45-2.26s.15-1.62.45-2.25c.3-.62.71-1.1,1.25-1.44s1.15-.5,1.86-.5,1.28.17,1.8.5c.52.34.86.79,1.03,1.35h-.18l.18-1.7h1.92c-.03.33-.06.67-.09,1.01s-.04.68-.04,1.01v6.06h-1.98l-.02-1.66h.19c-.17.55-.52,1-1.04,1.33-.52.33-1.11.5-1.78.5Zm.56-1.54c.63,0,1.14-.22,1.52-.66.38-.44.58-1.11.58-2.01s-.19-1.56-.58-2c-.38-.44-.89-.66-1.52-.66s-1.14.22-1.52.66c-.38.44-.58,1.1-.58,2s.19,1.57.57,2.01c.38.44.89.66,1.53.66Z"/>
            <path class="cls-3" d="m585.68,75.5l1.7-3.02c.21-.35.42-.64.62-.87.2-.23.41-.41.65-.54s.5-.21.8-.24l-.42.62-2.99-4.03h2.14l2.38,3.17h1.01v-3.17h1.98v3.17h.99l2.37-3.17h2.16l-3.01,4.03-.42-.62c.3.03.57.11.8.24.23.13.46.31.66.54s.41.52.62.87l1.7,3.02h-2.13l-1.38-2.43c-.14-.25-.28-.44-.42-.58s-.29-.24-.46-.29c-.17-.05-.38-.08-.62-.08h-.86v3.38h-1.98v-3.38h-.88c-.25,0-.45.03-.62.08-.17.05-.32.15-.46.29-.13.14-.27.33-.42.58l-1.38,2.43h-2.13Z"/>
          </g>
          <g>
            <path class="cls-3" d="m242.96,113.35v-1.71h2.59v-7.84h.99l-3.33,1.98v-1.95l2.93-1.76h1.47v9.57h2.43v1.71h-7.09Z"/>
            <path class="cls-3" d="m255.58,115.43v-3.6h.93c.32-.5.55-1.09.7-1.77s.22-1.51.22-2.49v-2.3h6.22v6.56h1.31v3.6h-1.7v-2.08h-5.98v2.08h-1.7Zm2.72-3.58h3.47v-5.07h-2.66v1.25c0,.71-.07,1.41-.21,2.1-.14.68-.34,1.26-.61,1.73Z"/>
            <path class="cls-3" d="m270.15,113.51c-.83,0-1.55-.17-2.16-.51s-1.08-.83-1.42-1.46c-.34-.63-.5-1.38-.5-2.24s.17-1.61.5-2.23.81-1.11,1.42-1.45,1.33-.51,2.16-.51,1.55.17,2.17.51c.61.34,1.09.82,1.42,1.45s.5,1.37.5,2.23-.17,1.61-.5,2.24c-.34.63-.81,1.11-1.42,1.46-.61.34-1.34.51-2.17.51Zm0-1.54c.63,0,1.13-.22,1.5-.66.37-.44.56-1.11.56-2.01s-.19-1.56-.56-2c-.37-.44-.88-.66-1.5-.66s-1.13.22-1.5.66c-.37.44-.56,1.1-.56,2s.19,1.56.56,2.01c.37.44.87.66,1.5.66Z"/>
            <path class="cls-3" d="m281.15,113.35v-1.71h2.59v-7.84h.99l-3.33,1.98v-1.95l2.93-1.76h1.47v9.57h2.43v1.71h-7.09Z"/>
            <path class="cls-3" d="m293.78,113.51c-1.32,0-2.34-.5-3.06-1.51s-1.07-2.45-1.07-4.31.36-3.32,1.07-4.3c.71-.98,1.73-1.47,3.06-1.47s2.35.49,3.06,1.47c.71.98,1.06,2.41,1.06,4.29s-.35,3.32-1.06,4.33c-.71,1.01-1.73,1.51-3.06,1.51Zm0-1.7c.73,0,1.26-.33,1.62-1,.35-.67.53-1.71.53-3.14s-.18-2.47-.53-3.11c-.35-.65-.89-.97-1.62-.97s-1.25.32-1.61.97c-.36.64-.54,1.68-.54,3.11s.18,2.48.54,3.14c.36.67.89,1,1.61,1Z"/>
            <path class="cls-3" d="m243.99,128.35v-8.08h1.87v6.54h2.85v-6.54h1.86v6.54h2.85v-6.54h1.87v8.08h-11.3Z"/>
            <path class="cls-3" d="m259.31,128.35v-6.51h-2.77v-1.57h7.54v1.57h-2.78v6.51h-1.98Z"/>
            <path class="cls-3" d="m265.42,129.3h-1.65l4.21-12.98h1.65l-4.21,12.98Z"/>
            <path class="cls-3" d="m269.47,131.81v-9.52c0-.33-.01-.67-.03-1.01s-.05-.68-.1-1.01h1.94l.18,1.7h-.18c.16-.57.5-1.02,1.02-1.35.52-.34,1.12-.5,1.8-.5s1.34.17,1.87.5c.53.34.95.82,1.25,1.44.3.62.45,1.37.45,2.25s-.15,1.63-.45,2.26c-.3.63-.71,1.11-1.25,1.45-.53.34-1.16.5-1.87.5-.67,0-1.26-.17-1.78-.5-.51-.33-.85-.77-1.02-1.33h.18v5.12h-2Zm4.06-4.83c.64,0,1.15-.22,1.54-.66.38-.44.58-1.11.58-2.01s-.19-1.56-.58-2c-.38-.44-.9-.66-1.54-.66s-1.14.22-1.52.66c-.38.44-.58,1.1-.58,2s.19,1.56.58,2.01c.38.44.89.66,1.52.66Z"/>
            <path class="cls-3" d="m279.32,131.99l-.46-1.58c.5-.11.92-.23,1.26-.37.34-.14.62-.32.85-.54.22-.22.41-.51.56-.86l.4-.94-.05.78-3.52-8.19h2.13l2.53,6.3h-.46l2.54-6.3h2.02l-3.68,8.53c-.25.58-.51,1.05-.8,1.43-.29.38-.6.68-.93.91-.33.23-.69.41-1.09.54-.39.13-.83.23-1.3.3Z"/>
            <path class="cls-3" d="m292.12,128.51c-1.27,0-2.28-.38-3.03-1.15-.75-.77-1.13-1.89-1.13-3.38v-1.38c0-1.52.35-2.75,1.04-3.68s1.74-1.54,3.14-1.84l2.96-.67.54,1.57-3.33.74c-.55.12-1.01.34-1.38.66-.36.32-.63.71-.82,1.16s-.27.93-.27,1.44v.85h-.27c.12-.48.31-.9.59-1.26s.63-.64,1.06-.84.91-.3,1.46-.3c.68,0,1.28.16,1.8.47s.92.77,1.22,1.36.45,1.3.45,2.12-.17,1.57-.5,2.19-.81,1.1-1.41,1.43-1.31.5-2.12.5Zm-.06-1.52c.66,0,1.18-.21,1.54-.63.37-.42.55-1.05.55-1.9s-.19-1.45-.56-1.88c-.37-.43-.89-.65-1.54-.65s-1.16.21-1.54.64c-.37.43-.56,1.04-.56,1.82,0,.86.19,1.51.56,1.94.37.43.88.65,1.54.65Z"/>
          </g>
          <g>
            <path class="cls-3" d="m367.07,113.35v-1.71h2.59v-7.84h.99l-3.33,1.98v-1.95l2.93-1.76h1.47v9.57h2.43v1.71h-7.09Z"/>
            <path class="cls-3" d="m376.67,113.35v-1.71h2.59v-7.84h.99l-3.33,1.98v-1.95l2.93-1.76h1.47v9.57h2.43v1.71h-7.09Z"/>
            <path class="cls-3" d="m389.3,115.43v-3.6h.93c.32-.5.55-1.09.7-1.77s.22-1.51.22-2.49v-2.3h6.22v6.56h1.31v3.6h-1.7v-2.08h-5.98v2.08h-1.7Zm2.72-3.58h3.47v-5.07h-2.66v1.25c0,.71-.07,1.41-.21,2.1-.14.68-.34,1.26-.61,1.73Z"/>
            <path class="cls-3" d="m403.86,113.51c-.83,0-1.55-.17-2.16-.51s-1.08-.83-1.42-1.46c-.34-.63-.5-1.38-.5-2.24s.17-1.61.5-2.23.81-1.11,1.42-1.45,1.33-.51,2.16-.51,1.55.17,2.17.51c.61.34,1.09.82,1.42,1.45s.5,1.37.5,2.23-.17,1.61-.5,2.24c-.34.63-.81,1.11-1.42,1.46-.61.34-1.34.51-2.17.51Zm0-1.54c.63,0,1.13-.22,1.5-.66.37-.44.56-1.11.56-2.01s-.19-1.56-.56-2c-.37-.44-.88-.66-1.5-.66s-1.13.22-1.5.66c-.37.44-.56,1.1-.56,2s.19,1.56.56,2.01c.37.44.87.66,1.5.66Z"/>
            <path class="cls-3" d="m417.97,113.51c-.49,0-.98-.05-1.46-.16-.49-.11-.94-.26-1.36-.45-.42-.19-.78-.42-1.08-.69l.67-1.55c.5.37,1.02.65,1.54.84.53.19,1.08.28,1.66.28.69,0,1.23-.17,1.62-.52.39-.35.58-.81.58-1.4s-.19-1.08-.56-1.45c-.37-.37-.89-.55-1.54-.55-.46,0-.88.09-1.26.26-.38.18-.72.45-1.02.81h-1.36v-6.86h7.01v1.7h-5.06v3.58h-.5c.28-.37.65-.66,1.11-.86.46-.2.98-.3,1.56-.3.73,0,1.35.15,1.89.45.53.3.95.72,1.25,1.26.3.54.45,1.17.45,1.9s-.17,1.38-.5,1.94c-.34.56-.82,1-1.44,1.31s-1.36.47-2.22.47Z"/>
            <path class="cls-3" d="m427.49,113.51c-1.32,0-2.34-.5-3.06-1.51s-1.07-2.45-1.07-4.31.36-3.32,1.07-4.3c.71-.98,1.73-1.47,3.06-1.47s2.35.49,3.06,1.47c.71.98,1.06,2.41,1.06,4.29s-.35,3.32-1.06,4.33c-.71,1.01-1.73,1.51-3.06,1.51Zm0-1.7c.73,0,1.26-.33,1.62-1,.35-.67.53-1.71.53-3.14s-.18-2.47-.53-3.11c-.35-.65-.89-.97-1.62-.97s-1.25.32-1.61.97c-.36.64-.54,1.68-.54,3.11s.18,2.48.54,3.14c.36.67.89,1,1.61,1Z"/>
            <path class="cls-3" d="m372.91,128.35v-8.08h1.87v6.54h2.85v-6.54h1.86v6.54h2.85v-6.54h1.87v8.08h-11.3Z"/>
            <path class="cls-3" d="m388.22,128.35v-6.51h-2.77v-1.57h7.54v1.57h-2.78v6.51h-1.98Z"/>
            <path class="cls-3" d="m394.33,129.3h-1.65l4.21-12.98h1.65l-4.21,12.98Z"/>
            <path class="cls-3" d="m398.38,131.81v-9.52c0-.33-.01-.67-.03-1.01s-.05-.68-.1-1.01h1.94l.18,1.7h-.18c.16-.57.5-1.02,1.02-1.35.52-.34,1.12-.5,1.8-.5s1.34.17,1.87.5c.53.34.95.82,1.25,1.44.3.62.45,1.37.45,2.25s-.15,1.63-.45,2.26c-.3.63-.71,1.11-1.25,1.45-.53.34-1.16.5-1.87.5-.67,0-1.26-.17-1.78-.5-.51-.33-.85-.77-1.02-1.33h.18v5.12h-2Zm4.06-4.83c.64,0,1.15-.22,1.54-.66.38-.44.58-1.11.58-2.01s-.19-1.56-.58-2c-.38-.44-.9-.66-1.54-.66s-1.14.22-1.52.66c-.38.44-.58,1.1-.58,2s.19,1.56.58,2.01c.38.44.89.66,1.52.66Z"/>
            <path class="cls-3" d="m408.23,131.99l-.46-1.58c.5-.11.92-.23,1.26-.37.34-.14.62-.32.85-.54.22-.22.41-.51.56-.86l.4-.94-.05.78-3.52-8.19h2.13l2.53,6.3h-.46l2.54-6.3h2.02l-3.68,8.53c-.25.58-.51,1.05-.8,1.43-.29.38-.6.68-.93.91-.33.23-.69.41-1.09.54-.39.13-.83.23-1.3.3Z"/>
            <path class="cls-3" d="m421.03,128.51c-1.27,0-2.28-.38-3.03-1.15-.75-.77-1.13-1.89-1.13-3.38v-1.38c0-1.52.35-2.75,1.04-3.68s1.74-1.54,3.14-1.84l2.96-.67.54,1.57-3.33.74c-.55.12-1.01.34-1.38.66-.36.32-.63.71-.82,1.16s-.27.93-.27,1.44v.85h-.27c.12-.48.31-.9.59-1.26s.63-.64,1.06-.84.91-.3,1.46-.3c.68,0,1.28.16,1.8.47s.92.77,1.22,1.36.45,1.3.45,2.12-.17,1.57-.5,2.19-.81,1.1-1.41,1.43-1.31.5-2.12.5Zm-.06-1.52c.66,0,1.18-.21,1.54-.63.37-.42.55-1.05.55-1.9s-.19-1.45-.56-1.88c-.37-.43-.89-.65-1.54-.65s-1.16.21-1.54.64c-.37.43-.56,1.04-.56,1.82,0,.86.19,1.51.56,1.94.37.43.88.65,1.54.65Z"/>
          </g>
          <g>
            <path class="cls-3" d="m382.24,165.42v-1.39h2.62v-8.48h.83l-3.2,1.95v-1.6l2.83-1.76h1.2v9.89h2.46v1.39h-6.75Z"/>
            <path class="cls-3" d="m391.25,165.42v-1.23l3.87-4.05c.5-.52.87-1.01,1.12-1.47.25-.46.37-.93.37-1.42,0-.61-.19-1.07-.57-1.38-.38-.31-.93-.46-1.64-.46-.57,0-1.1.1-1.59.3-.5.2-.97.51-1.43.93l-.58-1.26c.45-.42,1.01-.75,1.67-1s1.37-.38,2.12-.38c1.17,0,2.08.27,2.71.8.63.53.95,1.3.95,2.29,0,.7-.17,1.38-.51,2.02-.34.65-.85,1.31-1.54,1.99l-3.34,3.38v-.45h5.86v1.39h-7.47Z"/>
            <path class="cls-3" d="m405.07,168.88v-9.58c0-.31-.01-.63-.04-.95-.03-.33-.06-.65-.09-.98h1.57l.16,1.82h-.18c.17-.61.51-1.09,1.03-1.44.52-.35,1.13-.53,1.85-.53s1.34.17,1.87.5c.53.34.95.81,1.24,1.43.29.62.44,1.37.44,2.24s-.15,1.61-.44,2.24c-.29.63-.71,1.11-1.24,1.44-.53.33-1.16.5-1.87.5s-1.31-.17-1.83-.52c-.52-.35-.86-.82-1.03-1.42h.18v5.25h-1.62Zm3.9-4.58c.7,0,1.27-.25,1.69-.74.42-.49.63-1.22.63-2.18s-.21-1.68-.63-2.17-.98-.73-1.69-.73-1.27.24-1.69.73-.63,1.21-.63,2.17.21,1.69.63,2.18c.42.49.98.74,1.69.74Z"/>
            <path class="cls-3" d="m414.42,165.42v-1.9h1.9v1.9h-1.9Z"/>
          </g>
          <g>
            <path class="cls-3" d="m743.43,165.42v-1.39h2.62v-8.48h.83l-3.2,1.95v-1.6l2.83-1.76h1.2v9.89h2.46v1.39h-6.75Z"/>
            <path class="cls-3" d="m755.9,165.57c-1.3,0-2.3-.5-3-1.5-.7-1-1.05-2.43-1.05-4.3s.35-3.34,1.05-4.31,1.7-1.46,3-1.46,2.31.49,3.01,1.46c.69.98,1.04,2.41,1.04,4.3s-.35,3.31-1.05,4.31c-.7,1-1.7,1.5-3,1.5Zm0-1.39c.82,0,1.43-.36,1.83-1.07.4-.71.6-1.83.6-3.34s-.2-2.64-.6-3.34c-.4-.7-1.01-1.05-1.83-1.05s-1.42.35-1.82,1.05c-.41.7-.61,1.81-.61,3.32s.21,2.64.62,3.36,1.02,1.07,1.82,1.07Z"/>
            <path class="cls-3" d="m762.46,167.39l-.7-.54c.31-.33.52-.63.63-.91s.17-.56.17-.86l.35.35h-1.26v-1.9h1.9v1.3c0,.48-.08.92-.24,1.34-.16.41-.44.82-.85,1.24Z"/>
            <path class="cls-3" d="m769.46,165.57c-.49,0-.98-.05-1.46-.16-.48-.11-.93-.26-1.34-.46-.42-.2-.78-.43-1.09-.71l.58-1.26c.51.4,1.04.69,1.58.89.54.2,1.11.3,1.7.3.76,0,1.35-.2,1.78-.59s.65-.92.65-1.58-.21-1.23-.62-1.66c-.41-.42-.98-.63-1.7-.63-.5,0-.96.1-1.37.3s-.77.51-1.08.93h-1.15v-6.78h6.83v1.39h-5.25v4.06h-.42c.29-.41.67-.72,1.16-.94.49-.22,1.03-.34,1.64-.34.73,0,1.35.15,1.89.45s.95.71,1.24,1.25c.29.53.44,1.16.44,1.89s-.16,1.36-.49,1.91c-.33.55-.79.98-1.39,1.29-.6.31-1.31.46-2.14.46Z"/>
            <path class="cls-3" d="m779.65,168.88v-9.58c0-.31-.01-.63-.04-.95-.03-.33-.06-.65-.09-.98h1.57l.16,1.82h-.18c.17-.61.51-1.09,1.03-1.44.52-.35,1.13-.53,1.85-.53s1.34.17,1.87.5.95.81,1.24,1.43c.29.62.44,1.37.44,2.24s-.15,1.61-.44,2.24c-.29.63-.71,1.11-1.24,1.44-.53.33-1.16.5-1.87.5s-1.31-.17-1.83-.52-.86-.82-1.03-1.42h.18v5.25h-1.62Zm3.9-4.58c.7,0,1.27-.25,1.69-.74.42-.49.63-1.22.63-2.18s-.21-1.68-.63-2.17c-.42-.49-.98-.73-1.69-.73s-1.27.24-1.69.73c-.42.49-.63,1.21-.63,2.17s.21,1.69.63,2.18c.42.49.98.74,1.69.74Z"/>
            <path class="cls-3" d="m788.99,165.42v-1.9h1.9v1.9h-1.9Z"/>
          </g>
          <g>
            <path class="cls-3" d="m495,113.51c-.49,0-.98-.05-1.46-.16-.49-.11-.94-.26-1.36-.45-.42-.19-.78-.42-1.08-.69l.67-1.55c.5.37,1.02.65,1.54.84.53.19,1.08.28,1.66.28.69,0,1.23-.17,1.62-.52.39-.35.58-.81.58-1.4s-.19-1.08-.56-1.45c-.37-.37-.89-.55-1.54-.55-.46,0-.88.09-1.26.26-.38.18-.72.45-1.02.81h-1.36v-6.86h7.01v1.7h-5.06v3.58h-.5c.28-.37.65-.66,1.11-.86s.98-.3,1.56-.3c.73,0,1.35.15,1.89.45.53.3.95.72,1.25,1.26.3.54.45,1.17.45,1.9s-.17,1.38-.5,1.94c-.34.56-.82,1-1.44,1.31s-1.36.47-2.22.47Z"/>
            <path class="cls-3" d="m501.49,113.35v-1.71h2.59v-7.84h.99l-3.33,1.98v-1.95l2.93-1.76h1.47v9.57h2.43v1.71h-7.09Z"/>
            <path class="cls-3" d="m514.12,115.43v-3.6h.93c.32-.5.55-1.09.7-1.77s.22-1.51.22-2.49v-2.3h6.22v6.56h1.31v3.6h-1.7v-2.08h-5.98v2.08h-1.7Zm2.72-3.58h3.47v-5.07h-2.66v1.25c0,.71-.07,1.41-.21,2.1-.14.68-.34,1.26-.61,1.73Z"/>
            <path class="cls-3" d="m528.68,113.51c-.83,0-1.55-.17-2.16-.51s-1.08-.83-1.42-1.46c-.34-.63-.5-1.38-.5-2.24s.17-1.61.5-2.23.81-1.11,1.42-1.45,1.33-.51,2.16-.51,1.55.17,2.17.51c.61.34,1.09.82,1.42,1.45s.5,1.37.5,2.23-.17,1.61-.5,2.24c-.34.63-.81,1.11-1.42,1.46-.61.34-1.34.51-2.17.51Zm0-1.54c.63,0,1.13-.22,1.5-.66.37-.44.56-1.11.56-2.01s-.19-1.56-.56-2c-.37-.44-.88-.66-1.5-.66s-1.13.22-1.5.66c-.37.44-.56,1.1-.56,2s.19,1.56.56,2.01c.37.44.87.66,1.5.66Z"/>
            <path class="cls-3" d="m539.69,113.35v-1.71h2.59v-7.84h.99l-3.33,1.98v-1.95l2.93-1.76h1.47v9.57h2.43v1.71h-7.09Z"/>
            <path class="cls-3" d="m552.39,113.51c-.49,0-.98-.05-1.46-.16-.49-.11-.94-.26-1.36-.45-.42-.19-.78-.42-1.08-.69l.67-1.55c.5.37,1.02.65,1.54.84.53.19,1.08.28,1.66.28.69,0,1.23-.17,1.62-.52.39-.35.58-.81.58-1.4s-.19-1.08-.56-1.45c-.37-.37-.89-.55-1.54-.55-.46,0-.88.09-1.26.26-.38.18-.72.45-1.02.81h-1.36v-6.86h7.01v1.7h-5.06v3.58h-.5c.28-.37.65-.66,1.11-.86.46-.2.98-.3,1.56-.3.73,0,1.35.15,1.89.45.53.3.95.72,1.25,1.26.3.54.45,1.17.45,1.9s-.17,1.38-.5,1.94c-.34.56-.82,1-1.44,1.31s-1.36.47-2.22.47Z"/>
            <path class="cls-3" d="m561.91,113.51c-1.32,0-2.34-.5-3.06-1.51s-1.07-2.45-1.07-4.31.36-3.32,1.07-4.3c.71-.98,1.73-1.47,3.06-1.47s2.35.49,3.06,1.47c.71.98,1.06,2.41,1.06,4.29s-.35,3.32-1.06,4.33c-.71,1.01-1.73,1.51-3.06,1.51Zm0-1.7c.73,0,1.26-.33,1.62-1,.35-.67.53-1.71.53-3.14s-.18-2.47-.53-3.11c-.35-.65-.89-.97-1.62-.97s-1.25.32-1.61.97c-.36.64-.54,1.68-.54,3.11s.18,2.48.54,3.14c.36.67.89,1,1.61,1Z"/>
            <path class="cls-3" d="m502.53,128.35v-8.08h1.87v6.54h2.85v-6.54h1.86v6.54h2.85v-6.54h1.87v8.08h-11.3Z"/>
            <path class="cls-3" d="m517.84,128.35v-6.51h-2.77v-1.57h7.54v1.57h-2.78v6.51h-1.98Z"/>
            <path class="cls-3" d="m523.95,129.3h-1.65l4.21-12.98h1.65l-4.21,12.98Z"/>
            <path class="cls-3" d="m528,131.81v-9.52c0-.33-.01-.67-.03-1.01s-.05-.68-.1-1.01h1.94l.18,1.7h-.18c.16-.57.5-1.02,1.02-1.35.52-.34,1.12-.5,1.8-.5s1.34.17,1.87.5c.53.34.95.82,1.25,1.44.3.62.45,1.37.45,2.25s-.15,1.63-.45,2.26c-.3.63-.71,1.11-1.25,1.45-.53.34-1.16.5-1.87.5-.67,0-1.26-.17-1.78-.5-.51-.33-.85-.77-1.02-1.33h.18v5.12h-2Zm4.06-4.83c.64,0,1.15-.22,1.54-.66.38-.44.58-1.11.58-2.01s-.19-1.56-.58-2c-.38-.44-.9-.66-1.54-.66s-1.14.22-1.52.66c-.38.44-.58,1.1-.58,2s.19,1.56.58,2.01c.38.44.89.66,1.52.66Z"/>
            <path class="cls-3" d="m537.85,131.99l-.46-1.58c.5-.11.92-.23,1.26-.37.34-.14.62-.32.85-.54.22-.22.41-.51.56-.86l.4-.94-.05.78-3.52-8.19h2.13l2.53,6.3h-.46l2.54-6.3h2.02l-3.68,8.53c-.25.58-.51,1.05-.8,1.43-.29.38-.6.68-.93.91-.33.23-.69.41-1.09.54-.39.13-.83.23-1.3.3Z"/>
            <path class="cls-3" d="m550.65,128.51c-1.27,0-2.28-.38-3.03-1.15-.75-.77-1.13-1.89-1.13-3.38v-1.38c0-1.52.35-2.75,1.04-3.68s1.74-1.54,3.14-1.84l2.96-.67.54,1.57-3.33.74c-.55.12-1.01.34-1.38.66-.36.32-.63.71-.82,1.16s-.27.93-.27,1.44v.85h-.27c.12-.48.31-.9.59-1.26s.63-.64,1.06-.84.91-.3,1.46-.3c.68,0,1.28.16,1.8.47s.92.77,1.22,1.36.45,1.3.45,2.12-.17,1.57-.5,2.19-.81,1.1-1.41,1.43-1.31.5-2.12.5Zm-.06-1.52c.66,0,1.18-.21,1.54-.63.37-.42.55-1.05.55-1.9s-.19-1.45-.56-1.88c-.37-.43-.89-.65-1.54-.65s-1.16.21-1.54.64c-.37.43-.56,1.04-.56,1.82,0,.86.19,1.51.56,1.94.37.43.88.65,1.54.65Z"/>
          </g>
          <g>
            <path class="cls-3" d="m639.24,113.51c-1.27,0-2.28-.38-3.03-1.15-.75-.77-1.13-1.89-1.13-3.38v-1.38c0-1.52.35-2.75,1.04-3.68.69-.93,1.74-1.54,3.14-1.84l2.96-.67.54,1.57-3.33.74c-.55.12-1.01.34-1.38.66-.36.32-.63.71-.82,1.16-.18.45-.27.93-.27,1.44v.85h-.27c.12-.48.31-.9.59-1.26s.63-.64,1.06-.84c.43-.2.91-.3,1.46-.3.68,0,1.28.16,1.8.47.52.31.93.77,1.22,1.36.3.59.45,1.3.45,2.12s-.17,1.57-.5,2.19-.81,1.1-1.41,1.43-1.31.5-2.12.5Zm-.06-1.52c.66,0,1.18-.21,1.54-.63.37-.42.55-1.05.55-1.9s-.19-1.45-.56-1.88-.89-.65-1.54-.65-1.16.21-1.54.64c-.37.43-.56,1.04-.56,1.82,0,.86.19,1.51.56,1.94.37.43.89.65,1.54.65Z"/>
            <path class="cls-3" d="m648.88,113.51c-.83,0-1.55-.17-2.16-.51s-1.08-.83-1.42-1.46c-.34-.63-.5-1.38-.5-2.24s.17-1.61.5-2.23.81-1.11,1.42-1.45,1.33-.51,2.16-.51,1.55.17,2.17.51c.61.34,1.09.82,1.42,1.45s.5,1.37.5,2.23-.17,1.61-.5,2.24c-.34.63-.81,1.11-1.42,1.46-.61.34-1.34.51-2.17.51Zm0-1.54c.63,0,1.13-.22,1.5-.66.37-.44.56-1.11.56-2.01s-.19-1.56-.56-2c-.37-.44-.88-.66-1.5-.66s-1.13.22-1.5.66c-.37.44-.56,1.1-.56,2s.19,1.56.56,2.01c.37.44.87.66,1.5.66Z"/>
            <path class="cls-3" d="m654.49,113.58l-.62-1.57c.35-.13.65-.3.89-.5.24-.21.43-.47.58-.8s.25-.73.31-1.22.1-1.06.1-1.74v-2.48h6.43v8.08h-1.98v-6.54h-2.62v1.01c0,1.16-.11,2.14-.32,2.92-.21.78-.54,1.41-.99,1.86-.45.46-1.03.79-1.76.98Z"/>
            <path class="cls-3" d="m664.44,113.35v-8.08h1.98v2.71h2.13c1.08,0,1.89.23,2.43.68s.82,1.11.82,1.96c0,.55-.13,1.04-.38,1.45-.26.41-.63.73-1.11.95-.49.22-1.07.34-1.75.34h-4.11Zm1.98-1.31h1.86c.54,0,.96-.11,1.25-.34s.43-.58.43-1.05-.14-.81-.42-1.03-.7-.33-1.26-.33h-1.86v2.75Z"/>
            <path class="cls-3" d="m673.47,113.35v-8.08h1.87v6.54h2.85v-6.54h1.86v6.54h2.85v-6.54h1.87v8.08h-11.3Z"/>
            <path class="cls-3" d="m691,113.51c-1.35,0-2.42-.37-3.18-1.12-.77-.75-1.15-1.77-1.15-3.07,0-.84.17-1.58.5-2.21.33-.63.79-1.12,1.38-1.47.59-.35,1.28-.53,2.07-.53s1.43.17,1.95.5c.52.33.92.79,1.19,1.39.27.6.41,1.3.41,2.1v.53h-5.89v-1.06h4.46l-.27.22c0-.75-.16-1.32-.47-1.71-.31-.39-.77-.59-1.37-.59-.66,0-1.17.23-1.53.7-.36.47-.54,1.13-.54,1.97v.21c0,.87.22,1.53.65,1.96.43.43,1.04.65,1.83.65.46,0,.89-.06,1.29-.18.4-.12.78-.32,1.14-.6l.59,1.34c-.38.31-.84.55-1.38.72-.53.17-1.1.26-1.7.26Z"/>
            <path class="cls-3" d="m701.05,113.35v-1.71h2.59v-7.84h.99l-3.33,1.98v-1.95l2.93-1.76h1.47v9.57h2.43v1.71h-7.09Z"/>
            <path class="cls-3" d="m710.12,113.35v-1.52l3.74-3.9c.47-.49.82-.94,1.04-1.36.22-.42.34-.84.34-1.28,0-.54-.17-.95-.51-1.23-.34-.28-.84-.42-1.49-.42-.52,0-1.02.09-1.5.28-.48.19-.95.48-1.41.87l-.67-1.54c.46-.41,1.03-.73,1.7-.98.68-.25,1.39-.37,2.14-.37,1.22,0,2.15.27,2.8.82.65.54.98,1.32.98,2.34,0,.7-.17,1.37-.5,2.01-.33.63-.84,1.3-1.54,1.99l-3.12,3.12v-.54h5.6v1.71h-7.6Z"/>
            <path class="cls-3" d="m723.35,113.51c-.49,0-.98-.05-1.46-.16-.49-.11-.94-.26-1.36-.45-.42-.19-.78-.42-1.08-.69l.67-1.55c.5.37,1.02.65,1.54.84.53.19,1.08.28,1.66.28.69,0,1.23-.17,1.62-.52.39-.35.58-.81.58-1.4s-.19-1.08-.56-1.45c-.37-.37-.89-.55-1.54-.55-.46,0-.88.09-1.26.26-.38.18-.72.45-1.02.81h-1.36v-6.86h7.01v1.7h-5.06v3.58h-.5c.28-.37.65-.66,1.11-.86.46-.2.98-.3,1.56-.3.73,0,1.35.15,1.89.45.53.3.95.72,1.25,1.26.3.54.45,1.17.45,1.9s-.17,1.38-.5,1.94c-.34.56-.82,1-1.44,1.31s-1.36.47-2.22.47Z"/>
            <path class="cls-3" d="m655.31,128.35v-8.08h1.87v6.54h2.85v-6.54h1.86v6.54h2.85v-6.54h1.87v8.08h-11.3Z"/>
            <path class="cls-3" d="m670.62,128.35v-6.51h-2.77v-1.57h7.54v1.57h-2.78v6.51h-1.98Z"/>
            <path class="cls-3" d="m676.73,129.3h-1.65l4.21-12.98h1.65l-4.21,12.98Z"/>
            <path class="cls-3" d="m680.78,131.81v-9.52c0-.33-.01-.67-.03-1.01s-.05-.68-.1-1.01h1.94l.18,1.7h-.18c.16-.57.5-1.02,1.02-1.35.52-.34,1.12-.5,1.8-.5s1.34.17,1.87.5c.53.34.95.82,1.25,1.44.3.62.45,1.37.45,2.25s-.15,1.63-.45,2.26c-.3.63-.71,1.11-1.25,1.45-.53.34-1.16.5-1.87.5-.67,0-1.26-.17-1.78-.5-.51-.33-.85-.77-1.02-1.33h.18v5.12h-2Zm4.06-4.83c.64,0,1.15-.22,1.54-.66.38-.44.58-1.11.58-2.01s-.19-1.56-.58-2c-.38-.44-.9-.66-1.54-.66s-1.14.22-1.52.66c-.38.44-.58,1.1-.58,2s.19,1.56.58,2.01c.38.44.89.66,1.52.66Z"/>
            <path class="cls-3" d="m690.64,131.99l-.46-1.58c.5-.11.92-.23,1.26-.37.34-.14.62-.32.85-.54.22-.22.41-.51.56-.86l.4-.94-.05.78-3.52-8.19h2.13l2.53,6.3h-.46l2.54-6.3h2.02l-3.68,8.53c-.25.58-.51,1.05-.8,1.43-.29.38-.6.68-.93.91-.33.23-.69.41-1.09.54-.39.13-.83.23-1.3.3Z"/>
            <path class="cls-3" d="m703.44,128.51c-1.27,0-2.28-.38-3.03-1.15-.75-.77-1.13-1.89-1.13-3.38v-1.38c0-1.52.35-2.75,1.04-3.68s1.74-1.54,3.14-1.84l2.96-.67.54,1.57-3.33.74c-.55.12-1.01.34-1.38.66-.36.32-.63.71-.82,1.16s-.27.93-.27,1.44v.85h-.27c.12-.48.31-.9.59-1.26s.63-.64,1.06-.84.91-.3,1.46-.3c.68,0,1.28.16,1.8.47s.92.77,1.22,1.36.45,1.3.45,2.12-.17,1.57-.5,2.19-.81,1.1-1.41,1.43-1.31.5-2.12.5Zm-.06-1.52c.66,0,1.18-.21,1.54-.63.37-.42.55-1.05.55-1.9s-.19-1.45-.56-1.88c-.37-.43-.89-.65-1.54-.65s-1.16.21-1.54.64c-.37.43-.56,1.04-.56,1.82,0,.86.19,1.51.56,1.94.37.43.88.65,1.54.65Z"/>
          </g>
          <g>
            <path class="cls-3" d="m810.05,113.51c-1.27,0-2.28-.38-3.03-1.15-.75-.77-1.13-1.89-1.13-3.38v-1.38c0-1.52.35-2.75,1.04-3.68.69-.93,1.74-1.54,3.14-1.84l2.96-.67.54,1.57-3.33.74c-.55.12-1.01.34-1.38.66-.36.32-.63.71-.82,1.16-.18.45-.27.93-.27,1.44v.85h-.27c.12-.48.31-.9.59-1.26s.63-.64,1.06-.84c.43-.2.91-.3,1.46-.3.68,0,1.28.16,1.8.47.52.31.93.77,1.22,1.36.3.59.45,1.3.45,2.12s-.17,1.57-.5,2.19-.81,1.1-1.41,1.43-1.31.5-2.12.5Zm-.06-1.52c.66,0,1.18-.21,1.54-.63.37-.42.55-1.05.55-1.9s-.19-1.45-.56-1.88-.89-.65-1.54-.65-1.16.21-1.54.64c-.37.43-.56,1.04-.56,1.82,0,.86.19,1.51.56,1.94.37.43.89.65,1.54.65Z"/>
            <path class="cls-3" d="m819.68,113.51c-.83,0-1.55-.17-2.16-.51s-1.08-.83-1.42-1.46c-.34-.63-.5-1.38-.5-2.24s.17-1.61.5-2.23.81-1.11,1.42-1.45,1.33-.51,2.16-.51,1.55.17,2.17.51c.61.34,1.09.82,1.42,1.45s.5,1.37.5,2.23-.17,1.61-.5,2.24c-.34.63-.81,1.11-1.42,1.46-.61.34-1.34.51-2.17.51Zm0-1.54c.63,0,1.13-.22,1.5-.66.37-.44.56-1.11.56-2.01s-.19-1.56-.56-2c-.37-.44-.88-.66-1.5-.66s-1.13.22-1.5.66c-.37.44-.56,1.1-.56,2s.19,1.56.56,2.01c.37.44.87.66,1.5.66Z"/>
            <path class="cls-3" d="m825.3,113.58l-.62-1.57c.35-.13.65-.3.89-.5.24-.21.43-.47.58-.8s.25-.73.31-1.22.1-1.06.1-1.74v-2.48h6.43v8.08h-1.98v-6.54h-2.62v1.01c0,1.16-.11,2.14-.32,2.92-.21.78-.54,1.41-.99,1.86-.45.46-1.03.79-1.76.98Z"/>
            <path class="cls-3" d="m835.25,113.35v-8.08h1.98v2.71h2.13c1.08,0,1.89.23,2.43.68s.82,1.11.82,1.96c0,.55-.13,1.04-.38,1.45-.26.41-.63.73-1.11.95-.49.22-1.07.34-1.75.34h-4.11Zm1.98-1.31h1.86c.54,0,.96-.11,1.25-.34s.43-.58.43-1.05-.14-.81-.42-1.03-.7-.33-1.26-.33h-1.86v2.75Z"/>
            <path class="cls-3" d="m844.27,113.35v-8.08h1.87v6.54h2.85v-6.54h1.86v6.54h2.85v-6.54h1.87v8.08h-11.3Z"/>
            <path class="cls-3" d="m861.81,113.51c-1.35,0-2.42-.37-3.18-1.12-.77-.75-1.15-1.77-1.15-3.07,0-.84.17-1.58.5-2.21.33-.63.79-1.12,1.38-1.47.59-.35,1.28-.53,2.07-.53s1.43.17,1.95.5c.52.33.92.79,1.19,1.39.27.6.41,1.3.41,2.1v.53h-5.89v-1.06h4.46l-.27.22c0-.75-.16-1.32-.47-1.71-.31-.39-.77-.59-1.37-.59-.66,0-1.17.23-1.53.7-.36.47-.54,1.13-.54,1.97v.21c0,.87.22,1.53.65,1.96.43.43,1.04.65,1.83.65.46,0,.89-.06,1.29-.18.4-.12.78-.32,1.14-.6l.59,1.34c-.38.31-.84.55-1.38.72-.53.17-1.1.26-1.7.26Z"/>
            <path class="cls-3" d="m871.33,113.35v-1.52l3.74-3.9c.47-.49.82-.94,1.04-1.36.22-.42.34-.84.34-1.28,0-.54-.17-.95-.51-1.23-.34-.28-.84-.42-1.49-.42-.52,0-1.02.09-1.5.28-.48.19-.95.48-1.41.87l-.67-1.54c.46-.41,1.03-.73,1.7-.98.68-.25,1.39-.37,2.14-.37,1.22,0,2.15.27,2.8.82.65.54.98,1.32.98,2.34,0,.7-.17,1.37-.5,2.01-.33.63-.84,1.3-1.54,1.99l-3.12,3.12v-.54h5.6v1.71h-7.6Z"/>
            <path class="cls-3" d="m884.56,113.51c-.49,0-.98-.05-1.46-.16-.49-.11-.94-.26-1.36-.45-.42-.19-.78-.42-1.08-.69l.67-1.55c.5.37,1.02.65,1.54.84.53.19,1.08.28,1.66.28.69,0,1.23-.17,1.62-.52.39-.35.58-.81.58-1.4s-.19-1.08-.56-1.45c-.37-.37-.89-.55-1.54-.55-.46,0-.88.09-1.26.26-.38.18-.72.45-1.02.81h-1.36v-6.86h7.01v1.7h-5.06v3.58h-.5c.28-.37.65-.66,1.11-.86.46-.2.98-.3,1.56-.3.73,0,1.35.15,1.89.45.53.3.95.72,1.25,1.26.3.54.45,1.17.45,1.9s-.17,1.38-.5,1.94c-.34.56-.82,1-1.44,1.31s-1.36.47-2.22.47Z"/>
            <path class="cls-3" d="m894.08,113.51c-1.32,0-2.34-.5-3.06-1.51s-1.07-2.45-1.07-4.31.36-3.32,1.07-4.3c.71-.98,1.73-1.47,3.06-1.47s2.35.49,3.06,1.47c.71.98,1.06,2.41,1.06,4.29s-.35,3.32-1.06,4.33c-.71,1.01-1.73,1.51-3.06,1.51Zm0-1.7c.73,0,1.26-.33,1.62-1,.35-.67.53-1.71.53-3.14s-.18-2.47-.53-3.11c-.35-.65-.89-.97-1.62-.97s-1.25.32-1.61.97c-.36.64-.54,1.68-.54,3.11s.18,2.48.54,3.14c.36.67.89,1,1.61,1Z"/>
            <path class="cls-3" d="m826.11,128.35v-8.08h1.87v6.54h2.85v-6.54h1.86v6.54h2.85v-6.54h1.87v8.08h-11.3Z"/>
            <path class="cls-3" d="m841.42,128.35v-6.51h-2.77v-1.57h7.54v1.57h-2.78v6.51h-1.98Z"/>
            <path class="cls-3" d="m847.54,129.3h-1.65l4.21-12.98h1.65l-4.21,12.98Z"/>
            <path class="cls-3" d="m851.58,131.81v-9.52c0-.33-.01-.67-.03-1.01s-.05-.68-.1-1.01h1.94l.18,1.7h-.18c.16-.57.5-1.02,1.02-1.35.52-.34,1.12-.5,1.8-.5s1.34.17,1.87.5c.53.34.95.82,1.25,1.44.3.62.45,1.37.45,2.25s-.15,1.63-.45,2.26c-.3.63-.71,1.11-1.25,1.45-.53.34-1.16.5-1.87.5-.67,0-1.26-.17-1.78-.5-.51-.33-.85-.77-1.02-1.33h.18v5.12h-2Zm4.06-4.83c.64,0,1.15-.22,1.54-.66.38-.44.58-1.11.58-2.01s-.19-1.56-.58-2c-.38-.44-.9-.66-1.54-.66s-1.14.22-1.52.66c-.38.44-.58,1.1-.58,2s.19,1.56.58,2.01c.38.44.89.66,1.52.66Z"/>
            <path class="cls-3" d="m861.44,131.99l-.46-1.58c.5-.11.92-.23,1.26-.37.34-.14.62-.32.85-.54.22-.22.41-.51.56-.86l.4-.94-.05.78-3.52-8.19h2.13l2.53,6.3h-.46l2.54-6.3h2.02l-3.68,8.53c-.25.58-.51,1.05-.8,1.43-.29.38-.6.68-.93.91-.33.23-.69.41-1.09.54-.39.13-.83.23-1.3.3Z"/>
            <path class="cls-3" d="m874.24,128.51c-1.27,0-2.28-.38-3.03-1.15-.75-.77-1.13-1.89-1.13-3.38v-1.38c0-1.52.35-2.75,1.04-3.68s1.74-1.54,3.14-1.84l2.96-.67.54,1.57-3.33.74c-.55.12-1.01.34-1.38.66-.36.32-.63.71-.82,1.16s-.27.93-.27,1.44v.85h-.27c.12-.48.31-.9.59-1.26s.63-.64,1.06-.84.91-.3,1.46-.3c.68,0,1.28.16,1.8.47s.92.77,1.22,1.36.45,1.3.45,2.12-.17,1.57-.5,2.19-.81,1.1-1.41,1.43-1.31.5-2.12.5Zm-.06-1.52c.66,0,1.18-.21,1.54-.63.37-.42.55-1.05.55-1.9s-.19-1.45-.56-1.88c-.37-.43-.89-.65-1.54-.65s-1.16.21-1.54.64c-.37.43-.56,1.04-.56,1.82,0,.86.19,1.51.56,1.94.37.43.88.65,1.54.65Z"/>
          </g>
        </g>
      </g>
      <g>
        <g>
          <rect class="cls-1" x=".5" y="210.97" width="937.93" height="183.76" rx="10" ry="10"/>
          <line class="cls-2" x1=".5" y1="256.91" x2="938.43" y2="256.91"/>
          <line class="cls-2" x1=".5" y1="302.85" x2="938.43" y2="302.85"/>
          <line class="cls-2" x1="361.28" y1="302.54" x2="361.28" y2="394.72"/>
          <line class="cls-2" x1=".5" y1="348.78" x2="938.43" y2="348.78"/>
        </g>
        <g>
          <g>
            <path class="cls-3" d="m17.14,234.8c0-1.18.22-2.21.65-3.07.43-.86,1.05-1.53,1.86-2.01.81-.47,1.78-.71,2.9-.71s2.07.24,2.88.71,1.44,1.14,1.88,2.01c.44.86.66,1.88.66,3.06s-.22,2.21-.66,3.08c-.44.87-1.07,1.54-1.88,2.02s-1.77.72-2.88.72-2.08-.24-2.89-.72-1.43-1.15-1.86-2.02c-.44-.87-.66-1.89-.66-3.06Zm2.16,0c0,1.27.27,2.26.82,2.98s1.35,1.07,2.43,1.07,1.85-.36,2.42-1.07c.56-.71.85-1.71.85-2.98s-.28-2.27-.84-2.98c-.56-.71-1.37-1.06-2.42-1.06s-1.89.35-2.43,1.06c-.54.7-.82,1.7-.82,2.98Z"/>
            <path class="cls-3" d="m34.74,243.9v-5.02h.18c-.17.55-.46.98-.86,1.28s-.88.45-1.45.45-1.11-.17-1.56-.52c-.45-.35-.81-.83-1.06-1.46-.26-.63-.38-1.37-.38-2.22s.12-1.61.38-2.23.6-1.11,1.06-1.45c.45-.34.98-.51,1.58-.51.57,0,1.05.15,1.45.45s.69.72.86,1.26h-.18v-5.25h1.98v5.25h-.18c.17-.54.46-.96.86-1.26.4-.3.88-.45,1.45-.45.6,0,1.12.17,1.58.51.45.34.8.82,1.06,1.45s.38,1.37.38,2.23-.12,1.59-.38,2.22c-.25.63-.6,1.12-1.06,1.46-.45.35-.98.52-1.58.52-.55,0-1.03-.15-1.43-.45-.4-.3-.69-.73-.87-1.28h.18v5.02h-1.98Zm-1.55-4.8c.49,0,.88-.22,1.16-.67.28-.45.42-1.12.42-2.03s-.14-1.57-.43-2.02c-.29-.45-.67-.68-1.15-.68s-.88.23-1.17.68c-.29.45-.43,1.13-.43,2.02s.14,1.58.43,2.03c.29.45.68.67,1.17.67Zm5.09,0c.49,0,.88-.22,1.17-.67.29-.45.43-1.12.43-2.03s-.15-1.57-.44-2.02c-.29-.45-.68-.68-1.16-.68s-.88.23-1.16.68c-.28.45-.42,1.13-.42,2.02s.14,1.58.42,2.03c.28.45.67.67,1.16.67Z"/>
            <path class="cls-3" d="m47.52,240.6c-.83,0-1.56-.17-2.18-.51s-1.11-.83-1.45-1.46c-.34-.63-.51-1.39-.51-2.26s.17-1.62.52-2.24.83-1.09,1.45-1.42c.62-.33,1.34-.5,2.18-.5.53,0,1.05.08,1.56.25.51.17.92.4,1.24.71l-.61,1.39c-.29-.27-.61-.47-.97-.6s-.71-.2-1.05-.2c-.71,0-1.27.22-1.67.67-.4.45-.6,1.1-.6,1.95s.2,1.51.6,1.97.96.69,1.67.69c.33,0,.67-.06,1.03-.19s.69-.33.98-.59l.61,1.38c-.33.31-.75.55-1.26.72-.51.17-1.02.26-1.54.26Z"/>
            <path class="cls-3" d="m56,240.6c-1.35,0-2.42-.37-3.18-1.12-.77-.75-1.15-1.77-1.15-3.07,0-.84.17-1.58.5-2.21.33-.63.79-1.12,1.38-1.47.59-.35,1.28-.53,2.07-.53s1.43.17,1.95.5c.52.33.92.79,1.19,1.39.27.6.41,1.3.41,2.1v.53h-5.89v-1.06h4.46l-.27.22c0-.75-.16-1.32-.47-1.71-.31-.39-.77-.59-1.37-.59-.66,0-1.17.23-1.53.7-.36.47-.54,1.13-.54,1.97v.21c0,.87.22,1.53.65,1.96.43.43,1.04.65,1.83.65.46,0,.89-.06,1.29-.18.4-.12.78-.32,1.14-.6l.59,1.34c-.38.31-.84.55-1.38.72-.53.17-1.1.26-1.7.26Z"/>
            <path class="cls-3" d="m62.77,240.44v-6.51h-2.77v-1.57h7.54v1.57h-2.78v6.51h-1.98Z"/>
            <path class="cls-3" d="m68.77,240.44v-8.08h1.98v3.17h3.65v-3.17h1.98v8.08h-1.98v-3.38h-3.65v3.38h-1.98Z"/>
            <path class="cls-3" d="m81.84,240.6c-.7,0-1.32-.17-1.86-.5s-.95-.82-1.25-1.45c-.3-.63-.45-1.38-.45-2.26s.15-1.62.45-2.25c.3-.62.71-1.1,1.25-1.44s1.15-.5,1.86-.5,1.28.17,1.8.5.86.79,1.03,1.35h-.18l.18-1.7h1.92c-.03.33-.06.67-.09,1.01-.03.34-.04.68-.04,1.01v6.06h-1.98l-.02-1.66h.19c-.17.55-.52,1-1.04,1.33-.52.33-1.11.5-1.78.5Zm.56-1.54c.63,0,1.14-.22,1.52-.66.38-.44.58-1.11.58-2.01s-.19-1.56-.58-2c-.38-.44-.89-.66-1.52-.66s-1.14.22-1.52.66c-.38.44-.58,1.1-.58,2s.19,1.56.57,2.01c.38.44.89.66,1.53.66Z"/>
            <path class="cls-3" d="m88.13,240.44l1.23-2.13c.21-.36.48-.65.79-.87.31-.22.64-.33.98-.33h.35l-.02.18c-.95,0-1.68-.21-2.19-.62-.51-.42-.77-1.02-.77-1.82s.26-1.4.79-1.83c.53-.43,1.3-.65,2.33-.65h4.02v8.08h-1.82v-2.85h-.91c-.33,0-.62.09-.87.27-.25.18-.46.42-.63.71l-1.06,1.87h-2.22Zm3.89-4.14h1.81v-2.64h-1.81c-.54,0-.95.12-1.22.35-.27.23-.41.55-.41.96,0,.43.14.75.41.98.27.23.68.34,1.22.34Z"/>
            <path class="cls-3" d="m102.31,240.44v-8.08h7.57v8.08h-1.98v-6.54h-3.6v6.54h-1.98Z"/>
            <path class="cls-3" d="m116.11,240.6c-1.35,0-2.42-.37-3.18-1.12-.77-.75-1.15-1.77-1.15-3.07,0-.84.17-1.58.5-2.21.33-.63.79-1.12,1.38-1.47.59-.35,1.28-.53,2.07-.53s1.43.17,1.95.5c.52.33.92.79,1.19,1.39.27.6.41,1.3.41,2.1v.53h-5.89v-1.06h4.46l-.27.22c0-.75-.16-1.32-.47-1.71-.31-.39-.77-.59-1.37-.59-.66,0-1.17.23-1.53.7-.36.47-.54,1.13-.54,1.97v.21c0,.87.22,1.53.65,1.96.43.43,1.04.65,1.83.65.46,0,.89-.06,1.29-.18.4-.12.78-.32,1.14-.6l.59,1.34c-.38.31-.84.55-1.38.72-.53.17-1.1.26-1.7.26Z"/>
            <path class="cls-3" d="m126.27,240.44v-2.94c-.3.14-.61.25-.93.32-.32.07-.66.11-1.01.11-1.18,0-2.07-.28-2.65-.85-.58-.57-.87-1.41-.87-2.53v-2.19h1.98v2.02c0,.68.15,1.18.45,1.48.3.3.78.46,1.44.46.31,0,.59-.03.83-.1.25-.06.48-.17.7-.3v-3.55h1.98v8.08h-1.94Z"/>
            <path class="cls-3" d="m133.67,240.6c-.7,0-1.32-.17-1.86-.5s-.95-.82-1.25-1.45c-.3-.63-.45-1.38-.45-2.26s.15-1.62.45-2.25c.3-.62.71-1.1,1.25-1.44s1.15-.5,1.86-.5,1.28.17,1.8.5.86.79,1.03,1.35h-.18l.18-1.7h1.92c-.03.33-.06.67-.09,1.01-.03.34-.04.68-.04,1.01v6.06h-1.98l-.02-1.66h.19c-.17.55-.52,1-1.04,1.33-.52.33-1.11.5-1.78.5Zm.56-1.54c.63,0,1.14-.22,1.52-.66.38-.44.58-1.11.58-2.01s-.19-1.56-.58-2c-.38-.44-.89-.66-1.52-.66s-1.14.22-1.52.66c-.38.44-.58,1.1-.58,2s.19,1.56.57,2.01c.38.44.89.66,1.53.66Z"/>
            <path class="cls-3" d="m142.37,240.44v-6.51h-2.77v-1.57h7.54v1.57h-2.78v6.51h-1.98Z"/>
            <path class="cls-3" d="m148.37,240.44v-8.08h1.98v2.71h2.13c1.08,0,1.89.23,2.43.68s.82,1.11.82,1.96c0,.55-.13,1.04-.38,1.45-.26.41-.63.73-1.11.95-.49.22-1.07.34-1.75.34h-4.11Zm1.98-1.31h1.86c.54,0,.96-.11,1.25-.34s.43-.58.43-1.05-.14-.81-.42-1.03c-.28-.22-.7-.33-1.26-.33h-1.86v2.75Z"/>
            <path class="cls-3" d="m161.78,240.44v-8.08h1.98v3.17h1.22l2.37-3.17h2.14l-2.98,4.03-.43-.62c.3.03.56.11.79.24.23.13.45.31.66.54s.41.52.62.87l1.7,3.02h-2.13l-1.38-2.43c-.14-.25-.28-.44-.42-.58s-.29-.23-.46-.29c-.17-.05-.38-.08-.62-.08h-1.07v3.38h-1.98Z"/>
            <path class="cls-3" d="m174.08,240.6c-.7,0-1.32-.17-1.86-.5s-.95-.82-1.25-1.45c-.3-.63-.45-1.38-.45-2.26s.15-1.62.45-2.25c.3-.62.71-1.1,1.25-1.44s1.15-.5,1.86-.5,1.28.17,1.8.5.86.79,1.03,1.35h-.18l.18-1.7h1.92c-.03.33-.06.67-.09,1.01-.03.34-.04.68-.04,1.01v6.06h-1.98l-.02-1.66h.19c-.17.55-.52,1-1.04,1.33-.52.33-1.11.5-1.78.5Zm.56-1.54c.63,0,1.14-.22,1.52-.66.38-.44.58-1.11.58-2.01s-.19-1.56-.58-2c-.38-.44-.89-.66-1.52-.66s-1.14.22-1.52.66c-.38.44-.58,1.1-.58,2s.19,1.56.57,2.01c.38.44.89.66,1.53.66Z"/>
            <path class="cls-3" d="m181.11,243.9v-9.52c0-.33-.01-.67-.03-1.01s-.05-.68-.1-1.01h1.94l.18,1.7h-.18c.16-.57.5-1.02,1.02-1.35.52-.34,1.12-.5,1.8-.5s1.34.17,1.87.5c.53.34.95.82,1.25,1.44.3.62.45,1.37.45,2.25s-.15,1.63-.45,2.26c-.3.63-.71,1.11-1.25,1.45-.53.34-1.16.5-1.87.5-.67,0-1.26-.17-1.78-.5-.51-.33-.85-.77-1.02-1.33h.18v5.12h-2Zm4.06-4.83c.64,0,1.15-.22,1.54-.66.38-.44.58-1.11.58-2.01s-.19-1.56-.58-2-.9-.66-1.54-.66-1.14.22-1.52.66-.58,1.1-.58,2,.19,1.56.58,2.01c.38.44.89.66,1.52.66Z"/>
            <path class="cls-3" d="m191.19,240.44v-8.08h1.66l2.78,4.83,2.78-4.83h1.66v8.08h-1.76v-5.84h.37l-2.59,4.53h-.93l-2.59-4.53h.37v5.84h-1.76Z"/>
            <path class="cls-3" d="m205.54,240.6c-.7,0-1.32-.17-1.86-.5s-.95-.82-1.25-1.45c-.3-.63-.45-1.38-.45-2.26s.15-1.62.45-2.25c.3-.62.71-1.1,1.25-1.44s1.15-.5,1.86-.5,1.28.17,1.8.5.86.79,1.03,1.35h-.18l.18-1.7h1.92c-.03.33-.06.67-.09,1.01-.03.34-.04.68-.04,1.01v6.06h-1.98l-.02-1.66h.19c-.17.55-.52,1-1.04,1.33-.52.33-1.11.5-1.78.5Zm.56-1.54c.63,0,1.14-.22,1.52-.66.38-.44.58-1.11.58-2.01s-.19-1.56-.58-2c-.38-.44-.89-.66-1.52-.66s-1.14.22-1.52.66c-.38.44-.58,1.1-.58,2s.19,1.56.57,2.01c.38.44.89.66,1.53.66Z"/>
            <path class="cls-3" d="m212.5,240.44v-8.08h1.98v3.17h3.65v-3.17h1.98v8.08h-1.98v-3.38h-3.65v3.38h-1.98Z"/>
            <path class="cls-3" d="m222.39,240.44v-8.08h1.98v3.17h3.65v-3.17h1.98v8.08h-1.98v-3.38h-3.65v3.38h-1.98Z"/>
            <path class="cls-3" d="m232.27,240.44v-8.08h1.98v2.71h2.13c1.08,0,1.89.23,2.43.68s.82,1.11.82,1.96c0,.55-.13,1.04-.38,1.45-.26.41-.63.73-1.11.95-.49.22-1.07.34-1.75.34h-4.11Zm1.98-1.31h1.86c.54,0,.96-.11,1.25-.34s.43-.58.43-1.05-.14-.81-.42-1.03c-.28-.22-.7-.33-1.26-.33h-1.86v2.75Zm6.38,1.31v-8.08h1.98v8.08h-1.98Z"/>
            <path class="cls-3" d="m243.71,240.44l3.76-4.62v.91l-3.55-4.37h2.37l2.32,2.99h-.72l2.32-2.99h2.35l-3.52,4.37v-.91l3.74,4.62h-2.38l-2.51-3.21h.72l-2.53,3.21h-2.37Z"/>
            <path class="cls-3" d="m258.29,240.44v-8.08h1.98v3.17h1.22l2.37-3.17h2.14l-2.98,4.03-.43-.62c.3.03.56.11.79.24.23.13.45.31.66.54s.41.52.62.87l1.7,3.02h-2.13l-1.38-2.43c-.14-.25-.28-.44-.42-.58s-.29-.23-.46-.29c-.17-.05-.38-.08-.62-.08h-1.07v3.38h-1.98Z"/>
            <path class="cls-3" d="m270.59,240.6c-.7,0-1.32-.17-1.86-.5s-.95-.82-1.25-1.45c-.3-.63-.45-1.38-.45-2.26s.15-1.62.45-2.25c.3-.62.71-1.1,1.25-1.44s1.15-.5,1.86-.5,1.28.17,1.8.5.86.79,1.03,1.35h-.18l.18-1.7h1.92c-.03.33-.06.67-.09,1.01-.03.34-.04.68-.04,1.01v6.06h-1.98l-.02-1.66h.19c-.17.55-.52,1-1.04,1.33-.52.33-1.11.5-1.78.5Zm.56-1.54c.63,0,1.14-.22,1.52-.66.38-.44.58-1.11.58-2.01s-.19-1.56-.58-2c-.38-.44-.89-.66-1.52-.66s-1.14.22-1.52.66c-.38.44-.58,1.1-.58,2s.19,1.56.57,2.01c.38.44.89.66,1.53.66Z"/>
            <path class="cls-3" d="m277.34,240.67l-.62-1.57c.35-.13.65-.3.89-.5.24-.21.43-.47.58-.8.14-.33.25-.73.31-1.22.06-.49.1-1.06.1-1.74v-2.48h6.43v8.08h-1.98v-6.54h-2.62v1.01c0,1.16-.11,2.14-.32,2.92-.21.78-.54,1.41-.99,1.86-.45.46-1.04.79-1.76.98Z"/>
            <path class="cls-3" d="m291.26,240.6c-1.35,0-2.42-.37-3.18-1.12-.77-.75-1.15-1.77-1.15-3.07,0-.84.17-1.58.5-2.21.33-.63.79-1.12,1.38-1.47.59-.35,1.28-.53,2.07-.53s1.43.17,1.95.5c.52.33.92.79,1.19,1.39.27.6.41,1.3.41,2.1v.53h-5.89v-1.06h4.46l-.27.22c0-.75-.16-1.32-.47-1.71-.31-.39-.77-.59-1.37-.59-.66,0-1.17.23-1.53.7-.36.47-.54,1.13-.54,1.97v.21c0,.87.22,1.53.65,1.96.43.43,1.04.65,1.83.65.46,0,.89-.06,1.29-.18.4-.12.78-.32,1.14-.6l.59,1.34c-.38.31-.84.55-1.38.72-.53.17-1.1.26-1.7.26Z"/>
            <path class="cls-3" d="m296.29,240.44v-8.08h1.98v3.17h3.65v-3.17h1.98v8.08h-1.98v-3.38h-3.65v3.38h-1.98Z"/>
            <path class="cls-3" d="m305.46,242.52v-3.6h.93c.32-.5.55-1.09.7-1.77s.22-1.51.22-2.49v-2.3h6.22v6.56h1.31v3.6h-1.7v-2.08h-5.98v2.08h-1.7Zm2.72-3.58h3.47v-5.07h-2.66v1.25c0,.71-.07,1.41-.21,2.1s-.34,1.26-.61,1.73Z"/>
            <path class="cls-3" d="m319.49,240.6c-.7,0-1.32-.17-1.86-.5s-.95-.82-1.25-1.45c-.3-.63-.45-1.38-.45-2.26s.15-1.62.45-2.25c.3-.62.71-1.1,1.25-1.44s1.15-.5,1.86-.5,1.28.17,1.8.5.86.79,1.03,1.35h-.18l.18-1.7h1.92c-.03.33-.06.67-.09,1.01-.03.34-.04.68-.04,1.01v6.06h-1.98l-.02-1.66h.19c-.17.55-.52,1-1.04,1.33-.52.33-1.11.5-1.78.5Zm.56-1.54c.63,0,1.14-.22,1.52-.66.38-.44.58-1.11.58-2.01s-.19-1.56-.58-2c-.38-.44-.89-.66-1.52-.66s-1.14.22-1.52.66c-.38.44-.58,1.1-.58,2s.19,1.56.57,2.01c.38.44.89.66,1.53.66Z"/>
            <path class="cls-3" d="m326.51,243.9v-9.52c0-.33-.01-.67-.03-1.01s-.05-.68-.1-1.01h1.94l.18,1.7h-.18c.16-.57.5-1.02,1.02-1.35.52-.34,1.12-.5,1.8-.5s1.34.17,1.87.5c.53.34.95.82,1.25,1.44.3.62.45,1.37.45,2.25s-.15,1.63-.45,2.26c-.3.63-.71,1.11-1.25,1.45-.53.34-1.16.5-1.87.5-.67,0-1.26-.17-1.78-.5-.51-.33-.85-.77-1.02-1.33h.18v5.12h-2Zm4.06-4.83c.64,0,1.15-.22,1.54-.66.38-.44.58-1.11.58-2.01s-.19-1.56-.58-2-.9-.66-1.54-.66-1.14.22-1.52.66-.58,1.1-.58,2,.19,1.56.58,2.01c.38.44.89.66,1.52.66Z"/>
            <path class="cls-3" d="m340.56,240.6c-1.35,0-2.42-.37-3.18-1.12-.77-.75-1.15-1.77-1.15-3.07,0-.84.17-1.58.5-2.21.33-.63.79-1.12,1.38-1.47.59-.35,1.28-.53,2.07-.53s1.43.17,1.95.5c.52.33.92.79,1.19,1.39.27.6.41,1.3.41,2.1v.53h-5.89v-1.06h4.46l-.27.22c0-.75-.16-1.32-.47-1.71-.31-.39-.77-.59-1.37-.59-.66,0-1.17.23-1.53.7-.36.47-.54,1.13-.54,1.97v.21c0,.87.22,1.53.65,1.96.43.43,1.04.65,1.83.65.46,0,.89-.06,1.29-.18.4-.12.78-.32,1.14-.6l.59,1.34c-.38.31-.84.55-1.38.72-.53.17-1.1.26-1.7.26Z"/>
            <path class="cls-3" d="m345.58,240.44v-8.08h1.81v6.11h-.48l4.59-6.11h1.65v8.08h-1.81v-6.13h.5l-4.61,6.13h-1.65Zm3.78-8.82c-.53,0-1-.09-1.41-.26-.41-.18-.74-.43-1.01-.75-.27-.32-.46-.71-.58-1.16l1.02-.35c.18.49.43.85.75,1.08.32.23.73.34,1.23.34s.91-.11,1.23-.34c.32-.22.58-.58.78-1.07l.98.34c-.22.71-.59,1.26-1.11,1.62-.52.37-1.15.55-1.9.55Z"/>
          </g>
          <g>
            <path class="cls-3" d="m362.1,286.71v-1.39h2.62v-8.48h.83l-3.2,1.95v-1.6l2.83-1.76h1.2v9.89h2.46v1.39h-6.75Z"/>
            <path class="cls-3" d="m374.58,286.85c-1.3,0-2.3-.5-3-1.5-.7-1-1.05-2.43-1.05-4.29s.35-3.34,1.05-4.31,1.7-1.46,3-1.46,2.31.49,3.01,1.46c.69.98,1.04,2.41,1.04,4.3s-.35,3.32-1.05,4.31c-.7,1-1.7,1.5-3,1.5Zm0-1.39c.82,0,1.43-.36,1.83-1.07.4-.71.6-1.83.6-3.34s-.2-2.64-.6-3.34c-.4-.7-1.01-1.05-1.83-1.05s-1.42.35-1.82,1.05c-.41.7-.61,1.81-.61,3.32s.21,2.65.62,3.36c.41.71,1.02,1.07,1.82,1.07Z"/>
            <path class="cls-3" d="m384.18,286.85c-1.3,0-2.3-.5-3-1.5-.7-1-1.05-2.43-1.05-4.29s.35-3.34,1.05-4.31,1.7-1.46,3-1.46,2.31.49,3.01,1.46c.69.98,1.04,2.41,1.04,4.3s-.35,3.32-1.05,4.31c-.7,1-1.7,1.5-3,1.5Zm0-1.39c.82,0,1.43-.36,1.83-1.07.4-.71.6-1.83.6-3.34s-.2-2.64-.6-3.34c-.4-.7-1.01-1.05-1.83-1.05s-1.42.35-1.82,1.05c-.41.7-.61,1.81-.61,3.32s.21,2.65.62,3.36c.41.71,1.02,1.07,1.82,1.07Z"/>
            <path class="cls-3" d="m389.11,286.71l3.66-4.54v.77l-3.47-4.29h1.94l2.45,3.15h-.58l2.45-3.15h1.92l-3.44,4.27v-.74l3.65,4.53h-1.94l-2.64-3.38h.58l-2.66,3.38h-1.92Z"/>
            <path class="cls-3" d="m399.43,286.71l5.54-10.51v.64h-6.18v-1.41h7.68v1.23l-5.22,10.05h-1.82Z"/>
            <path class="cls-3" d="m412.23,286.85c-1.3,0-2.3-.5-3-1.5-.7-1-1.05-2.43-1.05-4.29s.35-3.34,1.05-4.31,1.7-1.46,3-1.46,2.31.49,3.01,1.46c.69.98,1.04,2.41,1.04,4.3s-.35,3.32-1.05,4.31c-.7,1-1.7,1.5-3,1.5Zm0-1.39c.82,0,1.43-.36,1.83-1.07.4-.71.6-1.83.6-3.34s-.2-2.64-.6-3.34c-.4-.7-1.01-1.05-1.83-1.05s-1.42.35-1.82,1.05c-.41.7-.61,1.81-.61,3.32s.21,2.65.62,3.36c.41.71,1.02,1.07,1.82,1.07Z"/>
            <path class="cls-3" d="m422.52,286.71v-8.06h1.34l2.91,5.15,2.91-5.15h1.34v8.06h-1.42v-6.26h.35l-2.8,4.96h-.77l-2.8-4.96h.35v6.26h-1.42Z"/>
            <path class="cls-3" d="m433.46,286.71v-8.06h1.34l2.91,5.15,2.91-5.15h1.34v8.06h-1.42v-6.26h.35l-2.8,4.96h-.77l-2.8-4.96h.35v6.26h-1.42Z"/>
            <path class="cls-3" d="m444.95,288.68l-.7-.54c.31-.33.52-.63.63-.91.11-.28.17-.57.17-.87l.35.35h-1.26v-1.9h1.9v1.29c0,.48-.08.93-.24,1.34-.16.41-.44.82-.85,1.24Z"/>
            <path class="cls-3" d="m457.21,286.71v-2.34h-5.22v-1.18l5.49-7.76h1.34v7.65h1.68v1.3h-1.68v2.34h-1.62Zm0-3.63v-5.68h.37l-4.29,6.08v-.4h3.92Z"/>
            <path class="cls-3" d="m465.04,286.1v-3.39h-3.34v-1.18h3.34v-3.31h1.22v3.31h3.34v1.18h-3.34v3.39h-1.22Z"/>
            <path class="cls-3" d="m476.41,286.71v-2.34h-5.22v-1.18l5.49-7.76h1.34v7.65h1.68v1.3h-1.68v2.34h-1.62Zm0-3.63v-5.68h.37l-4.29,6.08v-.4h3.92Z"/>
            <path class="cls-3" d="m481.81,288.68l-.7-.54c.31-.33.52-.63.63-.91.11-.28.17-.57.17-.87l.35.35h-1.26v-1.9h1.9v1.29c0,.48-.08.93-.24,1.34-.16.41-.44.82-.85,1.24Z"/>
            <path class="cls-3" d="m490.04,286.71v-1.39h2.62v-8.48h.83l-3.2,1.95v-1.6l2.83-1.76h1.2v9.89h2.46v1.39h-6.75Z"/>
            <path class="cls-3" d="m499.64,286.71v-1.39h2.62v-8.48h.83l-3.2,1.95v-1.6l2.83-1.76h1.2v9.89h2.46v1.39h-6.75Z"/>
            <path class="cls-3" d="m512.28,286.85c-.49,0-.98-.05-1.46-.16-.48-.11-.93-.26-1.34-.46s-.78-.44-1.09-.71l.58-1.26c.51.39,1.04.69,1.58.89.54.2,1.11.29,1.7.29.76,0,1.35-.2,1.78-.59s.65-.92.65-1.58-.21-1.23-.62-1.66c-.41-.42-.98-.63-1.7-.63-.5,0-.96.1-1.37.3s-.77.51-1.08.93h-1.15v-6.78h6.83v1.39h-5.25v4.06h-.42c.29-.41.67-.72,1.16-.94.49-.22,1.03-.34,1.64-.34.72,0,1.35.15,1.89.45.53.3.95.71,1.24,1.25.29.53.44,1.16.44,1.89s-.16,1.36-.49,1.91c-.33.55-.79.98-1.39,1.29-.6.31-1.31.46-2.14.46Z"/>
            <path class="cls-3" d="m518.04,282.96v-1.3h4.69v1.3h-4.69Z"/>
            <path class="cls-3" d="m525.76,286.71v-1.39h2.62v-8.48h.83l-3.2,1.95v-1.6l2.83-1.76h1.2v9.89h2.46v1.39h-6.75Z"/>
            <path class="cls-3" d="m538.13,286.85c-.77,0-1.5-.11-2.21-.34-.7-.23-1.29-.56-1.76-.98l.58-1.26c.52.41,1.06.7,1.6.9.54.19,1.12.29,1.74.29.79,0,1.39-.16,1.8-.5.41-.33.62-.81.62-1.42s-.21-1.07-.62-1.38c-.41-.31-1.02-.47-1.82-.47h-1.74v-1.34h1.62c.68,0,1.23-.17,1.63-.52.41-.35.61-.82.61-1.42,0-.54-.19-.96-.56-1.26-.37-.29-.91-.44-1.6-.44-1.17,0-2.2.41-3.09,1.23l-.56-1.26c.44-.44.99-.78,1.66-1.02.67-.24,1.38-.36,2.11-.36,1.13,0,2.02.26,2.67.78s.98,1.23.98,2.15c0,.69-.19,1.29-.58,1.78-.39.49-.92.82-1.59.98v-.18c.8.13,1.42.45,1.85.95.43.51.65,1.14.65,1.9,0,1-.35,1.79-1.06,2.36-.71.57-1.68.86-2.92.86Z"/>
            <path class="cls-3" d="m547.84,286.85c-1.3,0-2.3-.5-3-1.5-.7-1-1.05-2.43-1.05-4.29s.35-3.34,1.05-4.31,1.7-1.46,3-1.46,2.31.49,3.01,1.46,1.04,2.41,1.04,4.3-.35,3.32-1.05,4.31c-.7,1-1.7,1.5-3,1.5Zm0-1.39c.82,0,1.43-.36,1.83-1.07.4-.71.6-1.83.6-3.34s-.2-2.64-.6-3.34c-.4-.7-1.01-1.05-1.83-1.05s-1.42.35-1.82,1.05-.61,1.81-.61,3.32.21,2.65.62,3.36c.41.71,1.02,1.07,1.82,1.07Z"/>
            <path class="cls-3" d="m558.13,286.71v-8.06h5.81v1.29h-4.19v6.77h-1.62Z"/>
            <path class="cls-3" d="m565.17,287.62h-1.36l4.19-12.91h1.36l-4.19,12.91Z"/>
            <path class="cls-3" d="m569.25,286.71v-8.06h1.34l2.91,5.15,2.91-5.15h1.34v8.06h-1.42v-6.26h.35l-2.8,4.96h-.77l-2.8-4.96h.35v6.26h-1.42Z"/>
            <path class="cls-3" d="m579.75,281.38v-.72l2.26-2.36c.29-.3.51-.59.65-.86.14-.27.21-.54.21-.83,0-.35-.11-.62-.33-.8-.22-.18-.54-.27-.96-.27-.33,0-.64.06-.93.18s-.57.3-.83.54l-.34-.74c.26-.24.59-.44.98-.58.39-.15.8-.22,1.24-.22.68,0,1.21.16,1.58.47.37.31.56.76.56,1.33,0,.41-.1.8-.3,1.18s-.5.76-.9,1.16l-1.95,1.97v-.26h3.41v.81h-4.36Z"/>
          </g>
          <g>
            <path class="cls-3" d="m133.34,332.28v-11.28h2.03v4.8h1.92l-.42.27,3.33-5.07h2.27l-3.71,5.46-.78-.58c.73.11,1.33.35,1.82.74.49.39.91.94,1.27,1.64l2,4.02h-2.22l-1.55-3.25c-.27-.57-.58-.97-.95-1.2-.37-.23-.83-.35-1.4-.35h-1.57v4.8h-2.03Z"/>
            <path class="cls-3" d="m147.85,332.44c-.83,0-1.55-.17-2.16-.51s-1.08-.83-1.42-1.46-.5-1.38-.5-2.24.17-1.61.5-2.23.81-1.11,1.42-1.45,1.33-.51,2.16-.51,1.55.17,2.17.51c.61.34,1.09.82,1.42,1.45s.5,1.37.5,2.23-.17,1.61-.5,2.24-.81,1.12-1.42,1.46c-.61.34-1.34.51-2.17.51Zm0-1.54c.63,0,1.13-.22,1.5-.66.37-.44.56-1.11.56-2.01s-.19-1.56-.56-2c-.37-.44-.88-.66-1.5-.66s-1.13.22-1.5.66c-.37.44-.56,1.1-.56,2s.19,1.57.56,2.01c.37.44.87.66,1.5.66Z"/>
            <path class="cls-3" d="m153.47,332.51l-.62-1.57c.35-.13.65-.3.89-.5.24-.21.43-.47.58-.8.14-.33.25-.73.31-1.22s.1-1.06.1-1.74v-2.48h6.43v8.08h-1.98v-6.54h-2.62v1.01c0,1.16-.11,2.14-.32,2.92-.21.79-.54,1.41-.99,1.87-.45.46-1.03.78-1.76.98Z"/>
            <path class="cls-3" d="m163.42,332.28v-8.08h1.81v6.11h-.48l4.59-6.11h1.65v8.08h-1.81v-6.13h.5l-4.61,6.13h-1.65Z"/>
            <path class="cls-3" d="m178.4,332.28v-2.94c-.3.14-.61.25-.93.32-.32.08-.66.11-1.01.11-1.18,0-2.07-.28-2.65-.85-.58-.57-.87-1.41-.87-2.53v-2.19h1.98v2.02c0,.68.15,1.18.45,1.48.3.3.78.46,1.44.46.31,0,.59-.03.83-.1.25-.06.48-.17.7-.3v-3.55h1.98v8.08h-1.94Z"/>
            <path class="cls-3" d="m186.57,332.44c-1.35,0-2.42-.37-3.18-1.12-.77-.75-1.15-1.77-1.15-3.07,0-.84.17-1.58.5-2.21.33-.63.79-1.12,1.38-1.47.59-.35,1.28-.53,2.07-.53s1.43.17,1.95.5c.52.33.92.79,1.19,1.39.27.6.41,1.3.41,2.1v.53h-5.89v-1.06h4.46l-.27.22c0-.75-.16-1.32-.47-1.71-.31-.39-.77-.59-1.37-.59-.66,0-1.17.23-1.53.7-.36.47-.54,1.12-.54,1.97v.21c0,.88.22,1.53.65,1.96.43.43,1.04.65,1.83.65.46,0,.89-.06,1.29-.18s.78-.32,1.14-.6l.59,1.34c-.38.31-.84.55-1.38.72s-1.1.26-1.7.26Z"/>
            <path class="cls-3" d="m195.37,332.44c-.83,0-1.56-.17-2.18-.51s-1.11-.83-1.45-1.46c-.34-.63-.51-1.39-.51-2.26s.17-1.62.52-2.24.83-1.09,1.45-1.42c.62-.33,1.34-.5,2.18-.5.53,0,1.05.08,1.56.25.51.17.92.4,1.24.71l-.61,1.39c-.29-.27-.61-.47-.97-.6s-.71-.2-1.05-.2c-.71,0-1.27.22-1.67.67s-.6,1.1-.6,1.95.2,1.51.6,1.97c.4.46.96.69,1.67.69.33,0,.67-.06,1.03-.19s.69-.33.98-.59l.61,1.38c-.33.31-.75.55-1.26.72s-1.02.26-1.54.26Z"/>
            <path class="cls-3" d="m201.63,332.28v-6.51h-2.77v-1.57h7.54v1.57h-2.78v6.51h-1.98Z"/>
            <path class="cls-3" d="m207.63,332.28v-8.08h4.3c1.01,0,1.75.18,2.22.55.47.37.7.89.7,1.56,0,.51-.17.94-.51,1.28-.34.34-.79.55-1.36.64v-.22c.69.04,1.23.25,1.6.61.37.36.56.83.56,1.41,0,.69-.27,1.24-.8,1.65-.53.41-1.29.61-2.27.61h-4.45Zm1.86-4.74h2.21c.43,0,.76-.09.99-.28.23-.19.35-.45.35-.79s-.12-.6-.35-.78c-.24-.18-.57-.27-.99-.27h-2.21v2.13Zm0,3.5h2.38c.47,0,.83-.1,1.08-.29.25-.19.38-.47.38-.85s-.13-.66-.38-.85c-.25-.19-.61-.29-1.08-.29h-2.38v2.27Z"/>
            <path class="cls-3" d="m220.61,332.44c-.83,0-1.55-.17-2.16-.51-.61-.34-1.08-.83-1.42-1.46-.34-.63-.5-1.38-.5-2.24s.17-1.61.5-2.23c.34-.62.81-1.11,1.42-1.45.61-.34,1.33-.51,2.16-.51s1.55.17,2.17.51,1.09.82,1.42,1.45c.34.62.5,1.37.5,2.23s-.17,1.61-.5,2.24c-.34.63-.81,1.12-1.42,1.46s-1.34.51-2.17.51Zm0-1.54c.63,0,1.13-.22,1.5-.66.37-.44.56-1.11.56-2.01s-.19-1.56-.56-2c-.37-.44-.87-.66-1.5-.66s-1.13.22-1.5.66-.56,1.1-.56,2,.19,1.57.56,2.01c.37.44.88.66,1.5.66Z"/>
          </g>
          <g>
            <path class="cls-3" d="m147.63,377.75v-1.39h2.62v-8.48h.83l-3.2,1.95v-1.6l2.83-1.76h1.2v9.89h2.46v1.39h-6.75Z"/>
            <path class="cls-3" d="m160.11,377.9c-1.3,0-2.3-.5-3-1.5s-1.05-2.43-1.05-4.3.35-3.34,1.05-4.31c.7-.98,1.7-1.46,3-1.46s2.31.49,3.01,1.46c.69.98,1.04,2.41,1.04,4.3s-.35,3.31-1.05,4.31-1.7,1.5-3,1.5Zm0-1.39c.82,0,1.43-.36,1.83-1.07.4-.71.6-1.83.6-3.34s-.2-2.64-.6-3.34c-.4-.7-1.01-1.05-1.83-1.05s-1.42.35-1.82,1.05c-.41.7-.61,1.8-.61,3.32s.21,2.65.62,3.36,1.02,1.07,1.82,1.07Z"/>
            <path class="cls-3" d="m169.71,377.9c-1.3,0-2.3-.5-3-1.5s-1.05-2.43-1.05-4.3.35-3.34,1.05-4.31c.7-.98,1.7-1.46,3-1.46s2.31.49,3.01,1.46c.69.98,1.04,2.41,1.04,4.3s-.35,3.31-1.05,4.31-1.7,1.5-3,1.5Zm0-1.39c.82,0,1.43-.36,1.83-1.07.4-.71.6-1.83.6-3.34s-.2-2.64-.6-3.34c-.4-.7-1.01-1.05-1.83-1.05s-1.42.35-1.82,1.05c-.41.7-.61,1.8-.61,3.32s.21,2.65.62,3.36,1.02,1.07,1.82,1.07Z"/>
            <path class="cls-3" d="m179.31,377.9c-1.3,0-2.3-.5-3-1.5s-1.05-2.43-1.05-4.3.35-3.34,1.05-4.31c.7-.98,1.7-1.46,3-1.46s2.31.49,3.01,1.46c.69.98,1.04,2.41,1.04,4.3s-.35,3.31-1.05,4.31-1.7,1.5-3,1.5Zm0-1.39c.82,0,1.43-.36,1.83-1.07.4-.71.6-1.83.6-3.34s-.2-2.64-.6-3.34c-.4-.7-1.01-1.05-1.83-1.05s-1.42.35-1.82,1.05c-.41.7-.61,1.8-.61,3.32s.21,2.65.62,3.36,1.02,1.07,1.82,1.07Z"/>
            <path class="cls-3" d="m189.6,377.75v-8.06h1.52v6.8h3.15v-6.8h1.52v6.8h3.14v-6.8h1.54v8.06h-10.86Z"/>
            <path class="cls-3" d="m204.62,377.75v-6.77h-2.85v-1.3h7.31v1.3h-2.86v6.77h-1.6Z"/>
            <path class="cls-3" d="m208.99,377.75v-1.9h1.9v1.9h-1.9Z"/>
          </g>
          <g>
            <path class="cls-3" d="m644.02,334.92v-2.64h-9.71v-11.28h2.03v9.58h5.79v-9.58h2.05v9.58h1.65v4.34h-1.81Z"/>
            <path class="cls-3" d="m651.3,332.44c-1.35,0-2.42-.37-3.18-1.12-.77-.75-1.15-1.77-1.15-3.07,0-.84.17-1.58.5-2.21.33-.63.79-1.12,1.38-1.47.59-.35,1.28-.53,2.07-.53s1.43.17,1.95.5c.52.33.92.79,1.19,1.39.27.6.41,1.3.41,2.1v.53h-5.89v-1.06h4.46l-.27.22c0-.75-.16-1.32-.47-1.71-.31-.39-.77-.59-1.37-.59-.66,0-1.17.23-1.53.7-.36.47-.54,1.12-.54,1.97v.21c0,.88.22,1.53.65,1.96.43.43,1.04.65,1.83.65.46,0,.89-.06,1.29-.18s.78-.32,1.14-.6l.59,1.34c-.38.31-.84.55-1.38.72s-1.1.26-1.7.26Z"/>
            <path class="cls-3" d="m656.33,332.28v-8.08h1.98v3.17h3.65v-3.17h1.98v8.08h-1.98v-3.38h-3.65v3.38h-1.98Z"/>
            <path class="cls-3" d="m669.4,332.44c-.7,0-1.32-.17-1.86-.5-.53-.34-.95-.82-1.25-1.45-.3-.63-.45-1.38-.45-2.26s.15-1.62.45-2.25c.3-.62.71-1.1,1.25-1.44s1.15-.5,1.86-.5,1.28.17,1.8.5.86.79,1.03,1.35h-.18l.18-1.7h1.92c-.03.33-.06.67-.09,1.01-.03.34-.04.68-.04,1.01v6.06h-1.98l-.02-1.66h.19c-.17.55-.52,1-1.04,1.33-.52.33-1.11.5-1.78.5Zm.56-1.54c.63,0,1.14-.22,1.52-.66.38-.44.58-1.11.58-2.01s-.19-1.56-.58-2c-.38-.44-.89-.66-1.52-.66s-1.14.22-1.52.66-.58,1.1-.58,2,.19,1.57.57,2.01c.38.44.89.66,1.53.66Z"/>
          </g>
          <g>
            <path class="cls-3" d="m564.06,377.75v-1.23l3.87-4.05c.5-.52.87-1.01,1.12-1.47.25-.46.37-.93.37-1.42,0-.61-.19-1.07-.57-1.38-.38-.31-.93-.46-1.64-.46-.57,0-1.1.1-1.59.3-.5.2-.97.51-1.43.93l-.58-1.26c.45-.42,1.01-.75,1.67-1,.67-.25,1.37-.38,2.12-.38,1.17,0,2.08.27,2.71.8.63.53.95,1.3.95,2.29,0,.7-.17,1.38-.51,2.02-.34.65-.85,1.31-1.54,1.99l-3.34,3.38v-.45h5.86v1.39h-7.47Z"/>
            <path class="cls-3" d="m573.67,377.75v-1.23l3.87-4.05c.5-.52.87-1.01,1.12-1.47.25-.46.37-.93.37-1.42,0-.61-.19-1.07-.57-1.38-.38-.31-.93-.46-1.64-.46-.57,0-1.1.1-1.59.3-.5.2-.97.51-1.43.93l-.58-1.26c.45-.42,1.01-.75,1.67-1,.67-.25,1.37-.38,2.12-.38,1.17,0,2.08.27,2.71.8.63.53.95,1.3.95,2.29,0,.7-.17,1.38-.51,2.02-.34.65-.85,1.31-1.54,1.99l-3.34,3.38v-.45h5.86v1.39h-7.47Z"/>
            <path class="cls-3" d="m587.89,377.75v-2.34h-5.22v-1.18l5.49-7.76h1.34v7.65h1.68v1.3h-1.68v2.34h-1.62Zm0-3.63v-5.68h.37l-4.29,6.08v-.4h3.92Z"/>
            <path class="cls-3" d="m596.34,377.9c-1.3,0-2.3-.5-3-1.5s-1.05-2.43-1.05-4.3.35-3.34,1.05-4.31c.7-.98,1.7-1.46,3-1.46s2.31.49,3.01,1.46c.69.98,1.04,2.41,1.04,4.3s-.35,3.31-1.05,4.31-1.7,1.5-3,1.5Zm0-1.39c.82,0,1.43-.36,1.83-1.07.4-.71.6-1.83.6-3.34s-.2-2.64-.6-3.34c-.4-.7-1.01-1.05-1.83-1.05s-1.42.35-1.82,1.05c-.41.7-.61,1.8-.61,3.32s.21,2.65.62,3.36,1.02,1.07,1.82,1.07Z"/>
            <path class="cls-3" d="m606.69,381.21v-9.58c0-.31-.01-.63-.04-.95-.03-.33-.06-.65-.09-.98h1.57l.16,1.82h-.18c.17-.61.51-1.09,1.03-1.44s1.13-.53,1.85-.53,1.34.17,1.87.5c.53.34.95.81,1.24,1.43s.44,1.37.44,2.24-.15,1.61-.44,2.24c-.29.63-.71,1.11-1.24,1.44-.53.33-1.16.5-1.87.5s-1.31-.17-1.83-.52c-.52-.35-.86-.82-1.03-1.42h.18v5.25h-1.62Zm3.9-4.58c.7,0,1.27-.24,1.69-.74s.63-1.22.63-2.18-.21-1.68-.63-2.17c-.42-.48-.98-.73-1.69-.73s-1.27.24-1.69.73c-.42.49-.63,1.21-.63,2.17s.21,1.69.63,2.18.98.74,1.69.74Z"/>
            <path class="cls-3" d="m616.27,381.39l-.38-1.31c.5-.11.92-.23,1.26-.38s.62-.34.84-.58.42-.55.58-.92l.4-.94-.03.66-3.5-8.21h1.73l2.72,6.72h-.43l2.72-6.72h1.66l-3.7,8.64c-.23.53-.49.98-.75,1.34-.27.36-.55.66-.86.88-.31.22-.65.4-1.02.53-.37.13-.78.23-1.22.3Z"/>
            <path class="cls-3" d="m628.8,377.9c-1.22,0-2.18-.38-2.9-1.14s-1.08-1.87-1.08-3.34v-1.39c0-1.5.32-2.71.97-3.63.65-.92,1.65-1.54,3-1.86l2.94-.7.46,1.29-3.3.77c-.58.13-1.05.37-1.42.72-.37.35-.65.77-.84,1.25s-.28.99-.28,1.54v.74h-.24c.13-.49.33-.91.62-1.26.28-.35.63-.62,1.06-.82.42-.2.89-.3,1.42-.3.69,0,1.3.16,1.82.48.52.32.93.78,1.22,1.38.29.6.44,1.32.44,2.14s-.16,1.59-.48,2.21-.77,1.09-1.35,1.42c-.58.33-1.27.5-2.06.5Zm-.05-1.25c.73,0,1.29-.24,1.7-.71s.62-1.18.62-2.1-.21-1.62-.62-2.1c-.42-.48-.98-.72-1.7-.72s-1.28.24-1.7.71-.62,1.15-.62,2.02c0,.96.21,1.68.62,2.17.41.48.98.73,1.7.73Z"/>
            <path class="cls-3" d="m634.18,377.75v-1.9h1.9v1.9h-1.9Z"/>
            <path class="cls-3" d="m644.94,380.63c-.47-.79-.85-1.56-1.15-2.33-.3-.76-.52-1.54-.66-2.32s-.21-1.6-.21-2.44.07-1.67.21-2.45c.14-.78.36-1.55.66-2.3.3-.76.68-1.53,1.15-2.32h1.31c-.55,1.21-.97,2.39-1.24,3.56s-.41,2.34-.41,3.51.14,2.34.41,3.51.69,2.36,1.24,3.58h-1.31Z"/>
            <path class="cls-3" d="m647.98,377.75v-1.23l3.87-4.05c.5-.52.87-1.01,1.12-1.47.25-.46.37-.93.37-1.42,0-.61-.19-1.07-.57-1.38-.38-.31-.93-.46-1.64-.46-.57,0-1.1.1-1.59.3-.5.2-.97.51-1.43.93l-.58-1.26c.45-.42,1.01-.75,1.67-1,.67-.25,1.37-.38,2.12-.38,1.17,0,2.08.27,2.71.8.63.53.95,1.3.95,2.29,0,.7-.17,1.38-.51,2.02-.34.65-.85,1.31-1.54,1.99l-3.34,3.38v-.45h5.86v1.39h-7.47Z"/>
            <path class="cls-3" d="m658.02,379.72l-.7-.54c.31-.33.52-.63.63-.91s.17-.57.17-.86l.35.35h-1.26v-1.9h1.9v1.3c0,.48-.08.92-.24,1.34-.16.41-.44.82-.85,1.24Z"/>
            <path class="cls-3" d="m661.38,377.75v-1.23l3.87-4.05c.5-.52.87-1.01,1.12-1.47.25-.46.37-.93.37-1.42,0-.61-.19-1.07-.57-1.38-.38-.31-.93-.46-1.64-.46-.57,0-1.1.1-1.59.3-.5.2-.97.51-1.43.93l-.58-1.26c.45-.42,1.01-.75,1.67-1,.67-.25,1.37-.38,2.12-.38,1.17,0,2.08.27,2.71.8.63.53.95,1.3.95,2.29,0,.7-.17,1.38-.51,2.02-.34.65-.85,1.31-1.54,1.99l-3.34,3.38v-.45h5.86v1.39h-7.47Z"/>
            <path class="cls-3" d="m675.6,377.75v-2.34h-5.22v-1.18l5.49-7.76h1.34v7.65h1.68v1.3h-1.68v2.34h-1.62Zm0-3.63v-5.68h.37l-4.29,6.08v-.4h3.92Z"/>
            <path class="cls-3" d="m684.8,381.21v-9.58c0-.31-.01-.63-.04-.95-.03-.33-.06-.65-.09-.98h1.57l.16,1.82h-.18c.17-.61.51-1.09,1.03-1.44.52-.35,1.13-.53,1.85-.53s1.34.17,1.87.5.95.81,1.24,1.43c.29.62.44,1.37.44,2.24s-.15,1.61-.44,2.24c-.29.63-.71,1.11-1.24,1.44s-1.16.5-1.87.5-1.31-.17-1.83-.52c-.52-.35-.86-.82-1.03-1.42h.18v5.25h-1.62Zm3.9-4.58c.7,0,1.27-.24,1.69-.74.42-.49.63-1.22.63-2.18s-.21-1.68-.63-2.17c-.42-.48-.98-.73-1.69-.73s-1.27.24-1.69.73c-.42.49-.63,1.21-.63,2.17s.21,1.69.63,2.18c.42.49.98.74,1.69.74Z"/>
            <path class="cls-3" d="m694.38,381.39l-.38-1.31c.5-.11.92-.23,1.26-.38s.62-.34.84-.58.42-.55.58-.92l.4-.94-.03.66-3.5-8.21h1.73l2.72,6.72h-.43l2.72-6.72h1.66l-3.7,8.64c-.24.53-.49.98-.75,1.34-.27.36-.55.66-.86.88-.31.22-.65.4-1.02.53-.37.13-.78.23-1.22.3Z"/>
            <path class="cls-3" d="m706.91,377.9c-1.22,0-2.18-.38-2.9-1.14-.72-.76-1.08-1.87-1.08-3.34v-1.39c0-1.5.32-2.71.97-3.63s1.65-1.54,3-1.86l2.94-.7.46,1.29-3.3.77c-.58.13-1.05.37-1.42.72-.37.35-.65.77-.84,1.25s-.28.99-.28,1.54v.74h-.24c.13-.49.33-.91.62-1.26.28-.35.63-.62,1.06-.82.42-.2.89-.3,1.42-.3.69,0,1.3.16,1.82.48.52.32.93.78,1.22,1.38.29.6.44,1.32.44,2.14s-.16,1.59-.48,2.21-.77,1.09-1.35,1.42c-.58.33-1.27.5-2.06.5Zm-.05-1.25c.73,0,1.29-.24,1.7-.71.41-.47.62-1.18.62-2.1s-.21-1.62-.62-2.1-.98-.72-1.7-.72-1.28.24-1.7.71-.62,1.15-.62,2.02c0,.96.21,1.68.62,2.17.41.48.98.73,1.7.73Z"/>
            <path class="cls-3" d="m712.29,377.75v-1.9h1.9v1.9h-1.9Z"/>
            <path class="cls-3" d="m720.62,377.75v-8.06h1.52v6.8h3.15v-6.8h1.52v6.8h3.14v-6.8h1.54v8.06h-10.86Z"/>
            <path class="cls-3" d="m735.65,377.75v-6.77h-2.85v-1.3h7.31v1.3h-2.86v6.77h-1.6Z"/>
            <path class="cls-3" d="m741.9,380.63h-1.31c.55-1.21.97-2.39,1.25-3.57.28-1.17.42-2.35.42-3.52s-.14-2.33-.42-3.5c-.28-1.17-.69-2.36-1.25-3.57h1.31c.48.79.87,1.56,1.17,2.32.3.76.51,1.53.65,2.31.13.78.2,1.6.2,2.44s-.07,1.67-.2,2.46c-.13.78-.35,1.55-.65,2.31s-.69,1.53-1.17,2.32Z"/>
          </g>
        </g>
      </g>
    </g>
  </g>
</svg>