<?xml version="1.0" encoding="UTF-8"?>
<svg id="_Слой_2" data-name="Слой 2" xmlns="http://www.w3.org/2000/svg" viewBox="0 0 938.93 309.64">
  <defs>
    <style>
      .cls-1 {
        font-family: Mulish-Bold, Mulish;
        font-weight: 700;
      }

      .cls-1, .cls-2 {
        fill: #27625f;
        font-size: 16px;
      }

      .cls-3 {
        fill: #fff;
      }

      .cls-3, .cls-4 {
        stroke: #a0b6b5;
        stroke-miterlimit: 10;
      }

      .cls-5 {
        letter-spacing: -.02em;
      }

      .cls-6 {
        letter-spacing: 0em;
      }

      .cls-7 {
        letter-spacing: 0em;
      }

      .cls-8 {
        letter-spacing: 0em;
      }

      .cls-2 {
        font-family: Mulish-SemiBold, Mulish;
        font-weight: 600;
      }

      .cls-9 {
        letter-spacing: 0em;
      }

      .cls-10 {
        letter-spacing: 0em;
      }

      .cls-11 {
        letter-spacing: 0em;
      }

      .cls-12 {
        letter-spacing: 0em;
      }

      .cls-13 {
        letter-spacing: 0em;
      }

      .cls-14 {
        letter-spacing: -.02em;
      }

      .cls-15 {
        letter-spacing: 0em;
      }

      .cls-16 {
        letter-spacing: -.02em;
      }

      .cls-17 {
        letter-spacing: 0em;
      }

      .cls-18 {
        letter-spacing: -.02em;
      }

      .cls-19 {
        letter-spacing: -.02em;
      }

      .cls-20 {
        letter-spacing: -.02em;
      }

      .cls-21 {
        letter-spacing: -.06em;
      }

      .cls-4 {
        fill: none;
      }
    </style>
  </defs>
  <g id="_Слой_1-2" data-name="Слой 1">
    <g>
      <g>
        <rect class="cls-3" x=".5" y=".5" width="937.93" height="275.63" rx="10" ry="10"/>
        <line class="cls-4" x1="938.43" y1="92.38" x2="312.76" y2="92.38"/>
        <line class="cls-4" x1="312.76" y1="276.13" x2="312.76" y2="46.44"/>
        <line class="cls-4" x1="470.31" y1="230.2" x2="470.31" y2="92.38"/>
        <line class="cls-4" x1="626.16" y1="230.2" x2="626.16" y2="92.38"/>
        <line class="cls-4" x1="782.01" y1="230.2" x2="782.01" y2="92.38"/>
        <line class="cls-4" x1="938.43" y1="138.32" x2=".5" y2="138.32"/>
        <line class="cls-4" x1="938.43" y1="46.44" x2=".5" y2="46.44"/>
        <line class="cls-4" x1="938.43" y1="184.26" x2=".5" y2="184.26"/>
        <line class="cls-4" x1="938.43" y1="230.2" x2=".5" y2="230.2"/>
      </g>
      <g>
        <text class="cls-1" transform="translate(115.12 92.38)"><tspan x="0" y="0">Ма</tspan><tspan class="cls-10" x="24.06" y="0">т</tspan><tspan class="cls-11" x="31.73" y="0">ериал</tspan></text>
        <text class="cls-1" transform="translate(17.37 28.77)"><tspan x="0" y="0">Пос</tspan><tspan class="cls-10" x="30.34" y="0">т</tspan><tspan class="cls-13" x="38" y="0">еры</tspan></text>
        <text class="cls-1" transform="translate(573.45 75.16)"><tspan x="0" y="0">Цена за м</tspan></text>
        <text class="cls-1" transform="translate(654.17 69.83) scale(.58)"><tspan x="0" y="0">2</tspan></text>
        <text class="cls-1" transform="translate(659.77 75.16)"><tspan class="cls-21" x="0" y="0">/</tspan><tspan class="cls-19" x="4.1" y="0">р</tspan><tspan x="14" y="0">.</tspan></text>
        <text class="cls-1" transform="translate(363.21 118.99)"><tspan x="0" y="0">360 dpi</tspan></text>
        <text class="cls-2" transform="translate(368.54 165.16)"><tspan x="0" y="0">253 </tspan><tspan class="cls-18" x="33.07" y="0">р</tspan><tspan class="cls-13" x="42.75" y="0">.</tspan></text>
        <text class="cls-2" transform="translate(368.54 211.77)"><tspan x="0" y="0">253 </tspan><tspan class="cls-18" x="33.07" y="0">р</tspan><tspan class="cls-13" x="42.75" y="0">.</tspan></text>
        <text class="cls-1" transform="translate(520.52 118.99)"><tspan x="0" y="0">540 dpi</tspan></text>
        <text class="cls-2" transform="translate(525.84 165.16)"><tspan x="0" y="0">286 </tspan><tspan class="cls-18" x="33.07" y="0">р</tspan><tspan class="cls-13" x="42.75" y="0">.</tspan></text>
        <text class="cls-2" transform="translate(525.84 211.77)"><tspan x="0" y="0">253 </tspan><tspan class="cls-18" x="33.07" y="0">р</tspan><tspan class="cls-13" x="42.75" y="0">.</tspan></text>
        <text class="cls-1" transform="translate(676.35 118.99)"><tspan x="0" y="0">720 dpi</tspan></text>
        <text class="cls-2" transform="translate(681.68 165.16)"><tspan x="0" y="0">550 </tspan><tspan class="cls-18" x="33.07" y="0">р</tspan><tspan class="cls-13" x="42.75" y="0">.</tspan></text>
        <text class="cls-2" transform="translate(681.68 211.77)"><tspan x="0" y="0">853 </tspan><tspan class="cls-18" x="33.07" y="0">р</tspan><tspan class="cls-13" x="42.75" y="0">.</tspan></text>
        <text class="cls-2" transform="translate(604.22 257.47)"><tspan x="0" y="0">+20%</tspan></text>
        <text class="cls-2" transform="translate(.5 305.27)"><tspan x="0" y="0">Пос</tspan><tspan class="cls-15" x="29.94" y="0">т</tspan><tspan class="cls-17" x="37.38" y="0">ерная: размер х резмер х 550 </tspan><tspan class="cls-5" x="275.68" y="0">р</tspan><tspan x="285.36" y="0">. + 20% резка</tspan></text>
        <text class="cls-2" transform="translate(519.37 305.27)"><tspan x="0" y="0">Фо</tspan><tspan class="cls-12" x="23.65" y="0">т</tspan><tspan x="31.09" y="0">о</tspan><tspan class="cls-7" x="40.56" y="0">б</tspan><tspan x="49.94" y="0">умага: размер х резмер х 853 </tspan><tspan class="cls-16" x="287.64" y="0">р</tspan><tspan x="297.32" y="0">. + 20% резка</tspan></text>
        <text class="cls-1" transform="translate(826.51 118.99)"><tspan x="0" y="0">1440 dpi</tspan></text>
        <text class="cls-2" transform="translate(836.63 165.16)"><tspan x="0" y="0">585 </tspan><tspan class="cls-18" x="33.07" y="0">р</tspan><tspan class="cls-13" x="42.75" y="0">.</tspan></text>
        <text class="cls-2" transform="translate(836.63 211.77)"><tspan x="0" y="0">905 </tspan><tspan class="cls-18" x="33.07" y="0">р</tspan><tspan class="cls-13" x="42.75" y="0">.</tspan></text>
        <text class="cls-1" transform="translate(81.91 165.16)"><tspan x="0" y="0">Бумага пос</tspan><tspan class="cls-10" x="91.07" y="0">т</tspan><tspan x="98.73" y="0">ерная</tspan></text>
        <text class="cls-1" transform="translate(11.15 211.77)"><tspan x="0" y="0">Фо</tspan><tspan class="cls-8" x="24.21" y="0">т</tspan><tspan class="cls-6" x="31.87" y="0">о </tspan><tspan class="cls-9" x="45.95" y="0">б</tspan><tspan x="55.54" y="0">умага (ма</tspan><tspan class="cls-10" x="134.77" y="0">т</tspan><tspan x="142.43" y="0">овая и </tspan><tspan class="cls-20" x="199.26" y="0">г</tspan><tspan x="206.41" y="0">лянцевая)</tspan></text>
        <text class="cls-1" transform="translate(45.96 256.94)"><tspan class="cls-14" x="0" y="0">Р</tspan><tspan x="10.37" y="0">езка изображений в край</tspan></text>
      </g>
    </g>
  </g>
</svg>