<?xml version="1.0" encoding="UTF-8"?>
<svg id="_Слой_2" data-name="Слой 2" xmlns="http://www.w3.org/2000/svg" viewBox="0 0 938.93 276.63">
  <defs>
    <style>
      .cls-1 {
        fill: #fff;
      }

      .cls-1, .cls-2 {
        stroke: #a0b6b5;
        stroke-miterlimit: 10;
      }

      .cls-3 {
        fill: #27625f;
        stroke-width: 0px;
      }

      .cls-2 {
        fill: none;
      }
    </style>
  </defs>
  <g id="_Слой_1-2" data-name="Слой 1">
    <g>
      <g>
        <rect class="cls-1" x=".5" y=".5" width="937.93" height="275.63" rx="10" ry="10"/>
        <line class="cls-2" x1="938.43" y1="92.38" x2="312.76" y2="92.38"/>
        <line class="cls-2" x1="312.76" y1="276.13" x2="312.76" y2="46.44"/>
        <line class="cls-2" x1="470.31" y1="230.2" x2="470.31" y2="92.38"/>
        <line class="cls-2" x1="626.16" y1="230.2" x2="626.16" y2="92.38"/>
        <line class="cls-2" x1="782.01" y1="230.2" x2="782.01" y2="92.38"/>
        <line class="cls-2" x1="938.43" y1="138.32" x2=".5" y2="138.32"/>
        <line class="cls-2" x1="938.43" y1="46.44" x2=".5" y2="46.44"/>
        <line class="cls-2" x1="938.43" y1="184.26" x2=".5" y2="184.26"/>
        <line class="cls-2" x1="938.43" y1="230.2" x2=".5" y2="230.2"/>
      </g>
      <g>
        <g>
          <path class="cls-3" d="m116.39,92.38v-11.28h1.81l4.14,9.33h-.5l4.14-9.33h1.79v11.28h-1.87v-8.37h.58l-3.79,8.37h-1.23l-3.79-8.37h.59v8.37h-1.87Z"/>
          <path class="cls-3" d="m133.36,92.54c-.7,0-1.32-.17-1.86-.5s-.95-.82-1.25-1.45c-.3-.63-.45-1.38-.45-2.26s.15-1.62.45-2.25c.3-.62.71-1.1,1.25-1.44s1.15-.5,1.86-.5,1.28.17,1.8.5.86.79,1.03,1.35h-.18l.18-1.7h1.92c-.03.33-.06.67-.09,1.01-.03.34-.04.68-.04,1.01v6.06h-1.98l-.02-1.66h.19c-.17.55-.52,1-1.04,1.33-.52.33-1.12.5-1.78.5Zm.56-1.54c.63,0,1.14-.22,1.52-.66.38-.44.58-1.11.58-2.01s-.19-1.56-.58-2-.89-.66-1.52-.66-1.13.22-1.52.66c-.38.44-.58,1.1-.58,2s.19,1.57.57,2.01c.38.44.89.66,1.53.66Z"/>
          <path class="cls-3" d="m142.07,92.38v-6.51h-2.77v-1.57h7.54v1.57h-2.78v6.51h-1.98Z"/>
          <path class="cls-3" d="m151.96,92.54c-1.36,0-2.42-.37-3.18-1.12-.77-.75-1.15-1.77-1.15-3.07,0-.84.16-1.58.5-2.21.33-.63.79-1.12,1.38-1.47.59-.35,1.28-.53,2.07-.53s1.43.17,1.95.5c.52.33.92.79,1.19,1.39.27.6.41,1.3.41,2.1v.53h-5.89v-1.06h4.46l-.27.22c0-.75-.16-1.32-.47-1.71-.32-.39-.77-.59-1.37-.59-.66,0-1.17.23-1.53.7-.36.47-.54,1.13-.54,1.97v.21c0,.87.22,1.53.65,1.96.43.43,1.04.65,1.83.65.46,0,.89-.06,1.29-.18.4-.12.78-.32,1.14-.6l.59,1.34c-.38.31-.84.55-1.38.72s-1.1.26-1.7.26Z"/>
          <path class="cls-3" d="m157.04,95.83v-9.52c0-.33-.01-.67-.03-1.01-.02-.34-.05-.68-.1-1.01h1.94l.18,1.7h-.18c.16-.57.5-1.02,1.02-1.35.52-.34,1.12-.5,1.8-.5s1.34.17,1.87.5c.53.34.95.82,1.25,1.44s.45,1.37.45,2.25-.15,1.63-.45,2.26c-.3.63-.71,1.11-1.25,1.45-.53.34-1.16.5-1.87.5-.67,0-1.26-.17-1.78-.5-.51-.33-.85-.77-1.02-1.33h.18v5.12h-2Zm4.06-4.83c.64,0,1.15-.22,1.54-.66.38-.44.58-1.11.58-2.01s-.19-1.56-.58-2c-.38-.44-.9-.66-1.54-.66s-1.14.22-1.52.66c-.38.44-.58,1.1-.58,2s.19,1.57.58,2.01c.38.44.89.66,1.52.66Z"/>
          <path class="cls-3" d="m167.12,92.38v-8.08h1.81v6.11h-.48l4.59-6.11h1.65v8.08h-1.81v-6.13h.5l-4.61,6.13h-1.65Z"/>
          <path class="cls-3" d="m180.15,92.54c-.7,0-1.32-.17-1.86-.5s-.95-.82-1.25-1.45c-.3-.63-.45-1.38-.45-2.26s.15-1.62.45-2.25.71-1.1,1.25-1.44,1.15-.5,1.86-.5,1.28.17,1.8.5.86.79,1.03,1.35h-.18l.18-1.7h1.92c-.03.33-.06.67-.09,1.01-.03.34-.04.68-.04,1.01v6.06h-1.98l-.02-1.66h.19c-.17.55-.52,1-1.04,1.33-.52.33-1.11.5-1.78.5Zm.56-1.54c.63,0,1.14-.22,1.52-.66.38-.44.58-1.11.58-2.01s-.19-1.56-.58-2c-.38-.44-.89-.66-1.52-.66s-1.14.22-1.52.66c-.38.44-.58,1.1-.58,2s.19,1.57.57,2.01c.38.44.89.66,1.53.66Z"/>
          <path class="cls-3" d="m186.9,92.6l-.62-1.57c.35-.13.65-.3.89-.5.24-.21.43-.47.58-.8.14-.33.25-.73.31-1.22.06-.49.1-1.06.1-1.74v-2.48h6.43v8.08h-1.98v-6.54h-2.62v1.01c0,1.16-.11,2.14-.32,2.92-.21.78-.54,1.41-.99,1.86-.45.46-1.04.78-1.76.98Z"/>
        </g>
        <g>
          <path class="cls-3" d="m18.62,28.77v-11.28h9.87v11.28h-2.05v-9.6h-5.79v9.6h-2.03Z"/>
          <path class="cls-3" d="m34.57,28.93c-.83,0-1.55-.17-2.16-.51-.61-.34-1.08-.83-1.42-1.46s-.5-1.38-.5-2.24.17-1.61.5-2.23.81-1.11,1.42-1.45c.61-.34,1.33-.51,2.16-.51s1.55.17,2.17.51c.61.34,1.09.82,1.42,1.45s.5,1.37.5,2.23-.17,1.61-.5,2.24-.81,1.11-1.42,1.46c-.61.34-1.34.51-2.17.51Zm0-1.54c.63,0,1.13-.22,1.5-.66.37-.44.56-1.11.56-2.01s-.19-1.56-.56-2-.88-.66-1.5-.66-1.13.22-1.5.66-.56,1.1-.56,2,.19,1.57.56,2.01c.37.44.88.66,1.5.66Z"/>
          <path class="cls-3" d="m44.33,28.93c-.83,0-1.56-.17-2.18-.51-.62-.34-1.11-.83-1.45-1.46-.34-.63-.51-1.39-.51-2.26s.17-1.62.52-2.24c.35-.62.83-1.09,1.45-1.42.62-.33,1.34-.5,2.18-.5.53,0,1.05.08,1.56.25.51.17.92.4,1.24.71l-.61,1.39c-.29-.27-.61-.47-.97-.6-.36-.13-.71-.2-1.05-.2-.71,0-1.27.22-1.67.67s-.6,1.1-.6,1.95.2,1.51.6,1.97.96.69,1.67.69c.33,0,.68-.06,1.03-.19s.69-.33.98-.59l.61,1.38c-.33.31-.75.55-1.26.72-.51.17-1.02.26-1.54.26Z"/>
          <path class="cls-3" d="m50.59,28.77v-6.51h-2.77v-1.57h7.54v1.57h-2.79v6.51h-1.98Z"/>
          <path class="cls-3" d="m60.47,28.93c-1.36,0-2.42-.37-3.18-1.12-.77-.75-1.15-1.77-1.15-3.07,0-.84.17-1.58.5-2.21.33-.63.79-1.12,1.38-1.47.59-.35,1.28-.53,2.07-.53s1.43.17,1.95.5c.52.33.92.79,1.19,1.39s.41,1.3.41,2.1v.53h-5.89v-1.06h4.46l-.27.22c0-.75-.16-1.32-.47-1.71s-.77-.59-1.37-.59c-.66,0-1.17.23-1.53.7-.36.47-.54,1.13-.54,1.97v.21c0,.87.21,1.53.65,1.96.43.43,1.04.65,1.83.65.46,0,.89-.06,1.29-.18s.78-.32,1.14-.6l.59,1.34c-.38.31-.84.55-1.38.72s-1.1.26-1.7.26Z"/>
          <path class="cls-3" d="m65.56,32.23v-9.52c0-.33-.01-.67-.03-1.01-.02-.34-.05-.68-.1-1.01h1.94l.18,1.7h-.18c.16-.57.5-1.02,1.02-1.35.52-.34,1.12-.5,1.8-.5s1.34.17,1.87.5c.53.34.95.82,1.25,1.44.3.62.45,1.37.45,2.25s-.15,1.63-.45,2.26c-.3.63-.71,1.11-1.25,1.45-.54.34-1.16.5-1.87.5-.67,0-1.26-.17-1.78-.5-.51-.33-.85-.77-1.02-1.33h.18v5.12h-2Zm4.06-4.83c.64,0,1.15-.22,1.54-.66.38-.44.58-1.11.58-2.01s-.19-1.56-.58-2c-.38-.44-.9-.66-1.54-.66s-1.13.22-1.52.66c-.38.44-.58,1.1-.58,2s.19,1.57.58,2.01c.38.44.89.66,1.52.66Z"/>
          <path class="cls-3" d="m75.64,28.77v-8.08h1.98v2.7h2.13c1.08,0,1.89.23,2.43.68.54.45.82,1.11.82,1.96,0,.55-.13,1.04-.38,1.45-.26.41-.63.73-1.11.95-.49.22-1.07.34-1.75.34h-4.11Zm1.98-1.31h1.86c.54,0,.96-.11,1.25-.34.29-.23.43-.58.43-1.05s-.14-.81-.42-1.03c-.28-.22-.7-.33-1.26-.33h-1.86v2.75Zm6.38,1.31v-8.08h1.98v8.08h-1.98Z"/>
        </g>
        <g>
          <path class="cls-3" d="m584.41,77.8v-2.64h-9.71v-11.28h2.03v9.58h5.79v-9.58h2.05v9.58h1.65v4.34h-1.81Z"/>
          <path class="cls-3" d="m591.69,75.32c-1.36,0-2.42-.37-3.18-1.12-.77-.75-1.15-1.77-1.15-3.07,0-.84.17-1.58.5-2.21.33-.63.79-1.12,1.38-1.47.59-.35,1.28-.53,2.07-.53s1.43.17,1.95.5c.52.33.92.79,1.19,1.39.27.6.41,1.3.41,2.1v.53h-5.89v-1.06h4.46l-.27.22c0-.75-.16-1.32-.47-1.71s-.77-.59-1.37-.59c-.66,0-1.17.23-1.53.7s-.54,1.12-.54,1.97v.21c0,.88.22,1.53.65,1.96s1.04.65,1.83.65c.46,0,.89-.06,1.29-.18.4-.12.78-.32,1.14-.6l.59,1.34c-.38.31-.84.55-1.38.72-.53.17-1.1.26-1.7.26Z"/>
          <path class="cls-3" d="m596.72,75.16v-8.08h1.98v3.17h3.65v-3.17h1.98v8.08h-1.98v-3.38h-3.65v3.38h-1.98Z"/>
          <path class="cls-3" d="m609.79,75.32c-.7,0-1.32-.17-1.86-.5-.53-.34-.95-.82-1.25-1.45-.3-.63-.45-1.38-.45-2.26s.15-1.62.45-2.25.71-1.1,1.25-1.44,1.15-.5,1.86-.5,1.28.17,1.8.5c.52.34.86.79,1.03,1.35h-.18l.18-1.7h1.92c-.03.33-.06.67-.09,1.01-.03.34-.04.68-.04,1.01v6.06h-1.98l-.02-1.66h.19c-.17.55-.52,1-1.04,1.33-.52.33-1.11.5-1.78.5Zm.56-1.54c.63,0,1.14-.22,1.52-.66.38-.44.58-1.11.58-2.01s-.19-1.56-.58-2c-.38-.44-.89-.66-1.52-.66s-1.14.22-1.52.66-.58,1.1-.58,2,.19,1.57.57,2.01c.38.44.89.66,1.53.66Z"/>
          <path class="cls-3" d="m624.11,75.32c-.73,0-1.41-.09-2.04-.26-.63-.17-1.16-.42-1.59-.74l.56-1.31c.39.29.86.51,1.38.66s1.08.22,1.67.22c.68,0,1.18-.09,1.5-.28.32-.19.47-.46.47-.82,0-.34-.12-.6-.37-.78-.25-.18-.61-.26-1.09-.26h-2.1v-1.38h1.9c.44,0,.77-.08,1.01-.26.24-.17.35-.41.35-.72,0-.33-.14-.59-.42-.78-.28-.19-.74-.29-1.38-.29-.55,0-1.06.07-1.52.2-.46.13-.89.33-1.3.58l-.54-1.25c.44-.31.97-.54,1.59-.7s1.3-.24,2.04-.24c1.08,0,1.9.2,2.48.59s.86.96.86,1.68c0,.49-.17.91-.5,1.26-.34.35-.79.57-1.35.66v-.22c.66.04,1.18.24,1.57.59.38.35.58.83.58,1.42,0,.74-.33,1.32-.98,1.76s-1.58.66-2.78.66Z"/>
          <path class="cls-3" d="m632.8,75.32c-.7,0-1.32-.17-1.86-.5-.53-.34-.95-.82-1.25-1.45-.3-.63-.45-1.38-.45-2.26s.15-1.62.45-2.25.71-1.1,1.25-1.44,1.15-.5,1.86-.5,1.28.17,1.8.5c.52.34.86.79,1.03,1.35h-.18l.18-1.7h1.92c-.03.33-.06.67-.09,1.01-.03.34-.04.68-.04,1.01v6.06h-1.98l-.02-1.66h.19c-.17.55-.52,1-1.04,1.33-.52.33-1.11.5-1.78.5Zm.56-1.54c.63,0,1.14-.22,1.52-.66.38-.44.58-1.11.58-2.01s-.19-1.56-.58-2c-.38-.44-.89-.66-1.52-.66s-1.14.22-1.52.66-.58,1.1-.58,2,.19,1.57.57,2.01c.38.44.89.66,1.53.66Z"/>
          <path class="cls-3" d="m644.14,75.16v-8.08h1.66l2.78,4.83,2.79-4.83h1.66v8.08h-1.76v-5.84h.37l-2.59,4.53h-.93l-2.59-4.53h.37v5.84h-1.76Z"/>
          <path class="cls-3" d="m654.9,69.83v-.89l2.18-2.28c.27-.29.48-.55.61-.79.13-.24.2-.49.2-.75,0-.32-.1-.56-.3-.72-.2-.16-.49-.24-.87-.24-.3,0-.6.05-.88.16s-.55.28-.82.51l-.39-.89c.27-.24.6-.43.99-.57.39-.14.81-.21,1.24-.21.71,0,1.25.16,1.63.48.38.32.57.77.57,1.36,0,.41-.1.8-.29,1.17-.19.37-.49.76-.9,1.16l-1.82,1.82v-.32h3.26v1h-4.43Z"/>
          <path class="cls-3" d="m661.02,76.1h-1.65l4.21-12.98h1.65l-4.21,12.98Z"/>
          <path class="cls-3" d="m665.06,78.62v-9.52c0-.33-.01-.67-.03-1.01-.02-.34-.05-.68-.1-1.01h1.94l.18,1.7h-.18c.16-.57.5-1.02,1.02-1.35.52-.34,1.12-.5,1.8-.5s1.34.17,1.87.5c.53.34.95.82,1.25,1.44.3.62.45,1.37.45,2.25s-.15,1.63-.45,2.26c-.3.63-.71,1.11-1.25,1.45-.54.34-1.16.5-1.87.5-.67,0-1.26-.17-1.78-.5-.51-.33-.85-.77-1.02-1.33h.18v5.12h-2Zm4.06-4.83c.64,0,1.15-.22,1.54-.66.38-.44.58-1.11.58-2.01s-.19-1.56-.58-2c-.38-.44-.9-.66-1.54-.66s-1.13.22-1.52.66c-.38.44-.58,1.1-.58,2s.19,1.57.58,2.01c.38.44.89.66,1.52.66Z"/>
          <path class="cls-3" d="m674.63,75.16v-2.22h2.24v2.22h-2.24Z"/>
        </g>
        <g>
          <path class="cls-3" d="m367.84,119.15c-.78,0-1.53-.11-2.24-.34-.71-.23-1.3-.55-1.76-.95l.67-1.55c.5.38,1.02.67,1.56.85.54.18,1.11.27,1.7.27.72,0,1.27-.14,1.65-.43s.56-.71.56-1.26-.18-.94-.55-1.21c-.37-.27-.9-.41-1.61-.41h-1.82v-1.65h1.65c.61,0,1.09-.15,1.46-.45.36-.3.54-.71.54-1.23,0-.49-.17-.86-.5-1.12-.34-.26-.82-.38-1.45-.38-1.13,0-2.13.38-2.99,1.15l-.67-1.54c.46-.43,1.03-.76,1.7-.99.68-.23,1.39-.35,2.14-.35,1.17,0,2.09.26,2.76.79.67.53,1,1.26,1,2.2,0,.67-.19,1.25-.57,1.74-.38.49-.9.81-1.56.97v-.19c.78.13,1.38.45,1.82.95.43.51.65,1.14.65,1.9,0,1-.37,1.79-1.1,2.38-.74.58-1.74.87-3.02.87Z"/>
          <path class="cls-3" d="m378.01,119.15c-1.42,0-2.51-.49-3.29-1.47-.77-.98-1.16-2.36-1.16-4.13,0-1.28.2-2.37.59-3.26.39-.89.96-1.57,1.69-2.04.73-.47,1.61-.71,2.63-.71.61,0,1.21.11,1.81.33.6.22,1.11.53,1.54.94l-.69,1.54c-.39-.36-.82-.63-1.28-.81s-.92-.26-1.39-.26c-.96,0-1.69.33-2.19.98-.5.65-.75,1.62-.75,2.91v1.2h-.19c.08-.54.27-1.01.54-1.4.28-.39.63-.69,1.07-.9s.92-.31,1.46-.31c.66,0,1.25.15,1.76.46.51.31.91.74,1.21,1.28.29.54.44,1.17.44,1.87s-.16,1.37-.49,1.94-.77,1.02-1.34,1.34-1.22.49-1.97.49Zm-.11-1.63c.39,0,.74-.09,1.04-.26.3-.17.53-.41.7-.73s.25-.67.25-1.08-.08-.78-.25-1.09c-.17-.31-.4-.55-.7-.73-.3-.18-.65-.26-1.04-.26s-.74.09-1.04.26c-.3.18-.53.42-.7.73-.17.31-.26.67-.26,1.09s.09.77.26,1.08c.17.31.4.56.7.73.3.17.65.26,1.04.26Z"/>
          <path class="cls-3" d="m387.21,119.15c-1.32,0-2.34-.5-3.06-1.51-.71-1.01-1.07-2.45-1.07-4.31s.36-3.32,1.07-4.3c.71-.98,1.73-1.47,3.06-1.47s2.35.49,3.06,1.47c.71.98,1.06,2.41,1.06,4.29s-.35,3.32-1.06,4.33c-.71,1.01-1.73,1.51-3.06,1.51Zm0-1.7c.73,0,1.26-.33,1.62-1,.35-.67.53-1.71.53-3.14s-.18-2.47-.53-3.11c-.35-.64-.89-.97-1.62-.97s-1.25.32-1.61.97c-.36.65-.54,1.68-.54,3.11s.18,2.48.54,3.14c.36.67.89,1,1.61,1Z"/>
          <path class="cls-3" d="m400.62,119.15c-.7,0-1.33-.17-1.86-.5-.54-.34-.96-.82-1.26-1.45-.3-.63-.45-1.38-.45-2.26s.15-1.62.45-2.25c.3-.62.72-1.1,1.26-1.44.54-.34,1.16-.5,1.86-.5s1.27.16,1.78.49c.52.33.86.77,1.03,1.32h-.21v-5.34h2v11.78h-1.97v-1.71h.19c-.17.58-.52,1.03-1.03,1.37-.52.34-1.12.5-1.8.5Zm.56-1.54c.63,0,1.14-.22,1.52-.66.38-.44.58-1.11.58-2.01s-.19-1.56-.58-2c-.38-.44-.89-.66-1.52-.66s-1.14.22-1.53.66c-.39.44-.58,1.1-.58,2s.2,1.57.58,2.01c.39.44.9.66,1.53.66Z"/>
          <path class="cls-3" d="m407.4,122.44v-9.52c0-.33-.01-.67-.03-1.01-.02-.34-.05-.68-.1-1.01h1.94l.18,1.7h-.18c.16-.57.5-1.02,1.02-1.35s1.12-.5,1.8-.5,1.34.17,1.87.5.95.82,1.25,1.44.45,1.37.45,2.25-.15,1.63-.45,2.26-.71,1.11-1.25,1.45c-.53.34-1.16.5-1.87.5-.67,0-1.26-.17-1.78-.5-.51-.33-.85-.77-1.02-1.33h.18v5.12h-2Zm4.06-4.83c.64,0,1.15-.22,1.54-.66.38-.44.58-1.11.58-2.01s-.19-1.56-.58-2c-.38-.44-.9-.66-1.54-.66s-1.14.22-1.52.66-.58,1.1-.58,2,.19,1.57.58,2.01c.38.44.89.66,1.52.66Z"/>
          <path class="cls-3" d="m417.21,109.39v-1.95h2.22v1.95h-2.22Zm.11,9.6v-8.08h2v8.08h-2Z"/>
        </g>
        <g>
          <path class="cls-3" d="m369.87,165.16v-1.23l3.87-4.05c.5-.52.88-1.01,1.12-1.47.25-.46.37-.93.37-1.42,0-.61-.19-1.07-.57-1.38s-.93-.46-1.64-.46c-.57,0-1.1.1-1.59.3-.5.2-.97.51-1.43.93l-.58-1.26c.45-.42,1.01-.75,1.67-1,.67-.25,1.37-.38,2.12-.38,1.17,0,2.08.27,2.71.8.63.53.95,1.3.95,2.29,0,.7-.17,1.38-.51,2.02-.34.65-.85,1.31-1.54,1.99l-3.34,3.38v-.45h5.86v1.39h-7.47Z"/>
          <path class="cls-3" d="m383.1,165.31c-.49,0-.98-.05-1.46-.16-.48-.11-.93-.26-1.34-.46s-.78-.43-1.09-.71l.58-1.26c.51.4,1.04.69,1.58.89.54.2,1.11.3,1.7.3.76,0,1.35-.2,1.78-.59.43-.39.65-.92.65-1.58s-.21-1.23-.62-1.66c-.41-.42-.98-.63-1.7-.63-.5,0-.96.1-1.37.3-.41.2-.77.51-1.08.93h-1.15v-6.78h6.83v1.39h-5.25v4.06h-.42c.29-.41.67-.72,1.16-.94.49-.22,1.03-.34,1.64-.34.73,0,1.35.15,1.89.45.53.3.95.71,1.24,1.25.29.53.44,1.16.44,1.89s-.16,1.36-.49,1.91c-.33.55-.79.98-1.39,1.29-.6.31-1.32.46-2.14.46Z"/>
          <path class="cls-3" d="m392.43,165.31c-.77,0-1.5-.12-2.21-.34-.7-.23-1.29-.56-1.76-.98l.58-1.26c.52.41,1.06.7,1.6.9s1.13.29,1.74.29c.79,0,1.39-.17,1.8-.5.41-.33.62-.81.62-1.42s-.21-1.07-.62-1.38c-.41-.31-1.02-.47-1.82-.47h-1.74v-1.34h1.62c.68,0,1.23-.17,1.63-.52s.61-.82.61-1.42c0-.54-.19-.96-.56-1.26-.37-.29-.91-.44-1.6-.44-1.17,0-2.2.41-3.09,1.23l-.56-1.26c.44-.44.99-.78,1.66-1.02.67-.24,1.38-.36,2.11-.36,1.13,0,2.02.26,2.67.78.65.52.98,1.23.98,2.15,0,.69-.19,1.29-.58,1.78s-.92.82-1.59.98v-.18c.8.13,1.42.45,1.85.95.43.51.65,1.14.65,1.9,0,1-.35,1.79-1.06,2.36-.71.57-1.68.86-2.92.86Z"/>
          <path class="cls-3" d="m402.89,168.62v-9.58c0-.31-.01-.63-.04-.95-.03-.33-.06-.65-.09-.98h1.57l.16,1.82h-.18c.17-.61.51-1.09,1.03-1.44.52-.35,1.13-.53,1.85-.53s1.34.17,1.87.5.95.81,1.24,1.43c.29.62.44,1.37.44,2.24s-.15,1.61-.44,2.24c-.29.63-.71,1.11-1.24,1.44-.53.33-1.16.5-1.87.5s-1.31-.17-1.83-.52-.86-.82-1.03-1.42h.18v5.25h-1.62Zm3.9-4.58c.7,0,1.27-.25,1.69-.74.42-.49.63-1.22.63-2.18s-.21-1.68-.63-2.17c-.42-.48-.98-.73-1.69-.73s-1.27.24-1.69.73c-.42.49-.63,1.21-.63,2.17s.21,1.69.63,2.18c.42.49.98.74,1.69.74Z"/>
          <path class="cls-3" d="m412.24,165.16v-1.9h1.9v1.9h-1.9Z"/>
        </g>
        <g>
          <path class="cls-3" d="m369.87,211.77v-1.23l3.87-4.05c.5-.52.88-1.01,1.12-1.47.25-.46.37-.93.37-1.42,0-.61-.19-1.07-.57-1.38-.38-.31-.93-.46-1.64-.46-.57,0-1.1.1-1.59.3-.5.2-.97.51-1.43.93l-.58-1.26c.45-.42,1.01-.75,1.67-1,.67-.25,1.37-.38,2.12-.38,1.17,0,2.08.27,2.71.8s.95,1.3.95,2.29c0,.7-.17,1.38-.51,2.02-.34.65-.85,1.31-1.54,1.99l-3.34,3.38v-.45h5.86v1.39h-7.47Z"/>
          <path class="cls-3" d="m383.1,211.91c-.49,0-.98-.05-1.46-.16-.48-.11-.93-.26-1.34-.46-.42-.2-.78-.43-1.09-.71l.58-1.26c.51.39,1.04.69,1.58.89.54.2,1.11.3,1.7.3.76,0,1.35-.2,1.78-.59.43-.39.65-.92.65-1.58s-.21-1.23-.62-1.66c-.41-.42-.98-.63-1.7-.63-.5,0-.96.1-1.37.3-.41.2-.77.51-1.08.93h-1.15v-6.78h6.83v1.39h-5.25v4.06h-.42c.29-.41.67-.72,1.16-.94.49-.22,1.03-.34,1.64-.34.73,0,1.35.15,1.89.45s.95.71,1.24,1.25.44,1.16.44,1.89-.16,1.36-.49,1.91c-.33.55-.79.98-1.39,1.29-.6.31-1.32.46-2.14.46Z"/>
          <path class="cls-3" d="m392.43,211.91c-.77,0-1.5-.11-2.21-.34s-1.29-.56-1.76-.98l.58-1.26c.52.41,1.06.7,1.6.9.54.19,1.13.29,1.74.29.79,0,1.39-.17,1.8-.5.41-.33.62-.81.62-1.42s-.21-1.07-.62-1.38c-.41-.31-1.02-.47-1.82-.47h-1.74v-1.34h1.62c.68,0,1.23-.17,1.63-.52s.61-.82.61-1.42c0-.54-.19-.96-.56-1.26s-.91-.44-1.6-.44c-1.17,0-2.2.41-3.09,1.23l-.56-1.26c.44-.44.99-.78,1.66-1.02s1.38-.36,2.11-.36c1.13,0,2.02.26,2.67.78.65.52.98,1.24.98,2.15,0,.69-.19,1.29-.58,1.78-.39.49-.92.82-1.59.98v-.18c.8.13,1.42.45,1.85.95.43.51.65,1.14.65,1.9,0,1-.35,1.79-1.06,2.36-.71.57-1.68.86-2.92.86Z"/>
          <path class="cls-3" d="m402.89,215.23v-9.58c0-.31-.01-.63-.04-.95s-.06-.65-.09-.98h1.57l.16,1.82h-.18c.17-.61.51-1.09,1.03-1.44.52-.35,1.13-.53,1.85-.53s1.34.17,1.87.5.95.81,1.24,1.43c.29.62.44,1.37.44,2.24s-.15,1.61-.44,2.24c-.29.63-.71,1.11-1.24,1.44-.53.33-1.16.5-1.87.5s-1.31-.17-1.83-.52-.86-.82-1.03-1.42h.18v5.25h-1.62Zm3.9-4.58c.7,0,1.27-.25,1.69-.74.42-.49.63-1.22.63-2.18s-.21-1.68-.63-2.17c-.42-.49-.98-.73-1.69-.73s-1.27.24-1.69.73-.63,1.21-.63,2.17.21,1.69.63,2.18c.42.49.98.74,1.69.74Z"/>
          <path class="cls-3" d="m412.24,211.77v-1.9h1.9v1.9h-1.9Z"/>
        </g>
        <g>
          <path class="cls-3" d="m525.39,119.15c-.49,0-.98-.05-1.46-.16s-.94-.26-1.36-.45c-.42-.19-.78-.42-1.08-.69l.67-1.55c.5.37,1.02.65,1.54.84.53.19,1.08.28,1.66.28.69,0,1.23-.17,1.62-.52.39-.35.58-.81.58-1.4s-.19-1.08-.56-1.45c-.37-.37-.89-.55-1.54-.55-.46,0-.88.09-1.26.26s-.72.45-1.02.81h-1.36v-6.86h7.01v1.7h-5.06v3.58h-.5c.28-.37.65-.66,1.11-.86.46-.2.98-.3,1.56-.3.73,0,1.35.15,1.89.45.53.3.95.72,1.25,1.26.3.54.45,1.17.45,1.9s-.17,1.38-.5,1.94-.82,1-1.44,1.31-1.36.47-2.22.47Z"/>
          <path class="cls-3" d="m535.81,118.99v-2.21h-5.04v-1.44l5.36-7.63h1.66v7.5h1.62v1.57h-1.62v2.21h-1.98Zm0-3.78v-5.07h.38l-3.89,5.55v-.48h3.5Z"/>
          <path class="cls-3" d="m544.51,119.15c-1.32,0-2.34-.5-3.06-1.51-.71-1.01-1.07-2.45-1.07-4.31s.36-3.32,1.07-4.3c.71-.98,1.73-1.47,3.06-1.47s2.35.49,3.06,1.47c.71.98,1.06,2.41,1.06,4.29s-.35,3.32-1.06,4.33c-.71,1.01-1.73,1.51-3.06,1.51Zm0-1.7c.73,0,1.26-.33,1.62-1,.35-.67.53-1.71.53-3.14s-.18-2.47-.53-3.11c-.35-.64-.89-.97-1.62-.97s-1.25.32-1.61.97c-.36.65-.54,1.68-.54,3.11s.18,2.48.54,3.14c.36.67.89,1,1.61,1Z"/>
          <path class="cls-3" d="m557.92,119.15c-.7,0-1.33-.17-1.86-.5-.54-.34-.96-.82-1.26-1.45-.3-.63-.45-1.38-.45-2.26s.15-1.62.45-2.25c.3-.62.72-1.1,1.26-1.44.54-.34,1.16-.5,1.86-.5s1.27.16,1.78.49c.52.33.86.77,1.03,1.32h-.21v-5.34h2v11.78h-1.97v-1.71h.19c-.17.58-.52,1.03-1.03,1.37-.52.34-1.12.5-1.8.5Zm.56-1.54c.63,0,1.14-.22,1.52-.66.38-.44.58-1.11.58-2.01s-.19-1.56-.58-2c-.38-.44-.89-.66-1.52-.66s-1.14.22-1.53.66c-.39.44-.58,1.1-.58,2s.2,1.57.58,2.01c.39.44.9.66,1.53.66Z"/>
          <path class="cls-3" d="m564.71,122.44v-9.52c0-.33-.01-.67-.03-1.01-.02-.34-.05-.68-.1-1.01h1.94l.18,1.7h-.18c.16-.57.5-1.02,1.02-1.35s1.12-.5,1.8-.5,1.34.17,1.87.5.95.82,1.25,1.44.45,1.37.45,2.25-.15,1.63-.45,2.26-.71,1.11-1.25,1.45c-.53.34-1.16.5-1.87.5-.67,0-1.26-.17-1.78-.5-.51-.33-.85-.77-1.02-1.33h.18v5.12h-2Zm4.06-4.83c.64,0,1.15-.22,1.54-.66.38-.44.58-1.11.58-2.01s-.19-1.56-.58-2c-.38-.44-.9-.66-1.54-.66s-1.14.22-1.52.66-.58,1.1-.58,2,.19,1.57.58,2.01c.38.44.89.66,1.52.66Z"/>
          <path class="cls-3" d="m574.51,109.39v-1.95h2.22v1.95h-2.22Zm.11,9.6v-8.08h2v8.08h-2Z"/>
        </g>
        <g>
          <path class="cls-3" d="m527.17,165.16v-1.23l3.87-4.05c.5-.52.88-1.01,1.12-1.47.25-.46.37-.93.37-1.42,0-.61-.19-1.07-.57-1.38s-.93-.46-1.64-.46c-.57,0-1.1.1-1.59.3-.5.2-.97.51-1.43.93l-.58-1.26c.45-.42,1.01-.75,1.67-1,.67-.25,1.37-.38,2.12-.38,1.17,0,2.08.27,2.71.8.63.53.95,1.3.95,2.29,0,.7-.17,1.38-.51,2.02-.34.65-.85,1.31-1.54,1.99l-3.34,3.38v-.45h5.86v1.39h-7.47Z"/>
          <path class="cls-3" d="m540.24,165.31c-1.3,0-2.31-.28-3.04-.83-.72-.55-1.09-1.33-1.09-2.32,0-.79.24-1.44.72-1.96.48-.52,1.11-.83,1.89-.94v.29c-.7-.15-1.27-.47-1.69-.98-.42-.5-.63-1.11-.63-1.82,0-.94.34-1.67,1.02-2.21.68-.53,1.62-.8,2.82-.8s2.15.27,2.83.8c.68.53,1.02,1.27,1.02,2.21,0,.71-.2,1.33-.6,1.83-.4.51-.95.82-1.64.95v-.27c.77.11,1.38.42,1.84.94.46.52.69,1.17.69,1.96,0,.99-.36,1.77-1.09,2.32-.73.55-1.74.83-3.06.83Zm0-1.31c.86,0,1.51-.16,1.94-.49.43-.33.64-.81.64-1.46s-.21-1.14-.64-1.46c-.43-.32-1.07-.48-1.94-.48s-1.51.16-1.94.48c-.43.32-.64.81-.64,1.46s.22,1.14.65,1.46c.43.33,1.07.49,1.93.49Zm0-5.2c.75,0,1.31-.17,1.7-.5s.58-.8.58-1.38-.19-1.03-.58-1.36c-.39-.33-.96-.5-1.7-.5s-1.3.17-1.7.5c-.39.33-.59.78-.59,1.36s.2,1.05.59,1.38.96.5,1.7.5Z"/>
          <path class="cls-3" d="m550.23,165.31c-1.4,0-2.47-.49-3.22-1.46s-1.13-2.33-1.13-4.08c0-1.3.19-2.4.58-3.29.38-.89.93-1.57,1.64-2.04.71-.47,1.57-.7,2.57-.7.6,0,1.19.12,1.79.34.6.23,1.1.55,1.5.97l-.59,1.25c-.39-.38-.83-.67-1.3-.86-.47-.19-.94-.29-1.42-.29-1.03,0-1.82.36-2.37,1.08s-.82,1.79-.82,3.22v1.36h-.16c.07-.58.26-1.07.54-1.5.29-.42.66-.74,1.12-.97.46-.22.97-.34,1.54-.34.67,0,1.27.15,1.78.46.52.31.92.73,1.22,1.27.3.54.45,1.16.45,1.85s-.16,1.35-.48,1.92-.76,1-1.32,1.32c-.56.32-1.2.47-1.93.47Zm-.1-1.34c.45,0,.84-.1,1.18-.29.34-.19.6-.46.79-.81s.29-.75.29-1.21-.1-.86-.29-1.2c-.19-.34-.46-.61-.79-.81s-.73-.3-1.18-.3-.84.1-1.18.3c-.34.2-.61.47-.8.81-.19.34-.29.74-.29,1.2s.1.86.29,1.21c.19.35.46.62.8.81.34.19.74.29,1.18.29Z"/>
          <path class="cls-3" d="m560.19,168.62v-9.58c0-.31-.01-.63-.04-.95-.03-.33-.06-.65-.09-.98h1.57l.16,1.82h-.18c.17-.61.51-1.09,1.03-1.44.52-.35,1.13-.53,1.85-.53s1.34.17,1.87.5.95.81,1.24,1.43c.29.62.44,1.37.44,2.24s-.15,1.61-.44,2.24c-.29.63-.71,1.11-1.24,1.44-.53.33-1.16.5-1.87.5s-1.31-.17-1.83-.52-.86-.82-1.03-1.42h.18v5.25h-1.62Zm3.9-4.58c.7,0,1.27-.25,1.69-.74.42-.49.63-1.22.63-2.18s-.21-1.68-.63-2.17c-.42-.48-.98-.73-1.69-.73s-1.27.24-1.69.73c-.42.49-.63,1.21-.63,2.17s.21,1.69.63,2.18c.42.49.98.74,1.69.74Z"/>
          <path class="cls-3" d="m569.54,165.16v-1.9h1.9v1.9h-1.9Z"/>
        </g>
        <g>
          <path class="cls-3" d="m527.17,211.77v-1.23l3.87-4.05c.5-.52.88-1.01,1.12-1.47.25-.46.37-.93.37-1.42,0-.61-.19-1.07-.57-1.38-.38-.31-.93-.46-1.64-.46-.57,0-1.1.1-1.59.3-.5.2-.97.51-1.43.93l-.58-1.26c.45-.42,1.01-.75,1.67-1,.67-.25,1.37-.38,2.12-.38,1.17,0,2.08.27,2.71.8s.95,1.3.95,2.29c0,.7-.17,1.38-.51,2.02-.34.65-.85,1.31-1.54,1.99l-3.34,3.38v-.45h5.86v1.39h-7.47Z"/>
          <path class="cls-3" d="m540.4,211.91c-.49,0-.98-.05-1.46-.16-.48-.11-.93-.26-1.34-.46-.42-.2-.78-.43-1.09-.71l.58-1.26c.51.39,1.04.69,1.58.89.54.2,1.11.3,1.7.3.76,0,1.35-.2,1.78-.59.43-.39.65-.92.65-1.58s-.21-1.23-.62-1.66c-.41-.42-.98-.63-1.7-.63-.5,0-.96.1-1.37.3-.41.2-.77.51-1.08.93h-1.15v-6.78h6.83v1.39h-5.25v4.06h-.42c.29-.41.67-.72,1.16-.94.49-.22,1.03-.34,1.64-.34.73,0,1.35.15,1.89.45s.95.71,1.24,1.25.44,1.16.44,1.89-.16,1.36-.49,1.91c-.33.55-.79.98-1.39,1.29-.6.31-1.32.46-2.14.46Z"/>
          <path class="cls-3" d="m549.73,211.91c-.77,0-1.5-.11-2.21-.34s-1.29-.56-1.76-.98l.58-1.26c.52.41,1.06.7,1.6.9.54.19,1.13.29,1.74.29.79,0,1.39-.17,1.8-.5.41-.33.62-.81.62-1.42s-.21-1.07-.62-1.38c-.41-.31-1.02-.47-1.82-.47h-1.74v-1.34h1.62c.68,0,1.23-.17,1.63-.52s.61-.82.61-1.42c0-.54-.19-.96-.56-1.26s-.91-.44-1.6-.44c-1.17,0-2.2.41-3.09,1.23l-.56-1.26c.44-.44.99-.78,1.66-1.02s1.38-.36,2.11-.36c1.13,0,2.02.26,2.67.78.65.52.98,1.24.98,2.15,0,.69-.19,1.29-.58,1.78-.39.49-.92.82-1.59.98v-.18c.8.13,1.42.45,1.85.95.43.51.65,1.14.65,1.9,0,1-.35,1.79-1.06,2.36-.71.57-1.68.86-2.92.86Z"/>
          <path class="cls-3" d="m560.19,215.23v-9.58c0-.31-.01-.63-.04-.95s-.06-.65-.09-.98h1.57l.16,1.82h-.18c.17-.61.51-1.09,1.03-1.44.52-.35,1.13-.53,1.85-.53s1.34.17,1.87.5.95.81,1.24,1.43c.29.62.44,1.37.44,2.24s-.15,1.61-.44,2.24c-.29.63-.71,1.11-1.24,1.44-.53.33-1.16.5-1.87.5s-1.31-.17-1.83-.52-.86-.82-1.03-1.42h.18v5.25h-1.62Zm3.9-4.58c.7,0,1.27-.25,1.69-.74.42-.49.63-1.22.63-2.18s-.21-1.68-.63-2.17c-.42-.49-.98-.73-1.69-.73s-1.27.24-1.69.73-.63,1.21-.63,2.17.21,1.69.63,2.18c.42.49.98.74,1.69.74Z"/>
          <path class="cls-3" d="m569.54,211.77v-1.9h1.9v1.9h-1.9Z"/>
        </g>
        <g>
          <path class="cls-3" d="m677.72,118.99l5.47-10.27v.72h-5.98v-1.73h7.89v1.54l-5.12,9.74h-2.26Z"/>
          <path class="cls-3" d="m687.2,118.99v-1.52l3.74-3.9c.47-.49.82-.94,1.04-1.36.22-.42.34-.84.34-1.28,0-.54-.17-.96-.51-1.23-.34-.28-.84-.42-1.49-.42-.52,0-1.02.09-1.5.28-.48.19-.95.48-1.41.87l-.67-1.54c.46-.4,1.03-.73,1.7-.97.68-.25,1.39-.37,2.14-.37,1.22,0,2.15.27,2.8.82.65.54.98,1.32.98,2.34,0,.7-.17,1.37-.5,2.01-.33.63-.84,1.3-1.54,1.99l-3.12,3.12v-.54h5.6v1.71h-7.6Z"/>
          <path class="cls-3" d="m700.35,119.15c-1.32,0-2.34-.5-3.05-1.51-.71-1.01-1.07-2.45-1.07-4.31s.36-3.32,1.07-4.3c.71-.98,1.73-1.47,3.05-1.47s2.36.49,3.06,1.47,1.06,2.41,1.06,4.29-.36,3.32-1.06,4.33-1.73,1.51-3.06,1.51Zm0-1.7c.73,0,1.26-.33,1.62-1,.35-.67.53-1.71.53-3.14s-.18-2.47-.53-3.11c-.35-.64-.89-.97-1.62-.97s-1.25.32-1.61.97c-.36.65-.54,1.68-.54,3.11s.18,2.48.54,3.14c.36.67.89,1,1.61,1Z"/>
          <path class="cls-3" d="m713.76,119.15c-.7,0-1.33-.17-1.86-.5-.54-.34-.96-.82-1.26-1.45-.3-.63-.45-1.38-.45-2.26s.15-1.62.45-2.25c.3-.62.72-1.1,1.26-1.44.54-.34,1.16-.5,1.86-.5s1.27.16,1.78.49c.52.33.86.77,1.03,1.32h-.21v-5.34h2v11.78h-1.97v-1.71h.19c-.17.58-.51,1.03-1.03,1.37-.52.34-1.12.5-1.8.5Zm.56-1.54c.63,0,1.14-.22,1.52-.66.38-.44.58-1.11.58-2.01s-.19-1.56-.58-2c-.38-.44-.89-.66-1.52-.66s-1.14.22-1.53.66-.58,1.1-.58,2,.19,1.57.58,2.01c.39.44.9.66,1.53.66Z"/>
          <path class="cls-3" d="m720.54,122.44v-9.52c0-.33-.01-.67-.03-1.01-.02-.34-.05-.68-.1-1.01h1.94l.18,1.7h-.18c.16-.57.5-1.02,1.02-1.35s1.12-.5,1.8-.5,1.34.17,1.87.5.95.82,1.25,1.44.45,1.37.45,2.25-.15,1.63-.45,2.26-.71,1.11-1.25,1.45c-.53.34-1.16.5-1.87.5-.67,0-1.26-.17-1.78-.5-.51-.33-.85-.77-1.02-1.33h.18v5.12h-2Zm4.06-4.83c.64,0,1.15-.22,1.54-.66.38-.44.58-1.11.58-2.01s-.19-1.56-.58-2c-.38-.44-.9-.66-1.54-.66s-1.14.22-1.52.66-.58,1.1-.58,2,.19,1.57.58,2.01c.38.44.89.66,1.52.66Z"/>
          <path class="cls-3" d="m730.35,109.39v-1.95h2.22v1.95h-2.22Zm.11,9.6v-8.08h2v8.08h-2Z"/>
        </g>
        <g>
          <path class="cls-3" d="m686.64,165.31c-.49,0-.98-.05-1.46-.16s-.93-.26-1.34-.46-.78-.43-1.09-.71l.58-1.26c.51.4,1.04.69,1.58.89s1.11.3,1.71.3c.76,0,1.35-.2,1.78-.59s.65-.92.65-1.58-.21-1.23-.62-1.66c-.41-.42-.98-.63-1.7-.63-.5,0-.96.1-1.37.3-.41.2-.77.51-1.08.93h-1.15v-6.78h6.83v1.39h-5.25v4.06h-.42c.29-.41.67-.72,1.16-.94.48-.22,1.03-.34,1.64-.34.73,0,1.35.15,1.89.45.53.3.95.71,1.24,1.25.29.53.44,1.16.44,1.89s-.16,1.36-.49,1.91c-.32.55-.79.98-1.39,1.29-.6.31-1.32.46-2.14.46Z"/>
          <path class="cls-3" d="m696.24,165.31c-.49,0-.98-.05-1.46-.16s-.93-.26-1.34-.46-.78-.43-1.09-.71l.58-1.26c.51.4,1.04.69,1.58.89s1.11.3,1.71.3c.76,0,1.35-.2,1.78-.59s.65-.92.65-1.58-.21-1.23-.62-1.66c-.41-.42-.98-.63-1.7-.63-.5,0-.96.1-1.37.3-.41.2-.77.51-1.08.93h-1.15v-6.78h6.83v1.39h-5.25v4.06h-.42c.29-.41.67-.72,1.16-.94.48-.22,1.03-.34,1.64-.34.73,0,1.35.15,1.89.45.53.3.95.71,1.24,1.25.29.53.44,1.16.44,1.89s-.16,1.36-.49,1.91c-.32.55-.79.98-1.39,1.29-.6.31-1.32.46-2.14.46Z"/>
          <path class="cls-3" d="m705.68,165.31c-1.3,0-2.3-.5-3-1.5-.7-1-1.05-2.43-1.05-4.3s.35-3.34,1.05-4.31c.7-.98,1.7-1.46,3-1.46s2.31.49,3.01,1.46c.69.98,1.04,2.41,1.04,4.3s-.35,3.32-1.05,4.31c-.7,1-1.7,1.5-3,1.5Zm0-1.39c.82,0,1.43-.36,1.83-1.07.4-.71.6-1.83.6-3.34s-.2-2.64-.6-3.34c-.4-.7-1.01-1.05-1.83-1.05s-1.42.35-1.82,1.05c-.41.7-.61,1.81-.61,3.32s.21,2.65.62,3.36c.41.71,1.02,1.07,1.82,1.07Z"/>
          <path class="cls-3" d="m716.03,168.62v-9.58c0-.31-.01-.63-.04-.95-.03-.33-.06-.65-.09-.98h1.57l.16,1.82h-.18c.17-.61.51-1.09,1.03-1.44.52-.35,1.13-.53,1.85-.53s1.34.17,1.87.5.95.81,1.24,1.43c.29.62.44,1.37.44,2.24s-.15,1.61-.44,2.24c-.29.63-.71,1.11-1.24,1.44-.53.33-1.16.5-1.87.5s-1.31-.17-1.83-.52-.86-.82-1.03-1.42h.18v5.25h-1.62Zm3.9-4.58c.7,0,1.27-.25,1.69-.74.42-.49.63-1.22.63-2.18s-.21-1.68-.63-2.17c-.42-.48-.98-.73-1.69-.73s-1.27.24-1.69.73c-.42.49-.63,1.21-.63,2.17s.21,1.69.63,2.18c.42.49.98.74,1.69.74Z"/>
          <path class="cls-3" d="m725.37,165.16v-1.9h1.9v1.9h-1.9Z"/>
        </g>
        <g>
          <path class="cls-3" d="m686.48,211.91c-1.3,0-2.31-.28-3.04-.83s-1.09-1.33-1.09-2.32c0-.79.24-1.44.72-1.96.48-.52,1.11-.83,1.89-.94v.29c-.7-.15-1.27-.47-1.69-.98-.42-.5-.63-1.11-.63-1.82,0-.94.34-1.67,1.02-2.21.68-.53,1.62-.8,2.82-.8s2.15.27,2.83.8,1.02,1.27,1.02,2.21c0,.71-.2,1.33-.6,1.83s-.95.82-1.64.95v-.27c.77.11,1.38.42,1.84.94.46.52.69,1.17.69,1.96,0,.99-.36,1.76-1.09,2.32-.73.55-1.74.83-3.06.83Zm0-1.31c.86,0,1.51-.16,1.94-.49.43-.33.64-.81.64-1.46s-.21-1.14-.64-1.46c-.43-.32-1.07-.48-1.94-.48s-1.51.16-1.94.48c-.43.32-.64.81-.64,1.46s.22,1.14.65,1.46,1.07.49,1.93.49Zm0-5.2c.75,0,1.31-.17,1.7-.5s.58-.8.58-1.38-.19-1.03-.58-1.36c-.39-.33-.96-.5-1.7-.5s-1.3.17-1.7.5c-.39.33-.59.78-.59,1.36s.2,1.05.59,1.38.96.5,1.7.5Z"/>
          <path class="cls-3" d="m696.24,211.91c-.49,0-.98-.05-1.46-.16s-.93-.26-1.34-.46c-.42-.2-.78-.43-1.09-.71l.58-1.26c.51.39,1.04.69,1.58.89.54.2,1.11.3,1.71.3.76,0,1.35-.2,1.78-.59s.65-.92.65-1.58-.21-1.23-.62-1.66c-.41-.42-.98-.63-1.7-.63-.5,0-.96.1-1.37.3-.41.2-.77.51-1.08.93h-1.15v-6.78h6.83v1.39h-5.25v4.06h-.42c.29-.41.67-.72,1.16-.94.48-.22,1.03-.34,1.64-.34.73,0,1.35.15,1.89.45s.95.71,1.24,1.25.44,1.16.44,1.89-.16,1.36-.49,1.91c-.32.55-.79.98-1.39,1.29-.6.31-1.32.46-2.14.46Z"/>
          <path class="cls-3" d="m705.56,211.91c-.77,0-1.5-.11-2.21-.34s-1.29-.56-1.76-.98l.58-1.26c.52.41,1.06.7,1.6.9.54.19,1.13.29,1.74.29.79,0,1.39-.17,1.8-.5.41-.33.62-.81.62-1.42s-.21-1.07-.62-1.38-1.02-.47-1.82-.47h-1.74v-1.34h1.62c.68,0,1.23-.17,1.63-.52.41-.35.61-.82.61-1.42,0-.54-.19-.96-.56-1.26s-.91-.44-1.6-.44c-1.17,0-2.2.41-3.09,1.23l-.56-1.26c.44-.44.99-.78,1.66-1.02s1.38-.36,2.11-.36c1.13,0,2.02.26,2.67.78.65.52.98,1.24.98,2.15,0,.69-.2,1.29-.58,1.78-.39.49-.92.82-1.59.98v-.18c.8.13,1.42.45,1.85.95.43.51.65,1.14.65,1.9,0,1-.36,1.79-1.06,2.36-.71.57-1.68.86-2.92.86Z"/>
          <path class="cls-3" d="m716.03,215.23v-9.58c0-.31-.01-.63-.04-.95-.03-.33-.06-.65-.09-.98h1.57l.16,1.82h-.18c.17-.61.51-1.09,1.03-1.44.52-.35,1.13-.53,1.85-.53s1.34.17,1.87.5.95.81,1.24,1.43c.29.62.44,1.37.44,2.24s-.15,1.61-.44,2.24c-.29.63-.71,1.11-1.24,1.44-.53.33-1.16.5-1.87.5s-1.31-.17-1.83-.52-.86-.82-1.03-1.42h.18v5.25h-1.62Zm3.9-4.58c.7,0,1.27-.25,1.69-.74.42-.49.63-1.22.63-2.18s-.21-1.68-.63-2.17c-.42-.49-.98-.73-1.69-.73s-1.27.24-1.69.73c-.42.49-.63,1.21-.63,2.17s.21,1.69.63,2.18c.42.49.98.74,1.69.74Z"/>
          <path class="cls-3" d="m725.37,211.77v-1.9h1.9v1.9h-1.9Z"/>
        </g>
        <g>
          <path class="cls-3" d="m608.41,256.86v-3.39h-3.34v-1.18h3.34v-3.31h1.22v3.31h3.34v1.18h-3.34v3.39h-1.22Z"/>
          <path class="cls-3" d="m615.14,257.47v-1.23l3.87-4.05c.5-.52.88-1.01,1.12-1.47.25-.46.37-.93.37-1.42,0-.61-.19-1.07-.57-1.38-.38-.31-.93-.46-1.64-.46-.57,0-1.1.1-1.59.3-.5.2-.97.51-1.43.93l-.58-1.26c.45-.42,1.01-.75,1.67-1,.67-.25,1.37-.38,2.12-.38,1.17,0,2.08.27,2.71.8s.95,1.3.95,2.29c0,.7-.17,1.38-.51,2.02-.34.65-.85,1.31-1.54,1.99l-3.34,3.38v-.45h5.86v1.39h-7.47Z"/>
          <path class="cls-3" d="m628.22,257.61c-1.3,0-2.3-.5-3-1.5-.7-1-1.05-2.43-1.05-4.3s.35-3.34,1.05-4.31c.7-.98,1.7-1.46,3-1.46s2.31.49,3.01,1.46c.69.98,1.04,2.41,1.04,4.3s-.35,3.31-1.05,4.31c-.7,1-1.7,1.5-3,1.5Zm0-1.39c.82,0,1.43-.36,1.83-1.07.4-.71.6-1.83.6-3.34s-.2-2.64-.6-3.34c-.4-.7-1.01-1.05-1.83-1.05s-1.42.35-1.82,1.05c-.41.7-.61,1.81-.61,3.32s.21,2.65.62,3.36,1.02,1.07,1.82,1.07Z"/>
          <path class="cls-3" d="m636.6,252.94c-.89,0-1.58-.31-2.09-.92-.51-.61-.76-1.46-.76-2.54s.26-1.93.77-2.54,1.21-.9,2.08-.9,1.58.31,2.08.92c.5.61.75,1.45.75,2.52s-.25,1.92-.75,2.54c-.5.61-1.2.92-2.08.92Zm0-1.09c.46,0,.82-.19,1.08-.58.26-.39.39-.98.39-1.78s-.13-1.41-.39-1.78c-.26-.38-.62-.57-1.08-.57s-.82.19-1.08.57c-.26.38-.39.97-.39,1.78s.13,1.41.39,1.79c.26.38.62.58,1.08.58Zm1.33,5.62h-1.41l6.69-11.28h1.41l-6.69,11.28Zm6.61.14c-.88,0-1.58-.31-2.08-.92s-.75-1.46-.75-2.54.25-1.93.76-2.54c.51-.6,1.2-.9,2.07-.9s1.58.31,2.08.92.75,1.45.75,2.52-.25,1.92-.75,2.54-1.2.92-2.08.92Zm0-1.09c.46,0,.82-.19,1.08-.58s.39-.98.39-1.79-.13-1.41-.39-1.78c-.26-.38-.62-.57-1.08-.57s-.82.19-1.08.57c-.26.38-.39.97-.39,1.78s.13,1.41.39,1.79.62.58,1.08.58Z"/>
        </g>
        <g>
          <path class="cls-3" d="m828.28,118.99v-1.71h2.59v-7.84h.99l-3.33,1.98v-1.95l2.93-1.76h1.47v9.57h2.43v1.71h-7.09Z"/>
          <path class="cls-3" d="m841.8,118.99v-2.21h-5.04v-1.44l5.36-7.63h1.66v7.5h1.62v1.57h-1.62v2.21h-1.98Zm0-3.78v-5.07h.38l-3.89,5.55v-.48h3.5Z"/>
          <path class="cls-3" d="m851.4,118.99v-2.21h-5.04v-1.44l5.36-7.63h1.66v7.5h1.62v1.57h-1.62v2.21h-1.98Zm0-3.78v-5.07h.38l-3.89,5.55v-.48h3.5Z"/>
          <path class="cls-3" d="m860.11,119.15c-1.32,0-2.34-.5-3.06-1.51s-1.07-2.45-1.07-4.31.36-3.32,1.07-4.3,1.73-1.47,3.06-1.47,2.35.49,3.06,1.47,1.06,2.41,1.06,4.29-.35,3.32-1.06,4.33-1.73,1.51-3.06,1.51Zm0-1.7c.72,0,1.26-.33,1.62-1,.35-.67.53-1.71.53-3.14s-.18-2.47-.53-3.11c-.35-.64-.89-.97-1.62-.97s-1.25.32-1.61.97c-.36.65-.54,1.68-.54,3.11s.18,2.48.54,3.14c.36.67.89,1,1.61,1Z"/>
          <path class="cls-3" d="m873.51,119.15c-.7,0-1.32-.17-1.86-.5-.54-.34-.96-.82-1.26-1.45s-.45-1.38-.45-2.26.15-1.62.45-2.25.72-1.1,1.26-1.44,1.16-.5,1.86-.5,1.27.16,1.79.49.86.77,1.03,1.32h-.21v-5.34h2v11.78h-1.97v-1.71h.19c-.17.58-.51,1.03-1.03,1.37-.52.34-1.12.5-1.8.5Zm.56-1.54c.63,0,1.14-.22,1.52-.66.38-.44.58-1.11.58-2.01s-.19-1.56-.58-2c-.38-.44-.89-.66-1.52-.66s-1.14.22-1.53.66c-.39.44-.58,1.1-.58,2s.19,1.57.58,2.01c.39.44.9.66,1.53.66Z"/>
          <path class="cls-3" d="m880.3,122.44v-9.52c0-.33-.01-.67-.03-1.01-.02-.34-.05-.68-.1-1.01h1.94l.18,1.7h-.18c.16-.57.5-1.02,1.02-1.35s1.12-.5,1.8-.5,1.34.17,1.87.5.95.82,1.25,1.44.45,1.37.45,2.25-.15,1.63-.45,2.26-.71,1.11-1.25,1.45c-.53.34-1.16.5-1.87.5-.67,0-1.26-.17-1.78-.5s-.85-.77-1.02-1.33h.18v5.12h-2Zm4.06-4.83c.64,0,1.15-.22,1.54-.66.38-.44.58-1.11.58-2.01s-.19-1.56-.58-2-.9-.66-1.54-.66-1.14.22-1.52.66c-.38.44-.58,1.1-.58,2s.19,1.57.58,2.01c.38.44.89.66,1.52.66Z"/>
          <path class="cls-3" d="m890.1,109.39v-1.95h2.22v1.95h-2.22Zm.11,9.6v-8.08h2v8.08h-2Z"/>
        </g>
        <g>
          <path class="cls-3" d="m841.59,165.31c-.49,0-.98-.05-1.46-.16-.48-.11-.93-.26-1.34-.46s-.78-.43-1.09-.71l.58-1.26c.51.4,1.04.69,1.58.89s1.11.3,1.7.3c.76,0,1.35-.2,1.78-.59.43-.39.65-.92.65-1.58s-.21-1.23-.62-1.66c-.41-.42-.98-.63-1.7-.63-.5,0-.96.1-1.37.3-.41.2-.77.51-1.08.93h-1.15v-6.78h6.83v1.39h-5.25v4.06h-.42c.29-.41.67-.72,1.16-.94.49-.22,1.03-.34,1.64-.34.73,0,1.36.15,1.89.45.53.3.95.71,1.24,1.25.29.53.44,1.16.44,1.89s-.16,1.36-.49,1.91c-.33.55-.79.98-1.39,1.29-.6.31-1.32.46-2.14.46Z"/>
          <path class="cls-3" d="m851.03,165.31c-1.3,0-2.31-.28-3.04-.83-.72-.55-1.09-1.33-1.09-2.32,0-.79.24-1.44.72-1.96s1.11-.83,1.89-.94v.29c-.7-.15-1.27-.47-1.69-.98-.42-.5-.63-1.11-.63-1.82,0-.94.34-1.67,1.02-2.21.68-.53,1.62-.8,2.82-.8s2.15.27,2.83.8c.68.53,1.02,1.27,1.02,2.21,0,.71-.2,1.33-.6,1.83-.4.51-.95.82-1.64.95v-.27c.77.11,1.38.42,1.84.94.46.52.69,1.17.69,1.96,0,.99-.36,1.77-1.09,2.32s-1.74.83-3.06.83Zm0-1.31c.86,0,1.51-.16,1.94-.49.43-.33.64-.81.64-1.46s-.21-1.14-.64-1.46c-.43-.32-1.07-.48-1.94-.48s-1.51.16-1.94.48c-.43.32-.64.81-.64,1.46s.22,1.14.65,1.46c.43.33,1.07.49,1.93.49Zm0-5.2c.75,0,1.31-.17,1.7-.5.39-.34.58-.8.58-1.38s-.19-1.03-.58-1.36c-.39-.33-.96-.5-1.7-.5s-1.3.17-1.7.5c-.39.33-.59.78-.59,1.36s.2,1.05.59,1.38.96.5,1.7.5Z"/>
          <path class="cls-3" d="m860.79,165.31c-.49,0-.98-.05-1.46-.16s-.93-.26-1.34-.46-.78-.43-1.09-.71l.58-1.26c.51.4,1.04.69,1.58.89s1.11.3,1.71.3c.76,0,1.35-.2,1.78-.59s.65-.92.65-1.58-.21-1.23-.62-1.66c-.41-.42-.98-.63-1.7-.63-.5,0-.96.1-1.37.3-.41.2-.77.51-1.08.93h-1.15v-6.78h6.83v1.39h-5.25v4.06h-.42c.29-.41.67-.72,1.16-.94.48-.22,1.03-.34,1.64-.34.73,0,1.35.15,1.89.45.53.3.95.71,1.24,1.25.29.53.44,1.16.44,1.89s-.16,1.36-.49,1.91c-.32.55-.79.98-1.39,1.29-.6.31-1.32.46-2.14.46Z"/>
          <path class="cls-3" d="m870.98,168.62v-9.58c0-.31-.01-.63-.04-.95-.03-.33-.06-.65-.09-.98h1.57l.16,1.82h-.18c.17-.61.51-1.09,1.03-1.44.52-.35,1.13-.53,1.85-.53s1.34.17,1.87.5.95.81,1.24,1.43c.29.62.44,1.37.44,2.24s-.15,1.61-.44,2.24c-.29.63-.71,1.11-1.24,1.44-.53.33-1.16.5-1.87.5s-1.31-.17-1.83-.52-.86-.82-1.03-1.42h.18v5.25h-1.62Zm3.9-4.58c.7,0,1.27-.25,1.69-.74.42-.49.63-1.22.63-2.18s-.21-1.68-.63-2.17c-.42-.48-.98-.73-1.69-.73s-1.27.24-1.69.73c-.42.49-.63,1.21-.63,2.17s.21,1.69.63,2.18c.42.49.98.74,1.69.74Z"/>
          <path class="cls-3" d="m880.33,165.16v-1.9h1.9v1.9h-1.9Z"/>
        </g>
        <g>
          <path class="cls-3" d="m840.63,211.91c-.6,0-1.19-.12-1.79-.36-.6-.24-1.1-.56-1.5-.95l.59-1.26c.39.38.83.67,1.29.87.47.2.95.3,1.42.3,1.02,0,1.81-.36,2.36-1.08.55-.72.82-1.79.82-3.22v-1.36h.16c-.06.57-.25,1.06-.54,1.49s-.67.75-1.13.98c-.45.22-.96.34-1.53.34-.66,0-1.26-.16-1.78-.46-.53-.31-.94-.74-1.23-1.28s-.44-1.16-.44-1.84c0-.73.16-1.37.48-1.93.32-.56.76-1,1.31-1.31s1.2-.47,1.92-.47c1.41,0,2.49.48,3.24,1.45.75.97,1.13,2.33,1.13,4.09,0,1.29-.19,2.38-.57,3.28-.38.9-.93,1.58-1.64,2.05-.71.47-1.57.7-2.58.7Zm.53-5.63c.45,0,.84-.1,1.18-.29.34-.19.61-.46.8-.81s.29-.74.29-1.19-.1-.86-.29-1.21-.46-.62-.8-.82c-.34-.2-.74-.3-1.18-.3s-.84.1-1.18.3-.6.47-.79.82-.29.75-.29,1.21.1.85.29,1.19.46.62.79.81c.34.19.73.29,1.18.29Z"/>
          <path class="cls-3" d="m851.03,211.91c-1.3,0-2.3-.5-3-1.5-.7-1-1.05-2.43-1.05-4.3s.35-3.34,1.05-4.31c.7-.98,1.7-1.46,3-1.46s2.31.49,3.01,1.46c.69.98,1.04,2.41,1.04,4.3s-.35,3.31-1.05,4.31c-.7,1-1.7,1.5-3,1.5Zm0-1.39c.82,0,1.43-.36,1.83-1.07s.6-1.83.6-3.34-.2-2.64-.6-3.34c-.4-.7-1.01-1.05-1.83-1.05s-1.42.35-1.82,1.05c-.41.7-.61,1.81-.61,3.32s.21,2.65.62,3.36,1.02,1.07,1.82,1.07Z"/>
          <path class="cls-3" d="m860.79,211.91c-.49,0-.98-.05-1.46-.16s-.93-.26-1.34-.46c-.42-.2-.78-.43-1.09-.71l.58-1.26c.51.39,1.04.69,1.58.89.54.2,1.11.3,1.71.3.76,0,1.35-.2,1.78-.59s.65-.92.65-1.58-.21-1.23-.62-1.66c-.41-.42-.98-.63-1.7-.63-.5,0-.96.1-1.37.3-.41.2-.77.51-1.08.93h-1.15v-6.78h6.83v1.39h-5.25v4.06h-.42c.29-.41.67-.72,1.16-.94.48-.22,1.03-.34,1.64-.34.73,0,1.35.15,1.89.45s.95.71,1.24,1.25.44,1.16.44,1.89-.16,1.36-.49,1.91c-.32.55-.79.98-1.39,1.29-.6.31-1.32.46-2.14.46Z"/>
          <path class="cls-3" d="m870.98,215.23v-9.58c0-.31-.01-.63-.04-.95-.03-.33-.06-.65-.09-.98h1.57l.16,1.82h-.18c.17-.61.51-1.09,1.03-1.44.52-.35,1.13-.53,1.85-.53s1.34.17,1.87.5.95.81,1.24,1.43c.29.62.44,1.37.44,2.24s-.15,1.61-.44,2.24c-.29.63-.71,1.11-1.24,1.44-.53.33-1.16.5-1.87.5s-1.31-.17-1.83-.52-.86-.82-1.03-1.42h.18v5.25h-1.62Zm3.9-4.58c.7,0,1.27-.25,1.69-.74.42-.49.63-1.22.63-2.18s-.21-1.68-.63-2.17-.98-.73-1.69-.73-1.27.24-1.69.73c-.42.49-.63,1.21-.63,2.17s.21,1.69.63,2.18c.42.49.98.74,1.69.74Z"/>
          <path class="cls-3" d="m880.33,211.77v-1.9h1.9v1.9h-1.9Z"/>
        </g>
        <g>
          <path class="cls-3" d="m83.16,165.16v-11.28h8.05v1.6h-6.08v3.12h3.28c1.24,0,2.2.27,2.9.82.69.55,1.04,1.36,1.04,2.44s-.35,1.88-1.04,2.45-1.66.85-2.9.85h-5.25Zm1.97-1.58h3.04c.76,0,1.31-.14,1.66-.42.35-.28.53-.71.53-1.29s-.18-.99-.53-1.26-.91-.42-1.66-.42h-3.04v3.39Z"/>
          <path class="cls-3" d="m93.97,168.79l-.46-1.58c.5-.11.92-.23,1.26-.37.34-.14.62-.32.85-.54.22-.22.41-.51.56-.86l.4-.94-.05.78-3.52-8.19h2.13l2.53,6.3h-.46l2.54-6.3h2.02l-3.68,8.53c-.25.58-.51,1.05-.8,1.43-.29.38-.6.68-.93.91-.33.23-.69.41-1.09.54s-.83.23-1.3.3Z"/>
          <path class="cls-3" d="m102.98,165.16v-8.08h1.66l2.78,4.83,2.78-4.83h1.66v8.08h-1.76v-5.84h.37l-2.59,4.53h-.93l-2.59-4.53h.37v5.84h-1.76Z"/>
          <path class="cls-3" d="m117.33,165.32c-.7,0-1.32-.17-1.86-.5s-.95-.82-1.25-1.45c-.3-.63-.45-1.38-.45-2.26s.15-1.62.45-2.25.71-1.1,1.25-1.44,1.15-.5,1.86-.5,1.28.17,1.8.5.86.79,1.03,1.35h-.18l.18-1.7h1.92c-.03.33-.06.67-.09,1.01-.03.34-.04.68-.04,1.01v6.06h-1.98l-.02-1.66h.19c-.17.55-.52,1-1.04,1.33-.52.33-1.12.5-1.78.5Zm.56-1.54c.63,0,1.14-.22,1.52-.66.38-.44.58-1.11.58-2.01s-.19-1.56-.58-2c-.38-.44-.89-.66-1.52-.66s-1.14.22-1.52.66c-.38.44-.58,1.1-.58,2s.19,1.57.57,2.01c.38.44.89.66,1.53.66Z"/>
          <path class="cls-3" d="m124.29,165.16v-8.08h6.06v1.57h-4.06v6.51h-2Z"/>
          <path class="cls-3" d="m134.95,165.32c-.7,0-1.32-.17-1.86-.5s-.95-.82-1.25-1.45c-.3-.63-.45-1.38-.45-2.26s.15-1.62.45-2.25c.3-.62.71-1.1,1.25-1.44s1.15-.5,1.86-.5,1.28.17,1.8.5c.52.34.86.79,1.03,1.35h-.18l.18-1.7h1.92c-.03.33-.06.67-.09,1.01-.03.34-.04.68-.04,1.01v6.06h-1.98l-.02-1.66h.19c-.17.55-.52,1-1.04,1.33-.52.33-1.11.5-1.78.5Zm.56-1.54c.63,0,1.14-.22,1.52-.66.38-.44.58-1.11.58-2.01s-.19-1.56-.58-2c-.38-.44-.89-.66-1.52-.66s-1.14.22-1.52.66c-.38.44-.58,1.1-.58,2s.19,1.57.57,2.01c.38.44.89.66,1.53.66Z"/>
          <path class="cls-3" d="m146.29,165.16v-8.08h7.57v8.08h-1.98v-6.54h-3.6v6.54h-1.98Z"/>
          <path class="cls-3" d="m159.84,165.32c-.83,0-1.55-.17-2.16-.51-.61-.34-1.08-.83-1.42-1.46s-.5-1.38-.5-2.24.17-1.61.5-2.23.81-1.11,1.42-1.45c.61-.34,1.33-.51,2.16-.51s1.55.17,2.17.51c.61.34,1.09.82,1.42,1.45s.5,1.37.5,2.23-.17,1.61-.5,2.24-.81,1.11-1.42,1.46c-.61.34-1.34.51-2.17.51Zm0-1.54c.63,0,1.13-.22,1.5-.66.37-.44.56-1.11.56-2.01s-.19-1.56-.56-2-.88-.66-1.5-.66-1.13.22-1.5.66-.56,1.1-.56,2,.19,1.57.56,2.01c.37.44.88.66,1.5.66Z"/>
          <path class="cls-3" d="m169.6,165.32c-.83,0-1.56-.17-2.18-.51-.62-.34-1.11-.83-1.45-1.46s-.51-1.39-.51-2.26.17-1.62.52-2.24c.35-.62.83-1.09,1.45-1.42.62-.33,1.34-.5,2.18-.5.53,0,1.05.08,1.56.25.51.17.92.4,1.24.71l-.61,1.39c-.29-.27-.61-.47-.97-.6-.36-.13-.71-.2-1.05-.2-.71,0-1.27.22-1.67.67-.4.45-.6,1.1-.6,1.95s.2,1.51.6,1.97c.4.46.96.69,1.67.69.33,0,.68-.06,1.03-.19s.69-.33.98-.59l.61,1.38c-.33.31-.75.55-1.26.72-.51.17-1.02.26-1.54.26Z"/>
          <path class="cls-3" d="m175.86,165.16v-6.51h-2.77v-1.57h7.54v1.57h-2.78v6.51h-1.98Z"/>
          <path class="cls-3" d="m185.75,165.32c-1.35,0-2.42-.37-3.18-1.12-.77-.75-1.15-1.77-1.15-3.07,0-.84.17-1.58.5-2.21.33-.63.79-1.12,1.38-1.47.59-.35,1.28-.53,2.07-.53s1.43.17,1.95.5c.52.33.92.79,1.19,1.39.27.6.41,1.3.41,2.1v.53h-5.89v-1.06h4.46l-.27.22c0-.75-.16-1.32-.47-1.71-.31-.39-.77-.59-1.37-.59-.66,0-1.17.23-1.53.7-.36.47-.54,1.13-.54,1.97v.21c0,.87.22,1.53.65,1.96s1.04.65,1.83.65c.46,0,.89-.06,1.29-.18.4-.12.78-.32,1.14-.6l.59,1.34c-.38.31-.84.55-1.38.72s-1.1.26-1.7.26Z"/>
          <path class="cls-3" d="m190.83,168.62v-9.52c0-.33-.01-.67-.03-1.01-.02-.34-.05-.68-.1-1.01h1.94l.18,1.7h-.18c.16-.57.5-1.02,1.02-1.35.52-.34,1.12-.5,1.8-.5s1.34.17,1.87.5c.53.34.95.82,1.25,1.44.3.62.45,1.37.45,2.25s-.15,1.63-.45,2.26c-.3.63-.71,1.11-1.25,1.45-.53.34-1.16.5-1.87.5-.67,0-1.26-.17-1.78-.5-.51-.33-.85-.77-1.02-1.33h.18v5.12h-2Zm4.06-4.83c.64,0,1.15-.22,1.54-.66.38-.44.58-1.11.58-2.01s-.19-1.56-.58-2-.9-.66-1.54-.66-1.14.22-1.52.66-.58,1.1-.58,2,.19,1.57.58,2.01c.38.44.89.66,1.52.66Z"/>
          <path class="cls-3" d="m200.91,165.16v-8.08h1.98v3.17h3.65v-3.17h1.98v8.08h-1.98v-3.38h-3.65v3.38h-1.98Z"/>
          <path class="cls-3" d="m213.99,165.32c-.7,0-1.32-.17-1.86-.5s-.95-.82-1.25-1.45c-.3-.63-.45-1.38-.45-2.26s.15-1.62.45-2.25.71-1.1,1.25-1.44,1.15-.5,1.86-.5,1.28.17,1.8.5.86.79,1.03,1.35h-.18l.18-1.7h1.92c-.03.33-.06.67-.09,1.01-.03.34-.04.68-.04,1.01v6.06h-1.98l-.02-1.66h.19c-.17.55-.52,1-1.04,1.33-.52.33-1.11.5-1.78.5Zm.56-1.54c.63,0,1.14-.22,1.52-.66.38-.44.58-1.11.58-2.01s-.19-1.56-.58-2c-.38-.44-.89-.66-1.52-.66s-1.14.22-1.52.66c-.38.44-.58,1.1-.58,2s.19,1.57.57,2.01c.38.44.89.66,1.53.66Z"/>
          <path class="cls-3" d="m220.27,165.16l1.23-2.13c.21-.36.48-.65.79-.87.31-.22.64-.33.98-.33h.35l-.02.18c-.95,0-1.68-.21-2.19-.62-.51-.42-.77-1.02-.77-1.82s.26-1.4.79-1.83c.53-.43,1.3-.65,2.33-.65h4.02v8.08h-1.82v-2.85h-.91c-.33,0-.62.09-.87.27-.25.18-.46.42-.63.7l-1.06,1.87h-2.22Zm3.89-4.14h1.81v-2.64h-1.81c-.54,0-.95.12-1.22.35-.27.23-.41.55-.41.96,0,.43.14.75.41.98.27.23.68.34,1.22.34Z"/>
        </g>
        <g>
          <path class="cls-3" d="m17.37,212.17v-1.66l.51.38h-.45c-1.12,0-2.08-.19-2.9-.58-.81-.38-1.43-.94-1.86-1.66s-.65-1.59-.65-2.62c0-1.56.47-2.75,1.42-3.59.95-.84,2.28-1.26,3.99-1.26h.45l-.51.38v-1.57h2.05v1.57l-.51-.38h.45c1.72,0,3.05.42,4,1.26.95.84,1.42,2.04,1.42,3.59,0,1.02-.22,1.9-.66,2.62-.44.72-1.06,1.27-1.86,1.66-.8.38-1.77.58-2.9.58h-.45l.51-.38v1.66h-2.05Zm.02-2.48v-7.3l.43.35h-.59c-.94,0-1.69.28-2.26.82-.57.55-.86,1.37-.86,2.47,0,.71.13,1.32.4,1.81.27.49.63.86,1.1,1.11.47.25,1.01.38,1.62.38h.59l-.43.35Zm2.03,0l-.45-.35h.61c.61,0,1.15-.12,1.62-.38.47-.25.83-.62,1.1-1.11.26-.49.39-1.09.39-1.81,0-1.1-.28-1.92-.85-2.47-.57-.55-1.32-.82-2.26-.82h-.61l.45-.35v7.3Z"/>
          <path class="cls-3" d="m30.51,211.93c-.83,0-1.55-.17-2.16-.51-.61-.34-1.08-.83-1.42-1.46-.34-.63-.5-1.38-.5-2.24s.17-1.61.5-2.23.81-1.11,1.42-1.45c.61-.34,1.33-.51,2.16-.51s1.55.17,2.17.51c.61.34,1.09.82,1.42,1.45s.5,1.37.5,2.23-.17,1.61-.5,2.24c-.34.63-.81,1.12-1.42,1.46-.61.34-1.34.51-2.17.51Zm0-1.54c.63,0,1.13-.22,1.5-.66s.56-1.11.56-2.01-.19-1.56-.56-2-.88-.66-1.5-.66-1.13.22-1.5.66-.56,1.1-.56,2,.19,1.57.56,2.01.88.66,1.5.66Z"/>
          <path class="cls-3" d="m38.24,211.77v-6.51h-2.77v-1.57h7.54v1.57h-2.79v6.51h-1.98Z"/>
          <path class="cls-3" d="m47.87,211.93c-.83,0-1.55-.17-2.16-.51-.61-.34-1.08-.83-1.42-1.46-.34-.63-.5-1.38-.5-2.24s.17-1.61.5-2.23.81-1.11,1.42-1.45c.61-.34,1.33-.51,2.16-.51s1.55.17,2.17.51c.61.34,1.09.82,1.42,1.45s.5,1.37.5,2.23-.17,1.61-.5,2.24c-.34.63-.81,1.12-1.42,1.46-.61.34-1.34.51-2.17.51Zm0-1.54c.63,0,1.13-.22,1.5-.66s.56-1.11.56-2.01-.19-1.56-.56-2-.88-.66-1.5-.66-1.13.22-1.5.66-.56,1.1-.56,2,.19,1.57.56,2.01.88.66,1.5.66Z"/>
          <path class="cls-3" d="m62.03,211.93c-1.27,0-2.28-.38-3.03-1.15s-1.13-1.89-1.13-3.38v-1.38c0-1.53.35-2.75,1.04-3.68.69-.93,1.74-1.54,3.13-1.84l2.96-.67.54,1.57-3.33.74c-.55.12-1.01.34-1.38.66-.36.33-.63.71-.82,1.16-.18.45-.27.93-.27,1.44v.85h-.27c.12-.48.32-.9.59-1.26s.63-.64,1.06-.84c.43-.2.91-.3,1.46-.3.68,0,1.28.16,1.8.47.52.31.92.77,1.22,1.36.3.59.45,1.3.45,2.12s-.17,1.57-.5,2.19c-.34.62-.81,1.1-1.41,1.43-.6.34-1.31.5-2.12.5Zm-.06-1.52c.66,0,1.18-.21,1.54-.63.37-.42.55-1.05.55-1.9s-.19-1.45-.56-1.88c-.37-.43-.89-.65-1.54-.65s-1.16.21-1.54.64-.56,1.04-.56,1.82c0,.86.19,1.51.56,1.94.37.43.88.65,1.54.65Z"/>
          <path class="cls-3" d="m67.72,215.4l-.46-1.58c.5-.11.92-.23,1.26-.37s.62-.32.85-.54c.22-.22.41-.51.56-.86l.4-.94-.05.78-3.52-8.19h2.13l2.53,6.3h-.46l2.54-6.3h2.02l-3.68,8.53c-.25.58-.51,1.05-.8,1.43-.29.38-.6.68-.93.91s-.69.41-1.09.54-.83.23-1.3.3Z"/>
          <path class="cls-3" d="m76.73,211.77v-8.08h1.66l2.79,4.83,2.78-4.83h1.66v8.08h-1.76v-5.84h.37l-2.59,4.53h-.93l-2.59-4.53h.37v5.84h-1.76Z"/>
          <path class="cls-3" d="m91.08,211.93c-.7,0-1.32-.17-1.86-.5-.53-.34-.95-.82-1.25-1.45-.3-.63-.45-1.38-.45-2.26s.15-1.62.45-2.25c.3-.62.71-1.1,1.25-1.44s1.15-.5,1.86-.5,1.28.17,1.8.5.86.79,1.03,1.35h-.18l.18-1.7h1.92c-.03.33-.06.67-.09,1.01-.03.34-.04.68-.04,1.01v6.06h-1.98l-.02-1.66h.19c-.17.55-.52,1-1.04,1.33-.52.33-1.12.5-1.78.5Zm.56-1.54c.63,0,1.14-.22,1.52-.66s.58-1.11.58-2.01-.19-1.56-.58-2-.89-.66-1.52-.66-1.13.22-1.52.66c-.38.44-.58,1.1-.58,2s.19,1.57.57,2.01.89.66,1.53.66Z"/>
          <path class="cls-3" d="m98.04,211.77v-8.08h6.06v1.57h-4.06v6.51h-2Z"/>
          <path class="cls-3" d="m108.7,211.93c-.7,0-1.32-.17-1.86-.5-.53-.34-.95-.82-1.25-1.45-.3-.63-.45-1.38-.45-2.26s.15-1.62.45-2.25c.3-.62.71-1.1,1.25-1.44s1.15-.5,1.86-.5,1.28.17,1.8.5c.52.34.86.79,1.03,1.35h-.18l.18-1.7h1.92c-.03.33-.06.67-.09,1.01-.03.34-.04.68-.04,1.01v6.06h-1.98l-.02-1.66h.19c-.17.55-.52,1-1.04,1.33-.52.33-1.11.5-1.78.5Zm.56-1.54c.63,0,1.14-.22,1.52-.66.38-.44.58-1.11.58-2.01s-.19-1.56-.58-2c-.38-.44-.89-.66-1.52-.66s-1.14.22-1.52.66c-.38.44-.58,1.1-.58,2s.19,1.57.57,2.01.89.66,1.53.66Z"/>
          <path class="cls-3" d="m122.64,214.65c-.5-.79-.91-1.56-1.22-2.32-.31-.76-.54-1.53-.68-2.31s-.21-1.6-.21-2.46.07-1.69.21-2.46c.14-.78.37-1.55.68-2.3.31-.76.72-1.53,1.22-2.3h1.6c-.55,1.23-.97,2.42-1.24,3.58s-.41,2.32-.41,3.5.14,2.33.41,3.49c.27,1.16.69,2.36,1.24,3.6h-1.6Z"/>
          <path class="cls-3" d="m125.74,211.77v-8.08h1.66l2.78,4.83,2.78-4.83h1.66v8.08h-1.76v-5.84h.37l-2.59,4.53h-.93l-2.59-4.53h.37v5.84h-1.76Z"/>
          <path class="cls-3" d="m140.09,211.93c-.7,0-1.32-.17-1.86-.5-.53-.34-.95-.82-1.25-1.45-.3-.63-.45-1.38-.45-2.26s.15-1.62.45-2.25.71-1.1,1.25-1.44,1.15-.5,1.86-.5,1.28.17,1.8.5.86.79,1.03,1.35h-.18l.18-1.7h1.92c-.03.33-.06.67-.09,1.01-.03.34-.04.68-.04,1.01v6.06h-1.98l-.02-1.66h.19c-.17.55-.52,1-1.04,1.33-.52.33-1.12.5-1.78.5Zm.56-1.54c.63,0,1.14-.22,1.52-.66.38-.44.58-1.11.58-2.01s-.19-1.56-.58-2c-.38-.44-.89-.66-1.52-.66s-1.14.22-1.52.66c-.38.44-.58,1.1-.58,2s.19,1.57.57,2.01c.38.44.89.66,1.53.66Z"/>
          <path class="cls-3" d="m148.79,211.77v-6.51h-2.77v-1.57h7.54v1.57h-2.79v6.51h-1.98Z"/>
          <path class="cls-3" d="m158.43,211.93c-.83,0-1.55-.17-2.16-.51-.61-.34-1.08-.83-1.42-1.46-.34-.63-.5-1.38-.5-2.24s.17-1.61.5-2.23.81-1.11,1.42-1.45c.61-.34,1.33-.51,2.16-.51s1.55.17,2.17.51c.61.34,1.09.82,1.42,1.45s.5,1.37.5,2.23-.17,1.61-.5,2.24c-.34.63-.81,1.12-1.42,1.46-.61.34-1.34.51-2.17.51Zm0-1.54c.63,0,1.13-.22,1.5-.66s.56-1.11.56-2.01-.19-1.56-.56-2-.88-.66-1.5-.66-1.13.22-1.5.66-.56,1.1-.56,2,.19,1.57.56,2.01.88.66,1.5.66Z"/>
          <path class="cls-3" d="m164.41,211.77v-8.08h4.3c1.01,0,1.75.18,2.22.55s.71.89.71,1.56c0,.51-.17.94-.51,1.28-.34.34-.79.55-1.36.64v-.22c.69.04,1.23.25,1.6.61.38.36.56.83.56,1.41,0,.69-.27,1.24-.8,1.65-.54.41-1.29.61-2.27.61h-4.45Zm1.86-4.74h2.21c.43,0,.76-.09.99-.28.23-.19.35-.45.35-.79s-.12-.6-.35-.78c-.24-.18-.57-.27-.99-.27h-2.21v2.13Zm0,3.5h2.38c.47,0,.83-.1,1.08-.29.25-.19.38-.47.38-.85s-.12-.66-.38-.85c-.25-.19-.61-.29-1.08-.29h-2.38v2.27Z"/>
          <path class="cls-3" d="m176.86,211.93c-.7,0-1.32-.17-1.86-.5-.53-.34-.95-.82-1.25-1.45-.3-.63-.45-1.38-.45-2.26s.15-1.62.45-2.25.71-1.1,1.25-1.44,1.15-.5,1.86-.5,1.28.17,1.8.5.86.79,1.03,1.35h-.18l.18-1.7h1.92c-.03.33-.06.67-.09,1.01-.03.34-.04.68-.04,1.01v6.06h-1.98l-.02-1.66h.19c-.17.55-.52,1-1.04,1.33-.52.33-1.11.5-1.78.5Zm.56-1.54c.63,0,1.14-.22,1.52-.66.38-.44.58-1.11.58-2.01s-.19-1.56-.58-2c-.38-.44-.89-.66-1.52-.66s-1.14.22-1.52.66c-.38.44-.58,1.1-.58,2s.19,1.57.57,2.01c.38.44.89.66,1.53.66Z"/>
          <path class="cls-3" d="m183.15,211.77l1.23-2.13c.21-.36.48-.65.79-.87.31-.22.64-.33.98-.33h.35l-.02.18c-.95,0-1.68-.21-2.19-.62-.51-.42-.77-1.02-.77-1.82s.26-1.4.79-1.83c.53-.43,1.3-.65,2.33-.65h4.02v8.08h-1.82v-2.85h-.91c-.33,0-.62.09-.87.27s-.46.42-.63.7l-1.06,1.87h-2.22Zm3.89-4.14h1.81v-2.64h-1.81c-.54,0-.95.12-1.22.35-.27.24-.41.55-.41.96,0,.43.14.75.41.98.27.23.68.34,1.22.34Z"/>
          <path class="cls-3" d="m197.32,211.77v-8.08h1.81v6.11h-.48l4.59-6.11h1.65v8.08h-1.81v-6.13h.5l-4.61,6.13h-1.65Z"/>
          <path class="cls-3" d="m211.55,211.77v-8.08h6.06v1.57h-4.06v6.51h-2Z"/>
          <path class="cls-3" d="m218.49,211.99l-.62-1.57c.35-.13.65-.3.89-.5.24-.21.43-.47.58-.8.14-.33.25-.73.31-1.22.06-.49.1-1.06.1-1.74v-2.48h6.43v8.08h-1.98v-6.54h-2.62v1.01c0,1.16-.11,2.14-.32,2.92-.21.78-.54,1.41-.99,1.86-.45.46-1.04.78-1.76.98Z"/>
          <path class="cls-3" d="m227.77,211.77l1.23-2.13c.21-.36.48-.65.79-.87.31-.22.64-.33.98-.33h.35l-.02.18c-.95,0-1.68-.21-2.19-.62-.51-.42-.77-1.02-.77-1.82s.26-1.4.79-1.83c.53-.43,1.3-.65,2.33-.65h4.02v8.08h-1.82v-2.85h-.91c-.33,0-.62.09-.87.27s-.46.42-.63.7l-1.06,1.87h-2.22Zm3.89-4.14h1.81v-2.64h-1.81c-.54,0-.95.12-1.22.35-.27.24-.41.55-.41.96,0,.43.14.75.41.98.27.23.68.34,1.22.34Z"/>
          <path class="cls-3" d="m237.56,211.77v-8.08h1.98v3.17h3.65v-3.17h1.98v8.08h-1.98v-3.38h-3.65v3.38h-1.98Z"/>
          <path class="cls-3" d="m254.46,213.85v-2.08h-7.01v-8.08h1.98v6.54h3.42v-6.54h1.97v6.54h1.31v3.62h-1.68Z"/>
          <path class="cls-3" d="m261.58,211.93c-1.35,0-2.42-.37-3.18-1.12-.77-.75-1.15-1.77-1.15-3.07,0-.84.17-1.58.5-2.21.33-.63.79-1.12,1.38-1.47.59-.35,1.28-.53,2.07-.53s1.43.17,1.95.5.92.79,1.19,1.39c.27.6.41,1.3.41,2.1v.53h-5.89v-1.06h4.46l-.27.22c0-.75-.16-1.32-.47-1.71-.31-.39-.77-.59-1.37-.59-.66,0-1.17.23-1.53.7s-.54,1.12-.54,1.97v.21c0,.88.22,1.53.65,1.96.43.43,1.04.65,1.83.65.46,0,.89-.06,1.29-.18.4-.12.78-.32,1.14-.6l.59,1.34c-.38.31-.84.55-1.38.72-.53.17-1.1.26-1.7.26Z"/>
          <path class="cls-3" d="m266.6,211.77v-8.08h4.3c1.01,0,1.75.18,2.22.55.47.37.7.89.7,1.56,0,.51-.17.94-.51,1.28s-.79.55-1.36.64v-.22c.69.04,1.23.25,1.6.61.37.36.56.83.56,1.41,0,.69-.27,1.24-.8,1.65-.53.41-1.29.61-2.27.61h-4.45Zm1.86-4.74h2.21c.43,0,.76-.09.99-.28.23-.19.35-.45.35-.79s-.12-.6-.35-.78c-.24-.18-.57-.27-.99-.27h-2.21v2.13Zm0,3.5h2.38c.47,0,.83-.1,1.08-.29.25-.19.38-.47.38-.85s-.13-.66-.38-.85c-.25-.19-.61-.29-1.08-.29h-2.38v2.27Z"/>
          <path class="cls-3" d="m279.05,211.93c-.7,0-1.32-.17-1.86-.5-.53-.34-.95-.82-1.25-1.45-.3-.63-.45-1.38-.45-2.26s.15-1.62.45-2.25.71-1.1,1.25-1.44,1.15-.5,1.86-.5,1.28.17,1.8.5.86.79,1.03,1.35h-.18l.18-1.7h1.92c-.03.33-.06.67-.09,1.01-.03.34-.04.68-.04,1.01v6.06h-1.98l-.02-1.66h.19c-.17.55-.52,1-1.04,1.33-.52.33-1.11.5-1.78.5Zm.56-1.54c.63,0,1.14-.22,1.52-.66.38-.44.58-1.11.58-2.01s-.19-1.56-.58-2c-.38-.44-.89-.66-1.52-.66s-1.14.22-1.52.66c-.38.44-.58,1.1-.58,2s.19,1.57.57,2.01c.38.44.89.66,1.53.66Z"/>
          <path class="cls-3" d="m285.34,211.77l1.23-2.13c.21-.36.48-.65.79-.87.31-.22.64-.33.98-.33h.35l-.02.18c-.95,0-1.68-.21-2.19-.62-.51-.42-.77-1.02-.77-1.82s.26-1.4.79-1.83c.53-.43,1.3-.65,2.33-.65h4.02v8.08h-1.82v-2.85h-.91c-.33,0-.62.09-.87.27s-.46.42-.63.7l-1.06,1.87h-2.22Zm3.89-4.14h1.81v-2.64h-1.81c-.54,0-.95.12-1.22.35-.27.24-.41.55-.41.96,0,.43.14.75.41.98.27.23.68.34,1.22.34Z"/>
          <path class="cls-3" d="m295.96,214.65h-1.6c.55-1.23.97-2.42,1.24-3.59.27-1.17.41-2.33.41-3.5s-.14-2.33-.41-3.49c-.27-1.16-.69-2.36-1.24-3.58h1.6c.51.78.92,1.55,1.23,2.3.31.76.53,1.53.67,2.31s.21,1.6.21,2.46-.07,1.67-.21,2.46-.36,1.56-.67,2.32c-.31.76-.72,1.52-1.23,2.3Z"/>
        </g>
        <g>
          <path class="cls-3" d="m47.2,256.94v-11.28h5.01c1.24,0,2.18.3,2.83.9.65.6.98,1.42.98,2.46s-.33,1.86-.98,2.46c-.65.61-1.59.91-2.83.91h-2.94v4.54h-2.06Zm2.06-6.18h2.7c.68,0,1.19-.15,1.54-.46.34-.3.51-.73.51-1.29s-.17-.98-.51-1.29c-.34-.3-.85-.46-1.54-.46h-2.7v3.49Z"/>
          <path class="cls-3" d="m61.43,257.1c-1.36,0-2.42-.37-3.18-1.12-.77-.75-1.15-1.77-1.15-3.07,0-.84.16-1.58.5-2.21.33-.63.79-1.12,1.38-1.47.59-.35,1.28-.53,2.07-.53s1.43.17,1.95.5.92.79,1.19,1.39c.27.6.41,1.3.41,2.1v.53h-5.89v-1.06h4.46l-.27.22c0-.75-.16-1.32-.47-1.71-.32-.39-.77-.59-1.37-.59-.66,0-1.17.23-1.53.7s-.54,1.12-.54,1.97v.21c0,.88.22,1.53.65,1.96s1.04.65,1.83.65c.46,0,.89-.06,1.29-.18.4-.12.78-.32,1.14-.6l.59,1.34c-.38.31-.84.55-1.38.72-.53.17-1.1.26-1.7.26Z"/>
          <path class="cls-3" d="m69.43,257.1c-.73,0-1.41-.09-2.04-.26-.63-.17-1.16-.42-1.59-.74l.56-1.31c.39.29.86.51,1.38.66s1.08.22,1.67.22c.68,0,1.18-.09,1.5-.28.32-.19.47-.46.47-.82,0-.34-.12-.6-.37-.78-.25-.18-.61-.26-1.09-.26h-2.1v-1.38h1.9c.44,0,.77-.08,1.01-.26.24-.17.35-.41.35-.72,0-.33-.14-.59-.42-.78-.28-.19-.74-.29-1.38-.29-.55,0-1.06.07-1.52.2-.46.13-.89.33-1.3.58l-.54-1.25c.44-.31.97-.54,1.59-.7s1.3-.24,2.04-.24c1.08,0,1.9.2,2.48.59s.86.96.86,1.68c0,.49-.17.91-.5,1.26-.34.35-.79.57-1.35.66v-.22c.66.04,1.18.24,1.57.59.38.35.58.83.58,1.42,0,.74-.33,1.32-.98,1.76s-1.58.66-2.78.66Z"/>
          <path class="cls-3" d="m74.93,256.94v-8.08h1.98v3.17h1.21l2.37-3.17h2.14l-2.98,4.03-.43-.62c.3.03.56.11.79.24s.45.31.66.54.41.52.62.87l1.7,3.02h-2.13l-1.38-2.43c-.14-.25-.28-.44-.42-.58s-.29-.24-.46-.29c-.17-.05-.38-.08-.62-.08h-1.07v3.38h-1.98Z"/>
          <path class="cls-3" d="m87.23,257.1c-.7,0-1.32-.17-1.86-.5-.53-.34-.95-.82-1.25-1.45-.3-.63-.45-1.38-.45-2.26s.15-1.62.45-2.25.71-1.1,1.25-1.44,1.15-.5,1.86-.5,1.28.17,1.8.5.86.79,1.03,1.35h-.18l.18-1.7h1.92c-.03.33-.06.67-.09,1.01-.03.34-.04.68-.04,1.01v6.06h-1.98l-.02-1.66h.19c-.17.55-.52,1-1.04,1.33-.52.33-1.12.5-1.78.5Zm.56-1.54c.63,0,1.14-.22,1.52-.66.38-.44.58-1.11.58-2.01s-.19-1.56-.58-2c-.38-.44-.89-.66-1.52-.66s-1.14.22-1.52.66c-.38.44-.58,1.1-.58,2s.19,1.57.57,2.01c.38.44.89.66,1.53.66Z"/>
          <path class="cls-3" d="m98.58,256.94v-8.08h1.81v6.11h-.48l4.59-6.11h1.65v8.08h-1.81v-6.13h.5l-4.61,6.13h-1.65Z"/>
          <path class="cls-3" d="m111.39,257.1c-.72,0-1.41-.09-2.04-.26-.63-.17-1.17-.42-1.59-.74l.56-1.31c.39.29.86.51,1.38.66.53.15,1.08.22,1.67.22.68,0,1.18-.09,1.5-.28s.47-.46.47-.82c0-.34-.12-.6-.37-.78-.25-.18-.61-.26-1.09-.26h-2.1v-1.38h1.9c.44,0,.77-.08,1.01-.26s.35-.41.35-.72c0-.33-.14-.59-.42-.78-.28-.19-.74-.29-1.38-.29-.55,0-1.06.07-1.52.2-.46.13-.89.33-1.3.58l-.54-1.25c.44-.31.97-.54,1.59-.7.62-.16,1.3-.24,2.04-.24,1.08,0,1.9.2,2.48.59.58.39.86.96.86,1.68,0,.49-.17.91-.5,1.26-.34.35-.79.57-1.35.66v-.22c.66.04,1.18.24,1.57.59.38.35.58.83.58,1.42,0,.74-.33,1.32-.98,1.76-.65.44-1.58.66-2.78.66Z"/>
          <path class="cls-3" d="m120.61,257.1c-.83,0-1.55-.17-2.16-.51-.61-.34-1.08-.83-1.42-1.46-.34-.63-.5-1.38-.5-2.24s.17-1.61.5-2.23.81-1.11,1.42-1.45c.61-.34,1.33-.51,2.16-.51s1.55.17,2.17.51c.61.34,1.09.82,1.42,1.45s.5,1.37.5,2.23-.17,1.61-.5,2.24c-.34.63-.81,1.12-1.42,1.46-.61.34-1.34.51-2.17.51Zm0-1.54c.63,0,1.13-.22,1.5-.66.37-.44.56-1.11.56-2.01s-.19-1.56-.56-2c-.37-.44-.88-.66-1.5-.66s-1.13.22-1.5.66c-.37.44-.56,1.1-.56,2s.19,1.57.56,2.01c.37.44.87.66,1.5.66Z"/>
          <path class="cls-3" d="m130.39,257.1c-1.27,0-2.28-.38-3.03-1.15s-1.13-1.89-1.13-3.38v-1.38c0-1.53.35-2.75,1.04-3.68.69-.93,1.74-1.54,3.14-1.84l2.96-.67.54,1.57-3.33.74c-.55.12-1.01.34-1.38.66-.36.33-.63.71-.82,1.16-.18.45-.27.93-.27,1.44v.85h-.27c.12-.48.32-.9.59-1.26s.63-.64,1.06-.84c.43-.2.91-.3,1.46-.3.68,0,1.28.16,1.8.47s.93.77,1.22,1.36c.3.59.45,1.3.45,2.12s-.17,1.57-.5,2.19c-.34.62-.8,1.1-1.41,1.43-.6.34-1.31.5-2.12.5Zm-.06-1.52c.66,0,1.18-.21,1.54-.63.37-.42.55-1.05.55-1.9s-.19-1.45-.56-1.88c-.37-.43-.89-.65-1.54-.65s-1.16.21-1.54.64c-.37.43-.56,1.04-.56,1.82,0,.86.19,1.51.56,1.94.37.43.88.65,1.54.65Z"/>
          <path class="cls-3" d="m136.37,260.4v-9.52c0-.33-.01-.67-.03-1.01-.02-.34-.05-.68-.1-1.01h1.94l.18,1.7h-.18c.16-.57.5-1.02,1.02-1.35.52-.34,1.12-.5,1.8-.5s1.34.17,1.87.5c.53.34.95.82,1.25,1.44s.45,1.37.45,2.25-.15,1.63-.45,2.26c-.3.63-.71,1.11-1.25,1.45-.53.34-1.16.5-1.87.5-.67,0-1.26-.17-1.78-.5-.51-.33-.85-.77-1.02-1.33h.18v5.12h-2Zm4.06-4.83c.64,0,1.15-.22,1.54-.66.38-.44.58-1.11.58-2.01s-.19-1.56-.58-2c-.38-.44-.9-.66-1.54-.66s-1.14.22-1.52.66c-.38.44-.58,1.1-.58,2s.19,1.57.58,2.01c.38.44.89.66,1.52.66Z"/>
          <path class="cls-3" d="m149.64,257.1c-.7,0-1.32-.17-1.86-.5-.53-.34-.95-.82-1.25-1.45-.3-.63-.45-1.38-.45-2.26s.15-1.62.45-2.25c.3-.62.71-1.1,1.25-1.44s1.15-.5,1.86-.5,1.28.17,1.8.5c.52.34.86.79,1.03,1.35h-.18l.18-1.7h1.92c-.03.33-.06.67-.09,1.01-.03.34-.04.68-.04,1.01v6.06h-1.98l-.02-1.66h.19c-.17.55-.52,1-1.04,1.33-.52.33-1.11.5-1.78.5Zm.56-1.54c.63,0,1.14-.22,1.52-.66.38-.44.58-1.11.58-2.01s-.19-1.56-.58-2c-.38-.44-.89-.66-1.52-.66s-1.14.22-1.52.66c-.38.44-.58,1.1-.58,2s.19,1.57.57,2.01.89.66,1.53.66Z"/>
          <path class="cls-3" d="m155.38,256.94l1.7-3.02c.21-.35.42-.64.62-.87s.41-.41.65-.54.5-.21.8-.24l-.42.62-2.99-4.03h2.14l2.38,3.17h1.01v-3.17h1.98v3.17h.99l2.37-3.17h2.16l-3.01,4.03-.42-.62c.3.03.57.11.8.24.23.13.46.31.66.54.21.23.41.52.62.87l1.7,3.02h-2.13l-1.38-2.43c-.14-.25-.28-.44-.42-.58-.14-.14-.29-.24-.46-.29-.17-.05-.38-.08-.62-.08h-.86v3.38h-1.98v-3.38h-.88c-.25,0-.45.03-.62.08-.17.05-.32.15-.46.29-.13.14-.28.33-.42.58l-1.38,2.43h-2.13Z"/>
          <path class="cls-3" d="m174.15,257.1c-1.35,0-2.42-.37-3.18-1.12-.77-.75-1.15-1.77-1.15-3.07,0-.84.17-1.58.5-2.21.33-.63.79-1.12,1.38-1.47.59-.35,1.28-.53,2.07-.53s1.43.17,1.95.5.92.79,1.19,1.39c.27.6.41,1.3.41,2.1v.53h-5.89v-1.06h4.46l-.27.22c0-.75-.16-1.32-.47-1.71-.31-.39-.77-.59-1.37-.59-.66,0-1.17.23-1.53.7s-.54,1.12-.54,1.97v.21c0,.88.22,1.53.65,1.96.43.43,1.04.65,1.83.65.46,0,.89-.06,1.29-.18.4-.12.78-.32,1.14-.6l.59,1.34c-.38.31-.84.55-1.38.72-.53.17-1.1.26-1.7.26Z"/>
          <path class="cls-3" d="m179.17,256.94v-8.08h1.98v3.17h3.65v-3.17h1.98v8.08h-1.98v-3.38h-3.65v3.38h-1.98Z"/>
          <path class="cls-3" d="m189.06,256.94v-8.08h1.81v6.11h-.48l4.59-6.11h1.65v8.08h-1.81v-6.13h.5l-4.61,6.13h-1.65Z"/>
          <path class="cls-3" d="m198.9,256.94v-8.08h1.81v6.11h-.48l4.59-6.11h1.65v8.08h-1.81v-6.13h.5l-4.61,6.13h-1.65Zm3.78-8.82c-.53,0-1-.09-1.41-.26s-.74-.43-1.01-.75-.46-.71-.58-1.16l1.02-.35c.18.49.43.85.75,1.08.32.23.73.34,1.23.34s.91-.11,1.23-.34c.32-.22.58-.58.78-1.07l.98.34c-.22.71-.59,1.26-1.11,1.62s-1.15.55-1.9.55Z"/>
          <path class="cls-3" d="m213.12,256.94v-8.08h4.3c1.01,0,1.75.18,2.22.55.47.37.7.89.7,1.56,0,.51-.17.94-.51,1.28s-.79.55-1.36.64v-.22c.69.04,1.23.25,1.6.61.37.36.56.83.56,1.41,0,.69-.27,1.24-.8,1.65-.53.41-1.29.61-2.27.61h-4.45Zm1.86-4.74h2.21c.43,0,.76-.09.99-.28.23-.19.35-.45.35-.79s-.12-.6-.35-.78c-.24-.18-.57-.27-.99-.27h-2.21v2.13Zm0,3.5h2.38c.47,0,.83-.1,1.08-.29.25-.19.38-.47.38-.85s-.13-.66-.38-.85c-.25-.19-.61-.29-1.08-.29h-2.38v2.27Z"/>
          <path class="cls-3" d="m226.77,256.94v-8.08h1.98v3.17h1.22l2.37-3.17h2.14l-2.98,4.03-.43-.62c.3.03.56.11.79.24.23.13.45.31.66.54s.41.52.62.87l1.7,3.02h-2.13l-1.38-2.43c-.14-.25-.28-.44-.42-.58s-.29-.24-.46-.29c-.17-.05-.38-.08-.62-.08h-1.07v3.38h-1.98Z"/>
          <path class="cls-3" d="m235.95,260.4v-9.52c0-.33-.01-.67-.03-1.01-.02-.34-.05-.68-.1-1.01h1.94l.18,1.7h-.18c.16-.57.5-1.02,1.02-1.35.52-.34,1.12-.5,1.8-.5s1.34.17,1.87.5c.53.34.95.82,1.25,1.44.3.62.45,1.37.45,2.25s-.15,1.63-.45,2.26c-.3.63-.71,1.11-1.25,1.45-.53.34-1.16.5-1.87.5-.67,0-1.26-.17-1.78-.5-.51-.33-.85-.77-1.02-1.33h.18v5.12h-2Zm4.06-4.83c.64,0,1.15-.22,1.54-.66s.58-1.11.58-2.01-.19-1.56-.58-2-.9-.66-1.54-.66-1.14.22-1.52.66-.58,1.1-.58,2,.19,1.57.58,2.01.89.66,1.52.66Z"/>
          <path class="cls-3" d="m249.22,257.1c-.7,0-1.32-.17-1.86-.5-.53-.34-.95-.82-1.25-1.45-.3-.63-.45-1.38-.45-2.26s.15-1.62.45-2.25.71-1.1,1.25-1.44,1.15-.5,1.86-.5,1.28.17,1.8.5.86.79,1.03,1.35h-.18l.18-1.7h1.92c-.03.33-.06.67-.09,1.01-.03.34-.04.68-.04,1.01v6.06h-1.98l-.02-1.66h.19c-.17.55-.52,1-1.04,1.33-.52.33-1.11.5-1.78.5Zm.56-1.54c.63,0,1.14-.22,1.52-.66.38-.44.58-1.11.58-2.01s-.19-1.56-.58-2c-.38-.44-.89-.66-1.52-.66s-1.14.22-1.52.66c-.38.44-.58,1.1-.58,2s.19,1.57.57,2.01c.38.44.89.66,1.53.66Z"/>
          <path class="cls-3" d="m256.18,256.94v-8.08h1.81v6.11h-.48l4.59-6.11h1.65v8.08h-1.81v-6.13h.5l-4.61,6.13h-1.65Zm3.78-8.82c-.53,0-1-.09-1.41-.26s-.74-.43-1.01-.75-.46-.71-.58-1.16l1.02-.35c.18.49.43.85.75,1.08.32.23.73.34,1.23.34s.91-.11,1.23-.34c.32-.22.58-.58.78-1.07l.98.34c-.22.71-.59,1.26-1.11,1.62s-1.15.55-1.9.55Z"/>
        </g>
      </g>
    </g>
  </g>
</svg>