<?xml version="1.0" encoding="UTF-8"?>
<svg id="_Слой_2" data-name="Слой 2" xmlns="http://www.w3.org/2000/svg" viewBox="0 0 938.93 506.33">
  <defs>
    <style>
      .cls-1 {
        font-family: Mulish-Bold, Mulish;
        font-weight: 700;
      }

      .cls-1, .cls-2, .cls-3 {
        fill: #27625f;
      }

      .cls-1, .cls-3 {
        font-size: 16px;
      }

      .cls-4 {
        fill: #fff;
      }

      .cls-4, .cls-5 {
        stroke: #a0b6b5;
        stroke-miterlimit: 10;
      }

      .cls-2 {
        stroke-width: 0px;
      }

      .cls-3 {
        font-family: Mulish-SemiBold, Mulish;
        font-weight: 600;
      }

      .cls-6 {
        letter-spacing: -.06em;
      }

      .cls-7 {
        letter-spacing: -.01em;
      }

      .cls-8 {
        letter-spacing: -.07em;
      }

      .cls-9 {
        letter-spacing: 0em;
      }

      .cls-10 {
        letter-spacing: 0em;
      }

      .cls-11 {
        letter-spacing: 0em;
      }

      .cls-12 {
        letter-spacing: -.08em;
      }

      .cls-13 {
        letter-spacing: 0em;
      }

      .cls-14 {
        letter-spacing: -.02em;
      }

      .cls-15 {
        letter-spacing: -.02em;
      }

      .cls-16 {
        letter-spacing: -.07em;
      }

      .cls-5 {
        fill: none;
      }
    </style>
  </defs>
  <g id="_Слой_1-2" data-name="Слой 1">
    <g>
      <g>
        <rect class="cls-4" x=".5" y=".5" width="937.93" height="505.33" rx="10" ry="10"/>
        <line class="cls-5" x1="938.43" y1="46.44" x2=".5" y2="46.44"/>
        <line class="cls-5" x1="938.43" y1="92.38" x2="286.93" y2="92.38"/>
        <line class="cls-5" x1="938.43" y1=".5" x2="761.2" y2=".5"/>
        <line class="cls-5" x1="938.43" y1="138.32" x2=".5" y2="138.32"/>
        <line class="cls-5" x1="286.93" y1="505.83" x2="286.93" y2="46.44"/>
        <line class="cls-5" x1="449.81" y1="505.83" x2="449.81" y2="92.38"/>
        <line class="cls-5" x1="612.68" y1="505.83" x2="612.68" y2="92.38"/>
        <line class="cls-5" x1="775.55" y1="505.83" x2="775.55" y2="92.38"/>
        <line class="cls-5" x1="938.43" y1="184.26" x2=".5" y2="184.26"/>
        <line class="cls-5" x1="938.43" y1="230.2" x2=".5" y2="230.2"/>
        <line class="cls-5" x1="938.43" y1="276.13" x2=".5" y2="276.13"/>
        <line class="cls-5" x1="938.43" y1="322.07" x2=".5" y2="322.07"/>
        <line class="cls-5" x1="938.43" y1="368.01" x2=".5" y2="368.01"/>
        <line class="cls-5" x1="938.43" y1="413.95" x2=".5" y2="413.95"/>
        <line class="cls-5" x1="938.43" y1="459.89" x2=".5" y2="459.89"/>
      </g>
      <g>
        <text class="cls-1" transform="translate(84.25 94.96)"><tspan x="0" y="0">Вид календаря</tspan></text>
        <text class="cls-1" transform="translate(16.75 28.79)"><tspan x="0" y="0">Квартальные календари</tspan></text>
        <g>
          <path class="cls-2" d="m27.84,159.31v-11.28h1.65v4.93h2.11l-.4.26,3.49-5.18h1.84l-3.78,5.47-.61-.48c.69.09,1.28.32,1.76.71.48.38.9.92,1.25,1.62l1.98,3.97h-1.79l-1.58-3.28c-.3-.62-.65-1.06-1.04-1.31-.39-.26-.89-.38-1.49-.38h-1.74v4.98h-1.65Z"/>
          <path class="cls-2" d="m38.59,159.31v-11.28h1.65v4.93h2.11l-.4.26,3.49-5.18h1.84l-3.78,5.47-.61-.48c.69.09,1.28.32,1.76.71.48.38.9.92,1.25,1.62l1.98,3.97h-1.79l-1.58-3.28c-.3-.62-.65-1.06-1.04-1.31-.39-.26-.89-.38-1.49-.38h-1.74v4.98h-1.65Z"/>
          <path class="cls-2" d="m52.45,159.31l5.02-11.28h1.42l5.1,11.28h-1.71l-1.39-3.2.7.45h-6.83l.75-.45-1.39,3.2h-1.68Zm5.71-9.46l-2.43,5.74-.38-.37h5.68l-.32.37-2.48-5.74h-.06Z"/>
          <path class="cls-2" d="m70.11,159.31v-2.34h-5.22v-1.18l5.49-7.76h1.34v7.65h1.68v1.3h-1.68v2.34h-1.62Zm0-3.63v-5.68h.37l-4.29,6.08v-.4h3.92Z"/>
          <path class="cls-2" d="m74.7,159.31v-1.9h1.9v1.9h-1.9Z"/>
          <path class="cls-2" d="m83.15,159.31v-11.28h7.81v1.31h-6.21v3.55h3.44c1.23,0,2.18.27,2.86.8.68.53,1.02,1.33,1.02,2.38s-.34,1.86-1.02,2.41c-.68.55-1.63.82-2.86.82h-5.04Zm1.6-1.31h3.26c.83,0,1.45-.16,1.84-.47.39-.31.59-.79.59-1.43s-.2-1.11-.59-1.42c-.4-.31-1.01-.46-1.84-.46h-3.26v3.79Z"/>
          <path class="cls-2" d="m97.74,159.46c-1.3,0-2.33-.37-3.07-1.1-.75-.74-1.12-1.75-1.12-3.06,0-.84.16-1.58.49-2.21.33-.63.78-1.12,1.36-1.46.58-.35,1.26-.52,2.02-.52s1.39.16,1.9.48c.51.32.9.77,1.17,1.35.27.58.4,1.27.4,2.06v.51h-6.08v-.93h4.98l-.27.21c0-.8-.18-1.42-.54-1.86-.36-.44-.87-.66-1.54-.66-.75,0-1.32.26-1.73.78-.41.52-.61,1.23-.61,2.14v.16c0,.95.23,1.66.7,2.14.46.48,1.12.72,1.98.72.47,0,.91-.07,1.32-.2s.8-.35,1.18-.66l.53,1.1c-.37.33-.83.58-1.36.76-.53.18-1.1.26-1.7.26Z"/>
          <path class="cls-2" d="m105.68,159.46c-.7,0-1.37-.09-1.98-.26-.62-.18-1.13-.43-1.52-.76l.5-1.09c.39.31.85.54,1.36.7.51.16,1.06.23,1.65.23.74,0,1.27-.11,1.61-.33.34-.22.5-.53.5-.94s-.14-.69-.42-.9c-.28-.2-.68-.3-1.22-.3h-1.98v-1.15h1.82c.48,0,.85-.1,1.12-.3.27-.2.4-.48.4-.85,0-.38-.15-.68-.46-.9-.31-.21-.79-.32-1.44-.32-.55,0-1.06.07-1.52.21-.46.14-.9.35-1.31.62l-.48-1.04c.44-.33.95-.58,1.55-.74s1.24-.24,1.94-.24c1.05,0,1.84.2,2.38.58.54.39.82.95.82,1.67,0,.5-.17.93-.5,1.28-.34.35-.79.56-1.35.64v-.21c.65.03,1.17.23,1.56.58.39.36.58.83.58,1.42,0,.72-.31,1.3-.92,1.74-.61.43-1.51.65-2.68.65Z"/>
          <path class="cls-2" d="m115.5,162.77v-9.58c0-.31-.01-.63-.04-.95-.03-.33-.06-.65-.09-.98h1.57l.16,1.82h-.18c.17-.61.51-1.09,1.03-1.44s1.13-.53,1.85-.53,1.34.17,1.87.5c.53.34.95.81,1.24,1.43s.44,1.37.44,2.24-.15,1.61-.44,2.24c-.29.63-.71,1.11-1.24,1.44-.53.33-1.16.5-1.87.5s-1.31-.17-1.83-.52c-.52-.35-.86-.82-1.03-1.42h.18v5.25h-1.62Zm3.9-4.58c.7,0,1.27-.24,1.69-.74s.63-1.22.63-2.18-.21-1.68-.63-2.17c-.42-.48-.98-.73-1.69-.73s-1.27.24-1.69.73c-.42.49-.63,1.21-.63,2.17s.21,1.69.63,2.18.98.74,1.69.74Z"/>
          <path class="cls-2" d="m129.17,159.46c-1.3,0-2.33-.37-3.07-1.1-.75-.74-1.12-1.75-1.12-3.06,0-.84.16-1.58.49-2.21.33-.63.78-1.12,1.36-1.46.58-.35,1.26-.52,2.02-.52s1.39.16,1.9.48c.51.32.9.77,1.17,1.35.27.58.4,1.27.4,2.06v.51h-6.08v-.93h4.98l-.27.21c0-.8-.18-1.42-.54-1.86-.36-.44-.87-.66-1.54-.66-.75,0-1.32.26-1.73.78-.41.52-.61,1.23-.61,2.14v.16c0,.95.23,1.66.7,2.14.46.48,1.12.72,1.98.72.47,0,.91-.07,1.32-.2s.8-.35,1.18-.66l.53,1.1c-.37.33-.83.58-1.36.76-.53.18-1.1.26-1.7.26Z"/>
          <path class="cls-2" d="m134.3,159.31v-8.06h1.6v3.3h1.39l2.51-3.3h1.76l-3.01,3.97-.4-.51c.31.03.58.11.8.23.22.12.44.3.66.54.21.23.43.54.66.93l1.68,2.91h-1.73l-1.44-2.46c-.16-.28-.31-.49-.46-.65s-.32-.26-.51-.32c-.19-.06-.43-.09-.7-.09h-1.2v3.52h-1.6Z"/>
          <path class="cls-2" d="m142.8,159.52l-.54-1.28c.36-.15.67-.34.92-.57.25-.23.45-.53.59-.89s.25-.81.31-1.34c.06-.53.1-1.18.1-1.94v-2.26h6.08v8.06h-1.6v-6.8h-2.99v1.04c0,1.21-.1,2.22-.29,3.02-.19.8-.5,1.43-.92,1.9-.42.46-.97.81-1.66,1.05Z"/>
          <path class="cls-2" d="m155.84,159.46c-.71,0-1.34-.17-1.87-.5-.53-.33-.95-.81-1.24-1.44-.29-.63-.44-1.38-.44-2.24s.15-1.62.44-2.24.71-1.1,1.24-1.43c.53-.34,1.16-.5,1.87-.5s1.32.18,1.84.53c.52.35.87.83,1.04,1.44h-.18l.16-1.82h1.57c-.03.33-.06.66-.09.98-.03.33-.04.64-.04.95v6.13h-1.62v-1.79h.18c-.17.6-.52,1.07-1.05,1.42-.53.35-1.13.52-1.82.52Zm.4-1.26c.69,0,1.25-.24,1.67-.74s.63-1.22.63-2.18-.21-1.68-.63-2.17c-.42-.48-.98-.73-1.67-.73s-1.27.24-1.69.73c-.42.49-.63,1.21-.63,2.17s.21,1.69.62,2.18.98.74,1.7.74Z"/>
          <path class="cls-2" d="m162.62,159.31v-8.06h1.34l2.91,5.15,2.91-5.15h1.34v8.06h-1.42v-6.26h.35l-2.8,4.96h-.77l-2.8-4.96h.35v6.26h-1.42Z"/>
          <path class="cls-2" d="m173.57,159.31v-8.06h1.6v3.28h4.08v-3.28h1.6v8.06h-1.6v-3.52h-4.08v3.52h-1.6Z"/>
          <path class="cls-2" d="m186.8,159.46c-.8,0-1.49-.17-2.08-.5-.59-.34-1.04-.82-1.36-1.44-.32-.62-.48-1.37-.48-2.23s.16-1.61.48-2.23.77-1.1,1.36-1.44c.59-.34,1.28-.5,2.08-.5s1.5.17,2.09.5,1.05.82,1.38,1.44c.33.62.49,1.37.49,2.23s-.16,1.61-.49,2.23c-.33.62-.78,1.1-1.38,1.44s-1.29.5-2.09.5Zm0-1.26c.7,0,1.26-.24,1.68-.74s.62-1.22.62-2.18-.21-1.68-.62-2.17c-.42-.48-.98-.73-1.68-.73s-1.25.24-1.66.73c-.42.49-.62,1.21-.62,2.17s.21,1.69.62,2.18c.41.49.97.74,1.67.74Z"/>
          <path class="cls-2" d="m192.75,159.31v-8.06h5.81v1.3h-4.19v6.77h-1.62Z"/>
          <path class="cls-2" d="m203.55,159.46c-.8,0-1.49-.17-2.08-.5-.59-.34-1.04-.82-1.36-1.44-.32-.62-.48-1.37-.48-2.23s.16-1.61.48-2.23.77-1.1,1.36-1.44c.59-.34,1.28-.5,2.08-.5s1.5.17,2.09.5,1.05.82,1.38,1.44c.33.62.49,1.37.49,2.23s-.16,1.61-.49,2.23c-.33.62-.78,1.1-1.38,1.44s-1.29.5-2.09.5Zm0-1.26c.7,0,1.26-.24,1.68-.74s.62-1.22.62-2.18-.21-1.68-.62-2.17c-.42-.48-.98-.73-1.68-.73s-1.25.24-1.66.73c-.42.49-.62,1.21-.62,2.17s.21,1.69.62,2.18c.41.49.97.74,1.67.74Z"/>
          <path class="cls-2" d="m213.77,159.31v-8.06h7.23v8.06h-1.6v-6.8h-4.03v6.8h-1.6Z"/>
          <path class="cls-2" d="m226.96,159.46c-.8,0-1.49-.17-2.08-.5-.59-.34-1.04-.82-1.36-1.44-.32-.62-.48-1.37-.48-2.23s.16-1.61.48-2.23.77-1.1,1.36-1.44c.59-.34,1.28-.5,2.08-.5s1.5.17,2.09.5,1.05.82,1.38,1.44c.33.62.49,1.37.49,2.23s-.16,1.61-.49,2.23c-.33.62-.78,1.1-1.38,1.44s-1.29.5-2.09.5Zm0-1.26c.7,0,1.26-.24,1.68-.74s.62-1.22.62-2.18-.21-1.68-.62-2.17c-.42-.48-.98-.73-1.68-.73s-1.25.24-1.66.73c-.42.49-.62,1.21-.62,2.17s.21,1.69.62,2.18c.41.49.97.74,1.67.74Z"/>
          <path class="cls-2" d="m232.41,159.52l-.54-1.28c.36-.15.67-.34.92-.57.25-.23.45-.53.59-.89.14-.36.25-.81.31-1.34.06-.53.1-1.18.1-1.94v-2.26h6.08v8.06h-1.6v-6.8h-2.99v1.04c0,1.21-.1,2.22-.29,3.02-.19.8-.5,1.43-.92,1.9-.42.46-.97.81-1.66,1.05Z"/>
          <path class="cls-2" d="m241.65,159.31l1.26-2.18c.2-.35.46-.64.78-.86.31-.22.64-.33.97-.33h.29l-.02.16c-.92,0-1.63-.21-2.14-.62-.51-.42-.77-1.01-.77-1.79s.26-1.38.77-1.81c.51-.43,1.26-.64,2.26-.64h3.78v8.06h-1.49v-2.99h-1.07c-.41,0-.75.1-1.03.3-.28.2-.51.47-.7.8l-1.09,1.89h-1.79Zm3.68-4.08h2v-2.9h-2c-.6,0-1.04.13-1.34.38-.29.26-.44.61-.44,1.05,0,.47.15.83.44,1.08.29.25.74.38,1.34.38Z"/>
          <path class="cls-2" d="m251.79,161.28l-.7-.54c.31-.33.52-.63.63-.91.11-.28.17-.57.17-.86l.35.35h-1.26v-1.9h1.9v1.3c0,.48-.08.92-.24,1.34-.16.41-.44.82-.85,1.24Z"/>
          <path class="cls-2" d="m84.97,174.46c-1.22,0-2.18-.38-2.9-1.14s-1.08-1.87-1.08-3.34v-1.39c0-1.5.32-2.71.97-3.63.65-.92,1.65-1.54,3-1.86l2.94-.7.46,1.29-3.3.77c-.58.13-1.05.37-1.42.72-.37.35-.65.77-.84,1.25s-.28.99-.28,1.54v.74h-.24c.13-.49.33-.91.62-1.26.28-.35.63-.62,1.06-.82.42-.2.89-.3,1.42-.3.69,0,1.3.16,1.82.48.52.32.93.78,1.22,1.38.29.6.44,1.32.44,2.14s-.16,1.59-.48,2.21-.77,1.09-1.35,1.42c-.58.33-1.27.5-2.06.5Zm-.05-1.25c.73,0,1.29-.24,1.7-.71s.62-1.18.62-2.1-.21-1.62-.62-2.1c-.42-.48-.98-.72-1.7-.72s-1.28.24-1.7.71-.62,1.15-.62,2.02c0,.96.21,1.68.62,2.17.41.48.98.73,1.7.73Z"/>
          <path class="cls-2" d="m94.66,174.46c-1.3,0-2.33-.37-3.07-1.1-.75-.74-1.12-1.75-1.12-3.06,0-.84.16-1.58.49-2.21.33-.63.78-1.12,1.36-1.46.58-.35,1.26-.52,2.02-.52s1.39.16,1.9.48c.51.32.9.77,1.17,1.35.27.58.4,1.27.4,2.06v.51h-6.08v-.93h4.98l-.27.21c0-.8-.18-1.42-.54-1.86-.36-.44-.87-.66-1.54-.66-.75,0-1.32.26-1.73.78-.41.52-.61,1.23-.61,2.14v.16c0,.95.23,1.66.7,2.14.46.48,1.12.72,1.98.72.47,0,.91-.07,1.32-.2s.8-.35,1.18-.66l.53,1.1c-.37.33-.83.58-1.36.76-.53.18-1.1.26-1.7.26Z"/>
          <path class="cls-2" d="m102.6,174.46c-.7,0-1.37-.09-1.98-.26-.62-.18-1.13-.43-1.52-.76l.5-1.09c.39.31.85.54,1.36.7.51.16,1.06.23,1.65.23.74,0,1.27-.11,1.61-.33.34-.22.5-.53.5-.94s-.14-.69-.42-.9c-.28-.2-.68-.3-1.22-.3h-1.98v-1.15h1.82c.48,0,.85-.1,1.12-.3.27-.2.4-.48.4-.85,0-.38-.15-.68-.46-.9-.31-.21-.79-.32-1.44-.32-.55,0-1.06.07-1.52.21-.46.14-.9.35-1.31.62l-.48-1.04c.44-.33.95-.58,1.55-.74s1.24-.24,1.94-.24c1.05,0,1.84.2,2.38.58.54.39.82.95.82,1.67,0,.5-.17.93-.5,1.28-.34.35-.79.56-1.35.64v-.21c.65.03,1.17.23,1.56.58.39.36.58.83.58,1.42,0,.72-.31,1.3-.92,1.74-.61.43-1.51.65-2.68.65Z"/>
          <path class="cls-2" d="m112.02,174.52l-.54-1.28c.36-.15.67-.34.92-.57.25-.23.45-.53.59-.89s.25-.81.31-1.34c.06-.53.1-1.18.1-1.94v-2.26h6.08v8.06h-1.6v-6.8h-2.99v1.04c0,1.21-.1,2.22-.29,3.02-.19.8-.5,1.43-.92,1.9-.42.46-.97.81-1.66,1.05Z"/>
          <path class="cls-2" d="m125.06,174.46c-.71,0-1.34-.17-1.87-.5-.53-.33-.95-.81-1.24-1.44-.29-.63-.44-1.38-.44-2.24s.15-1.62.44-2.24.71-1.1,1.24-1.43c.53-.34,1.16-.5,1.87-.5s1.32.18,1.84.53c.52.35.87.83,1.04,1.44h-.18l.16-1.82h1.57c-.03.33-.06.66-.09.98-.03.33-.04.64-.04.95v6.13h-1.62v-1.79h.18c-.17.6-.52,1.07-1.05,1.42-.53.35-1.13.52-1.82.52Zm.4-1.26c.69,0,1.25-.24,1.67-.74s.63-1.22.63-2.18-.21-1.68-.63-2.17c-.42-.48-.98-.73-1.67-.73s-1.27.24-1.69.73c-.42.49-.63,1.21-.63,2.17s.21,1.69.62,2.18.98.74,1.7.74Z"/>
          <path class="cls-2" d="m131.85,174.31v-8.06h1.34l2.91,5.15,2.91-5.15h1.34v8.06h-1.42v-6.26h.35l-2.8,4.96h-.77l-2.8-4.96h.35v6.26h-1.42Z"/>
          <path class="cls-2" d="m142.79,174.31v-8.06h1.47v6.51h-.45l4.86-6.51h1.34v8.06h-1.46v-6.53h.46l-4.9,6.53h-1.34Z"/>
          <path class="cls-2" d="m152.45,174.31v-8.06h1.6v3.28h4.08v-3.28h1.6v8.06h-1.6v-3.52h-4.08v3.52h-1.6Z"/>
          <path class="cls-2" d="m165.32,174.46c-.71,0-1.34-.17-1.87-.5s-.95-.81-1.24-1.44c-.29-.63-.44-1.38-.44-2.24s.15-1.62.44-2.24.71-1.1,1.24-1.43,1.16-.5,1.87-.5,1.32.18,1.84.53.87.83,1.04,1.44h-.18l.16-1.82h1.57c-.03.33-.06.66-.09.98-.03.33-.04.64-.04.95v6.13h-1.62v-1.79h.18c-.17.6-.52,1.07-1.05,1.42-.53.35-1.13.52-1.82.52Zm.4-1.26c.69,0,1.25-.24,1.67-.74.42-.49.63-1.22.63-2.18s-.21-1.68-.63-2.17c-.42-.48-.98-.73-1.67-.73s-1.27.24-1.69.73c-.42.49-.63,1.21-.63,2.17s.21,1.69.62,2.18.98.74,1.7.74Z"/>
          <path class="cls-2" d="m179.08,176.39v-2.08h-6.98v-8.06h1.6v6.8h3.86v-6.8h1.58v6.8h1.3v3.34h-1.36Z"/>
          <path class="cls-2" d="m182.05,174.31v-8.06h1.47v6.51h-.45l4.86-6.51h1.34v8.06h-1.46v-6.53h.46l-4.9,6.53h-1.34Z"/>
          <path class="cls-2" d="m191.72,174.31v-8.06h1.47v6.51h-.45l4.86-6.51h1.34v8.06h-1.46v-6.53h.46l-4.9,6.53h-1.34Z"/>
        </g>
        <g>
          <path class="cls-2" d="m27.84,204.05v-11.28h1.65v4.93h2.11l-.4.26,3.49-5.18h1.84l-3.78,5.47-.61-.48c.69.08,1.28.32,1.76.7.48.38.9.92,1.25,1.62l1.98,3.97h-1.79l-1.58-3.28c-.3-.62-.65-1.06-1.04-1.31s-.89-.38-1.49-.38h-1.74v4.98h-1.65Z"/>
          <path class="cls-2" d="m38.59,204.05v-11.28h1.65v4.93h2.11l-.4.26,3.49-5.18h1.84l-3.78,5.47-.61-.48c.69.08,1.28.32,1.76.7.48.38.9.92,1.25,1.62l1.98,3.97h-1.79l-1.58-3.28c-.3-.62-.65-1.06-1.04-1.31s-.89-.38-1.49-.38h-1.74v4.98h-1.65Z"/>
          <path class="cls-2" d="m52.45,204.05l5.02-11.28h1.42l5.1,11.28h-1.71l-1.39-3.2.7.45h-6.83l.75-.45-1.39,3.2h-1.68Zm5.71-9.46l-2.43,5.74-.38-.37h5.68l-.32.37-2.48-5.74h-.06Z"/>
          <path class="cls-2" d="m70.11,204.05v-2.34h-5.22v-1.18l5.49-7.76h1.34v7.65h1.68v1.29h-1.68v2.34h-1.62Zm0-3.63v-5.68h.37l-4.29,6.08v-.4h3.92Z"/>
          <path class="cls-2" d="m74.7,204.05v-1.9h1.9v1.9h-1.9Z"/>
          <path class="cls-2" d="m83.15,204.05v-11.28h7.81v1.31h-6.21v3.55h3.44c1.23,0,2.18.27,2.86.8.68.53,1.02,1.33,1.02,2.38s-.34,1.86-1.02,2.41c-.68.55-1.63.82-2.86.82h-5.04Zm1.6-1.31h3.26c.83,0,1.45-.16,1.84-.47.39-.31.59-.79.59-1.43s-.2-1.12-.59-1.42c-.4-.31-1.01-.46-1.84-.46h-3.26v3.79Z"/>
          <path class="cls-2" d="m97.74,204.19c-1.3,0-2.33-.37-3.07-1.1-.75-.74-1.12-1.75-1.12-3.06,0-.84.16-1.58.49-2.21.33-.63.78-1.12,1.36-1.46.58-.35,1.26-.52,2.02-.52s1.39.16,1.9.48c.51.32.9.77,1.17,1.35.27.58.4,1.27.4,2.06v.51h-6.08v-.93h4.98l-.27.21c0-.8-.18-1.42-.54-1.86s-.87-.66-1.54-.66c-.75,0-1.32.26-1.73.78-.41.52-.61,1.23-.61,2.14v.16c0,.95.23,1.66.7,2.14.46.48,1.12.72,1.98.72.47,0,.91-.07,1.32-.2s.8-.35,1.18-.66l.53,1.1c-.37.33-.83.58-1.36.76-.53.18-1.1.26-1.7.26Z"/>
          <path class="cls-2" d="m105.68,204.19c-.7,0-1.37-.09-1.98-.26-.62-.18-1.13-.43-1.52-.76l.5-1.09c.39.31.85.54,1.36.7.51.15,1.06.23,1.65.23.74,0,1.27-.11,1.61-.33s.5-.53.5-.94-.14-.69-.42-.9-.68-.3-1.22-.3h-1.98v-1.15h1.82c.48,0,.85-.1,1.12-.3.27-.2.4-.49.4-.85,0-.38-.15-.68-.46-.9-.31-.21-.79-.32-1.44-.32-.55,0-1.06.07-1.52.21-.46.14-.9.35-1.31.62l-.48-1.04c.44-.33.95-.58,1.55-.74.6-.16,1.24-.24,1.94-.24,1.05,0,1.84.19,2.38.58.54.39.82.95.82,1.67,0,.5-.17.93-.5,1.28-.34.35-.79.57-1.35.64v-.21c.65.03,1.17.23,1.56.58.39.36.58.83.58,1.42,0,.73-.31,1.3-.92,1.74-.61.43-1.51.65-2.68.65Z"/>
          <path class="cls-2" d="m115.5,207.51v-9.58c0-.31-.01-.63-.04-.95-.03-.32-.06-.65-.09-.98h1.57l.16,1.82h-.18c.17-.61.51-1.09,1.03-1.44s1.13-.53,1.85-.53,1.34.17,1.87.5c.53.34.95.81,1.24,1.43s.44,1.37.44,2.24-.15,1.61-.44,2.24c-.29.63-.71,1.11-1.24,1.44-.53.33-1.16.5-1.87.5s-1.31-.17-1.83-.52c-.52-.35-.86-.82-1.03-1.42h.18v5.25h-1.62Zm3.9-4.58c.7,0,1.27-.25,1.69-.74s.63-1.22.63-2.18-.21-1.68-.63-2.17-.98-.73-1.69-.73-1.27.24-1.69.73-.63,1.21-.63,2.17.21,1.69.63,2.18.98.74,1.69.74Z"/>
          <path class="cls-2" d="m129.17,204.19c-1.3,0-2.33-.37-3.07-1.1-.75-.74-1.12-1.75-1.12-3.06,0-.84.16-1.58.49-2.21.33-.63.78-1.12,1.36-1.46.58-.35,1.26-.52,2.02-.52s1.39.16,1.9.48c.51.32.9.77,1.17,1.35.27.58.4,1.27.4,2.06v.51h-6.08v-.93h4.98l-.27.21c0-.8-.18-1.42-.54-1.86s-.87-.66-1.54-.66c-.75,0-1.32.26-1.73.78-.41.52-.61,1.23-.61,2.14v.16c0,.95.23,1.66.7,2.14.46.48,1.12.72,1.98.72.47,0,.91-.07,1.32-.2s.8-.35,1.18-.66l.53,1.1c-.37.33-.83.58-1.36.76-.53.18-1.1.26-1.7.26Z"/>
          <path class="cls-2" d="m134.3,204.05v-8.06h1.6v3.3h1.39l2.51-3.3h1.76l-3.01,3.97-.4-.51c.31.03.58.11.8.23.22.12.44.3.66.54s.43.54.66.93l1.68,2.91h-1.73l-1.44-2.46c-.16-.28-.31-.49-.46-.65s-.32-.26-.51-.32c-.19-.06-.43-.09-.7-.09h-1.2v3.52h-1.6Z"/>
          <path class="cls-2" d="m142.8,204.26l-.54-1.28c.36-.15.67-.34.92-.57s.45-.52.59-.89.25-.81.31-1.34.1-1.18.1-1.94v-2.26h6.08v8.06h-1.6v-6.8h-2.99v1.04c0,1.22-.1,2.22-.29,3.02s-.5,1.43-.92,1.9c-.42.46-.97.81-1.66,1.05Z"/>
          <path class="cls-2" d="m155.84,204.19c-.71,0-1.34-.17-1.87-.5-.53-.33-.95-.81-1.24-1.44-.29-.63-.44-1.38-.44-2.24s.15-1.62.44-2.24.71-1.1,1.24-1.43c.53-.34,1.16-.5,1.87-.5s1.32.18,1.84.53c.52.35.87.83,1.04,1.44h-.18l.16-1.82h1.57c-.03.33-.06.66-.09.98-.03.33-.04.64-.04.95v6.13h-1.62v-1.79h.18c-.17.6-.52,1.07-1.05,1.42-.53.35-1.13.52-1.82.52Zm.4-1.26c.69,0,1.25-.25,1.67-.74s.63-1.22.63-2.18-.21-1.68-.63-2.17-.98-.73-1.67-.73-1.27.24-1.69.73c-.42.49-.63,1.21-.63,2.17s.21,1.69.62,2.18.98.74,1.7.74Z"/>
          <path class="cls-2" d="m162.62,204.05v-8.06h1.34l2.91,5.15,2.91-5.15h1.34v8.06h-1.42v-6.26h.35l-2.8,4.96h-.77l-2.8-4.96h.35v6.26h-1.42Z"/>
          <path class="cls-2" d="m173.57,204.05v-8.06h1.6v3.28h4.08v-3.28h1.6v8.06h-1.6v-3.52h-4.08v3.52h-1.6Z"/>
          <path class="cls-2" d="m186.8,204.19c-.8,0-1.49-.17-2.08-.5-.59-.34-1.04-.82-1.36-1.44-.32-.62-.48-1.37-.48-2.23s.16-1.61.48-2.23.77-1.1,1.36-1.44c.59-.34,1.28-.5,2.08-.5s1.5.17,2.09.5,1.05.82,1.38,1.44c.33.62.49,1.37.49,2.23s-.16,1.61-.49,2.23c-.33.62-.78,1.1-1.38,1.44s-1.29.5-2.09.5Zm0-1.26c.7,0,1.26-.25,1.68-.74s.62-1.22.62-2.18-.21-1.68-.62-2.17-.98-.73-1.68-.73-1.25.24-1.66.73-.62,1.21-.62,2.17.21,1.69.62,2.18c.41.49.97.74,1.67.74Z"/>
          <path class="cls-2" d="m192.75,204.05v-8.06h5.81v1.3h-4.19v6.77h-1.62Z"/>
          <path class="cls-2" d="m203.55,204.19c-.8,0-1.49-.17-2.08-.5-.59-.34-1.04-.82-1.36-1.44-.32-.62-.48-1.37-.48-2.23s.16-1.61.48-2.23.77-1.1,1.36-1.44c.59-.34,1.28-.5,2.08-.5s1.5.17,2.09.5,1.05.82,1.38,1.44c.33.62.49,1.37.49,2.23s-.16,1.61-.49,2.23c-.33.62-.78,1.1-1.38,1.44s-1.29.5-2.09.5Zm0-1.26c.7,0,1.26-.25,1.68-.74s.62-1.22.62-2.18-.21-1.68-.62-2.17-.98-.73-1.68-.73-1.25.24-1.66.73-.62,1.21-.62,2.17.21,1.69.62,2.18c.41.49.97.74,1.67.74Z"/>
          <path class="cls-2" d="m213.77,204.05v-8.06h7.23v8.06h-1.6v-6.8h-4.03v6.8h-1.6Z"/>
          <path class="cls-2" d="m226.96,204.19c-.8,0-1.49-.17-2.08-.5-.59-.34-1.04-.82-1.36-1.44-.32-.62-.48-1.37-.48-2.23s.16-1.61.48-2.23.77-1.1,1.36-1.44c.59-.34,1.28-.5,2.08-.5s1.5.17,2.09.5,1.05.82,1.38,1.44c.33.62.49,1.37.49,2.23s-.16,1.61-.49,2.23c-.33.62-.78,1.1-1.38,1.44s-1.29.5-2.09.5Zm0-1.26c.7,0,1.26-.25,1.68-.74s.62-1.22.62-2.18-.21-1.68-.62-2.17-.98-.73-1.68-.73-1.25.24-1.66.73-.62,1.21-.62,2.17.21,1.69.62,2.18c.41.49.97.74,1.67.74Z"/>
          <path class="cls-2" d="m232.41,204.26l-.54-1.28c.36-.15.67-.34.92-.57s.45-.52.59-.89c.14-.36.25-.81.31-1.34.06-.53.1-1.18.1-1.94v-2.26h6.08v8.06h-1.6v-6.8h-2.99v1.04c0,1.22-.1,2.22-.29,3.02s-.5,1.43-.92,1.9c-.42.46-.97.81-1.66,1.05Z"/>
          <path class="cls-2" d="m241.65,204.05l1.26-2.18c.2-.35.46-.64.78-.86s.64-.33.97-.33h.29l-.02.16c-.92,0-1.63-.21-2.14-.62-.51-.42-.77-1.01-.77-1.79s.26-1.38.77-1.81c.51-.43,1.26-.64,2.26-.64h3.78v8.06h-1.49v-2.99h-1.07c-.41,0-.75.1-1.03.3-.28.2-.51.47-.7.8l-1.09,1.89h-1.79Zm3.68-4.08h2v-2.9h-2c-.6,0-1.04.13-1.34.38-.29.26-.44.61-.44,1.06s.15.83.44,1.08c.29.25.74.38,1.34.38Z"/>
          <path class="cls-2" d="m251.79,206.02l-.7-.54c.31-.33.52-.63.63-.91.11-.28.17-.57.17-.86l.35.35h-1.26v-1.9h1.9v1.3c0,.48-.08.93-.24,1.34-.16.41-.44.82-.85,1.24Z"/>
          <path class="cls-2" d="m89.78,219.19c-.81,0-1.52-.17-2.12-.5s-1.07-.82-1.39-1.46c-.33-.63-.49-1.39-.49-2.26s.17-1.6.5-2.22c.33-.62.79-1.09,1.39-1.42.6-.33,1.3-.49,2.11-.49.52,0,1.03.09,1.52.26s.9.42,1.22.74l-.53,1.14c-.3-.29-.63-.5-1.01-.65-.37-.14-.74-.22-1.09-.22-.77,0-1.37.25-1.81.74-.44.49-.66,1.2-.66,2.13s.22,1.66.66,2.16c.44.5,1.04.75,1.81.75.34,0,.7-.07,1.07-.2.37-.13.71-.35,1.02-.65l.53,1.14c-.33.32-.74.57-1.24.74s-.99.26-1.5.26Z"/>
          <path class="cls-2" d="m98.3,219.26l-.54-1.28c.36-.15.67-.34.92-.57s.45-.52.59-.89.25-.81.31-1.34.1-1.18.1-1.94v-2.26h6.08v8.06h-1.6v-6.8h-2.99v1.04c0,1.22-.1,2.22-.29,3.02s-.5,1.43-.92,1.9c-.42.46-.97.81-1.66,1.05Z"/>
          <path class="cls-2" d="m111.34,219.19c-.71,0-1.34-.17-1.87-.5-.53-.33-.95-.81-1.24-1.44-.29-.63-.44-1.38-.44-2.24s.15-1.62.44-2.24.71-1.1,1.24-1.43c.53-.34,1.16-.5,1.87-.5s1.32.18,1.84.53c.52.35.87.83,1.04,1.44h-.18l.16-1.82h1.57c-.03.33-.06.66-.09.98-.03.33-.04.64-.04.95v6.13h-1.62v-1.79h.18c-.17.6-.52,1.07-1.05,1.42-.53.35-1.13.52-1.82.52Zm.4-1.26c.69,0,1.25-.25,1.67-.74s.63-1.22.63-2.18-.21-1.68-.63-2.17-.98-.73-1.67-.73-1.27.24-1.69.73-.63,1.21-.63,2.17.21,1.69.62,2.18.98.74,1.7.74Z"/>
          <path class="cls-2" d="m118.12,219.05v-8.06h1.34l2.91,5.15,2.91-5.15h1.34v8.06h-1.42v-6.26h.35l-2.8,4.96h-.77l-2.8-4.96h.35v6.26h-1.42Z"/>
          <path class="cls-2" d="m129.06,219.05v-8.06h1.47v6.51h-.45l4.86-6.51h1.34v8.06h-1.46v-6.53h.46l-4.9,6.53h-1.34Z"/>
          <path class="cls-2" d="m138.73,219.05v-8.06h1.6v3.28h4.08v-3.28h1.6v8.06h-1.6v-3.52h-4.08v3.52h-1.6Z"/>
          <path class="cls-2" d="m151.59,219.19c-.71,0-1.34-.17-1.87-.5-.53-.33-.95-.81-1.24-1.44-.29-.63-.44-1.38-.44-2.24s.15-1.62.44-2.24.71-1.1,1.24-1.43c.53-.34,1.16-.5,1.87-.5s1.32.18,1.84.53c.52.35.87.83,1.04,1.44h-.18l.16-1.82h1.57c-.03.33-.06.66-.09.98-.03.33-.04.64-.04.95v6.13h-1.62v-1.79h.18c-.17.6-.52,1.07-1.05,1.42-.53.35-1.13.52-1.82.52Zm.4-1.26c.69,0,1.25-.25,1.67-.74.42-.49.63-1.22.63-2.18s-.21-1.68-.63-2.17c-.42-.49-.98-.73-1.67-.73s-1.27.24-1.69.73-.63,1.21-.63,2.17.21,1.69.62,2.18.98.74,1.7.74Z"/>
          <path class="cls-2" d="m165.35,221.13v-2.08h-6.98v-8.06h1.6v6.8h3.86v-6.8h1.58v6.8h1.3v3.34h-1.36Z"/>
          <path class="cls-2" d="m168.33,219.05v-8.06h1.47v6.51h-.45l4.86-6.51h1.34v8.06h-1.46v-6.53h.46l-4.9,6.53h-1.34Z"/>
          <path class="cls-2" d="m181.78,219.19c-1.3,0-2.33-.37-3.07-1.1-.75-.74-1.12-1.75-1.12-3.06,0-.84.16-1.58.49-2.21.33-.63.78-1.12,1.36-1.46.58-.35,1.26-.52,2.02-.52s1.39.16,1.9.48.9.77,1.17,1.35c.27.58.4,1.27.4,2.06v.51h-6.08v-.93h4.98l-.27.21c0-.8-.18-1.42-.54-1.86s-.87-.66-1.54-.66c-.75,0-1.32.26-1.73.78s-.61,1.23-.61,2.14v.16c0,.95.23,1.66.7,2.14.46.48,1.12.72,1.98.72.47,0,.91-.07,1.32-.2.41-.13.8-.35,1.18-.66l.53,1.1c-.37.33-.83.58-1.36.76s-1.1.26-1.7.26Z"/>
          <path class="cls-2" d="m186.92,219.05v-8.06h1.47v6.51h-.45l4.86-6.51h1.34v8.06h-1.46v-6.53h.46l-4.9,6.53h-1.34Zm3.62-8.8c-.49,0-.93-.08-1.31-.24-.38-.16-.71-.4-.98-.71-.27-.31-.48-.7-.62-1.14l.9-.32c.18.5.44.87.77,1.11.33.24.75.36,1.25.36s.93-.11,1.26-.34c.33-.22.61-.6.84-1.12l.83.3c-.26.73-.64,1.26-1.14,1.59-.51.34-1.1.5-1.78.5Z"/>
        </g>
        <g>
          <path class="cls-2" d="m32.49,251.01v-11.28h1.65v4.93h2.11l-.4.26,3.49-5.18h1.84l-3.78,5.47-.61-.48c.69.09,1.28.32,1.76.71.48.38.9.92,1.25,1.62l1.98,3.97h-1.79l-1.58-3.28c-.3-.62-.65-1.06-1.04-1.31-.39-.26-.89-.38-1.49-.38h-1.74v4.98h-1.65Z"/>
          <path class="cls-2" d="m43.24,251.01v-11.28h1.65v4.93h2.11l-.4.26,3.49-5.18h1.84l-3.78,5.47-.61-.48c.69.09,1.28.32,1.76.71.48.38.9.92,1.25,1.62l1.98,3.97h-1.79l-1.58-3.28c-.3-.62-.65-1.06-1.04-1.31-.39-.26-.89-.38-1.49-.38h-1.74v4.98h-1.65Z"/>
          <path class="cls-2" d="m57.1,251.01l5.02-11.28h1.42l5.1,11.28h-1.71l-1.39-3.2.7.45h-6.83l.75-.45-1.39,3.2h-1.68Zm5.71-9.46l-2.43,5.74-.38-.37h5.68l-.32.37-2.48-5.74h-.06Z"/>
          <path class="cls-2" d="m74.76,251.01v-2.34h-5.22v-1.18l5.49-7.76h1.34v7.65h1.68v1.3h-1.68v2.34h-1.62Zm0-3.63v-5.68h.37l-4.29,6.08v-.4h3.92Z"/>
          <path class="cls-2" d="m79.35,251.01v-1.9h1.9v1.9h-1.9Z"/>
          <path class="cls-2" d="m92.87,251.15c-1.15,0-2.13-.23-2.94-.7-.81-.47-1.43-1.14-1.86-2.01-.43-.87-.65-1.9-.65-3.08s.22-2.21.65-3.07c.43-.86,1.05-1.53,1.86-2,.81-.47,1.79-.7,2.94-.7.8,0,1.51.12,2.14.35s1.18.58,1.65,1.02l-.58,1.33c-.51-.44-1.01-.75-1.5-.94-.49-.19-1.05-.29-1.69-.29-1.22,0-2.14.37-2.78,1.12-.64.75-.96,1.81-.96,3.18s.32,2.44.96,3.19,1.57,1.13,2.78,1.13c.64,0,1.2-.1,1.69-.29.49-.19.98-.51,1.5-.96l.58,1.33c-.47.45-1.02.79-1.65,1.03s-1.34.36-2.14.36Z"/>
          <path class="cls-2" d="m102.98,254.46v-9.58c0-.31-.01-.63-.04-.95-.03-.33-.06-.65-.09-.98h1.57l.16,1.82h-.18c.17-.61.51-1.09,1.03-1.44s1.13-.53,1.85-.53,1.34.17,1.87.5c.53.34.95.81,1.24,1.43s.44,1.37.44,2.24-.15,1.61-.44,2.24c-.29.63-.71,1.11-1.24,1.44-.53.33-1.16.5-1.87.5s-1.31-.17-1.83-.52c-.52-.35-.86-.82-1.03-1.42h.18v5.25h-1.62Zm3.9-4.58c.7,0,1.27-.24,1.69-.74s.63-1.22.63-2.18-.21-1.68-.63-2.17c-.42-.48-.98-.73-1.69-.73s-1.27.24-1.69.73c-.42.49-.63,1.21-.63,2.17s.21,1.69.63,2.18.98.74,1.69.74Z"/>
          <path class="cls-2" d="m116.65,251.15c-1.3,0-2.33-.37-3.07-1.1-.75-.74-1.12-1.75-1.12-3.06,0-.84.16-1.58.49-2.21.33-.63.78-1.12,1.36-1.46.58-.35,1.26-.52,2.02-.52s1.39.16,1.9.48c.51.32.9.77,1.17,1.35.27.58.4,1.27.4,2.06v.51h-6.08v-.93h4.98l-.27.21c0-.8-.18-1.42-.54-1.86-.36-.44-.87-.66-1.54-.66-.75,0-1.32.26-1.73.78-.41.52-.61,1.23-.61,2.14v.16c0,.95.23,1.66.7,2.14.46.48,1.12.72,1.98.72.47,0,.91-.07,1.32-.2s.8-.35,1.18-.66l.53,1.1c-.37.33-.83.58-1.36.76-.53.18-1.1.26-1.7.26Z"/>
          <path class="cls-2" d="m121.78,251.01v-8.06h1.6v3.3h1.39l2.51-3.3h1.76l-3.01,3.97-.4-.51c.31.03.58.11.8.23.22.12.44.3.66.54.21.23.43.54.66.93l1.68,2.91h-1.73l-1.44-2.46c-.16-.28-.31-.49-.46-.65s-.32-.26-.51-.32c-.19-.06-.43-.09-.7-.09h-1.2v3.52h-1.6Z"/>
          <path class="cls-2" d="m130.28,251.21l-.54-1.28c.36-.15.67-.34.92-.57.25-.23.45-.53.59-.89s.25-.81.31-1.34c.06-.53.1-1.18.1-1.94v-2.26h6.08v8.06h-1.6v-6.8h-2.99v1.04c0,1.21-.1,2.22-.29,3.02-.19.8-.5,1.43-.92,1.9-.42.46-.97.81-1.66,1.05Z"/>
          <path class="cls-2" d="m143.32,251.15c-.71,0-1.34-.17-1.87-.5-.53-.33-.95-.81-1.24-1.44-.29-.63-.44-1.38-.44-2.24s.15-1.62.44-2.24.71-1.1,1.24-1.43c.53-.34,1.16-.5,1.87-.5s1.32.18,1.84.53c.52.35.87.83,1.04,1.44h-.18l.16-1.82h1.57c-.03.33-.06.66-.09.98-.03.33-.04.64-.04.95v6.13h-1.62v-1.79h.18c-.17.6-.52,1.07-1.05,1.42-.53.35-1.13.52-1.82.52Zm.4-1.26c.69,0,1.25-.24,1.67-.74s.63-1.22.63-2.18-.21-1.68-.63-2.17c-.42-.48-.98-.73-1.67-.73s-1.27.24-1.69.73c-.42.49-.63,1.21-.63,2.17s.21,1.69.62,2.18.98.74,1.7.74Z"/>
          <path class="cls-2" d="m150.1,251.01v-8.06h1.34l2.91,5.15,2.91-5.15h1.34v8.06h-1.42v-6.26h.35l-2.8,4.96h-.77l-2.8-4.96h.35v6.26h-1.42Z"/>
          <path class="cls-2" d="m161.05,251.01v-8.06h1.6v3.28h4.08v-3.28h1.6v8.06h-1.6v-3.52h-4.08v3.52h-1.6Z"/>
          <path class="cls-2" d="m170.76,251.01v-8.06h1.6v2.82h2.29c1.06,0,1.85.22,2.38.66.53.44.8,1.08.8,1.93,0,.54-.12,1.02-.37,1.42s-.61.71-1.08.92-1.05.32-1.74.32h-3.89Zm1.6-1.1h2.11c.61,0,1.07-.13,1.38-.38.32-.25.47-.64.47-1.16s-.16-.9-.47-1.14c-.31-.24-.78-.36-1.38-.36h-2.11v3.04Zm6.61,1.1v-8.06h1.6v8.06h-1.6Z"/>
          <path class="cls-2" d="m182.98,251.01v-8.06h1.34l2.91,5.15,2.91-5.15h1.34v8.06h-1.42v-6.26h.35l-2.8,4.96h-.77l-2.8-4.96h.35v6.26h-1.42Z"/>
          <path class="cls-2" d="m198.2,251.01v-8.06h7.23v8.06h-1.6v-6.8h-4.03v6.8h-1.6Z"/>
          <path class="cls-2" d="m211.38,251.15c-.8,0-1.49-.17-2.08-.5-.59-.34-1.04-.82-1.36-1.44-.32-.62-.48-1.37-.48-2.23s.16-1.61.48-2.23.77-1.1,1.36-1.44c.59-.34,1.28-.5,2.08-.5s1.5.17,2.09.5,1.05.82,1.38,1.44c.33.62.49,1.37.49,2.23s-.16,1.61-.49,2.23c-.33.62-.78,1.1-1.38,1.44s-1.29.5-2.09.5Zm0-1.26c.7,0,1.26-.24,1.68-.74s.62-1.22.62-2.18-.21-1.68-.62-2.17c-.42-.48-.98-.73-1.68-.73s-1.25.24-1.66.73c-.42.49-.62,1.21-.62,2.17s.21,1.69.62,2.18c.41.49.97.74,1.67.74Z"/>
          <path class="cls-2" d="m216.84,251.21l-.54-1.28c.36-.15.67-.34.92-.57.25-.23.45-.53.59-.89.14-.36.25-.81.31-1.34.06-.53.1-1.18.1-1.94v-2.26h6.08v8.06h-1.6v-6.8h-2.99v1.04c0,1.21-.1,2.22-.29,3.02-.19.8-.5,1.43-.92,1.9-.42.46-.97.81-1.66,1.05Z"/>
          <path class="cls-2" d="m230.52,251.15c-1.3,0-2.33-.37-3.07-1.1-.75-.74-1.12-1.75-1.12-3.06,0-.84.16-1.58.49-2.21s.78-1.12,1.36-1.46c.58-.35,1.26-.52,2.02-.52s1.39.16,1.9.48.9.77,1.17,1.35c.27.58.4,1.27.4,2.06v.51h-6.08v-.93h4.98l-.27.21c0-.8-.18-1.42-.54-1.86-.36-.44-.87-.66-1.54-.66-.75,0-1.32.26-1.73.78-.41.52-.61,1.23-.61,2.14v.16c0,.95.23,1.66.7,2.14.46.48,1.12.72,1.98.72.47,0,.91-.07,1.32-.2.41-.13.8-.35,1.18-.66l.53,1.1c-.37.33-.83.58-1.36.76-.53.18-1.1.26-1.7.26Z"/>
          <path class="cls-2" d="m235.65,251.01v-8.06h1.34l2.91,5.15,2.91-5.15h1.34v8.06h-1.42v-6.26h.35l-2.8,4.96h-.77l-2.8-4.96h.35v6.26h-1.42Z"/>
          <path class="cls-2" d="m247.14,252.97l-.7-.54c.31-.33.52-.63.63-.91.11-.28.17-.57.17-.86l.35.35h-1.26v-1.9h1.9v1.3c0,.48-.08.92-.24,1.34-.16.41-.44.82-.85,1.24Z"/>
          <path class="cls-2" d="m84.97,266.15c-1.22,0-2.18-.38-2.9-1.14s-1.08-1.87-1.08-3.34v-1.39c0-1.5.32-2.71.97-3.63.65-.92,1.65-1.54,3-1.86l2.94-.7.46,1.29-3.3.77c-.58.13-1.05.37-1.42.72-.37.35-.65.77-.84,1.25s-.28.99-.28,1.54v.74h-.24c.13-.49.33-.91.62-1.26.28-.35.63-.62,1.06-.82.42-.2.89-.3,1.42-.3.69,0,1.3.16,1.82.48.52.32.93.78,1.22,1.38.29.6.44,1.32.44,2.14s-.16,1.59-.48,2.21-.77,1.09-1.35,1.42c-.58.33-1.27.5-2.06.5Zm-.05-1.25c.73,0,1.29-.24,1.7-.71s.62-1.18.62-2.1-.21-1.62-.62-2.1c-.42-.48-.98-.72-1.7-.72s-1.28.24-1.7.71-.62,1.15-.62,2.02c0,.96.21,1.68.62,2.17.41.48.98.73,1.7.73Z"/>
          <path class="cls-2" d="m94.66,266.15c-1.3,0-2.33-.37-3.07-1.1-.75-.74-1.12-1.75-1.12-3.06,0-.84.16-1.58.49-2.21.33-.63.78-1.12,1.36-1.46.58-.35,1.26-.52,2.02-.52s1.39.16,1.9.48c.51.32.9.77,1.17,1.35.27.58.4,1.27.4,2.06v.51h-6.08v-.93h4.98l-.27.21c0-.8-.18-1.42-.54-1.86-.36-.44-.87-.66-1.54-.66-.75,0-1.32.26-1.73.78-.41.52-.61,1.23-.61,2.14v.16c0,.95.23,1.66.7,2.14.46.48,1.12.72,1.98.72.47,0,.91-.07,1.32-.2s.8-.35,1.18-.66l.53,1.1c-.37.33-.83.58-1.36.76-.53.18-1.1.26-1.7.26Z"/>
          <path class="cls-2" d="m102.6,266.15c-.7,0-1.37-.09-1.98-.26-.62-.18-1.13-.43-1.52-.76l.5-1.09c.39.31.85.54,1.36.7.51.16,1.06.23,1.65.23.74,0,1.27-.11,1.61-.33.34-.22.5-.53.5-.94s-.14-.69-.42-.9c-.28-.2-.68-.3-1.22-.3h-1.98v-1.15h1.82c.48,0,.85-.1,1.12-.3.27-.2.4-.48.4-.85,0-.38-.15-.68-.46-.9-.31-.21-.79-.32-1.44-.32-.55,0-1.06.07-1.52.21-.46.14-.9.35-1.31.62l-.48-1.04c.44-.33.95-.58,1.55-.74s1.24-.24,1.94-.24c1.05,0,1.84.2,2.38.58.54.39.82.95.82,1.67,0,.5-.17.93-.5,1.28-.34.35-.79.56-1.35.64v-.21c.65.03,1.17.23,1.56.58.39.36.58.83.58,1.42,0,.72-.31,1.3-.92,1.74-.61.43-1.51.65-2.68.65Z"/>
          <path class="cls-2" d="m112.02,266.21l-.54-1.28c.36-.15.67-.34.92-.57.25-.23.45-.53.59-.89s.25-.81.31-1.34c.06-.53.1-1.18.1-1.94v-2.26h6.08v8.06h-1.6v-6.8h-2.99v1.04c0,1.21-.1,2.22-.29,3.02-.19.8-.5,1.43-.92,1.9-.42.46-.97.81-1.66,1.05Z"/>
          <path class="cls-2" d="m125.06,266.15c-.71,0-1.34-.17-1.87-.5-.53-.33-.95-.81-1.24-1.44-.29-.63-.44-1.38-.44-2.24s.15-1.62.44-2.24.71-1.1,1.24-1.43c.53-.34,1.16-.5,1.87-.5s1.32.18,1.84.53c.52.35.87.83,1.04,1.44h-.18l.16-1.82h1.57c-.03.33-.06.66-.09.98-.03.33-.04.64-.04.95v6.13h-1.62v-1.79h.18c-.17.6-.52,1.07-1.05,1.42-.53.35-1.13.52-1.82.52Zm.4-1.26c.69,0,1.25-.24,1.67-.74s.63-1.22.63-2.18-.21-1.68-.63-2.17c-.42-.48-.98-.73-1.67-.73s-1.27.24-1.69.73c-.42.49-.63,1.21-.63,2.17s.21,1.69.62,2.18.98.74,1.7.74Z"/>
          <path class="cls-2" d="m131.85,266.01v-8.06h1.34l2.91,5.15,2.91-5.15h1.34v8.06h-1.42v-6.26h.35l-2.8,4.96h-.77l-2.8-4.96h.35v6.26h-1.42Z"/>
          <path class="cls-2" d="m142.79,266.01v-8.06h1.47v6.51h-.45l4.86-6.51h1.34v8.06h-1.46v-6.53h.46l-4.9,6.53h-1.34Z"/>
          <path class="cls-2" d="m152.45,266.01v-8.06h1.6v3.28h4.08v-3.28h1.6v8.06h-1.6v-3.52h-4.08v3.52h-1.6Z"/>
          <path class="cls-2" d="m165.32,266.15c-.71,0-1.34-.17-1.87-.5s-.95-.81-1.24-1.44c-.29-.63-.44-1.38-.44-2.24s.15-1.62.44-2.24.71-1.1,1.24-1.43,1.16-.5,1.87-.5,1.32.18,1.84.53.87.83,1.04,1.44h-.18l.16-1.82h1.57c-.03.33-.06.66-.09.98-.03.33-.04.64-.04.95v6.13h-1.62v-1.79h.18c-.17.6-.52,1.07-1.05,1.42-.53.35-1.13.52-1.82.52Zm.4-1.26c.69,0,1.25-.24,1.67-.74.42-.49.63-1.22.63-2.18s-.21-1.68-.63-2.17c-.42-.48-.98-.73-1.67-.73s-1.27.24-1.69.73c-.42.49-.63,1.21-.63,2.17s.21,1.69.62,2.18.98.74,1.7.74Z"/>
          <path class="cls-2" d="m179.08,268.09v-2.08h-6.98v-8.06h1.6v6.8h3.86v-6.8h1.58v6.8h1.3v3.34h-1.36Z"/>
          <path class="cls-2" d="m182.05,266.01v-8.06h1.47v6.51h-.45l4.86-6.51h1.34v8.06h-1.46v-6.53h.46l-4.9,6.53h-1.34Z"/>
          <path class="cls-2" d="m191.72,266.01v-8.06h1.47v6.51h-.45l4.86-6.51h1.34v8.06h-1.46v-6.53h.46l-4.9,6.53h-1.34Z"/>
        </g>
        <g>
          <path class="cls-2" d="m32.49,296.79v-11.28h1.65v4.93h2.11l-.4.26,3.49-5.18h1.84l-3.78,5.47-.61-.48c.69.09,1.28.32,1.76.7s.9.92,1.25,1.62l1.98,3.97h-1.79l-1.58-3.28c-.3-.62-.65-1.06-1.04-1.31-.39-.26-.89-.38-1.49-.38h-1.74v4.98h-1.65Z"/>
          <path class="cls-2" d="m43.24,296.79v-11.28h1.65v4.93h2.11l-.4.26,3.49-5.18h1.84l-3.78,5.47-.61-.48c.69.09,1.28.32,1.76.7s.9.92,1.25,1.62l1.98,3.97h-1.79l-1.58-3.28c-.3-.62-.65-1.06-1.04-1.31-.39-.26-.89-.38-1.49-.38h-1.74v4.98h-1.65Z"/>
          <path class="cls-2" d="m57.1,296.79l5.02-11.28h1.42l5.1,11.28h-1.71l-1.39-3.2.7.45h-6.83l.75-.45-1.39,3.2h-1.68Zm5.71-9.46l-2.43,5.74-.38-.37h5.68l-.32.37-2.48-5.74h-.06Z"/>
          <path class="cls-2" d="m74.76,296.79v-2.34h-5.22v-1.18l5.49-7.76h1.34v7.65h1.68v1.3h-1.68v2.34h-1.62Zm0-3.63v-5.68h.37l-4.29,6.08v-.4h3.92Z"/>
          <path class="cls-2" d="m79.35,296.79v-1.9h1.9v1.9h-1.9Z"/>
          <path class="cls-2" d="m92.87,296.93c-1.15,0-2.13-.23-2.94-.7-.81-.47-1.43-1.14-1.86-2.01-.43-.87-.65-1.9-.65-3.08s.22-2.21.65-3.07,1.05-1.53,1.86-2c.81-.47,1.79-.7,2.94-.7.8,0,1.51.12,2.14.35.63.23,1.18.58,1.65,1.02l-.58,1.33c-.51-.44-1.01-.75-1.5-.94-.49-.19-1.05-.29-1.69-.29-1.22,0-2.14.37-2.78,1.12s-.96,1.81-.96,3.18.32,2.44.96,3.19,1.57,1.13,2.78,1.13c.64,0,1.2-.1,1.69-.29.49-.19.98-.51,1.5-.96l.58,1.33c-.47.45-1.02.79-1.65,1.03s-1.34.36-2.14.36Z"/>
          <path class="cls-2" d="m102.98,300.25v-9.58c0-.31-.01-.63-.04-.95-.03-.33-.06-.65-.09-.98h1.57l.16,1.82h-.18c.17-.61.51-1.09,1.03-1.44.52-.35,1.13-.53,1.85-.53s1.34.17,1.87.5c.53.34.95.81,1.24,1.43.29.62.44,1.37.44,2.24s-.15,1.61-.44,2.24-.71,1.11-1.24,1.44c-.53.33-1.16.5-1.87.5s-1.31-.17-1.83-.52c-.52-.35-.86-.82-1.03-1.42h.18v5.25h-1.62Zm3.9-4.58c.7,0,1.27-.25,1.69-.74.42-.49.63-1.21.63-2.18s-.21-1.68-.63-2.17c-.42-.48-.98-.73-1.69-.73s-1.27.24-1.69.73c-.42.49-.63,1.21-.63,2.17s.21,1.69.63,2.18c.42.49.98.74,1.69.74Z"/>
          <path class="cls-2" d="m116.65,296.93c-1.3,0-2.33-.37-3.07-1.1s-1.12-1.75-1.12-3.06c0-.84.16-1.58.49-2.21.33-.63.78-1.12,1.36-1.46.58-.35,1.26-.52,2.02-.52s1.39.16,1.9.48c.51.32.9.77,1.17,1.35.27.58.4,1.27.4,2.06v.51h-6.08v-.93h4.98l-.27.21c0-.8-.18-1.42-.54-1.86-.36-.44-.87-.66-1.54-.66-.75,0-1.32.26-1.73.78-.41.52-.61,1.23-.61,2.14v.16c0,.95.23,1.66.7,2.14s1.12.72,1.98.72c.47,0,.91-.07,1.32-.2.41-.13.8-.36,1.18-.66l.53,1.1c-.37.33-.83.58-1.36.76-.53.18-1.1.26-1.7.26Z"/>
          <path class="cls-2" d="m121.78,296.79v-8.06h1.6v3.29h1.39l2.51-3.29h1.76l-3.01,3.97-.4-.51c.31.03.58.11.8.23s.44.3.66.54c.21.23.43.54.66.93l1.68,2.91h-1.73l-1.44-2.46c-.16-.28-.31-.49-.46-.65-.15-.15-.32-.26-.51-.32-.19-.06-.43-.09-.7-.09h-1.2v3.52h-1.6Z"/>
          <path class="cls-2" d="m130.28,297l-.54-1.28c.36-.15.67-.34.92-.57.25-.23.45-.53.59-.89.14-.36.25-.81.31-1.34s.1-1.18.1-1.94v-2.26h6.08v8.06h-1.6v-6.8h-2.99v1.04c0,1.22-.1,2.22-.29,3.02-.19.8-.5,1.43-.92,1.9-.42.46-.97.81-1.66,1.05Z"/>
          <path class="cls-2" d="m143.32,296.93c-.71,0-1.34-.17-1.87-.5-.53-.33-.95-.81-1.24-1.44s-.44-1.38-.44-2.24.15-1.62.44-2.24c.29-.62.71-1.1,1.24-1.43.53-.34,1.16-.5,1.87-.5s1.32.18,1.84.53c.52.35.87.83,1.04,1.44h-.18l.16-1.82h1.57c-.03.33-.06.66-.09.98-.03.33-.04.64-.04.95v6.13h-1.62v-1.79h.18c-.17.6-.52,1.07-1.05,1.42-.53.35-1.13.52-1.82.52Zm.4-1.26c.69,0,1.25-.25,1.67-.74.42-.49.63-1.21.63-2.18s-.21-1.68-.63-2.17c-.42-.48-.98-.73-1.67-.73s-1.27.24-1.69.73c-.42.49-.63,1.21-.63,2.17s.21,1.69.62,2.18c.42.49.98.74,1.7.74Z"/>
          <path class="cls-2" d="m150.1,296.79v-8.06h1.34l2.91,5.15,2.91-5.15h1.34v8.06h-1.42v-6.26h.35l-2.8,4.96h-.77l-2.8-4.96h.35v6.26h-1.42Z"/>
          <path class="cls-2" d="m161.05,296.79v-8.06h1.6v3.28h4.08v-3.28h1.6v8.06h-1.6v-3.52h-4.08v3.52h-1.6Z"/>
          <path class="cls-2" d="m170.76,296.79v-8.06h1.6v2.82h2.29c1.06,0,1.85.22,2.38.66.53.44.8,1.08.8,1.93,0,.54-.12,1.02-.37,1.42-.25.4-.61.71-1.08.92-.47.21-1.05.32-1.74.32h-3.89Zm1.6-1.1h2.11c.61,0,1.07-.12,1.38-.38.32-.25.47-.64.47-1.16s-.16-.9-.47-1.14c-.31-.24-.78-.36-1.38-.36h-2.11v3.04Zm6.61,1.1v-8.06h1.6v8.06h-1.6Z"/>
          <path class="cls-2" d="m182.98,296.79v-8.06h1.34l2.91,5.15,2.91-5.15h1.34v8.06h-1.42v-6.26h.35l-2.8,4.96h-.77l-2.8-4.96h.35v6.26h-1.42Z"/>
          <path class="cls-2" d="m198.2,296.79v-8.06h7.23v8.06h-1.6v-6.8h-4.03v6.8h-1.6Z"/>
          <path class="cls-2" d="m211.38,296.93c-.8,0-1.49-.17-2.08-.5-.59-.34-1.04-.82-1.36-1.44s-.48-1.37-.48-2.23.16-1.61.48-2.23c.32-.62.77-1.1,1.36-1.44.59-.34,1.28-.5,2.08-.5s1.5.17,2.09.5,1.05.82,1.38,1.44c.33.62.49,1.37.49,2.23s-.16,1.61-.49,2.23c-.33.62-.78,1.1-1.38,1.44s-1.29.5-2.09.5Zm0-1.26c.7,0,1.26-.25,1.68-.74.42-.49.62-1.21.62-2.18s-.21-1.68-.62-2.17c-.42-.48-.98-.73-1.68-.73s-1.25.24-1.66.73c-.42.49-.62,1.21-.62,2.17s.21,1.69.62,2.18c.41.49.97.74,1.67.74Z"/>
          <path class="cls-2" d="m216.84,297l-.54-1.28c.36-.15.67-.34.92-.57.25-.23.45-.53.59-.89.14-.36.25-.81.31-1.34.06-.53.1-1.18.1-1.94v-2.26h6.08v8.06h-1.6v-6.8h-2.99v1.04c0,1.22-.1,2.22-.29,3.02-.19.8-.5,1.43-.92,1.9-.42.46-.97.81-1.66,1.05Z"/>
          <path class="cls-2" d="m230.52,296.93c-1.3,0-2.33-.37-3.07-1.1-.75-.74-1.12-1.75-1.12-3.06,0-.84.16-1.58.49-2.21s.78-1.12,1.36-1.46c.58-.35,1.26-.52,2.02-.52s1.39.16,1.9.48c.51.32.9.77,1.17,1.35.27.58.4,1.27.4,2.06v.51h-6.08v-.93h4.98l-.27.21c0-.8-.18-1.42-.54-1.86-.36-.44-.87-.66-1.54-.66-.75,0-1.32.26-1.73.78s-.61,1.23-.61,2.14v.16c0,.95.23,1.66.7,2.14.46.48,1.12.72,1.98.72.47,0,.91-.07,1.32-.2.41-.13.8-.36,1.18-.66l.53,1.1c-.37.33-.83.58-1.36.76s-1.1.26-1.7.26Z"/>
          <path class="cls-2" d="m235.65,296.79v-8.06h1.34l2.91,5.15,2.91-5.15h1.34v8.06h-1.42v-6.26h.35l-2.8,4.96h-.77l-2.8-4.96h.35v6.26h-1.42Z"/>
          <path class="cls-2" d="m247.14,298.76l-.7-.54c.31-.33.52-.63.63-.91.11-.28.17-.57.17-.87l.35.35h-1.26v-1.9h1.9v1.29c0,.48-.08.93-.24,1.34-.16.41-.44.82-.85,1.24Z"/>
          <path class="cls-2" d="m89.78,311.93c-.81,0-1.52-.17-2.12-.5s-1.07-.82-1.39-1.46c-.33-.63-.49-1.39-.49-2.26s.17-1.6.5-2.22.79-1.09,1.39-1.42c.6-.33,1.3-.49,2.11-.49.52,0,1.03.09,1.52.26s.9.42,1.22.74l-.53,1.14c-.3-.29-.63-.5-1.01-.65-.37-.14-.74-.22-1.09-.22-.77,0-1.37.25-1.81.74-.44.49-.66,1.2-.66,2.13s.22,1.66.66,2.16c.44.5,1.04.75,1.81.75.34,0,.7-.07,1.07-.2.37-.13.71-.35,1.02-.65l.53,1.14c-.33.32-.74.57-1.24.74s-.99.26-1.5.26Z"/>
          <path class="cls-2" d="m98.3,312l-.54-1.28c.36-.15.67-.34.92-.57.25-.23.45-.53.59-.89.14-.36.25-.81.31-1.34s.1-1.18.1-1.94v-2.26h6.08v8.06h-1.6v-6.8h-2.99v1.04c0,1.22-.1,2.22-.29,3.02-.19.8-.5,1.43-.92,1.9-.42.46-.97.81-1.66,1.05Z"/>
          <path class="cls-2" d="m111.34,311.93c-.71,0-1.34-.17-1.87-.5-.53-.33-.95-.81-1.24-1.44s-.44-1.38-.44-2.24.15-1.62.44-2.24c.29-.62.71-1.1,1.24-1.43.53-.34,1.16-.5,1.87-.5s1.32.18,1.84.53c.52.35.87.83,1.04,1.44h-.18l.16-1.82h1.57c-.03.33-.06.66-.09.98-.03.33-.04.64-.04.95v6.13h-1.62v-1.79h.18c-.17.6-.52,1.07-1.05,1.42-.53.35-1.13.52-1.82.52Zm.4-1.26c.69,0,1.25-.25,1.67-.74.42-.49.63-1.21.63-2.18s-.21-1.68-.63-2.17c-.42-.48-.98-.73-1.67-.73s-1.27.24-1.69.73c-.42.49-.63,1.21-.63,2.17s.21,1.69.62,2.18c.42.49.98.74,1.7.74Z"/>
          <path class="cls-2" d="m118.12,311.79v-8.06h1.34l2.91,5.15,2.91-5.15h1.34v8.06h-1.42v-6.26h.35l-2.8,4.96h-.77l-2.8-4.96h.35v6.26h-1.42Z"/>
          <path class="cls-2" d="m129.06,311.79v-8.06h1.47v6.51h-.45l4.86-6.51h1.34v8.06h-1.46v-6.53h.46l-4.9,6.53h-1.34Z"/>
          <path class="cls-2" d="m138.73,311.79v-8.06h1.6v3.28h4.08v-3.28h1.6v8.06h-1.6v-3.52h-4.08v3.52h-1.6Z"/>
          <path class="cls-2" d="m151.59,311.93c-.71,0-1.34-.17-1.87-.5-.53-.33-.95-.81-1.24-1.44s-.44-1.38-.44-2.24.15-1.62.44-2.24c.29-.62.71-1.1,1.24-1.43.53-.34,1.16-.5,1.87-.5s1.32.18,1.84.53c.52.35.87.83,1.04,1.44h-.18l.16-1.82h1.57c-.03.33-.06.66-.09.98s-.04.64-.04.95v6.13h-1.62v-1.79h.18c-.17.6-.52,1.07-1.05,1.42-.53.35-1.13.52-1.82.52Zm.4-1.26c.69,0,1.25-.25,1.67-.74.42-.49.63-1.21.63-2.18s-.21-1.68-.63-2.17c-.42-.48-.98-.73-1.67-.73s-1.27.24-1.69.73c-.42.49-.63,1.21-.63,2.17s.21,1.69.62,2.18c.42.49.98.74,1.7.74Z"/>
          <path class="cls-2" d="m165.35,313.87v-2.08h-6.98v-8.06h1.6v6.8h3.86v-6.8h1.58v6.8h1.3v3.34h-1.36Z"/>
          <path class="cls-2" d="m168.33,311.79v-8.06h1.47v6.51h-.45l4.86-6.51h1.34v8.06h-1.46v-6.53h.46l-4.9,6.53h-1.34Z"/>
          <path class="cls-2" d="m181.78,311.93c-1.3,0-2.33-.37-3.07-1.1-.75-.74-1.12-1.75-1.12-3.06,0-.84.16-1.58.49-2.21s.78-1.12,1.36-1.46c.58-.35,1.26-.52,2.02-.52s1.39.16,1.9.48c.51.32.9.77,1.17,1.35.27.58.4,1.27.4,2.06v.51h-6.08v-.93h4.98l-.27.21c0-.8-.18-1.42-.54-1.86-.36-.44-.87-.66-1.54-.66-.75,0-1.32.26-1.73.78s-.61,1.23-.61,2.14v.16c0,.95.23,1.66.7,2.14.46.48,1.12.72,1.98.72.47,0,.91-.07,1.32-.2.41-.13.8-.36,1.18-.66l.53,1.1c-.37.33-.83.58-1.36.76s-1.1.26-1.7.26Z"/>
          <path class="cls-2" d="m186.92,311.79v-8.06h1.47v6.51h-.45l4.86-6.51h1.34v8.06h-1.46v-6.53h.46l-4.9,6.53h-1.34Zm3.62-8.8c-.49,0-.93-.08-1.31-.24-.38-.16-.71-.4-.98-.71-.27-.31-.48-.7-.62-1.14l.9-.32c.18.5.44.87.77,1.11.33.24.75.36,1.25.36s.93-.11,1.26-.34.61-.6.84-1.12l.83.3c-.26.72-.64,1.26-1.14,1.59-.51.34-1.1.5-1.78.5Z"/>
        </g>
        <g>
          <path class="cls-2" d="m15.88,342.96v-11.28h1.65v4.93h2.11l-.4.26,3.49-5.18h1.84l-3.78,5.47-.61-.48c.69.09,1.28.32,1.76.71.48.38.9.92,1.25,1.62l1.98,3.97h-1.79l-1.58-3.28c-.3-.62-.65-1.06-1.04-1.31-.39-.26-.89-.38-1.49-.38h-1.74v4.98h-1.65Z"/>
          <path class="cls-2" d="m26.63,342.96v-11.28h1.65v4.93h2.11l-.4.26,3.49-5.18h1.84l-3.78,5.47-.61-.48c.69.09,1.28.32,1.76.71.48.38.9.92,1.25,1.62l1.98,3.97h-1.79l-1.58-3.28c-.3-.62-.65-1.06-1.04-1.31-.39-.26-.89-.38-1.49-.38h-1.74v4.98h-1.65Z"/>
          <path class="cls-2" d="m40.49,342.96l5.02-11.28h1.42l5.1,11.28h-1.71l-1.39-3.2.7.45h-6.83l.75-.45-1.39,3.2h-1.68Zm5.71-9.46l-2.43,5.74-.38-.37h5.68l-.32.37-2.48-5.74h-.06Z"/>
          <path class="cls-2" d="m56.89,343.11c-.77,0-1.5-.11-2.21-.34-.7-.23-1.29-.56-1.76-.98l.58-1.26c.52.41,1.06.71,1.6.9.54.19,1.13.29,1.74.29.79,0,1.39-.17,1.8-.5.41-.33.62-.81.62-1.42s-.21-1.07-.62-1.38-1.02-.47-1.82-.47h-1.74v-1.34h1.62c.68,0,1.23-.17,1.63-.52s.61-.82.61-1.42c0-.54-.19-.96-.56-1.26-.37-.29-.91-.44-1.6-.44-1.17,0-2.2.41-3.09,1.23l-.56-1.26c.44-.44.99-.78,1.66-1.02.67-.24,1.38-.36,2.11-.36,1.13,0,2.02.26,2.67.78.65.52.98,1.23.98,2.15,0,.69-.19,1.29-.58,1.78-.39.49-.92.82-1.59.98v-.18c.8.13,1.42.45,1.85.95.43.51.65,1.14.65,1.9,0,1-.35,1.79-1.06,2.36-.71.57-1.68.86-2.92.86Z"/>
          <path class="cls-2" d="m62.74,342.96v-1.9h1.9v1.9h-1.9Z"/>
          <path class="cls-2" d="m76.26,343.11c-1.15,0-2.13-.23-2.94-.7-.81-.47-1.43-1.14-1.86-2.01-.43-.87-.65-1.9-.65-3.08s.22-2.21.65-3.07c.43-.86,1.05-1.53,1.86-2,.81-.47,1.79-.7,2.94-.7.8,0,1.51.12,2.14.35s1.18.58,1.65,1.02l-.58,1.33c-.51-.44-1.01-.75-1.5-.94-.49-.19-1.05-.29-1.69-.29-1.22,0-2.14.37-2.78,1.12-.64.75-.96,1.81-.96,3.18s.32,2.44.96,3.19,1.57,1.13,2.78,1.13c.64,0,1.2-.1,1.69-.29.49-.19.98-.51,1.5-.96l.58,1.33c-.47.45-1.02.79-1.65,1.03s-1.34.36-2.14.36Z"/>
          <path class="cls-2" d="m89.78,343.11c-.77,0-1.5-.11-2.21-.34-.7-.23-1.29-.56-1.76-.98l.58-1.26c.52.41,1.06.71,1.6.9.54.19,1.13.29,1.74.29.79,0,1.39-.17,1.8-.5.41-.33.62-.81.62-1.42s-.21-1.07-.62-1.38-1.02-.47-1.82-.47h-1.74v-1.34h1.62c.68,0,1.23-.17,1.63-.52s.61-.82.61-1.42c0-.54-.19-.96-.56-1.26-.37-.29-.91-.44-1.6-.44-1.17,0-2.2.41-3.09,1.23l-.56-1.26c.44-.44.99-.78,1.66-1.02.67-.24,1.38-.36,2.11-.36,1.13,0,2.02.26,2.67.78.65.52.98,1.23.98,2.15,0,.69-.19,1.29-.58,1.78-.39.49-.92.82-1.59.98v-.18c.8.13,1.42.45,1.85.95.43.51.65,1.14.65,1.9,0,1-.35,1.79-1.06,2.36-.71.57-1.68.86-2.92.86Z"/>
          <path class="cls-2" d="m100.25,346.42v-9.58c0-.31-.01-.63-.04-.95-.03-.33-.06-.65-.09-.98h1.57l.16,1.82h-.18c.17-.61.51-1.09,1.03-1.44s1.13-.53,1.85-.53,1.34.17,1.87.5c.53.34.95.81,1.24,1.43s.44,1.37.44,2.24-.15,1.61-.44,2.24c-.29.63-.71,1.11-1.24,1.44-.53.33-1.16.5-1.87.5s-1.31-.17-1.83-.52c-.52-.35-.86-.82-1.03-1.42h.18v5.25h-1.62Zm3.9-4.58c.7,0,1.27-.24,1.69-.74s.63-1.22.63-2.18-.21-1.68-.63-2.17c-.42-.48-.98-.73-1.69-.73s-1.27.24-1.69.73c-.42.49-.63,1.21-.63,2.17s.21,1.69.63,2.18.98.74,1.69.74Z"/>
          <path class="cls-2" d="m113.91,343.11c-1.3,0-2.33-.37-3.07-1.1-.75-.74-1.12-1.75-1.12-3.06,0-.84.16-1.58.49-2.21.33-.63.78-1.12,1.36-1.46.58-.35,1.26-.52,2.02-.52s1.39.16,1.9.48c.51.32.9.77,1.17,1.35.27.58.4,1.27.4,2.06v.51h-6.08v-.93h4.98l-.27.21c0-.8-.18-1.42-.54-1.86-.36-.44-.87-.66-1.54-.66-.75,0-1.32.26-1.73.78-.41.52-.61,1.23-.61,2.14v.16c0,.95.23,1.66.7,2.14.46.48,1.12.72,1.98.72.47,0,.91-.07,1.32-.2s.8-.35,1.18-.66l.53,1.1c-.37.33-.83.58-1.36.76-.53.18-1.1.26-1.7.26Z"/>
          <path class="cls-2" d="m119.05,342.96v-8.06h1.6v3.3h1.39l2.51-3.3h1.76l-3.01,3.97-.4-.51c.31.03.58.11.8.23.22.12.44.3.66.54.21.23.43.54.66.93l1.68,2.91h-1.73l-1.44-2.46c-.16-.28-.31-.49-.46-.65s-.32-.26-.51-.32c-.19-.06-.43-.09-.7-.09h-1.2v3.52h-1.6Z"/>
          <path class="cls-2" d="m127.54,343.17l-.54-1.28c.36-.15.67-.34.92-.57.25-.23.45-.53.59-.89s.25-.81.31-1.34c.06-.53.1-1.18.1-1.94v-2.26h6.08v8.06h-1.6v-6.8h-2.99v1.04c0,1.21-.1,2.22-.29,3.02-.19.8-.5,1.43-.92,1.9-.42.46-.97.81-1.66,1.05Z"/>
          <path class="cls-2" d="m140.58,343.11c-.71,0-1.34-.17-1.87-.5-.53-.33-.95-.81-1.24-1.44-.29-.63-.44-1.38-.44-2.24s.15-1.62.44-2.24.71-1.1,1.24-1.43c.53-.34,1.16-.5,1.87-.5s1.32.18,1.84.53c.52.35.87.83,1.04,1.44h-.18l.16-1.82h1.57c-.03.33-.06.66-.09.98-.03.33-.04.64-.04.95v6.13h-1.62v-1.79h.18c-.17.6-.52,1.07-1.05,1.42-.53.35-1.13.52-1.82.52Zm.4-1.26c.69,0,1.25-.24,1.67-.74s.63-1.22.63-2.18-.21-1.68-.63-2.17c-.42-.48-.98-.73-1.67-.73s-1.27.24-1.69.73c-.42.49-.63,1.21-.63,2.17s.21,1.69.62,2.18.98.74,1.7.74Z"/>
          <path class="cls-2" d="m147.37,342.96v-8.06h1.34l2.91,5.15,2.91-5.15h1.34v8.06h-1.42v-6.26h.35l-2.8,4.96h-.77l-2.8-4.96h.35v6.26h-1.42Z"/>
          <path class="cls-2" d="m158.31,342.96v-8.06h1.6v3.28h4.08v-3.28h1.6v8.06h-1.6v-3.52h-4.08v3.52h-1.6Z"/>
          <path class="cls-2" d="m168.02,342.96v-8.06h1.6v2.82h2.29c1.06,0,1.85.22,2.38.66.53.44.8,1.08.8,1.93,0,.54-.12,1.02-.37,1.42s-.61.71-1.08.92-1.05.32-1.74.32h-3.89Zm1.6-1.1h2.11c.61,0,1.07-.13,1.38-.38.32-.25.47-.64.47-1.16s-.16-.9-.47-1.14c-.31-.24-.78-.36-1.38-.36h-2.11v3.04Zm6.61,1.1v-8.06h1.6v8.06h-1.6Z"/>
          <path class="cls-2" d="m180.25,342.96v-8.06h1.34l2.91,5.15,2.91-5.15h1.34v8.06h-1.42v-6.26h.35l-2.8,4.96h-.77l-2.8-4.96h.35v6.26h-1.42Z"/>
          <path class="cls-2" d="m191.19,342.96v-8.06h1.47v6.51h-.45l4.86-6.51h1.34v8.06h-1.46v-6.53h.46l-4.9,6.53h-1.34Z"/>
          <path class="cls-2" d="m205.13,342.96v-8.06h7.23v8.06h-1.6v-6.8h-4.03v6.8h-1.6Z"/>
          <path class="cls-2" d="m218.31,343.11c-.8,0-1.49-.17-2.08-.5-.59-.34-1.04-.82-1.36-1.44-.32-.62-.48-1.37-.48-2.23s.16-1.61.48-2.23.77-1.1,1.36-1.44c.59-.34,1.28-.5,2.08-.5s1.5.17,2.09.5,1.05.82,1.38,1.44c.33.62.49,1.37.49,2.23s-.16,1.61-.49,2.23c-.33.62-.78,1.1-1.38,1.44s-1.29.5-2.09.5Zm0-1.26c.7,0,1.26-.24,1.68-.74s.62-1.22.62-2.18-.21-1.68-.62-2.17c-.42-.48-.98-.73-1.68-.73s-1.25.24-1.66.73c-.42.49-.62,1.21-.62,2.17s.21,1.69.62,2.18c.41.49.97.74,1.67.74Z"/>
          <path class="cls-2" d="m223.77,343.17l-.54-1.28c.36-.15.67-.34.92-.57.25-.23.45-.53.59-.89.14-.36.25-.81.31-1.34.06-.53.1-1.18.1-1.94v-2.26h6.08v8.06h-1.6v-6.8h-2.99v1.04c0,1.21-.1,2.22-.29,3.02-.19.8-.5,1.43-.92,1.9-.42.46-.97.81-1.66,1.05Z"/>
          <path class="cls-2" d="m233,342.96l1.26-2.18c.2-.35.46-.64.78-.86.31-.22.64-.33.97-.33h.29l-.02.16c-.92,0-1.63-.21-2.14-.62-.51-.42-.77-1.01-.77-1.79s.26-1.38.77-1.81c.51-.43,1.26-.64,2.26-.64h3.78v8.06h-1.49v-2.99h-1.07c-.41,0-.75.1-1.03.3-.28.2-.51.47-.7.8l-1.09,1.89h-1.79Zm3.68-4.08h2v-2.9h-2c-.6,0-1.04.13-1.34.38-.29.26-.44.61-.44,1.05,0,.47.15.83.44,1.08.29.25.74.38,1.34.38Z"/>
          <path class="cls-2" d="m242.6,342.96v-8.06h1.34l2.91,5.15,2.91-5.15h1.34v8.06h-1.42v-6.26h.35l-2.8,4.96h-.77l-2.8-4.96h.35v6.26h-1.42Z"/>
          <path class="cls-2" d="m253.54,342.96v-8.06h1.47v6.51h-.45l4.86-6.51h1.34v8.06h-1.46v-6.53h.46l-4.9,6.53h-1.34Z"/>
          <path class="cls-2" d="m263.75,344.93l-.7-.54c.31-.33.52-.63.63-.91.11-.28.17-.57.17-.86l.35.35h-1.26v-1.9h1.9v1.3c0,.48-.08.92-.24,1.34-.16.41-.44.82-.85,1.24Z"/>
          <path class="cls-2" d="m84.97,358.11c-1.22,0-2.18-.38-2.9-1.14s-1.08-1.87-1.08-3.34v-1.39c0-1.5.32-2.71.97-3.63.65-.92,1.65-1.54,3-1.86l2.94-.7.46,1.29-3.3.77c-.58.13-1.05.37-1.42.72-.37.35-.65.77-.84,1.25s-.28.99-.28,1.54v.74h-.24c.13-.49.33-.91.62-1.26.28-.35.63-.62,1.06-.82.42-.2.89-.3,1.42-.3.69,0,1.3.16,1.82.48.52.32.93.78,1.22,1.38.29.6.44,1.32.44,2.14s-.16,1.59-.48,2.21-.77,1.09-1.35,1.42c-.58.33-1.27.5-2.06.5Zm-.05-1.25c.73,0,1.29-.24,1.7-.71s.62-1.18.62-2.1-.21-1.62-.62-2.1c-.42-.48-.98-.72-1.7-.72s-1.28.24-1.7.71-.62,1.15-.62,2.02c0,.96.21,1.68.62,2.17.41.48.98.73,1.7.73Z"/>
          <path class="cls-2" d="m94.66,358.11c-1.3,0-2.33-.37-3.07-1.1-.75-.74-1.12-1.75-1.12-3.06,0-.84.16-1.58.49-2.21.33-.63.78-1.12,1.36-1.46.58-.35,1.26-.52,2.02-.52s1.39.16,1.9.48c.51.32.9.77,1.17,1.35.27.58.4,1.27.4,2.06v.51h-6.08v-.93h4.98l-.27.21c0-.8-.18-1.42-.54-1.86-.36-.44-.87-.66-1.54-.66-.75,0-1.32.26-1.73.78-.41.52-.61,1.23-.61,2.14v.16c0,.95.23,1.66.7,2.14.46.48,1.12.72,1.98.72.47,0,.91-.07,1.32-.2s.8-.35,1.18-.66l.53,1.1c-.37.33-.83.58-1.36.76-.53.18-1.1.26-1.7.26Z"/>
          <path class="cls-2" d="m102.6,358.11c-.7,0-1.37-.09-1.98-.26-.62-.18-1.13-.43-1.52-.76l.5-1.09c.39.31.85.54,1.36.7.51.16,1.06.23,1.65.23.74,0,1.27-.11,1.61-.33.34-.22.5-.53.5-.94s-.14-.69-.42-.9c-.28-.2-.68-.3-1.22-.3h-1.98v-1.15h1.82c.48,0,.85-.1,1.12-.3.27-.2.4-.48.4-.85,0-.38-.15-.68-.46-.9-.31-.21-.79-.32-1.44-.32-.55,0-1.06.07-1.52.21-.46.14-.9.35-1.31.62l-.48-1.04c.44-.33.95-.58,1.55-.74s1.24-.24,1.94-.24c1.05,0,1.84.2,2.38.58.54.39.82.95.82,1.67,0,.5-.17.93-.5,1.28-.34.35-.79.56-1.35.64v-.21c.65.03,1.17.23,1.56.58.39.36.58.83.58,1.42,0,.72-.31,1.3-.92,1.74-.61.43-1.51.65-2.68.65Z"/>
          <path class="cls-2" d="m112.02,358.17l-.54-1.28c.36-.15.67-.34.92-.57.25-.23.45-.53.59-.89s.25-.81.31-1.34c.06-.53.1-1.18.1-1.94v-2.26h6.08v8.06h-1.6v-6.8h-2.99v1.04c0,1.21-.1,2.22-.29,3.02-.19.8-.5,1.43-.92,1.9-.42.46-.97.81-1.66,1.05Z"/>
          <path class="cls-2" d="m125.06,358.11c-.71,0-1.34-.17-1.87-.5-.53-.33-.95-.81-1.24-1.44-.29-.63-.44-1.38-.44-2.24s.15-1.62.44-2.24.71-1.1,1.24-1.43c.53-.34,1.16-.5,1.87-.5s1.32.18,1.84.53c.52.35.87.83,1.04,1.44h-.18l.16-1.82h1.57c-.03.33-.06.66-.09.98-.03.33-.04.64-.04.95v6.13h-1.62v-1.79h.18c-.17.6-.52,1.07-1.05,1.42-.53.35-1.13.52-1.82.52Zm.4-1.26c.69,0,1.25-.24,1.67-.74s.63-1.22.63-2.18-.21-1.68-.63-2.17c-.42-.48-.98-.73-1.67-.73s-1.27.24-1.69.73c-.42.49-.63,1.21-.63,2.17s.21,1.69.62,2.18.98.74,1.7.74Z"/>
          <path class="cls-2" d="m131.85,357.96v-8.06h1.34l2.91,5.15,2.91-5.15h1.34v8.06h-1.42v-6.26h.35l-2.8,4.96h-.77l-2.8-4.96h.35v6.26h-1.42Z"/>
          <path class="cls-2" d="m142.79,357.96v-8.06h1.47v6.51h-.45l4.86-6.51h1.34v8.06h-1.46v-6.53h.46l-4.9,6.53h-1.34Z"/>
          <path class="cls-2" d="m152.45,357.96v-8.06h1.6v3.28h4.08v-3.28h1.6v8.06h-1.6v-3.52h-4.08v3.52h-1.6Z"/>
          <path class="cls-2" d="m165.32,358.11c-.71,0-1.34-.17-1.87-.5s-.95-.81-1.24-1.44c-.29-.63-.44-1.38-.44-2.24s.15-1.62.44-2.24.71-1.1,1.24-1.43,1.16-.5,1.87-.5,1.32.18,1.84.53.87.83,1.04,1.44h-.18l.16-1.82h1.57c-.03.33-.06.66-.09.98-.03.33-.04.64-.04.95v6.13h-1.62v-1.79h.18c-.17.6-.52,1.07-1.05,1.42-.53.35-1.13.52-1.82.52Zm.4-1.26c.69,0,1.25-.24,1.67-.74.42-.49.63-1.22.63-2.18s-.21-1.68-.63-2.17c-.42-.48-.98-.73-1.67-.73s-1.27.24-1.69.73c-.42.49-.63,1.21-.63,2.17s.21,1.69.62,2.18.98.74,1.7.74Z"/>
          <path class="cls-2" d="m179.08,360.04v-2.08h-6.98v-8.06h1.6v6.8h3.86v-6.8h1.58v6.8h1.3v3.34h-1.36Z"/>
          <path class="cls-2" d="m182.05,357.96v-8.06h1.47v6.51h-.45l4.86-6.51h1.34v8.06h-1.46v-6.53h.46l-4.9,6.53h-1.34Z"/>
          <path class="cls-2" d="m191.72,357.96v-8.06h1.47v6.51h-.45l4.86-6.51h1.34v8.06h-1.46v-6.53h.46l-4.9,6.53h-1.34Z"/>
        </g>
        <g>
          <path class="cls-2" d="m15.88,389.14v-11.28h1.65v4.93h2.11l-.4.26,3.49-5.18h1.84l-3.78,5.47-.61-.48c.69.09,1.28.32,1.76.71.48.38.9.92,1.25,1.62l1.98,3.97h-1.79l-1.58-3.28c-.3-.62-.65-1.06-1.04-1.31-.39-.26-.89-.38-1.49-.38h-1.74v4.98h-1.65Z"/>
          <path class="cls-2" d="m26.63,389.14v-11.28h1.65v4.93h2.11l-.4.26,3.49-5.18h1.84l-3.78,5.47-.61-.48c.69.09,1.28.32,1.76.71.48.38.9.92,1.25,1.62l1.98,3.97h-1.79l-1.58-3.28c-.3-.62-.65-1.06-1.04-1.31-.39-.26-.89-.38-1.49-.38h-1.74v4.98h-1.65Z"/>
          <path class="cls-2" d="m40.49,389.14l5.02-11.28h1.42l5.1,11.28h-1.71l-1.39-3.2.7.45h-6.83l.75-.45-1.39,3.2h-1.68Zm5.71-9.46l-2.43,5.74-.38-.37h5.68l-.32.37-2.48-5.74h-.06Z"/>
          <path class="cls-2" d="m56.89,389.28c-.77,0-1.5-.11-2.21-.34-.7-.23-1.29-.56-1.76-.98l.58-1.26c.52.41,1.06.71,1.6.9.54.19,1.13.29,1.74.29.79,0,1.39-.17,1.8-.5.41-.33.62-.81.62-1.42s-.21-1.07-.62-1.38-1.02-.47-1.82-.47h-1.74v-1.34h1.62c.68,0,1.23-.17,1.63-.52s.61-.82.61-1.42c0-.54-.19-.96-.56-1.26-.37-.29-.91-.44-1.6-.44-1.17,0-2.2.41-3.09,1.23l-.56-1.26c.44-.44.99-.78,1.66-1.02.67-.24,1.38-.36,2.11-.36,1.13,0,2.02.26,2.67.78.65.52.98,1.23.98,2.15,0,.69-.19,1.29-.58,1.78-.39.49-.92.82-1.59.98v-.18c.8.13,1.42.45,1.85.95.43.51.65,1.14.65,1.9,0,1-.35,1.79-1.06,2.36-.71.57-1.68.86-2.92.86Z"/>
          <path class="cls-2" d="m62.74,389.14v-1.9h1.9v1.9h-1.9Z"/>
          <path class="cls-2" d="m76.26,389.28c-1.15,0-2.13-.23-2.94-.7-.81-.47-1.43-1.14-1.86-2.01-.43-.87-.65-1.9-.65-3.08s.22-2.21.65-3.07c.43-.86,1.05-1.53,1.86-2,.81-.47,1.79-.7,2.94-.7.8,0,1.51.12,2.14.35s1.18.58,1.65,1.02l-.58,1.33c-.51-.44-1.01-.75-1.5-.94-.49-.19-1.05-.29-1.69-.29-1.22,0-2.14.37-2.78,1.12-.64.75-.96,1.81-.96,3.18s.32,2.44.96,3.19,1.57,1.13,2.78,1.13c.64,0,1.2-.1,1.69-.29.49-.19.98-.51,1.5-.96l.58,1.33c-.47.45-1.02.79-1.65,1.03s-1.34.36-2.14.36Z"/>
          <path class="cls-2" d="m89.78,389.28c-.77,0-1.5-.11-2.21-.34-.7-.23-1.29-.56-1.76-.98l.58-1.26c.52.41,1.06.71,1.6.9.54.19,1.13.29,1.74.29.79,0,1.39-.17,1.8-.5.41-.33.62-.81.62-1.42s-.21-1.07-.62-1.38-1.02-.47-1.82-.47h-1.74v-1.34h1.62c.68,0,1.23-.17,1.63-.52s.61-.82.61-1.42c0-.54-.19-.96-.56-1.26-.37-.29-.91-.44-1.6-.44-1.17,0-2.2.41-3.09,1.23l-.56-1.26c.44-.44.99-.78,1.66-1.02.67-.24,1.38-.36,2.11-.36,1.13,0,2.02.26,2.67.78.65.52.98,1.23.98,2.15,0,.69-.19,1.29-.58,1.78-.39.49-.92.82-1.59.98v-.18c.8.13,1.42.45,1.85.95.43.51.65,1.14.65,1.9,0,1-.35,1.79-1.06,2.36-.71.57-1.68.86-2.92.86Z"/>
          <path class="cls-2" d="m100.25,392.59v-9.58c0-.31-.01-.63-.04-.95-.03-.33-.06-.65-.09-.98h1.57l.16,1.82h-.18c.17-.61.51-1.09,1.03-1.44s1.13-.53,1.85-.53,1.34.17,1.87.5c.53.34.95.81,1.24,1.43s.44,1.37.44,2.24-.15,1.61-.44,2.24c-.29.63-.71,1.11-1.24,1.44-.53.33-1.16.5-1.87.5s-1.31-.17-1.83-.52c-.52-.35-.86-.82-1.03-1.42h.18v5.25h-1.62Zm3.9-4.58c.7,0,1.27-.24,1.69-.74s.63-1.22.63-2.18-.21-1.68-.63-2.17c-.42-.48-.98-.73-1.69-.73s-1.27.24-1.69.73c-.42.49-.63,1.21-.63,2.17s.21,1.69.63,2.18.98.74,1.69.74Z"/>
          <path class="cls-2" d="m113.91,389.28c-1.3,0-2.33-.37-3.07-1.1-.75-.74-1.12-1.75-1.12-3.06,0-.84.16-1.58.49-2.21.33-.63.78-1.12,1.36-1.46.58-.35,1.26-.52,2.02-.52s1.39.16,1.9.48c.51.32.9.77,1.17,1.35.27.58.4,1.27.4,2.06v.51h-6.08v-.93h4.98l-.27.21c0-.8-.18-1.42-.54-1.86-.36-.44-.87-.66-1.54-.66-.75,0-1.32.26-1.73.78-.41.52-.61,1.23-.61,2.14v.16c0,.95.23,1.66.7,2.14.46.48,1.12.72,1.98.72.47,0,.91-.07,1.32-.2s.8-.35,1.18-.66l.53,1.1c-.37.33-.83.58-1.36.76-.53.18-1.1.26-1.7.26Z"/>
          <path class="cls-2" d="m119.05,389.14v-8.06h1.6v3.3h1.39l2.51-3.3h1.76l-3.01,3.97-.4-.51c.31.03.58.11.8.23.22.12.44.3.66.54.21.23.43.54.66.93l1.68,2.91h-1.73l-1.44-2.46c-.16-.28-.31-.49-.46-.65s-.32-.26-.51-.32c-.19-.06-.43-.09-.7-.09h-1.2v3.52h-1.6Z"/>
          <path class="cls-2" d="m127.54,389.34l-.54-1.28c.36-.15.67-.34.92-.57.25-.23.45-.53.59-.89s.25-.81.31-1.34c.06-.53.1-1.18.1-1.94v-2.26h6.08v8.06h-1.6v-6.8h-2.99v1.04c0,1.21-.1,2.22-.29,3.02-.19.8-.5,1.43-.92,1.9-.42.46-.97.81-1.66,1.05Z"/>
          <path class="cls-2" d="m140.58,389.28c-.71,0-1.34-.17-1.87-.5-.53-.33-.95-.81-1.24-1.44-.29-.63-.44-1.38-.44-2.24s.15-1.62.44-2.24.71-1.1,1.24-1.43c.53-.34,1.16-.5,1.87-.5s1.32.18,1.84.53c.52.35.87.83,1.04,1.44h-.18l.16-1.82h1.57c-.03.33-.06.66-.09.98-.03.33-.04.64-.04.95v6.13h-1.62v-1.79h.18c-.17.6-.52,1.07-1.05,1.42-.53.35-1.13.52-1.82.52Zm.4-1.26c.69,0,1.25-.24,1.67-.74s.63-1.22.63-2.18-.21-1.68-.63-2.17c-.42-.48-.98-.73-1.67-.73s-1.27.24-1.69.73c-.42.49-.63,1.21-.63,2.17s.21,1.69.62,2.18.98.74,1.7.74Z"/>
          <path class="cls-2" d="m147.37,389.14v-8.06h1.34l2.91,5.15,2.91-5.15h1.34v8.06h-1.42v-6.26h.35l-2.8,4.96h-.77l-2.8-4.96h.35v6.26h-1.42Z"/>
          <path class="cls-2" d="m158.31,389.14v-8.06h1.6v3.28h4.08v-3.28h1.6v8.06h-1.6v-3.52h-4.08v3.52h-1.6Z"/>
          <path class="cls-2" d="m168.02,389.14v-8.06h1.6v2.82h2.29c1.06,0,1.85.22,2.38.66.53.44.8,1.08.8,1.93,0,.54-.12,1.02-.37,1.42s-.61.71-1.08.92-1.05.32-1.74.32h-3.89Zm1.6-1.1h2.11c.61,0,1.07-.13,1.38-.38.32-.25.47-.64.47-1.16s-.16-.9-.47-1.14c-.31-.24-.78-.36-1.38-.36h-2.11v3.04Zm6.61,1.1v-8.06h1.6v8.06h-1.6Z"/>
          <path class="cls-2" d="m180.25,389.14v-8.06h1.34l2.91,5.15,2.91-5.15h1.34v8.06h-1.42v-6.26h.35l-2.8,4.96h-.77l-2.8-4.96h.35v6.26h-1.42Z"/>
          <path class="cls-2" d="m191.19,389.14v-8.06h1.47v6.51h-.45l4.86-6.51h1.34v8.06h-1.46v-6.53h.46l-4.9,6.53h-1.34Z"/>
          <path class="cls-2" d="m205.13,389.14v-8.06h7.23v8.06h-1.6v-6.8h-4.03v6.8h-1.6Z"/>
          <path class="cls-2" d="m218.31,389.28c-.8,0-1.49-.17-2.08-.5-.59-.34-1.04-.82-1.36-1.44-.32-.62-.48-1.37-.48-2.23s.16-1.61.48-2.23.77-1.1,1.36-1.44c.59-.34,1.28-.5,2.08-.5s1.5.17,2.09.5,1.05.82,1.38,1.44c.33.62.49,1.37.49,2.23s-.16,1.61-.49,2.23c-.33.62-.78,1.1-1.38,1.44s-1.29.5-2.09.5Zm0-1.26c.7,0,1.26-.24,1.68-.74s.62-1.22.62-2.18-.21-1.68-.62-2.17c-.42-.48-.98-.73-1.68-.73s-1.25.24-1.66.73c-.42.49-.62,1.21-.62,2.17s.21,1.69.62,2.18c.41.49.97.74,1.67.74Z"/>
          <path class="cls-2" d="m223.77,389.34l-.54-1.28c.36-.15.67-.34.92-.57.25-.23.45-.53.59-.89.14-.36.25-.81.31-1.34.06-.53.1-1.18.1-1.94v-2.26h6.08v8.06h-1.6v-6.8h-2.99v1.04c0,1.21-.1,2.22-.29,3.02-.19.8-.5,1.43-.92,1.9-.42.46-.97.81-1.66,1.05Z"/>
          <path class="cls-2" d="m233,389.14l1.26-2.18c.2-.35.46-.64.78-.86.31-.22.64-.33.97-.33h.29l-.02.16c-.92,0-1.63-.21-2.14-.62-.51-.42-.77-1.01-.77-1.79s.26-1.38.77-1.81c.51-.43,1.26-.64,2.26-.64h3.78v8.06h-1.49v-2.99h-1.07c-.41,0-.75.1-1.03.3-.28.2-.51.47-.7.8l-1.09,1.89h-1.79Zm3.68-4.08h2v-2.9h-2c-.6,0-1.04.13-1.34.38-.29.26-.44.61-.44,1.05,0,.47.15.83.44,1.08.29.25.74.38,1.34.38Z"/>
          <path class="cls-2" d="m242.6,389.14v-8.06h1.34l2.91,5.15,2.91-5.15h1.34v8.06h-1.42v-6.26h.35l-2.8,4.96h-.77l-2.8-4.96h.35v6.26h-1.42Z"/>
          <path class="cls-2" d="m253.54,389.14v-8.06h1.47v6.51h-.45l4.86-6.51h1.34v8.06h-1.46v-6.53h.46l-4.9,6.53h-1.34Z"/>
          <path class="cls-2" d="m263.75,391.1l-.7-.54c.31-.33.52-.63.63-.91.11-.28.17-.57.17-.86l.35.35h-1.26v-1.9h1.9v1.3c0,.48-.08.92-.24,1.34-.16.41-.44.82-.85,1.24Z"/>
          <path class="cls-2" d="m89.78,404.28c-.81,0-1.52-.17-2.12-.5s-1.07-.82-1.39-1.46c-.33-.63-.49-1.39-.49-2.26s.17-1.61.5-2.22c.33-.62.79-1.09,1.39-1.42.6-.33,1.3-.49,2.11-.49.52,0,1.03.09,1.52.26.49.18.9.42,1.22.74l-.53,1.14c-.3-.29-.63-.5-1.01-.65-.37-.14-.74-.22-1.09-.22-.77,0-1.37.25-1.81.74-.44.49-.66,1.2-.66,2.13s.22,1.66.66,2.16c.44.5,1.04.75,1.81.75.34,0,.7-.07,1.07-.2.37-.13.71-.35,1.02-.65l.53,1.14c-.33.32-.74.57-1.24.74-.5.18-.99.26-1.5.26Z"/>
          <path class="cls-2" d="m98.3,404.34l-.54-1.28c.36-.15.67-.34.92-.57.25-.23.45-.53.59-.89s.25-.81.31-1.34c.06-.53.1-1.18.1-1.94v-2.26h6.08v8.06h-1.6v-6.8h-2.99v1.04c0,1.21-.1,2.22-.29,3.02-.19.8-.5,1.43-.92,1.9-.42.46-.97.81-1.66,1.05Z"/>
          <path class="cls-2" d="m111.34,404.28c-.71,0-1.34-.17-1.87-.5-.53-.33-.95-.81-1.24-1.44-.29-.63-.44-1.38-.44-2.24s.15-1.62.44-2.24.71-1.1,1.24-1.43c.53-.34,1.16-.5,1.87-.5s1.32.18,1.84.53c.52.35.87.83,1.04,1.44h-.18l.16-1.82h1.57c-.03.33-.06.66-.09.98-.03.33-.04.64-.04.95v6.13h-1.62v-1.79h.18c-.17.6-.52,1.07-1.05,1.42-.53.35-1.13.52-1.82.52Zm.4-1.26c.69,0,1.25-.24,1.67-.74s.63-1.22.63-2.18-.21-1.68-.63-2.17c-.42-.48-.98-.73-1.67-.73s-1.27.24-1.69.73c-.42.49-.63,1.21-.63,2.17s.21,1.69.62,2.18.98.74,1.7.74Z"/>
          <path class="cls-2" d="m118.12,404.14v-8.06h1.34l2.91,5.15,2.91-5.15h1.34v8.06h-1.42v-6.26h.35l-2.8,4.96h-.77l-2.8-4.96h.35v6.26h-1.42Z"/>
          <path class="cls-2" d="m129.06,404.14v-8.06h1.47v6.51h-.45l4.86-6.51h1.34v8.06h-1.46v-6.53h.46l-4.9,6.53h-1.34Z"/>
          <path class="cls-2" d="m138.73,404.14v-8.06h1.6v3.28h4.08v-3.28h1.6v8.06h-1.6v-3.52h-4.08v3.52h-1.6Z"/>
          <path class="cls-2" d="m151.59,404.28c-.71,0-1.34-.17-1.87-.5-.53-.33-.95-.81-1.24-1.44-.29-.63-.44-1.38-.44-2.24s.15-1.62.44-2.24.71-1.1,1.24-1.43c.53-.34,1.16-.5,1.87-.5s1.32.18,1.84.53c.52.35.87.83,1.04,1.44h-.18l.16-1.82h1.57c-.03.33-.06.66-.09.98-.03.33-.04.64-.04.95v6.13h-1.62v-1.79h.18c-.17.6-.52,1.07-1.05,1.42-.53.35-1.13.52-1.82.52Zm.4-1.26c.69,0,1.25-.24,1.67-.74.42-.49.63-1.22.63-2.18s-.21-1.68-.63-2.17c-.42-.48-.98-.73-1.67-.73s-1.27.24-1.69.73c-.42.49-.63,1.21-.63,2.17s.21,1.69.62,2.18.98.74,1.7.74Z"/>
          <path class="cls-2" d="m165.35,406.22v-2.08h-6.98v-8.06h1.6v6.8h3.86v-6.8h1.58v6.8h1.3v3.34h-1.36Z"/>
          <path class="cls-2" d="m168.33,404.14v-8.06h1.47v6.51h-.45l4.86-6.51h1.34v8.06h-1.46v-6.53h.46l-4.9,6.53h-1.34Z"/>
          <path class="cls-2" d="m181.78,404.28c-1.3,0-2.33-.37-3.07-1.1-.75-.74-1.12-1.75-1.12-3.06,0-.84.16-1.58.49-2.21s.78-1.12,1.36-1.46c.58-.35,1.26-.52,2.02-.52s1.39.16,1.9.48.9.77,1.17,1.35c.27.58.4,1.27.4,2.06v.51h-6.08v-.93h4.98l-.27.21c0-.8-.18-1.42-.54-1.86-.36-.44-.87-.66-1.54-.66-.75,0-1.32.26-1.73.78-.41.52-.61,1.23-.61,2.14v.16c0,.95.23,1.66.7,2.14.46.48,1.12.72,1.98.72.47,0,.91-.07,1.32-.2.41-.13.8-.35,1.18-.66l.53,1.1c-.37.33-.83.58-1.36.76-.53.18-1.1.26-1.7.26Z"/>
          <path class="cls-2" d="m186.92,404.14v-8.06h1.47v6.51h-.45l4.86-6.51h1.34v8.06h-1.46v-6.53h.46l-4.9,6.53h-1.34Zm3.62-8.8c-.49,0-.93-.08-1.31-.24-.38-.16-.71-.4-.98-.71-.27-.31-.48-.7-.62-1.14l.9-.32c.18.5.44.87.77,1.11.33.24.75.36,1.25.36s.93-.11,1.26-.34c.33-.22.61-.6.84-1.12l.83.3c-.26.73-.64,1.26-1.14,1.59-.51.34-1.1.5-1.78.5Z"/>
        </g>
        <text class="cls-3" transform="translate(12.62 442.96)"><tspan x="0" y="0">КК А3. </tspan><tspan class="cls-9" x="55.31" y="0">С</tspan><tspan class="cls-10" x="66.11" y="0">етка А4, без ламинации</tspan></text>
        <text class="cls-3" transform="translate(17.42 487.75)"><tspan x="0" y="0">КК А3. </tspan><tspan class="cls-9" x="55.31" y="0">С</tspan><tspan class="cls-10" x="66.11" y="0">етка А4, с ламинацией</tspan></text>
        <text class="cls-1" transform="translate(586.5 72.66)"><tspan class="cls-12" x="0" y="0">Т</tspan><tspan x="8.66" y="0">ираж</tspan></text>
        <text class="cls-1" transform="translate(325.59 120.01)"><tspan x="0" y="0">1-10 ш</tspan><tspan class="cls-16" x="53.76" y="0">т</tspan><tspan x="60.38" y="0">. </tspan><tspan class="cls-6" x="68.73" y="0">/</tspan><tspan class="cls-15" x="72.83" y="0">р</tspan><tspan class="cls-13" x="82.73" y="0">.</tspan></text>
        <text class="cls-3" transform="translate(345.67 166.79)"><tspan x="0" y="0">247 </tspan><tspan class="cls-14" x="33.07" y="0">р</tspan><tspan class="cls-11" x="42.75" y="0">.</tspan></text>
        <text class="cls-3" transform="translate(345.67 212.92)"><tspan x="0" y="0">276 </tspan><tspan class="cls-14" x="33.07" y="0">р</tspan><tspan class="cls-11" x="42.75" y="0">.</tspan></text>
        <text class="cls-3" transform="translate(345.67 258.14)"><tspan x="0" y="0">286 </tspan><tspan class="cls-14" x="33.07" y="0">р</tspan><tspan class="cls-11" x="42.75" y="0">.</tspan></text>
        <text class="cls-3" transform="translate(345.67 303.79)"><tspan x="0" y="0">342 </tspan><tspan class="cls-14" x="33.07" y="0">р</tspan><tspan class="cls-11" x="42.75" y="0">.</tspan></text>
        <text class="cls-3" transform="translate(345.67 350.05)"><tspan x="0" y="0">364 </tspan><tspan class="cls-14" x="33.07" y="0">р</tspan><tspan class="cls-11" x="42.75" y="0">.</tspan></text>
        <text class="cls-3" transform="translate(345.67 396.09)"><tspan x="0" y="0">476 </tspan><tspan class="cls-14" x="33.07" y="0">р</tspan><tspan class="cls-11" x="42.75" y="0">.</tspan></text>
        <text class="cls-3" transform="translate(345.67 440.96)"><tspan x="0" y="0">614 </tspan><tspan class="cls-14" x="33.07" y="0">р</tspan><tspan class="cls-11" x="42.75" y="0">.</tspan></text>
        <text class="cls-3" transform="translate(345.67 487.75)"><tspan x="0" y="0">800 </tspan><tspan class="cls-14" x="33.07" y="0">р</tspan><tspan class="cls-11" x="42.75" y="0">.</tspan></text>
        <text class="cls-1" transform="translate(481.44 120.01)"><tspan x="0" y="0">11-50 ш</tspan><tspan class="cls-8" x="63.36" y="0">т</tspan><tspan x="69.98" y="0">. </tspan><tspan class="cls-6" x="78.33" y="0">/</tspan><tspan class="cls-7" x="82.43" y="0">р</tspan><tspan x="92.33" y="0">.</tspan></text>
        <text class="cls-3" transform="translate(506.32 166.79)"><tspan x="0" y="0">241 </tspan><tspan class="cls-14" x="33.07" y="0">р</tspan><tspan class="cls-11" x="42.75" y="0">.</tspan></text>
        <text class="cls-3" transform="translate(506.32 212.92)"><tspan x="0" y="0">268 </tspan><tspan class="cls-14" x="33.07" y="0">р</tspan><tspan class="cls-11" x="42.75" y="0">.</tspan></text>
        <text class="cls-3" transform="translate(506.32 258.14)"><tspan x="0" y="0">271 </tspan><tspan class="cls-14" x="33.07" y="0">р</tspan><tspan class="cls-11" x="42.75" y="0">.</tspan></text>
        <text class="cls-3" transform="translate(506.32 303.79)"><tspan x="0" y="0">327 </tspan><tspan class="cls-14" x="33.07" y="0">р</tspan><tspan class="cls-11" x="42.75" y="0">.</tspan></text>
        <text class="cls-3" transform="translate(506.32 350.05)"><tspan x="0" y="0">336 </tspan><tspan class="cls-14" x="33.07" y="0">р</tspan><tspan class="cls-11" x="42.75" y="0">.</tspan></text>
        <text class="cls-3" transform="translate(506.32 396.09)"><tspan x="0" y="0">448 </tspan><tspan class="cls-14" x="33.07" y="0">р</tspan><tspan class="cls-11" x="42.75" y="0">.</tspan></text>
        <text class="cls-3" transform="translate(506.32 440.96)"><tspan x="0" y="0">555 </tspan><tspan class="cls-14" x="33.07" y="0">р</tspan><tspan class="cls-11" x="42.75" y="0">.</tspan></text>
        <text class="cls-3" transform="translate(506.32 487.75)"><tspan x="0" y="0">741 </tspan><tspan class="cls-14" x="33.07" y="0">р</tspan><tspan class="cls-11" x="42.75" y="0">.</tspan></text>
        <text class="cls-1" transform="translate(640.99 120.01)"><tspan x="0" y="0">51-100 ш</tspan><tspan class="cls-8" x="72.96" y="0">т</tspan><tspan x="79.58" y="0">. </tspan><tspan class="cls-6" x="87.93" y="0">/</tspan><tspan class="cls-15" x="92.03" y="0">р</tspan><tspan class="cls-13" x="101.93" y="0">.</tspan></text>
        <text class="cls-3" transform="translate(670.67 166.79)"><tspan x="0" y="0">237 </tspan><tspan class="cls-14" x="33.07" y="0">р</tspan><tspan class="cls-11" x="42.75" y="0">.</tspan></text>
        <text class="cls-3" transform="translate(670.67 212.92)"><tspan x="0" y="0">264 </tspan><tspan class="cls-14" x="33.07" y="0">р</tspan><tspan class="cls-11" x="42.75" y="0">.</tspan></text>
        <text class="cls-3" transform="translate(670.67 258.14)"><tspan x="0" y="0">264 </tspan><tspan class="cls-14" x="33.07" y="0">р</tspan><tspan class="cls-11" x="42.75" y="0">.</tspan></text>
        <text class="cls-3" transform="translate(670.67 303.79)"><tspan x="0" y="0">320 </tspan><tspan class="cls-14" x="33.07" y="0">р</tspan><tspan class="cls-11" x="42.75" y="0">.</tspan></text>
        <text class="cls-3" transform="translate(670.67 350.05)"><tspan x="0" y="0">320 </tspan><tspan class="cls-14" x="33.07" y="0">р</tspan><tspan class="cls-11" x="42.75" y="0">.</tspan></text>
        <text class="cls-3" transform="translate(670.67 396.09)"><tspan x="0" y="0">432 </tspan><tspan class="cls-14" x="33.07" y="0">р</tspan><tspan class="cls-11" x="42.75" y="0">.</tspan></text>
        <text class="cls-3" transform="translate(670.67 440.96)"><tspan x="0" y="0">527 </tspan><tspan class="cls-14" x="33.07" y="0">р</tspan><tspan class="cls-11" x="42.75" y="0">.</tspan></text>
        <text class="cls-3" transform="translate(670.67 487.75)"><tspan x="0" y="0">713 </tspan><tspan class="cls-14" x="33.07" y="0">р</tspan><tspan class="cls-11" x="42.75" y="0">.</tspan></text>
        <text class="cls-1" transform="translate(811.17 120.01)"><tspan x="0" y="0">&lt;101 ш</tspan><tspan class="cls-16" x="56.35" y="0">т</tspan><tspan x="62.98" y="0">. </tspan><tspan class="cls-6" x="71.33" y="0">/</tspan><tspan class="cls-7" x="75.42" y="0">р</tspan><tspan x="85.33" y="0">.</tspan></text>
        <text class="cls-3" transform="translate(832.54 166.79)"><tspan x="0" y="0">209 </tspan><tspan class="cls-14" x="33.07" y="0">р</tspan><tspan class="cls-11" x="42.75" y="0">.</tspan></text>
        <text class="cls-3" transform="translate(832.54 212.92)"><tspan x="0" y="0">262 </tspan><tspan class="cls-14" x="33.07" y="0">р</tspan><tspan class="cls-11" x="42.75" y="0">.</tspan></text>
        <text class="cls-3" transform="translate(832.54 258.14)"><tspan x="0" y="0">258 </tspan><tspan class="cls-14" x="33.07" y="0">р</tspan><tspan class="cls-11" x="42.75" y="0">.</tspan></text>
        <text class="cls-3" transform="translate(832.54 303.79)"><tspan x="0" y="0">314 </tspan><tspan class="cls-14" x="33.07" y="0">р</tspan><tspan class="cls-11" x="42.75" y="0">.</tspan></text>
        <text class="cls-3" transform="translate(832.54 350.05)"><tspan x="0" y="0">305 </tspan><tspan class="cls-14" x="33.07" y="0">р</tspan><tspan class="cls-11" x="42.75" y="0">.</tspan></text>
        <text class="cls-3" transform="translate(832.54 396.09)"><tspan x="0" y="0">416 </tspan><tspan class="cls-14" x="33.07" y="0">р</tspan><tspan class="cls-11" x="42.75" y="0">.</tspan></text>
        <text class="cls-3" transform="translate(832.54 440.96)"><tspan x="0" y="0">365 </tspan><tspan class="cls-14" x="33.07" y="0">р</tspan><tspan class="cls-11" x="42.75" y="0">.</tspan></text>
        <text class="cls-3" transform="translate(832.54 487.75)"><tspan x="0" y="0">681 </tspan><tspan class="cls-14" x="33.07" y="0">р</tspan><tspan class="cls-11" x="42.75" y="0">.</tspan></text>
      </g>
    </g>
  </g>
</svg>