<?xml version="1.0" encoding="UTF-8"?>
<svg id="_Слой_2" data-name="Слой 2" xmlns="http://www.w3.org/2000/svg" viewBox="0 0 938.93 1011.53">
  <defs>
    <style>
      .cls-1 {
        font-family: Mulish-Bold, Mulish;
        font-weight: 700;
      }

      .cls-1, .cls-2, .cls-3 {
        fill: #27625f;
      }

      .cls-1, .cls-3 {
        font-size: 16px;
      }

      .cls-4 {
        fill: #fff;
      }

      .cls-4, .cls-5 {
        stroke: #a0b6b5;
        stroke-miterlimit: 10;
      }

      .cls-6 {
        letter-spacing: -.02em;
      }

      .cls-2 {
        stroke-width: 0px;
      }

      .cls-3 {
        font-family: Mulish-SemiBold, Mulish;
        font-weight: 600;
      }

      .cls-7 {
        letter-spacing: -.07em;
      }

      .cls-8 {
        letter-spacing: 0em;
      }

      .cls-9 {
        letter-spacing: -.07em;
      }

      .cls-10 {
        letter-spacing: -.02em;
      }

      .cls-11 {
        letter-spacing: 0em;
      }

      .cls-12 {
        letter-spacing: 0em;
      }

      .cls-13 {
        letter-spacing: -.02em;
      }

      .cls-14 {
        letter-spacing: -.08em;
      }

      .cls-15 {
        letter-spacing: 0em;
      }

      .cls-16 {
        letter-spacing: -.01em;
      }

      .cls-5 {
        fill: none;
      }
    </style>
  </defs>
  <g id="_Слой_1-2" data-name="Слой 1">
    <g>
      <g>
        <g>
          <rect class="cls-4" x=".5" y=".5" width="937.93" height="183.76" rx="10" ry="10"/>
          <line class="cls-5" x1="938.43" y1="46.44" x2=".5" y2="46.44"/>
          <line class="cls-5" x1="938.43" y1="92.38" x2=".5" y2="92.38"/>
          <line class="cls-5" x1="938.43" y1="138.32" x2=".5" y2="138.32"/>
          <line class="cls-5" x1="344.07" y1="184.26" x2="344.07" y2="46.44"/>
          <line class="cls-5" x1="344.07" y1="92.38" x2=".5" y2="46.44"/>
          <line class="cls-5" x1="428.94" y1="184.26" x2="428.94" y2="46.44"/>
          <line class="cls-5" x1="513.82" y1="184.26" x2="513.82" y2="46.44"/>
          <line class="cls-5" x1="598.69" y1="184.26" x2="598.69" y2="46.44"/>
          <line class="cls-5" x1="683.57" y1="184.26" x2="683.57" y2="46.44"/>
          <line class="cls-5" x1="768.45" y1="184.26" x2="768.45" y2="46.44"/>
          <line class="cls-5" x1="853.32" y1="184.26" x2="853.32" y2="46.44"/>
        </g>
        <g>
          <text class="cls-1" transform="translate(17.82 29.16)"><tspan class="cls-14" x="0" y="0">Т</tspan><tspan class="cls-11" x="8.66" y="0">иражирование</tspan></text>
          <text class="cls-1" transform="translate(56.8 79.25)"><tspan x="0" y="0">Цвет</tspan></text>
          <text class="cls-1" transform="translate(140.84 120.68)"><tspan x="0" y="0">Черный</tspan></text>
          <text class="cls-1" transform="translate(69.82 166.6)"><tspan x="0" y="0">Красный, синий, зелёный</tspan></text>
          <text class="cls-3" transform="translate(372.52 120.68)"><tspan x="0" y="0">2 </tspan><tspan class="cls-10" x="13.87" y="0">р</tspan><tspan x="23.55" y="0">.</tspan></text>
          <text class="cls-1" transform="translate(357.52 74.81)"><tspan x="0" y="0">100 ш</tspan><tspan class="cls-9" x="46.75" y="0">т</tspan><tspan x="53.38" y="0">.</tspan></text>
          <text class="cls-3" transform="translate(353.83 166.6)"><tspan x="0" y="0">1,85/3 </tspan><tspan class="cls-13" x="51.26" y="0">р</tspan><tspan x="60.94" y="0">.</tspan></text>
          <text class="cls-3" transform="translate(450.31 120.66)"><tspan x="0" y="0">1,2 </tspan><tspan class="cls-13" x="27.26" y="0">р</tspan><tspan x="36.94" y="0">.</tspan></text>
          <text class="cls-1" transform="translate(442 74.79)"><tspan x="0" y="0">200 ш</tspan><tspan class="cls-9" x="46.75" y="0">т</tspan><tspan x="53.38" y="0">.</tspan></text>
          <text class="cls-3" transform="translate(436.41 166.57)"><tspan x="0" y="0">1,3/1,7 </tspan><tspan class="cls-6" x="55.05" y="0">р</tspan><tspan x="64.74" y="0">.</tspan></text>
          <text class="cls-3" transform="translate(543.07 120.66)"><tspan x="0" y="0">1 </tspan><tspan class="cls-10" x="13.87" y="0">р</tspan><tspan x="23.55" y="0">.</tspan></text>
          <text class="cls-1" transform="translate(528.07 74.79)"><tspan x="0" y="0">300 ш</tspan><tspan class="cls-9" x="46.75" y="0">т</tspan><tspan x="53.38" y="0">.</tspan></text>
          <text class="cls-3" transform="translate(522.48 166.57)"><tspan x="0" y="0">1,2/1,3 </tspan><tspan class="cls-6" x="55.05" y="0">р</tspan><tspan x="64.74" y="0">.</tspan></text>
          <text class="cls-3" transform="translate(620.33 120.66)"><tspan x="0" y="0">0,8 </tspan><tspan class="cls-13" x="27.26" y="0">р</tspan><tspan x="36.94" y="0">.</tspan></text>
          <text class="cls-1" transform="translate(612.03 74.79)"><tspan x="0" y="0">500 ш</tspan><tspan class="cls-9" x="46.75" y="0">т</tspan><tspan x="53.38" y="0">.</tspan></text>
          <text class="cls-3" transform="translate(606.44 166.57)"><tspan x="0" y="0">0,8/1,3 </tspan><tspan class="cls-6" x="55.05" y="0">р</tspan><tspan x="64.74" y="0">.</tspan></text>
          <text class="cls-3" transform="translate(705.99 120.66)"><tspan x="0" y="0">0,7 </tspan><tspan class="cls-13" x="27.26" y="0">р</tspan><tspan x="36.94" y="0">.</tspan></text>
          <text class="cls-1" transform="translate(692.88 74.79)"><tspan x="0" y="0">1000 ш</tspan><tspan class="cls-7" x="56.35" y="0">т</tspan><tspan class="cls-12" x="62.98" y="0">.</tspan></text>
          <text class="cls-3" transform="translate(698.79 166.57)"><tspan x="0" y="0">1/1,3 </tspan><tspan class="cls-13" x="41.66" y="0">р</tspan><tspan class="cls-15" x="51.34" y="0">.</tspan></text>
          <text class="cls-3" transform="translate(790.03 120.66)"><tspan x="0" y="0">0,6 </tspan><tspan class="cls-13" x="27.26" y="0">р</tspan><tspan x="36.94" y="0">.</tspan></text>
          <text class="cls-1" transform="translate(776.93 74.79)"><tspan x="0" y="0">5000 ш</tspan><tspan class="cls-7" x="56.35" y="0">т</tspan><tspan class="cls-12" x="62.98" y="0">.</tspan></text>
          <text class="cls-3" transform="translate(771.33 166.57)"><tspan x="0" y="0">0,85/0,9 </tspan><tspan class="cls-13" x="64.66" y="0">р</tspan><tspan x="74.33" y="0">.</tspan></text>
          <text class="cls-3" transform="translate(875.59 120.66)"><tspan x="0" y="0">0,5 </tspan><tspan class="cls-13" x="27.26" y="0">р</tspan><tspan x="36.94" y="0">.</tspan></text>
          <text class="cls-1" transform="translate(857.69 74.79)"><tspan x="0" y="0">10000 ш</tspan><tspan class="cls-9" x="65.95" y="0">т</tspan><tspan x="72.58" y="0">.</tspan></text>
          <text class="cls-3" transform="translate(875.59 166.57)"><tspan x="0" y="0">0,8 </tspan><tspan class="cls-13" x="27.26" y="0">р</tspan><tspan x="36.94" y="0">.</tspan></text>
          <text class="cls-1" transform="translate(193.77 60)"><tspan class="cls-8" x="0" y="0">К</tspan><tspan class="cls-16" x="10.91" y="0">о</tspan><tspan x="20.45" y="0">личество копий</tspan><tspan x="16.26" y="13">с 1 оригинала</tspan></text>
        </g>
      </g>
      <g>
        <g>
          <rect class="cls-4" x=".5" y="204.27" width="937.93" height="183.76" rx="10" ry="10"/>
          <line class="cls-5" x1="938.43" y1="250.21" x2=".5" y2="250.21"/>
          <line class="cls-5" x1="488.82" y1="388.03" x2="488.82" y2="250.21"/>
          <line class="cls-5" x1="938.43" y1="296.15" x2=".5" y2="296.15"/>
          <line class="cls-5" x1="938.43" y1="342.09" x2=".5" y2="342.09"/>
        </g>
        <g>
          <text class="cls-1" transform="translate(213.23 277.77)"><tspan x="0" y="0">Формат</tspan></text>
          <text class="cls-1" transform="translate(234.14 324.25)"><tspan x="0" y="0">А4</tspan></text>
          <text class="cls-1" transform="translate(234.14 370.64)"><tspan x="0" y="0">А3</tspan></text>
          <g>
            <path class="cls-2" d="m673.47,271.2c-1.17,0-2.18-.24-3.02-.71-.84-.47-1.48-1.15-1.93-2.02-.45-.87-.67-1.9-.67-3.08s.22-2.21.67-3.07c.45-.86,1.09-1.53,1.93-2.01.84-.47,1.84-.71,3.02-.71.79,0,1.5.11,2.14.34s1.18.55,1.64.99l-.67,1.63c-.5-.41-.98-.7-1.45-.87-.46-.18-1-.26-1.59-.26-1.14,0-2.01.34-2.62,1.03s-.9,1.67-.9,2.94.3,2.25.9,2.94,1.47,1.04,2.62,1.04c.6,0,1.13-.09,1.59-.26.46-.18.95-.47,1.45-.89l.67,1.63c-.46.43-1.01.76-1.64.99s-1.35.35-2.14.35Z"/>
            <path class="cls-2" d="m679.07,271.04v-8.08h1.98v3.17h3.65v-3.17h1.98v8.08h-1.98v-3.38h-3.65v3.38h-1.98Z"/>
            <path class="cls-2" d="m692.93,271.2c-1.35,0-2.42-.37-3.18-1.12-.77-.75-1.15-1.77-1.15-3.07,0-.84.17-1.58.5-2.21.33-.63.79-1.12,1.38-1.47.59-.35,1.28-.53,2.07-.53s1.43.17,1.95.5c.52.33.92.79,1.19,1.39.27.6.41,1.3.41,2.1v.53h-5.89v-1.06h4.46l-.27.22c0-.75-.16-1.32-.47-1.71s-.77-.59-1.37-.59c-.66,0-1.17.23-1.53.7-.36.47-.54,1.13-.54,1.97v.21c0,.87.22,1.53.65,1.96.43.43,1.04.65,1.83.65.46,0,.89-.06,1.29-.18.4-.12.78-.32,1.14-.6l.59,1.34c-.38.31-.84.55-1.38.72-.53.17-1.1.26-1.7.26Z"/>
            <path class="cls-2" d="m697.95,271.04v-8.08h6.06v1.57h-4.06v6.51h-2Z"/>
            <path class="cls-2" d="m705.33,274.67l-.46-1.58c.5-.11.92-.23,1.26-.37.34-.14.62-.32.85-.54.22-.22.41-.51.56-.86l.4-.94-.05.78-3.52-8.19h2.13l2.53,6.3h-.46l2.54-6.3h2.02l-3.68,8.53c-.25.58-.51,1.05-.8,1.43s-.6.68-.93.91c-.33.23-.69.41-1.09.54s-.83.23-1.3.3Z"/>
            <path class="cls-2" d="m714.4,274.49v-9.52c0-.33-.01-.67-.03-1.01s-.05-.68-.1-1.01h1.94l.18,1.7h-.18c.16-.57.5-1.02,1.02-1.35.52-.34,1.12-.5,1.8-.5s1.34.17,1.87.5.95.82,1.25,1.44.45,1.37.45,2.25-.15,1.63-.45,2.26-.71,1.11-1.25,1.45c-.53.34-1.16.5-1.87.5-.67,0-1.26-.17-1.78-.5-.51-.33-.85-.77-1.02-1.33h.18v5.12h-2Zm4.06-4.83c.64,0,1.15-.22,1.54-.66.38-.44.58-1.11.58-2.01s-.19-1.56-.58-2c-.38-.44-.9-.66-1.54-.66s-1.14.22-1.52.66-.58,1.1-.58,2,.19,1.57.58,2.01c.38.44.89.66,1.52.66Z"/>
            <path class="cls-2" d="m728.19,271.2c-.83,0-1.55-.17-2.16-.51-.61-.34-1.08-.83-1.42-1.46-.34-.63-.5-1.38-.5-2.24s.17-1.61.5-2.23.81-1.11,1.42-1.45c.61-.34,1.33-.51,2.16-.51s1.55.17,2.17.51,1.09.82,1.42,1.45c.34.62.5,1.37.5,2.23s-.17,1.61-.5,2.24c-.34.63-.81,1.11-1.42,1.46s-1.34.51-2.17.51Zm0-1.54c.63,0,1.13-.22,1.5-.66.37-.44.56-1.11.56-2.01s-.19-1.56-.56-2c-.37-.44-.87-.66-1.5-.66s-1.13.22-1.5.66-.56,1.1-.56,2,.19,1.57.56,2.01c.37.44.88.66,1.5.66Z"/>
            <path class="cls-2" d="m739.31,271.04v-2.94c-.3.14-.61.25-.93.32-.32.07-.66.11-1.01.11-1.18,0-2.07-.28-2.65-.85-.58-.57-.87-1.41-.87-2.53v-2.19h1.98v2.02c0,.68.15,1.18.45,1.48s.78.46,1.44.46c.31,0,.59-.03.83-.1.25-.06.48-.17.7-.3v-3.55h1.98v8.08h-1.94Z"/>
            <path class="cls-2" d="m743.52,271.04v-8.08h1.98v3.17h1.22l2.37-3.17h2.14l-2.98,4.03-.43-.62c.3.03.56.11.79.24.23.13.45.31.66.54s.41.52.62.87l1.7,3.02h-2.13l-1.38-2.43c-.14-.25-.28-.44-.42-.58s-.29-.23-.46-.29c-.17-.05-.38-.08-.62-.08h-1.07v3.38h-1.98Z"/>
            <path class="cls-2" d="m755.82,271.2c-.7,0-1.32-.17-1.86-.5-.53-.34-.95-.82-1.25-1.45s-.45-1.38-.45-2.26.15-1.62.45-2.25.71-1.1,1.25-1.44,1.15-.5,1.86-.5,1.28.17,1.8.5.86.79,1.03,1.35h-.18l.18-1.7h1.92c-.03.33-.06.67-.09,1.01-.03.34-.04.68-.04,1.01v6.06h-1.98l-.02-1.66h.19c-.17.55-.52,1-1.04,1.33s-1.11.5-1.78.5Zm.56-1.54c.63,0,1.14-.22,1.52-.66.38-.44.58-1.11.58-2.01s-.19-1.56-.58-2c-.38-.44-.89-.66-1.52-.66s-1.14.22-1.52.66c-.38.44-.58,1.1-.58,2s.19,1.57.57,2.01c.38.44.89.66,1.53.66Z"/>
            <path class="cls-2" d="m695.8,287.2c-.61,0-1.21-.11-1.81-.34-.6-.23-1.11-.54-1.54-.94l.69-1.54c.39.36.82.63,1.28.82.46.18.92.27,1.39.27.95,0,1.68-.33,2.18-.98.51-.65.76-1.62.76-2.91v-1.2h.19c-.08.53-.26,1-.54,1.39-.29.4-.65.7-1.08.9-.43.21-.92.31-1.45.31-.65,0-1.23-.15-1.75-.46-.52-.31-.92-.74-1.22-1.29-.29-.55-.44-1.17-.44-1.86,0-.74.16-1.39.49-1.95.33-.56.77-1.01,1.34-1.34.57-.33,1.22-.49,1.95-.49,1.43,0,2.53.49,3.3,1.46s1.16,2.35,1.16,4.14c0,1.27-.19,2.35-.58,3.25s-.95,1.58-1.69,2.05c-.74.47-1.62.7-2.64.7Zm.58-5.84c.39,0,.74-.08,1.04-.26.3-.17.53-.41.7-.73.17-.31.26-.67.26-1.08s-.09-.78-.26-1.09c-.17-.31-.41-.55-.7-.73-.3-.18-.65-.26-1.04-.26s-.74.09-1.04.26c-.3.18-.53.42-.7.73-.17.31-.25.67-.25,1.09s.08.77.25,1.08c.17.31.4.56.7.73.3.17.65.26,1.04.26Z"/>
            <path class="cls-2" d="m706.25,287.2c-1.32,0-2.34-.5-3.06-1.51-.71-1.01-1.07-2.45-1.07-4.31s.36-3.32,1.07-4.3c.71-.98,1.73-1.47,3.06-1.47s2.35.49,3.06,1.47c.71.98,1.06,2.41,1.06,4.29s-.35,3.32-1.06,4.33c-.71,1.01-1.73,1.51-3.06,1.51Zm0-1.7c.73,0,1.26-.33,1.62-1,.35-.67.53-1.71.53-3.14s-.18-2.47-.53-3.11c-.35-.65-.89-.97-1.62-.97s-1.25.32-1.61.97c-.36.65-.54,1.68-.54,3.11s.18,2.48.54,3.14c.36.67.89,1,1.61,1Z"/>
            <path class="cls-2" d="m716.56,287.04v-8.08h6.06v1.57h-4.06v6.51h-2Z"/>
            <path class="cls-2" d="m724.1,290.49v-9.52c0-.33-.01-.67-.03-1.01s-.05-.68-.1-1.01h1.94l.18,1.7h-.18c.16-.57.5-1.02,1.02-1.35s1.12-.5,1.8-.5,1.34.17,1.87.5c.53.34.95.82,1.25,1.44.3.62.45,1.37.45,2.25s-.15,1.63-.45,2.26c-.3.63-.71,1.11-1.25,1.45-.53.34-1.16.5-1.87.5-.67,0-1.26-.17-1.78-.5-.51-.33-.85-.77-1.02-1.33h.18v5.12h-2Zm4.06-4.83c.64,0,1.15-.22,1.54-.66.38-.44.58-1.11.58-2.01s-.19-1.56-.58-2-.9-.66-1.54-.66-1.14.22-1.52.66c-.38.44-.58,1.1-.58,2s.19,1.57.58,2.01c.38.44.89.66,1.52.66Z"/>
            <path class="cls-2" d="m733.67,287.04v-2.22h2.24v2.22h-2.24Z"/>
          </g>
          <text class="cls-3" transform="translate(693.94 324.25)"><tspan x="0" y="0">1,7 </tspan><tspan class="cls-13" x="27.26" y="0">р</tspan><tspan x="36.94" y="0">.</tspan></text>
          <text class="cls-3" transform="translate(691.81 370.64)"><tspan x="0" y="0">3, 4 </tspan><tspan class="cls-13" x="31.54" y="0">р</tspan><tspan x="41.22" y="0">.</tspan></text>
          <text class="cls-1" transform="translate(18.46 232.86)"><tspan x="0" y="0">Вид </tspan><tspan class="cls-8" x="35.39" y="0">б</tspan><tspan class="cls-12" x="44.98" y="0">умаги</tspan></text>
        </g>
      </g>
      <g>
        <g>
          <rect class="cls-4" x=".5" y="459.76" width="937.93" height="551.27" rx="10" ry="10"/>
          <line class="cls-5" x1=".5" y1="505.7" x2="938.43" y2="505.7"/>
          <line class="cls-5" x1=".5" y1="551.64" x2="938.43" y2="551.64"/>
          <line class="cls-5" x1=".5" y1="597.58" x2="938.43" y2="597.58"/>
          <line class="cls-5" x1="155.46" y1="505.7" x2="155.46" y2="643.51"/>
          <line class="cls-5" x1="312.14" y1="505.7" x2="312.14" y2="643.51"/>
          <line class="cls-5" x1="468.83" y1="505.7" x2="468.83" y2="643.51"/>
          <line class="cls-5" x1="625.52" y1="505.7" x2="625.52" y2="643.51"/>
          <line class="cls-5" x1="782.21" y1="505.7" x2="782.21" y2="643.51"/>
          <line class="cls-5" x1="155.46" y1="689.45" x2="155.46" y2="827.27"/>
          <line class="cls-5" x1="312.14" y1="689.45" x2="312.14" y2="827.27"/>
          <line class="cls-5" x1="468.83" y1="689.45" x2="468.83" y2="827.27"/>
          <line class="cls-5" x1="625.52" y1="689.45" x2="625.52" y2="827.27"/>
          <line class="cls-5" x1="782.21" y1="689.45" x2="782.21" y2="827.27"/>
          <line class="cls-5" x1="155.46" y1="873.21" x2="155.46" y2="1011.03"/>
          <line class="cls-5" x1="312.14" y1="873.21" x2="312.14" y2="1011.03"/>
          <line class="cls-5" x1="468.83" y1="873.21" x2="468.83" y2="1011.03"/>
          <line class="cls-5" x1="625.52" y1="873.21" x2="625.52" y2="1011.03"/>
          <line class="cls-5" x1="782.21" y1="873.21" x2="782.21" y2="1011.03"/>
          <line class="cls-5" x1=".5" y1="643.51" x2="938.43" y2="643.51"/>
          <line class="cls-5" x1=".5" y1="689.45" x2="938.43" y2="689.45"/>
          <line class="cls-5" x1=".5" y1="735.39" x2="938.43" y2="735.39"/>
          <line class="cls-5" x1=".5" y1="781.33" x2="938.43" y2="781.33"/>
          <line class="cls-5" x1=".5" y1="827.27" x2="938.43" y2="827.27"/>
          <line class="cls-5" x1=".5" y1="873.21" x2="938.43" y2="873.21"/>
          <line class="cls-5" x1=".5" y1="919.15" x2="938.43" y2="919.15"/>
          <line class="cls-5" x1=".5" y1="965.09" x2="938.43" y2="965.09"/>
        </g>
        <g>
          <text class="cls-1" transform="translate(18.89 533.43)"><tspan x="0" y="0">А4 1+0, номер</tspan></text>
          <text class="cls-1" transform="translate(49.98 579.91)"><tspan x="0" y="0">2 слоя</tspan></text>
          <text class="cls-1" transform="translate(49.98 625.3)"><tspan x="0" y="0">3 слоя</tspan></text>
          <text class="cls-1" transform="translate(204.03 533.43)"><tspan x="0" y="0">100 ш</tspan><tspan class="cls-9" x="46.75" y="0">т</tspan><tspan x="53.38" y="0">.</tspan></text>
          <text class="cls-3" transform="translate(204.63 579.91)"><tspan x="0" y="0">1650 </tspan><tspan class="cls-13" x="42.67" y="0">р</tspan><tspan x="52.35" y="0">.</tspan></text>
          <text class="cls-3" transform="translate(204.63 625.3)"><tspan x="0" y="0">2210 </tspan><tspan class="cls-13" x="42.67" y="0">р</tspan><tspan x="52.35" y="0">.</tspan></text>
          <text class="cls-1" transform="translate(361.08 533.43)"><tspan x="0" y="0">200 ш</tspan><tspan class="cls-9" x="46.75" y="0">т</tspan><tspan x="53.38" y="0">.</tspan></text>
          <text class="cls-3" transform="translate(361.67 579.91)"><tspan x="0" y="0">2665 </tspan><tspan class="cls-13" x="42.67" y="0">р</tspan><tspan x="52.35" y="0">.</tspan></text>
          <text class="cls-3" transform="translate(361.67 625.3)"><tspan x="0" y="0">3718 </tspan><tspan class="cls-13" x="42.67" y="0">р</tspan><tspan x="52.35" y="0">.</tspan></text>
          <text class="cls-1" transform="translate(518.12 533.43)"><tspan x="0" y="0">300 ш</tspan><tspan class="cls-9" x="46.75" y="0">т</tspan><tspan x="53.38" y="0">.</tspan></text>
          <text class="cls-3" transform="translate(518.72 579.91)"><tspan x="0" y="0">3640 </tspan><tspan class="cls-13" x="42.67" y="0">р</tspan><tspan x="52.35" y="0">.</tspan></text>
          <text class="cls-3" transform="translate(518.72 625.3)"><tspan x="0" y="0">5200 </tspan><tspan class="cls-13" x="42.67" y="0">р</tspan><tspan x="52.35" y="0">.</tspan></text>
          <text class="cls-1" transform="translate(673.57 533.43)"><tspan x="0" y="0">500 ш</tspan><tspan class="cls-9" x="46.75" y="0">т</tspan><tspan x="53.38" y="0">.</tspan></text>
          <text class="cls-3" transform="translate(674.17 579.91)"><tspan x="0" y="0">5772 </tspan><tspan class="cls-13" x="42.67" y="0">р</tspan><tspan x="52.35" y="0">.</tspan></text>
          <text class="cls-3" transform="translate(674.17 625.3)"><tspan x="0" y="0">8307 </tspan><tspan class="cls-13" x="42.67" y="0">р</tspan><tspan x="52.35" y="0">.</tspan></text>
          <text class="cls-1" transform="translate(825.29 533.43)"><tspan x="0" y="0">1000 ш</tspan><tspan class="cls-7" x="56.35" y="0">т</tspan><tspan class="cls-12" x="62.98" y="0">.</tspan></text>
          <text class="cls-3" transform="translate(830.69 579.91)"><tspan x="0" y="0">9035 </tspan><tspan class="cls-13" x="42.67" y="0">р</tspan><tspan x="52.35" y="0">.</tspan></text>
          <text class="cls-3" transform="translate(830.69 625.3)"><tspan x="0" y="0">1208 </tspan><tspan class="cls-13" x="42.67" y="0">р</tspan><tspan x="52.35" y="0">.</tspan></text>
          <text class="cls-1" transform="translate(18.89 717.55)"><tspan x="0" y="0">А5 1+0, номер</tspan></text>
          <text class="cls-1" transform="translate(49.98 764.02)"><tspan x="0" y="0">2 слоя</tspan></text>
          <text class="cls-1" transform="translate(49.98 809.41)"><tspan x="0" y="0">3 слоя</tspan></text>
          <text class="cls-1" transform="translate(204.03 717.55)"><tspan x="0" y="0">200 ш</tspan><tspan class="cls-9" x="46.75" y="0">т</tspan><tspan x="53.38" y="0">.</tspan></text>
          <text class="cls-3" transform="translate(204.63 764.02)"><tspan x="0" y="0">2002 </tspan><tspan class="cls-13" x="42.67" y="0">р</tspan><tspan x="52.35" y="0">.</tspan></text>
          <text class="cls-3" transform="translate(204.63 809.41)"><tspan x="0" y="0">2704 </tspan><tspan class="cls-13" x="42.67" y="0">р</tspan><tspan x="52.35" y="0">.</tspan></text>
          <text class="cls-1" transform="translate(361.08 717.55)"><tspan x="0" y="0">400 ш</tspan><tspan class="cls-9" x="46.75" y="0">т</tspan><tspan x="53.38" y="0">.</tspan></text>
          <text class="cls-3" transform="translate(361.67 764.02)"><tspan x="0" y="0">3523 </tspan><tspan class="cls-13" x="42.67" y="0">р</tspan><tspan x="52.35" y="0">.</tspan></text>
          <text class="cls-3" transform="translate(361.67 809.41)"><tspan x="0" y="0">4940 </tspan><tspan class="cls-13" x="42.67" y="0">р</tspan><tspan x="52.35" y="0">.</tspan></text>
          <text class="cls-1" transform="translate(518.12 717.55)"><tspan x="0" y="0">600 ш</tspan><tspan class="cls-9" x="46.75" y="0">т</tspan><tspan x="53.38" y="0">.</tspan></text>
          <text class="cls-3" transform="translate(518.72 764.02)"><tspan x="0" y="0">4836 </tspan><tspan class="cls-13" x="42.67" y="0">р</tspan><tspan x="52.35" y="0">.</tspan></text>
          <text class="cls-3" transform="translate(518.72 809.41)"><tspan x="0" y="0">6968 </tspan><tspan class="cls-13" x="42.67" y="0">р</tspan><tspan x="52.35" y="0">.</tspan></text>
          <text class="cls-1" transform="translate(668.77 717.55)"><tspan x="0" y="0">1000 ш</tspan><tspan class="cls-7" x="56.35" y="0">т</tspan><tspan class="cls-12" x="62.98" y="0">.</tspan></text>
          <text class="cls-3" transform="translate(674.17 764.02)"><tspan x="0" y="0">5746 </tspan><tspan class="cls-13" x="42.67" y="0">р</tspan><tspan x="52.35" y="0">.</tspan></text>
          <text class="cls-3" transform="translate(674.17 809.41)"><tspan x="0" y="0">8281 </tspan><tspan class="cls-13" x="42.67" y="0">р</tspan><tspan x="52.35" y="0">.</tspan></text>
          <text class="cls-1" transform="translate(825.29 717.55)"><tspan x="0" y="0">2000 ш</tspan><tspan class="cls-7" x="56.35" y="0">т</tspan><tspan class="cls-12" x="62.98" y="0">.</tspan></text>
          <text class="cls-3" transform="translate(825.89 764.02)"><tspan x="0" y="0">10816 </tspan><tspan class="cls-6" x="52.27" y="0">р</tspan><tspan class="cls-12" x="61.95" y="0">.</tspan></text>
          <text class="cls-3" transform="translate(825.89 809.41)"><tspan x="0" y="0">15886 </tspan><tspan class="cls-6" x="52.27" y="0">р</tspan><tspan class="cls-12" x="61.95" y="0">.</tspan></text>
          <text class="cls-1" transform="translate(18.89 901.54)"><tspan x="0" y="0">А6 1+0, номер</tspan></text>
          <text class="cls-1" transform="translate(49.98 948.02)"><tspan x="0" y="0">2 слоя</tspan></text>
          <text class="cls-1" transform="translate(49.98 993.41)"><tspan x="0" y="0">3 слоя</tspan></text>
          <text class="cls-1" transform="translate(204.03 901.54)"><tspan x="0" y="0">400 ш</tspan><tspan class="cls-9" x="46.75" y="0">т</tspan><tspan x="53.38" y="0">.</tspan></text>
          <text class="cls-3" transform="translate(204.63 948.02)"><tspan x="0" y="0">2678 </tspan><tspan class="cls-13" x="42.67" y="0">р</tspan><tspan x="52.35" y="0">.</tspan></text>
          <text class="cls-3" transform="translate(204.63 993.41)"><tspan x="0" y="0">3718 </tspan><tspan class="cls-13" x="42.67" y="0">р</tspan><tspan x="52.35" y="0">.</tspan></text>
          <text class="cls-1" transform="translate(361.08 901.54)"><tspan x="0" y="0">800 ш</tspan><tspan class="cls-9" x="46.75" y="0">т</tspan><tspan x="53.38" y="0">.</tspan></text>
          <text class="cls-3" transform="translate(361.67 948.02)"><tspan x="0" y="0">4875 </tspan><tspan class="cls-13" x="42.67" y="0">р</tspan><tspan x="52.35" y="0">.</tspan></text>
          <text class="cls-3" transform="translate(361.67 993.41)"><tspan x="0" y="0">7033 </tspan><tspan class="cls-13" x="42.67" y="0">р</tspan><tspan x="52.35" y="0">.</tspan></text>
          <text class="cls-1" transform="translate(513.32 901.54)"><tspan x="0" y="0">1200 ш</tspan><tspan class="cls-7" x="56.35" y="0">т</tspan><tspan class="cls-12" x="62.98" y="0">.</tspan></text>
          <text class="cls-3" transform="translate(518.72 948.02)"><tspan x="0" y="0">5746 </tspan><tspan class="cls-13" x="42.67" y="0">р</tspan><tspan x="52.35" y="0">.</tspan></text>
          <text class="cls-3" transform="translate(518.72 993.41)"><tspan x="0" y="0">7436 </tspan><tspan class="cls-13" x="42.67" y="0">р</tspan><tspan x="52.35" y="0">.</tspan></text>
          <text class="cls-1" transform="translate(668.77 901.54)"><tspan x="0" y="0">2000 ш</tspan><tspan class="cls-7" x="56.35" y="0">т</tspan><tspan class="cls-12" x="62.98" y="0">.</tspan></text>
          <text class="cls-3" transform="translate(674.17 948.02)"><tspan x="0" y="0">7436 </tspan><tspan class="cls-13" x="42.67" y="0">р</tspan><tspan x="52.35" y="0">.</tspan></text>
          <text class="cls-3" transform="translate(669.37 993.41)"><tspan x="0" y="0">10816 </tspan><tspan class="cls-6" x="52.27" y="0">р</tspan><tspan class="cls-12" x="61.95" y="0">.</tspan></text>
          <text class="cls-1" transform="translate(825.29 901.54)"><tspan x="0" y="0">4000 ш</tspan><tspan class="cls-7" x="56.35" y="0">т</tspan><tspan class="cls-12" x="62.98" y="0">.</tspan></text>
          <text class="cls-3" transform="translate(825.89 948.02)"><tspan x="0" y="0">14580 </tspan><tspan class="cls-6" x="52.27" y="0">р</tspan><tspan class="cls-12" x="61.95" y="0">.</tspan></text>
          <text class="cls-3" transform="translate(825.89 993.41)"><tspan x="0" y="0">21190 </tspan><tspan class="cls-6" x="52.27" y="0">р</tspan><tspan class="cls-12" x="61.95" y="0">.</tspan></text>
          <text class="cls-1" transform="translate(17.08 487.43)"><tspan x="0" y="0">Бланки строгой отчётности</tspan></text>
        </g>
      </g>
    </g>
  </g>
</svg>