<?xml version="1.0" encoding="UTF-8"?>
<svg id="_Слой_2" data-name="Слой 2" xmlns="http://www.w3.org/2000/svg" viewBox="0 0 938.93 294.82">
  <defs>
    <style>
      .cls-1 {
        font-family: Mulish-Bold, Mulish;
        font-weight: 700;
      }

      .cls-1, .cls-2 {
        fill: #27625f;
        font-size: 16px;
      }

      .cls-3 {
        fill: #fff;
      }

      .cls-3, .cls-4 {
        stroke: #a0b6b5;
        stroke-miterlimit: 10;
      }

      .cls-5 {
        letter-spacing: 0em;
      }

      .cls-2 {
        font-family: Mulish-SemiBold, Mulish;
        font-weight: 600;
      }

      .cls-6 {
        letter-spacing: .07em;
      }

      .cls-7 {
        letter-spacing: -.06em;
      }

      .cls-8 {
        letter-spacing: .07em;
      }

      .cls-9 {
        letter-spacing: -.02em;
      }

      .cls-10 {
        letter-spacing: 0em;
      }

      .cls-11 {
        letter-spacing: -.02em;
      }

      .cls-12 {
        letter-spacing: 0em;
      }

      .cls-13 {
        letter-spacing: -.02em;
      }

      .cls-14 {
        letter-spacing: -.01em;
      }

      .cls-15 {
        letter-spacing: -.02em;
      }

      .cls-4 {
        fill: none;
      }
    </style>
  </defs>
  <g id="_Слой_1-2" data-name="Слой 1">
    <g>
      <g>
        <rect class="cls-3" x=".5" y=".5" width="937.93" height="229.7" rx="10" ry="10"/>
        <line class="cls-4" x1=".5" y1="46.44" x2="938.43" y2="46.44"/>
        <line class="cls-4" x1=".5" y1="92.38" x2="938.43" y2="92.38"/>
        <line class="cls-4" x1="158.2" y1="46.44" x2="158.2" y2="230.2"/>
        <line class="cls-4" x1="314.18" y1="46.44" x2="314.18" y2="230.2"/>
        <line class="cls-4" x1="470.16" y1="46.44" x2="470.16" y2="230.2"/>
        <line class="cls-4" x1="626.14" y1="46.44" x2="626.14" y2="230.2"/>
        <line class="cls-4" x1="782.12" y1="46.44" x2="782.12" y2="230.2"/>
        <line class="cls-4" x1=".5" y1="138.32" x2="938.43" y2="138.32"/>
        <line class="cls-4" x1=".5" y1="184.26" x2="938.43" y2="184.26"/>
      </g>
      <g>
        <text class="cls-1" transform="translate(64.63 120.03)"><tspan x="0" y="0">Ч/Б</tspan></text>
        <text class="cls-1" transform="translate(44.51 164.99)"><tspan x="0" y="0">Цветное</tspan></text>
        <text class="cls-1" transform="translate(34.39 213.55)"><tspan x="0" y="0">Цв. 600 dpi</tspan></text>
        <text class="cls-1" transform="translate(46.67 74.2)"><tspan x="0" y="0">Формат</tspan></text>
        <text class="cls-1" transform="translate(226.44 74.2)"><tspan x="0" y="0">А4</tspan></text>
        <text class="cls-2" transform="translate(223.57 120.07)"><tspan x="0" y="0">4 </tspan><tspan class="cls-9" x="13.87" y="0">р</tspan><tspan x="23.55" y="0">.</tspan></text>
        <text class="cls-2" transform="translate(223.57 165.03)"><tspan x="0" y="0">8 </tspan><tspan class="cls-9" x="13.87" y="0">р</tspan><tspan x="23.55" y="0">.</tspan></text>
        <text class="cls-2" transform="translate(218.77 211.94)"><tspan x="0" y="0">15 </tspan><tspan class="cls-9" x="23.47" y="0">р</tspan><tspan x="33.15" y="0">.</tspan></text>
        <text class="cls-2" transform="translate(31.96 252.05)"><tspan x="0" y="0">Дырок</tspan><tspan class="cls-14" x="53.44" y="0">о</tspan><tspan x="62.75" y="0">л - 50к</tspan><tspan class="cls-8" x="115.81" y="0">.</tspan><tspan class="cls-7" x="120.65" y="0">/</tspan><tspan x="124.49" y="0">шт</tspan><tspan x="0" y="19.2">Люверс - 1</tspan><tspan class="cls-11" x="86.42" y="19.2">р</tspan><tspan class="cls-6" x="96.09" y="19.2">.</tspan><tspan class="cls-7" x="100.94" y="19.2">/</tspan><tspan class="cls-10" x="104.78" y="19.2">шт</tspan><tspan x="0" y="38.4">Ск</tspan><tspan class="cls-5" x="19.79" y="38.4">р</tspan><tspan class="cls-12" x="29.62" y="38.4">у</tspan><tspan class="cls-15" x="38.38" y="38.4">г</tspan><tspan x="45.34" y="38.4">ление - 2 </tspan><tspan class="cls-11" x="121.47" y="38.4">р</tspan><tspan class="cls-8" x="131.15" y="38.4">.</tspan><tspan class="cls-7" x="136" y="38.4">/</tspan><tspan class="cls-12" x="139.84" y="38.4">шт</tspan></text>
        <text class="cls-1" transform="translate(382.05 74.2)"><tspan x="0" y="0">А3</tspan></text>
        <text class="cls-2" transform="translate(379.18 120.07)"><tspan x="0" y="0">7 </tspan><tspan class="cls-9" x="13.87" y="0">р</tspan><tspan x="23.55" y="0">.</tspan></text>
        <text class="cls-2" transform="translate(374.38 165.03)"><tspan x="0" y="0">15 </tspan><tspan class="cls-9" x="23.47" y="0">р</tspan><tspan x="33.15" y="0">.</tspan></text>
        <text class="cls-2" transform="translate(374.38 211.94)"><tspan x="0" y="0">25 </tspan><tspan class="cls-9" x="23.47" y="0">р</tspan><tspan x="33.15" y="0">.</tspan></text>
        <text class="cls-1" transform="translate(538.57 74.2)"><tspan x="0" y="0">А2</tspan></text>
        <text class="cls-2" transform="translate(530.9 120.07)"><tspan x="0" y="0">25 </tspan><tspan class="cls-9" x="23.47" y="0">р</tspan><tspan x="33.15" y="0">.</tspan></text>
        <text class="cls-2" transform="translate(530.9 165.03)"><tspan x="0" y="0">50 </tspan><tspan class="cls-9" x="23.47" y="0">р</tspan><tspan x="33.15" y="0">.</tspan></text>
        <text class="cls-2" transform="translate(526.1 211.94)"><tspan x="0" y="0">100 </tspan><tspan class="cls-13" x="33.07" y="0">р</tspan><tspan class="cls-10" x="42.75" y="0">.</tspan></text>
        <text class="cls-1" transform="translate(693.57 74.2)"><tspan x="0" y="0">А1</tspan></text>
        <text class="cls-2" transform="translate(685.9 120.07)"><tspan x="0" y="0">50 </tspan><tspan class="cls-9" x="23.47" y="0">р</tspan><tspan x="33.15" y="0">.</tspan></text>
        <text class="cls-2" transform="translate(681.1 165.03)"><tspan x="0" y="0">100 </tspan><tspan class="cls-13" x="33.07" y="0">р</tspan><tspan class="cls-10" x="42.75" y="0">.</tspan></text>
        <text class="cls-2" transform="translate(681.1 211.94)"><tspan x="0" y="0">200 </tspan><tspan class="cls-13" x="33.07" y="0">р</tspan><tspan class="cls-10" x="42.75" y="0">.</tspan></text>
        <text class="cls-1" transform="translate(849.57 74.2)"><tspan x="0" y="0">А0</tspan></text>
        <text class="cls-2" transform="translate(841.9 120.07)"><tspan x="0" y="0">80 </tspan><tspan class="cls-9" x="23.47" y="0">р</tspan><tspan x="33.15" y="0">.</tspan></text>
        <text class="cls-2" transform="translate(837.1 165.03)"><tspan x="0" y="0">200 </tspan><tspan class="cls-13" x="33.07" y="0">р</tspan><tspan class="cls-10" x="42.75" y="0">.</tspan></text>
        <text class="cls-2" transform="translate(837.1 211.94)"><tspan x="0" y="0">400 </tspan><tspan class="cls-13" x="33.07" y="0">р</tspan><tspan class="cls-10" x="42.75" y="0">.</tspan></text>
        <text class="cls-1" transform="translate(17.77 28.37)"><tspan x="0" y="0">Сканирование</tspan></text>
      </g>
    </g>
  </g>
</svg>