<?xml version="1.0" encoding="UTF-8"?>
<svg id="_Слой_2" data-name="Слой 2" xmlns="http://www.w3.org/2000/svg" viewBox="0 0 938.93 294.08">
  <defs>
    <style>
      .cls-1 {
        fill: #fff;
      }

      .cls-1, .cls-2 {
        stroke: #a0b6b5;
        stroke-miterlimit: 10;
      }

      .cls-3 {
        fill: #27625f;
        stroke-width: 0px;
      }

      .cls-2 {
        fill: none;
      }
    </style>
  </defs>
  <g id="_Слой_1-2" data-name="Слой 1">
    <g>
      <g>
        <rect class="cls-1" x=".5" y=".5" width="937.93" height="229.7" rx="10" ry="10"/>
        <line class="cls-2" x1=".5" y1="46.44" x2="938.43" y2="46.44"/>
        <line class="cls-2" x1=".5" y1="92.38" x2="938.43" y2="92.38"/>
        <line class="cls-2" x1="158.2" y1="46.44" x2="158.2" y2="230.2"/>
        <line class="cls-2" x1="314.18" y1="46.44" x2="314.18" y2="230.2"/>
        <line class="cls-2" x1="470.16" y1="46.44" x2="470.16" y2="230.2"/>
        <line class="cls-2" x1="626.14" y1="46.44" x2="626.14" y2="230.2"/>
        <line class="cls-2" x1="782.12" y1="46.44" x2="782.12" y2="230.2"/>
        <line class="cls-2" x1=".5" y1="138.32" x2="938.43" y2="138.32"/>
        <line class="cls-2" x1=".5" y1="184.26" x2="938.43" y2="184.26"/>
      </g>
      <g>
        <g>
          <path class="cls-3" d="m72.75,120.03v-4.42c-.31.14-.7.25-1.17.34-.47.09-.94.13-1.41.13-1.51,0-2.67-.39-3.48-1.17-.81-.78-1.21-1.96-1.21-3.54v-2.62h2.05v2.53c0,1.07.24,1.84.71,2.33s1.19.73,2.15.73c.41,0,.81-.04,1.21-.11.4-.07.78-.2,1.14-.37v-5.1h2.05v11.28h-2.05Z"/>
          <path class="cls-3" d="m77.27,120.98h-1.65l4.21-12.98h1.65l-4.21,12.98Z"/>
          <path class="cls-3" d="m82.33,120.03v-11.28h8.05v1.6h-6.08v3.12h3.28c1.24,0,2.2.27,2.9.82s1.04,1.36,1.04,2.44-.35,1.88-1.04,2.45c-.69.57-1.66.85-2.9.85h-5.25Zm1.97-1.58h3.04c.76,0,1.31-.14,1.66-.42.35-.28.53-.71.53-1.29s-.18-.99-.53-1.26c-.35-.28-.91-.42-1.66-.42h-3.04v3.39Z"/>
        </g>
        <g>
          <path class="cls-3" d="m55.47,167.63v-2.64h-9.71v-11.28h2.03v9.58h5.79v-9.58h2.05v9.58h1.65v4.34h-1.81Z"/>
          <path class="cls-3" d="m58.79,164.99v-8.08h4.3c1.01,0,1.75.18,2.22.55.47.37.7.89.7,1.56,0,.51-.17.94-.51,1.28s-.79.55-1.36.64v-.22c.69.04,1.23.25,1.6.61.37.36.56.83.56,1.41,0,.69-.27,1.24-.8,1.65-.53.41-1.29.61-2.27.61h-4.45Zm1.86-4.74h2.21c.43,0,.76-.09.99-.28.23-.19.35-.45.35-.79s-.12-.6-.35-.78c-.23-.18-.57-.27-.99-.27h-2.21v2.13Zm0,3.5h2.38c.47,0,.83-.1,1.08-.29.25-.19.38-.47.38-.85s-.13-.66-.38-.85c-.25-.19-.61-.29-1.08-.29h-2.38v2.27Z"/>
          <path class="cls-3" d="m72.02,165.15c-1.35,0-2.42-.37-3.18-1.12s-1.15-1.77-1.15-3.07c0-.84.17-1.58.5-2.21.33-.63.79-1.12,1.38-1.47.59-.35,1.28-.53,2.07-.53s1.43.17,1.95.5c.52.33.92.79,1.19,1.39.27.6.41,1.3.41,2.1v.53h-5.89v-1.06h4.46l-.27.22c0-.75-.16-1.32-.47-1.71-.31-.39-.77-.59-1.37-.59-.66,0-1.17.23-1.53.7-.36.47-.54,1.13-.54,1.97v.21c0,.87.22,1.53.65,1.96.43.43,1.04.65,1.83.65.46,0,.89-.06,1.29-.18.4-.12.78-.32,1.14-.6l.59,1.34c-.38.31-.84.55-1.38.72-.53.17-1.1.26-1.7.26Z"/>
          <path class="cls-3" d="m78.79,164.99v-6.51h-2.77v-1.57h7.54v1.57h-2.78v6.51h-1.98Z"/>
          <path class="cls-3" d="m84.79,164.99v-8.08h1.98v3.17h3.65v-3.17h1.98v8.08h-1.98v-3.38h-3.65v3.38h-1.98Z"/>
          <path class="cls-3" d="m98.38,165.15c-.83,0-1.55-.17-2.16-.51-.61-.34-1.08-.83-1.42-1.46-.34-.63-.5-1.38-.5-2.24s.17-1.61.5-2.23c.34-.62.81-1.11,1.42-1.45.61-.34,1.33-.51,2.16-.51s1.55.17,2.17.51,1.09.82,1.42,1.45c.34.62.5,1.37.5,2.23s-.17,1.61-.5,2.24c-.34.63-.81,1.11-1.42,1.46s-1.34.51-2.17.51Zm0-1.54c.63,0,1.13-.22,1.5-.66.37-.44.56-1.11.56-2.01s-.19-1.56-.56-2c-.37-.44-.87-.66-1.5-.66s-1.13.22-1.5.66-.56,1.1-.56,2,.19,1.57.56,2.01c.37.44.88.66,1.5.66Z"/>
          <path class="cls-3" d="m108.34,165.15c-1.35,0-2.42-.37-3.18-1.12-.77-.75-1.15-1.77-1.15-3.07,0-.84.17-1.58.5-2.21.33-.63.79-1.12,1.38-1.47.59-.35,1.28-.53,2.07-.53s1.43.17,1.95.5c.52.33.92.79,1.19,1.39.27.6.41,1.3.41,2.1v.53h-5.89v-1.06h4.46l-.27.22c0-.75-.16-1.32-.47-1.71-.31-.39-.77-.59-1.37-.59-.66,0-1.17.23-1.53.7-.36.47-.54,1.13-.54,1.97v.21c0,.87.22,1.53.65,1.96.43.43,1.04.65,1.83.65.46,0,.89-.06,1.29-.18.4-.12.78-.32,1.14-.6l.59,1.34c-.38.31-.84.55-1.38.72-.53.17-1.1.26-1.7.26Z"/>
        </g>
        <g>
          <path class="cls-3" d="m45.35,216.19v-2.64h-9.71v-11.28h2.03v9.58h5.79v-9.58h2.05v9.58h1.65v4.34h-1.81Z"/>
          <path class="cls-3" d="m48.67,213.55v-8.08h4.3c1.01,0,1.75.18,2.22.55.47.37.7.89.7,1.56,0,.51-.17.94-.51,1.28s-.79.55-1.36.64v-.22c.69.04,1.23.25,1.6.61.37.36.56.83.56,1.41,0,.69-.27,1.24-.8,1.65-.53.41-1.29.61-2.27.61h-4.45Zm1.86-4.74h2.21c.43,0,.76-.09.99-.28.23-.19.35-.45.35-.79s-.12-.6-.35-.78c-.23-.18-.57-.27-.99-.27h-2.21v2.13Zm0,3.5h2.38c.47,0,.83-.1,1.08-.29.25-.19.38-.47.38-.85s-.13-.66-.38-.85c-.25-.19-.61-.29-1.08-.29h-2.38v2.27Z"/>
          <path class="cls-3" d="m57.66,213.55v-2.22h2.24v2.22h-2.24Z"/>
          <path class="cls-3" d="m70.35,213.71c-1.42,0-2.52-.49-3.29-1.47-.77-.98-1.16-2.36-1.16-4.13,0-1.28.2-2.37.59-3.26.39-.89.96-1.57,1.69-2.04.73-.47,1.61-.7,2.63-.7.61,0,1.21.11,1.81.33.6.22,1.11.53,1.54.94l-.69,1.54c-.39-.36-.82-.63-1.28-.81-.46-.18-.92-.26-1.39-.26-.96,0-1.69.33-2.19.98-.5.65-.75,1.62-.75,2.91v1.2h-.19c.08-.54.27-1.01.54-1.4.28-.39.63-.69,1.07-.9s.92-.31,1.46-.31c.66,0,1.25.15,1.76.46.51.31.91.74,1.21,1.28.29.54.44,1.17.44,1.87s-.16,1.37-.49,1.94-.77,1.02-1.34,1.34c-.57.33-1.22.49-1.97.49Zm-.11-1.63c.39,0,.74-.08,1.04-.26.3-.17.53-.41.7-.73.17-.31.25-.67.25-1.08s-.08-.78-.25-1.09c-.17-.31-.4-.55-.7-.73-.3-.18-.65-.26-1.04-.26s-.74.09-1.04.26c-.3.18-.53.42-.7.73-.17.31-.26.67-.26,1.09s.09.77.26,1.08c.17.31.4.56.7.73.3.17.65.26,1.04.26Z"/>
          <path class="cls-3" d="m79.54,213.71c-1.32,0-2.34-.5-3.06-1.51-.71-1.01-1.07-2.45-1.07-4.31s.36-3.32,1.07-4.3c.71-.98,1.73-1.47,3.06-1.47s2.35.49,3.06,1.47,1.06,2.41,1.06,4.29-.35,3.32-1.06,4.33-1.73,1.51-3.06,1.51Zm0-1.7c.73,0,1.26-.33,1.62-1,.35-.67.53-1.71.53-3.14s-.18-2.47-.53-3.11c-.35-.65-.89-.97-1.62-.97s-1.25.32-1.61.97c-.36.65-.54,1.68-.54,3.11s.18,2.48.54,3.14c.36.67.89,1,1.61,1Z"/>
          <path class="cls-3" d="m89.14,213.71c-1.32,0-2.34-.5-3.06-1.51-.71-1.01-1.07-2.45-1.07-4.31s.36-3.32,1.07-4.3c.71-.98,1.73-1.47,3.06-1.47s2.35.49,3.06,1.47,1.06,2.41,1.06,4.29-.36,3.32-1.06,4.33-1.73,1.51-3.06,1.51Zm0-1.7c.73,0,1.26-.33,1.62-1,.35-.67.53-1.71.53-3.14s-.18-2.47-.53-3.11c-.35-.65-.89-.97-1.62-.97s-1.25.32-1.61.97c-.36.65-.54,1.68-.54,3.11s.18,2.48.54,3.14c.36.67.89,1,1.61,1Z"/>
          <path class="cls-3" d="m102.55,213.71c-.7,0-1.33-.17-1.86-.5-.54-.34-.96-.82-1.26-1.45-.3-.63-.45-1.38-.45-2.26s.15-1.62.45-2.25c.3-.62.72-1.1,1.26-1.44.54-.34,1.16-.5,1.86-.5s1.27.16,1.78.49c.52.33.86.77,1.03,1.32h-.21v-5.34h2v11.78h-1.97v-1.71h.19c-.17.58-.51,1.03-1.03,1.37-.52.34-1.12.5-1.8.5Zm.56-1.54c.63,0,1.14-.22,1.52-.66.38-.44.58-1.11.58-2.01s-.19-1.56-.58-2c-.38-.44-.89-.66-1.52-.66s-1.14.22-1.53.66-.58,1.1-.58,2,.19,1.57.58,2.01c.39.44.9.66,1.53.66Z"/>
          <path class="cls-3" d="m109.34,217.01v-9.52c0-.33-.01-.67-.03-1.01s-.05-.68-.1-1.01h1.94l.18,1.7h-.18c.16-.57.5-1.02,1.02-1.35s1.12-.5,1.8-.5,1.34.17,1.87.5.95.82,1.25,1.44.45,1.37.45,2.25-.15,1.63-.45,2.26-.71,1.11-1.25,1.45c-.53.34-1.16.5-1.87.5-.67,0-1.26-.17-1.78-.5-.51-.33-.85-.77-1.02-1.33h.18v5.12h-2Zm4.06-4.83c.64,0,1.15-.22,1.54-.66.38-.44.58-1.11.58-2.01s-.19-1.56-.58-2c-.38-.44-.9-.66-1.54-.66s-1.14.22-1.52.66-.58,1.1-.58,2,.19,1.57.58,2.01c.38.44.89.66,1.52.66Z"/>
          <path class="cls-3" d="m119.14,203.95v-1.95h2.22v1.95h-2.22Zm.11,9.6v-8.08h2v8.08h-2Z"/>
        </g>
        <g>
          <path class="cls-3" d="m52.89,74.6v-1.66l.51.38h-.45c-1.12,0-2.09-.19-2.9-.58-.81-.38-1.43-.94-1.86-1.66-.43-.72-.65-1.59-.65-2.62,0-1.56.47-2.75,1.42-3.59.94-.84,2.27-1.26,3.99-1.26h.45l-.51.38v-1.57h2.05v1.57l-.51-.38h.45c1.72,0,3.05.42,4,1.26.95.84,1.42,2.03,1.42,3.59,0,1.02-.22,1.9-.66,2.62-.44.72-1.06,1.27-1.86,1.66-.81.38-1.77.58-2.9.58h-.45l.51-.38v1.66h-2.05Zm.02-2.48v-7.3l.43.35h-.59c-.94,0-1.69.27-2.26.82-.57.55-.86,1.37-.86,2.47,0,.71.13,1.32.4,1.81s.63.86,1.1,1.11c.47.25,1.01.38,1.62.38h.59l-.43.35Zm2.03,0l-.45-.35h.61c.61,0,1.15-.12,1.62-.38.47-.25.83-.62,1.1-1.11.26-.49.39-1.09.39-1.81,0-1.1-.28-1.92-.85-2.47-.57-.55-1.32-.82-2.26-.82h-.61l.45-.35v7.3Z"/>
          <path class="cls-3" d="m66.03,74.36c-.83,0-1.55-.17-2.16-.51s-1.08-.83-1.42-1.46c-.34-.63-.5-1.38-.5-2.24s.17-1.61.5-2.23.81-1.11,1.42-1.45,1.33-.51,2.16-.51,1.55.17,2.17.51c.61.34,1.09.82,1.42,1.45s.5,1.37.5,2.23-.17,1.61-.5,2.24c-.34.63-.81,1.11-1.42,1.46-.61.34-1.34.51-2.17.51Zm0-1.54c.63,0,1.13-.22,1.5-.66.37-.44.56-1.11.56-2.01s-.19-1.56-.56-2c-.37-.44-.88-.66-1.5-.66s-1.13.22-1.5.66c-.37.44-.56,1.1-.56,2s.19,1.57.56,2.01c.37.44.87.66,1.5.66Z"/>
          <path class="cls-3" d="m72.07,77.66v-9.52c0-.33-.01-.67-.03-1.01s-.05-.68-.1-1.01h1.94l.18,1.7h-.18c.16-.57.5-1.02,1.02-1.35.52-.34,1.12-.5,1.8-.5s1.34.17,1.87.5c.53.34.95.82,1.25,1.44s.45,1.37.45,2.25-.15,1.63-.45,2.26-.71,1.11-1.25,1.45c-.53.34-1.16.5-1.87.5-.67,0-1.26-.17-1.78-.5-.51-.33-.85-.77-1.02-1.33h.18v5.12h-2Zm4.06-4.83c.64,0,1.15-.22,1.54-.66.38-.44.58-1.11.58-2.01s-.19-1.56-.58-2c-.38-.44-.9-.66-1.54-.66s-1.14.22-1.52.66c-.38.44-.58,1.1-.58,2s.19,1.57.58,2.01c.38.44.89.66,1.52.66Z"/>
          <path class="cls-3" d="m82.15,74.2v-8.08h1.66l2.78,4.83,2.78-4.83h1.66v8.08h-1.76v-5.84h.37l-2.59,4.53h-.93l-2.59-4.53h.37v5.84h-1.76Z"/>
          <path class="cls-3" d="m96.51,74.36c-.7,0-1.32-.17-1.86-.5-.53-.34-.95-.82-1.25-1.45s-.45-1.38-.45-2.26.15-1.62.45-2.25.71-1.1,1.25-1.44,1.15-.5,1.86-.5,1.28.17,1.8.5.86.79,1.03,1.35h-.18l.18-1.7h1.92c-.03.33-.06.67-.09,1.01-.03.34-.04.68-.04,1.01v6.06h-1.98l-.02-1.66h.19c-.17.55-.52,1-1.04,1.33s-1.11.5-1.78.5Zm.56-1.54c.63,0,1.14-.22,1.52-.66.38-.44.58-1.11.58-2.01s-.19-1.56-.58-2c-.38-.44-.89-.66-1.52-.66s-1.14.22-1.52.66c-.38.44-.58,1.1-.58,2s.19,1.57.57,2.01c.38.44.89.66,1.53.66Z"/>
          <path class="cls-3" d="m105.21,74.2v-6.51h-2.77v-1.57h7.54v1.57h-2.78v6.51h-1.98Z"/>
        </g>
        <g>
          <path class="cls-3" d="m226.44,74.2l5.1-11.28h1.73l5.17,11.28h-2.1l-1.38-3.17.83.56h-6.77l.86-.56-1.38,3.17h-2.08Zm5.95-9.07l-2.26,5.34-.42-.5h5.38l-.34.5-2.3-5.34h-.06Z"/>
          <path class="cls-3" d="m244.13,74.2v-2.21h-5.04v-1.44l5.36-7.63h1.66v7.5h1.62v1.57h-1.62v2.21h-1.98Zm0-3.78v-5.07h.38l-3.89,5.55v-.48h3.5Z"/>
        </g>
        <g>
          <path class="cls-3" d="m229.52,120.07v-2.34h-5.22v-1.18l5.49-7.76h1.34v7.65h1.68v1.3h-1.68v2.34h-1.62Zm0-3.63v-5.68h.37l-4.29,6.08v-.4h3.92Z"/>
          <path class="cls-3" d="m238.72,123.53v-9.58c0-.31-.01-.63-.04-.95-.03-.33-.06-.65-.09-.98h1.57l.16,1.82h-.18c.17-.61.51-1.09,1.03-1.44s1.13-.53,1.85-.53,1.34.17,1.87.5c.53.34.95.81,1.24,1.43.29.62.44,1.37.44,2.24s-.15,1.61-.44,2.24c-.29.63-.71,1.11-1.24,1.44-.53.33-1.16.5-1.87.5s-1.31-.17-1.83-.52-.86-.82-1.03-1.42h.18v5.25h-1.62Zm3.9-4.58c.71,0,1.27-.25,1.69-.74s.63-1.22.63-2.18-.21-1.68-.63-2.17c-.42-.48-.98-.73-1.69-.73s-1.27.24-1.69.73c-.42.49-.63,1.21-.63,2.17s.21,1.69.63,2.18.98.74,1.69.74Z"/>
          <path class="cls-3" d="m248.06,120.07v-1.9h1.9v1.9h-1.9Z"/>
        </g>
        <g>
          <path class="cls-3" d="m228.37,165.17c-1.3,0-2.31-.28-3.04-.83s-1.09-1.33-1.09-2.32c0-.79.24-1.44.72-1.96.48-.52,1.11-.83,1.89-.94v.29c-.7-.15-1.27-.47-1.69-.98s-.63-1.11-.63-1.82c0-.94.34-1.67,1.02-2.21.68-.53,1.62-.8,2.82-.8s2.15.27,2.83.8c.68.53,1.02,1.27,1.02,2.21,0,.71-.2,1.33-.6,1.83-.4.51-.95.82-1.64.95v-.27c.77.11,1.38.42,1.84.94.46.52.69,1.17.69,1.96,0,.99-.36,1.77-1.09,2.32-.73.55-1.74.83-3.06.83Zm0-1.31c.86,0,1.51-.16,1.94-.49.43-.33.64-.81.64-1.46s-.21-1.14-.64-1.46c-.43-.32-1.07-.48-1.94-.48s-1.51.16-1.94.48c-.43.32-.64.81-.64,1.46s.22,1.14.65,1.46c.43.33,1.07.49,1.93.49Zm0-5.2c.75,0,1.31-.17,1.7-.5s.58-.8.58-1.38-.19-1.03-.58-1.36c-.39-.33-.96-.5-1.7-.5s-1.3.17-1.7.5c-.39.33-.59.78-.59,1.36s.2,1.05.59,1.38.96.5,1.7.5Z"/>
          <path class="cls-3" d="m238.72,168.48v-9.58c0-.31-.01-.63-.04-.95-.03-.33-.06-.65-.09-.98h1.57l.16,1.82h-.18c.17-.61.51-1.09,1.03-1.44s1.13-.53,1.85-.53,1.34.17,1.87.5c.53.34.95.81,1.24,1.43.29.62.44,1.37.44,2.24s-.15,1.61-.44,2.24c-.29.63-.71,1.11-1.24,1.44-.53.33-1.16.5-1.87.5s-1.31-.17-1.83-.52-.86-.82-1.03-1.42h.18v5.25h-1.62Zm3.9-4.58c.71,0,1.27-.25,1.69-.74s.63-1.22.63-2.18-.21-1.68-.63-2.17c-.42-.48-.98-.73-1.69-.73s-1.27.24-1.69.73c-.42.49-.63,1.21-.63,2.17s.21,1.69.63,2.18.98.74,1.69.74Z"/>
          <path class="cls-3" d="m248.06,165.03v-1.9h1.9v1.9h-1.9Z"/>
        </g>
        <g>
          <path class="cls-3" d="m220.69,211.94v-1.39h2.62v-8.48h.83l-3.2,1.95v-1.6l2.83-1.76h1.2v9.89h2.46v1.39h-6.75Z"/>
          <path class="cls-3" d="m233.33,212.09c-.49,0-.98-.05-1.46-.16s-.93-.26-1.34-.46c-.42-.2-.78-.43-1.09-.71l.58-1.26c.51.4,1.04.69,1.58.89.54.2,1.11.3,1.7.3.76,0,1.35-.2,1.78-.59s.65-.92.65-1.58-.21-1.23-.62-1.66c-.41-.42-.98-.63-1.7-.63-.5,0-.96.1-1.37.3s-.77.51-1.08.93h-1.15v-6.78h6.83v1.39h-5.25v4.06h-.42c.29-.41.68-.72,1.16-.94.49-.22,1.03-.34,1.64-.34.72,0,1.35.15,1.89.45.53.3.95.71,1.24,1.25.29.53.44,1.16.44,1.89s-.16,1.36-.49,1.91c-.33.55-.79.98-1.39,1.29-.6.31-1.31.46-2.14.46Z"/>
          <path class="cls-3" d="m243.52,215.4v-9.58c0-.31-.01-.63-.04-.95-.03-.33-.06-.65-.09-.98h1.57l.16,1.82h-.18c.17-.61.51-1.09,1.03-1.44s1.13-.53,1.85-.53,1.34.17,1.87.5.95.81,1.24,1.43c.29.62.44,1.37.44,2.24s-.15,1.61-.44,2.24c-.29.63-.71,1.11-1.24,1.44s-1.16.5-1.87.5-1.32-.17-1.83-.52c-.52-.35-.86-.82-1.03-1.42h.18v5.25h-1.62Zm3.9-4.58c.7,0,1.27-.25,1.69-.74s.63-1.22.63-2.18-.21-1.68-.63-2.17c-.42-.48-.98-.73-1.69-.73s-1.27.24-1.69.73c-.42.49-.63,1.21-.63,2.17s.21,1.69.63,2.18.98.74,1.69.74Z"/>
          <path class="cls-3" d="m252.86,211.94v-1.9h1.9v1.9h-1.9Z"/>
        </g>
        <g>
          <path class="cls-3" d="m32.2,254.63v-3.9h1.17c.55-.67.96-1.59,1.23-2.74.27-1.16.4-2.58.4-4.28v-2.93h7.92v9.95h1.65v3.9h-1.46v-2.58h-9.42v2.58h-1.49Zm2.85-3.9h6.22v-8.64h-4.74v1.74c0,1.65-.12,3.03-.36,4.14-.24,1.1-.62,2.02-1.13,2.76Z"/>
          <path class="cls-3" d="m46.15,252.05v-8.06h1.6v2.82h2.29c1.06,0,1.85.22,2.38.66.53.44.8,1.09.8,1.93,0,.54-.12,1.02-.37,1.42-.25.4-.61.71-1.08.92s-1.05.32-1.74.32h-3.89Zm1.6-1.1h2.11c.61,0,1.07-.13,1.38-.38.32-.25.47-.64.47-1.16s-.16-.9-.47-1.14c-.31-.24-.78-.36-1.38-.36h-2.11v3.04Zm6.61,1.1v-8.06h1.6v8.06h-1.6Z"/>
          <path class="cls-3" d="m58.44,255.5v-9.58c0-.31-.01-.63-.04-.95-.03-.33-.06-.65-.09-.98h1.57l.16,1.82h-.18c.17-.61.51-1.09,1.03-1.44.52-.35,1.13-.53,1.85-.53s1.34.17,1.87.5.95.81,1.24,1.43c.29.62.44,1.37.44,2.24s-.15,1.61-.44,2.24c-.29.63-.71,1.11-1.24,1.44s-1.16.5-1.87.5-1.31-.17-1.83-.52-.86-.82-1.03-1.42h.18v5.25h-1.62Zm3.9-4.58c.7,0,1.27-.25,1.69-.74.42-.49.63-1.22.63-2.18s-.21-1.68-.63-2.17c-.42-.48-.98-.73-1.69-.73s-1.27.24-1.69.73c-.42.49-.63,1.21-.63,2.17s.21,1.69.63,2.18c.42.49.98.74,1.69.74Z"/>
          <path class="cls-3" d="m71.83,252.19c-.8,0-1.49-.17-2.08-.5-.59-.34-1.04-.82-1.36-1.44s-.48-1.37-.48-2.23.16-1.61.48-2.23.77-1.1,1.36-1.44c.59-.34,1.28-.5,2.08-.5s1.5.17,2.09.5,1.05.82,1.38,1.44c.33.62.49,1.37.49,2.23s-.16,1.61-.49,2.23c-.33.62-.78,1.1-1.38,1.44s-1.29.5-2.09.5Zm0-1.26c.7,0,1.26-.25,1.68-.74s.62-1.22.62-2.18-.21-1.68-.62-2.17c-.42-.48-.98-.73-1.68-.73s-1.25.24-1.66.73c-.42.49-.62,1.21-.62,2.17s.21,1.69.62,2.18c.41.49.97.74,1.67.74Z"/>
          <path class="cls-3" d="m77.78,252.05v-8.06h1.6v3.3h1.39l2.51-3.3h1.76l-3.01,3.97-.4-.51c.31.03.58.11.8.23s.44.3.66.54c.21.23.43.54.66.93l1.68,2.91h-1.73l-1.44-2.46c-.16-.28-.32-.49-.46-.65-.15-.15-.32-.26-.51-.32-.19-.06-.43-.09-.7-.09h-1.2v3.52h-1.6Z"/>
          <path class="cls-3" d="m90.13,252.19c-.8,0-1.49-.17-2.08-.5-.59-.34-1.04-.82-1.36-1.44s-.48-1.37-.48-2.23.16-1.61.48-2.23.77-1.1,1.36-1.44c.59-.34,1.28-.5,2.08-.5s1.5.17,2.09.5,1.05.82,1.38,1.44c.33.62.49,1.37.49,2.23s-.16,1.61-.49,2.23c-.33.62-.78,1.1-1.38,1.44s-1.29.5-2.09.5Zm0-1.26c.7,0,1.26-.25,1.68-.74s.62-1.22.62-2.18-.21-1.68-.62-2.17c-.42-.48-.98-.73-1.68-.73s-1.25.24-1.66.73c-.42.49-.62,1.21-.62,2.17s.21,1.69.62,2.18c.41.49.97.74,1.67.74Z"/>
          <path class="cls-3" d="m95.59,252.26l-.54-1.28c.36-.15.67-.34.92-.57.25-.23.45-.52.59-.89.14-.36.25-.81.31-1.34.06-.53.1-1.18.1-1.94v-2.26h6.08v8.06h-1.6v-6.8h-2.99v1.04c0,1.22-.1,2.22-.29,3.02-.19.8-.5,1.43-.92,1.9-.42.46-.97.81-1.66,1.05Z"/>
          <path class="cls-3" d="m109.65,248.3v-1.3h4.69v1.3h-4.69Z"/>
          <path class="cls-3" d="m124.69,252.19c-.49,0-.98-.05-1.46-.16-.48-.11-.93-.26-1.34-.46-.42-.2-.78-.43-1.09-.71l.58-1.26c.51.4,1.04.69,1.58.89.54.2,1.11.3,1.7.3.76,0,1.35-.2,1.78-.59s.65-.92.65-1.58-.21-1.23-.62-1.66c-.41-.42-.98-.63-1.7-.63-.5,0-.96.1-1.37.3s-.77.51-1.08.93h-1.15v-6.78h6.83v1.39h-5.25v4.06h-.42c.29-.41.67-.72,1.16-.94s1.03-.34,1.64-.34c.72,0,1.35.15,1.89.45.53.3.95.71,1.24,1.25.29.53.44,1.16.44,1.89s-.16,1.36-.49,1.91c-.33.55-.79.98-1.39,1.29-.6.31-1.31.46-2.14.46Z"/>
          <path class="cls-3" d="m134.13,252.19c-1.3,0-2.3-.5-3-1.5-.7-1-1.05-2.43-1.05-4.3s.35-3.34,1.05-4.31,1.7-1.46,3-1.46,2.31.49,3.01,1.46,1.04,2.41,1.04,4.3-.35,3.31-1.05,4.31c-.7,1-1.7,1.5-3,1.5Zm0-1.39c.82,0,1.43-.36,1.83-1.07.4-.71.6-1.83.6-3.34s-.2-2.64-.6-3.34c-.4-.7-1.01-1.05-1.83-1.05s-1.42.35-1.82,1.05-.61,1.81-.61,3.32.21,2.65.62,3.36c.41.71,1.02,1.07,1.82,1.07Z"/>
          <path class="cls-3" d="m140.15,252.05v-8.06h1.6v3.3h1.39l2.51-3.3h1.76l-3.01,3.97-.4-.51c.31.03.58.11.8.23s.44.3.66.54c.21.23.43.54.66.93l1.68,2.91h-1.73l-1.44-2.46c-.16-.28-.32-.49-.46-.65-.15-.15-.32-.26-.51-.32-.19-.06-.43-.09-.7-.09h-1.2v3.52h-1.6Z"/>
          <path class="cls-3" d="m148.71,252.05v-1.9h1.9v1.9h-1.9Z"/>
          <path class="cls-3" d="m153.59,252.96h-1.36l4.19-12.91h1.36l-4.19,12.91Z"/>
          <path class="cls-3" d="m157.67,252.05v-8.06h1.52v6.8h3.15v-6.8h1.52v6.8h3.14v-6.8h1.54v8.06h-10.86Z"/>
          <path class="cls-3" d="m172.69,252.05v-6.77h-2.85v-1.3h7.31v1.3h-2.86v6.77h-1.6Z"/>
          <path class="cls-3" d="m33,271.5l-.78-1.26c.45-.23.85-.52,1.19-.85.35-.33.63-.75.86-1.26.23-.51.4-1.15.52-1.92.12-.77.18-1.71.18-2.82v-3.42h7.94v11.28h-1.65v-9.9h-4.74v2.45c0,1.13-.08,2.12-.23,2.96-.15.84-.38,1.57-.68,2.18-.3.61-.66,1.13-1.1,1.54-.43.41-.94.75-1.51,1.03Z"/>
          <path class="cls-3" d="m52.42,271.39c-1.1,0-2-.32-2.69-.97-.69-.65-1.09-1.54-1.2-2.7h-1.52v3.52h-1.57v-8.06h1.57v3.28h1.54c.15-1.08.56-1.92,1.25-2.52.68-.6,1.56-.9,2.62-.9.8,0,1.5.17,2.09.5s1.05.81,1.38,1.43.49,1.37.49,2.24-.16,1.61-.49,2.23-.78,1.1-1.38,1.44-1.29.5-2.09.5Zm0-1.25c.7,0,1.27-.25,1.69-.74.42-.49.63-1.22.63-2.19s-.21-1.69-.63-2.18c-.42-.49-.98-.74-1.69-.74s-1.27.25-1.69.74-.63,1.22-.63,2.18.21,1.7.63,2.19.98.74,1.69.74Z"/>
          <path class="cls-3" d="m58.39,271.25v-8.06h4.06c.97,0,1.69.18,2.15.55.46.37.7.89.7,1.56,0,.52-.17.96-.52,1.3-.35.34-.8.55-1.37.62v-.21c.67.03,1.2.23,1.58.59s.58.83.58,1.41c0,.69-.26,1.24-.78,1.64s-1.25.6-2.2.6h-4.21Zm1.52-4.62h2.38c.48,0,.85-.11,1.12-.32s.4-.51.4-.88-.13-.68-.4-.89-.64-.31-1.12-.31h-2.38v2.4Zm0,3.58h2.56c.52,0,.92-.11,1.2-.33.28-.22.42-.54.42-.95s-.14-.73-.42-.94c-.28-.21-.68-.32-1.2-.32h-2.56v2.54Z"/>
          <path class="cls-3" d="m71.27,271.39c-1.3,0-2.33-.37-3.07-1.1-.75-.74-1.12-1.75-1.12-3.06,0-.84.16-1.58.49-2.21.33-.63.78-1.12,1.36-1.46.58-.35,1.26-.52,2.02-.52s1.39.16,1.9.48.9.77,1.17,1.35c.27.58.4,1.27.4,2.06v.51h-6.08v-.93h4.98l-.27.21c0-.8-.18-1.42-.54-1.86-.36-.44-.87-.66-1.54-.66-.75,0-1.32.26-1.73.78-.41.52-.61,1.23-.61,2.14v.16c0,.95.23,1.66.7,2.14.46.48,1.12.72,1.98.72.47,0,.91-.07,1.32-.2.41-.13.8-.35,1.18-.66l.53,1.1c-.37.33-.83.58-1.36.76-.53.18-1.1.26-1.7.26Z"/>
          <path class="cls-3" d="m76.47,274.71v-9.58c0-.31-.01-.63-.04-.95-.03-.33-.06-.65-.09-.98h1.57l.16,1.82h-.18c.17-.61.51-1.09,1.03-1.44.52-.35,1.13-.53,1.85-.53s1.34.17,1.87.5.95.81,1.24,1.43c.29.62.44,1.37.44,2.24s-.15,1.61-.44,2.24c-.29.63-.71,1.11-1.24,1.44s-1.16.5-1.87.5-1.31-.17-1.83-.52-.86-.82-1.03-1.42h.18v5.25h-1.62Zm3.9-4.58c.7,0,1.27-.25,1.69-.74.42-.49.63-1.22.63-2.18s-.21-1.68-.63-2.17c-.42-.48-.98-.73-1.69-.73s-1.27.24-1.69.73c-.42.49-.63,1.21-.63,2.17s.21,1.69.63,2.18c.42.49.98.74,1.69.74Z"/>
          <path class="cls-3" d="m89.94,271.39c-.81,0-1.52-.17-2.12-.5-.6-.34-1.07-.82-1.39-1.46s-.49-1.39-.49-2.26.17-1.6.5-2.22c.33-.62.79-1.09,1.39-1.42.6-.33,1.3-.49,2.11-.49.52,0,1.03.09,1.52.26.49.18.9.42,1.22.74l-.53,1.14c-.3-.29-.63-.5-1.01-.65-.37-.14-.74-.22-1.09-.22-.77,0-1.37.25-1.81.74s-.66,1.2-.66,2.13.22,1.66.66,2.16,1.04.75,1.81.75c.34,0,.7-.07,1.07-.2.37-.13.71-.35,1.02-.65l.53,1.14c-.33.32-.74.57-1.24.74-.5.18-.99.26-1.5.26Z"/>
          <path class="cls-3" d="m98.69,267.5v-1.3h4.69v1.3h-4.69Z"/>
          <path class="cls-3" d="m110.69,271.25v-1.39h2.62v-8.48h.83l-3.2,1.95v-1.6l2.83-1.76h1.2v9.89h2.46v1.39h-6.75Z"/>
          <path class="cls-3" d="m119.65,274.71v-9.58c0-.31-.01-.63-.04-.95-.03-.33-.06-.65-.09-.98h1.57l.16,1.82h-.18c.17-.61.51-1.09,1.03-1.44.52-.35,1.13-.53,1.85-.53s1.34.17,1.87.5.95.81,1.24,1.43c.29.62.44,1.37.44,2.24s-.15,1.61-.44,2.24c-.29.63-.71,1.11-1.24,1.44s-1.16.5-1.87.5-1.31-.17-1.83-.52-.86-.82-1.03-1.42h.18v5.25h-1.62Zm3.9-4.58c.7,0,1.27-.25,1.69-.74.42-.49.63-1.22.63-2.18s-.21-1.68-.63-2.17c-.42-.48-.98-.73-1.69-.73s-1.27.24-1.69.73c-.42.49-.63,1.21-.63,2.17s.21,1.69.63,2.18c.42.49.98.74,1.69.74Z"/>
          <path class="cls-3" d="m129,271.25v-1.9h1.9v1.9h-1.9Z"/>
          <path class="cls-3" d="m133.88,272.16h-1.36l4.19-12.91h1.36l-4.19,12.91Z"/>
          <path class="cls-3" d="m137.96,271.25v-8.06h1.52v6.8h3.15v-6.8h1.52v6.8h3.14v-6.8h1.54v8.06h-10.86Z"/>
          <path class="cls-3" d="m152.98,271.25v-6.77h-2.85v-1.3h7.31v1.3h-2.86v6.77h-1.6Z"/>
          <path class="cls-3" d="m38.36,290.59c-1.15,0-2.13-.23-2.94-.7-.81-.47-1.43-1.14-1.86-2.01-.43-.87-.65-1.9-.65-3.08s.22-2.21.65-3.07c.43-.86,1.05-1.53,1.86-2,.81-.47,1.79-.7,2.94-.7.8,0,1.51.12,2.14.35.63.23,1.18.58,1.65,1.02l-.58,1.33c-.51-.44-1.01-.75-1.5-.94-.49-.19-1.05-.29-1.69-.29-1.22,0-2.14.37-2.78,1.12s-.96,1.81-.96,3.18.32,2.44.96,3.19,1.57,1.13,2.78,1.13c.64,0,1.2-.1,1.69-.29.49-.19.98-.51,1.5-.96l.58,1.33c-.47.45-1.02.79-1.65,1.03-.63.24-1.34.36-2.14.36Z"/>
          <path class="cls-3" d="m44.13,290.45v-8.06h1.6v3.3h1.39l2.51-3.3h1.76l-3.01,3.97-.4-.51c.31.03.58.11.8.23s.44.3.66.54c.21.23.43.54.66.93l1.68,2.91h-1.73l-1.44-2.46c-.16-.28-.32-.49-.46-.65-.15-.15-.32-.26-.51-.32-.19-.06-.43-.09-.7-.09h-1.2v3.52h-1.6Z"/>
          <path class="cls-3" d="m53.03,293.9v-9.58c0-.31-.01-.63-.04-.95-.03-.33-.06-.65-.09-.98h1.57l.16,1.82h-.18c.17-.61.51-1.09,1.03-1.44.52-.35,1.13-.53,1.85-.53s1.34.17,1.87.5.95.81,1.24,1.43c.29.62.44,1.37.44,2.24s-.15,1.61-.44,2.24c-.29.63-.71,1.11-1.24,1.44s-1.16.5-1.87.5-1.31-.17-1.83-.52-.86-.82-1.03-1.42h.18v5.25h-1.62Zm3.9-4.58c.7,0,1.27-.25,1.69-.74.42-.49.63-1.22.63-2.18s-.21-1.68-.63-2.17c-.42-.48-.98-.73-1.69-.73s-1.27.24-1.69.73c-.42.49-.63,1.21-.63,2.17s.21,1.69.63,2.18c.42.49.98.74,1.69.74Z"/>
          <path class="cls-3" d="m62.61,294.08l-.38-1.31c.5-.11.92-.23,1.26-.38s.62-.34.84-.58c.22-.24.42-.55.58-.92l.4-.94-.03.66-3.5-8.21h1.73l2.72,6.72h-.43l2.72-6.72h1.66l-3.7,8.64c-.24.53-.49.98-.75,1.34s-.55.66-.86.88c-.31.22-.65.4-1.02.53s-.78.23-1.22.3Z"/>
          <path class="cls-3" d="m71.56,290.45v-8.06h5.81v1.3h-4.19v6.77h-1.62Z"/>
          <path class="cls-3" d="m78.18,290.66l-.54-1.28c.36-.15.67-.34.92-.57.25-.23.45-.52.59-.89.14-.36.25-.81.31-1.34.06-.53.1-1.18.1-1.94v-2.26h6.08v8.06h-1.6v-6.8h-2.99v1.04c0,1.22-.1,2.22-.29,3.02-.19.8-.5,1.43-.92,1.9-.42.46-.97.81-1.66,1.05Z"/>
          <path class="cls-3" d="m91.86,290.59c-1.3,0-2.33-.37-3.07-1.1-.75-.74-1.12-1.75-1.12-3.06,0-.84.16-1.58.49-2.21.33-.63.78-1.12,1.36-1.46.58-.35,1.26-.52,2.02-.52s1.39.16,1.9.48.9.77,1.17,1.35c.27.58.4,1.27.4,2.06v.51h-6.08v-.93h4.98l-.27.21c0-.8-.18-1.42-.54-1.86-.36-.44-.87-.66-1.54-.66-.75,0-1.32.26-1.73.78-.41.52-.61,1.23-.61,2.14v.16c0,.95.23,1.66.7,2.14.46.48,1.12.72,1.98.72.47,0,.91-.07,1.32-.2.41-.13.8-.35,1.18-.66l.53,1.1c-.37.33-.83.58-1.36.76-.53.18-1.1.26-1.7.26Z"/>
          <path class="cls-3" d="m97,290.45v-8.06h1.6v3.28h4.08v-3.28h1.6v8.06h-1.6v-3.52h-4.08v3.52h-1.6Z"/>
          <path class="cls-3" d="m106.71,290.45v-8.06h1.47v6.51h-.45l4.86-6.51h1.34v8.06h-1.46v-6.53h.46l-4.9,6.53h-1.34Z"/>
          <path class="cls-3" d="m120.16,290.59c-1.3,0-2.33-.37-3.07-1.1-.75-.74-1.12-1.75-1.12-3.06,0-.84.16-1.58.49-2.21.33-.63.78-1.12,1.36-1.46.58-.35,1.26-.52,2.02-.52s1.39.16,1.9.48.9.77,1.17,1.35c.27.58.4,1.27.4,2.06v.51h-6.08v-.93h4.98l-.27.21c0-.8-.18-1.42-.54-1.86-.36-.44-.87-.66-1.54-.66-.75,0-1.32.26-1.73.78-.41.52-.61,1.23-.61,2.14v.16c0,.95.23,1.66.7,2.14.46.48,1.12.72,1.98.72.47,0,.91-.07,1.32-.2.41-.13.8-.35,1.18-.66l.53,1.1c-.37.33-.83.58-1.36.76-.53.18-1.1.26-1.7.26Z"/>
          <path class="cls-3" d="m129.48,286.7v-1.3h4.69v1.3h-4.69Z"/>
          <path class="cls-3" d="m140.88,290.45v-1.23l3.87-4.05c.5-.52.87-1.01,1.12-1.47.25-.46.37-.93.37-1.42,0-.61-.19-1.07-.57-1.38-.38-.31-.93-.46-1.64-.46-.57,0-1.1.1-1.59.3s-.97.51-1.43.93l-.58-1.26c.45-.42,1-.75,1.67-1s1.37-.38,2.12-.38c1.17,0,2.08.27,2.71.8.63.53.95,1.3.95,2.29,0,.7-.17,1.38-.51,2.02-.34.65-.85,1.31-1.54,1.99l-3.34,3.38v-.45h5.86v1.39h-7.47Z"/>
          <path class="cls-3" d="m154.71,293.9v-9.58c0-.31-.01-.63-.04-.95-.03-.33-.06-.65-.09-.98h1.57l.16,1.82h-.18c.17-.61.51-1.09,1.03-1.44.52-.35,1.13-.53,1.85-.53s1.34.17,1.87.5.95.81,1.24,1.43c.29.62.44,1.37.44,2.24s-.15,1.61-.44,2.24c-.29.63-.71,1.11-1.24,1.44s-1.16.5-1.87.5-1.31-.17-1.83-.52-.86-.82-1.03-1.42h.18v5.25h-1.62Zm3.9-4.58c.7,0,1.27-.25,1.69-.74.42-.49.63-1.22.63-2.18s-.21-1.68-.63-2.17c-.42-.48-.98-.73-1.69-.73s-1.27.24-1.69.73c-.42.49-.63,1.21-.63,2.17s.21,1.69.63,2.18c.42.49.98.74,1.69.74Z"/>
          <path class="cls-3" d="m164.05,290.45v-1.9h1.9v1.9h-1.9Z"/>
          <path class="cls-3" d="m168.93,291.36h-1.36l4.19-12.91h1.36l-4.19,12.91Z"/>
          <path class="cls-3" d="m173.01,290.45v-8.06h1.52v6.8h3.15v-6.8h1.52v6.8h3.14v-6.8h1.54v8.06h-10.86Z"/>
          <path class="cls-3" d="m188.04,290.45v-6.77h-2.85v-1.3h7.31v1.3h-2.86v6.77h-1.6Z"/>
        </g>
        <g>
          <path class="cls-3" d="m382.05,74.2l5.1-11.28h1.73l5.17,11.28h-2.1l-1.38-3.17.83.56h-6.77l.86-.56-1.38,3.17h-2.08Zm5.95-9.07l-2.26,5.34-.42-.5h5.38l-.34.5-2.3-5.34h-.06Z"/>
          <path class="cls-3" d="m398.67,74.36c-.78,0-1.53-.11-2.24-.34-.71-.23-1.3-.55-1.76-.95l.67-1.55c.5.38,1.02.67,1.56.85.54.18,1.11.27,1.7.27.73,0,1.27-.14,1.65-.43.37-.29.56-.71.56-1.26s-.18-.94-.55-1.21-.9-.41-1.61-.41h-1.82v-1.65h1.65c.61,0,1.09-.15,1.46-.45.36-.3.54-.71.54-1.23,0-.49-.17-.86-.5-1.12-.34-.26-.82-.38-1.45-.38-1.13,0-2.13.38-2.99,1.15l-.67-1.54c.46-.43,1.03-.76,1.7-.99.68-.23,1.39-.35,2.14-.35,1.17,0,2.09.26,2.76.79.67.53,1,1.26,1,2.2,0,.67-.19,1.25-.57,1.74s-.9.81-1.56.97v-.19c.78.13,1.38.45,1.82.95.43.51.65,1.14.65,1.9,0,1-.37,1.79-1.1,2.38-.74.58-1.74.87-3.02.87Z"/>
        </g>
        <g>
          <path class="cls-3" d="m380.77,120.07l5.54-10.51v.64h-6.18v-1.41h7.68v1.23l-5.22,10.05h-1.82Z"/>
          <path class="cls-3" d="m394.33,123.53v-9.58c0-.31-.01-.63-.04-.95-.03-.33-.06-.65-.09-.98h1.57l.16,1.82h-.18c.17-.61.51-1.09,1.03-1.44s1.13-.53,1.85-.53,1.34.17,1.87.5c.53.34.95.81,1.24,1.43.29.62.44,1.37.44,2.24s-.15,1.61-.44,2.24c-.29.63-.71,1.11-1.24,1.44-.53.33-1.16.5-1.87.5s-1.32-.17-1.83-.52c-.52-.35-.86-.82-1.03-1.42h.18v5.25h-1.62Zm3.9-4.58c.7,0,1.27-.25,1.69-.74.42-.49.63-1.22.63-2.18s-.21-1.68-.63-2.17c-.42-.48-.98-.73-1.69-.73s-1.27.24-1.69.73c-.42.49-.63,1.21-.63,2.17s.21,1.69.63,2.18c.42.49.98.74,1.69.74Z"/>
          <path class="cls-3" d="m403.67,120.07v-1.9h1.9v1.9h-1.9Z"/>
        </g>
        <g>
          <path class="cls-3" d="m376.3,165.03v-1.39h2.62v-8.48h.83l-3.2,1.95v-1.6l2.83-1.76h1.2v9.89h2.46v1.39h-6.75Z"/>
          <path class="cls-3" d="m388.94,165.17c-.49,0-.98-.05-1.46-.16-.48-.11-.93-.26-1.34-.46-.42-.2-.78-.43-1.09-.71l.58-1.26c.51.4,1.04.69,1.58.89.54.2,1.11.3,1.7.3.76,0,1.35-.2,1.78-.59.43-.39.65-.92.65-1.58s-.21-1.23-.62-1.66c-.41-.42-.98-.63-1.7-.63-.5,0-.96.1-1.37.3-.41.2-.77.51-1.08.93h-1.15v-6.78h6.83v1.39h-5.25v4.06h-.42c.29-.41.67-.72,1.16-.94s1.03-.34,1.64-.34c.72,0,1.35.15,1.89.45.53.3.95.71,1.24,1.25.29.53.44,1.16.44,1.89s-.16,1.36-.49,1.91c-.33.55-.79.98-1.39,1.29-.6.31-1.31.46-2.14.46Z"/>
          <path class="cls-3" d="m399.13,168.48v-9.58c0-.31-.01-.63-.04-.95-.03-.33-.06-.65-.09-.98h1.57l.16,1.82h-.18c.17-.61.51-1.09,1.03-1.44s1.13-.53,1.85-.53,1.34.17,1.87.5c.53.34.95.81,1.24,1.43.29.62.44,1.37.44,2.24s-.15,1.61-.44,2.24c-.29.63-.71,1.11-1.24,1.44-.53.33-1.16.5-1.87.5s-1.32-.17-1.83-.52c-.52-.35-.86-.82-1.03-1.42h.18v5.25h-1.62Zm3.9-4.58c.7,0,1.27-.25,1.69-.74.42-.49.63-1.22.63-2.18s-.21-1.68-.63-2.17c-.42-.48-.98-.73-1.69-.73s-1.27.24-1.69.73c-.42.49-.63,1.21-.63,2.17s.21,1.69.63,2.18c.42.49.98.74,1.69.74Z"/>
          <path class="cls-3" d="m408.47,165.03v-1.9h1.9v1.9h-1.9Z"/>
        </g>
        <g>
          <path class="cls-3" d="m375.7,211.94v-1.23l3.87-4.05c.5-.52.87-1.01,1.12-1.47.25-.46.37-.93.37-1.42,0-.61-.19-1.07-.57-1.38-.38-.31-.93-.46-1.64-.46-.57,0-1.1.1-1.59.3s-.97.51-1.43.93l-.58-1.26c.45-.42,1-.75,1.67-1,.67-.25,1.37-.38,2.12-.38,1.17,0,2.08.27,2.71.8.63.53.95,1.3.95,2.29,0,.7-.17,1.38-.51,2.02-.34.65-.85,1.31-1.54,1.99l-3.34,3.38v-.45h5.86v1.39h-7.47Z"/>
          <path class="cls-3" d="m388.94,212.09c-.49,0-.98-.05-1.46-.16-.48-.11-.93-.26-1.34-.46-.42-.2-.78-.43-1.09-.71l.58-1.26c.51.4,1.04.69,1.58.89.54.2,1.11.3,1.7.3.76,0,1.35-.2,1.78-.59.43-.39.65-.92.65-1.58s-.21-1.23-.62-1.66c-.41-.42-.98-.63-1.7-.63-.5,0-.96.1-1.37.3-.41.2-.77.51-1.08.93h-1.15v-6.78h6.83v1.39h-5.25v4.06h-.42c.29-.41.67-.72,1.16-.94s1.03-.34,1.64-.34c.72,0,1.35.15,1.89.45.53.3.95.71,1.24,1.25.29.53.44,1.16.44,1.89s-.16,1.36-.49,1.91c-.33.55-.79.98-1.39,1.29-.6.31-1.31.46-2.14.46Z"/>
          <path class="cls-3" d="m399.13,215.4v-9.58c0-.31-.01-.63-.04-.95-.03-.33-.06-.65-.09-.98h1.57l.16,1.82h-.18c.17-.61.51-1.09,1.03-1.44s1.13-.53,1.85-.53,1.34.17,1.87.5c.53.34.95.81,1.24,1.43.29.62.44,1.37.44,2.24s-.15,1.61-.44,2.24c-.29.63-.71,1.11-1.24,1.44-.53.33-1.16.5-1.87.5s-1.32-.17-1.83-.52c-.52-.35-.86-.82-1.03-1.42h.18v5.25h-1.62Zm3.9-4.58c.7,0,1.27-.25,1.69-.74.42-.49.63-1.22.63-2.18s-.21-1.68-.63-2.17c-.42-.48-.98-.73-1.69-.73s-1.27.24-1.69.73c-.42.49-.63,1.21-.63,2.17s.21,1.69.63,2.18c.42.49.98.74,1.69.74Z"/>
          <path class="cls-3" d="m408.47,211.94v-1.9h1.9v1.9h-1.9Z"/>
        </g>
        <g>
          <path class="cls-3" d="m538.57,74.2l5.1-11.28h1.73l5.17,11.28h-2.1l-1.38-3.17.83.56h-6.77l.86-.56-1.38,3.17h-2.08Zm5.95-9.07l-2.26,5.34-.42-.5h5.38l-.34.5-2.3-5.34h-.06Z"/>
          <path class="cls-3" d="m551.82,74.2v-1.52l3.74-3.9c.47-.49.82-.94,1.04-1.36.22-.42.34-.84.34-1.28,0-.54-.17-.95-.51-1.23-.34-.28-.84-.42-1.49-.42-.52,0-1.02.09-1.5.28-.48.19-.95.48-1.41.87l-.67-1.54c.46-.41,1.03-.73,1.7-.98.68-.25,1.39-.37,2.14-.37,1.22,0,2.15.27,2.8.82s.98,1.32.98,2.34c0,.7-.17,1.37-.5,2.01-.33.63-.84,1.3-1.54,1.99l-3.12,3.12v-.54h5.6v1.71h-7.6Z"/>
        </g>
        <g>
          <path class="cls-3" d="m532.23,120.07v-1.23l3.87-4.05c.5-.52.87-1.01,1.12-1.47.25-.46.37-.93.37-1.42,0-.61-.19-1.07-.57-1.38-.38-.31-.93-.46-1.64-.46-.57,0-1.1.1-1.59.3s-.97.51-1.43.93l-.58-1.26c.45-.42,1-.75,1.67-1,.67-.25,1.37-.38,2.12-.38,1.17,0,2.08.27,2.71.8.63.53.95,1.3.95,2.29,0,.7-.17,1.38-.51,2.02-.34.65-.85,1.31-1.54,1.99l-3.34,3.38v-.45h5.86v1.39h-7.47Z"/>
          <path class="cls-3" d="m545.46,120.22c-.49,0-.98-.05-1.46-.16-.48-.11-.93-.26-1.34-.46-.42-.2-.78-.43-1.09-.71l.58-1.26c.51.4,1.04.69,1.58.89.54.2,1.11.3,1.7.3.76,0,1.35-.2,1.78-.59.43-.39.65-.92.65-1.58s-.21-1.23-.62-1.66c-.41-.42-.98-.63-1.7-.63-.5,0-.96.1-1.37.3-.41.2-.77.51-1.08.93h-1.15v-6.78h6.83v1.39h-5.25v4.06h-.42c.29-.41.67-.72,1.16-.94s1.03-.34,1.64-.34c.72,0,1.35.15,1.89.45.53.3.95.71,1.24,1.25.29.53.44,1.16.44,1.89s-.16,1.36-.49,1.91c-.33.55-.79.98-1.39,1.29-.6.31-1.31.46-2.14.46Z"/>
          <path class="cls-3" d="m555.65,123.53v-9.58c0-.31-.01-.63-.04-.95-.03-.33-.06-.65-.09-.98h1.57l.16,1.82h-.18c.17-.61.51-1.09,1.03-1.44s1.13-.53,1.85-.53,1.34.17,1.87.5c.53.34.95.81,1.24,1.43.29.62.44,1.37.44,2.24s-.15,1.61-.44,2.24c-.29.63-.71,1.11-1.24,1.44-.53.33-1.16.5-1.87.5s-1.32-.17-1.83-.52c-.52-.35-.86-.82-1.03-1.42h.18v5.25h-1.62Zm3.9-4.58c.7,0,1.27-.25,1.69-.74.42-.49.63-1.22.63-2.18s-.21-1.68-.63-2.17c-.42-.48-.98-.73-1.69-.73s-1.27.24-1.69.73c-.42.49-.63,1.21-.63,2.17s.21,1.69.63,2.18c.42.49.98.74,1.69.74Z"/>
          <path class="cls-3" d="m564.99,120.07v-1.9h1.9v1.9h-1.9Z"/>
        </g>
        <g>
          <path class="cls-3" d="m535.86,165.17c-.49,0-.98-.05-1.46-.16-.48-.11-.93-.26-1.34-.46-.42-.2-.78-.43-1.09-.71l.58-1.26c.51.4,1.04.69,1.58.89.54.2,1.11.3,1.7.3.76,0,1.35-.2,1.78-.59.43-.39.65-.92.65-1.58s-.21-1.23-.62-1.66c-.41-.42-.98-.63-1.7-.63-.5,0-.96.1-1.37.3-.41.2-.77.51-1.08.93h-1.15v-6.78h6.83v1.39h-5.25v4.06h-.42c.29-.41.67-.72,1.16-.94s1.03-.34,1.64-.34c.72,0,1.35.15,1.89.45.53.3.95.71,1.24,1.25.29.53.44,1.16.44,1.89s-.16,1.36-.49,1.91c-.33.55-.79.98-1.39,1.29-.6.31-1.31.46-2.14.46Z"/>
          <path class="cls-3" d="m545.3,165.17c-1.3,0-2.3-.5-3-1.5-.7-1-1.05-2.43-1.05-4.3s.35-3.34,1.05-4.31c.7-.98,1.7-1.46,3-1.46s2.31.49,3.01,1.46,1.04,2.41,1.04,4.3-.35,3.31-1.05,4.31c-.7,1-1.7,1.5-3,1.5Zm0-1.39c.82,0,1.43-.36,1.83-1.07.4-.71.6-1.83.6-3.34s-.2-2.64-.6-3.34-1.01-1.05-1.83-1.05-1.42.35-1.82,1.05-.61,1.81-.61,3.32.21,2.65.62,3.36c.41.71,1.02,1.07,1.82,1.07Z"/>
          <path class="cls-3" d="m555.65,168.48v-9.58c0-.31-.01-.63-.04-.95-.03-.33-.06-.65-.09-.98h1.57l.16,1.82h-.18c.17-.61.51-1.09,1.03-1.44s1.13-.53,1.85-.53,1.34.17,1.87.5c.53.34.95.81,1.24,1.43.29.62.44,1.37.44,2.24s-.15,1.61-.44,2.24c-.29.63-.71,1.11-1.24,1.44-.53.33-1.16.5-1.87.5s-1.32-.17-1.83-.52c-.52-.35-.86-.82-1.03-1.42h.18v5.25h-1.62Zm3.9-4.58c.7,0,1.27-.25,1.69-.74.42-.49.63-1.22.63-2.18s-.21-1.68-.63-2.17c-.42-.48-.98-.73-1.69-.73s-1.27.24-1.69.73c-.42.49-.63,1.21-.63,2.17s.21,1.69.63,2.18c.42.49.98.74,1.69.74Z"/>
          <path class="cls-3" d="m564.99,165.03v-1.9h1.9v1.9h-1.9Z"/>
        </g>
        <g>
          <path class="cls-3" d="m528.02,211.94v-1.39h2.62v-8.48h.83l-3.2,1.95v-1.6l2.83-1.76h1.2v9.89h2.46v1.39h-6.75Z"/>
          <path class="cls-3" d="m540.5,212.09c-1.3,0-2.3-.5-3-1.5-.7-1-1.05-2.43-1.05-4.3s.35-3.34,1.05-4.31c.7-.98,1.7-1.46,3-1.46s2.31.49,3.01,1.46,1.04,2.41,1.04,4.3-.35,3.31-1.05,4.31c-.7,1-1.7,1.5-3,1.5Zm0-1.39c.82,0,1.43-.36,1.83-1.07.4-.71.6-1.83.6-3.34s-.2-2.64-.6-3.34-1.01-1.05-1.83-1.05-1.42.35-1.82,1.05-.61,1.81-.61,3.32.21,2.65.62,3.36c.41.71,1.02,1.07,1.82,1.07Z"/>
          <path class="cls-3" d="m550.1,212.09c-1.3,0-2.3-.5-3-1.5-.7-1-1.05-2.43-1.05-4.3s.35-3.34,1.05-4.31c.7-.98,1.7-1.46,3-1.46s2.31.49,3.01,1.46c.69.98,1.04,2.41,1.04,4.3s-.35,3.31-1.05,4.31c-.7,1-1.7,1.5-3,1.5Zm0-1.39c.82,0,1.43-.36,1.83-1.07.4-.71.6-1.83.6-3.34s-.2-2.64-.6-3.34c-.4-.7-1.01-1.05-1.83-1.05s-1.42.35-1.82,1.05c-.41.7-.61,1.81-.61,3.32s.21,2.65.62,3.36c.41.71,1.02,1.07,1.82,1.07Z"/>
          <path class="cls-3" d="m560.45,215.4v-9.58c0-.31-.01-.63-.04-.95-.03-.33-.06-.65-.09-.98h1.57l.16,1.82h-.18c.17-.61.51-1.09,1.03-1.44s1.13-.53,1.85-.53,1.34.17,1.87.5.95.81,1.24,1.43c.29.62.44,1.37.44,2.24s-.15,1.61-.44,2.24c-.29.63-.71,1.11-1.24,1.44s-1.16.5-1.87.5-1.31-.17-1.83-.52-.86-.82-1.03-1.42h.18v5.25h-1.62Zm3.9-4.58c.7,0,1.27-.25,1.69-.74.42-.49.63-1.22.63-2.18s-.21-1.68-.63-2.17c-.42-.48-.98-.73-1.69-.73s-1.27.24-1.69.73c-.42.49-.63,1.21-.63,2.17s.21,1.69.63,2.18c.42.49.98.74,1.69.74Z"/>
          <path class="cls-3" d="m569.79,211.94v-1.9h1.9v1.9h-1.9Z"/>
        </g>
        <g>
          <path class="cls-3" d="m693.57,74.2l5.1-11.28h1.73l5.17,11.28h-2.1l-1.38-3.17.83.56h-6.77l.86-.56-1.38,3.17h-2.08Zm5.95-9.07l-2.26,5.34-.42-.5h5.38l-.34.5-2.3-5.34h-.06Z"/>
          <path class="cls-3" d="m707.35,74.2v-1.71h2.59v-7.84h.99l-3.33,1.98v-1.95l2.93-1.76h1.47v9.57h2.43v1.71h-7.09Z"/>
        </g>
        <g>
          <path class="cls-3" d="m690.86,120.22c-.49,0-.98-.05-1.46-.16-.48-.11-.93-.26-1.34-.46-.42-.2-.78-.43-1.09-.71l.58-1.26c.51.4,1.04.69,1.58.89.54.2,1.11.3,1.7.3.76,0,1.35-.2,1.78-.59.43-.39.65-.92.65-1.58s-.21-1.23-.62-1.66c-.41-.42-.98-.63-1.7-.63-.5,0-.96.1-1.37.3-.41.2-.77.51-1.08.93h-1.15v-6.78h6.83v1.39h-5.25v4.06h-.42c.29-.41.67-.72,1.16-.94s1.03-.34,1.64-.34c.73,0,1.35.15,1.89.45.53.3.95.71,1.24,1.25.29.53.44,1.16.44,1.89s-.16,1.36-.49,1.91-.79.98-1.39,1.29c-.6.31-1.32.46-2.14.46Z"/>
          <path class="cls-3" d="m700.3,120.22c-1.3,0-2.3-.5-3-1.5-.7-1-1.05-2.43-1.05-4.3s.35-3.34,1.05-4.31c.7-.98,1.7-1.46,3-1.46s2.31.49,3.01,1.46c.69.98,1.04,2.41,1.04,4.3s-.35,3.31-1.05,4.31c-.7,1-1.7,1.5-3,1.5Zm0-1.39c.82,0,1.43-.36,1.83-1.07.4-.71.6-1.83.6-3.34s-.2-2.64-.6-3.34c-.4-.7-1.01-1.05-1.83-1.05s-1.42.35-1.82,1.05c-.41.7-.61,1.81-.61,3.32s.21,2.65.62,3.36c.41.71,1.02,1.07,1.82,1.07Z"/>
          <path class="cls-3" d="m710.65,123.53v-9.58c0-.31-.01-.63-.04-.95-.03-.33-.06-.65-.09-.98h1.57l.16,1.82h-.18c.17-.61.51-1.09,1.03-1.44s1.13-.53,1.85-.53,1.34.17,1.87.5.95.81,1.24,1.43c.29.62.44,1.37.44,2.24s-.15,1.61-.44,2.24c-.29.63-.71,1.11-1.24,1.44s-1.16.5-1.87.5-1.31-.17-1.83-.52-.86-.82-1.03-1.42h.18v5.25h-1.62Zm3.9-4.58c.7,0,1.27-.25,1.69-.74.42-.49.63-1.22.63-2.18s-.21-1.68-.63-2.17c-.42-.48-.98-.73-1.69-.73s-1.27.24-1.69.73c-.42.49-.63,1.21-.63,2.17s.21,1.69.63,2.18c.42.49.98.74,1.69.74Z"/>
          <path class="cls-3" d="m719.99,120.07v-1.9h1.9v1.9h-1.9Z"/>
        </g>
        <g>
          <path class="cls-3" d="m683.02,165.03v-1.39h2.62v-8.48h.83l-3.2,1.95v-1.6l2.83-1.76h1.2v9.89h2.46v1.39h-6.75Z"/>
          <path class="cls-3" d="m695.5,165.17c-1.3,0-2.3-.5-3-1.5-.7-1-1.05-2.43-1.05-4.3s.35-3.34,1.05-4.31c.7-.98,1.7-1.46,3-1.46s2.31.49,3.01,1.46c.69.98,1.04,2.41,1.04,4.3s-.35,3.31-1.05,4.31c-.7,1-1.7,1.5-3,1.5Zm0-1.39c.82,0,1.43-.36,1.83-1.07.4-.71.6-1.83.6-3.34s-.2-2.64-.6-3.34c-.4-.7-1.01-1.05-1.83-1.05s-1.42.35-1.82,1.05c-.41.7-.61,1.81-.61,3.32s.21,2.65.62,3.36c.41.71,1.02,1.07,1.82,1.07Z"/>
          <path class="cls-3" d="m705.1,165.17c-1.3,0-2.3-.5-3-1.5-.7-1-1.05-2.43-1.05-4.3s.35-3.34,1.05-4.31c.7-.98,1.7-1.46,3-1.46s2.31.49,3.01,1.46,1.04,2.41,1.04,4.3-.35,3.31-1.05,4.31c-.7,1-1.7,1.5-3,1.5Zm0-1.39c.82,0,1.43-.36,1.83-1.07.4-.71.6-1.83.6-3.34s-.2-2.64-.6-3.34-1.01-1.05-1.83-1.05-1.42.35-1.82,1.05-.61,1.81-.61,3.32.21,2.65.62,3.36c.41.71,1.02,1.07,1.82,1.07Z"/>
          <path class="cls-3" d="m715.45,168.48v-9.58c0-.31-.01-.63-.04-.95-.03-.33-.06-.65-.09-.98h1.57l.16,1.82h-.18c.17-.61.51-1.09,1.03-1.44s1.13-.53,1.85-.53,1.34.17,1.87.5.95.81,1.24,1.43c.29.62.44,1.37.44,2.24s-.15,1.61-.44,2.24c-.29.63-.71,1.11-1.24,1.44s-1.16.5-1.87.5-1.31-.17-1.83-.52-.86-.82-1.03-1.42h.18v5.25h-1.62Zm3.9-4.58c.7,0,1.27-.25,1.69-.74.42-.49.63-1.22.63-2.18s-.21-1.68-.63-2.17c-.42-.48-.98-.73-1.69-.73s-1.27.24-1.69.73c-.42.49-.63,1.21-.63,2.17s.21,1.69.63,2.18.98.74,1.69.74Z"/>
          <path class="cls-3" d="m724.79,165.03v-1.9h1.9v1.9h-1.9Z"/>
        </g>
        <g>
          <path class="cls-3" d="m682.43,211.94v-1.23l3.87-4.05c.5-.52.88-1.01,1.12-1.47s.37-.93.37-1.42c0-.61-.19-1.07-.57-1.38-.38-.31-.93-.46-1.64-.46-.57,0-1.1.1-1.59.3-.5.2-.97.51-1.43.93l-.58-1.26c.45-.42,1.01-.75,1.67-1,.67-.25,1.37-.38,2.12-.38,1.17,0,2.08.27,2.71.8.63.53.95,1.3.95,2.29,0,.7-.17,1.38-.51,2.02-.34.65-.85,1.31-1.54,1.99l-3.34,3.38v-.45h5.86v1.39h-7.47Z"/>
          <path class="cls-3" d="m695.5,212.09c-1.3,0-2.3-.5-3-1.5-.7-1-1.05-2.43-1.05-4.3s.35-3.34,1.05-4.31c.7-.98,1.7-1.46,3-1.46s2.31.49,3.01,1.46c.69.98,1.04,2.41,1.04,4.3s-.35,3.31-1.05,4.31c-.7,1-1.7,1.5-3,1.5Zm0-1.39c.82,0,1.43-.36,1.83-1.07.4-.71.6-1.83.6-3.34s-.2-2.64-.6-3.34c-.4-.7-1.01-1.05-1.83-1.05s-1.42.35-1.82,1.05c-.41.7-.61,1.81-.61,3.32s.21,2.65.62,3.36c.41.71,1.02,1.07,1.82,1.07Z"/>
          <path class="cls-3" d="m705.1,212.09c-1.3,0-2.3-.5-3-1.5-.7-1-1.05-2.43-1.05-4.3s.35-3.34,1.05-4.31c.7-.98,1.7-1.46,3-1.46s2.31.49,3.01,1.46,1.04,2.41,1.04,4.3-.35,3.31-1.05,4.31c-.7,1-1.7,1.5-3,1.5Zm0-1.39c.82,0,1.43-.36,1.83-1.07.4-.71.6-1.83.6-3.34s-.2-2.64-.6-3.34-1.01-1.05-1.83-1.05-1.42.35-1.82,1.05-.61,1.81-.61,3.32.21,2.65.62,3.36c.41.71,1.02,1.07,1.82,1.07Z"/>
          <path class="cls-3" d="m715.45,215.4v-9.58c0-.31-.01-.63-.04-.95-.03-.33-.06-.65-.09-.98h1.57l.16,1.82h-.18c.17-.61.51-1.09,1.03-1.44s1.13-.53,1.85-.53,1.34.17,1.87.5.95.81,1.24,1.43c.29.62.44,1.37.44,2.24s-.15,1.61-.44,2.24c-.29.63-.71,1.11-1.24,1.44s-1.16.5-1.87.5-1.31-.17-1.83-.52-.86-.82-1.03-1.42h.18v5.25h-1.62Zm3.9-4.58c.7,0,1.27-.25,1.69-.74.42-.49.63-1.22.63-2.18s-.21-1.68-.63-2.17c-.42-.48-.98-.73-1.69-.73s-1.27.24-1.69.73c-.42.49-.63,1.21-.63,2.17s.21,1.69.63,2.18.98.74,1.69.74Z"/>
          <path class="cls-3" d="m724.79,211.94v-1.9h1.9v1.9h-1.9Z"/>
        </g>
        <g>
          <path class="cls-3" d="m849.57,74.2l5.1-11.28h1.73l5.17,11.28h-2.1l-1.38-3.17.83.56h-6.77l.86-.56-1.38,3.17h-2.08Zm5.95-9.07l-2.26,5.34-.42-.5h5.38l-.34.5-2.3-5.34h-.06Z"/>
          <path class="cls-3" d="m866.37,74.36c-1.32,0-2.34-.5-3.06-1.51s-1.07-2.45-1.07-4.31.36-3.32,1.07-4.3,1.73-1.47,3.06-1.47,2.35.49,3.06,1.47c.71.98,1.06,2.41,1.06,4.29s-.36,3.32-1.06,4.33c-.71,1.01-1.73,1.51-3.06,1.51Zm0-1.7c.73,0,1.26-.33,1.62-1,.35-.67.53-1.71.53-3.14s-.18-2.47-.53-3.11c-.35-.65-.89-.97-1.62-.97s-1.25.32-1.61.97c-.36.65-.54,1.68-.54,3.11s.18,2.48.54,3.14c.36.67.89,1,1.61,1Z"/>
        </g>
        <g>
          <path class="cls-3" d="m846.7,120.22c-1.3,0-2.31-.28-3.04-.83-.72-.55-1.09-1.33-1.09-2.32,0-.79.24-1.44.72-1.96.48-.52,1.11-.83,1.89-.94v.29c-.7-.15-1.27-.47-1.69-.98-.42-.5-.63-1.11-.63-1.82,0-.94.34-1.67,1.02-2.21.68-.53,1.62-.8,2.82-.8s2.15.27,2.83.8c.68.53,1.02,1.27,1.02,2.21,0,.71-.2,1.33-.6,1.83-.4.51-.95.82-1.64.95v-.27c.77.11,1.38.42,1.84.94.46.52.69,1.17.69,1.96,0,.99-.36,1.77-1.09,2.32-.73.55-1.74.83-3.06.83Zm0-1.31c.86,0,1.51-.16,1.94-.49.43-.33.64-.81.64-1.46s-.21-1.14-.64-1.46c-.43-.32-1.07-.48-1.94-.48s-1.51.16-1.94.48c-.43.32-.64.81-.64,1.46s.22,1.14.65,1.46c.43.33,1.07.49,1.93.49Zm0-5.2c.75,0,1.31-.17,1.7-.5s.58-.8.58-1.38-.19-1.03-.58-1.36c-.39-.33-.96-.5-1.7-.5s-1.3.17-1.7.5c-.39.33-.59.78-.59,1.36s.2,1.05.59,1.38.96.5,1.7.5Z"/>
          <path class="cls-3" d="m856.3,120.22c-1.3,0-2.3-.5-3-1.5-.7-1-1.05-2.43-1.05-4.3s.35-3.34,1.05-4.31c.7-.98,1.7-1.46,3-1.46s2.31.49,3.01,1.46c.69.98,1.04,2.41,1.04,4.3s-.35,3.31-1.05,4.31c-.7,1-1.7,1.5-3,1.5Zm0-1.39c.82,0,1.43-.36,1.83-1.07.4-.71.6-1.83.6-3.34s-.2-2.64-.6-3.34c-.4-.7-1.01-1.05-1.83-1.05s-1.42.35-1.82,1.05c-.41.7-.61,1.81-.61,3.32s.21,2.65.62,3.36c.41.71,1.02,1.07,1.82,1.07Z"/>
          <path class="cls-3" d="m866.65,123.53v-9.58c0-.31-.01-.63-.04-.95-.03-.33-.06-.65-.09-.98h1.57l.16,1.82h-.18c.17-.61.51-1.09,1.03-1.44s1.13-.53,1.85-.53,1.34.17,1.87.5.95.81,1.24,1.43c.29.62.44,1.37.44,2.24s-.15,1.61-.44,2.24c-.29.63-.71,1.11-1.24,1.44s-1.16.5-1.87.5-1.31-.17-1.83-.52-.86-.82-1.03-1.42h.18v5.25h-1.62Zm3.9-4.58c.7,0,1.27-.25,1.69-.74.42-.49.63-1.22.63-2.18s-.21-1.68-.63-2.17c-.42-.48-.98-.73-1.69-.73s-1.27.24-1.69.73c-.42.49-.63,1.21-.63,2.17s.21,1.69.63,2.18c.42.49.98.74,1.69.74Z"/>
          <path class="cls-3" d="m875.99,120.07v-1.9h1.9v1.9h-1.9Z"/>
        </g>
        <g>
          <path class="cls-3" d="m838.43,165.03v-1.23l3.87-4.05c.5-.52.88-1.01,1.12-1.47s.37-.93.37-1.42c0-.61-.19-1.07-.57-1.38-.38-.31-.93-.46-1.64-.46-.57,0-1.1.1-1.59.3-.5.2-.97.51-1.43.93l-.58-1.26c.45-.42,1.01-.75,1.67-1,.67-.25,1.37-.38,2.12-.38,1.17,0,2.08.27,2.71.8.63.53.95,1.3.95,2.29,0,.7-.17,1.38-.51,2.02-.34.65-.85,1.31-1.54,1.99l-3.34,3.38v-.45h5.86v1.39h-7.47Z"/>
          <path class="cls-3" d="m851.5,165.17c-1.3,0-2.3-.5-3-1.5-.7-1-1.05-2.43-1.05-4.3s.35-3.34,1.05-4.31c.7-.98,1.7-1.46,3-1.46s2.31.49,3.01,1.46c.69.98,1.04,2.41,1.04,4.3s-.35,3.31-1.05,4.31c-.7,1-1.7,1.5-3,1.5Zm0-1.39c.82,0,1.43-.36,1.83-1.07.4-.71.6-1.83.6-3.34s-.2-2.64-.6-3.34c-.4-.7-1.01-1.05-1.83-1.05s-1.42.35-1.82,1.05c-.41.7-.61,1.81-.61,3.32s.21,2.65.62,3.36c.41.71,1.02,1.07,1.82,1.07Z"/>
          <path class="cls-3" d="m861.1,165.17c-1.3,0-2.3-.5-3-1.5-.7-1-1.05-2.43-1.05-4.3s.35-3.34,1.05-4.31c.7-.98,1.7-1.46,3-1.46s2.31.49,3.01,1.46,1.04,2.41,1.04,4.3-.35,3.31-1.05,4.31c-.7,1-1.7,1.5-3,1.5Zm0-1.39c.82,0,1.43-.36,1.83-1.07.4-.71.6-1.83.6-3.34s-.2-2.64-.6-3.34-1.01-1.05-1.83-1.05-1.42.35-1.82,1.05-.61,1.81-.61,3.32.21,2.65.62,3.36c.41.71,1.02,1.07,1.82,1.07Z"/>
          <path class="cls-3" d="m871.45,168.48v-9.58c0-.31-.01-.63-.04-.95-.03-.33-.06-.65-.09-.98h1.57l.16,1.82h-.18c.17-.61.51-1.09,1.03-1.44s1.13-.53,1.85-.53,1.34.17,1.87.5.95.81,1.24,1.43c.29.62.44,1.37.44,2.24s-.15,1.61-.44,2.24c-.29.63-.71,1.11-1.24,1.44s-1.16.5-1.87.5-1.31-.17-1.83-.52-.86-.82-1.03-1.42h.18v5.25h-1.62Zm3.9-4.58c.7,0,1.27-.25,1.69-.74.42-.49.63-1.22.63-2.18s-.21-1.68-.63-2.17c-.42-.48-.98-.73-1.69-.73s-1.27.24-1.69.73c-.42.49-.63,1.21-.63,2.17s.21,1.69.63,2.18.98.74,1.69.74Z"/>
          <path class="cls-3" d="m880.79,165.03v-1.9h1.9v1.9h-1.9Z"/>
        </g>
        <g>
          <path class="cls-3" d="m843.05,211.94v-2.34h-5.22v-1.18l5.49-7.76h1.34v7.65h1.68v1.3h-1.68v2.34h-1.62Zm0-3.63v-5.68h.37l-4.29,6.08v-.4h3.92Z"/>
          <path class="cls-3" d="m851.5,212.09c-1.3,0-2.3-.5-3-1.5-.7-1-1.05-2.43-1.05-4.3s.35-3.34,1.05-4.31c.7-.98,1.7-1.46,3-1.46s2.31.49,3.01,1.46c.69.98,1.04,2.41,1.04,4.3s-.35,3.31-1.05,4.31c-.7,1-1.7,1.5-3,1.5Zm0-1.39c.82,0,1.43-.36,1.83-1.07.4-.71.6-1.83.6-3.34s-.2-2.64-.6-3.34c-.4-.7-1.01-1.05-1.83-1.05s-1.42.35-1.82,1.05c-.41.7-.61,1.81-.61,3.32s.21,2.65.62,3.36c.41.71,1.02,1.07,1.82,1.07Z"/>
          <path class="cls-3" d="m861.1,212.09c-1.3,0-2.3-.5-3-1.5-.7-1-1.05-2.43-1.05-4.3s.35-3.34,1.05-4.31c.7-.98,1.7-1.46,3-1.46s2.31.49,3.01,1.46,1.04,2.41,1.04,4.3-.35,3.31-1.05,4.31c-.7,1-1.7,1.5-3,1.5Zm0-1.39c.82,0,1.43-.36,1.83-1.07.4-.71.6-1.83.6-3.34s-.2-2.64-.6-3.34-1.01-1.05-1.83-1.05-1.42.35-1.82,1.05-.61,1.81-.61,3.32.21,2.65.62,3.36c.41.71,1.02,1.07,1.82,1.07Z"/>
          <path class="cls-3" d="m871.45,215.4v-9.58c0-.31-.01-.63-.04-.95-.03-.33-.06-.65-.09-.98h1.57l.16,1.82h-.18c.17-.61.51-1.09,1.03-1.44s1.13-.53,1.85-.53,1.34.17,1.87.5.95.81,1.24,1.43c.29.62.44,1.37.44,2.24s-.15,1.61-.44,2.24c-.29.63-.71,1.11-1.24,1.44s-1.16.5-1.87.5-1.31-.17-1.83-.52-.86-.82-1.03-1.42h.18v5.25h-1.62Zm3.9-4.58c.7,0,1.27-.25,1.69-.74.42-.49.63-1.22.63-2.18s-.21-1.68-.63-2.17c-.42-.48-.98-.73-1.69-.73s-1.27.24-1.69.73c-.42.49-.63,1.21-.63,2.17s.21,1.69.63,2.18.98.74,1.69.74Z"/>
          <path class="cls-3" d="m880.79,211.94v-1.9h1.9v1.9h-1.9Z"/>
        </g>
        <g>
          <path class="cls-3" d="m24.27,28.53c-1.17,0-2.18-.24-3.02-.71s-1.48-1.15-1.93-2.02c-.45-.87-.67-1.9-.67-3.08s.22-2.21.67-3.07c.45-.86,1.09-1.53,1.93-2.01s1.84-.71,3.02-.71c.79,0,1.5.11,2.14.34s1.18.55,1.64.99l-.67,1.63c-.5-.41-.98-.7-1.45-.87-.46-.18-.99-.26-1.59-.26-1.14,0-2.01.34-2.62,1.03s-.9,1.67-.9,2.94.3,2.25.9,2.94,1.47,1.04,2.62,1.04c.6,0,1.13-.09,1.59-.26.46-.18.95-.47,1.45-.89l.67,1.63c-.46.43-1.01.76-1.64.99s-1.35.35-2.14.35Z"/>
          <path class="cls-3" d="m29.87,28.37v-8.08h1.98v3.17h1.22l2.37-3.17h2.14l-2.98,4.03-.43-.62c.3.03.56.11.79.24.23.13.45.31.66.54s.41.52.62.87l1.7,3.02h-2.13l-1.38-2.43c-.14-.25-.28-.44-.42-.58s-.29-.23-.46-.29c-.17-.05-.38-.08-.62-.08h-1.07v3.38h-1.98Z"/>
          <path class="cls-3" d="m42.17,28.53c-.7,0-1.32-.17-1.86-.5-.53-.34-.95-.82-1.25-1.45s-.45-1.38-.45-2.26.15-1.62.45-2.25.71-1.1,1.25-1.44,1.15-.5,1.86-.5,1.28.17,1.8.5.86.79,1.03,1.35h-.18l.18-1.7h1.92c-.03.33-.06.67-.09,1.01-.03.34-.04.68-.04,1.01v6.06h-1.98l-.02-1.66h.19c-.17.55-.52,1-1.04,1.33s-1.11.5-1.78.5Zm.56-1.54c.63,0,1.14-.22,1.52-.66.38-.44.58-1.11.58-2.01s-.19-1.56-.58-2c-.38-.44-.89-.66-1.52-.66s-1.14.22-1.52.66c-.38.44-.58,1.1-.58,2s.19,1.57.57,2.01c.38.44.89.66,1.53.66Z"/>
          <path class="cls-3" d="m49.13,28.37v-8.08h1.98v3.17h3.65v-3.17h1.98v8.08h-1.98v-3.38h-3.65v3.38h-1.98Z"/>
          <path class="cls-3" d="m59.02,28.37v-8.08h1.81v6.11h-.48l4.59-6.11h1.65v8.08h-1.81v-6.13h.5l-4.61,6.13h-1.65Z"/>
          <path class="cls-3" d="m68.92,31.83v-9.52c0-.33-.01-.67-.03-1.01s-.05-.68-.1-1.01h1.94l.18,1.7h-.18c.16-.57.5-1.02,1.02-1.35.52-.34,1.12-.5,1.8-.5s1.34.17,1.87.5c.53.34.95.82,1.25,1.44.3.62.45,1.37.45,2.25s-.15,1.63-.45,2.26c-.3.63-.71,1.11-1.25,1.45-.53.34-1.16.5-1.87.5-.67,0-1.26-.17-1.78-.5s-.85-.77-1.02-1.33h.18v5.12h-2Zm4.06-4.83c.64,0,1.15-.22,1.54-.66.38-.44.58-1.11.58-2.01s-.19-1.56-.58-2-.9-.66-1.54-.66-1.14.22-1.52.66-.58,1.1-.58,2,.19,1.57.58,2.01c.38.44.89.66,1.52.66Z"/>
          <path class="cls-3" d="m82.72,28.53c-.83,0-1.55-.17-2.16-.51-.61-.34-1.08-.83-1.42-1.46-.34-.63-.5-1.38-.5-2.24s.17-1.61.5-2.23c.34-.62.81-1.11,1.42-1.45.61-.34,1.33-.51,2.16-.51s1.55.17,2.17.51,1.09.82,1.42,1.45c.34.62.5,1.37.5,2.23s-.17,1.61-.5,2.24c-.34.63-.81,1.11-1.42,1.46s-1.34.51-2.17.51Zm0-1.54c.63,0,1.13-.22,1.5-.66.37-.44.56-1.11.56-2.01s-.19-1.56-.56-2c-.37-.44-.87-.66-1.5-.66s-1.13.22-1.5.66-.56,1.1-.56,2,.19,1.57.56,2.01c.37.44.88.66,1.5.66Z"/>
          <path class="cls-3" d="m88.7,28.37v-8.08h4.3c1.01,0,1.75.18,2.22.55.47.37.7.89.7,1.56,0,.51-.17.94-.51,1.28-.34.34-.79.55-1.36.64v-.22c.69.04,1.23.25,1.6.61.37.36.56.83.56,1.41,0,.69-.27,1.24-.8,1.65-.53.41-1.29.61-2.27.61h-4.45Zm1.86-4.74h2.21c.43,0,.76-.09.99-.28.23-.19.35-.45.35-.79s-.12-.6-.35-.78c-.24-.18-.57-.27-.99-.27h-2.21v2.13Zm0,3.5h2.38c.47,0,.83-.1,1.08-.29.25-.19.38-.47.38-.85s-.13-.66-.38-.85c-.25-.19-.61-.29-1.08-.29h-2.38v2.27Z"/>
          <path class="cls-3" d="m101.15,28.53c-.7,0-1.32-.17-1.86-.5-.53-.34-.95-.82-1.25-1.45s-.45-1.38-.45-2.26.15-1.62.45-2.25.71-1.1,1.25-1.44,1.15-.5,1.86-.5,1.28.17,1.8.5.86.79,1.03,1.35h-.18l.18-1.7h1.92c-.03.33-.06.67-.09,1.01-.03.34-.04.68-.04,1.01v6.06h-1.98l-.02-1.66h.19c-.17.55-.52,1-1.04,1.33s-1.11.5-1.78.5Zm.56-1.54c.63,0,1.14-.22,1.52-.66.38-.44.58-1.11.58-2.01s-.19-1.56-.58-2c-.38-.44-.89-.66-1.52-.66s-1.14.22-1.52.66c-.38.44-.58,1.1-.58,2s.19,1.57.57,2.01c.38.44.89.66,1.53.66Z"/>
          <path class="cls-3" d="m108.11,28.37v-8.08h1.98v3.17h3.65v-3.17h1.98v8.08h-1.98v-3.38h-3.65v3.38h-1.98Z"/>
          <path class="cls-3" d="m117.99,28.37v-8.08h1.81v6.11h-.48l4.59-6.11h1.65v8.08h-1.81v-6.13h.5l-4.61,6.13h-1.65Z"/>
          <path class="cls-3" d="m131.8,28.53c-1.35,0-2.42-.37-3.18-1.12-.77-.75-1.15-1.77-1.15-3.07,0-.84.17-1.58.5-2.21.33-.63.79-1.12,1.38-1.47.59-.35,1.28-.53,2.07-.53s1.43.17,1.95.5c.52.33.92.79,1.19,1.39.27.6.41,1.3.41,2.1v.53h-5.89v-1.06h4.46l-.27.22c0-.75-.16-1.32-.47-1.71-.31-.39-.77-.59-1.37-.59-.66,0-1.17.23-1.53.7-.36.47-.54,1.13-.54,1.97v.21c0,.87.22,1.53.65,1.96.43.43,1.04.65,1.83.65.46,0,.89-.06,1.29-.18.4-.12.78-.32,1.14-.6l.59,1.34c-.38.31-.84.55-1.38.72-.53.17-1.1.26-1.7.26Z"/>
        </g>
      </g>
    </g>
  </g>
</svg>