<?xml version="1.0" encoding="UTF-8"?>
<svg id="_Слой_2" data-name="Слой 2" xmlns="http://www.w3.org/2000/svg" viewBox="0 0 938.93 414.45">
  <defs>
    <style>
      .cls-1 {
        font-family: Mulish-Bold, Mulish;
        font-weight: 700;
      }

      .cls-1, .cls-2, .cls-3 {
        fill: #27625f;
      }

      .cls-1, .cls-3 {
        font-size: 16px;
      }

      .cls-4 {
        fill: #fff;
      }

      .cls-4, .cls-5 {
        stroke: #a0b6b5;
        stroke-miterlimit: 10;
      }

      .cls-2 {
        stroke-width: 0px;
      }

      .cls-3 {
        font-family: Mulish-SemiBold, Mulish;
        font-weight: 600;
      }

      .cls-6 {
        letter-spacing: -.07em;
      }

      .cls-7 {
        letter-spacing: 0em;
      }

      .cls-8 {
        letter-spacing: -.07em;
      }

      .cls-9 {
        letter-spacing: -.02em;
      }

      .cls-10 {
        letter-spacing: 0em;
      }

      .cls-11 {
        letter-spacing: -.02em;
      }

      .cls-5 {
        fill: none;
      }
    </style>
  </defs>
  <g id="_Слой_1-2" data-name="Слой 1">
    <g>
      <g>
        <rect class="cls-4" x=".5" y=".5" width="937.93" height="413.45" rx="10" ry="10"/>
        <line class="cls-5" x1=".5" y1="92.38" x2="938.43" y2="92.38"/>
        <line class="cls-5" x1="279.24" y1="46.44" x2="279.24" y2="413.95"/>
        <line class="cls-5" x1="361.43" y1="46.44" x2="361.43" y2="413.95"/>
        <line class="cls-5" x1="443.63" y1="46.44" x2="443.63" y2="413.95"/>
        <line class="cls-5" x1="525.82" y1="46.44" x2="525.82" y2="413.95"/>
        <line class="cls-5" x1="608.01" y1="46.44" x2="608.01" y2="413.95"/>
        <line class="cls-5" x1="690.2" y1="46.44" x2="690.2" y2="413.95"/>
        <line class="cls-5" x1="772.4" y1="46.44" x2="772.4" y2="413.95"/>
        <line class="cls-5" x1="854.59" y1="46.44" x2="854.59" y2="413.95"/>
        <line class="cls-5" x1=".5" y1="138.32" x2="938.43" y2="138.32"/>
        <line class="cls-5" x1=".5" y1="46.44" x2="938.43" y2="46.44"/>
        <line class="cls-5" x1=".5" y1="184.26" x2="938.43" y2="184.26"/>
        <line class="cls-5" x1=".5" y1="230.2" x2="938.43" y2="230.2"/>
        <line class="cls-5" x1=".5" y1="276.13" x2="938.43" y2="276.13"/>
        <line class="cls-5" x1=".5" y1="322.07" x2="938.43" y2="322.07"/>
        <line class="cls-5" x1=".5" y1="368.01" x2="938.43" y2="368.01"/>
      </g>
      <g>
        <text class="cls-1" transform="translate(24.6 29.4)"><tspan x="0" y="0">Силиконовые браслеты</tspan></text>
        <text class="cls-1" transform="translate(124.44 73.91)"><tspan x="0" y="0">Вид</tspan></text>
        <text class="cls-1" transform="translate(292.71 73.57)"><tspan x="0" y="0">100 ш</tspan><tspan class="cls-8" x="46.75" y="0">т</tspan><tspan x="53.38" y="0">.</tspan></text>
        <text class="cls-3" transform="translate(302.91 120.4)"><tspan x="0" y="0">65 </tspan><tspan class="cls-9" x="23.47" y="0">р</tspan><tspan x="33.15" y="0">.</tspan></text>
        <text class="cls-3" transform="translate(317.91 166.68)"><tspan x="0" y="0">-</tspan></text>
        <text class="cls-3" transform="translate(302.91 213.63)"><tspan x="0" y="0">67 </tspan><tspan class="cls-9" x="23.47" y="0">р</tspan><tspan x="33.15" y="0">.</tspan></text>
        <text class="cls-3" transform="translate(302.91 259.02)"><tspan x="0" y="0">67 </tspan><tspan class="cls-9" x="23.47" y="0">р</tspan><tspan x="33.15" y="0">.</tspan></text>
        <text class="cls-3" transform="translate(298.11 303.9)"><tspan x="0" y="0">140 </tspan><tspan class="cls-11" x="33.07" y="0">р</tspan><tspan class="cls-10" x="42.75" y="0">.</tspan></text>
        <text class="cls-3" transform="translate(317.91 349.86)"><tspan x="0" y="0">-</tspan></text>
        <text class="cls-3" transform="translate(317.91 396.25)"><tspan x="0" y="0">-</tspan></text>
        <text class="cls-3" transform="translate(384.34 120.4)"><tspan x="0" y="0">60 </tspan><tspan class="cls-9" x="23.47" y="0">р</tspan><tspan x="33.15" y="0">.</tspan></text>
        <text class="cls-3" transform="translate(379.54 166.68)"><tspan x="0" y="0">123 </tspan><tspan class="cls-11" x="33.07" y="0">р</tspan><tspan class="cls-10" x="42.75" y="0">.</tspan></text>
        <text class="cls-3" transform="translate(399.35 213.63)"><tspan x="0" y="0">-</tspan></text>
        <text class="cls-3" transform="translate(399.35 259.02)"><tspan x="0" y="0">-</tspan></text>
        <text class="cls-3" transform="translate(399.35 303.9)"><tspan x="0" y="0">-</tspan></text>
        <text class="cls-3" transform="translate(379.54 349.86)"><tspan x="0" y="0">108 </tspan><tspan class="cls-11" x="33.07" y="0">р</tspan><tspan class="cls-10" x="42.75" y="0">.</tspan></text>
        <text class="cls-3" transform="translate(399.35 396.25)"><tspan x="0" y="0">-</tspan></text>
        <text class="cls-3" transform="translate(466.95 120.4)"><tspan x="0" y="0">55 </tspan><tspan class="cls-9" x="23.47" y="0">р</tspan><tspan x="33.15" y="0">.</tspan></text>
        <text class="cls-3" transform="translate(466.95 166.68)"><tspan x="0" y="0">98 </tspan><tspan class="cls-9" x="23.47" y="0">р</tspan><tspan x="33.15" y="0">.</tspan></text>
        <text class="cls-3" transform="translate(466.95 213.63)"><tspan x="0" y="0">53 </tspan><tspan class="cls-9" x="23.47" y="0">р</tspan><tspan x="33.15" y="0">.</tspan></text>
        <text class="cls-3" transform="translate(466.95 259.02)"><tspan x="0" y="0">53 </tspan><tspan class="cls-9" x="23.47" y="0">р</tspan><tspan x="33.15" y="0">.</tspan></text>
        <text class="cls-3" transform="translate(462.15 303.9)"><tspan x="0" y="0">112 </tspan><tspan class="cls-11" x="33.07" y="0">р</tspan><tspan class="cls-10" x="42.75" y="0">.</tspan></text>
        <text class="cls-3" transform="translate(466.95 349.86)"><tspan x="0" y="0">93 </tspan><tspan class="cls-9" x="23.47" y="0">р</tspan><tspan x="33.15" y="0">.</tspan></text>
        <text class="cls-3" transform="translate(481.96 396.25)"><tspan x="0" y="0">-</tspan></text>
        <text class="cls-3" transform="translate(548.56 120.4)"><tspan x="0" y="0">50 </tspan><tspan class="cls-9" x="23.47" y="0">р</tspan><tspan x="33.15" y="0">.</tspan></text>
        <text class="cls-3" transform="translate(548.56 166.68)"><tspan x="0" y="0">81 </tspan><tspan class="cls-9" x="23.47" y="0">р</tspan><tspan x="33.15" y="0">.</tspan></text>
        <text class="cls-3" transform="translate(548.56 213.63)"><tspan x="0" y="0">45 </tspan><tspan class="cls-9" x="23.47" y="0">р</tspan><tspan x="33.15" y="0">.</tspan></text>
        <text class="cls-3" transform="translate(548.56 259.02)"><tspan x="0" y="0">37 </tspan><tspan class="cls-9" x="23.47" y="0">р</tspan><tspan x="33.15" y="0">.</tspan></text>
        <text class="cls-3" transform="translate(548.56 303.9)"><tspan x="0" y="0">91 </tspan><tspan class="cls-9" x="23.47" y="0">р</tspan><tspan x="33.15" y="0">.</tspan></text>
        <text class="cls-3" transform="translate(548.56 349.86)"><tspan x="0" y="0">75 </tspan><tspan class="cls-9" x="23.47" y="0">р</tspan><tspan x="33.15" y="0">.</tspan></text>
        <text class="cls-3" transform="translate(563.57 396.25)"><tspan x="0" y="0">-</tspan></text>
        <text class="cls-3" transform="translate(629.98 120.4)"><tspan x="0" y="0">45 </tspan><tspan class="cls-9" x="23.47" y="0">р</tspan><tspan x="33.15" y="0">.</tspan></text>
        <text class="cls-3" transform="translate(629.98 166.68)"><tspan x="0" y="0">62 </tspan><tspan class="cls-9" x="23.47" y="0">р</tspan><tspan x="33.15" y="0">.</tspan></text>
        <text class="cls-3" transform="translate(629.98 213.63)"><tspan x="0" y="0">35 </tspan><tspan class="cls-9" x="23.47" y="0">р</tspan><tspan x="33.15" y="0">.</tspan></text>
        <text class="cls-3" transform="translate(629.98 259.02)"><tspan x="0" y="0">49 </tspan><tspan class="cls-9" x="23.47" y="0">р</tspan><tspan x="33.15" y="0">.</tspan></text>
        <text class="cls-3" transform="translate(629.98 303.9)"><tspan x="0" y="0">56 </tspan><tspan class="cls-9" x="23.47" y="0">р</tspan><tspan x="33.15" y="0">.</tspan></text>
        <text class="cls-3" transform="translate(629.98 349.86)"><tspan x="0" y="0">58 </tspan><tspan class="cls-9" x="23.47" y="0">р</tspan><tspan x="33.15" y="0">.</tspan></text>
        <text class="cls-3" transform="translate(644.99 396.25)"><tspan x="0" y="0">-</tspan></text>
        <text class="cls-3" transform="translate(712.07 120.4)"><tspan x="0" y="0">40 </tspan><tspan class="cls-9" x="23.47" y="0">р</tspan><tspan x="33.15" y="0">.</tspan></text>
        <text class="cls-3" transform="translate(712.07 166.68)"><tspan x="0" y="0">54 </tspan><tspan class="cls-9" x="23.47" y="0">р</tspan><tspan x="33.15" y="0">.</tspan></text>
        <text class="cls-3" transform="translate(712.07 213.63)"><tspan x="0" y="0">32 </tspan><tspan class="cls-9" x="23.47" y="0">р</tspan><tspan x="33.15" y="0">.</tspan></text>
        <text class="cls-3" transform="translate(712.07 259.02)"><tspan x="0" y="0">33 </tspan><tspan class="cls-9" x="23.47" y="0">р</tspan><tspan x="33.15" y="0">.</tspan></text>
        <text class="cls-3" transform="translate(727.08 303.9)"><tspan x="0" y="0">-</tspan></text>
        <text class="cls-3" transform="translate(712.07 349.86)"><tspan x="0" y="0">51 </tspan><tspan class="cls-9" x="23.47" y="0">р</tspan><tspan x="33.15" y="0">.</tspan></text>
        <text class="cls-3" transform="translate(727.08 396.25)"><tspan x="0" y="0">-</tspan></text>
        <text class="cls-3" transform="translate(796.07 120.4)"><tspan x="0" y="0">35 </tspan><tspan class="cls-9" x="23.47" y="0">р</tspan><tspan x="33.15" y="0">.</tspan></text>
        <text class="cls-3" transform="translate(796.07 166.68)"><tspan x="0" y="0">48 </tspan><tspan class="cls-9" x="23.47" y="0">р</tspan><tspan x="33.15" y="0">.</tspan></text>
        <text class="cls-3" transform="translate(796.07 213.63)"><tspan x="0" y="0">30 </tspan><tspan class="cls-9" x="23.47" y="0">р</tspan><tspan x="33.15" y="0">.</tspan></text>
        <text class="cls-3" transform="translate(796.07 259.02)"><tspan x="0" y="0">29 </tspan><tspan class="cls-9" x="23.47" y="0">р</tspan><tspan x="33.15" y="0">.</tspan></text>
        <text class="cls-3" transform="translate(811.08 303.9)"><tspan x="0" y="0">-</tspan></text>
        <text class="cls-3" transform="translate(796.07 349.86)"><tspan x="0" y="0">43 </tspan><tspan class="cls-9" x="23.47" y="0">р</tspan><tspan x="33.15" y="0">.</tspan></text>
        <text class="cls-3" transform="translate(811.08 396.25)"><tspan x="0" y="0">-</tspan></text>
        <text class="cls-3" transform="translate(878 120.4)"><tspan x="0" y="0">30 </tspan><tspan class="cls-9" x="23.47" y="0">р</tspan><tspan x="33.15" y="0">.</tspan></text>
        <text class="cls-3" transform="translate(893.01 166.68)"><tspan x="0" y="0">-</tspan></text>
        <text class="cls-3" transform="translate(878 213.63)"><tspan x="0" y="0">27 </tspan><tspan class="cls-9" x="23.47" y="0">р</tspan><tspan x="33.15" y="0">.</tspan></text>
        <text class="cls-3" transform="translate(893.01 259.02)"><tspan x="0" y="0">-</tspan></text>
        <text class="cls-3" transform="translate(893.01 303.9)"><tspan x="0" y="0">-</tspan></text>
        <text class="cls-3" transform="translate(878 349.86)"><tspan x="0" y="0">39 </tspan><tspan class="cls-9" x="23.47" y="0">р</tspan><tspan x="33.15" y="0">.</tspan></text>
        <text class="cls-3" transform="translate(893.01 396.25)"><tspan x="0" y="0">-</tspan></text>
        <text class="cls-1" transform="translate(374.14 73.57)"><tspan x="0" y="0">200 ш</tspan><tspan class="cls-8" x="46.75" y="0">т</tspan><tspan x="53.38" y="0">.</tspan></text>
        <text class="cls-1" transform="translate(456.75 73.57)"><tspan x="0" y="0">300 ш</tspan><tspan class="cls-8" x="46.75" y="0">т</tspan><tspan x="53.38" y="0">.</tspan></text>
        <text class="cls-1" transform="translate(538.36 73.57)"><tspan x="0" y="0">500 ш</tspan><tspan class="cls-8" x="46.75" y="0">т</tspan><tspan x="53.38" y="0">.</tspan></text>
        <text class="cls-1" transform="translate(614.99 73.57)"><tspan x="0" y="0">1000 ш</tspan><tspan class="cls-6" x="56.35" y="0">т</tspan><tspan class="cls-10" x="62.98" y="0">.</tspan></text>
        <text class="cls-1" transform="translate(697.07 73.57)"><tspan x="0" y="0">3000 ш</tspan><tspan class="cls-6" x="56.35" y="0">т</tspan><tspan class="cls-10" x="62.98" y="0">.</tspan></text>
        <text class="cls-1" transform="translate(781.07 73.57)"><tspan x="0" y="0">5000 ш</tspan><tspan class="cls-6" x="56.35" y="0">т</tspan><tspan class="cls-10" x="62.98" y="0">.</tspan></text>
        <text class="cls-1" transform="translate(858.2 73.57)"><tspan x="0" y="0">10000 ш</tspan><tspan class="cls-8" x="65.95" y="0">т</tspan><tspan x="72.58" y="0">.</tspan></text>
        <text class="cls-1" transform="translate(89.82 112.01)"><tspan x="0" y="0">С логотипом</tspan><tspan x="-44.74" y="15">к</tspan><tspan class="cls-7" x="-35.62" y="15">р</tspan><tspan x="-25.61" y="15">уговая шелкография</tspan></text>
        <g>
          <path class="cls-2" d="m81.9,157.95c-1.17,0-2.18-.24-3.02-.71-.84-.47-1.48-1.15-1.93-2.02s-.67-1.9-.67-3.08.22-2.21.67-3.07c.45-.86,1.09-1.53,1.93-2.01.84-.47,1.84-.71,3.02-.71.79,0,1.5.11,2.14.34s1.18.55,1.64.99l-.67,1.63c-.5-.41-.98-.7-1.45-.87-.46-.18-1-.26-1.59-.26-1.14,0-2.01.34-2.62,1.03-.6.69-.9,1.67-.9,2.94s.3,2.25.9,2.94c.6.69,1.47,1.04,2.62,1.04.6,0,1.13-.09,1.59-.26.46-.18.95-.47,1.45-.89l.67,1.63c-.46.43-1,.76-1.64.99s-1.35.35-2.14.35Z"/>
          <path class="cls-2" d="m91.89,157.79v-8.08h4.3c1.01,0,1.75.18,2.22.55.47.37.7.89.7,1.56,0,.51-.17.94-.51,1.28-.34.34-.79.55-1.36.64v-.22c.69.04,1.23.25,1.6.61.37.36.56.83.56,1.41,0,.69-.27,1.24-.8,1.65s-1.29.61-2.27.61h-4.45Zm1.86-4.74h2.21c.43,0,.76-.09.99-.28.23-.19.35-.45.35-.79s-.12-.6-.35-.78c-.23-.18-.56-.27-.99-.27h-2.21v2.13Zm0,3.5h2.38c.47,0,.83-.1,1.08-.29s.38-.47.38-.85-.12-.66-.38-.85c-.25-.19-.61-.29-1.08-.29h-2.38v2.27Z"/>
          <path class="cls-2" d="m101.15,157.79v-8.08h1.98v2.7h2.13c1.08,0,1.89.23,2.43.68.54.45.82,1.11.82,1.96,0,.55-.13,1.04-.38,1.45-.26.41-.63.73-1.11.95s-1.07.34-1.75.34h-4.11Zm1.98-1.31h1.86c.54,0,.96-.11,1.25-.34.29-.23.43-.58.43-1.05s-.14-.81-.42-1.03c-.28-.22-.7-.33-1.26-.33h-1.86v2.75Zm6.38,1.31v-8.08h1.98v8.08h-1.98Z"/>
          <path class="cls-2" d="m113.05,159.87v-3.6h.93c.32-.5.55-1.09.7-1.77.14-.68.22-1.51.22-2.49v-2.3h6.22v6.56h1.31v3.6h-1.7v-2.08h-5.98v2.08h-1.7Zm2.72-3.58h3.47v-5.07h-2.66v1.25c0,.71-.07,1.41-.21,2.1-.14.68-.34,1.26-.61,1.73Z"/>
          <path class="cls-2" d="m127.09,157.95c-.7,0-1.32-.17-1.86-.5-.53-.34-.95-.82-1.25-1.45-.3-.63-.45-1.38-.45-2.26s.15-1.62.45-2.25c.3-.62.71-1.1,1.25-1.44s1.15-.5,1.86-.5,1.28.17,1.8.5c.52.34.86.79,1.03,1.35h-.18l.18-1.7h1.92c-.03.33-.06.67-.09,1.01-.03.34-.04.68-.04,1.01v6.06h-1.98l-.02-1.66h.19c-.17.55-.52,1-1.04,1.33-.52.33-1.11.5-1.78.5Zm.56-1.54c.63,0,1.14-.22,1.52-.66.38-.44.58-1.11.58-2.01s-.19-1.56-.58-2c-.38-.44-.89-.66-1.52-.66s-1.14.22-1.52.66c-.38.44-.58,1.1-.58,2s.19,1.57.57,2.01c.38.44.89.66,1.53.66Z"/>
          <path class="cls-2" d="m134.04,157.79v-8.08h4.3c1.01,0,1.75.18,2.22.55.47.37.7.89.7,1.56,0,.51-.17.94-.51,1.28-.34.34-.79.55-1.36.64v-.22c.69.04,1.23.25,1.6.61.37.36.56.83.56,1.41,0,.69-.27,1.24-.8,1.65-.53.41-1.29.61-2.27.61h-4.45Zm1.86-4.74h2.21c.43,0,.76-.09.99-.28.23-.19.35-.45.35-.79s-.12-.6-.35-.78c-.24-.18-.57-.27-.99-.27h-2.21v2.13Zm0,3.5h2.38c.47,0,.83-.1,1.08-.29.25-.19.38-.47.38-.85s-.13-.66-.38-.85c-.25-.19-.61-.29-1.08-.29h-2.38v2.27Z"/>
          <path class="cls-2" d="m143.1,158.01l-.62-1.57c.35-.13.65-.3.89-.5s.43-.47.58-.8c.14-.33.25-.73.31-1.22.06-.49.1-1.06.1-1.74v-2.48h6.43v8.08h-1.98v-6.54h-2.62v1.01c0,1.16-.11,2.14-.32,2.92-.21.78-.54,1.41-.99,1.86-.45.46-1.04.78-1.76.98Z"/>
          <path class="cls-2" d="m157.02,157.95c-1.35,0-2.42-.37-3.18-1.12-.77-.75-1.15-1.77-1.15-3.07,0-.84.16-1.58.5-2.21.33-.63.79-1.12,1.38-1.47.59-.35,1.28-.53,2.07-.53s1.43.17,1.95.5c.52.33.92.79,1.19,1.39.27.6.41,1.3.41,2.1v.53h-5.89v-1.06h4.46l-.27.22c0-.75-.16-1.32-.47-1.71-.31-.39-.77-.59-1.37-.59-.66,0-1.17.23-1.53.7-.36.47-.54,1.13-.54,1.97v.21c0,.87.22,1.53.65,1.96.43.43,1.04.65,1.83.65.46,0,.89-.06,1.29-.18.4-.12.78-.32,1.14-.6l.59,1.34c-.38.31-.84.55-1.38.72-.53.17-1.1.26-1.7.26Z"/>
          <path class="cls-2" d="m162.04,157.79v-8.08h1.98v3.17h3.65v-3.17h1.98v8.08h-1.98v-3.38h-3.65v3.38h-1.98Z"/>
          <path class="cls-2" d="m171.93,157.79v-8.08h1.98v3.17h3.65v-3.17h1.98v8.08h-1.98v-3.38h-3.65v3.38h-1.98Z"/>
          <path class="cls-2" d="m181.82,157.79v-8.08h1.98v2.7h2.13c1.08,0,1.89.23,2.43.68.54.45.82,1.11.82,1.96,0,.55-.13,1.04-.38,1.45s-.63.73-1.11.95-1.07.34-1.75.34h-4.11Zm1.98-1.31h1.86c.54,0,.96-.11,1.25-.34s.43-.58.43-1.05-.14-.81-.42-1.03c-.28-.22-.7-.33-1.26-.33h-1.86v2.75Zm6.38,1.31v-8.08h1.98v8.08h-1.98Z"/>
          <path class="cls-2" d="m194.44,157.79v-8.08h1.66l2.78,4.83,2.78-4.83h1.66v8.08h-1.76v-5.84h.37l-2.59,4.53h-.93l-2.59-4.53h.37v5.84h-1.76Z"/>
          <path class="cls-2" d="m26.72,172.79v-8.08h1.81v6.11h-.48l4.59-6.11h1.65v8.08h-1.81v-6.13h.5l-4.61,6.13h-1.65Z"/>
          <path class="cls-2" d="m40.94,172.79v-8.08h7.57v8.08h-1.98v-6.54h-3.6v6.54h-1.98Z"/>
          <path class="cls-2" d="m50.85,176.24v-9.52c0-.33-.01-.67-.03-1.01s-.05-.68-.1-1.01h1.94l.18,1.7h-.18c.16-.57.5-1.02,1.02-1.35s1.12-.5,1.8-.5,1.34.17,1.87.5c.53.34.95.82,1.25,1.44s.45,1.37.45,2.25-.15,1.63-.45,2.26-.71,1.11-1.25,1.45c-.53.34-1.16.5-1.87.5-.67,0-1.26-.17-1.78-.5-.51-.33-.85-.77-1.02-1.33h.18v5.12h-2Zm4.06-4.83c.64,0,1.15-.22,1.54-.66.38-.44.58-1.11.58-2.01s-.19-1.56-.58-2-.9-.66-1.54-.66-1.14.22-1.52.66c-.38.44-.58,1.1-.58,2s.19,1.57.58,2.01c.38.44.89.66,1.52.66Z"/>
          <path class="cls-2" d="m64.64,172.95c-.83,0-1.55-.17-2.16-.51-.61-.34-1.08-.83-1.42-1.46-.34-.63-.5-1.38-.5-2.24s.17-1.61.5-2.23.81-1.11,1.42-1.45c.61-.34,1.33-.51,2.16-.51s1.55.17,2.17.51c.61.34,1.09.82,1.42,1.45s.5,1.37.5,2.23-.17,1.61-.5,2.24c-.34.63-.81,1.11-1.42,1.46-.61.34-1.34.51-2.17.51Zm0-1.54c.63,0,1.13-.22,1.5-.66.37-.44.56-1.11.56-2.01s-.19-1.56-.56-2c-.37-.44-.88-.66-1.5-.66s-1.13.22-1.5.66c-.37.44-.56,1.1-.56,2s.19,1.57.56,2.01c.37.44.87.66,1.5.66Z"/>
          <path class="cls-2" d="m70.62,172.79v-8.08h1.98v3.17h1.22l2.37-3.17h2.14l-2.98,4.03-.43-.62c.3.03.56.11.79.24.23.13.45.31.66.54.21.23.41.52.62.87l1.7,3.02h-2.13l-1.38-2.43c-.14-.25-.28-.44-.42-.58s-.29-.23-.46-.29c-.17-.05-.38-.08-.62-.08h-1.07v3.38h-1.98Z"/>
          <path class="cls-2" d="m79.81,176.24v-9.52c0-.33-.01-.67-.03-1.01s-.05-.68-.1-1.01h1.94l.18,1.7h-.18c.16-.57.5-1.02,1.02-1.35.52-.34,1.12-.5,1.8-.5s1.34.17,1.87.5c.53.34.95.82,1.25,1.44s.45,1.37.45,2.25-.15,1.63-.45,2.26-.71,1.11-1.25,1.45c-.53.34-1.16.5-1.87.5-.67,0-1.26-.17-1.78-.5s-.85-.77-1.02-1.33h.18v5.12h-2Zm4.06-4.83c.64,0,1.15-.22,1.54-.66.38-.44.58-1.11.58-2.01s-.19-1.56-.58-2c-.38-.44-.9-.66-1.54-.66s-1.14.22-1.52.66c-.38.44-.58,1.1-.58,2s.19,1.57.58,2.01c.38.44.89.66,1.52.66Z"/>
          <path class="cls-2" d="m93.07,172.95c-.7,0-1.32-.17-1.86-.5-.53-.34-.95-.82-1.25-1.45-.3-.63-.45-1.38-.45-2.26s.15-1.62.45-2.25c.3-.62.71-1.1,1.25-1.44s1.15-.5,1.86-.5,1.28.17,1.8.5c.52.34.86.79,1.03,1.35h-.18l.18-1.7h1.92c-.03.33-.06.67-.09,1.01-.03.34-.04.68-.04,1.01v6.06h-1.98l-.02-1.66h.19c-.17.55-.52,1-1.04,1.33-.52.33-1.11.5-1.78.5Zm.56-1.54c.63,0,1.14-.22,1.52-.66.38-.44.58-1.11.58-2.01s-.19-1.56-.58-2c-.38-.44-.89-.66-1.52-.66s-1.14.22-1.52.66c-.38.44-.58,1.1-.58,2s.19,1.57.57,2.01c.38.44.89.66,1.53.66Z"/>
          <path class="cls-2" d="m100.03,172.79v-8.08h1.87v6.54h2.85v-6.54h1.86v6.54h2.85v-6.54h1.87v8.08h-11.3Z"/>
          <path class="cls-2" d="m117.57,172.95c-1.35,0-2.42-.37-3.18-1.12-.77-.75-1.15-1.77-1.15-3.07,0-.84.17-1.58.5-2.21.33-.63.79-1.12,1.38-1.47s1.28-.53,2.07-.53,1.43.17,1.95.5c.52.33.92.79,1.19,1.39.27.6.41,1.3.41,2.1v.53h-5.89v-1.06h4.46l-.27.22c0-.75-.16-1.32-.47-1.71-.32-.39-.77-.59-1.37-.59-.66,0-1.17.23-1.53.7-.36.47-.54,1.13-.54,1.97v.21c0,.87.22,1.53.65,1.96s1.04.65,1.83.65c.46,0,.89-.06,1.29-.18.4-.12.78-.32,1.14-.6l.59,1.34c-.38.31-.84.55-1.38.72-.53.17-1.1.26-1.7.26Z"/>
          <path class="cls-2" d="m122.59,172.79v-8.08h1.98v3.17h3.65v-3.17h1.98v8.08h-1.98v-3.38h-3.65v3.38h-1.98Z"/>
          <path class="cls-2" d="m132.48,172.79v-8.08h1.98v3.17h3.65v-3.17h1.98v8.08h-1.98v-3.38h-3.65v3.38h-1.98Z"/>
          <path class="cls-2" d="m142.37,172.79v-8.08h1.98v2.7h2.13c1.08,0,1.89.23,2.43.68.54.45.82,1.11.82,1.96,0,.55-.13,1.04-.38,1.45s-.63.73-1.11.95-1.07.34-1.75.34h-4.11Zm1.98-1.31h1.86c.54,0,.96-.11,1.25-.34.29-.23.43-.58.43-1.05s-.14-.81-.42-1.03c-.28-.22-.7-.33-1.26-.33h-1.86v2.75Zm6.38,1.31v-8.08h1.98v8.08h-1.98Z"/>
          <path class="cls-2" d="m154.99,172.79v-8.08h1.66l2.78,4.83,2.78-4.83h1.66v8.08h-1.76v-5.84h.37l-2.59,4.53h-.93l-2.59-4.53h.37v5.84h-1.76Z"/>
          <path class="cls-2" d="m170.33,173.01l-.62-1.57c.35-.13.65-.3.89-.5.24-.21.43-.47.58-.8.14-.33.25-.73.31-1.22.06-.49.1-1.06.1-1.74v-2.48h6.43v8.08h-1.98v-6.54h-2.62v1.01c0,1.16-.11,2.14-.32,2.92-.21.78-.54,1.41-.99,1.86-.45.46-1.04.78-1.76.98Z"/>
          <path class="cls-2" d="m184,172.95c-.83,0-1.55-.17-2.16-.51-.61-.34-1.08-.83-1.42-1.46-.34-.63-.5-1.38-.5-2.24s.17-1.61.5-2.23c.34-.62.81-1.11,1.42-1.45.61-.34,1.33-.51,2.16-.51s1.55.17,2.17.51,1.09.82,1.42,1.45c.34.62.5,1.37.5,2.23s-.17,1.61-.5,2.24c-.34.63-.81,1.11-1.42,1.46s-1.34.51-2.17.51Zm0-1.54c.63,0,1.13-.22,1.5-.66.37-.44.56-1.11.56-2.01s-.19-1.56-.56-2c-.37-.44-.87-.66-1.5-.66s-1.13.22-1.5.66-.56,1.1-.56,2,.19,1.57.56,2.01c.37.44.88.66,1.5.66Z"/>
          <path class="cls-2" d="m189.98,172.79v-8.08h6.06v1.57h-4.06v6.51h-2Z"/>
          <path class="cls-2" d="m201.16,172.95c-.83,0-1.55-.17-2.16-.51-.61-.34-1.08-.83-1.42-1.46-.34-.63-.5-1.38-.5-2.24s.17-1.61.5-2.23c.34-.62.81-1.11,1.42-1.45.61-.34,1.33-.51,2.16-.51s1.55.17,2.17.51,1.09.82,1.42,1.45c.34.62.5,1.37.5,2.23s-.17,1.61-.5,2.24c-.34.63-.81,1.11-1.42,1.46s-1.34.51-2.17.51Zm0-1.54c.63,0,1.13-.22,1.5-.66.37-.44.56-1.11.56-2.01s-.19-1.56-.56-2c-.37-.44-.87-.66-1.5-.66s-1.13.22-1.5.66-.56,1.1-.56,2,.19,1.57.56,2.01c.37.44.88.66,1.5.66Z"/>
          <path class="cls-2" d="m208.89,172.79v-6.51h-2.77v-1.57h7.54v1.57h-2.78v6.51h-1.98Z"/>
          <path class="cls-2" d="m214.89,172.79v-8.08h1.81v6.11h-.48l4.59-6.11h1.65v8.08h-1.81v-6.13h.5l-4.61,6.13h-1.65Z"/>
          <path class="cls-2" d="m224.73,172.79v-8.08h7.57v8.08h-1.98v-6.54h-3.6v6.54h-1.98Z"/>
          <path class="cls-2" d="m238.28,172.95c-.83,0-1.55-.17-2.16-.51-.61-.34-1.08-.83-1.42-1.46-.34-.63-.5-1.38-.5-2.24s.17-1.61.5-2.23c.34-.62.81-1.11,1.42-1.45.61-.34,1.33-.51,2.16-.51s1.55.17,2.17.51,1.09.82,1.42,1.45c.34.62.5,1.37.5,2.23s-.17,1.61-.5,2.24c-.34.63-.81,1.11-1.42,1.46s-1.34.51-2.17.51Zm0-1.54c.63,0,1.13-.22,1.5-.66.37-.44.56-1.11.56-2.01s-.19-1.56-.56-2c-.37-.44-.87-.66-1.5-.66s-1.13.22-1.5.66-.56,1.1-.56,2,.19,1.57.56,2.01c.37.44.88.66,1.5.66Z"/>
          <path class="cls-2" d="m244.27,172.79v-8.08h1.66l2.78,4.83,2.78-4.83h1.66v8.08h-1.76v-5.84h.37l-2.59,4.53h-.93l-2.59-4.53h.37v5.84h-1.76Z"/>
        </g>
        <g>
          <path class="cls-2" d="m15.71,203.26c-1.17,0-2.18-.24-3.02-.71-.84-.47-1.48-1.15-1.93-2.02-.45-.87-.67-1.9-.67-3.08s.22-2.21.67-3.07c.45-.86,1.09-1.53,1.93-2.01.84-.47,1.84-.71,3.02-.71.79,0,1.5.11,2.14.34s1.18.55,1.64.99l-.67,1.63c-.5-.41-.98-.7-1.45-.87-.46-.18-.99-.26-1.59-.26-1.14,0-2.01.34-2.62,1.03-.6.69-.9,1.67-.9,2.94s.3,2.25.9,2.94c.6.69,1.47,1.04,2.62,1.04.6,0,1.13-.09,1.59-.26.46-.18.95-.47,1.45-.89l.67,1.63c-.46.43-1.01.76-1.64.99s-1.35.35-2.14.35Z"/>
          <path class="cls-2" d="m25.12,203.26c-1.35,0-2.42-.37-3.18-1.12-.77-.75-1.15-1.77-1.15-3.07,0-.84.17-1.58.5-2.21.33-.63.79-1.12,1.38-1.47s1.28-.53,2.07-.53,1.43.17,1.95.5c.52.33.92.79,1.19,1.39.27.6.41,1.3.41,2.1v.53h-5.89v-1.06h4.46l-.27.22c0-.75-.16-1.32-.47-1.71-.32-.39-.77-.59-1.37-.59-.66,0-1.17.23-1.53.7-.36.47-.54,1.13-.54,1.97v.21c0,.87.22,1.53.65,1.96s1.04.65,1.83.65c.46,0,.89-.06,1.29-.18.4-.12.78-.32,1.14-.6l.59,1.34c-.38.31-.84.55-1.38.72-.53.17-1.1.26-1.7.26Z"/>
          <path class="cls-2" d="m30.14,203.1v-8.08h6.06v1.57h-4.06v6.51h-2Z"/>
          <path class="cls-2" d="m37.62,203.1v-8.08h1.66l2.79,4.83,2.78-4.83h1.66v8.08h-1.76v-5.84h.37l-2.59,4.53h-.93l-2.59-4.53h.37v5.84h-1.76Z"/>
          <path class="cls-2" d="m52.75,203.26c-1.36,0-2.42-.37-3.18-1.12-.77-.75-1.15-1.77-1.15-3.07,0-.84.17-1.58.5-2.21.33-.63.79-1.12,1.38-1.47.59-.35,1.28-.53,2.07-.53s1.43.17,1.95.5c.52.33.92.79,1.19,1.39.27.6.41,1.3.41,2.1v.53h-5.89v-1.06h4.46l-.27.22c0-.75-.16-1.32-.47-1.71s-.77-.59-1.37-.59c-.66,0-1.17.23-1.53.7-.36.47-.54,1.13-.54,1.97v.21c0,.87.22,1.53.65,1.96.43.43,1.04.65,1.83.65.46,0,.89-.06,1.29-.18.4-.12.78-.32,1.14-.6l.59,1.34c-.38.31-.84.55-1.38.72-.53.17-1.1.26-1.7.26Z"/>
          <path class="cls-2" d="m57.78,203.1v-8.08h1.98v3.17h3.65v-3.17h1.98v8.08h-1.98v-3.38h-3.65v3.38h-1.98Z"/>
          <path class="cls-2" d="m69.41,203.1v-6.51h-2.77v-1.57h7.54v1.57h-2.78v6.51h-1.98Z"/>
          <path class="cls-2" d="m75.41,203.1v-8.08h1.81v6.11h-.48l4.59-6.11h1.65v8.08h-1.81v-6.13h.5l-4.61,6.13h-1.65Z"/>
          <path class="cls-2" d="m85.31,206.55v-9.52c0-.33-.01-.67-.03-1.01s-.05-.68-.1-1.01h1.94l.18,1.7h-.18c.16-.57.5-1.02,1.02-1.35s1.12-.5,1.8-.5,1.34.17,1.87.5c.53.34.95.82,1.25,1.44s.45,1.37.45,2.25-.15,1.63-.45,2.26-.71,1.11-1.25,1.45c-.53.34-1.16.5-1.87.5-.67,0-1.26-.17-1.78-.5-.51-.33-.85-.77-1.02-1.33h.18v5.12h-2Zm4.06-4.83c.64,0,1.15-.22,1.54-.66.38-.44.58-1.11.58-2.01s-.19-1.56-.58-2-.9-.66-1.54-.66-1.14.22-1.52.66c-.38.44-.58,1.1-.58,2s.19,1.57.58,2.01c.38.44.89.66,1.52.66Z"/>
          <path class="cls-2" d="m99.1,203.26c-.83,0-1.55-.17-2.16-.51s-1.08-.83-1.42-1.46c-.34-.63-.5-1.38-.5-2.24s.17-1.61.5-2.23.81-1.11,1.42-1.45,1.33-.51,2.16-.51,1.55.17,2.17.51,1.09.82,1.42,1.45.5,1.37.5,2.23-.17,1.61-.5,2.24c-.34.63-.81,1.11-1.42,1.46s-1.34.51-2.17.51Zm0-1.54c.63,0,1.13-.22,1.5-.66.37-.44.56-1.11.56-2.01s-.19-1.56-.56-2-.88-.66-1.5-.66-1.13.22-1.5.66-.56,1.1-.56,2,.19,1.57.56,2.01c.37.44.87.66,1.5.66Z"/>
          <path class="cls-2" d="m105.09,203.1v-8.08h4.3c1.01,0,1.75.18,2.22.55.47.37.7.89.7,1.56,0,.51-.17.94-.51,1.28s-.79.55-1.36.64v-.22c.69.04,1.23.25,1.6.61.37.36.56.83.56,1.41,0,.69-.27,1.24-.8,1.65s-1.29.61-2.27.61h-4.45Zm1.86-4.74h2.21c.43,0,.76-.09.99-.28.23-.19.35-.45.35-.79s-.12-.6-.35-.78c-.23-.18-.57-.27-.99-.27h-2.21v2.13Zm0,3.5h2.38c.47,0,.83-.1,1.08-.29.25-.19.38-.47.38-.85s-.13-.66-.38-.85c-.25-.19-.61-.29-1.08-.29h-2.38v2.27Z"/>
          <path class="cls-2" d="m117.54,203.26c-.7,0-1.32-.17-1.86-.5-.53-.34-.95-.82-1.25-1.45-.3-.63-.45-1.38-.45-2.26s.15-1.62.45-2.25c.3-.62.71-1.1,1.25-1.44s1.15-.5,1.86-.5,1.28.17,1.8.5c.52.34.86.79,1.03,1.35h-.18l.18-1.7h1.92c-.03.33-.06.67-.09,1.01-.03.34-.04.68-.04,1.01v6.06h-1.98l-.02-1.66h.19c-.17.55-.52,1-1.04,1.33-.52.33-1.11.5-1.78.5Zm.56-1.54c.63,0,1.14-.22,1.52-.66.38-.44.58-1.11.58-2.01s-.19-1.56-.58-2c-.38-.44-.89-.66-1.52-.66s-1.14.22-1.52.66c-.38.44-.58,1.1-.58,2s.19,1.57.57,2.01c.38.44.89.66,1.53.66Z"/>
          <path class="cls-2" d="m124.5,203.1v-8.08h1.98v3.17h3.65v-3.17h1.98v8.08h-1.98v-3.38h-3.65v3.38h-1.98Z"/>
          <path class="cls-2" d="m134.38,203.1v-8.08h1.98v3.17h3.65v-3.17h1.98v8.08h-1.98v-3.38h-3.65v3.38h-1.98Z"/>
          <path class="cls-2" d="m144.27,203.1v-8.08h1.98v2.7h2.13c1.08,0,1.89.23,2.43.68.54.45.82,1.11.82,1.96,0,.55-.13,1.04-.38,1.45s-.63.73-1.11.95c-.49.22-1.07.34-1.75.34h-4.11Zm1.98-1.31h1.86c.54,0,.96-.11,1.25-.34s.43-.58.43-1.05-.14-.81-.42-1.03-.7-.33-1.26-.33h-1.86v2.75Zm6.38,1.31v-8.08h1.98v8.08h-1.98Z"/>
          <path class="cls-2" d="m160.86,203.26c-1.35,0-2.41-.37-3.18-1.12-.77-.75-1.15-1.77-1.15-3.07,0-.84.17-1.58.5-2.21.33-.63.79-1.12,1.38-1.47s1.28-.53,2.07-.53,1.43.17,1.95.5c.52.33.92.79,1.19,1.39.27.6.41,1.3.41,2.1v.53h-5.89v-1.06h4.46l-.27.22c0-.75-.16-1.32-.47-1.71-.31-.39-.77-.59-1.37-.59-.66,0-1.17.23-1.53.7-.36.47-.54,1.13-.54,1.97v.21c0,.87.22,1.53.65,1.96s1.04.65,1.83.65c.46,0,.89-.06,1.29-.18.4-.12.78-.32,1.14-.6l.59,1.34c-.38.31-.84.55-1.38.72-.53.17-1.1.26-1.7.26Z"/>
          <path class="cls-2" d="m174.05,203.26c-.83,0-1.56-.17-2.19-.51-.62-.34-1.11-.83-1.45-1.46s-.51-1.39-.51-2.26.17-1.62.52-2.24c.35-.62.83-1.09,1.45-1.42.62-.33,1.34-.5,2.18-.5.53,0,1.05.08,1.56.25.51.17.92.4,1.24.71l-.61,1.39c-.29-.27-.61-.47-.97-.6s-.71-.2-1.05-.2c-.71,0-1.27.22-1.67.67-.4.45-.6,1.1-.6,1.95s.2,1.51.6,1.97c.4.46.96.69,1.67.69.33,0,.67-.06,1.03-.19s.69-.33.98-.59l.61,1.38c-.33.31-.75.55-1.26.72-.51.17-1.02.26-1.54.26Z"/>
          <path class="cls-2" d="m182.73,203.32l-.62-1.57c.35-.13.65-.3.89-.5.24-.21.43-.47.57-.8.14-.33.25-.73.31-1.22s.1-1.06.1-1.74v-2.48h6.43v8.08h-1.98v-6.54h-2.62v1.01c0,1.16-.11,2.14-.32,2.92-.21.78-.54,1.41-.99,1.86-.45.46-1.04.78-1.76.98Z"/>
          <path class="cls-2" d="m196.4,203.26c-.83,0-1.55-.17-2.16-.51-.61-.34-1.08-.83-1.42-1.46-.34-.63-.51-1.38-.51-2.24s.17-1.61.51-2.23c.34-.62.81-1.11,1.42-1.45.61-.34,1.33-.51,2.16-.51s1.55.17,2.17.51,1.09.82,1.43,1.45c.34.62.5,1.37.5,2.23s-.17,1.61-.5,2.24c-.34.63-.81,1.11-1.43,1.46s-1.34.51-2.17.51Zm0-1.54c.63,0,1.13-.22,1.5-.66.38-.44.56-1.11.56-2.01s-.19-1.56-.56-2c-.37-.44-.87-.66-1.5-.66s-1.13.22-1.5.66-.56,1.1-.56,2,.19,1.57.56,2.01c.37.44.88.66,1.5.66Z"/>
          <path class="cls-2" d="m202.38,203.1v-8.08h6.06v1.57h-4.06v6.51h-2Z"/>
          <path class="cls-2" d="m213.56,203.26c-.83,0-1.55-.17-2.16-.51-.61-.34-1.08-.83-1.42-1.46-.34-.63-.51-1.38-.51-2.24s.17-1.61.51-2.23c.34-.62.81-1.11,1.42-1.45.61-.34,1.33-.51,2.16-.51s1.55.17,2.17.51,1.09.82,1.43,1.45c.34.62.5,1.37.5,2.23s-.17,1.61-.5,2.24c-.34.63-.81,1.11-1.43,1.46s-1.34.51-2.17.51Zm0-1.54c.63,0,1.13-.22,1.5-.66.38-.44.56-1.11.56-2.01s-.19-1.56-.56-2c-.37-.44-.87-.66-1.5-.66s-1.13.22-1.5.66-.56,1.1-.56,2,.19,1.57.56,2.01c.37.44.88.66,1.5.66Z"/>
          <path class="cls-2" d="m221.29,203.1v-6.51h-2.77v-1.57h7.54v1.57h-2.78v6.51h-1.98Z"/>
          <path class="cls-2" d="m227.29,203.1v-8.08h1.81v6.11h-.48l4.59-6.11h1.65v8.08h-1.81v-6.13h.5l-4.61,6.13h-1.65Z"/>
          <path class="cls-2" d="m237.13,203.1v-8.08h7.57v8.08h-1.98v-6.54h-3.6v6.54h-1.98Z"/>
          <path class="cls-2" d="m250.68,203.26c-.83,0-1.55-.17-2.16-.51-.61-.34-1.08-.83-1.42-1.46-.34-.63-.51-1.38-.51-2.24s.17-1.61.51-2.23c.34-.62.81-1.11,1.42-1.45.61-.34,1.33-.51,2.16-.51s1.55.17,2.17.51,1.09.82,1.43,1.45c.34.62.5,1.37.5,2.23s-.17,1.61-.5,2.24c-.34.63-.81,1.11-1.43,1.46s-1.34.51-2.17.51Zm0-1.54c.63,0,1.13-.22,1.5-.66.38-.44.56-1.11.56-2.01s-.19-1.56-.56-2c-.37-.44-.87-.66-1.5-.66s-1.13.22-1.5.66-.56,1.1-.56,2,.19,1.57.56,2.01c.37.44.88.66,1.5.66Z"/>
          <path class="cls-2" d="m256.67,203.1v-8.08h1.66l2.79,4.83,2.78-4.83h1.66v8.08h-1.76v-5.84h.37l-2.59,4.53h-.93l-2.59-4.53h.37v5.84h-1.76Z"/>
          <path class="cls-2" d="m267.56,203.1v-2.22h2.24v2.22h-2.24Z"/>
          <path class="cls-2" d="m45.37,218.1v-11.28h2.03v4.8h1.92l-.42.27,3.33-5.07h2.27l-3.71,5.46-.78-.58c.72.11,1.33.35,1.82.74.48.39.91.94,1.27,1.64l2,4.02h-2.22l-1.55-3.25c-.27-.57-.58-.97-.95-1.2-.37-.23-.83-.35-1.4-.35h-1.57v4.8h-2.03Z"/>
          <path class="cls-2" d="m56.36,221.55v-9.52c0-.33,0-.67-.03-1.01s-.05-.68-.1-1.01h1.94l.18,1.7h-.18c.16-.57.5-1.02,1.02-1.35s1.12-.5,1.8-.5,1.34.17,1.87.5.95.82,1.25,1.44.45,1.37.45,2.25-.15,1.63-.45,2.26-.71,1.11-1.25,1.45c-.53.34-1.16.5-1.87.5-.67,0-1.26-.17-1.78-.5-.51-.33-.85-.77-1.02-1.33h.18v5.12h-2Zm4.06-4.83c.64,0,1.15-.22,1.54-.66.38-.44.58-1.11.58-2.01s-.19-1.56-.58-2c-.38-.44-.9-.66-1.54-.66s-1.14.22-1.52.66c-.38.44-.58,1.1-.58,2s.19,1.57.58,2.01c.38.44.89.66,1.52.66Z"/>
          <path class="cls-2" d="m66.21,221.73l-.46-1.58c.5-.11.92-.23,1.26-.37.34-.14.62-.32.85-.54.22-.22.41-.51.56-.86l.4-.94-.05.78-3.52-8.19h2.13l2.53,6.3h-.46l2.54-6.3h2.02l-3.68,8.53c-.25.58-.51,1.05-.8,1.43s-.6.68-.93.91c-.33.23-.69.41-1.09.54s-.83.23-1.3.3Z"/>
          <path class="cls-2" d="m75.22,218.1v-8.08h6.06v1.57h-4.06v6.51h-2Z"/>
          <path class="cls-2" d="m86.41,218.26c-.83,0-1.55-.17-2.16-.51s-1.08-.83-1.42-1.46c-.34-.63-.5-1.38-.5-2.24s.17-1.61.5-2.23.81-1.11,1.42-1.45,1.33-.51,2.16-.51,1.55.17,2.17.51c.61.34,1.09.82,1.42,1.45s.5,1.37.5,2.23-.17,1.61-.5,2.24c-.34.63-.81,1.11-1.42,1.46-.61.34-1.34.51-2.17.51Zm0-1.54c.63,0,1.13-.22,1.5-.66.37-.44.56-1.11.56-2.01s-.19-1.56-.56-2c-.37-.44-.88-.66-1.5-.66s-1.13.22-1.5.66c-.37.44-.56,1.1-.56,2s.19,1.57.56,2.01c.37.44.87.66,1.5.66Z"/>
          <path class="cls-2" d="m92.39,218.1v-8.08h4.3c1.01,0,1.75.18,2.22.55.47.37.7.89.7,1.56,0,.51-.17.94-.51,1.28-.34.34-.79.55-1.36.64v-.22c.69.04,1.23.25,1.6.61.37.36.56.83.56,1.41,0,.69-.27,1.24-.8,1.65-.53.41-1.29.61-2.27.61h-4.45Zm1.86-4.74h2.21c.43,0,.76-.09.99-.28.23-.19.35-.45.35-.79s-.12-.6-.35-.78c-.24-.18-.57-.27-.99-.27h-2.21v2.13Zm0,3.5h2.38c.47,0,.83-.1,1.08-.29.25-.19.38-.47.38-.85s-.13-.66-.38-.85c-.25-.19-.61-.29-1.08-.29h-2.38v2.27Z"/>
          <path class="cls-2" d="m104.84,218.26c-.7,0-1.32-.17-1.86-.5-.53-.34-.95-.82-1.25-1.45-.3-.63-.45-1.38-.45-2.26s.15-1.62.45-2.25c.3-.62.71-1.1,1.25-1.44s1.15-.5,1.86-.5,1.28.17,1.8.5.86.79,1.03,1.35h-.18l.18-1.7h1.92c-.03.33-.06.67-.09,1.01s-.04.68-.04,1.01v6.06h-1.98l-.02-1.66h.19c-.17.55-.52,1-1.04,1.33-.52.33-1.12.5-1.78.5Zm.56-1.54c.63,0,1.14-.22,1.52-.66.38-.44.58-1.11.58-2.01s-.19-1.56-.58-2-.89-.66-1.52-.66-1.13.22-1.52.66c-.38.44-.58,1.1-.58,2s.19,1.57.57,2.01c.38.44.89.66,1.53.66Z"/>
          <path class="cls-2" d="m111.13,218.1l1.23-2.13c.21-.36.48-.65.79-.87.31-.22.64-.33.98-.33h.35l-.02.18c-.95,0-1.68-.21-2.19-.62-.51-.42-.77-1.02-.77-1.82s.26-1.4.79-1.83c.53-.43,1.3-.65,2.33-.65h4.02v8.08h-1.82v-2.85h-.91c-.33,0-.62.09-.87.27-.25.18-.46.42-.63.7l-1.06,1.87h-2.22Zm3.89-4.14h1.81v-2.64h-1.81c-.54,0-.95.12-1.22.35-.27.23-.41.55-.41.96,0,.43.14.75.41.98.27.23.68.34,1.22.34Z"/>
          <path class="cls-2" d="m125.3,218.1v-8.08h1.87v6.54h2.85v-6.54h1.86v6.54h2.85v-6.54h1.87v8.08h-11.3Z"/>
          <path class="cls-2" d="m142.84,218.26c-1.36,0-2.42-.37-3.18-1.12-.77-.75-1.15-1.77-1.15-3.07,0-.84.17-1.58.5-2.21.33-.63.79-1.12,1.38-1.47.59-.35,1.28-.53,2.07-.53s1.43.17,1.95.5c.52.33.92.79,1.19,1.39.27.6.41,1.3.41,2.1v.53h-5.89v-1.06h4.46l-.27.22c0-.75-.16-1.32-.47-1.71s-.77-.59-1.37-.59c-.66,0-1.17.23-1.53.7-.36.47-.54,1.13-.54,1.97v.21c0,.87.22,1.53.65,1.96.43.43,1.04.65,1.83.65.46,0,.89-.06,1.29-.18.4-.12.78-.32,1.14-.6l.59,1.34c-.38.31-.84.55-1.38.72-.53.17-1.1.26-1.7.26Z"/>
          <path class="cls-2" d="m147.65,218.32l-.62-1.57c.35-.13.65-.3.89-.5s.43-.47.58-.8c.14-.33.25-.73.31-1.22.06-.49.1-1.06.1-1.74v-2.48h6.43v8.08h-1.98v-6.54h-2.62v1.01c0,1.16-.11,2.14-.32,2.92-.21.78-.54,1.41-.99,1.86-.45.46-1.04.78-1.76.98Z"/>
          <path class="cls-2" d="m157.61,218.1v-8.08h1.98v3.17h1.22l2.37-3.17h2.14l-2.98,4.03-.43-.62c.3.03.56.11.79.24.23.13.45.31.65.54.21.23.41.52.62.87l1.7,3.02h-2.13l-1.38-2.43c-.14-.25-.28-.44-.42-.58s-.29-.23-.46-.29c-.17-.05-.38-.08-.62-.08h-1.07v3.38h-1.98Z"/>
          <path class="cls-2" d="m170.44,218.26c-.83,0-1.55-.17-2.16-.51-.61-.34-1.08-.83-1.42-1.46-.34-.63-.51-1.38-.51-2.24s.17-1.61.51-2.23c.34-.62.81-1.11,1.42-1.45.61-.34,1.33-.51,2.16-.51s1.55.17,2.17.51,1.09.82,1.43,1.45c.34.62.5,1.37.5,2.23s-.17,1.61-.5,2.24c-.34.63-.81,1.11-1.43,1.46s-1.34.51-2.17.51Zm0-1.54c.63,0,1.13-.22,1.5-.66.38-.44.56-1.11.56-2.01s-.19-1.56-.56-2c-.37-.44-.87-.66-1.5-.66s-1.13.22-1.5.66-.56,1.1-.56,2,.19,1.57.56,2.01c.37.44.88.66,1.5.66Z"/>
          <path class="cls-2" d="m176.42,218.1v-8.08h6.06v1.57h-4.06v6.51h-2Z"/>
          <path class="cls-2" d="m183.96,221.55v-9.52c0-.33,0-.67-.03-1.01s-.05-.68-.1-1.01h1.94l.18,1.7h-.18c.16-.57.5-1.02,1.02-1.35s1.12-.5,1.8-.5,1.34.17,1.87.5.95.82,1.25,1.44.45,1.37.45,2.25-.15,1.63-.45,2.26-.71,1.11-1.25,1.45c-.53.34-1.16.5-1.87.5-.67,0-1.27-.17-1.78-.5s-.85-.77-1.02-1.33h.18v5.12h-2Zm4.06-4.83c.64,0,1.15-.22,1.54-.66.38-.44.58-1.11.58-2.01s-.19-1.56-.58-2c-.38-.44-.89-.66-1.54-.66s-1.14.22-1.52.66c-.38.44-.58,1.1-.58,2s.19,1.57.58,2.01c.38.44.89.66,1.52.66Z"/>
          <path class="cls-2" d="m197.22,218.26c-.7,0-1.32-.17-1.86-.5-.53-.34-.95-.82-1.25-1.45s-.45-1.38-.45-2.26.15-1.62.45-2.25.71-1.1,1.25-1.44,1.15-.5,1.86-.5,1.28.17,1.8.5.86.79,1.03,1.35h-.18l.18-1.7h1.92c-.03.33-.06.67-.09,1.01s-.04.68-.04,1.01v6.06h-1.98l-.02-1.66h.19c-.17.55-.52,1-1.04,1.33-.52.33-1.11.5-1.78.5Zm.56-1.54c.63,0,1.13-.22,1.52-.66.38-.44.58-1.11.58-2.01s-.19-1.56-.58-2-.89-.66-1.52-.66-1.14.22-1.52.66c-.38.44-.58,1.1-.58,2s.19,1.57.57,2.01c.38.44.89.66,1.53.66Z"/>
          <path class="cls-2" d="m208.93,221.55v-5.02h.18c-.17.55-.46.98-.86,1.28-.4.3-.88.45-1.45.45s-1.11-.17-1.56-.52c-.46-.35-.81-.83-1.06-1.46-.26-.63-.38-1.37-.38-2.22s.12-1.61.38-2.23c.25-.62.6-1.11,1.05-1.45.46-.34.98-.51,1.58-.51.57,0,1.05.15,1.45.45.4.3.69.72.86,1.26h-.18v-5.25h1.98v5.25h-.18c.17-.54.46-.97.86-1.26.4-.3.88-.45,1.45-.45.6,0,1.12.17,1.58.51s.8.82,1.06,1.45c.25.62.38,1.37.38,2.23s-.12,1.59-.38,2.22c-.25.63-.6,1.12-1.06,1.46s-.98.52-1.58.52c-.55,0-1.03-.15-1.43-.45-.4-.3-.69-.73-.87-1.28h.18v5.02h-1.98Zm-1.55-4.8c.49,0,.88-.22,1.16-.67.28-.45.42-1.12.42-2.03s-.14-1.57-.43-2.02c-.29-.45-.67-.68-1.15-.68s-.88.23-1.17.68c-.29.45-.43,1.13-.43,2.02s.14,1.58.43,2.03c.29.45.68.67,1.17.67Zm5.09,0c.49,0,.88-.22,1.17-.67.29-.45.43-1.12.43-2.03s-.15-1.57-.44-2.02c-.29-.45-.68-.68-1.16-.68s-.88.23-1.16.68c-.28.45-.42,1.13-.42,2.02s.14,1.58.42,2.03c.28.45.67.67,1.16.67Z"/>
          <path class="cls-2" d="m217.94,218.1v-8.08h1.81v6.11h-.48l4.59-6.11h1.65v8.08h-1.81v-6.13h.5l-4.61,6.13h-1.65Z"/>
          <path class="cls-2" d="m227.11,218.1l1.23-2.13c.21-.36.48-.65.79-.87.31-.22.64-.33.98-.33h.35l-.02.18c-.95,0-1.68-.21-2.19-.62-.51-.42-.77-1.02-.77-1.82s.27-1.4.79-1.83c.53-.43,1.3-.65,2.33-.65h4.02v8.08h-1.82v-2.85h-.91c-.33,0-.62.09-.87.27-.25.18-.46.42-.63.7l-1.05,1.87h-2.22Zm3.89-4.14h1.81v-2.64h-1.81c-.54,0-.95.12-1.22.35-.27.23-.41.55-.41.96,0,.43.14.75.41.98s.68.34,1.22.34Z"/>
        </g>
        <g>
          <path class="cls-2" d="m25.14,253.13v-4.26h1.17c.53-.64.93-1.51,1.18-2.62.26-1.11.38-2.47.38-4.1v-2.94h8.18v9.66h1.65v4.26h-1.79v-2.64h-8.96v2.64h-1.81Zm3.23-4.26h5.63v-8.06h-4.24v1.54c0,1.55-.12,2.85-.34,3.9-.23,1.06-.58,1.93-1.05,2.62Z"/>
          <path class="cls-2" d="m39.2,250.49v-8.08h4.3c1.01,0,1.75.18,2.22.55.47.37.7.89.7,1.56,0,.51-.17.94-.51,1.28-.34.34-.79.55-1.36.64v-.22c.69.04,1.23.25,1.6.61.37.36.56.83.56,1.41,0,.69-.27,1.24-.8,1.65-.53.41-1.29.61-2.27.61h-4.45Zm1.86-4.74h2.21c.43,0,.76-.09.99-.28.23-.19.35-.45.35-.79s-.12-.6-.35-.78c-.24-.18-.57-.27-.99-.27h-2.21v2.13Zm0,3.5h2.38c.47,0,.83-.1,1.08-.29.25-.19.38-.47.38-.85s-.13-.66-.38-.85c-.25-.19-.61-.29-1.08-.29h-2.38v2.27Z"/>
          <path class="cls-2" d="m48.37,254.12l-.46-1.58c.5-.11.92-.23,1.26-.37.34-.14.62-.32.85-.54.22-.22.41-.51.56-.86l.4-.94-.05.78-3.52-8.19h2.13l2.53,6.3h-.46l2.54-6.3h2.02l-3.68,8.53c-.25.58-.51,1.05-.8,1.43s-.6.68-.93.91c-.33.23-.69.41-1.09.54s-.83.23-1.3.3Z"/>
          <path class="cls-2" d="m56.06,250.49l3.76-4.62v.91l-3.55-4.37h2.37l2.32,2.99h-.72l2.32-2.99h2.35l-3.52,4.37v-.91l3.74,4.62h-2.38l-2.51-3.22h.72l-2.53,3.22h-2.37Z"/>
          <path class="cls-2" d="m69.87,250.65c-.83,0-1.56-.17-2.18-.51s-1.11-.83-1.45-1.46-.51-1.39-.51-2.26.17-1.62.52-2.24c.35-.62.83-1.09,1.45-1.42.62-.33,1.34-.5,2.18-.5.53,0,1.05.08,1.56.25.51.17.92.4,1.24.71l-.61,1.39c-.29-.27-.61-.47-.97-.6s-.71-.2-1.05-.2c-.71,0-1.27.22-1.67.67-.4.45-.6,1.1-.6,1.95s.2,1.51.6,1.97c.4.46.96.69,1.67.69.33,0,.68-.06,1.03-.19.36-.13.68-.33.98-.59l.61,1.38c-.33.31-.75.55-1.26.72-.51.17-1.02.26-1.54.26Z"/>
          <path class="cls-2" d="m76.13,250.49v-6.51h-2.77v-1.57h7.54v1.57h-2.78v6.51h-1.98Z"/>
          <path class="cls-2" d="m85.76,250.65c-.83,0-1.55-.17-2.16-.51-.61-.34-1.08-.83-1.42-1.46-.34-.63-.5-1.38-.5-2.24s.17-1.61.5-2.23.81-1.11,1.42-1.45c.61-.34,1.33-.51,2.16-.51s1.55.17,2.17.51c.61.34,1.09.82,1.42,1.45s.5,1.37.5,2.23-.17,1.61-.5,2.24c-.34.63-.81,1.11-1.42,1.46-.61.34-1.34.51-2.17.51Zm0-1.54c.63,0,1.13-.22,1.5-.66.37-.44.56-1.11.56-2.01s-.19-1.56-.56-2c-.37-.44-.88-.66-1.5-.66s-1.13.22-1.5.66c-.37.44-.56,1.1-.56,2s.19,1.57.56,2.01c.37.44.87.66,1.5.66Z"/>
          <path class="cls-2" d="m91.81,253.94v-9.52c0-.33,0-.67-.03-1.01s-.05-.68-.1-1.01h1.94l.18,1.7h-.18c.16-.57.5-1.02,1.02-1.35s1.12-.5,1.8-.5,1.34.17,1.87.5.95.82,1.25,1.44.45,1.37.45,2.25-.15,1.63-.45,2.26-.71,1.11-1.25,1.45c-.53.34-1.16.5-1.87.5-.67,0-1.26-.17-1.78-.5-.51-.33-.85-.77-1.02-1.33h.18v5.12h-2Zm4.06-4.83c.64,0,1.15-.22,1.54-.66.38-.44.58-1.11.58-2.01s-.19-1.56-.58-2c-.38-.44-.9-.66-1.54-.66s-1.14.22-1.52.66c-.38.44-.58,1.1-.58,2s.19,1.57.58,2.01c.38.44.89.66,1.52.66Z"/>
          <path class="cls-2" d="m105.6,250.65c-.83,0-1.55-.17-2.16-.51s-1.08-.83-1.42-1.46c-.34-.63-.5-1.38-.5-2.24s.17-1.61.5-2.23.81-1.11,1.42-1.45,1.33-.51,2.16-.51,1.55.17,2.17.51c.61.34,1.09.82,1.42,1.45s.5,1.37.5,2.23-.17,1.61-.5,2.24c-.34.63-.81,1.11-1.42,1.46-.61.34-1.34.51-2.17.51Zm0-1.54c.63,0,1.13-.22,1.5-.66.37-.44.56-1.11.56-2.01s-.19-1.56-.56-2c-.37-.44-.88-.66-1.5-.66s-1.13.22-1.5.66c-.37.44-.56,1.1-.56,2s.19,1.57.56,2.01c.37.44.87.66,1.5.66Z"/>
          <path class="cls-2" d="m111.58,250.49v-8.08h1.98v3.17h3.65v-3.17h1.98v8.08h-1.98v-3.38h-3.65v3.38h-1.98Z"/>
          <path class="cls-2" d="m121.47,250.49v-8.08h1.98v3.17h3.65v-3.17h1.98v8.08h-1.98v-3.38h-3.65v3.38h-1.98Z"/>
          <path class="cls-2" d="m131.36,250.49v-8.08h1.81v6.11h-.48l4.59-6.11h1.65v8.08h-1.81v-6.13h.5l-4.61,6.13h-1.65Z"/>
          <path class="cls-2" d="m145.17,250.65c-1.36,0-2.42-.37-3.18-1.12-.77-.75-1.15-1.77-1.15-3.07,0-.84.17-1.58.5-2.21.33-.63.79-1.12,1.38-1.47.59-.35,1.28-.53,2.07-.53s1.43.17,1.95.5c.52.33.92.79,1.19,1.39.27.6.41,1.3.41,2.1v.53h-5.89v-1.06h4.46l-.27.22c0-.75-.16-1.32-.47-1.71s-.77-.59-1.37-.59c-.66,0-1.17.23-1.53.7-.36.47-.54,1.13-.54,1.97v.21c0,.87.22,1.53.65,1.96.43.43,1.04.65,1.83.65.46,0,.89-.06,1.29-.18.4-.12.78-.32,1.14-.6l.59,1.34c-.38.31-.84.55-1.38.72-.53.17-1.1.26-1.7.26Z"/>
          <path class="cls-2" d="m158.35,250.65c-.83,0-1.56-.17-2.18-.51-.62-.34-1.11-.83-1.45-1.46-.34-.63-.51-1.39-.51-2.26s.17-1.62.52-2.24c.35-.62.83-1.09,1.45-1.42.62-.33,1.34-.5,2.18-.5.53,0,1.05.08,1.56.25.51.17.92.4,1.24.71l-.61,1.39c-.29-.27-.61-.47-.97-.6s-.71-.2-1.05-.2c-.71,0-1.27.22-1.67.67-.4.45-.6,1.1-.6,1.95s.2,1.51.6,1.97c.4.46.96.69,1.67.69.33,0,.68-.06,1.03-.19s.69-.33.98-.59l.61,1.38c-.33.31-.75.55-1.26.72-.51.17-1.02.26-1.54.26Z"/>
          <path class="cls-2" d="m167.04,250.71l-.62-1.57c.35-.13.65-.3.89-.5.24-.21.43-.47.57-.8.14-.33.25-.73.31-1.22s.1-1.06.1-1.74v-2.48h6.43v8.08h-1.98v-6.54h-2.62v1.01c0,1.16-.11,2.14-.32,2.92-.21.78-.54,1.41-.99,1.86-.45.46-1.04.78-1.76.98Z"/>
          <path class="cls-2" d="m180.7,250.65c-.83,0-1.55-.17-2.16-.51-.61-.34-1.08-.83-1.42-1.46-.34-.63-.51-1.38-.51-2.24s.17-1.61.51-2.23c.34-.62.81-1.11,1.42-1.45.61-.34,1.33-.51,2.16-.51s1.55.17,2.17.51,1.09.82,1.43,1.45c.34.62.5,1.37.5,2.23s-.17,1.61-.5,2.24c-.34.63-.81,1.11-1.43,1.46s-1.34.51-2.17.51Zm0-1.54c.63,0,1.13-.22,1.5-.66.38-.44.56-1.11.56-2.01s-.19-1.56-.56-2c-.37-.44-.87-.66-1.5-.66s-1.13.22-1.5.66-.56,1.1-.56,2,.19,1.57.56,2.01c.37.44.88.66,1.5.66Z"/>
          <path class="cls-2" d="m186.69,250.49v-8.08h6.06v1.57h-4.06v6.51h-2Z"/>
          <path class="cls-2" d="m197.87,250.65c-.83,0-1.55-.17-2.16-.51s-1.08-.83-1.42-1.46c-.34-.63-.5-1.38-.5-2.24s.17-1.61.5-2.23.81-1.11,1.42-1.45,1.33-.51,2.16-.51,1.55.17,2.17.51,1.09.82,1.42,1.45.5,1.37.5,2.23-.17,1.61-.5,2.24c-.34.63-.81,1.11-1.42,1.46s-1.34.51-2.17.51Zm0-1.54c.63,0,1.13-.22,1.5-.66.37-.44.56-1.11.56-2.01s-.19-1.56-.56-2-.88-.66-1.5-.66-1.13.22-1.5.66-.56,1.1-.56,2,.19,1.57.56,2.01c.37.44.88.66,1.5.66Z"/>
          <path class="cls-2" d="m205.6,250.49v-6.51h-2.77v-1.57h7.54v1.57h-2.78v6.51h-1.98Z"/>
          <path class="cls-2" d="m211.6,250.49v-8.08h1.81v6.11h-.48l4.59-6.11h1.65v8.08h-1.81v-6.13h.5l-4.61,6.13h-1.65Z"/>
          <path class="cls-2" d="m221.44,250.49v-8.08h7.57v8.08h-1.98v-6.54h-3.6v6.54h-1.98Z"/>
          <path class="cls-2" d="m234.99,250.65c-.83,0-1.55-.17-2.16-.51-.61-.34-1.08-.83-1.42-1.46-.34-.63-.51-1.38-.51-2.24s.17-1.61.51-2.23c.34-.62.81-1.11,1.42-1.45.61-.34,1.33-.51,2.16-.51s1.55.17,2.17.51,1.09.82,1.43,1.45c.34.62.5,1.37.5,2.23s-.17,1.61-.5,2.24c-.34.63-.81,1.11-1.43,1.46s-1.34.51-2.17.51Zm0-1.54c.63,0,1.13-.22,1.5-.66.38-.44.56-1.11.56-2.01s-.19-1.56-.56-2c-.37-.44-.87-.66-1.5-.66s-1.13.22-1.5.66-.56,1.1-.56,2,.19,1.57.56,2.01c.37.44.88.66,1.5.66Z"/>
          <path class="cls-2" d="m240.97,250.49v-8.08h1.66l2.78,4.83,2.79-4.83h1.66v8.08h-1.76v-5.84h.37l-2.59,4.53h-.93l-2.59-4.53h.37v5.84h-1.76Z"/>
          <path class="cls-2" d="m251.87,250.49v-2.22h2.24v2.22h-2.24Z"/>
          <path class="cls-2" d="m45.37,265.49v-11.28h2.03v4.8h1.92l-.42.27,3.33-5.07h2.27l-3.71,5.46-.78-.58c.72.11,1.33.35,1.82.74.48.39.91.94,1.27,1.64l2,4.02h-2.22l-1.55-3.25c-.27-.57-.58-.97-.95-1.2-.37-.23-.83-.35-1.4-.35h-1.57v4.8h-2.03Z"/>
          <path class="cls-2" d="m56.36,268.94v-9.52c0-.33,0-.67-.03-1.01s-.05-.68-.1-1.01h1.94l.18,1.7h-.18c.16-.57.5-1.02,1.02-1.35s1.12-.5,1.8-.5,1.34.17,1.87.5.95.82,1.25,1.44.45,1.37.45,2.25-.15,1.63-.45,2.26-.71,1.11-1.25,1.45c-.53.34-1.16.5-1.87.5-.67,0-1.26-.17-1.78-.5-.51-.33-.85-.77-1.02-1.33h.18v5.12h-2Zm4.06-4.83c.64,0,1.15-.22,1.54-.66.38-.44.58-1.11.58-2.01s-.19-1.56-.58-2c-.38-.44-.9-.66-1.54-.66s-1.14.22-1.52.66c-.38.44-.58,1.1-.58,2s.19,1.57.58,2.01c.38.44.89.66,1.52.66Z"/>
          <path class="cls-2" d="m66.21,269.12l-.46-1.58c.5-.11.92-.23,1.26-.37.34-.14.62-.32.85-.54.22-.22.41-.51.56-.86l.4-.94-.05.78-3.52-8.19h2.13l2.53,6.3h-.46l2.54-6.3h2.02l-3.68,8.53c-.25.58-.51,1.05-.8,1.43s-.6.68-.93.91c-.33.23-.69.41-1.09.54s-.83.23-1.3.3Z"/>
          <path class="cls-2" d="m75.22,265.49v-8.08h6.06v1.57h-4.06v6.51h-2Z"/>
          <path class="cls-2" d="m86.41,265.65c-.83,0-1.55-.17-2.16-.51s-1.08-.83-1.42-1.46c-.34-.63-.5-1.38-.5-2.24s.17-1.61.5-2.23.81-1.11,1.42-1.45,1.33-.51,2.16-.51,1.55.17,2.17.51c.61.34,1.09.82,1.42,1.45s.5,1.37.5,2.23-.17,1.61-.5,2.24c-.34.63-.81,1.11-1.42,1.46-.61.34-1.34.51-2.17.51Zm0-1.54c.63,0,1.13-.22,1.5-.66.37-.44.56-1.11.56-2.01s-.19-1.56-.56-2c-.37-.44-.88-.66-1.5-.66s-1.13.22-1.5.66c-.37.44-.56,1.1-.56,2s.19,1.57.56,2.01c.37.44.87.66,1.5.66Z"/>
          <path class="cls-2" d="m92.39,265.49v-8.08h4.3c1.01,0,1.75.18,2.22.55.47.37.7.89.7,1.56,0,.51-.17.94-.51,1.28-.34.34-.79.55-1.36.64v-.22c.69.04,1.23.25,1.6.61.37.36.56.83.56,1.41,0,.69-.27,1.24-.8,1.65-.53.41-1.29.61-2.27.61h-4.45Zm1.86-4.74h2.21c.43,0,.76-.09.99-.28.23-.19.35-.45.35-.79s-.12-.6-.35-.78c-.24-.18-.57-.27-.99-.27h-2.21v2.13Zm0,3.5h2.38c.47,0,.83-.1,1.08-.29.25-.19.38-.47.38-.85s-.13-.66-.38-.85c-.25-.19-.61-.29-1.08-.29h-2.38v2.27Z"/>
          <path class="cls-2" d="m104.84,265.65c-.7,0-1.32-.17-1.86-.5-.53-.34-.95-.82-1.25-1.45-.3-.63-.45-1.38-.45-2.26s.15-1.62.45-2.25c.3-.62.71-1.1,1.25-1.44s1.15-.5,1.86-.5,1.28.17,1.8.5.86.79,1.03,1.35h-.18l.18-1.7h1.92c-.03.33-.06.67-.09,1.01s-.04.68-.04,1.01v6.06h-1.98l-.02-1.66h.19c-.17.55-.52,1-1.04,1.33-.52.33-1.12.5-1.78.5Zm.56-1.54c.63,0,1.14-.22,1.52-.66.38-.44.58-1.11.58-2.01s-.19-1.56-.58-2-.89-.66-1.52-.66-1.13.22-1.52.66c-.38.44-.58,1.1-.58,2s.19,1.57.57,2.01c.38.44.89.66,1.53.66Z"/>
          <path class="cls-2" d="m111.13,265.49l1.23-2.13c.21-.36.48-.65.79-.87.31-.22.64-.33.98-.33h.35l-.02.18c-.95,0-1.68-.21-2.19-.62-.51-.42-.77-1.02-.77-1.82s.26-1.4.79-1.83c.53-.43,1.3-.65,2.33-.65h4.02v8.08h-1.82v-2.85h-.91c-.33,0-.62.09-.87.27-.25.18-.46.42-.63.7l-1.06,1.87h-2.22Zm3.89-4.14h1.81v-2.64h-1.81c-.54,0-.95.12-1.22.35-.27.23-.41.55-.41.96,0,.43.14.75.41.98.27.23.68.34,1.22.34Z"/>
          <path class="cls-2" d="m125.3,265.49v-8.08h1.87v6.54h2.85v-6.54h1.86v6.54h2.85v-6.54h1.87v8.08h-11.3Z"/>
          <path class="cls-2" d="m142.84,265.65c-1.36,0-2.42-.37-3.18-1.12-.77-.75-1.15-1.77-1.15-3.07,0-.84.17-1.58.5-2.21.33-.63.79-1.12,1.38-1.47.59-.35,1.28-.53,2.07-.53s1.43.17,1.95.5c.52.33.92.79,1.19,1.39.27.6.41,1.3.41,2.1v.53h-5.89v-1.06h4.46l-.27.22c0-.75-.16-1.32-.47-1.71s-.77-.59-1.37-.59c-.66,0-1.17.23-1.53.7-.36.47-.54,1.13-.54,1.97v.21c0,.87.22,1.53.65,1.96.43.43,1.04.65,1.83.65.46,0,.89-.06,1.29-.18.4-.12.78-.32,1.14-.6l.59,1.34c-.38.31-.84.55-1.38.72-.53.17-1.1.26-1.7.26Z"/>
          <path class="cls-2" d="m147.65,265.71l-.62-1.57c.35-.13.65-.3.89-.5s.43-.47.58-.8c.14-.33.25-.73.31-1.22.06-.49.1-1.06.1-1.74v-2.48h6.43v8.08h-1.98v-6.54h-2.62v1.01c0,1.16-.11,2.14-.32,2.92-.21.78-.54,1.41-.99,1.86-.45.46-1.04.78-1.76.98Z"/>
          <path class="cls-2" d="m157.61,265.49v-8.08h1.98v3.17h1.22l2.37-3.17h2.14l-2.98,4.03-.43-.62c.3.03.56.11.79.24.23.13.45.31.65.54.21.23.41.52.62.87l1.7,3.02h-2.13l-1.38-2.43c-.14-.25-.28-.44-.42-.58s-.29-.23-.46-.29c-.17-.05-.38-.08-.62-.08h-1.07v3.38h-1.98Z"/>
          <path class="cls-2" d="m170.44,265.65c-.83,0-1.55-.17-2.16-.51-.61-.34-1.08-.83-1.42-1.46-.34-.63-.51-1.38-.51-2.24s.17-1.61.51-2.23c.34-.62.81-1.11,1.42-1.45.61-.34,1.33-.51,2.16-.51s1.55.17,2.17.51,1.09.82,1.43,1.45c.34.62.5,1.37.5,2.23s-.17,1.61-.5,2.24c-.34.63-.81,1.11-1.43,1.46s-1.34.51-2.17.51Zm0-1.54c.63,0,1.13-.22,1.5-.66.38-.44.56-1.11.56-2.01s-.19-1.56-.56-2c-.37-.44-.87-.66-1.5-.66s-1.13.22-1.5.66-.56,1.1-.56,2,.19,1.57.56,2.01c.37.44.88.66,1.5.66Z"/>
          <path class="cls-2" d="m176.42,265.49v-8.08h6.06v1.57h-4.06v6.51h-2Z"/>
          <path class="cls-2" d="m183.96,268.94v-9.52c0-.33,0-.67-.03-1.01s-.05-.68-.1-1.01h1.94l.18,1.7h-.18c.16-.57.5-1.02,1.02-1.35s1.12-.5,1.8-.5,1.34.17,1.87.5.95.82,1.25,1.44.45,1.37.45,2.25-.15,1.63-.45,2.26-.71,1.11-1.25,1.45c-.53.34-1.16.5-1.87.5-.67,0-1.27-.17-1.78-.5s-.85-.77-1.02-1.33h.18v5.12h-2Zm4.06-4.83c.64,0,1.15-.22,1.54-.66.38-.44.58-1.11.58-2.01s-.19-1.56-.58-2c-.38-.44-.89-.66-1.54-.66s-1.14.22-1.52.66c-.38.44-.58,1.1-.58,2s.19,1.57.58,2.01c.38.44.89.66,1.52.66Z"/>
          <path class="cls-2" d="m197.22,265.65c-.7,0-1.32-.17-1.86-.5-.53-.34-.95-.82-1.25-1.45s-.45-1.38-.45-2.26.15-1.62.45-2.25.71-1.1,1.25-1.44,1.15-.5,1.86-.5,1.28.17,1.8.5.86.79,1.03,1.35h-.18l.18-1.7h1.92c-.03.33-.06.67-.09,1.01s-.04.68-.04,1.01v6.06h-1.98l-.02-1.66h.19c-.17.55-.52,1-1.04,1.33-.52.33-1.11.5-1.78.5Zm.56-1.54c.63,0,1.13-.22,1.52-.66.38-.44.58-1.11.58-2.01s-.19-1.56-.58-2-.89-.66-1.52-.66-1.14.22-1.52.66c-.38.44-.58,1.1-.58,2s.19,1.57.57,2.01c.38.44.89.66,1.53.66Z"/>
          <path class="cls-2" d="m208.93,268.94v-5.02h.18c-.17.55-.46.98-.86,1.28-.4.3-.88.45-1.45.45s-1.11-.17-1.56-.52c-.46-.35-.81-.83-1.06-1.46-.26-.63-.38-1.37-.38-2.22s.12-1.61.38-2.23c.25-.62.6-1.11,1.05-1.45.46-.34.98-.51,1.58-.51.57,0,1.05.15,1.45.45.4.3.69.72.86,1.26h-.18v-5.25h1.98v5.25h-.18c.17-.54.46-.97.86-1.26.4-.3.88-.45,1.45-.45.6,0,1.12.17,1.58.51s.8.82,1.06,1.45c.25.62.38,1.37.38,2.23s-.12,1.59-.38,2.22c-.25.63-.6,1.12-1.06,1.46s-.98.52-1.58.52c-.55,0-1.03-.15-1.43-.45-.4-.3-.69-.73-.87-1.28h.18v5.02h-1.98Zm-1.55-4.8c.49,0,.88-.22,1.16-.67.28-.45.42-1.12.42-2.03s-.14-1.57-.43-2.02c-.29-.45-.67-.68-1.15-.68s-.88.23-1.17.68c-.29.45-.43,1.13-.43,2.02s.14,1.58.43,2.03c.29.45.68.67,1.17.67Zm5.09,0c.49,0,.88-.22,1.17-.67.29-.45.43-1.12.43-2.03s-.15-1.57-.44-2.02c-.29-.45-.68-.68-1.16-.68s-.88.23-1.16.68c-.28.45-.42,1.13-.42,2.02s.14,1.58.42,2.03c.28.45.67.67,1.16.67Z"/>
          <path class="cls-2" d="m217.94,265.49v-8.08h1.81v6.11h-.48l4.59-6.11h1.65v8.08h-1.81v-6.13h.5l-4.61,6.13h-1.65Z"/>
          <path class="cls-2" d="m227.11,265.49l1.23-2.13c.21-.36.48-.65.79-.87.31-.22.64-.33.98-.33h.35l-.02.18c-.95,0-1.68-.21-2.19-.62-.51-.42-.77-1.02-.77-1.82s.27-1.4.79-1.83c.53-.43,1.3-.65,2.33-.65h4.02v8.08h-1.82v-2.85h-.91c-.33,0-.62.09-.87.27-.25.18-.46.42-.63.7l-1.05,1.87h-2.22Zm3.89-4.14h1.81v-2.64h-1.81c-.54,0-.95.12-1.22.35-.27.23-.41.55-.41.96,0,.43.14.75.41.98s.68.34,1.22.34Z"/>
        </g>
        <text class="cls-1" transform="translate(83.23 303.9)"><tspan x="0" y="0">С нумерацией</tspan></text>
        <g>
          <path class="cls-2" d="m85.61,342.32c-1.17,0-2.18-.24-3.02-.71s-1.48-1.15-1.93-2.02c-.45-.87-.67-1.9-.67-3.08s.22-2.21.67-3.07c.45-.86,1.09-1.53,1.93-2.01s1.84-.71,3.02-.71c.79,0,1.5.11,2.13.34s1.18.55,1.64.99l-.67,1.63c-.5-.41-.98-.7-1.45-.87-.46-.18-1-.26-1.59-.26-1.14,0-2.01.34-2.62,1.03s-.9,1.67-.9,2.94.3,2.25.9,2.94,1.47,1.04,2.62,1.04c.6,0,1.13-.09,1.59-.26.46-.18.95-.47,1.45-.89l.67,1.63c-.46.43-1.01.76-1.64.99s-1.35.35-2.13.35Z"/>
          <path class="cls-2" d="m95.59,342.16v-8.08h4.3c1.01,0,1.75.18,2.22.55.47.37.7.89.7,1.56,0,.51-.17.94-.51,1.28s-.79.55-1.36.64v-.22c.69.04,1.23.25,1.6.61.37.36.56.83.56,1.41,0,.69-.27,1.24-.8,1.65s-1.29.61-2.27.61h-4.45Zm1.86-4.74h2.21c.43,0,.76-.09.99-.28.23-.19.35-.45.35-.79s-.12-.6-.35-.78c-.23-.18-.57-.27-.99-.27h-2.21v2.13Zm0,3.5h2.38c.47,0,.83-.1,1.08-.29.25-.19.38-.47.38-.85s-.13-.66-.38-.85c-.25-.19-.61-.29-1.08-.29h-2.38v2.27Z"/>
          <path class="cls-2" d="m104.29,344.24v-3.6h.93c.32-.5.55-1.09.7-1.77.14-.68.22-1.51.22-2.49v-2.3h6.22v6.56h1.31v3.6h-1.7v-2.08h-5.98v2.08h-1.7Zm2.72-3.58h3.47v-5.07h-2.66v1.25c0,.71-.07,1.41-.21,2.1-.14.68-.34,1.26-.61,1.73Z"/>
          <path class="cls-2" d="m118.33,342.32c-.7,0-1.32-.17-1.86-.5-.53-.34-.95-.82-1.25-1.45s-.45-1.38-.45-2.26.15-1.62.45-2.25.71-1.1,1.25-1.44,1.15-.5,1.86-.5,1.28.17,1.8.5c.52.34.86.79,1.03,1.35h-.18l.18-1.7h1.92c-.03.33-.06.67-.09,1.01s-.04.68-.04,1.01v6.06h-1.98l-.02-1.66h.19c-.17.55-.52,1-1.04,1.33s-1.11.5-1.78.5Zm.56-1.54c.63,0,1.14-.22,1.52-.66.38-.44.58-1.11.58-2.01s-.19-1.56-.58-2c-.38-.44-.89-.66-1.52-.66s-1.14.22-1.52.66-.58,1.1-.58,2,.19,1.57.57,2.01c.38.44.89.66,1.53.66Z"/>
          <path class="cls-2" d="m125.29,342.16v-8.08h4.3c1.01,0,1.75.18,2.22.55.47.37.7.89.7,1.56,0,.51-.17.94-.51,1.28s-.79.55-1.36.64v-.22c.69.04,1.23.25,1.6.61.37.36.56.83.56,1.41,0,.69-.27,1.24-.8,1.65s-1.29.61-2.27.61h-4.45Zm1.86-4.74h2.21c.43,0,.76-.09.99-.28.23-.19.35-.45.35-.79s-.12-.6-.35-.78c-.23-.18-.57-.27-.99-.27h-2.21v2.13Zm0,3.5h2.38c.47,0,.83-.1,1.08-.29.25-.19.38-.47.38-.85s-.13-.66-.38-.85c-.25-.19-.61-.29-1.08-.29h-2.38v2.27Z"/>
          <path class="cls-2" d="m134.34,342.38l-.62-1.57c.35-.13.65-.3.89-.5.24-.21.43-.47.58-.8.14-.33.25-.73.31-1.22s.1-1.06.1-1.74v-2.48h6.43v8.08h-1.98v-6.54h-2.62v1.01c0,1.16-.11,2.14-.32,2.92-.21.78-.54,1.41-.99,1.86-.45.46-1.03.78-1.76.98Z"/>
          <path class="cls-2" d="m148.26,342.32c-1.36,0-2.42-.37-3.18-1.12-.77-.75-1.15-1.77-1.15-3.07,0-.84.17-1.58.5-2.21.33-.63.79-1.12,1.38-1.47.59-.35,1.28-.53,2.07-.53s1.43.17,1.95.5c.52.33.92.79,1.19,1.39.27.6.41,1.3.41,2.1v.53h-5.89v-1.06h4.46l-.27.22c0-.75-.16-1.32-.47-1.71s-.77-.59-1.37-.59c-.66,0-1.17.23-1.53.7-.36.47-.54,1.13-.54,1.97v.21c0,.87.22,1.53.65,1.96.43.43,1.04.65,1.83.65.46,0,.89-.06,1.29-.18.4-.12.78-.32,1.14-.6l.59,1.34c-.38.31-.84.55-1.38.72-.53.17-1.1.26-1.7.26Z"/>
          <path class="cls-2" d="m153.29,342.16v-8.08h1.98v3.17h3.65v-3.17h1.98v8.08h-1.98v-3.38h-3.65v3.38h-1.98Z"/>
          <path class="cls-2" d="m163.17,342.16v-8.08h1.98v3.17h3.65v-3.17h1.98v8.08h-1.98v-3.38h-3.65v3.38h-1.98Z"/>
          <path class="cls-2" d="m173.06,342.16v-8.08h1.98v2.7h2.13c1.08,0,1.89.23,2.43.68.54.45.82,1.11.82,1.96,0,.55-.13,1.04-.38,1.45s-.63.73-1.11.95c-.48.22-1.07.34-1.75.34h-4.11Zm1.98-1.31h1.86c.54,0,.96-.11,1.25-.34.29-.23.43-.58.43-1.05s-.14-.81-.42-1.03-.7-.33-1.26-.33h-1.86v2.75Zm6.38,1.31v-8.08h1.98v8.08h-1.98Z"/>
          <path class="cls-2" d="m185.69,342.16v-8.08h1.66l2.78,4.83,2.79-4.83h1.66v8.08h-1.76v-5.84h.37l-2.59,4.53h-.93l-2.59-4.53h.37v5.84h-1.76Z"/>
          <path class="cls-2" d="m196.96,343.1h-1.65l4.21-12.98h1.65l-4.21,12.98Z"/>
          <path class="cls-2" d="m54.79,357.16v-8.08h4.3c1.01,0,1.75.18,2.22.55.47.37.7.89.7,1.56,0,.51-.17.94-.51,1.28-.34.34-.79.55-1.36.64v-.22c.69.04,1.23.25,1.6.61.37.36.56.83.56,1.41,0,.69-.27,1.24-.8,1.65-.53.41-1.29.61-2.27.61h-4.45Zm1.86-4.74h2.21c.43,0,.76-.09.99-.28.23-.19.35-.45.35-.79s-.12-.6-.35-.78c-.24-.18-.57-.27-.99-.27h-2.21v2.13Zm0,3.5h2.38c.47,0,.83-.1,1.08-.29.25-.19.38-.47.38-.85s-.13-.66-.38-.85c-.25-.19-.61-.29-1.08-.29h-2.38v2.27Z"/>
          <path class="cls-2" d="m64.06,357.16v-8.08h1.98v2.7h2.13c1.08,0,1.89.23,2.43.68.54.45.82,1.11.82,1.96,0,.55-.13,1.04-.38,1.45s-.63.73-1.11.95c-.49.22-1.07.34-1.75.34h-4.11Zm1.98-1.31h1.86c.54,0,.96-.11,1.25-.34s.43-.58.43-1.05-.14-.81-.42-1.03-.7-.33-1.26-.33h-1.86v2.75Zm6.38,1.31v-8.08h1.98v8.08h-1.98Z"/>
          <path class="cls-2" d="m76.68,357.16v-8.08h7.57v8.08h-1.98v-6.54h-3.6v6.54h-1.98Z"/>
          <path class="cls-2" d="m86.42,360.79l-.46-1.58c.5-.11.92-.23,1.26-.37.34-.14.62-.32.85-.54.22-.22.41-.51.56-.86l.4-.94-.05.78-3.52-8.19h2.13l2.53,6.3h-.46l2.54-6.3h2.02l-3.68,8.53c-.25.58-.51,1.05-.8,1.43-.29.38-.6.68-.93.91s-.69.41-1.09.54-.83.23-1.3.3Z"/>
          <path class="cls-2" d="m95.43,357.16v-8.08h1.98v3.17h1.22l2.37-3.17h2.14l-2.98,4.03-.43-.62c.3.03.56.11.79.24s.45.31.66.54.41.52.62.87l1.7,3.02h-2.13l-1.38-2.43c-.14-.25-.28-.44-.42-.58s-.29-.23-.46-.29-.38-.08-.62-.08h-1.07v3.38h-1.98Z"/>
          <path class="cls-2" d="m104.34,357.38l-.62-1.57c.35-.13.65-.3.89-.5.24-.21.43-.47.58-.8.14-.33.25-.73.31-1.22.06-.49.1-1.06.1-1.74v-2.48h6.43v8.08h-1.98v-6.54h-2.62v1.01c0,1.16-.11,2.14-.32,2.92-.21.78-.54,1.41-.99,1.86s-1.03.78-1.76.98Z"/>
          <path class="cls-2" d="m114.29,357.16v-8.08h1.98v2.7h2.13c1.08,0,1.89.23,2.43.68.54.45.82,1.11.82,1.96,0,.55-.13,1.04-.38,1.45-.26.41-.63.73-1.11.95-.48.22-1.07.34-1.75.34h-4.11Zm1.98-1.31h1.86c.54,0,.96-.11,1.25-.34s.43-.58.43-1.05-.14-.81-.42-1.03-.7-.33-1.26-.33h-1.86v2.75Zm6.38,1.31v-8.08h1.98v8.08h-1.98Z"/>
          <path class="cls-2" d="m126.92,357.16v-8.08h1.66l2.78,4.83,2.78-4.83h1.66v8.08h-1.76v-5.84h.37l-2.59,4.53h-.93l-2.59-4.53h.37v5.84h-1.76Z"/>
          <path class="cls-2" d="m142.26,357.38l-.62-1.57c.35-.13.65-.3.89-.5.24-.21.43-.47.58-.8.14-.33.25-.73.31-1.22s.1-1.06.1-1.74v-2.48h6.43v8.08h-1.98v-6.54h-2.62v1.01c0,1.16-.11,2.14-.32,2.92-.21.78-.54,1.41-.99,1.86-.45.46-1.03.78-1.76.98Z"/>
          <path class="cls-2" d="m155.93,357.32c-.83,0-1.55-.17-2.16-.51s-1.08-.83-1.42-1.46c-.34-.63-.5-1.38-.5-2.24s.17-1.61.5-2.23.81-1.11,1.42-1.45,1.33-.51,2.16-.51,1.55.17,2.17.51,1.09.82,1.42,1.45.5,1.37.5,2.23-.17,1.61-.5,2.24c-.34.63-.81,1.11-1.42,1.46s-1.34.51-2.17.51Zm0-1.54c.63,0,1.13-.22,1.5-.66.37-.44.56-1.11.56-2.01s-.19-1.56-.56-2-.88-.66-1.5-.66-1.13.22-1.5.66-.56,1.1-.56,2,.19,1.57.56,2.01c.37.44.88.66,1.5.66Z"/>
          <path class="cls-2" d="m161.91,357.16v-8.08h6.06v1.57h-4.06v6.51h-2Z"/>
          <path class="cls-2" d="m173.09,357.32c-.83,0-1.55-.17-2.16-.51s-1.08-.83-1.42-1.46c-.34-.63-.5-1.38-.5-2.24s.17-1.61.5-2.23.81-1.11,1.42-1.45,1.33-.51,2.16-.51,1.55.17,2.17.51,1.09.82,1.42,1.45.5,1.37.5,2.23-.17,1.61-.5,2.24c-.34.63-.81,1.11-1.42,1.46s-1.34.51-2.17.51Zm0-1.54c.63,0,1.13-.22,1.5-.66.37-.44.56-1.11.56-2.01s-.19-1.56-.56-2-.88-.66-1.5-.66-1.13.22-1.5.66-.56,1.1-.56,2,.19,1.57.56,2.01c.37.44.88.66,1.5.66Z"/>
          <path class="cls-2" d="m180.82,357.16v-6.51h-2.77v-1.57h7.54v1.57h-2.78v6.51h-1.98Z"/>
          <path class="cls-2" d="m186.82,357.16v-8.08h1.81v6.11h-.48l4.59-6.11h1.65v8.08h-1.81v-6.13h.49l-4.61,6.13h-1.65Z"/>
          <path class="cls-2" d="m196.66,357.16v-8.08h7.57v8.08h-1.98v-6.54h-3.6v6.54h-1.98Z"/>
          <path class="cls-2" d="m210.21,357.32c-.83,0-1.55-.17-2.16-.51s-1.08-.83-1.42-1.46c-.34-.63-.5-1.38-.5-2.24s.17-1.61.5-2.23.81-1.11,1.42-1.45,1.33-.51,2.16-.51,1.55.17,2.17.51,1.09.82,1.42,1.45.5,1.37.5,2.23-.17,1.61-.5,2.24c-.34.63-.81,1.11-1.42,1.46s-1.34.51-2.17.51Zm0-1.54c.63,0,1.13-.22,1.5-.66.37-.44.56-1.11.56-2.01s-.19-1.56-.56-2-.88-.66-1.5-.66-1.13.22-1.5.66-.56,1.1-.56,2,.19,1.57.56,2.01c.37.44.88.66,1.5.66Z"/>
          <path class="cls-2" d="m216.2,357.16v-8.08h1.66l2.78,4.83,2.79-4.83h1.66v8.08h-1.76v-5.84h.37l-2.59,4.53h-.93l-2.59-4.53h.37v5.84h-1.76Z"/>
        </g>
        <g>
          <path class="cls-2" d="m23.34,388.15c-1.17,0-2.18-.24-3.02-.71s-1.48-1.15-1.93-2.02c-.45-.87-.67-1.9-.67-3.08s.22-2.21.67-3.07c.45-.86,1.09-1.53,1.93-2.01s1.84-.71,3.02-.71c.79,0,1.5.11,2.13.34s1.18.55,1.64.99l-.67,1.63c-.5-.41-.98-.7-1.45-.87-.46-.18-1-.26-1.59-.26-1.14,0-2.01.34-2.62,1.03s-.9,1.67-.9,2.94.3,2.25.9,2.94,1.47,1.04,2.62,1.04c.6,0,1.13-.09,1.59-.26.46-.18.95-.47,1.45-.89l.67,1.63c-.46.43-1.01.76-1.64.99s-1.35.35-2.13.35Z"/>
          <path class="cls-2" d="m33.32,387.99v-8.08h4.3c1.01,0,1.75.18,2.22.55.47.37.7.89.7,1.56,0,.51-.17.94-.51,1.28s-.79.55-1.36.64v-.22c.69.04,1.23.25,1.6.61.37.36.56.83.56,1.41,0,.69-.27,1.24-.8,1.65s-1.29.61-2.27.61h-4.45Zm1.86-4.74h2.21c.43,0,.76-.09.99-.28.23-.19.35-.45.35-.79s-.12-.6-.35-.78c-.23-.18-.57-.27-.99-.27h-2.21v2.13Zm0,3.5h2.38c.47,0,.83-.1,1.08-.29.25-.19.38-.47.38-.85s-.13-.66-.38-.85c-.25-.19-.61-.29-1.08-.29h-2.38v2.27Z"/>
          <path class="cls-2" d="m42.02,390.07v-3.6h.93c.32-.5.55-1.09.7-1.77.14-.68.22-1.51.22-2.49v-2.3h6.22v6.56h1.31v3.6h-1.7v-2.08h-5.98v2.08h-1.7Zm2.72-3.58h3.47v-5.07h-2.66v1.25c0,.71-.07,1.41-.21,2.1-.14.68-.34,1.26-.61,1.73Z"/>
          <path class="cls-2" d="m56.05,388.15c-.7,0-1.32-.17-1.86-.5-.53-.34-.95-.82-1.25-1.45s-.45-1.38-.45-2.26.15-1.62.45-2.25.71-1.1,1.25-1.44,1.15-.5,1.86-.5,1.28.17,1.8.5c.52.34.86.79,1.03,1.35h-.18l.18-1.7h1.92c-.03.33-.06.67-.09,1.01s-.04.68-.04,1.01v6.06h-1.98l-.02-1.66h.19c-.17.55-.52,1-1.04,1.33s-1.11.5-1.78.5Zm.56-1.54c.63,0,1.14-.22,1.52-.66.38-.44.58-1.11.58-2.01s-.19-1.56-.58-2c-.38-.44-.89-.66-1.52-.66s-1.14.22-1.52.66-.58,1.1-.58,2,.19,1.57.57,2.01c.38.44.89.66,1.53.66Z"/>
          <path class="cls-2" d="m63.01,387.99v-8.08h4.3c1.01,0,1.75.18,2.22.55.47.37.7.89.7,1.56,0,.51-.17.94-.51,1.28s-.79.55-1.36.64v-.22c.69.04,1.23.25,1.6.61.37.36.56.83.56,1.41,0,.69-.27,1.24-.8,1.65s-1.29.61-2.27.61h-4.45Zm1.86-4.74h2.21c.43,0,.76-.09.99-.28.23-.19.35-.45.35-.79s-.12-.6-.35-.78c-.23-.18-.57-.27-.99-.27h-2.21v2.13Zm0,3.5h2.38c.47,0,.83-.1,1.08-.29.25-.19.38-.47.38-.85s-.13-.66-.38-.85c-.25-.19-.61-.29-1.08-.29h-2.38v2.27Z"/>
          <path class="cls-2" d="m72.07,388.21l-.62-1.57c.35-.13.65-.3.89-.5.24-.21.43-.47.58-.8.14-.33.25-.73.31-1.22s.1-1.06.1-1.74v-2.48h6.43v8.08h-1.98v-6.54h-2.62v1.01c0,1.16-.11,2.14-.32,2.92-.21.78-.54,1.41-.99,1.86-.45.46-1.03.78-1.76.98Z"/>
          <path class="cls-2" d="m85.99,388.15c-1.36,0-2.42-.37-3.18-1.12-.77-.75-1.15-1.77-1.15-3.07,0-.84.17-1.58.5-2.21.33-.63.79-1.12,1.38-1.47.59-.35,1.28-.53,2.07-.53s1.43.17,1.95.5c.52.33.92.79,1.19,1.39.27.6.41,1.3.41,2.1v.53h-5.89v-1.06h4.46l-.27.22c0-.75-.16-1.32-.47-1.71s-.77-.59-1.37-.59c-.66,0-1.17.23-1.53.7-.36.47-.54,1.13-.54,1.97v.21c0,.87.22,1.53.65,1.96.43.43,1.04.65,1.83.65.46,0,.89-.06,1.29-.18.4-.12.78-.32,1.14-.6l.59,1.34c-.38.31-.84.55-1.38.72-.53.17-1.1.26-1.7.26Z"/>
          <path class="cls-2" d="m91.01,387.99v-8.08h1.98v3.17h3.65v-3.17h1.98v8.08h-1.98v-3.38h-3.65v3.38h-1.98Z"/>
          <path class="cls-2" d="m100.9,387.99v-8.08h1.98v3.17h3.65v-3.17h1.98v8.08h-1.98v-3.38h-3.65v3.38h-1.98Z"/>
          <path class="cls-2" d="m110.79,387.99v-8.08h1.98v2.7h2.13c1.08,0,1.89.23,2.43.68.54.45.82,1.11.82,1.96,0,.55-.13,1.04-.38,1.45-.26.41-.63.73-1.11.95s-1.07.34-1.75.34h-4.11Zm1.98-1.31h1.86c.54,0,.96-.11,1.25-.34.29-.23.43-.58.43-1.05s-.14-.81-.42-1.03c-.28-.22-.7-.33-1.26-.33h-1.86v2.75Zm6.38,1.31v-8.08h1.98v8.08h-1.98Z"/>
          <path class="cls-2" d="m123.41,387.99v-8.08h1.66l2.78,4.83,2.79-4.83h1.66v8.08h-1.76v-5.84h.37l-2.59,4.53h-.93l-2.59-4.53h.37v5.84h-1.76Z"/>
          <path class="cls-2" d="m138.97,387.99v-8.08h7.57v8.08h-1.98v-6.54h-3.6v6.54h-1.98Z"/>
          <path class="cls-2" d="m148.87,391.44v-9.52c0-.33,0-.67-.03-1.01s-.05-.68-.1-1.01h1.94l.18,1.7h-.18c.16-.57.5-1.02,1.02-1.35s1.12-.5,1.8-.5,1.34.17,1.87.5.95.82,1.25,1.44.45,1.37.45,2.25-.15,1.63-.45,2.26-.71,1.11-1.25,1.45c-.53.34-1.16.5-1.87.5-.67,0-1.26-.17-1.78-.5-.51-.33-.85-.77-1.02-1.33h.18v5.12h-2Zm4.06-4.83c.64,0,1.15-.22,1.54-.66.38-.44.58-1.11.58-2.01s-.19-1.56-.58-2c-.38-.44-.9-.66-1.54-.66s-1.14.22-1.52.66c-.38.44-.58,1.1-.58,2s.19,1.57.58,2.01c.38.44.89.66,1.52.66Z"/>
          <path class="cls-2" d="m162.66,388.15c-.83,0-1.55-.17-2.16-.51-.61-.34-1.08-.83-1.42-1.46-.34-.63-.51-1.38-.51-2.24s.17-1.61.51-2.23c.34-.62.81-1.11,1.42-1.45.61-.34,1.33-.51,2.16-.51s1.55.17,2.17.51,1.09.82,1.43,1.45c.34.62.5,1.37.5,2.23s-.17,1.61-.5,2.24c-.34.63-.81,1.11-1.43,1.46s-1.34.51-2.17.51Zm0-1.54c.63,0,1.13-.22,1.5-.66.38-.44.56-1.11.56-2.01s-.19-1.56-.56-2c-.37-.44-.87-.66-1.5-.66s-1.13.22-1.5.66-.56,1.1-.56,2,.19,1.57.56,2.01c.37.44.88.66,1.5.66Z"/>
          <path class="cls-2" d="m168.64,387.99v-8.08h1.98v3.17h1.22l2.37-3.17h2.14l-2.98,4.03-.43-.62c.3.03.56.11.79.24.23.13.45.31.65.54.21.23.41.52.62.87l1.7,3.02h-2.13l-1.38-2.43c-.14-.25-.28-.44-.42-.58s-.29-.23-.46-.29c-.17-.05-.38-.08-.62-.08h-1.07v3.38h-1.98Z"/>
          <path class="cls-2" d="m177.83,391.44v-9.52c0-.33-.01-.67-.03-1.01s-.05-.68-.1-1.01h1.94l.18,1.7h-.18c.16-.57.5-1.02,1.02-1.35.52-.34,1.12-.5,1.8-.5s1.34.17,1.87.5c.53.34.95.82,1.25,1.44.3.62.45,1.37.45,2.25s-.15,1.63-.45,2.26c-.3.63-.71,1.11-1.25,1.45-.54.34-1.16.5-1.87.5-.67,0-1.26-.17-1.78-.5s-.85-.77-1.02-1.33h.18v5.12h-2Zm4.06-4.83c.64,0,1.15-.22,1.54-.66.38-.44.58-1.11.58-2.01s-.19-1.56-.58-2c-.38-.44-.9-.66-1.54-.66s-1.13.22-1.52.66c-.38.44-.58,1.1-.58,2s.19,1.57.58,2.01c.38.44.89.66,1.52.66Z"/>
          <path class="cls-2" d="m191.09,388.15c-.71,0-1.32-.17-1.86-.5-.53-.34-.95-.82-1.25-1.45s-.45-1.38-.45-2.26.15-1.62.45-2.25.71-1.1,1.25-1.44,1.15-.5,1.86-.5,1.28.17,1.8.5.86.79,1.03,1.35h-.18l.18-1.7h1.92c-.03.33-.06.67-.09,1.01-.03.34-.04.68-.04,1.01v6.06h-1.98l-.02-1.66h.19c-.17.55-.52,1-1.04,1.33-.52.33-1.12.5-1.78.5Zm.56-1.54c.63,0,1.14-.22,1.52-.66.38-.44.57-1.11.57-2.01s-.19-1.56-.57-2c-.38-.44-.89-.66-1.52-.66s-1.13.22-1.52.66-.58,1.1-.58,2,.19,1.57.57,2.01c.38.44.89.66,1.53.66Z"/>
          <path class="cls-2" d="m198.05,387.99v-8.08h1.87v6.54h2.85v-6.54h1.86v6.54h2.85v-6.54h1.87v8.08h-11.29Z"/>
          <path class="cls-2" d="m215.59,388.15c-1.35,0-2.41-.37-3.18-1.12-.77-.75-1.15-1.77-1.15-3.07,0-.84.17-1.58.5-2.21.33-.63.79-1.12,1.38-1.47s1.28-.53,2.07-.53,1.43.17,1.95.5c.52.33.92.79,1.19,1.39.27.6.41,1.3.41,2.1v.53h-5.89v-1.06h4.46l-.27.22c0-.75-.16-1.32-.47-1.71-.31-.39-.77-.59-1.37-.59-.66,0-1.17.23-1.53.7-.36.47-.54,1.13-.54,1.97v.21c0,.87.22,1.53.65,1.96s1.04.65,1.83.65c.46,0,.89-.06,1.29-.18.4-.12.78-.32,1.14-.6l.59,1.34c-.38.31-.84.55-1.38.72-.53.17-1.1.26-1.7.26Z"/>
          <path class="cls-2" d="m220.61,387.99v-8.08h1.98v3.17h3.65v-3.17h1.98v8.08h-1.98v-3.38h-3.65v3.38h-1.98Z"/>
          <path class="cls-2" d="m230.5,387.99v-8.08h1.98v3.17h3.65v-3.17h1.98v8.08h-1.98v-3.38h-3.65v3.38h-1.98Z"/>
          <path class="cls-2" d="m240.39,387.99v-8.08h1.98v2.7h2.13c1.08,0,1.89.23,2.43.68.54.45.82,1.11.82,1.96,0,.55-.13,1.04-.38,1.45s-.63.73-1.11.95c-.48.22-1.07.34-1.75.34h-4.11Zm1.98-1.31h1.86c.54,0,.96-.11,1.25-.34.29-.23.43-.58.43-1.05s-.14-.81-.42-1.03-.7-.33-1.26-.33h-1.86v2.75Zm6.38,1.31v-8.08h1.98v8.08h-1.98Z"/>
          <path class="cls-2" d="m253.01,387.99v-8.08h1.66l2.79,4.83,2.78-4.83h1.66v8.08h-1.76v-5.84h.37l-2.59,4.53h-.93l-2.59-4.53h.37v5.84h-1.76Z"/>
          <path class="cls-2" d="m98.42,403.21l-.62-1.57c.35-.13.65-.3.89-.5.24-.21.43-.47.58-.8.14-.33.25-.73.31-1.22.06-.49.1-1.06.1-1.74v-2.48h6.43v8.08h-1.98v-6.54h-2.62v1.01c0,1.16-.11,2.14-.32,2.92-.21.78-.54,1.41-.99,1.86s-1.03.78-1.76.98Z"/>
          <path class="cls-2" d="m112.09,403.15c-.83,0-1.55-.17-2.16-.51s-1.08-.83-1.42-1.46c-.34-.63-.5-1.38-.5-2.24s.17-1.61.5-2.23.81-1.11,1.42-1.45,1.33-.51,2.16-.51,1.55.17,2.17.51c.61.34,1.09.82,1.42,1.45s.5,1.37.5,2.23-.17,1.61-.5,2.24c-.34.63-.81,1.11-1.42,1.46-.61.34-1.34.51-2.17.51Zm0-1.54c.63,0,1.13-.22,1.5-.66.37-.44.56-1.11.56-2.01s-.19-1.56-.56-2c-.37-.44-.88-.66-1.5-.66s-1.13.22-1.5.66c-.37.44-.56,1.1-.56,2s.19,1.57.56,2.01c.37.44.87.66,1.5.66Z"/>
          <path class="cls-2" d="m118.07,402.99v-8.08h6.06v1.57h-4.06v6.51h-2Z"/>
          <path class="cls-2" d="m129.25,403.15c-.83,0-1.55-.17-2.16-.51-.61-.34-1.08-.83-1.42-1.46-.34-.63-.5-1.38-.5-2.24s.17-1.61.5-2.23.81-1.11,1.42-1.45c.61-.34,1.33-.51,2.16-.51s1.55.17,2.17.51,1.09.82,1.42,1.45.5,1.37.5,2.23-.17,1.61-.5,2.24c-.34.63-.81,1.11-1.42,1.46s-1.34.51-2.17.51Zm0-1.54c.63,0,1.13-.22,1.5-.66.37-.44.56-1.11.56-2.01s-.19-1.56-.56-2-.88-.66-1.5-.66-1.13.22-1.5.66-.56,1.1-.56,2,.19,1.57.56,2.01c.37.44.88.66,1.5.66Z"/>
          <path class="cls-2" d="m136.98,402.99v-6.51h-2.77v-1.57h7.54v1.57h-2.78v6.51h-1.98Z"/>
          <path class="cls-2" d="m142.98,402.99v-8.08h1.81v6.11h-.48l4.59-6.11h1.65v8.08h-1.81v-6.13h.5l-4.61,6.13h-1.65Z"/>
          <path class="cls-2" d="m152.82,402.99v-8.08h7.57v8.08h-1.98v-6.54h-3.6v6.54h-1.98Z"/>
          <path class="cls-2" d="m166.37,403.15c-.83,0-1.55-.17-2.16-.51-.61-.34-1.08-.83-1.42-1.46-.34-.63-.51-1.38-.51-2.24s.17-1.61.51-2.23c.34-.62.81-1.11,1.42-1.45.61-.34,1.33-.51,2.16-.51s1.55.17,2.17.51,1.09.82,1.43,1.45c.34.62.5,1.37.5,2.23s-.17,1.61-.5,2.24c-.34.63-.81,1.11-1.43,1.46s-1.34.51-2.17.51Zm0-1.54c.63,0,1.13-.22,1.5-.66.38-.44.56-1.11.56-2.01s-.19-1.56-.56-2c-.37-.44-.87-.66-1.5-.66s-1.13.22-1.5.66-.56,1.1-.56,2,.19,1.57.56,2.01c.37.44.88.66,1.5.66Z"/>
          <path class="cls-2" d="m172.36,402.99v-8.08h1.66l2.78,4.83,2.79-4.83h1.66v8.08h-1.76v-5.84h.37l-2.59,4.53h-.93l-2.59-4.53h.37v5.84h-1.76Z"/>
        </g>
      </g>
    </g>
  </g>
</svg>