<?xml version="1.0" encoding="UTF-8"?>
<svg id="_Слой_2" data-name="Слой 2" xmlns="http://www.w3.org/2000/svg" viewBox="0 0 939.17 325.14">
  <defs>
    <style>
      .cls-1 {
        font-family: Mulish-Bold, Mulish;
        font-weight: 700;
      }

      .cls-1, .cls-2 {
        fill: #27625f;
        font-size: 16px;
      }

      .cls-3 {
        letter-spacing: 0em;
      }

      .cls-4 {
        fill: #fff;
      }

      .cls-4, .cls-5 {
        stroke: #a0b6b5;
        stroke-miterlimit: 10;
      }

      .cls-6 {
        letter-spacing: 0em;
      }

      .cls-7 {
        letter-spacing: 0em;
      }

      .cls-8 {
        letter-spacing: 0em;
      }

      .cls-2 {
        font-family: Mulish-SemiBold, Mulish;
        font-weight: 600;
      }

      .cls-9 {
        letter-spacing: -.02em;
      }

      .cls-10 {
        letter-spacing: 0em;
      }

      .cls-11 {
        letter-spacing: 0em;
      }

      .cls-12 {
        letter-spacing: 0em;
      }

      .cls-13 {
        letter-spacing: -.01em;
      }

      .cls-14 {
        letter-spacing: -.08em;
      }

      .cls-15 {
        letter-spacing: 0em;
      }

      .cls-16 {
        letter-spacing: 0em;
      }

      .cls-17 {
        letter-spacing: 0em;
      }

      .cls-18 {
        letter-spacing: -.02em;
      }

      .cls-19 {
        letter-spacing: 0em;
      }

      .cls-20 {
        letter-spacing: -.02em;
      }

      .cls-21 {
        letter-spacing: 0em;
      }

      .cls-22 {
        letter-spacing: -.01em;
      }

      .cls-5 {
        fill: none;
      }
    </style>
  </defs>
  <g id="_Слой_1-2" data-name="Слой 1">
    <g>
      <g>
        <rect class="cls-4" x=".5" y=".5" width="938.17" height="183.66" rx="10" ry="10"/>
        <line class="cls-5" x1=".5" y1="92.28" x2="938.67" y2="92.28"/>
        <line class="cls-5" x1=".5" y1="138.22" x2="938.67" y2="138.22"/>
        <line class="cls-5" x1=".5" y1="46.44" x2="938.67" y2="46.44"/>
        <line class="cls-5" x1="365.2" y1="46.34" x2="365.2" y2="184.16"/>
        <line class="cls-5" x1="508.41" y1="46.34" x2="508.41" y2="184.16"/>
        <line class="cls-5" x1="651.63" y1="46.34" x2="651.63" y2="184.16"/>
        <line class="cls-5" x1="794.85" y1="46.34" x2="794.85" y2="184.16"/>
      </g>
      <g>
        <text class="cls-1" transform="translate(115.9 73.95)"><tspan x="0" y="0">Качество печати</tspan></text>
        <text class="cls-1" transform="translate(407.57 73.95)"><tspan x="0" y="0">360 dpi</tspan></text>
        <text class="cls-2" transform="translate(412.9 120.2)"><tspan x="0" y="0">598 </tspan><tspan class="cls-20" x="33.07" y="0">р</tspan><tspan class="cls-16" x="42.75" y="0">.</tspan></text>
        <text class="cls-2" transform="translate(412.9 166.46)"><tspan x="0" y="0">936 </tspan><tspan class="cls-20" x="33.07" y="0">р</tspan><tspan class="cls-16" x="42.75" y="0">.</tspan></text>
        <text class="cls-2" transform="translate(9.98 224.78)"><tspan x="0" y="0">Минимальная с</tspan><tspan class="cls-17" x="123.23" y="0">т</tspan><tspan class="cls-19" x="130.67" y="0">оимость заказа - 300 </tspan><tspan class="cls-7" x="302.81" y="0">р</tspan><tspan x="312.64" y="0">у</tspan><tspan class="cls-9" x="321.4" y="0">б</tspan><tspan class="cls-19" x="330.63" y="0">.</tspan><tspan x="0" y="19.2">С</tspan><tspan class="cls-15" x="10.96" y="19.2">т</tspan><tspan x="18.4" y="19.2">оимость на го</tspan><tspan class="cls-15" x="127.45" y="19.2">т</tspan><tspan x="134.89" y="19.2">овой цветной виниловой плёнке может о</tspan><tspan class="cls-15" x="458.76" y="19.2">т</tspan><tspan x="466.2" y="19.2">личаться от прайса (</tspan><tspan class="cls-10" x="630.46" y="19.2">у</tspan><tspan class="cls-21" x="639.32" y="19.2">т</tspan><tspan x="646.76" y="19.2">очнять у менеджера).</tspan><tspan class="cls-14" x="0" y="57.6">Т</tspan><tspan class="cls-11" x="8.54" y="57.6">ермоплёнка - 1400 </tspan><tspan class="cls-7" x="162.59" y="57.6">р</tspan><tspan x="172.41" y="57.6">у</tspan><tspan class="cls-18" x="181.18" y="57.6">б</tspan><tspan class="cls-16" x="190.41" y="57.6">. м</tspan></text>
        <text class="cls-2" transform="translate(219.4 277.05) scale(.58)"><tspan x="0" y="0">2</tspan></text>
        <text class="cls-2" transform="translate(9.98 320.78)"><tspan class="cls-13" x="0" y="0">Р</tspan><tspan class="cls-11" x="10.34" y="0">азмер х размер х 1400 х кличество (кон</tspan><tspan class="cls-12" x="324.91" y="0">т</tspan><tspan x="332.44" y="0">урная резка</tspan></text>
        <text class="cls-1" transform="translate(551.08 73.95)"><tspan x="0" y="0">540 dpi</tspan></text>
        <text class="cls-2" transform="translate(556.41 120.2)"><tspan x="0" y="0">690 </tspan><tspan class="cls-20" x="33.07" y="0">р</tspan><tspan class="cls-16" x="42.75" y="0">.</tspan></text>
        <text class="cls-2" transform="translate(556.41 166.46)"><tspan x="0" y="0">950 </tspan><tspan class="cls-20" x="33.07" y="0">р</tspan><tspan class="cls-16" x="42.75" y="0">.</tspan></text>
        <text class="cls-1" transform="translate(695.55 73.95)"><tspan x="0" y="0">720 dpi</tspan></text>
        <text class="cls-2" transform="translate(696.08 120.2)"><tspan x="0" y="0">1200 </tspan><tspan class="cls-18" x="42.67" y="0">р</tspan><tspan x="52.35" y="0">.</tspan></text>
        <text class="cls-2" transform="translate(696.08 166.46)"><tspan x="0" y="0">1400 </tspan><tspan class="cls-18" x="42.67" y="0">р</tspan><tspan x="52.35" y="0">.</tspan></text>
        <text class="cls-1" transform="translate(834.19 73.95)"><tspan x="0" y="0">1440 dpi</tspan></text>
        <text class="cls-2" transform="translate(839.52 120.2)"><tspan x="0" y="0">1240 </tspan><tspan class="cls-18" x="42.67" y="0">р</tspan><tspan x="52.35" y="0">.</tspan></text>
        <text class="cls-2" transform="translate(839.52 166.46)"><tspan x="0" y="0">1440 </tspan><tspan class="cls-18" x="42.67" y="0">р</tspan><tspan x="52.35" y="0">.</tspan></text>
        <text class="cls-1" transform="translate(88.06 120.04)"><tspan class="cls-22" x="0" y="0">С</tspan><tspan class="cls-6" x="10.8" y="0">амоклеящаяся плёнке</tspan></text>
        <text class="cls-1" transform="translate(9.1 166.3)"><tspan class="cls-22" x="0" y="0">С</tspan><tspan class="cls-6" x="10.8" y="0">амоклеящаяся плёнке + резка по кон</tspan><tspan class="cls-3" x="312.75" y="0">т</tspan><tspan class="cls-16" x="320.57" y="0">у</tspan><tspan class="cls-8" x="329.48" y="0">р</tspan><tspan class="cls-16" x="339.5" y="0">у</tspan></text>
        <text class="cls-1" transform="translate(20.93 29.62)"><tspan x="0" y="0">Печать на плёнке</tspan></text>
      </g>
    </g>
  </g>
</svg>