<?xml version="1.0" encoding="UTF-8"?>
<svg id="_Слой_2" data-name="Слой 2" xmlns="http://www.w3.org/2000/svg" viewBox="0 0 939.17 247.61">
  <defs>
    <style>
      .cls-1 {
        fill: #fff;
      }

      .cls-1, .cls-2 {
        stroke: #a0b6b5;
        stroke-miterlimit: 10;
      }

      .cls-3 {
        fill: #27625f;
        stroke-width: 0px;
      }

      .cls-2 {
        fill: none;
      }
    </style>
  </defs>
  <g id="_Слой_1-2" data-name="Слой 1">
    <g>
      <g>
        <rect class="cls-1" x=".5" y=".5" width="938.17" height="183.66" rx="10" ry="10"/>
        <line class="cls-2" x1=".5" y1="92.28" x2="938.67" y2="92.28"/>
        <line class="cls-2" x1=".5" y1="138.22" x2="938.67" y2="138.22"/>
        <line class="cls-2" x1=".5" y1="46.44" x2="938.67" y2="46.44"/>
        <line class="cls-2" x1="365.2" y1="46.34" x2="365.2" y2="184.16"/>
        <line class="cls-2" x1="508.41" y1="46.34" x2="508.41" y2="184.16"/>
        <line class="cls-2" x1="651.63" y1="46.34" x2="651.63" y2="184.16"/>
        <line class="cls-2" x1="794.85" y1="46.34" x2="794.85" y2="184.16"/>
      </g>
      <g>
        <g>
          <path class="cls-3" d="m117.15,73.95v-11.28h2.03v4.8h1.92l-.42.27,3.33-5.07h2.27l-3.71,5.46-.78-.58c.72.11,1.33.35,1.82.74.49.39.91.94,1.27,1.64l2,4.02h-2.22l-1.55-3.25c-.27-.57-.58-.97-.95-1.2s-.83-.35-1.4-.35h-1.57v4.8h-2.03Z"/>
          <path class="cls-3" d="m131.26,74.11c-.7,0-1.32-.17-1.86-.5-.53-.34-.95-.82-1.25-1.45s-.45-1.38-.45-2.26.15-1.62.45-2.25.71-1.1,1.25-1.44,1.15-.5,1.86-.5,1.28.17,1.8.5c.52.34.86.79,1.03,1.35h-.18l.18-1.7h1.92c-.03.33-.06.67-.09,1.01-.03.34-.04.68-.04,1.01v6.06h-1.98l-.02-1.66h.19c-.17.55-.52,1-1.04,1.33s-1.11.5-1.78.5Zm.56-1.54c.63,0,1.14-.22,1.52-.66.38-.44.58-1.11.58-2.01s-.19-1.56-.58-2c-.38-.44-.89-.66-1.52-.66s-1.14.22-1.52.66c-.38.44-.58,1.1-.58,2s.19,1.57.57,2.01c.38.44.89.66,1.53.66Z"/>
          <path class="cls-3" d="m143.36,73.95v-2.94c-.3.14-.61.25-.93.32-.32.07-.66.11-1.01.11-1.18,0-2.07-.28-2.65-.85-.58-.56-.87-1.41-.87-2.53v-2.19h1.98v2.02c0,.68.15,1.18.45,1.48s.78.46,1.44.46c.31,0,.59-.03.83-.1.25-.06.48-.17.7-.3v-3.55h1.98v8.08h-1.94Z"/>
          <path class="cls-3" d="m151.54,74.11c-1.35,0-2.42-.37-3.18-1.12-.77-.75-1.15-1.77-1.15-3.07,0-.84.17-1.58.5-2.21.33-.63.79-1.12,1.38-1.47.59-.35,1.28-.53,2.07-.53s1.43.17,1.95.5.92.79,1.19,1.39c.27.6.41,1.3.41,2.1v.53h-5.89v-1.06h4.46l-.27.22c0-.75-.16-1.32-.47-1.71s-.77-.59-1.37-.59c-.66,0-1.17.23-1.53.7s-.54,1.13-.54,1.97v.21c0,.87.22,1.53.65,1.96s1.04.65,1.83.65c.46,0,.89-.06,1.29-.18.4-.12.78-.32,1.14-.6l.59,1.34c-.38.31-.84.55-1.38.72-.53.17-1.1.26-1.7.26Z"/>
          <path class="cls-3" d="m160.33,74.11c-.83,0-1.56-.17-2.18-.51-.62-.34-1.11-.83-1.45-1.46-.34-.63-.51-1.39-.51-2.26s.17-1.62.52-2.24c.35-.62.83-1.09,1.45-1.42.62-.33,1.34-.5,2.18-.5.53,0,1.05.08,1.56.25.51.17.92.4,1.24.71l-.61,1.39c-.29-.27-.61-.47-.97-.6-.36-.13-.71-.2-1.05-.2-.71,0-1.27.22-1.67.67-.4.45-.6,1.1-.6,1.95s.2,1.51.6,1.97c.4.46.96.69,1.67.69.33,0,.67-.06,1.03-.19.36-.13.69-.32.98-.59l.61,1.38c-.33.31-.75.55-1.26.72-.51.17-1.02.26-1.54.26Z"/>
          <path class="cls-3" d="m166.59,73.95v-6.51h-2.77v-1.57h7.54v1.57h-2.78v6.51h-1.98Z"/>
          <path class="cls-3" d="m172.59,73.95v-8.08h4.3c1.01,0,1.75.18,2.22.55.47.37.7.89.7,1.56,0,.51-.17.94-.51,1.28-.34.34-.79.55-1.36.64v-.22c.69.04,1.23.25,1.6.61s.56.83.56,1.41c0,.69-.27,1.24-.8,1.65-.53.41-1.29.61-2.27.61h-4.45Zm1.86-4.74h2.21c.43,0,.76-.09.99-.28.23-.19.35-.45.35-.79s-.12-.6-.35-.78c-.23-.18-.57-.27-.99-.27h-2.21v2.13Zm0,3.5h2.38c.47,0,.83-.1,1.08-.29.25-.19.38-.47.38-.85s-.13-.66-.38-.85c-.25-.19-.61-.29-1.08-.29h-2.38v2.27Z"/>
          <path class="cls-3" d="m185.57,74.11c-.83,0-1.55-.17-2.16-.51-.61-.34-1.08-.83-1.42-1.46s-.5-1.38-.5-2.24.17-1.61.5-2.23c.34-.62.81-1.11,1.42-1.45.61-.34,1.33-.51,2.16-.51s1.55.17,2.17.51c.61.34,1.09.82,1.42,1.45.34.62.5,1.37.5,2.23s-.17,1.61-.5,2.24-.81,1.11-1.42,1.46c-.61.34-1.34.51-2.17.51Zm0-1.54c.63,0,1.13-.22,1.5-.66.37-.44.56-1.11.56-2.01s-.19-1.56-.56-2-.88-.66-1.5-.66-1.13.22-1.5.66-.56,1.1-.56,2,.19,1.57.56,2.01c.37.44.87.66,1.5.66Z"/>
          <path class="cls-3" d="m195.93,73.95v-8.08h7.57v8.08h-1.98v-6.54h-3.6v6.54h-1.98Z"/>
          <path class="cls-3" d="m209.74,74.11c-1.35,0-2.42-.37-3.18-1.12-.77-.75-1.15-1.77-1.15-3.07,0-.84.17-1.58.5-2.21.33-.63.79-1.12,1.38-1.47.59-.35,1.28-.53,2.07-.53s1.43.17,1.95.5.92.79,1.19,1.39c.27.6.41,1.3.41,2.1v.53h-5.89v-1.06h4.46l-.27.22c0-.75-.16-1.32-.47-1.71-.31-.39-.77-.59-1.37-.59-.66,0-1.17.23-1.53.7s-.54,1.13-.54,1.97v.21c0,.87.22,1.53.65,1.96.43.43,1.04.65,1.83.65.46,0,.89-.06,1.29-.18.4-.12.78-.32,1.14-.6l.59,1.34c-.38.31-.84.55-1.38.72-.53.17-1.1.26-1.7.26Z"/>
          <path class="cls-3" d="m219.9,73.95v-2.94c-.3.14-.61.25-.93.32-.32.07-.66.11-1.01.11-1.18,0-2.07-.28-2.65-.85-.58-.56-.87-1.41-.87-2.53v-2.19h1.98v2.02c0,.68.15,1.18.45,1.48s.78.46,1.44.46c.31,0,.59-.03.83-.1.25-.06.48-.17.7-.3v-3.55h1.98v8.08h-1.94Z"/>
          <path class="cls-3" d="m227.29,74.11c-.7,0-1.32-.17-1.86-.5-.53-.34-.95-.82-1.25-1.45s-.45-1.38-.45-2.26.15-1.62.45-2.25.71-1.1,1.25-1.44,1.15-.5,1.86-.5,1.28.17,1.8.5.86.79,1.03,1.35h-.18l.18-1.7h1.92c-.03.33-.06.67-.09,1.01-.03.34-.04.68-.04,1.01v6.06h-1.98l-.02-1.66h.19c-.17.55-.52,1-1.04,1.33s-1.11.5-1.78.5Zm.56-1.54c.63,0,1.14-.22,1.52-.66.38-.44.58-1.11.58-2.01s-.19-1.56-.58-2c-.38-.44-.89-.66-1.52-.66s-1.14.22-1.52.66c-.38.44-.58,1.1-.58,2s.19,1.57.57,2.01c.38.44.89.66,1.53.66Z"/>
          <path class="cls-3" d="m236,73.95v-6.51h-2.77v-1.57h7.54v1.57h-2.78v6.51h-1.98Z"/>
          <path class="cls-3" d="m242,73.95v-8.08h1.81v6.11h-.48l4.59-6.11h1.65v8.08h-1.81v-6.13h.5l-4.61,6.13h-1.65Z"/>
        </g>
        <g>
          <path class="cls-3" d="m412.19,74.11c-.78,0-1.53-.11-2.24-.34-.71-.23-1.3-.55-1.76-.95l.67-1.55c.5.38,1.02.67,1.56.85.54.18,1.11.27,1.7.27.73,0,1.27-.14,1.65-.43.37-.29.56-.71.56-1.26s-.18-.94-.55-1.21c-.37-.27-.9-.41-1.61-.41h-1.82v-1.65h1.65c.61,0,1.09-.15,1.46-.45s.54-.71.54-1.23c0-.49-.17-.86-.5-1.12-.34-.26-.82-.38-1.45-.38-1.13,0-2.13.38-2.99,1.15l-.67-1.54c.46-.43,1.03-.76,1.7-.99.68-.23,1.39-.35,2.14-.35,1.17,0,2.09.26,2.76.79.67.53,1,1.26,1,2.2,0,.67-.19,1.25-.57,1.74s-.9.81-1.56.97v-.19c.78.13,1.38.45,1.82.95.43.51.65,1.14.65,1.9,0,1-.37,1.79-1.1,2.38-.74.58-1.74.87-3.02.87Z"/>
          <path class="cls-3" d="m422.37,74.11c-1.42,0-2.52-.49-3.29-1.47-.77-.98-1.16-2.36-1.16-4.13,0-1.28.2-2.37.59-3.26s.96-1.57,1.69-2.04c.73-.47,1.61-.71,2.63-.71.61,0,1.21.11,1.81.33s1.11.53,1.54.94l-.69,1.54c-.39-.36-.82-.63-1.28-.81-.46-.18-.92-.26-1.39-.26-.96,0-1.69.33-2.19.98-.5.65-.75,1.62-.75,2.91v1.2h-.19c.08-.54.27-1.01.54-1.4.28-.39.63-.69,1.07-.9s.92-.31,1.46-.31c.66,0,1.25.15,1.76.46.51.31.91.74,1.21,1.28.29.54.44,1.17.44,1.87s-.16,1.37-.49,1.94-.77,1.02-1.34,1.34-1.22.49-1.97.49Zm-.11-1.63c.39,0,.74-.09,1.04-.26.3-.17.53-.41.7-.73.17-.31.25-.67.25-1.08s-.08-.78-.25-1.09c-.17-.31-.4-.55-.7-.73-.3-.18-.65-.26-1.04-.26s-.74.09-1.04.26c-.3.18-.53.42-.7.73-.17.31-.26.67-.26,1.09s.08.77.26,1.08.41.56.7.73c.3.17.65.26,1.04.26Z"/>
          <path class="cls-3" d="m431.57,74.11c-1.32,0-2.34-.5-3.06-1.51s-1.07-2.45-1.07-4.31.36-3.32,1.07-4.3,1.73-1.47,3.06-1.47,2.35.49,3.06,1.47c.71.98,1.06,2.41,1.06,4.29s-.36,3.32-1.06,4.33c-.71,1.01-1.73,1.51-3.06,1.51Zm0-1.7c.73,0,1.26-.33,1.62-1,.35-.67.53-1.71.53-3.14s-.18-2.47-.53-3.11c-.35-.64-.89-.97-1.62-.97s-1.25.32-1.61.97c-.36.65-.54,1.68-.54,3.11s.18,2.48.54,3.14c.36.67.89,1,1.61,1Z"/>
          <path class="cls-3" d="m444.97,74.11c-.7,0-1.33-.17-1.86-.5-.54-.34-.96-.82-1.26-1.45s-.45-1.38-.45-2.26.15-1.62.45-2.25.72-1.1,1.26-1.44c.54-.34,1.16-.5,1.86-.5s1.27.16,1.78.49.86.77,1.03,1.32h-.21v-5.34h2v11.78h-1.97v-1.71h.19c-.17.58-.51,1.03-1.03,1.37-.52.34-1.12.5-1.8.5Zm.56-1.54c.63,0,1.14-.22,1.52-.66.38-.44.58-1.11.58-2.01s-.19-1.56-.58-2-.89-.66-1.52-.66-1.14.22-1.53.66c-.39.44-.58,1.1-.58,2s.19,1.57.58,2.01c.39.44.9.66,1.53.66Z"/>
          <path class="cls-3" d="m451.76,77.41v-9.52c0-.33-.01-.67-.03-1.01-.02-.34-.05-.68-.1-1.01h1.94l.18,1.7h-.18c.16-.57.5-1.02,1.02-1.35s1.12-.5,1.8-.5,1.34.17,1.87.5.95.82,1.25,1.44.45,1.37.45,2.25-.15,1.63-.45,2.26-.71,1.11-1.25,1.45c-.53.34-1.16.5-1.87.5-.67,0-1.26-.17-1.78-.5-.51-.33-.85-.77-1.02-1.33h.18v5.12h-2Zm4.06-4.83c.64,0,1.15-.22,1.54-.66.38-.44.58-1.11.58-2.01s-.19-1.56-.58-2c-.38-.44-.9-.66-1.54-.66s-1.14.22-1.52.66-.58,1.1-.58,2,.19,1.57.58,2.01c.38.44.89.66,1.52.66Z"/>
          <path class="cls-3" d="m461.57,64.35v-1.95h2.22v1.95h-2.22Zm.11,9.6v-8.08h2v8.08h-2Z"/>
        </g>
        <g>
          <path class="cls-3" d="m417.86,120.35c-.49,0-.98-.05-1.46-.16-.48-.11-.93-.26-1.34-.46-.42-.2-.78-.43-1.09-.71l.58-1.26c.51.39,1.04.69,1.58.89.54.2,1.11.3,1.7.3.76,0,1.35-.2,1.78-.59.43-.39.65-.92.65-1.58s-.21-1.23-.62-1.66c-.41-.42-.98-.63-1.7-.63-.5,0-.96.1-1.37.3-.41.2-.77.51-1.08.93h-1.15v-6.78h6.83v1.39h-5.25v4.06h-.42c.29-.4.67-.72,1.16-.94s1.03-.34,1.64-.34c.72,0,1.35.15,1.89.45.53.3.95.71,1.24,1.25.29.53.44,1.16.44,1.89s-.16,1.36-.49,1.91c-.33.55-.79.98-1.39,1.29s-1.31.46-2.14.46Z"/>
          <path class="cls-3" d="m426.5,120.35c-.6,0-1.2-.12-1.79-.36-.6-.24-1.1-.56-1.5-.95l.59-1.26c.39.38.83.67,1.3.87.47.2.94.3,1.42.3,1.02,0,1.81-.36,2.36-1.08.55-.72.82-1.79.82-3.22v-1.36h.16c-.06.57-.25,1.06-.54,1.49s-.67.75-1.13.98c-.45.22-.96.34-1.53.34-.66,0-1.26-.16-1.78-.46-.53-.31-.94-.74-1.23-1.28-.29-.54-.44-1.16-.44-1.84,0-.73.16-1.37.48-1.93s.76-1,1.31-1.31c.55-.31,1.19-.47,1.92-.47,1.41,0,2.49.48,3.24,1.45.75.97,1.13,2.33,1.13,4.09,0,1.29-.19,2.38-.57,3.28s-.93,1.58-1.64,2.05c-.71.47-1.57.7-2.58.7Zm.53-5.63c.45,0,.84-.1,1.18-.29.34-.19.61-.46.8-.81.19-.35.29-.74.29-1.19s-.1-.86-.29-1.21-.46-.62-.8-.82c-.34-.2-.74-.3-1.18-.3s-.84.1-1.18.3-.6.47-.79.82c-.19.35-.29.75-.29,1.21s.1.85.29,1.19c.19.35.46.62.79.81s.73.29,1.18.29Z"/>
          <path class="cls-3" d="m436.89,120.35c-1.3,0-2.31-.28-3.04-.83-.72-.55-1.09-1.33-1.09-2.32,0-.79.24-1.44.72-1.96.48-.52,1.11-.83,1.89-.94v.29c-.7-.15-1.27-.47-1.69-.98-.42-.5-.63-1.11-.63-1.82,0-.94.34-1.67,1.02-2.21s1.62-.8,2.82-.8,2.15.27,2.83.8,1.02,1.27,1.02,2.21c0,.71-.2,1.33-.6,1.83-.4.51-.95.82-1.64.95v-.27c.77.11,1.38.42,1.84.94.46.52.69,1.17.69,1.96,0,.99-.36,1.77-1.09,2.32-.73.55-1.74.83-3.06.83Zm0-1.31c.86,0,1.51-.16,1.94-.49s.64-.81.64-1.46-.21-1.14-.64-1.46c-.43-.32-1.07-.48-1.94-.48s-1.51.16-1.94.48c-.43.32-.64.81-.64,1.46s.22,1.14.65,1.46c.43.33,1.07.49,1.93.49Zm0-5.2c.75,0,1.31-.17,1.7-.5s.58-.8.58-1.38-.19-1.03-.58-1.36-.96-.5-1.7-.5-1.3.17-1.7.5-.59.78-.59,1.36.2,1.05.59,1.38.96.5,1.7.5Z"/>
          <path class="cls-3" d="m447.25,123.66v-9.58c0-.31-.01-.63-.04-.95-.03-.32-.06-.65-.09-.98h1.57l.16,1.82h-.18c.17-.61.51-1.09,1.03-1.44s1.13-.53,1.85-.53,1.34.17,1.87.5.95.81,1.24,1.43c.29.62.44,1.37.44,2.24s-.15,1.61-.44,2.24c-.29.63-.71,1.11-1.24,1.44s-1.16.5-1.87.5-1.31-.17-1.83-.52c-.52-.35-.86-.82-1.03-1.42h.18v5.25h-1.62Zm3.9-4.58c.7,0,1.27-.25,1.69-.74.42-.49.63-1.22.63-2.18s-.21-1.68-.63-2.17c-.42-.49-.98-.73-1.69-.73s-1.27.24-1.69.73c-.42.49-.63,1.21-.63,2.17s.21,1.69.63,2.18c.42.49.98.74,1.69.74Z"/>
          <path class="cls-3" d="m456.59,120.2v-1.9h1.9v1.9h-1.9Z"/>
        </g>
        <g>
          <path class="cls-3" d="m416.9,166.61c-.6,0-1.2-.12-1.79-.36-.6-.24-1.1-.56-1.5-.95l.59-1.26c.39.38.83.68,1.3.87.47.2.94.29,1.42.29,1.02,0,1.81-.36,2.36-1.08.55-.72.82-1.79.82-3.22v-1.36h.16c-.06.57-.25,1.06-.54,1.49-.3.43-.67.75-1.13.98-.45.22-.96.34-1.53.34-.66,0-1.26-.15-1.78-.46-.53-.31-.94-.74-1.23-1.28s-.44-1.16-.44-1.84c0-.72.16-1.37.48-1.93.32-.56.76-1,1.31-1.31.55-.31,1.19-.47,1.92-.47,1.41,0,2.49.48,3.24,1.45.75.96,1.13,2.33,1.13,4.09,0,1.29-.19,2.38-.57,3.28-.38.9-.93,1.58-1.64,2.05-.71.47-1.57.7-2.58.7Zm.53-5.63c.45,0,.84-.1,1.18-.29.34-.19.61-.46.8-.81s.29-.74.29-1.19-.1-.86-.29-1.21c-.19-.35-.46-.62-.8-.82-.34-.2-.74-.3-1.18-.3s-.84.1-1.18.3-.6.47-.79.82c-.19.35-.29.75-.29,1.21s.1.85.29,1.19c.19.35.46.62.79.81.34.19.73.29,1.18.29Z"/>
          <path class="cls-3" d="m427.18,166.61c-.77,0-1.5-.11-2.21-.34-.7-.23-1.29-.56-1.76-.98l.58-1.26c.52.41,1.06.7,1.6.9.54.19,1.13.29,1.74.29.79,0,1.39-.16,1.8-.5.41-.33.62-.81.62-1.42s-.21-1.07-.62-1.38c-.41-.31-1.02-.47-1.82-.47h-1.74v-1.34h1.62c.68,0,1.23-.17,1.63-.52.41-.35.61-.82.61-1.42,0-.54-.19-.96-.56-1.26-.37-.29-.91-.44-1.6-.44-1.17,0-2.2.41-3.09,1.23l-.56-1.26c.44-.44.99-.78,1.66-1.02.67-.24,1.38-.36,2.11-.36,1.13,0,2.02.26,2.67.78.65.52.98,1.23.98,2.15,0,.69-.19,1.29-.58,1.78s-.92.82-1.59.98v-.18c.8.13,1.42.45,1.85.95.43.51.65,1.14.65,1.9,0,1-.35,1.79-1.06,2.36-.71.57-1.68.86-2.92.86Z"/>
          <path class="cls-3" d="m437.28,166.61c-1.4,0-2.47-.48-3.22-1.46s-1.13-2.33-1.13-4.08c0-1.3.19-2.4.58-3.29.38-.89.93-1.57,1.64-2.04.71-.47,1.57-.7,2.57-.7.6,0,1.19.11,1.79.34s1.1.55,1.5.97l-.59,1.25c-.39-.38-.83-.67-1.3-.86-.47-.19-.94-.29-1.42-.29-1.04,0-1.82.36-2.37,1.08-.54.72-.82,1.79-.82,3.22v1.36h-.16c.08-.58.26-1.07.54-1.5.29-.42.66-.74,1.12-.97.46-.22.97-.34,1.54-.34.67,0,1.27.15,1.78.46.52.31.92.73,1.22,1.27s.45,1.16.45,1.85-.16,1.35-.48,1.92c-.32.56-.76,1-1.32,1.32-.56.32-1.2.47-1.93.47Zm-.1-1.34c.45,0,.84-.1,1.18-.29.34-.19.6-.46.79-.81.19-.35.29-.75.29-1.21s-.1-.86-.29-1.2c-.19-.34-.46-.61-.79-.81-.34-.2-.73-.29-1.18-.29s-.84.1-1.18.29c-.34.2-.61.47-.8.81-.19.34-.29.74-.29,1.2s.1.86.29,1.21c.19.35.46.62.8.81.34.19.74.29,1.18.29Z"/>
          <path class="cls-3" d="m447.25,169.92v-9.58c0-.31-.01-.63-.04-.95-.03-.33-.06-.65-.09-.98h1.57l.16,1.82h-.18c.17-.61.51-1.09,1.03-1.44.52-.35,1.13-.53,1.85-.53s1.34.17,1.87.5.95.81,1.24,1.43c.29.62.44,1.37.44,2.24s-.15,1.61-.44,2.24c-.29.63-.71,1.11-1.24,1.44-.53.33-1.16.5-1.87.5s-1.31-.17-1.83-.52-.86-.82-1.03-1.42h.18v5.25h-1.62Zm3.9-4.58c.7,0,1.27-.25,1.69-.74.42-.49.63-1.21.63-2.18s-.21-1.68-.63-2.17c-.42-.48-.98-.73-1.69-.73s-1.27.24-1.69.73c-.42.49-.63,1.21-.63,2.17s.21,1.69.63,2.18c.42.49.98.74,1.69.74Z"/>
          <path class="cls-3" d="m456.59,166.46v-1.9h1.9v1.9h-1.9Z"/>
        </g>
        <g>
          <path class="cls-3" d="m11.32,224.78v-11.28h1.46l4.35,9.81h-.48l4.35-9.81h1.44v11.28h-1.5v-9.02h.53l-4.06,9.02h-1.04l-4.06-9.02h.54v9.02h-1.52Z"/>
          <path class="cls-3" d="m25.02,224.78v-8.06h1.47v6.51h-.45l4.86-6.51h1.34v8.06h-1.46v-6.53h.46l-4.9,6.53h-1.34Z"/>
          <path class="cls-3" d="m34.68,224.78v-8.06h1.6v3.28h4.08v-3.28h1.6v8.06h-1.6v-3.52h-4.08v3.52h-1.6Z"/>
          <path class="cls-3" d="m44.39,224.78v-8.06h1.47v6.51h-.45l4.86-6.51h1.34v8.06h-1.46v-6.53h.46l-4.9,6.53h-1.34Z"/>
          <path class="cls-3" d="m54.06,224.78v-8.06h1.34l2.91,5.15,2.91-5.15h1.34v8.06h-1.42v-6.26h.35l-2.8,4.96h-.77l-2.8-4.96h.35v6.26h-1.42Z"/>
          <path class="cls-3" d="m68.15,224.92c-.71,0-1.34-.17-1.87-.5-.53-.33-.95-.81-1.24-1.44s-.44-1.38-.44-2.24.15-1.62.44-2.24c.29-.62.71-1.1,1.24-1.43s1.16-.5,1.87-.5,1.32.18,1.84.53c.52.35.87.83,1.04,1.44h-.18l.16-1.82h1.57c-.03.33-.06.66-.09.98s-.04.64-.04.95v6.13h-1.62v-1.79h.18c-.17.6-.52,1.07-1.05,1.42-.53.35-1.13.52-1.82.52Zm.4-1.26c.69,0,1.25-.25,1.67-.74.42-.49.63-1.21.63-2.18s-.21-1.68-.63-2.17c-.42-.48-.98-.73-1.67-.73s-1.27.24-1.69.73c-.42.49-.63,1.21-.63,2.17s.21,1.69.62,2.18c.42.49.98.74,1.7.74Z"/>
          <path class="cls-3" d="m74.6,224.98l-.54-1.28c.36-.15.67-.34.92-.57.25-.23.45-.53.59-.89.14-.36.25-.81.31-1.34.06-.53.1-1.18.1-1.94v-2.26h6.08v8.06h-1.6v-6.8h-2.99v1.04c0,1.22-.1,2.22-.29,3.02-.19.8-.5,1.43-.92,1.9-.42.46-.97.81-1.66,1.05Z"/>
          <path class="cls-3" d="m84.49,224.78v-8.06h1.6v2.82h2.29c1.06,0,1.85.22,2.38.66.53.44.8,1.08.8,1.93,0,.54-.12,1.02-.37,1.42-.25.4-.61.71-1.08.92-.47.21-1.05.32-1.74.32h-3.89Zm1.6-1.1h2.11c.6,0,1.06-.12,1.38-.38.32-.25.48-.64.48-1.16s-.16-.9-.47-1.14c-.31-.24-.78-.36-1.38-.36h-2.11v3.04Z"/>
          <path class="cls-3" d="m93.38,224.78v-8.06h1.6v3.28h4.08v-3.28h1.6v8.06h-1.6v-3.52h-4.08v3.52h-1.6Z"/>
          <path class="cls-3" d="m106.25,224.92c-.71,0-1.34-.17-1.87-.5-.53-.33-.95-.81-1.24-1.44s-.44-1.38-.44-2.24.15-1.62.44-2.24c.29-.62.71-1.1,1.24-1.43s1.16-.5,1.87-.5,1.32.18,1.84.53c.52.35.87.83,1.04,1.44h-.18l.16-1.82h1.57c-.03.33-.06.66-.09.98s-.04.64-.04.95v6.13h-1.62v-1.79h.18c-.17.6-.52,1.07-1.05,1.42-.53.35-1.13.52-1.82.52Zm.4-1.26c.69,0,1.25-.25,1.67-.74.42-.49.63-1.21.63-2.18s-.21-1.68-.63-2.17c-.42-.48-.98-.73-1.67-.73s-1.27.24-1.69.73c-.42.49-.63,1.21-.63,2.17s.21,1.69.62,2.18c.42.49.98.74,1.7.74Z"/>
          <path class="cls-3" d="m112.38,224.78l1.26-2.18c.2-.35.46-.64.78-.86s.64-.33.97-.33h.29l-.02.16c-.92,0-1.63-.21-2.14-.62-.51-.42-.77-1.01-.77-1.79s.26-1.38.77-1.81c.51-.43,1.26-.64,2.26-.64h3.78v8.06h-1.49v-2.99h-1.07c-.41,0-.75.1-1.03.3-.28.2-.51.47-.7.8l-1.09,1.89h-1.79Zm3.68-4.08h2v-2.9h-2c-.6,0-1.04.13-1.34.38-.29.26-.44.61-.44,1.06,0,.47.15.83.44,1.08.29.25.74.38,1.34.38Z"/>
          <path class="cls-3" d="m129.85,224.92c-.81,0-1.52-.17-2.12-.5-.6-.34-1.07-.82-1.39-1.46s-.49-1.39-.49-2.26.17-1.6.5-2.22c.33-.62.79-1.09,1.39-1.42.6-.33,1.3-.49,2.11-.49.52,0,1.03.09,1.52.26s.9.42,1.22.74l-.53,1.14c-.3-.29-.63-.5-1.01-.65-.37-.14-.74-.22-1.09-.22-.77,0-1.37.25-1.81.74-.44.49-.66,1.2-.66,2.13s.22,1.66.66,2.16c.44.5,1.04.75,1.81.75.34,0,.7-.07,1.07-.2.37-.13.71-.35,1.02-.65l.53,1.14c-.33.32-.74.57-1.24.74-.5.18-.99.26-1.5.26Z"/>
          <path class="cls-3" d="m136.15,224.78v-6.77h-2.85v-1.29h7.31v1.29h-2.86v6.77h-1.6Z"/>
          <path class="cls-3" d="m145.38,224.92c-.8,0-1.49-.17-2.08-.5-.59-.34-1.04-.82-1.36-1.44s-.48-1.37-.48-2.23.16-1.61.48-2.23c.32-.62.77-1.1,1.36-1.44.59-.34,1.28-.5,2.08-.5s1.5.17,2.09.5,1.05.82,1.38,1.44c.33.62.49,1.37.49,2.23s-.16,1.61-.49,2.23c-.33.62-.78,1.1-1.38,1.44s-1.29.5-2.09.5Zm0-1.26c.7,0,1.26-.25,1.68-.74.42-.49.62-1.21.62-2.18s-.21-1.68-.62-2.17c-.42-.48-.98-.73-1.68-.73s-1.25.24-1.66.73c-.42.49-.62,1.21-.62,2.17s.21,1.69.62,2.18c.41.49.97.74,1.67.74Z"/>
          <path class="cls-3" d="m151.34,224.78v-8.06h1.47v6.51h-.45l4.86-6.51h1.34v8.06h-1.46v-6.53h.46l-4.9,6.53h-1.34Z"/>
          <path class="cls-3" d="m161,224.78v-8.06h1.34l2.91,5.15,2.91-5.15h1.34v8.06h-1.42v-6.26h.35l-2.8,4.96h-.77l-2.8-4.96h.35v6.26h-1.42Z"/>
          <path class="cls-3" d="m175.46,224.92c-.8,0-1.49-.17-2.08-.5-.59-.34-1.04-.82-1.36-1.44s-.48-1.37-.48-2.23.16-1.61.48-2.23c.32-.62.77-1.1,1.36-1.44.59-.34,1.28-.5,2.08-.5s1.5.17,2.09.5,1.05.82,1.38,1.44c.33.62.49,1.37.49,2.23s-.16,1.61-.49,2.23c-.33.62-.78,1.1-1.38,1.44s-1.29.5-2.09.5Zm0-1.26c.7,0,1.26-.25,1.68-.74.42-.49.62-1.21.62-2.18s-.21-1.68-.62-2.17c-.42-.48-.98-.73-1.68-.73s-1.25.24-1.66.73c-.42.49-.62,1.21-.62,2.17s.21,1.69.62,2.18c.41.49.97.74,1.67.74Z"/>
          <path class="cls-3" d="m185.02,224.92c-.81,0-1.52-.17-2.12-.5-.6-.34-1.07-.82-1.39-1.46s-.49-1.39-.49-2.26.17-1.6.5-2.22c.33-.62.79-1.09,1.39-1.42.6-.33,1.3-.49,2.11-.49.52,0,1.03.09,1.52.26s.9.42,1.22.74l-.53,1.14c-.3-.29-.63-.5-1.01-.65-.37-.14-.74-.22-1.09-.22-.77,0-1.37.25-1.81.74-.44.49-.66,1.2-.66,2.13s.22,1.66.66,2.16c.44.5,1.04.75,1.81.75.34,0,.7-.07,1.07-.2.37-.13.71-.35,1.02-.65l.53,1.14c-.33.32-.74.57-1.24.74-.5.18-.99.26-1.5.26Z"/>
          <path class="cls-3" d="m191.32,224.78v-6.77h-2.85v-1.29h7.31v1.29h-2.86v6.77h-1.6Z"/>
          <path class="cls-3" d="m197.08,224.78v-8.06h1.6v2.82h2.29c1.06,0,1.85.22,2.38.66.53.44.8,1.08.8,1.93,0,.54-.12,1.02-.37,1.42-.25.4-.61.71-1.08.92-.47.21-1.05.32-1.74.32h-3.89Zm1.6-1.1h2.11c.6,0,1.06-.12,1.38-.38.32-.25.48-.64.48-1.16s-.16-.9-.47-1.14c-.31-.24-.78-.36-1.38-.36h-2.11v3.04Z"/>
          <path class="cls-3" d="m213.05,224.92c-.7,0-1.37-.09-1.98-.26-.62-.18-1.13-.43-1.52-.76l.5-1.09c.39.31.85.54,1.36.7.51.16,1.06.23,1.65.23.74,0,1.27-.11,1.61-.33s.5-.53.5-.94-.14-.69-.42-.9c-.28-.2-.68-.3-1.22-.3h-1.98v-1.15h1.82c.48,0,.85-.1,1.12-.3s.4-.49.4-.85c0-.38-.16-.68-.46-.9s-.79-.32-1.44-.32c-.55,0-1.06.07-1.52.21-.46.14-.9.35-1.31.62l-.48-1.04c.44-.33.96-.58,1.55-.74.6-.16,1.24-.24,1.94-.24,1.04,0,1.84.2,2.38.58.54.39.82.95.82,1.67,0,.5-.17.93-.5,1.28s-.79.57-1.35.64v-.21c.65.03,1.17.23,1.56.58.39.36.58.83.58,1.42,0,.73-.31,1.3-.92,1.74-.61.43-1.51.65-2.68.65Z"/>
          <path class="cls-3" d="m221.69,224.92c-.71,0-1.34-.17-1.87-.5-.53-.33-.95-.81-1.24-1.44s-.44-1.38-.44-2.24.15-1.62.44-2.24c.29-.62.71-1.1,1.24-1.43s1.16-.5,1.87-.5,1.32.18,1.84.53c.52.35.87.83,1.04,1.44h-.18l.16-1.82h1.57c-.03.33-.06.66-.09.98s-.04.64-.04.95v6.13h-1.62v-1.79h.18c-.17.6-.52,1.07-1.05,1.42-.53.35-1.13.52-1.82.52Zm.4-1.26c.69,0,1.25-.25,1.67-.74.42-.49.63-1.21.63-2.18s-.21-1.68-.63-2.17c-.42-.48-.98-.73-1.67-.73s-1.27.24-1.69.73c-.42.49-.63,1.21-.63,2.17s.21,1.69.62,2.18c.42.49.98.74,1.7.74Z"/>
          <path class="cls-3" d="m228.47,224.78v-8.06h1.6v3.29h1.39l2.51-3.29h1.76l-3.01,3.97-.4-.51c.31.03.58.11.8.23s.44.3.66.54c.21.23.43.54.66.93l1.68,2.91h-1.73l-1.44-2.46c-.16-.28-.32-.49-.46-.65-.15-.15-.32-.26-.51-.32-.19-.06-.43-.09-.7-.09h-1.2v3.52h-1.6Z"/>
          <path class="cls-3" d="m240.45,224.92c-.71,0-1.34-.17-1.87-.5-.53-.33-.95-.81-1.24-1.44s-.44-1.38-.44-2.24.15-1.62.44-2.24c.29-.62.71-1.1,1.24-1.43s1.16-.5,1.87-.5,1.32.18,1.84.53c.52.35.87.83,1.04,1.44h-.18l.16-1.82h1.57c-.03.33-.06.66-.09.98s-.04.64-.04.95v6.13h-1.62v-1.79h.18c-.17.6-.52,1.07-1.05,1.42-.53.35-1.13.52-1.82.52Zm.4-1.26c.69,0,1.25-.25,1.67-.74.42-.49.63-1.21.63-2.18s-.21-1.68-.63-2.17c-.42-.48-.98-.73-1.67-.73s-1.27.24-1.69.73c-.42.49-.63,1.21-.63,2.17s.21,1.69.62,2.18c.42.49.98.74,1.7.74Z"/>
          <path class="cls-3" d="m250.04,224.92c-.7,0-1.37-.09-1.98-.26-.62-.18-1.13-.43-1.52-.76l.5-1.09c.39.31.85.54,1.36.7.51.16,1.06.23,1.65.23.74,0,1.27-.11,1.61-.33s.5-.53.5-.94-.14-.69-.42-.9c-.28-.2-.68-.3-1.22-.3h-1.98v-1.15h1.82c.48,0,.85-.1,1.12-.3s.4-.49.4-.85c0-.38-.16-.68-.46-.9s-.79-.32-1.44-.32c-.55,0-1.06.07-1.52.21-.46.14-.9.35-1.31.62l-.48-1.04c.44-.33.96-.58,1.55-.74.6-.16,1.24-.24,1.94-.24,1.04,0,1.84.2,2.38.58.54.39.82.95.82,1.67,0,.5-.17.93-.5,1.28s-.79.57-1.35.64v-.21c.65.03,1.17.23,1.56.58.39.36.58.83.58,1.42,0,.73-.31,1.3-.92,1.74-.61.43-1.51.65-2.68.65Z"/>
          <path class="cls-3" d="m258.68,224.92c-.71,0-1.34-.17-1.87-.5-.53-.33-.95-.81-1.24-1.44s-.44-1.38-.44-2.24.15-1.62.44-2.24c.29-.62.71-1.1,1.24-1.43s1.16-.5,1.87-.5,1.32.18,1.84.53c.52.35.87.83,1.04,1.44h-.18l.16-1.82h1.57c-.03.33-.06.66-.09.98s-.04.64-.04.95v6.13h-1.62v-1.79h.18c-.17.6-.52,1.07-1.05,1.42-.53.35-1.13.52-1.82.52Zm.4-1.26c.69,0,1.25-.25,1.67-.74.42-.49.63-1.21.63-2.18s-.21-1.68-.63-2.17c-.42-.48-.98-.73-1.67-.73s-1.27.24-1.69.73c-.42.49-.63,1.21-.63,2.17s.21,1.69.62,2.18c.42.49.98.74,1.7.74Z"/>
          <path class="cls-3" d="m269.64,221.03v-1.3h4.69v1.3h-4.69Z"/>
          <path class="cls-3" d="m284.41,224.92c-.77,0-1.5-.11-2.21-.34-.7-.23-1.29-.56-1.76-.98l.58-1.26c.52.41,1.06.7,1.6.9.54.19,1.12.29,1.74.29.79,0,1.39-.16,1.8-.5.41-.33.62-.81.62-1.42s-.21-1.07-.62-1.38c-.41-.31-1.02-.47-1.82-.47h-1.74v-1.34h1.62c.68,0,1.23-.17,1.63-.52.41-.35.61-.82.61-1.42,0-.54-.19-.96-.56-1.26-.37-.29-.91-.44-1.6-.44-1.17,0-2.2.41-3.09,1.23l-.56-1.26c.44-.44.99-.78,1.66-1.02.67-.24,1.38-.36,2.11-.36,1.13,0,2.02.26,2.67.78s.98,1.23.98,2.15c0,.69-.19,1.29-.58,1.78-.39.49-.92.82-1.59.98v-.18c.8.13,1.42.45,1.85.95.43.51.65,1.14.65,1.9,0,1-.35,1.79-1.06,2.36-.71.57-1.68.86-2.92.86Z"/>
          <path class="cls-3" d="m294.12,224.92c-1.3,0-2.3-.5-3-1.5-.7-1-1.05-2.43-1.05-4.29s.35-3.34,1.05-4.31,1.7-1.46,3-1.46,2.31.49,3.01,1.46,1.04,2.41,1.04,4.3-.35,3.32-1.05,4.31c-.7,1-1.7,1.5-3,1.5Zm0-1.39c.82,0,1.43-.36,1.83-1.07.4-.71.6-1.83.6-3.34s-.2-2.64-.6-3.34c-.4-.7-1.01-1.05-1.83-1.05s-1.42.35-1.82,1.05-.61,1.81-.61,3.32.21,2.65.62,3.36c.41.71,1.02,1.07,1.82,1.07Z"/>
          <path class="cls-3" d="m303.72,224.92c-1.3,0-2.3-.5-3-1.5-.7-1-1.05-2.43-1.05-4.29s.35-3.34,1.05-4.31,1.7-1.46,3-1.46,2.31.49,3.01,1.46,1.04,2.41,1.04,4.3-.35,3.32-1.05,4.31c-.7,1-1.7,1.5-3,1.5Zm0-1.39c.82,0,1.43-.36,1.83-1.07.4-.71.6-1.83.6-3.34s-.2-2.64-.6-3.34c-.4-.7-1.01-1.05-1.83-1.05s-1.42.35-1.82,1.05-.61,1.81-.61,3.32.21,2.65.62,3.36c.41.71,1.02,1.07,1.82,1.07Z"/>
          <path class="cls-3" d="m314.07,228.23v-9.58c0-.31-.01-.63-.04-.95-.03-.33-.06-.65-.09-.98h1.57l.16,1.82h-.18c.17-.61.51-1.09,1.03-1.44.52-.35,1.13-.53,1.85-.53s1.34.17,1.87.5.95.81,1.24,1.43c.29.62.44,1.37.44,2.24s-.15,1.61-.44,2.24c-.29.63-.71,1.11-1.24,1.44-.53.33-1.16.5-1.87.5s-1.31-.17-1.83-.52-.86-.82-1.03-1.42h.18v5.25h-1.62Zm3.9-4.58c.7,0,1.27-.25,1.69-.74.42-.49.63-1.21.63-2.18s-.21-1.68-.63-2.17c-.42-.48-.98-.73-1.69-.73s-1.27.24-1.69.73c-.42.49-.63,1.21-.63,2.17s.21,1.69.63,2.18c.42.49.98.74,1.69.74Z"/>
          <path class="cls-3" d="m323.65,228.41l-.38-1.31c.5-.11.92-.23,1.26-.38.34-.15.62-.34.84-.58.22-.24.42-.55.58-.92l.4-.95-.03.66-3.5-8.21h1.73l2.72,6.72h-.43l2.72-6.72h1.66l-3.7,8.64c-.24.53-.49.98-.75,1.34s-.55.66-.86.88c-.31.22-.65.4-1.02.53s-.78.23-1.22.3Z"/>
          <path class="cls-3" d="m336.18,224.92c-1.22,0-2.18-.38-2.9-1.14-.72-.76-1.08-1.87-1.08-3.34v-1.39c0-1.5.32-2.71.97-3.63.65-.92,1.65-1.54,3-1.86l2.94-.7.46,1.3-3.3.77c-.58.13-1.05.37-1.42.72-.37.35-.65.77-.84,1.25-.19.48-.28.99-.28,1.54v.74h-.24c.13-.49.33-.91.62-1.26.28-.35.63-.62,1.06-.82.42-.2.89-.29,1.42-.29.69,0,1.3.16,1.82.48.52.32.93.78,1.22,1.38.29.6.44,1.31.44,2.14s-.16,1.59-.48,2.21c-.32.62-.77,1.09-1.35,1.42-.58.33-1.27.5-2.06.5Zm-.05-1.25c.73,0,1.29-.24,1.7-.71.41-.47.62-1.18.62-2.1s-.21-1.62-.62-2.1c-.42-.48-.98-.72-1.7-.72s-1.28.24-1.7.71-.62,1.15-.62,2.02c0,.96.21,1.68.62,2.17.41.49.98.73,1.7.73Z"/>
          <path class="cls-3" d="m341.56,224.78v-1.9h1.9v1.9h-1.9Z"/>
          <path class="cls-3" d="m16.38,244.12c-1.15,0-2.13-.23-2.94-.71-.81-.47-1.43-1.14-1.86-2.01s-.65-1.9-.65-3.08.22-2.21.65-3.07c.43-.86,1.05-1.53,1.86-2,.81-.47,1.79-.7,2.94-.7.8,0,1.51.12,2.14.35.63.23,1.18.58,1.65,1.02l-.58,1.33c-.51-.44-1.01-.75-1.5-.94-.49-.19-1.05-.29-1.69-.29-1.22,0-2.14.37-2.78,1.12-.64.75-.96,1.81-.96,3.18s.32,2.44.96,3.19c.64.75,1.57,1.13,2.78,1.13.64,0,1.2-.1,1.69-.29.49-.19.98-.51,1.5-.96l.58,1.33c-.47.45-1.02.79-1.65,1.03-.63.24-1.34.36-2.14.36Z"/>
          <path class="cls-3" d="m23.88,243.98v-6.77h-2.85v-1.3h7.31v1.3h-2.86v6.77h-1.6Z"/>
          <path class="cls-3" d="m33.11,244.12c-.8,0-1.49-.17-2.08-.5-.59-.34-1.04-.82-1.36-1.44s-.48-1.37-.48-2.23.16-1.61.48-2.23c.32-.62.77-1.1,1.36-1.44.59-.34,1.28-.5,2.08-.5s1.5.17,2.09.5,1.05.82,1.38,1.44c.33.62.49,1.37.49,2.23s-.16,1.61-.49,2.23c-.33.62-.78,1.1-1.38,1.44s-1.29.5-2.09.5Zm0-1.26c.7,0,1.26-.25,1.68-.74.42-.49.62-1.22.62-2.18s-.21-1.68-.62-2.17-.98-.73-1.68-.73-1.25.24-1.66.73-.62,1.21-.62,2.17.21,1.69.62,2.18c.41.49.97.74,1.67.74Z"/>
          <path class="cls-3" d="m39.07,243.98v-8.06h1.47v6.51h-.45l4.86-6.51h1.34v8.06h-1.46v-6.53h.46l-4.9,6.53h-1.34Z"/>
          <path class="cls-3" d="m48.73,243.98v-8.06h1.34l2.91,5.15,2.91-5.15h1.34v8.06h-1.42v-6.26h.35l-2.8,4.96h-.77l-2.8-4.96h.35v6.26h-1.42Z"/>
          <path class="cls-3" d="m63.19,244.12c-.8,0-1.49-.17-2.08-.5-.59-.34-1.04-.82-1.36-1.44s-.48-1.37-.48-2.23.16-1.61.48-2.23c.32-.62.77-1.1,1.36-1.44.59-.34,1.28-.5,2.08-.5s1.5.17,2.09.5,1.05.82,1.38,1.44c.33.62.49,1.37.49,2.23s-.16,1.61-.49,2.23c-.33.62-.78,1.1-1.38,1.44s-1.29.5-2.09.5Zm0-1.26c.7,0,1.26-.25,1.68-.74.42-.49.62-1.22.62-2.18s-.21-1.68-.62-2.17-.98-.73-1.68-.73-1.25.24-1.66.73-.62,1.21-.62,2.17.21,1.69.62,2.18c.41.49.97.74,1.67.74Z"/>
          <path class="cls-3" d="m72.75,244.12c-.81,0-1.52-.17-2.12-.5-.6-.34-1.07-.82-1.39-1.46s-.49-1.39-.49-2.26.17-1.61.5-2.22c.33-.62.79-1.09,1.39-1.42.6-.32,1.3-.49,2.11-.49.52,0,1.03.09,1.52.26.49.18.9.42,1.22.74l-.53,1.14c-.3-.29-.63-.5-1.01-.65-.37-.14-.74-.22-1.09-.22-.77,0-1.37.25-1.81.74-.44.49-.66,1.2-.66,2.13s.22,1.66.66,2.16c.44.5,1.04.75,1.81.75.34,0,.7-.07,1.07-.2.37-.13.71-.35,1.02-.65l.53,1.14c-.33.32-.74.57-1.24.74-.5.18-.99.26-1.5.26Z"/>
          <path class="cls-3" d="m79.05,243.98v-6.77h-2.85v-1.3h7.31v1.3h-2.86v6.77h-1.6Z"/>
          <path class="cls-3" d="m84.81,243.98v-8.06h1.6v2.82h2.29c1.06,0,1.85.22,2.38.66.53.44.8,1.09.8,1.93,0,.54-.12,1.02-.37,1.42s-.61.71-1.08.92c-.47.21-1.05.32-1.74.32h-3.89Zm1.6-1.1h2.11c.6,0,1.06-.13,1.38-.38.32-.25.48-.64.48-1.16s-.16-.9-.47-1.14c-.31-.24-.78-.36-1.38-.36h-2.11v3.04Z"/>
          <path class="cls-3" d="m97.98,243.98v-8.06h1.6v3.28h4.08v-3.28h1.6v8.06h-1.6v-3.52h-4.08v3.52h-1.6Z"/>
          <path class="cls-3" d="m110.84,244.12c-.71,0-1.34-.17-1.87-.5-.53-.33-.95-.81-1.24-1.44s-.44-1.38-.44-2.24.15-1.62.44-2.24c.29-.62.71-1.1,1.24-1.43s1.16-.5,1.87-.5,1.32.18,1.84.53c.52.35.87.83,1.04,1.44h-.18l.16-1.82h1.57c-.03.33-.06.66-.09.98-.03.33-.04.64-.04.95v6.13h-1.62v-1.79h.18c-.17.6-.52,1.07-1.05,1.42-.53.35-1.13.52-1.82.52Zm.4-1.26c.69,0,1.25-.25,1.67-.74.42-.49.63-1.22.63-2.18s-.21-1.68-.63-2.17c-.42-.49-.98-.73-1.67-.73s-1.27.24-1.69.73c-.42.49-.63,1.21-.63,2.17s.21,1.69.62,2.18c.42.49.98.74,1.7.74Z"/>
          <path class="cls-3" d="m121.9,243.98v-8.06h5.81v1.3h-4.19v6.77h-1.62Z"/>
          <path class="cls-3" d="m132.7,244.12c-.8,0-1.49-.17-2.08-.5-.59-.34-1.04-.82-1.36-1.44s-.48-1.37-.48-2.23.16-1.61.48-2.23c.32-.62.77-1.1,1.36-1.44.59-.34,1.28-.5,2.08-.5s1.5.17,2.09.5,1.05.82,1.38,1.44c.33.62.49,1.37.49,2.23s-.16,1.61-.49,2.23c-.33.62-.78,1.1-1.38,1.44s-1.29.5-2.09.5Zm0-1.26c.7,0,1.26-.25,1.68-.74.42-.49.62-1.22.62-2.18s-.21-1.68-.62-2.17-.98-.73-1.68-.73-1.25.24-1.66.73-.62,1.21-.62,2.17.21,1.69.62,2.18c.41.49.97.74,1.67.74Z"/>
          <path class="cls-3" d="m140.38,243.98v-6.77h-2.85v-1.3h7.31v1.3h-2.86v6.77h-1.6Z"/>
          <path class="cls-3" d="m149.61,244.12c-.8,0-1.49-.17-2.08-.5-.59-.34-1.04-.82-1.36-1.44s-.48-1.37-.48-2.23.16-1.61.48-2.23c.32-.62.77-1.1,1.36-1.44.59-.34,1.28-.5,2.08-.5s1.5.17,2.09.5,1.05.82,1.38,1.44c.33.62.49,1.37.49,2.23s-.16,1.61-.49,2.23c-.33.62-.78,1.1-1.38,1.44s-1.29.5-2.09.5Zm0-1.26c.7,0,1.26-.25,1.68-.74.42-.49.62-1.22.62-2.18s-.21-1.68-.62-2.17-.98-.73-1.68-.73-1.25.24-1.66.73-.62,1.21-.62,2.17.21,1.69.62,2.18c.41.49.97.74,1.67.74Z"/>
          <path class="cls-3" d="m155.56,243.98v-8.06h4.06c.97,0,1.69.18,2.15.55.46.37.7.89.7,1.56,0,.52-.17.96-.52,1.3-.35.34-.8.55-1.37.62v-.21c.67.03,1.2.23,1.58.59.38.36.58.83.58,1.41,0,.69-.26,1.24-.78,1.64-.52.4-1.25.6-2.2.6h-4.21Zm1.52-4.62h2.38c.48,0,.85-.11,1.12-.32.27-.21.4-.51.4-.88s-.13-.68-.4-.89-.64-.31-1.12-.31h-2.38v2.4Zm0,3.58h2.56c.52,0,.92-.11,1.2-.33.28-.22.42-.54.42-.95s-.14-.73-.42-.94-.68-.32-1.2-.32h-2.56v2.54Z"/>
          <path class="cls-3" d="m168.17,244.12c-.8,0-1.49-.17-2.08-.5-.59-.34-1.04-.82-1.36-1.44s-.48-1.37-.48-2.23.16-1.61.48-2.23c.32-.62.77-1.1,1.36-1.44.59-.34,1.28-.5,2.08-.5s1.5.17,2.09.5,1.05.82,1.38,1.44c.33.62.49,1.37.49,2.23s-.16,1.61-.49,2.23c-.33.62-.78,1.1-1.38,1.44s-1.29.5-2.09.5Zm0-1.26c.7,0,1.26-.25,1.68-.74.42-.49.62-1.22.62-2.18s-.21-1.68-.62-2.17-.98-.73-1.68-.73-1.25.24-1.66.73-.62,1.21-.62,2.17.21,1.69.62,2.18c.41.49.97.74,1.67.74Z"/>
          <path class="cls-3" d="m174.12,243.98v-8.06h1.47v6.51h-.45l4.86-6.51h1.34v8.06h-1.46v-6.53h.46l-4.9,6.53h-1.34Zm3.62-8.8c-.49,0-.93-.08-1.31-.24-.38-.16-.71-.4-.98-.71-.27-.31-.48-.7-.62-1.14l.9-.32c.18.5.44.87.77,1.11.33.24.75.36,1.25.36s.93-.11,1.26-.34.61-.6.84-1.12l.83.3c-.26.73-.64,1.26-1.14,1.59-.51.34-1.1.5-1.78.5Z"/>
          <path class="cls-3" d="m195.03,246.06v-2.08h-6.98v-8.06h1.6v6.8h3.86v-6.8h1.58v6.8h1.3v3.34h-1.36Z"/>
          <path class="cls-3" d="m198.01,243.98v-8.06h4.06c.97,0,1.69.18,2.15.55.46.37.7.89.7,1.56,0,.52-.17.96-.52,1.3-.35.34-.8.55-1.37.62v-.21c.67.03,1.2.23,1.58.59.38.36.58.83.58,1.41,0,.69-.26,1.24-.78,1.64-.52.4-1.25.6-2.2.6h-4.21Zm1.52-4.62h2.38c.48,0,.85-.11,1.12-.32.27-.21.4-.51.4-.88s-.13-.68-.4-.89-.64-.31-1.12-.31h-2.38v2.4Zm0,3.58h2.56c.52,0,.92-.11,1.2-.33.28-.22.42-.54.42-.95s-.14-.73-.42-.94-.68-.32-1.2-.32h-2.56v2.54Z"/>
          <path class="cls-3" d="m210.89,244.12c-1.3,0-2.33-.37-3.07-1.1-.75-.74-1.12-1.75-1.12-3.06,0-.84.16-1.58.49-2.21.33-.63.78-1.12,1.36-1.46.58-.35,1.26-.52,2.02-.52s1.39.16,1.9.48c.51.32.9.77,1.17,1.35s.4,1.27.4,2.06v.51h-6.08v-.93h4.98l-.27.21c0-.8-.18-1.42-.54-1.87-.36-.44-.87-.66-1.54-.66-.75,0-1.32.26-1.73.78-.41.52-.61,1.23-.61,2.13v.16c0,.95.23,1.66.7,2.14.46.48,1.12.72,1.98.72.47,0,.91-.07,1.32-.2.41-.13.8-.35,1.18-.66l.53,1.1c-.37.33-.83.58-1.36.76-.53.18-1.1.26-1.7.26Z"/>
          <path class="cls-3" d="m217.75,243.98v-6.77h-2.85v-1.3h7.31v1.3h-2.86v6.77h-1.6Z"/>
          <path class="cls-3" d="m223.51,243.98v-8.06h1.6v3.28h4.08v-3.28h1.6v8.06h-1.6v-3.52h-4.08v3.52h-1.6Z"/>
          <path class="cls-3" d="m236.74,244.12c-.8,0-1.49-.17-2.08-.5-.59-.34-1.04-.82-1.36-1.44s-.48-1.37-.48-2.23.16-1.61.48-2.23c.32-.62.77-1.1,1.36-1.44.59-.34,1.28-.5,2.08-.5s1.5.17,2.09.5,1.05.82,1.38,1.44c.33.62.49,1.37.49,2.23s-.16,1.61-.49,2.23c-.33.62-.78,1.1-1.38,1.44s-1.29.5-2.09.5Zm0-1.26c.7,0,1.26-.25,1.68-.74.42-.49.62-1.22.62-2.18s-.21-1.68-.62-2.17-.98-.73-1.68-.73-1.25.24-1.66.73-.62,1.21-.62,2.17.21,1.69.62,2.18c.41.49.97.74,1.67.74Z"/>
          <path class="cls-3" d="m242.69,243.98v-8.06h1.47v6.51h-.45l4.86-6.51h1.34v8.06h-1.46v-6.53h.46l-4.9,6.53h-1.34Zm3.62-8.8c-.49,0-.93-.08-1.31-.24-.38-.16-.71-.4-.98-.71-.27-.31-.48-.7-.62-1.14l.9-.32c.18.5.44.87.77,1.11.33.24.75.36,1.25.36s.93-.11,1.26-.34.61-.6.84-1.12l.83.3c-.26.73-.64,1.26-1.14,1.59-.51.34-1.1.5-1.78.5Z"/>
          <path class="cls-3" d="m256.63,243.98v-8.06h4.06c.97,0,1.69.18,2.15.55.46.37.7.89.7,1.56,0,.52-.17.96-.52,1.3-.35.34-.8.55-1.37.62v-.21c.67.03,1.2.23,1.58.59.38.36.58.83.58,1.41,0,.69-.26,1.24-.78,1.64-.52.4-1.25.6-2.2.6h-4.21Zm1.52-4.62h2.38c.48,0,.85-.11,1.12-.32.27-.21.4-.51.4-.88s-.13-.68-.4-.89-.64-.31-1.12-.31h-2.38v2.4Zm0,3.58h2.56c.52,0,.92-.11,1.2-.33.28-.22.42-.54.42-.95s-.14-.73-.42-.94-.68-.32-1.2-.32h-2.56v2.54Z"/>
          <path class="cls-3" d="m265.72,243.98v-8.06h1.47v6.51h-.45l4.86-6.51h1.34v8.06h-1.46v-6.53h.46l-4.9,6.53h-1.34Z"/>
          <path class="cls-3" d="m275.38,243.98v-8.06h1.6v3.28h4.08v-3.28h1.6v8.06h-1.6v-3.52h-4.08v3.52h-1.6Z"/>
          <path class="cls-3" d="m285.09,243.98v-8.06h1.47v6.51h-.45l4.86-6.51h1.34v8.06h-1.46v-6.53h.46l-4.9,6.53h-1.34Z"/>
          <path class="cls-3" d="m294.42,244.18l-.54-1.28c.36-.15.67-.34.92-.57.25-.23.45-.52.59-.89.14-.36.25-.81.31-1.34.06-.53.1-1.18.1-1.94v-2.26h6.08v8.06h-1.6v-6.8h-2.99v1.04c0,1.22-.1,2.22-.29,3.02-.19.8-.5,1.43-.92,1.9-.42.46-.97.81-1.66,1.05Z"/>
          <path class="cls-3" d="m307.83,244.12c-.8,0-1.49-.17-2.08-.5-.59-.34-1.04-.82-1.36-1.44s-.48-1.37-.48-2.23.16-1.61.48-2.23c.32-.62.77-1.1,1.36-1.44.59-.34,1.28-.5,2.08-.5s1.5.17,2.09.5,1.05.82,1.38,1.44c.33.62.49,1.37.49,2.23s-.16,1.61-.49,2.23c-.33.62-.78,1.1-1.38,1.44s-1.29.5-2.09.5Zm0-1.26c.7,0,1.26-.25,1.68-.74.42-.49.62-1.22.62-2.18s-.21-1.68-.62-2.17-.98-.73-1.68-.73-1.25.24-1.66.73-.62,1.21-.62,2.17.21,1.69.62,2.18c.41.49.97.74,1.67.74Z"/>
          <path class="cls-3" d="m313.78,243.98v-8.06h4.06c.97,0,1.69.18,2.15.55.46.37.7.89.7,1.56,0,.52-.17.96-.52,1.3-.35.34-.8.55-1.37.62v-.21c.67.03,1.2.23,1.58.59.38.36.58.83.58,1.41,0,.69-.26,1.24-.78,1.64-.52.4-1.25.6-2.2.6h-4.21Zm1.52-4.62h2.38c.48,0,.85-.11,1.12-.32.27-.21.4-.51.4-.88s-.13-.68-.4-.89-.64-.31-1.12-.31h-2.38v2.4Zm0,3.58h2.56c.52,0,.92-.11,1.2-.33.28-.22.42-.54.42-.95s-.14-.73-.42-.94-.68-.32-1.2-.32h-2.56v2.54Z"/>
          <path class="cls-3" d="m326.39,244.12c-.8,0-1.49-.17-2.08-.5-.59-.34-1.04-.82-1.36-1.44s-.48-1.37-.48-2.23.16-1.61.48-2.23c.32-.62.77-1.1,1.36-1.44.59-.34,1.28-.5,2.08-.5s1.5.17,2.09.5,1.05.82,1.38,1.44c.33.62.49,1.37.49,2.23s-.16,1.61-.49,2.23c-.33.62-.78,1.1-1.38,1.44s-1.29.5-2.09.5Zm0-1.26c.7,0,1.26-.25,1.68-.74.42-.49.62-1.22.62-2.18s-.21-1.68-.62-2.17-.98-.73-1.68-.73-1.25.24-1.66.73-.62,1.21-.62,2.17.21,1.69.62,2.18c.41.49.97.74,1.67.74Z"/>
          <path class="cls-3" d="m332.34,243.98v-8.06h1.47v6.51h-.45l4.86-6.51h1.34v8.06h-1.46v-6.53h.46l-4.9,6.53h-1.34Zm3.62-8.8c-.49,0-.93-.08-1.31-.24-.38-.16-.71-.4-.98-.71-.27-.31-.48-.7-.62-1.14l.9-.32c.18.5.44.87.77,1.11.33.24.75.36,1.25.36s.93-.11,1.26-.34.61-.6.84-1.12l.83.3c-.26.73-.64,1.26-1.14,1.59-.51.34-1.1.5-1.78.5Z"/>
          <path class="cls-3" d="m346.28,243.98v-8.06h7.23v8.06h-1.6v-6.8h-4.03v6.8h-1.6Z"/>
          <path class="cls-3" d="m355.61,244.18l-.54-1.28c.36-.15.67-.34.92-.57.25-.23.45-.52.59-.89.14-.36.25-.81.31-1.34.06-.53.1-1.18.1-1.94v-2.26h6.08v8.06h-1.6v-6.8h-2.99v1.04c0,1.22-.1,2.22-.29,3.02-.19.8-.5,1.43-.92,1.9-.42.46-.97.81-1.66,1.05Z"/>
          <path class="cls-3" d="m369.28,244.12c-1.3,0-2.33-.37-3.07-1.1-.75-.74-1.12-1.75-1.12-3.06,0-.84.16-1.58.49-2.21.33-.63.78-1.12,1.36-1.46.58-.35,1.26-.52,2.02-.52s1.39.16,1.9.48c.51.32.9.77,1.17,1.35s.4,1.27.4,2.06v.51h-6.08v-.93h4.98l-.27.21c0-.8-.18-1.42-.54-1.87-.36-.44-.87-.66-1.54-.66-.75,0-1.32.26-1.73.78-.41.52-.61,1.23-.61,2.13v.16c0,.95.23,1.66.7,2.14.46.48,1.12.72,1.98.72.47,0,.91-.07,1.32-.2.41-.13.8-.35,1.18-.66l.53,1.1c-.37.33-.83.58-1.36.76-.53.18-1.1.26-1.7.26Zm-2.56-9.81v-1.58h1.58v1.58h-1.58Zm2.9,0v-1.58h1.58v1.58h-1.58Z"/>
          <path class="cls-3" d="m374.42,243.98v-8.06h1.6v3.28h4.08v-3.28h1.6v8.06h-1.6v-3.52h-4.08v3.52h-1.6Z"/>
          <path class="cls-3" d="m384.13,243.98v-8.06h1.6v3.3h1.39l2.51-3.3h1.76l-3.01,3.97-.4-.51c.31.03.58.11.8.23s.44.3.66.54c.21.23.43.54.66.93l1.68,2.91h-1.73l-1.44-2.46c-.16-.28-.32-.49-.46-.65-.15-.16-.32-.26-.51-.32-.19-.06-.43-.09-.7-.09h-1.2v3.52h-1.6Z"/>
          <path class="cls-3" d="m396.76,244.12c-1.3,0-2.33-.37-3.07-1.1-.75-.74-1.12-1.75-1.12-3.06,0-.84.16-1.58.49-2.21.33-.63.78-1.12,1.36-1.46.58-.35,1.26-.52,2.02-.52s1.39.16,1.9.48c.51.32.9.77,1.17,1.35s.4,1.27.4,2.06v.51h-6.08v-.93h4.98l-.27.21c0-.8-.18-1.42-.54-1.87-.36-.44-.87-.66-1.54-.66-.75,0-1.32.26-1.73.78-.41.52-.61,1.23-.61,2.13v.16c0,.95.23,1.66.7,2.14.46.48,1.12.72,1.98.72.47,0,.91-.07,1.32-.2.41-.13.8-.35,1.18-.66l.53,1.1c-.37.33-.83.58-1.36.76-.53.18-1.1.26-1.7.26Z"/>
          <path class="cls-3" d="m406.16,243.98v-8.06h1.34l2.91,5.15,2.91-5.15h1.34v8.06h-1.42v-6.26h.35l-2.8,4.96h-.77l-2.8-4.96h.35v6.26h-1.42Z"/>
          <path class="cls-3" d="m420.63,244.12c-.8,0-1.49-.17-2.08-.5-.59-.34-1.04-.82-1.36-1.44s-.48-1.37-.48-2.23.16-1.61.48-2.23c.32-.62.77-1.1,1.36-1.44.59-.34,1.28-.5,2.08-.5s1.5.17,2.09.5,1.05.82,1.38,1.44c.33.62.49,1.37.49,2.23s-.16,1.61-.49,2.23c-.33.62-.78,1.1-1.38,1.44s-1.29.5-2.09.5Zm0-1.26c.7,0,1.26-.25,1.68-.74.42-.49.62-1.22.62-2.18s-.21-1.68-.62-2.17-.98-.73-1.68-.73-1.25.24-1.66.73-.62,1.21-.62,2.17.21,1.69.62,2.18c.41.49.97.74,1.67.74Z"/>
          <path class="cls-3" d="m425.33,243.98l1.68-2.91c.23-.38.45-.69.66-.93.2-.23.42-.41.65-.54s.5-.2.81-.23l-.37.51-3.04-3.97h1.76l2.54,3.3h1.17v-3.3h1.6v3.3h1.15l2.53-3.3h1.76l-3.04,3.97-.37-.51c.3.03.57.11.8.23s.46.3.66.54.42.54.65.93l1.68,2.91h-1.73l-1.42-2.46c-.16-.28-.32-.49-.47-.65-.15-.16-.33-.26-.52-.32-.19-.06-.43-.09-.7-.09h-.98v3.52h-1.6v-3.52h-1.01c-.28,0-.51.03-.7.09s-.35.17-.5.32c-.15.15-.31.37-.48.65l-1.42,2.46h-1.74Z"/>
          <path class="cls-3" d="m443.59,244.12c-1.3,0-2.33-.37-3.07-1.1-.75-.74-1.12-1.75-1.12-3.06,0-.84.16-1.58.49-2.21.33-.63.78-1.12,1.36-1.46.58-.35,1.26-.52,2.02-.52s1.39.16,1.9.48c.51.32.9.77,1.17,1.35s.4,1.27.4,2.06v.51h-6.08v-.93h4.98l-.27.21c0-.8-.18-1.42-.54-1.87-.36-.44-.87-.66-1.54-.66-.75,0-1.32.26-1.73.78-.41.52-.61,1.23-.61,2.13v.16c0,.95.23,1.66.7,2.14.46.48,1.12.72,1.98.72.47,0,.91-.07,1.32-.2.41-.13.8-.35,1.18-.66l.53,1.1c-.37.33-.83.58-1.36.76-.53.18-1.1.26-1.7.26Z"/>
          <path class="cls-3" d="m450.45,243.98v-6.77h-2.85v-1.3h7.31v1.3h-2.86v6.77h-1.6Z"/>
          <path class="cls-3" d="m464,244.12c-.8,0-1.49-.17-2.08-.5-.59-.34-1.04-.82-1.36-1.44s-.48-1.37-.48-2.23.16-1.61.48-2.23c.32-.62.77-1.1,1.36-1.44.59-.34,1.28-.5,2.08-.5s1.5.17,2.09.5,1.05.82,1.38,1.44c.33.62.49,1.37.49,2.23s-.16,1.61-.49,2.23c-.33.62-.78,1.1-1.38,1.44s-1.29.5-2.09.5Zm0-1.26c.7,0,1.26-.25,1.68-.74.42-.49.62-1.22.62-2.18s-.21-1.68-.62-2.17-.98-.73-1.68-.73-1.25.24-1.66.73-.62,1.21-.62,2.17.21,1.69.62,2.18c.41.49.97.74,1.67.74Z"/>
          <path class="cls-3" d="m471.68,243.98v-6.77h-2.85v-1.3h7.31v1.3h-2.86v6.77h-1.6Z"/>
          <path class="cls-3" d="m477.06,244.18l-.54-1.28c.36-.15.67-.34.92-.57.25-.23.45-.52.59-.89.14-.36.25-.81.31-1.34.06-.53.1-1.18.1-1.94v-2.26h6.08v8.06h-1.6v-6.8h-2.99v1.04c0,1.22-.1,2.22-.29,3.02-.19.8-.5,1.43-.92,1.9-.42.46-.97.81-1.66,1.05Z"/>
          <path class="cls-3" d="m486.95,243.98v-8.06h1.47v6.51h-.45l4.86-6.51h1.34v8.06h-1.46v-6.53h.46l-4.9,6.53h-1.34Z"/>
          <path class="cls-3" d="m501.76,243.98v-3.12c-.3.16-.62.29-.96.38-.34.09-.7.14-1.09.14-1.16,0-2.02-.28-2.58-.82-.56-.55-.84-1.37-.84-2.47v-2.16h1.6v2.03c0,.74.17,1.27.5,1.6s.85.5,1.57.5c.36,0,.68-.04.96-.12s.55-.21.82-.38v-3.63h1.62v8.06h-1.58Z"/>
          <path class="cls-3" d="m508.92,244.12c-.71,0-1.34-.17-1.87-.5-.53-.33-.95-.81-1.24-1.44s-.44-1.38-.44-2.24.15-1.62.44-2.24c.29-.62.71-1.1,1.24-1.43s1.16-.5,1.87-.5,1.32.18,1.84.53c.52.35.87.83,1.04,1.44h-.18l.16-1.82h1.57c-.03.33-.06.66-.09.98-.03.33-.04.64-.04.95v6.13h-1.62v-1.79h.18c-.17.6-.52,1.07-1.05,1.42-.53.35-1.13.52-1.82.52Zm.4-1.26c.69,0,1.25-.25,1.67-.74.42-.49.63-1.22.63-2.18s-.21-1.68-.63-2.17c-.42-.49-.98-.73-1.67-.73s-1.27.24-1.69.73c-.42.49-.63,1.21-.63,2.17s.21,1.69.62,2.18c.42.49.98.74,1.7.74Z"/>
          <path class="cls-3" d="m517.43,243.98v-6.77h-2.85v-1.3h7.31v1.3h-2.86v6.77h-1.6Z"/>
          <path class="cls-3" d="m523.19,243.98v-8.06h1.6v2.82h2.29c1.06,0,1.85.22,2.38.66.53.44.8,1.09.8,1.93,0,.54-.12,1.02-.37,1.42s-.61.71-1.08.92c-.47.21-1.05.32-1.74.32h-3.89Zm1.6-1.1h2.11c.6,0,1.06-.13,1.38-.38.32-.25.48-.64.48-1.16s-.16-.9-.47-1.14c-.31-.24-.78-.36-1.38-.36h-2.11v3.04Z"/>
          <path class="cls-3" d="m535.68,244.12c-.81,0-1.52-.17-2.12-.5-.6-.34-1.07-.82-1.39-1.46s-.49-1.39-.49-2.26.17-1.61.5-2.22c.33-.62.79-1.09,1.39-1.42.6-.32,1.3-.49,2.11-.49.52,0,1.03.09,1.52.26.49.18.9.42,1.22.74l-.53,1.14c-.3-.29-.63-.5-1.01-.65-.37-.14-.74-.22-1.09-.22-.77,0-1.37.25-1.81.74-.44.49-.66,1.2-.66,2.13s.22,1.66.66,2.16c.44.5,1.04.75,1.81.75.34,0,.7-.07,1.07-.2.37-.13.71-.35,1.02-.65l.53,1.14c-.33.32-.74.57-1.24.74-.5.18-.99.26-1.5.26Z"/>
          <path class="cls-3" d="m539.6,243.98l1.26-2.18c.2-.35.46-.64.78-.86.31-.22.64-.33.97-.33h.29l-.02.16c-.92,0-1.63-.21-2.14-.62-.51-.42-.77-1.01-.77-1.79s.26-1.38.77-1.81c.51-.43,1.26-.64,2.26-.64h3.78v8.06h-1.49v-2.99h-1.07c-.41,0-.75.1-1.03.3-.28.2-.51.47-.7.8l-1.09,1.89h-1.79Zm3.68-4.08h2v-2.9h-2c-.6,0-1.04.13-1.34.38-.29.26-.44.61-.44,1.06s.15.83.44,1.08c.29.25.74.38,1.34.38Z"/>
          <path class="cls-3" d="m557,244.12c-.8,0-1.49-.17-2.08-.5-.59-.34-1.04-.82-1.36-1.44s-.48-1.37-.48-2.23.16-1.61.48-2.23c.32-.62.77-1.1,1.36-1.44.59-.34,1.28-.5,2.08-.5s1.5.17,2.09.5,1.05.82,1.38,1.44c.33.62.49,1.37.49,2.23s-.16,1.61-.49,2.23c-.33.62-.78,1.1-1.38,1.44s-1.29.5-2.09.5Zm0-1.26c.7,0,1.26-.25,1.68-.74.42-.49.62-1.22.62-2.18s-.21-1.68-.62-2.17-.98-.73-1.68-.73-1.25.24-1.66.73-.62,1.21-.62,2.17.21,1.69.62,2.18c.41.49.97.74,1.67.74Z"/>
          <path class="cls-3" d="m564.67,243.98v-6.77h-2.85v-1.3h7.31v1.3h-2.86v6.77h-1.6Z"/>
          <path class="cls-3" d="m574.71,243.98v-8.06h7.23v8.06h-1.6v-6.8h-4.03v6.8h-1.6Z"/>
          <path class="cls-3" d="m584.43,247.43v-9.58c0-.31-.01-.63-.04-.95-.03-.33-.06-.65-.09-.98h1.57l.16,1.82h-.18c.17-.61.51-1.09,1.03-1.44.52-.35,1.13-.53,1.85-.53s1.34.17,1.87.5.95.81,1.24,1.43c.29.62.44,1.37.44,2.24s-.15,1.61-.44,2.24c-.29.63-.71,1.11-1.24,1.44-.53.33-1.16.5-1.87.5s-1.31-.17-1.83-.52-.86-.82-1.03-1.42h.18v5.25h-1.62Zm3.9-4.58c.7,0,1.27-.25,1.69-.74.42-.49.63-1.22.63-2.18s-.21-1.68-.63-2.17c-.42-.49-.98-.73-1.69-.73s-1.27.24-1.69.73c-.42.49-.63,1.21-.63,2.17s.21,1.69.63,2.18c.42.49.98.74,1.69.74Z"/>
          <path class="cls-3" d="m597.46,244.12c-.71,0-1.34-.17-1.87-.5-.53-.33-.95-.81-1.24-1.44s-.44-1.38-.44-2.24.15-1.62.44-2.24c.29-.62.71-1.1,1.24-1.43s1.16-.5,1.87-.5,1.32.18,1.84.53c.52.35.87.83,1.04,1.44h-.18l.16-1.82h1.57c-.03.33-.06.66-.09.98-.03.33-.04.64-.04.95v6.13h-1.62v-1.79h.18c-.17.6-.52,1.07-1.05,1.42-.53.35-1.13.52-1.82.52Zm.4-1.26c.69,0,1.25-.25,1.67-.74.42-.49.63-1.22.63-2.18s-.21-1.68-.63-2.17c-.42-.49-.98-.73-1.67-.73s-1.27.24-1.69.73c-.42.49-.63,1.21-.63,2.17s.21,1.69.62,2.18c.42.49.98.74,1.7.74Z"/>
          <path class="cls-3" d="m604.24,243.98v-8.06h1.47v6.51h-.45l4.86-6.51h1.34v8.06h-1.46v-6.53h.46l-4.9,6.53h-1.34Zm3.62-8.8c-.49,0-.93-.08-1.31-.24-.38-.16-.71-.4-.98-.71-.27-.31-.48-.7-.62-1.14l.9-.32c.18.5.44.87.77,1.11.33.24.75.36,1.25.36s.93-.11,1.26-.34.61-.6.84-1.12l.83.3c-.26.73-.64,1.26-1.14,1.59-.51.34-1.1.5-1.78.5Z"/>
          <path class="cls-3" d="m617.51,244.12c-.81,0-1.52-.17-2.12-.5-.6-.34-1.07-.82-1.39-1.46s-.49-1.39-.49-2.26.17-1.61.5-2.22c.33-.62.79-1.09,1.39-1.42.6-.32,1.3-.49,2.11-.49.52,0,1.03.09,1.52.26.49.18.9.42,1.22.74l-.53,1.14c-.3-.29-.63-.5-1.01-.65-.37-.14-.74-.22-1.09-.22-.77,0-1.37.25-1.81.74-.44.49-.66,1.2-.66,2.13s.22,1.66.66,2.16c.44.5,1.04.75,1.81.75.34,0,.7-.07,1.07-.2.37-.13.71-.35,1.02-.65l.53,1.14c-.33.32-.74.57-1.24.74-.5.18-.99.26-1.5.26Z"/>
          <path class="cls-3" d="m625.23,244.12c-.71,0-1.34-.17-1.87-.5-.53-.33-.95-.81-1.24-1.44s-.44-1.38-.44-2.24.15-1.62.44-2.24c.29-.62.71-1.1,1.24-1.43s1.16-.5,1.87-.5,1.32.18,1.84.53c.52.35.87.83,1.04,1.44h-.18l.16-1.82h1.57c-.03.33-.06.66-.09.98-.03.33-.04.64-.04.95v6.13h-1.62v-1.79h.18c-.17.6-.52,1.07-1.05,1.42-.53.35-1.13.52-1.82.52Zm.4-1.26c.69,0,1.25-.25,1.67-.74.42-.49.63-1.22.63-2.18s-.21-1.68-.63-2.17c-.42-.49-.98-.73-1.67-.73s-1.27.24-1.69.73c-.42.49-.63,1.21-.63,2.17s.21,1.69.62,2.18c.42.49.98.74,1.7.74Z"/>
          <path class="cls-3" d="m638.72,246.86c-.47-.79-.85-1.57-1.15-2.33s-.52-1.54-.66-2.32c-.14-.78-.21-1.6-.21-2.44s.07-1.67.21-2.45c.14-.78.36-1.55.66-2.3s.68-1.53,1.15-2.32h1.31c-.55,1.21-.97,2.39-1.24,3.56-.27,1.17-.41,2.34-.41,3.51s.14,2.34.41,3.51c.27,1.17.69,2.36,1.24,3.58h-1.31Z"/>
          <path class="cls-3" d="m641.47,247.61l-.38-1.31c.5-.11.92-.23,1.26-.38.34-.15.62-.34.84-.58s.42-.55.58-.92l.4-.94-.03.66-3.5-8.21h1.73l2.72,6.72h-.43l2.72-6.72h1.66l-3.7,8.64c-.24.53-.49.98-.75,1.34s-.55.66-.86.88c-.31.22-.65.4-1.02.53s-.78.23-1.22.3Z"/>
          <path class="cls-3" d="m652.24,243.98v-6.77h-2.85v-1.3h7.31v1.3h-2.86v6.77h-1.6Z"/>
          <path class="cls-3" d="m661.47,244.12c-.8,0-1.49-.17-2.08-.5-.59-.34-1.04-.82-1.36-1.44s-.48-1.37-.48-2.23.16-1.61.48-2.23c.32-.62.77-1.1,1.36-1.44.59-.34,1.28-.5,2.08-.5s1.5.17,2.09.5,1.05.82,1.38,1.44c.33.62.49,1.37.49,2.23s-.16,1.61-.49,2.23c-.33.62-.78,1.1-1.38,1.44s-1.29.5-2.09.5Zm0-1.26c.7,0,1.26-.25,1.68-.74.42-.49.62-1.22.62-2.18s-.21-1.68-.62-2.17-.98-.73-1.68-.73-1.25.24-1.66.73-.62,1.21-.62,2.17.21,1.69.62,2.18c.41.49.97.74,1.67.74Z"/>
          <path class="cls-3" d="m672.58,243.98v-3.12c-.3.16-.62.29-.96.38-.34.09-.7.14-1.09.14-1.16,0-2.02-.28-2.58-.82-.56-.55-.84-1.37-.84-2.47v-2.16h1.6v2.03c0,.74.17,1.27.5,1.6s.85.5,1.57.5c.36,0,.68-.04.96-.12s.55-.21.82-.38v-3.63h1.62v8.06h-1.58Z"/>
          <path class="cls-3" d="m676.58,243.98v-8.06h1.6v3.28h4.08v-3.28h1.6v8.06h-1.6v-3.52h-4.08v3.52h-1.6Z"/>
          <path class="cls-3" d="m685.63,243.98l1.26-2.18c.2-.35.46-.64.78-.86.31-.22.64-.33.97-.33h.29l-.02.16c-.92,0-1.63-.21-2.14-.62-.51-.42-.77-1.01-.77-1.79s.26-1.38.77-1.81c.51-.43,1.26-.64,2.26-.64h3.78v8.06h-1.49v-2.99h-1.07c-.41,0-.75.1-1.03.3-.28.2-.51.47-.7.8l-1.09,1.89h-1.79Zm3.68-4.08h2v-2.9h-2c-.6,0-1.04.13-1.34.38-.29.26-.44.61-.44,1.06s.15.83.44,1.08c.29.25.74.38,1.34.38Z"/>
          <path class="cls-3" d="m696.96,243.98v-6.77h-2.85v-1.3h7.31v1.3h-2.86v6.77h-1.6Z"/>
          <path class="cls-3" d="m702.72,243.98v-8.06h1.6v2.82h2.29c1.06,0,1.85.22,2.38.66.53.44.8,1.09.8,1.93,0,.54-.12,1.02-.37,1.42s-.61.71-1.08.92c-.47.21-1.05.32-1.74.32h-3.89Zm1.6-1.1h2.11c.6,0,1.06-.13,1.38-.38.32-.25.48-.64.48-1.16s-.16-.9-.47-1.14c-.31-.24-.78-.36-1.38-.36h-2.11v3.04Z"/>
          <path class="cls-3" d="m715.71,247.61l-.38-1.31c.5-.11.92-.23,1.26-.38.34-.15.62-.34.84-.58s.42-.55.58-.92l.4-.94-.03.66-3.5-8.21h1.73l2.72,6.72h-.43l2.72-6.72h1.66l-3.7,8.64c-.24.53-.49.98-.75,1.34s-.55.66-.86.88c-.31.22-.65.4-1.02.53s-.78.23-1.22.3Z"/>
          <path class="cls-3" d="m728.93,243.98v-8.06h1.34l2.91,5.15,2.91-5.15h1.34v8.06h-1.42v-6.26h.35l-2.8,4.96h-.77l-2.8-4.96h.35v6.26h-1.42Z"/>
          <path class="cls-3" d="m743.66,244.12c-1.3,0-2.33-.37-3.07-1.1-.75-.74-1.12-1.75-1.12-3.06,0-.84.16-1.58.49-2.21.33-.63.78-1.12,1.36-1.46.58-.35,1.26-.52,2.02-.52s1.39.16,1.9.48c.51.32.9.77,1.17,1.35s.4,1.27.4,2.06v.51h-6.08v-.93h4.98l-.27.21c0-.8-.18-1.42-.54-1.87-.36-.44-.87-.66-1.54-.66-.75,0-1.32.26-1.73.78-.41.52-.61,1.23-.61,2.13v.16c0,.95.23,1.66.7,2.14.46.48,1.12.72,1.98.72.47,0,.91-.07,1.32-.2.41-.13.8-.35,1.18-.66l.53,1.1c-.37.33-.83.58-1.36.76-.53.18-1.1.26-1.7.26Z"/>
          <path class="cls-3" d="m748.8,243.98v-8.06h1.6v3.28h4.08v-3.28h1.6v8.06h-1.6v-3.52h-4.08v3.52h-1.6Z"/>
          <path class="cls-3" d="m762.3,244.12c-1.3,0-2.33-.37-3.07-1.1-.75-.74-1.12-1.75-1.12-3.06,0-.84.16-1.58.49-2.21.33-.63.78-1.12,1.36-1.46.58-.35,1.26-.52,2.02-.52s1.39.16,1.9.48c.51.32.9.77,1.17,1.35s.4,1.27.4,2.06v.51h-6.08v-.93h4.98l-.27.21c0-.8-.18-1.42-.54-1.87-.36-.44-.87-.66-1.54-.66-.75,0-1.32.26-1.73.78-.41.52-.61,1.23-.61,2.13v.16c0,.95.23,1.66.7,2.14.46.48,1.12.72,1.98.72.47,0,.91-.07,1.32-.2.41-.13.8-.35,1.18-.66l.53,1.1c-.37.33-.83.58-1.36.76-.53.18-1.1.26-1.7.26Z"/>
          <path class="cls-3" d="m766.64,246.06v-3.33h.9c.35-.53.61-1.16.77-1.87.16-.71.24-1.58.24-2.59v-2.35h5.9v6.82h1.3v3.33h-1.39v-2.08h-6.32v2.08h-1.39Zm2.38-3.31h3.9v-5.58h-2.99v1.42c0,.78-.08,1.54-.23,2.28-.16.74-.38,1.37-.68,1.88Z"/>
          <path class="cls-3" d="m776.09,243.98l1.68-2.91c.23-.38.45-.69.66-.93.2-.23.42-.41.65-.54s.5-.2.81-.23l-.37.51-3.04-3.97h1.76l2.54,3.3h1.17v-3.3h1.6v3.3h1.15l2.53-3.3h1.76l-3.04,3.97-.37-.51c.3.03.57.11.8.23s.46.3.66.54.42.54.65.93l1.68,2.91h-1.73l-1.42-2.46c-.16-.28-.32-.49-.47-.65-.15-.16-.33-.26-.52-.32-.19-.06-.43-.09-.7-.09h-.98v3.52h-1.6v-3.52h-1.01c-.28,0-.51.03-.7.09s-.35.17-.5.32c-.15.15-.31.37-.48.65l-1.42,2.46h-1.74Z"/>
          <path class="cls-3" d="m794.35,244.12c-1.3,0-2.33-.37-3.07-1.1-.75-.74-1.12-1.75-1.12-3.06,0-.84.16-1.58.49-2.21.33-.63.78-1.12,1.36-1.46.58-.35,1.26-.52,2.02-.52s1.39.16,1.9.48c.51.32.9.77,1.17,1.35s.4,1.27.4,2.06v.51h-6.08v-.93h4.98l-.27.21c0-.8-.18-1.42-.54-1.87-.36-.44-.87-.66-1.54-.66-.75,0-1.32.26-1.73.78-.41.52-.61,1.23-.61,2.13v.16c0,.95.23,1.66.7,2.14.46.48,1.12.72,1.98.72.47,0,.91-.07,1.32-.2.41-.13.8-.35,1.18-.66l.53,1.1c-.37.33-.83.58-1.36.76-.53.18-1.1.26-1.7.26Z"/>
          <path class="cls-3" d="m799.55,247.43v-9.58c0-.31-.01-.63-.04-.95-.03-.33-.06-.65-.09-.98h1.57l.16,1.82h-.18c.17-.61.51-1.09,1.03-1.44.52-.35,1.13-.53,1.85-.53s1.34.17,1.87.5.95.81,1.24,1.43c.29.62.44,1.37.44,2.24s-.15,1.61-.44,2.24c-.29.63-.71,1.11-1.24,1.44-.53.33-1.16.5-1.87.5s-1.31-.17-1.83-.52-.86-.82-1.03-1.42h.18v5.25h-1.62Zm3.9-4.58c.7,0,1.27-.25,1.69-.74.42-.49.63-1.22.63-2.18s-.21-1.68-.63-2.17c-.42-.49-.98-.73-1.69-.73s-1.27.24-1.69.73c-.42.49-.63,1.21-.63,2.17s.21,1.69.63,2.18c.42.49.98.74,1.69.74Z"/>
          <path class="cls-3" d="m812.57,244.12c-.71,0-1.34-.17-1.87-.5-.53-.33-.95-.81-1.24-1.44s-.44-1.38-.44-2.24.15-1.62.44-2.24c.29-.62.71-1.1,1.24-1.43s1.16-.5,1.87-.5,1.32.18,1.84.53c.52.35.87.83,1.04,1.44h-.18l.16-1.82h1.57c-.03.33-.06.66-.09.98-.03.33-.04.64-.04.95v6.13h-1.62v-1.79h.18c-.17.6-.52,1.07-1.05,1.42-.53.35-1.13.52-1.82.52Zm.4-1.26c.69,0,1.25-.25,1.67-.74.42-.49.63-1.22.63-2.18s-.21-1.68-.63-2.17c-.42-.49-.98-.73-1.67-.73s-1.27.24-1.69.73c-.42.49-.63,1.21-.63,2.17s.21,1.69.62,2.18c.42.49.98.74,1.7.74Z"/>
          <path class="cls-3" d="m819.85,246.86h-1.31c.55-1.21.97-2.39,1.25-3.57.28-1.17.42-2.35.42-3.52s-.14-2.33-.42-3.5c-.28-1.17-.69-2.36-1.25-3.57h1.31c.48.79.87,1.56,1.17,2.32s.51,1.53.65,2.31c.13.79.2,1.6.2,2.44s-.07,1.67-.2,2.46c-.13.78-.35,1.55-.65,2.31-.3.76-.69,1.53-1.17,2.32Z"/>
          <path class="cls-3" d="m824.45,243.98v-1.9h1.9v1.9h-1.9Z"/>
        </g>
        <g>
          <path class="cls-3" d="m555.96,74.11c-.49,0-.98-.05-1.46-.16s-.94-.26-1.36-.45c-.42-.19-.78-.42-1.08-.69l.67-1.55c.5.37,1.02.65,1.54.84.53.19,1.08.28,1.66.28.69,0,1.23-.17,1.62-.52s.58-.81.58-1.4-.19-1.08-.56-1.45c-.37-.37-.89-.55-1.54-.55-.46,0-.88.09-1.26.26-.38.18-.72.45-1.02.81h-1.36v-6.86h7.01v1.7h-5.06v3.58h-.5c.28-.37.65-.66,1.11-.86.46-.2.98-.3,1.56-.3.72,0,1.35.15,1.89.45s.95.72,1.25,1.26.45,1.17.45,1.9-.17,1.38-.5,1.94-.82,1-1.44,1.31-1.36.47-2.22.47Z"/>
          <path class="cls-3" d="m566.38,73.95v-2.21h-5.04v-1.44l5.36-7.63h1.66v7.5h1.62v1.57h-1.62v2.21h-1.98Zm0-3.78v-5.07h.38l-3.89,5.55v-.48h3.5Z"/>
          <path class="cls-3" d="m575.08,74.11c-1.32,0-2.34-.5-3.06-1.51s-1.07-2.45-1.07-4.31.36-3.32,1.07-4.3,1.73-1.47,3.06-1.47,2.35.49,3.06,1.47c.71.98,1.06,2.41,1.06,4.29s-.36,3.32-1.06,4.33c-.71,1.01-1.73,1.51-3.06,1.51Zm0-1.7c.73,0,1.26-.33,1.62-1,.35-.67.53-1.71.53-3.14s-.18-2.47-.53-3.11c-.35-.64-.89-.97-1.62-.97s-1.25.32-1.61.97c-.36.65-.54,1.68-.54,3.11s.18,2.48.54,3.14c.36.67.89,1,1.61,1Z"/>
          <path class="cls-3" d="m588.49,74.11c-.7,0-1.33-.17-1.86-.5-.54-.34-.96-.82-1.26-1.45s-.45-1.38-.45-2.26.15-1.62.45-2.25.72-1.1,1.26-1.44c.54-.34,1.16-.5,1.86-.5s1.27.16,1.78.49.86.77,1.03,1.32h-.21v-5.34h2v11.78h-1.97v-1.71h.19c-.17.58-.51,1.03-1.03,1.37-.52.34-1.12.5-1.8.5Zm.56-1.54c.63,0,1.14-.22,1.52-.66.38-.44.58-1.11.58-2.01s-.19-1.56-.58-2-.89-.66-1.52-.66-1.14.22-1.53.66c-.39.44-.58,1.1-.58,2s.19,1.57.58,2.01c.39.44.9.66,1.53.66Z"/>
          <path class="cls-3" d="m595.27,77.41v-9.52c0-.33-.01-.67-.03-1.01-.02-.34-.05-.68-.1-1.01h1.94l.18,1.7h-.18c.16-.57.5-1.02,1.02-1.35s1.12-.5,1.8-.5,1.34.17,1.87.5.95.82,1.25,1.44.45,1.37.45,2.25-.15,1.63-.45,2.26-.71,1.11-1.25,1.45c-.53.34-1.16.5-1.87.5-.67,0-1.26-.17-1.78-.5-.51-.33-.85-.77-1.02-1.33h.18v5.12h-2Zm4.06-4.83c.64,0,1.15-.22,1.54-.66.38-.44.58-1.11.58-2.01s-.19-1.56-.58-2c-.38-.44-.9-.66-1.54-.66s-1.14.22-1.52.66-.58,1.1-.58,2,.19,1.57.58,2.01c.38.44.89.66,1.52.66Z"/>
          <path class="cls-3" d="m605.08,64.35v-1.95h2.22v1.95h-2.22Zm.11,9.6v-8.08h2v8.08h-2Z"/>
        </g>
        <g>
          <path class="cls-3" d="m561.59,120.35c-1.4,0-2.47-.49-3.22-1.46s-1.13-2.33-1.13-4.08c0-1.3.19-2.4.58-3.29.38-.89.93-1.57,1.64-2.04.71-.47,1.57-.7,2.57-.7.6,0,1.19.12,1.79.34.6.23,1.1.55,1.5.97l-.59,1.25c-.39-.38-.83-.67-1.3-.86-.47-.19-.94-.29-1.42-.29-1.03,0-1.82.36-2.37,1.08-.54.72-.82,1.79-.82,3.22v1.36h-.16c.07-.58.26-1.07.54-1.5.29-.42.66-.74,1.12-.97.46-.22.97-.34,1.54-.34.67,0,1.27.16,1.78.46.52.31.92.73,1.22,1.27.3.54.45,1.16.45,1.85s-.16,1.35-.48,1.92-.76,1-1.32,1.32c-.56.32-1.2.47-1.93.47Zm-.1-1.34c.45,0,.84-.1,1.18-.29s.6-.46.79-.81c.19-.35.29-.75.29-1.21s-.1-.86-.29-1.2-.46-.61-.79-.81-.73-.3-1.18-.3-.84.1-1.18.3c-.34.2-.61.47-.8.81-.19.34-.29.74-.29,1.2s.1.86.29,1.21c.19.35.46.62.8.81.34.19.74.29,1.18.29Z"/>
          <path class="cls-3" d="m570.01,120.35c-.6,0-1.2-.12-1.79-.36-.6-.24-1.1-.56-1.5-.95l.59-1.26c.39.38.83.67,1.3.87.47.2.94.3,1.42.3,1.02,0,1.81-.36,2.36-1.08.55-.72.82-1.79.82-3.22v-1.36h.16c-.06.57-.25,1.06-.54,1.49s-.67.75-1.13.98c-.45.22-.96.34-1.53.34-.66,0-1.26-.16-1.78-.46-.53-.31-.94-.74-1.23-1.28-.29-.54-.44-1.16-.44-1.84,0-.73.16-1.37.48-1.93s.76-1,1.31-1.31c.55-.31,1.19-.47,1.92-.47,1.41,0,2.49.48,3.24,1.45.75.97,1.13,2.33,1.13,4.09,0,1.29-.19,2.38-.57,3.28s-.93,1.58-1.64,2.05c-.71.47-1.57.7-2.58.7Zm.53-5.63c.45,0,.84-.1,1.18-.29.34-.19.61-.46.8-.81.19-.35.29-.74.29-1.19s-.1-.86-.29-1.21-.46-.62-.8-.82c-.34-.2-.74-.3-1.18-.3s-.84.1-1.18.3-.6.47-.79.82c-.19.35-.29.75-.29,1.21s.1.85.29,1.19c.19.35.46.62.79.81s.73.29,1.18.29Z"/>
          <path class="cls-3" d="m580.41,120.35c-1.3,0-2.3-.5-3-1.5-.7-1-1.05-2.43-1.05-4.3s.35-3.34,1.05-4.31c.7-.98,1.7-1.46,3-1.46s2.31.49,3.01,1.46c.69.98,1.04,2.41,1.04,4.29s-.35,3.32-1.05,4.31c-.7,1-1.7,1.5-3,1.5Zm0-1.39c.82,0,1.43-.36,1.83-1.07.4-.71.6-1.83.6-3.34s-.2-2.64-.6-3.34c-.4-.7-1.01-1.05-1.83-1.05s-1.42.35-1.82,1.05c-.41.7-.61,1.81-.61,3.32s.21,2.65.62,3.36c.41.71,1.02,1.07,1.82,1.07Z"/>
          <path class="cls-3" d="m590.76,123.66v-9.58c0-.31-.01-.63-.04-.95-.03-.32-.06-.65-.09-.98h1.57l.16,1.82h-.18c.17-.61.51-1.09,1.03-1.44s1.13-.53,1.85-.53,1.34.17,1.87.5.95.81,1.24,1.43c.29.62.44,1.37.44,2.24s-.15,1.61-.44,2.24c-.29.63-.71,1.11-1.24,1.44s-1.16.5-1.87.5-1.31-.17-1.83-.52c-.52-.35-.86-.82-1.03-1.42h.18v5.25h-1.62Zm3.9-4.58c.7,0,1.27-.25,1.69-.74.42-.49.63-1.22.63-2.18s-.21-1.68-.63-2.17c-.42-.49-.98-.73-1.69-.73s-1.27.24-1.69.73c-.42.49-.63,1.21-.63,2.17s.21,1.69.63,2.18c.42.49.98.74,1.69.74Z"/>
          <path class="cls-3" d="m600.11,120.2v-1.9h1.9v1.9h-1.9Z"/>
        </g>
        <g>
          <path class="cls-3" d="m560.41,166.61c-.6,0-1.2-.12-1.79-.36-.6-.24-1.1-.56-1.5-.95l.59-1.26c.39.38.83.68,1.3.87.47.2.94.29,1.42.29,1.02,0,1.81-.36,2.36-1.08.55-.72.82-1.79.82-3.22v-1.36h.16c-.06.57-.25,1.06-.54,1.49-.3.43-.67.75-1.13.98-.45.22-.96.34-1.53.34-.66,0-1.26-.15-1.78-.46-.53-.31-.94-.74-1.23-1.28s-.44-1.16-.44-1.84c0-.72.16-1.37.48-1.93.32-.56.76-1,1.31-1.31.55-.31,1.19-.47,1.92-.47,1.41,0,2.49.48,3.24,1.45.75.96,1.13,2.33,1.13,4.09,0,1.29-.19,2.38-.57,3.28-.38.9-.93,1.58-1.64,2.05-.71.47-1.57.7-2.58.7Zm.53-5.63c.45,0,.84-.1,1.18-.29.34-.19.61-.46.8-.81s.29-.74.29-1.19-.1-.86-.29-1.21c-.19-.35-.46-.62-.8-.82-.34-.2-.74-.3-1.18-.3s-.84.1-1.18.3-.6.47-.79.82c-.19.35-.29.75-.29,1.21s.1.85.29,1.19c.19.35.46.62.79.81.34.19.73.29,1.18.29Z"/>
          <path class="cls-3" d="m570.97,166.61c-.49,0-.98-.05-1.46-.16-.48-.11-.93-.26-1.34-.46s-.78-.44-1.09-.71l.58-1.26c.51.39,1.04.69,1.58.89s1.11.29,1.7.29c.76,0,1.35-.2,1.78-.59.43-.39.65-.92.65-1.58s-.21-1.23-.62-1.66c-.41-.42-.98-.63-1.7-.63-.5,0-.96.1-1.37.3-.41.2-.77.51-1.08.93h-1.15v-6.78h6.83v1.39h-5.25v4.06h-.42c.29-.41.67-.72,1.16-.94.49-.22,1.03-.34,1.64-.34.72,0,1.35.15,1.89.45.53.3.95.71,1.24,1.25.29.53.44,1.16.44,1.89s-.16,1.36-.49,1.91c-.33.55-.79.98-1.39,1.29-.6.31-1.31.46-2.14.46Z"/>
          <path class="cls-3" d="m580.41,166.61c-1.3,0-2.3-.5-3-1.5-.7-1-1.05-2.43-1.05-4.29s.35-3.34,1.05-4.31c.7-.98,1.7-1.46,3-1.46s2.31.49,3.01,1.46c.69.98,1.04,2.41,1.04,4.3s-.35,3.32-1.05,4.31c-.7,1-1.7,1.5-3,1.5Zm0-1.39c.82,0,1.43-.36,1.83-1.07.4-.71.6-1.83.6-3.34s-.2-2.64-.6-3.34c-.4-.7-1.01-1.05-1.83-1.05s-1.42.35-1.82,1.05c-.41.7-.61,1.81-.61,3.32s.21,2.65.62,3.36c.41.71,1.02,1.07,1.82,1.07Z"/>
          <path class="cls-3" d="m590.76,169.92v-9.58c0-.31-.01-.63-.04-.95-.03-.33-.06-.65-.09-.98h1.57l.16,1.82h-.18c.17-.61.51-1.09,1.03-1.44.52-.35,1.13-.53,1.85-.53s1.34.17,1.87.5.95.81,1.24,1.43c.29.62.44,1.37.44,2.24s-.15,1.61-.44,2.24c-.29.63-.71,1.11-1.24,1.44-.53.33-1.16.5-1.87.5s-1.31-.17-1.83-.52-.86-.82-1.03-1.42h.18v5.25h-1.62Zm3.9-4.58c.7,0,1.27-.25,1.69-.74.42-.49.63-1.21.63-2.18s-.21-1.68-.63-2.17c-.42-.48-.98-.73-1.69-.73s-1.27.24-1.69.73c-.42.49-.63,1.21-.63,2.17s.21,1.69.63,2.18c.42.49.98.74,1.69.74Z"/>
          <path class="cls-3" d="m600.11,166.46v-1.9h1.9v1.9h-1.9Z"/>
        </g>
        <g>
          <path class="cls-3" d="m696.93,73.95l5.47-10.27v.72h-5.98v-1.73h7.89v1.54l-5.12,9.74h-2.26Z"/>
          <path class="cls-3" d="m706.4,73.95v-1.52l3.74-3.9c.47-.49.82-.94,1.04-1.36.22-.42.34-.84.34-1.28,0-.54-.17-.96-.51-1.23s-.84-.42-1.49-.42c-.52,0-1.02.09-1.5.28-.48.19-.95.48-1.41.87l-.67-1.54c.46-.4,1.03-.73,1.7-.97.68-.25,1.39-.37,2.14-.37,1.22,0,2.15.27,2.8.82.65.54.98,1.32.98,2.34,0,.7-.17,1.37-.5,2.01s-.84,1.3-1.54,1.99l-3.12,3.12v-.54h5.6v1.71h-7.6Z"/>
          <path class="cls-3" d="m719.55,74.11c-1.32,0-2.34-.5-3.06-1.51-.71-1.01-1.07-2.45-1.07-4.31s.36-3.32,1.07-4.3c.71-.98,1.73-1.47,3.06-1.47s2.35.49,3.06,1.47,1.06,2.41,1.06,4.29-.35,3.32-1.06,4.33-1.73,1.51-3.06,1.51Zm0-1.7c.73,0,1.26-.33,1.62-1,.35-.67.53-1.71.53-3.14s-.18-2.47-.53-3.11c-.35-.64-.89-.97-1.62-.97s-1.25.32-1.61.97c-.36.65-.54,1.68-.54,3.11s.18,2.48.54,3.14c.36.67.89,1,1.61,1Z"/>
          <path class="cls-3" d="m732.96,74.11c-.7,0-1.33-.17-1.86-.5-.54-.34-.96-.82-1.26-1.45-.3-.63-.45-1.38-.45-2.26s.15-1.62.45-2.25c.3-.62.72-1.1,1.26-1.44s1.16-.5,1.86-.5,1.27.16,1.78.49c.52.33.86.77,1.03,1.32h-.21v-5.34h2v11.78h-1.97v-1.71h.19c-.17.58-.52,1.03-1.03,1.37-.52.34-1.12.5-1.8.5Zm.56-1.54c.63,0,1.14-.22,1.52-.66.38-.44.58-1.11.58-2.01s-.19-1.56-.58-2c-.38-.44-.89-.66-1.52-.66s-1.14.22-1.53.66-.58,1.1-.58,2,.19,1.57.58,2.01c.39.44.9.66,1.53.66Z"/>
          <path class="cls-3" d="m739.74,77.41v-9.52c0-.33-.01-.67-.03-1.01-.02-.34-.05-.68-.1-1.01h1.94l.18,1.7h-.18c.16-.57.5-1.02,1.02-1.35s1.12-.5,1.8-.5,1.34.17,1.87.5.95.82,1.25,1.44.45,1.37.45,2.25-.15,1.63-.45,2.26-.71,1.11-1.25,1.45c-.53.34-1.16.5-1.87.5-.67,0-1.26-.17-1.78-.5-.51-.33-.85-.77-1.02-1.33h.18v5.12h-2Zm4.06-4.83c.64,0,1.15-.22,1.54-.66.38-.44.58-1.11.58-2.01s-.19-1.56-.58-2c-.38-.44-.9-.66-1.54-.66s-1.14.22-1.52.66-.58,1.1-.58,2,.19,1.57.58,2.01c.38.44.89.66,1.52.66Z"/>
          <path class="cls-3" d="m749.55,64.35v-1.95h2.22v1.95h-2.22Zm.11,9.6v-8.08h2v8.08h-2Z"/>
        </g>
        <g>
          <path class="cls-3" d="m698,120.2v-1.39h2.62v-8.48h.83l-3.2,1.95v-1.6l2.83-1.76h1.2v9.89h2.46v1.39h-6.75Z"/>
          <path class="cls-3" d="m707.01,120.2v-1.23l3.87-4.05c.5-.52.87-1.01,1.12-1.47.25-.46.37-.93.37-1.42,0-.61-.19-1.07-.57-1.38-.38-.31-.93-.46-1.64-.46-.57,0-1.1.1-1.59.3-.5.2-.97.51-1.43.93l-.58-1.26c.45-.42,1.01-.75,1.67-1,.67-.25,1.37-.38,2.12-.38,1.17,0,2.08.27,2.71.8s.95,1.29.95,2.29c0,.71-.17,1.38-.51,2.02-.34.65-.85,1.31-1.54,1.99l-3.34,3.38v-.45h5.86v1.39h-7.47Z"/>
          <path class="cls-3" d="m720.08,120.35c-1.3,0-2.3-.5-3-1.5-.7-1-1.05-2.43-1.05-4.3s.35-3.34,1.05-4.31c.7-.98,1.7-1.46,3-1.46s2.31.49,3.01,1.46c.69.98,1.04,2.41,1.04,4.29s-.35,3.32-1.05,4.31c-.7,1-1.7,1.5-3,1.5Zm0-1.39c.82,0,1.43-.36,1.83-1.07.4-.71.6-1.83.6-3.34s-.2-2.64-.6-3.34c-.4-.7-1.01-1.05-1.83-1.05s-1.42.35-1.82,1.05c-.41.7-.61,1.81-.61,3.32s.21,2.65.62,3.36c.41.71,1.02,1.07,1.82,1.07Z"/>
          <path class="cls-3" d="m729.68,120.35c-1.3,0-2.3-.5-3-1.5-.7-1-1.05-2.43-1.05-4.3s.35-3.34,1.05-4.31c.7-.98,1.7-1.46,3-1.46s2.31.49,3.01,1.46c.69.98,1.04,2.41,1.04,4.29s-.35,3.32-1.05,4.31c-.7,1-1.7,1.5-3,1.5Zm0-1.39c.82,0,1.43-.36,1.83-1.07.4-.71.6-1.83.6-3.34s-.2-2.64-.6-3.34c-.4-.7-1.01-1.05-1.83-1.05s-1.42.35-1.82,1.05c-.41.7-.61,1.81-.61,3.32s.21,2.65.62,3.36c.41.71,1.02,1.07,1.82,1.07Z"/>
          <path class="cls-3" d="m740.03,123.66v-9.58c0-.31-.01-.63-.04-.95-.03-.32-.06-.65-.09-.98h1.57l.16,1.82h-.18c.17-.61.51-1.09,1.03-1.44.52-.35,1.13-.53,1.85-.53s1.34.17,1.87.5.95.81,1.24,1.43c.29.62.44,1.37.44,2.24s-.15,1.61-.44,2.24c-.29.63-.71,1.11-1.24,1.44s-1.16.5-1.87.5-1.31-.17-1.83-.52c-.52-.35-.86-.82-1.03-1.42h.18v5.25h-1.62Zm3.9-4.58c.7,0,1.27-.25,1.69-.74.42-.49.63-1.22.63-2.18s-.21-1.68-.63-2.17c-.42-.49-.98-.73-1.69-.73s-1.27.24-1.69.73c-.42.49-.63,1.21-.63,2.17s.21,1.69.63,2.18c.42.49.98.74,1.69.74Z"/>
          <path class="cls-3" d="m749.38,120.2v-1.9h1.9v1.9h-1.9Z"/>
        </g>
        <g>
          <path class="cls-3" d="m698,166.46v-1.39h2.62v-8.48h.83l-3.2,1.95v-1.6l2.83-1.76h1.2v9.89h2.46v1.39h-6.75Z"/>
          <path class="cls-3" d="m711.63,166.46v-2.34h-5.22v-1.18l5.49-7.76h1.34v7.65h1.68v1.3h-1.68v2.34h-1.62Zm0-3.63v-5.68h.37l-4.29,6.08v-.4h3.92Z"/>
          <path class="cls-3" d="m720.08,166.61c-1.3,0-2.3-.5-3-1.5-.7-1-1.05-2.43-1.05-4.29s.35-3.34,1.05-4.31,1.7-1.46,3-1.46,2.31.49,3.01,1.46c.69.98,1.04,2.41,1.04,4.3s-.35,3.32-1.05,4.31c-.7,1-1.7,1.5-3,1.5Zm0-1.39c.82,0,1.43-.36,1.83-1.07.4-.71.6-1.83.6-3.34s-.2-2.64-.6-3.34c-.4-.7-1.01-1.05-1.83-1.05s-1.42.35-1.82,1.05c-.41.7-.61,1.81-.61,3.32s.21,2.65.62,3.36c.41.71,1.02,1.07,1.82,1.07Z"/>
          <path class="cls-3" d="m729.68,166.61c-1.3,0-2.3-.5-3-1.5-.7-1-1.05-2.43-1.05-4.29s.35-3.34,1.05-4.31,1.7-1.46,3-1.46,2.31.49,3.01,1.46c.69.98,1.04,2.41,1.04,4.3s-.35,3.32-1.05,4.31c-.7,1-1.7,1.5-3,1.5Zm0-1.39c.82,0,1.43-.36,1.83-1.07.4-.71.6-1.83.6-3.34s-.2-2.64-.6-3.34c-.4-.7-1.01-1.05-1.83-1.05s-1.42.35-1.82,1.05c-.41.7-.61,1.81-.61,3.32s.21,2.65.62,3.36c.41.71,1.02,1.07,1.82,1.07Z"/>
          <path class="cls-3" d="m740.03,169.92v-9.58c0-.31-.01-.63-.04-.95-.03-.33-.06-.65-.09-.98h1.57l.16,1.82h-.18c.17-.61.51-1.09,1.03-1.44.52-.35,1.13-.53,1.85-.53s1.34.17,1.87.5.95.81,1.24,1.43c.29.62.44,1.37.44,2.24s-.15,1.61-.44,2.24c-.29.63-.71,1.11-1.24,1.44-.53.33-1.16.5-1.87.5s-1.31-.17-1.83-.52-.86-.82-1.03-1.42h.18v5.25h-1.62Zm3.9-4.58c.7,0,1.27-.25,1.69-.74.42-.49.63-1.21.63-2.18s-.21-1.68-.63-2.17c-.42-.48-.98-.73-1.69-.73s-1.27.24-1.69.73c-.42.49-.63,1.21-.63,2.17s.21,1.69.63,2.18c.42.49.98.74,1.69.74Z"/>
          <path class="cls-3" d="m749.38,166.46v-1.9h1.9v1.9h-1.9Z"/>
        </g>
        <g>
          <path class="cls-3" d="m835.97,73.95v-1.71h2.59v-7.84h.99l-3.33,1.98v-1.95l2.93-1.76h1.47v9.57h2.43v1.71h-7.09Z"/>
          <path class="cls-3" d="m849.49,73.95v-2.21h-5.04v-1.44l5.36-7.63h1.66v7.5h1.62v1.57h-1.62v2.21h-1.98Zm0-3.78v-5.07h.38l-3.89,5.55v-.48h3.5Z"/>
          <path class="cls-3" d="m859.09,73.95v-2.21h-5.04v-1.44l5.36-7.63h1.66v7.5h1.62v1.57h-1.62v2.21h-1.98Zm0-3.78v-5.07h.38l-3.89,5.55v-.48h3.5Z"/>
          <path class="cls-3" d="m867.79,74.11c-1.32,0-2.34-.5-3.06-1.51-.71-1.01-1.07-2.45-1.07-4.31s.36-3.32,1.07-4.3c.71-.98,1.73-1.47,3.06-1.47s2.35.49,3.06,1.47,1.06,2.41,1.06,4.29-.35,3.32-1.06,4.33-1.73,1.51-3.06,1.51Zm0-1.7c.73,0,1.26-.33,1.62-1,.35-.67.53-1.71.53-3.14s-.18-2.47-.53-3.11c-.35-.64-.89-.97-1.62-.97s-1.25.32-1.61.97c-.36.65-.54,1.68-.54,3.11s.18,2.48.54,3.14c.36.67.89,1,1.61,1Z"/>
          <path class="cls-3" d="m881.2,74.11c-.7,0-1.33-.17-1.86-.5-.54-.34-.96-.82-1.26-1.45-.3-.63-.45-1.38-.45-2.26s.15-1.62.45-2.25c.3-.62.72-1.1,1.26-1.44s1.16-.5,1.86-.5,1.27.16,1.78.49.86.77,1.03,1.32h-.21v-5.34h2v11.78h-1.97v-1.71h.19c-.17.58-.51,1.03-1.03,1.37-.52.34-1.12.5-1.8.5Zm.56-1.54c.63,0,1.14-.22,1.52-.66.38-.44.58-1.11.58-2.01s-.19-1.56-.58-2c-.38-.44-.89-.66-1.52-.66s-1.14.22-1.53.66c-.39.44-.58,1.1-.58,2s.19,1.57.58,2.01c.39.44.9.66,1.53.66Z"/>
          <path class="cls-3" d="m887.98,77.41v-9.52c0-.33-.01-.67-.03-1.01-.02-.34-.05-.68-.1-1.01h1.94l.18,1.7h-.18c.16-.57.5-1.02,1.02-1.35s1.12-.5,1.8-.5,1.34.17,1.87.5.95.82,1.25,1.44.45,1.37.45,2.25-.15,1.63-.45,2.26-.71,1.11-1.25,1.45c-.53.34-1.16.5-1.87.5-.67,0-1.26-.17-1.78-.5-.51-.33-.85-.77-1.02-1.33h.18v5.12h-2Zm4.06-4.83c.64,0,1.15-.22,1.54-.66.38-.44.58-1.11.58-2.01s-.19-1.56-.58-2c-.38-.44-.9-.66-1.54-.66s-1.14.22-1.52.66-.58,1.1-.58,2,.19,1.57.58,2.01c.38.44.89.66,1.52.66Z"/>
          <path class="cls-3" d="m897.79,64.35v-1.95h2.22v1.95h-2.22Zm.11,9.6v-8.08h2v8.08h-2Z"/>
        </g>
        <g>
          <path class="cls-3" d="m841.44,120.2v-1.39h2.62v-8.48h.83l-3.2,1.95v-1.6l2.83-1.76h1.2v9.89h2.46v1.39h-6.75Z"/>
          <path class="cls-3" d="m850.45,120.2v-1.23l3.87-4.05c.5-.52.87-1.01,1.12-1.47.25-.46.37-.93.37-1.42,0-.61-.19-1.07-.57-1.38-.38-.31-.93-.46-1.64-.46-.57,0-1.1.1-1.59.3-.5.2-.97.51-1.43.93l-.58-1.26c.45-.42,1.01-.75,1.67-1,.67-.25,1.37-.38,2.12-.38,1.17,0,2.08.27,2.71.8s.95,1.29.95,2.29c0,.71-.17,1.38-.51,2.02-.34.65-.85,1.31-1.54,1.99l-3.34,3.38v-.45h5.86v1.39h-7.47Z"/>
          <path class="cls-3" d="m864.67,120.2v-2.34h-5.22v-1.18l5.49-7.76h1.34v7.65h1.68v1.29h-1.68v2.34h-1.62Zm0-3.63v-5.68h.37l-4.29,6.08v-.4h3.92Z"/>
          <path class="cls-3" d="m873.12,120.35c-1.3,0-2.3-.5-3-1.5-.7-1-1.05-2.43-1.05-4.3s.35-3.34,1.05-4.31c.7-.98,1.7-1.46,3-1.46s2.31.49,3.01,1.46c.69.98,1.04,2.41,1.04,4.29s-.35,3.32-1.05,4.31c-.7,1-1.7,1.5-3,1.5Zm0-1.39c.82,0,1.43-.36,1.83-1.07.4-.71.6-1.83.6-3.34s-.2-2.64-.6-3.34c-.4-.7-1.01-1.05-1.83-1.05s-1.42.35-1.82,1.05c-.41.7-.61,1.81-.61,3.32s.21,2.65.62,3.36c.41.71,1.02,1.07,1.82,1.07Z"/>
          <path class="cls-3" d="m883.47,123.66v-9.58c0-.31-.01-.63-.04-.95-.03-.32-.06-.65-.09-.98h1.57l.16,1.82h-.18c.17-.61.51-1.09,1.03-1.44.52-.35,1.13-.53,1.85-.53s1.34.17,1.87.5.95.81,1.24,1.43c.29.62.44,1.37.44,2.24s-.15,1.61-.44,2.24c-.29.63-.71,1.11-1.24,1.44s-1.16.5-1.87.5-1.31-.17-1.83-.52c-.52-.35-.86-.82-1.03-1.42h.18v5.25h-1.62Zm3.9-4.58c.7,0,1.27-.25,1.69-.74.42-.49.63-1.22.63-2.18s-.21-1.68-.63-2.17c-.42-.49-.98-.73-1.69-.73s-1.27.24-1.69.73c-.42.49-.63,1.21-.63,2.17s.21,1.69.63,2.18c.42.49.98.74,1.69.74Z"/>
          <path class="cls-3" d="m892.82,120.2v-1.9h1.9v1.9h-1.9Z"/>
        </g>
        <g>
          <path class="cls-3" d="m841.44,166.46v-1.39h2.62v-8.48h.83l-3.2,1.95v-1.6l2.83-1.76h1.2v9.89h2.46v1.39h-6.75Z"/>
          <path class="cls-3" d="m855.07,166.46v-2.34h-5.22v-1.18l5.49-7.76h1.34v7.65h1.68v1.3h-1.68v2.34h-1.62Zm0-3.63v-5.68h.37l-4.29,6.08v-.4h3.92Z"/>
          <path class="cls-3" d="m864.67,166.46v-2.34h-5.22v-1.18l5.49-7.76h1.34v7.65h1.68v1.3h-1.68v2.34h-1.62Zm0-3.63v-5.68h.37l-4.29,6.08v-.4h3.92Z"/>
          <path class="cls-3" d="m873.12,166.61c-1.3,0-2.3-.5-3-1.5-.7-1-1.05-2.43-1.05-4.29s.35-3.34,1.05-4.31,1.7-1.46,3-1.46,2.31.49,3.01,1.46c.69.98,1.04,2.41,1.04,4.3s-.35,3.32-1.05,4.31c-.7,1-1.7,1.5-3,1.5Zm0-1.39c.82,0,1.43-.36,1.83-1.07.4-.71.6-1.83.6-3.34s-.2-2.64-.6-3.34c-.4-.7-1.01-1.05-1.83-1.05s-1.42.35-1.82,1.05c-.41.7-.61,1.81-.61,3.32s.21,2.65.62,3.36c.41.71,1.02,1.07,1.82,1.07Z"/>
          <path class="cls-3" d="m883.47,169.92v-9.58c0-.31-.01-.63-.04-.95-.03-.33-.06-.65-.09-.98h1.57l.16,1.82h-.18c.17-.61.51-1.09,1.03-1.44.52-.35,1.13-.53,1.85-.53s1.34.17,1.87.5.95.81,1.24,1.43c.29.62.44,1.37.44,2.24s-.15,1.61-.44,2.24c-.29.63-.71,1.11-1.24,1.44-.53.33-1.16.5-1.87.5s-1.31-.17-1.83-.52-.86-.82-1.03-1.42h.18v5.25h-1.62Zm3.9-4.58c.7,0,1.27-.25,1.69-.74.42-.49.63-1.21.63-2.18s-.21-1.68-.63-2.17c-.42-.48-.98-.73-1.69-.73s-1.27.24-1.69.73c-.42.49-.63,1.21-.63,2.17s.21,1.69.63,2.18c.42.49.98.74,1.69.74Z"/>
          <path class="cls-3" d="m892.82,166.46v-1.9h1.9v1.9h-1.9Z"/>
        </g>
        <g>
          <path class="cls-3" d="m94.55,120.2c-1.17,0-2.18-.24-3.02-.71-.84-.47-1.48-1.15-1.93-2.02-.45-.87-.67-1.9-.67-3.08s.22-2.21.67-3.07c.45-.86,1.09-1.53,1.93-2.01.84-.47,1.84-.71,3.02-.71.79,0,1.5.11,2.14.34.63.22,1.18.55,1.64.99l-.67,1.63c-.5-.41-.98-.7-1.45-.87-.46-.18-1-.26-1.59-.26-1.14,0-2.01.34-2.62,1.03s-.9,1.67-.9,2.94.3,2.25.9,2.94,1.47,1.04,2.62,1.04c.6,0,1.13-.09,1.59-.26.46-.18.95-.47,1.45-.89l.67,1.63c-.46.43-1.01.76-1.64.99s-1.35.35-2.14.35Z"/>
          <path class="cls-3" d="m103.18,120.2c-.7,0-1.32-.17-1.86-.5-.53-.34-.95-.82-1.25-1.45-.3-.63-.45-1.38-.45-2.26s.15-1.62.45-2.25c.3-.62.71-1.1,1.25-1.44s1.15-.5,1.86-.5,1.28.17,1.8.5.86.79,1.03,1.35h-.18l.18-1.7h1.92c-.03.33-.06.67-.09,1.01-.03.34-.04.68-.04,1.01v6.06h-1.98l-.02-1.66h.19c-.17.55-.52,1-1.04,1.33-.52.33-1.12.5-1.78.5Zm.56-1.54c.63,0,1.14-.22,1.52-.66.38-.44.58-1.11.58-2.01s-.19-1.56-.58-2-.89-.66-1.52-.66-1.14.22-1.52.66-.58,1.1-.58,2,.19,1.57.57,2.01c.38.44.89.66,1.53.66Z"/>
          <path class="cls-3" d="m110.14,120.04v-8.08h1.66l2.78,4.83,2.78-4.83h1.66v8.08h-1.76v-5.84h.37l-2.59,4.53h-.93l-2.59-4.53h.37v5.84h-1.76Z"/>
          <path class="cls-3" d="m125.02,120.2c-.83,0-1.55-.17-2.16-.51-.61-.34-1.08-.83-1.42-1.46s-.5-1.38-.5-2.24.17-1.61.5-2.23c.34-.62.81-1.11,1.42-1.45.61-.34,1.33-.51,2.16-.51s1.55.17,2.17.51c.61.34,1.09.82,1.42,1.45.34.62.5,1.37.5,2.23s-.17,1.61-.5,2.24-.81,1.11-1.42,1.46c-.61.34-1.34.51-2.17.51Zm0-1.54c.63,0,1.13-.22,1.5-.66.37-.44.56-1.11.56-2.01s-.19-1.56-.56-2-.88-.66-1.5-.66-1.13.22-1.5.66-.56,1.1-.56,2,.19,1.57.56,2.01c.37.44.87.66,1.5.66Z"/>
          <path class="cls-3" d="m131,120.04v-8.08h1.98v3.17h1.22l2.37-3.17h2.14l-2.98,4.03-.43-.62c.3.03.56.11.79.24.23.13.45.31.66.54.21.23.41.52.62.87l1.7,3.02h-2.13l-1.38-2.43c-.14-.24-.28-.44-.42-.58s-.29-.24-.46-.29c-.17-.05-.38-.08-.62-.08h-1.07v3.38h-1.98Z"/>
          <path class="cls-3" d="m139.91,120.27l-.62-1.57c.35-.13.65-.29.89-.5.24-.21.43-.47.58-.8.14-.33.25-.73.31-1.22.06-.48.1-1.06.1-1.74v-2.48h6.43v8.08h-1.98v-6.54h-2.62v1.01c0,1.16-.11,2.14-.32,2.92-.21.78-.54,1.41-.99,1.86s-1.04.78-1.76.98Z"/>
          <path class="cls-3" d="m153.83,120.2c-1.35,0-2.42-.37-3.18-1.12-.77-.75-1.15-1.77-1.15-3.07,0-.84.17-1.58.5-2.21.33-.63.79-1.12,1.38-1.47.59-.35,1.28-.53,2.07-.53s1.43.17,1.95.5.92.79,1.19,1.39c.27.6.41,1.3.41,2.1v.53h-5.89v-1.06h4.46l-.27.22c0-.75-.16-1.32-.47-1.71s-.77-.59-1.37-.59c-.66,0-1.17.23-1.53.7s-.54,1.13-.54,1.97v.21c0,.87.22,1.53.65,1.96s1.04.65,1.83.65c.46,0,.89-.06,1.29-.18.4-.12.78-.32,1.14-.6l.59,1.34c-.38.31-.84.55-1.38.72-.53.17-1.1.26-1.7.26Z"/>
          <path class="cls-3" d="m158.18,120.04l1.23-2.13c.21-.36.48-.65.79-.87.31-.22.64-.33.98-.33h.35l-.02.18c-.95,0-1.68-.21-2.19-.62s-.77-1.02-.77-1.82.26-1.4.79-1.83c.53-.43,1.3-.65,2.33-.65h4.02v8.08h-1.82v-2.85h-.91c-.33,0-.62.09-.87.27-.25.18-.46.42-.63.7l-1.06,1.87h-2.22Zm3.89-4.14h1.81v-2.64h-1.81c-.54,0-.95.12-1.22.35-.27.24-.41.55-.41.96s.14.75.41.98c.27.23.68.34,1.22.34Z"/>
          <path class="cls-3" d="m178.9,122.12v-2.08h-10.93v-8.08h1.87v6.54h2.85v-6.54h1.86v6.54h2.85v-6.54h1.87v6.54h1.31v3.62h-1.68Z"/>
          <path class="cls-3" d="m185.24,120.2c-.7,0-1.32-.17-1.86-.5-.53-.34-.95-.82-1.25-1.45-.3-.63-.45-1.38-.45-2.26s.15-1.62.45-2.25c.3-.62.71-1.1,1.25-1.44s1.15-.5,1.86-.5,1.28.17,1.8.5.86.79,1.03,1.35h-.18l.18-1.7h1.92c-.03.33-.06.67-.09,1.01-.03.34-.04.68-.04,1.01v6.06h-1.98l-.02-1.66h.19c-.17.55-.52,1-1.04,1.33-.52.33-1.12.5-1.78.5Zm.56-1.54c.63,0,1.14-.22,1.52-.66.38-.44.58-1.11.58-2.01s-.19-1.56-.58-2-.89-.66-1.52-.66-1.14.22-1.52.66-.58,1.1-.58,2,.19,1.57.57,2.01c.38.44.89.66,1.53.66Z"/>
          <path class="cls-3" d="m191.53,120.04l1.23-2.13c.21-.36.48-.65.79-.87.31-.22.64-.33.98-.33h.35l-.02.18c-.95,0-1.68-.21-2.19-.62s-.77-1.02-.77-1.82.26-1.4.79-1.83c.53-.43,1.3-.65,2.33-.65h4.02v8.08h-1.82v-2.85h-.91c-.33,0-.62.09-.87.27-.25.18-.46.42-.63.7l-1.06,1.87h-2.22Zm3.89-4.14h1.81v-2.64h-1.81c-.54,0-.95.12-1.22.35-.27.24-.41.55-.41.96s.14.75.41.98c.27.23.68.34,1.22.34Z"/>
          <path class="cls-3" d="m205.09,120.2c-.83,0-1.56-.17-2.18-.51-.62-.34-1.11-.83-1.45-1.46-.34-.63-.51-1.39-.51-2.26s.17-1.62.52-2.24c.35-.62.83-1.09,1.45-1.42.62-.33,1.34-.5,2.18-.5.53,0,1.05.08,1.56.25s.92.4,1.24.71l-.61,1.39c-.29-.27-.61-.47-.97-.6-.36-.13-.71-.2-1.05-.2-.71,0-1.27.22-1.67.67-.4.45-.6,1.1-.6,1.95s.2,1.51.6,1.97c.4.46.96.69,1.67.69.33,0,.67-.06,1.03-.19.36-.13.69-.32.98-.59l.61,1.38c-.33.31-.75.55-1.26.72-.51.17-1.02.26-1.54.26Z"/>
          <path class="cls-3" d="m208.93,120.04l1.23-2.13c.21-.36.48-.65.79-.87.31-.22.64-.33.98-.33h.35l-.02.18c-.95,0-1.68-.21-2.19-.62-.51-.42-.77-1.02-.77-1.82s.26-1.4.79-1.83c.53-.43,1.3-.65,2.33-.65h4.02v8.08h-1.82v-2.85h-.91c-.33,0-.62.09-.87.27-.25.18-.46.42-.63.7l-1.06,1.87h-2.22Zm3.89-4.14h1.81v-2.64h-1.81c-.54,0-.95.12-1.22.35-.27.24-.41.55-.41.96s.14.75.41.98c.27.23.68.34,1.22.34Z"/>
          <path class="cls-3" d="m223.11,120.04v-8.08h7.57v8.08h-1.98v-6.54h-3.6v6.54h-1.98Z"/>
          <path class="cls-3" d="m232.74,120.27l-.62-1.57c.35-.13.65-.29.89-.5.24-.21.43-.47.58-.8.14-.33.25-.73.31-1.22.06-.48.1-1.06.1-1.74v-2.48h6.43v8.08h-1.98v-6.54h-2.62v1.01c0,1.16-.11,2.14-.32,2.92-.21.78-.54,1.41-.99,1.86-.45.46-1.04.78-1.76.98Z"/>
          <path class="cls-3" d="m246.66,120.2c-1.35,0-2.42-.37-3.18-1.12-.77-.75-1.15-1.77-1.15-3.07,0-.84.17-1.58.5-2.21.33-.63.79-1.12,1.38-1.47.59-.35,1.28-.53,2.07-.53s1.43.17,1.95.5.92.79,1.19,1.39c.27.6.41,1.3.41,2.1v.53h-5.89v-1.06h4.46l-.27.22c0-.75-.16-1.32-.47-1.71-.31-.39-.77-.59-1.37-.59-.66,0-1.17.23-1.53.7s-.54,1.13-.54,1.97v.21c0,.87.22,1.53.65,1.96.43.43,1.04.65,1.83.65.46,0,.89-.06,1.29-.18.4-.12.78-.32,1.14-.6l.59,1.34c-.38.31-.84.55-1.38.72-.53.17-1.1.26-1.7.26Zm-2.82-9.71v-1.84h1.84v1.84h-1.84Zm3.02,0v-1.84h1.84v1.84h-1.84Z"/>
          <path class="cls-3" d="m251.69,120.04v-8.08h1.98v3.17h3.65v-3.17h1.98v8.08h-1.98v-3.38h-3.65v3.38h-1.98Z"/>
          <path class="cls-3" d="m261.57,120.04v-8.08h1.98v3.17h1.22l2.37-3.17h2.14l-2.98,4.03-.43-.62c.3.03.56.11.79.24.23.13.45.31.66.54.21.23.41.52.62.87l1.7,3.02h-2.13l-1.38-2.43c-.14-.24-.28-.44-.42-.58s-.29-.24-.46-.29c-.17-.05-.38-.08-.62-.08h-1.07v3.38h-1.98Z"/>
          <path class="cls-3" d="m274.66,120.2c-1.35,0-2.42-.37-3.18-1.12-.77-.75-1.15-1.77-1.15-3.07,0-.84.17-1.58.5-2.21.33-.63.79-1.12,1.38-1.47.59-.35,1.28-.53,2.07-.53s1.43.17,1.95.5.92.79,1.19,1.39c.27.6.41,1.3.41,2.1v.53h-5.89v-1.06h4.46l-.27.22c0-.75-.16-1.32-.47-1.71-.31-.39-.77-.59-1.37-.59-.66,0-1.17.23-1.53.7s-.54,1.13-.54,1.97v.21c0,.87.22,1.53.65,1.96.43.43,1.04.65,1.83.65.46,0,.89-.06,1.29-.18.4-.12.78-.32,1.14-.6l.59,1.34c-.38.31-.84.55-1.38.72-.53.17-1.1.26-1.7.26Z"/>
        </g>
        <g>
          <path class="cls-3" d="m15.59,166.46c-1.17,0-2.18-.24-3.02-.71-.84-.47-1.48-1.15-1.93-2.02s-.67-1.9-.67-3.08.22-2.21.67-3.07c.45-.86,1.09-1.53,1.93-2.01.84-.47,1.84-.71,3.02-.71.79,0,1.5.11,2.14.34.63.22,1.18.55,1.64.99l-.67,1.63c-.5-.41-.98-.7-1.45-.87-.46-.18-.99-.26-1.59-.26-1.14,0-2.01.34-2.62,1.03s-.9,1.67-.9,2.94.3,2.25.9,2.94,1.47,1.04,2.62,1.04c.6,0,1.13-.09,1.59-.26.46-.18.95-.47,1.45-.89l.67,1.63c-.46.43-1,.76-1.64.99s-1.35.35-2.14.35Z"/>
          <path class="cls-3" d="m24.22,166.46c-.7,0-1.32-.17-1.86-.5-.53-.34-.95-.82-1.25-1.45s-.45-1.38-.45-2.26.15-1.62.45-2.25.71-1.1,1.25-1.44,1.15-.5,1.86-.5,1.28.17,1.8.5c.52.34.86.79,1.03,1.35h-.18l.18-1.7h1.92c-.03.33-.06.67-.09,1.01-.03.34-.04.68-.04,1.01v6.06h-1.98l-.02-1.66h.19c-.17.55-.52,1-1.04,1.33s-1.11.5-1.78.5Zm.56-1.54c.63,0,1.14-.22,1.52-.66.38-.44.58-1.11.58-2.01s-.19-1.56-.58-2c-.38-.44-.89-.66-1.52-.66s-1.14.22-1.52.66c-.38.44-.58,1.1-.58,2s.19,1.57.57,2.01c.38.44.89.66,1.53.66Z"/>
          <path class="cls-3" d="m31.18,166.3v-8.08h1.66l2.78,4.83,2.78-4.83h1.66v8.08h-1.76v-5.84h.37l-2.59,4.53h-.93l-2.59-4.53h.37v5.84h-1.76Z"/>
          <path class="cls-3" d="m46.06,166.46c-.83,0-1.55-.17-2.16-.51-.61-.34-1.08-.83-1.42-1.46s-.5-1.38-.5-2.24.17-1.61.5-2.23c.34-.62.81-1.11,1.42-1.45.61-.34,1.33-.51,2.16-.51s1.55.17,2.17.51c.61.34,1.09.82,1.42,1.45.34.62.5,1.37.5,2.23s-.17,1.61-.5,2.24-.81,1.11-1.42,1.46c-.61.34-1.34.51-2.17.51Zm0-1.54c.63,0,1.13-.22,1.5-.66.37-.44.56-1.11.56-2.01s-.19-1.56-.56-2c-.37-.44-.88-.66-1.5-.66s-1.13.22-1.5.66c-.37.44-.56,1.1-.56,2s.19,1.57.56,2.01c.37.44.87.66,1.5.66Z"/>
          <path class="cls-3" d="m52.04,166.3v-8.08h1.98v3.17h1.22l2.37-3.17h2.14l-2.98,4.03-.43-.62c.3.03.56.11.79.24.23.13.45.31.66.54.21.23.41.52.62.87l1.7,3.02h-2.13l-1.38-2.43c-.14-.24-.28-.44-.42-.58s-.29-.24-.46-.29-.38-.08-.62-.08h-1.07v3.38h-1.98Z"/>
          <path class="cls-3" d="m60.95,166.53l-.62-1.57c.35-.13.65-.29.89-.5.24-.21.43-.47.58-.8.14-.33.25-.73.31-1.22.06-.48.1-1.06.1-1.74v-2.48h6.43v8.08h-1.98v-6.54h-2.62v1.01c0,1.16-.11,2.14-.32,2.92-.21.78-.54,1.41-.99,1.86-.45.46-1.03.78-1.76.98Z"/>
          <path class="cls-3" d="m74.87,166.46c-1.36,0-2.42-.37-3.18-1.12-.77-.75-1.15-1.77-1.15-3.07,0-.84.17-1.58.5-2.21.33-.63.79-1.12,1.38-1.47s1.28-.53,2.07-.53,1.43.17,1.95.5.92.79,1.19,1.39c.27.6.41,1.3.41,2.1v.53h-5.89v-1.06h4.46l-.27.22c0-.75-.16-1.32-.47-1.71-.32-.39-.77-.59-1.37-.59-.66,0-1.17.23-1.53.7s-.54,1.13-.54,1.97v.21c0,.87.22,1.53.65,1.96.43.43,1.04.65,1.83.65.46,0,.89-.06,1.29-.18.4-.12.78-.32,1.14-.6l.59,1.34c-.38.31-.84.55-1.38.72-.53.17-1.1.26-1.7.26Z"/>
          <path class="cls-3" d="m79.22,166.3l1.23-2.13c.21-.36.48-.65.79-.87.32-.22.64-.33.98-.33h.35l-.02.18c-.95,0-1.68-.21-2.19-.62-.51-.42-.77-1.02-.77-1.82s.26-1.4.79-1.83c.53-.43,1.3-.65,2.33-.65h4.02v8.08h-1.82v-2.85h-.91c-.33,0-.62.09-.87.27-.25.18-.46.42-.63.7l-1.06,1.87h-2.22Zm3.89-4.14h1.81v-2.64h-1.81c-.54,0-.95.12-1.22.35-.27.24-.41.55-.41.96s.14.75.41.98c.27.23.68.34,1.22.34Z"/>
          <path class="cls-3" d="m99.94,168.38v-2.08h-10.93v-8.08h1.87v6.54h2.85v-6.54h1.86v6.54h2.85v-6.54h1.87v6.54h1.31v3.62h-1.68Z"/>
          <path class="cls-3" d="m106.28,166.46c-.7,0-1.32-.17-1.86-.5-.53-.34-.95-.82-1.25-1.45s-.45-1.38-.45-2.26.15-1.62.45-2.25.71-1.1,1.25-1.44,1.15-.5,1.86-.5,1.28.17,1.8.5c.52.34.86.79,1.03,1.35h-.18l.18-1.7h1.92c-.03.33-.06.67-.09,1.01-.03.34-.04.68-.04,1.01v6.06h-1.98l-.02-1.66h.19c-.17.55-.52,1-1.04,1.33s-1.11.5-1.78.5Zm.56-1.54c.63,0,1.14-.22,1.52-.66.38-.44.58-1.11.58-2.01s-.19-1.56-.58-2c-.38-.44-.89-.66-1.52-.66s-1.14.22-1.52.66c-.38.44-.58,1.1-.58,2s.19,1.57.57,2.01c.38.44.89.66,1.53.66Z"/>
          <path class="cls-3" d="m112.57,166.3l1.23-2.13c.21-.36.48-.65.79-.87.32-.22.64-.33.98-.33h.35l-.02.18c-.95,0-1.68-.21-2.19-.62-.51-.42-.77-1.02-.77-1.82s.26-1.4.79-1.83c.53-.43,1.3-.65,2.33-.65h4.02v8.08h-1.82v-2.85h-.91c-.33,0-.62.09-.87.27-.25.18-.46.42-.63.7l-1.06,1.87h-2.22Zm3.89-4.14h1.81v-2.64h-1.81c-.54,0-.95.12-1.22.35-.27.24-.41.55-.41.96s.14.75.41.98c.27.23.68.34,1.22.34Z"/>
          <path class="cls-3" d="m126.14,166.46c-.83,0-1.56-.17-2.18-.51-.62-.34-1.11-.83-1.45-1.46-.34-.63-.51-1.39-.51-2.26s.17-1.62.52-2.24c.35-.62.83-1.09,1.45-1.42.62-.33,1.34-.5,2.18-.5.53,0,1.05.08,1.56.25s.92.4,1.24.71l-.61,1.39c-.29-.27-.61-.47-.97-.6-.36-.13-.71-.2-1.05-.2-.71,0-1.27.22-1.67.67-.4.45-.6,1.1-.6,1.95s.2,1.51.6,1.97c.4.46.96.69,1.67.69.33,0,.67-.06,1.03-.19.36-.13.68-.32.98-.59l.61,1.38c-.33.31-.75.55-1.26.72-.51.17-1.02.26-1.54.26Z"/>
          <path class="cls-3" d="m129.98,166.3l1.23-2.13c.21-.36.48-.65.79-.87.31-.22.64-.33.98-.33h.35l-.02.18c-.95,0-1.68-.21-2.19-.62s-.77-1.02-.77-1.82.26-1.4.79-1.83c.53-.43,1.3-.65,2.33-.65h4.02v8.08h-1.82v-2.85h-.91c-.33,0-.62.09-.87.27-.25.18-.46.42-.63.7l-1.06,1.87h-2.22Zm3.89-4.14h1.81v-2.64h-1.81c-.54,0-.95.12-1.22.35-.27.24-.41.55-.41.96s.14.75.41.98c.27.23.68.34,1.22.34Z"/>
          <path class="cls-3" d="m144.15,166.3v-8.08h7.57v8.08h-1.98v-6.54h-3.6v6.54h-1.98Z"/>
          <path class="cls-3" d="m153.78,166.53l-.62-1.57c.35-.13.65-.29.89-.5.24-.21.43-.47.58-.8.14-.33.25-.73.31-1.22.06-.48.1-1.06.1-1.74v-2.48h6.43v8.08h-1.98v-6.54h-2.62v1.01c0,1.16-.11,2.14-.32,2.92-.21.78-.54,1.41-.99,1.86-.45.46-1.03.78-1.76.98Z"/>
          <path class="cls-3" d="m167.7,166.46c-1.35,0-2.42-.37-3.18-1.12-.77-.75-1.15-1.77-1.15-3.07,0-.84.17-1.58.5-2.21.33-.63.79-1.12,1.38-1.47.59-.35,1.28-.53,2.07-.53s1.43.17,1.95.5.92.79,1.19,1.39c.27.6.41,1.3.41,2.1v.53h-5.89v-1.06h4.46l-.27.22c0-.75-.16-1.32-.47-1.71s-.77-.59-1.37-.59c-.66,0-1.17.23-1.53.7s-.54,1.13-.54,1.97v.21c0,.87.22,1.53.65,1.96s1.04.65,1.83.65c.46,0,.89-.06,1.29-.18.4-.12.78-.32,1.14-.6l.59,1.34c-.38.31-.84.55-1.38.72-.53.17-1.1.26-1.7.26Zm-2.82-9.71v-1.84h1.84v1.84h-1.84Zm3.02,0v-1.84h1.84v1.84h-1.84Z"/>
          <path class="cls-3" d="m172.73,166.3v-8.08h1.98v3.17h3.65v-3.17h1.98v8.08h-1.98v-3.38h-3.65v3.38h-1.98Z"/>
          <path class="cls-3" d="m182.62,166.3v-8.08h1.98v3.17h1.22l2.37-3.17h2.14l-2.98,4.03-.43-.62c.3.03.56.11.79.24.23.13.45.31.66.54.21.23.41.52.62.87l1.7,3.02h-2.13l-1.38-2.43c-.14-.24-.28-.44-.42-.58s-.29-.24-.46-.29-.38-.08-.62-.08h-1.07v3.38h-1.98Z"/>
          <path class="cls-3" d="m195.7,166.46c-1.35,0-2.42-.37-3.18-1.12-.77-.75-1.15-1.77-1.15-3.07,0-.84.17-1.58.5-2.21.33-.63.79-1.12,1.38-1.47.59-.35,1.28-.53,2.07-.53s1.43.17,1.95.5.92.79,1.19,1.39c.27.6.41,1.3.41,2.1v.53h-5.89v-1.06h4.46l-.27.22c0-.75-.16-1.32-.47-1.71-.31-.39-.77-.59-1.37-.59-.66,0-1.17.23-1.53.7s-.54,1.13-.54,1.97v.21c0,.87.22,1.53.65,1.96s1.04.65,1.83.65c.46,0,.89-.06,1.29-.18.4-.12.78-.32,1.14-.6l.59,1.34c-.38.31-.84.55-1.38.72-.53.17-1.1.26-1.7.26Z"/>
          <path class="cls-3" d="m208.05,165.68v-3.26h-3.22v-1.41h3.22v-3.18h1.46v3.18h3.2v1.41h-3.2v3.26h-1.46Z"/>
          <path class="cls-3" d="m219.16,169.76v-9.52c0-.33-.01-.67-.03-1.01-.02-.34-.05-.68-.1-1.01h1.94l.18,1.7h-.18c.16-.57.5-1.02,1.02-1.35.52-.34,1.12-.5,1.8-.5s1.34.17,1.87.5c.53.34.95.82,1.25,1.44.3.62.45,1.37.45,2.25s-.15,1.63-.45,2.26c-.3.63-.71,1.11-1.25,1.45-.53.34-1.16.5-1.87.5-.67,0-1.26-.17-1.78-.5s-.85-.77-1.02-1.33h.18v5.12h-2Zm4.06-4.83c.64,0,1.15-.22,1.54-.66.38-.44.58-1.11.58-2.01s-.19-1.56-.58-2-.9-.66-1.54-.66-1.14.22-1.52.66-.58,1.1-.58,2,.19,1.57.58,2.01c.38.44.89.66,1.52.66Z"/>
          <path class="cls-3" d="m233.21,166.46c-1.35,0-2.42-.37-3.18-1.12-.77-.75-1.15-1.77-1.15-3.07,0-.84.17-1.58.5-2.21.33-.63.79-1.12,1.38-1.47.59-.35,1.28-.53,2.07-.53s1.43.17,1.95.5.92.79,1.19,1.39c.27.6.41,1.3.41,2.1v.53h-5.89v-1.06h4.46l-.27.22c0-.75-.16-1.32-.47-1.71-.31-.39-.77-.59-1.37-.59-.66,0-1.17.23-1.53.7s-.54,1.13-.54,1.97v.21c0,.87.22,1.53.65,1.96.43.43,1.04.65,1.83.65.46,0,.89-.06,1.29-.18.4-.12.78-.32,1.14-.6l.59,1.34c-.38.31-.84.55-1.38.72-.53.17-1.1.26-1.7.26Z"/>
          <path class="cls-3" d="m241.21,166.46c-.73,0-1.41-.08-2.04-.26-.63-.17-1.17-.42-1.59-.74l.56-1.31c.39.29.86.51,1.38.66.53.15,1.08.22,1.67.22.68,0,1.18-.09,1.5-.28s.47-.46.47-.82c0-.34-.12-.6-.37-.78-.25-.18-.61-.26-1.09-.26h-2.1v-1.38h1.9c.44,0,.77-.08,1.01-.26.23-.17.35-.41.35-.72,0-.33-.14-.59-.42-.78-.28-.19-.74-.29-1.38-.29-.55,0-1.06.07-1.52.2-.46.13-.89.33-1.3.58l-.54-1.25c.44-.31.97-.54,1.59-.7s1.3-.24,2.04-.24c1.08,0,1.9.2,2.48.59s.86.95.86,1.68c0,.49-.17.91-.5,1.26s-.79.57-1.35.66v-.22c.66.04,1.18.24,1.57.59.38.35.58.83.58,1.42,0,.74-.33,1.32-.98,1.76-.65.44-1.58.66-2.78.66Z"/>
          <path class="cls-3" d="m246.71,166.3v-8.08h1.98v3.17h1.22l2.37-3.17h2.14l-2.98,4.03-.43-.62c.3.03.56.11.79.24.23.13.45.31.66.54.21.23.41.52.62.87l1.7,3.02h-2.13l-1.38-2.43c-.14-.24-.28-.44-.42-.58s-.29-.24-.46-.29c-.17-.05-.38-.08-.62-.08h-1.07v3.38h-1.98Z"/>
          <path class="cls-3" d="m259.01,166.46c-.7,0-1.32-.17-1.86-.5-.53-.34-.95-.82-1.25-1.45s-.45-1.38-.45-2.26.15-1.62.45-2.25.71-1.1,1.25-1.44,1.15-.5,1.86-.5,1.28.17,1.8.5.86.79,1.03,1.35h-.18l.18-1.7h1.92c-.03.33-.06.67-.09,1.01-.03.34-.04.68-.04,1.01v6.06h-1.98l-.02-1.66h.19c-.17.55-.52,1-1.04,1.33s-1.11.5-1.78.5Zm.56-1.54c.63,0,1.14-.22,1.52-.66.38-.44.58-1.11.58-2.01s-.19-1.56-.58-2c-.38-.44-.89-.66-1.52-.66s-1.14.22-1.52.66c-.38.44-.58,1.1-.58,2s.19,1.57.57,2.01c.38.44.89.66,1.53.66Z"/>
          <path class="cls-3" d="m270.36,166.3v-8.08h7.57v8.08h-1.98v-6.54h-3.6v6.54h-1.98Z"/>
          <path class="cls-3" d="m283.91,166.46c-.83,0-1.55-.17-2.16-.51-.61-.34-1.08-.83-1.42-1.46-.34-.63-.5-1.38-.5-2.24s.17-1.61.5-2.23c.34-.62.81-1.11,1.42-1.45.61-.34,1.33-.51,2.16-.51s1.55.17,2.17.51c.61.34,1.09.82,1.42,1.45.34.62.5,1.37.5,2.23s-.17,1.61-.5,2.24c-.34.63-.81,1.11-1.42,1.46-.61.34-1.34.51-2.17.51Zm0-1.54c.63,0,1.13-.22,1.5-.66.37-.44.56-1.11.56-2.01s-.19-1.56-.56-2c-.37-.44-.87-.66-1.5-.66s-1.13.22-1.5.66-.56,1.1-.56,2,.19,1.57.56,2.01c.37.44.88.66,1.5.66Z"/>
          <path class="cls-3" d="m294.28,166.3v-8.08h1.98v3.17h1.22l2.37-3.17h2.14l-2.98,4.03-.43-.62c.3.03.56.11.79.24.23.13.45.31.66.54.21.23.41.52.62.87l1.7,3.02h-2.13l-1.38-2.43c-.14-.24-.28-.44-.42-.58s-.29-.24-.46-.29c-.17-.05-.38-.08-.62-.08h-1.07v3.38h-1.98Z"/>
          <path class="cls-3" d="m307.11,166.46c-.83,0-1.55-.17-2.16-.51-.61-.34-1.08-.83-1.42-1.46-.34-.63-.5-1.38-.5-2.24s.17-1.61.5-2.23c.34-.62.81-1.11,1.42-1.45.61-.34,1.33-.51,2.16-.51s1.55.17,2.17.51c.61.34,1.09.82,1.42,1.45.34.62.5,1.37.5,2.23s-.17,1.61-.5,2.24c-.34.63-.81,1.11-1.42,1.46-.61.34-1.34.51-2.17.51Zm0-1.54c.63,0,1.13-.22,1.5-.66.37-.44.56-1.11.56-2.01s-.19-1.56-.56-2c-.37-.44-.87-.66-1.5-.66s-1.13.22-1.5.66-.56,1.1-.56,2,.19,1.57.56,2.01c.37.44.88.66,1.5.66Z"/>
          <path class="cls-3" d="m313.09,166.3v-8.08h1.98v3.17h3.65v-3.17h1.98v8.08h-1.98v-3.38h-3.65v3.38h-1.98Z"/>
          <path class="cls-3" d="m324.72,166.3v-6.51h-2.77v-1.57h7.54v1.57h-2.78v6.51h-1.98Z"/>
          <path class="cls-3" d="m330.71,169.93l-.46-1.58c.5-.11.92-.23,1.26-.37.34-.14.62-.32.85-.54s.41-.51.56-.86l.4-.94-.05.78-3.52-8.19h2.13l2.53,6.3h-.46l2.54-6.3h2.02l-3.68,8.53c-.25.58-.51,1.05-.8,1.43-.29.38-.6.68-.93.91s-.69.41-1.09.54-.83.23-1.3.3Z"/>
          <path class="cls-3" d="m339.78,169.76v-9.52c0-.33-.01-.67-.03-1.01-.02-.34-.05-.68-.1-1.01h1.94l.18,1.7h-.18c.16-.57.5-1.02,1.02-1.35.52-.34,1.12-.5,1.8-.5s1.34.17,1.87.5c.53.34.95.82,1.25,1.44.3.62.45,1.37.45,2.25s-.15,1.63-.45,2.26c-.3.63-.71,1.11-1.25,1.45-.53.34-1.16.5-1.87.5-.67,0-1.26-.17-1.78-.5s-.85-.77-1.02-1.33h.18v5.12h-2Zm4.06-4.83c.64,0,1.15-.22,1.54-.66.38-.44.58-1.11.58-2.01s-.19-1.56-.58-2-.9-.66-1.54-.66-1.14.22-1.52.66-.58,1.1-.58,2,.19,1.57.58,2.01c.38.44.89.66,1.52.66Z"/>
          <path class="cls-3" d="m349.64,169.93l-.46-1.58c.5-.11.92-.23,1.26-.37.34-.14.62-.32.85-.54s.41-.51.56-.86l.4-.94-.05.78-3.52-8.19h2.13l2.53,6.3h-.46l2.54-6.3h2.02l-3.68,8.53c-.25.58-.51,1.05-.8,1.43-.29.38-.6.68-.93.91s-.69.41-1.09.54-.83.23-1.3.3Z"/>
        </g>
        <g>
          <path class="cls-3" d="m22.18,29.62v-11.28h9.87v11.28h-2.05v-9.6h-5.79v9.6h-2.03Z"/>
          <path class="cls-3" d="m38.39,29.78c-1.35,0-2.42-.37-3.18-1.12-.77-.75-1.15-1.77-1.15-3.07,0-.84.17-1.58.5-2.21.33-.63.79-1.12,1.38-1.47.59-.35,1.28-.53,2.07-.53s1.43.17,1.95.5c.52.33.92.79,1.19,1.39.27.6.41,1.3.41,2.1v.53h-5.89v-1.06h4.46l-.27.22c0-.75-.16-1.32-.47-1.71-.31-.39-.77-.59-1.37-.59-.66,0-1.17.23-1.53.7-.36.47-.54,1.13-.54,1.97v.21c0,.87.22,1.53.65,1.96s1.04.65,1.83.65c.46,0,.89-.06,1.29-.18.4-.12.78-.32,1.14-.6l.59,1.34c-.38.31-.84.55-1.38.72s-1.1.26-1.7.26Z"/>
          <path class="cls-3" d="m48.55,29.62v-2.94c-.3.14-.61.25-.93.32-.32.08-.66.11-1.01.11-1.18,0-2.07-.28-2.65-.85-.58-.57-.87-1.41-.87-2.53v-2.19h1.98v2.02c0,.68.15,1.18.45,1.48.3.3.78.46,1.44.46.31,0,.59-.03.83-.1.25-.06.48-.17.7-.3v-3.55h1.98v8.08h-1.94Z"/>
          <path class="cls-3" d="m55.94,29.78c-.7,0-1.32-.17-1.86-.5s-.95-.82-1.25-1.45c-.3-.63-.45-1.38-.45-2.26s.15-1.62.45-2.25.71-1.1,1.25-1.44,1.15-.5,1.86-.5,1.28.17,1.8.5.86.79,1.03,1.35h-.18l.18-1.7h1.92c-.03.33-.06.67-.09,1.01-.03.34-.04.68-.04,1.01v6.06h-1.98l-.02-1.66h.19c-.17.55-.52,1-1.04,1.33-.52.33-1.11.5-1.78.5Zm.56-1.54c.63,0,1.14-.22,1.52-.66.38-.44.58-1.11.58-2.01s-.19-1.56-.58-2c-.38-.44-.89-.66-1.52-.66s-1.14.22-1.52.66c-.38.44-.58,1.1-.58,2s.19,1.57.57,2.01c.38.44.89.66,1.53.66Z"/>
          <path class="cls-3" d="m64.64,29.62v-6.51h-2.77v-1.57h7.54v1.57h-2.78v6.51h-1.98Z"/>
          <path class="cls-3" d="m70.64,29.62v-8.08h1.98v2.7h2.13c1.08,0,1.89.23,2.43.68.54.45.82,1.11.82,1.96,0,.55-.13,1.04-.38,1.45-.26.41-.63.73-1.11.95-.49.22-1.07.34-1.75.34h-4.11Zm1.98-1.31h1.86c.54,0,.96-.11,1.25-.34s.43-.58.43-1.05-.14-.81-.42-1.03c-.28-.22-.7-.33-1.26-.33h-1.86v2.75Z"/>
          <path class="cls-3" d="m84.05,29.62v-8.08h1.98v3.17h3.65v-3.17h1.98v8.08h-1.98v-3.38h-3.65v3.38h-1.98Z"/>
          <path class="cls-3" d="m97.12,29.78c-.7,0-1.32-.17-1.86-.5s-.95-.82-1.25-1.45c-.3-.63-.45-1.38-.45-2.26s.15-1.62.45-2.25.71-1.1,1.25-1.44,1.15-.5,1.86-.5,1.28.17,1.8.5.86.79,1.03,1.35h-.18l.18-1.7h1.92c-.03.33-.06.67-.09,1.01-.03.34-.04.68-.04,1.01v6.06h-1.98l-.02-1.66h.19c-.17.55-.52,1-1.04,1.33-.52.33-1.11.5-1.78.5Zm.56-1.54c.63,0,1.14-.22,1.52-.66.38-.44.58-1.11.58-2.01s-.19-1.56-.58-2c-.38-.44-.89-.66-1.52-.66s-1.14.22-1.52.66c-.38.44-.58,1.1-.58,2s.19,1.57.57,2.01c.38.44.89.66,1.53.66Z"/>
          <path class="cls-3" d="m108.47,29.62v-8.08h7.57v8.08h-1.98v-6.54h-3.6v6.54h-1.98Z"/>
          <path class="cls-3" d="m118.1,29.85l-.62-1.57c.35-.13.65-.3.89-.5.24-.21.43-.47.58-.8.14-.33.25-.73.31-1.22.06-.49.1-1.06.1-1.74v-2.48h6.43v8.08h-1.98v-6.54h-2.62v1.01c0,1.16-.11,2.14-.32,2.92-.21.78-.54,1.41-.99,1.86-.45.46-1.04.78-1.76.98Z"/>
          <path class="cls-3" d="m132.02,29.78c-1.35,0-2.42-.37-3.18-1.12-.77-.75-1.15-1.77-1.15-3.07,0-.84.17-1.58.5-2.21.33-.63.79-1.12,1.38-1.47.59-.35,1.28-.53,2.07-.53s1.43.17,1.95.5c.52.33.92.79,1.19,1.39.27.6.41,1.3.41,2.1v.53h-5.89v-1.06h4.46l-.27.22c0-.75-.16-1.32-.47-1.71-.31-.39-.77-.59-1.37-.59-.66,0-1.17.23-1.53.7-.36.47-.54,1.13-.54,1.97v.21c0,.87.22,1.53.65,1.96s1.04.65,1.83.65c.46,0,.89-.06,1.29-.18.4-.12.78-.32,1.14-.6l.59,1.34c-.38.31-.84.55-1.38.72s-1.1.26-1.7.26Zm-2.82-9.71v-1.84h1.84v1.84h-1.84Zm3.02,0v-1.84h1.84v1.84h-1.84Z"/>
          <path class="cls-3" d="m137.04,29.62v-8.08h1.98v3.17h3.65v-3.17h1.98v8.08h-1.98v-3.38h-3.65v3.38h-1.98Z"/>
          <path class="cls-3" d="m146.93,29.62v-8.08h1.98v3.17h1.22l2.37-3.17h2.14l-2.98,4.03-.43-.62c.3.03.56.11.79.24.23.13.45.31.66.54s.41.52.62.87l1.7,3.02h-2.13l-1.38-2.43c-.14-.25-.28-.44-.42-.58s-.29-.23-.46-.29c-.17-.05-.38-.08-.62-.08h-1.07v3.38h-1.98Z"/>
          <path class="cls-3" d="m160.02,29.78c-1.35,0-2.42-.37-3.18-1.12-.77-.75-1.15-1.77-1.15-3.07,0-.84.17-1.58.5-2.21.33-.63.79-1.12,1.38-1.47.59-.35,1.28-.53,2.07-.53s1.43.17,1.95.5c.52.33.92.79,1.19,1.39.27.6.41,1.3.41,2.1v.53h-5.89v-1.06h4.46l-.27.22c0-.75-.16-1.32-.47-1.71-.31-.39-.77-.59-1.37-.59-.66,0-1.17.23-1.53.7-.36.47-.54,1.13-.54,1.97v.21c0,.87.22,1.53.65,1.96s1.04.65,1.83.65c.46,0,.89-.06,1.29-.18.4-.12.78-.32,1.14-.6l.59,1.34c-.38.31-.84.55-1.38.72s-1.1.26-1.7.26Z"/>
        </g>
      </g>
    </g>
  </g>
</svg>