<?xml version="1.0" encoding="UTF-8"?>
<svg id="_Слой_2" data-name="Слой 2" xmlns="http://www.w3.org/2000/svg" viewBox="0 0 938.93 105.7">
  <defs>
    <style>
      .cls-1 {
        font-family: Mulish-Bold, Mulish;
        font-weight: 700;
      }

      .cls-1, .cls-2 {
        fill: #27625f;
        font-size: 16px;
      }

      .cls-3 {
        fill: #fff;
      }

      .cls-3, .cls-4 {
        stroke: #a0b6b5;
        stroke-miterlimit: 10;
      }

      .cls-5 {
        letter-spacing: 0em;
      }

      .cls-6 {
        letter-spacing: 0em;
      }

      .cls-2 {
        font-family: Mulish-SemiBold, Mulish;
        font-weight: 600;
      }

      .cls-7 {
        letter-spacing: 0em;
      }

      .cls-8 {
        letter-spacing: 0em;
      }

      .cls-9 {
        letter-spacing: 0em;
      }

      .cls-4 {
        fill: none;
      }
    </style>
  </defs>
  <g id="_Слой_1-2" data-name="Слой 1">
    <g>
      <g>
        <rect class="cls-3" x=".5" y=".5" width="937.93" height="104.7" rx="10" ry="10"/>
        <line class="cls-4" x1="938.25" y1="70.3" x2=".68" y2="70.3"/>
        <line class="cls-4" x1="938.25" y1="35.4" x2=".68" y2="35.4"/>
        <line class="cls-4" x1="138.24" y1="35.4" x2="138.24" y2="105.2"/>
        <line class="cls-4" x1="343.28" y1="35.4" x2="343.28" y2="105.2"/>
        <line class="cls-4" x1="546.76" y1="35.4" x2="546.76" y2="105.2"/>
        <line class="cls-4" x1="644.68" y1="35.4" x2="644.68" y2="105.2"/>
        <line class="cls-4" x1="742.59" y1="35.4" x2="742.59" y2="105.2"/>
        <line class="cls-4" x1="840.51" y1="35.4" x2="840.51" y2="105.2"/>
      </g>
      <g>
        <text class="cls-1" transform="translate(38.39 57.94)"><tspan x="0" y="0">Формат</tspan></text>
        <text class="cls-1" transform="translate(12.71 22.04)"><tspan x="0" y="0">Ст</tspan><tspan class="cls-7" x="18.7" y="0">р</tspan><tspan x="28.72" y="0">уйная печать фо</tspan><tspan class="cls-8" x="163.93" y="0">т</tspan><tspan x="171.6" y="0">ографий</tspan></text>
        <text class="cls-1" transform="translate(49.01 92.38)"><tspan x="0" y="0">Цена</tspan></text>
        <text class="cls-2" transform="translate(206.39 92.38)"><tspan x="0" y="0">12 </tspan><tspan class="cls-9" x="23.47" y="0">р</tspan><tspan x="33.3" y="0">уб</tspan></text>
        <text class="cls-2" transform="translate(413.47 92.38)"><tspan x="0" y="0">10 </tspan><tspan class="cls-9" x="23.47" y="0">р</tspan><tspan x="33.3" y="0">уб</tspan></text>
        <text class="cls-2" transform="translate(569.47 92.38)"><tspan x="0" y="0">20 </tspan><tspan class="cls-9" x="23.47" y="0">р</tspan><tspan x="33.3" y="0">уб</tspan></text>
        <text class="cls-2" transform="translate(666.68 92.38)"><tspan x="0" y="0">30 </tspan><tspan class="cls-9" x="23.47" y="0">р</tspan><tspan x="33.3" y="0">уб</tspan></text>
        <text class="cls-2" transform="translate(765.16 92.38)"><tspan x="0" y="0">60 </tspan><tspan class="cls-9" x="23.47" y="0">р</tspan><tspan x="33.3" y="0">уб</tspan></text>
        <text class="cls-2" transform="translate(856.36 92.38)"><tspan x="0" y="0">300 </tspan><tspan class="cls-6" x="33.07" y="0">р</tspan><tspan class="cls-5" x="42.9" y="0">уб</tspan></text>
        <text class="cls-1" transform="translate(174.95 58.1)"><tspan x="0" y="0">10х15 (1-11 шт)</tspan></text>
        <text class="cls-1" transform="translate(383.43 58.26)"><tspan x="0" y="0">10х15 (&lt;11 шт)</tspan></text>
        <text class="cls-1" transform="translate(571.56 58.26)"><tspan x="0" y="0">13х18</tspan></text>
        <text class="cls-1" transform="translate(667.56 58.26)"><tspan x="0" y="0">15х20</tspan></text>
        <text class="cls-1" transform="translate(766.17 58.26)"><tspan x="0" y="0">20х30</tspan></text>
        <text class="cls-1" transform="translate(876.22 58.42)"><tspan x="0" y="0">3х4</tspan></text>
      </g>
    </g>
  </g>
</svg>