<?xml version="1.0" encoding="UTF-8"?>
<svg id="_Слой_2" data-name="Слой 2" xmlns="http://www.w3.org/2000/svg" viewBox="0 0 938.93 105.7">
  <defs>
    <style>
      .cls-1 {
        fill: #fff;
      }

      .cls-1, .cls-2 {
        stroke: #a0b6b5;
        stroke-miterlimit: 10;
      }

      .cls-3 {
        fill: #27625f;
        stroke-width: 0px;
      }

      .cls-2 {
        fill: none;
      }
    </style>
  </defs>
  <g id="_Слой_1-2" data-name="Слой 1">
    <g>
      <g>
        <rect class="cls-1" x=".5" y=".5" width="937.93" height="104.7" rx="10" ry="10"/>
        <line class="cls-2" x1="938.25" y1="70.3" x2=".68" y2="70.3"/>
        <line class="cls-2" x1="938.25" y1="35.4" x2=".68" y2="35.4"/>
        <line class="cls-2" x1="138.24" y1="35.4" x2="138.24" y2="105.2"/>
        <line class="cls-2" x1="343.28" y1="35.4" x2="343.28" y2="105.2"/>
        <line class="cls-2" x1="546.76" y1="35.4" x2="546.76" y2="105.2"/>
        <line class="cls-2" x1="644.68" y1="35.4" x2="644.68" y2="105.2"/>
        <line class="cls-2" x1="742.59" y1="35.4" x2="742.59" y2="105.2"/>
        <line class="cls-2" x1="840.51" y1="35.4" x2="840.51" y2="105.2"/>
      </g>
      <g>
        <g>
          <path class="cls-3" d="m44.61,58.34v-1.66l.51.38h-.45c-1.12,0-2.08-.19-2.9-.58-.81-.38-1.43-.94-1.86-1.66s-.65-1.59-.65-2.62c0-1.56.47-2.75,1.42-3.59.95-.84,2.28-1.26,3.99-1.26h.45l-.51.38v-1.57h2.05v1.57l-.51-.38h.45c1.72,0,3.05.42,4,1.26s1.42,2.04,1.42,3.59c0,1.02-.22,1.9-.66,2.62-.44.72-1.06,1.27-1.86,1.66-.8.38-1.77.58-2.9.58h-.45l.51-.38v1.66h-2.05Zm.02-2.48v-7.3l.43.35h-.59c-.94,0-1.69.27-2.26.82-.57.55-.86,1.37-.86,2.47,0,.71.13,1.32.4,1.81.27.49.63.86,1.1,1.11.47.25,1.01.38,1.62.38h.59l-.43.35Zm2.03,0l-.45-.35h.61c.61,0,1.15-.12,1.62-.38.47-.25.83-.62,1.1-1.11.26-.49.39-1.09.39-1.81,0-1.1-.28-1.92-.85-2.47-.57-.55-1.32-.82-2.26-.82h-.61l.45-.35v7.3Z"/>
          <path class="cls-3" d="m57.75,58.1c-.83,0-1.55-.17-2.16-.51-.61-.34-1.08-.83-1.42-1.46s-.5-1.38-.5-2.24.17-1.61.5-2.23.81-1.11,1.42-1.45c.61-.34,1.33-.51,2.16-.51s1.55.17,2.17.51,1.09.82,1.42,1.45.5,1.37.5,2.23-.17,1.61-.5,2.24-.81,1.12-1.42,1.46-1.34.51-2.17.51Zm0-1.54c.63,0,1.13-.22,1.5-.66.37-.44.56-1.11.56-2.01s-.19-1.56-.56-2-.88-.66-1.5-.66-1.13.22-1.5.66-.56,1.1-.56,2,.19,1.57.56,2.01c.37.44.88.66,1.5.66Z"/>
          <path class="cls-3" d="m63.8,61.4v-9.52c0-.33-.01-.67-.03-1.01s-.05-.68-.1-1.01h1.94l.18,1.7h-.18c.16-.56.5-1.02,1.02-1.35s1.12-.5,1.8-.5,1.34.17,1.87.5c.53.34.95.82,1.25,1.44.3.62.45,1.37.45,2.25s-.15,1.63-.45,2.26c-.3.63-.71,1.11-1.25,1.45-.53.34-1.16.5-1.87.5-.67,0-1.26-.17-1.78-.5-.51-.33-.85-.77-1.02-1.33h.18v5.12h-2Zm4.06-4.83c.64,0,1.15-.22,1.54-.66.38-.44.58-1.11.58-2.01s-.19-1.56-.58-2-.9-.66-1.54-.66-1.14.22-1.52.66c-.38.44-.58,1.1-.58,2s.19,1.57.58,2.01c.38.44.89.66,1.52.66Z"/>
          <path class="cls-3" d="m73.88,57.94v-8.08h1.66l2.79,4.83,2.78-4.83h1.66v8.08h-1.76v-5.84h.37l-2.59,4.53h-.93l-2.59-4.53h.37v5.84h-1.76Z"/>
          <path class="cls-3" d="m88.23,58.1c-.7,0-1.32-.17-1.86-.5-.53-.34-.95-.82-1.25-1.45-.3-.63-.45-1.38-.45-2.26s.15-1.62.45-2.25c.3-.62.71-1.1,1.25-1.44s1.15-.5,1.86-.5,1.28.17,1.8.5.86.79,1.03,1.35h-.18l.18-1.7h1.92c-.03.33-.06.67-.09,1.01-.03.34-.04.68-.04,1.01v6.06h-1.98l-.02-1.66h.19c-.17.55-.52,1-1.04,1.33-.52.33-1.11.5-1.78.5Zm.56-1.54c.63,0,1.14-.22,1.52-.66.38-.44.58-1.11.58-2.01s-.19-1.56-.58-2c-.38-.44-.89-.66-1.52-.66s-1.14.22-1.52.66c-.38.44-.58,1.1-.58,2s.19,1.57.57,2.01c.38.44.89.66,1.53.66Z"/>
          <path class="cls-3" d="m96.93,57.94v-6.51h-2.77v-1.57h7.54v1.57h-2.78v6.51h-1.98Z"/>
        </g>
        <g>
          <path class="cls-3" d="m19.2,22.2c-1.17,0-2.18-.24-3.02-.71-.84-.47-1.48-1.15-1.93-2.02-.45-.87-.67-1.9-.67-3.08s.22-2.21.67-3.07c.45-.86,1.09-1.53,1.93-2.01.84-.47,1.84-.71,3.02-.71.79,0,1.5.11,2.14.34.63.22,1.18.55,1.64.99l-.67,1.63c-.5-.4-.98-.7-1.45-.87-.46-.18-.99-.26-1.59-.26-1.14,0-2.01.34-2.62,1.03-.6.69-.9,1.67-.9,2.94s.3,2.25.9,2.94c.6.69,1.47,1.04,2.62,1.04.6,0,1.13-.09,1.59-.26.46-.18.95-.47,1.45-.89l.67,1.63c-.46.43-1.01.76-1.64.99s-1.35.35-2.14.35Z"/>
          <path class="cls-3" d="m26.55,22.04v-6.51h-2.77v-1.57h7.54v1.57h-2.78v6.51h-1.98Z"/>
          <path class="cls-3" d="m32.61,25.49v-9.52c0-.33-.01-.67-.03-1.01-.02-.34-.05-.68-.1-1.01h1.94l.18,1.7h-.18c.16-.57.5-1.02,1.02-1.35.52-.34,1.12-.5,1.8-.5s1.34.17,1.87.5c.53.34.95.82,1.25,1.44.3.62.45,1.37.45,2.25s-.15,1.63-.45,2.26c-.3.63-.71,1.11-1.25,1.45-.53.34-1.16.5-1.87.5-.67,0-1.26-.17-1.78-.5s-.85-.77-1.02-1.33h.18v5.12h-2Zm4.06-4.83c.64,0,1.15-.22,1.54-.66s.58-1.11.58-2.01-.19-1.56-.58-2-.9-.66-1.54-.66-1.14.22-1.52.66-.58,1.1-.58,2,.19,1.57.58,2.01.89.66,1.52.66Z"/>
          <path class="cls-3" d="m42.47,25.67l-.46-1.58c.5-.11.92-.23,1.26-.37s.62-.32.85-.54c.22-.22.41-.51.56-.87l.4-.94-.05.78-3.52-8.19h2.13l2.53,6.3h-.46l2.54-6.3h2.02l-3.68,8.53c-.25.58-.51,1.05-.8,1.43-.29.38-.6.68-.93.91s-.69.41-1.09.54-.83.23-1.3.3Z"/>
          <path class="cls-3" d="m51.48,22.04v-8.08h1.81v6.11h-.48l4.59-6.11h1.65v8.08h-1.81v-6.13h.5l-4.61,6.13h-1.65Zm3.78-8.82c-.53,0-1-.09-1.41-.26s-.74-.43-1.01-.75c-.27-.33-.46-.71-.58-1.16l1.02-.35c.18.49.43.85.75,1.08.32.23.73.34,1.23.34s.91-.11,1.23-.34c.32-.22.58-.58.78-1.07l.98.34c-.22.71-.59,1.26-1.11,1.62s-1.15.55-1.9.55Z"/>
          <path class="cls-3" d="m61.32,22.04v-8.08h1.98v3.17h3.65v-3.17h1.98v8.08h-1.98v-3.38h-3.65v3.38h-1.98Z"/>
          <path class="cls-3" d="m74.39,22.2c-.7,0-1.32-.17-1.86-.5s-.95-.82-1.25-1.45-.45-1.38-.45-2.26.15-1.62.45-2.25.71-1.1,1.25-1.44,1.15-.5,1.86-.5,1.28.17,1.8.5.86.79,1.03,1.35h-.18l.18-1.7h1.92c-.03.33-.06.67-.09,1.01-.03.34-.04.68-.04,1.01v6.06h-1.98l-.02-1.66h.19c-.17.55-.52,1-1.04,1.33s-1.11.5-1.78.5Zm.56-1.54c.63,0,1.14-.22,1.52-.66.38-.44.58-1.11.58-2.01s-.19-1.56-.58-2c-.38-.44-.89-.66-1.52-.66s-1.14.22-1.52.66c-.38.44-.58,1.1-.58,2s.19,1.57.57,2.01c.38.44.89.66,1.53.66Z"/>
          <path class="cls-3" d="m80.67,22.04l1.23-2.13c.21-.36.48-.65.79-.87.31-.22.64-.33.98-.33h.35l-.02.18c-.95,0-1.68-.21-2.19-.62-.51-.42-.77-1.02-.77-1.82s.26-1.4.79-1.83c.53-.43,1.3-.65,2.33-.65h4.02v8.08h-1.82v-2.85h-.91c-.33,0-.62.09-.87.27s-.46.42-.63.7l-1.06,1.87h-2.22Zm3.89-4.14h1.81v-2.64h-1.81c-.54,0-.95.12-1.22.35-.27.23-.41.55-.41.96,0,.43.14.76.41.98.27.23.68.34,1.22.34Z"/>
          <path class="cls-3" d="m94.85,22.04v-8.08h7.57v8.08h-1.98v-6.54h-3.6v6.54h-1.98Z"/>
          <path class="cls-3" d="m108.66,22.2c-1.35,0-2.42-.37-3.18-1.12-.77-.75-1.15-1.77-1.15-3.07,0-.84.17-1.58.5-2.21.33-.63.79-1.12,1.38-1.47.59-.35,1.28-.53,2.07-.53s1.43.17,1.95.5c.52.33.92.79,1.19,1.39.27.6.41,1.29.41,2.1v.53h-5.89v-1.06h4.46l-.27.22c0-.75-.16-1.32-.47-1.71-.31-.39-.77-.59-1.37-.59-.66,0-1.17.23-1.53.7-.36.47-.54,1.12-.54,1.97v.21c0,.88.22,1.53.65,1.96s1.04.65,1.83.65c.46,0,.89-.06,1.29-.18.4-.12.78-.32,1.14-.6l.59,1.34c-.38.31-.84.55-1.38.72-.53.17-1.1.26-1.7.26Z"/>
          <path class="cls-3" d="m118.82,22.04v-2.94c-.3.14-.61.24-.93.32-.32.08-.66.11-1.01.11-1.18,0-2.07-.28-2.65-.85-.58-.57-.87-1.41-.87-2.53v-2.19h1.98v2.02c0,.68.15,1.18.45,1.48s.78.46,1.44.46c.31,0,.59-.03.83-.1.25-.06.48-.16.7-.3v-3.55h1.98v8.08h-1.94Z"/>
          <path class="cls-3" d="m126.21,22.2c-.7,0-1.32-.17-1.86-.5s-.95-.82-1.25-1.45-.45-1.38-.45-2.26.15-1.62.45-2.25.71-1.1,1.25-1.44,1.15-.5,1.86-.5,1.28.17,1.8.5.86.79,1.03,1.35h-.18l.18-1.7h1.92c-.03.33-.06.67-.09,1.01-.03.34-.04.68-.04,1.01v6.06h-1.98l-.02-1.66h.19c-.17.55-.52,1-1.04,1.33s-1.11.5-1.78.5Zm.56-1.54c.63,0,1.14-.22,1.52-.66.38-.44.58-1.11.58-2.01s-.19-1.56-.58-2c-.38-.44-.89-.66-1.52-.66s-1.14.22-1.52.66c-.38.44-.58,1.1-.58,2s.19,1.57.57,2.01c.38.44.89.66,1.53.66Z"/>
          <path class="cls-3" d="m134.91,22.04v-6.51h-2.77v-1.57h7.54v1.57h-2.78v6.51h-1.98Z"/>
          <path class="cls-3" d="m140.91,22.04v-8.08h1.98v2.7h2.13c1.08,0,1.89.23,2.43.68.54.45.82,1.11.82,1.96,0,.55-.13,1.04-.38,1.45s-.63.73-1.11.95-1.07.34-1.75.34h-4.11Zm1.98-1.31h1.86c.54,0,.96-.11,1.25-.34.29-.23.43-.58.43-1.05s-.14-.81-.42-1.03c-.28-.22-.7-.33-1.26-.33h-1.86v2.75Z"/>
          <path class="cls-3" d="m159.07,25.49v-5.02h.18c-.17.55-.46.98-.86,1.28-.4.3-.88.45-1.45.45s-1.11-.17-1.56-.52c-.45-.35-.81-.83-1.06-1.46-.26-.63-.38-1.37-.38-2.22s.12-1.61.38-2.23c.25-.62.6-1.11,1.06-1.45.45-.34.98-.51,1.58-.51.57,0,1.05.15,1.45.45.4.3.69.72.86,1.26h-.18v-5.25h1.98v5.25h-.18c.17-.54.46-.97.86-1.26.4-.3.88-.45,1.45-.45.6,0,1.12.17,1.58.51.45.34.8.82,1.06,1.45.25.62.38,1.37.38,2.23s-.12,1.59-.38,2.22c-.25.63-.6,1.12-1.06,1.46-.45.35-.98.52-1.58.52-.55,0-1.03-.15-1.43-.45-.4-.3-.69-.73-.87-1.28h.18v5.02h-1.98Zm-1.55-4.8c.49,0,.88-.22,1.16-.67.28-.45.42-1.12.42-2.03s-.14-1.57-.43-2.02-.67-.68-1.15-.68-.88.23-1.17.68-.43,1.13-.43,2.02.14,1.58.43,2.03c.29.45.68.67,1.17.67Zm5.09,0c.49,0,.88-.22,1.17-.67.29-.45.43-1.12.43-2.03s-.15-1.57-.44-2.02c-.29-.45-.68-.68-1.16-.68s-.88.23-1.16.68c-.28.45-.42,1.13-.42,2.02s.14,1.58.42,2.03c.28.45.67.67,1.16.67Z"/>
          <path class="cls-3" d="m171.79,22.2c-.83,0-1.55-.17-2.16-.51-.61-.34-1.08-.83-1.42-1.46-.34-.63-.5-1.38-.5-2.24s.17-1.61.5-2.23c.34-.62.81-1.11,1.42-1.45.61-.34,1.33-.51,2.16-.51s1.55.17,2.17.51c.61.34,1.09.82,1.42,1.45.34.62.5,1.37.5,2.23s-.17,1.61-.5,2.24c-.34.63-.81,1.12-1.42,1.46-.61.34-1.34.51-2.17.51Zm0-1.54c.63,0,1.13-.22,1.5-.66.37-.44.56-1.11.56-2.01s-.19-1.56-.56-2c-.37-.44-.87-.66-1.5-.66s-1.13.22-1.5.66-.56,1.1-.56,2,.19,1.57.56,2.01.88.66,1.5.66Z"/>
          <path class="cls-3" d="m179.52,22.04v-6.51h-2.77v-1.57h7.54v1.57h-2.78v6.51h-1.98Z"/>
          <path class="cls-3" d="m189.15,22.2c-.83,0-1.55-.17-2.16-.51-.61-.34-1.08-.83-1.42-1.46-.34-.63-.5-1.38-.5-2.24s.17-1.61.5-2.23c.34-.62.81-1.11,1.42-1.45.61-.34,1.33-.51,2.16-.51s1.55.17,2.17.51c.61.34,1.09.82,1.42,1.45.34.62.5,1.37.5,2.23s-.17,1.61-.5,2.24c-.34.63-.81,1.12-1.42,1.46-.61.34-1.34.51-2.17.51Zm0-1.54c.63,0,1.13-.22,1.5-.66.37-.44.56-1.11.56-2.01s-.19-1.56-.56-2c-.37-.44-.87-.66-1.5-.66s-1.13.22-1.5.66-.56,1.1-.56,2,.19,1.57.56,2.01.88.66,1.5.66Z"/>
          <path class="cls-3" d="m195.14,22.04v-8.08h6.06v1.57h-4.06v6.51h-2Z"/>
          <path class="cls-3" d="m202.67,25.49v-9.52c0-.33-.01-.67-.03-1.01-.02-.34-.05-.68-.1-1.01h1.94l.18,1.7h-.18c.16-.57.5-1.02,1.02-1.35.52-.34,1.12-.5,1.8-.5s1.34.17,1.87.5c.53.34.95.82,1.25,1.44.3.62.45,1.37.45,2.25s-.15,1.63-.45,2.26c-.3.63-.71,1.11-1.25,1.45-.53.34-1.16.5-1.87.5-.67,0-1.26-.17-1.78-.5s-.85-.77-1.02-1.33h.18v5.12h-2Zm4.06-4.83c.64,0,1.15-.22,1.54-.66s.58-1.11.58-2.01-.19-1.56-.58-2-.9-.66-1.54-.66-1.14.22-1.52.66-.58,1.1-.58,2,.19,1.57.58,2.01.89.66,1.52.66Z"/>
          <path class="cls-3" d="m215.94,22.2c-.7,0-1.32-.17-1.86-.5s-.95-.82-1.25-1.45-.45-1.38-.45-2.26.15-1.62.45-2.25.71-1.1,1.25-1.44,1.15-.5,1.86-.5,1.28.17,1.8.5.86.79,1.03,1.35h-.18l.18-1.7h1.92c-.03.33-.06.67-.09,1.01-.03.34-.04.68-.04,1.01v6.06h-1.98l-.02-1.66h.19c-.17.55-.52,1-1.04,1.33s-1.11.5-1.78.5Zm.56-1.54c.63,0,1.14-.22,1.52-.66.38-.44.58-1.11.58-2.01s-.19-1.56-.58-2c-.38-.44-.89-.66-1.52-.66s-1.14.22-1.52.66c-.38.44-.58,1.1-.58,2s.19,1.57.57,2.01c.38.44.89.66,1.53.66Z"/>
          <path class="cls-3" d="m227.65,25.49v-5.02h.18c-.17.55-.46.98-.86,1.28-.4.3-.88.45-1.45.45s-1.11-.17-1.56-.52c-.45-.35-.81-.83-1.06-1.46-.26-.63-.38-1.37-.38-2.22s.12-1.61.38-2.23c.25-.62.6-1.11,1.06-1.45.45-.34.98-.51,1.58-.51.57,0,1.05.15,1.45.45.4.3.69.72.86,1.26h-.18v-5.25h1.98v5.25h-.18c.17-.54.46-.97.86-1.26.4-.3.88-.45,1.45-.45.6,0,1.12.17,1.58.51.45.34.8.82,1.06,1.45.25.62.38,1.37.38,2.23s-.12,1.59-.38,2.22c-.25.63-.6,1.12-1.06,1.46-.45.35-.98.52-1.58.52-.55,0-1.03-.15-1.43-.45-.4-.3-.69-.73-.87-1.28h.18v5.02h-1.98Zm-1.55-4.8c.49,0,.88-.22,1.16-.67.28-.45.42-1.12.42-2.03s-.14-1.57-.43-2.02-.67-.68-1.15-.68-.88.23-1.17.68-.43,1.13-.43,2.02.14,1.58.43,2.03c.29.45.68.67,1.17.67Zm5.09,0c.49,0,.88-.22,1.17-.67.29-.45.43-1.12.43-2.03s-.15-1.57-.44-2.02c-.29-.45-.68-.68-1.16-.68s-.88.23-1.16.68c-.28.45-.42,1.13-.42,2.02s.14,1.58.42,2.03c.28.45.67.67,1.16.67Z"/>
          <path class="cls-3" d="m236.66,22.04v-8.08h1.81v6.11h-.48l4.59-6.11h1.65v8.08h-1.81v-6.13h.5l-4.61,6.13h-1.65Z"/>
          <path class="cls-3" d="m246.5,22.04v-8.08h1.81v6.11h-.48l4.59-6.11h1.65v8.08h-1.81v-6.13h.5l-4.61,6.13h-1.65Zm3.78-8.82c-.53,0-1-.09-1.41-.26s-.74-.43-1.01-.75c-.27-.33-.46-.71-.58-1.16l1.02-.35c.18.49.43.85.75,1.08.32.23.73.34,1.23.34s.91-.11,1.23-.34c.32-.22.58-.58.78-1.07l.98.34c-.22.71-.59,1.26-1.11,1.62s-1.15.55-1.9.55Z"/>
        </g>
        <g>
          <path class="cls-3" d="m59.97,95.02v-2.64h-9.71v-11.28h2.03v9.58h5.79v-9.58h2.05v9.58h1.65v4.34h-1.81Z"/>
          <path class="cls-3" d="m67.25,92.54c-1.36,0-2.42-.37-3.18-1.12s-1.15-1.77-1.15-3.07c0-.84.16-1.58.5-2.21.33-.63.79-1.12,1.38-1.47.59-.35,1.28-.53,2.07-.53s1.43.17,1.95.5.92.79,1.19,1.39c.27.6.41,1.3.41,2.1v.53h-5.89v-1.06h4.46l-.27.22c0-.75-.16-1.32-.47-1.71-.32-.39-.77-.59-1.37-.59-.66,0-1.17.23-1.53.7s-.54,1.13-.54,1.97v.21c0,.87.22,1.53.65,1.96s1.04.65,1.83.65c.46,0,.89-.06,1.29-.18.4-.12.78-.32,1.14-.6l.59,1.34c-.38.31-.84.55-1.38.72-.53.17-1.1.26-1.7.26Z"/>
          <path class="cls-3" d="m72.28,92.38v-8.08h1.98v3.17h3.65v-3.17h1.98v8.08h-1.98v-3.38h-3.65v3.38h-1.98Z"/>
          <path class="cls-3" d="m85.35,92.54c-.7,0-1.32-.17-1.86-.5-.53-.34-.95-.82-1.25-1.45-.3-.63-.45-1.38-.45-2.26s.15-1.62.45-2.25c.3-.62.71-1.1,1.25-1.44s1.15-.5,1.86-.5,1.28.17,1.8.5.86.79,1.03,1.35h-.18l.18-1.7h1.92c-.03.33-.06.67-.09,1.01-.03.34-.04.68-.04,1.01v6.06h-1.98l-.02-1.66h.19c-.17.55-.52,1-1.04,1.33s-1.11.5-1.78.5Zm.56-1.54c.63,0,1.14-.22,1.52-.66.38-.44.58-1.11.58-2.01s-.19-1.56-.58-2c-.38-.44-.89-.66-1.52-.66s-1.14.22-1.52.66-.58,1.1-.58,2,.19,1.57.57,2.01c.38.44.89.66,1.53.66Z"/>
        </g>
        <g>
          <path class="cls-3" d="m208.31,92.38v-1.39h2.62v-8.48h.83l-3.2,1.95v-1.6l2.83-1.76h1.2v9.89h2.46v1.39h-6.75Z"/>
          <path class="cls-3" d="m217.32,92.38v-1.23l3.87-4.05c.5-.52.87-1.01,1.12-1.47.25-.46.37-.93.37-1.42,0-.61-.19-1.07-.57-1.38-.38-.31-.93-.46-1.64-.46-.57,0-1.1.1-1.59.3s-.97.51-1.43.93l-.58-1.26c.45-.42,1-.75,1.67-1,.67-.25,1.37-.38,2.12-.38,1.17,0,2.08.27,2.71.8s.95,1.3.95,2.29c0,.7-.17,1.38-.51,2.02-.34.64-.85,1.31-1.54,1.99l-3.34,3.38v-.45h5.86v1.39h-7.47Z"/>
          <path class="cls-3" d="m231.14,95.83v-9.58c0-.31-.01-.63-.04-.95-.03-.33-.06-.65-.09-.98h1.57l.16,1.82h-.18c.17-.61.51-1.09,1.03-1.44.52-.35,1.13-.53,1.85-.53s1.34.17,1.87.5c.53.34.95.81,1.24,1.43.29.62.44,1.37.44,2.24s-.15,1.61-.44,2.24c-.29.63-.71,1.11-1.24,1.44-.53.33-1.16.5-1.87.5s-1.32-.17-1.83-.52c-.52-.35-.86-.82-1.03-1.42h.18v5.25h-1.62Zm3.9-4.58c.7,0,1.27-.25,1.69-.74.42-.49.63-1.21.63-2.18s-.21-1.68-.63-2.17c-.42-.48-.98-.73-1.69-.73s-1.27.24-1.69.73c-.42.49-.63,1.21-.63,2.17s.21,1.69.63,2.18c.42.49.98.74,1.69.74Z"/>
          <path class="cls-3" d="m240.72,96.01l-.38-1.31c.5-.11.92-.23,1.26-.38.34-.15.62-.34.84-.58.22-.24.42-.55.58-.92l.4-.95-.03.66-3.5-8.21h1.73l2.72,6.72h-.43l2.72-6.72h1.66l-3.7,8.64c-.23.53-.49.98-.75,1.34s-.55.66-.86.88c-.31.22-.65.4-1.02.53-.37.13-.78.23-1.22.3Z"/>
          <path class="cls-3" d="m253.25,92.52c-1.22,0-2.18-.38-2.9-1.14-.72-.76-1.08-1.87-1.08-3.34v-1.39c0-1.5.32-2.71.97-3.63.65-.92,1.65-1.54,3-1.86l2.94-.7.46,1.3-3.3.77c-.58.13-1.05.37-1.42.72-.37.35-.65.77-.84,1.25-.19.48-.28.99-.28,1.54v.74h-.24c.13-.49.33-.91.62-1.26.28-.35.63-.62,1.06-.82.42-.2.89-.29,1.42-.29.69,0,1.3.16,1.82.48.52.32.93.78,1.22,1.38.29.6.44,1.31.44,2.14s-.16,1.59-.48,2.21c-.32.62-.77,1.09-1.35,1.42-.58.33-1.27.5-2.06.5Zm-.05-1.25c.73,0,1.29-.24,1.7-.71.41-.47.62-1.18.62-2.1s-.21-1.62-.62-2.1c-.42-.48-.98-.72-1.7-.72s-1.28.24-1.7.71-.62,1.15-.62,2.02c0,.96.21,1.68.62,2.17.41.49.98.73,1.7.73Z"/>
        </g>
        <g>
          <path class="cls-3" d="m415.39,92.38v-1.39h2.62v-8.48h.83l-3.2,1.95v-1.6l2.83-1.76h1.2v9.89h2.46v1.39h-6.75Z"/>
          <path class="cls-3" d="m427.87,92.52c-1.3,0-2.3-.5-3-1.5-.7-1-1.05-2.43-1.05-4.29s.35-3.34,1.05-4.31c.7-.98,1.7-1.46,3-1.46s2.31.49,3.01,1.46c.69.98,1.04,2.41,1.04,4.3s-.35,3.32-1.05,4.31c-.7,1-1.7,1.5-3,1.5Zm0-1.39c.82,0,1.43-.36,1.83-1.07.4-.71.6-1.83.6-3.34s-.2-2.64-.6-3.34c-.4-.7-1.01-1.05-1.83-1.05s-1.42.35-1.82,1.05c-.41.7-.61,1.81-.61,3.32s.21,2.65.62,3.36c.41.71,1.02,1.07,1.82,1.07Z"/>
          <path class="cls-3" d="m438.22,95.83v-9.58c0-.31-.01-.63-.04-.95s-.06-.65-.09-.98h1.57l.16,1.82h-.18c.17-.61.51-1.09,1.03-1.44.52-.35,1.13-.53,1.85-.53s1.34.17,1.87.5.95.81,1.24,1.43c.29.62.44,1.37.44,2.24s-.15,1.61-.44,2.24c-.29.63-.71,1.11-1.24,1.44-.53.33-1.16.5-1.87.5s-1.31-.17-1.83-.52-.86-.82-1.03-1.42h.18v5.25h-1.62Zm3.9-4.58c.7,0,1.27-.25,1.69-.74.42-.49.63-1.21.63-2.18s-.21-1.68-.63-2.17c-.42-.48-.98-.73-1.69-.73s-1.27.24-1.69.73c-.42.49-.63,1.21-.63,2.17s.21,1.69.63,2.18c.42.49.98.74,1.69.74Z"/>
          <path class="cls-3" d="m447.8,96.01l-.38-1.31c.5-.11.92-.23,1.26-.38.34-.15.62-.34.84-.58.22-.24.42-.55.58-.92l.4-.95-.03.66-3.5-8.21h1.73l2.72,6.72h-.43l2.72-6.72h1.66l-3.7,8.64c-.24.53-.49.98-.75,1.34s-.55.66-.86.88c-.31.22-.65.4-1.02.53-.37.13-.78.23-1.22.3Z"/>
          <path class="cls-3" d="m460.33,92.52c-1.22,0-2.18-.38-2.9-1.14-.72-.76-1.08-1.87-1.08-3.34v-1.39c0-1.5.32-2.71.97-3.63.65-.92,1.65-1.54,3-1.86l2.94-.7.46,1.3-3.3.77c-.58.13-1.05.37-1.42.72-.37.35-.65.77-.84,1.25-.19.48-.28.99-.28,1.54v.74h-.24c.13-.49.33-.91.62-1.26.28-.35.63-.62,1.06-.82.42-.2.89-.29,1.42-.29.69,0,1.3.16,1.82.48.52.32.93.78,1.22,1.38.29.6.44,1.31.44,2.14s-.16,1.59-.48,2.21c-.32.62-.77,1.09-1.35,1.42-.58.33-1.27.5-2.06.5Zm-.05-1.25c.73,0,1.29-.24,1.7-.71.41-.47.62-1.18.62-2.1s-.21-1.62-.62-2.1c-.42-.48-.98-.72-1.7-.72s-1.28.24-1.7.71-.62,1.15-.62,2.02c0,.96.21,1.68.62,2.17.41.49.98.73,1.7.73Z"/>
        </g>
        <g>
          <path class="cls-3" d="m570.8,92.38v-1.23l3.87-4.05c.5-.52.87-1.01,1.12-1.47.25-.46.37-.93.37-1.42,0-.61-.19-1.07-.57-1.38-.38-.31-.93-.46-1.64-.46-.57,0-1.1.1-1.59.3s-.97.51-1.43.93l-.58-1.26c.45-.42,1-.75,1.67-1,.67-.25,1.37-.38,2.12-.38,1.17,0,2.08.27,2.71.8s.95,1.3.95,2.29c0,.7-.17,1.38-.51,2.02-.34.64-.85,1.31-1.54,1.99l-3.34,3.38v-.45h5.86v1.39h-7.47Z"/>
          <path class="cls-3" d="m583.87,92.52c-1.3,0-2.3-.5-3-1.5-.7-1-1.05-2.43-1.05-4.29s.35-3.34,1.05-4.31c.7-.98,1.7-1.46,3-1.46s2.31.49,3.01,1.46,1.04,2.41,1.04,4.3-.35,3.32-1.05,4.31c-.7,1-1.7,1.5-3,1.5Zm0-1.39c.82,0,1.43-.36,1.83-1.07.4-.71.6-1.83.6-3.34s-.2-2.64-.6-3.34-1.01-1.05-1.83-1.05-1.42.35-1.82,1.05-.61,1.81-.61,3.32.21,2.65.62,3.36c.41.71,1.02,1.07,1.82,1.07Z"/>
          <path class="cls-3" d="m594.22,95.83v-9.58c0-.31-.01-.63-.04-.95-.03-.33-.06-.65-.09-.98h1.57l.16,1.82h-.18c.17-.61.51-1.09,1.03-1.44.52-.35,1.13-.53,1.85-.53s1.34.17,1.87.5c.53.34.95.81,1.24,1.43.29.62.44,1.37.44,2.24s-.15,1.61-.44,2.24c-.29.63-.71,1.11-1.24,1.44-.53.33-1.16.5-1.87.5s-1.32-.17-1.83-.52c-.52-.35-.86-.82-1.03-1.42h.18v5.25h-1.62Zm3.9-4.58c.7,0,1.27-.25,1.69-.74.42-.49.63-1.21.63-2.18s-.21-1.68-.63-2.17c-.42-.48-.98-.73-1.69-.73s-1.27.24-1.69.73c-.42.49-.63,1.21-.63,2.17s.21,1.69.63,2.18c.42.49.98.74,1.69.74Z"/>
          <path class="cls-3" d="m603.8,96.01l-.38-1.31c.5-.11.92-.23,1.26-.38.34-.15.62-.34.84-.58.22-.24.42-.55.58-.92l.4-.95-.03.66-3.5-8.21h1.73l2.72,6.72h-.43l2.72-6.72h1.66l-3.7,8.64c-.23.53-.49.98-.75,1.34s-.55.66-.86.88c-.31.22-.65.4-1.02.53-.37.13-.78.23-1.22.3Z"/>
          <path class="cls-3" d="m616.33,92.52c-1.22,0-2.18-.38-2.9-1.14-.72-.76-1.08-1.87-1.08-3.34v-1.39c0-1.5.32-2.71.97-3.63.65-.92,1.65-1.54,3-1.86l2.94-.7.46,1.3-3.3.77c-.58.13-1.05.37-1.42.72-.37.35-.65.77-.84,1.25-.19.48-.28.99-.28,1.54v.74h-.24c.13-.49.33-.91.62-1.26.28-.35.63-.62,1.06-.82.42-.2.89-.29,1.42-.29.69,0,1.3.16,1.82.48.52.32.93.78,1.22,1.38.29.6.44,1.31.44,2.14s-.16,1.59-.48,2.21c-.32.62-.77,1.09-1.35,1.42-.58.33-1.27.5-2.06.5Zm-.05-1.25c.73,0,1.29-.24,1.7-.71.41-.47.62-1.18.62-2.1s-.21-1.62-.62-2.1c-.42-.48-.98-.72-1.7-.72s-1.28.24-1.7.71-.62,1.15-.62,2.02c0,.96.21,1.68.62,2.17.41.49.98.73,1.7.73Z"/>
        </g>
        <g>
          <path class="cls-3" d="m671.37,92.52c-.77,0-1.5-.11-2.21-.34-.7-.23-1.29-.56-1.76-.98l.58-1.26c.52.41,1.06.7,1.6.9.54.19,1.13.29,1.74.29.79,0,1.39-.16,1.8-.5.41-.33.62-.81.62-1.42s-.21-1.07-.62-1.38c-.41-.31-1.02-.47-1.82-.47h-1.74v-1.34h1.62c.68,0,1.23-.17,1.63-.52.41-.35.61-.82.61-1.42,0-.54-.19-.96-.56-1.26-.37-.29-.91-.44-1.6-.44-1.17,0-2.2.41-3.09,1.23l-.56-1.26c.44-.44.99-.78,1.66-1.02.67-.24,1.38-.36,2.11-.36,1.13,0,2.02.26,2.67.78.65.52.98,1.23.98,2.15,0,.69-.19,1.29-.58,1.78s-.92.82-1.59.98v-.18c.8.13,1.42.45,1.85.95.43.51.65,1.14.65,1.9,0,1-.35,1.79-1.06,2.36-.71.57-1.68.86-2.92.86Z"/>
          <path class="cls-3" d="m681.08,92.52c-1.3,0-2.3-.5-3-1.5-.7-1-1.05-2.43-1.05-4.29s.35-3.34,1.05-4.31c.7-.98,1.7-1.46,3-1.46s2.31.49,3.01,1.46,1.04,2.41,1.04,4.3-.35,3.32-1.05,4.31c-.7,1-1.7,1.5-3,1.5Zm0-1.39c.82,0,1.43-.36,1.83-1.07.4-.71.6-1.83.6-3.34s-.2-2.64-.6-3.34-1.01-1.05-1.83-1.05-1.42.35-1.82,1.05-.61,1.81-.61,3.32.21,2.65.62,3.36c.41.71,1.02,1.07,1.82,1.07Z"/>
          <path class="cls-3" d="m691.43,95.83v-9.58c0-.31-.01-.63-.04-.95-.03-.33-.06-.65-.09-.98h1.57l.16,1.82h-.18c.17-.61.51-1.09,1.03-1.44.52-.35,1.13-.53,1.85-.53s1.34.17,1.87.5c.53.34.95.81,1.24,1.43.29.62.44,1.37.44,2.24s-.15,1.61-.44,2.24c-.29.63-.71,1.11-1.24,1.44-.53.33-1.16.5-1.87.5s-1.32-.17-1.83-.52c-.52-.35-.86-.82-1.03-1.42h.18v5.25h-1.62Zm3.9-4.58c.7,0,1.27-.25,1.69-.74.42-.49.63-1.21.63-2.18s-.21-1.68-.63-2.17c-.42-.48-.98-.73-1.69-.73s-1.27.24-1.69.73c-.42.49-.63,1.21-.63,2.17s.21,1.69.63,2.18c.42.49.98.74,1.69.74Z"/>
          <path class="cls-3" d="m701.01,96.01l-.38-1.31c.5-.11.92-.23,1.26-.38.34-.15.62-.34.84-.58.22-.24.42-.55.58-.92l.4-.95-.03.66-3.5-8.21h1.73l2.72,6.72h-.43l2.72-6.72h1.66l-3.7,8.64c-.23.53-.49.98-.75,1.34s-.55.66-.86.88c-.31.22-.65.4-1.02.53-.37.13-.78.23-1.22.3Z"/>
          <path class="cls-3" d="m713.54,92.52c-1.22,0-2.18-.38-2.9-1.14-.72-.76-1.08-1.87-1.08-3.34v-1.39c0-1.5.32-2.71.97-3.63.65-.92,1.65-1.54,3-1.86l2.94-.7.46,1.3-3.3.77c-.58.13-1.05.37-1.42.72-.37.35-.65.77-.84,1.25-.19.48-.28.99-.28,1.54v.74h-.24c.13-.49.33-.91.62-1.26.28-.35.63-.62,1.06-.82.42-.2.89-.29,1.42-.29.69,0,1.3.16,1.82.48.52.32.93.78,1.22,1.38.29.6.44,1.31.44,2.14s-.16,1.59-.48,2.21c-.32.62-.77,1.09-1.35,1.42-.58.33-1.27.5-2.06.5Zm-.05-1.25c.73,0,1.29-.24,1.7-.71.41-.47.62-1.18.62-2.1s-.21-1.62-.62-2.1c-.42-.48-.98-.72-1.7-.72s-1.28.24-1.7.71-.62,1.15-.62,2.02c0,.96.21,1.68.62,2.17.41.49.98.73,1.7.73Z"/>
        </g>
        <g>
          <path class="cls-3" d="m770.34,92.52c-1.4,0-2.47-.48-3.22-1.46s-1.13-2.33-1.13-4.08c0-1.3.19-2.4.58-3.29.38-.89.93-1.57,1.64-2.04.71-.47,1.57-.7,2.57-.7.6,0,1.19.11,1.79.34s1.1.55,1.5.97l-.59,1.25c-.39-.38-.83-.67-1.3-.86-.47-.19-.94-.29-1.42-.29-1.04,0-1.82.36-2.37,1.08-.54.72-.82,1.79-.82,3.22v1.36h-.16c.08-.58.26-1.07.54-1.5.29-.42.66-.74,1.12-.97.46-.22.97-.34,1.54-.34.67,0,1.27.15,1.78.46.52.31.92.73,1.22,1.27s.45,1.16.45,1.85-.16,1.35-.48,1.92c-.32.56-.76,1-1.32,1.32-.56.32-1.2.47-1.93.47Zm-.1-1.34c.45,0,.84-.1,1.18-.29.34-.19.6-.46.79-.81.19-.35.29-.75.29-1.21s-.1-.86-.29-1.2c-.19-.34-.46-.61-.79-.81-.34-.2-.73-.29-1.18-.29s-.84.1-1.18.29c-.34.2-.61.47-.8.81-.19.34-.29.74-.29,1.2s.1.86.29,1.21c.19.35.46.62.8.81.34.19.74.29,1.18.29Z"/>
          <path class="cls-3" d="m779.56,92.52c-1.3,0-2.3-.5-3-1.5-.7-1-1.05-2.43-1.05-4.29s.35-3.34,1.05-4.31c.7-.98,1.7-1.46,3-1.46s2.31.49,3.01,1.46c.69.98,1.04,2.41,1.04,4.3s-.35,3.32-1.05,4.31c-.7,1-1.7,1.5-3,1.5Zm0-1.39c.82,0,1.43-.36,1.83-1.07.4-.71.6-1.83.6-3.34s-.2-2.64-.6-3.34c-.4-.7-1.01-1.05-1.83-1.05s-1.42.35-1.82,1.05c-.41.7-.61,1.81-.61,3.32s.21,2.65.62,3.36c.41.71,1.02,1.07,1.82,1.07Z"/>
          <path class="cls-3" d="m789.91,95.83v-9.58c0-.31-.01-.63-.04-.95s-.06-.65-.09-.98h1.57l.16,1.82h-.18c.17-.61.51-1.09,1.03-1.44.52-.35,1.13-.53,1.85-.53s1.34.17,1.87.5.95.81,1.24,1.43c.29.62.44,1.37.44,2.24s-.15,1.61-.44,2.24c-.29.63-.71,1.11-1.24,1.44-.53.33-1.16.5-1.87.5s-1.31-.17-1.83-.52-.86-.82-1.03-1.42h.18v5.25h-1.62Zm3.9-4.58c.7,0,1.27-.25,1.69-.74.42-.49.63-1.21.63-2.18s-.21-1.68-.63-2.17c-.42-.48-.98-.73-1.69-.73s-1.27.24-1.69.73c-.42.49-.63,1.21-.63,2.17s.21,1.69.63,2.18c.42.49.98.74,1.69.74Z"/>
          <path class="cls-3" d="m799.5,96.01l-.38-1.31c.5-.11.92-.23,1.26-.38.34-.15.62-.34.84-.58.22-.24.42-.55.58-.92l.4-.95-.03.66-3.5-8.21h1.73l2.72,6.72h-.43l2.72-6.72h1.66l-3.7,8.64c-.24.53-.49.98-.75,1.34s-.55.66-.86.88c-.31.22-.65.4-1.02.53-.37.13-.78.23-1.22.3Z"/>
          <path class="cls-3" d="m812.02,92.52c-1.22,0-2.18-.38-2.9-1.14-.72-.76-1.08-1.87-1.08-3.34v-1.39c0-1.5.32-2.71.97-3.63.65-.92,1.65-1.54,3-1.86l2.94-.7.46,1.3-3.3.77c-.58.13-1.05.37-1.42.72-.37.35-.65.77-.84,1.25-.19.48-.28.99-.28,1.54v.74h-.24c.13-.49.33-.91.62-1.26.28-.35.63-.62,1.06-.82.42-.2.89-.29,1.42-.29.69,0,1.3.16,1.82.48.52.32.93.78,1.22,1.38.29.6.44,1.31.44,2.14s-.16,1.59-.48,2.21c-.32.62-.77,1.09-1.35,1.42-.58.33-1.27.5-2.06.5Zm-.05-1.25c.73,0,1.29-.24,1.7-.71.41-.47.62-1.18.62-2.1s-.21-1.62-.62-2.1c-.42-.48-.98-.72-1.7-.72s-1.28.24-1.7.71-.62,1.15-.62,2.02c0,.96.21,1.68.62,2.17.41.49.98.73,1.7.73Z"/>
        </g>
        <g>
          <path class="cls-3" d="m861.05,92.52c-.77,0-1.5-.11-2.21-.34-.7-.23-1.29-.56-1.76-.98l.58-1.26c.52.41,1.06.7,1.6.9.54.19,1.12.29,1.74.29.79,0,1.39-.16,1.8-.5.41-.33.62-.81.62-1.42s-.21-1.07-.62-1.38c-.41-.31-1.02-.47-1.82-.47h-1.74v-1.34h1.62c.68,0,1.23-.17,1.63-.52.41-.35.61-.82.61-1.42,0-.54-.19-.96-.56-1.26-.37-.29-.91-.44-1.6-.44-1.17,0-2.2.41-3.09,1.23l-.56-1.26c.44-.44.99-.78,1.66-1.02.67-.24,1.38-.36,2.11-.36,1.13,0,2.02.26,2.67.78s.98,1.23.98,2.15c0,.69-.2,1.29-.58,1.78-.39.49-.92.82-1.59.98v-.18c.8.13,1.42.45,1.85.95.43.51.65,1.14.65,1.9,0,1-.35,1.79-1.06,2.36-.71.57-1.68.86-2.92.86Z"/>
          <path class="cls-3" d="m870.76,92.52c-1.3,0-2.3-.5-3-1.5-.7-1-1.05-2.43-1.05-4.29s.35-3.34,1.05-4.31c.7-.98,1.7-1.46,3-1.46s2.31.49,3.01,1.46,1.04,2.41,1.04,4.3-.35,3.32-1.05,4.31c-.7,1-1.7,1.5-3,1.5Zm0-1.39c.82,0,1.43-.36,1.83-1.07.4-.71.6-1.83.6-3.34s-.2-2.64-.6-3.34-1.01-1.05-1.83-1.05-1.42.35-1.82,1.05-.61,1.81-.61,3.32.21,2.65.62,3.36c.41.71,1.02,1.07,1.82,1.07Z"/>
          <path class="cls-3" d="m880.36,92.52c-1.3,0-2.3-.5-3-1.5-.7-1-1.05-2.43-1.05-4.29s.35-3.34,1.05-4.31c.7-.98,1.7-1.46,3-1.46s2.31.49,3.01,1.46,1.04,2.41,1.04,4.3-.35,3.32-1.05,4.31c-.7,1-1.7,1.5-3,1.5Zm0-1.39c.82,0,1.43-.36,1.83-1.07.4-.71.6-1.83.6-3.34s-.2-2.64-.6-3.34-1.01-1.05-1.83-1.05-1.42.35-1.82,1.05-.61,1.81-.61,3.32.21,2.65.62,3.36c.41.71,1.02,1.07,1.82,1.07Z"/>
          <path class="cls-3" d="m890.71,95.83v-9.58c0-.31-.01-.63-.04-.95-.03-.33-.06-.65-.09-.98h1.57l.16,1.82h-.18c.17-.61.51-1.09,1.03-1.44.52-.35,1.13-.53,1.85-.53s1.34.17,1.87.5c.53.34.95.81,1.24,1.43.29.62.44,1.37.44,2.24s-.15,1.61-.44,2.24c-.29.63-.71,1.11-1.24,1.44-.53.33-1.16.5-1.87.5s-1.32-.17-1.83-.52c-.52-.35-.86-.82-1.03-1.42h.18v5.25h-1.62Zm3.9-4.58c.7,0,1.27-.25,1.69-.74.42-.49.63-1.21.63-2.18s-.21-1.68-.63-2.17c-.42-.48-.98-.73-1.69-.73s-1.27.24-1.69.73c-.42.49-.63,1.21-.63,2.17s.21,1.69.63,2.18c.42.49.98.74,1.69.74Z"/>
          <path class="cls-3" d="m900.3,96.01l-.38-1.31c.5-.11.92-.23,1.26-.38.34-.15.62-.34.84-.58.22-.24.42-.55.58-.92l.4-.95-.03.66-3.5-8.21h1.73l2.72,6.72h-.43l2.72-6.72h1.66l-3.7,8.64c-.24.53-.49.98-.75,1.34-.27.36-.55.66-.86.88-.31.22-.65.4-1.02.53s-.78.23-1.22.3Z"/>
          <path class="cls-3" d="m912.82,92.52c-1.22,0-2.18-.38-2.9-1.14-.72-.76-1.08-1.87-1.08-3.34v-1.39c0-1.5.32-2.71.97-3.63.65-.92,1.65-1.54,3-1.86l2.94-.7.46,1.3-3.3.77c-.58.13-1.05.37-1.42.72-.37.35-.65.77-.84,1.25-.19.48-.28.99-.28,1.54v.74h-.24c.13-.49.33-.91.62-1.26.28-.35.63-.62,1.06-.82.42-.2.89-.29,1.42-.29.69,0,1.3.16,1.82.48.52.32.93.78,1.22,1.38.29.6.44,1.31.44,2.14s-.16,1.59-.48,2.21c-.32.62-.77,1.09-1.35,1.42-.58.33-1.27.5-2.06.5Zm-.05-1.25c.73,0,1.29-.24,1.7-.71.41-.47.62-1.18.62-2.1s-.21-1.62-.62-2.1c-.42-.48-.98-.72-1.7-.72s-1.28.24-1.7.71-.62,1.15-.62,2.02c0,.96.21,1.68.62,2.17.41.49.98.73,1.7.73Z"/>
        </g>
        <g>
          <path class="cls-3" d="m176.73,58.1v-1.71h2.59v-7.84h.99l-3.33,1.98v-1.95l2.93-1.76h1.47v9.57h2.43v1.71h-7.09Z"/>
          <path class="cls-3" d="m189.35,58.26c-1.32,0-2.34-.5-3.06-1.51s-1.07-2.45-1.07-4.31.36-3.32,1.07-4.3c.71-.98,1.73-1.47,3.06-1.47s2.35.49,3.06,1.47c.71.98,1.06,2.41,1.06,4.29s-.36,3.32-1.06,4.33c-.71,1.01-1.73,1.51-3.06,1.51Zm0-1.7c.73,0,1.26-.33,1.62-1,.35-.67.53-1.71.53-3.14s-.18-2.47-.53-3.11c-.35-.64-.89-.97-1.62-.97s-1.25.32-1.61.97c-.36.65-.54,1.68-.54,3.11s.18,2.48.54,3.14c.36.67.89,1,1.61,1Z"/>
          <path class="cls-3" d="m194.1,58.1l3.76-4.62v.91l-3.55-4.37h2.37l2.32,2.99h-.72l2.32-2.99h2.35l-3.52,4.37v-.91l3.74,4.62h-2.38l-2.51-3.22h.72l-2.53,3.22h-2.37Z"/>
          <path class="cls-3" d="m204.93,58.1v-1.71h2.59v-7.84h.99l-3.33,1.98v-1.95l2.93-1.76h1.47v9.57h2.43v1.71h-7.09Z"/>
          <path class="cls-3" d="m217.64,58.26c-.49,0-.98-.05-1.46-.16-.49-.11-.94-.26-1.36-.45-.42-.19-.78-.42-1.08-.69l.67-1.55c.5.37,1.02.65,1.54.84s1.08.28,1.66.28c.69,0,1.23-.17,1.62-.52.39-.35.58-.81.58-1.4s-.19-1.08-.56-1.45-.89-.55-1.54-.55c-.46,0-.88.09-1.26.26s-.72.45-1.02.81h-1.36v-6.86h7.01v1.7h-5.06v3.58h-.5c.28-.37.65-.66,1.11-.86s.98-.3,1.56-.3c.73,0,1.35.15,1.89.45.53.3.95.72,1.25,1.26.3.54.45,1.17.45,1.9s-.17,1.38-.5,1.94c-.34.56-.82,1-1.44,1.31s-1.36.47-2.22.47Z"/>
          <path class="cls-3" d="m230.47,60.98c-.5-.79-.91-1.56-1.22-2.32s-.54-1.53-.68-2.31c-.14-.79-.21-1.6-.21-2.46s.07-1.68.21-2.46c.14-.78.37-1.55.68-2.3s.72-1.53,1.22-2.3h1.6c-.55,1.23-.97,2.42-1.24,3.58-.27,1.16-.41,2.32-.41,3.5s.14,2.33.41,3.49c.27,1.16.69,2.36,1.24,3.6h-1.6Z"/>
          <path class="cls-3" d="m234.21,58.1v-1.71h2.59v-7.84h.99l-3.33,1.98v-1.95l2.93-1.76h1.47v9.57h2.43v1.71h-7.09Z"/>
          <path class="cls-3" d="m243.11,54.48v-1.58h4.86v1.58h-4.86Z"/>
          <path class="cls-3" d="m250.82,58.1v-1.71h2.59v-7.84h.99l-3.33,1.98v-1.95l2.93-1.76h1.47v9.57h2.43v1.71h-7.09Z"/>
          <path class="cls-3" d="m260.42,58.1v-1.71h2.59v-7.84h.99l-3.33,1.98v-1.95l2.93-1.76h1.47v9.57h2.43v1.71h-7.09Z"/>
          <path class="cls-3" d="m273.76,58.1v-8.08h1.87v6.54h2.85v-6.54h1.86v6.54h2.85v-6.54h1.87v8.08h-11.3Z"/>
          <path class="cls-3" d="m289.08,58.1v-6.51h-2.77v-1.57h7.54v1.57h-2.78v6.51h-1.98Z"/>
          <path class="cls-3" d="m295.91,60.98h-1.6c.55-1.23.97-2.42,1.24-3.59.27-1.17.41-2.33.41-3.5s-.14-2.32-.41-3.49c-.27-1.16-.69-2.36-1.24-3.58h1.6c.51.78.92,1.55,1.23,2.3.31.76.53,1.53.67,2.31.14.78.21,1.6.21,2.46s-.07,1.68-.21,2.46-.36,1.56-.67,2.32c-.31.76-.72,1.52-1.23,2.3Z"/>
        </g>
        <g>
          <path class="cls-3" d="m385.21,58.26v-1.71h2.59v-7.84h.99l-3.33,1.98v-1.95l2.93-1.76h1.47v9.57h2.43v1.71h-7.09Z"/>
          <path class="cls-3" d="m397.83,58.42c-1.32,0-2.34-.5-3.06-1.51-.71-1.01-1.07-2.45-1.07-4.31s.36-3.32,1.07-4.3c.71-.98,1.73-1.47,3.06-1.47s2.35.49,3.06,1.47c.71.98,1.06,2.41,1.06,4.29s-.35,3.32-1.06,4.33c-.71,1.01-1.73,1.51-3.06,1.51Zm0-1.7c.73,0,1.26-.33,1.62-1,.35-.67.53-1.71.53-3.14s-.18-2.47-.53-3.11c-.35-.64-.89-.97-1.62-.97s-1.25.32-1.61.97c-.36.65-.54,1.68-.54,3.11s.18,2.48.54,3.14c.36.67.89,1,1.61,1Z"/>
          <path class="cls-3" d="m402.58,58.26l3.76-4.62v.91l-3.55-4.37h2.37l2.32,2.99h-.72l2.32-2.99h2.35l-3.52,4.37v-.91l3.74,4.62h-2.38l-2.51-3.22h.72l-2.53,3.22h-2.37Z"/>
          <path class="cls-3" d="m413.42,58.26v-1.71h2.59v-7.84h.99l-3.33,1.98v-1.95l2.93-1.76h1.47v9.57h2.43v1.71h-7.09Z"/>
          <path class="cls-3" d="m426.12,58.42c-.49,0-.98-.05-1.46-.16-.49-.11-.94-.26-1.36-.45-.42-.19-.78-.42-1.08-.69l.67-1.55c.5.37,1.02.65,1.54.84.53.19,1.08.28,1.66.28.69,0,1.23-.17,1.62-.52.39-.35.58-.81.58-1.4s-.19-1.08-.56-1.45c-.37-.37-.89-.55-1.54-.55-.46,0-.88.09-1.26.26-.38.18-.72.45-1.02.81h-1.36v-6.86h7.01v1.7h-5.06v3.58h-.5c.28-.37.65-.66,1.11-.86s.98-.3,1.56-.3c.72,0,1.35.15,1.89.45s.95.72,1.25,1.26c.3.54.45,1.17.45,1.9s-.17,1.38-.5,1.94c-.34.56-.82,1-1.44,1.31s-1.36.47-2.22.47Z"/>
          <path class="cls-3" d="m438.95,61.14c-.5-.79-.91-1.56-1.22-2.32s-.54-1.53-.68-2.31c-.14-.79-.21-1.6-.21-2.46s.07-1.68.21-2.46c.14-.78.37-1.55.68-2.3s.72-1.53,1.22-2.3h1.6c-.55,1.23-.97,2.42-1.24,3.58-.27,1.16-.41,2.32-.41,3.5s.14,2.33.41,3.49c.27,1.16.69,2.36,1.24,3.6h-1.6Z"/>
          <path class="cls-3" d="m449.66,57.75l-7.87-3.33v-1.52l7.87-3.31v1.55l-7.26,3.02v-.99l7.26,3.02v1.55Z"/>
          <path class="cls-3" d="m452.29,58.26v-1.71h2.59v-7.84h.99l-3.33,1.98v-1.95l2.93-1.76h1.47v9.57h2.43v1.71h-7.09Z"/>
          <path class="cls-3" d="m461.9,58.26v-1.71h2.59v-7.84h.99l-3.33,1.98v-1.95l2.93-1.76h1.47v9.57h2.43v1.71h-7.09Z"/>
          <path class="cls-3" d="m475.24,58.26v-8.08h1.87v6.54h2.85v-6.54h1.86v6.54h2.85v-6.54h1.87v8.08h-11.3Z"/>
          <path class="cls-3" d="m490.55,58.26v-6.51h-2.77v-1.57h7.54v1.57h-2.78v6.51h-1.98Z"/>
          <path class="cls-3" d="m497.38,61.14h-1.6c.55-1.23.97-2.42,1.24-3.59.27-1.17.41-2.33.41-3.5s-.14-2.32-.41-3.49c-.27-1.16-.69-2.36-1.24-3.58h1.6c.51.78.92,1.55,1.23,2.3.31.76.53,1.53.67,2.31.14.78.21,1.6.21,2.46s-.07,1.68-.21,2.46-.36,1.56-.67,2.32c-.31.76-.72,1.52-1.23,2.3Z"/>
        </g>
        <g>
          <path class="cls-3" d="m573.34,58.26v-1.71h2.59v-7.84h.99l-3.33,1.98v-1.95l2.93-1.76h1.47v9.57h2.43v1.71h-7.09Z"/>
          <path class="cls-3" d="m585.78,58.42c-.78,0-1.53-.12-2.24-.34-.71-.23-1.3-.55-1.76-.95l.67-1.55c.5.38,1.02.67,1.56.85.54.18,1.11.27,1.7.27.72,0,1.27-.14,1.65-.43.37-.29.56-.71.56-1.26s-.18-.94-.55-1.21c-.37-.27-.9-.41-1.61-.41h-1.82v-1.65h1.65c.61,0,1.09-.15,1.46-.45.36-.3.54-.71.54-1.23,0-.49-.17-.86-.5-1.12-.34-.26-.82-.38-1.45-.38-1.13,0-2.13.38-2.99,1.15l-.67-1.54c.46-.43,1.03-.76,1.7-.99.68-.23,1.39-.35,2.14-.35,1.17,0,2.09.26,2.76.79s1,1.26,1,2.2c0,.67-.19,1.25-.57,1.74-.38.49-.9.81-1.56.97v-.19c.78.13,1.38.45,1.82.95.43.51.65,1.14.65,1.9,0,1-.37,1.79-1.1,2.38-.74.58-1.74.87-3.02.87Z"/>
          <path class="cls-3" d="m590.71,58.26l3.76-4.62v.91l-3.55-4.37h2.37l2.32,2.99h-.72l2.32-2.99h2.35l-3.52,4.37v-.91l3.74,4.62h-2.38l-2.51-3.22h.72l-2.53,3.22h-2.37Z"/>
          <path class="cls-3" d="m601.54,58.26v-1.71h2.59v-7.84h.99l-3.33,1.98v-1.95l2.93-1.76h1.47v9.57h2.43v1.71h-7.09Z"/>
          <path class="cls-3" d="m614.17,58.42c-1.32,0-2.35-.28-3.1-.85s-1.11-1.35-1.11-2.35c0-.79.24-1.45.72-1.97.48-.52,1.1-.83,1.87-.93v.34c-.69-.15-1.25-.47-1.67-.98-.42-.5-.63-1.11-.63-1.82,0-.95.35-1.69,1.05-2.23.7-.54,1.66-.81,2.87-.81s2.19.27,2.89.81c.7.54,1.05,1.28,1.05,2.23,0,.71-.2,1.33-.6,1.84-.4.51-.94.83-1.62.94v-.32c.76.11,1.37.42,1.82.94s.69,1.17.69,1.96c0,1-.37,1.79-1.11,2.35s-1.78.85-3.11.85Zm0-1.6c.78,0,1.36-.15,1.74-.44.38-.29.58-.73.58-1.3s-.19-1.01-.58-1.3-.97-.43-1.74-.43-1.35.14-1.74.43c-.39.29-.58.72-.58,1.3s.19,1.01.58,1.3c.39.29.97.44,1.74.44Zm0-5.07c.66,0,1.17-.15,1.51-.45.35-.3.52-.71.52-1.23s-.17-.92-.52-1.21-.85-.44-1.51-.44-1.15.15-1.5.44-.52.7-.52,1.21.17.93.52,1.23c.35.3.85.45,1.5.45Z"/>
        </g>
        <g>
          <path class="cls-3" d="m669.34,58.26v-1.71h2.59v-7.84h.99l-3.33,1.98v-1.95l2.93-1.76h1.47v9.57h2.43v1.71h-7.09Z"/>
          <path class="cls-3" d="m682.04,58.42c-.49,0-.98-.05-1.46-.16-.49-.11-.94-.26-1.36-.45-.42-.19-.78-.42-1.08-.69l.67-1.55c.5.37,1.02.65,1.54.84s1.08.28,1.66.28c.69,0,1.23-.17,1.62-.52.39-.35.58-.81.58-1.4s-.19-1.08-.56-1.45-.89-.55-1.54-.55c-.46,0-.88.09-1.26.26s-.72.45-1.02.81h-1.36v-6.86h7.01v1.7h-5.06v3.58h-.5c.28-.37.65-.66,1.11-.86s.98-.3,1.56-.3c.73,0,1.35.15,1.89.45.53.3.95.72,1.25,1.26.3.54.45,1.17.45,1.9s-.17,1.38-.5,1.94c-.34.56-.82,1-1.44,1.31s-1.36.47-2.22.47Z"/>
          <path class="cls-3" d="m686.71,58.26l3.76-4.62v.91l-3.55-4.37h2.37l2.32,2.99h-.72l2.32-2.99h2.35l-3.52,4.37v-.91l3.74,4.62h-2.38l-2.51-3.22h.72l-2.53,3.22h-2.37Z"/>
          <path class="cls-3" d="m697.02,58.26v-1.52l3.74-3.9c.47-.49.82-.95,1.04-1.36s.34-.84.34-1.28c0-.54-.17-.96-.51-1.23-.34-.28-.84-.42-1.49-.42-.52,0-1.02.09-1.5.28s-.95.48-1.41.87l-.67-1.54c.46-.41,1.03-.73,1.7-.98.68-.25,1.39-.37,2.14-.37,1.22,0,2.15.27,2.8.82.65.54.98,1.32.98,2.34,0,.71-.17,1.37-.5,2.01-.33.63-.84,1.3-1.54,1.99l-3.12,3.12v-.54h5.6v1.71h-7.6Z"/>
          <path class="cls-3" d="m710.17,58.42c-1.32,0-2.34-.5-3.06-1.51s-1.07-2.45-1.07-4.31.36-3.32,1.07-4.3c.71-.98,1.73-1.47,3.06-1.47s2.35.49,3.06,1.47c.71.98,1.06,2.41,1.06,4.29s-.35,3.32-1.06,4.33c-.71,1.01-1.73,1.51-3.06,1.51Zm0-1.7c.73,0,1.26-.33,1.62-1,.35-.67.53-1.71.53-3.14s-.18-2.47-.53-3.11c-.35-.64-.89-.97-1.62-.97s-1.25.32-1.61.97c-.36.65-.54,1.68-.54,3.11s.18,2.48.54,3.14c.36.67.89,1,1.61,1Z"/>
        </g>
        <g>
          <path class="cls-3" d="m767.42,58.26v-1.52l3.74-3.9c.47-.49.82-.95,1.04-1.36s.34-.84.34-1.28c0-.54-.17-.96-.51-1.23-.34-.28-.84-.42-1.49-.42-.52,0-1.02.09-1.5.28s-.95.48-1.41.87l-.67-1.54c.46-.41,1.03-.73,1.7-.98.68-.25,1.39-.37,2.14-.37,1.22,0,2.15.27,2.8.82.65.54.98,1.32.98,2.34,0,.71-.17,1.37-.5,2.01-.33.63-.84,1.3-1.54,1.99l-3.12,3.12v-.54h5.6v1.71h-7.6Z"/>
          <path class="cls-3" d="m780.57,58.42c-1.32,0-2.34-.5-3.06-1.51-.71-1.01-1.07-2.45-1.07-4.31s.36-3.32,1.07-4.3c.71-.98,1.73-1.47,3.06-1.47s2.35.49,3.06,1.47c.71.98,1.06,2.41,1.06,4.29s-.35,3.32-1.06,4.33c-.71,1.01-1.73,1.51-3.06,1.51Zm0-1.7c.73,0,1.26-.33,1.62-1,.35-.67.53-1.71.53-3.14s-.18-2.47-.53-3.11c-.35-.64-.89-.97-1.62-.97s-1.25.32-1.61.97c-.36.65-.54,1.68-.54,3.11s.18,2.48.54,3.14c.36.67.89,1,1.61,1Z"/>
          <path class="cls-3" d="m785.32,58.26l3.76-4.62v.91l-3.55-4.37h2.37l2.32,2.99h-.72l2.32-2.99h2.35l-3.52,4.37v-.91l3.74,4.62h-2.38l-2.51-3.22h.72l-2.53,3.22h-2.37Z"/>
          <path class="cls-3" d="m799,58.42c-.78,0-1.53-.12-2.24-.34s-1.3-.55-1.76-.95l.67-1.55c.5.38,1.02.67,1.56.85.54.18,1.11.27,1.7.27.73,0,1.27-.14,1.65-.43.37-.29.56-.71.56-1.26s-.18-.94-.55-1.21-.9-.41-1.61-.41h-1.82v-1.65h1.65c.61,0,1.09-.15,1.46-.45s.54-.71.54-1.23c0-.49-.17-.86-.5-1.12s-.82-.38-1.45-.38c-1.13,0-2.13.38-2.99,1.15l-.67-1.54c.46-.43,1.03-.76,1.7-.99s1.39-.35,2.14-.35c1.17,0,2.09.26,2.76.79.67.53,1,1.26,1,2.2,0,.67-.19,1.25-.57,1.74-.38.49-.9.81-1.56.97v-.19c.78.13,1.38.45,1.82.95.43.51.65,1.14.65,1.9,0,1-.37,1.79-1.1,2.38-.74.58-1.74.87-3.02.87Z"/>
          <path class="cls-3" d="m808.78,58.42c-1.32,0-2.34-.5-3.06-1.51s-1.07-2.45-1.07-4.31.36-3.32,1.07-4.3c.71-.98,1.73-1.47,3.06-1.47s2.35.49,3.06,1.47c.71.98,1.06,2.41,1.06,4.29s-.35,3.32-1.06,4.33c-.71,1.01-1.73,1.51-3.06,1.51Zm0-1.7c.73,0,1.26-.33,1.62-1,.35-.67.53-1.71.53-3.14s-.18-2.47-.53-3.11c-.35-.64-.89-.97-1.62-.97s-1.25.32-1.61.97c-.36.65-.54,1.68-.54,3.11s.18,2.48.54,3.14c.36.67.89,1,1.61,1Z"/>
        </g>
        <g>
          <path class="cls-3" d="m880.84,58.58c-.78,0-1.53-.12-2.24-.34s-1.3-.55-1.76-.95l.67-1.55c.5.38,1.02.67,1.56.85.54.18,1.11.27,1.7.27.73,0,1.27-.14,1.65-.43.37-.29.56-.71.56-1.26s-.18-.94-.55-1.21-.9-.41-1.61-.41h-1.82v-1.65h1.65c.61,0,1.09-.15,1.46-.45s.54-.71.54-1.23c0-.49-.17-.86-.5-1.12s-.82-.38-1.45-.38c-1.13,0-2.13.38-2.99,1.15l-.67-1.54c.46-.43,1.03-.76,1.7-.99s1.39-.35,2.14-.35c1.17,0,2.09.26,2.76.79.67.53,1,1.26,1,2.2,0,.67-.19,1.25-.57,1.74-.38.49-.9.81-1.56.97v-.19c.78.13,1.38.45,1.82.95.43.51.65,1.14.65,1.9,0,1-.37,1.79-1.1,2.38-.74.58-1.74.87-3.02.87Z"/>
          <path class="cls-3" d="m885.77,58.42l3.76-4.62v.91l-3.55-4.37h2.37l2.32,2.99h-.72l2.32-2.99h2.35l-3.52,4.37v-.91l3.74,4.62h-2.38l-2.51-3.22h.72l-2.53,3.22h-2.37Z"/>
          <path class="cls-3" d="m900.52,58.42v-2.21h-5.04v-1.44l5.36-7.63h1.66v7.5h1.62v1.57h-1.62v2.21h-1.98Zm0-3.78v-5.07h.38l-3.89,5.55v-.48h3.5Z"/>
        </g>
      </g>
    </g>
  </g>
</svg>