<?xml version="1.0" encoding="UTF-8"?>
<svg id="_Слой_2" data-name="Слой 2" xmlns="http://www.w3.org/2000/svg" viewBox="0 0 938.93 184.76">
  <defs>
    <style>
      .cls-1 {
        font-family: Mulish-Bold, Mulish;
        font-weight: 700;
      }

      .cls-1, .cls-2 {
        fill: #27625f;
        font-size: 16px;
      }

      .cls-3 {
        fill: #fff;
      }

      .cls-3, .cls-4 {
        stroke: #a0b6b5;
        stroke-miterlimit: 10;
      }

      .cls-2 {
        font-family: Mulish-SemiBold, Mulish;
        font-weight: 600;
      }

      .cls-5 {
        letter-spacing: 0em;
      }

      .cls-6 {
        letter-spacing: 0em;
      }

      .cls-7 {
        letter-spacing: 0em;
      }

      .cls-8 {
        letter-spacing: 0em;
      }

      .cls-9 {
        letter-spacing: -.02em;
      }

      .cls-10 {
        letter-spacing: -.02em;
      }

      .cls-11 {
        letter-spacing: -.02em;
      }

      .cls-12 {
        letter-spacing: -.01em;
      }

      .cls-4 {
        fill: none;
      }
    </style>
  </defs>
  <g id="_Слой_1-2" data-name="Слой 1">
    <g>
      <g>
        <rect class="cls-3" x=".5" y=".5" width="937.93" height="183.76" rx="10" ry="10"/>
        <line class="cls-4" x1=".5" y1="46.44" x2="938.43" y2="46.44"/>
        <line class="cls-4" x1="669.63" y1="46.44" x2="669.63" y2="184.26"/>
        <line class="cls-4" x1=".5" y1="92.38" x2="938.43" y2="92.38"/>
        <line class="cls-4" x1=".5" y1="138.32" x2="938.43" y2="138.32"/>
      </g>
      <g>
        <text class="cls-1" transform="translate(16.7 73.66)"><tspan x="0" y="0">Ф</tspan><tspan class="cls-8" x="14.51" y="0">у</tspan><tspan x="23.57" y="0">тб</tspan><tspan class="cls-12" x="41.02" y="0">о</tspan><tspan class="cls-7" x="50.56" y="0">лка + нанесение</tspan></text>
        <text class="cls-1" transform="translate(16.18 120.33)"><tspan x="0" y="0">Нанесение </tspan><tspan class="cls-6" x="91.79" y="0">т</tspan><tspan x="99.46" y="0">ермоплёнки</tspan></text>
        <text class="cls-1" transform="translate(16.18 167.8)"><tspan class="cls-9" x="0" y="0">С</tspan><tspan x="10.67" y="0">у</tspan><tspan class="cls-12" x="19.58" y="0">б</tspan><tspan x="29.14" y="0">лимационная </tspan><tspan class="cls-5" x="143.15" y="0">б</tspan><tspan x="152.73" y="0">умага А3</tspan></text>
        <text class="cls-2" transform="translate(753.36 73.66)"><tspan x="0" y="0">1300/1700 </tspan><tspan class="cls-10" x="85.87" y="0">р</tspan><tspan x="95.55" y="0">.</tspan></text>
        <text class="cls-2" transform="translate(779.76 120.33)"><tspan x="0" y="0">600 </tspan><tspan class="cls-11" x="33.07" y="0">р</tspan><tspan class="cls-7" x="42.75" y="0">.</tspan></text>
        <text class="cls-2" transform="translate(779.76 167.8)"><tspan x="0" y="0">600 </tspan><tspan class="cls-11" x="33.07" y="0">р</tspan><tspan class="cls-7" x="42.75" y="0">.</tspan></text>
        <text class="cls-1" transform="translate(16.7 28.83)"><tspan x="0" y="0">Ф</tspan><tspan class="cls-8" x="14.51" y="0">у</tspan><tspan x="23.57" y="0">тб</tspan><tspan class="cls-12" x="41.02" y="0">о</tspan><tspan class="cls-7" x="50.56" y="0">лки</tspan></text>
      </g>
    </g>
  </g>
</svg>