<?xml version="1.0" encoding="UTF-8"?>
<svg id="_Слой_2" data-name="Слой 2" xmlns="http://www.w3.org/2000/svg" viewBox="0 0 938.93 184.76">
  <defs>
    <style>
      .cls-1 {
        fill: #fff;
      }

      .cls-1, .cls-2 {
        stroke: #a0b6b5;
        stroke-miterlimit: 10;
      }

      .cls-3 {
        fill: #27625f;
        stroke-width: 0px;
      }

      .cls-2 {
        fill: none;
      }
    </style>
  </defs>
  <g id="_Слой_1-2" data-name="Слой 1">
    <g>
      <g>
        <rect class="cls-1" x=".5" y=".5" width="937.93" height="183.76" rx="10" ry="10"/>
        <line class="cls-2" x1=".5" y1="46.44" x2="938.43" y2="46.44"/>
        <line class="cls-2" x1="669.63" y1="46.44" x2="669.63" y2="184.26"/>
        <line class="cls-2" x1=".5" y1="92.38" x2="938.43" y2="92.38"/>
        <line class="cls-2" x1=".5" y1="138.32" x2="938.43" y2="138.32"/>
      </g>
      <g>
        <g>
          <path class="cls-3" d="m22.93,74.06v-1.66l.51.38h-.45c-1.12,0-2.09-.19-2.9-.58-.81-.38-1.43-.94-1.86-1.66-.43-.72-.65-1.59-.65-2.62,0-1.56.47-2.75,1.42-3.59.94-.84,2.27-1.26,3.99-1.26h.45l-.51.38v-1.57h2.05v1.57l-.51-.38h.45c1.72,0,3.05.42,4,1.26.95.84,1.42,2.03,1.42,3.59,0,1.02-.22,1.9-.66,2.62-.44.72-1.06,1.27-1.86,1.66-.81.38-1.77.58-2.9.58h-.45l.51-.38v1.66h-2.05Zm.02-2.48v-7.3l.43.35h-.59c-.94,0-1.69.27-2.26.82-.57.55-.86,1.37-.86,2.47,0,.71.13,1.32.4,1.81.27.49.63.86,1.1,1.11s1.01.38,1.62.38h.59l-.43.35Zm2.03,0l-.45-.35h.61c.61,0,1.15-.12,1.62-.38s.83-.62,1.1-1.11c.26-.49.39-1.09.39-1.81,0-1.1-.28-1.92-.85-2.47-.57-.55-1.32-.82-2.26-.82h-.61l.45-.35v7.3Z"/>
          <path class="cls-3" d="m32.26,77.29l-.46-1.58c.5-.11.92-.23,1.26-.37.34-.14.62-.32.85-.54.22-.22.41-.51.56-.86l.4-.94-.05.78-3.52-8.19h2.13l2.53,6.3h-.46l2.54-6.3h2.02l-3.68,8.53c-.25.58-.51,1.05-.8,1.43-.29.38-.6.68-.93.91s-.69.41-1.09.54-.83.23-1.3.3Z"/>
          <path class="cls-3" d="m43.15,73.66v-6.51h-2.77v-1.57h7.54v1.57h-2.78v6.51h-1.98Z"/>
          <path class="cls-3" d="m52.94,73.82c-1.27,0-2.28-.38-3.03-1.15-.75-.77-1.13-1.89-1.13-3.38v-1.38c0-1.52.35-2.75,1.04-3.68s1.74-1.54,3.14-1.84l2.96-.67.54,1.57-3.33.74c-.55.12-1.01.34-1.38.66-.36.33-.63.71-.82,1.16s-.27.93-.27,1.44v.85h-.27c.12-.48.31-.9.59-1.26s.63-.64,1.06-.84c.43-.2.91-.3,1.46-.3.68,0,1.28.16,1.8.47.52.32.92.77,1.22,1.36s.45,1.3.45,2.12-.17,1.57-.5,2.19c-.34.62-.81,1.1-1.41,1.43s-1.31.5-2.12.5Zm-.06-1.52c.66,0,1.18-.21,1.54-.63.37-.42.55-1.05.55-1.9s-.19-1.45-.56-1.88c-.37-.43-.89-.65-1.54-.65s-1.16.21-1.54.64c-.37.43-.56,1.03-.56,1.82,0,.86.19,1.51.56,1.94.37.43.88.65,1.54.65Z"/>
          <path class="cls-3" d="m62.58,73.82c-.83,0-1.55-.17-2.16-.51-.61-.34-1.08-.83-1.42-1.46-.34-.63-.5-1.38-.5-2.24s.17-1.61.5-2.23c.34-.62.81-1.11,1.42-1.45.61-.34,1.33-.51,2.16-.51s1.55.17,2.17.51c.61.34,1.09.82,1.42,1.45.34.62.5,1.37.5,2.23s-.17,1.61-.5,2.24c-.34.63-.81,1.11-1.42,1.46-.61.34-1.34.51-2.17.51Zm0-1.54c.63,0,1.13-.22,1.5-.66.37-.44.56-1.11.56-2.01s-.19-1.56-.56-2c-.37-.44-.87-.66-1.5-.66s-1.13.22-1.5.66-.56,1.1-.56,2,.19,1.57.56,2.01c.37.44.88.66,1.5.66Z"/>
          <path class="cls-3" d="m68.19,73.88l-.62-1.57c.35-.13.65-.3.89-.5.24-.21.43-.47.58-.8.14-.33.25-.73.31-1.22.06-.49.1-1.06.1-1.74v-2.48h6.43v8.08h-1.98v-6.54h-2.62v1.01c0,1.16-.11,2.14-.32,2.92-.21.78-.54,1.41-.99,1.86-.45.46-1.04.78-1.76.98Z"/>
          <path class="cls-3" d="m78.14,73.66v-8.08h1.98v3.17h1.22l2.37-3.17h2.14l-2.98,4.03-.43-.62c.3.03.56.11.79.24.23.13.45.31.66.54s.41.52.62.87l1.7,3.02h-2.13l-1.38-2.43c-.14-.25-.28-.44-.42-.58s-.29-.23-.46-.29c-.17-.05-.38-.08-.62-.08h-1.07v3.38h-1.98Z"/>
          <path class="cls-3" d="m90.45,73.82c-.7,0-1.32-.17-1.86-.5s-.95-.82-1.25-1.45c-.3-.63-.45-1.38-.45-2.26s.15-1.62.45-2.25.71-1.1,1.25-1.44,1.15-.5,1.86-.5,1.28.17,1.8.5.86.79,1.03,1.35h-.18l.18-1.7h1.92c-.03.33-.06.67-.09,1.01-.03.34-.04.68-.04,1.01v6.06h-1.98l-.02-1.66h.19c-.17.55-.52,1-1.04,1.33-.52.33-1.11.5-1.78.5Zm.56-1.54c.63,0,1.14-.22,1.52-.66.38-.44.58-1.11.58-2.01s-.19-1.56-.58-2c-.38-.44-.89-.66-1.52-.66s-1.14.22-1.52.66c-.38.44-.58,1.1-.58,2s.19,1.57.57,2.01c.38.44.89.66,1.53.66Z"/>
          <path class="cls-3" d="m104.74,73.04v-3.26h-3.22v-1.41h3.22v-3.18h1.46v3.18h3.2v1.41h-3.2v3.26h-1.46Z"/>
          <path class="cls-3" d="m115.77,73.66v-8.08h1.98v3.17h3.65v-3.17h1.98v8.08h-1.98v-3.38h-3.65v3.38h-1.98Z"/>
          <path class="cls-3" d="m128.85,73.82c-.7,0-1.32-.17-1.86-.5s-.95-.82-1.25-1.45c-.3-.63-.45-1.38-.45-2.26s.15-1.62.45-2.25.71-1.1,1.25-1.44,1.15-.5,1.86-.5,1.28.17,1.8.5.86.79,1.03,1.35h-.18l.18-1.7h1.92c-.03.33-.06.67-.09,1.01-.03.34-.04.68-.04,1.01v6.06h-1.98l-.02-1.66h.19c-.17.55-.52,1-1.04,1.33-.52.33-1.11.5-1.78.5Zm.56-1.54c.63,0,1.14-.22,1.52-.66.38-.44.58-1.11.58-2.01s-.19-1.56-.58-2c-.38-.44-.89-.66-1.52-.66s-1.14.22-1.52.66c-.38.44-.58,1.1-.58,2s.19,1.57.57,2.01c.38.44.89.66,1.53.66Z"/>
          <path class="cls-3" d="m135.81,73.66v-8.08h1.98v3.17h3.65v-3.17h1.98v8.08h-1.98v-3.38h-3.65v3.38h-1.98Z"/>
          <path class="cls-3" d="m149.66,73.82c-1.35,0-2.42-.37-3.18-1.12-.77-.75-1.15-1.77-1.15-3.07,0-.84.17-1.58.5-2.21.33-.63.79-1.12,1.38-1.47.59-.35,1.28-.53,2.07-.53s1.43.17,1.95.5c.52.33.92.79,1.19,1.39.27.6.41,1.3.41,2.1v.53h-5.89v-1.06h4.46l-.27.22c0-.75-.16-1.32-.47-1.71-.31-.39-.77-.59-1.37-.59-.66,0-1.17.23-1.53.7-.36.47-.54,1.13-.54,1.97v.21c0,.87.22,1.53.65,1.96s1.04.65,1.83.65c.46,0,.89-.06,1.29-.18.4-.12.78-.32,1.14-.6l.59,1.34c-.38.31-.84.55-1.38.72s-1.1.26-1.7.26Z"/>
          <path class="cls-3" d="m158.46,73.82c-.83,0-1.56-.17-2.18-.51-.62-.34-1.11-.83-1.45-1.46-.34-.63-.51-1.39-.51-2.26s.17-1.62.52-2.24c.35-.62.83-1.09,1.45-1.42.62-.33,1.34-.5,2.18-.5.53,0,1.05.08,1.56.25.51.17.92.4,1.24.71l-.61,1.39c-.29-.27-.61-.47-.97-.6-.36-.13-.71-.2-1.05-.2-.71,0-1.27.22-1.67.67s-.6,1.1-.6,1.95.2,1.51.6,1.97.96.69,1.67.69c.33,0,.67-.06,1.03-.19s.69-.33.98-.59l.61,1.38c-.33.31-.75.55-1.26.72s-1.02.26-1.54.26Z"/>
          <path class="cls-3" d="m166.94,73.82c-1.35,0-2.42-.37-3.18-1.12-.77-.75-1.15-1.77-1.15-3.07,0-.84.17-1.58.5-2.21.33-.63.79-1.12,1.38-1.47.59-.35,1.28-.53,2.07-.53s1.43.17,1.95.5c.52.33.92.79,1.19,1.39.27.6.41,1.3.41,2.1v.53h-5.89v-1.06h4.46l-.27.22c0-.75-.16-1.32-.47-1.71-.31-.39-.77-.59-1.37-.59-.66,0-1.17.23-1.53.7-.36.47-.54,1.13-.54,1.97v.21c0,.87.22,1.53.65,1.96s1.04.65,1.83.65c.46,0,.89-.06,1.29-.18.4-.12.78-.32,1.14-.6l.59,1.34c-.38.31-.84.55-1.38.72s-1.1.26-1.7.26Z"/>
          <path class="cls-3" d="m171.97,73.66v-8.08h1.98v3.17h3.65v-3.17h1.98v8.08h-1.98v-3.38h-3.65v3.38h-1.98Z"/>
          <path class="cls-3" d="m181.85,73.66v-8.08h1.81v6.11h-.48l4.59-6.11h1.65v8.08h-1.81v-6.13h.5l-4.61,6.13h-1.65Z"/>
          <path class="cls-3" d="m195.66,73.82c-1.35,0-2.42-.37-3.18-1.12-.77-.75-1.15-1.77-1.15-3.07,0-.84.17-1.58.5-2.21.33-.63.79-1.12,1.38-1.47.59-.35,1.28-.53,2.07-.53s1.43.17,1.95.5c.52.33.92.79,1.19,1.39.27.6.41,1.3.41,2.1v.53h-5.89v-1.06h4.46l-.27.22c0-.75-.16-1.32-.47-1.71-.31-.39-.77-.59-1.37-.59-.66,0-1.17.23-1.53.7-.36.47-.54,1.13-.54,1.97v.21c0,.87.22,1.53.65,1.96s1.04.65,1.83.65c.46,0,.89-.06,1.29-.18.4-.12.78-.32,1.14-.6l.59,1.34c-.38.31-.84.55-1.38.72s-1.1.26-1.7.26Z"/>
        </g>
        <g>
          <path class="cls-3" d="m17.43,120.32v-11.28h2.06v4.7h5.78v-4.7h2.06v11.28h-2.06v-4.86h-5.78v4.86h-2.06Z"/>
          <path class="cls-3" d="m32.89,120.49c-.7,0-1.32-.17-1.86-.5s-.95-.82-1.25-1.45c-.3-.63-.45-1.38-.45-2.26s.15-1.62.45-2.25.71-1.1,1.25-1.44,1.15-.5,1.86-.5,1.28.17,1.8.5.86.79,1.03,1.35h-.18l.18-1.7h1.92c-.03.33-.06.67-.09,1.01-.03.34-.04.68-.04,1.01v6.06h-1.98l-.02-1.66h.19c-.17.55-.52,1-1.04,1.33-.52.33-1.11.5-1.78.5Zm.56-1.54c.63,0,1.14-.22,1.52-.66.38-.44.58-1.11.58-2.01s-.19-1.56-.58-2c-.38-.44-.89-.66-1.52-.66s-1.14.22-1.52.66c-.38.44-.58,1.1-.58,2s.19,1.57.57,2.01c.38.44.89.66,1.53.66Z"/>
          <path class="cls-3" d="m39.84,120.32v-8.08h1.98v3.17h3.65v-3.17h1.98v8.08h-1.98v-3.38h-3.65v3.38h-1.98Z"/>
          <path class="cls-3" d="m53.7,120.49c-1.35,0-2.42-.37-3.18-1.12-.77-.75-1.15-1.77-1.15-3.07,0-.84.17-1.58.5-2.21.33-.63.79-1.12,1.38-1.47.59-.35,1.28-.53,2.07-.53s1.43.17,1.95.5c.52.33.92.79,1.19,1.39.27.6.41,1.3.41,2.1v.53h-5.89v-1.06h4.46l-.27.22c0-.75-.16-1.32-.47-1.71-.31-.39-.77-.59-1.37-.59-.66,0-1.17.23-1.53.7-.36.47-.54,1.13-.54,1.97v.21c0,.87.22,1.53.65,1.96s1.04.65,1.83.65c.46,0,.89-.06,1.29-.18.4-.12.78-.32,1.14-.6l.59,1.34c-.38.31-.84.55-1.38.72s-1.1.26-1.7.26Z"/>
          <path class="cls-3" d="m62.5,120.49c-.83,0-1.56-.17-2.18-.51-.62-.34-1.11-.83-1.45-1.46-.34-.63-.51-1.39-.51-2.26s.17-1.62.52-2.24c.35-.62.83-1.09,1.45-1.42.62-.33,1.34-.5,2.18-.5.53,0,1.05.08,1.56.25.51.17.92.4,1.24.71l-.61,1.39c-.29-.27-.61-.47-.97-.6-.36-.13-.71-.2-1.05-.2-.71,0-1.27.22-1.67.67s-.6,1.1-.6,1.95.2,1.51.6,1.97.96.69,1.67.69c.33,0,.67-.06,1.03-.19s.69-.33.98-.59l.61,1.38c-.33.31-.75.55-1.26.72s-1.02.26-1.54.26Z"/>
          <path class="cls-3" d="m70.98,120.49c-1.35,0-2.42-.37-3.18-1.12-.77-.75-1.15-1.77-1.15-3.07,0-.84.17-1.58.5-2.21.33-.63.79-1.12,1.38-1.47.59-.35,1.28-.53,2.07-.53s1.43.17,1.95.5c.52.33.92.79,1.19,1.39.27.6.41,1.3.41,2.1v.53h-5.89v-1.06h4.46l-.27.22c0-.75-.16-1.32-.47-1.71-.31-.39-.77-.59-1.37-.59-.66,0-1.17.23-1.53.7-.36.47-.54,1.13-.54,1.97v.21c0,.87.22,1.53.65,1.96s1.04.65,1.83.65c.46,0,.89-.06,1.29-.18.4-.12.78-.32,1.14-.6l.59,1.34c-.38.31-.84.55-1.38.72s-1.1.26-1.7.26Z"/>
          <path class="cls-3" d="m76,120.32v-8.08h1.98v3.17h3.65v-3.17h1.98v8.08h-1.98v-3.38h-3.65v3.38h-1.98Z"/>
          <path class="cls-3" d="m85.89,120.32v-8.08h1.81v6.11h-.48l4.59-6.11h1.65v8.08h-1.81v-6.13h.5l-4.61,6.13h-1.65Z"/>
          <path class="cls-3" d="m99.7,120.49c-1.35,0-2.42-.37-3.18-1.12-.77-.75-1.15-1.77-1.15-3.07,0-.84.17-1.58.5-2.21.33-.63.79-1.12,1.38-1.47.59-.35,1.28-.53,2.07-.53s1.43.17,1.95.5c.52.33.92.79,1.19,1.39.27.6.41,1.3.41,2.1v.53h-5.89v-1.06h4.46l-.27.22c0-.75-.16-1.32-.47-1.71-.31-.39-.77-.59-1.37-.59-.66,0-1.17.23-1.53.7-.36.47-.54,1.13-.54,1.97v.21c0,.87.22,1.53.65,1.96s1.04.65,1.83.65c.46,0,.89-.06,1.29-.18.4-.12.78-.32,1.14-.6l.59,1.34c-.38.31-.84.55-1.38.72s-1.1.26-1.7.26Z"/>
          <path class="cls-3" d="m110.85,120.32v-6.51h-2.77v-1.57h7.54v1.57h-2.78v6.51h-1.98Z"/>
          <path class="cls-3" d="m120.74,120.49c-1.35,0-2.42-.37-3.18-1.12-.77-.75-1.15-1.77-1.15-3.07,0-.84.17-1.58.5-2.21.33-.63.79-1.12,1.38-1.47.59-.35,1.28-.53,2.07-.53s1.43.17,1.95.5c.52.33.92.79,1.19,1.39.27.6.41,1.3.41,2.1v.53h-5.89v-1.06h4.46l-.27.22c0-.75-.16-1.32-.47-1.71-.31-.39-.77-.59-1.37-.59-.66,0-1.17.23-1.53.7-.36.47-.54,1.13-.54,1.97v.21c0,.87.22,1.53.65,1.96s1.04.65,1.83.65c.46,0,.89-.06,1.29-.18.4-.12.78-.32,1.14-.6l.59,1.34c-.38.31-.84.55-1.38.72s-1.1.26-1.7.26Z"/>
          <path class="cls-3" d="m125.83,123.78v-9.52c0-.33-.01-.67-.03-1.01-.02-.34-.05-.68-.1-1.01h1.94l.18,1.7h-.18c.16-.57.5-1.02,1.02-1.35.52-.34,1.12-.5,1.8-.5s1.34.17,1.87.5c.53.34.95.82,1.25,1.44.3.62.45,1.37.45,2.25s-.15,1.63-.45,2.26c-.3.63-.71,1.11-1.25,1.45-.53.34-1.16.5-1.87.5-.67,0-1.26-.17-1.78-.5-.51-.33-.85-.77-1.02-1.33h.18v5.12h-2Zm4.06-4.83c.64,0,1.15-.22,1.54-.66.38-.44.58-1.11.58-2.01s-.19-1.56-.58-2-.9-.66-1.54-.66-1.14.22-1.52.66-.58,1.1-.58,2,.19,1.57.58,2.01c.38.44.89.66,1.52.66Z"/>
          <path class="cls-3" d="m135.91,120.32v-8.08h1.66l2.78,4.83,2.78-4.83h1.66v8.08h-1.76v-5.84h.37l-2.59,4.53h-.93l-2.59-4.53h.37v5.84h-1.76Z"/>
          <path class="cls-3" d="m150.79,120.49c-.83,0-1.55-.17-2.16-.51-.61-.34-1.08-.83-1.42-1.46-.34-.63-.5-1.38-.5-2.24s.17-1.61.5-2.23c.34-.62.81-1.11,1.42-1.45.61-.34,1.33-.51,2.16-.51s1.55.17,2.17.51c.61.34,1.09.82,1.42,1.45.34.62.5,1.37.5,2.23s-.17,1.61-.5,2.24c-.34.63-.81,1.11-1.42,1.46-.61.34-1.34.51-2.17.51Zm0-1.54c.63,0,1.13-.22,1.5-.66.37-.44.56-1.11.56-2.01s-.19-1.56-.56-2c-.37-.44-.87-.66-1.5-.66s-1.13.22-1.5.66-.56,1.1-.56,2,.19,1.57.56,2.01c.37.44.88.66,1.5.66Z"/>
          <path class="cls-3" d="m156.77,120.32v-8.08h7.57v8.08h-1.98v-6.54h-3.6v6.54h-1.98Z"/>
          <path class="cls-3" d="m166.4,120.55l-.62-1.57c.35-.13.65-.3.89-.5.24-.21.43-.47.58-.8.14-.33.25-.73.31-1.22.06-.49.1-1.06.1-1.74v-2.48h6.43v8.08h-1.98v-6.54h-2.62v1.01c0,1.16-.11,2.14-.32,2.92-.21.78-.54,1.41-.99,1.86-.45.46-1.04.78-1.76.98Z"/>
          <path class="cls-3" d="m180.32,120.49c-1.35,0-2.42-.37-3.18-1.12-.77-.75-1.15-1.77-1.15-3.07,0-.84.17-1.58.5-2.21.33-.63.79-1.12,1.38-1.47.59-.35,1.28-.53,2.07-.53s1.43.17,1.95.5c.52.33.92.79,1.19,1.39.27.6.41,1.3.41,2.1v.53h-5.89v-1.06h4.46l-.27.22c0-.75-.16-1.32-.47-1.71-.31-.39-.77-.59-1.37-.59-.66,0-1.17.23-1.53.7-.36.47-.54,1.13-.54,1.97v.21c0,.87.22,1.53.65,1.96s1.04.65,1.83.65c.46,0,.89-.06,1.29-.18.4-.12.78-.32,1.14-.6l.59,1.34c-.38.31-.84.55-1.38.72s-1.1.26-1.7.26Zm-2.82-9.71v-1.84h1.84v1.84h-1.84Zm3.02,0v-1.84h1.84v1.84h-1.84Z"/>
          <path class="cls-3" d="m185.35,120.32v-8.08h1.98v3.17h3.65v-3.17h1.98v8.08h-1.98v-3.38h-3.65v3.38h-1.98Z"/>
          <path class="cls-3" d="m195.24,120.32v-8.08h1.98v3.17h1.22l2.37-3.17h2.14l-2.98,4.03-.43-.62c.3.03.56.11.79.24.23.13.45.31.66.54s.41.52.62.87l1.7,3.02h-2.13l-1.38-2.43c-.14-.25-.28-.44-.42-.58s-.29-.23-.46-.29c-.17-.05-.38-.08-.62-.08h-1.07v3.38h-1.98Z"/>
          <path class="cls-3" d="m204.36,120.32v-8.08h1.81v6.11h-.48l4.59-6.11h1.65v8.08h-1.81v-6.13h.5l-4.61,6.13h-1.65Z"/>
        </g>
        <g>
          <path class="cls-3" d="m22.68,167.96c-1.17,0-2.18-.24-3.02-.71-.84-.47-1.48-1.15-1.93-2.02s-.67-1.9-.67-3.08.22-2.21.67-3.07,1.09-1.53,1.93-2.01c.84-.47,1.84-.71,3.02-.71.79,0,1.5.11,2.14.34s1.18.55,1.64.99l-.67,1.63c-.5-.41-.98-.7-1.45-.87-.46-.18-1-.26-1.59-.26-1.14,0-2.01.34-2.62,1.03-.6.69-.9,1.67-.9,2.94s.3,2.25.9,2.94c.6.69,1.47,1.04,2.62,1.04.6,0,1.13-.09,1.59-.26.46-.18.95-.47,1.45-.89l.67,1.63c-.46.43-1,.76-1.64.99s-1.35.35-2.14.35Z"/>
          <path class="cls-3" d="m27.89,171.44l-.46-1.58c.5-.11.92-.23,1.26-.37.34-.14.62-.32.85-.54s.41-.51.56-.86l.4-.94-.05.78-3.52-8.19h2.13l2.53,6.3h-.46l2.54-6.3h2.02l-3.68,8.53c-.25.58-.51,1.05-.8,1.43-.29.38-.6.68-.93.91-.33.23-.69.41-1.09.54-.39.13-.83.23-1.3.3Z"/>
          <path class="cls-3" d="m40.69,167.96c-1.27,0-2.28-.38-3.03-1.15-.75-.77-1.13-1.89-1.13-3.38v-1.38c0-1.52.35-2.75,1.04-3.68s1.74-1.54,3.14-1.84l2.96-.67.54,1.57-3.33.74c-.55.12-1.01.34-1.38.66-.36.32-.63.71-.82,1.16s-.27.93-.27,1.44v.85h-.27c.12-.48.31-.9.59-1.26s.63-.64,1.06-.84.91-.3,1.46-.3c.68,0,1.28.16,1.8.47s.92.77,1.22,1.36.45,1.3.45,2.12-.17,1.57-.5,2.19-.81,1.1-1.41,1.43-1.31.5-2.12.5Zm-.06-1.52c.66,0,1.18-.21,1.54-.63.37-.42.55-1.05.55-1.9s-.19-1.45-.56-1.88c-.37-.43-.89-.65-1.54-.65s-1.16.21-1.54.64c-.37.43-.56,1.04-.56,1.82,0,.86.19,1.51.56,1.94.37.43.88.65,1.54.65Z"/>
          <path class="cls-3" d="m46.25,168.03l-.62-1.57c.35-.13.65-.3.89-.5.24-.21.43-.47.58-.8.14-.33.25-.73.31-1.22.06-.49.1-1.06.1-1.74v-2.48h6.43v8.08h-1.98v-6.54h-2.62v1.01c0,1.16-.11,2.14-.32,2.92-.21.78-.54,1.41-.99,1.86-.45.46-1.04.79-1.76.98Z"/>
          <path class="cls-3" d="m56.2,167.8v-8.08h1.81v6.11h-.48l4.59-6.11h1.65v8.08h-1.81v-6.13h.5l-4.61,6.13h-1.65Z"/>
          <path class="cls-3" d="m66.04,167.8v-8.08h1.66l2.78,4.83,2.78-4.83h1.66v8.08h-1.76v-5.84h.37l-2.59,4.53h-.93l-2.59-4.53h.37v5.84h-1.76Z"/>
          <path class="cls-3" d="m80.39,167.96c-.7,0-1.32-.17-1.86-.5s-.95-.82-1.25-1.45c-.3-.63-.45-1.38-.45-2.26s.15-1.62.45-2.25c.3-.62.71-1.1,1.25-1.44s1.15-.5,1.86-.5,1.28.17,1.8.5.86.79,1.03,1.35h-.18l.18-1.7h1.92c-.03.33-.06.67-.09,1.01-.03.34-.04.68-.04,1.01v6.06h-1.98l-.02-1.66h.19c-.17.55-.52,1-1.04,1.33-.52.33-1.11.5-1.78.5Zm.56-1.54c.63,0,1.14-.22,1.52-.66.38-.44.58-1.11.58-2.01s-.19-1.56-.58-2c-.38-.44-.89-.66-1.52-.66s-1.14.22-1.52.66c-.38.44-.58,1.1-.58,2s.19,1.56.57,2.01c.38.44.89.66,1.53.66Z"/>
          <path class="cls-3" d="m94.36,169.88v-2.08h-7.01v-8.08h1.98v6.54h3.42v-6.54h1.97v6.54h1.31v3.62h-1.68Z"/>
          <path class="cls-3" d="m97.51,167.8v-8.08h1.81v6.11h-.48l4.59-6.11h1.65v8.08h-1.81v-6.13h.5l-4.61,6.13h-1.65Z"/>
          <path class="cls-3" d="m111.06,167.96c-.83,0-1.55-.17-2.16-.51-.61-.34-1.08-.83-1.42-1.46-.34-.63-.5-1.38-.5-2.24s.17-1.61.5-2.23c.34-.62.81-1.11,1.42-1.45.61-.34,1.33-.51,2.16-.51s1.55.17,2.17.51,1.09.82,1.42,1.45c.34.62.5,1.37.5,2.23s-.17,1.61-.5,2.24c-.34.63-.81,1.11-1.42,1.46s-1.34.51-2.17.51Zm0-1.54c.63,0,1.13-.22,1.5-.66.37-.44.56-1.11.56-2.01s-.19-1.56-.56-2c-.37-.44-.87-.66-1.5-.66s-1.13.22-1.5.66-.56,1.1-.56,2,.19,1.56.56,2.01c.37.44.88.66,1.5.66Z"/>
          <path class="cls-3" d="m117.04,167.8v-8.08h1.98v3.17h3.65v-3.17h1.98v8.08h-1.98v-3.38h-3.65v3.38h-1.98Z"/>
          <path class="cls-3" d="m126.93,167.8v-8.08h1.98v3.17h3.65v-3.17h1.98v8.08h-1.98v-3.38h-3.65v3.38h-1.98Z"/>
          <path class="cls-3" d="m140,167.96c-.7,0-1.32-.17-1.86-.5s-.95-.82-1.25-1.45c-.3-.63-.45-1.38-.45-2.26s.15-1.62.45-2.25c.3-.62.71-1.1,1.25-1.44s1.15-.5,1.86-.5,1.28.17,1.8.5.86.79,1.03,1.35h-.18l.18-1.7h1.92c-.03.33-.06.67-.09,1.01-.03.34-.04.68-.04,1.01v6.06h-1.98l-.02-1.66h.19c-.17.55-.52,1-1.04,1.33-.52.33-1.11.5-1.78.5Zm.56-1.54c.63,0,1.14-.22,1.52-.66.38-.44.58-1.11.58-2.01s-.19-1.56-.58-2c-.38-.44-.89-.66-1.52-.66s-1.14.22-1.52.66c-.38.44-.58,1.1-.58,2s.19,1.56.57,2.01c.38.44.89.66,1.53.66Z"/>
          <path class="cls-3" d="m146.29,167.8l1.23-2.13c.21-.36.48-.65.79-.87.31-.22.64-.33.98-.33h.35l-.02.18c-.95,0-1.68-.21-2.19-.62-.51-.42-.77-1.02-.77-1.82s.26-1.4.79-1.83c.53-.43,1.3-.65,2.33-.65h4.02v8.08h-1.82v-2.85h-.91c-.33,0-.62.09-.87.27-.25.18-.46.42-.63.71l-1.06,1.87h-2.22Zm3.89-4.14h1.81v-2.64h-1.81c-.54,0-.95.12-1.22.35-.27.23-.41.55-.41.96,0,.43.14.75.41.98.27.23.68.34,1.22.34Z"/>
          <path class="cls-3" d="m164.26,167.96c-1.27,0-2.28-.38-3.03-1.15-.75-.77-1.13-1.89-1.13-3.38v-1.38c0-1.52.35-2.75,1.04-3.68s1.74-1.54,3.14-1.84l2.96-.67.54,1.57-3.33.74c-.55.12-1.01.34-1.38.66-.36.32-.63.71-.82,1.16s-.27.93-.27,1.44v.85h-.27c.12-.48.31-.9.59-1.26s.63-.64,1.06-.84.91-.3,1.46-.3c.68,0,1.28.16,1.8.47s.92.77,1.22,1.36.45,1.3.45,2.12-.17,1.57-.5,2.19-.81,1.1-1.41,1.43-1.31.5-2.12.5Zm-.06-1.52c.66,0,1.18-.21,1.54-.63.37-.42.55-1.05.55-1.9s-.19-1.45-.56-1.88c-.37-.43-.89-.65-1.54-.65s-1.16.21-1.54.64c-.37.43-.56,1.04-.56,1.82,0,.86.19,1.51.56,1.94.37.43.88.65,1.54.65Z"/>
          <path class="cls-3" d="m169.96,171.44l-.46-1.58c.5-.11.92-.23,1.26-.37.34-.14.62-.32.85-.54.22-.22.41-.51.56-.86l.4-.94-.05.78-3.52-8.19h2.13l2.53,6.3h-.46l2.54-6.3h2.02l-3.68,8.53c-.25.58-.51,1.05-.8,1.43-.29.38-.6.68-.93.91-.33.23-.69.41-1.09.54-.39.13-.83.23-1.3.3Z"/>
          <path class="cls-3" d="m178.96,167.8v-8.08h1.66l2.78,4.83,2.78-4.83h1.66v8.08h-1.76v-5.84h.37l-2.59,4.53h-.93l-2.59-4.53h.37v5.84h-1.76Z"/>
          <path class="cls-3" d="m193.32,167.96c-.7,0-1.32-.17-1.86-.5s-.95-.82-1.25-1.45c-.3-.63-.45-1.38-.45-2.26s.15-1.62.45-2.25c.3-.62.71-1.1,1.25-1.44s1.15-.5,1.86-.5,1.28.17,1.8.5.86.79,1.03,1.35h-.18l.18-1.7h1.92c-.03.33-.06.67-.09,1.01-.03.34-.04.68-.04,1.01v6.06h-1.98l-.02-1.66h.19c-.17.55-.52,1-1.04,1.33-.52.33-1.11.5-1.78.5Zm.56-1.54c.63,0,1.14-.22,1.52-.66.38-.44.58-1.11.58-2.01s-.19-1.56-.58-2c-.38-.44-.89-.66-1.52-.66s-1.14.22-1.52.66c-.38.44-.58,1.1-.58,2s.19,1.56.57,2.01c.38.44.89.66,1.53.66Z"/>
          <path class="cls-3" d="m200.28,167.8v-8.08h6.06v1.57h-4.06v6.51h-2Z"/>
          <path class="cls-3" d="m210.93,167.96c-.7,0-1.32-.17-1.86-.5s-.95-.82-1.25-1.45c-.3-.63-.45-1.38-.45-2.26s.15-1.62.45-2.25c.3-.62.71-1.1,1.25-1.44s1.15-.5,1.86-.5,1.28.17,1.8.5.86.79,1.03,1.35h-.18l.18-1.7h1.92c-.03.33-.06.67-.09,1.01-.03.34-.04.68-.04,1.01v6.06h-1.98l-.02-1.66h.19c-.17.55-.52,1-1.04,1.33-.52.33-1.11.5-1.78.5Zm.56-1.54c.63,0,1.14-.22,1.52-.66.38-.44.58-1.11.58-2.01s-.19-1.56-.58-2c-.38-.44-.89-.66-1.52-.66s-1.14.22-1.52.66c-.38.44-.58,1.1-.58,2s.19,1.56.57,2.01c.38.44.89.66,1.53.66Z"/>
          <path class="cls-3" d="m221.14,167.8l5.1-11.28h1.73l5.17,11.28h-2.1l-1.38-3.17.83.56h-6.77l.86-.56-1.38,3.17h-2.08Zm5.95-9.07l-2.26,5.34-.42-.5h5.38l-.34.5-2.3-5.34h-.06Z"/>
          <path class="cls-3" d="m237.76,167.96c-.78,0-1.53-.11-2.24-.34-.71-.23-1.3-.55-1.76-.95l.67-1.55c.5.38,1.02.67,1.56.85.54.18,1.11.27,1.7.27.73,0,1.28-.14,1.65-.43.37-.29.56-.71.56-1.26s-.18-.94-.55-1.21-.9-.41-1.61-.41h-1.82v-1.65h1.65c.61,0,1.09-.15,1.46-.45.36-.3.54-.71.54-1.23,0-.49-.17-.86-.5-1.12-.34-.26-.82-.38-1.45-.38-1.13,0-2.13.38-2.99,1.15l-.67-1.54c.46-.43,1.03-.76,1.7-.99.68-.23,1.39-.35,2.14-.35,1.17,0,2.09.26,2.76.79.67.53,1,1.26,1,2.2,0,.67-.19,1.25-.57,1.74-.38.48-.9.81-1.56.97v-.19c.78.13,1.38.45,1.82.95.43.51.65,1.14.65,1.9,0,1-.37,1.79-1.1,2.38-.74.58-1.74.87-3.02.87Z"/>
        </g>
        <g>
          <path class="cls-3" d="m755.28,73.66v-1.39h2.62v-8.48h.83l-3.2,1.95v-1.6l2.83-1.76h1.2v9.89h2.46v1.39h-6.75Z"/>
          <path class="cls-3" d="m767.64,73.8c-.77,0-1.5-.12-2.21-.34-.7-.23-1.29-.56-1.76-.98l.58-1.26c.52.41,1.06.7,1.6.9s1.13.29,1.74.29c.79,0,1.39-.17,1.8-.5.41-.33.62-.81.62-1.42s-.21-1.07-.62-1.38c-.41-.31-1.02-.47-1.82-.47h-1.74v-1.34h1.62c.68,0,1.23-.17,1.63-.52s.61-.82.61-1.42c0-.54-.19-.96-.56-1.26-.37-.29-.91-.44-1.6-.44-1.17,0-2.2.41-3.09,1.23l-.56-1.26c.44-.44.99-.78,1.66-1.02.67-.24,1.38-.36,2.11-.36,1.13,0,2.02.26,2.67.78.65.52.98,1.23.98,2.15,0,.69-.19,1.29-.58,1.78s-.92.82-1.59.98v-.18c.8.13,1.42.45,1.85.95.43.51.65,1.14.65,1.9,0,1-.35,1.79-1.06,2.36-.71.57-1.68.86-2.92.86Z"/>
          <path class="cls-3" d="m777.36,73.8c-1.3,0-2.3-.5-3-1.5-.7-1-1.05-2.43-1.05-4.3s.35-3.34,1.05-4.31c.7-.98,1.7-1.46,3-1.46s2.31.49,3.01,1.46c.69.98,1.04,2.41,1.04,4.3s-.35,3.32-1.05,4.31c-.7,1-1.7,1.5-3,1.5Zm0-1.39c.82,0,1.43-.36,1.83-1.07.4-.71.6-1.83.6-3.34s-.2-2.64-.6-3.34c-.4-.7-1.01-1.05-1.83-1.05s-1.42.35-1.82,1.05c-.41.7-.61,1.81-.61,3.32s.21,2.65.62,3.36c.41.71,1.02,1.07,1.82,1.07Z"/>
          <path class="cls-3" d="m786.96,73.8c-1.3,0-2.3-.5-3-1.5-.7-1-1.05-2.43-1.05-4.3s.35-3.34,1.05-4.31c.7-.98,1.7-1.46,3-1.46s2.31.49,3.01,1.46c.69.98,1.04,2.41,1.04,4.3s-.35,3.32-1.05,4.31c-.7,1-1.7,1.5-3,1.5Zm0-1.39c.82,0,1.43-.36,1.83-1.07.4-.71.6-1.83.6-3.34s-.2-2.64-.6-3.34c-.4-.7-1.01-1.05-1.83-1.05s-1.42.35-1.82,1.05c-.41.7-.61,1.81-.61,3.32s.21,2.65.62,3.36c.41.71,1.02,1.07,1.82,1.07Z"/>
          <path class="cls-3" d="m792.73,74.57h-1.36l4.19-12.91h1.36l-4.19,12.91Z"/>
          <path class="cls-3" d="m798.47,73.66v-1.39h2.62v-8.48h.83l-3.2,1.95v-1.6l2.83-1.76h1.2v9.89h2.46v1.39h-6.75Z"/>
          <path class="cls-3" d="m807.75,73.66l5.54-10.51v.64h-6.18v-1.41h7.68v1.23l-5.22,10.05h-1.82Z"/>
          <path class="cls-3" d="m820.55,73.8c-1.3,0-2.3-.5-3-1.5s-1.05-2.43-1.05-4.3.35-3.34,1.05-4.31c.7-.98,1.7-1.46,3-1.46s2.31.49,3.01,1.46c.69.98,1.04,2.41,1.04,4.3s-.35,3.32-1.05,4.31-1.7,1.5-3,1.5Zm0-1.39c.82,0,1.43-.36,1.83-1.07.4-.71.6-1.83.6-3.34s-.2-2.64-.6-3.34c-.4-.7-1.01-1.05-1.83-1.05s-1.42.35-1.82,1.05c-.41.7-.61,1.81-.61,3.32s.21,2.65.62,3.36c.41.71,1.02,1.07,1.82,1.07Z"/>
          <path class="cls-3" d="m830.15,73.8c-1.3,0-2.3-.5-3-1.5s-1.05-2.43-1.05-4.3.35-3.34,1.05-4.31c.7-.98,1.7-1.46,3-1.46s2.31.49,3.01,1.46c.69.98,1.04,2.41,1.04,4.3s-.35,3.32-1.05,4.31-1.7,1.5-3,1.5Zm0-1.39c.82,0,1.43-.36,1.83-1.07.4-.71.6-1.83.6-3.34s-.2-2.64-.6-3.34c-.4-.7-1.01-1.05-1.83-1.05s-1.42.35-1.82,1.05c-.41.7-.61,1.81-.61,3.32s.21,2.65.62,3.36c.41.71,1.02,1.07,1.82,1.07Z"/>
          <path class="cls-3" d="m840.51,77.12v-9.58c0-.31-.01-.63-.04-.95-.03-.33-.06-.65-.09-.98h1.57l.16,1.82h-.18c.17-.61.51-1.09,1.03-1.44.52-.35,1.13-.53,1.85-.53s1.34.17,1.87.5.95.81,1.24,1.43c.29.62.44,1.37.44,2.24s-.15,1.61-.44,2.24c-.29.63-.71,1.11-1.24,1.44-.53.33-1.16.5-1.87.5s-1.31-.17-1.83-.52-.86-.82-1.03-1.42h.18v5.25h-1.62Zm3.9-4.58c.7,0,1.27-.25,1.69-.74.42-.49.63-1.22.63-2.18s-.21-1.68-.63-2.17c-.42-.48-.98-.73-1.69-.73s-1.27.24-1.69.73c-.42.49-.63,1.21-.63,2.17s.21,1.69.63,2.18c.42.49.98.74,1.69.74Z"/>
          <path class="cls-3" d="m849.85,73.66v-1.9h1.9v1.9h-1.9Z"/>
        </g>
        <g>
          <path class="cls-3" d="m784.94,120.47c-1.4,0-2.47-.49-3.22-1.46s-1.13-2.33-1.13-4.08c0-1.3.19-2.4.58-3.29s.93-1.57,1.64-2.04c.71-.47,1.57-.7,2.57-.7.6,0,1.19.12,1.79.34.6.23,1.1.55,1.5.97l-.59,1.25c-.39-.38-.83-.67-1.3-.86-.47-.19-.94-.29-1.42-.29-1.04,0-1.82.36-2.37,1.08s-.82,1.79-.82,3.22v1.36h-.16c.08-.58.26-1.07.54-1.5.29-.42.66-.74,1.12-.97.46-.22.97-.34,1.54-.34.67,0,1.27.15,1.78.46s.92.73,1.22,1.27c.3.54.45,1.16.45,1.85s-.16,1.35-.48,1.92c-.32.57-.76,1-1.32,1.32-.56.32-1.2.47-1.93.47Zm-.1-1.34c.45,0,.84-.1,1.18-.29.34-.19.6-.46.79-.81.19-.35.29-.75.29-1.21s-.1-.86-.29-1.2c-.19-.34-.46-.61-.79-.81s-.73-.3-1.18-.3-.84.1-1.18.3c-.34.2-.61.47-.8.81-.19.34-.29.74-.29,1.2s.1.86.29,1.21c.19.35.46.62.8.81.34.19.74.29,1.18.29Z"/>
          <path class="cls-3" d="m794.16,120.47c-1.3,0-2.3-.5-3-1.5-.7-1-1.05-2.43-1.05-4.3s.35-3.34,1.05-4.31c.7-.98,1.7-1.46,3-1.46s2.31.49,3.01,1.46c.69.98,1.04,2.41,1.04,4.3s-.35,3.32-1.05,4.31c-.7,1-1.7,1.5-3,1.5Zm0-1.39c.82,0,1.43-.36,1.83-1.07.4-.71.6-1.83.6-3.34s-.2-2.64-.6-3.34c-.4-.7-1.01-1.05-1.83-1.05s-1.42.35-1.82,1.05c-.41.7-.61,1.81-.61,3.32s.21,2.65.62,3.36c.41.71,1.02,1.07,1.82,1.07Z"/>
          <path class="cls-3" d="m803.76,120.47c-1.3,0-2.3-.5-3-1.5-.7-1-1.05-2.43-1.05-4.3s.35-3.34,1.05-4.31c.7-.98,1.7-1.46,3-1.46s2.31.49,3.01,1.46c.69.98,1.04,2.41,1.04,4.3s-.35,3.32-1.05,4.31c-.7,1-1.7,1.5-3,1.5Zm0-1.39c.82,0,1.43-.36,1.83-1.07.4-.71.6-1.83.6-3.34s-.2-2.64-.6-3.34c-.4-.7-1.01-1.05-1.83-1.05s-1.42.35-1.82,1.05c-.41.7-.61,1.81-.61,3.32s.21,2.65.62,3.36c.41.71,1.02,1.07,1.82,1.07Z"/>
          <path class="cls-3" d="m814.11,123.78v-9.58c0-.31-.01-.63-.04-.95-.03-.33-.06-.65-.09-.98h1.57l.16,1.82h-.18c.17-.61.51-1.09,1.03-1.44.52-.35,1.13-.53,1.85-.53s1.34.17,1.87.5.95.81,1.24,1.43c.29.62.44,1.37.44,2.24s-.15,1.61-.44,2.24c-.29.63-.71,1.11-1.24,1.44-.53.33-1.16.5-1.87.5s-1.31-.17-1.83-.52-.86-.82-1.03-1.42h.18v5.25h-1.62Zm3.9-4.58c.7,0,1.27-.25,1.69-.74.42-.49.63-1.22.63-2.18s-.21-1.68-.63-2.17c-.42-.48-.98-.73-1.69-.73s-1.27.24-1.69.73c-.42.49-.63,1.21-.63,2.17s.21,1.69.63,2.18c.42.49.98.74,1.69.74Z"/>
          <path class="cls-3" d="m823.45,120.32v-1.9h1.9v1.9h-1.9Z"/>
        </g>
        <g>
          <path class="cls-3" d="m784.94,167.95c-1.4,0-2.47-.49-3.22-1.46s-1.13-2.33-1.13-4.08c0-1.3.19-2.4.58-3.29s.93-1.57,1.64-2.04c.71-.47,1.57-.7,2.57-.7.6,0,1.19.12,1.79.34.6.23,1.1.55,1.5.97l-.59,1.25c-.39-.38-.83-.67-1.3-.86-.47-.19-.94-.29-1.42-.29-1.04,0-1.82.36-2.37,1.08-.54.72-.82,1.79-.82,3.22v1.36h-.16c.08-.58.26-1.07.54-1.5.29-.42.66-.74,1.12-.97.46-.22.97-.34,1.54-.34.67,0,1.27.16,1.78.46.52.31.92.73,1.22,1.27.3.54.45,1.16.45,1.85s-.16,1.35-.48,1.92c-.32.57-.76,1-1.32,1.32-.56.32-1.2.47-1.93.47Zm-.1-1.34c.45,0,.84-.1,1.18-.29s.6-.46.79-.81c.19-.35.29-.75.29-1.21s-.1-.86-.29-1.2c-.19-.34-.46-.61-.79-.81s-.73-.3-1.18-.3-.84.1-1.18.3c-.34.2-.61.47-.8.81-.19.34-.29.74-.29,1.2s.1.86.29,1.21c.19.35.46.62.8.81.34.19.74.29,1.18.29Z"/>
          <path class="cls-3" d="m794.16,167.95c-1.3,0-2.3-.5-3-1.5-.7-1-1.05-2.43-1.05-4.3s.35-3.34,1.05-4.31c.7-.98,1.7-1.46,3-1.46s2.31.49,3.01,1.46c.69.98,1.04,2.41,1.04,4.29s-.35,3.32-1.05,4.31c-.7,1-1.7,1.5-3,1.5Zm0-1.39c.82,0,1.43-.36,1.83-1.07.4-.71.6-1.83.6-3.34s-.2-2.64-.6-3.34c-.4-.7-1.01-1.05-1.83-1.05s-1.42.35-1.82,1.05c-.41.7-.61,1.81-.61,3.32s.21,2.65.62,3.36c.41.71,1.02,1.07,1.82,1.07Z"/>
          <path class="cls-3" d="m803.76,167.95c-1.3,0-2.3-.5-3-1.5-.7-1-1.05-2.43-1.05-4.3s.35-3.34,1.05-4.31c.7-.98,1.7-1.46,3-1.46s2.31.49,3.01,1.46c.69.98,1.04,2.41,1.04,4.29s-.35,3.32-1.05,4.31c-.7,1-1.7,1.5-3,1.5Zm0-1.39c.82,0,1.43-.36,1.83-1.07.4-.71.6-1.83.6-3.34s-.2-2.64-.6-3.34c-.4-.7-1.01-1.05-1.83-1.05s-1.42.35-1.82,1.05c-.41.7-.61,1.81-.61,3.32s.21,2.65.62,3.36c.41.71,1.02,1.07,1.82,1.07Z"/>
          <path class="cls-3" d="m814.11,171.26v-9.58c0-.31-.01-.63-.04-.95-.03-.32-.06-.65-.09-.98h1.57l.16,1.82h-.18c.17-.61.51-1.09,1.03-1.44s1.13-.53,1.85-.53,1.34.17,1.87.5.95.81,1.24,1.43c.29.62.44,1.37.44,2.24s-.15,1.61-.44,2.24c-.29.63-.71,1.11-1.24,1.44s-1.16.5-1.87.5-1.31-.17-1.83-.52c-.52-.35-.86-.82-1.03-1.42h.18v5.25h-1.62Zm3.9-4.58c.7,0,1.27-.25,1.69-.74.42-.49.63-1.22.63-2.18s-.21-1.68-.63-2.17c-.42-.49-.98-.73-1.69-.73s-1.27.24-1.69.73-.63,1.21-.63,2.17.21,1.69.63,2.18.98.74,1.69.74Z"/>
          <path class="cls-3" d="m823.45,167.8v-1.9h1.9v1.9h-1.9Z"/>
        </g>
        <g>
          <path class="cls-3" d="m22.93,29.23v-1.66l.51.38h-.45c-1.12,0-2.09-.19-2.9-.58s-1.43-.94-1.86-1.66-.65-1.59-.65-2.62c0-1.56.47-2.75,1.42-3.59.94-.84,2.27-1.26,3.99-1.26h.45l-.51.38v-1.57h2.05v1.57l-.51-.38h.45c1.72,0,3.05.42,4,1.26.95.84,1.42,2.04,1.42,3.59,0,1.02-.22,1.9-.66,2.62-.44.72-1.06,1.27-1.86,1.66-.81.38-1.77.58-2.9.58h-.45l.51-.38v1.66h-2.05Zm.02-2.48v-7.3l.43.35h-.59c-.94,0-1.69.28-2.26.82-.57.55-.86,1.37-.86,2.47,0,.71.13,1.32.4,1.81.27.49.63.86,1.1,1.11.47.25,1.01.38,1.62.38h.59l-.43.35Zm2.03,0l-.45-.35h.61c.61,0,1.15-.12,1.62-.38.47-.25.83-.62,1.1-1.11.26-.49.39-1.09.39-1.81,0-1.1-.28-1.92-.85-2.47-.57-.55-1.32-.82-2.26-.82h-.61l.45-.35v7.3Z"/>
          <path class="cls-3" d="m32.26,32.46l-.46-1.58c.5-.11.92-.23,1.26-.37s.62-.32.85-.54c.22-.22.41-.51.56-.86l.4-.94-.05.78-3.52-8.19h2.13l2.53,6.3h-.46l2.54-6.3h2.02l-3.68,8.53c-.25.58-.51,1.05-.8,1.43-.29.38-.6.68-.93.91s-.69.41-1.09.54-.83.23-1.3.3Z"/>
          <path class="cls-3" d="m43.15,28.83v-6.51h-2.77v-1.57h7.54v1.57h-2.78v6.51h-1.98Z"/>
          <path class="cls-3" d="m52.94,28.99c-1.27,0-2.28-.38-3.03-1.15-.75-.77-1.13-1.89-1.13-3.38v-1.38c0-1.53.35-2.75,1.04-3.68.69-.93,1.74-1.54,3.14-1.84l2.96-.67.54,1.57-3.33.74c-.55.12-1.01.34-1.38.66-.36.33-.63.71-.82,1.16-.18.45-.27.93-.27,1.44v.85h-.27c.12-.48.31-.9.59-1.26s.63-.64,1.06-.84c.43-.2.91-.3,1.46-.3.68,0,1.28.16,1.8.47s.92.77,1.22,1.36c.3.59.45,1.3.45,2.12s-.17,1.57-.5,2.19c-.34.62-.81,1.1-1.41,1.43-.6.34-1.31.5-2.12.5Zm-.06-1.52c.66,0,1.18-.21,1.54-.63.37-.42.55-1.05.55-1.9s-.19-1.45-.56-1.88c-.37-.43-.89-.65-1.54-.65s-1.16.21-1.54.64c-.37.43-.56,1.04-.56,1.82,0,.86.19,1.51.56,1.94.37.43.88.65,1.54.65Z"/>
          <path class="cls-3" d="m62.58,28.99c-.83,0-1.55-.17-2.16-.51-.61-.34-1.08-.83-1.42-1.46-.34-.63-.5-1.38-.5-2.24s.17-1.61.5-2.23c.34-.62.81-1.11,1.42-1.45.61-.34,1.33-.51,2.16-.51s1.55.17,2.17.51c.61.34,1.09.82,1.42,1.45.34.62.5,1.37.5,2.23s-.17,1.61-.5,2.24c-.34.63-.81,1.12-1.42,1.46-.61.34-1.34.51-2.17.51Zm0-1.54c.63,0,1.13-.22,1.5-.66.37-.44.56-1.11.56-2.01s-.19-1.56-.56-2c-.37-.44-.87-.66-1.5-.66s-1.13.22-1.5.66-.56,1.1-.56,2,.19,1.57.56,2.01.88.66,1.5.66Z"/>
          <path class="cls-3" d="m68.19,29.06l-.62-1.57c.35-.13.65-.3.89-.5.24-.21.43-.47.58-.8.14-.33.25-.73.31-1.22.06-.49.1-1.06.1-1.74v-2.48h6.43v8.08h-1.98v-6.54h-2.62v1.01c0,1.16-.11,2.14-.32,2.92-.21.78-.54,1.41-.99,1.86-.45.46-1.04.78-1.76.98Z"/>
          <path class="cls-3" d="m78.14,28.83v-8.08h1.98v3.17h1.22l2.37-3.17h2.14l-2.98,4.03-.43-.62c.3.03.56.11.79.24.23.13.45.31.66.54s.41.52.62.87l1.7,3.02h-2.13l-1.38-2.43c-.14-.25-.28-.44-.42-.58s-.29-.24-.46-.29c-.17-.05-.38-.08-.62-.08h-1.07v3.38h-1.98Z"/>
          <path class="cls-3" d="m87.26,28.83v-8.08h1.81v6.11h-.48l4.59-6.11h1.65v8.08h-1.81v-6.13h.5l-4.61,6.13h-1.65Z"/>
        </g>
      </g>
    </g>
  </g>
</svg>