<svg width="33" height="33" viewBox="0 0 33 33" fill="none" xmlns="http://www.w3.org/2000/svg">
<path d="M26.5538 6.3943C23.8894 3.72657 20.3296 2.25559 16.5497 2.25559C8.74733 2.25559 2.38543 8.58207 2.38543 16.3515L2.38543 16.3519C2.38739 19.0024 3.13812 21.5988 4.55171 23.8449L4.55167 23.8449L4.55535 23.8506L4.76503 24.1739L3.44797 28.9737L3.21881 29.8088L4.05665 29.5897L9.02771 28.2898L9.3452 28.4793L9.3482 28.4811C11.5305 29.7634 14.0224 30.4475 16.5663 30.4475C24.3668 30.4475 30.7307 24.1394 30.6975 16.3679M26.5538 6.3943C26.5542 6.39463 26.5545 6.39495 26.5548 6.39528L26.201 6.74858L26.5529 6.39333C26.5532 6.39366 26.5535 6.39398 26.5538 6.3943ZM26.5538 6.3943C27.8731 7.7012 28.9187 9.25573 29.6301 10.9679C30.3413 12.6799 30.7042 14.5153 30.6975 16.3679M30.6975 16.3679C30.6975 16.3672 30.6975 16.3665 30.6975 16.3658L30.1976 16.368L30.6975 16.3699C30.6975 16.3693 30.6975 16.3686 30.6975 16.3679ZM27.8365 5.15425L27.8383 5.15602C30.845 8.14771 32.5 12.1287 32.5 16.368C32.5 25.0985 25.3468 32.2195 16.5663 32.2195C13.8974 32.2195 11.2762 31.5476 8.94432 30.2834L8.77064 30.1893L8.57951 30.2393L0.710758 32.2973L2.80387 24.651L2.8589 24.45L2.75483 24.2694C1.37196 21.8695 0.632664 19.1504 0.632664 16.3515C0.632664 7.62108 7.78583 0.500098 16.5663 0.500101L16.5681 0.500095C18.663 0.492834 20.7383 0.900689 22.673 1.69981C24.6077 2.49893 26.363 3.67328 27.8365 5.15425ZM12.1175 15.7223L12.1212 15.7288L12.1251 15.7352C12.3773 16.1535 13.2221 17.5461 14.5095 18.6887C15.9095 19.9335 17.1505 20.4624 17.7107 20.7011C17.7974 20.7381 17.8678 20.7681 17.9199 20.7927C18.1585 20.9152 18.4291 21.0104 18.7151 20.9774C19.0247 20.9417 19.2506 20.7698 19.4172 20.5706C19.6531 20.3018 20.4386 19.3717 20.7403 18.9317C20.7814 18.8745 20.8082 18.852 20.818 18.8448C20.8268 18.8449 20.8469 18.8463 20.8837 18.8545C20.934 18.8658 20.9951 18.8849 21.0825 18.915C21.3629 19.0317 22.5141 19.5897 23.2644 19.9534C23.5238 20.0792 23.7353 20.1817 23.8463 20.2347C23.9493 20.2839 24.031 20.3213 24.1002 20.3529C24.1919 20.3948 24.2615 20.4266 24.3294 20.4626C24.3635 20.4806 24.3863 20.4945 24.4012 20.5045C24.4025 20.5139 24.4038 20.5251 24.405 20.5383C24.4125 20.6184 24.4137 20.7358 24.401 20.8862C24.3758 21.1858 24.2984 21.5839 24.1392 22.0216L24.1391 22.0215L24.1366 22.0288C24.0282 22.3417 23.6577 22.7223 23.1291 23.0604C22.6139 23.3899 22.0732 23.6 21.7692 23.6445C21.0908 23.7386 20.2811 23.779 19.4053 23.4984L19.4053 23.4983L19.3982 23.4961C18.8118 23.3179 18.0693 23.0769 17.1154 22.6586L17.1118 22.6571C13.3242 21.0311 10.7557 17.3055 10.3502 16.7173C10.3314 16.69 10.3172 16.6695 10.3078 16.6562L10.3036 16.6504L10.2993 16.6446L10.2962 16.6404C10.1966 16.5084 9.80316 15.9866 9.43325 15.2621C9.05568 14.5226 8.72512 13.6148 8.72512 12.7216C8.72512 11.0611 9.51307 10.1992 9.92708 9.74637C9.96142 9.70882 9.99318 9.67408 10.0217 9.64193C10.2924 9.35119 10.5801 9.29457 10.7457 9.29457H11.5272C11.5641 9.29648 11.5997 9.29689 11.6248 9.29717C11.6278 9.29721 11.6306 9.29724 11.6333 9.29727C11.6673 9.29769 11.6887 9.2982 11.708 9.29964C11.742 9.30217 11.7532 9.30671 11.7593 9.3096L11.7594 9.30967C11.765 9.31231 11.8677 9.36068 12.0078 9.69408C12.3349 10.5074 13.1724 12.5428 13.2839 12.7646C13.3198 12.836 13.3335 12.8823 13.3371 12.9165C13.3398 12.9423 13.3389 12.9769 13.3138 13.0315C13.3046 13.0499 13.2957 13.0676 13.2871 13.0847C13.1699 13.3188 13.1107 13.4369 12.9704 13.5997C12.8913 13.6915 12.8161 13.7821 12.7447 13.868C12.611 14.029 12.4907 14.174 12.383 14.2811C12.3797 14.2844 12.3762 14.2879 12.3726 14.2914C12.274 14.3894 12.0948 14.5673 12.0063 14.8122C11.8982 15.1115 11.9477 15.4206 12.1175 15.7223Z" fill="#6A6A6A" stroke="#6A6A6A"/>
</svg>
